ISO-10303-21;
HEADER;
/* Generated by software containing ST-Developer
 * from STEP Tools, Inc. (www.steptools.com) 
 */

FILE_DESCRIPTION(
/* description */ (''),
/* implementation_level */ '2;1');

FILE_NAME(
/* name */ 'adaptateur_bouton1of2.step',
/* time_stamp */ '2025-11-12T18:12:28+01:00',
/* author */ (''),
/* organization */ (''),
/* preprocessor_version */ 'ST-DEVELOPER v20.1',
/* originating_system */ 'Autodesk Translation Framework v14.17.0.0',
/* authorisation */ '');

FILE_SCHEMA (('AUTOMOTIVE_DESIGN { 1 0 10303 214 3 1 1 }'));
ENDSEC;

DATA;
#10=MECHANICAL_DESIGN_GEOMETRIC_PRESENTATION_REPRESENTATION('',(#13),#671);
#11=SHAPE_REPRESENTATION_RELATIONSHIP('SRR','None',#678,#12);
#12=ADVANCED_BREP_SHAPE_REPRESENTATION('',(#14),#670);
#13=STYLED_ITEM('',(#687),#14);
#14=MANIFOLD_SOLID_BREP('Corps6',#383);
#15=FACE_BOUND('',#49,.T.);
#16=FACE_BOUND('',#61,.T.);
#17=CYLINDRICAL_SURFACE('',#400,6.9);
#18=CYLINDRICAL_SURFACE('',#409,0.45);
#19=CYLINDRICAL_SURFACE('',#412,6.96433351840321);
#20=CYLINDRICAL_SURFACE('',#422,5.8);
#21=CYLINDRICAL_SURFACE('',#428,9.4);
#22=CYLINDRICAL_SURFACE('',#432,9.4);
#23=FACE_OUTER_BOUND('',#43,.T.);
#24=FACE_OUTER_BOUND('',#44,.T.);
#25=FACE_OUTER_BOUND('',#45,.T.);
#26=FACE_OUTER_BOUND('',#46,.T.);
#27=FACE_OUTER_BOUND('',#47,.T.);
#28=FACE_OUTER_BOUND('',#48,.T.);
#29=FACE_OUTER_BOUND('',#50,.T.);
#30=FACE_OUTER_BOUND('',#51,.T.);
#31=FACE_OUTER_BOUND('',#52,.T.);
#32=FACE_OUTER_BOUND('',#53,.T.);
#33=FACE_OUTER_BOUND('',#54,.T.);
#34=FACE_OUTER_BOUND('',#55,.T.);
#35=FACE_OUTER_BOUND('',#56,.T.);
#36=FACE_OUTER_BOUND('',#57,.T.);
#37=FACE_OUTER_BOUND('',#58,.T.);
#38=FACE_OUTER_BOUND('',#59,.T.);
#39=FACE_OUTER_BOUND('',#60,.T.);
#40=FACE_OUTER_BOUND('',#62,.T.);
#41=FACE_OUTER_BOUND('',#63,.T.);
#42=FACE_OUTER_BOUND('',#64,.T.);
#43=EDGE_LOOP('',(#241,#242,#243));
#44=EDGE_LOOP('',(#244,#245,#246,#247,#248,#249,#250,#251,#252,#253,#254,
#255,#256,#257,#258,#259));
#45=EDGE_LOOP('',(#260,#261,#262,#263,#264,#265));
#46=EDGE_LOOP('',(#266,#267,#268,#269,#270,#271));
#47=EDGE_LOOP('',(#272,#273));
#48=EDGE_LOOP('',(#274));
#49=EDGE_LOOP('',(#275));
#50=EDGE_LOOP('',(#276,#277,#278,#279,#280,#281,#282));
#51=EDGE_LOOP('',(#283,#284,#285,#286));
#52=EDGE_LOOP('',(#287,#288,#289,#290));
#53=EDGE_LOOP('',(#291,#292,#293,#294));
#54=EDGE_LOOP('',(#295,#296,#297,#298,#299,#300,#301,#302));
#55=EDGE_LOOP('',(#303,#304,#305,#306));
#56=EDGE_LOOP('',(#307,#308,#309,#310,#311,#312));
#57=EDGE_LOOP('',(#313,#314,#315,#316));
#58=EDGE_LOOP('',(#317,#318,#319,#320));
#59=EDGE_LOOP('',(#321,#322,#323,#324,#325,#326));
#60=EDGE_LOOP('',(#327,#328,#329,#330,#331,#332,#333,#334,#335));
#61=EDGE_LOOP('',(#336));
#62=EDGE_LOOP('',(#337,#338,#339,#340));
#63=EDGE_LOOP('',(#341,#342,#343,#344));
#64=EDGE_LOOP('',(#345,#346,#347,#348));
#65=LINE('',#563,#97);
#66=LINE('',#570,#98);
#67=LINE('',#574,#99);
#68=LINE('',#579,#100);
#69=LINE('',#583,#101);
#70=LINE('',#587,#102);
#71=LINE('',#591,#103);
#72=LINE('',#594,#104);
#73=LINE('',#597,#105);
#74=LINE('',#601,#106);
#75=LINE('',#604,#107);
#76=LINE('',#609,#108);
#77=LINE('',#616,#109);
#78=LINE('',#619,#110);
#79=LINE('',#620,#111);
#80=LINE('',#623,#112);
#81=LINE('',#626,#113);
#82=LINE('',#630,#114);
#83=LINE('',#633,#115);
#84=LINE('',#636,#116);
#85=LINE('',#638,#117);
#86=LINE('',#641,#118);
#87=LINE('',#642,#119);
#88=LINE('',#645,#120);
#89=LINE('',#648,#121);
#90=LINE('',#651,#122);
#91=LINE('',#653,#123);
#92=LINE('',#654,#124);
#93=LINE('',#658,#125);
#94=LINE('',#660,#126);
#95=LINE('',#663,#127);
#96=LINE('',#665,#128);
#97=VECTOR('',#445,10.);
#98=VECTOR('',#452,10.);
#99=VECTOR('',#455,6.9);
#100=VECTOR('',#460,10.);
#101=VECTOR('',#463,10.);
#102=VECTOR('',#466,10.);
#103=VECTOR('',#469,10.);
#104=VECTOR('',#472,10.);
#105=VECTOR('',#475,10.);
#106=VECTOR('',#478,10.);
#107=VECTOR('',#481,10.);
#108=VECTOR('',#488,10.);
#109=VECTOR('',#497,10.);
#110=VECTOR('',#500,10.);
#111=VECTOR('',#501,10.);
#112=VECTOR('',#504,10.);
#113=VECTOR('',#507,10.);
#114=VECTOR('',#512,5.8);
#115=VECTOR('',#515,10.);
#116=VECTOR('',#518,10.);
#117=VECTOR('',#521,10.);
#118=VECTOR('',#524,10.);
#119=VECTOR('',#525,10.);
#120=VECTOR('',#528,10.);
#121=VECTOR('',#533,10.);
#122=VECTOR('',#536,10.);
#123=VECTOR('',#537,10.);
#124=VECTOR('',#538,10.);
#125=VECTOR('',#543,10.);
#126=VECTOR('',#544,10.);
#127=VECTOR('',#549,10.);
#128=VECTOR('',#552,10.);
#129=CIRCLE('',#398,6.96433351840321);
#130=CIRCLE('',#399,0.45);
#131=CIRCLE('',#401,6.9);
#132=CIRCLE('',#402,6.9);
#133=CIRCLE('',#403,6.9);
#134=CIRCLE('',#404,6.9);
#135=CIRCLE('',#405,6.9);
#136=CIRCLE('',#406,6.9);
#137=CIRCLE('',#407,6.9);
#138=CIRCLE('',#408,6.9);
#139=CIRCLE('',#410,0.45);
#140=CIRCLE('',#411,0.45);
#141=CIRCLE('',#413,6.96433351840321);
#142=CIRCLE('',#414,6.96433351840321);
#143=CIRCLE('',#417,5.8);
#144=CIRCLE('',#419,9.4);
#145=CIRCLE('',#421,9.4);
#146=CIRCLE('',#423,5.8);
#147=CIRCLE('',#425,9.4);
#148=CIRCLE('',#429,9.4);
#149=CIRCLE('',#433,9.4);
#150=CIRCLE('',#434,9.4);
#151=VERTEX_POINT('',#559);
#152=VERTEX_POINT('',#560);
#153=VERTEX_POINT('',#562);
#154=VERTEX_POINT('',#566);
#155=VERTEX_POINT('',#567);
#156=VERTEX_POINT('',#569);
#157=VERTEX_POINT('',#571);
#158=VERTEX_POINT('',#573);
#159=VERTEX_POINT('',#576);
#160=VERTEX_POINT('',#578);
#161=VERTEX_POINT('',#580);
#162=VERTEX_POINT('',#582);
#163=VERTEX_POINT('',#584);
#164=VERTEX_POINT('',#586);
#165=VERTEX_POINT('',#588);
#166=VERTEX_POINT('',#590);
#167=VERTEX_POINT('',#592);
#168=VERTEX_POINT('',#596);
#169=VERTEX_POINT('',#598);
#170=VERTEX_POINT('',#600);
#171=VERTEX_POINT('',#602);
#172=VERTEX_POINT('',#607);
#173=VERTEX_POINT('',#612);
#174=VERTEX_POINT('',#615);
#175=VERTEX_POINT('',#617);
#176=VERTEX_POINT('',#622);
#177=VERTEX_POINT('',#624);
#178=VERTEX_POINT('',#628);
#179=VERTEX_POINT('',#632);
#180=VERTEX_POINT('',#634);
#181=VERTEX_POINT('',#640);
#182=VERTEX_POINT('',#644);
#183=VERTEX_POINT('',#650);
#184=VERTEX_POINT('',#652);
#185=VERTEX_POINT('',#656);
#186=VERTEX_POINT('',#659);
#187=EDGE_CURVE('',#151,#152,#129,.T.);
#188=EDGE_CURVE('',#153,#151,#65,.T.);
#189=EDGE_CURVE('',#152,#153,#130,.T.);
#190=EDGE_CURVE('',#154,#155,#131,.T.);
#191=EDGE_CURVE('',#154,#156,#66,.T.);
#192=EDGE_CURVE('',#157,#156,#132,.T.);
#193=EDGE_CURVE('',#157,#158,#67,.T.);
#194=EDGE_CURVE('',#158,#158,#133,.T.);
#195=EDGE_CURVE('',#159,#157,#134,.T.);
#196=EDGE_CURVE('',#159,#160,#68,.T.);
#197=EDGE_CURVE('',#160,#161,#135,.T.);
#198=EDGE_CURVE('',#161,#162,#69,.T.);
#199=EDGE_CURVE('',#163,#162,#136,.T.);
#200=EDGE_CURVE('',#163,#164,#70,.T.);
#201=EDGE_CURVE('',#165,#164,#137,.T.);
#202=EDGE_CURVE('',#165,#166,#71,.T.);
#203=EDGE_CURVE('',#166,#167,#138,.T.);
#204=EDGE_CURVE('',#167,#155,#72,.T.);
#205=EDGE_CURVE('',#153,#168,#73,.T.);
#206=EDGE_CURVE('',#169,#168,#139,.T.);
#207=EDGE_CURVE('',#169,#170,#74,.T.);
#208=EDGE_CURVE('',#171,#170,#140,.T.);
#209=EDGE_CURVE('',#152,#171,#75,.T.);
#210=EDGE_CURVE('',#170,#171,#141,.T.);
#211=EDGE_CURVE('',#172,#169,#142,.T.);
#212=EDGE_CURVE('',#172,#151,#76,.T.);
#213=EDGE_CURVE('',#173,#173,#143,.T.);
#214=EDGE_CURVE('',#168,#174,#77,.T.);
#215=EDGE_CURVE('',#175,#174,#144,.T.);
#216=EDGE_CURVE('',#175,#154,#78,.T.);
#217=EDGE_CURVE('',#155,#172,#79,.T.);
#218=EDGE_CURVE('',#162,#176,#80,.T.);
#219=EDGE_CURVE('',#177,#176,#145,.T.);
#220=EDGE_CURVE('',#177,#163,#81,.T.);
#221=EDGE_CURVE('',#178,#178,#146,.T.);
#222=EDGE_CURVE('',#178,#173,#82,.T.);
#223=EDGE_CURVE('',#166,#179,#83,.T.);
#224=EDGE_CURVE('',#180,#179,#147,.T.);
#225=EDGE_CURVE('',#167,#180,#84,.T.);
#226=EDGE_CURVE('',#174,#180,#85,.T.);
#227=EDGE_CURVE('',#181,#175,#86,.T.);
#228=EDGE_CURVE('',#156,#181,#87,.T.);
#229=EDGE_CURVE('',#179,#182,#88,.T.);
#230=EDGE_CURVE('',#181,#182,#148,.T.);
#231=EDGE_CURVE('',#182,#165,#89,.T.);
#232=EDGE_CURVE('',#183,#159,#90,.T.);
#233=EDGE_CURVE('',#184,#183,#91,.T.);
#234=EDGE_CURVE('',#160,#184,#92,.T.);
#235=EDGE_CURVE('',#185,#183,#149,.T.);
#236=EDGE_CURVE('',#185,#177,#93,.T.);
#237=EDGE_CURVE('',#176,#186,#94,.T.);
#238=EDGE_CURVE('',#186,#184,#150,.T.);
#239=EDGE_CURVE('',#164,#185,#95,.T.);
#240=EDGE_CURVE('',#161,#186,#96,.T.);
#241=ORIENTED_EDGE('',*,*,#187,.F.);
#242=ORIENTED_EDGE('',*,*,#188,.F.);
#243=ORIENTED_EDGE('',*,*,#189,.F.);
#244=ORIENTED_EDGE('',*,*,#190,.F.);
#245=ORIENTED_EDGE('',*,*,#191,.T.);
#246=ORIENTED_EDGE('',*,*,#192,.F.);
#247=ORIENTED_EDGE('',*,*,#193,.T.);
#248=ORIENTED_EDGE('',*,*,#194,.F.);
#249=ORIENTED_EDGE('',*,*,#193,.F.);
#250=ORIENTED_EDGE('',*,*,#195,.F.);
#251=ORIENTED_EDGE('',*,*,#196,.T.);
#252=ORIENTED_EDGE('',*,*,#197,.T.);
#253=ORIENTED_EDGE('',*,*,#198,.T.);
#254=ORIENTED_EDGE('',*,*,#199,.F.);
#255=ORIENTED_EDGE('',*,*,#200,.T.);
#256=ORIENTED_EDGE('',*,*,#201,.F.);
#257=ORIENTED_EDGE('',*,*,#202,.T.);
#258=ORIENTED_EDGE('',*,*,#203,.T.);
#259=ORIENTED_EDGE('',*,*,#204,.T.);
#260=ORIENTED_EDGE('',*,*,#189,.T.);
#261=ORIENTED_EDGE('',*,*,#205,.T.);
#262=ORIENTED_EDGE('',*,*,#206,.F.);
#263=ORIENTED_EDGE('',*,*,#207,.T.);
#264=ORIENTED_EDGE('',*,*,#208,.F.);
#265=ORIENTED_EDGE('',*,*,#209,.F.);
#266=ORIENTED_EDGE('',*,*,#187,.T.);
#267=ORIENTED_EDGE('',*,*,#209,.T.);
#268=ORIENTED_EDGE('',*,*,#210,.F.);
#269=ORIENTED_EDGE('',*,*,#207,.F.);
#270=ORIENTED_EDGE('',*,*,#211,.F.);
#271=ORIENTED_EDGE('',*,*,#212,.T.);
#272=ORIENTED_EDGE('',*,*,#208,.T.);
#273=ORIENTED_EDGE('',*,*,#210,.T.);
#274=ORIENTED_EDGE('',*,*,#194,.T.);
#275=ORIENTED_EDGE('',*,*,#213,.T.);
#276=ORIENTED_EDGE('',*,*,#206,.T.);
#277=ORIENTED_EDGE('',*,*,#214,.T.);
#278=ORIENTED_EDGE('',*,*,#215,.F.);
#279=ORIENTED_EDGE('',*,*,#216,.T.);
#280=ORIENTED_EDGE('',*,*,#190,.T.);
#281=ORIENTED_EDGE('',*,*,#217,.T.);
#282=ORIENTED_EDGE('',*,*,#211,.T.);
#283=ORIENTED_EDGE('',*,*,#199,.T.);
#284=ORIENTED_EDGE('',*,*,#218,.T.);
#285=ORIENTED_EDGE('',*,*,#219,.F.);
#286=ORIENTED_EDGE('',*,*,#220,.T.);
#287=ORIENTED_EDGE('',*,*,#221,.F.);
#288=ORIENTED_EDGE('',*,*,#222,.T.);
#289=ORIENTED_EDGE('',*,*,#213,.F.);
#290=ORIENTED_EDGE('',*,*,#222,.F.);
#291=ORIENTED_EDGE('',*,*,#223,.T.);
#292=ORIENTED_EDGE('',*,*,#224,.F.);
#293=ORIENTED_EDGE('',*,*,#225,.F.);
#294=ORIENTED_EDGE('',*,*,#203,.F.);
#295=ORIENTED_EDGE('',*,*,#217,.F.);
#296=ORIENTED_EDGE('',*,*,#204,.F.);
#297=ORIENTED_EDGE('',*,*,#225,.T.);
#298=ORIENTED_EDGE('',*,*,#226,.F.);
#299=ORIENTED_EDGE('',*,*,#214,.F.);
#300=ORIENTED_EDGE('',*,*,#205,.F.);
#301=ORIENTED_EDGE('',*,*,#188,.T.);
#302=ORIENTED_EDGE('',*,*,#212,.F.);
#303=ORIENTED_EDGE('',*,*,#216,.F.);
#304=ORIENTED_EDGE('',*,*,#227,.F.);
#305=ORIENTED_EDGE('',*,*,#228,.F.);
#306=ORIENTED_EDGE('',*,*,#191,.F.);
#307=ORIENTED_EDGE('',*,*,#227,.T.);
#308=ORIENTED_EDGE('',*,*,#215,.T.);
#309=ORIENTED_EDGE('',*,*,#226,.T.);
#310=ORIENTED_EDGE('',*,*,#224,.T.);
#311=ORIENTED_EDGE('',*,*,#229,.T.);
#312=ORIENTED_EDGE('',*,*,#230,.F.);
#313=ORIENTED_EDGE('',*,*,#231,.F.);
#314=ORIENTED_EDGE('',*,*,#229,.F.);
#315=ORIENTED_EDGE('',*,*,#223,.F.);
#316=ORIENTED_EDGE('',*,*,#202,.F.);
#317=ORIENTED_EDGE('',*,*,#232,.F.);
#318=ORIENTED_EDGE('',*,*,#233,.F.);
#319=ORIENTED_EDGE('',*,*,#234,.F.);
#320=ORIENTED_EDGE('',*,*,#196,.F.);
#321=ORIENTED_EDGE('',*,*,#233,.T.);
#322=ORIENTED_EDGE('',*,*,#235,.F.);
#323=ORIENTED_EDGE('',*,*,#236,.T.);
#324=ORIENTED_EDGE('',*,*,#219,.T.);
#325=ORIENTED_EDGE('',*,*,#237,.T.);
#326=ORIENTED_EDGE('',*,*,#238,.T.);
#327=ORIENTED_EDGE('',*,*,#232,.T.);
#328=ORIENTED_EDGE('',*,*,#195,.T.);
#329=ORIENTED_EDGE('',*,*,#192,.T.);
#330=ORIENTED_EDGE('',*,*,#228,.T.);
#331=ORIENTED_EDGE('',*,*,#230,.T.);
#332=ORIENTED_EDGE('',*,*,#231,.T.);
#333=ORIENTED_EDGE('',*,*,#201,.T.);
#334=ORIENTED_EDGE('',*,*,#239,.T.);
#335=ORIENTED_EDGE('',*,*,#235,.T.);
#336=ORIENTED_EDGE('',*,*,#221,.T.);
#337=ORIENTED_EDGE('',*,*,#218,.F.);
#338=ORIENTED_EDGE('',*,*,#198,.F.);
#339=ORIENTED_EDGE('',*,*,#240,.T.);
#340=ORIENTED_EDGE('',*,*,#237,.F.);
#341=ORIENTED_EDGE('',*,*,#234,.T.);
#342=ORIENTED_EDGE('',*,*,#238,.F.);
#343=ORIENTED_EDGE('',*,*,#240,.F.);
#344=ORIENTED_EDGE('',*,*,#197,.F.);
#345=ORIENTED_EDGE('',*,*,#220,.F.);
#346=ORIENTED_EDGE('',*,*,#236,.F.);
#347=ORIENTED_EDGE('',*,*,#239,.F.);
#348=ORIENTED_EDGE('',*,*,#200,.F.);
#349=PLANE('',#397);
#350=PLANE('',#415);
#351=PLANE('',#416);
#352=PLANE('',#418);
#353=PLANE('',#420);
#354=PLANE('',#424);
#355=PLANE('',#426);
#356=PLANE('',#427);
#357=PLANE('',#430);
#358=PLANE('',#431);
#359=PLANE('',#435);
#360=PLANE('',#436);
#361=PLANE('',#437);
#362=PLANE('',#438);
#363=ADVANCED_FACE('',(#23),#349,.T.);
#364=ADVANCED_FACE('',(#24),#17,.T.);
#365=ADVANCED_FACE('',(#25),#18,.T.);
#366=ADVANCED_FACE('',(#26),#19,.F.);
#367=ADVANCED_FACE('',(#27),#350,.F.);
#368=ADVANCED_FACE('',(#28,#15),#351,.F.);
#369=ADVANCED_FACE('',(#29),#352,.F.);
#370=ADVANCED_FACE('',(#30),#353,.F.);
#371=ADVANCED_FACE('',(#31),#20,.F.);
#372=ADVANCED_FACE('',(#32),#354,.F.);
#373=ADVANCED_FACE('',(#33),#355,.F.);
#374=ADVANCED_FACE('',(#34),#356,.F.);
#375=ADVANCED_FACE('',(#35),#21,.T.);
#376=ADVANCED_FACE('',(#36),#357,.F.);
#377=ADVANCED_FACE('',(#37),#358,.F.);
#378=ADVANCED_FACE('',(#38),#22,.T.);
#379=ADVANCED_FACE('',(#39,#16),#359,.T.);
#380=ADVANCED_FACE('',(#40),#360,.F.);
#381=ADVANCED_FACE('',(#41),#361,.F.);
#382=ADVANCED_FACE('',(#42),#362,.F.);
#383=CLOSED_SHELL('',(#363,#364,#365,#366,#367,#368,#369,#370,#371,#372,
#373,#374,#375,#376,#377,#378,#379,#380,#381,#382));
#384=DERIVED_UNIT_ELEMENT(#386,1.);
#385=DERIVED_UNIT_ELEMENT(#673,-3.);
#386=(
MASS_UNIT()
NAMED_UNIT(*)
SI_UNIT(.KILO.,.GRAM.)
);
#387=DERIVED_UNIT((#384,#385));
#388=MEASURE_REPRESENTATION_ITEM('density measure',
POSITIVE_RATIO_MEASURE(7850.),#387);
#389=PROPERTY_DEFINITION_REPRESENTATION(#394,#391);
#390=PROPERTY_DEFINITION_REPRESENTATION(#395,#392);
#391=REPRESENTATION('material name',(#393),#670);
#392=REPRESENTATION('density',(#388),#670);
#393=DESCRIPTIVE_REPRESENTATION_ITEM('Acier','Acier');
#394=PROPERTY_DEFINITION('material property','material name',#680);
#395=PROPERTY_DEFINITION('material property','density of part',#680);
#396=AXIS2_PLACEMENT_3D('',#557,#439,#440);
#397=AXIS2_PLACEMENT_3D('',#558,#441,#442);
#398=AXIS2_PLACEMENT_3D('',#561,#443,#444);
#399=AXIS2_PLACEMENT_3D('',#564,#446,#447);
#400=AXIS2_PLACEMENT_3D('',#565,#448,#449);
#401=AXIS2_PLACEMENT_3D('',#568,#450,#451);
#402=AXIS2_PLACEMENT_3D('',#572,#453,#454);
#403=AXIS2_PLACEMENT_3D('',#575,#456,#457);
#404=AXIS2_PLACEMENT_3D('',#577,#458,#459);
#405=AXIS2_PLACEMENT_3D('',#581,#461,#462);
#406=AXIS2_PLACEMENT_3D('',#585,#464,#465);
#407=AXIS2_PLACEMENT_3D('',#589,#467,#468);
#408=AXIS2_PLACEMENT_3D('',#593,#470,#471);
#409=AXIS2_PLACEMENT_3D('',#595,#473,#474);
#410=AXIS2_PLACEMENT_3D('',#599,#476,#477);
#411=AXIS2_PLACEMENT_3D('',#603,#479,#480);
#412=AXIS2_PLACEMENT_3D('',#605,#482,#483);
#413=AXIS2_PLACEMENT_3D('',#606,#484,#485);
#414=AXIS2_PLACEMENT_3D('',#608,#486,#487);
#415=AXIS2_PLACEMENT_3D('',#610,#489,#490);
#416=AXIS2_PLACEMENT_3D('',#611,#491,#492);
#417=AXIS2_PLACEMENT_3D('',#613,#493,#494);
#418=AXIS2_PLACEMENT_3D('',#614,#495,#496);
#419=AXIS2_PLACEMENT_3D('',#618,#498,#499);
#420=AXIS2_PLACEMENT_3D('',#621,#502,#503);
#421=AXIS2_PLACEMENT_3D('',#625,#505,#506);
#422=AXIS2_PLACEMENT_3D('',#627,#508,#509);
#423=AXIS2_PLACEMENT_3D('',#629,#510,#511);
#424=AXIS2_PLACEMENT_3D('',#631,#513,#514);
#425=AXIS2_PLACEMENT_3D('',#635,#516,#517);
#426=AXIS2_PLACEMENT_3D('',#637,#519,#520);
#427=AXIS2_PLACEMENT_3D('',#639,#522,#523);
#428=AXIS2_PLACEMENT_3D('',#643,#526,#527);
#429=AXIS2_PLACEMENT_3D('',#646,#529,#530);
#430=AXIS2_PLACEMENT_3D('',#647,#531,#532);
#431=AXIS2_PLACEMENT_3D('',#649,#534,#535);
#432=AXIS2_PLACEMENT_3D('',#655,#539,#540);
#433=AXIS2_PLACEMENT_3D('',#657,#541,#542);
#434=AXIS2_PLACEMENT_3D('',#661,#545,#546);
#435=AXIS2_PLACEMENT_3D('',#662,#547,#548);
#436=AXIS2_PLACEMENT_3D('',#664,#550,#551);
#437=AXIS2_PLACEMENT_3D('',#666,#553,#554);
#438=AXIS2_PLACEMENT_3D('',#667,#555,#556);
#439=DIRECTION('axis',(0.,0.,1.));
#440=DIRECTION('refdir',(1.,0.,0.));
#441=DIRECTION('center_axis',(0.,1.,0.));
#442=DIRECTION('ref_axis',(1.,0.,0.));
#443=DIRECTION('center_axis',(0.,1.,0.));
#444=DIRECTION('ref_axis',(1.,0.,0.));
#445=DIRECTION('',(-0.822234448594995,0.,-0.569148936170213));
#446=DIRECTION('center_axis',(0.,-1.,0.));
#447=DIRECTION('ref_axis',(1.,0.,0.));
#448=DIRECTION('center_axis',(0.,1.,0.));
#449=DIRECTION('ref_axis',(1.,0.,0.));
#450=DIRECTION('center_axis',(0.,1.,0.));
#451=DIRECTION('ref_axis',(1.,0.,0.));
#452=DIRECTION('',(0.,1.,0.));
#453=DIRECTION('center_axis',(0.,1.,0.));
#454=DIRECTION('ref_axis',(1.,0.,0.));
#455=DIRECTION('',(0.,-1.,0.));
#456=DIRECTION('center_axis',(0.,-1.,0.));
#457=DIRECTION('ref_axis',(1.,0.,0.));
#458=DIRECTION('center_axis',(0.,1.,0.));
#459=DIRECTION('ref_axis',(1.,0.,0.));
#460=DIRECTION('',(0.,-1.,0.));
#461=DIRECTION('center_axis',(0.,-1.,0.));
#462=DIRECTION('ref_axis',(1.,0.,0.));
#463=DIRECTION('',(0.,-1.,0.));
#464=DIRECTION('center_axis',(0.,1.,0.));
#465=DIRECTION('ref_axis',(1.,0.,0.));
#466=DIRECTION('',(0.,1.,0.));
#467=DIRECTION('center_axis',(0.,1.,0.));
#468=DIRECTION('ref_axis',(1.,0.,0.));
#469=DIRECTION('',(0.,-1.,0.));
#470=DIRECTION('center_axis',(0.,-1.,0.));
#471=DIRECTION('ref_axis',(1.,0.,0.));
#472=DIRECTION('',(0.,-1.,0.));
#473=DIRECTION('center_axis',(0.,-1.,0.));
#474=DIRECTION('ref_axis',(1.,0.,0.));
#475=DIRECTION('',(0.,1.,0.));
#476=DIRECTION('center_axis',(0.,1.,0.));
#477=DIRECTION('ref_axis',(1.,0.,0.));
#478=DIRECTION('',(0.,-1.,0.));
#479=DIRECTION('center_axis',(0.,-1.,0.));
#480=DIRECTION('ref_axis',(1.,0.,0.));
#481=DIRECTION('',(0.,-1.,0.));
#482=DIRECTION('center_axis',(0.,-1.,0.));
#483=DIRECTION('ref_axis',(1.,0.,0.));
#484=DIRECTION('center_axis',(0.,1.,0.));
#485=DIRECTION('ref_axis',(1.,0.,0.));
#486=DIRECTION('center_axis',(0.,-1.,0.));
#487=DIRECTION('ref_axis',(1.,0.,0.));
#488=DIRECTION('',(0.,-1.,0.));
#489=DIRECTION('center_axis',(0.,1.,0.));
#490=DIRECTION('ref_axis',(1.,0.,0.));
#491=DIRECTION('center_axis',(0.,1.,0.));
#492=DIRECTION('ref_axis',(1.,0.,0.));
#493=DIRECTION('center_axis',(0.,1.,0.));
#494=DIRECTION('ref_axis',(1.,0.,0.));
#495=DIRECTION('center_axis',(0.,1.,0.));
#496=DIRECTION('ref_axis',(1.,0.,0.));
#497=DIRECTION('',(0.822234448594995,0.,0.569148936170213));
#498=DIRECTION('center_axis',(0.,1.,0.));
#499=DIRECTION('ref_axis',(1.,0.,0.));
#500=DIRECTION('',(0.976187060183953,0.,-0.216930457818656));
#501=DIRECTION('',(0.822234448594995,0.,0.569148936170213));
#502=DIRECTION('center_axis',(0.,1.,0.));
#503=DIRECTION('ref_axis',(1.,0.,0.));
#504=DIRECTION('',(-0.822234448594995,0.,-0.569148936170213));
#505=DIRECTION('center_axis',(0.,1.,0.));
#506=DIRECTION('ref_axis',(1.,0.,0.));
#507=DIRECTION('',(-0.976187060183953,0.,0.216930457818656));
#508=DIRECTION('center_axis',(0.,1.,0.));
#509=DIRECTION('ref_axis',(1.,0.,0.));
#510=DIRECTION('center_axis',(0.,-1.,0.));
#511=DIRECTION('ref_axis',(1.,0.,0.));
#512=DIRECTION('',(0.,-1.,0.));
#513=DIRECTION('center_axis',(0.,1.,0.));
#514=DIRECTION('ref_axis',(1.,0.,0.));
#515=DIRECTION('',(0.976968855959035,0.,0.21338194507993));
#516=DIRECTION('center_axis',(0.,1.,0.));
#517=DIRECTION('ref_axis',(1.,0.,0.));
#518=DIRECTION('',(0.822234448594995,0.,0.569148936170213));
#519=DIRECTION('center_axis',(-0.569148936170213,0.,0.822234448594995));
#520=DIRECTION('ref_axis',(0.822234448594995,0.,0.569148936170213));
#521=DIRECTION('',(0.,1.,0.));
#522=DIRECTION('center_axis',(0.216930457818656,0.,0.976187060183953));
#523=DIRECTION('ref_axis',(0.976187060183953,0.,-0.216930457818656));
#524=DIRECTION('',(0.,-1.,0.));
#525=DIRECTION('',(-0.976187060183953,0.,0.216930457818656));
#526=DIRECTION('center_axis',(0.,1.,0.));
#527=DIRECTION('ref_axis',(1.,0.,0.));
#528=DIRECTION('',(0.,1.,0.));
#529=DIRECTION('center_axis',(0.,1.,0.));
#530=DIRECTION('ref_axis',(1.,0.,0.));
#531=DIRECTION('center_axis',(-0.21338194507993,0.,0.976968855959035));
#532=DIRECTION('ref_axis',(0.976968855959035,0.,0.21338194507993));
#533=DIRECTION('',(-0.976968855959035,0.,-0.21338194507993));
#534=DIRECTION('center_axis',(0.21338194507993,0.,-0.976968855959035));
#535=DIRECTION('ref_axis',(-0.976968855959035,0.,-0.21338194507993));
#536=DIRECTION('',(0.976968855959035,0.,0.21338194507993));
#537=DIRECTION('',(0.,1.,0.));
#538=DIRECTION('',(-0.976968855959035,0.,-0.21338194507993));
#539=DIRECTION('center_axis',(0.,1.,0.));
#540=DIRECTION('ref_axis',(1.,0.,0.));
#541=DIRECTION('center_axis',(0.,1.,0.));
#542=DIRECTION('ref_axis',(1.,0.,0.));
#543=DIRECTION('',(0.,-1.,0.));
#544=DIRECTION('',(0.,1.,0.));
#545=DIRECTION('center_axis',(0.,1.,0.));
#546=DIRECTION('ref_axis',(1.,0.,0.));
#547=DIRECTION('center_axis',(0.,1.,0.));
#548=DIRECTION('ref_axis',(1.,0.,0.));
#549=DIRECTION('',(0.976187060183953,0.,-0.216930457818656));
#550=DIRECTION('center_axis',(0.569148936170213,0.,-0.822234448594995));
#551=DIRECTION('ref_axis',(-0.822234448594995,0.,-0.569148936170213));
#552=DIRECTION('',(-0.822234448594995,0.,-0.569148936170213));
#553=DIRECTION('center_axis',(0.,1.,0.));
#554=DIRECTION('ref_axis',(1.,0.,0.));
#555=DIRECTION('center_axis',(-0.216930457818656,0.,-0.976187060183953));
#556=DIRECTION('ref_axis',(-0.976187060183953,0.,0.216930457818656));
#557=CARTESIAN_POINT('',(0.,0.,0.));
#558=CARTESIAN_POINT('Origin',(5.89841769530547,-0.2,3.86610598365377));
#559=CARTESIAN_POINT('',(5.72631493033591,-0.2,3.96374301313374));
#560=CARTESIAN_POINT('',(5.96902984947983,-0.2,3.58784392240985));
#561=CARTESIAN_POINT('Origin',(0.,-0.2,0.));
#562=CARTESIAN_POINT('',(6.04342319717321,-0.2,4.18324468085106));
#563=CARTESIAN_POINT('',(-7.72900381679295,-0.2,-5.35));
#564=CARTESIAN_POINT('Origin',(5.67341769530546,-0.2,3.92712765957447));
#565=CARTESIAN_POINT('Origin',(0.,0.,0.));
#566=CARTESIAN_POINT('',(-6.73569071526927,0.,1.49682015894873));
#567=CARTESIAN_POINT('',(5.67341769530547,0.,3.92712765957447));
#568=CARTESIAN_POINT('Origin',(0.,0.,0.));
#569=CARTESIAN_POINT('',(-6.73569071526927,5.,1.49682015894873));
#570=CARTESIAN_POINT('',(-6.73569071526927,0.,1.49682015894873));
#571=CARTESIAN_POINT('',(-6.9,5.,8.45006291411674E-16));
#572=CARTESIAN_POINT('Origin',(0.,5.,0.));
#573=CARTESIAN_POINT('',(-6.9,-2.,8.45006291411674E-16));
#574=CARTESIAN_POINT('',(-6.9,0.,8.45006291411674E-16));
#575=CARTESIAN_POINT('Origin',(0.,-2.,0.));
#576=CARTESIAN_POINT('',(-6.74108510611734,5.,-1.47233542105152));
#577=CARTESIAN_POINT('Origin',(0.,5.,0.));
#578=CARTESIAN_POINT('',(-6.74108510611734,2.7,-1.47233542105152));
#579=CARTESIAN_POINT('',(-6.74108510611734,0.,-1.47233542105152));
#580=CARTESIAN_POINT('',(-5.67341769530546,2.7,-3.92712765957447));
#581=CARTESIAN_POINT('Origin',(0.,2.7,0.));
#582=CARTESIAN_POINT('',(-5.67341769530546,0.,-3.92712765957447));
#583=CARTESIAN_POINT('',(-5.67341769530546,0.,-3.92712765957447));
#584=CARTESIAN_POINT('',(6.73569071526928,0.,-1.49682015894873));
#585=CARTESIAN_POINT('Origin',(0.,0.,0.));
#586=CARTESIAN_POINT('',(6.73569071526928,5.,-1.49682015894873));
#587=CARTESIAN_POINT('',(6.73569071526927,0.,-1.49682015894873));
#588=CARTESIAN_POINT('',(6.74108510611734,5.,1.47233542105152));
#589=CARTESIAN_POINT('Origin',(0.,5.,0.));
#590=CARTESIAN_POINT('',(6.74108510611734,2.7,1.47233542105152));
#591=CARTESIAN_POINT('',(6.74108510611734,0.,1.47233542105152));
#592=CARTESIAN_POINT('',(5.67341769530547,2.7,3.92712765957447));
#593=CARTESIAN_POINT('Origin',(0.,2.7,0.));
#594=CARTESIAN_POINT('',(5.67341769530547,0.,3.92712765957447));
#595=CARTESIAN_POINT('Origin',(5.67341769530546,0.,3.92712765957447));
#596=CARTESIAN_POINT('',(6.04342319717321,0.,4.18324468085106));
#597=CARTESIAN_POINT('',(6.04342319717321,0.,4.18324468085106));
#598=CARTESIAN_POINT('',(5.45996241545326,0.,4.32328021037178));
#599=CARTESIAN_POINT('Origin',(5.67341769530546,0.,3.92712765957447));
#600=CARTESIAN_POINT('',(5.45996241545326,-2.,4.32328021037178));
#601=CARTESIAN_POINT('',(5.45996241545326,0.,4.32328021037178));
#602=CARTESIAN_POINT('',(5.96902984947983,-2.,3.58784392240985));
#603=CARTESIAN_POINT('Origin',(5.67341769530546,-2.,3.92712765957447));
#604=CARTESIAN_POINT('',(5.96902984947983,0.,3.58784392240985));
#605=CARTESIAN_POINT('Origin',(0.,0.,0.));
#606=CARTESIAN_POINT('Origin',(0.,-2.,0.));
#607=CARTESIAN_POINT('',(5.72631493033591,0.,3.96374301313374));
#608=CARTESIAN_POINT('Origin',(0.,0.,0.));
#609=CARTESIAN_POINT('',(5.72631493033591,0.,3.96374301313374));
#610=CARTESIAN_POINT('Origin',(5.79169005537936,-2.,3.98248579099216));
#611=CARTESIAN_POINT('Origin',(0.,-2.,0.));
#612=CARTESIAN_POINT('',(-5.8,-2.,7.10295143505465E-16));
#613=CARTESIAN_POINT('Origin',(0.,-2.,0.));
#614=CARTESIAN_POINT('Origin',(0.,0.,0.));
#615=CARTESIAN_POINT('',(7.72900381679295,0.,5.35));
#616=CARTESIAN_POINT('',(2.83670884765273,0.,1.96356382978723));
#617=CARTESIAN_POINT('',(-9.17615836572915,0.,2.03914630349537));
#618=CARTESIAN_POINT('Origin',(0.,0.,0.));
#619=CARTESIAN_POINT('',(-4.58807918286458,0.,1.01957315174768));
#620=CARTESIAN_POINT('',(2.83670884765273,0.,1.96356382978723));
#621=CARTESIAN_POINT('Origin',(0.,0.,0.));
#622=CARTESIAN_POINT('',(-7.72900381679295,0.,-5.35));
#623=CARTESIAN_POINT('',(-2.83670884765273,0.,-1.96356382978723));
#624=CARTESIAN_POINT('',(9.17615836572916,0.,-2.03914630349537));
#625=CARTESIAN_POINT('Origin',(0.,0.,0.));
#626=CARTESIAN_POINT('',(4.58807918286458,0.,-1.01957315174768));
#627=CARTESIAN_POINT('Origin',(0.,0.,0.));
#628=CARTESIAN_POINT('',(-5.8,5.,7.10295143505465E-16));
#629=CARTESIAN_POINT('Origin',(0.,5.,0.));
#630=CARTESIAN_POINT('',(-5.8,0.,7.10295143505465E-16));
#631=CARTESIAN_POINT('Origin',(7.53670884765273,2.7,1.91961197072549));
#632=CARTESIAN_POINT('',(9.18350724601493,2.7,2.00579028375134));
#633=CARTESIAN_POINT('',(7.16740518003446,2.7,1.56544893848269));
#634=CARTESIAN_POINT('',(7.72900381679295,2.7,5.35));
#635=CARTESIAN_POINT('Origin',(0.,2.7,0.));
#636=CARTESIAN_POINT('',(-7.72900381679295,2.7,-5.35));
#637=CARTESIAN_POINT('Origin',(5.67341769530547,0.,3.92712765957447));
#638=CARTESIAN_POINT('',(7.72900381679295,0.,5.35));
#639=CARTESIAN_POINT('Origin',(-9.17615836572915,0.,2.03914630349537));
#640=CARTESIAN_POINT('',(-9.17615836572916,5.,2.03914630349537));
#641=CARTESIAN_POINT('',(-9.17615836572916,0.,2.03914630349537));
#642=CARTESIAN_POINT('',(-4.58807918286458,5.,1.01957315174768));
#643=CARTESIAN_POINT('Origin',(0.,0.,0.));
#644=CARTESIAN_POINT('',(9.18350724601493,5.,2.00579028375134));
#645=CARTESIAN_POINT('',(9.18350724601493,0.,2.00579028375134));
#646=CARTESIAN_POINT('Origin',(0.,5.,0.));
#647=CARTESIAN_POINT('Origin',(6.74108510611734,0.,1.47233542105152));
#648=CARTESIAN_POINT('',(3.37054255305867,5.,0.736167710525759));
#649=CARTESIAN_POINT('Origin',(-6.74108510611734,0.,-1.47233542105152));
#650=CARTESIAN_POINT('',(-9.18350724601493,5.,-2.00579028375134));
#651=CARTESIAN_POINT('',(-3.37054255305867,5.,-0.73616771052576));
#652=CARTESIAN_POINT('',(-9.18350724601493,2.7,-2.00579028375134));
#653=CARTESIAN_POINT('',(-9.18350724601493,0.,-2.00579028375134));
#654=CARTESIAN_POINT('',(-7.13986817207425,2.7,-1.55943451920577));
#655=CARTESIAN_POINT('Origin',(0.,0.,0.));
#656=CARTESIAN_POINT('',(9.17615836572916,5.,-2.03914630349537));
#657=CARTESIAN_POINT('Origin',(0.,5.,0.));
#658=CARTESIAN_POINT('',(9.17615836572916,0.,-2.03914630349537));
#659=CARTESIAN_POINT('',(-7.72900381679295,2.7,-5.35));
#660=CARTESIAN_POINT('',(-7.72900381679295,0.,-5.35));
#661=CARTESIAN_POINT('Origin',(0.,2.7,0.));
#662=CARTESIAN_POINT('Origin',(0.,5.,0.));
#663=CARTESIAN_POINT('',(4.58807918286458,5.,-1.01957315174768));
#664=CARTESIAN_POINT('Origin',(-5.67341769530546,0.,-3.92712765957447));
#665=CARTESIAN_POINT('',(-7.72900381679295,2.7,-5.35));
#666=CARTESIAN_POINT('Origin',(-7.53670884765273,2.7,-1.65542684825232));
#667=CARTESIAN_POINT('Origin',(6.7984922634706,0.,-1.51077605854902));
#668=UNCERTAINTY_MEASURE_WITH_UNIT(LENGTH_MEASURE(0.01),#672,
'DISTANCE_ACCURACY_VALUE',
'Maximum model space distance between geometric entities at asserted c
onnectivities');
#669=UNCERTAINTY_MEASURE_WITH_UNIT(LENGTH_MEASURE(0.01),#672,
'DISTANCE_ACCURACY_VALUE',
'Maximum model space distance between geometric entities at asserted c
onnectivities');
#670=(
GEOMETRIC_REPRESENTATION_CONTEXT(3)
GLOBAL_UNCERTAINTY_ASSIGNED_CONTEXT((#668))
GLOBAL_UNIT_ASSIGNED_CONTEXT((#672,#674,#675))
REPRESENTATION_CONTEXT('','3D')
);
#671=(
GEOMETRIC_REPRESENTATION_CONTEXT(3)
GLOBAL_UNCERTAINTY_ASSIGNED_CONTEXT((#669))
GLOBAL_UNIT_ASSIGNED_CONTEXT((#672,#674,#675))
REPRESENTATION_CONTEXT('','3D')
);
#672=(
LENGTH_UNIT()
NAMED_UNIT(*)
SI_UNIT(.MILLI.,.METRE.)
);
#673=(
LENGTH_UNIT()
NAMED_UNIT(*)
SI_UNIT($,.METRE.)
);
#674=(
NAMED_UNIT(*)
PLANE_ANGLE_UNIT()
SI_UNIT($,.RADIAN.)
);
#675=(
NAMED_UNIT(*)
SI_UNIT($,.STERADIAN.)
SOLID_ANGLE_UNIT()
);
#676=SHAPE_DEFINITION_REPRESENTATION(#677,#678);
#677=PRODUCT_DEFINITION_SHAPE('',$,#680);
#678=SHAPE_REPRESENTATION('',(#396),#670);
#679=PRODUCT_DEFINITION_CONTEXT('part definition',#684,'design');
#680=PRODUCT_DEFINITION('adaptateur_bouton','adaptateur_bouton v14',#681,
#679);
#681=PRODUCT_DEFINITION_FORMATION('',$,#686);
#682=PRODUCT_RELATED_PRODUCT_CATEGORY('adaptateur_bouton v14',
'adaptateur_bouton v14',(#686));
#683=APPLICATION_PROTOCOL_DEFINITION('international standard',
'automotive_design',2009,#684);
#684=APPLICATION_CONTEXT(
'Core Data for Automotive Mechanical Design Process');
#685=PRODUCT_CONTEXT('part definition',#684,'mechanical');
#686=PRODUCT('adaptateur_bouton','adaptateur_bouton v14',$,(#685));
#687=PRESENTATION_STYLE_ASSIGNMENT((#688));
#688=SURFACE_STYLE_USAGE(.BOTH.,#689);
#689=SURFACE_SIDE_STYLE('',(#690));
#690=SURFACE_STYLE_FILL_AREA(#691);
#691=FILL_AREA_STYLE('Acier - Satin\X\E9',(#692));
#692=FILL_AREA_STYLE_COLOUR('Acier - Satin\X\E9',#693);
#693=COLOUR_RGB('Acier - Satin\X\E9',0.627450980392157,0.627450980392157,
0.627450980392157);
ENDSEC;
END-ISO-10303-21;
