ISO-10303-21;
HEADER;
/* Generated by software containing ST-Developer
 * from STEP Tools, Inc. (www.steptools.com) 
 */

FILE_DESCRIPTION(
/* description */ (''),
/* implementation_level */ '2;1');

FILE_NAME(
/* name */ 'adaptateur_bouton_1of2.step',
/* time_stamp */ '2025-11-14T17:32:23+01:00',
/* author */ (''),
/* organization */ (''),
/* preprocessor_version */ 'ST-DEVELOPER v20.1',
/* originating_system */ 'Autodesk Translation Framework v14.17.0.0',
/* authorisation */ '');

FILE_SCHEMA (('AUTOMOTIVE_DESIGN { 1 0 10303 214 3 1 1 }'));
ENDSEC;

DATA;
#10=MECHANICAL_DESIGN_GEOMETRIC_PRESENTATION_REPRESENTATION('',(#13),#943);
#11=SHAPE_REPRESENTATION_RELATIONSHIP('SRR','None',#950,#12);
#12=ADVANCED_BREP_SHAPE_REPRESENTATION('',(#14),#942);
#13=STYLED_ITEM('',(#959),#14);
#14=MANIFOLD_SOLID_BREP('Corps6',#543);
#15=FACE_BOUND('',#100,.T.);
#16=FACE_BOUND('',#106,.T.);
#17=CYLINDRICAL_SURFACE('',#573,6.9);
#18=CYLINDRICAL_SURFACE('',#577,6.9);
#19=CYLINDRICAL_SURFACE('',#579,6.9);
#20=CYLINDRICAL_SURFACE('',#583,5.4);
#21=CYLINDRICAL_SURFACE('',#588,9.4);
#22=CYLINDRICAL_SURFACE('',#591,9.4);
#23=CYLINDRICAL_SURFACE('',#593,9.4);
#24=CYLINDRICAL_SURFACE('',#597,0.9);
#25=CYLINDRICAL_SURFACE('',#600,6.96433351840321);
#26=CYLINDRICAL_SURFACE('',#602,0.9);
#27=CYLINDRICAL_SURFACE('',#610,9.4);
#28=CIRCLE('',#560,9.4);
#29=CIRCLE('',#561,6.9);
#30=CIRCLE('',#562,6.9);
#31=CIRCLE('',#563,0.9);
#32=CIRCLE('',#564,6.96433351840321);
#33=CIRCLE('',#565,0.9);
#34=CIRCLE('',#566,6.9);
#35=CIRCLE('',#567,9.4);
#36=CIRCLE('',#569,9.4);
#37=CIRCLE('',#570,6.9);
#38=CIRCLE('',#571,6.9);
#39=CIRCLE('',#572,9.4);
#40=CIRCLE('',#574,6.9);
#41=CIRCLE('',#575,6.9);
#42=CIRCLE('',#576,6.9);
#43=CIRCLE('',#578,6.9);
#44=CIRCLE('',#580,6.9);
#45=CIRCLE('',#581,6.9);
#46=CIRCLE('',#582,6.9);
#47=CIRCLE('',#584,5.4);
#48=CIRCLE('',#585,5.4);
#49=CIRCLE('',#589,9.4);
#50=CIRCLE('',#590,9.4);
#51=CIRCLE('',#592,9.4);
#52=CIRCLE('',#594,9.4);
#53=CIRCLE('',#596,9.4);
#54=CIRCLE('',#598,0.9);
#55=CIRCLE('',#601,6.96433351840321);
#56=CIRCLE('',#603,0.9);
#57=CIRCLE('',#611,9.4);
#58=FACE_OUTER_BOUND('',#86,.T.);
#59=FACE_OUTER_BOUND('',#87,.T.);
#60=FACE_OUTER_BOUND('',#88,.T.);
#61=FACE_OUTER_BOUND('',#89,.T.);
#62=FACE_OUTER_BOUND('',#90,.T.);
#63=FACE_OUTER_BOUND('',#91,.T.);
#64=FACE_OUTER_BOUND('',#92,.T.);
#65=FACE_OUTER_BOUND('',#93,.T.);
#66=FACE_OUTER_BOUND('',#94,.T.);
#67=FACE_OUTER_BOUND('',#95,.T.);
#68=FACE_OUTER_BOUND('',#96,.T.);
#69=FACE_OUTER_BOUND('',#97,.T.);
#70=FACE_OUTER_BOUND('',#98,.T.);
#71=FACE_OUTER_BOUND('',#99,.T.);
#72=FACE_OUTER_BOUND('',#101,.T.);
#73=FACE_OUTER_BOUND('',#102,.T.);
#74=FACE_OUTER_BOUND('',#103,.T.);
#75=FACE_OUTER_BOUND('',#104,.T.);
#76=FACE_OUTER_BOUND('',#105,.T.);
#77=FACE_OUTER_BOUND('',#107,.T.);
#78=FACE_OUTER_BOUND('',#108,.T.);
#79=FACE_OUTER_BOUND('',#109,.T.);
#80=FACE_OUTER_BOUND('',#110,.T.);
#81=FACE_OUTER_BOUND('',#111,.T.);
#82=FACE_OUTER_BOUND('',#112,.T.);
#83=FACE_OUTER_BOUND('',#113,.T.);
#84=FACE_OUTER_BOUND('',#114,.T.);
#85=FACE_OUTER_BOUND('',#115,.T.);
#86=EDGE_LOOP('',(#342,#343,#344,#345));
#87=EDGE_LOOP('',(#346,#347,#348,#349));
#88=EDGE_LOOP('',(#350,#351,#352,#353,#354,#355,#356,#357,#358,#359,#360,
#361,#362));
#89=EDGE_LOOP('',(#363,#364,#365,#366,#367,#368,#369,#370));
#90=EDGE_LOOP('',(#371,#372,#373,#374,#375,#376,#377,#378,#379,#380));
#91=EDGE_LOOP('',(#381,#382,#383,#384));
#92=EDGE_LOOP('',(#385,#386,#387,#388,#389,#390,#391,#392,#393,#394));
#93=EDGE_LOOP('',(#395,#396,#397,#398));
#94=EDGE_LOOP('',(#399,#400,#401,#402));
#95=EDGE_LOOP('',(#403,#404,#405,#406));
#96=EDGE_LOOP('',(#407,#408,#409,#410,#411,#412));
#97=EDGE_LOOP('',(#413,#414,#415,#416));
#98=EDGE_LOOP('',(#417,#418,#419,#420));
#99=EDGE_LOOP('',(#421,#422,#423,#424,#425,#426,#427,#428,#429,#430,#431,
#432));
#100=EDGE_LOOP('',(#433));
#101=EDGE_LOOP('',(#434,#435,#436,#437));
#102=EDGE_LOOP('',(#438,#439,#440,#441));
#103=EDGE_LOOP('',(#442,#443,#444,#445));
#104=EDGE_LOOP('',(#446,#447,#448,#449));
#105=EDGE_LOOP('',(#450,#451,#452,#453,#454,#455,#456,#457,#458));
#106=EDGE_LOOP('',(#459));
#107=EDGE_LOOP('',(#460,#461,#462,#463));
#108=EDGE_LOOP('',(#464,#465,#466,#467));
#109=EDGE_LOOP('',(#468,#469,#470,#471));
#110=EDGE_LOOP('',(#472,#473,#474,#475));
#111=EDGE_LOOP('',(#476,#477,#478,#479));
#112=EDGE_LOOP('',(#480,#481,#482,#483,#484,#485));
#113=EDGE_LOOP('',(#486,#487,#488,#489));
#114=EDGE_LOOP('',(#490,#491,#492,#493));
#115=EDGE_LOOP('',(#494,#495,#496,#497));
#116=LINE('',#785,#164);
#117=LINE('',#787,#165);
#118=LINE('',#789,#166);
#119=LINE('',#790,#167);
#120=LINE('',#794,#168);
#121=LINE('',#796,#169);
#122=LINE('',#798,#170);
#123=LINE('',#799,#171);
#124=LINE('',#803,#172);
#125=LINE('',#807,#173);
#126=LINE('',#814,#174);
#127=LINE('',#822,#175);
#128=LINE('',#827,#176);
#129=LINE('',#831,#177);
#130=LINE('',#836,#178);
#131=LINE('',#840,#179);
#132=LINE('',#844,#180);
#133=LINE('',#847,#181);
#134=LINE('',#849,#182);
#135=LINE('',#854,#183);
#136=LINE('',#857,#184);
#137=LINE('',#861,#185);
#138=LINE('',#864,#186);
#139=LINE('',#870,#187);
#140=LINE('',#874,#188);
#141=LINE('',#876,#189);
#142=LINE('',#877,#190);
#143=LINE('',#880,#191);
#144=LINE('',#882,#192);
#145=LINE('',#883,#193);
#146=LINE('',#886,#194);
#147=LINE('',#890,#195);
#148=LINE('',#895,#196);
#149=LINE('',#899,#197);
#150=LINE('',#901,#198);
#151=LINE('',#902,#199);
#152=LINE('',#905,#200);
#153=LINE('',#906,#201);
#154=LINE('',#910,#202);
#155=LINE('',#913,#203);
#156=LINE('',#914,#204);
#157=LINE('',#918,#205);
#158=LINE('',#923,#206);
#159=LINE('',#926,#207);
#160=LINE('',#930,#208);
#161=LINE('',#931,#209);
#162=LINE('',#934,#210);
#163=LINE('',#938,#211);
#164=VECTOR('',#619,10.);
#165=VECTOR('',#620,10.);
#166=VECTOR('',#621,10.);
#167=VECTOR('',#622,10.);
#168=VECTOR('',#625,10.);
#169=VECTOR('',#626,10.);
#170=VECTOR('',#627,10.);
#171=VECTOR('',#628,10.);
#172=VECTOR('',#631,10.);
#173=VECTOR('',#634,10.);
#174=VECTOR('',#641,10.);
#175=VECTOR('',#648,10.);
#176=VECTOR('',#653,10.);
#177=VECTOR('',#656,10.);
#178=VECTOR('',#661,10.);
#179=VECTOR('',#666,10.);
#180=VECTOR('',#669,10.);
#181=VECTOR('',#672,10.);
#182=VECTOR('',#673,10.);
#183=VECTOR('',#680,10.);
#184=VECTOR('',#683,10.);
#185=VECTOR('',#686,10.);
#186=VECTOR('',#689,10.);
#187=VECTOR('',#696,5.4);
#188=VECTOR('',#701,10.);
#189=VECTOR('',#702,10.);
#190=VECTOR('',#703,10.);
#191=VECTOR('',#706,10.);
#192=VECTOR('',#707,10.);
#193=VECTOR('',#708,10.);
#194=VECTOR('',#711,10.);
#195=VECTOR('',#714,10.);
#196=VECTOR('',#721,10.);
#197=VECTOR('',#726,10.);
#198=VECTOR('',#729,10.);
#199=VECTOR('',#730,10.);
#200=VECTOR('',#733,10.);
#201=VECTOR('',#734,10.);
#202=VECTOR('',#739,10.);
#203=VECTOR('',#742,10.);
#204=VECTOR('',#743,10.);
#205=VECTOR('',#748,10.);
#206=VECTOR('',#757,10.);
#207=VECTOR('',#762,10.);
#208=VECTOR('',#767,10.);
#209=VECTOR('',#768,10.);
#210=VECTOR('',#771,10.);
#211=VECTOR('',#778,10.);
#212=VERTEX_POINT('',#783);
#213=VERTEX_POINT('',#784);
#214=VERTEX_POINT('',#786);
#215=VERTEX_POINT('',#788);
#216=VERTEX_POINT('',#792);
#217=VERTEX_POINT('',#793);
#218=VERTEX_POINT('',#795);
#219=VERTEX_POINT('',#797);
#220=VERTEX_POINT('',#801);
#221=VERTEX_POINT('',#802);
#222=VERTEX_POINT('',#804);
#223=VERTEX_POINT('',#806);
#224=VERTEX_POINT('',#809);
#225=VERTEX_POINT('',#811);
#226=VERTEX_POINT('',#813);
#227=VERTEX_POINT('',#815);
#228=VERTEX_POINT('',#817);
#229=VERTEX_POINT('',#819);
#230=VERTEX_POINT('',#821);
#231=VERTEX_POINT('',#825);
#232=VERTEX_POINT('',#826);
#233=VERTEX_POINT('',#828);
#234=VERTEX_POINT('',#830);
#235=VERTEX_POINT('',#833);
#236=VERTEX_POINT('',#835);
#237=VERTEX_POINT('',#839);
#238=VERTEX_POINT('',#841);
#239=VERTEX_POINT('',#843);
#240=VERTEX_POINT('',#845);
#241=VERTEX_POINT('',#848);
#242=VERTEX_POINT('',#852);
#243=VERTEX_POINT('',#856);
#244=VERTEX_POINT('',#858);
#245=VERTEX_POINT('',#860);
#246=VERTEX_POINT('',#862);
#247=VERTEX_POINT('',#867);
#248=VERTEX_POINT('',#869);
#249=VERTEX_POINT('',#873);
#250=VERTEX_POINT('',#875);
#251=VERTEX_POINT('',#879);
#252=VERTEX_POINT('',#881);
#253=VERTEX_POINT('',#885);
#254=VERTEX_POINT('',#887);
#255=VERTEX_POINT('',#889);
#256=VERTEX_POINT('',#893);
#257=VERTEX_POINT('',#897);
#258=VERTEX_POINT('',#903);
#259=VERTEX_POINT('',#908);
#260=VERTEX_POINT('',#912);
#261=VERTEX_POINT('',#916);
#262=VERTEX_POINT('',#929);
#263=VERTEX_POINT('',#933);
#264=EDGE_CURVE('',#212,#213,#116,.T.);
#265=EDGE_CURVE('',#212,#214,#117,.T.);
#266=EDGE_CURVE('',#215,#214,#118,.T.);
#267=EDGE_CURVE('',#213,#215,#119,.T.);
#268=EDGE_CURVE('',#216,#217,#120,.T.);
#269=EDGE_CURVE('',#218,#216,#121,.T.);
#270=EDGE_CURVE('',#219,#218,#122,.T.);
#271=EDGE_CURVE('',#219,#217,#123,.T.);
#272=EDGE_CURVE('',#220,#221,#124,.T.);
#273=EDGE_CURVE('',#222,#221,#28,.T.);
#274=EDGE_CURVE('',#222,#223,#125,.T.);
#275=EDGE_CURVE('',#223,#214,#29,.T.);
#276=EDGE_CURVE('',#212,#224,#30,.T.);
#277=EDGE_CURVE('',#224,#225,#31,.T.);
#278=EDGE_CURVE('',#225,#226,#126,.T.);
#279=EDGE_CURVE('',#226,#227,#32,.T.);
#280=EDGE_CURVE('',#227,#228,#33,.T.);
#281=EDGE_CURVE('',#228,#229,#34,.T.);
#282=EDGE_CURVE('',#229,#230,#127,.T.);
#283=EDGE_CURVE('',#220,#230,#35,.T.);
#284=EDGE_CURVE('',#231,#232,#128,.T.);
#285=EDGE_CURVE('',#233,#232,#36,.T.);
#286=EDGE_CURVE('',#233,#234,#129,.T.);
#287=EDGE_CURVE('',#234,#217,#37,.T.);
#288=EDGE_CURVE('',#219,#235,#38,.T.);
#289=EDGE_CURVE('',#235,#236,#130,.T.);
#290=EDGE_CURVE('',#231,#236,#39,.T.);
#291=EDGE_CURVE('',#234,#237,#131,.T.);
#292=EDGE_CURVE('',#238,#237,#40,.T.);
#293=EDGE_CURVE('',#239,#238,#132,.T.);
#294=EDGE_CURVE('',#239,#240,#41,.T.);
#295=EDGE_CURVE('',#240,#229,#133,.T.);
#296=EDGE_CURVE('',#228,#241,#134,.T.);
#297=EDGE_CURVE('',#216,#241,#42,.T.);
#298=EDGE_CURVE('',#242,#213,#43,.T.);
#299=EDGE_CURVE('',#224,#242,#135,.T.);
#300=EDGE_CURVE('',#223,#243,#136,.T.);
#301=EDGE_CURVE('',#244,#243,#44,.T.);
#302=EDGE_CURVE('',#245,#244,#137,.T.);
#303=EDGE_CURVE('',#245,#246,#45,.T.);
#304=EDGE_CURVE('',#246,#235,#138,.T.);
#305=EDGE_CURVE('',#215,#218,#46,.T.);
#306=EDGE_CURVE('',#247,#247,#47,.T.);
#307=EDGE_CURVE('',#247,#248,#139,.T.);
#308=EDGE_CURVE('',#248,#248,#48,.T.);
#309=EDGE_CURVE('',#249,#220,#140,.T.);
#310=EDGE_CURVE('',#250,#249,#141,.T.);
#311=EDGE_CURVE('',#221,#250,#142,.T.);
#312=EDGE_CURVE('',#251,#231,#143,.T.);
#313=EDGE_CURVE('',#252,#251,#144,.T.);
#314=EDGE_CURVE('',#232,#252,#145,.T.);
#315=EDGE_CURVE('',#230,#253,#146,.T.);
#316=EDGE_CURVE('',#253,#254,#49,.T.);
#317=EDGE_CURVE('',#254,#255,#147,.T.);
#318=EDGE_CURVE('',#249,#255,#50,.T.);
#319=EDGE_CURVE('',#256,#250,#51,.T.);
#320=EDGE_CURVE('',#256,#222,#148,.T.);
#321=EDGE_CURVE('',#257,#252,#52,.T.);
#322=EDGE_CURVE('',#257,#233,#149,.T.);
#323=EDGE_CURVE('',#255,#238,#150,.T.);
#324=EDGE_CURVE('',#237,#257,#151,.T.);
#325=EDGE_CURVE('',#251,#258,#53,.T.);
#326=EDGE_CURVE('',#258,#244,#152,.T.);
#327=EDGE_CURVE('',#243,#256,#153,.T.);
#328=EDGE_CURVE('',#259,#242,#54,.T.);
#329=EDGE_CURVE('',#225,#259,#154,.T.);
#330=EDGE_CURVE('',#260,#259,#155,.T.);
#331=EDGE_CURVE('',#226,#260,#156,.T.);
#332=EDGE_CURVE('',#261,#260,#55,.T.);
#333=EDGE_CURVE('',#227,#261,#157,.T.);
#334=EDGE_CURVE('',#241,#261,#56,.T.);
#335=EDGE_CURVE('',#254,#239,#158,.T.);
#336=EDGE_CURVE('',#240,#253,#159,.T.);
#337=EDGE_CURVE('',#262,#258,#160,.T.);
#338=EDGE_CURVE('',#245,#262,#161,.T.);
#339=EDGE_CURVE('',#236,#263,#162,.T.);
#340=EDGE_CURVE('',#263,#262,#57,.T.);
#341=EDGE_CURVE('',#246,#263,#163,.T.);
#342=ORIENTED_EDGE('',*,*,#264,.F.);
#343=ORIENTED_EDGE('',*,*,#265,.T.);
#344=ORIENTED_EDGE('',*,*,#266,.F.);
#345=ORIENTED_EDGE('',*,*,#267,.F.);
#346=ORIENTED_EDGE('',*,*,#268,.F.);
#347=ORIENTED_EDGE('',*,*,#269,.F.);
#348=ORIENTED_EDGE('',*,*,#270,.F.);
#349=ORIENTED_EDGE('',*,*,#271,.T.);
#350=ORIENTED_EDGE('',*,*,#272,.T.);
#351=ORIENTED_EDGE('',*,*,#273,.F.);
#352=ORIENTED_EDGE('',*,*,#274,.T.);
#353=ORIENTED_EDGE('',*,*,#275,.T.);
#354=ORIENTED_EDGE('',*,*,#265,.F.);
#355=ORIENTED_EDGE('',*,*,#276,.T.);
#356=ORIENTED_EDGE('',*,*,#277,.T.);
#357=ORIENTED_EDGE('',*,*,#278,.T.);
#358=ORIENTED_EDGE('',*,*,#279,.T.);
#359=ORIENTED_EDGE('',*,*,#280,.T.);
#360=ORIENTED_EDGE('',*,*,#281,.T.);
#361=ORIENTED_EDGE('',*,*,#282,.T.);
#362=ORIENTED_EDGE('',*,*,#283,.F.);
#363=ORIENTED_EDGE('',*,*,#284,.T.);
#364=ORIENTED_EDGE('',*,*,#285,.F.);
#365=ORIENTED_EDGE('',*,*,#286,.T.);
#366=ORIENTED_EDGE('',*,*,#287,.T.);
#367=ORIENTED_EDGE('',*,*,#271,.F.);
#368=ORIENTED_EDGE('',*,*,#288,.T.);
#369=ORIENTED_EDGE('',*,*,#289,.T.);
#370=ORIENTED_EDGE('',*,*,#290,.F.);
#371=ORIENTED_EDGE('',*,*,#268,.T.);
#372=ORIENTED_EDGE('',*,*,#287,.F.);
#373=ORIENTED_EDGE('',*,*,#291,.T.);
#374=ORIENTED_EDGE('',*,*,#292,.F.);
#375=ORIENTED_EDGE('',*,*,#293,.F.);
#376=ORIENTED_EDGE('',*,*,#294,.T.);
#377=ORIENTED_EDGE('',*,*,#295,.T.);
#378=ORIENTED_EDGE('',*,*,#281,.F.);
#379=ORIENTED_EDGE('',*,*,#296,.T.);
#380=ORIENTED_EDGE('',*,*,#297,.F.);
#381=ORIENTED_EDGE('',*,*,#264,.T.);
#382=ORIENTED_EDGE('',*,*,#298,.F.);
#383=ORIENTED_EDGE('',*,*,#299,.F.);
#384=ORIENTED_EDGE('',*,*,#276,.F.);
#385=ORIENTED_EDGE('',*,*,#266,.T.);
#386=ORIENTED_EDGE('',*,*,#275,.F.);
#387=ORIENTED_EDGE('',*,*,#300,.T.);
#388=ORIENTED_EDGE('',*,*,#301,.F.);
#389=ORIENTED_EDGE('',*,*,#302,.F.);
#390=ORIENTED_EDGE('',*,*,#303,.T.);
#391=ORIENTED_EDGE('',*,*,#304,.T.);
#392=ORIENTED_EDGE('',*,*,#288,.F.);
#393=ORIENTED_EDGE('',*,*,#270,.T.);
#394=ORIENTED_EDGE('',*,*,#305,.F.);
#395=ORIENTED_EDGE('',*,*,#306,.F.);
#396=ORIENTED_EDGE('',*,*,#307,.T.);
#397=ORIENTED_EDGE('',*,*,#308,.F.);
#398=ORIENTED_EDGE('',*,*,#307,.F.);
#399=ORIENTED_EDGE('',*,*,#272,.F.);
#400=ORIENTED_EDGE('',*,*,#309,.F.);
#401=ORIENTED_EDGE('',*,*,#310,.F.);
#402=ORIENTED_EDGE('',*,*,#311,.F.);
#403=ORIENTED_EDGE('',*,*,#284,.F.);
#404=ORIENTED_EDGE('',*,*,#312,.F.);
#405=ORIENTED_EDGE('',*,*,#313,.F.);
#406=ORIENTED_EDGE('',*,*,#314,.F.);
#407=ORIENTED_EDGE('',*,*,#309,.T.);
#408=ORIENTED_EDGE('',*,*,#283,.T.);
#409=ORIENTED_EDGE('',*,*,#315,.T.);
#410=ORIENTED_EDGE('',*,*,#316,.T.);
#411=ORIENTED_EDGE('',*,*,#317,.T.);
#412=ORIENTED_EDGE('',*,*,#318,.F.);
#413=ORIENTED_EDGE('',*,*,#311,.T.);
#414=ORIENTED_EDGE('',*,*,#319,.F.);
#415=ORIENTED_EDGE('',*,*,#320,.T.);
#416=ORIENTED_EDGE('',*,*,#273,.T.);
#417=ORIENTED_EDGE('',*,*,#314,.T.);
#418=ORIENTED_EDGE('',*,*,#321,.F.);
#419=ORIENTED_EDGE('',*,*,#322,.T.);
#420=ORIENTED_EDGE('',*,*,#285,.T.);
#421=ORIENTED_EDGE('',*,*,#310,.T.);
#422=ORIENTED_EDGE('',*,*,#318,.T.);
#423=ORIENTED_EDGE('',*,*,#323,.T.);
#424=ORIENTED_EDGE('',*,*,#292,.T.);
#425=ORIENTED_EDGE('',*,*,#324,.T.);
#426=ORIENTED_EDGE('',*,*,#321,.T.);
#427=ORIENTED_EDGE('',*,*,#313,.T.);
#428=ORIENTED_EDGE('',*,*,#325,.T.);
#429=ORIENTED_EDGE('',*,*,#326,.T.);
#430=ORIENTED_EDGE('',*,*,#301,.T.);
#431=ORIENTED_EDGE('',*,*,#327,.T.);
#432=ORIENTED_EDGE('',*,*,#319,.T.);
#433=ORIENTED_EDGE('',*,*,#306,.T.);
#434=ORIENTED_EDGE('',*,*,#277,.F.);
#435=ORIENTED_EDGE('',*,*,#299,.T.);
#436=ORIENTED_EDGE('',*,*,#328,.F.);
#437=ORIENTED_EDGE('',*,*,#329,.F.);
#438=ORIENTED_EDGE('',*,*,#278,.F.);
#439=ORIENTED_EDGE('',*,*,#329,.T.);
#440=ORIENTED_EDGE('',*,*,#330,.F.);
#441=ORIENTED_EDGE('',*,*,#331,.F.);
#442=ORIENTED_EDGE('',*,*,#279,.F.);
#443=ORIENTED_EDGE('',*,*,#331,.T.);
#444=ORIENTED_EDGE('',*,*,#332,.F.);
#445=ORIENTED_EDGE('',*,*,#333,.F.);
#446=ORIENTED_EDGE('',*,*,#280,.F.);
#447=ORIENTED_EDGE('',*,*,#333,.T.);
#448=ORIENTED_EDGE('',*,*,#334,.F.);
#449=ORIENTED_EDGE('',*,*,#296,.F.);
#450=ORIENTED_EDGE('',*,*,#267,.T.);
#451=ORIENTED_EDGE('',*,*,#305,.T.);
#452=ORIENTED_EDGE('',*,*,#269,.T.);
#453=ORIENTED_EDGE('',*,*,#297,.T.);
#454=ORIENTED_EDGE('',*,*,#334,.T.);
#455=ORIENTED_EDGE('',*,*,#332,.T.);
#456=ORIENTED_EDGE('',*,*,#330,.T.);
#457=ORIENTED_EDGE('',*,*,#328,.T.);
#458=ORIENTED_EDGE('',*,*,#298,.T.);
#459=ORIENTED_EDGE('',*,*,#308,.T.);
#460=ORIENTED_EDGE('',*,*,#335,.T.);
#461=ORIENTED_EDGE('',*,*,#293,.T.);
#462=ORIENTED_EDGE('',*,*,#323,.F.);
#463=ORIENTED_EDGE('',*,*,#317,.F.);
#464=ORIENTED_EDGE('',*,*,#274,.F.);
#465=ORIENTED_EDGE('',*,*,#320,.F.);
#466=ORIENTED_EDGE('',*,*,#327,.F.);
#467=ORIENTED_EDGE('',*,*,#300,.F.);
#468=ORIENTED_EDGE('',*,*,#335,.F.);
#469=ORIENTED_EDGE('',*,*,#316,.F.);
#470=ORIENTED_EDGE('',*,*,#336,.F.);
#471=ORIENTED_EDGE('',*,*,#294,.F.);
#472=ORIENTED_EDGE('',*,*,#282,.F.);
#473=ORIENTED_EDGE('',*,*,#295,.F.);
#474=ORIENTED_EDGE('',*,*,#336,.T.);
#475=ORIENTED_EDGE('',*,*,#315,.F.);
#476=ORIENTED_EDGE('',*,*,#326,.F.);
#477=ORIENTED_EDGE('',*,*,#337,.F.);
#478=ORIENTED_EDGE('',*,*,#338,.F.);
#479=ORIENTED_EDGE('',*,*,#302,.T.);
#480=ORIENTED_EDGE('',*,*,#312,.T.);
#481=ORIENTED_EDGE('',*,*,#290,.T.);
#482=ORIENTED_EDGE('',*,*,#339,.T.);
#483=ORIENTED_EDGE('',*,*,#340,.T.);
#484=ORIENTED_EDGE('',*,*,#337,.T.);
#485=ORIENTED_EDGE('',*,*,#325,.F.);
#486=ORIENTED_EDGE('',*,*,#286,.F.);
#487=ORIENTED_EDGE('',*,*,#322,.F.);
#488=ORIENTED_EDGE('',*,*,#324,.F.);
#489=ORIENTED_EDGE('',*,*,#291,.F.);
#490=ORIENTED_EDGE('',*,*,#289,.F.);
#491=ORIENTED_EDGE('',*,*,#304,.F.);
#492=ORIENTED_EDGE('',*,*,#341,.T.);
#493=ORIENTED_EDGE('',*,*,#339,.F.);
#494=ORIENTED_EDGE('',*,*,#338,.T.);
#495=ORIENTED_EDGE('',*,*,#340,.F.);
#496=ORIENTED_EDGE('',*,*,#341,.F.);
#497=ORIENTED_EDGE('',*,*,#303,.F.);
#498=PLANE('',#557);
#499=PLANE('',#558);
#500=PLANE('',#559);
#501=PLANE('',#568);
#502=PLANE('',#586);
#503=PLANE('',#587);
#504=PLANE('',#595);
#505=PLANE('',#599);
#506=PLANE('',#604);
#507=PLANE('',#605);
#508=PLANE('',#606);
#509=PLANE('',#607);
#510=PLANE('',#608);
#511=PLANE('',#609);
#512=PLANE('',#612);
#513=PLANE('',#613);
#514=PLANE('',#614);
#515=ADVANCED_FACE('',(#58),#498,.F.);
#516=ADVANCED_FACE('',(#59),#499,.F.);
#517=ADVANCED_FACE('',(#60),#500,.F.);
#518=ADVANCED_FACE('',(#61),#501,.F.);
#519=ADVANCED_FACE('',(#62),#17,.T.);
#520=ADVANCED_FACE('',(#63),#18,.T.);
#521=ADVANCED_FACE('',(#64),#19,.T.);
#522=ADVANCED_FACE('',(#65),#20,.F.);
#523=ADVANCED_FACE('',(#66),#502,.F.);
#524=ADVANCED_FACE('',(#67),#503,.F.);
#525=ADVANCED_FACE('',(#68),#21,.T.);
#526=ADVANCED_FACE('',(#69),#22,.T.);
#527=ADVANCED_FACE('',(#70),#23,.T.);
#528=ADVANCED_FACE('',(#71,#15),#504,.T.);
#529=ADVANCED_FACE('',(#72),#24,.T.);
#530=ADVANCED_FACE('',(#73),#505,.T.);
#531=ADVANCED_FACE('',(#74),#25,.F.);
#532=ADVANCED_FACE('',(#75),#26,.T.);
#533=ADVANCED_FACE('',(#76,#16),#506,.F.);
#534=ADVANCED_FACE('',(#77),#507,.T.);
#535=ADVANCED_FACE('',(#78),#508,.F.);
#536=ADVANCED_FACE('',(#79),#509,.F.);
#537=ADVANCED_FACE('',(#80),#510,.F.);
#538=ADVANCED_FACE('',(#81),#511,.F.);
#539=ADVANCED_FACE('',(#82),#27,.T.);
#540=ADVANCED_FACE('',(#83),#512,.F.);
#541=ADVANCED_FACE('',(#84),#513,.F.);
#542=ADVANCED_FACE('',(#85),#514,.F.);
#543=CLOSED_SHELL('',(#515,#516,#517,#518,#519,#520,#521,#522,#523,#524,
#525,#526,#527,#528,#529,#530,#531,#532,#533,#534,#535,#536,#537,#538,#539,
#540,#541,#542));
#544=DERIVED_UNIT_ELEMENT(#546,1.);
#545=DERIVED_UNIT_ELEMENT(#945,-3.);
#546=(
MASS_UNIT()
NAMED_UNIT(*)
SI_UNIT(.KILO.,.GRAM.)
);
#547=DERIVED_UNIT((#544,#545));
#548=MEASURE_REPRESENTATION_ITEM('density measure',
POSITIVE_RATIO_MEASURE(7850.),#547);
#549=PROPERTY_DEFINITION_REPRESENTATION(#554,#551);
#550=PROPERTY_DEFINITION_REPRESENTATION(#555,#552);
#551=REPRESENTATION('material name',(#553),#942);
#552=REPRESENTATION('density',(#548),#942);
#553=DESCRIPTIVE_REPRESENTATION_ITEM('Acier','Acier');
#554=PROPERTY_DEFINITION('material property','material name',#952);
#555=PROPERTY_DEFINITION('material property','density of part',#952);
#556=AXIS2_PLACEMENT_3D('',#781,#615,#616);
#557=AXIS2_PLACEMENT_3D('',#782,#617,#618);
#558=AXIS2_PLACEMENT_3D('',#791,#623,#624);
#559=AXIS2_PLACEMENT_3D('',#800,#629,#630);
#560=AXIS2_PLACEMENT_3D('',#805,#632,#633);
#561=AXIS2_PLACEMENT_3D('',#808,#635,#636);
#562=AXIS2_PLACEMENT_3D('',#810,#637,#638);
#563=AXIS2_PLACEMENT_3D('',#812,#639,#640);
#564=AXIS2_PLACEMENT_3D('',#816,#642,#643);
#565=AXIS2_PLACEMENT_3D('',#818,#644,#645);
#566=AXIS2_PLACEMENT_3D('',#820,#646,#647);
#567=AXIS2_PLACEMENT_3D('',#823,#649,#650);
#568=AXIS2_PLACEMENT_3D('',#824,#651,#652);
#569=AXIS2_PLACEMENT_3D('',#829,#654,#655);
#570=AXIS2_PLACEMENT_3D('',#832,#657,#658);
#571=AXIS2_PLACEMENT_3D('',#834,#659,#660);
#572=AXIS2_PLACEMENT_3D('',#837,#662,#663);
#573=AXIS2_PLACEMENT_3D('',#838,#664,#665);
#574=AXIS2_PLACEMENT_3D('',#842,#667,#668);
#575=AXIS2_PLACEMENT_3D('',#846,#670,#671);
#576=AXIS2_PLACEMENT_3D('',#850,#674,#675);
#577=AXIS2_PLACEMENT_3D('',#851,#676,#677);
#578=AXIS2_PLACEMENT_3D('',#853,#678,#679);
#579=AXIS2_PLACEMENT_3D('',#855,#681,#682);
#580=AXIS2_PLACEMENT_3D('',#859,#684,#685);
#581=AXIS2_PLACEMENT_3D('',#863,#687,#688);
#582=AXIS2_PLACEMENT_3D('',#865,#690,#691);
#583=AXIS2_PLACEMENT_3D('',#866,#692,#693);
#584=AXIS2_PLACEMENT_3D('',#868,#694,#695);
#585=AXIS2_PLACEMENT_3D('',#871,#697,#698);
#586=AXIS2_PLACEMENT_3D('',#872,#699,#700);
#587=AXIS2_PLACEMENT_3D('',#878,#704,#705);
#588=AXIS2_PLACEMENT_3D('',#884,#709,#710);
#589=AXIS2_PLACEMENT_3D('',#888,#712,#713);
#590=AXIS2_PLACEMENT_3D('',#891,#715,#716);
#591=AXIS2_PLACEMENT_3D('',#892,#717,#718);
#592=AXIS2_PLACEMENT_3D('',#894,#719,#720);
#593=AXIS2_PLACEMENT_3D('',#896,#722,#723);
#594=AXIS2_PLACEMENT_3D('',#898,#724,#725);
#595=AXIS2_PLACEMENT_3D('',#900,#727,#728);
#596=AXIS2_PLACEMENT_3D('',#904,#731,#732);
#597=AXIS2_PLACEMENT_3D('',#907,#735,#736);
#598=AXIS2_PLACEMENT_3D('',#909,#737,#738);
#599=AXIS2_PLACEMENT_3D('',#911,#740,#741);
#600=AXIS2_PLACEMENT_3D('',#915,#744,#745);
#601=AXIS2_PLACEMENT_3D('',#917,#746,#747);
#602=AXIS2_PLACEMENT_3D('',#919,#749,#750);
#603=AXIS2_PLACEMENT_3D('',#920,#751,#752);
#604=AXIS2_PLACEMENT_3D('',#921,#753,#754);
#605=AXIS2_PLACEMENT_3D('',#922,#755,#756);
#606=AXIS2_PLACEMENT_3D('',#924,#758,#759);
#607=AXIS2_PLACEMENT_3D('',#925,#760,#761);
#608=AXIS2_PLACEMENT_3D('',#927,#763,#764);
#609=AXIS2_PLACEMENT_3D('',#928,#765,#766);
#610=AXIS2_PLACEMENT_3D('',#932,#769,#770);
#611=AXIS2_PLACEMENT_3D('',#935,#772,#773);
#612=AXIS2_PLACEMENT_3D('',#936,#774,#775);
#613=AXIS2_PLACEMENT_3D('',#937,#776,#777);
#614=AXIS2_PLACEMENT_3D('',#939,#779,#780);
#615=DIRECTION('axis',(0.,0.,1.));
#616=DIRECTION('refdir',(1.,0.,0.));
#617=DIRECTION('center_axis',(-0.127421516074691,0.,0.99184865641953));
#618=DIRECTION('ref_axis',(-0.99184865641953,0.,-0.127421516074691));
#619=DIRECTION('',(0.,-1.,0.));
#620=DIRECTION('',(0.99184865641953,0.,0.127421516074691));
#621=DIRECTION('',(0.,1.,0.));
#622=DIRECTION('',(0.99184865641953,0.,0.127421516074691));
#623=DIRECTION('center_axis',(0.127421516074691,0.,-0.99184865641953));
#624=DIRECTION('ref_axis',(0.99184865641953,0.,0.127421516074691));
#625=DIRECTION('',(0.,1.,0.));
#626=DIRECTION('',(-0.99184865641953,0.,-0.127421516074691));
#627=DIRECTION('',(0.,-1.,0.));
#628=DIRECTION('',(-0.99184865641953,0.,-0.127421516074691));
#629=DIRECTION('center_axis',(0.,1.,0.));
#630=DIRECTION('ref_axis',(1.,0.,0.));
#631=DIRECTION('',(0.99184865641953,0.,0.127421516074691));
#632=DIRECTION('center_axis',(0.,1.,0.));
#633=DIRECTION('ref_axis',(1.,0.,0.));
#634=DIRECTION('',(-0.976187060183953,0.,0.216930457818656));
#635=DIRECTION('center_axis',(0.,1.,0.));
#636=DIRECTION('ref_axis',(1.,0.,0.));
#637=DIRECTION('center_axis',(0.,1.,0.));
#638=DIRECTION('ref_axis',(1.,0.,0.));
#639=DIRECTION('center_axis',(0.,1.,0.));
#640=DIRECTION('ref_axis',(1.,0.,0.));
#641=DIRECTION('',(-1.,0.,0.));
#642=DIRECTION('center_axis',(0.,-1.,0.));
#643=DIRECTION('ref_axis',(1.,0.,0.));
#644=DIRECTION('center_axis',(0.,1.,0.));
#645=DIRECTION('ref_axis',(1.,0.,0.));
#646=DIRECTION('center_axis',(0.,1.,0.));
#647=DIRECTION('ref_axis',(1.,0.,0.));
#648=DIRECTION('',(-0.822234448594995,0.,-0.569148936170213));
#649=DIRECTION('center_axis',(0.,1.,0.));
#650=DIRECTION('ref_axis',(1.,0.,0.));
#651=DIRECTION('center_axis',(0.,1.,0.));
#652=DIRECTION('ref_axis',(1.,0.,0.));
#653=DIRECTION('',(-0.99184865641953,0.,-0.127421516074691));
#654=DIRECTION('center_axis',(0.,1.,0.));
#655=DIRECTION('ref_axis',(1.,0.,0.));
#656=DIRECTION('',(0.976187060183953,0.,-0.216930457818656));
#657=DIRECTION('center_axis',(0.,1.,0.));
#658=DIRECTION('ref_axis',(1.,0.,0.));
#659=DIRECTION('center_axis',(0.,1.,0.));
#660=DIRECTION('ref_axis',(1.,0.,0.));
#661=DIRECTION('',(0.822234448594995,0.,0.569148936170213));
#662=DIRECTION('center_axis',(0.,1.,0.));
#663=DIRECTION('ref_axis',(1.,0.,0.));
#664=DIRECTION('center_axis',(0.,1.,0.));
#665=DIRECTION('ref_axis',(-0.995658840524167,0.,0.0930777808398524));
#666=DIRECTION('',(0.,1.,0.));
#667=DIRECTION('center_axis',(0.,1.,0.));
#668=DIRECTION('ref_axis',(1.,0.,0.));
#669=DIRECTION('',(0.,1.,0.));
#670=DIRECTION('center_axis',(0.,-1.,0.));
#671=DIRECTION('ref_axis',(1.,0.,0.));
#672=DIRECTION('',(0.,-1.,0.));
#673=DIRECTION('',(0.,-1.,0.));
#674=DIRECTION('center_axis',(0.,-1.,0.));
#675=DIRECTION('ref_axis',(1.,0.,0.));
#676=DIRECTION('center_axis',(0.,1.,0.));
#677=DIRECTION('ref_axis',(1.,0.,0.));
#678=DIRECTION('center_axis',(0.,-1.,0.));
#679=DIRECTION('ref_axis',(1.,0.,0.));
#680=DIRECTION('',(0.,-1.,0.));
#681=DIRECTION('center_axis',(0.,1.,0.));
#682=DIRECTION('ref_axis',(1.,0.,0.));
#683=DIRECTION('',(0.,1.,0.));
#684=DIRECTION('center_axis',(0.,1.,0.));
#685=DIRECTION('ref_axis',(1.,0.,0.));
#686=DIRECTION('',(0.,1.,0.));
#687=DIRECTION('center_axis',(0.,-1.,0.));
#688=DIRECTION('ref_axis',(1.,0.,0.));
#689=DIRECTION('',(0.,-1.,0.));
#690=DIRECTION('center_axis',(0.,-1.,0.));
#691=DIRECTION('ref_axis',(1.,0.,0.));
#692=DIRECTION('center_axis',(0.,1.,0.));
#693=DIRECTION('ref_axis',(1.,0.,0.));
#694=DIRECTION('center_axis',(0.,-1.,0.));
#695=DIRECTION('ref_axis',(1.,0.,0.));
#696=DIRECTION('',(0.,-1.,0.));
#697=DIRECTION('center_axis',(0.,1.,0.));
#698=DIRECTION('ref_axis',(1.,0.,0.));
#699=DIRECTION('center_axis',(-0.127421516074691,0.,0.99184865641953));
#700=DIRECTION('ref_axis',(0.99184865641953,0.,0.127421516074691));
#701=DIRECTION('',(0.,-1.,0.));
#702=DIRECTION('',(-0.99184865641953,0.,-0.127421516074691));
#703=DIRECTION('',(0.,1.,0.));
#704=DIRECTION('center_axis',(0.127421516074691,0.,-0.99184865641953));
#705=DIRECTION('ref_axis',(-0.99184865641953,0.,-0.127421516074691));
#706=DIRECTION('',(0.,-1.,0.));
#707=DIRECTION('',(0.99184865641953,0.,0.127421516074691));
#708=DIRECTION('',(0.,1.,0.));
#709=DIRECTION('center_axis',(0.,1.,0.));
#710=DIRECTION('ref_axis',(1.,0.,0.));
#711=DIRECTION('',(0.,1.,0.));
#712=DIRECTION('center_axis',(0.,1.,0.));
#713=DIRECTION('ref_axis',(1.,0.,0.));
#714=DIRECTION('',(0.,1.,0.));
#715=DIRECTION('center_axis',(0.,1.,0.));
#716=DIRECTION('ref_axis',(1.,0.,0.));
#717=DIRECTION('center_axis',(0.,1.,0.));
#718=DIRECTION('ref_axis',(1.,0.,0.));
#719=DIRECTION('center_axis',(0.,1.,0.));
#720=DIRECTION('ref_axis',(1.,0.,0.));
#721=DIRECTION('',(0.,-1.,0.));
#722=DIRECTION('center_axis',(0.,1.,0.));
#723=DIRECTION('ref_axis',(1.,0.,0.));
#724=DIRECTION('center_axis',(0.,1.,0.));
#725=DIRECTION('ref_axis',(1.,0.,0.));
#726=DIRECTION('',(0.,-1.,0.));
#727=DIRECTION('center_axis',(0.,1.,0.));
#728=DIRECTION('ref_axis',(1.,0.,0.));
#729=DIRECTION('',(0.976968855959226,0.,0.213381945079056));
#730=DIRECTION('',(-0.976187060183953,0.,0.216930457818656));
#731=DIRECTION('center_axis',(0.,1.,0.));
#732=DIRECTION('ref_axis',(1.,0.,0.));
#733=DIRECTION('',(-0.976968855959226,0.,-0.213381945079056));
#734=DIRECTION('',(0.976187060183953,0.,-0.216930457818656));
#735=DIRECTION('center_axis',(0.,-1.,0.));
#736=DIRECTION('ref_axis',(1.,0.,0.));
#737=DIRECTION('center_axis',(0.,-1.,0.));
#738=DIRECTION('ref_axis',(1.,0.,0.));
#739=DIRECTION('',(0.,-1.,0.));
#740=DIRECTION('center_axis',(0.,0.,-1.));
#741=DIRECTION('ref_axis',(1.,0.,0.));
#742=DIRECTION('',(1.,0.,0.));
#743=DIRECTION('',(0.,-1.,0.));
#744=DIRECTION('center_axis',(0.,-1.,0.));
#745=DIRECTION('ref_axis',(1.,0.,0.));
#746=DIRECTION('center_axis',(0.,1.,0.));
#747=DIRECTION('ref_axis',(1.,0.,0.));
#748=DIRECTION('',(0.,-1.,0.));
#749=DIRECTION('center_axis',(0.,-1.,0.));
#750=DIRECTION('ref_axis',(-0.755106674139847,0.,-0.655601945291088));
#751=DIRECTION('center_axis',(0.,-1.,0.));
#752=DIRECTION('ref_axis',(1.,0.,0.));
#753=DIRECTION('center_axis',(0.,1.,0.));
#754=DIRECTION('ref_axis',(1.,0.,0.));
#755=DIRECTION('center_axis',(-0.213381945079056,0.,0.976968855959226));
#756=DIRECTION('ref_axis',(0.976968855959226,0.,0.213381945079056));
#757=DIRECTION('',(0.976968855959226,0.,0.213381945079056));
#758=DIRECTION('center_axis',(-0.216930457818656,0.,-0.976187060183953));
#759=DIRECTION('ref_axis',(-0.976187060183953,0.,0.216930457818656));
#760=DIRECTION('center_axis',(0.,1.,0.));
#761=DIRECTION('ref_axis',(1.,0.,0.));
#762=DIRECTION('',(-0.822234448594995,0.,-0.569148936170213));
#763=DIRECTION('center_axis',(0.569148936170213,0.,-0.822234448594995));
#764=DIRECTION('ref_axis',(-0.822234448594995,0.,-0.569148936170213));
#765=DIRECTION('center_axis',(-0.213381945079056,0.,0.976968855959226));
#766=DIRECTION('ref_axis',(0.976968855959226,0.,0.213381945079056));
#767=DIRECTION('',(0.,1.,0.));
#768=DIRECTION('',(0.976968855959226,0.,0.213381945079056));
#769=DIRECTION('center_axis',(0.,1.,0.));
#770=DIRECTION('ref_axis',(1.,0.,0.));
#771=DIRECTION('',(0.,1.,0.));
#772=DIRECTION('center_axis',(0.,1.,0.));
#773=DIRECTION('ref_axis',(1.,0.,0.));
#774=DIRECTION('center_axis',(0.216930457818656,0.,0.976187060183953));
#775=DIRECTION('ref_axis',(0.976187060183953,0.,-0.216930457818656));
#776=DIRECTION('center_axis',(-0.569148936170213,0.,0.822234448594995));
#777=DIRECTION('ref_axis',(0.822234448594995,0.,0.569148936170213));
#778=DIRECTION('',(0.822234448594995,0.,0.569148936170213));
#779=DIRECTION('center_axis',(0.,1.,0.));
#780=DIRECTION('ref_axis',(1.,0.,0.));
#781=CARTESIAN_POINT('',(0.,0.,0.));
#782=CARTESIAN_POINT('Origin',(4.77346650140768,0.,-4.98237067668984));
#783=CARTESIAN_POINT('',(-3.35908767297861,0.,-6.02714940956695));
#784=CARTESIAN_POINT('',(-3.35908767297861,-6.,-6.02714940956695));
#785=CARTESIAN_POINT('',(-3.35908767297861,0.,-6.02714940956695));
#786=CARTESIAN_POINT('',(4.77346650140768,0.,-4.98237067668984));
#787=CARTESIAN_POINT('',(-4.2520538678792,0.,-6.14186762350134));
#788=CARTESIAN_POINT('',(4.77346650140768,-6.,-4.98237067668984));
#789=CARTESIAN_POINT('',(4.77346650140768,0.,-4.98237067668984));
#790=CARTESIAN_POINT('',(2.74032795781111,-6.,-5.24356535990911));
#791=CARTESIAN_POINT('Origin',(-6.81837408895471,0.,4.71966403958174));
#792=CARTESIAN_POINT('',(-4.77346650142017,-6.,4.98237067667787));
#793=CARTESIAN_POINT('',(-4.77346650142017,0.,4.98237067667787));
#794=CARTESIAN_POINT('',(-4.77346650142017,0.,4.98237067667787));
#795=CARTESIAN_POINT('',(3.35908767299373,-6.,6.02714940955852));
#796=CARTESIAN_POINT('',(-3.76278175158397,-6.,5.11221204134996));
#797=CARTESIAN_POINT('',(3.35908767299373,0.,6.02714940955852));
#798=CARTESIAN_POINT('',(3.35908767299373,0.,6.02714940955852));
#799=CARTESIAN_POINT('',(-5.66643269631087,0.,4.86765246274474));
#800=CARTESIAN_POINT('Origin',(0.,0.,0.));
#801=CARTESIAN_POINT('',(-5.37445589067399,0.,-7.71201814567364));
#802=CARTESIAN_POINT('',(7.14926776140345,0.,-6.1031115404978));
#803=CARTESIAN_POINT('',(-2.24352497765463,0.,-7.30979149437968));
#804=CARTESIAN_POINT('',(9.17615836572916,0.,-2.03914630349537));
#805=CARTESIAN_POINT('Origin',(0.,0.,0.));
#806=CARTESIAN_POINT('',(6.73569071526928,0.,-1.49682015894873));
#807=CARTESIAN_POINT('',(4.58807918286458,0.,-1.01957315174768));
#808=CARTESIAN_POINT('Origin',(0.,0.,0.));
#809=CARTESIAN_POINT('',(-4.38869316251017,0.,-5.32441286202868));
#810=CARTESIAN_POINT('Origin',(0.,0.,0.));
#811=CARTESIAN_POINT('',(-4.41372916648161,0.,-5.35));
#812=CARTESIAN_POINT('Origin',(-5.04437035719192,0.,-4.70790056176673));
#813=CARTESIAN_POINT('',(-4.45863671491124,0.,-5.35));
#814=CARTESIAN_POINT('',(-2.22931835745562,0.,-5.35));
#815=CARTESIAN_POINT('',(-4.43465065705081,0.,-5.36989896603961));
#816=CARTESIAN_POINT('Origin',(0.,0.,0.));
#817=CARTESIAN_POINT('',(-5.61422650609913,0.,-4.01129165459382));
#818=CARTESIAN_POINT('Origin',(-5.04437035719192,0.,-4.70790056176673));
#819=CARTESIAN_POINT('',(-5.67341769530546,0.,-3.92712765957447));
#820=CARTESIAN_POINT('Origin',(0.,0.,0.));
#821=CARTESIAN_POINT('',(-7.72900381679295,0.,-5.35));
#822=CARTESIAN_POINT('',(-2.83670884765273,0.,-1.96356382978723));
#823=CARTESIAN_POINT('Origin',(0.,0.,0.));
#824=CARTESIAN_POINT('Origin',(0.,0.,0.));
#825=CARTESIAN_POINT('',(5.37445589067399,0.,7.71201814567365));
#826=CARTESIAN_POINT('',(-7.14926776140343,0.,6.10311154049781));
#827=CARTESIAN_POINT('',(2.24352497765463,0.,7.30979149437969));
#828=CARTESIAN_POINT('',(-9.17615836572915,0.,2.03914630349537));
#829=CARTESIAN_POINT('Origin',(0.,0.,0.));
#830=CARTESIAN_POINT('',(-6.73569071526927,0.,1.49682015894873));
#831=CARTESIAN_POINT('',(-4.58807918286458,0.,1.01957315174768));
#832=CARTESIAN_POINT('Origin',(0.,0.,0.));
#833=CARTESIAN_POINT('',(5.67341769530547,0.,3.92712765957447));
#834=CARTESIAN_POINT('Origin',(0.,0.,0.));
#835=CARTESIAN_POINT('',(7.72900381679295,0.,5.35));
#836=CARTESIAN_POINT('',(2.83670884765273,0.,1.96356382978723));
#837=CARTESIAN_POINT('Origin',(0.,0.,0.));
#838=CARTESIAN_POINT('Origin',(0.,0.,0.));
#839=CARTESIAN_POINT('',(-6.73569071526927,5.8,1.49682015894873));
#840=CARTESIAN_POINT('',(-6.73569071526927,0.,1.49682015894873));
#841=CARTESIAN_POINT('',(-6.74108510612177,5.8,-1.47233542103124));
#842=CARTESIAN_POINT('Origin',(0.,5.8,0.));
#843=CARTESIAN_POINT('',(-6.74108510612177,2.2,-1.47233542103124));
#844=CARTESIAN_POINT('',(-6.74108510612177,0.,-1.47233542103124));
#845=CARTESIAN_POINT('',(-5.67341769530546,2.2,-3.92712765957447));
#846=CARTESIAN_POINT('Origin',(0.,2.2,0.));
#847=CARTESIAN_POINT('',(-5.67341769530546,0.,-3.92712765957447));
#848=CARTESIAN_POINT('',(-5.61422650609913,-6.,-4.01129165459382));
#849=CARTESIAN_POINT('',(-5.61422650609913,0.,-4.01129165459382));
#850=CARTESIAN_POINT('Origin',(0.,-6.,0.));
#851=CARTESIAN_POINT('Origin',(0.,0.,0.));
#852=CARTESIAN_POINT('',(-4.38869316251017,-6.,-5.32441286202868));
#853=CARTESIAN_POINT('Origin',(0.,-6.,0.));
#854=CARTESIAN_POINT('',(-4.38869316251017,0.,-5.32441286202868));
#855=CARTESIAN_POINT('Origin',(0.,0.,0.));
#856=CARTESIAN_POINT('',(6.73569071526928,5.8,-1.49682015894873));
#857=CARTESIAN_POINT('',(6.73569071526928,0.,-1.49682015894873));
#858=CARTESIAN_POINT('',(6.74108510611555,5.8,1.47233542105974));
#859=CARTESIAN_POINT('Origin',(0.,5.8,0.));
#860=CARTESIAN_POINT('',(6.74108510611555,2.2,1.47233542105974));
#861=CARTESIAN_POINT('',(6.74108510611555,0.,1.47233542105974));
#862=CARTESIAN_POINT('',(5.67341769530547,2.2,3.92712765957447));
#863=CARTESIAN_POINT('Origin',(0.,2.2,0.));
#864=CARTESIAN_POINT('',(5.67341769530547,0.,3.92712765957447));
#865=CARTESIAN_POINT('Origin',(0.,-6.,0.));
#866=CARTESIAN_POINT('Origin',(0.,0.,0.));
#867=CARTESIAN_POINT('',(-5.4,5.8,6.61309271539571E-16));
#868=CARTESIAN_POINT('Origin',(0.,5.8,0.));
#869=CARTESIAN_POINT('',(-5.4,-6.,6.61309271539571E-16));
#870=CARTESIAN_POINT('',(-5.4,0.,6.61309271539571E-16));
#871=CARTESIAN_POINT('Origin',(0.,-6.,0.));
#872=CARTESIAN_POINT('Origin',(-5.37445589067399,0.,-7.71201814567365));
#873=CARTESIAN_POINT('',(-5.37445589067399,5.8,-7.71201814567364));
#874=CARTESIAN_POINT('',(-5.374455890674,0.,-7.71201814567365));
#875=CARTESIAN_POINT('',(7.14926776140345,5.8,-6.1031115404978));
#876=CARTESIAN_POINT('',(-2.24352497765463,5.8,-7.30979149437968));
#877=CARTESIAN_POINT('',(7.14926776140344,0.,-6.1031115404978));
#878=CARTESIAN_POINT('Origin',(5.37445589067399,0.,7.71201814567365));
#879=CARTESIAN_POINT('',(5.37445589067399,5.8,7.71201814567365));
#880=CARTESIAN_POINT('',(5.37445589067399,0.,7.71201814567365));
#881=CARTESIAN_POINT('',(-7.14926776140343,5.8,6.10311154049781));
#882=CARTESIAN_POINT('',(2.24352497765463,5.8,7.30979149437969));
#883=CARTESIAN_POINT('',(-7.14926776140343,0.,6.10311154049781));
#884=CARTESIAN_POINT('Origin',(0.,0.,0.));
#885=CARTESIAN_POINT('',(-7.72900381679295,2.2,-5.35));
#886=CARTESIAN_POINT('',(-7.72900381679295,0.,-5.35));
#887=CARTESIAN_POINT('',(-9.18350724601984,2.2,-2.00579028372888));
#888=CARTESIAN_POINT('Origin',(0.,2.2,0.));
#889=CARTESIAN_POINT('',(-9.18350724601984,5.8,-2.00579028372888));
#890=CARTESIAN_POINT('',(-9.18350724601984,0.,-2.00579028372888));
#891=CARTESIAN_POINT('Origin',(0.,5.8,0.));
#892=CARTESIAN_POINT('Origin',(0.,0.,0.));
#893=CARTESIAN_POINT('',(9.17615836572916,5.8,-2.03914630349537));
#894=CARTESIAN_POINT('Origin',(0.,5.8,0.));
#895=CARTESIAN_POINT('',(9.17615836572916,0.,-2.03914630349537));
#896=CARTESIAN_POINT('Origin',(0.,0.,0.));
#897=CARTESIAN_POINT('',(-9.17615836572916,5.8,2.03914630349537));
#898=CARTESIAN_POINT('Origin',(0.,5.8,0.));
#899=CARTESIAN_POINT('',(-9.17615836572916,0.,2.03914630349537));
#900=CARTESIAN_POINT('Origin',(0.,5.8,0.));
#901=CARTESIAN_POINT('',(-3.37054255306244,5.8,-0.736167710508493));
#902=CARTESIAN_POINT('',(-4.58807918286458,5.8,1.01957315174768));
#903=CARTESIAN_POINT('',(9.18350724601361,5.8,2.00579028375738));
#904=CARTESIAN_POINT('Origin',(0.,5.8,0.));
#905=CARTESIAN_POINT('',(3.37054255305622,5.8,0.736167710536994));
#906=CARTESIAN_POINT('',(4.58807918286458,5.8,-1.01957315174768));
#907=CARTESIAN_POINT('Origin',(-5.04437035719192,0.,-4.70790056176673));
#908=CARTESIAN_POINT('',(-4.41372916648161,-6.,-5.35));
#909=CARTESIAN_POINT('Origin',(-5.04437035719192,-6.,-4.70790056176673));
#910=CARTESIAN_POINT('',(-4.41372916648161,0.,-5.35));
#911=CARTESIAN_POINT('Origin',(-4.45863671491124,0.,-5.35));
#912=CARTESIAN_POINT('',(-4.45863671491124,-6.,-5.35));
#913=CARTESIAN_POINT('',(15.0000002235174,-6.,-5.35));
#914=CARTESIAN_POINT('',(-4.45863671491124,0.,-5.35));
#915=CARTESIAN_POINT('Origin',(0.,0.,0.));
#916=CARTESIAN_POINT('',(-4.43465065705081,-6.,-5.36989896603961));
#917=CARTESIAN_POINT('Origin',(0.,-6.,0.));
#918=CARTESIAN_POINT('',(-4.43465065705081,0.,-5.36989896603961));
#919=CARTESIAN_POINT('Origin',(-5.04437035719192,0.,-4.70790056176673));
#920=CARTESIAN_POINT('Origin',(-5.04437035719192,-6.,-4.70790056176673));
#921=CARTESIAN_POINT('Origin',(0.,-6.,0.));
#922=CARTESIAN_POINT('Origin',(-6.80393694999599,0.,-1.48606303232189));
#923=CARTESIAN_POINT('',(-7.17129409401587,2.2,-1.56629832483046));
#924=CARTESIAN_POINT('Origin',(6.7984922634706,0.,-1.51077605854902));
#925=CARTESIAN_POINT('Origin',(-7.53670884765273,2.2,-1.65542684825232));
#926=CARTESIAN_POINT('',(-7.72900381679295,2.2,-5.35));
#927=CARTESIAN_POINT('Origin',(-5.67341769530546,0.,-3.92712765957447));
#928=CARTESIAN_POINT('Origin',(6.74108510611555,0.,1.47233542105974));
#929=CARTESIAN_POINT('',(9.18350724601361,2.2,2.00579028375738));
#930=CARTESIAN_POINT('',(9.18350724601361,0.,2.00579028375738));
#931=CARTESIAN_POINT('',(7.16740518003263,2.2,1.5654489384905));
#932=CARTESIAN_POINT('Origin',(0.,0.,0.));
#933=CARTESIAN_POINT('',(7.72900381679295,2.2,5.35));
#934=CARTESIAN_POINT('',(7.72900381679295,0.,5.35));
#935=CARTESIAN_POINT('Origin',(0.,2.2,0.));
#936=CARTESIAN_POINT('Origin',(-9.17615836572915,0.,2.03914630349537));
#937=CARTESIAN_POINT('Origin',(5.67341769530547,0.,3.92712765957447));
#938=CARTESIAN_POINT('',(-7.72900381679295,2.2,-5.35));
#939=CARTESIAN_POINT('Origin',(7.53670884765273,2.2,1.91961197072549));
#940=UNCERTAINTY_MEASURE_WITH_UNIT(LENGTH_MEASURE(0.01),#944,
'DISTANCE_ACCURACY_VALUE',
'Maximum model space distance between geometric entities at asserted c
onnectivities');
#941=UNCERTAINTY_MEASURE_WITH_UNIT(LENGTH_MEASURE(0.01),#944,
'DISTANCE_ACCURACY_VALUE',
'Maximum model space distance between geometric entities at asserted c
onnectivities');
#942=(
GEOMETRIC_REPRESENTATION_CONTEXT(3)
GLOBAL_UNCERTAINTY_ASSIGNED_CONTEXT((#940))
GLOBAL_UNIT_ASSIGNED_CONTEXT((#944,#946,#947))
REPRESENTATION_CONTEXT('','3D')
);
#943=(
GEOMETRIC_REPRESENTATION_CONTEXT(3)
GLOBAL_UNCERTAINTY_ASSIGNED_CONTEXT((#941))
GLOBAL_UNIT_ASSIGNED_CONTEXT((#944,#946,#947))
REPRESENTATION_CONTEXT('','3D')
);
#944=(
LENGTH_UNIT()
NAMED_UNIT(*)
SI_UNIT(.MILLI.,.METRE.)
);
#945=(
LENGTH_UNIT()
NAMED_UNIT(*)
SI_UNIT($,.METRE.)
);
#946=(
NAMED_UNIT(*)
PLANE_ANGLE_UNIT()
SI_UNIT($,.RADIAN.)
);
#947=(
NAMED_UNIT(*)
SI_UNIT($,.STERADIAN.)
SOLID_ANGLE_UNIT()
);
#948=SHAPE_DEFINITION_REPRESENTATION(#949,#950);
#949=PRODUCT_DEFINITION_SHAPE('',$,#952);
#950=SHAPE_REPRESENTATION('',(#556),#942);
#951=PRODUCT_DEFINITION_CONTEXT('part definition',#956,'design');
#952=PRODUCT_DEFINITION('adaptateur_bouton','adaptateur_bouton v32',#953,
#951);
#953=PRODUCT_DEFINITION_FORMATION('',$,#958);
#954=PRODUCT_RELATED_PRODUCT_CATEGORY('adaptateur_bouton v32',
'adaptateur_bouton v32',(#958));
#955=APPLICATION_PROTOCOL_DEFINITION('international standard',
'automotive_design',2009,#956);
#956=APPLICATION_CONTEXT(
'Core Data for Automotive Mechanical Design Process');
#957=PRODUCT_CONTEXT('part definition',#956,'mechanical');
#958=PRODUCT('adaptateur_bouton','adaptateur_bouton v32',$,(#957));
#959=PRESENTATION_STYLE_ASSIGNMENT((#960));
#960=SURFACE_STYLE_USAGE(.BOTH.,#961);
#961=SURFACE_SIDE_STYLE('',(#962));
#962=SURFACE_STYLE_FILL_AREA(#963);
#963=FILL_AREA_STYLE('Acier - Satin\X\E9',(#964));
#964=FILL_AREA_STYLE_COLOUR('Acier - Satin\X\E9',#965);
#965=COLOUR_RGB('Acier - Satin\X\E9',0.627450980392157,0.627450980392157,
0.627450980392157);
ENDSEC;
END-ISO-10303-21;
