ISO-10303-21;
HEADER;
/* Generated by software containing ST-Developer
 * from STEP Tools, Inc. (www.steptools.com) 
 */

FILE_DESCRIPTION(
/* description */ (''),
/* implementation_level */ '2;1');

FILE_NAME(
/* name */ 'agraphe_gaine_16.step',
/* time_stamp */ '2025-10-05T18:54:51+02:00',
/* author */ (''),
/* organization */ (''),
/* preprocessor_version */ 'ST-DEVELOPER v20.1',
/* originating_system */ 'Autodesk Translation Framework v14.17.0.0',
/* authorisation */ '');

FILE_SCHEMA (('AUTOMOTIVE_DESIGN { 1 0 10303 214 3 1 1 }'));
ENDSEC;

DATA;
#10=MECHANICAL_DESIGN_GEOMETRIC_PRESENTATION_REPRESENTATION('',(#13),#805);
#11=SHAPE_REPRESENTATION_RELATIONSHIP('SRR','None',#812,#12);
#12=ADVANCED_BREP_SHAPE_REPRESENTATION('',(#14),#804);
#13=STYLED_ITEM('',(#821),#14);
#14=MANIFOLD_SOLID_BREP('Corps1',#437);
#15=TOROIDAL_SURFACE('',#481,8.5,0.5);
#16=TOROIDAL_SURFACE('',#484,8.5,0.5);
#17=B_SPLINE_CURVE_WITH_KNOTS('',3,(#718,#719,#720,#721,#722,#723,#724,
#725,#726,#727,#728,#729,#730,#731),.UNSPECIFIED.,.F.,.F.,(4,2,2,2,2,2,
4),(-0.0924135800378457,-0.0919776636005855,-0.0716564572631296,-0.0521813199064094,
-0.0302473041767514,-0.0140332196938413,0.),.UNSPECIFIED.);
#18=B_SPLINE_CURVE_WITH_KNOTS('',3,(#734,#735,#736,#737,#738,#739,#740,
#741,#742,#743,#744,#745,#746,#747),.UNSPECIFIED.,.F.,.F.,(4,2,2,2,2,2,
4),(-0.000439778284255306,0.,0.0205012348542313,0.0401489052798098,0.0622772376387628,
0.0786349650497496,0.0927925070739258),.UNSPECIFIED.);
#19=B_SPLINE_CURVE_WITH_KNOTS('',3,(#751,#752,#753,#754,#755,#756,#757,
#758,#759,#760,#761,#762,#763,#764),.UNSPECIFIED.,.F.,.F.,(4,2,2,2,2,2,
4),(-0.000439778284222611,0.,0.0205012314385317,0.040148898855074,0.0622772331165434,
0.0786349614635285,0.0927925036390345),.UNSPECIFIED.);
#20=B_SPLINE_CURVE_WITH_KNOTS('',3,(#770,#771,#772,#773,#774,#775,#776,
#777,#778,#779,#780,#781,#782,#783),.UNSPECIFIED.,.F.,.F.,(4,2,2,2,2,2,
4),(0.,0.0140332198459889,0.0302473052591571,0.0521813228779762,0.0716564572550586,
0.0919776602099072,0.0924135766472013),.UNSPECIFIED.);
#21=CYLINDRICAL_SURFACE('',#460,11.);
#22=CYLINDRICAL_SURFACE('',#462,2.);
#23=CYLINDRICAL_SURFACE('',#464,11.);
#24=CYLINDRICAL_SURFACE('',#466,2.);
#25=CYLINDRICAL_SURFACE('',#469,0.5);
#26=CYLINDRICAL_SURFACE('',#478,0.5);
#27=CYLINDRICAL_SURFACE('',#480,0.5);
#28=CYLINDRICAL_SURFACE('',#488,0.5);
#29=CYLINDRICAL_SURFACE('',#489,8.);
#30=CIRCLE('',#453,2.);
#31=CIRCLE('',#454,11.);
#32=CIRCLE('',#458,2.);
#33=CIRCLE('',#459,11.);
#34=CIRCLE('',#461,11.);
#35=CIRCLE('',#463,2.);
#36=CIRCLE('',#465,11.);
#37=CIRCLE('',#467,2.);
#38=CIRCLE('',#470,0.5);
#39=CIRCLE('',#471,0.5);
#40=CIRCLE('',#473,0.5);
#41=CIRCLE('',#474,0.5);
#42=CIRCLE('',#476,0.5);
#43=CIRCLE('',#477,8.5);
#44=CIRCLE('',#479,0.5);
#45=CIRCLE('',#482,8.);
#46=CIRCLE('',#483,0.5);
#47=CIRCLE('',#485,8.5);
#48=CIRCLE('',#486,8.);
#49=CIRCLE('',#487,0.5);
#50=FACE_OUTER_BOUND('',#74,.T.);
#51=FACE_OUTER_BOUND('',#75,.T.);
#52=FACE_OUTER_BOUND('',#76,.T.);
#53=FACE_OUTER_BOUND('',#77,.T.);
#54=FACE_OUTER_BOUND('',#78,.T.);
#55=FACE_OUTER_BOUND('',#79,.T.);
#56=FACE_OUTER_BOUND('',#80,.T.);
#57=FACE_OUTER_BOUND('',#81,.T.);
#58=FACE_OUTER_BOUND('',#82,.T.);
#59=FACE_OUTER_BOUND('',#83,.T.);
#60=FACE_OUTER_BOUND('',#84,.T.);
#61=FACE_OUTER_BOUND('',#85,.T.);
#62=FACE_OUTER_BOUND('',#86,.T.);
#63=FACE_OUTER_BOUND('',#87,.T.);
#64=FACE_OUTER_BOUND('',#88,.T.);
#65=FACE_OUTER_BOUND('',#89,.T.);
#66=FACE_OUTER_BOUND('',#90,.T.);
#67=FACE_OUTER_BOUND('',#91,.T.);
#68=FACE_OUTER_BOUND('',#92,.T.);
#69=FACE_OUTER_BOUND('',#93,.T.);
#70=FACE_OUTER_BOUND('',#94,.T.);
#71=FACE_OUTER_BOUND('',#95,.T.);
#72=FACE_OUTER_BOUND('',#96,.T.);
#73=FACE_OUTER_BOUND('',#97,.T.);
#74=EDGE_LOOP('',(#276,#277,#278,#279));
#75=EDGE_LOOP('',(#280,#281,#282,#283));
#76=EDGE_LOOP('',(#284,#285,#286,#287));
#77=EDGE_LOOP('',(#288,#289,#290,#291));
#78=EDGE_LOOP('',(#292,#293,#294,#295));
#79=EDGE_LOOP('',(#296,#297,#298,#299));
#80=EDGE_LOOP('',(#300,#301,#302,#303));
#81=EDGE_LOOP('',(#304,#305,#306,#307));
#82=EDGE_LOOP('',(#308,#309,#310,#311));
#83=EDGE_LOOP('',(#312,#313,#314,#315));
#84=EDGE_LOOP('',(#316,#317,#318,#319,#320));
#85=EDGE_LOOP('',(#321,#322,#323,#324,#325,#326));
#86=EDGE_LOOP('',(#327,#328,#329,#330,#331,#332,#333,#334,#335,#336));
#87=EDGE_LOOP('',(#337,#338,#339,#340,#341));
#88=EDGE_LOOP('',(#342,#343,#344,#345));
#89=EDGE_LOOP('',(#346,#347,#348,#349,#350,#351));
#90=EDGE_LOOP('',(#352,#353,#354,#355,#356,#357));
#91=EDGE_LOOP('',(#358,#359,#360,#361));
#92=EDGE_LOOP('',(#362,#363,#364,#365));
#93=EDGE_LOOP('',(#366,#367,#368,#369,#370,#371));
#94=EDGE_LOOP('',(#372,#373,#374,#375));
#95=EDGE_LOOP('',(#376,#377,#378,#379,#380));
#96=EDGE_LOOP('',(#381,#382,#383,#384,#385));
#97=EDGE_LOOP('',(#386,#387,#388,#389,#390,#391,#392,#393,#394,#395,#396,
#397,#398,#399));
#98=LINE('',#627,#136);
#99=LINE('',#629,#137);
#100=LINE('',#631,#138);
#101=LINE('',#632,#139);
#102=LINE('',#637,#140);
#103=LINE('',#641,#141);
#104=LINE('',#643,#142);
#105=LINE('',#644,#143);
#106=LINE('',#648,#144);
#107=LINE('',#650,#145);
#108=LINE('',#652,#146);
#109=LINE('',#653,#147);
#110=LINE('',#659,#148);
#111=LINE('',#662,#149);
#112=LINE('',#665,#150);
#113=LINE('',#668,#151);
#114=LINE('',#672,#152);
#115=LINE('',#676,#153);
#116=LINE('',#680,#154);
#117=LINE('',#681,#155);
#118=LINE('',#687,#156);
#119=LINE('',#690,#157);
#120=LINE('',#694,#158);
#121=LINE('',#697,#159);
#122=LINE('',#700,#160);
#123=LINE('',#702,#161);
#124=LINE('',#703,#162);
#125=LINE('',#707,#163);
#126=LINE('',#712,#164);
#127=LINE('',#716,#165);
#128=LINE('',#733,#166);
#129=LINE('',#787,#167);
#130=LINE('',#790,#168);
#131=LINE('',#793,#169);
#132=LINE('',#795,#170);
#133=LINE('',#796,#171);
#134=LINE('',#798,#172);
#135=LINE('',#800,#173);
#136=VECTOR('',#499,10.);
#137=VECTOR('',#500,10.);
#138=VECTOR('',#501,10.);
#139=VECTOR('',#502,10.);
#140=VECTOR('',#507,10.);
#141=VECTOR('',#512,10.);
#142=VECTOR('',#513,10.);
#143=VECTOR('',#514,10.);
#144=VECTOR('',#517,10.);
#145=VECTOR('',#518,10.);
#146=VECTOR('',#519,10.);
#147=VECTOR('',#520,10.);
#148=VECTOR('',#527,10.);
#149=VECTOR('',#530,10.);
#150=VECTOR('',#533,10.);
#151=VECTOR('',#536,10.);
#152=VECTOR('',#541,10.);
#153=VECTOR('',#546,10.);
#154=VECTOR('',#551,10.);
#155=VECTOR('',#552,10.);
#156=VECTOR('',#559,10.);
#157=VECTOR('',#562,10.);
#158=VECTOR('',#565,10.);
#159=VECTOR('',#568,10.);
#160=VECTOR('',#571,10.);
#161=VECTOR('',#572,10.);
#162=VECTOR('',#573,10.);
#163=VECTOR('',#576,10.);
#164=VECTOR('',#583,10.);
#165=VECTOR('',#586,10.);
#166=VECTOR('',#587,10.);
#167=VECTOR('',#604,10.);
#168=VECTOR('',#609,10.);
#169=VECTOR('',#612,10.);
#170=VECTOR('',#613,10.);
#171=VECTOR('',#614,10.);
#172=VECTOR('',#617,10.);
#173=VECTOR('',#620,10.);
#174=VERTEX_POINT('',#625);
#175=VERTEX_POINT('',#626);
#176=VERTEX_POINT('',#628);
#177=VERTEX_POINT('',#630);
#178=VERTEX_POINT('',#634);
#179=VERTEX_POINT('',#635);
#180=VERTEX_POINT('',#640);
#181=VERTEX_POINT('',#642);
#182=VERTEX_POINT('',#646);
#183=VERTEX_POINT('',#647);
#184=VERTEX_POINT('',#649);
#185=VERTEX_POINT('',#651);
#186=VERTEX_POINT('',#655);
#187=VERTEX_POINT('',#656);
#188=VERTEX_POINT('',#661);
#189=VERTEX_POINT('',#663);
#190=VERTEX_POINT('',#667);
#191=VERTEX_POINT('',#671);
#192=VERTEX_POINT('',#675);
#193=VERTEX_POINT('',#679);
#194=VERTEX_POINT('',#683);
#195=VERTEX_POINT('',#685);
#196=VERTEX_POINT('',#689);
#197=VERTEX_POINT('',#691);
#198=VERTEX_POINT('',#693);
#199=VERTEX_POINT('',#695);
#200=VERTEX_POINT('',#699);
#201=VERTEX_POINT('',#701);
#202=VERTEX_POINT('',#704);
#203=VERTEX_POINT('',#706);
#204=VERTEX_POINT('',#710);
#205=VERTEX_POINT('',#714);
#206=VERTEX_POINT('',#715);
#207=VERTEX_POINT('',#717);
#208=VERTEX_POINT('',#732);
#209=VERTEX_POINT('',#749);
#210=VERTEX_POINT('',#767);
#211=VERTEX_POINT('',#769);
#212=VERTEX_POINT('',#792);
#213=VERTEX_POINT('',#794);
#214=EDGE_CURVE('',#174,#175,#98,.T.);
#215=EDGE_CURVE('',#176,#174,#99,.T.);
#216=EDGE_CURVE('',#177,#176,#100,.T.);
#217=EDGE_CURVE('',#175,#177,#101,.T.);
#218=EDGE_CURVE('',#178,#179,#30,.T.);
#219=EDGE_CURVE('',#177,#178,#102,.T.);
#220=EDGE_CURVE('',#179,#176,#31,.T.);
#221=EDGE_CURVE('',#180,#178,#103,.T.);
#222=EDGE_CURVE('',#181,#180,#104,.T.);
#223=EDGE_CURVE('',#177,#181,#105,.T.);
#224=EDGE_CURVE('',#182,#183,#106,.T.);
#225=EDGE_CURVE('',#183,#184,#107,.T.);
#226=EDGE_CURVE('',#185,#184,#108,.T.);
#227=EDGE_CURVE('',#182,#185,#109,.T.);
#228=EDGE_CURVE('',#186,#187,#32,.T.);
#229=EDGE_CURVE('',#185,#186,#33,.T.);
#230=EDGE_CURVE('',#187,#184,#110,.T.);
#231=EDGE_CURVE('',#188,#186,#111,.T.);
#232=EDGE_CURVE('',#189,#188,#34,.T.);
#233=EDGE_CURVE('',#185,#189,#112,.T.);
#234=EDGE_CURVE('',#179,#190,#113,.T.);
#235=EDGE_CURVE('',#190,#180,#35,.T.);
#236=EDGE_CURVE('',#191,#176,#114,.T.);
#237=EDGE_CURVE('',#190,#191,#36,.T.);
#238=EDGE_CURVE('',#187,#192,#115,.T.);
#239=EDGE_CURVE('',#192,#188,#37,.T.);
#240=EDGE_CURVE('',#184,#193,#116,.T.);
#241=EDGE_CURVE('',#192,#193,#117,.T.);
#242=EDGE_CURVE('',#194,#191,#38,.T.);
#243=EDGE_CURVE('',#174,#195,#39,.T.);
#244=EDGE_CURVE('',#195,#194,#118,.T.);
#245=EDGE_CURVE('',#196,#195,#119,.T.);
#246=EDGE_CURVE('',#197,#196,#40,.T.);
#247=EDGE_CURVE('',#198,#197,#120,.T.);
#248=EDGE_CURVE('',#199,#198,#41,.T.);
#249=EDGE_CURVE('',#194,#199,#121,.T.);
#250=EDGE_CURVE('',#200,#175,#122,.T.);
#251=EDGE_CURVE('',#201,#200,#123,.T.);
#252=EDGE_CURVE('',#183,#201,#124,.T.);
#253=EDGE_CURVE('',#202,#182,#42,.T.);
#254=EDGE_CURVE('',#202,#203,#125,.T.);
#255=EDGE_CURVE('',#196,#203,#43,.T.);
#256=EDGE_CURVE('',#189,#204,#44,.T.);
#257=EDGE_CURVE('',#204,#202,#126,.T.);
#258=EDGE_CURVE('',#205,#206,#127,.T.);
#259=EDGE_CURVE('',#206,#207,#17,.T.);
#260=EDGE_CURVE('',#207,#208,#128,.T.);
#261=EDGE_CURVE('',#205,#208,#18,.T.);
#262=EDGE_CURVE('',#206,#209,#45,.T.);
#263=EDGE_CURVE('',#209,#197,#19,.T.);
#264=EDGE_CURVE('',#203,#207,#46,.T.);
#265=EDGE_CURVE('',#210,#199,#47,.T.);
#266=EDGE_CURVE('',#198,#211,#20,.T.);
#267=EDGE_CURVE('',#211,#205,#48,.T.);
#268=EDGE_CURVE('',#208,#210,#49,.T.);
#269=EDGE_CURVE('',#209,#211,#129,.T.);
#270=EDGE_CURVE('',#210,#204,#130,.T.);
#271=EDGE_CURVE('',#200,#212,#131,.T.);
#272=EDGE_CURVE('',#213,#212,#132,.T.);
#273=EDGE_CURVE('',#201,#213,#133,.T.);
#274=EDGE_CURVE('',#193,#213,#134,.T.);
#275=EDGE_CURVE('',#212,#181,#135,.T.);
#276=ORIENTED_EDGE('',*,*,#214,.F.);
#277=ORIENTED_EDGE('',*,*,#215,.F.);
#278=ORIENTED_EDGE('',*,*,#216,.F.);
#279=ORIENTED_EDGE('',*,*,#217,.F.);
#280=ORIENTED_EDGE('',*,*,#218,.F.);
#281=ORIENTED_EDGE('',*,*,#219,.F.);
#282=ORIENTED_EDGE('',*,*,#216,.T.);
#283=ORIENTED_EDGE('',*,*,#220,.F.);
#284=ORIENTED_EDGE('',*,*,#219,.T.);
#285=ORIENTED_EDGE('',*,*,#221,.F.);
#286=ORIENTED_EDGE('',*,*,#222,.F.);
#287=ORIENTED_EDGE('',*,*,#223,.F.);
#288=ORIENTED_EDGE('',*,*,#224,.T.);
#289=ORIENTED_EDGE('',*,*,#225,.T.);
#290=ORIENTED_EDGE('',*,*,#226,.F.);
#291=ORIENTED_EDGE('',*,*,#227,.F.);
#292=ORIENTED_EDGE('',*,*,#228,.F.);
#293=ORIENTED_EDGE('',*,*,#229,.F.);
#294=ORIENTED_EDGE('',*,*,#226,.T.);
#295=ORIENTED_EDGE('',*,*,#230,.F.);
#296=ORIENTED_EDGE('',*,*,#229,.T.);
#297=ORIENTED_EDGE('',*,*,#231,.F.);
#298=ORIENTED_EDGE('',*,*,#232,.F.);
#299=ORIENTED_EDGE('',*,*,#233,.F.);
#300=ORIENTED_EDGE('',*,*,#218,.T.);
#301=ORIENTED_EDGE('',*,*,#234,.T.);
#302=ORIENTED_EDGE('',*,*,#235,.T.);
#303=ORIENTED_EDGE('',*,*,#221,.T.);
#304=ORIENTED_EDGE('',*,*,#220,.T.);
#305=ORIENTED_EDGE('',*,*,#236,.F.);
#306=ORIENTED_EDGE('',*,*,#237,.F.);
#307=ORIENTED_EDGE('',*,*,#234,.F.);
#308=ORIENTED_EDGE('',*,*,#228,.T.);
#309=ORIENTED_EDGE('',*,*,#238,.T.);
#310=ORIENTED_EDGE('',*,*,#239,.T.);
#311=ORIENTED_EDGE('',*,*,#231,.T.);
#312=ORIENTED_EDGE('',*,*,#230,.T.);
#313=ORIENTED_EDGE('',*,*,#240,.T.);
#314=ORIENTED_EDGE('',*,*,#241,.F.);
#315=ORIENTED_EDGE('',*,*,#238,.F.);
#316=ORIENTED_EDGE('',*,*,#242,.T.);
#317=ORIENTED_EDGE('',*,*,#236,.T.);
#318=ORIENTED_EDGE('',*,*,#215,.T.);
#319=ORIENTED_EDGE('',*,*,#243,.T.);
#320=ORIENTED_EDGE('',*,*,#244,.T.);
#321=ORIENTED_EDGE('',*,*,#244,.F.);
#322=ORIENTED_EDGE('',*,*,#245,.F.);
#323=ORIENTED_EDGE('',*,*,#246,.F.);
#324=ORIENTED_EDGE('',*,*,#247,.F.);
#325=ORIENTED_EDGE('',*,*,#248,.F.);
#326=ORIENTED_EDGE('',*,*,#249,.F.);
#327=ORIENTED_EDGE('',*,*,#243,.F.);
#328=ORIENTED_EDGE('',*,*,#214,.T.);
#329=ORIENTED_EDGE('',*,*,#250,.F.);
#330=ORIENTED_EDGE('',*,*,#251,.F.);
#331=ORIENTED_EDGE('',*,*,#252,.F.);
#332=ORIENTED_EDGE('',*,*,#224,.F.);
#333=ORIENTED_EDGE('',*,*,#253,.F.);
#334=ORIENTED_EDGE('',*,*,#254,.T.);
#335=ORIENTED_EDGE('',*,*,#255,.F.);
#336=ORIENTED_EDGE('',*,*,#245,.T.);
#337=ORIENTED_EDGE('',*,*,#253,.T.);
#338=ORIENTED_EDGE('',*,*,#227,.T.);
#339=ORIENTED_EDGE('',*,*,#233,.T.);
#340=ORIENTED_EDGE('',*,*,#256,.T.);
#341=ORIENTED_EDGE('',*,*,#257,.T.);
#342=ORIENTED_EDGE('',*,*,#258,.T.);
#343=ORIENTED_EDGE('',*,*,#259,.T.);
#344=ORIENTED_EDGE('',*,*,#260,.T.);
#345=ORIENTED_EDGE('',*,*,#261,.F.);
#346=ORIENTED_EDGE('',*,*,#262,.T.);
#347=ORIENTED_EDGE('',*,*,#263,.T.);
#348=ORIENTED_EDGE('',*,*,#246,.T.);
#349=ORIENTED_EDGE('',*,*,#255,.T.);
#350=ORIENTED_EDGE('',*,*,#264,.T.);
#351=ORIENTED_EDGE('',*,*,#259,.F.);
#352=ORIENTED_EDGE('',*,*,#265,.T.);
#353=ORIENTED_EDGE('',*,*,#248,.T.);
#354=ORIENTED_EDGE('',*,*,#266,.T.);
#355=ORIENTED_EDGE('',*,*,#267,.T.);
#356=ORIENTED_EDGE('',*,*,#261,.T.);
#357=ORIENTED_EDGE('',*,*,#268,.T.);
#358=ORIENTED_EDGE('',*,*,#269,.T.);
#359=ORIENTED_EDGE('',*,*,#266,.F.);
#360=ORIENTED_EDGE('',*,*,#247,.T.);
#361=ORIENTED_EDGE('',*,*,#263,.F.);
#362=ORIENTED_EDGE('',*,*,#258,.F.);
#363=ORIENTED_EDGE('',*,*,#267,.F.);
#364=ORIENTED_EDGE('',*,*,#269,.F.);
#365=ORIENTED_EDGE('',*,*,#262,.F.);
#366=ORIENTED_EDGE('',*,*,#257,.F.);
#367=ORIENTED_EDGE('',*,*,#270,.F.);
#368=ORIENTED_EDGE('',*,*,#268,.F.);
#369=ORIENTED_EDGE('',*,*,#260,.F.);
#370=ORIENTED_EDGE('',*,*,#264,.F.);
#371=ORIENTED_EDGE('',*,*,#254,.F.);
#372=ORIENTED_EDGE('',*,*,#251,.T.);
#373=ORIENTED_EDGE('',*,*,#271,.T.);
#374=ORIENTED_EDGE('',*,*,#272,.F.);
#375=ORIENTED_EDGE('',*,*,#273,.F.);
#376=ORIENTED_EDGE('',*,*,#252,.T.);
#377=ORIENTED_EDGE('',*,*,#273,.T.);
#378=ORIENTED_EDGE('',*,*,#274,.F.);
#379=ORIENTED_EDGE('',*,*,#240,.F.);
#380=ORIENTED_EDGE('',*,*,#225,.F.);
#381=ORIENTED_EDGE('',*,*,#250,.T.);
#382=ORIENTED_EDGE('',*,*,#217,.T.);
#383=ORIENTED_EDGE('',*,*,#223,.T.);
#384=ORIENTED_EDGE('',*,*,#275,.F.);
#385=ORIENTED_EDGE('',*,*,#271,.F.);
#386=ORIENTED_EDGE('',*,*,#242,.F.);
#387=ORIENTED_EDGE('',*,*,#249,.T.);
#388=ORIENTED_EDGE('',*,*,#265,.F.);
#389=ORIENTED_EDGE('',*,*,#270,.T.);
#390=ORIENTED_EDGE('',*,*,#256,.F.);
#391=ORIENTED_EDGE('',*,*,#232,.T.);
#392=ORIENTED_EDGE('',*,*,#239,.F.);
#393=ORIENTED_EDGE('',*,*,#241,.T.);
#394=ORIENTED_EDGE('',*,*,#274,.T.);
#395=ORIENTED_EDGE('',*,*,#272,.T.);
#396=ORIENTED_EDGE('',*,*,#275,.T.);
#397=ORIENTED_EDGE('',*,*,#222,.T.);
#398=ORIENTED_EDGE('',*,*,#235,.F.);
#399=ORIENTED_EDGE('',*,*,#237,.T.);
#400=PLANE('',#451);
#401=PLANE('',#452);
#402=PLANE('',#455);
#403=PLANE('',#456);
#404=PLANE('',#457);
#405=PLANE('',#468);
#406=PLANE('',#472);
#407=PLANE('',#475);
#408=PLANE('',#490);
#409=PLANE('',#491);
#410=PLANE('',#492);
#411=PLANE('',#493);
#412=PLANE('',#494);
#413=ADVANCED_FACE('',(#50),#400,.T.);
#414=ADVANCED_FACE('',(#51),#401,.F.);
#415=ADVANCED_FACE('',(#52),#402,.T.);
#416=ADVANCED_FACE('',(#53),#403,.T.);
#417=ADVANCED_FACE('',(#54),#404,.F.);
#418=ADVANCED_FACE('',(#55),#21,.T.);
#419=ADVANCED_FACE('',(#56),#22,.F.);
#420=ADVANCED_FACE('',(#57),#23,.T.);
#421=ADVANCED_FACE('',(#58),#24,.F.);
#422=ADVANCED_FACE('',(#59),#405,.T.);
#423=ADVANCED_FACE('',(#60),#25,.T.);
#424=ADVANCED_FACE('',(#61),#406,.F.);
#425=ADVANCED_FACE('',(#62),#407,.F.);
#426=ADVANCED_FACE('',(#63),#26,.T.);
#427=ADVANCED_FACE('',(#64),#27,.T.);
#428=ADVANCED_FACE('',(#65),#15,.T.);
#429=ADVANCED_FACE('',(#66),#16,.T.);
#430=ADVANCED_FACE('',(#67),#28,.T.);
#431=ADVANCED_FACE('',(#68),#29,.F.);
#432=ADVANCED_FACE('',(#69),#408,.F.);
#433=ADVANCED_FACE('',(#70),#409,.T.);
#434=ADVANCED_FACE('',(#71),#410,.T.);
#435=ADVANCED_FACE('',(#72),#411,.T.);
#436=ADVANCED_FACE('',(#73),#412,.T.);
#437=CLOSED_SHELL('',(#413,#414,#415,#416,#417,#418,#419,#420,#421,#422,
#423,#424,#425,#426,#427,#428,#429,#430,#431,#432,#433,#434,#435,#436));
#438=DERIVED_UNIT_ELEMENT(#440,1.);
#439=DERIVED_UNIT_ELEMENT(#807,-3.);
#440=(
MASS_UNIT()
NAMED_UNIT(*)
SI_UNIT(.KILO.,.GRAM.)
);
#441=DERIVED_UNIT((#438,#439));
#442=MEASURE_REPRESENTATION_ITEM('density measure',
POSITIVE_RATIO_MEASURE(7850.),#441);
#443=PROPERTY_DEFINITION_REPRESENTATION(#448,#445);
#444=PROPERTY_DEFINITION_REPRESENTATION(#449,#446);
#445=REPRESENTATION('material name',(#447),#804);
#446=REPRESENTATION('density',(#442),#804);
#447=DESCRIPTIVE_REPRESENTATION_ITEM('Acier','Acier');
#448=PROPERTY_DEFINITION('material property','material name',#814);
#449=PROPERTY_DEFINITION('material property','density of part',#814);
#450=AXIS2_PLACEMENT_3D('',#623,#495,#496);
#451=AXIS2_PLACEMENT_3D('',#624,#497,#498);
#452=AXIS2_PLACEMENT_3D('',#633,#503,#504);
#453=AXIS2_PLACEMENT_3D('',#636,#505,#506);
#454=AXIS2_PLACEMENT_3D('',#638,#508,#509);
#455=AXIS2_PLACEMENT_3D('',#639,#510,#511);
#456=AXIS2_PLACEMENT_3D('',#645,#515,#516);
#457=AXIS2_PLACEMENT_3D('',#654,#521,#522);
#458=AXIS2_PLACEMENT_3D('',#657,#523,#524);
#459=AXIS2_PLACEMENT_3D('',#658,#525,#526);
#460=AXIS2_PLACEMENT_3D('',#660,#528,#529);
#461=AXIS2_PLACEMENT_3D('',#664,#531,#532);
#462=AXIS2_PLACEMENT_3D('',#666,#534,#535);
#463=AXIS2_PLACEMENT_3D('',#669,#537,#538);
#464=AXIS2_PLACEMENT_3D('',#670,#539,#540);
#465=AXIS2_PLACEMENT_3D('',#673,#542,#543);
#466=AXIS2_PLACEMENT_3D('',#674,#544,#545);
#467=AXIS2_PLACEMENT_3D('',#677,#547,#548);
#468=AXIS2_PLACEMENT_3D('',#678,#549,#550);
#469=AXIS2_PLACEMENT_3D('',#682,#553,#554);
#470=AXIS2_PLACEMENT_3D('',#684,#555,#556);
#471=AXIS2_PLACEMENT_3D('',#686,#557,#558);
#472=AXIS2_PLACEMENT_3D('',#688,#560,#561);
#473=AXIS2_PLACEMENT_3D('',#692,#563,#564);
#474=AXIS2_PLACEMENT_3D('',#696,#566,#567);
#475=AXIS2_PLACEMENT_3D('',#698,#569,#570);
#476=AXIS2_PLACEMENT_3D('',#705,#574,#575);
#477=AXIS2_PLACEMENT_3D('',#708,#577,#578);
#478=AXIS2_PLACEMENT_3D('',#709,#579,#580);
#479=AXIS2_PLACEMENT_3D('',#711,#581,#582);
#480=AXIS2_PLACEMENT_3D('',#713,#584,#585);
#481=AXIS2_PLACEMENT_3D('',#748,#588,#589);
#482=AXIS2_PLACEMENT_3D('',#750,#590,#591);
#483=AXIS2_PLACEMENT_3D('',#765,#592,#593);
#484=AXIS2_PLACEMENT_3D('',#766,#594,#595);
#485=AXIS2_PLACEMENT_3D('',#768,#596,#597);
#486=AXIS2_PLACEMENT_3D('',#784,#598,#599);
#487=AXIS2_PLACEMENT_3D('',#785,#600,#601);
#488=AXIS2_PLACEMENT_3D('',#786,#602,#603);
#489=AXIS2_PLACEMENT_3D('',#788,#605,#606);
#490=AXIS2_PLACEMENT_3D('',#789,#607,#608);
#491=AXIS2_PLACEMENT_3D('',#791,#610,#611);
#492=AXIS2_PLACEMENT_3D('',#797,#615,#616);
#493=AXIS2_PLACEMENT_3D('',#799,#618,#619);
#494=AXIS2_PLACEMENT_3D('',#801,#621,#622);
#495=DIRECTION('axis',(0.,0.,1.));
#496=DIRECTION('refdir',(1.,0.,0.));
#497=DIRECTION('center_axis',(-0.818209942319287,0.,0.574919551145958));
#498=DIRECTION('ref_axis',(0.574919551145958,0.,0.818209942319287));
#499=DIRECTION('',(-0.574919551145958,0.,-0.818209942319287));
#500=DIRECTION('',(0.,-1.,0.));
#501=DIRECTION('',(0.574919551145958,0.,0.818209942319287));
#502=DIRECTION('',(0.,1.,0.));
#503=DIRECTION('center_axis',(0.,-1.,0.));
#504=DIRECTION('ref_axis',(1.,0.,0.));
#505=DIRECTION('center_axis',(0.,-1.,0.));
#506=DIRECTION('ref_axis',(0.898717034272917,0.,-0.438529009653515));
#507=DIRECTION('',(1.,0.,0.));
#508=DIRECTION('center_axis',(0.,1.,0.));
#509=DIRECTION('ref_axis',(1.,0.,0.));
#510=DIRECTION('center_axis',(0.,0.,1.));
#511=DIRECTION('ref_axis',(1.,0.,0.));
#512=DIRECTION('',(0.,-1.,0.));
#513=DIRECTION('',(1.,0.,0.));
#514=DIRECTION('',(0.,1.,0.));
#515=DIRECTION('center_axis',(0.818209947715189,0.,0.574919543466655));
#516=DIRECTION('ref_axis',(0.574919543466655,0.,-0.818209947715189));
#517=DIRECTION('',(0.574919543466655,0.,-0.818209947715189));
#518=DIRECTION('',(0.,1.,0.));
#519=DIRECTION('',(0.574919543466655,0.,-0.818209947715189));
#520=DIRECTION('',(0.,1.,0.));
#521=DIRECTION('center_axis',(0.,-1.,0.));
#522=DIRECTION('ref_axis',(1.,0.,0.));
#523=DIRECTION('center_axis',(0.,-1.,0.));
#524=DIRECTION('ref_axis',(-0.898717034272917,0.,-0.438529009653515));
#525=DIRECTION('center_axis',(0.,1.,0.));
#526=DIRECTION('ref_axis',(1.,0.,0.));
#527=DIRECTION('',(1.,0.,0.));
#528=DIRECTION('center_axis',(0.,1.,0.));
#529=DIRECTION('ref_axis',(1.,0.,0.));
#530=DIRECTION('',(0.,-1.,0.));
#531=DIRECTION('center_axis',(0.,1.,0.));
#532=DIRECTION('ref_axis',(1.,0.,0.));
#533=DIRECTION('',(0.,1.,0.));
#534=DIRECTION('center_axis',(0.,1.,0.));
#535=DIRECTION('ref_axis',(0.898717034272917,0.,-0.438529009653515));
#536=DIRECTION('',(0.,1.,0.));
#537=DIRECTION('center_axis',(0.,1.,0.));
#538=DIRECTION('ref_axis',(0.898717034272917,0.,-0.438529009653515));
#539=DIRECTION('center_axis',(0.,1.,0.));
#540=DIRECTION('ref_axis',(-0.987565979596727,0.,-0.157205076073125));
#541=DIRECTION('',(0.,-1.,0.));
#542=DIRECTION('center_axis',(0.,1.,0.));
#543=DIRECTION('ref_axis',(1.,0.,0.));
#544=DIRECTION('center_axis',(0.,1.,0.));
#545=DIRECTION('ref_axis',(-0.898717034272917,0.,-0.438529009653515));
#546=DIRECTION('',(0.,1.,0.));
#547=DIRECTION('center_axis',(0.,1.,0.));
#548=DIRECTION('ref_axis',(-0.898717034272917,0.,-0.438529009653515));
#549=DIRECTION('center_axis',(0.,0.,1.));
#550=DIRECTION('ref_axis',(1.,0.,0.));
#551=DIRECTION('',(0.,1.,0.));
#552=DIRECTION('',(1.,0.,0.));
#553=DIRECTION('center_axis',(0.,1.,0.));
#554=DIRECTION('ref_axis',(-0.402664211467164,0.,0.915347766044975));
#555=DIRECTION('center_axis',(0.,-1.,0.));
#556=DIRECTION('ref_axis',(-0.402664211467164,0.,0.915347766044975));
#557=DIRECTION('center_axis',(0.,1.,0.));
#558=DIRECTION('ref_axis',(-0.402664211467164,0.,0.915347766044975));
#559=DIRECTION('',(0.,1.,0.));
#560=DIRECTION('center_axis',(-0.384615384615385,0.,-0.923076923076923));
#561=DIRECTION('ref_axis',(-0.923076923076923,0.,0.384615384615385));
#562=DIRECTION('',(-0.923076923076923,0.,0.384615384615385));
#563=DIRECTION('center_axis',(-0.384615384615385,0.,-0.923076923076923));
#564=DIRECTION('ref_axis',(-0.923076923076923,0.,0.384615384615385));
#565=DIRECTION('',(0.,-1.,0.));
#566=DIRECTION('center_axis',(-0.384615384615385,0.,-0.923076923076923));
#567=DIRECTION('ref_axis',(-0.923076923076923,0.,0.384615384615385));
#568=DIRECTION('',(0.923076923076923,0.,-0.384615384615385));
#569=DIRECTION('center_axis',(0.,1.,0.));
#570=DIRECTION('ref_axis',(1.,0.,0.));
#571=DIRECTION('',(0.,0.,1.));
#572=DIRECTION('',(-1.,0.,0.));
#573=DIRECTION('',(0.,0.,-1.));
#574=DIRECTION('center_axis',(0.,1.,0.));
#575=DIRECTION('ref_axis',(0.402664186457584,0.,0.915347777046764));
#576=DIRECTION('',(-0.923076923076923,0.,-0.384615384615385));
#577=DIRECTION('center_axis',(0.,-1.,0.));
#578=DIRECTION('ref_axis',(3.5820099109074E-8,0.,-0.999999999999999));
#579=DIRECTION('center_axis',(0.,-1.,0.));
#580=DIRECTION('ref_axis',(0.402664186457584,0.,0.915347777046764));
#581=DIRECTION('center_axis',(0.,-1.,0.));
#582=DIRECTION('ref_axis',(0.402664186457584,0.,0.915347777046764));
#583=DIRECTION('',(0.,-1.,0.));
#584=DIRECTION('center_axis',(0.,1.,0.));
#585=DIRECTION('ref_axis',(-0.913074349733158,0.,0.407793123850036));
#586=DIRECTION('',(0.,-1.,0.));
#587=DIRECTION('',(0.,1.,0.));
#588=DIRECTION('center_axis',(0.,-1.,0.));
#589=DIRECTION('ref_axis',(0.,0.,-1.));
#590=DIRECTION('center_axis',(0.,1.,0.));
#591=DIRECTION('ref_axis',(3.5820099109074E-8,0.,-0.999999999999999));
#592=DIRECTION('center_axis',(0.384615384615385,0.,-0.923076923076923));
#593=DIRECTION('ref_axis',(0.923076923076923,0.,0.384615384615385));
#594=DIRECTION('center_axis',(0.,-1.,0.));
#595=DIRECTION('ref_axis',(0.,0.,-1.));
#596=DIRECTION('center_axis',(0.,1.,0.));
#597=DIRECTION('ref_axis',(3.5820099109074E-8,0.,-0.999999999999999));
#598=DIRECTION('center_axis',(0.,-1.,0.));
#599=DIRECTION('ref_axis',(3.5820099109074E-8,0.,-0.999999999999999));
#600=DIRECTION('center_axis',(0.384615384615385,0.,-0.923076923076923));
#601=DIRECTION('ref_axis',(0.923076923076923,0.,0.384615384615385));
#602=DIRECTION('center_axis',(0.,-1.,0.));
#603=DIRECTION('ref_axis',(0.913074335961367,0.,0.407793154685938));
#604=DIRECTION('',(0.,1.,0.));
#605=DIRECTION('center_axis',(0.,1.,0.));
#606=DIRECTION('ref_axis',(3.37715129807328E-8,0.,-0.999999999999999));
#607=DIRECTION('center_axis',(0.384615384615385,0.,-0.923076923076923));
#608=DIRECTION('ref_axis',(-0.923076923076923,0.,-0.384615384615385));
#609=DIRECTION('',(0.923076923076923,0.,0.384615384615385));
#610=DIRECTION('center_axis',(0.,0.,-1.));
#611=DIRECTION('ref_axis',(-1.,0.,0.));
#612=DIRECTION('',(0.,1.,0.));
#613=DIRECTION('',(-1.,0.,0.));
#614=DIRECTION('',(0.,1.,0.));
#615=DIRECTION('center_axis',(1.,0.,0.));
#616=DIRECTION('ref_axis',(0.,0.,-1.));
#617=DIRECTION('',(0.,0.,-1.));
#618=DIRECTION('center_axis',(-1.,0.,0.));
#619=DIRECTION('ref_axis',(0.,0.,1.));
#620=DIRECTION('',(0.,0.,1.));
#621=DIRECTION('center_axis',(0.,1.,0.));
#622=DIRECTION('ref_axis',(1.,0.,0.));
#623=CARTESIAN_POINT('',(0.,0.,0.));
#624=CARTESIAN_POINT('Origin',(-70.,0.,-10.));
#625=CARTESIAN_POINT('',(-60.3437926328177,0.,3.74245293480986));
#626=CARTESIAN_POINT('',(-70.,0.,-10.));
#627=CARTESIAN_POINT('',(-60.3437926328177,0.,3.74245293480986));
#628=CARTESIAN_POINT('',(-60.3437926328177,0.2,3.74245293480986));
#629=CARTESIAN_POINT('',(-60.3437926328177,0.,3.74245293480986));
#630=CARTESIAN_POINT('',(-70.,0.2,-10.));
#631=CARTESIAN_POINT('',(-60.3437926328177,0.2,3.74245293480986));
#632=CARTESIAN_POINT('',(-70.,0.,-10.));
#633=CARTESIAN_POINT('Origin',(-64.1234753829798,0.2,-3.12877353259507));
#634=CARTESIAN_POINT('',(-60.2469507659596,0.2,-10.));
#635=CARTESIAN_POINT('',(-58.6704968019658,0.2,-6.76923076923077));
#636=CARTESIAN_POINT('Origin',(-60.2469507659596,0.2,-8.));
#637=CARTESIAN_POINT('',(-67.0617376914899,0.2,-10.));
#638=CARTESIAN_POINT('Origin',(-50.,0.2,0.));
#639=CARTESIAN_POINT('Origin',(-70.,0.,-10.));
#640=CARTESIAN_POINT('',(-60.2469507659596,40.,-10.));
#641=CARTESIAN_POINT('',(-60.2469507659596,0.,-10.));
#642=CARTESIAN_POINT('',(-70.,40.,-10.));
#643=CARTESIAN_POINT('',(-70.,40.,-10.));
#644=CARTESIAN_POINT('',(-70.,0.,-10.));
#645=CARTESIAN_POINT('Origin',(-39.6562075716887,0.,3.7424535000464));
#646=CARTESIAN_POINT('',(-39.6562075716887,0.,3.7424535000464));
#647=CARTESIAN_POINT('',(-30.,0.,-10.));
#648=CARTESIAN_POINT('',(-39.6562075716887,0.,3.7424535000464));
#649=CARTESIAN_POINT('',(-30.,0.2,-10.));
#650=CARTESIAN_POINT('',(-30.,0.,-10.));
#651=CARTESIAN_POINT('',(-39.6562075716887,0.2,3.7424535000464));
#652=CARTESIAN_POINT('',(-39.6562075716887,0.2,3.7424535000464));
#653=CARTESIAN_POINT('',(-39.6562075716887,0.,3.74245350004639));
#654=CARTESIAN_POINT('Origin',(-35.8765246170202,0.2,-3.1287732499768));
#655=CARTESIAN_POINT('',(-41.3295031980342,0.2,-6.76923076923076));
#656=CARTESIAN_POINT('',(-39.7530492340404,0.2,-10.));
#657=CARTESIAN_POINT('Origin',(-39.7530492340404,0.2,-8.));
#658=CARTESIAN_POINT('Origin',(-50.,0.2,0.));
#659=CARTESIAN_POINT('',(-40.6469744610322,0.2,-10.));
#660=CARTESIAN_POINT('Origin',(-50.,0.,0.));
#661=CARTESIAN_POINT('',(-41.3295031980342,40.,-6.76923076923077));
#662=CARTESIAN_POINT('',(-41.3295031980342,0.,-6.76923076923077));
#663=CARTESIAN_POINT('',(-39.6562075716887,40.,3.7424535000464));
#664=CARTESIAN_POINT('Origin',(-50.,40.,0.));
#665=CARTESIAN_POINT('',(-39.6562075716887,0.,3.74245350004639));
#666=CARTESIAN_POINT('Origin',(-60.2469507659596,0.,-8.));
#667=CARTESIAN_POINT('',(-58.6704968019658,40.,-6.76923076923077));
#668=CARTESIAN_POINT('',(-58.6704968019658,0.,-6.76923076923077));
#669=CARTESIAN_POINT('Origin',(-60.2469507659596,40.,-8.));
#670=CARTESIAN_POINT('Origin',(-50.,0.,0.));
#671=CARTESIAN_POINT('',(-60.3437926328177,40.,3.74245293480986));
#672=CARTESIAN_POINT('',(-60.3437926328177,0.,3.74245293480986));
#673=CARTESIAN_POINT('Origin',(-50.,40.,0.));
#674=CARTESIAN_POINT('Origin',(-39.7530492340404,0.,-8.));
#675=CARTESIAN_POINT('',(-39.7530492340404,40.,-10.));
#676=CARTESIAN_POINT('',(-39.7530492340404,0.,-10.));
#677=CARTESIAN_POINT('Origin',(-39.7530492340404,40.,-8.));
#678=CARTESIAN_POINT('Origin',(-45.4174243050442,0.,-10.));
#679=CARTESIAN_POINT('',(-30.,40.,-10.));
#680=CARTESIAN_POINT('',(-30.,0.,-10.));
#681=CARTESIAN_POINT('',(-70.,40.,-10.));
#682=CARTESIAN_POINT('Origin',(-59.8736202404169,0.,3.57234143777305));
#683=CARTESIAN_POINT('',(-59.6813125481092,40.,4.03387989931152));
#684=CARTESIAN_POINT('Origin',(-59.8736202404169,40.,3.57234143777305));
#685=CARTESIAN_POINT('',(-59.6813125481092,0.,4.03387989931152));
#686=CARTESIAN_POINT('Origin',(-59.8736202404169,0.,3.57234143777305));
#687=CARTESIAN_POINT('',(-59.6813125481092,0.,4.03387989931151));
#688=CARTESIAN_POINT('Origin',(-57.384615501444,0.,3.07692279653436));
#689=CARTESIAN_POINT('',(-57.8461539629825,0.,3.26923048884206));
#690=CARTESIAN_POINT('',(-53.5147930162369,0.,1.4644967610314));
#691=CARTESIAN_POINT('',(-57.8325675226806,0.000216685423772706,3.26356947204962));
#692=CARTESIAN_POINT('Origin',(-57.8461538461538,0.5,3.26923076923077));
#693=CARTESIAN_POINT('',(-57.8325675226806,39.9997833145762,3.26356947204962));
#694=CARTESIAN_POINT('',(-57.8325675226806,0.,3.26356947204962));
#695=CARTESIAN_POINT('',(-57.8461539629825,40.,3.26923048884206));
#696=CARTESIAN_POINT('Origin',(-57.8461538461538,39.5,3.26923076923077));
#697=CARTESIAN_POINT('',(-53.5147930162369,40.,1.4644967610314));
#698=CARTESIAN_POINT('Origin',(-50.,0.,-1.));
#699=CARTESIAN_POINT('',(-70.,0.,-13.));
#700=CARTESIAN_POINT('',(-70.,0.,-13.));
#701=CARTESIAN_POINT('',(-30.,0.,-13.));
#702=CARTESIAN_POINT('',(-30.,0.,-13.));
#703=CARTESIAN_POINT('',(-30.,0.,-10.));
#704=CARTESIAN_POINT('',(-40.3186876471014,0.,4.03388043885547));
#705=CARTESIAN_POINT('Origin',(-40.1263799547937,0.,3.57234197731701));
#706=CARTESIAN_POINT('',(-42.1538462574489,0.,3.26923101787736));
#707=CARTESIAN_POINT('',(-45.1005918195791,0.,2.04142036698979));
#708=CARTESIAN_POINT('Origin',(-50.,0.,0.));
#709=CARTESIAN_POINT('Origin',(-40.1263799547937,0.,3.57234197731701));
#710=CARTESIAN_POINT('',(-40.3186876471014,40.,4.03388043885547));
#711=CARTESIAN_POINT('Origin',(-40.1263799547937,40.,3.57234197731701));
#712=CARTESIAN_POINT('',(-40.3186876471014,0.,4.03388043885548));
#713=CARTESIAN_POINT('Origin',(-41.9751249742693,0.,2.8020315525355));
#714=CARTESIAN_POINT('',(-42.4471764463712,39.5,2.63720616709224));
#715=CARTESIAN_POINT('',(-42.4471764463712,0.5,2.63720616709224));
#716=CARTESIAN_POINT('',(-42.4471764463712,0.,2.63720616709224));
#717=CARTESIAN_POINT('',(-42.167432666577,0.00021668442920092,3.26357001407397));
#718=CARTESIAN_POINT('Ctrl Pts',(-42.4471764463711,0.5,2.63720616709224));
#719=CARTESIAN_POINT('Ctrl Pts',(-42.4475129344193,0.498947844289514,2.63816985164871));
#720=CARTESIAN_POINT('Ctrl Pts',(-42.4478464724444,0.497895685470699,2.63913456945308));
#721=CARTESIAN_POINT('Ctrl Pts',(-42.463587921553,0.447795469927557,2.68512029159606));
#722=CARTESIAN_POINT('Ctrl Pts',(-42.4726805489538,0.398449574557785,2.73265729430359));
#723=CARTESIAN_POINT('Ctrl Pts',(-42.4766290341415,0.30471904938252,2.82800117498811));
#724=CARTESIAN_POINT('Ctrl Pts',(-42.472083977262,0.259593723672647,2.87634851251925));
#725=CARTESIAN_POINT('Ctrl Pts',(-42.446039761651,0.169853937582923,2.97923007690641));
#726=CARTESIAN_POINT('Ctrl Pts',(-42.4222253249694,0.125237684596074,3.03469799824614));
#727=CARTESIAN_POINT('Ctrl Pts',(-42.3593051674877,0.0614294224273036,3.1254648127192));
#728=CARTESIAN_POINT('Ctrl Pts',(-42.3258506418565,0.0387393095597802,3.16213168624529));
#729=CARTESIAN_POINT('Ctrl Pts',(-42.2500869521278,0.0094958159208597,3.22203619781157));
#730=CARTESIAN_POINT('Ctrl Pts',(-42.210593091603,0.00159368100358549,3.24558650364648));
#731=CARTESIAN_POINT('Ctrl Pts',(-42.167432666577,0.00021668442920092,3.26357001407397));
#732=CARTESIAN_POINT('',(-42.167432666577,39.9997833155708,3.26357001407397));
#733=CARTESIAN_POINT('',(-42.167432666577,0.,3.26357001407397));
#734=CARTESIAN_POINT('Ctrl Pts',(-42.4471764463711,39.5,2.63720616709224));
#735=CARTESIAN_POINT('Ctrl Pts',(-42.4475129344193,39.5010521557105,2.63816985164871));
#736=CARTESIAN_POINT('Ctrl Pts',(-42.4478464724444,39.5021043145293,2.63913456945308));
#737=CARTESIAN_POINT('Ctrl Pts',(-42.463587921553,39.5522045300724,2.68512029159603));
#738=CARTESIAN_POINT('Ctrl Pts',(-42.4726805489538,39.6015504254422,2.73265729430358));
#739=CARTESIAN_POINT('Ctrl Pts',(-42.4766290341415,39.6952809506175,2.82800117498811));
#740=CARTESIAN_POINT('Ctrl Pts',(-42.472083977262,39.7404062763274,2.87634851251925));
#741=CARTESIAN_POINT('Ctrl Pts',(-42.446039761651,39.8301460624171,2.9792300769064));
#742=CARTESIAN_POINT('Ctrl Pts',(-42.4222253249694,39.8747623154039,3.03469799824614));
#743=CARTESIAN_POINT('Ctrl Pts',(-42.3593051674877,39.9385705775727,3.1254648127192));
#744=CARTESIAN_POINT('Ctrl Pts',(-42.3258506418565,39.9612606904402,3.16213168624529));
#745=CARTESIAN_POINT('Ctrl Pts',(-42.2500869521278,39.9905041840791,3.22203619781157));
#746=CARTESIAN_POINT('Ctrl Pts',(-42.210593091603,39.9984063189964,3.24558650364648));
#747=CARTESIAN_POINT('Ctrl Pts',(-42.167432666577,39.9997833155708,3.26357001407397));
#748=CARTESIAN_POINT('Origin',(-50.,0.5,0.));
#749=CARTESIAN_POINT('',(-57.5528237317537,0.5,2.63720565695167));
#750=CARTESIAN_POINT('Origin',(-50.,0.5,0.));
#751=CARTESIAN_POINT('Ctrl Pts',(-57.5528237317537,0.5,2.63720565695167));
#752=CARTESIAN_POINT('Ctrl Pts',(-57.5524872437707,0.498947844289594,2.6381693415308));
#753=CARTESIAN_POINT('Ctrl Pts',(-57.5521537058107,0.497895685470654,2.63913405935785));
#754=CARTESIAN_POINT('Ctrl Pts',(-57.5364122623758,0.447795478099237,2.68511977506296));
#755=CARTESIAN_POINT('Ctrl Pts',(-57.5273196386654,0.398449591055974,2.73265676999444));
#756=CARTESIAN_POINT('Ctrl Pts',(-57.5233711559087,0.304719080071195,2.82800063476608));
#757=CARTESIAN_POINT('Ctrl Pts',(-57.5279162119233,0.259593760621831,2.87634796392743));
#758=CARTESIAN_POINT('Ctrl Pts',(-57.5539604229294,0.169853973085194,2.97922952348006));
#759=CARTESIAN_POINT('Ctrl Pts',(-57.5777748597911,0.125237713501596,3.03469744857743));
#760=CARTESIAN_POINT('Ctrl Pts',(-57.6406950191831,0.0614294409891968,3.12546426781842));
#761=CARTESIAN_POINT('Ctrl Pts',(-57.6741495457114,0.0387393238773782,3.16213114286762));
#762=CARTESIAN_POINT('Ctrl Pts',(-57.7499132367645,0.00949582330951302,
3.22203565551332));
#763=CARTESIAN_POINT('Ctrl Pts',(-57.7894070972726,0.00159368517257407,
3.24558596146294));
#764=CARTESIAN_POINT('Ctrl Pts',(-57.8325675226806,0.000216685423772706,
3.26356947204962));
#765=CARTESIAN_POINT('Origin',(-42.1538461538462,0.5,3.26923076923077));
#766=CARTESIAN_POINT('Origin',(-50.,39.5,0.));
#767=CARTESIAN_POINT('',(-42.1538462574489,40.,3.26923101787736));
#768=CARTESIAN_POINT('Origin',(-50.,40.,0.));
#769=CARTESIAN_POINT('',(-57.5528237317537,39.5,2.63720565695168));
#770=CARTESIAN_POINT('Ctrl Pts',(-57.8325675226806,39.9997833145762,3.26356947204962));
#771=CARTESIAN_POINT('Ctrl Pts',(-57.7894070972726,39.9984063148274,3.24558596146294));
#772=CARTESIAN_POINT('Ctrl Pts',(-57.7499132367645,39.9905041766905,3.22203565551333));
#773=CARTESIAN_POINT('Ctrl Pts',(-57.6741495457114,39.9612606761226,3.16213114286761));
#774=CARTESIAN_POINT('Ctrl Pts',(-57.6406950191831,39.9385705590108,3.12546426781842));
#775=CARTESIAN_POINT('Ctrl Pts',(-57.5777748597911,39.8747622864984,3.03469744857743));
#776=CARTESIAN_POINT('Ctrl Pts',(-57.5539604229294,39.8301460269148,2.97922952348006));
#777=CARTESIAN_POINT('Ctrl Pts',(-57.5279162119233,39.7404062393782,2.87634796392745));
#778=CARTESIAN_POINT('Ctrl Pts',(-57.5233711559087,39.6952809199288,2.82800063476609));
#779=CARTESIAN_POINT('Ctrl Pts',(-57.5273196386654,39.601550408944,2.73265676999443));
#780=CARTESIAN_POINT('Ctrl Pts',(-57.5364122623758,39.5522045219008,2.68511977506296));
#781=CARTESIAN_POINT('Ctrl Pts',(-57.5521537058107,39.5021043145293,2.63913405935785));
#782=CARTESIAN_POINT('Ctrl Pts',(-57.5524872437707,39.5010521557104,2.6381693415308));
#783=CARTESIAN_POINT('Ctrl Pts',(-57.5528237317537,39.5,2.63720565695167));
#784=CARTESIAN_POINT('Origin',(-50.,39.5,0.));
#785=CARTESIAN_POINT('Origin',(-42.1538461538462,39.5,3.26923076923077));
#786=CARTESIAN_POINT('Origin',(-58.0248752149883,0.,2.80203101051115));
#787=CARTESIAN_POINT('',(-57.5528237317537,0.,2.63720565695167));
#788=CARTESIAN_POINT('Origin',(-50.,0.,0.));
#789=CARTESIAN_POINT('Origin',(-39.8461539497566,0.,4.23076947941582));
#790=CARTESIAN_POINT('',(-45.1005918195791,40.,2.04142036698979));
#791=CARTESIAN_POINT('Origin',(-30.,0.,-13.));
#792=CARTESIAN_POINT('',(-70.,40.,-13.));
#793=CARTESIAN_POINT('',(-70.,0.,-13.));
#794=CARTESIAN_POINT('',(-30.,40.,-13.));
#795=CARTESIAN_POINT('',(-30.,40.,-13.));
#796=CARTESIAN_POINT('',(-30.,0.,-13.));
#797=CARTESIAN_POINT('Origin',(-30.,0.,-10.));
#798=CARTESIAN_POINT('',(-30.,40.,-10.));
#799=CARTESIAN_POINT('Origin',(-70.,0.,-13.));
#800=CARTESIAN_POINT('',(-70.,40.,-13.));
#801=CARTESIAN_POINT('Origin',(-50.,40.,-1.));
#802=UNCERTAINTY_MEASURE_WITH_UNIT(LENGTH_MEASURE(0.01),#806,
'DISTANCE_ACCURACY_VALUE',
'Maximum model space distance between geometric entities at asserted c
onnectivities');
#803=UNCERTAINTY_MEASURE_WITH_UNIT(LENGTH_MEASURE(0.01),#806,
'DISTANCE_ACCURACY_VALUE',
'Maximum model space distance between geometric entities at asserted c
onnectivities');
#804=(
GEOMETRIC_REPRESENTATION_CONTEXT(3)
GLOBAL_UNCERTAINTY_ASSIGNED_CONTEXT((#802))
GLOBAL_UNIT_ASSIGNED_CONTEXT((#806,#808,#809))
REPRESENTATION_CONTEXT('','3D')
);
#805=(
GEOMETRIC_REPRESENTATION_CONTEXT(3)
GLOBAL_UNCERTAINTY_ASSIGNED_CONTEXT((#803))
GLOBAL_UNIT_ASSIGNED_CONTEXT((#806,#808,#809))
REPRESENTATION_CONTEXT('','3D')
);
#806=(
LENGTH_UNIT()
NAMED_UNIT(*)
SI_UNIT(.MILLI.,.METRE.)
);
#807=(
LENGTH_UNIT()
NAMED_UNIT(*)
SI_UNIT($,.METRE.)
);
#808=(
NAMED_UNIT(*)
PLANE_ANGLE_UNIT()
SI_UNIT($,.RADIAN.)
);
#809=(
NAMED_UNIT(*)
SI_UNIT($,.STERADIAN.)
SOLID_ANGLE_UNIT()
);
#810=SHAPE_DEFINITION_REPRESENTATION(#811,#812);
#811=PRODUCT_DEFINITION_SHAPE('',$,#814);
#812=SHAPE_REPRESENTATION('',(#450),#804);
#813=PRODUCT_DEFINITION_CONTEXT('part definition',#818,'design');
#814=PRODUCT_DEFINITION('agraphe_gaine_16','agraphe_gaine_16 v1',#815,#813);
#815=PRODUCT_DEFINITION_FORMATION('',$,#820);
#816=PRODUCT_RELATED_PRODUCT_CATEGORY('agraphe_gaine_16 v1',
'agraphe_gaine_16 v1',(#820));
#817=APPLICATION_PROTOCOL_DEFINITION('international standard',
'automotive_design',2009,#818);
#818=APPLICATION_CONTEXT(
'Core Data for Automotive Mechanical Design Process');
#819=PRODUCT_CONTEXT('part definition',#818,'mechanical');
#820=PRODUCT('agraphe_gaine_16','agraphe_gaine_16 v1',$,(#819));
#821=PRESENTATION_STYLE_ASSIGNMENT((#822));
#822=SURFACE_STYLE_USAGE(.BOTH.,#823);
#823=SURFACE_SIDE_STYLE('',(#824));
#824=SURFACE_STYLE_FILL_AREA(#825);
#825=FILL_AREA_STYLE('Acier - Satin\X\E9',(#826));
#826=FILL_AREA_STYLE_COLOUR('Acier - Satin\X\E9',#827);
#827=COLOUR_RGB('Acier - Satin\X\E9',0.627450980392157,0.627450980392157,
0.627450980392157);
ENDSEC;
END-ISO-10303-21;
