ISO-10303-21;
HEADER;
/* Generated by software containing ST-Developer
 * from STEP Tools, Inc. (www.steptools.com) 
 */

FILE_DESCRIPTION(
/* description */ (''),
/* implementation_level */ '2;1');

FILE_NAME(
/* name */ 'agraphe_gaine_lectrique.step',
/* time_stamp */ '2025-10-02T21:10:34+02:00',
/* author */ (''),
/* organization */ (''),
/* preprocessor_version */ 'ST-DEVELOPER v20.1',
/* originating_system */ 'Autodesk Translation Framework v14.17.0.0',
/* authorisation */ '');

FILE_SCHEMA (('AUTOMOTIVE_DESIGN { 1 0 10303 214 3 1 1 }'));
ENDSEC;

DATA;
#10=MECHANICAL_DESIGN_GEOMETRIC_PRESENTATION_REPRESENTATION('',(#13),#665);
#11=SHAPE_REPRESENTATION_RELATIONSHIP('SRR','None',#672,#12);
#12=ADVANCED_BREP_SHAPE_REPRESENTATION('',(#14),#664);
#13=STYLED_ITEM('',(#681),#14);
#14=MANIFOLD_SOLID_BREP('Corps1',#389);
#15=FACE_BOUND('',#56,.T.);
#16=FACE_BOUND('',#68,.T.);
#17=PLANE('',#406);
#18=PLANE('',#412);
#19=PLANE('',#421);
#20=PLANE('',#424);
#21=PLANE('',#427);
#22=PLANE('',#430);
#23=PLANE('',#433);
#24=PLANE('',#434);
#25=PLANE('',#435);
#26=PLANE('',#436);
#27=PLANE('',#437);
#28=PLANE('',#438);
#29=FACE_OUTER_BOUND('',#49,.T.);
#30=FACE_OUTER_BOUND('',#50,.T.);
#31=FACE_OUTER_BOUND('',#51,.T.);
#32=FACE_OUTER_BOUND('',#52,.T.);
#33=FACE_OUTER_BOUND('',#53,.T.);
#34=FACE_OUTER_BOUND('',#54,.T.);
#35=FACE_OUTER_BOUND('',#55,.T.);
#36=FACE_OUTER_BOUND('',#57,.T.);
#37=FACE_OUTER_BOUND('',#58,.T.);
#38=FACE_OUTER_BOUND('',#59,.T.);
#39=FACE_OUTER_BOUND('',#60,.T.);
#40=FACE_OUTER_BOUND('',#61,.T.);
#41=FACE_OUTER_BOUND('',#62,.T.);
#42=FACE_OUTER_BOUND('',#63,.T.);
#43=FACE_OUTER_BOUND('',#64,.T.);
#44=FACE_OUTER_BOUND('',#65,.T.);
#45=FACE_OUTER_BOUND('',#66,.T.);
#46=FACE_OUTER_BOUND('',#67,.T.);
#47=FACE_OUTER_BOUND('',#69,.T.);
#48=FACE_OUTER_BOUND('',#70,.T.);
#49=EDGE_LOOP('',(#253,#254,#255,#256));
#50=EDGE_LOOP('',(#257,#258,#259,#260,#261,#262));
#51=EDGE_LOOP('',(#263,#264,#265,#266));
#52=EDGE_LOOP('',(#267,#268,#269,#270,#271,#272));
#53=EDGE_LOOP('',(#273,#274,#275,#276));
#54=EDGE_LOOP('',(#277,#278,#279,#280));
#55=EDGE_LOOP('',(#281,#282,#283,#284));
#56=EDGE_LOOP('',(#285));
#57=EDGE_LOOP('',(#286,#287,#288,#289));
#58=EDGE_LOOP('',(#290,#291,#292,#293,#294,#295,#296,#297,#298,#299));
#59=EDGE_LOOP('',(#300,#301,#302,#303));
#60=EDGE_LOOP('',(#304,#305,#306,#307));
#61=EDGE_LOOP('',(#308,#309,#310,#311));
#62=EDGE_LOOP('',(#312,#313,#314,#315,#316,#317,#318,#319,#320,#321));
#63=EDGE_LOOP('',(#322,#323,#324,#325));
#64=EDGE_LOOP('',(#326,#327,#328,#329));
#65=EDGE_LOOP('',(#330,#331,#332,#333));
#66=EDGE_LOOP('',(#334,#335,#336,#337,#338,#339,#340,#341,#342));
#67=EDGE_LOOP('',(#343,#344,#345,#346));
#68=EDGE_LOOP('',(#347));
#69=EDGE_LOOP('',(#348,#349,#350,#351,#352,#353,#354,#355,#356));
#70=EDGE_LOOP('',(#357,#358,#359,#360));
#71=LINE('',#557,#109);
#72=LINE('',#560,#110);
#73=LINE('',#563,#111);
#74=LINE('',#567,#112);
#75=LINE('',#570,#113);
#76=LINE('',#576,#114);
#77=LINE('',#579,#115);
#78=LINE('',#582,#116);
#79=LINE('',#586,#117);
#80=LINE('',#589,#118);
#81=LINE('',#594,#119);
#82=LINE('',#601,#120);
#83=LINE('',#604,#121);
#84=LINE('',#607,#122);
#85=LINE('',#609,#123);
#86=LINE('',#610,#124);
#87=LINE('',#615,#125);
#88=LINE('',#616,#126);
#89=LINE('',#618,#127);
#90=LINE('',#620,#128);
#91=LINE('',#621,#129);
#92=LINE('',#622,#130);
#93=LINE('',#626,#131);
#94=LINE('',#629,#132);
#95=LINE('',#630,#133);
#96=LINE('',#635,#134);
#97=LINE('',#636,#135);
#98=LINE('',#639,#136);
#99=LINE('',#641,#137);
#100=LINE('',#643,#138);
#101=LINE('',#644,#139);
#102=LINE('',#645,#140);
#103=LINE('',#649,#141);
#104=LINE('',#652,#142);
#105=LINE('',#654,#143);
#106=LINE('',#655,#144);
#107=LINE('',#657,#145);
#108=LINE('',#660,#146);
#109=VECTOR('',#445,10.);
#110=VECTOR('',#448,10.);
#111=VECTOR('',#451,10.);
#112=VECTOR('',#454,10.);
#113=VECTOR('',#457,10.);
#114=VECTOR('',#462,10.);
#115=VECTOR('',#465,10.);
#116=VECTOR('',#468,10.);
#117=VECTOR('',#471,10.);
#118=VECTOR('',#474,10.);
#119=VECTOR('',#479,6.00000000000001);
#120=VECTOR('',#486,10.);
#121=VECTOR('',#489,10.);
#122=VECTOR('',#492,10.);
#123=VECTOR('',#493,10.);
#124=VECTOR('',#494,10.);
#125=VECTOR('',#499,10.);
#126=VECTOR('',#500,10.);
#127=VECTOR('',#503,10.);
#128=VECTOR('',#504,10.);
#129=VECTOR('',#505,10.);
#130=VECTOR('',#506,10.);
#131=VECTOR('',#511,10.);
#132=VECTOR('',#514,10.);
#133=VECTOR('',#515,10.);
#134=VECTOR('',#520,10.);
#135=VECTOR('',#521,10.);
#136=VECTOR('',#524,10.);
#137=VECTOR('',#525,10.);
#138=VECTOR('',#526,10.);
#139=VECTOR('',#527,10.);
#140=VECTOR('',#528,10.);
#141=VECTOR('',#535,10.);
#142=VECTOR('',#538,10.);
#143=VECTOR('',#539,10.);
#144=VECTOR('',#540,10.);
#145=VECTOR('',#543,10.);
#146=VECTOR('',#548,10.);
#147=CIRCLE('',#404,5.);
#148=CIRCLE('',#405,5.);
#149=CIRCLE('',#407,10.);
#150=CIRCLE('',#408,10.);
#151=CIRCLE('',#410,5.);
#152=CIRCLE('',#411,5.);
#153=CIRCLE('',#413,10.);
#154=CIRCLE('',#414,10.);
#155=CIRCLE('',#416,6.00000000000001);
#156=CIRCLE('',#417,6.00000000000001);
#157=CIRCLE('',#419,10.);
#158=CIRCLE('',#420,10.);
#159=CIRCLE('',#423,10.);
#160=CIRCLE('',#426,10.);
#161=CIRCLE('',#429,10.);
#162=CIRCLE('',#432,10.);
#163=VERTEX_POINT('',#553);
#164=VERTEX_POINT('',#554);
#165=VERTEX_POINT('',#556);
#166=VERTEX_POINT('',#558);
#167=VERTEX_POINT('',#562);
#168=VERTEX_POINT('',#564);
#169=VERTEX_POINT('',#566);
#170=VERTEX_POINT('',#568);
#171=VERTEX_POINT('',#572);
#172=VERTEX_POINT('',#573);
#173=VERTEX_POINT('',#575);
#174=VERTEX_POINT('',#577);
#175=VERTEX_POINT('',#581);
#176=VERTEX_POINT('',#583);
#177=VERTEX_POINT('',#585);
#178=VERTEX_POINT('',#587);
#179=VERTEX_POINT('',#591);
#180=VERTEX_POINT('',#593);
#181=VERTEX_POINT('',#597);
#182=VERTEX_POINT('',#598);
#183=VERTEX_POINT('',#600);
#184=VERTEX_POINT('',#602);
#185=VERTEX_POINT('',#606);
#186=VERTEX_POINT('',#608);
#187=VERTEX_POINT('',#612);
#188=VERTEX_POINT('',#613);
#189=VERTEX_POINT('',#619);
#190=VERTEX_POINT('',#624);
#191=VERTEX_POINT('',#628);
#192=VERTEX_POINT('',#632);
#193=VERTEX_POINT('',#633);
#194=VERTEX_POINT('',#638);
#195=VERTEX_POINT('',#640);
#196=VERTEX_POINT('',#642);
#197=VERTEX_POINT('',#651);
#198=VERTEX_POINT('',#653);
#199=EDGE_CURVE('',#163,#164,#147,.T.);
#200=EDGE_CURVE('',#164,#165,#71,.T.);
#201=EDGE_CURVE('',#165,#166,#148,.T.);
#202=EDGE_CURVE('',#166,#163,#72,.T.);
#203=EDGE_CURVE('',#164,#167,#73,.T.);
#204=EDGE_CURVE('',#168,#167,#149,.T.);
#205=EDGE_CURVE('',#169,#168,#74,.T.);
#206=EDGE_CURVE('',#170,#169,#150,.T.);
#207=EDGE_CURVE('',#165,#170,#75,.T.);
#208=EDGE_CURVE('',#171,#172,#151,.T.);
#209=EDGE_CURVE('',#172,#173,#76,.T.);
#210=EDGE_CURVE('',#173,#174,#152,.T.);
#211=EDGE_CURVE('',#174,#171,#77,.T.);
#212=EDGE_CURVE('',#172,#175,#78,.T.);
#213=EDGE_CURVE('',#176,#175,#153,.T.);
#214=EDGE_CURVE('',#177,#176,#79,.T.);
#215=EDGE_CURVE('',#178,#177,#154,.T.);
#216=EDGE_CURVE('',#173,#178,#80,.T.);
#217=EDGE_CURVE('',#179,#179,#155,.T.);
#218=EDGE_CURVE('',#179,#180,#81,.T.);
#219=EDGE_CURVE('',#180,#180,#156,.T.);
#220=EDGE_CURVE('',#181,#182,#157,.T.);
#221=EDGE_CURVE('',#182,#183,#82,.T.);
#222=EDGE_CURVE('',#183,#184,#158,.T.);
#223=EDGE_CURVE('',#184,#181,#83,.T.);
#224=EDGE_CURVE('',#182,#185,#84,.T.);
#225=EDGE_CURVE('',#186,#185,#85,.T.);
#226=EDGE_CURVE('',#183,#186,#86,.T.);
#227=EDGE_CURVE('',#187,#188,#159,.T.);
#228=EDGE_CURVE('',#188,#168,#87,.T.);
#229=EDGE_CURVE('',#167,#187,#88,.T.);
#230=EDGE_CURVE('',#163,#174,#89,.T.);
#231=EDGE_CURVE('',#189,#178,#90,.T.);
#232=EDGE_CURVE('',#186,#189,#91,.T.);
#233=EDGE_CURVE('',#185,#187,#92,.T.);
#234=EDGE_CURVE('',#190,#189,#160,.T.);
#235=EDGE_CURVE('',#177,#190,#93,.T.);
#236=EDGE_CURVE('',#191,#176,#94,.T.);
#237=EDGE_CURVE('',#191,#190,#95,.T.);
#238=EDGE_CURVE('',#192,#193,#161,.T.);
#239=EDGE_CURVE('',#193,#170,#96,.T.);
#240=EDGE_CURVE('',#169,#192,#97,.T.);
#241=EDGE_CURVE('',#194,#193,#98,.T.);
#242=EDGE_CURVE('',#195,#194,#99,.T.);
#243=EDGE_CURVE('',#195,#196,#100,.T.);
#244=EDGE_CURVE('',#175,#196,#101,.T.);
#245=EDGE_CURVE('',#166,#171,#102,.T.);
#246=EDGE_CURVE('',#196,#191,#162,.T.);
#247=EDGE_CURVE('',#188,#192,#103,.T.);
#248=EDGE_CURVE('',#194,#197,#104,.T.);
#249=EDGE_CURVE('',#198,#197,#105,.T.);
#250=EDGE_CURVE('',#195,#198,#106,.T.);
#251=EDGE_CURVE('',#184,#198,#107,.T.);
#252=EDGE_CURVE('',#197,#181,#108,.T.);
#253=ORIENTED_EDGE('',*,*,#199,.T.);
#254=ORIENTED_EDGE('',*,*,#200,.T.);
#255=ORIENTED_EDGE('',*,*,#201,.T.);
#256=ORIENTED_EDGE('',*,*,#202,.T.);
#257=ORIENTED_EDGE('',*,*,#200,.F.);
#258=ORIENTED_EDGE('',*,*,#203,.T.);
#259=ORIENTED_EDGE('',*,*,#204,.F.);
#260=ORIENTED_EDGE('',*,*,#205,.F.);
#261=ORIENTED_EDGE('',*,*,#206,.F.);
#262=ORIENTED_EDGE('',*,*,#207,.F.);
#263=ORIENTED_EDGE('',*,*,#208,.T.);
#264=ORIENTED_EDGE('',*,*,#209,.T.);
#265=ORIENTED_EDGE('',*,*,#210,.T.);
#266=ORIENTED_EDGE('',*,*,#211,.T.);
#267=ORIENTED_EDGE('',*,*,#209,.F.);
#268=ORIENTED_EDGE('',*,*,#212,.T.);
#269=ORIENTED_EDGE('',*,*,#213,.F.);
#270=ORIENTED_EDGE('',*,*,#214,.F.);
#271=ORIENTED_EDGE('',*,*,#215,.F.);
#272=ORIENTED_EDGE('',*,*,#216,.F.);
#273=ORIENTED_EDGE('',*,*,#217,.F.);
#274=ORIENTED_EDGE('',*,*,#218,.T.);
#275=ORIENTED_EDGE('',*,*,#219,.F.);
#276=ORIENTED_EDGE('',*,*,#218,.F.);
#277=ORIENTED_EDGE('',*,*,#220,.T.);
#278=ORIENTED_EDGE('',*,*,#221,.T.);
#279=ORIENTED_EDGE('',*,*,#222,.T.);
#280=ORIENTED_EDGE('',*,*,#223,.T.);
#281=ORIENTED_EDGE('',*,*,#221,.F.);
#282=ORIENTED_EDGE('',*,*,#224,.T.);
#283=ORIENTED_EDGE('',*,*,#225,.F.);
#284=ORIENTED_EDGE('',*,*,#226,.F.);
#285=ORIENTED_EDGE('',*,*,#219,.T.);
#286=ORIENTED_EDGE('',*,*,#227,.T.);
#287=ORIENTED_EDGE('',*,*,#228,.T.);
#288=ORIENTED_EDGE('',*,*,#204,.T.);
#289=ORIENTED_EDGE('',*,*,#229,.T.);
#290=ORIENTED_EDGE('',*,*,#229,.F.);
#291=ORIENTED_EDGE('',*,*,#203,.F.);
#292=ORIENTED_EDGE('',*,*,#199,.F.);
#293=ORIENTED_EDGE('',*,*,#230,.T.);
#294=ORIENTED_EDGE('',*,*,#210,.F.);
#295=ORIENTED_EDGE('',*,*,#216,.T.);
#296=ORIENTED_EDGE('',*,*,#231,.F.);
#297=ORIENTED_EDGE('',*,*,#232,.F.);
#298=ORIENTED_EDGE('',*,*,#225,.T.);
#299=ORIENTED_EDGE('',*,*,#233,.T.);
#300=ORIENTED_EDGE('',*,*,#234,.T.);
#301=ORIENTED_EDGE('',*,*,#231,.T.);
#302=ORIENTED_EDGE('',*,*,#215,.T.);
#303=ORIENTED_EDGE('',*,*,#235,.T.);
#304=ORIENTED_EDGE('',*,*,#235,.F.);
#305=ORIENTED_EDGE('',*,*,#214,.T.);
#306=ORIENTED_EDGE('',*,*,#236,.F.);
#307=ORIENTED_EDGE('',*,*,#237,.T.);
#308=ORIENTED_EDGE('',*,*,#238,.T.);
#309=ORIENTED_EDGE('',*,*,#239,.T.);
#310=ORIENTED_EDGE('',*,*,#206,.T.);
#311=ORIENTED_EDGE('',*,*,#240,.T.);
#312=ORIENTED_EDGE('',*,*,#239,.F.);
#313=ORIENTED_EDGE('',*,*,#241,.F.);
#314=ORIENTED_EDGE('',*,*,#242,.F.);
#315=ORIENTED_EDGE('',*,*,#243,.T.);
#316=ORIENTED_EDGE('',*,*,#244,.F.);
#317=ORIENTED_EDGE('',*,*,#212,.F.);
#318=ORIENTED_EDGE('',*,*,#208,.F.);
#319=ORIENTED_EDGE('',*,*,#245,.F.);
#320=ORIENTED_EDGE('',*,*,#201,.F.);
#321=ORIENTED_EDGE('',*,*,#207,.T.);
#322=ORIENTED_EDGE('',*,*,#246,.T.);
#323=ORIENTED_EDGE('',*,*,#236,.T.);
#324=ORIENTED_EDGE('',*,*,#213,.T.);
#325=ORIENTED_EDGE('',*,*,#244,.T.);
#326=ORIENTED_EDGE('',*,*,#228,.F.);
#327=ORIENTED_EDGE('',*,*,#247,.T.);
#328=ORIENTED_EDGE('',*,*,#240,.F.);
#329=ORIENTED_EDGE('',*,*,#205,.T.);
#330=ORIENTED_EDGE('',*,*,#242,.T.);
#331=ORIENTED_EDGE('',*,*,#248,.T.);
#332=ORIENTED_EDGE('',*,*,#249,.F.);
#333=ORIENTED_EDGE('',*,*,#250,.F.);
#334=ORIENTED_EDGE('',*,*,#234,.F.);
#335=ORIENTED_EDGE('',*,*,#237,.F.);
#336=ORIENTED_EDGE('',*,*,#246,.F.);
#337=ORIENTED_EDGE('',*,*,#243,.F.);
#338=ORIENTED_EDGE('',*,*,#250,.T.);
#339=ORIENTED_EDGE('',*,*,#251,.F.);
#340=ORIENTED_EDGE('',*,*,#222,.F.);
#341=ORIENTED_EDGE('',*,*,#226,.T.);
#342=ORIENTED_EDGE('',*,*,#232,.T.);
#343=ORIENTED_EDGE('',*,*,#202,.F.);
#344=ORIENTED_EDGE('',*,*,#245,.T.);
#345=ORIENTED_EDGE('',*,*,#211,.F.);
#346=ORIENTED_EDGE('',*,*,#230,.F.);
#347=ORIENTED_EDGE('',*,*,#217,.T.);
#348=ORIENTED_EDGE('',*,*,#227,.F.);
#349=ORIENTED_EDGE('',*,*,#233,.F.);
#350=ORIENTED_EDGE('',*,*,#224,.F.);
#351=ORIENTED_EDGE('',*,*,#220,.F.);
#352=ORIENTED_EDGE('',*,*,#252,.F.);
#353=ORIENTED_EDGE('',*,*,#248,.F.);
#354=ORIENTED_EDGE('',*,*,#241,.T.);
#355=ORIENTED_EDGE('',*,*,#238,.F.);
#356=ORIENTED_EDGE('',*,*,#247,.F.);
#357=ORIENTED_EDGE('',*,*,#223,.F.);
#358=ORIENTED_EDGE('',*,*,#251,.T.);
#359=ORIENTED_EDGE('',*,*,#249,.T.);
#360=ORIENTED_EDGE('',*,*,#252,.T.);
#361=CYLINDRICAL_SURFACE('',#403,5.);
#362=CYLINDRICAL_SURFACE('',#409,5.);
#363=CYLINDRICAL_SURFACE('',#415,6.00000000000001);
#364=CYLINDRICAL_SURFACE('',#418,10.);
#365=CYLINDRICAL_SURFACE('',#422,10.);
#366=CYLINDRICAL_SURFACE('',#425,10.);
#367=CYLINDRICAL_SURFACE('',#428,10.);
#368=CYLINDRICAL_SURFACE('',#431,10.);
#369=ADVANCED_FACE('',(#29),#361,.F.);
#370=ADVANCED_FACE('',(#30),#17,.T.);
#371=ADVANCED_FACE('',(#31),#362,.F.);
#372=ADVANCED_FACE('',(#32),#18,.T.);
#373=ADVANCED_FACE('',(#33),#363,.F.);
#374=ADVANCED_FACE('',(#34),#364,.F.);
#375=ADVANCED_FACE('',(#35,#15),#19,.T.);
#376=ADVANCED_FACE('',(#36),#365,.T.);
#377=ADVANCED_FACE('',(#37),#20,.T.);
#378=ADVANCED_FACE('',(#38),#366,.T.);
#379=ADVANCED_FACE('',(#39),#21,.T.);
#380=ADVANCED_FACE('',(#40),#367,.T.);
#381=ADVANCED_FACE('',(#41),#22,.F.);
#382=ADVANCED_FACE('',(#42),#368,.T.);
#383=ADVANCED_FACE('',(#43),#23,.T.);
#384=ADVANCED_FACE('',(#44),#24,.T.);
#385=ADVANCED_FACE('',(#45),#25,.T.);
#386=ADVANCED_FACE('',(#46,#16),#26,.T.);
#387=ADVANCED_FACE('',(#47),#27,.T.);
#388=ADVANCED_FACE('',(#48),#28,.T.);
#389=CLOSED_SHELL('',(#369,#370,#371,#372,#373,#374,#375,#376,#377,#378,
#379,#380,#381,#382,#383,#384,#385,#386,#387,#388));
#390=DERIVED_UNIT_ELEMENT(#392,1.);
#391=DERIVED_UNIT_ELEMENT(#667,-3.);
#392=(
MASS_UNIT()
NAMED_UNIT(*)
SI_UNIT(.KILO.,.GRAM.)
);
#393=DERIVED_UNIT((#390,#391));
#394=MEASURE_REPRESENTATION_ITEM('density measure',
POSITIVE_RATIO_MEASURE(7850.),#393);
#395=PROPERTY_DEFINITION_REPRESENTATION(#400,#397);
#396=PROPERTY_DEFINITION_REPRESENTATION(#401,#398);
#397=REPRESENTATION('material name',(#399),#664);
#398=REPRESENTATION('density',(#394),#664);
#399=DESCRIPTIVE_REPRESENTATION_ITEM('Acier','Acier');
#400=PROPERTY_DEFINITION('material property','material name',#674);
#401=PROPERTY_DEFINITION('material property','density of part',#674);
#402=AXIS2_PLACEMENT_3D('',#551,#439,#440);
#403=AXIS2_PLACEMENT_3D('',#552,#441,#442);
#404=AXIS2_PLACEMENT_3D('',#555,#443,#444);
#405=AXIS2_PLACEMENT_3D('',#559,#446,#447);
#406=AXIS2_PLACEMENT_3D('',#561,#449,#450);
#407=AXIS2_PLACEMENT_3D('',#565,#452,#453);
#408=AXIS2_PLACEMENT_3D('',#569,#455,#456);
#409=AXIS2_PLACEMENT_3D('',#571,#458,#459);
#410=AXIS2_PLACEMENT_3D('',#574,#460,#461);
#411=AXIS2_PLACEMENT_3D('',#578,#463,#464);
#412=AXIS2_PLACEMENT_3D('',#580,#466,#467);
#413=AXIS2_PLACEMENT_3D('',#584,#469,#470);
#414=AXIS2_PLACEMENT_3D('',#588,#472,#473);
#415=AXIS2_PLACEMENT_3D('',#590,#475,#476);
#416=AXIS2_PLACEMENT_3D('',#592,#477,#478);
#417=AXIS2_PLACEMENT_3D('',#595,#480,#481);
#418=AXIS2_PLACEMENT_3D('',#596,#482,#483);
#419=AXIS2_PLACEMENT_3D('',#599,#484,#485);
#420=AXIS2_PLACEMENT_3D('',#603,#487,#488);
#421=AXIS2_PLACEMENT_3D('',#605,#490,#491);
#422=AXIS2_PLACEMENT_3D('',#611,#495,#496);
#423=AXIS2_PLACEMENT_3D('',#614,#497,#498);
#424=AXIS2_PLACEMENT_3D('',#617,#501,#502);
#425=AXIS2_PLACEMENT_3D('',#623,#507,#508);
#426=AXIS2_PLACEMENT_3D('',#625,#509,#510);
#427=AXIS2_PLACEMENT_3D('',#627,#512,#513);
#428=AXIS2_PLACEMENT_3D('',#631,#516,#517);
#429=AXIS2_PLACEMENT_3D('',#634,#518,#519);
#430=AXIS2_PLACEMENT_3D('',#637,#522,#523);
#431=AXIS2_PLACEMENT_3D('',#646,#529,#530);
#432=AXIS2_PLACEMENT_3D('',#647,#531,#532);
#433=AXIS2_PLACEMENT_3D('',#648,#533,#534);
#434=AXIS2_PLACEMENT_3D('',#650,#536,#537);
#435=AXIS2_PLACEMENT_3D('',#656,#541,#542);
#436=AXIS2_PLACEMENT_3D('',#658,#544,#545);
#437=AXIS2_PLACEMENT_3D('',#659,#546,#547);
#438=AXIS2_PLACEMENT_3D('',#661,#549,#550);
#439=DIRECTION('axis',(0.,0.,1.));
#440=DIRECTION('refdir',(1.,0.,0.));
#441=DIRECTION('center_axis',(0.,-1.,0.));
#442=DIRECTION('ref_axis',(-0.707106781186547,0.,-0.707106781186547));
#443=DIRECTION('center_axis',(0.,1.,0.));
#444=DIRECTION('ref_axis',(-0.707106781186547,0.,-0.707106781186547));
#445=DIRECTION('',(0.,-1.,0.));
#446=DIRECTION('center_axis',(0.,-1.,0.));
#447=DIRECTION('ref_axis',(-0.707106781186547,0.,-0.707106781186547));
#448=DIRECTION('',(0.,1.,0.));
#449=DIRECTION('center_axis',(1.,0.,0.));
#450=DIRECTION('ref_axis',(0.,1.,0.));
#451=DIRECTION('',(0.,0.,1.));
#452=DIRECTION('center_axis',(-1.,0.,0.));
#453=DIRECTION('ref_axis',(0.,0.707106781186547,0.707106781186547));
#454=DIRECTION('',(0.,1.,0.));
#455=DIRECTION('center_axis',(-1.,0.,0.));
#456=DIRECTION('ref_axis',(0.,-0.707106781186547,0.707106781186547));
#457=DIRECTION('',(0.,0.,1.));
#458=DIRECTION('center_axis',(0.,1.,0.));
#459=DIRECTION('ref_axis',(0.707106781186547,0.,-0.707106781186547));
#460=DIRECTION('center_axis',(0.,-1.,0.));
#461=DIRECTION('ref_axis',(0.707106781186547,0.,-0.707106781186547));
#462=DIRECTION('',(0.,1.,0.));
#463=DIRECTION('center_axis',(0.,1.,0.));
#464=DIRECTION('ref_axis',(0.707106781186547,0.,-0.707106781186547));
#465=DIRECTION('',(0.,-1.,0.));
#466=DIRECTION('center_axis',(-1.,0.,0.));
#467=DIRECTION('ref_axis',(0.,-1.,0.));
#468=DIRECTION('',(0.,0.,1.));
#469=DIRECTION('center_axis',(1.,0.,0.));
#470=DIRECTION('ref_axis',(0.,-0.707106781186547,0.707106781186547));
#471=DIRECTION('',(0.,-1.,0.));
#472=DIRECTION('center_axis',(1.,0.,0.));
#473=DIRECTION('ref_axis',(0.,0.707106781186547,0.707106781186547));
#474=DIRECTION('',(0.,0.,1.));
#475=DIRECTION('center_axis',(0.,0.,-1.));
#476=DIRECTION('ref_axis',(-1.,0.,0.));
#477=DIRECTION('center_axis',(0.,0.,-1.));
#478=DIRECTION('ref_axis',(-1.,0.,0.));
#479=DIRECTION('',(0.,0.,-1.));
#480=DIRECTION('center_axis',(0.,0.,1.));
#481=DIRECTION('ref_axis',(-1.,0.,0.));
#482=DIRECTION('center_axis',(1.,0.,0.));
#483=DIRECTION('ref_axis',(0.,-0.707106781186547,0.707106781186547));
#484=DIRECTION('center_axis',(-1.,0.,0.));
#485=DIRECTION('ref_axis',(0.,-0.707106781186547,0.707106781186547));
#486=DIRECTION('',(1.,0.,0.));
#487=DIRECTION('center_axis',(1.,0.,0.));
#488=DIRECTION('ref_axis',(0.,-0.707106781186547,0.707106781186547));
#489=DIRECTION('',(-1.,0.,0.));
#490=DIRECTION('center_axis',(0.,0.,-1.));
#491=DIRECTION('ref_axis',(-1.,0.,0.));
#492=DIRECTION('',(0.,1.,0.));
#493=DIRECTION('',(-1.,0.,0.));
#494=DIRECTION('',(0.,1.,0.));
#495=DIRECTION('center_axis',(-1.,0.,0.));
#496=DIRECTION('ref_axis',(0.,0.707106781186547,0.707106781186547));
#497=DIRECTION('center_axis',(1.,0.,0.));
#498=DIRECTION('ref_axis',(0.,0.707106781186547,0.707106781186547));
#499=DIRECTION('',(1.,0.,0.));
#500=DIRECTION('',(-1.,0.,0.));
#501=DIRECTION('center_axis',(0.,1.,0.));
#502=DIRECTION('ref_axis',(0.,0.,1.));
#503=DIRECTION('',(1.,0.,0.));
#504=DIRECTION('',(-1.,0.,0.));
#505=DIRECTION('',(0.,0.,1.));
#506=DIRECTION('',(0.,0.,1.));
#507=DIRECTION('center_axis',(-1.,0.,0.));
#508=DIRECTION('ref_axis',(0.,0.707106781186547,0.707106781186547));
#509=DIRECTION('center_axis',(-1.,0.,0.));
#510=DIRECTION('ref_axis',(0.,0.707106781186547,0.707106781186547));
#511=DIRECTION('',(1.,0.,0.));
#512=DIRECTION('center_axis',(0.,0.,1.));
#513=DIRECTION('ref_axis',(1.,0.,0.));
#514=DIRECTION('',(-1.,0.,0.));
#515=DIRECTION('',(0.,1.,0.));
#516=DIRECTION('center_axis',(1.,0.,0.));
#517=DIRECTION('ref_axis',(0.,-0.707106781186547,0.707106781186547));
#518=DIRECTION('center_axis',(1.,0.,0.));
#519=DIRECTION('ref_axis',(0.,-0.707106781186547,0.707106781186547));
#520=DIRECTION('',(1.,0.,0.));
#521=DIRECTION('',(-1.,0.,0.));
#522=DIRECTION('center_axis',(0.,1.,0.));
#523=DIRECTION('ref_axis',(1.,0.,0.));
#524=DIRECTION('',(0.,0.,1.));
#525=DIRECTION('',(-1.,0.,0.));
#526=DIRECTION('',(0.,0.,1.));
#527=DIRECTION('',(1.,0.,0.));
#528=DIRECTION('',(1.,0.,0.));
#529=DIRECTION('center_axis',(1.,0.,0.));
#530=DIRECTION('ref_axis',(0.,-0.707106781186547,0.707106781186547));
#531=DIRECTION('center_axis',(-1.,0.,0.));
#532=DIRECTION('ref_axis',(0.,-0.707106781186547,0.707106781186547));
#533=DIRECTION('center_axis',(0.,0.,1.));
#534=DIRECTION('ref_axis',(1.,0.,0.));
#535=DIRECTION('',(0.,-1.,0.));
#536=DIRECTION('center_axis',(0.,0.,-1.));
#537=DIRECTION('ref_axis',(-1.,0.,0.));
#538=DIRECTION('',(0.,1.,0.));
#539=DIRECTION('',(-1.,0.,0.));
#540=DIRECTION('',(0.,1.,0.));
#541=DIRECTION('center_axis',(1.,0.,0.));
#542=DIRECTION('ref_axis',(0.,0.,-1.));
#543=DIRECTION('',(0.,0.,-1.));
#544=DIRECTION('center_axis',(0.,0.,1.));
#545=DIRECTION('ref_axis',(1.,0.,0.));
#546=DIRECTION('center_axis',(-1.,0.,0.));
#547=DIRECTION('ref_axis',(0.,0.,1.));
#548=DIRECTION('',(0.,0.,1.));
#549=DIRECTION('center_axis',(0.,1.,0.));
#550=DIRECTION('ref_axis',(0.,0.,1.));
#551=CARTESIAN_POINT('',(0.,0.,0.));
#552=CARTESIAN_POINT('Origin',(-62.0000009983778,0.,12.5));
#553=CARTESIAN_POINT('',(-62.0000009983778,58.,7.5));
#554=CARTESIAN_POINT('',(-67.0000009983778,58.,12.5));
#555=CARTESIAN_POINT('Origin',(-62.0000009983778,58.,12.5));
#556=CARTESIAN_POINT('',(-67.0000009983778,0.,12.5));
#557=CARTESIAN_POINT('',(-67.0000009983778,0.,12.5));
#558=CARTESIAN_POINT('',(-62.0000009983778,0.,7.5));
#559=CARTESIAN_POINT('Origin',(-62.0000009983778,0.,12.5));
#560=CARTESIAN_POINT('',(-62.0000009983778,0.,7.5));
#561=CARTESIAN_POINT('Origin',(-67.0000009983778,0.,7.5));
#562=CARTESIAN_POINT('',(-67.0000009983778,58.,17.5));
#563=CARTESIAN_POINT('',(-67.0000009983778,58.,7.5));
#564=CARTESIAN_POINT('',(-67.0000009983778,48.,27.5));
#565=CARTESIAN_POINT('Origin',(-67.0000009983778,48.,17.5));
#566=CARTESIAN_POINT('',(-67.0000009983778,10.,27.5));
#567=CARTESIAN_POINT('',(-67.0000009983778,0.,27.5));
#568=CARTESIAN_POINT('',(-67.0000009983778,0.,17.5));
#569=CARTESIAN_POINT('Origin',(-67.0000009983778,10.,17.5));
#570=CARTESIAN_POINT('',(-67.0000009983778,0.,7.5));
#571=CARTESIAN_POINT('Origin',(-38.0000004917383,29.,12.5));
#572=CARTESIAN_POINT('',(-38.0000004917383,0.,7.5));
#573=CARTESIAN_POINT('',(-33.0000004917383,0.,12.5));
#574=CARTESIAN_POINT('Origin',(-38.0000004917383,0.,12.5));
#575=CARTESIAN_POINT('',(-33.0000004917383,58.,12.5));
#576=CARTESIAN_POINT('',(-33.0000004917383,29.,12.5));
#577=CARTESIAN_POINT('',(-38.0000004917383,58.,7.5));
#578=CARTESIAN_POINT('Origin',(-38.0000004917383,58.,12.5));
#579=CARTESIAN_POINT('',(-38.0000004917383,29.,7.5));
#580=CARTESIAN_POINT('Origin',(-33.0000004917383,58.,7.5));
#581=CARTESIAN_POINT('',(-33.0000004917383,0.,17.5));
#582=CARTESIAN_POINT('',(-33.0000004917383,0.,7.5));
#583=CARTESIAN_POINT('',(-33.0000004917383,10.,27.5));
#584=CARTESIAN_POINT('Origin',(-33.0000004917383,10.,17.5));
#585=CARTESIAN_POINT('',(-33.0000004917383,48.,27.5));
#586=CARTESIAN_POINT('',(-33.0000004917383,0.,27.5));
#587=CARTESIAN_POINT('',(-33.0000004917383,58.,17.5));
#588=CARTESIAN_POINT('Origin',(-33.0000004917383,48.,17.5));
#589=CARTESIAN_POINT('',(-33.0000004917383,58.,7.5));
#590=CARTESIAN_POINT('Origin',(-50.,40.,7.5));
#591=CARTESIAN_POINT('',(-44.,40.,7.5));
#592=CARTESIAN_POINT('Origin',(-50.,40.,7.5));
#593=CARTESIAN_POINT('',(-44.,40.,5.00000007450581));
#594=CARTESIAN_POINT('',(-44.,40.,7.5));
#595=CARTESIAN_POINT('Origin',(-50.,40.,5.00000007450581));
#596=CARTESIAN_POINT('Origin',(-40.0000002235174,13.,-4.99999992549419));
#597=CARTESIAN_POINT('',(-70.,3.,-4.99999992549419));
#598=CARTESIAN_POINT('',(-70.,13.,5.00000007450581));
#599=CARTESIAN_POINT('Origin',(-70.,13.,-4.99999992549419));
#600=CARTESIAN_POINT('',(-30.0000004470348,13.,5.00000007450581));
#601=CARTESIAN_POINT('',(-40.0000002235174,13.,5.00000007450581));
#602=CARTESIAN_POINT('',(-30.,3.,-4.99999992549419));
#603=CARTESIAN_POINT('Origin',(-30.,13.,-4.99999992549419));
#604=CARTESIAN_POINT('',(-40.0000002235174,3.,-4.99999992549419));
#605=CARTESIAN_POINT('Origin',(-30.0000004470348,3.,5.00000007450581));
#606=CARTESIAN_POINT('',(-70.,58.,5.00000007450581));
#607=CARTESIAN_POINT('',(-70.,3.,5.00000007450581));
#608=CARTESIAN_POINT('',(-30.0000004470348,58.,5.00000007450581));
#609=CARTESIAN_POINT('',(-30.0000004470348,58.,5.00000007450581));
#610=CARTESIAN_POINT('',(-30.0000004470348,3.,5.00000007450581));
#611=CARTESIAN_POINT('Origin',(-59.2500003613532,48.,17.5));
#612=CARTESIAN_POINT('',(-70.,58.,17.5));
#613=CARTESIAN_POINT('',(-70.,48.,27.5));
#614=CARTESIAN_POINT('Origin',(-70.,48.,17.5));
#615=CARTESIAN_POINT('',(-59.2500003613532,48.,27.5));
#616=CARTESIAN_POINT('',(-59.2500003613532,58.,17.5));
#617=CARTESIAN_POINT('Origin',(-50.0000002235174,58.,6.2500000372529));
#618=CARTESIAN_POINT('',(-70.,58.,7.5));
#619=CARTESIAN_POINT('',(-30.,58.,17.5));
#620=CARTESIAN_POINT('',(-40.7500002346933,58.,17.5));
#621=CARTESIAN_POINT('',(-30.,58.,7.5));
#622=CARTESIAN_POINT('',(-70.,58.,5.00000007450581));
#623=CARTESIAN_POINT('Origin',(-40.7500002346933,48.,17.5));
#624=CARTESIAN_POINT('',(-30.,48.,27.5));
#625=CARTESIAN_POINT('Origin',(-30.,48.,17.5));
#626=CARTESIAN_POINT('',(-40.7500002346933,48.,27.5));
#627=CARTESIAN_POINT('Origin',(-31.5000002458692,29.,27.5));
#628=CARTESIAN_POINT('',(-30.,10.,27.5));
#629=CARTESIAN_POINT('',(-40.7500001229346,10.,27.5));
#630=CARTESIAN_POINT('',(-30.,58.,27.5));
#631=CARTESIAN_POINT('Origin',(-59.2500002495944,10.,17.5));
#632=CARTESIAN_POINT('',(-70.,10.,27.5));
#633=CARTESIAN_POINT('',(-70.,0.,17.5));
#634=CARTESIAN_POINT('Origin',(-70.,10.,17.5));
#635=CARTESIAN_POINT('',(-59.2500002495944,0.,17.5));
#636=CARTESIAN_POINT('',(-59.2500002495944,10.,27.5));
#637=CARTESIAN_POINT('Origin',(-50.,0.,0.));
#638=CARTESIAN_POINT('',(-70.,0.,-7.5));
#639=CARTESIAN_POINT('',(-70.,0.,-7.5));
#640=CARTESIAN_POINT('',(-30.,0.,-7.5));
#641=CARTESIAN_POINT('',(-30.,0.,-7.5));
#642=CARTESIAN_POINT('',(-30.,0.,17.5));
#643=CARTESIAN_POINT('',(-30.,0.,7.5));
#644=CARTESIAN_POINT('',(-40.7500001229346,0.,17.5));
#645=CARTESIAN_POINT('',(-70.,0.,7.5));
#646=CARTESIAN_POINT('Origin',(-40.7500001229346,10.,17.5));
#647=CARTESIAN_POINT('Origin',(-30.,10.,17.5));
#648=CARTESIAN_POINT('Origin',(-68.5000004991889,29.,27.5));
#649=CARTESIAN_POINT('',(-70.,58.,27.5));
#650=CARTESIAN_POINT('Origin',(-30.,0.,-7.5));
#651=CARTESIAN_POINT('',(-70.,3.,-7.5));
#652=CARTESIAN_POINT('',(-70.,0.,-7.5));
#653=CARTESIAN_POINT('',(-30.,3.,-7.5));
#654=CARTESIAN_POINT('',(-30.,3.,-7.5));
#655=CARTESIAN_POINT('',(-30.,0.,-7.5));
#656=CARTESIAN_POINT('Origin',(-30.,0.,7.5));
#657=CARTESIAN_POINT('',(-30.,3.,7.5));
#658=CARTESIAN_POINT('Origin',(-70.,0.,7.5));
#659=CARTESIAN_POINT('Origin',(-70.,0.,-7.5));
#660=CARTESIAN_POINT('',(-70.,3.,-7.5));
#661=CARTESIAN_POINT('Origin',(-50.,3.,0.));
#662=UNCERTAINTY_MEASURE_WITH_UNIT(LENGTH_MEASURE(0.01),#666,
'DISTANCE_ACCURACY_VALUE',
'Maximum model space distance between geometric entities at asserted c
onnectivities');
#663=UNCERTAINTY_MEASURE_WITH_UNIT(LENGTH_MEASURE(0.01),#666,
'DISTANCE_ACCURACY_VALUE',
'Maximum model space distance between geometric entities at asserted c
onnectivities');
#664=(
GEOMETRIC_REPRESENTATION_CONTEXT(3)
GLOBAL_UNCERTAINTY_ASSIGNED_CONTEXT((#662))
GLOBAL_UNIT_ASSIGNED_CONTEXT((#666,#668,#669))
REPRESENTATION_CONTEXT('','3D')
);
#665=(
GEOMETRIC_REPRESENTATION_CONTEXT(3)
GLOBAL_UNCERTAINTY_ASSIGNED_CONTEXT((#663))
GLOBAL_UNIT_ASSIGNED_CONTEXT((#666,#668,#669))
REPRESENTATION_CONTEXT('','3D')
);
#666=(
LENGTH_UNIT()
NAMED_UNIT(*)
SI_UNIT(.MILLI.,.METRE.)
);
#667=(
LENGTH_UNIT()
NAMED_UNIT(*)
SI_UNIT($,.METRE.)
);
#668=(
NAMED_UNIT(*)
PLANE_ANGLE_UNIT()
SI_UNIT($,.RADIAN.)
);
#669=(
NAMED_UNIT(*)
SI_UNIT($,.STERADIAN.)
SOLID_ANGLE_UNIT()
);
#670=SHAPE_DEFINITION_REPRESENTATION(#671,#672);
#671=PRODUCT_DEFINITION_SHAPE('',$,#674);
#672=SHAPE_REPRESENTATION('',(#402),#664);
#673=PRODUCT_DEFINITION_CONTEXT('part definition',#678,'design');
#674=PRODUCT_DEFINITION('agraphe_gaine_\X\E9lectrique',
'agraphe_gaine_\X\E9lectrique v1',#675,#673);
#675=PRODUCT_DEFINITION_FORMATION('',$,#680);
#676=PRODUCT_RELATED_PRODUCT_CATEGORY('agraphe_gaine_\X\E9lectrique v1',
'agraphe_gaine_\X\E9lectrique v1',(#680));
#677=APPLICATION_PROTOCOL_DEFINITION('international standard',
'automotive_design',2009,#678);
#678=APPLICATION_CONTEXT(
'Core Data for Automotive Mechanical Design Process');
#679=PRODUCT_CONTEXT('part definition',#678,'mechanical');
#680=PRODUCT('agraphe_gaine_\X\E9lectrique',
'agraphe_gaine_\X\E9lectrique v1',$,(#679));
#681=PRESENTATION_STYLE_ASSIGNMENT((#682));
#682=SURFACE_STYLE_USAGE(.BOTH.,#683);
#683=SURFACE_SIDE_STYLE('',(#684));
#684=SURFACE_STYLE_FILL_AREA(#685);
#685=FILL_AREA_STYLE('Acier - Satin\X\E9',(#686));
#686=FILL_AREA_STYLE_COLOUR('Acier - Satin\X\E9',#687);
#687=COLOUR_RGB('Acier - Satin\X\E9',0.627450980392157,0.627450980392157,
0.627450980392157);
ENDSEC;
END-ISO-10303-21;
