ISO-10303-21;
HEADER;
/* Generated by software containing ST-Developer
 * from STEP Tools, Inc. (www.steptools.com) 
 */

FILE_DESCRIPTION(
/* description */ (''),
/* implementation_level */ '2;1');

FILE_NAME(
/* name */ 'agraphe_gaine_20.step',
/* time_stamp */ '2025-10-05T13:22:33+02:00',
/* author */ (''),
/* organization */ (''),
/* preprocessor_version */ 'ST-DEVELOPER v20.1',
/* originating_system */ 'Autodesk Translation Framework v14.17.0.0',
/* authorisation */ '');

FILE_SCHEMA (('AUTOMOTIVE_DESIGN { 1 0 10303 214 3 1 1 }'));
ENDSEC;

DATA;
#10=MECHANICAL_DESIGN_GEOMETRIC_PRESENTATION_REPRESENTATION('',(#13),#701);
#11=SHAPE_REPRESENTATION_RELATIONSHIP('SRR','None',#708,#12);
#12=ADVANCED_BREP_SHAPE_REPRESENTATION('',(#14),#700);
#13=STYLED_ITEM('',(#717),#14);
#14=MANIFOLD_SOLID_BREP('Corps1',#377);
#15=TOROIDAL_SURFACE('',#414,10.5,0.5);
#16=TOROIDAL_SURFACE('',#416,10.5,0.5);
#17=B_SPLINE_CURVE_WITH_KNOTS('',3,(#572,#573,#574,#575),.UNSPECIFIED.,
 .F.,.F.,(4,4),(0.216376094609399,0.222832101931891),.UNSPECIFIED.);
#18=B_SPLINE_CURVE_WITH_KNOTS('',3,(#579,#580,#581,#582),.UNSPECIFIED.,
 .F.,.F.,(4,4),(0.0742650415557652,0.0807210488783855),.UNSPECIFIED.);
#19=B_SPLINE_CURVE_WITH_KNOTS('',3,(#612,#613,#614,#615,#616,#617,#618,
#619,#620,#621,#622,#623),.UNSPECIFIED.,.F.,.F.,(4,2,2,2,2,4),(-0.0872039112477012,
-0.0867673380462642,-0.0577350730626206,-0.0325112479943634,-0.0145212114370094,
0.),.UNSPECIFIED.);
#20=B_SPLINE_CURVE_WITH_KNOTS('',3,(#626,#627,#628,#629,#630,#631,#632,
#633,#634,#635,#636,#637),.UNSPECIFIED.,.F.,.F.,(4,2,2,2,2,4),(-0.0877128510650711,
-0.0730334004245612,-0.0548473245031253,-0.0293486326990282,0.,0.000441330586587879),
 .UNSPECIFIED.);
#21=B_SPLINE_CURVE_WITH_KNOTS('',3,(#641,#642,#643,#644,#645,#646,#647,
#648,#649,#650,#651,#652),.UNSPECIFIED.,.F.,.F.,(4,2,2,2,2,4),(-0.000441330586284335,
0.,0.0293486265623557,0.0548473202240553,0.0730333972045293,0.0877128482076074),
 .UNSPECIFIED.);
#22=B_SPLINE_CURVE_WITH_KNOTS('',3,(#653,#654,#655,#656),.UNSPECIFIED.,
 .F.,.F.,(4,4),(0.0742650413382383,0.0807210460458331),.UNSPECIFIED.);
#23=B_SPLINE_CURVE_WITH_KNOTS('',3,(#661,#662,#663,#664,#665,#666,#667,
#668,#669,#670,#671,#672),.UNSPECIFIED.,.F.,.F.,(4,2,2,2,2,4),(0.,0.0145212118093331,
0.0325112494312413,0.057735076360821,0.0867673353012602,0.0872039085028066),
 .UNSPECIFIED.);
#24=B_SPLINE_CURVE_WITH_KNOTS('',3,(#674,#675,#676,#677),.UNSPECIFIED.,
 .F.,.F.,(4,4),(0.216376096534344,0.222832101241809),.UNSPECIFIED.);
#25=PLANE('',#400);
#26=PLANE('',#404);
#27=PLANE('',#405);
#28=PLANE('',#421);
#29=PLANE('',#422);
#30=PLANE('',#423);
#31=PLANE('',#424);
#32=PLANE('',#425);
#33=PLANE('',#426);
#34=FACE_OUTER_BOUND('',#54,.T.);
#35=FACE_OUTER_BOUND('',#55,.T.);
#36=FACE_OUTER_BOUND('',#56,.T.);
#37=FACE_OUTER_BOUND('',#57,.T.);
#38=FACE_OUTER_BOUND('',#58,.T.);
#39=FACE_OUTER_BOUND('',#59,.T.);
#40=FACE_OUTER_BOUND('',#60,.T.);
#41=FACE_OUTER_BOUND('',#61,.T.);
#42=FACE_OUTER_BOUND('',#62,.T.);
#43=FACE_OUTER_BOUND('',#63,.T.);
#44=FACE_OUTER_BOUND('',#64,.T.);
#45=FACE_OUTER_BOUND('',#65,.T.);
#46=FACE_OUTER_BOUND('',#66,.T.);
#47=FACE_OUTER_BOUND('',#67,.T.);
#48=FACE_OUTER_BOUND('',#68,.T.);
#49=FACE_OUTER_BOUND('',#69,.T.);
#50=FACE_OUTER_BOUND('',#70,.T.);
#51=FACE_OUTER_BOUND('',#71,.T.);
#52=FACE_OUTER_BOUND('',#72,.T.);
#53=FACE_OUTER_BOUND('',#73,.T.);
#54=EDGE_LOOP('',(#240,#241,#242,#243));
#55=EDGE_LOOP('',(#244,#245,#246,#247));
#56=EDGE_LOOP('',(#248,#249,#250,#251));
#57=EDGE_LOOP('',(#252,#253,#254,#255));
#58=EDGE_LOOP('',(#256,#257,#258,#259));
#59=EDGE_LOOP('',(#260,#261,#262,#263,#264,#265));
#60=EDGE_LOOP('',(#266,#267,#268,#269,#270,#271,#272,#273,#274,#275,#276,
#277,#278,#279));
#61=EDGE_LOOP('',(#280,#281,#282,#283));
#62=EDGE_LOOP('',(#284,#285,#286,#287));
#63=EDGE_LOOP('',(#288,#289,#290,#291));
#64=EDGE_LOOP('',(#292,#293,#294,#295,#296,#297));
#65=EDGE_LOOP('',(#298,#299,#300,#301,#302,#303));
#66=EDGE_LOOP('',(#304,#305,#306,#307));
#67=EDGE_LOOP('',(#308,#309,#310,#311));
#68=EDGE_LOOP('',(#312,#313,#314,#315,#316,#317));
#69=EDGE_LOOP('',(#318,#319,#320,#321));
#70=EDGE_LOOP('',(#322,#323,#324,#325));
#71=EDGE_LOOP('',(#326,#327,#328,#329));
#72=EDGE_LOOP('',(#330,#331,#332,#333));
#73=EDGE_LOOP('',(#334,#335,#336,#337,#338,#339,#340,#341,#342,#343,#344,
#345,#346,#347));
#74=LINE('',#537,#104);
#75=LINE('',#540,#105);
#76=LINE('',#545,#106);
#77=LINE('',#552,#107);
#78=LINE('',#555,#108);
#79=LINE('',#558,#109);
#80=LINE('',#560,#110);
#81=LINE('',#561,#111);
#82=LINE('',#567,#112);
#83=LINE('',#570,#113);
#84=LINE('',#577,#114);
#85=LINE('',#583,#115);
#86=LINE('',#586,#116);
#87=LINE('',#588,#117);
#88=LINE('',#590,#118);
#89=LINE('',#591,#119);
#90=LINE('',#597,#120);
#91=LINE('',#601,#121);
#92=LINE('',#604,#122);
#93=LINE('',#610,#123);
#94=LINE('',#625,#124);
#95=LINE('',#679,#125);
#96=LINE('',#682,#126);
#97=LINE('',#685,#127);
#98=LINE('',#687,#128);
#99=LINE('',#688,#129);
#100=LINE('',#690,#130);
#101=LINE('',#693,#131);
#102=LINE('',#694,#132);
#103=LINE('',#696,#133);
#104=VECTOR('',#433,10.);
#105=VECTOR('',#436,10.);
#106=VECTOR('',#441,10.);
#107=VECTOR('',#448,10.);
#108=VECTOR('',#451,10.);
#109=VECTOR('',#454,10.);
#110=VECTOR('',#455,10.);
#111=VECTOR('',#456,10.);
#112=VECTOR('',#463,10.);
#113=VECTOR('',#466,10.);
#114=VECTOR('',#467,10.);
#115=VECTOR('',#468,10.);
#116=VECTOR('',#471,10.);
#117=VECTOR('',#472,10.);
#118=VECTOR('',#473,10.);
#119=VECTOR('',#474,10.);
#120=VECTOR('',#479,10.);
#121=VECTOR('',#484,10.);
#122=VECTOR('',#487,10.);
#123=VECTOR('',#494,10.);
#124=VECTOR('',#495,10.);
#125=VECTOR('',#508,10.);
#126=VECTOR('',#513,10.);
#127=VECTOR('',#516,10.);
#128=VECTOR('',#517,10.);
#129=VECTOR('',#518,10.);
#130=VECTOR('',#521,10.);
#131=VECTOR('',#524,10.);
#132=VECTOR('',#525,10.);
#133=VECTOR('',#528,10.);
#134=CIRCLE('',#392,2.);
#135=CIRCLE('',#393,2.);
#136=CIRCLE('',#395,13.);
#137=CIRCLE('',#396,13.);
#138=CIRCLE('',#398,2.);
#139=CIRCLE('',#399,2.);
#140=CIRCLE('',#402,0.5);
#141=CIRCLE('',#403,0.5);
#142=CIRCLE('',#406,13.);
#143=CIRCLE('',#407,0.5);
#144=CIRCLE('',#408,10.5);
#145=CIRCLE('',#410,0.5);
#146=CIRCLE('',#412,13.);
#147=CIRCLE('',#415,10.);
#148=CIRCLE('',#417,10.5);
#149=CIRCLE('',#418,10.);
#150=VERTEX_POINT('',#533);
#151=VERTEX_POINT('',#534);
#152=VERTEX_POINT('',#536);
#153=VERTEX_POINT('',#538);
#154=VERTEX_POINT('',#542);
#155=VERTEX_POINT('',#544);
#156=VERTEX_POINT('',#548);
#157=VERTEX_POINT('',#549);
#158=VERTEX_POINT('',#551);
#159=VERTEX_POINT('',#553);
#160=VERTEX_POINT('',#557);
#161=VERTEX_POINT('',#559);
#162=VERTEX_POINT('',#563);
#163=VERTEX_POINT('',#565);
#164=VERTEX_POINT('',#569);
#165=VERTEX_POINT('',#571);
#166=VERTEX_POINT('',#576);
#167=VERTEX_POINT('',#578);
#168=VERTEX_POINT('',#585);
#169=VERTEX_POINT('',#587);
#170=VERTEX_POINT('',#589);
#171=VERTEX_POINT('',#592);
#172=VERTEX_POINT('',#594);
#173=VERTEX_POINT('',#596);
#174=VERTEX_POINT('',#600);
#175=VERTEX_POINT('',#602);
#176=VERTEX_POINT('',#608);
#177=VERTEX_POINT('',#609);
#178=VERTEX_POINT('',#611);
#179=VERTEX_POINT('',#624);
#180=VERTEX_POINT('',#639);
#181=VERTEX_POINT('',#658);
#182=VERTEX_POINT('',#660);
#183=VERTEX_POINT('',#684);
#184=VERTEX_POINT('',#686);
#185=VERTEX_POINT('',#692);
#186=EDGE_CURVE('',#150,#151,#134,.T.);
#187=EDGE_CURVE('',#151,#152,#74,.T.);
#188=EDGE_CURVE('',#152,#153,#135,.T.);
#189=EDGE_CURVE('',#153,#150,#75,.T.);
#190=EDGE_CURVE('',#151,#154,#136,.T.);
#191=EDGE_CURVE('',#155,#154,#76,.T.);
#192=EDGE_CURVE('',#152,#155,#137,.T.);
#193=EDGE_CURVE('',#156,#157,#138,.T.);
#194=EDGE_CURVE('',#157,#158,#77,.T.);
#195=EDGE_CURVE('',#158,#159,#139,.T.);
#196=EDGE_CURVE('',#159,#156,#78,.T.);
#197=EDGE_CURVE('',#157,#160,#79,.T.);
#198=EDGE_CURVE('',#160,#161,#80,.T.);
#199=EDGE_CURVE('',#158,#161,#81,.T.);
#200=EDGE_CURVE('',#162,#155,#140,.T.);
#201=EDGE_CURVE('',#154,#163,#141,.T.);
#202=EDGE_CURVE('',#163,#162,#82,.T.);
#203=EDGE_CURVE('',#164,#163,#83,.T.);
#204=EDGE_CURVE('',#165,#164,#17,.T.);
#205=EDGE_CURVE('',#166,#165,#84,.T.);
#206=EDGE_CURVE('',#167,#166,#18,.T.);
#207=EDGE_CURVE('',#162,#167,#85,.T.);
#208=EDGE_CURVE('',#168,#150,#86,.T.);
#209=EDGE_CURVE('',#169,#168,#87,.T.);
#210=EDGE_CURVE('',#170,#169,#88,.T.);
#211=EDGE_CURVE('',#160,#170,#89,.T.);
#212=EDGE_CURVE('',#171,#156,#142,.T.);
#213=EDGE_CURVE('',#172,#171,#143,.T.);
#214=EDGE_CURVE('',#172,#173,#90,.T.);
#215=EDGE_CURVE('',#164,#173,#144,.T.);
#216=EDGE_CURVE('',#171,#174,#91,.T.);
#217=EDGE_CURVE('',#174,#175,#145,.T.);
#218=EDGE_CURVE('',#175,#172,#92,.T.);
#219=EDGE_CURVE('',#174,#159,#146,.T.);
#220=EDGE_CURVE('',#176,#177,#93,.T.);
#221=EDGE_CURVE('',#177,#178,#19,.T.);
#222=EDGE_CURVE('',#178,#179,#94,.T.);
#223=EDGE_CURVE('',#179,#176,#20,.T.);
#224=EDGE_CURVE('',#177,#180,#147,.T.);
#225=EDGE_CURVE('',#180,#165,#21,.T.);
#226=EDGE_CURVE('',#173,#178,#22,.T.);
#227=EDGE_CURVE('',#181,#167,#148,.T.);
#228=EDGE_CURVE('',#166,#182,#23,.T.);
#229=EDGE_CURVE('',#182,#176,#149,.T.);
#230=EDGE_CURVE('',#179,#181,#24,.T.);
#231=EDGE_CURVE('',#180,#182,#95,.T.);
#232=EDGE_CURVE('',#181,#175,#96,.T.);
#233=EDGE_CURVE('',#169,#183,#97,.T.);
#234=EDGE_CURVE('',#184,#183,#98,.T.);
#235=EDGE_CURVE('',#170,#184,#99,.T.);
#236=EDGE_CURVE('',#161,#184,#100,.T.);
#237=EDGE_CURVE('',#185,#153,#101,.T.);
#238=EDGE_CURVE('',#168,#185,#102,.T.);
#239=EDGE_CURVE('',#183,#185,#103,.T.);
#240=ORIENTED_EDGE('',*,*,#186,.T.);
#241=ORIENTED_EDGE('',*,*,#187,.T.);
#242=ORIENTED_EDGE('',*,*,#188,.T.);
#243=ORIENTED_EDGE('',*,*,#189,.T.);
#244=ORIENTED_EDGE('',*,*,#187,.F.);
#245=ORIENTED_EDGE('',*,*,#190,.T.);
#246=ORIENTED_EDGE('',*,*,#191,.F.);
#247=ORIENTED_EDGE('',*,*,#192,.F.);
#248=ORIENTED_EDGE('',*,*,#193,.T.);
#249=ORIENTED_EDGE('',*,*,#194,.T.);
#250=ORIENTED_EDGE('',*,*,#195,.T.);
#251=ORIENTED_EDGE('',*,*,#196,.T.);
#252=ORIENTED_EDGE('',*,*,#194,.F.);
#253=ORIENTED_EDGE('',*,*,#197,.T.);
#254=ORIENTED_EDGE('',*,*,#198,.T.);
#255=ORIENTED_EDGE('',*,*,#199,.F.);
#256=ORIENTED_EDGE('',*,*,#200,.T.);
#257=ORIENTED_EDGE('',*,*,#191,.T.);
#258=ORIENTED_EDGE('',*,*,#201,.T.);
#259=ORIENTED_EDGE('',*,*,#202,.T.);
#260=ORIENTED_EDGE('',*,*,#202,.F.);
#261=ORIENTED_EDGE('',*,*,#203,.F.);
#262=ORIENTED_EDGE('',*,*,#204,.F.);
#263=ORIENTED_EDGE('',*,*,#205,.F.);
#264=ORIENTED_EDGE('',*,*,#206,.F.);
#265=ORIENTED_EDGE('',*,*,#207,.F.);
#266=ORIENTED_EDGE('',*,*,#201,.F.);
#267=ORIENTED_EDGE('',*,*,#190,.F.);
#268=ORIENTED_EDGE('',*,*,#186,.F.);
#269=ORIENTED_EDGE('',*,*,#208,.F.);
#270=ORIENTED_EDGE('',*,*,#209,.F.);
#271=ORIENTED_EDGE('',*,*,#210,.F.);
#272=ORIENTED_EDGE('',*,*,#211,.F.);
#273=ORIENTED_EDGE('',*,*,#197,.F.);
#274=ORIENTED_EDGE('',*,*,#193,.F.);
#275=ORIENTED_EDGE('',*,*,#212,.F.);
#276=ORIENTED_EDGE('',*,*,#213,.F.);
#277=ORIENTED_EDGE('',*,*,#214,.T.);
#278=ORIENTED_EDGE('',*,*,#215,.F.);
#279=ORIENTED_EDGE('',*,*,#203,.T.);
#280=ORIENTED_EDGE('',*,*,#213,.T.);
#281=ORIENTED_EDGE('',*,*,#216,.T.);
#282=ORIENTED_EDGE('',*,*,#217,.T.);
#283=ORIENTED_EDGE('',*,*,#218,.T.);
#284=ORIENTED_EDGE('',*,*,#196,.F.);
#285=ORIENTED_EDGE('',*,*,#219,.F.);
#286=ORIENTED_EDGE('',*,*,#216,.F.);
#287=ORIENTED_EDGE('',*,*,#212,.T.);
#288=ORIENTED_EDGE('',*,*,#220,.T.);
#289=ORIENTED_EDGE('',*,*,#221,.T.);
#290=ORIENTED_EDGE('',*,*,#222,.T.);
#291=ORIENTED_EDGE('',*,*,#223,.T.);
#292=ORIENTED_EDGE('',*,*,#224,.T.);
#293=ORIENTED_EDGE('',*,*,#225,.T.);
#294=ORIENTED_EDGE('',*,*,#204,.T.);
#295=ORIENTED_EDGE('',*,*,#215,.T.);
#296=ORIENTED_EDGE('',*,*,#226,.T.);
#297=ORIENTED_EDGE('',*,*,#221,.F.);
#298=ORIENTED_EDGE('',*,*,#227,.T.);
#299=ORIENTED_EDGE('',*,*,#206,.T.);
#300=ORIENTED_EDGE('',*,*,#228,.T.);
#301=ORIENTED_EDGE('',*,*,#229,.T.);
#302=ORIENTED_EDGE('',*,*,#223,.F.);
#303=ORIENTED_EDGE('',*,*,#230,.T.);
#304=ORIENTED_EDGE('',*,*,#231,.T.);
#305=ORIENTED_EDGE('',*,*,#228,.F.);
#306=ORIENTED_EDGE('',*,*,#205,.T.);
#307=ORIENTED_EDGE('',*,*,#225,.F.);
#308=ORIENTED_EDGE('',*,*,#220,.F.);
#309=ORIENTED_EDGE('',*,*,#229,.F.);
#310=ORIENTED_EDGE('',*,*,#231,.F.);
#311=ORIENTED_EDGE('',*,*,#224,.F.);
#312=ORIENTED_EDGE('',*,*,#218,.F.);
#313=ORIENTED_EDGE('',*,*,#232,.F.);
#314=ORIENTED_EDGE('',*,*,#230,.F.);
#315=ORIENTED_EDGE('',*,*,#222,.F.);
#316=ORIENTED_EDGE('',*,*,#226,.F.);
#317=ORIENTED_EDGE('',*,*,#214,.F.);
#318=ORIENTED_EDGE('',*,*,#210,.T.);
#319=ORIENTED_EDGE('',*,*,#233,.T.);
#320=ORIENTED_EDGE('',*,*,#234,.F.);
#321=ORIENTED_EDGE('',*,*,#235,.F.);
#322=ORIENTED_EDGE('',*,*,#211,.T.);
#323=ORIENTED_EDGE('',*,*,#235,.T.);
#324=ORIENTED_EDGE('',*,*,#236,.F.);
#325=ORIENTED_EDGE('',*,*,#198,.F.);
#326=ORIENTED_EDGE('',*,*,#189,.F.);
#327=ORIENTED_EDGE('',*,*,#237,.F.);
#328=ORIENTED_EDGE('',*,*,#238,.F.);
#329=ORIENTED_EDGE('',*,*,#208,.T.);
#330=ORIENTED_EDGE('',*,*,#209,.T.);
#331=ORIENTED_EDGE('',*,*,#238,.T.);
#332=ORIENTED_EDGE('',*,*,#239,.F.);
#333=ORIENTED_EDGE('',*,*,#233,.F.);
#334=ORIENTED_EDGE('',*,*,#200,.F.);
#335=ORIENTED_EDGE('',*,*,#207,.T.);
#336=ORIENTED_EDGE('',*,*,#227,.F.);
#337=ORIENTED_EDGE('',*,*,#232,.T.);
#338=ORIENTED_EDGE('',*,*,#217,.F.);
#339=ORIENTED_EDGE('',*,*,#219,.T.);
#340=ORIENTED_EDGE('',*,*,#195,.F.);
#341=ORIENTED_EDGE('',*,*,#199,.T.);
#342=ORIENTED_EDGE('',*,*,#236,.T.);
#343=ORIENTED_EDGE('',*,*,#234,.T.);
#344=ORIENTED_EDGE('',*,*,#239,.T.);
#345=ORIENTED_EDGE('',*,*,#237,.T.);
#346=ORIENTED_EDGE('',*,*,#188,.F.);
#347=ORIENTED_EDGE('',*,*,#192,.T.);
#348=CYLINDRICAL_SURFACE('',#391,2.);
#349=CYLINDRICAL_SURFACE('',#394,13.);
#350=CYLINDRICAL_SURFACE('',#397,2.);
#351=CYLINDRICAL_SURFACE('',#401,0.5);
#352=CYLINDRICAL_SURFACE('',#409,0.5);
#353=CYLINDRICAL_SURFACE('',#411,13.);
#354=CYLINDRICAL_SURFACE('',#413,0.5);
#355=CYLINDRICAL_SURFACE('',#419,0.5);
#356=CYLINDRICAL_SURFACE('',#420,10.);
#357=ADVANCED_FACE('',(#34),#348,.F.);
#358=ADVANCED_FACE('',(#35),#349,.T.);
#359=ADVANCED_FACE('',(#36),#350,.F.);
#360=ADVANCED_FACE('',(#37),#25,.T.);
#361=ADVANCED_FACE('',(#38),#351,.T.);
#362=ADVANCED_FACE('',(#39),#26,.F.);
#363=ADVANCED_FACE('',(#40),#27,.F.);
#364=ADVANCED_FACE('',(#41),#352,.T.);
#365=ADVANCED_FACE('',(#42),#353,.T.);
#366=ADVANCED_FACE('',(#43),#354,.T.);
#367=ADVANCED_FACE('',(#44),#15,.T.);
#368=ADVANCED_FACE('',(#45),#16,.T.);
#369=ADVANCED_FACE('',(#46),#355,.T.);
#370=ADVANCED_FACE('',(#47),#356,.F.);
#371=ADVANCED_FACE('',(#48),#28,.F.);
#372=ADVANCED_FACE('',(#49),#29,.T.);
#373=ADVANCED_FACE('',(#50),#30,.T.);
#374=ADVANCED_FACE('',(#51),#31,.T.);
#375=ADVANCED_FACE('',(#52),#32,.T.);
#376=ADVANCED_FACE('',(#53),#33,.T.);
#377=CLOSED_SHELL('',(#357,#358,#359,#360,#361,#362,#363,#364,#365,#366,
#367,#368,#369,#370,#371,#372,#373,#374,#375,#376));
#378=DERIVED_UNIT_ELEMENT(#380,1.);
#379=DERIVED_UNIT_ELEMENT(#703,-3.);
#380=(
MASS_UNIT()
NAMED_UNIT(*)
SI_UNIT(.KILO.,.GRAM.)
);
#381=DERIVED_UNIT((#378,#379));
#382=MEASURE_REPRESENTATION_ITEM('density measure',
POSITIVE_RATIO_MEASURE(7850.),#381);
#383=PROPERTY_DEFINITION_REPRESENTATION(#388,#385);
#384=PROPERTY_DEFINITION_REPRESENTATION(#389,#386);
#385=REPRESENTATION('material name',(#387),#700);
#386=REPRESENTATION('density',(#382),#700);
#387=DESCRIPTIVE_REPRESENTATION_ITEM('Acier','Acier');
#388=PROPERTY_DEFINITION('material property','material name',#710);
#389=PROPERTY_DEFINITION('material property','density of part',#710);
#390=AXIS2_PLACEMENT_3D('',#531,#427,#428);
#391=AXIS2_PLACEMENT_3D('',#532,#429,#430);
#392=AXIS2_PLACEMENT_3D('',#535,#431,#432);
#393=AXIS2_PLACEMENT_3D('',#539,#434,#435);
#394=AXIS2_PLACEMENT_3D('',#541,#437,#438);
#395=AXIS2_PLACEMENT_3D('',#543,#439,#440);
#396=AXIS2_PLACEMENT_3D('',#546,#442,#443);
#397=AXIS2_PLACEMENT_3D('',#547,#444,#445);
#398=AXIS2_PLACEMENT_3D('',#550,#446,#447);
#399=AXIS2_PLACEMENT_3D('',#554,#449,#450);
#400=AXIS2_PLACEMENT_3D('',#556,#452,#453);
#401=AXIS2_PLACEMENT_3D('',#562,#457,#458);
#402=AXIS2_PLACEMENT_3D('',#564,#459,#460);
#403=AXIS2_PLACEMENT_3D('',#566,#461,#462);
#404=AXIS2_PLACEMENT_3D('',#568,#464,#465);
#405=AXIS2_PLACEMENT_3D('',#584,#469,#470);
#406=AXIS2_PLACEMENT_3D('',#593,#475,#476);
#407=AXIS2_PLACEMENT_3D('',#595,#477,#478);
#408=AXIS2_PLACEMENT_3D('',#598,#480,#481);
#409=AXIS2_PLACEMENT_3D('',#599,#482,#483);
#410=AXIS2_PLACEMENT_3D('',#603,#485,#486);
#411=AXIS2_PLACEMENT_3D('',#605,#488,#489);
#412=AXIS2_PLACEMENT_3D('',#606,#490,#491);
#413=AXIS2_PLACEMENT_3D('',#607,#492,#493);
#414=AXIS2_PLACEMENT_3D('',#638,#496,#497);
#415=AXIS2_PLACEMENT_3D('',#640,#498,#499);
#416=AXIS2_PLACEMENT_3D('',#657,#500,#501);
#417=AXIS2_PLACEMENT_3D('',#659,#502,#503);
#418=AXIS2_PLACEMENT_3D('',#673,#504,#505);
#419=AXIS2_PLACEMENT_3D('',#678,#506,#507);
#420=AXIS2_PLACEMENT_3D('',#680,#509,#510);
#421=AXIS2_PLACEMENT_3D('',#681,#511,#512);
#422=AXIS2_PLACEMENT_3D('',#683,#514,#515);
#423=AXIS2_PLACEMENT_3D('',#689,#519,#520);
#424=AXIS2_PLACEMENT_3D('',#691,#522,#523);
#425=AXIS2_PLACEMENT_3D('',#695,#526,#527);
#426=AXIS2_PLACEMENT_3D('',#697,#529,#530);
#427=DIRECTION('axis',(0.,0.,1.));
#428=DIRECTION('refdir',(1.,0.,0.));
#429=DIRECTION('center_axis',(0.,1.,0.));
#430=DIRECTION('ref_axis',(0.875595035770915,0.,-0.483045891539645));
#431=DIRECTION('center_axis',(0.,-1.,0.));
#432=DIRECTION('ref_axis',(0.875595035770915,0.,-0.483045891539645));
#433=DIRECTION('',(0.,1.,0.));
#434=DIRECTION('center_axis',(0.,1.,0.));
#435=DIRECTION('ref_axis',(0.875595035770915,0.,-0.483045891539645));
#436=DIRECTION('',(0.,-1.,0.));
#437=DIRECTION('center_axis',(0.,1.,0.));
#438=DIRECTION('ref_axis',(-0.988738033245963,0.,-0.149656612326035));
#439=DIRECTION('center_axis',(0.,1.,0.));
#440=DIRECTION('ref_axis',(1.,0.,0.));
#441=DIRECTION('',(0.,-1.,0.));
#442=DIRECTION('center_axis',(0.,1.,0.));
#443=DIRECTION('ref_axis',(1.,0.,0.));
#444=DIRECTION('center_axis',(0.,1.,0.));
#445=DIRECTION('ref_axis',(-0.875595035770913,0.,-0.483045891539648));
#446=DIRECTION('center_axis',(0.,-1.,0.));
#447=DIRECTION('ref_axis',(-0.875595035770913,0.,-0.483045891539648));
#448=DIRECTION('',(0.,1.,0.));
#449=DIRECTION('center_axis',(0.,1.,0.));
#450=DIRECTION('ref_axis',(-0.875595035770913,0.,-0.483045891539648));
#451=DIRECTION('',(0.,-1.,0.));
#452=DIRECTION('center_axis',(0.,0.,1.));
#453=DIRECTION('ref_axis',(1.,0.,0.));
#454=DIRECTION('',(1.,0.,0.));
#455=DIRECTION('',(0.,1.,0.));
#456=DIRECTION('',(1.,0.,0.));
#457=DIRECTION('center_axis',(0.,1.,0.));
#458=DIRECTION('ref_axis',(-0.441217973396167,0.,0.897399966543447));
#459=DIRECTION('center_axis',(0.,-1.,0.));
#460=DIRECTION('ref_axis',(-0.441217973396167,0.,0.897399966543447));
#461=DIRECTION('center_axis',(0.,1.,0.));
#462=DIRECTION('ref_axis',(-0.441217973396167,0.,0.897399966543447));
#463=DIRECTION('',(0.,1.,0.));
#464=DIRECTION('center_axis',(-0.384615384615385,0.,-0.923076923076923));
#465=DIRECTION('ref_axis',(-0.923076923076923,0.,0.384615384615385));
#466=DIRECTION('',(-0.923076923076923,0.,0.384615384615385));
#467=DIRECTION('',(0.,-1.,0.));
#468=DIRECTION('',(0.923076923076923,0.,-0.384615384615385));
#469=DIRECTION('center_axis',(0.,1.,0.));
#470=DIRECTION('ref_axis',(1.,0.,0.));
#471=DIRECTION('',(1.,0.,0.));
#472=DIRECTION('',(0.,0.,1.));
#473=DIRECTION('',(-1.,0.,0.));
#474=DIRECTION('',(0.,0.,-1.));
#475=DIRECTION('center_axis',(0.,1.,0.));
#476=DIRECTION('ref_axis',(1.,0.,0.));
#477=DIRECTION('center_axis',(0.,1.,0.));
#478=DIRECTION('ref_axis',(0.441217952640923,0.,0.897399976748023));
#479=DIRECTION('',(-0.923076923076923,0.,-0.384615384615385));
#480=DIRECTION('center_axis',(0.,-1.,0.));
#481=DIRECTION('ref_axis',(2.88487633781642E-8,0.,-1.));
#482=DIRECTION('center_axis',(0.,-1.,0.));
#483=DIRECTION('ref_axis',(0.441217952640923,0.,0.897399976748023));
#484=DIRECTION('',(0.,1.,0.));
#485=DIRECTION('center_axis',(0.,-1.,0.));
#486=DIRECTION('ref_axis',(0.441217952640923,0.,0.897399976748023));
#487=DIRECTION('',(0.,-1.,0.));
#488=DIRECTION('center_axis',(0.,1.,0.));
#489=DIRECTION('ref_axis',(1.,0.,0.));
#490=DIRECTION('center_axis',(0.,1.,0.));
#491=DIRECTION('ref_axis',(1.,0.,0.));
#492=DIRECTION('center_axis',(0.,1.,0.));
#493=DIRECTION('ref_axis',(-0.891708215387612,0.,0.452610714201774));
#494=DIRECTION('',(0.,-1.,0.));
#495=DIRECTION('',(0.,1.,0.));
#496=DIRECTION('center_axis',(0.,-1.,0.));
#497=DIRECTION('ref_axis',(0.,0.,-1.));
#498=DIRECTION('center_axis',(0.,1.,0.));
#499=DIRECTION('ref_axis',(2.88487633781642E-8,0.,-1.));
#500=DIRECTION('center_axis',(0.,-1.,0.));
#501=DIRECTION('ref_axis',(0.,0.,-1.));
#502=DIRECTION('center_axis',(0.,1.,0.));
#503=DIRECTION('ref_axis',(2.88487633781642E-8,0.,-1.));
#504=DIRECTION('center_axis',(0.,-1.,0.));
#505=DIRECTION('ref_axis',(2.88487633781642E-8,0.,-1.));
#506=DIRECTION('center_axis',(0.,-1.,0.));
#507=DIRECTION('ref_axis',(0.891708202879047,0.,0.452610738845447));
#508=DIRECTION('',(0.,1.,0.));
#509=DIRECTION('center_axis',(0.,1.,0.));
#510=DIRECTION('ref_axis',(2.76364753916716E-8,0.,-1.));
#511=DIRECTION('center_axis',(0.384615384615385,0.,-0.923076923076923));
#512=DIRECTION('ref_axis',(-0.923076923076923,0.,-0.384615384615385));
#513=DIRECTION('',(0.923076923076923,0.,0.384615384615385));
#514=DIRECTION('center_axis',(0.,0.,-1.));
#515=DIRECTION('ref_axis',(-1.,0.,0.));
#516=DIRECTION('',(0.,1.,0.));
#517=DIRECTION('',(-1.,0.,0.));
#518=DIRECTION('',(0.,1.,0.));
#519=DIRECTION('center_axis',(1.,0.,0.));
#520=DIRECTION('ref_axis',(0.,0.,-1.));
#521=DIRECTION('',(0.,0.,-1.));
#522=DIRECTION('center_axis',(0.,0.,1.));
#523=DIRECTION('ref_axis',(1.,0.,0.));
#524=DIRECTION('',(1.,0.,0.));
#525=DIRECTION('',(0.,1.,0.));
#526=DIRECTION('center_axis',(-1.,0.,0.));
#527=DIRECTION('ref_axis',(0.,0.,1.));
#528=DIRECTION('',(0.,0.,1.));
#529=DIRECTION('center_axis',(0.,1.,0.));
#530=DIRECTION('ref_axis',(1.,0.,0.));
#531=CARTESIAN_POINT('',(0.,0.,0.));
#532=CARTESIAN_POINT('Origin',(-62.6885775404495,0.,-8.));
#533=CARTESIAN_POINT('',(-62.6885775404495,0.,-10.));
#534=CARTESIAN_POINT('',(-60.9967672017229,0.,-6.93333333333334));
#535=CARTESIAN_POINT('Origin',(-62.6885775404495,0.,-8.));
#536=CARTESIAN_POINT('',(-60.9967672017229,40.,-6.93333333333334));
#537=CARTESIAN_POINT('',(-60.9967672017229,0.,-6.93333333333334));
#538=CARTESIAN_POINT('',(-62.6885775404495,40.,-10.));
#539=CARTESIAN_POINT('Origin',(-62.6885775404495,40.,-8.));
#540=CARTESIAN_POINT('',(-62.6885775404495,0.,-10.));
#541=CARTESIAN_POINT('Origin',(-50.,0.,0.));
#542=CARTESIAN_POINT('',(-62.5560428690599,0.,3.3683508532116));
#543=CARTESIAN_POINT('Origin',(-50.,0.,0.));
#544=CARTESIAN_POINT('',(-62.5560428690599,40.,3.3683508532116));
#545=CARTESIAN_POINT('',(-62.5560428690599,0.,3.3683508532116));
#546=CARTESIAN_POINT('Origin',(-50.,40.,0.));
#547=CARTESIAN_POINT('Origin',(-37.3114224595505,0.,-8.));
#548=CARTESIAN_POINT('',(-39.0032327982771,0.,-6.93333333333334));
#549=CARTESIAN_POINT('',(-37.3114224595505,0.,-10.));
#550=CARTESIAN_POINT('Origin',(-37.3114224595505,0.,-8.));
#551=CARTESIAN_POINT('',(-37.3114224595505,40.,-10.));
#552=CARTESIAN_POINT('',(-37.3114224595505,0.,-10.));
#553=CARTESIAN_POINT('',(-39.0032327982771,40.,-6.93333333333334));
#554=CARTESIAN_POINT('Origin',(-37.3114224595505,40.,-8.));
#555=CARTESIAN_POINT('',(-39.0032327982771,0.,-6.93333333333333));
#556=CARTESIAN_POINT('Origin',(-41.6933761370819,0.,-10.));
#557=CARTESIAN_POINT('',(-30.,0.,-10.));
#558=CARTESIAN_POINT('',(-70.,0.,-10.));
#559=CARTESIAN_POINT('',(-30.,40.,-10.));
#560=CARTESIAN_POINT('',(-30.,0.,-10.));
#561=CARTESIAN_POINT('',(-70.,40.,-10.));
#562=CARTESIAN_POINT('Origin',(-62.0731181433268,0.,3.23879889731885));
#563=CARTESIAN_POINT('',(-61.8808104510191,40.,3.70033735885731));
#564=CARTESIAN_POINT('Origin',(-62.0731181433268,40.,3.23879889731885));
#565=CARTESIAN_POINT('',(-61.8808104510191,0.,3.70033735885731));
#566=CARTESIAN_POINT('Origin',(-62.0731181433268,0.,3.23879889731885));
#567=CARTESIAN_POINT('',(-61.8808104510191,0.,3.70033735885731));
#568=CARTESIAN_POINT('Origin',(-59.6129029743023,0.,2.75537591022532));
#569=CARTESIAN_POINT('',(-60.0773956516371,0.,2.9489145257815));
#570=CARTESIAN_POINT('',(-55.0283450366897,0.,0.845143436220076));
#571=CARTESIAN_POINT('',(-60.0151107735057,0.00451799259540968,2.92296249322672));
#572=CARTESIAN_POINT('Ctrl Pts',(-60.0151107735057,0.00451799259540968,
2.92296249322672));
#573=CARTESIAN_POINT('Ctrl Pts',(-60.0364069287762,0.0014144875667846,2.93183589125612));
#574=CARTESIAN_POINT('Ctrl Pts',(-60.0575310137218,-9.62990619977469E-17,
2.94063759331676));
#575=CARTESIAN_POINT('Ctrl Pts',(-60.0773956516371,-3.50086200541648E-31,
2.9489145257815));
#576=CARTESIAN_POINT('',(-60.0151107735057,39.9954820074046,2.92296249322672));
#577=CARTESIAN_POINT('',(-60.0151107735057,0.,2.92296249322672));
#578=CARTESIAN_POINT('',(-60.0773956516371,40.,2.9489145257815));
#579=CARTESIAN_POINT('Ctrl Pts',(-60.0773956516371,40.,2.9489145257815));
#580=CARTESIAN_POINT('Ctrl Pts',(-60.0575310137214,40.,2.9406375933166));
#581=CARTESIAN_POINT('Ctrl Pts',(-60.0364069287767,39.9985855124333,2.93183589125631));
#582=CARTESIAN_POINT('Ctrl Pts',(-60.0151107735057,39.9954820074046,2.92296249322672));
#583=CARTESIAN_POINT('',(-55.0283450366897,40.,0.845143436220076));
#584=CARTESIAN_POINT('Origin',(-50.,0.,0.));
#585=CARTESIAN_POINT('',(-70.,0.,-10.));
#586=CARTESIAN_POINT('',(-70.,0.,-10.));
#587=CARTESIAN_POINT('',(-70.,0.,-13.));
#588=CARTESIAN_POINT('',(-70.,0.,-13.));
#589=CARTESIAN_POINT('',(-30.,0.,-13.));
#590=CARTESIAN_POINT('',(-30.,0.,-13.));
#591=CARTESIAN_POINT('',(-30.,0.,-10.));
#592=CARTESIAN_POINT('',(-37.4439572867479,0.,3.3683514340087));
#593=CARTESIAN_POINT('Origin',(-50.,0.,0.));
#594=CARTESIAN_POINT('',(-38.119189698796,0.,3.70033791731605));
#595=CARTESIAN_POINT('Origin',(-37.9268820064884,0.,3.23879945577759));
#596=CARTESIAN_POINT('',(-39.9226045103043,0.,2.94891507918763));
#597=CARTESIAN_POINT('',(-43.5798934664887,0.,1.42504468077746));
#598=CARTESIAN_POINT('Origin',(-50.,0.,0.));
#599=CARTESIAN_POINT('Origin',(-37.9268820064884,0.,3.23879945577759));
#600=CARTESIAN_POINT('',(-37.4439572867479,40.,3.3683514340087));
#601=CARTESIAN_POINT('',(-37.4439572867479,0.,3.3683514340087));
#602=CARTESIAN_POINT('',(-38.119189698796,40.,3.70033791731605));
#603=CARTESIAN_POINT('Origin',(-37.9268820064884,40.,3.23879945577759));
#604=CARTESIAN_POINT('',(-38.119189698796,0.,3.70033791731605));
#605=CARTESIAN_POINT('Origin',(-50.,0.,0.));
#606=CARTESIAN_POINT('Origin',(-50.,40.,0.));
#607=CARTESIAN_POINT('Origin',(-39.7925816702368,0.,2.46142459588239));
#608=CARTESIAN_POINT('',(-40.2786492097494,39.5,2.34421390084037));
#609=CARTESIAN_POINT('',(-40.2786492097494,0.5,2.34421390084038));
#610=CARTESIAN_POINT('',(-40.2786492097494,0.,2.34421390084037));
#611=CARTESIAN_POINT('',(-39.9848893625445,0.00451798887773205,2.92296305742086));
#612=CARTESIAN_POINT('Ctrl Pts',(-40.2786492097494,0.5,2.34421390084038));
#613=CARTESIAN_POINT('Ctrl Pts',(-40.2788900688604,0.498947164569177,2.34521273286184));
#614=CARTESIAN_POINT('Ctrl Pts',(-40.2791278498753,0.497894326121298,2.34621231016646));
#615=CARTESIAN_POINT('Ctrl Pts',(-40.2949701406719,0.426828289224439,2.41373346179459));
#616=CARTESIAN_POINT('Ctrl Pts',(-40.2971572969386,0.355948553761536,2.48437044716881));
#617=CARTESIAN_POINT('Ctrl Pts',(-40.2722065807658,0.231906747771247,2.61578486630099));
#618=CARTESIAN_POINT('Ctrl Pts',(-40.2485726032338,0.176292320445255,2.67808800271296));
#619=CARTESIAN_POINT('Ctrl Pts',(-40.1828217543327,0.0948966349860611,2.77795314491825));
#620=CARTESIAN_POINT('Ctrl Pts',(-40.147728752948,0.0649369755530791,2.81774628949404));
#621=CARTESIAN_POINT('Ctrl Pts',(-40.0691138533105,0.0240730353578246,2.88040694591296));
#622=CARTESIAN_POINT('Ctrl Pts',(-40.029171152124,0.0109712053585092,2.90451231176275));
#623=CARTESIAN_POINT('Ctrl Pts',(-39.9848893625445,0.00451798887773215,
2.92296305742086));
#624=CARTESIAN_POINT('',(-39.9848893625445,39.9954820111223,2.92296305742086));
#625=CARTESIAN_POINT('',(-39.9848893625445,0.,2.92296305742086));
#626=CARTESIAN_POINT('Ctrl Pts',(-39.9848893625445,39.9954820111223,2.92296305742086));
#627=CARTESIAN_POINT('Ctrl Pts',(-40.029171152124,39.9890287946415,2.90451231176274));
#628=CARTESIAN_POINT('Ctrl Pts',(-40.0691138533105,39.9759269646422,2.88040694591296));
#629=CARTESIAN_POINT('Ctrl Pts',(-40.147728752948,39.9350630244469,2.81774628949404));
#630=CARTESIAN_POINT('Ctrl Pts',(-40.1828217543327,39.9051033650139,2.77795314491825));
#631=CARTESIAN_POINT('Ctrl Pts',(-40.2485726032338,39.8237076795547,2.67808800271296));
#632=CARTESIAN_POINT('Ctrl Pts',(-40.2722065807658,39.7680932522288,2.61578486630099));
#633=CARTESIAN_POINT('Ctrl Pts',(-40.2971572969386,39.6440514462385,2.48437044716881));
#634=CARTESIAN_POINT('Ctrl Pts',(-40.2949701406719,39.5731717107755,2.41373346179457));
#635=CARTESIAN_POINT('Ctrl Pts',(-40.2791278498753,39.5021056738787,2.34621231016646));
#636=CARTESIAN_POINT('Ctrl Pts',(-40.2788900688604,39.5010528354308,2.34521273286184));
#637=CARTESIAN_POINT('Ctrl Pts',(-40.2786492097494,39.5,2.34421390084038));
#638=CARTESIAN_POINT('Origin',(-50.,0.5,0.));
#639=CARTESIAN_POINT('',(-59.7213509198222,0.5,2.34421336351263));
#640=CARTESIAN_POINT('Origin',(-50.,0.5,0.));
#641=CARTESIAN_POINT('Ctrl Pts',(-59.7213509198222,0.5,2.34421336351263));
#642=CARTESIAN_POINT('Ctrl Pts',(-59.7211100607666,0.498947164569902,2.34521219554672));
#643=CARTESIAN_POINT('Ctrl Pts',(-59.7208722798066,0.497894326120512,2.34621177286592));
#644=CARTESIAN_POINT('Ctrl Pts',(-59.7050299960058,0.426828303863841,2.41373291145975));
#645=CARTESIAN_POINT('Ctrl Pts',(-59.7028428413389,0.355948583599427,2.48436988113513));
#646=CARTESIAN_POINT('Ctrl Pts',(-59.7277935504554,0.231906784128201,2.61578428846375));
#647=CARTESIAN_POINT('Ctrl Pts',(-59.7514275276394,0.176292350604732,2.67808742872031));
#648=CARTESIAN_POINT('Ctrl Pts',(-59.8171783778262,0.0948966550958105,2.77795257619424));
#649=CARTESIAN_POINT('Ctrl Pts',(-59.8522713801046,0.0649369914888494,2.81774572266056));
#650=CARTESIAN_POINT('Ctrl Pts',(-59.9308862814973,0.0240730446993794,2.88040638093051));
#651=CARTESIAN_POINT('Ctrl Pts',(-59.9708289831142,0.0109712118460371,2.90451174723028));
#652=CARTESIAN_POINT('Ctrl Pts',(-60.0151107735057,0.00451799259541077,
2.92296249322672));
#653=CARTESIAN_POINT('Ctrl Pts',(-39.9226045103043,2.46519032881566E-31,
2.94891507918763));
#654=CARTESIAN_POINT('Ctrl Pts',(-39.9424691401738,9.36795426508606E-17,
2.94063815007532));
#655=CARTESIAN_POINT('Ctrl Pts',(-39.9635932160514,0.00141448640343407,
2.93183645179298));
#656=CARTESIAN_POINT('Ctrl Pts',(-39.9848893625445,0.00451798887773219,
2.92296305742086));
#657=CARTESIAN_POINT('Origin',(-50.,39.5,0.));
#658=CARTESIAN_POINT('',(-39.9226045103043,40.,2.94891507918763));
#659=CARTESIAN_POINT('Origin',(-50.,40.,0.));
#660=CARTESIAN_POINT('',(-59.7213509198222,39.5,2.34421336351263));
#661=CARTESIAN_POINT('Ctrl Pts',(-60.0151107735057,39.9954820074046,2.92296249322672));
#662=CARTESIAN_POINT('Ctrl Pts',(-59.9708289831142,39.989028788154,2.90451174723028));
#663=CARTESIAN_POINT('Ctrl Pts',(-59.9308862814973,39.9759269553006,2.88040638093051));
#664=CARTESIAN_POINT('Ctrl Pts',(-59.8522713801046,39.9350630085112,2.81774572266056));
#665=CARTESIAN_POINT('Ctrl Pts',(-59.8171783778262,39.9051033449042,2.77795257619424));
#666=CARTESIAN_POINT('Ctrl Pts',(-59.7514275276394,39.8237076493953,2.67808742872031));
#667=CARTESIAN_POINT('Ctrl Pts',(-59.7277935504554,39.7680932158718,2.61578428846375));
#668=CARTESIAN_POINT('Ctrl Pts',(-59.702842841339,39.6440514164006,2.48436988113516));
#669=CARTESIAN_POINT('Ctrl Pts',(-59.7050299960057,39.5731716961363,2.41373291145992));
#670=CARTESIAN_POINT('Ctrl Pts',(-59.7208722798066,39.5021056738795,2.34621177286592));
#671=CARTESIAN_POINT('Ctrl Pts',(-59.7211100607666,39.5010528354301,2.34521219554672));
#672=CARTESIAN_POINT('Ctrl Pts',(-59.7213509198222,39.5,2.34421336351263));
#673=CARTESIAN_POINT('Origin',(-50.,39.5,0.));
#674=CARTESIAN_POINT('Ctrl Pts',(-39.9848893625445,39.9954820111223,2.92296305742086));
#675=CARTESIAN_POINT('Ctrl Pts',(-39.9635932160519,39.9985855135965,2.93183645179279));
#676=CARTESIAN_POINT('Ctrl Pts',(-39.9424691401734,40.,2.94063815007549));
#677=CARTESIAN_POINT('Ctrl Pts',(-39.9226045103043,40.,2.94891507918763));
#678=CARTESIAN_POINT('Origin',(-60.2074184658134,0.,2.46142403168826));
#679=CARTESIAN_POINT('',(-59.7213509198222,0.,2.34421336351263));
#680=CARTESIAN_POINT('Origin',(-50.,0.,0.));
#681=CARTESIAN_POINT('Origin',(-37.6035738116231,0.,3.91517787030477));
#682=CARTESIAN_POINT('',(-43.5798934664887,40.,1.42504468077746));
#683=CARTESIAN_POINT('Origin',(-30.,0.,-13.));
#684=CARTESIAN_POINT('',(-70.,40.,-13.));
#685=CARTESIAN_POINT('',(-70.,0.,-13.));
#686=CARTESIAN_POINT('',(-30.,40.,-13.));
#687=CARTESIAN_POINT('',(-30.,40.,-13.));
#688=CARTESIAN_POINT('',(-30.,0.,-13.));
#689=CARTESIAN_POINT('Origin',(-30.,0.,-10.));
#690=CARTESIAN_POINT('',(-30.,40.,-10.));
#691=CARTESIAN_POINT('Origin',(-70.,0.,-10.));
#692=CARTESIAN_POINT('',(-70.,40.,-10.));
#693=CARTESIAN_POINT('',(-70.,40.,-10.));
#694=CARTESIAN_POINT('',(-70.,0.,-10.));
#695=CARTESIAN_POINT('Origin',(-70.,0.,-13.));
#696=CARTESIAN_POINT('',(-70.,40.,-13.));
#697=CARTESIAN_POINT('Origin',(-50.,40.,0.));
#698=UNCERTAINTY_MEASURE_WITH_UNIT(LENGTH_MEASURE(0.01),#702,
'DISTANCE_ACCURACY_VALUE',
'Maximum model space distance between geometric entities at asserted c
onnectivities');
#699=UNCERTAINTY_MEASURE_WITH_UNIT(LENGTH_MEASURE(0.01),#702,
'DISTANCE_ACCURACY_VALUE',
'Maximum model space distance between geometric entities at asserted c
onnectivities');
#700=(
GEOMETRIC_REPRESENTATION_CONTEXT(3)
GLOBAL_UNCERTAINTY_ASSIGNED_CONTEXT((#698))
GLOBAL_UNIT_ASSIGNED_CONTEXT((#702,#704,#705))
REPRESENTATION_CONTEXT('','3D')
);
#701=(
GEOMETRIC_REPRESENTATION_CONTEXT(3)
GLOBAL_UNCERTAINTY_ASSIGNED_CONTEXT((#699))
GLOBAL_UNIT_ASSIGNED_CONTEXT((#702,#704,#705))
REPRESENTATION_CONTEXT('','3D')
);
#702=(
LENGTH_UNIT()
NAMED_UNIT(*)
SI_UNIT(.MILLI.,.METRE.)
);
#703=(
LENGTH_UNIT()
NAMED_UNIT(*)
SI_UNIT($,.METRE.)
);
#704=(
NAMED_UNIT(*)
PLANE_ANGLE_UNIT()
SI_UNIT($,.RADIAN.)
);
#705=(
NAMED_UNIT(*)
SI_UNIT($,.STERADIAN.)
SOLID_ANGLE_UNIT()
);
#706=SHAPE_DEFINITION_REPRESENTATION(#707,#708);
#707=PRODUCT_DEFINITION_SHAPE('',$,#710);
#708=SHAPE_REPRESENTATION('',(#390),#700);
#709=PRODUCT_DEFINITION_CONTEXT('part definition',#714,'design');
#710=PRODUCT_DEFINITION('(Non enregistr\X\E9)','(Non enregistr\X\E9)',#711,
#709);
#711=PRODUCT_DEFINITION_FORMATION('',$,#716);
#712=PRODUCT_RELATED_PRODUCT_CATEGORY('(Non enregistr\X\E9)',
'(Non enregistr\X\E9)',(#716));
#713=APPLICATION_PROTOCOL_DEFINITION('international standard',
'automotive_design',2009,#714);
#714=APPLICATION_CONTEXT(
'Core Data for Automotive Mechanical Design Process');
#715=PRODUCT_CONTEXT('part definition',#714,'mechanical');
#716=PRODUCT('(Non enregistr\X\E9)','(Non enregistr\X\E9)',$,(#715));
#717=PRESENTATION_STYLE_ASSIGNMENT((#718));
#718=SURFACE_STYLE_USAGE(.BOTH.,#719);
#719=SURFACE_SIDE_STYLE('',(#720));
#720=SURFACE_STYLE_FILL_AREA(#721);
#721=FILL_AREA_STYLE('Acier - Satin\X\E9',(#722));
#722=FILL_AREA_STYLE_COLOUR('Acier - Satin\X\E9',#723);
#723=COLOUR_RGB('Acier - Satin\X\E9',0.627450980392157,0.627450980392157,
0.627450980392157);
ENDSEC;
END-ISO-10303-21;
