ISO-10303-21;
HEADER;
/* Generated by software containing ST-Developer
 * from STEP Tools, Inc. (www.steptools.com) 
 */

FILE_DESCRIPTION(
/* description */ (''),
/* implementation_level */ '2;1');

FILE_NAME(
/* name */ 'boite_domino_75_40_20.step',
/* time_stamp */ '2026-01-15T16:47:25+01:00',
/* author */ (''),
/* organization */ (''),
/* preprocessor_version */ 'ST-DEVELOPER v20.1',
/* originating_system */ 'Autodesk Translation Framework v14.21.0.0',
/* authorisation */ '');

FILE_SCHEMA (('AUTOMOTIVE_DESIGN { 1 0 10303 214 3 1 1 }'));
ENDSEC;

DATA;
#10=MECHANICAL_DESIGN_GEOMETRIC_PRESENTATION_REPRESENTATION('',(#17),#1285);
#11=ITEM_DEFINED_TRANSFORMATION($,$,#689,#760);
#12=(
REPRESENTATION_RELATIONSHIP($,$,#1296,#1295)
REPRESENTATION_RELATIONSHIP_WITH_TRANSFORMATION(#11)
SHAPE_REPRESENTATION_RELATIONSHIP()
);
#13=CONTEXT_DEPENDENT_SHAPE_REPRESENTATION(#12,#1294);
#14=NEXT_ASSEMBLY_USAGE_OCCURRENCE('boite:1','boite:1','boite:1',#1298,
#1299,'boite:1');
#15=SHAPE_REPRESENTATION_RELATIONSHIP('SRR','None',#1296,#16);
#16=ADVANCED_BREP_SHAPE_REPRESENTATION('',(#18),#1284);
#17=STYLED_ITEM('',(#1309),#18);
#18=MANIFOLD_SOLID_BREP('Corps1',#675);
#19=PLANE('',#706);
#20=PLANE('',#709);
#21=PLANE('',#712);
#22=PLANE('',#716);
#23=PLANE('',#719);
#24=PLANE('',#723);
#25=PLANE('',#728);
#26=PLANE('',#731);
#27=PLANE('',#735);
#28=PLANE('',#740);
#29=PLANE('',#741);
#30=PLANE('',#745);
#31=PLANE('',#747);
#32=PLANE('',#749);
#33=PLANE('',#752);
#34=PLANE('',#755);
#35=PLANE('',#758);
#36=PLANE('',#759);
#37=LINE('',#1114,#97);
#38=LINE('',#1115,#98);
#39=LINE('',#1117,#99);
#40=LINE('',#1118,#100);
#41=LINE('',#1120,#101);
#42=LINE('',#1121,#102);
#43=LINE('',#1123,#103);
#44=LINE('',#1124,#104);
#45=LINE('',#1127,#105);
#46=LINE('',#1129,#106);
#47=LINE('',#1131,#107);
#48=LINE('',#1133,#108);
#49=LINE('',#1135,#109);
#50=LINE('',#1137,#110);
#51=LINE('',#1139,#111);
#52=LINE('',#1141,#112);
#53=LINE('',#1143,#113);
#54=LINE('',#1145,#114);
#55=LINE('',#1146,#115);
#56=LINE('',#1149,#116);
#57=LINE('',#1153,#117);
#58=LINE('',#1154,#118);
#59=LINE('',#1157,#119);
#60=LINE('',#1164,#120);
#61=LINE('',#1168,#121);
#62=LINE('',#1172,#122);
#63=LINE('',#1176,#123);
#64=LINE('',#1177,#124);
#65=LINE('',#1182,#125);
#66=LINE('',#1186,#126);
#67=LINE('',#1190,#127);
#68=LINE('',#1193,#128);
#69=LINE('',#1197,#129);
#70=LINE('',#1201,#130);
#71=LINE('',#1202,#131);
#72=LINE('',#1205,#132);
#73=LINE('',#1209,#133);
#74=LINE('',#1210,#134);
#75=LINE('',#1216,#135);
#76=LINE('',#1219,#136);
#77=LINE('',#1223,#137);
#78=LINE('',#1227,#138);
#79=LINE('',#1230,#139);
#80=LINE('',#1232,#140);
#81=LINE('',#1237,#141);
#82=LINE('',#1241,#142);
#83=LINE('',#1244,#143);
#84=LINE('',#1246,#144);
#85=LINE('',#1248,#145);
#86=LINE('',#1250,#146);
#87=LINE('',#1254,#147);
#88=LINE('',#1255,#148);
#89=LINE('',#1259,#149);
#90=LINE('',#1262,#150);
#91=LINE('',#1263,#151);
#92=LINE('',#1267,#152);
#93=LINE('',#1270,#153);
#94=LINE('',#1271,#154);
#95=LINE('',#1274,#155);
#96=LINE('',#1277,#156);
#97=VECTOR('',#791,10.);
#98=VECTOR('',#792,10.);
#99=VECTOR('',#795,10.);
#100=VECTOR('',#796,10.);
#101=VECTOR('',#799,10.);
#102=VECTOR('',#800,10.);
#103=VECTOR('',#803,10.);
#104=VECTOR('',#804,10.);
#105=VECTOR('',#807,10.);
#106=VECTOR('',#808,10.);
#107=VECTOR('',#809,10.);
#108=VECTOR('',#810,10.);
#109=VECTOR('',#811,10.);
#110=VECTOR('',#812,10.);
#111=VECTOR('',#813,10.);
#112=VECTOR('',#814,10.);
#113=VECTOR('',#815,10.);
#114=VECTOR('',#816,10.);
#115=VECTOR('',#817,10.);
#116=VECTOR('',#820,10.);
#117=VECTOR('',#825,10.);
#118=VECTOR('',#826,10.);
#119=VECTOR('',#829,10.);
#120=VECTOR('',#838,10.);
#121=VECTOR('',#843,10.);
#122=VECTOR('',#846,10.);
#123=VECTOR('',#851,10.);
#124=VECTOR('',#852,10.);
#125=VECTOR('',#857,10.);
#126=VECTOR('',#862,10.);
#127=VECTOR('',#865,10.);
#128=VECTOR('',#868,10.);
#129=VECTOR('',#871,10.);
#130=VECTOR('',#876,10.);
#131=VECTOR('',#877,10.);
#132=VECTOR('',#880,10.);
#133=VECTOR('',#885,10.);
#134=VECTOR('',#886,10.);
#135=VECTOR('',#893,10.);
#136=VECTOR('',#896,10.);
#137=VECTOR('',#901,10.);
#138=VECTOR('',#904,10.);
#139=VECTOR('',#907,10.);
#140=VECTOR('',#910,10.);
#141=VECTOR('',#915,10.);
#142=VECTOR('',#918,10.);
#143=VECTOR('',#921,10.);
#144=VECTOR('',#924,10.);
#145=VECTOR('',#927,10.);
#146=VECTOR('',#930,10.);
#147=VECTOR('',#935,10.);
#148=VECTOR('',#936,10.);
#149=VECTOR('',#941,10.);
#150=VECTOR('',#944,10.);
#151=VECTOR('',#945,10.);
#152=VECTOR('',#950,10.);
#153=VECTOR('',#953,10.);
#154=VECTOR('',#954,10.);
#155=VECTOR('',#957,10.);
#156=VECTOR('',#962,10.);
#157=CYLINDRICAL_SURFACE('',#702,5.);
#158=CYLINDRICAL_SURFACE('',#703,5.);
#159=CYLINDRICAL_SURFACE('',#704,5.);
#160=CYLINDRICAL_SURFACE('',#705,5.);
#161=CYLINDRICAL_SURFACE('',#707,2.);
#162=CYLINDRICAL_SURFACE('',#710,1.99999999999998);
#163=CYLINDRICAL_SURFACE('',#713,1.7);
#164=CYLINDRICAL_SURFACE('',#720,1.7);
#165=CYLINDRICAL_SURFACE('',#729,2.);
#166=CYLINDRICAL_SURFACE('',#732,2.);
#167=CYLINDRICAL_SURFACE('',#737,4.);
#168=CYLINDRICAL_SURFACE('',#746,2.);
#169=CYLINDRICAL_SURFACE('',#748,2.);
#170=CYLINDRICAL_SURFACE('',#750,4.);
#171=CYLINDRICAL_SURFACE('',#753,4.00000000000001);
#172=CYLINDRICAL_SURFACE('',#756,3.99999999999999);
#173=FACE_OUTER_BOUND('',#211,.T.);
#174=FACE_OUTER_BOUND('',#212,.T.);
#175=FACE_OUTER_BOUND('',#213,.T.);
#176=FACE_OUTER_BOUND('',#214,.T.);
#177=FACE_OUTER_BOUND('',#215,.T.);
#178=FACE_OUTER_BOUND('',#216,.T.);
#179=FACE_OUTER_BOUND('',#217,.T.);
#180=FACE_OUTER_BOUND('',#218,.T.);
#181=FACE_OUTER_BOUND('',#219,.T.);
#182=FACE_OUTER_BOUND('',#220,.T.);
#183=FACE_OUTER_BOUND('',#221,.T.);
#184=FACE_OUTER_BOUND('',#222,.T.);
#185=FACE_OUTER_BOUND('',#223,.T.);
#186=FACE_OUTER_BOUND('',#224,.T.);
#187=FACE_OUTER_BOUND('',#225,.T.);
#188=FACE_OUTER_BOUND('',#226,.T.);
#189=FACE_OUTER_BOUND('',#227,.T.);
#190=FACE_OUTER_BOUND('',#228,.T.);
#191=FACE_OUTER_BOUND('',#229,.T.);
#192=FACE_OUTER_BOUND('',#230,.T.);
#193=FACE_OUTER_BOUND('',#231,.T.);
#194=FACE_OUTER_BOUND('',#232,.T.);
#195=FACE_OUTER_BOUND('',#233,.T.);
#196=FACE_OUTER_BOUND('',#234,.T.);
#197=FACE_OUTER_BOUND('',#235,.T.);
#198=FACE_OUTER_BOUND('',#236,.T.);
#199=FACE_OUTER_BOUND('',#237,.T.);
#200=FACE_OUTER_BOUND('',#238,.T.);
#201=FACE_OUTER_BOUND('',#239,.T.);
#202=FACE_OUTER_BOUND('',#240,.T.);
#203=FACE_OUTER_BOUND('',#241,.T.);
#204=FACE_OUTER_BOUND('',#242,.T.);
#205=FACE_OUTER_BOUND('',#243,.T.);
#206=FACE_OUTER_BOUND('',#244,.T.);
#207=FACE_OUTER_BOUND('',#245,.T.);
#208=FACE_OUTER_BOUND('',#246,.T.);
#209=FACE_OUTER_BOUND('',#247,.T.);
#210=FACE_OUTER_BOUND('',#248,.T.);
#211=EDGE_LOOP('',(#441,#442,#443));
#212=EDGE_LOOP('',(#444,#445,#446));
#213=EDGE_LOOP('',(#447,#448,#449));
#214=EDGE_LOOP('',(#450,#451,#452));
#215=EDGE_LOOP('',(#453,#454,#455,#456));
#216=EDGE_LOOP('',(#457,#458,#459,#460));
#217=EDGE_LOOP('',(#461,#462,#463,#464));
#218=EDGE_LOOP('',(#465,#466,#467,#468));
#219=EDGE_LOOP('',(#469,#470,#471,#472,#473,#474,#475,#476,#477,#478,#479,
#480));
#220=EDGE_LOOP('',(#481,#482,#483,#484));
#221=EDGE_LOOP('',(#485,#486,#487,#488));
#222=EDGE_LOOP('',(#489,#490,#491,#492));
#223=EDGE_LOOP('',(#493,#494,#495,#496));
#224=EDGE_LOOP('',(#497,#498,#499,#500));
#225=EDGE_LOOP('',(#501,#502,#503,#504,#505,#506));
#226=EDGE_LOOP('',(#507,#508,#509,#510));
#227=EDGE_LOOP('',(#511,#512,#513,#514));
#228=EDGE_LOOP('',(#515,#516,#517,#518,#519,#520,#521,#522,#523,#524,#525,
#526,#527,#528,#529,#530));
#229=EDGE_LOOP('',(#531,#532,#533,#534));
#230=EDGE_LOOP('',(#535,#536,#537,#538));
#231=EDGE_LOOP('',(#539,#540,#541,#542));
#232=EDGE_LOOP('',(#543,#544,#545,#546));
#233=EDGE_LOOP('',(#547,#548,#549,#550,#551,#552));
#234=EDGE_LOOP('',(#553,#554,#555,#556,#557,#558,#559,#560));
#235=EDGE_LOOP('',(#561,#562,#563,#564));
#236=EDGE_LOOP('',(#565,#566,#567,#568,#569,#570,#571,#572,#573,#574,#575,
#576));
#237=EDGE_LOOP('',(#577,#578,#579,#580));
#238=EDGE_LOOP('',(#581,#582,#583,#584));
#239=EDGE_LOOP('',(#585,#586,#587,#588));
#240=EDGE_LOOP('',(#589,#590,#591,#592));
#241=EDGE_LOOP('',(#593,#594,#595,#596));
#242=EDGE_LOOP('',(#597,#598,#599,#600));
#243=EDGE_LOOP('',(#601,#602,#603,#604));
#244=EDGE_LOOP('',(#605,#606,#607,#608));
#245=EDGE_LOOP('',(#609,#610,#611,#612));
#246=EDGE_LOOP('',(#613,#614,#615,#616,#617,#618,#619,#620));
#247=EDGE_LOOP('',(#621,#622,#623,#624));
#248=EDGE_LOOP('',(#625,#626,#627,#628,#629,#630,#631,#632));
#249=ELLIPSE('',#691,5.8309518948453,5.);
#250=ELLIPSE('',#692,5.8309518948453,5.);
#251=ELLIPSE('',#694,5.8309518948453,5.);
#252=ELLIPSE('',#695,5.8309518948453,5.);
#253=ELLIPSE('',#697,5.8309518948453,5.);
#254=ELLIPSE('',#698,5.8309518948453,5.);
#255=ELLIPSE('',#700,5.83095189484531,5.);
#256=ELLIPSE('',#701,5.83095189484531,5.);
#257=CIRCLE('',#690,2.);
#258=CIRCLE('',#693,2.);
#259=CIRCLE('',#696,2.);
#260=CIRCLE('',#699,1.99999999999998);
#261=CIRCLE('',#708,2.);
#262=CIRCLE('',#711,1.99999999999998);
#263=CIRCLE('',#714,1.7);
#264=CIRCLE('',#715,1.7);
#265=CIRCLE('',#717,3.99999999999999);
#266=CIRCLE('',#718,2.);
#267=CIRCLE('',#721,1.7);
#268=CIRCLE('',#722,1.7);
#269=CIRCLE('',#724,2.);
#270=CIRCLE('',#725,2.);
#271=CIRCLE('',#726,4.);
#272=CIRCLE('',#727,3.99999999999999);
#273=CIRCLE('',#730,2.);
#274=CIRCLE('',#733,2.);
#275=CIRCLE('',#734,2.);
#276=CIRCLE('',#736,4.);
#277=CIRCLE('',#738,4.);
#278=CIRCLE('',#739,4.);
#279=CIRCLE('',#742,3.99999999999999);
#280=CIRCLE('',#743,4.00000000000001);
#281=CIRCLE('',#744,4.);
#282=CIRCLE('',#751,4.);
#283=CIRCLE('',#754,4.00000000000001);
#284=CIRCLE('',#757,3.99999999999999);
#285=VERTEX_POINT('',#999);
#286=VERTEX_POINT('',#1000);
#287=VERTEX_POINT('',#1002);
#288=VERTEX_POINT('',#1035);
#289=VERTEX_POINT('',#1036);
#290=VERTEX_POINT('',#1038);
#291=VERTEX_POINT('',#1071);
#292=VERTEX_POINT('',#1072);
#293=VERTEX_POINT('',#1074);
#294=VERTEX_POINT('',#1107);
#295=VERTEX_POINT('',#1108);
#296=VERTEX_POINT('',#1110);
#297=VERTEX_POINT('',#1126);
#298=VERTEX_POINT('',#1128);
#299=VERTEX_POINT('',#1130);
#300=VERTEX_POINT('',#1132);
#301=VERTEX_POINT('',#1134);
#302=VERTEX_POINT('',#1136);
#303=VERTEX_POINT('',#1138);
#304=VERTEX_POINT('',#1140);
#305=VERTEX_POINT('',#1142);
#306=VERTEX_POINT('',#1144);
#307=VERTEX_POINT('',#1148);
#308=VERTEX_POINT('',#1152);
#309=VERTEX_POINT('',#1156);
#310=VERTEX_POINT('',#1161);
#311=VERTEX_POINT('',#1163);
#312=VERTEX_POINT('',#1167);
#313=VERTEX_POINT('',#1169);
#314=VERTEX_POINT('',#1171);
#315=VERTEX_POINT('',#1175);
#316=VERTEX_POINT('',#1179);
#317=VERTEX_POINT('',#1181);
#318=VERTEX_POINT('',#1185);
#319=VERTEX_POINT('',#1187);
#320=VERTEX_POINT('',#1189);
#321=VERTEX_POINT('',#1192);
#322=VERTEX_POINT('',#1194);
#323=VERTEX_POINT('',#1196);
#324=VERTEX_POINT('',#1200);
#325=VERTEX_POINT('',#1204);
#326=VERTEX_POINT('',#1208);
#327=VERTEX_POINT('',#1212);
#328=VERTEX_POINT('',#1214);
#329=VERTEX_POINT('',#1218);
#330=VERTEX_POINT('',#1222);
#331=VERTEX_POINT('',#1224);
#332=VERTEX_POINT('',#1226);
#333=VERTEX_POINT('',#1228);
#334=VERTEX_POINT('',#1234);
#335=VERTEX_POINT('',#1236);
#336=VERTEX_POINT('',#1238);
#337=VERTEX_POINT('',#1240);
#338=VERTEX_POINT('',#1242);
#339=VERTEX_POINT('',#1253);
#340=VERTEX_POINT('',#1257);
#341=VERTEX_POINT('',#1261);
#342=VERTEX_POINT('',#1265);
#343=VERTEX_POINT('',#1269);
#344=VERTEX_POINT('',#1273);
#345=EDGE_CURVE('',#285,#286,#257,.T.);
#346=EDGE_CURVE('',#286,#287,#249,.T.);
#347=EDGE_CURVE('',#287,#285,#250,.T.);
#348=EDGE_CURVE('',#288,#289,#258,.T.);
#349=EDGE_CURVE('',#289,#290,#251,.T.);
#350=EDGE_CURVE('',#290,#288,#252,.T.);
#351=EDGE_CURVE('',#291,#292,#259,.T.);
#352=EDGE_CURVE('',#292,#293,#253,.T.);
#353=EDGE_CURVE('',#293,#291,#254,.T.);
#354=EDGE_CURVE('',#294,#295,#260,.T.);
#355=EDGE_CURVE('',#295,#296,#255,.T.);
#356=EDGE_CURVE('',#296,#294,#256,.T.);
#357=EDGE_CURVE('',#287,#296,#37,.T.);
#358=EDGE_CURVE('',#295,#285,#38,.T.);
#359=EDGE_CURVE('',#292,#294,#39,.T.);
#360=EDGE_CURVE('',#296,#293,#40,.T.);
#361=EDGE_CURVE('',#289,#291,#41,.T.);
#362=EDGE_CURVE('',#293,#290,#42,.T.);
#363=EDGE_CURVE('',#286,#288,#43,.T.);
#364=EDGE_CURVE('',#290,#287,#44,.T.);
#365=EDGE_CURVE('',#297,#286,#45,.T.);
#366=EDGE_CURVE('',#298,#297,#46,.T.);
#367=EDGE_CURVE('',#299,#298,#47,.T.);
#368=EDGE_CURVE('',#300,#299,#48,.T.);
#369=EDGE_CURVE('',#301,#300,#49,.T.);
#370=EDGE_CURVE('',#302,#301,#50,.T.);
#371=EDGE_CURVE('',#303,#302,#51,.T.);
#372=EDGE_CURVE('',#304,#303,#52,.T.);
#373=EDGE_CURVE('',#305,#304,#53,.T.);
#374=EDGE_CURVE('',#306,#305,#54,.T.);
#375=EDGE_CURVE('',#306,#288,#55,.T.);
#376=EDGE_CURVE('',#307,#285,#56,.T.);
#377=EDGE_CURVE('',#307,#297,#261,.T.);
#378=EDGE_CURVE('',#308,#295,#57,.T.);
#379=EDGE_CURVE('',#308,#307,#58,.T.);
#380=EDGE_CURVE('',#309,#294,#59,.T.);
#381=EDGE_CURVE('',#309,#308,#262,.T.);
#382=EDGE_CURVE('',#310,#298,#263,.T.);
#383=EDGE_CURVE('',#310,#311,#60,.T.);
#384=EDGE_CURVE('',#299,#311,#264,.T.);
#385=EDGE_CURVE('',#312,#311,#61,.T.);
#386=EDGE_CURVE('',#313,#312,#265,.T.);
#387=EDGE_CURVE('',#314,#313,#62,.T.);
#388=EDGE_CURVE('',#300,#314,#266,.T.);
#389=EDGE_CURVE('',#315,#310,#63,.T.);
#390=EDGE_CURVE('',#312,#315,#64,.T.);
#391=EDGE_CURVE('',#316,#304,#267,.T.);
#392=EDGE_CURVE('',#316,#317,#65,.T.);
#393=EDGE_CURVE('',#305,#317,#268,.T.);
#394=EDGE_CURVE('',#318,#309,#66,.T.);
#395=EDGE_CURVE('',#319,#318,#269,.T.);
#396=EDGE_CURVE('',#320,#319,#67,.T.);
#397=EDGE_CURVE('',#306,#320,#270,.T.);
#398=EDGE_CURVE('',#321,#317,#68,.T.);
#399=EDGE_CURVE('',#322,#321,#271,.T.);
#400=EDGE_CURVE('',#323,#322,#69,.T.);
#401=EDGE_CURVE('',#315,#323,#272,.T.);
#402=EDGE_CURVE('',#324,#316,#70,.T.);
#403=EDGE_CURVE('',#321,#324,#71,.T.);
#404=EDGE_CURVE('',#314,#325,#72,.T.);
#405=EDGE_CURVE('',#325,#301,#273,.T.);
#406=EDGE_CURVE('',#326,#313,#73,.T.);
#407=EDGE_CURVE('',#325,#326,#74,.T.);
#408=EDGE_CURVE('',#327,#303,#274,.T.);
#409=EDGE_CURVE('',#302,#328,#275,.T.);
#410=EDGE_CURVE('',#328,#327,#75,.T.);
#411=EDGE_CURVE('',#329,#327,#76,.T.);
#412=EDGE_CURVE('',#324,#329,#276,.T.);
#413=EDGE_CURVE('',#329,#330,#77,.T.);
#414=EDGE_CURVE('',#331,#330,#277,.T.);
#415=EDGE_CURVE('',#332,#331,#78,.T.);
#416=EDGE_CURVE('',#332,#333,#278,.T.);
#417=EDGE_CURVE('',#333,#322,#79,.T.);
#418=EDGE_CURVE('',#330,#328,#80,.T.);
#419=EDGE_CURVE('',#326,#334,#279,.T.);
#420=EDGE_CURVE('',#334,#335,#81,.T.);
#421=EDGE_CURVE('',#335,#336,#280,.T.);
#422=EDGE_CURVE('',#336,#337,#82,.T.);
#423=EDGE_CURVE('',#337,#338,#281,.T.);
#424=EDGE_CURVE('',#338,#331,#83,.T.);
#425=EDGE_CURVE('',#318,#292,#84,.T.);
#426=EDGE_CURVE('',#320,#289,#85,.T.);
#427=EDGE_CURVE('',#319,#291,#86,.T.);
#428=EDGE_CURVE('',#339,#332,#87,.T.);
#429=EDGE_CURVE('',#339,#338,#88,.T.);
#430=EDGE_CURVE('',#340,#339,#282,.T.);
#431=EDGE_CURVE('',#340,#337,#89,.T.);
#432=EDGE_CURVE('',#341,#340,#90,.T.);
#433=EDGE_CURVE('',#341,#336,#91,.T.);
#434=EDGE_CURVE('',#342,#341,#283,.T.);
#435=EDGE_CURVE('',#342,#335,#92,.T.);
#436=EDGE_CURVE('',#343,#342,#93,.T.);
#437=EDGE_CURVE('',#343,#334,#94,.T.);
#438=EDGE_CURVE('',#344,#323,#95,.T.);
#439=EDGE_CURVE('',#344,#343,#284,.T.);
#440=EDGE_CURVE('',#333,#344,#96,.T.);
#441=ORIENTED_EDGE('',*,*,#345,.T.);
#442=ORIENTED_EDGE('',*,*,#346,.T.);
#443=ORIENTED_EDGE('',*,*,#347,.T.);
#444=ORIENTED_EDGE('',*,*,#348,.T.);
#445=ORIENTED_EDGE('',*,*,#349,.T.);
#446=ORIENTED_EDGE('',*,*,#350,.T.);
#447=ORIENTED_EDGE('',*,*,#351,.T.);
#448=ORIENTED_EDGE('',*,*,#352,.T.);
#449=ORIENTED_EDGE('',*,*,#353,.T.);
#450=ORIENTED_EDGE('',*,*,#354,.T.);
#451=ORIENTED_EDGE('',*,*,#355,.T.);
#452=ORIENTED_EDGE('',*,*,#356,.T.);
#453=ORIENTED_EDGE('',*,*,#347,.F.);
#454=ORIENTED_EDGE('',*,*,#357,.T.);
#455=ORIENTED_EDGE('',*,*,#355,.F.);
#456=ORIENTED_EDGE('',*,*,#358,.T.);
#457=ORIENTED_EDGE('',*,*,#352,.F.);
#458=ORIENTED_EDGE('',*,*,#359,.T.);
#459=ORIENTED_EDGE('',*,*,#356,.F.);
#460=ORIENTED_EDGE('',*,*,#360,.T.);
#461=ORIENTED_EDGE('',*,*,#349,.F.);
#462=ORIENTED_EDGE('',*,*,#361,.T.);
#463=ORIENTED_EDGE('',*,*,#353,.F.);
#464=ORIENTED_EDGE('',*,*,#362,.T.);
#465=ORIENTED_EDGE('',*,*,#346,.F.);
#466=ORIENTED_EDGE('',*,*,#363,.T.);
#467=ORIENTED_EDGE('',*,*,#350,.F.);
#468=ORIENTED_EDGE('',*,*,#364,.T.);
#469=ORIENTED_EDGE('',*,*,#363,.F.);
#470=ORIENTED_EDGE('',*,*,#365,.F.);
#471=ORIENTED_EDGE('',*,*,#366,.F.);
#472=ORIENTED_EDGE('',*,*,#367,.F.);
#473=ORIENTED_EDGE('',*,*,#368,.F.);
#474=ORIENTED_EDGE('',*,*,#369,.F.);
#475=ORIENTED_EDGE('',*,*,#370,.F.);
#476=ORIENTED_EDGE('',*,*,#371,.F.);
#477=ORIENTED_EDGE('',*,*,#372,.F.);
#478=ORIENTED_EDGE('',*,*,#373,.F.);
#479=ORIENTED_EDGE('',*,*,#374,.F.);
#480=ORIENTED_EDGE('',*,*,#375,.T.);
#481=ORIENTED_EDGE('',*,*,#345,.F.);
#482=ORIENTED_EDGE('',*,*,#376,.F.);
#483=ORIENTED_EDGE('',*,*,#377,.T.);
#484=ORIENTED_EDGE('',*,*,#365,.T.);
#485=ORIENTED_EDGE('',*,*,#358,.F.);
#486=ORIENTED_EDGE('',*,*,#378,.F.);
#487=ORIENTED_EDGE('',*,*,#379,.T.);
#488=ORIENTED_EDGE('',*,*,#376,.T.);
#489=ORIENTED_EDGE('',*,*,#354,.F.);
#490=ORIENTED_EDGE('',*,*,#380,.F.);
#491=ORIENTED_EDGE('',*,*,#381,.T.);
#492=ORIENTED_EDGE('',*,*,#378,.T.);
#493=ORIENTED_EDGE('',*,*,#357,.F.);
#494=ORIENTED_EDGE('',*,*,#364,.F.);
#495=ORIENTED_EDGE('',*,*,#362,.F.);
#496=ORIENTED_EDGE('',*,*,#360,.F.);
#497=ORIENTED_EDGE('',*,*,#382,.F.);
#498=ORIENTED_EDGE('',*,*,#383,.T.);
#499=ORIENTED_EDGE('',*,*,#384,.F.);
#500=ORIENTED_EDGE('',*,*,#367,.T.);
#501=ORIENTED_EDGE('',*,*,#384,.T.);
#502=ORIENTED_EDGE('',*,*,#385,.F.);
#503=ORIENTED_EDGE('',*,*,#386,.F.);
#504=ORIENTED_EDGE('',*,*,#387,.F.);
#505=ORIENTED_EDGE('',*,*,#388,.F.);
#506=ORIENTED_EDGE('',*,*,#368,.T.);
#507=ORIENTED_EDGE('',*,*,#383,.F.);
#508=ORIENTED_EDGE('',*,*,#389,.F.);
#509=ORIENTED_EDGE('',*,*,#390,.F.);
#510=ORIENTED_EDGE('',*,*,#385,.T.);
#511=ORIENTED_EDGE('',*,*,#391,.F.);
#512=ORIENTED_EDGE('',*,*,#392,.T.);
#513=ORIENTED_EDGE('',*,*,#393,.F.);
#514=ORIENTED_EDGE('',*,*,#373,.T.);
#515=ORIENTED_EDGE('',*,*,#382,.T.);
#516=ORIENTED_EDGE('',*,*,#366,.T.);
#517=ORIENTED_EDGE('',*,*,#377,.F.);
#518=ORIENTED_EDGE('',*,*,#379,.F.);
#519=ORIENTED_EDGE('',*,*,#381,.F.);
#520=ORIENTED_EDGE('',*,*,#394,.F.);
#521=ORIENTED_EDGE('',*,*,#395,.F.);
#522=ORIENTED_EDGE('',*,*,#396,.F.);
#523=ORIENTED_EDGE('',*,*,#397,.F.);
#524=ORIENTED_EDGE('',*,*,#374,.T.);
#525=ORIENTED_EDGE('',*,*,#393,.T.);
#526=ORIENTED_EDGE('',*,*,#398,.F.);
#527=ORIENTED_EDGE('',*,*,#399,.F.);
#528=ORIENTED_EDGE('',*,*,#400,.F.);
#529=ORIENTED_EDGE('',*,*,#401,.F.);
#530=ORIENTED_EDGE('',*,*,#389,.T.);
#531=ORIENTED_EDGE('',*,*,#392,.F.);
#532=ORIENTED_EDGE('',*,*,#402,.F.);
#533=ORIENTED_EDGE('',*,*,#403,.F.);
#534=ORIENTED_EDGE('',*,*,#398,.T.);
#535=ORIENTED_EDGE('',*,*,#388,.T.);
#536=ORIENTED_EDGE('',*,*,#404,.T.);
#537=ORIENTED_EDGE('',*,*,#405,.T.);
#538=ORIENTED_EDGE('',*,*,#369,.T.);
#539=ORIENTED_EDGE('',*,*,#404,.F.);
#540=ORIENTED_EDGE('',*,*,#387,.T.);
#541=ORIENTED_EDGE('',*,*,#406,.F.);
#542=ORIENTED_EDGE('',*,*,#407,.F.);
#543=ORIENTED_EDGE('',*,*,#408,.T.);
#544=ORIENTED_EDGE('',*,*,#371,.T.);
#545=ORIENTED_EDGE('',*,*,#409,.T.);
#546=ORIENTED_EDGE('',*,*,#410,.T.);
#547=ORIENTED_EDGE('',*,*,#391,.T.);
#548=ORIENTED_EDGE('',*,*,#372,.T.);
#549=ORIENTED_EDGE('',*,*,#408,.F.);
#550=ORIENTED_EDGE('',*,*,#411,.F.);
#551=ORIENTED_EDGE('',*,*,#412,.F.);
#552=ORIENTED_EDGE('',*,*,#402,.T.);
#553=ORIENTED_EDGE('',*,*,#399,.T.);
#554=ORIENTED_EDGE('',*,*,#403,.T.);
#555=ORIENTED_EDGE('',*,*,#412,.T.);
#556=ORIENTED_EDGE('',*,*,#413,.T.);
#557=ORIENTED_EDGE('',*,*,#414,.F.);
#558=ORIENTED_EDGE('',*,*,#415,.F.);
#559=ORIENTED_EDGE('',*,*,#416,.T.);
#560=ORIENTED_EDGE('',*,*,#417,.T.);
#561=ORIENTED_EDGE('',*,*,#410,.F.);
#562=ORIENTED_EDGE('',*,*,#418,.F.);
#563=ORIENTED_EDGE('',*,*,#413,.F.);
#564=ORIENTED_EDGE('',*,*,#411,.T.);
#565=ORIENTED_EDGE('',*,*,#370,.T.);
#566=ORIENTED_EDGE('',*,*,#405,.F.);
#567=ORIENTED_EDGE('',*,*,#407,.T.);
#568=ORIENTED_EDGE('',*,*,#419,.T.);
#569=ORIENTED_EDGE('',*,*,#420,.T.);
#570=ORIENTED_EDGE('',*,*,#421,.T.);
#571=ORIENTED_EDGE('',*,*,#422,.T.);
#572=ORIENTED_EDGE('',*,*,#423,.T.);
#573=ORIENTED_EDGE('',*,*,#424,.T.);
#574=ORIENTED_EDGE('',*,*,#414,.T.);
#575=ORIENTED_EDGE('',*,*,#418,.T.);
#576=ORIENTED_EDGE('',*,*,#409,.F.);
#577=ORIENTED_EDGE('',*,*,#359,.F.);
#578=ORIENTED_EDGE('',*,*,#425,.F.);
#579=ORIENTED_EDGE('',*,*,#394,.T.);
#580=ORIENTED_EDGE('',*,*,#380,.T.);
#581=ORIENTED_EDGE('',*,*,#348,.F.);
#582=ORIENTED_EDGE('',*,*,#375,.F.);
#583=ORIENTED_EDGE('',*,*,#397,.T.);
#584=ORIENTED_EDGE('',*,*,#426,.T.);
#585=ORIENTED_EDGE('',*,*,#361,.F.);
#586=ORIENTED_EDGE('',*,*,#426,.F.);
#587=ORIENTED_EDGE('',*,*,#396,.T.);
#588=ORIENTED_EDGE('',*,*,#427,.T.);
#589=ORIENTED_EDGE('',*,*,#351,.F.);
#590=ORIENTED_EDGE('',*,*,#427,.F.);
#591=ORIENTED_EDGE('',*,*,#395,.T.);
#592=ORIENTED_EDGE('',*,*,#425,.T.);
#593=ORIENTED_EDGE('',*,*,#428,.T.);
#594=ORIENTED_EDGE('',*,*,#415,.T.);
#595=ORIENTED_EDGE('',*,*,#424,.F.);
#596=ORIENTED_EDGE('',*,*,#429,.F.);
#597=ORIENTED_EDGE('',*,*,#430,.T.);
#598=ORIENTED_EDGE('',*,*,#429,.T.);
#599=ORIENTED_EDGE('',*,*,#423,.F.);
#600=ORIENTED_EDGE('',*,*,#431,.F.);
#601=ORIENTED_EDGE('',*,*,#432,.T.);
#602=ORIENTED_EDGE('',*,*,#431,.T.);
#603=ORIENTED_EDGE('',*,*,#422,.F.);
#604=ORIENTED_EDGE('',*,*,#433,.F.);
#605=ORIENTED_EDGE('',*,*,#434,.T.);
#606=ORIENTED_EDGE('',*,*,#433,.T.);
#607=ORIENTED_EDGE('',*,*,#421,.F.);
#608=ORIENTED_EDGE('',*,*,#435,.F.);
#609=ORIENTED_EDGE('',*,*,#436,.T.);
#610=ORIENTED_EDGE('',*,*,#435,.T.);
#611=ORIENTED_EDGE('',*,*,#420,.F.);
#612=ORIENTED_EDGE('',*,*,#437,.F.);
#613=ORIENTED_EDGE('',*,*,#401,.T.);
#614=ORIENTED_EDGE('',*,*,#438,.F.);
#615=ORIENTED_EDGE('',*,*,#439,.T.);
#616=ORIENTED_EDGE('',*,*,#437,.T.);
#617=ORIENTED_EDGE('',*,*,#419,.F.);
#618=ORIENTED_EDGE('',*,*,#406,.T.);
#619=ORIENTED_EDGE('',*,*,#386,.T.);
#620=ORIENTED_EDGE('',*,*,#390,.T.);
#621=ORIENTED_EDGE('',*,*,#400,.T.);
#622=ORIENTED_EDGE('',*,*,#417,.F.);
#623=ORIENTED_EDGE('',*,*,#440,.T.);
#624=ORIENTED_EDGE('',*,*,#438,.T.);
#625=ORIENTED_EDGE('',*,*,#416,.F.);
#626=ORIENTED_EDGE('',*,*,#428,.F.);
#627=ORIENTED_EDGE('',*,*,#430,.F.);
#628=ORIENTED_EDGE('',*,*,#432,.F.);
#629=ORIENTED_EDGE('',*,*,#434,.F.);
#630=ORIENTED_EDGE('',*,*,#436,.F.);
#631=ORIENTED_EDGE('',*,*,#439,.F.);
#632=ORIENTED_EDGE('',*,*,#440,.F.);
#633=B_SPLINE_SURFACE_WITH_KNOTS('',3,3,((#969,#970,#971,#972,#973,#974),
(#975,#976,#977,#978,#979,#980),(#981,#982,#983,#984,#985,#986),(#987,#988,
#989,#990,#991,#992),(#993,#994,#995,#996,#997,#998)),.UNSPECIFIED.,.F.,
 .F.,.F.,(4,1,4),(4,1,1,4),(0.,0.571428571428571,1.),(-1.5707963267949,
-0.897597901025655,-0.448798950512828,0.),.UNSPECIFIED.);
#634=B_SPLINE_SURFACE_WITH_KNOTS('',3,3,((#1005,#1006,#1007,#1008,#1009,
#1010),(#1011,#1012,#1013,#1014,#1015,#1016),(#1017,#1018,#1019,#1020,#1021,
#1022),(#1023,#1024,#1025,#1026,#1027,#1028),(#1029,#1030,#1031,#1032,#1033,
#1034)),.UNSPECIFIED.,.F.,.F.,.F.,(4,1,4),(4,1,1,4),(0.,0.571428571428571,
1.),(-1.5707963267949,-0.897597901025655,-0.448798950512828,0.),
 .UNSPECIFIED.);
#635=B_SPLINE_SURFACE_WITH_KNOTS('',3,3,((#1041,#1042,#1043,#1044,#1045,
#1046),(#1047,#1048,#1049,#1050,#1051,#1052),(#1053,#1054,#1055,#1056,#1057,
#1058),(#1059,#1060,#1061,#1062,#1063,#1064),(#1065,#1066,#1067,#1068,#1069,
#1070)),.UNSPECIFIED.,.F.,.F.,.F.,(4,1,4),(4,1,1,4),(0.,0.571428571428571,
1.),(-1.5707963267949,-0.897597901025655,-0.448798950512828,0.),
 .UNSPECIFIED.);
#636=B_SPLINE_SURFACE_WITH_KNOTS('',3,3,((#1077,#1078,#1079,#1080,#1081,
#1082),(#1083,#1084,#1085,#1086,#1087,#1088),(#1089,#1090,#1091,#1092,#1093,
#1094),(#1095,#1096,#1097,#1098,#1099,#1100),(#1101,#1102,#1103,#1104,#1105,
#1106)),.UNSPECIFIED.,.F.,.F.,.F.,(4,1,4),(4,1,1,4),(0.,0.571428571428571,
1.),(-1.5707963267949,-0.897597901025655,-0.448798950512828,0.),
 .UNSPECIFIED.);
#637=ADVANCED_FACE('',(#173),#633,.T.);
#638=ADVANCED_FACE('',(#174),#634,.T.);
#639=ADVANCED_FACE('',(#175),#635,.T.);
#640=ADVANCED_FACE('',(#176),#636,.T.);
#641=ADVANCED_FACE('',(#177),#157,.F.);
#642=ADVANCED_FACE('',(#178),#158,.F.);
#643=ADVANCED_FACE('',(#179),#159,.F.);
#644=ADVANCED_FACE('',(#180),#160,.F.);
#645=ADVANCED_FACE('',(#181),#19,.F.);
#646=ADVANCED_FACE('',(#182),#161,.F.);
#647=ADVANCED_FACE('',(#183),#20,.F.);
#648=ADVANCED_FACE('',(#184),#162,.F.);
#649=ADVANCED_FACE('',(#185),#21,.T.);
#650=ADVANCED_FACE('',(#186),#163,.F.);
#651=ADVANCED_FACE('',(#187),#22,.F.);
#652=ADVANCED_FACE('',(#188),#23,.F.);
#653=ADVANCED_FACE('',(#189),#164,.F.);
#654=ADVANCED_FACE('',(#190),#24,.F.);
#655=ADVANCED_FACE('',(#191),#25,.F.);
#656=ADVANCED_FACE('',(#192),#165,.F.);
#657=ADVANCED_FACE('',(#193),#26,.F.);
#658=ADVANCED_FACE('',(#194),#166,.F.);
#659=ADVANCED_FACE('',(#195),#27,.F.);
#660=ADVANCED_FACE('',(#196),#167,.T.);
#661=ADVANCED_FACE('',(#197),#28,.F.);
#662=ADVANCED_FACE('',(#198),#29,.T.);
#663=ADVANCED_FACE('',(#199),#30,.F.);
#664=ADVANCED_FACE('',(#200),#168,.F.);
#665=ADVANCED_FACE('',(#201),#31,.F.);
#666=ADVANCED_FACE('',(#202),#169,.F.);
#667=ADVANCED_FACE('',(#203),#32,.T.);
#668=ADVANCED_FACE('',(#204),#170,.T.);
#669=ADVANCED_FACE('',(#205),#33,.T.);
#670=ADVANCED_FACE('',(#206),#171,.T.);
#671=ADVANCED_FACE('',(#207),#34,.T.);
#672=ADVANCED_FACE('',(#208),#172,.T.);
#673=ADVANCED_FACE('',(#209),#35,.T.);
#674=ADVANCED_FACE('',(#210),#36,.F.);
#675=CLOSED_SHELL('',(#637,#638,#639,#640,#641,#642,#643,#644,#645,#646,
#647,#648,#649,#650,#651,#652,#653,#654,#655,#656,#657,#658,#659,#660,#661,
#662,#663,#664,#665,#666,#667,#668,#669,#670,#671,#672,#673,#674));
#676=DERIVED_UNIT_ELEMENT(#678,1.);
#677=DERIVED_UNIT_ELEMENT(#1287,-3.);
#678=(
MASS_UNIT()
NAMED_UNIT(*)
SI_UNIT(.KILO.,.GRAM.)
);
#679=DERIVED_UNIT((#676,#677));
#680=MEASURE_REPRESENTATION_ITEM('density measure',
POSITIVE_RATIO_MEASURE(7850.),#679);
#681=PROPERTY_DEFINITION_REPRESENTATION(#686,#683);
#682=PROPERTY_DEFINITION_REPRESENTATION(#687,#684);
#683=REPRESENTATION('material name',(#685),#1284);
#684=REPRESENTATION('density',(#680),#1284);
#685=DESCRIPTIVE_REPRESENTATION_ITEM('Acier','Acier');
#686=PROPERTY_DEFINITION('material property','material name',#1299);
#687=PROPERTY_DEFINITION('material property','density of part',#1299);
#688=AXIS2_PLACEMENT_3D('',#967,#761,#762);
#689=AXIS2_PLACEMENT_3D('',#968,#763,#764);
#690=AXIS2_PLACEMENT_3D('',#1001,#765,#766);
#691=AXIS2_PLACEMENT_3D('',#1003,#767,#768);
#692=AXIS2_PLACEMENT_3D('',#1004,#769,#770);
#693=AXIS2_PLACEMENT_3D('',#1037,#771,#772);
#694=AXIS2_PLACEMENT_3D('',#1039,#773,#774);
#695=AXIS2_PLACEMENT_3D('',#1040,#775,#776);
#696=AXIS2_PLACEMENT_3D('',#1073,#777,#778);
#697=AXIS2_PLACEMENT_3D('',#1075,#779,#780);
#698=AXIS2_PLACEMENT_3D('',#1076,#781,#782);
#699=AXIS2_PLACEMENT_3D('',#1109,#783,#784);
#700=AXIS2_PLACEMENT_3D('',#1111,#785,#786);
#701=AXIS2_PLACEMENT_3D('',#1112,#787,#788);
#702=AXIS2_PLACEMENT_3D('',#1113,#789,#790);
#703=AXIS2_PLACEMENT_3D('',#1116,#793,#794);
#704=AXIS2_PLACEMENT_3D('',#1119,#797,#798);
#705=AXIS2_PLACEMENT_3D('',#1122,#801,#802);
#706=AXIS2_PLACEMENT_3D('',#1125,#805,#806);
#707=AXIS2_PLACEMENT_3D('',#1147,#818,#819);
#708=AXIS2_PLACEMENT_3D('',#1150,#821,#822);
#709=AXIS2_PLACEMENT_3D('',#1151,#823,#824);
#710=AXIS2_PLACEMENT_3D('',#1155,#827,#828);
#711=AXIS2_PLACEMENT_3D('',#1158,#830,#831);
#712=AXIS2_PLACEMENT_3D('',#1159,#832,#833);
#713=AXIS2_PLACEMENT_3D('',#1160,#834,#835);
#714=AXIS2_PLACEMENT_3D('',#1162,#836,#837);
#715=AXIS2_PLACEMENT_3D('',#1165,#839,#840);
#716=AXIS2_PLACEMENT_3D('',#1166,#841,#842);
#717=AXIS2_PLACEMENT_3D('',#1170,#844,#845);
#718=AXIS2_PLACEMENT_3D('',#1173,#847,#848);
#719=AXIS2_PLACEMENT_3D('',#1174,#849,#850);
#720=AXIS2_PLACEMENT_3D('',#1178,#853,#854);
#721=AXIS2_PLACEMENT_3D('',#1180,#855,#856);
#722=AXIS2_PLACEMENT_3D('',#1183,#858,#859);
#723=AXIS2_PLACEMENT_3D('',#1184,#860,#861);
#724=AXIS2_PLACEMENT_3D('',#1188,#863,#864);
#725=AXIS2_PLACEMENT_3D('',#1191,#866,#867);
#726=AXIS2_PLACEMENT_3D('',#1195,#869,#870);
#727=AXIS2_PLACEMENT_3D('',#1198,#872,#873);
#728=AXIS2_PLACEMENT_3D('',#1199,#874,#875);
#729=AXIS2_PLACEMENT_3D('',#1203,#878,#879);
#730=AXIS2_PLACEMENT_3D('',#1206,#881,#882);
#731=AXIS2_PLACEMENT_3D('',#1207,#883,#884);
#732=AXIS2_PLACEMENT_3D('',#1211,#887,#888);
#733=AXIS2_PLACEMENT_3D('',#1213,#889,#890);
#734=AXIS2_PLACEMENT_3D('',#1215,#891,#892);
#735=AXIS2_PLACEMENT_3D('',#1217,#894,#895);
#736=AXIS2_PLACEMENT_3D('',#1220,#897,#898);
#737=AXIS2_PLACEMENT_3D('',#1221,#899,#900);
#738=AXIS2_PLACEMENT_3D('',#1225,#902,#903);
#739=AXIS2_PLACEMENT_3D('',#1229,#905,#906);
#740=AXIS2_PLACEMENT_3D('',#1231,#908,#909);
#741=AXIS2_PLACEMENT_3D('',#1233,#911,#912);
#742=AXIS2_PLACEMENT_3D('',#1235,#913,#914);
#743=AXIS2_PLACEMENT_3D('',#1239,#916,#917);
#744=AXIS2_PLACEMENT_3D('',#1243,#919,#920);
#745=AXIS2_PLACEMENT_3D('',#1245,#922,#923);
#746=AXIS2_PLACEMENT_3D('',#1247,#925,#926);
#747=AXIS2_PLACEMENT_3D('',#1249,#928,#929);
#748=AXIS2_PLACEMENT_3D('',#1251,#931,#932);
#749=AXIS2_PLACEMENT_3D('',#1252,#933,#934);
#750=AXIS2_PLACEMENT_3D('',#1256,#937,#938);
#751=AXIS2_PLACEMENT_3D('',#1258,#939,#940);
#752=AXIS2_PLACEMENT_3D('',#1260,#942,#943);
#753=AXIS2_PLACEMENT_3D('',#1264,#946,#947);
#754=AXIS2_PLACEMENT_3D('',#1266,#948,#949);
#755=AXIS2_PLACEMENT_3D('',#1268,#951,#952);
#756=AXIS2_PLACEMENT_3D('',#1272,#955,#956);
#757=AXIS2_PLACEMENT_3D('',#1275,#958,#959);
#758=AXIS2_PLACEMENT_3D('',#1276,#960,#961);
#759=AXIS2_PLACEMENT_3D('',#1278,#963,#964);
#760=AXIS2_PLACEMENT_3D('',#1279,#965,#966);
#761=DIRECTION('axis',(0.,0.,1.));
#762=DIRECTION('refdir',(1.,0.,0.));
#763=DIRECTION('axis',(0.,0.,1.));
#764=DIRECTION('refdir',(1.,0.,0.));
#765=DIRECTION('center_axis',(0.,0.,1.));
#766=DIRECTION('ref_axis',(0.,1.,0.));
#767=DIRECTION('center_axis',(-0.514495755427526,-0.857492925712545,-3.80803355831702E-16));
#768=DIRECTION('ref_axis',(-0.857492925712544,0.514495755427526,0.));
#769=DIRECTION('center_axis',(0.857492925712544,0.514495755427526,-4.56964026998042E-16));
#770=DIRECTION('ref_axis',(-0.514495755427526,0.857492925712544,0.));
#771=DIRECTION('center_axis',(0.,0.,1.));
#772=DIRECTION('ref_axis',(-1.,0.,0.));
#773=DIRECTION('center_axis',(0.857492925712544,-0.514495755427527,7.61606711663404E-16));
#774=DIRECTION('ref_axis',(-0.514495755427527,-0.857492925712544,0.));
#775=DIRECTION('center_axis',(-0.514495755427527,0.857492925712544,0.));
#776=DIRECTION('ref_axis',(-0.857492925712544,-0.514495755427527,0.));
#777=DIRECTION('center_axis',(0.,0.,1.));
#778=DIRECTION('ref_axis',(0.,-1.,0.));
#779=DIRECTION('center_axis',(0.514495755427527,0.857492925712544,0.));
#780=DIRECTION('ref_axis',(0.857492925712544,-0.514495755427527,0.));
#781=DIRECTION('center_axis',(-0.857492925712544,-0.514495755427526,0.));
#782=DIRECTION('ref_axis',(0.514495755427526,-0.857492925712544,0.));
#783=DIRECTION('center_axis',(0.,0.,1.));
#784=DIRECTION('ref_axis',(1.,0.,0.));
#785=DIRECTION('center_axis',(-0.857492925712543,0.514495755427529,7.61606711663403E-16));
#786=DIRECTION('ref_axis',(0.514495755427529,0.857492925712543,0.));
#787=DIRECTION('center_axis',(0.514495755427529,-0.857492925712543,0.));
#788=DIRECTION('ref_axis',(0.857492925712543,0.514495755427529,0.));
#789=DIRECTION('center_axis',(1.,3.31409858097062E-17,0.));
#790=DIRECTION('ref_axis',(0.,0.707106781186547,-0.707106781186547));
#791=DIRECTION('',(1.,3.31409858097062E-17,0.));
#792=DIRECTION('',(-1.,-3.31409858097062E-17,0.));
#793=DIRECTION('center_axis',(0.,-1.,0.));
#794=DIRECTION('ref_axis',(0.707106781186547,0.,-0.707106781186547));
#795=DIRECTION('',(0.,1.,0.));
#796=DIRECTION('',(0.,-1.,0.));
#797=DIRECTION('center_axis',(-1.,3.31409858097062E-17,0.));
#798=DIRECTION('ref_axis',(0.,-0.707106781186547,-0.707106781186547));
#799=DIRECTION('',(1.,-3.31409858097062E-17,0.));
#800=DIRECTION('',(-1.,3.31409858097062E-17,0.));
#801=DIRECTION('center_axis',(0.,1.,0.));
#802=DIRECTION('ref_axis',(-0.707106781186547,0.,-0.707106781186547));
#803=DIRECTION('',(0.,-1.,0.));
#804=DIRECTION('',(0.,1.,0.));
#805=DIRECTION('center_axis',(-1.,0.,0.));
#806=DIRECTION('ref_axis',(0.,1.,0.));
#807=DIRECTION('',(0.,0.,-1.));
#808=DIRECTION('',(1.38777878078145E-16,-1.,2.86320674771751E-15));
#809=DIRECTION('',(0.,9.65411325760955E-16,-1.));
#810=DIRECTION('',(-1.38777878078145E-16,1.,0.));
#811=DIRECTION('',(0.,0.,-1.));
#812=DIRECTION('',(-1.52085345839063E-16,1.,0.));
#813=DIRECTION('',(0.,0.,1.));
#814=DIRECTION('',(-1.38777878078145E-16,1.,0.));
#815=DIRECTION('',(0.,-6.757879280327E-15,1.));
#816=DIRECTION('',(1.38777878078145E-16,-1.,2.86320674771751E-15));
#817=DIRECTION('',(0.,0.,-1.));
#818=DIRECTION('center_axis',(0.,0.,-1.));
#819=DIRECTION('ref_axis',(0.,1.,0.));
#820=DIRECTION('',(0.,0.,-1.));
#821=DIRECTION('center_axis',(-4.35451788435355E-31,2.86320674771751E-15,
1.));
#822=DIRECTION('ref_axis',(0.,1.,0.));
#823=DIRECTION('center_axis',(-3.31409858097062E-17,1.,0.));
#824=DIRECTION('ref_axis',(1.,3.31409858097062E-17,0.));
#825=DIRECTION('',(0.,0.,-1.));
#826=DIRECTION('',(-1.,-3.31409858097062E-17,-3.40562294238994E-31));
#827=DIRECTION('center_axis',(0.,0.,-1.));
#828=DIRECTION('ref_axis',(1.,1.11022302462517E-15,0.));
#829=DIRECTION('',(0.,0.,-1.));
#830=DIRECTION('center_axis',(-4.35451788435355E-31,2.86320674771751E-15,
1.));
#831=DIRECTION('ref_axis',(1.,1.11022302462517E-15,0.));
#832=DIRECTION('center_axis',(0.,0.,1.));
#833=DIRECTION('ref_axis',(-1.,0.,0.));
#834=DIRECTION('center_axis',(0.,9.65411325760955E-16,-1.));
#835=DIRECTION('ref_axis',(-0.707106781186548,0.707106781186547,1.8471675984515E-15));
#836=DIRECTION('center_axis',(-4.35451788435355E-31,2.86320674771751E-15,
1.));
#837=DIRECTION('ref_axis',(-0.707106781186548,0.707106781186547,1.8471675984515E-15));
#838=DIRECTION('',(0.,-9.65411325760955E-16,1.));
#839=DIRECTION('center_axis',(0.,0.,-1.));
#840=DIRECTION('ref_axis',(-0.707106781186548,0.707106781186547,1.8471675984515E-15));
#841=DIRECTION('center_axis',(0.,0.,1.));
#842=DIRECTION('ref_axis',(-1.38777878078145E-16,1.,0.));
#843=DIRECTION('',(-1.,-1.52085345839063E-16,0.));
#844=DIRECTION('center_axis',(0.,0.,1.));
#845=DIRECTION('ref_axis',(1.,0.,0.));
#846=DIRECTION('',(1.,3.31409858097062E-17,0.));
#847=DIRECTION('center_axis',(0.,0.,-1.));
#848=DIRECTION('ref_axis',(-0.707106781186548,0.707106781186548,0.));
#849=DIRECTION('center_axis',(-1.52085345839063E-16,1.,9.65411325760955E-16));
#850=DIRECTION('ref_axis',(-1.33977735261714E-31,9.65411325760955E-16,-1.));
#851=DIRECTION('',(-1.,-1.52085345839063E-16,0.));
#852=DIRECTION('',(0.,0.,-1.));
#853=DIRECTION('center_axis',(0.,-6.757879280327E-15,1.));
#854=DIRECTION('ref_axis',(-0.707106781186548,-0.707106781186548,-5.5415027953545E-15));
#855=DIRECTION('center_axis',(0.,0.,-1.));
#856=DIRECTION('ref_axis',(-0.707106781186548,-0.707106781186548,-5.5415027953545E-15));
#857=DIRECTION('',(0.,6.757879280327E-15,-1.));
#858=DIRECTION('center_axis',(-4.35451788435355E-31,2.86320674771751E-15,
1.));
#859=DIRECTION('ref_axis',(-0.707106781186548,-0.707106781186548,-5.5415027953545E-15));
#860=DIRECTION('center_axis',(4.35451788435355E-31,-2.86320674771751E-15,
-1.));
#861=DIRECTION('ref_axis',(1.38777878078145E-16,-1.,2.86320674771751E-15));
#862=DIRECTION('',(0.,1.,-2.86320674771751E-15));
#863=DIRECTION('center_axis',(-4.35451788435355E-31,2.86320674771751E-15,
1.));
#864=DIRECTION('ref_axis',(0.,-1.,0.));
#865=DIRECTION('',(1.,-3.31409858097062E-17,5.30341282631716E-31));
#866=DIRECTION('center_axis',(-4.35451788435355E-31,2.86320674771751E-15,
1.));
#867=DIRECTION('ref_axis',(-1.,4.44089209850063E-15,0.));
#868=DIRECTION('',(-1.,-1.52085345839063E-16,0.));
#869=DIRECTION('center_axis',(4.35451788435355E-31,-2.86320674771751E-15,
-1.));
#870=DIRECTION('ref_axis',(0.,-1.,0.));
#871=DIRECTION('',(0.,-1.,2.86320674771751E-15));
#872=DIRECTION('center_axis',(4.35451788435355E-31,-2.86320674771751E-15,
-1.));
#873=DIRECTION('ref_axis',(1.,0.,0.));
#874=DIRECTION('center_axis',(1.52085345839063E-16,-1.,-6.757879280327E-15));
#875=DIRECTION('ref_axis',(9.3784414683204E-31,-6.757879280327E-15,1.));
#876=DIRECTION('',(-1.,-1.52085345839063E-16,0.));
#877=DIRECTION('',(0.,0.,1.));
#878=DIRECTION('center_axis',(0.,0.,-1.));
#879=DIRECTION('ref_axis',(-0.707106781186548,0.707106781186548,0.));
#880=DIRECTION('',(0.,0.,1.));
#881=DIRECTION('center_axis',(0.,0.,1.));
#882=DIRECTION('ref_axis',(-0.707106781186548,0.707106781186548,0.));
#883=DIRECTION('center_axis',(-3.31409858097062E-17,1.,0.));
#884=DIRECTION('ref_axis',(1.,3.31409858097062E-17,0.));
#885=DIRECTION('',(0.,0.,-1.));
#886=DIRECTION('',(1.,1.52085345839063E-16,0.));
#887=DIRECTION('center_axis',(0.,0.,1.));
#888=DIRECTION('ref_axis',(-0.707106781186548,-0.707106781186548,0.));
#889=DIRECTION('center_axis',(0.,0.,-1.));
#890=DIRECTION('ref_axis',(-0.707106781186548,-0.707106781186548,0.));
#891=DIRECTION('center_axis',(0.,0.,1.));
#892=DIRECTION('ref_axis',(-0.707106781186548,-0.707106781186548,0.));
#893=DIRECTION('',(0.,0.,-1.));
#894=DIRECTION('center_axis',(0.,0.,1.));
#895=DIRECTION('ref_axis',(-1.38777878078145E-16,1.,0.));
#896=DIRECTION('',(-1.,3.31409858097062E-17,0.));
#897=DIRECTION('center_axis',(0.,0.,1.));
#898=DIRECTION('ref_axis',(0.,-1.,0.));
#899=DIRECTION('center_axis',(0.,0.,1.));
#900=DIRECTION('ref_axis',(0.,-1.,0.));
#901=DIRECTION('',(0.,0.,1.));
#902=DIRECTION('center_axis',(0.,0.,1.));
#903=DIRECTION('ref_axis',(0.,-1.,0.));
#904=DIRECTION('',(0.,0.,1.));
#905=DIRECTION('center_axis',(0.,0.,1.));
#906=DIRECTION('ref_axis',(0.,-1.,0.));
#907=DIRECTION('',(0.,0.,1.));
#908=DIRECTION('center_axis',(-3.31409858097062E-17,-1.,0.));
#909=DIRECTION('ref_axis',(-1.,3.31409858097062E-17,0.));
#910=DIRECTION('',(-1.,-1.52085345839063E-16,0.));
#911=DIRECTION('center_axis',(0.,0.,1.));
#912=DIRECTION('ref_axis',(1.,0.,0.));
#913=DIRECTION('center_axis',(0.,0.,1.));
#914=DIRECTION('ref_axis',(1.,0.,0.));
#915=DIRECTION('',(-1.,3.31409858097062E-17,0.));
#916=DIRECTION('center_axis',(0.,0.,1.));
#917=DIRECTION('ref_axis',(0.,1.,0.));
#918=DIRECTION('',(0.,-1.,0.));
#919=DIRECTION('center_axis',(0.,0.,1.));
#920=DIRECTION('ref_axis',(-1.,0.,0.));
#921=DIRECTION('',(1.,0.,0.));
#922=DIRECTION('center_axis',(1.,0.,0.));
#923=DIRECTION('ref_axis',(0.,-1.,0.));
#924=DIRECTION('',(0.,0.,-1.));
#925=DIRECTION('center_axis',(0.,0.,-1.));
#926=DIRECTION('ref_axis',(-1.,4.44089209850063E-15,0.));
#927=DIRECTION('',(0.,0.,-1.));
#928=DIRECTION('center_axis',(-3.31409858097062E-17,-1.,0.));
#929=DIRECTION('ref_axis',(-1.,3.31409858097062E-17,0.));
#930=DIRECTION('',(0.,0.,-1.));
#931=DIRECTION('center_axis',(0.,0.,-1.));
#932=DIRECTION('ref_axis',(0.,-1.,0.));
#933=DIRECTION('center_axis',(0.,-1.,0.));
#934=DIRECTION('ref_axis',(1.,0.,0.));
#935=DIRECTION('',(1.,0.,0.));
#936=DIRECTION('',(0.,0.,1.));
#937=DIRECTION('center_axis',(0.,0.,1.));
#938=DIRECTION('ref_axis',(-1.,0.,0.));
#939=DIRECTION('center_axis',(0.,0.,1.));
#940=DIRECTION('ref_axis',(-1.,0.,0.));
#941=DIRECTION('',(0.,0.,1.));
#942=DIRECTION('center_axis',(-1.,0.,0.));
#943=DIRECTION('ref_axis',(0.,-1.,0.));
#944=DIRECTION('',(0.,-1.,0.));
#945=DIRECTION('',(0.,0.,1.));
#946=DIRECTION('center_axis',(0.,0.,1.));
#947=DIRECTION('ref_axis',(0.,1.,0.));
#948=DIRECTION('center_axis',(0.,0.,1.));
#949=DIRECTION('ref_axis',(0.,1.,0.));
#950=DIRECTION('',(0.,0.,1.));
#951=DIRECTION('center_axis',(3.31409858097062E-17,1.,0.));
#952=DIRECTION('ref_axis',(-1.,3.31409858097062E-17,0.));
#953=DIRECTION('',(-1.,3.31409858097062E-17,0.));
#954=DIRECTION('',(0.,0.,1.));
#955=DIRECTION('center_axis',(0.,0.,1.));
#956=DIRECTION('ref_axis',(1.,0.,0.));
#957=DIRECTION('',(0.,0.,1.));
#958=DIRECTION('center_axis',(0.,0.,1.));
#959=DIRECTION('ref_axis',(1.,0.,0.));
#960=DIRECTION('center_axis',(1.,0.,0.));
#961=DIRECTION('ref_axis',(0.,1.,0.));
#962=DIRECTION('',(0.,1.,0.));
#963=DIRECTION('center_axis',(0.,0.,1.));
#964=DIRECTION('ref_axis',(1.,0.,0.));
#965=DIRECTION('',(0.,0.,1.));
#966=DIRECTION('',(1.,0.,0.));
#967=CARTESIAN_POINT('',(0.,0.,0.));
#968=CARTESIAN_POINT('',(0.,0.,0.));
#969=CARTESIAN_POINT('Ctrl Pts',(-30.5,13.,2.));
#970=CARTESIAN_POINT('Ctrl Pts',(-31.6219973762821,13.6731984257692,2.));
#971=CARTESIAN_POINT('Ctrl Pts',(-33.4852749546873,14.7911649728124,2.65537802642815));
#972=CARTESIAN_POINT('Ctrl Pts',(-35.1579386310848,15.7947631786509,4.75855203517379));
#973=CARTESIAN_POINT('Ctrl Pts',(-35.5,16.,6.25200174914529));
#974=CARTESIAN_POINT('Ctrl Pts',(-35.5,16.,7.));
#975=CARTESIAN_POINT('Ctrl Pts',(-30.5,13.,2.));
#976=CARTESIAN_POINT('Ctrl Pts',(-31.5365118618987,13.7586839401526,2.));
#977=CARTESIAN_POINT('Ctrl Pts',(-33.2600099033194,15.0173675471208,2.5358765889479));
#978=CARTESIAN_POINT('Ctrl Pts',(-35.0571398230484,16.2874892238132,4.51102152709332));
#979=CARTESIAN_POINT('Ctrl Pts',(-35.5,16.5983986006838,6.16110896265773));
#980=CARTESIAN_POINT('Ctrl Pts',(-35.5,16.5983986006838,7.));
#981=CARTESIAN_POINT('Ctrl Pts',(-30.5,13.,2.));
#982=CARTESIAN_POINT('Ctrl Pts',(-31.3869122117277,13.9082835903236,2.));
#983=CARTESIAN_POINT('Ctrl Pts',(-32.8607026787306,15.4184711119359,2.44776202096216));
#984=CARTESIAN_POINT('Ctrl Pts',(-34.5288151401134,17.146781021669,4.30251893948307));
#985=CARTESIAN_POINT('Ctrl Pts',(-34.9981304844775,17.6346068786428,6.08301166142941));
#986=CARTESIAN_POINT('Ctrl Pts',(-34.9981304844775,17.6346068786428,7.));
#987=CARTESIAN_POINT('Ctrl Pts',(-30.5,13.,2.));
#988=CARTESIAN_POINT('Ctrl Pts',(-31.2373125615568,14.0578832404945,2.));
#989=CARTESIAN_POINT('Ctrl Pts',(-32.4623695233834,15.8179920692255,2.56526185507201));
#990=CARTESIAN_POINT('Ctrl Pts',(-33.6646961954607,17.5827457212642,4.57451452773741));
#991=CARTESIAN_POINT('Ctrl Pts',(-33.9487989505128,18.,6.18479881677925));
#992=CARTESIAN_POINT('Ctrl Pts',(-33.9487989505128,18.,7.));
#993=CARTESIAN_POINT('Ctrl Pts',(-30.5,13.,2.));
#994=CARTESIAN_POINT('Ctrl Pts',(-31.1731984257692,14.1219973762821,2.));
#995=CARTESIAN_POINT('Ctrl Pts',(-32.2911649728124,15.9852749546873,2.65537802642815));
#996=CARTESIAN_POINT('Ctrl Pts',(-33.2947631786509,17.6579386310848,4.75855203517379));
#997=CARTESIAN_POINT('Ctrl Pts',(-33.5,18.,6.25200174914529));
#998=CARTESIAN_POINT('Ctrl Pts',(-33.5,18.,7.));
#999=CARTESIAN_POINT('',(-33.5,18.,7.));
#1000=CARTESIAN_POINT('',(-35.5,16.,7.));
#1001=CARTESIAN_POINT('Origin',(-33.5,16.,7.));
#1002=CARTESIAN_POINT('',(-30.5,13.,2.));
#1003=CARTESIAN_POINT('Origin',(-30.5,13.,7.));
#1004=CARTESIAN_POINT('Origin',(-30.5,13.,7.));
#1005=CARTESIAN_POINT('Ctrl Pts',(-30.5,-13.,2.));
#1006=CARTESIAN_POINT('Ctrl Pts',(-31.1731984257692,-14.1219973762821,2.));
#1007=CARTESIAN_POINT('Ctrl Pts',(-32.2911649728124,-15.9852749546873,2.65537802642815));
#1008=CARTESIAN_POINT('Ctrl Pts',(-33.2947631786509,-17.6579386310848,4.75855203517379));
#1009=CARTESIAN_POINT('Ctrl Pts',(-33.5,-18.,6.25200174914529));
#1010=CARTESIAN_POINT('Ctrl Pts',(-33.5,-18.,7.));
#1011=CARTESIAN_POINT('Ctrl Pts',(-30.5,-13.,2.));
#1012=CARTESIAN_POINT('Ctrl Pts',(-31.2586839401526,-14.0365118618987,2.));
#1013=CARTESIAN_POINT('Ctrl Pts',(-32.5173675471208,-15.7600099033194,2.5358765889479));
#1014=CARTESIAN_POINT('Ctrl Pts',(-33.7874892238132,-17.5571398230484,4.51102152709331));
#1015=CARTESIAN_POINT('Ctrl Pts',(-34.0983986006838,-18.,6.16110896265773));
#1016=CARTESIAN_POINT('Ctrl Pts',(-34.0983986006838,-18.,7.));
#1017=CARTESIAN_POINT('Ctrl Pts',(-30.5,-13.,2.));
#1018=CARTESIAN_POINT('Ctrl Pts',(-31.4082835903236,-13.8869122117277,2.));
#1019=CARTESIAN_POINT('Ctrl Pts',(-32.9184711119359,-15.3607026787306,2.44776202096216));
#1020=CARTESIAN_POINT('Ctrl Pts',(-34.646781021669,-17.0288151401134,4.30251893948307));
#1021=CARTESIAN_POINT('Ctrl Pts',(-35.1346068786428,-17.4981304844775,6.0830116614294));
#1022=CARTESIAN_POINT('Ctrl Pts',(-35.1346068786428,-17.4981304844775,7.));
#1023=CARTESIAN_POINT('Ctrl Pts',(-30.5,-13.,2.));
#1024=CARTESIAN_POINT('Ctrl Pts',(-31.5578832404945,-13.7373125615568,2.));
#1025=CARTESIAN_POINT('Ctrl Pts',(-33.3179920692255,-14.9623695233834,2.56526185507201));
#1026=CARTESIAN_POINT('Ctrl Pts',(-35.0827457212641,-16.1646961954607,4.57451452773741));
#1027=CARTESIAN_POINT('Ctrl Pts',(-35.5,-16.4487989505128,6.18479881677925));
#1028=CARTESIAN_POINT('Ctrl Pts',(-35.5,-16.4487989505128,7.));
#1029=CARTESIAN_POINT('Ctrl Pts',(-30.5,-13.,2.));
#1030=CARTESIAN_POINT('Ctrl Pts',(-31.6219973762821,-13.6731984257692,2.));
#1031=CARTESIAN_POINT('Ctrl Pts',(-33.4852749546873,-14.7911649728124,2.65537802642815));
#1032=CARTESIAN_POINT('Ctrl Pts',(-35.1579386310848,-15.7947631786509,4.75855203517379));
#1033=CARTESIAN_POINT('Ctrl Pts',(-35.5,-16.,6.25200174914529));
#1034=CARTESIAN_POINT('Ctrl Pts',(-35.5,-16.,7.));
#1035=CARTESIAN_POINT('',(-35.5,-16.,7.));
#1036=CARTESIAN_POINT('',(-33.5,-18.,7.));
#1037=CARTESIAN_POINT('Origin',(-33.5,-16.,7.));
#1038=CARTESIAN_POINT('',(-30.5,-13.,2.));
#1039=CARTESIAN_POINT('Origin',(-30.5,-13.,7.));
#1040=CARTESIAN_POINT('Origin',(-30.5,-13.,7.));
#1041=CARTESIAN_POINT('Ctrl Pts',(30.5,-13.,2.));
#1042=CARTESIAN_POINT('Ctrl Pts',(31.6219973762821,-13.6731984257692,2.));
#1043=CARTESIAN_POINT('Ctrl Pts',(33.4852749546873,-14.7911649728124,2.65537802642815));
#1044=CARTESIAN_POINT('Ctrl Pts',(35.1579386310848,-15.7947631786509,4.75855203517379));
#1045=CARTESIAN_POINT('Ctrl Pts',(35.5,-16.,6.25200174914529));
#1046=CARTESIAN_POINT('Ctrl Pts',(35.5,-16.,7.));
#1047=CARTESIAN_POINT('Ctrl Pts',(30.5,-13.,2.));
#1048=CARTESIAN_POINT('Ctrl Pts',(31.5365118618987,-13.7586839401526,2.));
#1049=CARTESIAN_POINT('Ctrl Pts',(33.2600099033194,-15.0173675471208,2.5358765889479));
#1050=CARTESIAN_POINT('Ctrl Pts',(35.0571398230484,-16.2874892238132,4.51102152709332));
#1051=CARTESIAN_POINT('Ctrl Pts',(35.5,-16.5983986006838,6.16110896265773));
#1052=CARTESIAN_POINT('Ctrl Pts',(35.5,-16.5983986006838,7.));
#1053=CARTESIAN_POINT('Ctrl Pts',(30.5,-13.,2.));
#1054=CARTESIAN_POINT('Ctrl Pts',(31.3869122117277,-13.9082835903236,2.));
#1055=CARTESIAN_POINT('Ctrl Pts',(32.8607026787306,-15.4184711119359,2.44776202096216));
#1056=CARTESIAN_POINT('Ctrl Pts',(34.5288151401134,-17.1467810216691,4.30251893948307));
#1057=CARTESIAN_POINT('Ctrl Pts',(34.9981304844775,-17.6346068786428,6.0830116614294));
#1058=CARTESIAN_POINT('Ctrl Pts',(34.9981304844775,-17.6346068786428,7.));
#1059=CARTESIAN_POINT('Ctrl Pts',(30.5,-13.,2.));
#1060=CARTESIAN_POINT('Ctrl Pts',(31.2373125615568,-14.0578832404945,2.));
#1061=CARTESIAN_POINT('Ctrl Pts',(32.4623695233834,-15.8179920692255,2.56526185507201));
#1062=CARTESIAN_POINT('Ctrl Pts',(33.6646961954607,-17.5827457212642,4.57451452773741));
#1063=CARTESIAN_POINT('Ctrl Pts',(33.9487989505128,-18.,6.18479881677925));
#1064=CARTESIAN_POINT('Ctrl Pts',(33.9487989505128,-18.,7.));
#1065=CARTESIAN_POINT('Ctrl Pts',(30.5,-13.,2.));
#1066=CARTESIAN_POINT('Ctrl Pts',(31.1731984257692,-14.1219973762821,2.));
#1067=CARTESIAN_POINT('Ctrl Pts',(32.2911649728124,-15.9852749546873,2.65537802642815));
#1068=CARTESIAN_POINT('Ctrl Pts',(33.2947631786508,-17.6579386310848,4.75855203517379));
#1069=CARTESIAN_POINT('Ctrl Pts',(33.5,-18.,6.25200174914529));
#1070=CARTESIAN_POINT('Ctrl Pts',(33.5,-18.,7.));
#1071=CARTESIAN_POINT('',(33.5,-18.,7.));
#1072=CARTESIAN_POINT('',(35.5,-16.,7.));
#1073=CARTESIAN_POINT('Origin',(33.5,-16.,7.));
#1074=CARTESIAN_POINT('',(30.5,-13.,2.));
#1075=CARTESIAN_POINT('Origin',(30.5,-13.,7.));
#1076=CARTESIAN_POINT('Origin',(30.5,-13.,7.));
#1077=CARTESIAN_POINT('Ctrl Pts',(30.5,13.,2.));
#1078=CARTESIAN_POINT('Ctrl Pts',(31.1731984257692,14.1219973762821,2.));
#1079=CARTESIAN_POINT('Ctrl Pts',(32.2911649728124,15.9852749546873,2.65537802642815));
#1080=CARTESIAN_POINT('Ctrl Pts',(33.2947631786509,17.6579386310848,4.75855203517379));
#1081=CARTESIAN_POINT('Ctrl Pts',(33.5,18.,6.25200174914529));
#1082=CARTESIAN_POINT('Ctrl Pts',(33.5,18.,7.));
#1083=CARTESIAN_POINT('Ctrl Pts',(30.5,13.,2.));
#1084=CARTESIAN_POINT('Ctrl Pts',(31.2586839401526,14.0365118618987,2.));
#1085=CARTESIAN_POINT('Ctrl Pts',(32.5173675471208,15.7600099033194,2.5358765889479));
#1086=CARTESIAN_POINT('Ctrl Pts',(33.7874892238132,17.5571398230484,4.51102152709332));
#1087=CARTESIAN_POINT('Ctrl Pts',(34.0983986006838,18.,6.16110896265773));
#1088=CARTESIAN_POINT('Ctrl Pts',(34.0983986006838,18.,7.));
#1089=CARTESIAN_POINT('Ctrl Pts',(30.5,13.,2.));
#1090=CARTESIAN_POINT('Ctrl Pts',(31.4082835903236,13.8869122117277,2.));
#1091=CARTESIAN_POINT('Ctrl Pts',(32.9184711119359,15.3607026787306,2.44776202096216));
#1092=CARTESIAN_POINT('Ctrl Pts',(34.646781021669,17.0288151401134,4.30251893948307));
#1093=CARTESIAN_POINT('Ctrl Pts',(35.1346068786427,17.4981304844775,6.0830116614294));
#1094=CARTESIAN_POINT('Ctrl Pts',(35.1346068786427,17.4981304844775,7.));
#1095=CARTESIAN_POINT('Ctrl Pts',(30.5,13.,2.));
#1096=CARTESIAN_POINT('Ctrl Pts',(31.5578832404945,13.7373125615568,2.));
#1097=CARTESIAN_POINT('Ctrl Pts',(33.3179920692255,14.9623695233834,2.56526185507201));
#1098=CARTESIAN_POINT('Ctrl Pts',(35.0827457212641,16.1646961954607,4.57451452773741));
#1099=CARTESIAN_POINT('Ctrl Pts',(35.5,16.4487989505128,6.18479881677925));
#1100=CARTESIAN_POINT('Ctrl Pts',(35.5,16.4487989505128,7.));
#1101=CARTESIAN_POINT('Ctrl Pts',(30.5,13.,2.));
#1102=CARTESIAN_POINT('Ctrl Pts',(31.6219973762821,13.6731984257692,2.));
#1103=CARTESIAN_POINT('Ctrl Pts',(33.4852749546873,14.7911649728124,2.65537802642815));
#1104=CARTESIAN_POINT('Ctrl Pts',(35.1579386310848,15.7947631786509,4.75855203517379));
#1105=CARTESIAN_POINT('Ctrl Pts',(35.5,16.,6.25200174914529));
#1106=CARTESIAN_POINT('Ctrl Pts',(35.5,16.,7.));
#1107=CARTESIAN_POINT('',(35.5,16.,7.));
#1108=CARTESIAN_POINT('',(33.5,18.,7.));
#1109=CARTESIAN_POINT('Origin',(33.5,16.,7.));
#1110=CARTESIAN_POINT('',(30.5,13.,2.));
#1111=CARTESIAN_POINT('Origin',(30.5,13.,7.));
#1112=CARTESIAN_POINT('Origin',(30.5,13.,7.));
#1113=CARTESIAN_POINT('Origin',(-16.75,13.,7.));
#1114=CARTESIAN_POINT('',(-16.75,13.,2.));
#1115=CARTESIAN_POINT('',(-16.75,18.,7.));
#1116=CARTESIAN_POINT('Origin',(30.5,8.,7.));
#1117=CARTESIAN_POINT('',(35.5,8.,7.));
#1118=CARTESIAN_POINT('',(30.5,8.,2.));
#1119=CARTESIAN_POINT('Origin',(16.75,-13.,7.));
#1120=CARTESIAN_POINT('',(16.75,-18.,7.));
#1121=CARTESIAN_POINT('',(16.75,-13.,2.));
#1122=CARTESIAN_POINT('Origin',(-30.5,-8.,7.));
#1123=CARTESIAN_POINT('',(-35.5,-8.,7.));
#1124=CARTESIAN_POINT('',(-30.5,-8.,2.));
#1125=CARTESIAN_POINT('Origin',(-35.5,-16.,20.));
#1126=CARTESIAN_POINT('',(-35.5,16.,15.6999999999999));
#1127=CARTESIAN_POINT('',(-35.5,16.,20.));
#1128=CARTESIAN_POINT('',(-35.5,17.3000000000005,15.6999999999999));
#1129=CARTESIAN_POINT('',(-35.5,19.0000000000005,15.6999999999999));
#1130=CARTESIAN_POINT('',(-35.5,17.3000000000005,18.));
#1131=CARTESIAN_POINT('',(-35.5,17.3000000000005,19.));
#1132=CARTESIAN_POINT('',(-35.5,16.,18.));
#1133=CARTESIAN_POINT('',(-35.5,-18.9999999999995,18.));
#1134=CARTESIAN_POINT('',(-35.5,16.,20.));
#1135=CARTESIAN_POINT('',(-35.5,16.,20.));
#1136=CARTESIAN_POINT('',(-35.5,-16.,20.));
#1137=CARTESIAN_POINT('',(-35.5,2.38218881455016E-13,20.));
#1138=CARTESIAN_POINT('',(-35.5,-16.,18.));
#1139=CARTESIAN_POINT('',(-35.5,-16.,20.));
#1140=CARTESIAN_POINT('',(-35.5,-17.2999999999995,18.));
#1141=CARTESIAN_POINT('',(-35.5,-18.9999999999995,18.));
#1142=CARTESIAN_POINT('',(-35.5,-17.2999999999995,15.7));
#1143=CARTESIAN_POINT('',(-35.5,-17.2999999999995,17.85));
#1144=CARTESIAN_POINT('',(-35.5,-16.,15.7));
#1145=CARTESIAN_POINT('',(-35.5,19.0000000000005,15.6999999999999));
#1146=CARTESIAN_POINT('',(-35.5,-16.,20.));
#1147=CARTESIAN_POINT('Origin',(-33.5,16.,20.));
#1148=CARTESIAN_POINT('',(-33.5,18.,15.6999999999999));
#1149=CARTESIAN_POINT('',(-33.5,18.,20.));
#1150=CARTESIAN_POINT('Origin',(-33.5,16.,15.6999999999999));
#1151=CARTESIAN_POINT('Origin',(-33.5,18.,20.));
#1152=CARTESIAN_POINT('',(33.5,18.,15.6999999999999));
#1153=CARTESIAN_POINT('',(33.5,18.,20.));
#1154=CARTESIAN_POINT('',(2.,18.,15.6999999999999));
#1155=CARTESIAN_POINT('Origin',(33.5,16.,20.));
#1156=CARTESIAN_POINT('',(35.5,16.,15.6999999999999));
#1157=CARTESIAN_POINT('',(35.5,16.,20.));
#1158=CARTESIAN_POINT('Origin',(33.5,16.,15.6999999999999));
#1159=CARTESIAN_POINT('Origin',(0.,-4.44089209850063E-15,2.));
#1160=CARTESIAN_POINT('Origin',(-33.8,17.3000000000005,19.));
#1161=CARTESIAN_POINT('',(-33.8,19.0000000000005,15.6999999999999));
#1162=CARTESIAN_POINT('Origin',(-33.8,17.3000000000005,15.6999999999999));
#1163=CARTESIAN_POINT('',(-33.8,19.0000000000005,18.));
#1164=CARTESIAN_POINT('',(-33.8,19.0000000000005,19.));
#1165=CARTESIAN_POINT('Origin',(-33.8,17.3000000000005,18.));
#1166=CARTESIAN_POINT('Origin',(37.5,18.,18.));
#1167=CARTESIAN_POINT('',(36.145751311064,19.0000000000005,18.));
#1168=CARTESIAN_POINT('',(37.5,19.0000000000005,18.));
#1169=CARTESIAN_POINT('',(36.9641016151378,18.,18.));
#1170=CARTESIAN_POINT('Origin',(33.5,16.,18.));
#1171=CARTESIAN_POINT('',(-33.5,18.,18.));
#1172=CARTESIAN_POINT('',(2.,18.,18.));
#1173=CARTESIAN_POINT('Origin',(-33.5,16.,18.));
#1174=CARTESIAN_POINT('Origin',(37.5,19.0000000000005,18.));
#1175=CARTESIAN_POINT('',(36.145751311064,19.0000000000005,15.6999999999999));
#1176=CARTESIAN_POINT('',(37.5,19.0000000000005,15.6999999999999));
#1177=CARTESIAN_POINT('',(36.145751311064,19.0000000000005,0.));
#1178=CARTESIAN_POINT('Origin',(-33.8,-17.2999999999995,17.85));
#1179=CARTESIAN_POINT('',(-33.8,-18.9999999999995,18.));
#1180=CARTESIAN_POINT('Origin',(-33.8,-17.2999999999995,18.));
#1181=CARTESIAN_POINT('',(-33.8,-18.9999999999995,15.7));
#1182=CARTESIAN_POINT('',(-33.8,-18.9999999999995,17.85));
#1183=CARTESIAN_POINT('Origin',(-33.8,-17.2999999999995,15.6999999999996));
#1184=CARTESIAN_POINT('Origin',(37.5,19.0000000000005,15.6999999999999));
#1185=CARTESIAN_POINT('',(35.5,-16.,15.7));
#1186=CARTESIAN_POINT('',(35.5,17.5000000000002,15.6999999999999));
#1187=CARTESIAN_POINT('',(33.5,-18.,15.7));
#1188=CARTESIAN_POINT('Origin',(33.5,-16.,15.6999999999999));
#1189=CARTESIAN_POINT('',(-33.5,-18.,15.7));
#1190=CARTESIAN_POINT('',(35.5,-18.,15.7));
#1191=CARTESIAN_POINT('Origin',(-33.5,-16.,15.6999999999999));
#1192=CARTESIAN_POINT('',(36.1457513110652,-18.9999999999995,15.7));
#1193=CARTESIAN_POINT('',(37.5,-18.9999999999995,15.7));
#1194=CARTESIAN_POINT('',(37.5,-16.,15.7));
#1195=CARTESIAN_POINT('Origin',(33.5,-16.,15.6999999999999));
#1196=CARTESIAN_POINT('',(37.5,16.,15.6999999999999));
#1197=CARTESIAN_POINT('',(37.5,1.50000000000027,15.6999999999999));
#1198=CARTESIAN_POINT('Origin',(33.5,16.,15.6999999999999));
#1199=CARTESIAN_POINT('Origin',(37.5,-18.9999999999995,15.7));
#1200=CARTESIAN_POINT('',(36.1457513110652,-18.9999999999995,18.));
#1201=CARTESIAN_POINT('',(37.5,-18.9999999999995,18.));
#1202=CARTESIAN_POINT('',(36.1457513110653,-18.9999999999994,0.));
#1203=CARTESIAN_POINT('Origin',(-33.5,16.,20.));
#1204=CARTESIAN_POINT('',(-33.5,18.,20.));
#1205=CARTESIAN_POINT('',(-33.5,18.,20.));
#1206=CARTESIAN_POINT('Origin',(-33.5,16.,20.));
#1207=CARTESIAN_POINT('Origin',(-33.5,18.,20.));
#1208=CARTESIAN_POINT('',(36.9641016151378,18.,20.));
#1209=CARTESIAN_POINT('',(36.9641016151378,18.,0.));
#1210=CARTESIAN_POINT('',(18.75,18.,20.));
#1211=CARTESIAN_POINT('Origin',(-33.5,-16.,20.));
#1212=CARTESIAN_POINT('',(-33.5,-18.,18.));
#1213=CARTESIAN_POINT('Origin',(-33.5,-16.,18.));
#1214=CARTESIAN_POINT('',(-33.5,-18.,20.));
#1215=CARTESIAN_POINT('Origin',(-33.5,-16.,20.));
#1216=CARTESIAN_POINT('',(-33.5,-18.,20.));
#1217=CARTESIAN_POINT('Origin',(37.5,-18.9999999999995,18.));
#1218=CARTESIAN_POINT('',(36.9641016151377,-18.,18.));
#1219=CARTESIAN_POINT('',(35.5,-18.,18.));
#1220=CARTESIAN_POINT('Origin',(33.5,-16.,18.));
#1221=CARTESIAN_POINT('Origin',(33.5,-16.,0.));
#1222=CARTESIAN_POINT('',(36.9641016151377,-18.,20.));
#1223=CARTESIAN_POINT('',(36.9641016151377,-18.,0.));
#1224=CARTESIAN_POINT('',(33.5,-20.,20.));
#1225=CARTESIAN_POINT('Origin',(33.5,-16.,20.));
#1226=CARTESIAN_POINT('',(33.5,-20.,0.));
#1227=CARTESIAN_POINT('',(33.5,-20.,0.));
#1228=CARTESIAN_POINT('',(37.5,-16.,0.));
#1229=CARTESIAN_POINT('Origin',(33.5,-16.,0.));
#1230=CARTESIAN_POINT('',(37.5,-16.,0.));
#1231=CARTESIAN_POINT('Origin',(33.5,-18.,20.));
#1232=CARTESIAN_POINT('',(18.75,-18.,20.));
#1233=CARTESIAN_POINT('Origin',(0.,-4.44089209850063E-15,20.));
#1234=CARTESIAN_POINT('',(33.5,20.,20.));
#1235=CARTESIAN_POINT('Origin',(33.5,16.,20.));
#1236=CARTESIAN_POINT('',(-33.5,20.,20.));
#1237=CARTESIAN_POINT('',(33.5,20.,20.));
#1238=CARTESIAN_POINT('',(-37.5,16.,20.));
#1239=CARTESIAN_POINT('Origin',(-33.5,16.,20.));
#1240=CARTESIAN_POINT('',(-37.5,-16.,20.));
#1241=CARTESIAN_POINT('',(-37.5,16.,20.));
#1242=CARTESIAN_POINT('',(-33.5,-20.,20.));
#1243=CARTESIAN_POINT('Origin',(-33.5,-16.,20.));
#1244=CARTESIAN_POINT('',(-33.5,-20.,20.));
#1245=CARTESIAN_POINT('Origin',(35.5,16.,20.));
#1246=CARTESIAN_POINT('',(35.5,-16.,20.));
#1247=CARTESIAN_POINT('Origin',(-33.5,-16.,20.));
#1248=CARTESIAN_POINT('',(-33.5,-18.,20.));
#1249=CARTESIAN_POINT('Origin',(33.5,-18.,20.));
#1250=CARTESIAN_POINT('',(33.5,-18.,20.));
#1251=CARTESIAN_POINT('Origin',(33.5,-16.,20.));
#1252=CARTESIAN_POINT('Origin',(-33.5,-20.,0.));
#1253=CARTESIAN_POINT('',(-33.5,-20.,0.));
#1254=CARTESIAN_POINT('',(-33.5,-20.,0.));
#1255=CARTESIAN_POINT('',(-33.5,-20.,0.));
#1256=CARTESIAN_POINT('Origin',(-33.5,-16.,0.));
#1257=CARTESIAN_POINT('',(-37.5,-16.,0.));
#1258=CARTESIAN_POINT('Origin',(-33.5,-16.,0.));
#1259=CARTESIAN_POINT('',(-37.5,-16.,0.));
#1260=CARTESIAN_POINT('Origin',(-37.5,16.,0.));
#1261=CARTESIAN_POINT('',(-37.5,16.,0.));
#1262=CARTESIAN_POINT('',(-37.5,16.,0.));
#1263=CARTESIAN_POINT('',(-37.5,16.,0.));
#1264=CARTESIAN_POINT('Origin',(-33.5,16.,0.));
#1265=CARTESIAN_POINT('',(-33.5,20.,0.));
#1266=CARTESIAN_POINT('Origin',(-33.5,16.,0.));
#1267=CARTESIAN_POINT('',(-33.5,20.,0.));
#1268=CARTESIAN_POINT('Origin',(33.5,20.,0.));
#1269=CARTESIAN_POINT('',(33.5,20.,0.));
#1270=CARTESIAN_POINT('',(33.5,20.,0.));
#1271=CARTESIAN_POINT('',(33.5,20.,0.));
#1272=CARTESIAN_POINT('Origin',(33.5,16.,0.));
#1273=CARTESIAN_POINT('',(37.5,16.,0.));
#1274=CARTESIAN_POINT('',(37.5,16.,0.));
#1275=CARTESIAN_POINT('Origin',(33.5,16.,0.));
#1276=CARTESIAN_POINT('Origin',(37.5,-16.,0.));
#1277=CARTESIAN_POINT('',(37.5,-16.,0.));
#1278=CARTESIAN_POINT('Origin',(0.,-4.44089209850063E-15,0.));
#1279=CARTESIAN_POINT('',(0.,0.,0.));
#1280=UNCERTAINTY_MEASURE_WITH_UNIT(LENGTH_MEASURE(0.01),#1286,
'DISTANCE_ACCURACY_VALUE',
'Maximum model space distance between geometric entities at asserted c
onnectivities');
#1281=UNCERTAINTY_MEASURE_WITH_UNIT(LENGTH_MEASURE(0.01),#1286,
'DISTANCE_ACCURACY_VALUE',
'Maximum model space distance between geometric entities at asserted c
onnectivities');
#1282=UNCERTAINTY_MEASURE_WITH_UNIT(LENGTH_MEASURE(0.01),#1286,
'DISTANCE_ACCURACY_VALUE',
'Maximum model space distance between geometric entities at asserted c
onnectivities');
#1283=(
GEOMETRIC_REPRESENTATION_CONTEXT(3)
GLOBAL_UNCERTAINTY_ASSIGNED_CONTEXT((#1280))
GLOBAL_UNIT_ASSIGNED_CONTEXT((#1286,#1288,#1289))
REPRESENTATION_CONTEXT('','3D')
);
#1284=(
GEOMETRIC_REPRESENTATION_CONTEXT(3)
GLOBAL_UNCERTAINTY_ASSIGNED_CONTEXT((#1281))
GLOBAL_UNIT_ASSIGNED_CONTEXT((#1286,#1288,#1289))
REPRESENTATION_CONTEXT('','3D')
);
#1285=(
GEOMETRIC_REPRESENTATION_CONTEXT(3)
GLOBAL_UNCERTAINTY_ASSIGNED_CONTEXT((#1282))
GLOBAL_UNIT_ASSIGNED_CONTEXT((#1286,#1288,#1289))
REPRESENTATION_CONTEXT('','3D')
);
#1286=(
LENGTH_UNIT()
NAMED_UNIT(*)
SI_UNIT(.MILLI.,.METRE.)
);
#1287=(
LENGTH_UNIT()
NAMED_UNIT(*)
SI_UNIT($,.METRE.)
);
#1288=(
NAMED_UNIT(*)
PLANE_ANGLE_UNIT()
SI_UNIT($,.RADIAN.)
);
#1289=(
NAMED_UNIT(*)
SI_UNIT($,.STERADIAN.)
SOLID_ANGLE_UNIT()
);
#1290=SHAPE_DEFINITION_REPRESENTATION(#1292,#1295);
#1291=SHAPE_DEFINITION_REPRESENTATION(#1293,#1296);
#1292=PRODUCT_DEFINITION_SHAPE('',$,#1298);
#1293=PRODUCT_DEFINITION_SHAPE('',$,#1299);
#1294=PRODUCT_DEFINITION_SHAPE($,$,#14);
#1295=SHAPE_REPRESENTATION('',(#688,#760),#1283);
#1296=SHAPE_REPRESENTATION('',(#689),#1284);
#1297=PRODUCT_DEFINITION_CONTEXT('part definition',#1305,'design');
#1298=PRODUCT_DEFINITION('boite_domino','boite_domino v26',#1300,#1297);
#1299=PRODUCT_DEFINITION('boite','boite',#1301,#1297);
#1300=PRODUCT_DEFINITION_FORMATION('',$,#1307);
#1301=PRODUCT_DEFINITION_FORMATION('',$,#1308);
#1302=PRODUCT_RELATED_PRODUCT_CATEGORY('boite_domino v26',
'boite_domino v26',(#1307));
#1303=PRODUCT_RELATED_PRODUCT_CATEGORY('boite','boite',(#1308));
#1304=APPLICATION_PROTOCOL_DEFINITION('international standard',
'automotive_design',2009,#1305);
#1305=APPLICATION_CONTEXT(
'Core Data for Automotive Mechanical Design Process');
#1306=PRODUCT_CONTEXT('part definition',#1305,'mechanical');
#1307=PRODUCT('boite_domino','boite_domino v26',$,(#1306));
#1308=PRODUCT('boite','boite',$,(#1306));
#1309=PRESENTATION_STYLE_ASSIGNMENT((#1310));
#1310=SURFACE_STYLE_USAGE(.BOTH.,#1311);
#1311=SURFACE_SIDE_STYLE('',(#1312));
#1312=SURFACE_STYLE_FILL_AREA(#1313);
#1313=FILL_AREA_STYLE('Acier - Satin\X\E9',(#1314));
#1314=FILL_AREA_STYLE_COLOUR('Acier - Satin\X\E9',#1315);
#1315=COLOUR_RGB('Acier - Satin\X\E9',0.627450980392157,0.627450980392157,
0.627450980392157);
ENDSEC;
END-ISO-10303-21;
