ISO-10303-21;
HEADER;
/* Generated by software containing ST-Developer
 * from STEP Tools, Inc. (www.steptools.com) 
 */

FILE_DESCRIPTION(
/* description */ (''),
/* implementation_level */ '2;1');

FILE_NAME(
/* name */ 'boite_domino_80_26_20_couv.step',
/* time_stamp */ '2026-01-15T16:53:58+01:00',
/* author */ (''),
/* organization */ (''),
/* preprocessor_version */ 'ST-DEVELOPER v20.1',
/* originating_system */ 'Autodesk Translation Framework v14.21.0.0',
/* authorisation */ '');

FILE_SCHEMA (('AUTOMOTIVE_DESIGN { 1 0 10303 214 3 1 1 }'));
ENDSEC;

DATA;
#10=MECHANICAL_DESIGN_GEOMETRIC_PRESENTATION_REPRESENTATION('',(#17),#471);
#11=ITEM_DEFINED_TRANSFORMATION($,$,#283,#308);
#12=(
REPRESENTATION_RELATIONSHIP($,$,#482,#481)
REPRESENTATION_RELATIONSHIP_WITH_TRANSFORMATION(#11)
SHAPE_REPRESENTATION_RELATIONSHIP()
);
#13=CONTEXT_DEPENDENT_SHAPE_REPRESENTATION(#12,#480);
#14=NEXT_ASSEMBLY_USAGE_OCCURRENCE('couvercle:1','couvercle:1',
'couvercle:1',#484,#485,'couvercle:1');
#15=SHAPE_REPRESENTATION_RELATIONSHIP('SRR','None',#482,#16);
#16=ADVANCED_BREP_SHAPE_REPRESENTATION('',(#18),#470);
#17=STYLED_ITEM('',(#495),#18);
#18=MANIFOLD_SOLID_BREP('Corps1',#269);
#19=CYLINDRICAL_SURFACE('',#290,3.99999999999999);
#20=CYLINDRICAL_SURFACE('',#293,4.);
#21=CYLINDRICAL_SURFACE('',#300,1.7);
#22=CYLINDRICAL_SURFACE('',#303,1.7);
#23=CIRCLE('',#288,4.);
#24=CIRCLE('',#289,3.99999999999999);
#25=CIRCLE('',#291,3.99999999999999);
#26=CIRCLE('',#292,3.99999999999999);
#27=CIRCLE('',#294,4.);
#28=CIRCLE('',#295,4.);
#29=CIRCLE('',#298,1.7);
#30=CIRCLE('',#299,1.7);
#31=CIRCLE('',#301,1.7);
#32=CIRCLE('',#304,1.7);
#33=FACE_OUTER_BOUND('',#47,.T.);
#34=FACE_OUTER_BOUND('',#48,.T.);
#35=FACE_OUTER_BOUND('',#49,.T.);
#36=FACE_OUTER_BOUND('',#50,.T.);
#37=FACE_OUTER_BOUND('',#51,.T.);
#38=FACE_OUTER_BOUND('',#52,.T.);
#39=FACE_OUTER_BOUND('',#53,.T.);
#40=FACE_OUTER_BOUND('',#54,.T.);
#41=FACE_OUTER_BOUND('',#55,.T.);
#42=FACE_OUTER_BOUND('',#56,.T.);
#43=FACE_OUTER_BOUND('',#57,.T.);
#44=FACE_OUTER_BOUND('',#58,.T.);
#45=FACE_OUTER_BOUND('',#59,.T.);
#46=FACE_OUTER_BOUND('',#60,.T.);
#47=EDGE_LOOP('',(#173,#174,#175,#176));
#48=EDGE_LOOP('',(#177,#178,#179,#180));
#49=EDGE_LOOP('',(#181,#182,#183,#184));
#50=EDGE_LOOP('',(#185,#186,#187,#188,#189,#190));
#51=EDGE_LOOP('',(#191,#192,#193,#194,#195,#196));
#52=EDGE_LOOP('',(#197,#198,#199,#200,#201,#202));
#53=EDGE_LOOP('',(#203,#204,#205,#206));
#54=EDGE_LOOP('',(#207,#208,#209,#210,#211,#212,#213,#214,#215,#216));
#55=EDGE_LOOP('',(#217,#218,#219,#220));
#56=EDGE_LOOP('',(#221,#222,#223,#224));
#57=EDGE_LOOP('',(#225,#226,#227,#228));
#58=EDGE_LOOP('',(#229,#230,#231,#232,#233,#234,#235,#236));
#59=EDGE_LOOP('',(#237,#238,#239,#240));
#60=EDGE_LOOP('',(#241,#242,#243,#244));
#61=LINE('',#394,#87);
#62=LINE('',#396,#88);
#63=LINE('',#398,#89);
#64=LINE('',#399,#90);
#65=LINE('',#402,#91);
#66=LINE('',#404,#92);
#67=LINE('',#405,#93);
#68=LINE('',#408,#94);
#69=LINE('',#410,#95);
#70=LINE('',#411,#96);
#71=LINE('',#416,#97);
#72=LINE('',#423,#98);
#73=LINE('',#425,#99);
#74=LINE('',#430,#100);
#75=LINE('',#433,#101);
#76=LINE('',#436,#102);
#77=LINE('',#438,#103);
#78=LINE('',#439,#104);
#79=LINE('',#444,#105);
#80=LINE('',#447,#106);
#81=LINE('',#451,#107);
#82=LINE('',#454,#108);
#83=LINE('',#455,#109);
#84=LINE('',#459,#110);
#85=LINE('',#461,#111);
#86=LINE('',#462,#112);
#87=VECTOR('',#315,10.);
#88=VECTOR('',#316,10.);
#89=VECTOR('',#317,10.);
#90=VECTOR('',#318,10.);
#91=VECTOR('',#321,10.);
#92=VECTOR('',#322,10.);
#93=VECTOR('',#323,10.);
#94=VECTOR('',#326,10.);
#95=VECTOR('',#327,10.);
#96=VECTOR('',#328,10.);
#97=VECTOR('',#333,10.);
#98=VECTOR('',#340,10.);
#99=VECTOR('',#343,10.);
#100=VECTOR('',#348,10.);
#101=VECTOR('',#351,10.);
#102=VECTOR('',#354,10.);
#103=VECTOR('',#355,10.);
#104=VECTOR('',#356,10.);
#105=VECTOR('',#361,10.);
#106=VECTOR('',#364,10.);
#107=VECTOR('',#369,10.);
#108=VECTOR('',#372,10.);
#109=VECTOR('',#373,10.);
#110=VECTOR('',#378,10.);
#111=VECTOR('',#381,10.);
#112=VECTOR('',#382,10.);
#113=VERTEX_POINT('',#392);
#114=VERTEX_POINT('',#393);
#115=VERTEX_POINT('',#395);
#116=VERTEX_POINT('',#397);
#117=VERTEX_POINT('',#401);
#118=VERTEX_POINT('',#403);
#119=VERTEX_POINT('',#407);
#120=VERTEX_POINT('',#409);
#121=VERTEX_POINT('',#413);
#122=VERTEX_POINT('',#415);
#123=VERTEX_POINT('',#419);
#124=VERTEX_POINT('',#420);
#125=VERTEX_POINT('',#422);
#126=VERTEX_POINT('',#427);
#127=VERTEX_POINT('',#428);
#128=VERTEX_POINT('',#431);
#129=VERTEX_POINT('',#435);
#130=VERTEX_POINT('',#437);
#131=VERTEX_POINT('',#441);
#132=VERTEX_POINT('',#443);
#133=VERTEX_POINT('',#445);
#134=VERTEX_POINT('',#449);
#135=VERTEX_POINT('',#453);
#136=VERTEX_POINT('',#457);
#137=EDGE_CURVE('',#113,#114,#61,.T.);
#138=EDGE_CURVE('',#113,#115,#62,.T.);
#139=EDGE_CURVE('',#116,#115,#63,.T.);
#140=EDGE_CURVE('',#114,#116,#64,.T.);
#141=EDGE_CURVE('',#114,#117,#65,.T.);
#142=EDGE_CURVE('',#118,#116,#66,.T.);
#143=EDGE_CURVE('',#117,#118,#67,.T.);
#144=EDGE_CURVE('',#117,#119,#68,.T.);
#145=EDGE_CURVE('',#120,#118,#69,.T.);
#146=EDGE_CURVE('',#119,#120,#70,.T.);
#147=EDGE_CURVE('',#115,#121,#23,.T.);
#148=EDGE_CURVE('',#121,#122,#71,.T.);
#149=EDGE_CURVE('',#122,#120,#24,.T.);
#150=EDGE_CURVE('',#123,#124,#25,.T.);
#151=EDGE_CURVE('',#125,#123,#72,.T.);
#152=EDGE_CURVE('',#119,#125,#26,.T.);
#153=EDGE_CURVE('',#124,#122,#73,.T.);
#154=EDGE_CURVE('',#126,#127,#27,.T.);
#155=EDGE_CURVE('',#126,#121,#74,.T.);
#156=EDGE_CURVE('',#128,#113,#28,.T.);
#157=EDGE_CURVE('',#127,#128,#75,.T.);
#158=EDGE_CURVE('',#123,#129,#76,.T.);
#159=EDGE_CURVE('',#130,#129,#77,.T.);
#160=EDGE_CURVE('',#125,#130,#78,.T.);
#161=EDGE_CURVE('',#131,#130,#29,.T.);
#162=EDGE_CURVE('',#132,#131,#79,.T.);
#163=EDGE_CURVE('',#133,#132,#30,.T.);
#164=EDGE_CURVE('',#128,#133,#80,.T.);
#165=EDGE_CURVE('',#129,#134,#31,.T.);
#166=EDGE_CURVE('',#134,#131,#81,.T.);
#167=EDGE_CURVE('',#134,#135,#82,.T.);
#168=EDGE_CURVE('',#132,#135,#83,.T.);
#169=EDGE_CURVE('',#135,#136,#32,.T.);
#170=EDGE_CURVE('',#136,#133,#84,.T.);
#171=EDGE_CURVE('',#124,#126,#85,.T.);
#172=EDGE_CURVE('',#127,#136,#86,.T.);
#173=ORIENTED_EDGE('',*,*,#137,.F.);
#174=ORIENTED_EDGE('',*,*,#138,.T.);
#175=ORIENTED_EDGE('',*,*,#139,.F.);
#176=ORIENTED_EDGE('',*,*,#140,.F.);
#177=ORIENTED_EDGE('',*,*,#141,.F.);
#178=ORIENTED_EDGE('',*,*,#140,.T.);
#179=ORIENTED_EDGE('',*,*,#142,.F.);
#180=ORIENTED_EDGE('',*,*,#143,.F.);
#181=ORIENTED_EDGE('',*,*,#144,.F.);
#182=ORIENTED_EDGE('',*,*,#143,.T.);
#183=ORIENTED_EDGE('',*,*,#145,.F.);
#184=ORIENTED_EDGE('',*,*,#146,.F.);
#185=ORIENTED_EDGE('',*,*,#147,.T.);
#186=ORIENTED_EDGE('',*,*,#148,.T.);
#187=ORIENTED_EDGE('',*,*,#149,.T.);
#188=ORIENTED_EDGE('',*,*,#145,.T.);
#189=ORIENTED_EDGE('',*,*,#142,.T.);
#190=ORIENTED_EDGE('',*,*,#139,.T.);
#191=ORIENTED_EDGE('',*,*,#150,.F.);
#192=ORIENTED_EDGE('',*,*,#151,.F.);
#193=ORIENTED_EDGE('',*,*,#152,.F.);
#194=ORIENTED_EDGE('',*,*,#146,.T.);
#195=ORIENTED_EDGE('',*,*,#149,.F.);
#196=ORIENTED_EDGE('',*,*,#153,.F.);
#197=ORIENTED_EDGE('',*,*,#154,.F.);
#198=ORIENTED_EDGE('',*,*,#155,.T.);
#199=ORIENTED_EDGE('',*,*,#147,.F.);
#200=ORIENTED_EDGE('',*,*,#138,.F.);
#201=ORIENTED_EDGE('',*,*,#156,.F.);
#202=ORIENTED_EDGE('',*,*,#157,.F.);
#203=ORIENTED_EDGE('',*,*,#151,.T.);
#204=ORIENTED_EDGE('',*,*,#158,.T.);
#205=ORIENTED_EDGE('',*,*,#159,.F.);
#206=ORIENTED_EDGE('',*,*,#160,.F.);
#207=ORIENTED_EDGE('',*,*,#144,.T.);
#208=ORIENTED_EDGE('',*,*,#152,.T.);
#209=ORIENTED_EDGE('',*,*,#160,.T.);
#210=ORIENTED_EDGE('',*,*,#161,.F.);
#211=ORIENTED_EDGE('',*,*,#162,.F.);
#212=ORIENTED_EDGE('',*,*,#163,.F.);
#213=ORIENTED_EDGE('',*,*,#164,.F.);
#214=ORIENTED_EDGE('',*,*,#156,.T.);
#215=ORIENTED_EDGE('',*,*,#137,.T.);
#216=ORIENTED_EDGE('',*,*,#141,.T.);
#217=ORIENTED_EDGE('',*,*,#165,.T.);
#218=ORIENTED_EDGE('',*,*,#166,.T.);
#219=ORIENTED_EDGE('',*,*,#161,.T.);
#220=ORIENTED_EDGE('',*,*,#159,.T.);
#221=ORIENTED_EDGE('',*,*,#166,.F.);
#222=ORIENTED_EDGE('',*,*,#167,.T.);
#223=ORIENTED_EDGE('',*,*,#168,.F.);
#224=ORIENTED_EDGE('',*,*,#162,.T.);
#225=ORIENTED_EDGE('',*,*,#163,.T.);
#226=ORIENTED_EDGE('',*,*,#168,.T.);
#227=ORIENTED_EDGE('',*,*,#169,.T.);
#228=ORIENTED_EDGE('',*,*,#170,.T.);
#229=ORIENTED_EDGE('',*,*,#150,.T.);
#230=ORIENTED_EDGE('',*,*,#171,.T.);
#231=ORIENTED_EDGE('',*,*,#154,.T.);
#232=ORIENTED_EDGE('',*,*,#172,.T.);
#233=ORIENTED_EDGE('',*,*,#169,.F.);
#234=ORIENTED_EDGE('',*,*,#167,.F.);
#235=ORIENTED_EDGE('',*,*,#165,.F.);
#236=ORIENTED_EDGE('',*,*,#158,.F.);
#237=ORIENTED_EDGE('',*,*,#157,.T.);
#238=ORIENTED_EDGE('',*,*,#164,.T.);
#239=ORIENTED_EDGE('',*,*,#170,.F.);
#240=ORIENTED_EDGE('',*,*,#172,.F.);
#241=ORIENTED_EDGE('',*,*,#153,.T.);
#242=ORIENTED_EDGE('',*,*,#148,.F.);
#243=ORIENTED_EDGE('',*,*,#155,.F.);
#244=ORIENTED_EDGE('',*,*,#171,.F.);
#245=PLANE('',#284);
#246=PLANE('',#285);
#247=PLANE('',#286);
#248=PLANE('',#287);
#249=PLANE('',#296);
#250=PLANE('',#297);
#251=PLANE('',#302);
#252=PLANE('',#305);
#253=PLANE('',#306);
#254=PLANE('',#307);
#255=ADVANCED_FACE('',(#33),#245,.T.);
#256=ADVANCED_FACE('',(#34),#246,.T.);
#257=ADVANCED_FACE('',(#35),#247,.T.);
#258=ADVANCED_FACE('',(#36),#248,.T.);
#259=ADVANCED_FACE('',(#37),#19,.T.);
#260=ADVANCED_FACE('',(#38),#20,.T.);
#261=ADVANCED_FACE('',(#39),#249,.T.);
#262=ADVANCED_FACE('',(#40),#250,.T.);
#263=ADVANCED_FACE('',(#41),#21,.T.);
#264=ADVANCED_FACE('',(#42),#251,.F.);
#265=ADVANCED_FACE('',(#43),#22,.T.);
#266=ADVANCED_FACE('',(#44),#252,.T.);
#267=ADVANCED_FACE('',(#45),#253,.T.);
#268=ADVANCED_FACE('',(#46),#254,.T.);
#269=CLOSED_SHELL('',(#255,#256,#257,#258,#259,#260,#261,#262,#263,#264,
#265,#266,#267,#268));
#270=DERIVED_UNIT_ELEMENT(#272,1.);
#271=DERIVED_UNIT_ELEMENT(#473,-3.);
#272=(
MASS_UNIT()
NAMED_UNIT(*)
SI_UNIT(.KILO.,.GRAM.)
);
#273=DERIVED_UNIT((#270,#271));
#274=MEASURE_REPRESENTATION_ITEM('density measure',
POSITIVE_RATIO_MEASURE(7850.),#273);
#275=PROPERTY_DEFINITION_REPRESENTATION(#280,#277);
#276=PROPERTY_DEFINITION_REPRESENTATION(#281,#278);
#277=REPRESENTATION('material name',(#279),#470);
#278=REPRESENTATION('density',(#274),#470);
#279=DESCRIPTIVE_REPRESENTATION_ITEM('Acier','Acier');
#280=PROPERTY_DEFINITION('material property','material name',#485);
#281=PROPERTY_DEFINITION('material property','density of part',#485);
#282=AXIS2_PLACEMENT_3D('',#389,#309,#310);
#283=AXIS2_PLACEMENT_3D('',#390,#311,#312);
#284=AXIS2_PLACEMENT_3D('',#391,#313,#314);
#285=AXIS2_PLACEMENT_3D('',#400,#319,#320);
#286=AXIS2_PLACEMENT_3D('',#406,#324,#325);
#287=AXIS2_PLACEMENT_3D('',#412,#329,#330);
#288=AXIS2_PLACEMENT_3D('',#414,#331,#332);
#289=AXIS2_PLACEMENT_3D('',#417,#334,#335);
#290=AXIS2_PLACEMENT_3D('',#418,#336,#337);
#291=AXIS2_PLACEMENT_3D('',#421,#338,#339);
#292=AXIS2_PLACEMENT_3D('',#424,#341,#342);
#293=AXIS2_PLACEMENT_3D('',#426,#344,#345);
#294=AXIS2_PLACEMENT_3D('',#429,#346,#347);
#295=AXIS2_PLACEMENT_3D('',#432,#349,#350);
#296=AXIS2_PLACEMENT_3D('',#434,#352,#353);
#297=AXIS2_PLACEMENT_3D('',#440,#357,#358);
#298=AXIS2_PLACEMENT_3D('',#442,#359,#360);
#299=AXIS2_PLACEMENT_3D('',#446,#362,#363);
#300=AXIS2_PLACEMENT_3D('',#448,#365,#366);
#301=AXIS2_PLACEMENT_3D('',#450,#367,#368);
#302=AXIS2_PLACEMENT_3D('',#452,#370,#371);
#303=AXIS2_PLACEMENT_3D('',#456,#374,#375);
#304=AXIS2_PLACEMENT_3D('',#458,#376,#377);
#305=AXIS2_PLACEMENT_3D('',#460,#379,#380);
#306=AXIS2_PLACEMENT_3D('',#463,#383,#384);
#307=AXIS2_PLACEMENT_3D('',#464,#385,#386);
#308=AXIS2_PLACEMENT_3D('',#465,#387,#388);
#309=DIRECTION('axis',(0.,0.,1.));
#310=DIRECTION('refdir',(1.,0.,0.));
#311=DIRECTION('axis',(0.,0.,1.));
#312=DIRECTION('refdir',(1.,0.,0.));
#313=DIRECTION('center_axis',(0.,-1.,0.));
#314=DIRECTION('ref_axis',(1.,0.,0.));
#315=DIRECTION('',(-1.,0.,0.));
#316=DIRECTION('',(0.,0.,1.));
#317=DIRECTION('',(1.,0.,0.));
#318=DIRECTION('',(0.,0.,1.));
#319=DIRECTION('center_axis',(-1.,-3.56931514458929E-14,0.));
#320=DIRECTION('ref_axis',(3.56931514458929E-14,-1.,0.));
#321=DIRECTION('',(-3.56931514458929E-14,1.,0.));
#322=DIRECTION('',(3.56931514458929E-14,-1.,0.));
#323=DIRECTION('',(0.,0.,1.));
#324=DIRECTION('center_axis',(0.,1.,0.));
#325=DIRECTION('ref_axis',(-1.,0.,0.));
#326=DIRECTION('',(1.,0.,0.));
#327=DIRECTION('',(-1.,0.,0.));
#328=DIRECTION('',(0.,0.,1.));
#329=DIRECTION('center_axis',(0.,0.,1.));
#330=DIRECTION('ref_axis',(-1.,0.,0.));
#331=DIRECTION('center_axis',(0.,0.,1.));
#332=DIRECTION('ref_axis',(0.737817728167536,-0.675000000001256,0.));
#333=DIRECTION('',(0.,1.,0.));
#334=DIRECTION('center_axis',(0.,0.,1.));
#335=DIRECTION('ref_axis',(1.,1.11022302462516E-15,0.));
#336=DIRECTION('center_axis',(0.,0.,-1.));
#337=DIRECTION('ref_axis',(1.,1.11022302462516E-15,0.));
#338=DIRECTION('center_axis',(0.,0.,-1.));
#339=DIRECTION('ref_axis',(1.,1.11022302462516E-15,0.));
#340=DIRECTION('',(0.,0.,-1.));
#341=DIRECTION('center_axis',(0.,0.,1.));
#342=DIRECTION('ref_axis',(1.,1.11022302462516E-15,0.));
#343=DIRECTION('',(0.,0.,1.));
#344=DIRECTION('center_axis',(0.,0.,-1.));
#345=DIRECTION('ref_axis',(0.66143782776426,-0.750000000001665,0.));
#346=DIRECTION('center_axis',(0.,0.,-1.));
#347=DIRECTION('ref_axis',(0.66143782776426,-0.750000000001665,0.));
#348=DIRECTION('',(0.,0.,1.));
#349=DIRECTION('center_axis',(0.,0.,1.));
#350=DIRECTION('ref_axis',(0.66143782776426,-0.750000000001665,0.));
#351=DIRECTION('',(0.,0.,1.));
#352=DIRECTION('center_axis',(0.,1.,0.));
#353=DIRECTION('ref_axis',(0.,0.,-1.));
#354=DIRECTION('',(-1.,0.,0.));
#355=DIRECTION('',(0.,0.,-1.));
#356=DIRECTION('',(-1.,0.,0.));
#357=DIRECTION('center_axis',(0.,0.,1.));
#358=DIRECTION('ref_axis',(0.,1.,0.));
#359=DIRECTION('center_axis',(0.,0.,-1.));
#360=DIRECTION('ref_axis',(-0.707106781186548,0.707106781186548,0.));
#361=DIRECTION('',(-2.46716227694479E-16,1.,0.));
#362=DIRECTION('center_axis',(0.,0.,-1.));
#363=DIRECTION('ref_axis',(-0.707106781186548,-0.707106781186548,6.85299179025507E-13));
#364=DIRECTION('',(-1.,0.,0.));
#365=DIRECTION('center_axis',(0.,0.,-1.));
#366=DIRECTION('ref_axis',(-0.707106781186548,0.707106781186548,0.));
#367=DIRECTION('center_axis',(0.,0.,1.));
#368=DIRECTION('ref_axis',(-0.707106781186548,0.707106781186548,0.));
#369=DIRECTION('',(0.,0.,1.));
#370=DIRECTION('center_axis',(1.,2.46716227694479E-16,0.));
#371=DIRECTION('ref_axis',(0.,0.,-1.));
#372=DIRECTION('',(2.46716227694479E-16,-1.,0.));
#373=DIRECTION('',(2.39107349539971E-28,-9.69159393260785E-13,-1.));
#374=DIRECTION('center_axis',(-2.39107349539971E-28,9.69159393260785E-13,
1.));
#375=DIRECTION('ref_axis',(-0.707106781186548,-0.707106781186548,6.85299179025507E-13));
#376=DIRECTION('center_axis',(0.,0.,1.));
#377=DIRECTION('ref_axis',(-0.707106781186548,-0.707106781186548,6.85299179025507E-13));
#378=DIRECTION('',(-2.39107349539971E-28,9.69159393260785E-13,1.));
#379=DIRECTION('center_axis',(0.,0.,-1.));
#380=DIRECTION('ref_axis',(0.,-1.,0.));
#381=DIRECTION('',(0.,-1.,0.));
#382=DIRECTION('',(-1.,0.,0.));
#383=DIRECTION('center_axis',(0.,-1.,9.69159393260785E-13));
#384=DIRECTION('ref_axis',(0.,9.69159393260785E-13,1.));
#385=DIRECTION('center_axis',(1.,0.,0.));
#386=DIRECTION('ref_axis',(0.,1.,0.));
#387=DIRECTION('',(0.,0.,1.));
#388=DIRECTION('',(1.,0.,0.));
#389=CARTESIAN_POINT('',(0.,0.,0.));
#390=CARTESIAN_POINT('',(0.,0.,0.));
#391=CARTESIAN_POINT('Origin',(67.9999999701998,-10.7,17.7));
#392=CARTESIAN_POINT('',(69.6207733980463,-10.7,17.7));
#393=CARTESIAN_POINT('',(67.9999999701998,-10.7,17.7));
#394=CARTESIAN_POINT('',(68.9999999850999,-10.7,17.7));
#395=CARTESIAN_POINT('',(69.6207733980463,-10.7,20.));
#396=CARTESIAN_POINT('',(69.6207733980463,-10.7,17.7));
#397=CARTESIAN_POINT('',(67.9999999701998,-10.7,20.));
#398=CARTESIAN_POINT('',(70.,-10.7,20.));
#399=CARTESIAN_POINT('',(67.9999999701998,-10.7,17.7));
#400=CARTESIAN_POINT('Origin',(67.9999999701991,10.7,17.7));
#401=CARTESIAN_POINT('',(67.9999999701991,10.7,17.7));
#402=CARTESIAN_POINT('',(67.9999999701995,-0.500000000001499,17.7));
#403=CARTESIAN_POINT('',(67.9999999701991,10.7,20.));
#404=CARTESIAN_POINT('',(67.9999999701998,-10.7,20.));
#405=CARTESIAN_POINT('',(67.9999999701991,10.7,17.7));
#406=CARTESIAN_POINT('Origin',(69.6207733980463,10.7,17.7));
#407=CARTESIAN_POINT('',(69.6207733980463,10.7,17.7));
#408=CARTESIAN_POINT('',(69.8103866990232,10.7,17.7));
#409=CARTESIAN_POINT('',(69.6207733980463,10.7,20.));
#410=CARTESIAN_POINT('',(67.9999999701991,10.7,20.));
#411=CARTESIAN_POINT('',(69.6207733980463,10.7,17.7));
#412=CARTESIAN_POINT('Origin',(68.9999999850995,-2.22044604925031E-15,20.));
#413=CARTESIAN_POINT('',(70.,-9.,20.));
#414=CARTESIAN_POINT('Origin',(66.,-9.,20.));
#415=CARTESIAN_POINT('',(70.,9.00000000000001,20.));
#416=CARTESIAN_POINT('',(70.,-9.,20.));
#417=CARTESIAN_POINT('Origin',(66.,9.00000000000001,20.));
#418=CARTESIAN_POINT('Origin',(66.,9.00000000000001,17.7));
#419=CARTESIAN_POINT('',(68.9512709126809,11.6999999999933,15.9999999999996));
#420=CARTESIAN_POINT('',(70.,9.00000000000001,15.9999999999996));
#421=CARTESIAN_POINT('Origin',(66.,9.00000000000001,15.9999999999996));
#422=CARTESIAN_POINT('',(68.9512709126809,11.6999999999933,17.7));
#423=CARTESIAN_POINT('',(68.9512709126745,11.7000000000003,17.7));
#424=CARTESIAN_POINT('Origin',(66.,9.00000000000001,17.7));
#425=CARTESIAN_POINT('',(70.,9.00000000000001,17.7));
#426=CARTESIAN_POINT('Origin',(66.,-9.,17.7));
#427=CARTESIAN_POINT('',(70.,-9.,15.9999999999996));
#428=CARTESIAN_POINT('',(68.9512709126701,-11.700000000005,15.9999999999996));
#429=CARTESIAN_POINT('Origin',(66.,-9.,15.9999999999996));
#430=CARTESIAN_POINT('',(70.,-9.,17.7));
#431=CARTESIAN_POINT('',(68.9512709126701,-11.700000000005,17.7));
#432=CARTESIAN_POINT('Origin',(66.,-9.,17.7));
#433=CARTESIAN_POINT('',(68.9512709126721,-11.7000000000029,17.7));
#434=CARTESIAN_POINT('Origin',(70.,11.7000000000003,17.7));
#435=CARTESIAN_POINT('',(-6.3,11.7000000000003,15.9999999999996));
#436=CARTESIAN_POINT('',(70.,11.7000000000003,15.9999999999996));
#437=CARTESIAN_POINT('',(-6.3,11.7000000000003,17.7));
#438=CARTESIAN_POINT('',(-6.3,11.7000000000003,17.2749999999999));
#439=CARTESIAN_POINT('',(70.,11.7000000000003,17.7));
#440=CARTESIAN_POINT('Origin',(70.,-11.7000000000029,17.7));
#441=CARTESIAN_POINT('',(-8.,10.0000000000003,17.7));
#442=CARTESIAN_POINT('Origin',(-6.3,10.0000000000003,17.7));
#443=CARTESIAN_POINT('',(-8.,-10.0000000000029,17.7));
#444=CARTESIAN_POINT('',(-8.,-5.85000000000255,17.7));
#445=CARTESIAN_POINT('',(-6.3,-11.7000000000029,17.7));
#446=CARTESIAN_POINT('Origin',(-6.3,-10.0000000000029,17.6999999999984));
#447=CARTESIAN_POINT('',(70.,-11.7000000000029,17.7));
#448=CARTESIAN_POINT('Origin',(-6.3,10.0000000000003,17.2749999999999));
#449=CARTESIAN_POINT('',(-8.,10.0000000000003,15.9999999999996));
#450=CARTESIAN_POINT('Origin',(-6.3,10.0000000000003,15.9999999999996));
#451=CARTESIAN_POINT('',(-8.,10.0000000000003,17.2749999999999));
#452=CARTESIAN_POINT('Origin',(-8.,-2.15161222172355E-12,16.8499999999998));
#453=CARTESIAN_POINT('',(-7.99999999999999,-10.0000000000046,15.9999999999996));
#454=CARTESIAN_POINT('',(-8.,5.84999999999905,15.9999999999996));
#455=CARTESIAN_POINT('',(-7.99999999999999,-10.0000000000042,16.4250000000037));
#456=CARTESIAN_POINT('Origin',(-6.3,-10.0000000000042,16.4250000000037));
#457=CARTESIAN_POINT('',(-6.3,-11.7000000000046,15.9999999999996));
#458=CARTESIAN_POINT('Origin',(-6.3,-10.0000000000046,16.0000000000206));
#459=CARTESIAN_POINT('',(-6.3,-11.7000000000042,16.4250000000054));
#460=CARTESIAN_POINT('Origin',(70.,11.7000000000003,15.9999999999996));
#461=CARTESIAN_POINT('',(70.,11.7000000000003,15.9999999999996));
#462=CARTESIAN_POINT('',(70.,-11.7000000000046,15.9999999999996));
#463=CARTESIAN_POINT('Origin',(70.,-11.7000000000046,15.9999999999996));
#464=CARTESIAN_POINT('Origin',(70.,-2.1510365505256E-12,16.8499999999998));
#465=CARTESIAN_POINT('',(0.,0.,0.));
#466=UNCERTAINTY_MEASURE_WITH_UNIT(LENGTH_MEASURE(0.01),#472,
'DISTANCE_ACCURACY_VALUE',
'Maximum model space distance between geometric entities at asserted c
onnectivities');
#467=UNCERTAINTY_MEASURE_WITH_UNIT(LENGTH_MEASURE(0.01),#472,
'DISTANCE_ACCURACY_VALUE',
'Maximum model space distance between geometric entities at asserted c
onnectivities');
#468=UNCERTAINTY_MEASURE_WITH_UNIT(LENGTH_MEASURE(0.01),#472,
'DISTANCE_ACCURACY_VALUE',
'Maximum model space distance between geometric entities at asserted c
onnectivities');
#469=(
GEOMETRIC_REPRESENTATION_CONTEXT(3)
GLOBAL_UNCERTAINTY_ASSIGNED_CONTEXT((#466))
GLOBAL_UNIT_ASSIGNED_CONTEXT((#472,#474,#475))
REPRESENTATION_CONTEXT('','3D')
);
#470=(
GEOMETRIC_REPRESENTATION_CONTEXT(3)
GLOBAL_UNCERTAINTY_ASSIGNED_CONTEXT((#467))
GLOBAL_UNIT_ASSIGNED_CONTEXT((#472,#474,#475))
REPRESENTATION_CONTEXT('','3D')
);
#471=(
GEOMETRIC_REPRESENTATION_CONTEXT(3)
GLOBAL_UNCERTAINTY_ASSIGNED_CONTEXT((#468))
GLOBAL_UNIT_ASSIGNED_CONTEXT((#472,#474,#475))
REPRESENTATION_CONTEXT('','3D')
);
#472=(
LENGTH_UNIT()
NAMED_UNIT(*)
SI_UNIT(.MILLI.,.METRE.)
);
#473=(
LENGTH_UNIT()
NAMED_UNIT(*)
SI_UNIT($,.METRE.)
);
#474=(
NAMED_UNIT(*)
PLANE_ANGLE_UNIT()
SI_UNIT($,.RADIAN.)
);
#475=(
NAMED_UNIT(*)
SI_UNIT($,.STERADIAN.)
SOLID_ANGLE_UNIT()
);
#476=SHAPE_DEFINITION_REPRESENTATION(#478,#481);
#477=SHAPE_DEFINITION_REPRESENTATION(#479,#482);
#478=PRODUCT_DEFINITION_SHAPE('',$,#484);
#479=PRODUCT_DEFINITION_SHAPE('',$,#485);
#480=PRODUCT_DEFINITION_SHAPE($,$,#14);
#481=SHAPE_REPRESENTATION('',(#282,#308),#469);
#482=SHAPE_REPRESENTATION('',(#283),#470);
#483=PRODUCT_DEFINITION_CONTEXT('part definition',#491,'design');
#484=PRODUCT_DEFINITION('boite_domino','boite_domino v26',#486,#483);
#485=PRODUCT_DEFINITION('couvercle','couvercle',#487,#483);
#486=PRODUCT_DEFINITION_FORMATION('',$,#493);
#487=PRODUCT_DEFINITION_FORMATION('',$,#494);
#488=PRODUCT_RELATED_PRODUCT_CATEGORY('boite_domino v26',
'boite_domino v26',(#493));
#489=PRODUCT_RELATED_PRODUCT_CATEGORY('couvercle','couvercle',(#494));
#490=APPLICATION_PROTOCOL_DEFINITION('international standard',
'automotive_design',2009,#491);
#491=APPLICATION_CONTEXT(
'Core Data for Automotive Mechanical Design Process');
#492=PRODUCT_CONTEXT('part definition',#491,'mechanical');
#493=PRODUCT('boite_domino','boite_domino v26',$,(#492));
#494=PRODUCT('couvercle','couvercle',$,(#492));
#495=PRESENTATION_STYLE_ASSIGNMENT((#496));
#496=SURFACE_STYLE_USAGE(.BOTH.,#497);
#497=SURFACE_SIDE_STYLE('',(#498));
#498=SURFACE_STYLE_FILL_AREA(#499);
#499=FILL_AREA_STYLE('Acier - Satin\X\E9',(#500));
#500=FILL_AREA_STYLE_COLOUR('Acier - Satin\X\E9',#501);
#501=COLOUR_RGB('Acier - Satin\X\E9',0.627450980392157,0.627450980392157,
0.627450980392157);
ENDSEC;
END-ISO-10303-21;
