ISO-10303-21;
HEADER;
/* Generated by software containing ST-Developer
 * from STEP Tools, Inc. (www.steptools.com) 
 */

FILE_DESCRIPTION(
/* description */ (''),
/* implementation_level */ '2;1');

FILE_NAME(
/* name */ 'boite_alim_4x18650_couvercle.step',
/* time_stamp */ '2026-02-13T19:23:58+01:00',
/* author */ (''),
/* organization */ (''),
/* preprocessor_version */ 'ST-DEVELOPER v20.1',
/* originating_system */ 'Autodesk Translation Framework v14.21.0.0',
/* authorisation */ '');

FILE_SCHEMA (('AUTOMOTIVE_DESIGN { 1 0 10303 214 3 1 1 }'));
ENDSEC;

DATA;
#10=MECHANICAL_DESIGN_GEOMETRIC_PRESENTATION_REPRESENTATION('',(#17),#1380);
#11=ITEM_DEFINED_TRANSFORMATION($,$,#769,#884);
#12=(
REPRESENTATION_RELATIONSHIP($,$,#1391,#1390)
REPRESENTATION_RELATIONSHIP_WITH_TRANSFORMATION(#11)
SHAPE_REPRESENTATION_RELATIONSHIP()
);
#13=CONTEXT_DEPENDENT_SHAPE_REPRESENTATION(#12,#1389);
#14=NEXT_ASSEMBLY_USAGE_OCCURRENCE('couvercle:1','couvercle:1',
'couvercle:1',#1393,#1394,'couvercle:1');
#15=SHAPE_REPRESENTATION_RELATIONSHIP('SRR','None',#1391,#16);
#16=ADVANCED_BREP_SHAPE_REPRESENTATION('',(#18),#1379);
#17=STYLED_ITEM('',(#1404),#18);
#18=MANIFOLD_SOLID_BREP('Corps1',#755);
#19=CYLINDRICAL_SURFACE('',#788,4.);
#20=CYLINDRICAL_SURFACE('',#794,4.);
#21=CYLINDRICAL_SURFACE('',#800,4.);
#22=CYLINDRICAL_SURFACE('',#806,4.);
#23=CYLINDRICAL_SURFACE('',#812,4.);
#24=CYLINDRICAL_SURFACE('',#818,4.);
#25=CYLINDRICAL_SURFACE('',#824,4.);
#26=CYLINDRICAL_SURFACE('',#830,4.);
#27=CYLINDRICAL_SURFACE('',#836,4.);
#28=CYLINDRICAL_SURFACE('',#876,3.99999999999991);
#29=CYLINDRICAL_SURFACE('',#877,4.00000000000001);
#30=CYLINDRICAL_SURFACE('',#879,1.7);
#31=CYLINDRICAL_SURFACE('',#881,1.7);
#32=FACE_BOUND('',#173,.T.);
#33=FACE_BOUND('',#174,.T.);
#34=FACE_BOUND('',#175,.T.);
#35=FACE_BOUND('',#176,.T.);
#36=FACE_BOUND('',#177,.T.);
#37=FACE_BOUND('',#178,.T.);
#38=FACE_BOUND('',#179,.T.);
#39=FACE_BOUND('',#180,.T.);
#40=FACE_BOUND('',#181,.T.);
#41=FACE_BOUND('',#201,.T.);
#42=FACE_BOUND('',#202,.T.);
#43=FACE_BOUND('',#203,.T.);
#44=FACE_BOUND('',#204,.T.);
#45=FACE_BOUND('',#205,.T.);
#46=FACE_BOUND('',#206,.T.);
#47=FACE_BOUND('',#207,.T.);
#48=FACE_BOUND('',#208,.T.);
#49=FACE_BOUND('',#209,.T.);
#50=LINE('',#1169,#85);
#51=LINE('',#1173,#86);
#52=LINE('',#1177,#87);
#53=LINE('',#1180,#88);
#54=LINE('',#1200,#89);
#55=LINE('',#1210,#90);
#56=LINE('',#1220,#91);
#57=LINE('',#1230,#92);
#58=LINE('',#1240,#93);
#59=LINE('',#1250,#94);
#60=LINE('',#1260,#95);
#61=LINE('',#1270,#96);
#62=LINE('',#1280,#97);
#63=LINE('',#1288,#98);
#64=LINE('',#1292,#99);
#65=LINE('',#1296,#100);
#66=LINE('',#1300,#101);
#67=LINE('',#1304,#102);
#68=LINE('',#1305,#103);
#69=LINE('',#1340,#104);
#70=LINE('',#1342,#105);
#71=LINE('',#1343,#106);
#72=LINE('',#1346,#107);
#73=LINE('',#1347,#108);
#74=LINE('',#1350,#109);
#75=LINE('',#1351,#110);
#76=LINE('',#1356,#111);
#77=LINE('',#1359,#112);
#78=LINE('',#1360,#113);
#79=LINE('',#1362,#114);
#80=LINE('',#1363,#115);
#81=LINE('',#1365,#116);
#82=LINE('',#1367,#117);
#83=LINE('',#1369,#118);
#84=LINE('',#1371,#119);
#85=VECTOR('',#903,10.);
#86=VECTOR('',#906,10.);
#87=VECTOR('',#909,10.);
#88=VECTOR('',#912,10.);
#89=VECTOR('',#933,4.);
#90=VECTOR('',#946,4.);
#91=VECTOR('',#959,4.);
#92=VECTOR('',#972,4.);
#93=VECTOR('',#985,4.);
#94=VECTOR('',#998,4.);
#95=VECTOR('',#1011,4.);
#96=VECTOR('',#1024,4.);
#97=VECTOR('',#1037,4.);
#98=VECTOR('',#1046,10.);
#99=VECTOR('',#1049,10.);
#100=VECTOR('',#1052,10.);
#101=VECTOR('',#1055,10.);
#102=VECTOR('',#1058,10.);
#103=VECTOR('',#1059,10.);
#104=VECTOR('',#1110,10.);
#105=VECTOR('',#1111,10.);
#106=VECTOR('',#1112,10.);
#107=VECTOR('',#1115,10.);
#108=VECTOR('',#1116,10.);
#109=VECTOR('',#1119,10.);
#110=VECTOR('',#1120,10.);
#111=VECTOR('',#1125,10.);
#112=VECTOR('',#1130,10.);
#113=VECTOR('',#1131,10.);
#114=VECTOR('',#1134,10.);
#115=VECTOR('',#1135,10.);
#116=VECTOR('',#1138,10.);
#117=VECTOR('',#1141,10.);
#118=VECTOR('',#1144,10.);
#119=VECTOR('',#1147,10.);
#120=PLANE('',#775);
#121=PLANE('',#841);
#122=PLANE('',#870);
#123=PLANE('',#871);
#124=PLANE('',#872);
#125=PLANE('',#873);
#126=PLANE('',#878);
#127=PLANE('',#880);
#128=PLANE('',#882);
#129=PLANE('',#883);
#130=FACE_OUTER_BOUND('',#171,.T.);
#131=FACE_OUTER_BOUND('',#172,.T.);
#132=FACE_OUTER_BOUND('',#182,.T.);
#133=FACE_OUTER_BOUND('',#183,.T.);
#134=FACE_OUTER_BOUND('',#184,.T.);
#135=FACE_OUTER_BOUND('',#185,.T.);
#136=FACE_OUTER_BOUND('',#186,.T.);
#137=FACE_OUTER_BOUND('',#187,.T.);
#138=FACE_OUTER_BOUND('',#188,.T.);
#139=FACE_OUTER_BOUND('',#189,.T.);
#140=FACE_OUTER_BOUND('',#190,.T.);
#141=FACE_OUTER_BOUND('',#191,.T.);
#142=FACE_OUTER_BOUND('',#192,.T.);
#143=FACE_OUTER_BOUND('',#193,.T.);
#144=FACE_OUTER_BOUND('',#194,.T.);
#145=FACE_OUTER_BOUND('',#195,.T.);
#146=FACE_OUTER_BOUND('',#196,.T.);
#147=FACE_OUTER_BOUND('',#197,.T.);
#148=FACE_OUTER_BOUND('',#198,.T.);
#149=FACE_OUTER_BOUND('',#199,.T.);
#150=FACE_OUTER_BOUND('',#200,.T.);
#151=FACE_OUTER_BOUND('',#210,.T.);
#152=FACE_OUTER_BOUND('',#211,.T.);
#153=FACE_OUTER_BOUND('',#212,.T.);
#154=FACE_OUTER_BOUND('',#213,.T.);
#155=FACE_OUTER_BOUND('',#214,.T.);
#156=FACE_OUTER_BOUND('',#215,.T.);
#157=FACE_OUTER_BOUND('',#216,.T.);
#158=FACE_OUTER_BOUND('',#217,.T.);
#159=FACE_OUTER_BOUND('',#218,.T.);
#160=FACE_OUTER_BOUND('',#219,.T.);
#161=FACE_OUTER_BOUND('',#220,.T.);
#162=FACE_OUTER_BOUND('',#221,.T.);
#163=FACE_OUTER_BOUND('',#222,.T.);
#164=FACE_OUTER_BOUND('',#223,.T.);
#165=FACE_OUTER_BOUND('',#224,.T.);
#166=FACE_OUTER_BOUND('',#225,.T.);
#167=FACE_OUTER_BOUND('',#226,.T.);
#168=FACE_OUTER_BOUND('',#227,.T.);
#169=FACE_OUTER_BOUND('',#228,.T.);
#170=FACE_OUTER_BOUND('',#229,.T.);
#171=EDGE_LOOP('',(#480,#481,#482,#483,#484));
#172=EDGE_LOOP('',(#485,#486,#487,#488,#489,#490,#491,#492));
#173=EDGE_LOOP('',(#493));
#174=EDGE_LOOP('',(#494));
#175=EDGE_LOOP('',(#495));
#176=EDGE_LOOP('',(#496));
#177=EDGE_LOOP('',(#497));
#178=EDGE_LOOP('',(#498));
#179=EDGE_LOOP('',(#499));
#180=EDGE_LOOP('',(#500));
#181=EDGE_LOOP('',(#501));
#182=EDGE_LOOP('',(#502,#503,#504,#505,#506));
#183=EDGE_LOOP('',(#507,#508,#509,#510,#511));
#184=EDGE_LOOP('',(#512,#513,#514,#515,#516));
#185=EDGE_LOOP('',(#517,#518,#519,#520,#521));
#186=EDGE_LOOP('',(#522,#523,#524,#525,#526));
#187=EDGE_LOOP('',(#527,#528,#529,#530,#531));
#188=EDGE_LOOP('',(#532,#533,#534,#535,#536));
#189=EDGE_LOOP('',(#537,#538,#539,#540,#541));
#190=EDGE_LOOP('',(#542,#543,#544,#545,#546));
#191=EDGE_LOOP('',(#547,#548,#549,#550,#551));
#192=EDGE_LOOP('',(#552,#553,#554,#555,#556));
#193=EDGE_LOOP('',(#557,#558,#559,#560,#561));
#194=EDGE_LOOP('',(#562,#563,#564,#565,#566));
#195=EDGE_LOOP('',(#567,#568,#569,#570,#571));
#196=EDGE_LOOP('',(#572,#573,#574,#575,#576));
#197=EDGE_LOOP('',(#577,#578,#579,#580,#581));
#198=EDGE_LOOP('',(#582,#583,#584,#585,#586));
#199=EDGE_LOOP('',(#587,#588,#589,#590));
#200=EDGE_LOOP('',(#591,#592,#593,#594,#595,#596,#597,#598,#599,#600));
#201=EDGE_LOOP('',(#601));
#202=EDGE_LOOP('',(#602));
#203=EDGE_LOOP('',(#603));
#204=EDGE_LOOP('',(#604));
#205=EDGE_LOOP('',(#605));
#206=EDGE_LOOP('',(#606));
#207=EDGE_LOOP('',(#607));
#208=EDGE_LOOP('',(#608));
#209=EDGE_LOOP('',(#609));
#210=EDGE_LOOP('',(#610,#611,#612,#613));
#211=EDGE_LOOP('',(#614,#615,#616,#617));
#212=EDGE_LOOP('',(#618,#619,#620,#621));
#213=EDGE_LOOP('',(#622,#623,#624,#625));
#214=EDGE_LOOP('',(#626,#627,#628,#629));
#215=EDGE_LOOP('',(#630,#631,#632,#633));
#216=EDGE_LOOP('',(#634,#635,#636,#637));
#217=EDGE_LOOP('',(#638,#639,#640,#641));
#218=EDGE_LOOP('',(#642,#643,#644,#645));
#219=EDGE_LOOP('',(#646,#647,#648,#649));
#220=EDGE_LOOP('',(#650,#651,#652,#653));
#221=EDGE_LOOP('',(#654,#655,#656,#657,#658,#659));
#222=EDGE_LOOP('',(#660,#661,#662,#663,#664,#665));
#223=EDGE_LOOP('',(#666,#667,#668,#669,#670,#671));
#224=EDGE_LOOP('',(#672,#673,#674,#675));
#225=EDGE_LOOP('',(#676,#677,#678,#679));
#226=EDGE_LOOP('',(#680,#681,#682,#683));
#227=EDGE_LOOP('',(#684,#685,#686,#687));
#228=EDGE_LOOP('',(#688,#689,#690,#691));
#229=EDGE_LOOP('',(#692,#693,#694,#695));
#230=CIRCLE('',#771,4.5);
#231=CIRCLE('',#772,0.5);
#232=CIRCLE('',#773,4.);
#233=CIRCLE('',#774,4.);
#234=CIRCLE('',#776,3.99999999999991);
#235=CIRCLE('',#777,4.00000000000001);
#236=CIRCLE('',#778,1.7);
#237=CIRCLE('',#779,1.7);
#238=CIRCLE('',#780,4.5);
#239=CIRCLE('',#781,4.5);
#240=CIRCLE('',#782,4.5);
#241=CIRCLE('',#783,4.5);
#242=CIRCLE('',#784,4.5);
#243=CIRCLE('',#785,4.5);
#244=CIRCLE('',#786,4.5);
#245=CIRCLE('',#787,4.5);
#246=CIRCLE('',#789,4.);
#247=CIRCLE('',#791,0.5);
#248=CIRCLE('',#792,4.);
#249=CIRCLE('',#793,4.);
#250=CIRCLE('',#795,4.);
#251=CIRCLE('',#797,0.5);
#252=CIRCLE('',#798,4.);
#253=CIRCLE('',#799,4.);
#254=CIRCLE('',#801,4.);
#255=CIRCLE('',#803,0.5);
#256=CIRCLE('',#804,4.);
#257=CIRCLE('',#805,4.);
#258=CIRCLE('',#807,4.);
#259=CIRCLE('',#809,0.5);
#260=CIRCLE('',#810,4.);
#261=CIRCLE('',#811,4.);
#262=CIRCLE('',#813,4.);
#263=CIRCLE('',#815,0.5);
#264=CIRCLE('',#816,4.);
#265=CIRCLE('',#817,4.);
#266=CIRCLE('',#819,4.);
#267=CIRCLE('',#821,0.5);
#268=CIRCLE('',#822,4.);
#269=CIRCLE('',#823,4.);
#270=CIRCLE('',#825,4.);
#271=CIRCLE('',#827,0.5);
#272=CIRCLE('',#828,4.);
#273=CIRCLE('',#829,4.);
#274=CIRCLE('',#831,4.);
#275=CIRCLE('',#833,0.5);
#276=CIRCLE('',#834,4.);
#277=CIRCLE('',#835,4.);
#278=CIRCLE('',#837,4.);
#279=CIRCLE('',#839,4.5);
#280=CIRCLE('',#840,0.5);
#281=CIRCLE('',#842,3.99999999999991);
#282=CIRCLE('',#843,1.7);
#283=CIRCLE('',#844,1.7);
#284=CIRCLE('',#845,4.00000000000001);
#285=CIRCLE('',#846,4.5);
#286=CIRCLE('',#847,4.5);
#287=CIRCLE('',#848,4.5);
#288=CIRCLE('',#849,4.5);
#289=CIRCLE('',#850,4.5);
#290=CIRCLE('',#851,4.5);
#291=CIRCLE('',#852,4.5);
#292=CIRCLE('',#853,4.5);
#293=CIRCLE('',#855,0.5);
#294=CIRCLE('',#857,0.5);
#295=CIRCLE('',#859,0.5);
#296=CIRCLE('',#861,0.5);
#297=CIRCLE('',#863,0.5);
#298=CIRCLE('',#865,0.5);
#299=CIRCLE('',#867,0.5);
#300=CIRCLE('',#869,0.5);
#301=CIRCLE('',#874,4.00000000000001);
#302=CIRCLE('',#875,3.99999999999991);
#303=VERTEX_POINT('',#1157);
#304=VERTEX_POINT('',#1159);
#305=VERTEX_POINT('',#1161);
#306=VERTEX_POINT('',#1165);
#307=VERTEX_POINT('',#1166);
#308=VERTEX_POINT('',#1168);
#309=VERTEX_POINT('',#1170);
#310=VERTEX_POINT('',#1172);
#311=VERTEX_POINT('',#1174);
#312=VERTEX_POINT('',#1176);
#313=VERTEX_POINT('',#1178);
#314=VERTEX_POINT('',#1181);
#315=VERTEX_POINT('',#1183);
#316=VERTEX_POINT('',#1185);
#317=VERTEX_POINT('',#1187);
#318=VERTEX_POINT('',#1189);
#319=VERTEX_POINT('',#1191);
#320=VERTEX_POINT('',#1193);
#321=VERTEX_POINT('',#1195);
#322=VERTEX_POINT('',#1198);
#323=VERTEX_POINT('',#1202);
#324=VERTEX_POINT('',#1204);
#325=VERTEX_POINT('',#1208);
#326=VERTEX_POINT('',#1212);
#327=VERTEX_POINT('',#1214);
#328=VERTEX_POINT('',#1218);
#329=VERTEX_POINT('',#1222);
#330=VERTEX_POINT('',#1224);
#331=VERTEX_POINT('',#1228);
#332=VERTEX_POINT('',#1232);
#333=VERTEX_POINT('',#1234);
#334=VERTEX_POINT('',#1238);
#335=VERTEX_POINT('',#1242);
#336=VERTEX_POINT('',#1244);
#337=VERTEX_POINT('',#1248);
#338=VERTEX_POINT('',#1252);
#339=VERTEX_POINT('',#1254);
#340=VERTEX_POINT('',#1258);
#341=VERTEX_POINT('',#1262);
#342=VERTEX_POINT('',#1264);
#343=VERTEX_POINT('',#1268);
#344=VERTEX_POINT('',#1272);
#345=VERTEX_POINT('',#1274);
#346=VERTEX_POINT('',#1278);
#347=VERTEX_POINT('',#1282);
#348=VERTEX_POINT('',#1286);
#349=VERTEX_POINT('',#1287);
#350=VERTEX_POINT('',#1289);
#351=VERTEX_POINT('',#1291);
#352=VERTEX_POINT('',#1293);
#353=VERTEX_POINT('',#1295);
#354=VERTEX_POINT('',#1297);
#355=VERTEX_POINT('',#1299);
#356=VERTEX_POINT('',#1301);
#357=VERTEX_POINT('',#1303);
#358=VERTEX_POINT('',#1306);
#359=VERTEX_POINT('',#1308);
#360=VERTEX_POINT('',#1310);
#361=VERTEX_POINT('',#1312);
#362=VERTEX_POINT('',#1314);
#363=VERTEX_POINT('',#1316);
#364=VERTEX_POINT('',#1318);
#365=VERTEX_POINT('',#1320);
#366=VERTEX_POINT('',#1339);
#367=VERTEX_POINT('',#1341);
#368=VERTEX_POINT('',#1345);
#369=VERTEX_POINT('',#1349);
#370=VERTEX_POINT('',#1353);
#371=VERTEX_POINT('',#1355);
#372=EDGE_CURVE('',#303,#303,#230,.T.);
#373=EDGE_CURVE('',#303,#304,#231,.T.);
#374=EDGE_CURVE('',#304,#305,#232,.T.);
#375=EDGE_CURVE('',#305,#304,#233,.T.);
#376=EDGE_CURVE('',#306,#307,#234,.T.);
#377=EDGE_CURVE('',#307,#308,#50,.T.);
#378=EDGE_CURVE('',#308,#309,#235,.T.);
#379=EDGE_CURVE('',#309,#310,#51,.T.);
#380=EDGE_CURVE('',#311,#310,#236,.T.);
#381=EDGE_CURVE('',#312,#311,#52,.T.);
#382=EDGE_CURVE('',#313,#312,#237,.T.);
#383=EDGE_CURVE('',#306,#313,#53,.T.);
#384=EDGE_CURVE('',#314,#314,#238,.T.);
#385=EDGE_CURVE('',#315,#315,#239,.T.);
#386=EDGE_CURVE('',#316,#316,#240,.T.);
#387=EDGE_CURVE('',#317,#317,#241,.T.);
#388=EDGE_CURVE('',#318,#318,#242,.T.);
#389=EDGE_CURVE('',#319,#319,#243,.T.);
#390=EDGE_CURVE('',#320,#320,#244,.T.);
#391=EDGE_CURVE('',#321,#321,#245,.T.);
#392=EDGE_CURVE('',#322,#322,#246,.T.);
#393=EDGE_CURVE('',#322,#305,#54,.T.);
#394=EDGE_CURVE('',#314,#323,#247,.T.);
#395=EDGE_CURVE('',#323,#324,#248,.T.);
#396=EDGE_CURVE('',#324,#323,#249,.T.);
#397=EDGE_CURVE('',#325,#325,#250,.T.);
#398=EDGE_CURVE('',#325,#324,#55,.T.);
#399=EDGE_CURVE('',#321,#326,#251,.T.);
#400=EDGE_CURVE('',#326,#327,#252,.T.);
#401=EDGE_CURVE('',#327,#326,#253,.T.);
#402=EDGE_CURVE('',#328,#328,#254,.T.);
#403=EDGE_CURVE('',#328,#327,#56,.T.);
#404=EDGE_CURVE('',#315,#329,#255,.T.);
#405=EDGE_CURVE('',#329,#330,#256,.T.);
#406=EDGE_CURVE('',#330,#329,#257,.T.);
#407=EDGE_CURVE('',#331,#331,#258,.T.);
#408=EDGE_CURVE('',#331,#330,#57,.T.);
#409=EDGE_CURVE('',#320,#332,#259,.T.);
#410=EDGE_CURVE('',#332,#333,#260,.T.);
#411=EDGE_CURVE('',#333,#332,#261,.T.);
#412=EDGE_CURVE('',#334,#334,#262,.T.);
#413=EDGE_CURVE('',#334,#333,#58,.T.);
#414=EDGE_CURVE('',#316,#335,#263,.T.);
#415=EDGE_CURVE('',#335,#336,#264,.T.);
#416=EDGE_CURVE('',#336,#335,#265,.T.);
#417=EDGE_CURVE('',#337,#337,#266,.T.);
#418=EDGE_CURVE('',#337,#336,#59,.T.);
#419=EDGE_CURVE('',#319,#338,#267,.T.);
#420=EDGE_CURVE('',#338,#339,#268,.T.);
#421=EDGE_CURVE('',#339,#338,#269,.T.);
#422=EDGE_CURVE('',#340,#340,#270,.T.);
#423=EDGE_CURVE('',#340,#339,#60,.T.);
#424=EDGE_CURVE('',#317,#341,#271,.T.);
#425=EDGE_CURVE('',#341,#342,#272,.T.);
#426=EDGE_CURVE('',#342,#341,#273,.T.);
#427=EDGE_CURVE('',#343,#343,#274,.T.);
#428=EDGE_CURVE('',#343,#342,#61,.T.);
#429=EDGE_CURVE('',#318,#344,#275,.T.);
#430=EDGE_CURVE('',#344,#345,#276,.T.);
#431=EDGE_CURVE('',#345,#344,#277,.T.);
#432=EDGE_CURVE('',#346,#346,#278,.T.);
#433=EDGE_CURVE('',#346,#345,#62,.T.);
#434=EDGE_CURVE('',#347,#347,#279,.T.);
#435=EDGE_CURVE('',#347,#340,#280,.T.);
#436=EDGE_CURVE('',#348,#349,#63,.T.);
#437=EDGE_CURVE('',#349,#350,#281,.T.);
#438=EDGE_CURVE('',#350,#351,#64,.T.);
#439=EDGE_CURVE('',#352,#351,#282,.T.);
#440=EDGE_CURVE('',#353,#352,#65,.T.);
#441=EDGE_CURVE('',#354,#353,#283,.T.);
#442=EDGE_CURVE('',#355,#354,#66,.T.);
#443=EDGE_CURVE('',#355,#356,#284,.T.);
#444=EDGE_CURVE('',#356,#357,#67,.T.);
#445=EDGE_CURVE('',#357,#348,#68,.T.);
#446=EDGE_CURVE('',#358,#358,#285,.T.);
#447=EDGE_CURVE('',#359,#359,#286,.T.);
#448=EDGE_CURVE('',#360,#360,#287,.T.);
#449=EDGE_CURVE('',#361,#361,#288,.T.);
#450=EDGE_CURVE('',#362,#362,#289,.T.);
#451=EDGE_CURVE('',#363,#363,#290,.T.);
#452=EDGE_CURVE('',#364,#364,#291,.T.);
#453=EDGE_CURVE('',#365,#365,#292,.T.);
#454=EDGE_CURVE('',#358,#337,#293,.T.);
#455=EDGE_CURVE('',#365,#322,#294,.T.);
#456=EDGE_CURVE('',#359,#325,#295,.T.);
#457=EDGE_CURVE('',#364,#334,#296,.T.);
#458=EDGE_CURVE('',#360,#346,#297,.T.);
#459=EDGE_CURVE('',#363,#328,#298,.T.);
#460=EDGE_CURVE('',#361,#331,#299,.T.);
#461=EDGE_CURVE('',#362,#343,#300,.T.);
#462=EDGE_CURVE('',#356,#366,#69,.T.);
#463=EDGE_CURVE('',#367,#366,#70,.T.);
#464=EDGE_CURVE('',#357,#367,#71,.T.);
#465=EDGE_CURVE('',#368,#367,#72,.T.);
#466=EDGE_CURVE('',#348,#368,#73,.T.);
#467=EDGE_CURVE('',#369,#368,#74,.T.);
#468=EDGE_CURVE('',#349,#369,#75,.T.);
#469=EDGE_CURVE('',#366,#370,#301,.T.);
#470=EDGE_CURVE('',#370,#371,#76,.T.);
#471=EDGE_CURVE('',#371,#369,#302,.T.);
#472=EDGE_CURVE('',#350,#306,#77,.T.);
#473=EDGE_CURVE('',#307,#371,#78,.T.);
#474=EDGE_CURVE('',#308,#370,#79,.T.);
#475=EDGE_CURVE('',#309,#355,#80,.T.);
#476=EDGE_CURVE('',#351,#313,#81,.T.);
#477=EDGE_CURVE('',#312,#352,#82,.T.);
#478=EDGE_CURVE('',#353,#311,#83,.T.);
#479=EDGE_CURVE('',#310,#354,#84,.T.);
#480=ORIENTED_EDGE('',*,*,#372,.T.);
#481=ORIENTED_EDGE('',*,*,#373,.T.);
#482=ORIENTED_EDGE('',*,*,#374,.T.);
#483=ORIENTED_EDGE('',*,*,#375,.T.);
#484=ORIENTED_EDGE('',*,*,#373,.F.);
#485=ORIENTED_EDGE('',*,*,#376,.T.);
#486=ORIENTED_EDGE('',*,*,#377,.T.);
#487=ORIENTED_EDGE('',*,*,#378,.T.);
#488=ORIENTED_EDGE('',*,*,#379,.T.);
#489=ORIENTED_EDGE('',*,*,#380,.F.);
#490=ORIENTED_EDGE('',*,*,#381,.F.);
#491=ORIENTED_EDGE('',*,*,#382,.F.);
#492=ORIENTED_EDGE('',*,*,#383,.F.);
#493=ORIENTED_EDGE('',*,*,#384,.F.);
#494=ORIENTED_EDGE('',*,*,#385,.F.);
#495=ORIENTED_EDGE('',*,*,#386,.F.);
#496=ORIENTED_EDGE('',*,*,#387,.F.);
#497=ORIENTED_EDGE('',*,*,#388,.F.);
#498=ORIENTED_EDGE('',*,*,#389,.F.);
#499=ORIENTED_EDGE('',*,*,#390,.F.);
#500=ORIENTED_EDGE('',*,*,#391,.F.);
#501=ORIENTED_EDGE('',*,*,#372,.F.);
#502=ORIENTED_EDGE('',*,*,#392,.F.);
#503=ORIENTED_EDGE('',*,*,#393,.T.);
#504=ORIENTED_EDGE('',*,*,#374,.F.);
#505=ORIENTED_EDGE('',*,*,#375,.F.);
#506=ORIENTED_EDGE('',*,*,#393,.F.);
#507=ORIENTED_EDGE('',*,*,#384,.T.);
#508=ORIENTED_EDGE('',*,*,#394,.T.);
#509=ORIENTED_EDGE('',*,*,#395,.T.);
#510=ORIENTED_EDGE('',*,*,#396,.T.);
#511=ORIENTED_EDGE('',*,*,#394,.F.);
#512=ORIENTED_EDGE('',*,*,#397,.F.);
#513=ORIENTED_EDGE('',*,*,#398,.T.);
#514=ORIENTED_EDGE('',*,*,#395,.F.);
#515=ORIENTED_EDGE('',*,*,#396,.F.);
#516=ORIENTED_EDGE('',*,*,#398,.F.);
#517=ORIENTED_EDGE('',*,*,#391,.T.);
#518=ORIENTED_EDGE('',*,*,#399,.T.);
#519=ORIENTED_EDGE('',*,*,#400,.T.);
#520=ORIENTED_EDGE('',*,*,#401,.T.);
#521=ORIENTED_EDGE('',*,*,#399,.F.);
#522=ORIENTED_EDGE('',*,*,#402,.F.);
#523=ORIENTED_EDGE('',*,*,#403,.T.);
#524=ORIENTED_EDGE('',*,*,#400,.F.);
#525=ORIENTED_EDGE('',*,*,#401,.F.);
#526=ORIENTED_EDGE('',*,*,#403,.F.);
#527=ORIENTED_EDGE('',*,*,#385,.T.);
#528=ORIENTED_EDGE('',*,*,#404,.T.);
#529=ORIENTED_EDGE('',*,*,#405,.T.);
#530=ORIENTED_EDGE('',*,*,#406,.T.);
#531=ORIENTED_EDGE('',*,*,#404,.F.);
#532=ORIENTED_EDGE('',*,*,#407,.F.);
#533=ORIENTED_EDGE('',*,*,#408,.T.);
#534=ORIENTED_EDGE('',*,*,#405,.F.);
#535=ORIENTED_EDGE('',*,*,#406,.F.);
#536=ORIENTED_EDGE('',*,*,#408,.F.);
#537=ORIENTED_EDGE('',*,*,#390,.T.);
#538=ORIENTED_EDGE('',*,*,#409,.T.);
#539=ORIENTED_EDGE('',*,*,#410,.T.);
#540=ORIENTED_EDGE('',*,*,#411,.T.);
#541=ORIENTED_EDGE('',*,*,#409,.F.);
#542=ORIENTED_EDGE('',*,*,#412,.F.);
#543=ORIENTED_EDGE('',*,*,#413,.T.);
#544=ORIENTED_EDGE('',*,*,#410,.F.);
#545=ORIENTED_EDGE('',*,*,#411,.F.);
#546=ORIENTED_EDGE('',*,*,#413,.F.);
#547=ORIENTED_EDGE('',*,*,#386,.T.);
#548=ORIENTED_EDGE('',*,*,#414,.T.);
#549=ORIENTED_EDGE('',*,*,#415,.T.);
#550=ORIENTED_EDGE('',*,*,#416,.T.);
#551=ORIENTED_EDGE('',*,*,#414,.F.);
#552=ORIENTED_EDGE('',*,*,#417,.F.);
#553=ORIENTED_EDGE('',*,*,#418,.T.);
#554=ORIENTED_EDGE('',*,*,#415,.F.);
#555=ORIENTED_EDGE('',*,*,#416,.F.);
#556=ORIENTED_EDGE('',*,*,#418,.F.);
#557=ORIENTED_EDGE('',*,*,#389,.T.);
#558=ORIENTED_EDGE('',*,*,#419,.T.);
#559=ORIENTED_EDGE('',*,*,#420,.T.);
#560=ORIENTED_EDGE('',*,*,#421,.T.);
#561=ORIENTED_EDGE('',*,*,#419,.F.);
#562=ORIENTED_EDGE('',*,*,#422,.F.);
#563=ORIENTED_EDGE('',*,*,#423,.T.);
#564=ORIENTED_EDGE('',*,*,#420,.F.);
#565=ORIENTED_EDGE('',*,*,#421,.F.);
#566=ORIENTED_EDGE('',*,*,#423,.F.);
#567=ORIENTED_EDGE('',*,*,#387,.T.);
#568=ORIENTED_EDGE('',*,*,#424,.T.);
#569=ORIENTED_EDGE('',*,*,#425,.T.);
#570=ORIENTED_EDGE('',*,*,#426,.T.);
#571=ORIENTED_EDGE('',*,*,#424,.F.);
#572=ORIENTED_EDGE('',*,*,#427,.F.);
#573=ORIENTED_EDGE('',*,*,#428,.T.);
#574=ORIENTED_EDGE('',*,*,#425,.F.);
#575=ORIENTED_EDGE('',*,*,#426,.F.);
#576=ORIENTED_EDGE('',*,*,#428,.F.);
#577=ORIENTED_EDGE('',*,*,#388,.T.);
#578=ORIENTED_EDGE('',*,*,#429,.T.);
#579=ORIENTED_EDGE('',*,*,#430,.T.);
#580=ORIENTED_EDGE('',*,*,#431,.T.);
#581=ORIENTED_EDGE('',*,*,#429,.F.);
#582=ORIENTED_EDGE('',*,*,#432,.F.);
#583=ORIENTED_EDGE('',*,*,#433,.T.);
#584=ORIENTED_EDGE('',*,*,#430,.F.);
#585=ORIENTED_EDGE('',*,*,#431,.F.);
#586=ORIENTED_EDGE('',*,*,#433,.F.);
#587=ORIENTED_EDGE('',*,*,#434,.T.);
#588=ORIENTED_EDGE('',*,*,#435,.T.);
#589=ORIENTED_EDGE('',*,*,#422,.T.);
#590=ORIENTED_EDGE('',*,*,#435,.F.);
#591=ORIENTED_EDGE('',*,*,#436,.T.);
#592=ORIENTED_EDGE('',*,*,#437,.T.);
#593=ORIENTED_EDGE('',*,*,#438,.T.);
#594=ORIENTED_EDGE('',*,*,#439,.F.);
#595=ORIENTED_EDGE('',*,*,#440,.F.);
#596=ORIENTED_EDGE('',*,*,#441,.F.);
#597=ORIENTED_EDGE('',*,*,#442,.F.);
#598=ORIENTED_EDGE('',*,*,#443,.T.);
#599=ORIENTED_EDGE('',*,*,#444,.T.);
#600=ORIENTED_EDGE('',*,*,#445,.T.);
#601=ORIENTED_EDGE('',*,*,#446,.F.);
#602=ORIENTED_EDGE('',*,*,#447,.F.);
#603=ORIENTED_EDGE('',*,*,#448,.F.);
#604=ORIENTED_EDGE('',*,*,#449,.F.);
#605=ORIENTED_EDGE('',*,*,#450,.F.);
#606=ORIENTED_EDGE('',*,*,#451,.F.);
#607=ORIENTED_EDGE('',*,*,#452,.F.);
#608=ORIENTED_EDGE('',*,*,#453,.F.);
#609=ORIENTED_EDGE('',*,*,#434,.F.);
#610=ORIENTED_EDGE('',*,*,#446,.T.);
#611=ORIENTED_EDGE('',*,*,#454,.T.);
#612=ORIENTED_EDGE('',*,*,#417,.T.);
#613=ORIENTED_EDGE('',*,*,#454,.F.);
#614=ORIENTED_EDGE('',*,*,#453,.T.);
#615=ORIENTED_EDGE('',*,*,#455,.T.);
#616=ORIENTED_EDGE('',*,*,#392,.T.);
#617=ORIENTED_EDGE('',*,*,#455,.F.);
#618=ORIENTED_EDGE('',*,*,#447,.T.);
#619=ORIENTED_EDGE('',*,*,#456,.T.);
#620=ORIENTED_EDGE('',*,*,#397,.T.);
#621=ORIENTED_EDGE('',*,*,#456,.F.);
#622=ORIENTED_EDGE('',*,*,#452,.T.);
#623=ORIENTED_EDGE('',*,*,#457,.T.);
#624=ORIENTED_EDGE('',*,*,#412,.T.);
#625=ORIENTED_EDGE('',*,*,#457,.F.);
#626=ORIENTED_EDGE('',*,*,#448,.T.);
#627=ORIENTED_EDGE('',*,*,#458,.T.);
#628=ORIENTED_EDGE('',*,*,#432,.T.);
#629=ORIENTED_EDGE('',*,*,#458,.F.);
#630=ORIENTED_EDGE('',*,*,#451,.T.);
#631=ORIENTED_EDGE('',*,*,#459,.T.);
#632=ORIENTED_EDGE('',*,*,#402,.T.);
#633=ORIENTED_EDGE('',*,*,#459,.F.);
#634=ORIENTED_EDGE('',*,*,#449,.T.);
#635=ORIENTED_EDGE('',*,*,#460,.T.);
#636=ORIENTED_EDGE('',*,*,#407,.T.);
#637=ORIENTED_EDGE('',*,*,#460,.F.);
#638=ORIENTED_EDGE('',*,*,#450,.T.);
#639=ORIENTED_EDGE('',*,*,#461,.T.);
#640=ORIENTED_EDGE('',*,*,#427,.T.);
#641=ORIENTED_EDGE('',*,*,#461,.F.);
#642=ORIENTED_EDGE('',*,*,#444,.F.);
#643=ORIENTED_EDGE('',*,*,#462,.T.);
#644=ORIENTED_EDGE('',*,*,#463,.F.);
#645=ORIENTED_EDGE('',*,*,#464,.F.);
#646=ORIENTED_EDGE('',*,*,#445,.F.);
#647=ORIENTED_EDGE('',*,*,#464,.T.);
#648=ORIENTED_EDGE('',*,*,#465,.F.);
#649=ORIENTED_EDGE('',*,*,#466,.F.);
#650=ORIENTED_EDGE('',*,*,#436,.F.);
#651=ORIENTED_EDGE('',*,*,#466,.T.);
#652=ORIENTED_EDGE('',*,*,#467,.F.);
#653=ORIENTED_EDGE('',*,*,#468,.F.);
#654=ORIENTED_EDGE('',*,*,#469,.T.);
#655=ORIENTED_EDGE('',*,*,#470,.T.);
#656=ORIENTED_EDGE('',*,*,#471,.T.);
#657=ORIENTED_EDGE('',*,*,#467,.T.);
#658=ORIENTED_EDGE('',*,*,#465,.T.);
#659=ORIENTED_EDGE('',*,*,#463,.T.);
#660=ORIENTED_EDGE('',*,*,#376,.F.);
#661=ORIENTED_EDGE('',*,*,#472,.F.);
#662=ORIENTED_EDGE('',*,*,#437,.F.);
#663=ORIENTED_EDGE('',*,*,#468,.T.);
#664=ORIENTED_EDGE('',*,*,#471,.F.);
#665=ORIENTED_EDGE('',*,*,#473,.F.);
#666=ORIENTED_EDGE('',*,*,#378,.F.);
#667=ORIENTED_EDGE('',*,*,#474,.T.);
#668=ORIENTED_EDGE('',*,*,#469,.F.);
#669=ORIENTED_EDGE('',*,*,#462,.F.);
#670=ORIENTED_EDGE('',*,*,#443,.F.);
#671=ORIENTED_EDGE('',*,*,#475,.F.);
#672=ORIENTED_EDGE('',*,*,#472,.T.);
#673=ORIENTED_EDGE('',*,*,#383,.T.);
#674=ORIENTED_EDGE('',*,*,#476,.F.);
#675=ORIENTED_EDGE('',*,*,#438,.F.);
#676=ORIENTED_EDGE('',*,*,#382,.T.);
#677=ORIENTED_EDGE('',*,*,#477,.T.);
#678=ORIENTED_EDGE('',*,*,#439,.T.);
#679=ORIENTED_EDGE('',*,*,#476,.T.);
#680=ORIENTED_EDGE('',*,*,#477,.F.);
#681=ORIENTED_EDGE('',*,*,#381,.T.);
#682=ORIENTED_EDGE('',*,*,#478,.F.);
#683=ORIENTED_EDGE('',*,*,#440,.T.);
#684=ORIENTED_EDGE('',*,*,#441,.T.);
#685=ORIENTED_EDGE('',*,*,#478,.T.);
#686=ORIENTED_EDGE('',*,*,#380,.T.);
#687=ORIENTED_EDGE('',*,*,#479,.T.);
#688=ORIENTED_EDGE('',*,*,#475,.T.);
#689=ORIENTED_EDGE('',*,*,#442,.T.);
#690=ORIENTED_EDGE('',*,*,#479,.F.);
#691=ORIENTED_EDGE('',*,*,#379,.F.);
#692=ORIENTED_EDGE('',*,*,#473,.T.);
#693=ORIENTED_EDGE('',*,*,#470,.F.);
#694=ORIENTED_EDGE('',*,*,#474,.F.);
#695=ORIENTED_EDGE('',*,*,#377,.F.);
#696=TOROIDAL_SURFACE('',#770,4.5,0.5);
#697=TOROIDAL_SURFACE('',#790,4.5,0.5);
#698=TOROIDAL_SURFACE('',#796,4.5,0.5);
#699=TOROIDAL_SURFACE('',#802,4.5,0.5);
#700=TOROIDAL_SURFACE('',#808,4.5,0.5);
#701=TOROIDAL_SURFACE('',#814,4.5,0.5);
#702=TOROIDAL_SURFACE('',#820,4.5,0.5);
#703=TOROIDAL_SURFACE('',#826,4.5,0.5);
#704=TOROIDAL_SURFACE('',#832,4.5,0.5);
#705=TOROIDAL_SURFACE('',#838,4.5,0.5);
#706=TOROIDAL_SURFACE('',#854,4.5,0.5);
#707=TOROIDAL_SURFACE('',#856,4.5,0.5);
#708=TOROIDAL_SURFACE('',#858,4.5,0.5);
#709=TOROIDAL_SURFACE('',#860,4.5,0.5);
#710=TOROIDAL_SURFACE('',#862,4.5,0.5);
#711=TOROIDAL_SURFACE('',#864,4.5,0.5);
#712=TOROIDAL_SURFACE('',#866,4.5,0.5);
#713=TOROIDAL_SURFACE('',#868,4.5,0.5);
#714=ADVANCED_FACE('',(#130),#696,.T.);
#715=ADVANCED_FACE('',(#131,#32,#33,#34,#35,#36,#37,#38,#39,#40),#120,.T.);
#716=ADVANCED_FACE('',(#132),#19,.F.);
#717=ADVANCED_FACE('',(#133),#697,.T.);
#718=ADVANCED_FACE('',(#134),#20,.F.);
#719=ADVANCED_FACE('',(#135),#698,.T.);
#720=ADVANCED_FACE('',(#136),#21,.F.);
#721=ADVANCED_FACE('',(#137),#699,.T.);
#722=ADVANCED_FACE('',(#138),#22,.F.);
#723=ADVANCED_FACE('',(#139),#700,.T.);
#724=ADVANCED_FACE('',(#140),#23,.F.);
#725=ADVANCED_FACE('',(#141),#701,.T.);
#726=ADVANCED_FACE('',(#142),#24,.F.);
#727=ADVANCED_FACE('',(#143),#702,.T.);
#728=ADVANCED_FACE('',(#144),#25,.F.);
#729=ADVANCED_FACE('',(#145),#703,.T.);
#730=ADVANCED_FACE('',(#146),#26,.F.);
#731=ADVANCED_FACE('',(#147),#704,.T.);
#732=ADVANCED_FACE('',(#148),#27,.F.);
#733=ADVANCED_FACE('',(#149),#705,.T.);
#734=ADVANCED_FACE('',(#150,#41,#42,#43,#44,#45,#46,#47,#48,#49),#121,.T.);
#735=ADVANCED_FACE('',(#151),#706,.T.);
#736=ADVANCED_FACE('',(#152),#707,.T.);
#737=ADVANCED_FACE('',(#153),#708,.T.);
#738=ADVANCED_FACE('',(#154),#709,.T.);
#739=ADVANCED_FACE('',(#155),#710,.T.);
#740=ADVANCED_FACE('',(#156),#711,.T.);
#741=ADVANCED_FACE('',(#157),#712,.T.);
#742=ADVANCED_FACE('',(#158),#713,.T.);
#743=ADVANCED_FACE('',(#159),#122,.T.);
#744=ADVANCED_FACE('',(#160),#123,.T.);
#745=ADVANCED_FACE('',(#161),#124,.T.);
#746=ADVANCED_FACE('',(#162),#125,.T.);
#747=ADVANCED_FACE('',(#163),#28,.T.);
#748=ADVANCED_FACE('',(#164),#29,.T.);
#749=ADVANCED_FACE('',(#165),#126,.T.);
#750=ADVANCED_FACE('',(#166),#30,.T.);
#751=ADVANCED_FACE('',(#167),#127,.F.);
#752=ADVANCED_FACE('',(#168),#31,.T.);
#753=ADVANCED_FACE('',(#169),#128,.T.);
#754=ADVANCED_FACE('',(#170),#129,.T.);
#755=CLOSED_SHELL('',(#714,#715,#716,#717,#718,#719,#720,#721,#722,#723,
#724,#725,#726,#727,#728,#729,#730,#731,#732,#733,#734,#735,#736,#737,#738,
#739,#740,#741,#742,#743,#744,#745,#746,#747,#748,#749,#750,#751,#752,#753,
#754));
#756=DERIVED_UNIT_ELEMENT(#758,1.);
#757=DERIVED_UNIT_ELEMENT(#1382,-3.);
#758=(
MASS_UNIT()
NAMED_UNIT(*)
SI_UNIT(.KILO.,.GRAM.)
);
#759=DERIVED_UNIT((#756,#757));
#760=MEASURE_REPRESENTATION_ITEM('density measure',
POSITIVE_RATIO_MEASURE(7850.),#759);
#761=PROPERTY_DEFINITION_REPRESENTATION(#766,#763);
#762=PROPERTY_DEFINITION_REPRESENTATION(#767,#764);
#763=REPRESENTATION('material name',(#765),#1379);
#764=REPRESENTATION('density',(#760),#1379);
#765=DESCRIPTIVE_REPRESENTATION_ITEM('Acier','Acier');
#766=PROPERTY_DEFINITION('material property','material name',#1394);
#767=PROPERTY_DEFINITION('material property','density of part',#1394);
#768=AXIS2_PLACEMENT_3D('',#1154,#885,#886);
#769=AXIS2_PLACEMENT_3D('',#1155,#887,#888);
#770=AXIS2_PLACEMENT_3D('',#1156,#889,#890);
#771=AXIS2_PLACEMENT_3D('',#1158,#891,#892);
#772=AXIS2_PLACEMENT_3D('',#1160,#893,#894);
#773=AXIS2_PLACEMENT_3D('',#1162,#895,#896);
#774=AXIS2_PLACEMENT_3D('',#1163,#897,#898);
#775=AXIS2_PLACEMENT_3D('',#1164,#899,#900);
#776=AXIS2_PLACEMENT_3D('',#1167,#901,#902);
#777=AXIS2_PLACEMENT_3D('',#1171,#904,#905);
#778=AXIS2_PLACEMENT_3D('',#1175,#907,#908);
#779=AXIS2_PLACEMENT_3D('',#1179,#910,#911);
#780=AXIS2_PLACEMENT_3D('',#1182,#913,#914);
#781=AXIS2_PLACEMENT_3D('',#1184,#915,#916);
#782=AXIS2_PLACEMENT_3D('',#1186,#917,#918);
#783=AXIS2_PLACEMENT_3D('',#1188,#919,#920);
#784=AXIS2_PLACEMENT_3D('',#1190,#921,#922);
#785=AXIS2_PLACEMENT_3D('',#1192,#923,#924);
#786=AXIS2_PLACEMENT_3D('',#1194,#925,#926);
#787=AXIS2_PLACEMENT_3D('',#1196,#927,#928);
#788=AXIS2_PLACEMENT_3D('',#1197,#929,#930);
#789=AXIS2_PLACEMENT_3D('',#1199,#931,#932);
#790=AXIS2_PLACEMENT_3D('',#1201,#934,#935);
#791=AXIS2_PLACEMENT_3D('',#1203,#936,#937);
#792=AXIS2_PLACEMENT_3D('',#1205,#938,#939);
#793=AXIS2_PLACEMENT_3D('',#1206,#940,#941);
#794=AXIS2_PLACEMENT_3D('',#1207,#942,#943);
#795=AXIS2_PLACEMENT_3D('',#1209,#944,#945);
#796=AXIS2_PLACEMENT_3D('',#1211,#947,#948);
#797=AXIS2_PLACEMENT_3D('',#1213,#949,#950);
#798=AXIS2_PLACEMENT_3D('',#1215,#951,#952);
#799=AXIS2_PLACEMENT_3D('',#1216,#953,#954);
#800=AXIS2_PLACEMENT_3D('',#1217,#955,#956);
#801=AXIS2_PLACEMENT_3D('',#1219,#957,#958);
#802=AXIS2_PLACEMENT_3D('',#1221,#960,#961);
#803=AXIS2_PLACEMENT_3D('',#1223,#962,#963);
#804=AXIS2_PLACEMENT_3D('',#1225,#964,#965);
#805=AXIS2_PLACEMENT_3D('',#1226,#966,#967);
#806=AXIS2_PLACEMENT_3D('',#1227,#968,#969);
#807=AXIS2_PLACEMENT_3D('',#1229,#970,#971);
#808=AXIS2_PLACEMENT_3D('',#1231,#973,#974);
#809=AXIS2_PLACEMENT_3D('',#1233,#975,#976);
#810=AXIS2_PLACEMENT_3D('',#1235,#977,#978);
#811=AXIS2_PLACEMENT_3D('',#1236,#979,#980);
#812=AXIS2_PLACEMENT_3D('',#1237,#981,#982);
#813=AXIS2_PLACEMENT_3D('',#1239,#983,#984);
#814=AXIS2_PLACEMENT_3D('',#1241,#986,#987);
#815=AXIS2_PLACEMENT_3D('',#1243,#988,#989);
#816=AXIS2_PLACEMENT_3D('',#1245,#990,#991);
#817=AXIS2_PLACEMENT_3D('',#1246,#992,#993);
#818=AXIS2_PLACEMENT_3D('',#1247,#994,#995);
#819=AXIS2_PLACEMENT_3D('',#1249,#996,#997);
#820=AXIS2_PLACEMENT_3D('',#1251,#999,#1000);
#821=AXIS2_PLACEMENT_3D('',#1253,#1001,#1002);
#822=AXIS2_PLACEMENT_3D('',#1255,#1003,#1004);
#823=AXIS2_PLACEMENT_3D('',#1256,#1005,#1006);
#824=AXIS2_PLACEMENT_3D('',#1257,#1007,#1008);
#825=AXIS2_PLACEMENT_3D('',#1259,#1009,#1010);
#826=AXIS2_PLACEMENT_3D('',#1261,#1012,#1013);
#827=AXIS2_PLACEMENT_3D('',#1263,#1014,#1015);
#828=AXIS2_PLACEMENT_3D('',#1265,#1016,#1017);
#829=AXIS2_PLACEMENT_3D('',#1266,#1018,#1019);
#830=AXIS2_PLACEMENT_3D('',#1267,#1020,#1021);
#831=AXIS2_PLACEMENT_3D('',#1269,#1022,#1023);
#832=AXIS2_PLACEMENT_3D('',#1271,#1025,#1026);
#833=AXIS2_PLACEMENT_3D('',#1273,#1027,#1028);
#834=AXIS2_PLACEMENT_3D('',#1275,#1029,#1030);
#835=AXIS2_PLACEMENT_3D('',#1276,#1031,#1032);
#836=AXIS2_PLACEMENT_3D('',#1277,#1033,#1034);
#837=AXIS2_PLACEMENT_3D('',#1279,#1035,#1036);
#838=AXIS2_PLACEMENT_3D('',#1281,#1038,#1039);
#839=AXIS2_PLACEMENT_3D('',#1283,#1040,#1041);
#840=AXIS2_PLACEMENT_3D('',#1284,#1042,#1043);
#841=AXIS2_PLACEMENT_3D('',#1285,#1044,#1045);
#842=AXIS2_PLACEMENT_3D('',#1290,#1047,#1048);
#843=AXIS2_PLACEMENT_3D('',#1294,#1050,#1051);
#844=AXIS2_PLACEMENT_3D('',#1298,#1053,#1054);
#845=AXIS2_PLACEMENT_3D('',#1302,#1056,#1057);
#846=AXIS2_PLACEMENT_3D('',#1307,#1060,#1061);
#847=AXIS2_PLACEMENT_3D('',#1309,#1062,#1063);
#848=AXIS2_PLACEMENT_3D('',#1311,#1064,#1065);
#849=AXIS2_PLACEMENT_3D('',#1313,#1066,#1067);
#850=AXIS2_PLACEMENT_3D('',#1315,#1068,#1069);
#851=AXIS2_PLACEMENT_3D('',#1317,#1070,#1071);
#852=AXIS2_PLACEMENT_3D('',#1319,#1072,#1073);
#853=AXIS2_PLACEMENT_3D('',#1321,#1074,#1075);
#854=AXIS2_PLACEMENT_3D('',#1322,#1076,#1077);
#855=AXIS2_PLACEMENT_3D('',#1323,#1078,#1079);
#856=AXIS2_PLACEMENT_3D('',#1324,#1080,#1081);
#857=AXIS2_PLACEMENT_3D('',#1325,#1082,#1083);
#858=AXIS2_PLACEMENT_3D('',#1326,#1084,#1085);
#859=AXIS2_PLACEMENT_3D('',#1327,#1086,#1087);
#860=AXIS2_PLACEMENT_3D('',#1328,#1088,#1089);
#861=AXIS2_PLACEMENT_3D('',#1329,#1090,#1091);
#862=AXIS2_PLACEMENT_3D('',#1330,#1092,#1093);
#863=AXIS2_PLACEMENT_3D('',#1331,#1094,#1095);
#864=AXIS2_PLACEMENT_3D('',#1332,#1096,#1097);
#865=AXIS2_PLACEMENT_3D('',#1333,#1098,#1099);
#866=AXIS2_PLACEMENT_3D('',#1334,#1100,#1101);
#867=AXIS2_PLACEMENT_3D('',#1335,#1102,#1103);
#868=AXIS2_PLACEMENT_3D('',#1336,#1104,#1105);
#869=AXIS2_PLACEMENT_3D('',#1337,#1106,#1107);
#870=AXIS2_PLACEMENT_3D('',#1338,#1108,#1109);
#871=AXIS2_PLACEMENT_3D('',#1344,#1113,#1114);
#872=AXIS2_PLACEMENT_3D('',#1348,#1117,#1118);
#873=AXIS2_PLACEMENT_3D('',#1352,#1121,#1122);
#874=AXIS2_PLACEMENT_3D('',#1354,#1123,#1124);
#875=AXIS2_PLACEMENT_3D('',#1357,#1126,#1127);
#876=AXIS2_PLACEMENT_3D('',#1358,#1128,#1129);
#877=AXIS2_PLACEMENT_3D('',#1361,#1132,#1133);
#878=AXIS2_PLACEMENT_3D('',#1364,#1136,#1137);
#879=AXIS2_PLACEMENT_3D('',#1366,#1139,#1140);
#880=AXIS2_PLACEMENT_3D('',#1368,#1142,#1143);
#881=AXIS2_PLACEMENT_3D('',#1370,#1145,#1146);
#882=AXIS2_PLACEMENT_3D('',#1372,#1148,#1149);
#883=AXIS2_PLACEMENT_3D('',#1373,#1150,#1151);
#884=AXIS2_PLACEMENT_3D('',#1374,#1152,#1153);
#885=DIRECTION('axis',(0.,0.,1.));
#886=DIRECTION('refdir',(1.,0.,0.));
#887=DIRECTION('axis',(0.,0.,1.));
#888=DIRECTION('refdir',(1.,0.,0.));
#889=DIRECTION('center_axis',(0.,0.,1.));
#890=DIRECTION('ref_axis',(1.,0.,0.));
#891=DIRECTION('center_axis',(0.,0.,-1.));
#892=DIRECTION('ref_axis',(-1.,0.,0.));
#893=DIRECTION('center_axis',(0.,-1.,0.));
#894=DIRECTION('ref_axis',(-1.,0.,0.));
#895=DIRECTION('center_axis',(0.,0.,1.));
#896=DIRECTION('ref_axis',(-1.,0.,0.));
#897=DIRECTION('center_axis',(0.,0.,1.));
#898=DIRECTION('ref_axis',(-1.,0.,0.));
#899=DIRECTION('center_axis',(0.,0.,-1.));
#900=DIRECTION('ref_axis',(0.,-1.,0.));
#901=DIRECTION('center_axis',(0.,0.,-1.));
#902=DIRECTION('ref_axis',(1.,-4.44089209850072E-15,0.));
#903=DIRECTION('',(0.,-1.,0.));
#904=DIRECTION('center_axis',(0.,0.,-1.));
#905=DIRECTION('ref_axis',(0.661437827766188,-0.749999999999965,0.));
#906=DIRECTION('',(-1.,0.,0.));
#907=DIRECTION('center_axis',(0.,0.,1.));
#908=DIRECTION('ref_axis',(-0.707106781186544,-0.707106781186551,6.83452011427052E-13));
#909=DIRECTION('',(0.,-1.,0.));
#910=DIRECTION('center_axis',(0.,0.,1.));
#911=DIRECTION('ref_axis',(-0.707106781186548,0.707106781186548,0.));
#912=DIRECTION('',(-1.,0.,0.));
#913=DIRECTION('center_axis',(0.,0.,-1.));
#914=DIRECTION('ref_axis',(-1.,0.,0.));
#915=DIRECTION('center_axis',(0.,0.,-1.));
#916=DIRECTION('ref_axis',(-1.,0.,0.));
#917=DIRECTION('center_axis',(0.,0.,-1.));
#918=DIRECTION('ref_axis',(-1.,0.,0.));
#919=DIRECTION('center_axis',(0.,0.,-1.));
#920=DIRECTION('ref_axis',(-1.,0.,0.));
#921=DIRECTION('center_axis',(0.,0.,-1.));
#922=DIRECTION('ref_axis',(-1.,0.,0.));
#923=DIRECTION('center_axis',(0.,0.,-1.));
#924=DIRECTION('ref_axis',(-1.,0.,0.));
#925=DIRECTION('center_axis',(0.,0.,-1.));
#926=DIRECTION('ref_axis',(-1.,0.,0.));
#927=DIRECTION('center_axis',(0.,0.,-1.));
#928=DIRECTION('ref_axis',(-1.,0.,0.));
#929=DIRECTION('center_axis',(0.,0.,-1.));
#930=DIRECTION('ref_axis',(-1.,0.,0.));
#931=DIRECTION('center_axis',(0.,0.,-1.));
#932=DIRECTION('ref_axis',(-1.,0.,0.));
#933=DIRECTION('',(0.,0.,-1.));
#934=DIRECTION('center_axis',(0.,0.,1.));
#935=DIRECTION('ref_axis',(1.,0.,0.));
#936=DIRECTION('center_axis',(1.22464678641072E-16,-1.,0.));
#937=DIRECTION('ref_axis',(-1.,-1.22464678641072E-16,0.));
#938=DIRECTION('center_axis',(0.,0.,1.));
#939=DIRECTION('ref_axis',(-1.,0.,0.));
#940=DIRECTION('center_axis',(0.,0.,1.));
#941=DIRECTION('ref_axis',(-1.,0.,0.));
#942=DIRECTION('center_axis',(0.,0.,-1.));
#943=DIRECTION('ref_axis',(-1.,0.,0.));
#944=DIRECTION('center_axis',(0.,0.,-1.));
#945=DIRECTION('ref_axis',(-1.,0.,0.));
#946=DIRECTION('',(0.,0.,-1.));
#947=DIRECTION('center_axis',(0.,0.,1.));
#948=DIRECTION('ref_axis',(1.,0.,0.));
#949=DIRECTION('center_axis',(0.,-1.,0.));
#950=DIRECTION('ref_axis',(-1.,0.,0.));
#951=DIRECTION('center_axis',(0.,0.,1.));
#952=DIRECTION('ref_axis',(-1.,0.,0.));
#953=DIRECTION('center_axis',(0.,0.,1.));
#954=DIRECTION('ref_axis',(-1.,0.,0.));
#955=DIRECTION('center_axis',(0.,0.,-1.));
#956=DIRECTION('ref_axis',(-1.,0.,0.));
#957=DIRECTION('center_axis',(0.,0.,-1.));
#958=DIRECTION('ref_axis',(-1.,0.,0.));
#959=DIRECTION('',(0.,0.,-1.));
#960=DIRECTION('center_axis',(0.,0.,1.));
#961=DIRECTION('ref_axis',(1.,0.,0.));
#962=DIRECTION('center_axis',(0.,-1.,0.));
#963=DIRECTION('ref_axis',(-1.,0.,0.));
#964=DIRECTION('center_axis',(0.,0.,1.));
#965=DIRECTION('ref_axis',(-1.,0.,0.));
#966=DIRECTION('center_axis',(0.,0.,1.));
#967=DIRECTION('ref_axis',(-1.,0.,0.));
#968=DIRECTION('center_axis',(0.,0.,-1.));
#969=DIRECTION('ref_axis',(-1.,0.,0.));
#970=DIRECTION('center_axis',(0.,0.,-1.));
#971=DIRECTION('ref_axis',(-1.,0.,0.));
#972=DIRECTION('',(0.,0.,-1.));
#973=DIRECTION('center_axis',(0.,0.,1.));
#974=DIRECTION('ref_axis',(1.,0.,0.));
#975=DIRECTION('center_axis',(1.22464678641072E-16,-1.,0.));
#976=DIRECTION('ref_axis',(-1.,-1.22464678641072E-16,0.));
#977=DIRECTION('center_axis',(0.,0.,1.));
#978=DIRECTION('ref_axis',(-1.,0.,0.));
#979=DIRECTION('center_axis',(0.,0.,1.));
#980=DIRECTION('ref_axis',(-1.,0.,0.));
#981=DIRECTION('center_axis',(0.,0.,-1.));
#982=DIRECTION('ref_axis',(-1.,0.,0.));
#983=DIRECTION('center_axis',(0.,0.,-1.));
#984=DIRECTION('ref_axis',(-1.,0.,0.));
#985=DIRECTION('',(0.,0.,-1.));
#986=DIRECTION('center_axis',(0.,0.,1.));
#987=DIRECTION('ref_axis',(1.,0.,0.));
#988=DIRECTION('center_axis',(0.,-1.,0.));
#989=DIRECTION('ref_axis',(-1.,0.,0.));
#990=DIRECTION('center_axis',(0.,0.,1.));
#991=DIRECTION('ref_axis',(-1.,0.,0.));
#992=DIRECTION('center_axis',(0.,0.,1.));
#993=DIRECTION('ref_axis',(-1.,0.,0.));
#994=DIRECTION('center_axis',(0.,0.,-1.));
#995=DIRECTION('ref_axis',(-1.,0.,0.));
#996=DIRECTION('center_axis',(0.,0.,-1.));
#997=DIRECTION('ref_axis',(-1.,0.,0.));
#998=DIRECTION('',(0.,0.,-1.));
#999=DIRECTION('center_axis',(0.,0.,1.));
#1000=DIRECTION('ref_axis',(1.,0.,0.));
#1001=DIRECTION('center_axis',(0.,-1.,0.));
#1002=DIRECTION('ref_axis',(-1.,0.,0.));
#1003=DIRECTION('center_axis',(0.,0.,1.));
#1004=DIRECTION('ref_axis',(-1.,0.,0.));
#1005=DIRECTION('center_axis',(0.,0.,1.));
#1006=DIRECTION('ref_axis',(-1.,0.,0.));
#1007=DIRECTION('center_axis',(0.,0.,-1.));
#1008=DIRECTION('ref_axis',(-1.,0.,0.));
#1009=DIRECTION('center_axis',(0.,0.,-1.));
#1010=DIRECTION('ref_axis',(-1.,0.,0.));
#1011=DIRECTION('',(0.,0.,-1.));
#1012=DIRECTION('center_axis',(0.,0.,1.));
#1013=DIRECTION('ref_axis',(1.,0.,0.));
#1014=DIRECTION('center_axis',(0.,-1.,0.));
#1015=DIRECTION('ref_axis',(-1.,0.,0.));
#1016=DIRECTION('center_axis',(0.,0.,1.));
#1017=DIRECTION('ref_axis',(-1.,0.,0.));
#1018=DIRECTION('center_axis',(0.,0.,1.));
#1019=DIRECTION('ref_axis',(-1.,0.,0.));
#1020=DIRECTION('center_axis',(0.,0.,-1.));
#1021=DIRECTION('ref_axis',(-1.,0.,0.));
#1022=DIRECTION('center_axis',(0.,0.,-1.));
#1023=DIRECTION('ref_axis',(-1.,0.,0.));
#1024=DIRECTION('',(0.,0.,-1.));
#1025=DIRECTION('center_axis',(0.,0.,1.));
#1026=DIRECTION('ref_axis',(1.,0.,0.));
#1027=DIRECTION('center_axis',(1.22464678641072E-16,-1.,0.));
#1028=DIRECTION('ref_axis',(-1.,-1.22464678641072E-16,0.));
#1029=DIRECTION('center_axis',(0.,0.,1.));
#1030=DIRECTION('ref_axis',(-1.,0.,0.));
#1031=DIRECTION('center_axis',(0.,0.,1.));
#1032=DIRECTION('ref_axis',(-1.,0.,0.));
#1033=DIRECTION('center_axis',(0.,0.,-1.));
#1034=DIRECTION('ref_axis',(-1.,0.,0.));
#1035=DIRECTION('center_axis',(0.,0.,-1.));
#1036=DIRECTION('ref_axis',(-1.,0.,0.));
#1037=DIRECTION('',(0.,0.,-1.));
#1038=DIRECTION('center_axis',(0.,0.,-1.));
#1039=DIRECTION('ref_axis',(-1.,0.,0.));
#1040=DIRECTION('center_axis',(0.,0.,1.));
#1041=DIRECTION('ref_axis',(-1.,0.,0.));
#1042=DIRECTION('center_axis',(0.,-1.,0.));
#1043=DIRECTION('ref_axis',(1.,0.,0.));
#1044=DIRECTION('center_axis',(0.,0.,1.));
#1045=DIRECTION('ref_axis',(0.,1.,0.));
#1046=DIRECTION('',(1.,0.,0.));
#1047=DIRECTION('center_axis',(0.,0.,1.));
#1048=DIRECTION('ref_axis',(1.,-4.44089209850072E-15,0.));
#1049=DIRECTION('',(-1.,0.,0.));
#1050=DIRECTION('center_axis',(0.,0.,-1.));
#1051=DIRECTION('ref_axis',(-0.707106781186548,0.707106781186548,0.));
#1052=DIRECTION('',(0.,1.,0.));
#1053=DIRECTION('center_axis',(0.,0.,-1.));
#1054=DIRECTION('ref_axis',(-0.707106781186544,-0.707106781186551,6.83452011427052E-13));
#1055=DIRECTION('',(-1.,0.,0.));
#1056=DIRECTION('center_axis',(0.,0.,1.));
#1057=DIRECTION('ref_axis',(0.661437827766188,-0.749999999999965,0.));
#1058=DIRECTION('',(-1.,0.,0.));
#1059=DIRECTION('',(-3.55664367180802E-14,1.,0.));
#1060=DIRECTION('center_axis',(0.,0.,1.));
#1061=DIRECTION('ref_axis',(-1.,0.,0.));
#1062=DIRECTION('center_axis',(0.,0.,1.));
#1063=DIRECTION('ref_axis',(-1.,0.,0.));
#1064=DIRECTION('center_axis',(0.,0.,1.));
#1065=DIRECTION('ref_axis',(-1.,0.,0.));
#1066=DIRECTION('center_axis',(0.,0.,1.));
#1067=DIRECTION('ref_axis',(-1.,0.,0.));
#1068=DIRECTION('center_axis',(0.,0.,1.));
#1069=DIRECTION('ref_axis',(-1.,0.,0.));
#1070=DIRECTION('center_axis',(0.,0.,1.));
#1071=DIRECTION('ref_axis',(-1.,0.,0.));
#1072=DIRECTION('center_axis',(0.,0.,1.));
#1073=DIRECTION('ref_axis',(-1.,0.,0.));
#1074=DIRECTION('center_axis',(0.,0.,1.));
#1075=DIRECTION('ref_axis',(-1.,0.,0.));
#1076=DIRECTION('center_axis',(0.,0.,-1.));
#1077=DIRECTION('ref_axis',(-1.,0.,0.));
#1078=DIRECTION('center_axis',(0.,-1.,0.));
#1079=DIRECTION('ref_axis',(1.,0.,0.));
#1080=DIRECTION('center_axis',(0.,0.,-1.));
#1081=DIRECTION('ref_axis',(-1.,0.,0.));
#1082=DIRECTION('center_axis',(0.,-1.,0.));
#1083=DIRECTION('ref_axis',(1.,0.,0.));
#1084=DIRECTION('center_axis',(0.,0.,-1.));
#1085=DIRECTION('ref_axis',(-1.,0.,0.));
#1086=DIRECTION('center_axis',(-1.22464678641072E-16,-1.,0.));
#1087=DIRECTION('ref_axis',(1.,-1.22464678641072E-16,0.));
#1088=DIRECTION('center_axis',(0.,0.,-1.));
#1089=DIRECTION('ref_axis',(-1.,0.,0.));
#1090=DIRECTION('center_axis',(-1.22464678641072E-16,-1.,0.));
#1091=DIRECTION('ref_axis',(1.,-1.22464678641072E-16,0.));
#1092=DIRECTION('center_axis',(0.,0.,-1.));
#1093=DIRECTION('ref_axis',(-1.,0.,0.));
#1094=DIRECTION('center_axis',(-1.22464678641072E-16,-1.,0.));
#1095=DIRECTION('ref_axis',(1.,-1.22464678641072E-16,0.));
#1096=DIRECTION('center_axis',(0.,0.,-1.));
#1097=DIRECTION('ref_axis',(-1.,0.,0.));
#1098=DIRECTION('center_axis',(0.,-1.,0.));
#1099=DIRECTION('ref_axis',(1.,0.,0.));
#1100=DIRECTION('center_axis',(0.,0.,-1.));
#1101=DIRECTION('ref_axis',(-1.,0.,0.));
#1102=DIRECTION('center_axis',(0.,-1.,0.));
#1103=DIRECTION('ref_axis',(1.,0.,0.));
#1104=DIRECTION('center_axis',(0.,0.,-1.));
#1105=DIRECTION('ref_axis',(-1.,0.,0.));
#1106=DIRECTION('center_axis',(0.,-1.,0.));
#1107=DIRECTION('ref_axis',(1.,0.,0.));
#1108=DIRECTION('center_axis',(0.,-1.,0.));
#1109=DIRECTION('ref_axis',(1.,0.,0.));
#1110=DIRECTION('',(0.,0.,1.));
#1111=DIRECTION('',(1.,0.,0.));
#1112=DIRECTION('',(0.,0.,1.));
#1113=DIRECTION('center_axis',(-1.,-3.55664367180802E-14,0.));
#1114=DIRECTION('ref_axis',(3.55664367180802E-14,-1.,0.));
#1115=DIRECTION('',(3.55664367180802E-14,-1.,0.));
#1116=DIRECTION('',(0.,0.,1.));
#1117=DIRECTION('center_axis',(0.,1.,0.));
#1118=DIRECTION('ref_axis',(-1.,0.,0.));
#1119=DIRECTION('',(-1.,0.,0.));
#1120=DIRECTION('',(0.,0.,1.));
#1121=DIRECTION('center_axis',(0.,0.,1.));
#1122=DIRECTION('ref_axis',(-1.,0.,0.));
#1123=DIRECTION('center_axis',(0.,0.,1.));
#1124=DIRECTION('ref_axis',(0.737817728169094,-0.674999999999553,0.));
#1125=DIRECTION('',(-3.0626842058625E-16,1.,0.));
#1126=DIRECTION('center_axis',(0.,0.,1.));
#1127=DIRECTION('ref_axis',(1.,-4.44089209850072E-15,0.));
#1128=DIRECTION('center_axis',(0.,0.,-1.));
#1129=DIRECTION('ref_axis',(1.,-4.44089209850072E-15,0.));
#1130=DIRECTION('',(0.,0.,-1.));
#1131=DIRECTION('',(0.,0.,1.));
#1132=DIRECTION('center_axis',(0.,0.,-1.));
#1133=DIRECTION('ref_axis',(0.661437827766188,-0.749999999999965,0.));
#1134=DIRECTION('',(0.,0.,1.));
#1135=DIRECTION('',(0.,0.,1.));
#1136=DIRECTION('center_axis',(0.,1.,0.));
#1137=DIRECTION('ref_axis',(0.,0.,-1.));
#1138=DIRECTION('',(0.,0.,-1.));
#1139=DIRECTION('center_axis',(0.,0.,-1.));
#1140=DIRECTION('ref_axis',(-0.707106781186548,0.707106781186548,0.));
#1141=DIRECTION('',(0.,0.,1.));
#1142=DIRECTION('center_axis',(1.,0.,0.));
#1143=DIRECTION('ref_axis',(0.,0.,-1.));
#1144=DIRECTION('',(0.,-9.6654710379022E-13,-1.));
#1145=DIRECTION('center_axis',(0.,9.6654710379022E-13,1.));
#1146=DIRECTION('ref_axis',(-0.707106781186544,-0.707106781186551,6.83452011427052E-13));
#1147=DIRECTION('',(0.,9.6654710379022E-13,1.));
#1148=DIRECTION('center_axis',(0.,-1.,9.6654710379022E-13));
#1149=DIRECTION('ref_axis',(0.,9.6654710379022E-13,1.));
#1150=DIRECTION('center_axis',(1.,0.,0.));
#1151=DIRECTION('ref_axis',(0.,1.,0.));
#1152=DIRECTION('',(0.,0.,1.));
#1153=DIRECTION('',(1.,0.,0.));
#1154=CARTESIAN_POINT('',(0.,0.,0.));
#1155=CARTESIAN_POINT('',(0.,0.,0.));
#1156=CARTESIAN_POINT('Origin',(25.0000009685755,20.0000002980232,31.9999999999981));
#1157=CARTESIAN_POINT('',(20.5000009685755,20.0000002980232,31.4999999999981));
#1158=CARTESIAN_POINT('Origin',(25.0000009685755,20.0000002980232,31.4999999999981));
#1159=CARTESIAN_POINT('',(21.0000009685755,20.0000002980232,31.9999999999981));
#1160=CARTESIAN_POINT('Origin',(20.5000009685755,20.0000002980232,31.9999999999981));
#1161=CARTESIAN_POINT('',(29.0000009685755,20.0000002980232,31.9999999999981));
#1162=CARTESIAN_POINT('Origin',(25.0000009685755,20.0000002980232,31.9999999999981));
#1163=CARTESIAN_POINT('Origin',(25.0000009685755,20.0000002980232,31.9999999999981));
#1164=CARTESIAN_POINT('Origin',(105.,46.1999999999941,31.4999999999981));
#1165=CARTESIAN_POINT('',(103.951270912675,46.2000000000001,31.4999999999981));
#1166=CARTESIAN_POINT('',(105.,43.5,31.4999999999981));
#1167=CARTESIAN_POINT('Origin',(101.,43.5,31.4999999999981));
#1168=CARTESIAN_POINT('',(105.,-43.5,31.4999999999981));
#1169=CARTESIAN_POINT('',(105.,46.1999999999941,31.4999999999981));
#1170=CARTESIAN_POINT('',(103.951270912676,-46.1999999999982,31.4999999999981));
#1171=CARTESIAN_POINT('Origin',(101.,-43.5,31.4999999999981));
#1172=CARTESIAN_POINT('',(-41.3,-46.2000000000063,31.4999999999981));
#1173=CARTESIAN_POINT('',(105.,-46.2000000000063,31.4999999999981));
#1174=CARTESIAN_POINT('',(-43.,-44.5000000000063,31.4999999999981));
#1175=CARTESIAN_POINT('Origin',(-41.3,-44.5000000000063,31.5000000000857));
#1176=CARTESIAN_POINT('',(-43.,44.4999999999941,31.4999999999981));
#1177=CARTESIAN_POINT('',(-43.,23.099999999994,31.4999999999981));
#1178=CARTESIAN_POINT('',(-41.3,46.1999999999941,31.4999999999981));
#1179=CARTESIAN_POINT('Origin',(-41.3,44.4999999999941,31.4999999999981));
#1180=CARTESIAN_POINT('',(105.,46.1999999999941,31.4999999999981));
#1181=CARTESIAN_POINT('',(20.5000009685755,2.98023223325862E-7,31.4999999999981));
#1182=CARTESIAN_POINT('Origin',(25.0000009685755,2.98023223876953E-7,31.4999999999981));
#1183=CARTESIAN_POINT('',(40.5000009685755,-19.9999997019768,31.4999999999981));
#1184=CARTESIAN_POINT('Origin',(45.0000009685755,-19.9999997019768,31.4999999999981));
#1185=CARTESIAN_POINT('',(40.5000009685755,20.0000002980232,31.4999999999981));
#1186=CARTESIAN_POINT('Origin',(45.0000009685755,20.0000002980232,31.4999999999981));
#1187=CARTESIAN_POINT('',(60.5000009685755,-19.9999997019768,31.4999999999981));
#1188=CARTESIAN_POINT('Origin',(65.0000009685755,-19.9999997019768,31.4999999999981));
#1189=CARTESIAN_POINT('',(60.5000009685755,2.98023223325862E-7,31.4999999999981));
#1190=CARTESIAN_POINT('Origin',(65.0000009685755,2.98023223876953E-7,31.4999999999981));
#1191=CARTESIAN_POINT('',(60.5000009685755,20.0000002980232,31.4999999999981));
#1192=CARTESIAN_POINT('Origin',(65.0000009685755,20.0000002980232,31.4999999999981));
#1193=CARTESIAN_POINT('',(40.5000009685755,2.98023223325862E-7,31.4999999999981));
#1194=CARTESIAN_POINT('Origin',(45.0000009685755,2.98023223876953E-7,31.4999999999981));
#1195=CARTESIAN_POINT('',(20.5000009685755,-19.9999997019768,31.4999999999981));
#1196=CARTESIAN_POINT('Origin',(25.0000009685755,-19.9999997019768,31.4999999999981));
#1197=CARTESIAN_POINT('Origin',(25.0000009685755,20.0000002980232,33.2));
#1198=CARTESIAN_POINT('',(29.0000009685755,20.0000002980232,32.7));
#1199=CARTESIAN_POINT('Origin',(25.0000009685755,20.0000002980232,32.7));
#1200=CARTESIAN_POINT('',(29.0000009685755,20.0000002980232,33.2));
#1201=CARTESIAN_POINT('Origin',(25.0000009685755,2.98023223876953E-7,31.9999999999981));
#1202=CARTESIAN_POINT('',(21.0000009685755,2.98023223387094E-7,31.9999999999981));
#1203=CARTESIAN_POINT('Origin',(20.5000009685755,2.98023223325862E-7,31.9999999999981));
#1204=CARTESIAN_POINT('',(29.0000009685755,2.98023224366812E-7,31.9999999999981));
#1205=CARTESIAN_POINT('Origin',(25.0000009685755,2.98023223876953E-7,31.9999999999981));
#1206=CARTESIAN_POINT('Origin',(25.0000009685755,2.98023223876953E-7,31.9999999999981));
#1207=CARTESIAN_POINT('Origin',(25.0000009685755,2.98023223876953E-7,33.2));
#1208=CARTESIAN_POINT('',(29.0000009685755,2.98023223387094E-7,32.7));
#1209=CARTESIAN_POINT('Origin',(25.0000009685755,2.98023223876953E-7,32.7));
#1210=CARTESIAN_POINT('',(29.0000009685755,2.98023223387094E-7,33.2));
#1211=CARTESIAN_POINT('Origin',(25.0000009685755,-19.9999997019768,31.9999999999981));
#1212=CARTESIAN_POINT('',(21.0000009685755,-19.9999997019768,31.9999999999981));
#1213=CARTESIAN_POINT('Origin',(20.5000009685755,-19.9999997019768,31.9999999999981));
#1214=CARTESIAN_POINT('',(29.0000009685755,-19.9999997019768,31.9999999999981));
#1215=CARTESIAN_POINT('Origin',(25.0000009685755,-19.9999997019768,31.9999999999981));
#1216=CARTESIAN_POINT('Origin',(25.0000009685755,-19.9999997019768,31.9999999999981));
#1217=CARTESIAN_POINT('Origin',(25.0000009685755,-19.9999997019768,33.2));
#1218=CARTESIAN_POINT('',(29.0000009685755,-19.9999997019768,32.7));
#1219=CARTESIAN_POINT('Origin',(25.0000009685755,-19.9999997019768,32.7));
#1220=CARTESIAN_POINT('',(29.0000009685755,-19.9999997019768,33.2));
#1221=CARTESIAN_POINT('Origin',(45.0000009685755,-19.9999997019768,31.9999999999981));
#1222=CARTESIAN_POINT('',(41.0000009685755,-19.9999997019768,31.9999999999981));
#1223=CARTESIAN_POINT('Origin',(40.5000009685755,-19.9999997019768,31.9999999999981));
#1224=CARTESIAN_POINT('',(49.0000009685755,-19.9999997019768,31.9999999999981));
#1225=CARTESIAN_POINT('Origin',(45.0000009685755,-19.9999997019768,31.9999999999981));
#1226=CARTESIAN_POINT('Origin',(45.0000009685755,-19.9999997019768,31.9999999999981));
#1227=CARTESIAN_POINT('Origin',(45.0000009685755,-19.9999997019768,33.2));
#1228=CARTESIAN_POINT('',(49.0000009685755,-19.9999997019768,32.7));
#1229=CARTESIAN_POINT('Origin',(45.0000009685755,-19.9999997019768,32.7));
#1230=CARTESIAN_POINT('',(49.0000009685755,-19.9999997019768,33.2));
#1231=CARTESIAN_POINT('Origin',(45.0000009685755,2.98023223876953E-7,31.9999999999981));
#1232=CARTESIAN_POINT('',(41.0000009685755,2.98023223387094E-7,31.9999999999981));
#1233=CARTESIAN_POINT('Origin',(40.5000009685755,2.98023223325862E-7,31.9999999999981));
#1234=CARTESIAN_POINT('',(49.0000009685755,2.98023224366812E-7,31.9999999999981));
#1235=CARTESIAN_POINT('Origin',(45.0000009685755,2.98023223876953E-7,31.9999999999981));
#1236=CARTESIAN_POINT('Origin',(45.0000009685755,2.98023223876953E-7,31.9999999999981));
#1237=CARTESIAN_POINT('Origin',(45.0000009685755,2.98023223876953E-7,33.2));
#1238=CARTESIAN_POINT('',(49.0000009685755,2.98023223387094E-7,32.7));
#1239=CARTESIAN_POINT('Origin',(45.0000009685755,2.98023223876953E-7,32.7));
#1240=CARTESIAN_POINT('',(49.0000009685755,2.98023223387094E-7,33.2));
#1241=CARTESIAN_POINT('Origin',(45.0000009685755,20.0000002980232,31.9999999999981));
#1242=CARTESIAN_POINT('',(41.0000009685755,20.0000002980232,31.9999999999981));
#1243=CARTESIAN_POINT('Origin',(40.5000009685755,20.0000002980232,31.9999999999981));
#1244=CARTESIAN_POINT('',(49.0000009685755,20.0000002980232,31.9999999999981));
#1245=CARTESIAN_POINT('Origin',(45.0000009685755,20.0000002980232,31.9999999999981));
#1246=CARTESIAN_POINT('Origin',(45.0000009685755,20.0000002980232,31.9999999999981));
#1247=CARTESIAN_POINT('Origin',(45.0000009685755,20.0000002980232,33.2));
#1248=CARTESIAN_POINT('',(49.0000009685755,20.0000002980232,32.7));
#1249=CARTESIAN_POINT('Origin',(45.0000009685755,20.0000002980232,32.7));
#1250=CARTESIAN_POINT('',(49.0000009685755,20.0000002980232,33.2));
#1251=CARTESIAN_POINT('Origin',(65.0000009685755,20.0000002980232,31.9999999999981));
#1252=CARTESIAN_POINT('',(61.0000009685755,20.0000002980232,31.9999999999981));
#1253=CARTESIAN_POINT('Origin',(60.5000009685755,20.0000002980232,31.9999999999981));
#1254=CARTESIAN_POINT('',(69.0000009685755,20.0000002980232,31.9999999999981));
#1255=CARTESIAN_POINT('Origin',(65.0000009685755,20.0000002980232,31.9999999999981));
#1256=CARTESIAN_POINT('Origin',(65.0000009685755,20.0000002980232,31.9999999999981));
#1257=CARTESIAN_POINT('Origin',(65.0000009685755,20.0000002980232,33.2));
#1258=CARTESIAN_POINT('',(69.0000009685755,20.0000002980232,32.7));
#1259=CARTESIAN_POINT('Origin',(65.0000009685755,20.0000002980232,32.7));
#1260=CARTESIAN_POINT('',(69.0000009685755,20.0000002980232,33.2));
#1261=CARTESIAN_POINT('Origin',(65.0000009685755,-19.9999997019768,31.9999999999981));
#1262=CARTESIAN_POINT('',(61.0000009685755,-19.9999997019768,31.9999999999981));
#1263=CARTESIAN_POINT('Origin',(60.5000009685755,-19.9999997019768,31.9999999999981));
#1264=CARTESIAN_POINT('',(69.0000009685755,-19.9999997019768,31.9999999999981));
#1265=CARTESIAN_POINT('Origin',(65.0000009685755,-19.9999997019768,31.9999999999981));
#1266=CARTESIAN_POINT('Origin',(65.0000009685755,-19.9999997019768,31.9999999999981));
#1267=CARTESIAN_POINT('Origin',(65.0000009685755,-19.9999997019768,33.2));
#1268=CARTESIAN_POINT('',(69.0000009685755,-19.9999997019768,32.7));
#1269=CARTESIAN_POINT('Origin',(65.0000009685755,-19.9999997019768,32.7));
#1270=CARTESIAN_POINT('',(69.0000009685755,-19.9999997019768,33.2));
#1271=CARTESIAN_POINT('Origin',(65.0000009685755,2.98023223876953E-7,31.9999999999981));
#1272=CARTESIAN_POINT('',(61.0000009685755,2.98023223387094E-7,31.9999999999981));
#1273=CARTESIAN_POINT('Origin',(60.5000009685755,2.98023223325862E-7,31.9999999999981));
#1274=CARTESIAN_POINT('',(69.0000009685755,2.98023224366812E-7,31.9999999999981));
#1275=CARTESIAN_POINT('Origin',(65.0000009685755,2.98023223876953E-7,31.9999999999981));
#1276=CARTESIAN_POINT('Origin',(65.0000009685755,2.98023223876953E-7,31.9999999999981));
#1277=CARTESIAN_POINT('Origin',(65.0000009685755,2.98023223876953E-7,33.2));
#1278=CARTESIAN_POINT('',(69.0000009685755,2.98023223387094E-7,32.7));
#1279=CARTESIAN_POINT('Origin',(65.0000009685755,2.98023223876953E-7,32.7));
#1280=CARTESIAN_POINT('',(69.0000009685755,2.98023223387094E-7,33.2));
#1281=CARTESIAN_POINT('Origin',(65.0000009685755,20.0000002980232,32.7));
#1282=CARTESIAN_POINT('',(69.5000009685755,20.0000002980232,33.2));
#1283=CARTESIAN_POINT('Origin',(65.0000009685755,20.0000002980232,33.2));
#1284=CARTESIAN_POINT('Origin',(69.5000009685755,20.0000002980232,32.7));
#1285=CARTESIAN_POINT('Origin',(105.,-46.2000000000047,33.2));
#1286=CARTESIAN_POINT('',(102.999999970198,45.2,33.2));
#1287=CARTESIAN_POINT('',(104.620773398046,45.2,33.2));
#1288=CARTESIAN_POINT('',(104.810386699023,45.2,33.2));
#1289=CARTESIAN_POINT('',(103.951270912675,46.2000000000001,33.2));
#1290=CARTESIAN_POINT('Origin',(101.,43.5,33.2));
#1291=CARTESIAN_POINT('',(-41.3,46.1999999999941,33.2));
#1292=CARTESIAN_POINT('',(105.,46.1999999999941,33.2));
#1293=CARTESIAN_POINT('',(-43.,44.4999999999941,33.2));
#1294=CARTESIAN_POINT('Origin',(-41.3,44.4999999999941,33.2));
#1295=CARTESIAN_POINT('',(-43.,-44.5000000000047,33.2));
#1296=CARTESIAN_POINT('',(-43.,-23.1000000000054,33.2));
#1297=CARTESIAN_POINT('',(-41.3,-46.2000000000047,33.2));
#1298=CARTESIAN_POINT('Origin',(-41.3,-44.5000000000047,33.1999999999984));
#1299=CARTESIAN_POINT('',(103.951270912676,-46.1999999999982,33.2));
#1300=CARTESIAN_POINT('',(105.,-46.2000000000047,33.2));
#1301=CARTESIAN_POINT('',(104.620773398046,-45.2,33.2));
#1302=CARTESIAN_POINT('Origin',(101.,-43.5,33.2));
#1303=CARTESIAN_POINT('',(102.999999970201,-45.2,33.2));
#1304=CARTESIAN_POINT('',(103.999999985101,-45.2,33.2));
#1305=CARTESIAN_POINT('',(102.999999970199,-0.500000000002388,33.2));
#1306=CARTESIAN_POINT('',(49.5000009685755,20.0000002980232,33.2));
#1307=CARTESIAN_POINT('Origin',(45.0000009685755,20.0000002980232,33.2));
#1308=CARTESIAN_POINT('',(29.5000009685755,2.98023224428044E-7,33.2));
#1309=CARTESIAN_POINT('Origin',(25.0000009685755,2.98023223876953E-7,33.2));
#1310=CARTESIAN_POINT('',(69.5000009685755,2.98023224428044E-7,33.2));
#1311=CARTESIAN_POINT('Origin',(65.0000009685755,2.98023223876953E-7,33.2));
#1312=CARTESIAN_POINT('',(49.5000009685755,-19.9999997019768,33.2));
#1313=CARTESIAN_POINT('Origin',(45.0000009685755,-19.9999997019768,33.2));
#1314=CARTESIAN_POINT('',(69.5000009685755,-19.9999997019768,33.2));
#1315=CARTESIAN_POINT('Origin',(65.0000009685755,-19.9999997019768,33.2));
#1316=CARTESIAN_POINT('',(29.5000009685755,-19.9999997019768,33.2));
#1317=CARTESIAN_POINT('Origin',(25.0000009685755,-19.9999997019768,33.2));
#1318=CARTESIAN_POINT('',(49.5000009685755,2.98023224428044E-7,33.2));
#1319=CARTESIAN_POINT('Origin',(45.0000009685755,2.98023223876953E-7,33.2));
#1320=CARTESIAN_POINT('',(29.5000009685755,20.0000002980232,33.2));
#1321=CARTESIAN_POINT('Origin',(25.0000009685755,20.0000002980232,33.2));
#1322=CARTESIAN_POINT('Origin',(45.0000009685755,20.0000002980232,32.7));
#1323=CARTESIAN_POINT('Origin',(49.5000009685755,20.0000002980232,32.7));
#1324=CARTESIAN_POINT('Origin',(25.0000009685755,20.0000002980232,32.7));
#1325=CARTESIAN_POINT('Origin',(29.5000009685755,20.0000002980232,32.7));
#1326=CARTESIAN_POINT('Origin',(25.0000009685755,2.98023223876953E-7,32.7));
#1327=CARTESIAN_POINT('Origin',(29.5000009685755,2.98023223325862E-7,32.7));
#1328=CARTESIAN_POINT('Origin',(45.0000009685755,2.98023223876953E-7,32.7));
#1329=CARTESIAN_POINT('Origin',(49.5000009685755,2.98023223325862E-7,32.7));
#1330=CARTESIAN_POINT('Origin',(65.0000009685755,2.98023223876953E-7,32.7));
#1331=CARTESIAN_POINT('Origin',(69.5000009685755,2.98023223325862E-7,32.7));
#1332=CARTESIAN_POINT('Origin',(25.0000009685755,-19.9999997019768,32.7));
#1333=CARTESIAN_POINT('Origin',(29.5000009685755,-19.9999997019768,32.7));
#1334=CARTESIAN_POINT('Origin',(45.0000009685755,-19.9999997019768,32.7));
#1335=CARTESIAN_POINT('Origin',(49.5000009685755,-19.9999997019768,32.7));
#1336=CARTESIAN_POINT('Origin',(65.0000009685755,-19.9999997019768,32.7));
#1337=CARTESIAN_POINT('Origin',(69.5000009685755,-19.9999997019768,32.7));
#1338=CARTESIAN_POINT('Origin',(102.999999970201,-45.2,33.2));
#1339=CARTESIAN_POINT('',(104.620773398046,-45.2,35.5));
#1340=CARTESIAN_POINT('',(104.620773398046,-45.2,33.2));
#1341=CARTESIAN_POINT('',(102.999999970201,-45.2,35.5));
#1342=CARTESIAN_POINT('',(105.,-45.2,35.5));
#1343=CARTESIAN_POINT('',(102.999999970201,-45.2,33.2));
#1344=CARTESIAN_POINT('Origin',(102.999999970198,45.2,33.2));
#1345=CARTESIAN_POINT('',(102.999999970198,45.2,35.5));
#1346=CARTESIAN_POINT('',(102.999999970201,-45.2,35.5));
#1347=CARTESIAN_POINT('',(102.999999970198,45.2,33.2));
#1348=CARTESIAN_POINT('Origin',(104.620773398046,45.2,33.2));
#1349=CARTESIAN_POINT('',(104.620773398046,45.2,35.5));
#1350=CARTESIAN_POINT('',(102.999999970198,45.2,35.5));
#1351=CARTESIAN_POINT('',(104.620773398046,45.2,33.2));
#1352=CARTESIAN_POINT('Origin',(103.999999985099,0.,35.5));
#1353=CARTESIAN_POINT('',(105.,-43.5,35.5));
#1354=CARTESIAN_POINT('Origin',(101.,-43.5,35.5));
#1355=CARTESIAN_POINT('',(105.,43.5,35.5));
#1356=CARTESIAN_POINT('',(105.,-43.5,35.5));
#1357=CARTESIAN_POINT('Origin',(101.,43.5,35.5));
#1358=CARTESIAN_POINT('Origin',(101.,43.5,33.2));
#1359=CARTESIAN_POINT('',(103.95127091268,46.1999999999941,33.2));
#1360=CARTESIAN_POINT('',(105.,43.5,33.2));
#1361=CARTESIAN_POINT('Origin',(101.,-43.5,33.2));
#1362=CARTESIAN_POINT('',(105.,-43.5,33.2));
#1363=CARTESIAN_POINT('',(103.95127091267,-46.2000000000047,33.2));
#1364=CARTESIAN_POINT('Origin',(105.,46.1999999999941,33.2));
#1365=CARTESIAN_POINT('',(-41.3,46.1999999999941,32.7749999999995));
#1366=CARTESIAN_POINT('Origin',(-41.3,44.4999999999941,32.7749999999995));
#1367=CARTESIAN_POINT('',(-43.,44.4999999999941,32.7749999999995));
#1368=CARTESIAN_POINT('Origin',(-43.,-6.11066752753686E-12,32.349999999999));
#1369=CARTESIAN_POINT('',(-43.,-44.5000000000059,31.9250000000192));
#1370=CARTESIAN_POINT('Origin',(-41.3,-44.5000000000059,31.9250000000192));
#1371=CARTESIAN_POINT('',(-41.3,-46.2000000000059,31.9250000000209));
#1372=CARTESIAN_POINT('Origin',(105.,-46.2000000000063,31.4999999999981));
#1373=CARTESIAN_POINT('Origin',(105.,-6.11066752753686E-12,32.349999999999));
#1374=CARTESIAN_POINT('',(0.,0.,0.));
#1375=UNCERTAINTY_MEASURE_WITH_UNIT(LENGTH_MEASURE(0.01),#1381,
'DISTANCE_ACCURACY_VALUE',
'Maximum model space distance between geometric entities at asserted c
onnectivities');
#1376=UNCERTAINTY_MEASURE_WITH_UNIT(LENGTH_MEASURE(0.01),#1381,
'DISTANCE_ACCURACY_VALUE',
'Maximum model space distance between geometric entities at asserted c
onnectivities');
#1377=UNCERTAINTY_MEASURE_WITH_UNIT(LENGTH_MEASURE(0.01),#1381,
'DISTANCE_ACCURACY_VALUE',
'Maximum model space distance between geometric entities at asserted c
onnectivities');
#1378=(
GEOMETRIC_REPRESENTATION_CONTEXT(3)
GLOBAL_UNCERTAINTY_ASSIGNED_CONTEXT((#1375))
GLOBAL_UNIT_ASSIGNED_CONTEXT((#1381,#1383,#1384))
REPRESENTATION_CONTEXT('','3D')
);
#1379=(
GEOMETRIC_REPRESENTATION_CONTEXT(3)
GLOBAL_UNCERTAINTY_ASSIGNED_CONTEXT((#1376))
GLOBAL_UNIT_ASSIGNED_CONTEXT((#1381,#1383,#1384))
REPRESENTATION_CONTEXT('','3D')
);
#1380=(
GEOMETRIC_REPRESENTATION_CONTEXT(3)
GLOBAL_UNCERTAINTY_ASSIGNED_CONTEXT((#1377))
GLOBAL_UNIT_ASSIGNED_CONTEXT((#1381,#1383,#1384))
REPRESENTATION_CONTEXT('','3D')
);
#1381=(
LENGTH_UNIT()
NAMED_UNIT(*)
SI_UNIT(.MILLI.,.METRE.)
);
#1382=(
LENGTH_UNIT()
NAMED_UNIT(*)
SI_UNIT($,.METRE.)
);
#1383=(
NAMED_UNIT(*)
PLANE_ANGLE_UNIT()
SI_UNIT($,.RADIAN.)
);
#1384=(
NAMED_UNIT(*)
SI_UNIT($,.STERADIAN.)
SOLID_ANGLE_UNIT()
);
#1385=SHAPE_DEFINITION_REPRESENTATION(#1387,#1390);
#1386=SHAPE_DEFINITION_REPRESENTATION(#1388,#1391);
#1387=PRODUCT_DEFINITION_SHAPE('',$,#1393);
#1388=PRODUCT_DEFINITION_SHAPE('',$,#1394);
#1389=PRODUCT_DEFINITION_SHAPE($,$,#14);
#1390=SHAPE_REPRESENTATION('',(#768,#884),#1378);
#1391=SHAPE_REPRESENTATION('',(#769),#1379);
#1392=PRODUCT_DEFINITION_CONTEXT('part definition',#1400,'design');
#1393=PRODUCT_DEFINITION('boite_alim_4x18650','boite_alim_4x18650 v4',#1395,
#1392);
#1394=PRODUCT_DEFINITION('couvercle','couvercle',#1396,#1392);
#1395=PRODUCT_DEFINITION_FORMATION('',$,#1402);
#1396=PRODUCT_DEFINITION_FORMATION('',$,#1403);
#1397=PRODUCT_RELATED_PRODUCT_CATEGORY('boite_alim_4x18650 v4',
'boite_alim_4x18650 v4',(#1402));
#1398=PRODUCT_RELATED_PRODUCT_CATEGORY('couvercle','couvercle',(#1403));
#1399=APPLICATION_PROTOCOL_DEFINITION('international standard',
'automotive_design',2009,#1400);
#1400=APPLICATION_CONTEXT(
'Core Data for Automotive Mechanical Design Process');
#1401=PRODUCT_CONTEXT('part definition',#1400,'mechanical');
#1402=PRODUCT('boite_alim_4x18650','boite_alim_4x18650 v4',$,(#1401));
#1403=PRODUCT('couvercle','couvercle',$,(#1401));
#1404=PRESENTATION_STYLE_ASSIGNMENT((#1405));
#1405=SURFACE_STYLE_USAGE(.BOTH.,#1406);
#1406=SURFACE_SIDE_STYLE('',(#1407));
#1407=SURFACE_STYLE_FILL_AREA(#1408);
#1408=FILL_AREA_STYLE('Acier - Satin\X\E9',(#1409));
#1409=FILL_AREA_STYLE_COLOUR('Acier - Satin\X\E9',#1410);
#1410=COLOUR_RGB('Acier - Satin\X\E9',0.627450980392157,0.627450980392157,
0.627450980392157);
ENDSEC;
END-ISO-10303-21;
