ISO-10303-21;
HEADER;
/* Generated by software containing ST-Developer
 * from STEP Tools, Inc. (www.steptools.com) 
 */

FILE_DESCRIPTION(
/* description */ (''),
/* implementation_level */ '2;1');

FILE_NAME(
/* name */ 'boite_bilou_2.step',
/* time_stamp */ '2025-11-26T17:14:35+01:00',
/* author */ (''),
/* organization */ (''),
/* preprocessor_version */ 'ST-DEVELOPER v20.1',
/* originating_system */ 'Autodesk Translation Framework v14.21.0.0',
/* authorisation */ '');

FILE_SCHEMA (('AUTOMOTIVE_DESIGN { 1 0 10303 214 3 1 1 }'));
ENDSEC;

DATA;
#10=MECHANICAL_DESIGN_GEOMETRIC_PRESENTATION_REPRESENTATION('',(#13),#1072);
#11=SHAPE_REPRESENTATION_RELATIONSHIP('SRR','None',#1079,#12);
#12=ADVANCED_BREP_SHAPE_REPRESENTATION('',(#14),#1071);
#13=STYLED_ITEM('',(#1088),#14);
#14=MANIFOLD_SOLID_BREP('Corps1',#648);
#15=FACE_BOUND('',#96,.T.);
#16=FACE_BOUND('',#97,.T.);
#17=FACE_BOUND('',#98,.T.);
#18=FACE_BOUND('',#114,.T.);
#19=FACE_BOUND('',#128,.T.);
#20=FACE_BOUND('',#129,.T.);
#21=FACE_BOUND('',#130,.T.);
#22=FACE_BOUND('',#131,.T.);
#23=FACE_BOUND('',#132,.T.);
#24=FACE_BOUND('',#133,.T.);
#25=FACE_BOUND('',#135,.T.);
#26=FACE_BOUND('',#136,.T.);
#27=FACE_BOUND('',#137,.T.);
#28=FACE_BOUND('',#138,.T.);
#29=CIRCLE('',#665,0.5);
#30=CIRCLE('',#666,0.5);
#31=CIRCLE('',#668,0.5);
#32=CIRCLE('',#669,0.5);
#33=CIRCLE('',#670,0.5);
#34=CIRCLE('',#671,3.1);
#35=CIRCLE('',#674,0.5);
#36=CIRCLE('',#676,0.5);
#37=CIRCLE('',#679,0.5);
#38=CIRCLE('',#681,3.1);
#39=CIRCLE('',#691,3.5);
#40=CIRCLE('',#698,0.6);
#41=CIRCLE('',#699,0.6);
#42=CIRCLE('',#701,0.6);
#43=CIRCLE('',#702,0.6);
#44=CIRCLE('',#704,0.6);
#45=CIRCLE('',#705,0.6);
#46=CIRCLE('',#707,3.5);
#47=CIRCLE('',#709,0.6);
#48=CIRCLE('',#710,0.6);
#49=CYLINDRICAL_SURFACE('',#664,0.5);
#50=CYLINDRICAL_SURFACE('',#673,0.5);
#51=CYLINDRICAL_SURFACE('',#675,0.5);
#52=CYLINDRICAL_SURFACE('',#678,0.5);
#53=CYLINDRICAL_SURFACE('',#680,3.1);
#54=CYLINDRICAL_SURFACE('',#697,0.6);
#55=CYLINDRICAL_SURFACE('',#700,0.6);
#56=CYLINDRICAL_SURFACE('',#703,0.6);
#57=CYLINDRICAL_SURFACE('',#706,3.5);
#58=CYLINDRICAL_SURFACE('',#708,0.6);
#59=FACE_OUTER_BOUND('',#92,.T.);
#60=FACE_OUTER_BOUND('',#93,.T.);
#61=FACE_OUTER_BOUND('',#94,.T.);
#62=FACE_OUTER_BOUND('',#95,.T.);
#63=FACE_OUTER_BOUND('',#99,.T.);
#64=FACE_OUTER_BOUND('',#100,.T.);
#65=FACE_OUTER_BOUND('',#101,.T.);
#66=FACE_OUTER_BOUND('',#102,.T.);
#67=FACE_OUTER_BOUND('',#103,.T.);
#68=FACE_OUTER_BOUND('',#104,.T.);
#69=FACE_OUTER_BOUND('',#105,.T.);
#70=FACE_OUTER_BOUND('',#106,.T.);
#71=FACE_OUTER_BOUND('',#107,.T.);
#72=FACE_OUTER_BOUND('',#108,.T.);
#73=FACE_OUTER_BOUND('',#109,.T.);
#74=FACE_OUTER_BOUND('',#110,.T.);
#75=FACE_OUTER_BOUND('',#111,.T.);
#76=FACE_OUTER_BOUND('',#112,.T.);
#77=FACE_OUTER_BOUND('',#113,.T.);
#78=FACE_OUTER_BOUND('',#115,.T.);
#79=FACE_OUTER_BOUND('',#116,.T.);
#80=FACE_OUTER_BOUND('',#117,.T.);
#81=FACE_OUTER_BOUND('',#118,.T.);
#82=FACE_OUTER_BOUND('',#119,.T.);
#83=FACE_OUTER_BOUND('',#120,.T.);
#84=FACE_OUTER_BOUND('',#121,.T.);
#85=FACE_OUTER_BOUND('',#122,.T.);
#86=FACE_OUTER_BOUND('',#123,.T.);
#87=FACE_OUTER_BOUND('',#124,.T.);
#88=FACE_OUTER_BOUND('',#125,.T.);
#89=FACE_OUTER_BOUND('',#126,.T.);
#90=FACE_OUTER_BOUND('',#127,.T.);
#91=FACE_OUTER_BOUND('',#134,.T.);
#92=EDGE_LOOP('',(#418,#419,#420,#421));
#93=EDGE_LOOP('',(#422,#423,#424,#425));
#94=EDGE_LOOP('',(#426,#427,#428,#429));
#95=EDGE_LOOP('',(#430,#431,#432,#433,#434,#435,#436,#437));
#96=EDGE_LOOP('',(#438,#439,#440,#441));
#97=EDGE_LOOP('',(#442,#443,#444,#445,#446,#447));
#98=EDGE_LOOP('',(#448));
#99=EDGE_LOOP('',(#449,#450,#451,#452));
#100=EDGE_LOOP('',(#453,#454,#455,#456));
#101=EDGE_LOOP('',(#457,#458,#459,#460));
#102=EDGE_LOOP('',(#461,#462,#463,#464));
#103=EDGE_LOOP('',(#465,#466,#467,#468));
#104=EDGE_LOOP('',(#469,#470,#471,#472));
#105=EDGE_LOOP('',(#473,#474,#475,#476));
#106=EDGE_LOOP('',(#477,#478,#479,#480));
#107=EDGE_LOOP('',(#481,#482,#483,#484));
#108=EDGE_LOOP('',(#485,#486,#487,#488));
#109=EDGE_LOOP('',(#489,#490,#491,#492));
#110=EDGE_LOOP('',(#493,#494,#495,#496));
#111=EDGE_LOOP('',(#497,#498,#499,#500));
#112=EDGE_LOOP('',(#501,#502,#503,#504));
#113=EDGE_LOOP('',(#505,#506,#507,#508,#509,#510));
#114=EDGE_LOOP('',(#511));
#115=EDGE_LOOP('',(#512,#513,#514,#515));
#116=EDGE_LOOP('',(#516,#517,#518,#519,#520,#521,#522,#523,#524));
#117=EDGE_LOOP('',(#525,#526,#527,#528));
#118=EDGE_LOOP('',(#529,#530,#531,#532,#533,#534,#535,#536,#537));
#119=EDGE_LOOP('',(#538,#539,#540,#541));
#120=EDGE_LOOP('',(#542,#543,#544,#545));
#121=EDGE_LOOP('',(#546,#547,#548,#549));
#122=EDGE_LOOP('',(#550,#551,#552,#553));
#123=EDGE_LOOP('',(#554,#555,#556,#557));
#124=EDGE_LOOP('',(#558,#559,#560,#561));
#125=EDGE_LOOP('',(#562,#563,#564,#565));
#126=EDGE_LOOP('',(#566,#567,#568,#569));
#127=EDGE_LOOP('',(#570,#571,#572,#573,#574,#575,#576,#577));
#128=EDGE_LOOP('',(#578));
#129=EDGE_LOOP('',(#579));
#130=EDGE_LOOP('',(#580));
#131=EDGE_LOOP('',(#581));
#132=EDGE_LOOP('',(#582));
#133=EDGE_LOOP('',(#583,#584,#585,#586));
#134=EDGE_LOOP('',(#587));
#135=EDGE_LOOP('',(#588));
#136=EDGE_LOOP('',(#589));
#137=EDGE_LOOP('',(#590));
#138=EDGE_LOOP('',(#591));
#139=LINE('',#894,#206);
#140=LINE('',#896,#207);
#141=LINE('',#898,#208);
#142=LINE('',#899,#209);
#143=LINE('',#902,#210);
#144=LINE('',#904,#211);
#145=LINE('',#905,#212);
#146=LINE('',#911,#213);
#147=LINE('',#914,#214);
#148=LINE('',#917,#215);
#149=LINE('',#921,#216);
#150=LINE('',#925,#217);
#151=LINE('',#928,#218);
#152=LINE('',#931,#219);
#153=LINE('',#933,#220);
#154=LINE('',#935,#221);
#155=LINE('',#936,#222);
#156=LINE('',#939,#223);
#157=LINE('',#941,#224);
#158=LINE('',#943,#225);
#159=LINE('',#945,#226);
#160=LINE('',#947,#227);
#161=LINE('',#948,#228);
#162=LINE('',#953,#229);
#163=LINE('',#954,#230);
#164=LINE('',#958,#231);
#165=LINE('',#963,#232);
#166=LINE('',#964,#233);
#167=LINE('',#967,#234);
#168=LINE('',#968,#235);
#169=LINE('',#972,#236);
#170=LINE('',#975,#237);
#171=LINE('',#980,#238);
#172=LINE('',#981,#239);
#173=LINE('',#982,#240);
#174=LINE('',#985,#241);
#175=LINE('',#986,#242);
#176=LINE('',#989,#243);
#177=LINE('',#990,#244);
#178=LINE('',#993,#245);
#179=LINE('',#994,#246);
#180=LINE('',#997,#247);
#181=LINE('',#998,#248);
#182=LINE('',#1000,#249);
#183=LINE('',#1004,#250);
#184=LINE('',#1005,#251);
#185=LINE('',#1006,#252);
#186=LINE('',#1008,#253);
#187=LINE('',#1009,#254);
#188=LINE('',#1015,#255);
#189=LINE('',#1017,#256);
#190=LINE('',#1018,#257);
#191=LINE('',#1021,#258);
#192=LINE('',#1023,#259);
#193=LINE('',#1024,#260);
#194=LINE('',#1027,#261);
#195=LINE('',#1028,#262);
#196=LINE('',#1031,#263);
#197=LINE('',#1032,#264);
#198=LINE('',#1034,#265);
#199=LINE('',#1039,#266);
#200=LINE('',#1045,#267);
#201=LINE('',#1051,#268);
#202=LINE('',#1056,#269);
#203=LINE('',#1061,#270);
#204=LINE('',#1064,#271);
#205=LINE('',#1066,#272);
#206=VECTOR('',#719,10.);
#207=VECTOR('',#720,10.);
#208=VECTOR('',#721,10.);
#209=VECTOR('',#722,10.);
#210=VECTOR('',#725,10.);
#211=VECTOR('',#726,10.);
#212=VECTOR('',#727,10.);
#213=VECTOR('',#732,10.);
#214=VECTOR('',#735,10.);
#215=VECTOR('',#738,10.);
#216=VECTOR('',#741,10.);
#217=VECTOR('',#744,10.);
#218=VECTOR('',#747,10.);
#219=VECTOR('',#748,10.);
#220=VECTOR('',#749,10.);
#221=VECTOR('',#750,10.);
#222=VECTOR('',#751,10.);
#223=VECTOR('',#752,10.);
#224=VECTOR('',#753,10.);
#225=VECTOR('',#754,10.);
#226=VECTOR('',#755,10.);
#227=VECTOR('',#756,10.);
#228=VECTOR('',#757,10.);
#229=VECTOR('',#762,10.);
#230=VECTOR('',#763,10.);
#231=VECTOR('',#768,10.);
#232=VECTOR('',#773,10.);
#233=VECTOR('',#774,10.);
#234=VECTOR('',#777,10.);
#235=VECTOR('',#778,10.);
#236=VECTOR('',#783,10.);
#237=VECTOR('',#786,3.1);
#238=VECTOR('',#791,10.);
#239=VECTOR('',#792,10.);
#240=VECTOR('',#793,10.);
#241=VECTOR('',#796,10.);
#242=VECTOR('',#797,10.);
#243=VECTOR('',#800,10.);
#244=VECTOR('',#801,10.);
#245=VECTOR('',#804,10.);
#246=VECTOR('',#805,10.);
#247=VECTOR('',#808,10.);
#248=VECTOR('',#809,10.);
#249=VECTOR('',#812,10.);
#250=VECTOR('',#815,10.);
#251=VECTOR('',#816,10.);
#252=VECTOR('',#817,10.);
#253=VECTOR('',#820,10.);
#254=VECTOR('',#821,10.);
#255=VECTOR('',#828,10.);
#256=VECTOR('',#829,10.);
#257=VECTOR('',#830,10.);
#258=VECTOR('',#833,10.);
#259=VECTOR('',#834,10.);
#260=VECTOR('',#835,10.);
#261=VECTOR('',#838,10.);
#262=VECTOR('',#839,10.);
#263=VECTOR('',#842,10.);
#264=VECTOR('',#843,10.);
#265=VECTOR('',#846,10.);
#266=VECTOR('',#851,0.6);
#267=VECTOR('',#858,0.6);
#268=VECTOR('',#865,0.6);
#269=VECTOR('',#872,3.5);
#270=VECTOR('',#877,0.6);
#271=VECTOR('',#882,10.);
#272=VECTOR('',#885,10.);
#273=VERTEX_POINT('',#892);
#274=VERTEX_POINT('',#893);
#275=VERTEX_POINT('',#895);
#276=VERTEX_POINT('',#897);
#277=VERTEX_POINT('',#901);
#278=VERTEX_POINT('',#903);
#279=VERTEX_POINT('',#907);
#280=VERTEX_POINT('',#908);
#281=VERTEX_POINT('',#910);
#282=VERTEX_POINT('',#912);
#283=VERTEX_POINT('',#916);
#284=VERTEX_POINT('',#918);
#285=VERTEX_POINT('',#920);
#286=VERTEX_POINT('',#922);
#287=VERTEX_POINT('',#924);
#288=VERTEX_POINT('',#926);
#289=VERTEX_POINT('',#929);
#290=VERTEX_POINT('',#930);
#291=VERTEX_POINT('',#932);
#292=VERTEX_POINT('',#934);
#293=VERTEX_POINT('',#937);
#294=VERTEX_POINT('',#938);
#295=VERTEX_POINT('',#940);
#296=VERTEX_POINT('',#942);
#297=VERTEX_POINT('',#944);
#298=VERTEX_POINT('',#946);
#299=VERTEX_POINT('',#949);
#300=VERTEX_POINT('',#952);
#301=VERTEX_POINT('',#956);
#302=VERTEX_POINT('',#960);
#303=VERTEX_POINT('',#961);
#304=VERTEX_POINT('',#966);
#305=VERTEX_POINT('',#970);
#306=VERTEX_POINT('',#974);
#307=VERTEX_POINT('',#978);
#308=VERTEX_POINT('',#979);
#309=VERTEX_POINT('',#984);
#310=VERTEX_POINT('',#988);
#311=VERTEX_POINT('',#992);
#312=VERTEX_POINT('',#996);
#313=VERTEX_POINT('',#1002);
#314=VERTEX_POINT('',#1003);
#315=VERTEX_POINT('',#1011);
#316=VERTEX_POINT('',#1014);
#317=VERTEX_POINT('',#1016);
#318=VERTEX_POINT('',#1020);
#319=VERTEX_POINT('',#1022);
#320=VERTEX_POINT('',#1026);
#321=VERTEX_POINT('',#1030);
#322=VERTEX_POINT('',#1036);
#323=VERTEX_POINT('',#1038);
#324=VERTEX_POINT('',#1042);
#325=VERTEX_POINT('',#1044);
#326=VERTEX_POINT('',#1048);
#327=VERTEX_POINT('',#1050);
#328=VERTEX_POINT('',#1054);
#329=VERTEX_POINT('',#1058);
#330=VERTEX_POINT('',#1060);
#331=EDGE_CURVE('',#273,#274,#139,.F.);
#332=EDGE_CURVE('',#274,#275,#140,.T.);
#333=EDGE_CURVE('',#275,#276,#141,.F.);
#334=EDGE_CURVE('',#276,#273,#142,.T.);
#335=EDGE_CURVE('',#274,#277,#143,.T.);
#336=EDGE_CURVE('',#277,#278,#144,.T.);
#337=EDGE_CURVE('',#278,#275,#145,.T.);
#338=EDGE_CURVE('',#279,#280,#29,.T.);
#339=EDGE_CURVE('',#280,#281,#146,.T.);
#340=EDGE_CURVE('',#281,#282,#30,.T.);
#341=EDGE_CURVE('',#282,#279,#147,.T.);
#342=EDGE_CURVE('',#279,#283,#148,.T.);
#343=EDGE_CURVE('',#284,#283,#31,.T.);
#344=EDGE_CURVE('',#284,#285,#149,.T.);
#345=EDGE_CURVE('',#286,#285,#32,.T.);
#346=EDGE_CURVE('',#286,#287,#150,.T.);
#347=EDGE_CURVE('',#288,#287,#33,.T.);
#348=EDGE_CURVE('',#288,#280,#151,.T.);
#349=EDGE_CURVE('',#289,#290,#152,.T.);
#350=EDGE_CURVE('',#290,#291,#153,.T.);
#351=EDGE_CURVE('',#291,#292,#154,.T.);
#352=EDGE_CURVE('',#292,#289,#155,.T.);
#353=EDGE_CURVE('',#293,#294,#156,.T.);
#354=EDGE_CURVE('',#294,#295,#157,.T.);
#355=EDGE_CURVE('',#295,#296,#158,.T.);
#356=EDGE_CURVE('',#296,#297,#159,.T.);
#357=EDGE_CURVE('',#297,#298,#160,.T.);
#358=EDGE_CURVE('',#298,#293,#161,.T.);
#359=EDGE_CURVE('',#299,#299,#34,.T.);
#360=EDGE_CURVE('',#300,#282,#162,.T.);
#361=EDGE_CURVE('',#283,#300,#163,.T.);
#362=EDGE_CURVE('',#300,#301,#35,.T.);
#363=EDGE_CURVE('',#301,#284,#164,.T.);
#364=EDGE_CURVE('',#302,#303,#36,.T.);
#365=EDGE_CURVE('',#303,#286,#165,.T.);
#366=EDGE_CURVE('',#285,#302,#166,.T.);
#367=EDGE_CURVE('',#304,#303,#167,.T.);
#368=EDGE_CURVE('',#287,#304,#168,.T.);
#369=EDGE_CURVE('',#304,#305,#37,.T.);
#370=EDGE_CURVE('',#305,#288,#169,.T.);
#371=EDGE_CURVE('',#299,#306,#170,.T.);
#372=EDGE_CURVE('',#306,#306,#38,.T.);
#373=EDGE_CURVE('',#307,#308,#171,.T.);
#374=EDGE_CURVE('',#307,#293,#172,.T.);
#375=EDGE_CURVE('',#308,#298,#173,.T.);
#376=EDGE_CURVE('',#308,#309,#174,.T.);
#377=EDGE_CURVE('',#309,#297,#175,.T.);
#378=EDGE_CURVE('',#309,#310,#176,.T.);
#379=EDGE_CURVE('',#310,#296,#177,.T.);
#380=EDGE_CURVE('',#310,#311,#178,.T.);
#381=EDGE_CURVE('',#311,#295,#179,.T.);
#382=EDGE_CURVE('',#311,#312,#180,.T.);
#383=EDGE_CURVE('',#312,#294,#181,.T.);
#384=EDGE_CURVE('',#312,#307,#182,.T.);
#385=EDGE_CURVE('',#313,#314,#183,.T.);
#386=EDGE_CURVE('',#313,#289,#184,.T.);
#387=EDGE_CURVE('',#314,#292,#185,.T.);
#388=EDGE_CURVE('',#277,#291,#186,.T.);
#389=EDGE_CURVE('',#278,#290,#187,.T.);
#390=EDGE_CURVE('',#315,#315,#39,.T.);
#391=EDGE_CURVE('',#314,#316,#188,.T.);
#392=EDGE_CURVE('',#317,#316,#189,.T.);
#393=EDGE_CURVE('',#317,#313,#190,.T.);
#394=EDGE_CURVE('',#317,#318,#191,.T.);
#395=EDGE_CURVE('',#319,#318,#192,.T.);
#396=EDGE_CURVE('',#276,#319,#193,.T.);
#397=EDGE_CURVE('',#320,#319,#194,.T.);
#398=EDGE_CURVE('',#273,#320,#195,.T.);
#399=EDGE_CURVE('',#321,#320,#196,.T.);
#400=EDGE_CURVE('',#316,#321,#197,.T.);
#401=EDGE_CURVE('',#318,#321,#198,.T.);
#402=EDGE_CURVE('',#322,#322,#40,.T.);
#403=EDGE_CURVE('',#322,#323,#199,.T.);
#404=EDGE_CURVE('',#323,#323,#41,.T.);
#405=EDGE_CURVE('',#324,#324,#42,.T.);
#406=EDGE_CURVE('',#324,#325,#200,.T.);
#407=EDGE_CURVE('',#325,#325,#43,.T.);
#408=EDGE_CURVE('',#326,#326,#44,.T.);
#409=EDGE_CURVE('',#326,#327,#201,.T.);
#410=EDGE_CURVE('',#327,#327,#45,.T.);
#411=EDGE_CURVE('',#328,#328,#46,.T.);
#412=EDGE_CURVE('',#328,#315,#202,.T.);
#413=EDGE_CURVE('',#329,#329,#47,.T.);
#414=EDGE_CURVE('',#329,#330,#203,.T.);
#415=EDGE_CURVE('',#330,#330,#48,.T.);
#416=EDGE_CURVE('',#302,#301,#204,.T.);
#417=EDGE_CURVE('',#281,#305,#205,.T.);
#418=ORIENTED_EDGE('',*,*,#331,.T.);
#419=ORIENTED_EDGE('',*,*,#332,.T.);
#420=ORIENTED_EDGE('',*,*,#333,.T.);
#421=ORIENTED_EDGE('',*,*,#334,.T.);
#422=ORIENTED_EDGE('',*,*,#332,.F.);
#423=ORIENTED_EDGE('',*,*,#335,.T.);
#424=ORIENTED_EDGE('',*,*,#336,.T.);
#425=ORIENTED_EDGE('',*,*,#337,.T.);
#426=ORIENTED_EDGE('',*,*,#338,.T.);
#427=ORIENTED_EDGE('',*,*,#339,.T.);
#428=ORIENTED_EDGE('',*,*,#340,.T.);
#429=ORIENTED_EDGE('',*,*,#341,.T.);
#430=ORIENTED_EDGE('',*,*,#338,.F.);
#431=ORIENTED_EDGE('',*,*,#342,.T.);
#432=ORIENTED_EDGE('',*,*,#343,.F.);
#433=ORIENTED_EDGE('',*,*,#344,.T.);
#434=ORIENTED_EDGE('',*,*,#345,.F.);
#435=ORIENTED_EDGE('',*,*,#346,.T.);
#436=ORIENTED_EDGE('',*,*,#347,.F.);
#437=ORIENTED_EDGE('',*,*,#348,.T.);
#438=ORIENTED_EDGE('',*,*,#349,.T.);
#439=ORIENTED_EDGE('',*,*,#350,.T.);
#440=ORIENTED_EDGE('',*,*,#351,.T.);
#441=ORIENTED_EDGE('',*,*,#352,.T.);
#442=ORIENTED_EDGE('',*,*,#353,.T.);
#443=ORIENTED_EDGE('',*,*,#354,.T.);
#444=ORIENTED_EDGE('',*,*,#355,.T.);
#445=ORIENTED_EDGE('',*,*,#356,.T.);
#446=ORIENTED_EDGE('',*,*,#357,.T.);
#447=ORIENTED_EDGE('',*,*,#358,.T.);
#448=ORIENTED_EDGE('',*,*,#359,.T.);
#449=ORIENTED_EDGE('',*,*,#341,.F.);
#450=ORIENTED_EDGE('',*,*,#360,.F.);
#451=ORIENTED_EDGE('',*,*,#361,.F.);
#452=ORIENTED_EDGE('',*,*,#342,.F.);
#453=ORIENTED_EDGE('',*,*,#362,.T.);
#454=ORIENTED_EDGE('',*,*,#363,.T.);
#455=ORIENTED_EDGE('',*,*,#343,.T.);
#456=ORIENTED_EDGE('',*,*,#361,.T.);
#457=ORIENTED_EDGE('',*,*,#364,.T.);
#458=ORIENTED_EDGE('',*,*,#365,.T.);
#459=ORIENTED_EDGE('',*,*,#345,.T.);
#460=ORIENTED_EDGE('',*,*,#366,.T.);
#461=ORIENTED_EDGE('',*,*,#365,.F.);
#462=ORIENTED_EDGE('',*,*,#367,.F.);
#463=ORIENTED_EDGE('',*,*,#368,.F.);
#464=ORIENTED_EDGE('',*,*,#346,.F.);
#465=ORIENTED_EDGE('',*,*,#369,.T.);
#466=ORIENTED_EDGE('',*,*,#370,.T.);
#467=ORIENTED_EDGE('',*,*,#347,.T.);
#468=ORIENTED_EDGE('',*,*,#368,.T.);
#469=ORIENTED_EDGE('',*,*,#359,.F.);
#470=ORIENTED_EDGE('',*,*,#371,.T.);
#471=ORIENTED_EDGE('',*,*,#372,.F.);
#472=ORIENTED_EDGE('',*,*,#371,.F.);
#473=ORIENTED_EDGE('',*,*,#373,.F.);
#474=ORIENTED_EDGE('',*,*,#374,.T.);
#475=ORIENTED_EDGE('',*,*,#358,.F.);
#476=ORIENTED_EDGE('',*,*,#375,.F.);
#477=ORIENTED_EDGE('',*,*,#376,.F.);
#478=ORIENTED_EDGE('',*,*,#375,.T.);
#479=ORIENTED_EDGE('',*,*,#357,.F.);
#480=ORIENTED_EDGE('',*,*,#377,.F.);
#481=ORIENTED_EDGE('',*,*,#378,.F.);
#482=ORIENTED_EDGE('',*,*,#377,.T.);
#483=ORIENTED_EDGE('',*,*,#356,.F.);
#484=ORIENTED_EDGE('',*,*,#379,.F.);
#485=ORIENTED_EDGE('',*,*,#380,.F.);
#486=ORIENTED_EDGE('',*,*,#379,.T.);
#487=ORIENTED_EDGE('',*,*,#355,.F.);
#488=ORIENTED_EDGE('',*,*,#381,.F.);
#489=ORIENTED_EDGE('',*,*,#382,.F.);
#490=ORIENTED_EDGE('',*,*,#381,.T.);
#491=ORIENTED_EDGE('',*,*,#354,.F.);
#492=ORIENTED_EDGE('',*,*,#383,.F.);
#493=ORIENTED_EDGE('',*,*,#384,.F.);
#494=ORIENTED_EDGE('',*,*,#383,.T.);
#495=ORIENTED_EDGE('',*,*,#353,.F.);
#496=ORIENTED_EDGE('',*,*,#374,.F.);
#497=ORIENTED_EDGE('',*,*,#385,.F.);
#498=ORIENTED_EDGE('',*,*,#386,.T.);
#499=ORIENTED_EDGE('',*,*,#352,.F.);
#500=ORIENTED_EDGE('',*,*,#387,.F.);
#501=ORIENTED_EDGE('',*,*,#336,.F.);
#502=ORIENTED_EDGE('',*,*,#388,.T.);
#503=ORIENTED_EDGE('',*,*,#350,.F.);
#504=ORIENTED_EDGE('',*,*,#389,.F.);
#505=ORIENTED_EDGE('',*,*,#373,.T.);
#506=ORIENTED_EDGE('',*,*,#376,.T.);
#507=ORIENTED_EDGE('',*,*,#378,.T.);
#508=ORIENTED_EDGE('',*,*,#380,.T.);
#509=ORIENTED_EDGE('',*,*,#382,.T.);
#510=ORIENTED_EDGE('',*,*,#384,.T.);
#511=ORIENTED_EDGE('',*,*,#390,.F.);
#512=ORIENTED_EDGE('',*,*,#391,.T.);
#513=ORIENTED_EDGE('',*,*,#392,.F.);
#514=ORIENTED_EDGE('',*,*,#393,.T.);
#515=ORIENTED_EDGE('',*,*,#385,.T.);
#516=ORIENTED_EDGE('',*,*,#394,.T.);
#517=ORIENTED_EDGE('',*,*,#395,.F.);
#518=ORIENTED_EDGE('',*,*,#396,.F.);
#519=ORIENTED_EDGE('',*,*,#333,.F.);
#520=ORIENTED_EDGE('',*,*,#337,.F.);
#521=ORIENTED_EDGE('',*,*,#389,.T.);
#522=ORIENTED_EDGE('',*,*,#349,.F.);
#523=ORIENTED_EDGE('',*,*,#386,.F.);
#524=ORIENTED_EDGE('',*,*,#393,.F.);
#525=ORIENTED_EDGE('',*,*,#334,.F.);
#526=ORIENTED_EDGE('',*,*,#396,.T.);
#527=ORIENTED_EDGE('',*,*,#397,.F.);
#528=ORIENTED_EDGE('',*,*,#398,.F.);
#529=ORIENTED_EDGE('',*,*,#398,.T.);
#530=ORIENTED_EDGE('',*,*,#399,.F.);
#531=ORIENTED_EDGE('',*,*,#400,.F.);
#532=ORIENTED_EDGE('',*,*,#391,.F.);
#533=ORIENTED_EDGE('',*,*,#387,.T.);
#534=ORIENTED_EDGE('',*,*,#351,.F.);
#535=ORIENTED_EDGE('',*,*,#388,.F.);
#536=ORIENTED_EDGE('',*,*,#335,.F.);
#537=ORIENTED_EDGE('',*,*,#331,.F.);
#538=ORIENTED_EDGE('',*,*,#392,.T.);
#539=ORIENTED_EDGE('',*,*,#400,.T.);
#540=ORIENTED_EDGE('',*,*,#401,.F.);
#541=ORIENTED_EDGE('',*,*,#394,.F.);
#542=ORIENTED_EDGE('',*,*,#402,.F.);
#543=ORIENTED_EDGE('',*,*,#403,.T.);
#544=ORIENTED_EDGE('',*,*,#404,.T.);
#545=ORIENTED_EDGE('',*,*,#403,.F.);
#546=ORIENTED_EDGE('',*,*,#405,.F.);
#547=ORIENTED_EDGE('',*,*,#406,.T.);
#548=ORIENTED_EDGE('',*,*,#407,.T.);
#549=ORIENTED_EDGE('',*,*,#406,.F.);
#550=ORIENTED_EDGE('',*,*,#408,.F.);
#551=ORIENTED_EDGE('',*,*,#409,.T.);
#552=ORIENTED_EDGE('',*,*,#410,.T.);
#553=ORIENTED_EDGE('',*,*,#409,.F.);
#554=ORIENTED_EDGE('',*,*,#411,.F.);
#555=ORIENTED_EDGE('',*,*,#412,.T.);
#556=ORIENTED_EDGE('',*,*,#390,.T.);
#557=ORIENTED_EDGE('',*,*,#412,.F.);
#558=ORIENTED_EDGE('',*,*,#413,.F.);
#559=ORIENTED_EDGE('',*,*,#414,.T.);
#560=ORIENTED_EDGE('',*,*,#415,.T.);
#561=ORIENTED_EDGE('',*,*,#414,.F.);
#562=ORIENTED_EDGE('',*,*,#363,.F.);
#563=ORIENTED_EDGE('',*,*,#416,.F.);
#564=ORIENTED_EDGE('',*,*,#366,.F.);
#565=ORIENTED_EDGE('',*,*,#344,.F.);
#566=ORIENTED_EDGE('',*,*,#339,.F.);
#567=ORIENTED_EDGE('',*,*,#348,.F.);
#568=ORIENTED_EDGE('',*,*,#370,.F.);
#569=ORIENTED_EDGE('',*,*,#417,.F.);
#570=ORIENTED_EDGE('',*,*,#340,.F.);
#571=ORIENTED_EDGE('',*,*,#417,.T.);
#572=ORIENTED_EDGE('',*,*,#369,.F.);
#573=ORIENTED_EDGE('',*,*,#367,.T.);
#574=ORIENTED_EDGE('',*,*,#364,.F.);
#575=ORIENTED_EDGE('',*,*,#416,.T.);
#576=ORIENTED_EDGE('',*,*,#362,.F.);
#577=ORIENTED_EDGE('',*,*,#360,.T.);
#578=ORIENTED_EDGE('',*,*,#413,.T.);
#579=ORIENTED_EDGE('',*,*,#411,.T.);
#580=ORIENTED_EDGE('',*,*,#408,.T.);
#581=ORIENTED_EDGE('',*,*,#405,.T.);
#582=ORIENTED_EDGE('',*,*,#402,.T.);
#583=ORIENTED_EDGE('',*,*,#401,.T.);
#584=ORIENTED_EDGE('',*,*,#399,.T.);
#585=ORIENTED_EDGE('',*,*,#397,.T.);
#586=ORIENTED_EDGE('',*,*,#395,.T.);
#587=ORIENTED_EDGE('',*,*,#372,.T.);
#588=ORIENTED_EDGE('',*,*,#415,.F.);
#589=ORIENTED_EDGE('',*,*,#410,.F.);
#590=ORIENTED_EDGE('',*,*,#407,.F.);
#591=ORIENTED_EDGE('',*,*,#404,.F.);
#592=PLANE('',#662);
#593=PLANE('',#663);
#594=PLANE('',#667);
#595=PLANE('',#672);
#596=PLANE('',#677);
#597=PLANE('',#682);
#598=PLANE('',#683);
#599=PLANE('',#684);
#600=PLANE('',#685);
#601=PLANE('',#686);
#602=PLANE('',#687);
#603=PLANE('',#688);
#604=PLANE('',#689);
#605=PLANE('',#690);
#606=PLANE('',#692);
#607=PLANE('',#693);
#608=PLANE('',#694);
#609=PLANE('',#695);
#610=PLANE('',#696);
#611=PLANE('',#711);
#612=PLANE('',#712);
#613=PLANE('',#713);
#614=PLANE('',#714);
#615=ADVANCED_FACE('',(#59),#592,.T.);
#616=ADVANCED_FACE('',(#60),#593,.F.);
#617=ADVANCED_FACE('',(#61),#49,.T.);
#618=ADVANCED_FACE('',(#62,#15,#16,#17),#594,.F.);
#619=ADVANCED_FACE('',(#63),#595,.T.);
#620=ADVANCED_FACE('',(#64),#50,.T.);
#621=ADVANCED_FACE('',(#65),#51,.T.);
#622=ADVANCED_FACE('',(#66),#596,.T.);
#623=ADVANCED_FACE('',(#67),#52,.T.);
#624=ADVANCED_FACE('',(#68),#53,.F.);
#625=ADVANCED_FACE('',(#69),#597,.T.);
#626=ADVANCED_FACE('',(#70),#598,.T.);
#627=ADVANCED_FACE('',(#71),#599,.T.);
#628=ADVANCED_FACE('',(#72),#600,.T.);
#629=ADVANCED_FACE('',(#73),#601,.T.);
#630=ADVANCED_FACE('',(#74),#602,.T.);
#631=ADVANCED_FACE('',(#75),#603,.T.);
#632=ADVANCED_FACE('',(#76),#604,.T.);
#633=ADVANCED_FACE('',(#77,#18),#605,.F.);
#634=ADVANCED_FACE('',(#78),#606,.F.);
#635=ADVANCED_FACE('',(#79),#607,.T.);
#636=ADVANCED_FACE('',(#80),#608,.T.);
#637=ADVANCED_FACE('',(#81),#609,.T.);
#638=ADVANCED_FACE('',(#82),#610,.T.);
#639=ADVANCED_FACE('',(#83),#54,.F.);
#640=ADVANCED_FACE('',(#84),#55,.F.);
#641=ADVANCED_FACE('',(#85),#56,.F.);
#642=ADVANCED_FACE('',(#86),#57,.F.);
#643=ADVANCED_FACE('',(#87),#58,.F.);
#644=ADVANCED_FACE('',(#88),#611,.T.);
#645=ADVANCED_FACE('',(#89),#612,.T.);
#646=ADVANCED_FACE('',(#90,#19,#20,#21,#22,#23,#24),#613,.T.);
#647=ADVANCED_FACE('',(#91,#25,#26,#27,#28),#614,.F.);
#648=CLOSED_SHELL('',(#615,#616,#617,#618,#619,#620,#621,#622,#623,#624,
#625,#626,#627,#628,#629,#630,#631,#632,#633,#634,#635,#636,#637,#638,#639,
#640,#641,#642,#643,#644,#645,#646,#647));
#649=DERIVED_UNIT_ELEMENT(#651,1.);
#650=DERIVED_UNIT_ELEMENT(#1074,-3.);
#651=(
MASS_UNIT()
NAMED_UNIT(*)
SI_UNIT(.KILO.,.GRAM.)
);
#652=DERIVED_UNIT((#649,#650));
#653=MEASURE_REPRESENTATION_ITEM('density measure',
POSITIVE_RATIO_MEASURE(7850.),#652);
#654=PROPERTY_DEFINITION_REPRESENTATION(#659,#656);
#655=PROPERTY_DEFINITION_REPRESENTATION(#660,#657);
#656=REPRESENTATION('material name',(#658),#1071);
#657=REPRESENTATION('density',(#653),#1071);
#658=DESCRIPTIVE_REPRESENTATION_ITEM('Acier','Acier');
#659=PROPERTY_DEFINITION('material property','material name',#1081);
#660=PROPERTY_DEFINITION('material property','density of part',#1081);
#661=AXIS2_PLACEMENT_3D('',#890,#715,#716);
#662=AXIS2_PLACEMENT_3D('',#891,#717,#718);
#663=AXIS2_PLACEMENT_3D('',#900,#723,#724);
#664=AXIS2_PLACEMENT_3D('',#906,#728,#729);
#665=AXIS2_PLACEMENT_3D('',#909,#730,#731);
#666=AXIS2_PLACEMENT_3D('',#913,#733,#734);
#667=AXIS2_PLACEMENT_3D('',#915,#736,#737);
#668=AXIS2_PLACEMENT_3D('',#919,#739,#740);
#669=AXIS2_PLACEMENT_3D('',#923,#742,#743);
#670=AXIS2_PLACEMENT_3D('',#927,#745,#746);
#671=AXIS2_PLACEMENT_3D('',#950,#758,#759);
#672=AXIS2_PLACEMENT_3D('',#951,#760,#761);
#673=AXIS2_PLACEMENT_3D('',#955,#764,#765);
#674=AXIS2_PLACEMENT_3D('',#957,#766,#767);
#675=AXIS2_PLACEMENT_3D('',#959,#769,#770);
#676=AXIS2_PLACEMENT_3D('',#962,#771,#772);
#677=AXIS2_PLACEMENT_3D('',#965,#775,#776);
#678=AXIS2_PLACEMENT_3D('',#969,#779,#780);
#679=AXIS2_PLACEMENT_3D('',#971,#781,#782);
#680=AXIS2_PLACEMENT_3D('',#973,#784,#785);
#681=AXIS2_PLACEMENT_3D('',#976,#787,#788);
#682=AXIS2_PLACEMENT_3D('',#977,#789,#790);
#683=AXIS2_PLACEMENT_3D('',#983,#794,#795);
#684=AXIS2_PLACEMENT_3D('',#987,#798,#799);
#685=AXIS2_PLACEMENT_3D('',#991,#802,#803);
#686=AXIS2_PLACEMENT_3D('',#995,#806,#807);
#687=AXIS2_PLACEMENT_3D('',#999,#810,#811);
#688=AXIS2_PLACEMENT_3D('',#1001,#813,#814);
#689=AXIS2_PLACEMENT_3D('',#1007,#818,#819);
#690=AXIS2_PLACEMENT_3D('',#1010,#822,#823);
#691=AXIS2_PLACEMENT_3D('',#1012,#824,#825);
#692=AXIS2_PLACEMENT_3D('',#1013,#826,#827);
#693=AXIS2_PLACEMENT_3D('',#1019,#831,#832);
#694=AXIS2_PLACEMENT_3D('',#1025,#836,#837);
#695=AXIS2_PLACEMENT_3D('',#1029,#840,#841);
#696=AXIS2_PLACEMENT_3D('',#1033,#844,#845);
#697=AXIS2_PLACEMENT_3D('',#1035,#847,#848);
#698=AXIS2_PLACEMENT_3D('',#1037,#849,#850);
#699=AXIS2_PLACEMENT_3D('',#1040,#852,#853);
#700=AXIS2_PLACEMENT_3D('',#1041,#854,#855);
#701=AXIS2_PLACEMENT_3D('',#1043,#856,#857);
#702=AXIS2_PLACEMENT_3D('',#1046,#859,#860);
#703=AXIS2_PLACEMENT_3D('',#1047,#861,#862);
#704=AXIS2_PLACEMENT_3D('',#1049,#863,#864);
#705=AXIS2_PLACEMENT_3D('',#1052,#866,#867);
#706=AXIS2_PLACEMENT_3D('',#1053,#868,#869);
#707=AXIS2_PLACEMENT_3D('',#1055,#870,#871);
#708=AXIS2_PLACEMENT_3D('',#1057,#873,#874);
#709=AXIS2_PLACEMENT_3D('',#1059,#875,#876);
#710=AXIS2_PLACEMENT_3D('',#1062,#878,#879);
#711=AXIS2_PLACEMENT_3D('',#1063,#880,#881);
#712=AXIS2_PLACEMENT_3D('',#1065,#883,#884);
#713=AXIS2_PLACEMENT_3D('',#1067,#886,#887);
#714=AXIS2_PLACEMENT_3D('',#1068,#888,#889);
#715=DIRECTION('axis',(0.,0.,1.));
#716=DIRECTION('refdir',(1.,0.,0.));
#717=DIRECTION('center_axis',(0.,-0.707106781186548,0.707106781186547));
#718=DIRECTION('ref_axis',(1.,0.,0.));
#719=DIRECTION('',(3.73831537781851E-17,0.707106781186547,0.707106781186548));
#720=DIRECTION('',(1.,0.,0.));
#721=DIRECTION('',(3.73831537781851E-17,-0.707106781186547,-0.707106781186548));
#722=DIRECTION('',(-1.,0.,0.));
#723=DIRECTION('center_axis',(0.,1.,0.));
#724=DIRECTION('ref_axis',(1.,0.,0.));
#725=DIRECTION('',(0.,0.,-1.));
#726=DIRECTION('',(1.,0.,0.));
#727=DIRECTION('',(-5.28677630773884E-17,0.,1.));
#728=DIRECTION('center_axis',(0.,-1.,0.));
#729=DIRECTION('ref_axis',(0.707106781186551,0.,0.707106781186544));
#730=DIRECTION('center_axis',(0.,1.,0.));
#731=DIRECTION('ref_axis',(0.707106781186551,0.,0.707106781186544));
#732=DIRECTION('',(0.,1.,0.));
#733=DIRECTION('center_axis',(0.,-1.,0.));
#734=DIRECTION('ref_axis',(0.707106781186551,0.,0.707106781186544));
#735=DIRECTION('',(0.,-1.,0.));
#736=DIRECTION('center_axis',(0.,1.,0.));
#737=DIRECTION('ref_axis',(1.,0.,0.));
#738=DIRECTION('',(-1.,0.,-2.96059473233375E-16));
#739=DIRECTION('center_axis',(0.,1.,0.));
#740=DIRECTION('ref_axis',(-0.707106781186551,0.,0.707106781186544));
#741=DIRECTION('',(2.22044604925031E-16,0.,-1.));
#742=DIRECTION('center_axis',(0.,1.,0.));
#743=DIRECTION('ref_axis',(-0.707106781186548,0.,-0.707106781186548));
#744=DIRECTION('',(1.,0.,2.96059473233375E-16));
#745=DIRECTION('center_axis',(0.,1.,0.));
#746=DIRECTION('ref_axis',(0.707106781186551,0.,-0.707106781186544));
#747=DIRECTION('',(5.55111512312578E-17,0.,1.));
#748=DIRECTION('',(5.28677630773884E-17,0.,-1.));
#749=DIRECTION('',(-1.,0.,0.));
#750=DIRECTION('',(0.,0.,1.));
#751=DIRECTION('',(1.,0.,0.));
#752=DIRECTION('',(-0.643410237528634,0.,-0.765521564845398));
#753=DIRECTION('',(-0.984666241065248,0.,0.174448828332079));
#754=DIRECTION('',(-0.341256003536613,0.,0.939970393177476));
#755=DIRECTION('',(0.643410237528635,0.,0.765521564845397));
#756=DIRECTION('',(0.984666241065248,0.,-0.174448828332078));
#757=DIRECTION('',(0.341256003536614,0.,-0.939970393177476));
#758=DIRECTION('center_axis',(0.,1.,0.));
#759=DIRECTION('ref_axis',(1.,0.,0.));
#760=DIRECTION('center_axis',(-2.96059473233375E-16,0.,1.));
#761=DIRECTION('ref_axis',(1.,0.,2.96059473233375E-16));
#762=DIRECTION('',(1.,0.,2.96059473233375E-16));
#763=DIRECTION('',(0.,1.,0.));
#764=DIRECTION('center_axis',(0.,1.,0.));
#765=DIRECTION('ref_axis',(-0.707106781186551,0.,0.707106781186544));
#766=DIRECTION('center_axis',(0.,-1.,0.));
#767=DIRECTION('ref_axis',(-0.707106781186551,0.,0.707106781186544));
#768=DIRECTION('',(0.,-1.,0.));
#769=DIRECTION('center_axis',(0.,1.,0.));
#770=DIRECTION('ref_axis',(-0.707106781186548,0.,-0.707106781186548));
#771=DIRECTION('center_axis',(0.,-1.,0.));
#772=DIRECTION('ref_axis',(-0.707106781186548,0.,-0.707106781186548));
#773=DIRECTION('',(0.,-1.,0.));
#774=DIRECTION('',(0.,1.,0.));
#775=DIRECTION('center_axis',(2.96059473233375E-16,0.,-1.));
#776=DIRECTION('ref_axis',(-1.,0.,-2.96059473233375E-16));
#777=DIRECTION('',(-1.,0.,-2.96059473233375E-16));
#778=DIRECTION('',(0.,1.,0.));
#779=DIRECTION('center_axis',(0.,1.,0.));
#780=DIRECTION('ref_axis',(0.707106781186551,0.,-0.707106781186544));
#781=DIRECTION('center_axis',(0.,-1.,0.));
#782=DIRECTION('ref_axis',(0.707106781186551,0.,-0.707106781186544));
#783=DIRECTION('',(0.,-1.,0.));
#784=DIRECTION('center_axis',(0.,-1.,0.));
#785=DIRECTION('ref_axis',(1.,0.,0.));
#786=DIRECTION('',(0.,1.,0.));
#787=DIRECTION('center_axis',(0.,-1.,0.));
#788=DIRECTION('ref_axis',(1.,0.,0.));
#789=DIRECTION('center_axis',(-0.939970393177476,0.,-0.341256003536614));
#790=DIRECTION('ref_axis',(0.341256003536614,0.,-0.939970393177476));
#791=DIRECTION('',(-0.341256003536614,0.,0.939970393177476));
#792=DIRECTION('',(0.,-1.,0.));
#793=DIRECTION('',(0.,-1.,0.));
#794=DIRECTION('center_axis',(-0.174448828332078,0.,-0.984666241065248));
#795=DIRECTION('ref_axis',(0.984666241065248,0.,-0.174448828332078));
#796=DIRECTION('',(-0.984666241065248,0.,0.174448828332078));
#797=DIRECTION('',(0.,-1.,0.));
#798=DIRECTION('center_axis',(0.765521564845397,0.,-0.643410237528635));
#799=DIRECTION('ref_axis',(0.643410237528635,0.,0.765521564845397));
#800=DIRECTION('',(-0.643410237528635,0.,-0.765521564845397));
#801=DIRECTION('',(0.,-1.,0.));
#802=DIRECTION('center_axis',(0.939970393177476,0.,0.341256003536613));
#803=DIRECTION('ref_axis',(-0.341256003536613,0.,0.939970393177476));
#804=DIRECTION('',(0.341256003536613,0.,-0.939970393177476));
#805=DIRECTION('',(0.,-1.,0.));
#806=DIRECTION('center_axis',(0.174448828332079,0.,0.984666241065248));
#807=DIRECTION('ref_axis',(-0.984666241065248,0.,0.174448828332079));
#808=DIRECTION('',(0.984666241065248,0.,-0.174448828332079));
#809=DIRECTION('',(0.,-1.,0.));
#810=DIRECTION('center_axis',(-0.765521564845398,0.,0.643410237528634));
#811=DIRECTION('ref_axis',(-0.643410237528634,0.,-0.765521564845398));
#812=DIRECTION('',(0.643410237528634,0.,0.765521564845398));
#813=DIRECTION('center_axis',(0.,0.,-1.));
#814=DIRECTION('ref_axis',(1.,0.,0.));
#815=DIRECTION('',(-1.,0.,0.));
#816=DIRECTION('',(0.,-1.,0.));
#817=DIRECTION('',(0.,-1.,0.));
#818=DIRECTION('center_axis',(0.,0.,1.));
#819=DIRECTION('ref_axis',(-1.,0.,0.));
#820=DIRECTION('',(0.,-1.,0.));
#821=DIRECTION('',(0.,-1.,0.));
#822=DIRECTION('center_axis',(0.,1.,0.));
#823=DIRECTION('ref_axis',(1.,0.,0.));
#824=DIRECTION('center_axis',(0.,-1.,0.));
#825=DIRECTION('ref_axis',(1.,0.,0.));
#826=DIRECTION('center_axis',(0.,1.,0.));
#827=DIRECTION('ref_axis',(1.,0.,0.));
#828=DIRECTION('',(0.,0.,-1.));
#829=DIRECTION('',(-1.,0.,0.));
#830=DIRECTION('',(-5.28677630773884E-17,0.,1.));
#831=DIRECTION('center_axis',(-1.,0.,-5.28677630773884E-17));
#832=DIRECTION('ref_axis',(-5.28677630773884E-17,0.,1.));
#833=DIRECTION('',(0.,1.,0.));
#834=DIRECTION('',(-5.28677630773884E-17,0.,1.));
#835=DIRECTION('',(0.,1.,0.));
#836=DIRECTION('center_axis',(0.,0.,1.));
#837=DIRECTION('ref_axis',(1.,0.,0.));
#838=DIRECTION('',(1.,0.,0.));
#839=DIRECTION('',(0.,1.,0.));
#840=DIRECTION('center_axis',(1.,0.,-5.28677630773884E-17));
#841=DIRECTION('ref_axis',(-5.28677630773884E-17,0.,-1.));
#842=DIRECTION('',(-5.28677630773884E-17,0.,-1.));
#843=DIRECTION('',(0.,1.,0.));
#844=DIRECTION('center_axis',(0.,0.,-1.));
#845=DIRECTION('ref_axis',(-1.,0.,0.));
#846=DIRECTION('',(-1.,0.,0.));
#847=DIRECTION('center_axis',(0.,1.,0.));
#848=DIRECTION('ref_axis',(1.,0.,0.));
#849=DIRECTION('center_axis',(0.,-1.,0.));
#850=DIRECTION('ref_axis',(1.,0.,0.));
#851=DIRECTION('',(0.,-1.,0.));
#852=DIRECTION('center_axis',(0.,-1.,0.));
#853=DIRECTION('ref_axis',(1.,0.,0.));
#854=DIRECTION('center_axis',(0.,1.,0.));
#855=DIRECTION('ref_axis',(1.,0.,0.));
#856=DIRECTION('center_axis',(0.,-1.,0.));
#857=DIRECTION('ref_axis',(1.,0.,0.));
#858=DIRECTION('',(0.,-1.,0.));
#859=DIRECTION('center_axis',(0.,-1.,0.));
#860=DIRECTION('ref_axis',(1.,0.,0.));
#861=DIRECTION('center_axis',(0.,1.,0.));
#862=DIRECTION('ref_axis',(1.,0.,0.));
#863=DIRECTION('center_axis',(0.,-1.,0.));
#864=DIRECTION('ref_axis',(1.,0.,0.));
#865=DIRECTION('',(0.,-1.,0.));
#866=DIRECTION('center_axis',(0.,-1.,0.));
#867=DIRECTION('ref_axis',(1.,0.,0.));
#868=DIRECTION('center_axis',(0.,1.,0.));
#869=DIRECTION('ref_axis',(1.,0.,0.));
#870=DIRECTION('center_axis',(0.,-1.,0.));
#871=DIRECTION('ref_axis',(1.,0.,0.));
#872=DIRECTION('',(0.,-1.,0.));
#873=DIRECTION('center_axis',(0.,1.,0.));
#874=DIRECTION('ref_axis',(1.,0.,0.));
#875=DIRECTION('center_axis',(0.,-1.,0.));
#876=DIRECTION('ref_axis',(1.,0.,0.));
#877=DIRECTION('',(0.,-1.,0.));
#878=DIRECTION('center_axis',(0.,-1.,0.));
#879=DIRECTION('ref_axis',(1.,0.,0.));
#880=DIRECTION('center_axis',(-1.,0.,-2.22044604925031E-16));
#881=DIRECTION('ref_axis',(-2.22044604925031E-16,0.,1.));
#882=DIRECTION('',(-2.22044604925031E-16,0.,1.));
#883=DIRECTION('center_axis',(1.,0.,-5.55111512312578E-17));
#884=DIRECTION('ref_axis',(-5.55111512312578E-17,0.,-1.));
#885=DIRECTION('',(-5.55111512312578E-17,0.,-1.));
#886=DIRECTION('center_axis',(0.,1.,0.));
#887=DIRECTION('ref_axis',(1.,0.,0.));
#888=DIRECTION('center_axis',(0.,1.,0.));
#889=DIRECTION('ref_axis',(1.,0.,0.));
#890=CARTESIAN_POINT('',(0.,0.,0.));
#891=CARTESIAN_POINT('Origin',(-4.12499999999936,0.1,14.85));
#892=CARTESIAN_POINT('',(-8.25,0.2,14.95));
#893=CARTESIAN_POINT('',(-8.25,0.,14.75));
#894=CARTESIAN_POINT('',(-8.25,2.175,16.925));
#895=CARTESIAN_POINT('',(8.25,0.,14.75));
#896=CARTESIAN_POINT('',(-4.12499999999936,0.,14.75));
#897=CARTESIAN_POINT('',(8.25,0.2,14.95));
#898=CARTESIAN_POINT('',(8.25,0.1,14.85));
#899=CARTESIAN_POINT('',(-4.12499999999936,0.2,14.95));
#900=CARTESIAN_POINT('Origin',(1.28563826251593E-12,0.,-2.78888023785839E-12));
#901=CARTESIAN_POINT('',(-8.25,0.,14.25));
#902=CARTESIAN_POINT('',(-8.25,0.,7.12499999999861));
#903=CARTESIAN_POINT('',(8.25,0.,14.25));
#904=CARTESIAN_POINT('',(4.12500000000064,0.,14.25));
#905=CARTESIAN_POINT('',(8.25,0.,17.6249999999986));
#906=CARTESIAN_POINT('Origin',(14.5000000000013,0.,39.4999999999972));
#907=CARTESIAN_POINT('',(14.5000000000013,-2.5,39.9999999999972));
#908=CARTESIAN_POINT('',(15.0000000000013,-2.5,39.4999999999972));
#909=CARTESIAN_POINT('Origin',(14.5000000000013,-2.5,39.4999999999972));
#910=CARTESIAN_POINT('',(15.0000000000013,3.,39.4999999999972));
#911=CARTESIAN_POINT('',(15.0000000000013,0.,39.4999999999972));
#912=CARTESIAN_POINT('',(14.5000000000013,3.,39.9999999999972));
#913=CARTESIAN_POINT('Origin',(14.5000000000013,3.,39.4999999999972));
#914=CARTESIAN_POINT('',(14.5000000000013,0.,39.9999999999972));
#915=CARTESIAN_POINT('Origin',(1.28563826251593E-12,-2.5,-2.78888023785839E-12));
#916=CARTESIAN_POINT('',(-14.4999999999987,-2.5,39.9999999999972));
#917=CARTESIAN_POINT('',(-14.9999999999987,-2.5,39.9999999999972));
#918=CARTESIAN_POINT('',(-14.9999999999987,-2.5,39.4999999999972));
#919=CARTESIAN_POINT('Origin',(-14.4999999999987,-2.5,39.4999999999972));
#920=CARTESIAN_POINT('',(-14.9999999999987,-2.5,-39.5000000000028));
#921=CARTESIAN_POINT('',(-14.9999999999987,-2.5,-40.0000000000028));
#922=CARTESIAN_POINT('',(-14.4999999999987,-2.5,-40.0000000000028));
#923=CARTESIAN_POINT('Origin',(-14.4999999999987,-2.5,-39.5000000000028));
#924=CARTESIAN_POINT('',(14.5000000000013,-2.5,-40.0000000000028));
#925=CARTESIAN_POINT('',(15.0000000000013,-2.5,-40.0000000000028));
#926=CARTESIAN_POINT('',(15.0000000000013,-2.5,-39.5000000000028));
#927=CARTESIAN_POINT('Origin',(14.5000000000013,-2.5,-39.5000000000028));
#928=CARTESIAN_POINT('',(15.0000000000013,-2.5,39.9999999999972));
#929=CARTESIAN_POINT('',(8.25,-2.5,35.25));
#930=CARTESIAN_POINT('',(8.25,-2.5,14.25));
#931=CARTESIAN_POINT('',(8.25,-2.5,35.25));
#932=CARTESIAN_POINT('',(-8.25,-2.5,14.25));
#933=CARTESIAN_POINT('',(8.25,-2.5,14.25));
#934=CARTESIAN_POINT('',(-8.25,-2.5,35.25));
#935=CARTESIAN_POINT('',(-8.25,-2.5,14.25));
#936=CARTESIAN_POINT('',(8.25,-2.5,35.25));
#937=CARTESIAN_POINT('',(5.51413094996539,-2.5,-6.72691343865963));
#938=CARTESIAN_POINT('',(1.91103361980503,-2.5,-11.0138342017939));
#939=CARTESIAN_POINT('',(5.51413094996539,-2.5,-6.72691343865964));
#940=CARTESIAN_POINT('',(-3.60309733016036,-2.5,-10.0369207631342));
#941=CARTESIAN_POINT('',(1.91103361980503,-2.5,-11.0138342017939));
#942=CARTESIAN_POINT('',(-5.51413094996539,-2.5,-4.77308656134036));
#943=CARTESIAN_POINT('',(-3.60309733016035,-2.5,-10.0369207631342));
#944=CARTESIAN_POINT('',(-1.91103361980503,-2.5,-0.486165798206133));
#945=CARTESIAN_POINT('',(-5.51413094996539,-2.5,-4.77308656134036));
#946=CARTESIAN_POINT('',(3.60309733016035,-2.5,-1.46307923686577));
#947=CARTESIAN_POINT('',(-1.91103361980503,-2.5,-0.486165798206133));
#948=CARTESIAN_POINT('',(3.60309733016035,-2.5,-1.46307923686577));
#949=CARTESIAN_POINT('',(-3.1,-2.5,-30.0000000000028));
#950=CARTESIAN_POINT('Origin',(0.,-2.5,-30.0000000000028));
#951=CARTESIAN_POINT('Origin',(-14.9999999999987,0.,39.9999999999972));
#952=CARTESIAN_POINT('',(-14.4999999999987,3.,39.9999999999972));
#953=CARTESIAN_POINT('',(-14.9999999999987,3.,39.9999999999972));
#954=CARTESIAN_POINT('',(-14.4999999999987,0.,39.9999999999972));
#955=CARTESIAN_POINT('Origin',(-14.4999999999987,0.,39.4999999999972));
#956=CARTESIAN_POINT('',(-14.9999999999987,3.,39.4999999999972));
#957=CARTESIAN_POINT('Origin',(-14.4999999999987,3.,39.4999999999972));
#958=CARTESIAN_POINT('',(-14.9999999999987,0.,39.4999999999972));
#959=CARTESIAN_POINT('Origin',(-14.4999999999987,0.,-39.5000000000028));
#960=CARTESIAN_POINT('',(-14.9999999999987,3.,-39.5000000000028));
#961=CARTESIAN_POINT('',(-14.4999999999987,3.,-40.0000000000028));
#962=CARTESIAN_POINT('Origin',(-14.4999999999987,3.,-39.5000000000028));
#963=CARTESIAN_POINT('',(-14.4999999999987,0.,-40.0000000000028));
#964=CARTESIAN_POINT('',(-14.9999999999987,0.,-39.5000000000028));
#965=CARTESIAN_POINT('Origin',(15.0000000000013,0.,-40.0000000000028));
#966=CARTESIAN_POINT('',(14.5000000000013,3.,-40.0000000000028));
#967=CARTESIAN_POINT('',(15.0000000000013,3.,-40.0000000000028));
#968=CARTESIAN_POINT('',(14.5000000000013,0.,-40.0000000000028));
#969=CARTESIAN_POINT('Origin',(14.5000000000013,0.,-39.5000000000028));
#970=CARTESIAN_POINT('',(15.0000000000013,3.,-39.5000000000028));
#971=CARTESIAN_POINT('Origin',(14.5000000000013,3.,-39.5000000000028));
#972=CARTESIAN_POINT('',(15.0000000000013,0.,-39.5000000000028));
#973=CARTESIAN_POINT('Origin',(0.,0.,-30.0000000000028));
#974=CARTESIAN_POINT('',(-3.1,0.,-30.0000000000028));
#975=CARTESIAN_POINT('',(-3.1,0.,-30.0000000000028));
#976=CARTESIAN_POINT('Origin',(0.,0.,-30.0000000000028));
#977=CARTESIAN_POINT('Origin',(3.60309733016035,0.,-1.46307923686577));
#978=CARTESIAN_POINT('',(5.51413094996539,0.,-6.72691343865964));
#979=CARTESIAN_POINT('',(3.60309733016035,0.,-1.46307923686577));
#980=CARTESIAN_POINT('',(3.15864043313399,0.,-0.238847809671298));
#981=CARTESIAN_POINT('',(5.51413094996539,0.,-6.72691343865964));
#982=CARTESIAN_POINT('',(3.60309733016035,0.,-1.46307923686577));
#983=CARTESIAN_POINT('Origin',(-1.91103361980503,0.,-0.486165798206133));
#984=CARTESIAN_POINT('',(-1.91103361980503,0.,-0.486165798206133));
#985=CARTESIAN_POINT('',(-1.02635076446228,0.,-0.642901025965195));
#986=CARTESIAN_POINT('',(-1.91103361980503,0.,-0.486165798206133));
#987=CARTESIAN_POINT('Origin',(-5.51413094996539,0.,-4.77308656134036));
#988=CARTESIAN_POINT('',(-5.51413094996539,0.,-4.77308656134036));
#989=CARTESIAN_POINT('',(-3.19729143329812,0.,-2.01653948010768));
#990=CARTESIAN_POINT('',(-5.51413094996539,0.,-4.77308656134036));
#991=CARTESIAN_POINT('Origin',(-3.60309733016035,0.,-10.0369207631342));
#992=CARTESIAN_POINT('',(-3.60309733016035,0.,-10.0369207631342));
#993=CARTESIAN_POINT('',(-5.00307103708923,0.,-6.18077223504282));
#994=CARTESIAN_POINT('',(-3.60309733016035,0.,-10.0369207631342));
#995=CARTESIAN_POINT('Origin',(1.91103361980503,0.,-11.0138342017939));
#996=CARTESIAN_POINT('',(1.91103361980503,0.,-11.0138342017939));
#997=CARTESIAN_POINT('',(0.0386510001650937,0.,-10.6821127102231));
#998=CARTESIAN_POINT('',(1.91103361980503,0.,-11.0138342017939));
#999=CARTESIAN_POINT('Origin',(5.51413094996539,0.,-6.72691343865964));
#1000=CARTESIAN_POINT('',(6.02942180155248,0.,-6.11382673899407));
#1001=CARTESIAN_POINT('Origin',(-8.25,0.,35.25));
#1002=CARTESIAN_POINT('',(8.25,0.,35.25));
#1003=CARTESIAN_POINT('',(-8.25,0.,35.25));
#1004=CARTESIAN_POINT('',(-4.12499999999936,0.,35.25));
#1005=CARTESIAN_POINT('',(8.25,0.,35.25));
#1006=CARTESIAN_POINT('',(-8.25,0.,35.25));
#1007=CARTESIAN_POINT('Origin',(8.25,0.,14.25));
#1008=CARTESIAN_POINT('',(-8.25,0.,14.25));
#1009=CARTESIAN_POINT('',(8.25,0.,14.25));
#1010=CARTESIAN_POINT('Origin',(1.28563826251593E-12,0.,-2.78888023785839E-12));
#1011=CARTESIAN_POINT('',(-3.5,0.,-5.75));
#1012=CARTESIAN_POINT('Origin',(0.,0.,-5.75));
#1013=CARTESIAN_POINT('Origin',(1.28563826251593E-12,0.,-2.78888023785839E-12));
#1014=CARTESIAN_POINT('',(-8.25,0.,23.25));
#1015=CARTESIAN_POINT('',(-8.25,0.,7.12499999999861));
#1016=CARTESIAN_POINT('',(8.25,0.,23.25));
#1017=CARTESIAN_POINT('',(-8.25,0.,23.25));
#1018=CARTESIAN_POINT('',(8.25,0.,17.6249999999986));
#1019=CARTESIAN_POINT('Origin',(8.25,0.,14.95));
#1020=CARTESIAN_POINT('',(8.25,3.,23.25));
#1021=CARTESIAN_POINT('',(8.25,0.,23.25));
#1022=CARTESIAN_POINT('',(8.25,3.,14.95));
#1023=CARTESIAN_POINT('',(8.25,3.,35.25));
#1024=CARTESIAN_POINT('',(8.25,0.,14.95));
#1025=CARTESIAN_POINT('Origin',(-8.25,0.,14.95));
#1026=CARTESIAN_POINT('',(-8.25,3.,14.95));
#1027=CARTESIAN_POINT('',(-8.25,3.,14.95));
#1028=CARTESIAN_POINT('',(-8.25,0.,14.95));
#1029=CARTESIAN_POINT('Origin',(-8.25,0.,23.25));
#1030=CARTESIAN_POINT('',(-8.25,3.,23.25));
#1031=CARTESIAN_POINT('',(-8.25,3.,14.25));
#1032=CARTESIAN_POINT('',(-8.25,0.,23.25));
#1033=CARTESIAN_POINT('Origin',(8.25,0.,23.25));
#1034=CARTESIAN_POINT('',(-8.25,3.,23.25));
#1035=CARTESIAN_POINT('Origin',(0.635,0.,-30.0500004470348));
#1036=CARTESIAN_POINT('',(0.035,3.,-30.0500004470348));
#1037=CARTESIAN_POINT('Origin',(0.635,3.,-30.0500004470348));
#1038=CARTESIAN_POINT('',(0.035,0.,-30.0500004470348));
#1039=CARTESIAN_POINT('',(0.035,0.,-30.0500004470348));
#1040=CARTESIAN_POINT('Origin',(0.635,0.,-30.0500004470348));
#1041=CARTESIAN_POINT('Origin',(-1.905,0.,-30.0500004470348));
#1042=CARTESIAN_POINT('',(-2.505,3.,-30.0500004470348));
#1043=CARTESIAN_POINT('Origin',(-1.905,3.,-30.0500004470348));
#1044=CARTESIAN_POINT('',(-2.505,0.,-30.0500004470348));
#1045=CARTESIAN_POINT('',(-2.505,0.,-30.0500004470348));
#1046=CARTESIAN_POINT('Origin',(-1.905,0.,-30.0500004470348));
#1047=CARTESIAN_POINT('Origin',(-0.635,0.,-30.0500004470348));
#1048=CARTESIAN_POINT('',(-1.235,3.,-30.0500004470348));
#1049=CARTESIAN_POINT('Origin',(-0.635,3.,-30.0500004470348));
#1050=CARTESIAN_POINT('',(-1.235,0.,-30.0500004470348));
#1051=CARTESIAN_POINT('',(-1.235,0.,-30.0500004470348));
#1052=CARTESIAN_POINT('Origin',(-0.635,0.,-30.0500004470348));
#1053=CARTESIAN_POINT('Origin',(0.,0.,-5.75));
#1054=CARTESIAN_POINT('',(-3.5,3.,-5.75));
#1055=CARTESIAN_POINT('Origin',(0.,3.,-5.75));
#1056=CARTESIAN_POINT('',(-3.5,0.,-5.75));
#1057=CARTESIAN_POINT('Origin',(1.905,0.,-30.0500004470348));
#1058=CARTESIAN_POINT('',(1.305,3.,-30.0500004470348));
#1059=CARTESIAN_POINT('Origin',(1.905,3.,-30.0500004470348));
#1060=CARTESIAN_POINT('',(1.305,0.,-30.0500004470348));
#1061=CARTESIAN_POINT('',(1.305,0.,-30.0500004470348));
#1062=CARTESIAN_POINT('Origin',(1.905,0.,-30.0500004470348));
#1063=CARTESIAN_POINT('Origin',(-14.9999999999987,0.,-40.0000000000028));
#1064=CARTESIAN_POINT('',(-14.9999999999987,3.,-40.0000000000028));
#1065=CARTESIAN_POINT('Origin',(15.0000000000013,0.,39.9999999999972));
#1066=CARTESIAN_POINT('',(15.0000000000013,3.,39.9999999999972));
#1067=CARTESIAN_POINT('Origin',(1.28563826251593E-12,3.,-2.78888023785839E-12));
#1068=CARTESIAN_POINT('Origin',(1.28563826251593E-12,0.,-2.78888023785839E-12));
#1069=UNCERTAINTY_MEASURE_WITH_UNIT(LENGTH_MEASURE(0.01),#1073,
'DISTANCE_ACCURACY_VALUE',
'Maximum model space distance between geometric entities at asserted c
onnectivities');
#1070=UNCERTAINTY_MEASURE_WITH_UNIT(LENGTH_MEASURE(0.01),#1073,
'DISTANCE_ACCURACY_VALUE',
'Maximum model space distance between geometric entities at asserted c
onnectivities');
#1071=(
GEOMETRIC_REPRESENTATION_CONTEXT(3)
GLOBAL_UNCERTAINTY_ASSIGNED_CONTEXT((#1069))
GLOBAL_UNIT_ASSIGNED_CONTEXT((#1073,#1075,#1076))
REPRESENTATION_CONTEXT('','3D')
);
#1072=(
GEOMETRIC_REPRESENTATION_CONTEXT(3)
GLOBAL_UNCERTAINTY_ASSIGNED_CONTEXT((#1070))
GLOBAL_UNIT_ASSIGNED_CONTEXT((#1073,#1075,#1076))
REPRESENTATION_CONTEXT('','3D')
);
#1073=(
LENGTH_UNIT()
NAMED_UNIT(*)
SI_UNIT(.MILLI.,.METRE.)
);
#1074=(
LENGTH_UNIT()
NAMED_UNIT(*)
SI_UNIT($,.METRE.)
);
#1075=(
NAMED_UNIT(*)
PLANE_ANGLE_UNIT()
SI_UNIT($,.RADIAN.)
);
#1076=(
NAMED_UNIT(*)
SI_UNIT($,.STERADIAN.)
SOLID_ANGLE_UNIT()
);
#1077=SHAPE_DEFINITION_REPRESENTATION(#1078,#1079);
#1078=PRODUCT_DEFINITION_SHAPE('',$,#1081);
#1079=SHAPE_REPRESENTATION('',(#661),#1071);
#1080=PRODUCT_DEFINITION_CONTEXT('part definition',#1085,'design');
#1081=PRODUCT_DEFINITION('boite_bilou_2','boite_bilou_2 v5',#1082,#1080);
#1082=PRODUCT_DEFINITION_FORMATION('',$,#1087);
#1083=PRODUCT_RELATED_PRODUCT_CATEGORY('boite_bilou_2 v5',
'boite_bilou_2 v5',(#1087));
#1084=APPLICATION_PROTOCOL_DEFINITION('international standard',
'automotive_design',2009,#1085);
#1085=APPLICATION_CONTEXT(
'Core Data for Automotive Mechanical Design Process');
#1086=PRODUCT_CONTEXT('part definition',#1085,'mechanical');
#1087=PRODUCT('boite_bilou_2','boite_bilou_2 v5',$,(#1086));
#1088=PRESENTATION_STYLE_ASSIGNMENT((#1089));
#1089=SURFACE_STYLE_USAGE(.BOTH.,#1090);
#1090=SURFACE_SIDE_STYLE('',(#1091));
#1091=SURFACE_STYLE_FILL_AREA(#1092);
#1092=FILL_AREA_STYLE('Acier - Satin\X\E9',(#1093));
#1093=FILL_AREA_STYLE_COLOUR('Acier - Satin\X\E9',#1094);
#1094=COLOUR_RGB('Acier - Satin\X\E9',0.627450980392157,0.627450980392157,
0.627450980392157);
ENDSEC;
END-ISO-10303-21;
