ISO-10303-21;
HEADER;
/* Generated by software containing ST-Developer
 * from STEP Tools, Inc. (www.steptools.com) 
 */

FILE_DESCRIPTION(
/* description */ (''),
/* implementation_level */ '2;1');

FILE_NAME(
/* name */ 'boite_domino_80x35x35.step',
/* time_stamp */ '2026-02-11T18:54:10+01:00',
/* author */ (''),
/* organization */ (''),
/* preprocessor_version */ 'ST-DEVELOPER v20.1',
/* originating_system */ 'Autodesk Translation Framework v14.21.0.0',
/* authorisation */ '');

FILE_SCHEMA (('AUTOMOTIVE_DESIGN { 1 0 10303 214 3 1 1 }'));
ENDSEC;

DATA;
#10=MECHANICAL_DESIGN_GEOMETRIC_PRESENTATION_REPRESENTATION('',(#17),#1017);
#11=ITEM_DEFINED_TRANSFORMATION($,$,#601,#660);
#12=(
REPRESENTATION_RELATIONSHIP($,$,#1028,#1027)
REPRESENTATION_RELATIONSHIP_WITH_TRANSFORMATION(#11)
SHAPE_REPRESENTATION_RELATIONSHIP()
);
#13=CONTEXT_DEPENDENT_SHAPE_REPRESENTATION(#12,#1026);
#14=NEXT_ASSEMBLY_USAGE_OCCURRENCE('boite:1','boite:1','boite:1',#1030,
#1031,'boite:1');
#15=SHAPE_REPRESENTATION_RELATIONSHIP('SRR','None',#1028,#16);
#16=ADVANCED_BREP_SHAPE_REPRESENTATION('',(#18),#1016);
#17=STYLED_ITEM('',(#1041),#18);
#18=MANIFOLD_SOLID_BREP('Corps1',#587);
#19=PLANE('',#605);
#20=PLANE('',#608);
#21=PLANE('',#612);
#22=PLANE('',#619);
#23=PLANE('',#622);
#24=PLANE('',#626);
#25=PLANE('',#627);
#26=PLANE('',#636);
#27=PLANE('',#637);
#28=PLANE('',#641);
#29=PLANE('',#642);
#30=PLANE('',#645);
#31=PLANE('',#648);
#32=PLANE('',#649);
#33=PLANE('',#652);
#34=PLANE('',#655);
#35=PLANE('',#658);
#36=PLANE('',#659);
#37=FACE_OUTER_BOUND('',#67,.T.);
#38=FACE_OUTER_BOUND('',#68,.T.);
#39=FACE_OUTER_BOUND('',#69,.T.);
#40=FACE_OUTER_BOUND('',#70,.T.);
#41=FACE_OUTER_BOUND('',#71,.T.);
#42=FACE_OUTER_BOUND('',#72,.T.);
#43=FACE_OUTER_BOUND('',#73,.T.);
#44=FACE_OUTER_BOUND('',#74,.T.);
#45=FACE_OUTER_BOUND('',#75,.T.);
#46=FACE_OUTER_BOUND('',#76,.T.);
#47=FACE_OUTER_BOUND('',#77,.T.);
#48=FACE_OUTER_BOUND('',#78,.T.);
#49=FACE_OUTER_BOUND('',#79,.T.);
#50=FACE_OUTER_BOUND('',#80,.T.);
#51=FACE_OUTER_BOUND('',#81,.T.);
#52=FACE_OUTER_BOUND('',#82,.T.);
#53=FACE_OUTER_BOUND('',#83,.T.);
#54=FACE_OUTER_BOUND('',#84,.T.);
#55=FACE_OUTER_BOUND('',#85,.T.);
#56=FACE_OUTER_BOUND('',#86,.T.);
#57=FACE_OUTER_BOUND('',#87,.T.);
#58=FACE_OUTER_BOUND('',#88,.T.);
#59=FACE_OUTER_BOUND('',#89,.T.);
#60=FACE_OUTER_BOUND('',#90,.T.);
#61=FACE_OUTER_BOUND('',#91,.T.);
#62=FACE_OUTER_BOUND('',#92,.T.);
#63=FACE_OUTER_BOUND('',#93,.T.);
#64=FACE_OUTER_BOUND('',#94,.T.);
#65=FACE_OUTER_BOUND('',#95,.T.);
#66=FACE_OUTER_BOUND('',#96,.T.);
#67=EDGE_LOOP('',(#377,#378,#379,#380));
#68=EDGE_LOOP('',(#381,#382,#383,#384,#385,#386));
#69=EDGE_LOOP('',(#387,#388,#389,#390));
#70=EDGE_LOOP('',(#391,#392,#393,#394));
#71=EDGE_LOOP('',(#395,#396,#397,#398,#399,#400,#401,#402,#403,#404,#405,
#406,#407,#408,#409,#410));
#72=EDGE_LOOP('',(#411,#412,#413,#414));
#73=EDGE_LOOP('',(#415,#416,#417,#418));
#74=EDGE_LOOP('',(#419,#420,#421,#422));
#75=EDGE_LOOP('',(#423,#424,#425,#426));
#76=EDGE_LOOP('',(#427,#428,#429,#430,#431,#432,#433,#434,#435,#436,#437,
#438));
#77=EDGE_LOOP('',(#439,#440,#441,#442,#443,#444));
#78=EDGE_LOOP('',(#445,#446,#447,#448));
#79=EDGE_LOOP('',(#449,#450,#451,#452));
#80=EDGE_LOOP('',(#453,#454,#455,#456,#457,#458,#459,#460));
#81=EDGE_LOOP('',(#461,#462,#463,#464));
#82=EDGE_LOOP('',(#465,#466,#467,#468,#469,#470,#471,#472,#473,#474,#475,
#476));
#83=EDGE_LOOP('',(#477,#478,#479,#480));
#84=EDGE_LOOP('',(#481,#482,#483,#484));
#85=EDGE_LOOP('',(#485,#486,#487,#488));
#86=EDGE_LOOP('',(#489,#490,#491,#492));
#87=EDGE_LOOP('',(#493,#494,#495,#496));
#88=EDGE_LOOP('',(#497,#498,#499,#500,#501,#502,#503,#504));
#89=EDGE_LOOP('',(#505,#506,#507,#508));
#90=EDGE_LOOP('',(#509,#510,#511,#512));
#91=EDGE_LOOP('',(#513,#514,#515,#516));
#92=EDGE_LOOP('',(#517,#518,#519,#520));
#93=EDGE_LOOP('',(#521,#522,#523,#524));
#94=EDGE_LOOP('',(#525,#526,#527,#528,#529,#530,#531,#532));
#95=EDGE_LOOP('',(#533,#534,#535,#536));
#96=EDGE_LOOP('',(#537,#538,#539,#540,#541,#542,#543,#544));
#97=LINE('',#846,#153);
#98=LINE('',#849,#154);
#99=LINE('',#852,#155);
#100=LINE('',#856,#156);
#101=LINE('',#859,#157);
#102=LINE('',#862,#158);
#103=LINE('',#863,#159);
#104=LINE('',#869,#160);
#105=LINE('',#872,#161);
#106=LINE('',#875,#162);
#107=LINE('',#879,#163);
#108=LINE('',#883,#164);
#109=LINE('',#887,#165);
#110=LINE('',#890,#166);
#111=LINE('',#892,#167);
#112=LINE('',#896,#168);
#113=LINE('',#900,#169);
#114=LINE('',#901,#170);
#115=LINE('',#904,#171);
#116=LINE('',#907,#172);
#117=LINE('',#910,#173);
#118=LINE('',#911,#174);
#119=LINE('',#917,#175);
#120=LINE('',#920,#176);
#121=LINE('',#922,#177);
#122=LINE('',#923,#178);
#123=LINE('',#925,#179);
#124=LINE('',#927,#180);
#125=LINE('',#928,#181);
#126=LINE('',#931,#182);
#127=LINE('',#935,#183);
#128=LINE('',#938,#184);
#129=LINE('',#942,#185);
#130=LINE('',#945,#186);
#131=LINE('',#949,#187);
#132=LINE('',#952,#188);
#133=LINE('',#954,#189);
#134=LINE('',#959,#190);
#135=LINE('',#963,#191);
#136=LINE('',#966,#192);
#137=LINE('',#968,#193);
#138=LINE('',#971,#194);
#139=LINE('',#972,#195);
#140=LINE('',#975,#196);
#141=LINE('',#979,#197);
#142=LINE('',#980,#198);
#143=LINE('',#986,#199);
#144=LINE('',#987,#200);
#145=LINE('',#991,#201);
#146=LINE('',#994,#202);
#147=LINE('',#995,#203);
#148=LINE('',#999,#204);
#149=LINE('',#1002,#205);
#150=LINE('',#1003,#206);
#151=LINE('',#1006,#207);
#152=LINE('',#1009,#208);
#153=VECTOR('',#669,10.);
#154=VECTOR('',#672,10.);
#155=VECTOR('',#675,10.);
#156=VECTOR('',#678,10.);
#157=VECTOR('',#681,10.);
#158=VECTOR('',#684,10.);
#159=VECTOR('',#685,10.);
#160=VECTOR('',#690,10.);
#161=VECTOR('',#693,10.);
#162=VECTOR('',#696,10.);
#163=VECTOR('',#699,10.);
#164=VECTOR('',#702,10.);
#165=VECTOR('',#705,10.);
#166=VECTOR('',#708,10.);
#167=VECTOR('',#709,10.);
#168=VECTOR('',#712,10.);
#169=VECTOR('',#717,10.);
#170=VECTOR('',#718,10.);
#171=VECTOR('',#721,10.);
#172=VECTOR('',#724,10.);
#173=VECTOR('',#727,10.);
#174=VECTOR('',#728,10.);
#175=VECTOR('',#733,10.);
#176=VECTOR('',#736,10.);
#177=VECTOR('',#739,10.);
#178=VECTOR('',#740,10.);
#179=VECTOR('',#741,10.);
#180=VECTOR('',#742,10.);
#181=VECTOR('',#743,10.);
#182=VECTOR('',#746,10.);
#183=VECTOR('',#751,10.);
#184=VECTOR('',#754,10.);
#185=VECTOR('',#759,10.);
#186=VECTOR('',#762,10.);
#187=VECTOR('',#765,10.);
#188=VECTOR('',#768,10.);
#189=VECTOR('',#771,10.);
#190=VECTOR('',#776,10.);
#191=VECTOR('',#779,10.);
#192=VECTOR('',#782,10.);
#193=VECTOR('',#785,10.);
#194=VECTOR('',#788,10.);
#195=VECTOR('',#789,10.);
#196=VECTOR('',#792,10.);
#197=VECTOR('',#797,10.);
#198=VECTOR('',#798,10.);
#199=VECTOR('',#807,10.);
#200=VECTOR('',#808,10.);
#201=VECTOR('',#813,10.);
#202=VECTOR('',#816,10.);
#203=VECTOR('',#817,10.);
#204=VECTOR('',#822,10.);
#205=VECTOR('',#825,10.);
#206=VECTOR('',#826,10.);
#207=VECTOR('',#829,10.);
#208=VECTOR('',#834,10.);
#209=CIRCLE('',#603,1.7);
#210=CIRCLE('',#604,1.7);
#211=CIRCLE('',#606,3.99999999999999);
#212=CIRCLE('',#607,2.);
#213=CIRCLE('',#610,1.7);
#214=CIRCLE('',#611,1.7);
#215=CIRCLE('',#613,2.00000000000001);
#216=CIRCLE('',#614,1.99999999999998);
#217=CIRCLE('',#615,2.);
#218=CIRCLE('',#616,2.);
#219=CIRCLE('',#617,4.);
#220=CIRCLE('',#618,3.99999999999999);
#221=CIRCLE('',#621,2.);
#222=CIRCLE('',#624,2.);
#223=CIRCLE('',#625,2.);
#224=CIRCLE('',#628,4.);
#225=CIRCLE('',#630,1.99999999999998);
#226=CIRCLE('',#632,2.00000000000001);
#227=CIRCLE('',#634,4.);
#228=CIRCLE('',#635,4.);
#229=CIRCLE('',#638,3.99999999999999);
#230=CIRCLE('',#639,4.00000000000001);
#231=CIRCLE('',#640,4.);
#232=CIRCLE('',#644,2.);
#233=CIRCLE('',#647,2.);
#234=CIRCLE('',#651,4.);
#235=CIRCLE('',#654,4.00000000000001);
#236=CIRCLE('',#657,3.99999999999999);
#237=VERTEX_POINT('',#842);
#238=VERTEX_POINT('',#843);
#239=VERTEX_POINT('',#845);
#240=VERTEX_POINT('',#847);
#241=VERTEX_POINT('',#851);
#242=VERTEX_POINT('',#853);
#243=VERTEX_POINT('',#855);
#244=VERTEX_POINT('',#857);
#245=VERTEX_POINT('',#861);
#246=VERTEX_POINT('',#865);
#247=VERTEX_POINT('',#866);
#248=VERTEX_POINT('',#868);
#249=VERTEX_POINT('',#870);
#250=VERTEX_POINT('',#874);
#251=VERTEX_POINT('',#876);
#252=VERTEX_POINT('',#878);
#253=VERTEX_POINT('',#880);
#254=VERTEX_POINT('',#882);
#255=VERTEX_POINT('',#884);
#256=VERTEX_POINT('',#886);
#257=VERTEX_POINT('',#888);
#258=VERTEX_POINT('',#891);
#259=VERTEX_POINT('',#893);
#260=VERTEX_POINT('',#895);
#261=VERTEX_POINT('',#899);
#262=VERTEX_POINT('',#903);
#263=VERTEX_POINT('',#905);
#264=VERTEX_POINT('',#909);
#265=VERTEX_POINT('',#913);
#266=VERTEX_POINT('',#914);
#267=VERTEX_POINT('',#916);
#268=VERTEX_POINT('',#918);
#269=VERTEX_POINT('',#924);
#270=VERTEX_POINT('',#926);
#271=VERTEX_POINT('',#930);
#272=VERTEX_POINT('',#934);
#273=VERTEX_POINT('',#936);
#274=VERTEX_POINT('',#940);
#275=VERTEX_POINT('',#944);
#276=VERTEX_POINT('',#946);
#277=VERTEX_POINT('',#948);
#278=VERTEX_POINT('',#950);
#279=VERTEX_POINT('',#956);
#280=VERTEX_POINT('',#958);
#281=VERTEX_POINT('',#960);
#282=VERTEX_POINT('',#962);
#283=VERTEX_POINT('',#964);
#284=VERTEX_POINT('',#970);
#285=VERTEX_POINT('',#974);
#286=VERTEX_POINT('',#978);
#287=VERTEX_POINT('',#985);
#288=VERTEX_POINT('',#989);
#289=VERTEX_POINT('',#993);
#290=VERTEX_POINT('',#997);
#291=VERTEX_POINT('',#1001);
#292=VERTEX_POINT('',#1005);
#293=EDGE_CURVE('',#237,#238,#209,.T.);
#294=EDGE_CURVE('',#237,#239,#97,.T.);
#295=EDGE_CURVE('',#240,#239,#210,.T.);
#296=EDGE_CURVE('',#240,#238,#98,.T.);
#297=EDGE_CURVE('',#241,#239,#99,.T.);
#298=EDGE_CURVE('',#242,#241,#211,.T.);
#299=EDGE_CURVE('',#243,#242,#100,.T.);
#300=EDGE_CURVE('',#244,#243,#212,.T.);
#301=EDGE_CURVE('',#244,#240,#101,.T.);
#302=EDGE_CURVE('',#245,#237,#102,.T.);
#303=EDGE_CURVE('',#241,#245,#103,.T.);
#304=EDGE_CURVE('',#246,#247,#213,.T.);
#305=EDGE_CURVE('',#246,#248,#104,.T.);
#306=EDGE_CURVE('',#249,#248,#214,.T.);
#307=EDGE_CURVE('',#249,#247,#105,.T.);
#308=EDGE_CURVE('',#238,#250,#106,.T.);
#309=EDGE_CURVE('',#251,#250,#215,.T.);
#310=EDGE_CURVE('',#252,#251,#107,.T.);
#311=EDGE_CURVE('',#253,#252,#216,.T.);
#312=EDGE_CURVE('',#254,#253,#108,.T.);
#313=EDGE_CURVE('',#255,#254,#217,.T.);
#314=EDGE_CURVE('',#256,#255,#109,.T.);
#315=EDGE_CURVE('',#257,#256,#218,.T.);
#316=EDGE_CURVE('',#257,#249,#110,.T.);
#317=EDGE_CURVE('',#258,#248,#111,.T.);
#318=EDGE_CURVE('',#259,#258,#219,.T.);
#319=EDGE_CURVE('',#260,#259,#112,.T.);
#320=EDGE_CURVE('',#245,#260,#220,.T.);
#321=EDGE_CURVE('',#261,#246,#113,.T.);
#322=EDGE_CURVE('',#258,#261,#114,.T.);
#323=EDGE_CURVE('',#243,#262,#115,.T.);
#324=EDGE_CURVE('',#262,#263,#221,.T.);
#325=EDGE_CURVE('',#263,#244,#116,.T.);
#326=EDGE_CURVE('',#264,#242,#117,.T.);
#327=EDGE_CURVE('',#262,#264,#118,.T.);
#328=EDGE_CURVE('',#265,#266,#222,.T.);
#329=EDGE_CURVE('',#266,#267,#119,.T.);
#330=EDGE_CURVE('',#267,#268,#223,.T.);
#331=EDGE_CURVE('',#268,#265,#120,.T.);
#332=EDGE_CURVE('',#267,#263,#121,.T.);
#333=EDGE_CURVE('',#247,#266,#122,.T.);
#334=EDGE_CURVE('',#257,#269,#123,.T.);
#335=EDGE_CURVE('',#269,#270,#124,.T.);
#336=EDGE_CURVE('',#250,#270,#125,.T.);
#337=EDGE_CURVE('',#271,#265,#126,.T.);
#338=EDGE_CURVE('',#261,#271,#224,.T.);
#339=EDGE_CURVE('',#252,#272,#127,.T.);
#340=EDGE_CURVE('',#272,#273,#225,.T.);
#341=EDGE_CURVE('',#253,#273,#128,.T.);
#342=EDGE_CURVE('',#270,#274,#226,.T.);
#343=EDGE_CURVE('',#251,#274,#129,.T.);
#344=EDGE_CURVE('',#271,#275,#130,.T.);
#345=EDGE_CURVE('',#276,#275,#227,.T.);
#346=EDGE_CURVE('',#277,#276,#131,.T.);
#347=EDGE_CURVE('',#277,#278,#228,.T.);
#348=EDGE_CURVE('',#278,#259,#132,.T.);
#349=EDGE_CURVE('',#275,#268,#133,.T.);
#350=EDGE_CURVE('',#264,#279,#229,.T.);
#351=EDGE_CURVE('',#279,#280,#134,.T.);
#352=EDGE_CURVE('',#280,#281,#230,.T.);
#353=EDGE_CURVE('',#281,#282,#135,.T.);
#354=EDGE_CURVE('',#282,#283,#231,.T.);
#355=EDGE_CURVE('',#283,#276,#136,.T.);
#356=EDGE_CURVE('',#274,#272,#137,.T.);
#357=EDGE_CURVE('',#273,#284,#138,.T.);
#358=EDGE_CURVE('',#254,#284,#139,.T.);
#359=EDGE_CURVE('',#256,#285,#140,.T.);
#360=EDGE_CURVE('',#285,#269,#232,.T.);
#361=EDGE_CURVE('',#255,#286,#141,.T.);
#362=EDGE_CURVE('',#286,#285,#142,.T.);
#363=EDGE_CURVE('',#284,#286,#233,.T.);
#364=EDGE_CURVE('',#287,#277,#143,.T.);
#365=EDGE_CURVE('',#287,#283,#144,.T.);
#366=EDGE_CURVE('',#288,#287,#234,.T.);
#367=EDGE_CURVE('',#288,#282,#145,.T.);
#368=EDGE_CURVE('',#289,#288,#146,.T.);
#369=EDGE_CURVE('',#289,#281,#147,.T.);
#370=EDGE_CURVE('',#290,#289,#235,.T.);
#371=EDGE_CURVE('',#290,#280,#148,.T.);
#372=EDGE_CURVE('',#291,#290,#149,.T.);
#373=EDGE_CURVE('',#291,#279,#150,.T.);
#374=EDGE_CURVE('',#292,#260,#151,.T.);
#375=EDGE_CURVE('',#292,#291,#236,.T.);
#376=EDGE_CURVE('',#278,#292,#152,.T.);
#377=ORIENTED_EDGE('',*,*,#293,.F.);
#378=ORIENTED_EDGE('',*,*,#294,.T.);
#379=ORIENTED_EDGE('',*,*,#295,.F.);
#380=ORIENTED_EDGE('',*,*,#296,.T.);
#381=ORIENTED_EDGE('',*,*,#295,.T.);
#382=ORIENTED_EDGE('',*,*,#297,.F.);
#383=ORIENTED_EDGE('',*,*,#298,.F.);
#384=ORIENTED_EDGE('',*,*,#299,.F.);
#385=ORIENTED_EDGE('',*,*,#300,.F.);
#386=ORIENTED_EDGE('',*,*,#301,.T.);
#387=ORIENTED_EDGE('',*,*,#294,.F.);
#388=ORIENTED_EDGE('',*,*,#302,.F.);
#389=ORIENTED_EDGE('',*,*,#303,.F.);
#390=ORIENTED_EDGE('',*,*,#297,.T.);
#391=ORIENTED_EDGE('',*,*,#304,.F.);
#392=ORIENTED_EDGE('',*,*,#305,.T.);
#393=ORIENTED_EDGE('',*,*,#306,.F.);
#394=ORIENTED_EDGE('',*,*,#307,.T.);
#395=ORIENTED_EDGE('',*,*,#293,.T.);
#396=ORIENTED_EDGE('',*,*,#308,.T.);
#397=ORIENTED_EDGE('',*,*,#309,.F.);
#398=ORIENTED_EDGE('',*,*,#310,.F.);
#399=ORIENTED_EDGE('',*,*,#311,.F.);
#400=ORIENTED_EDGE('',*,*,#312,.F.);
#401=ORIENTED_EDGE('',*,*,#313,.F.);
#402=ORIENTED_EDGE('',*,*,#314,.F.);
#403=ORIENTED_EDGE('',*,*,#315,.F.);
#404=ORIENTED_EDGE('',*,*,#316,.T.);
#405=ORIENTED_EDGE('',*,*,#306,.T.);
#406=ORIENTED_EDGE('',*,*,#317,.F.);
#407=ORIENTED_EDGE('',*,*,#318,.F.);
#408=ORIENTED_EDGE('',*,*,#319,.F.);
#409=ORIENTED_EDGE('',*,*,#320,.F.);
#410=ORIENTED_EDGE('',*,*,#302,.T.);
#411=ORIENTED_EDGE('',*,*,#305,.F.);
#412=ORIENTED_EDGE('',*,*,#321,.F.);
#413=ORIENTED_EDGE('',*,*,#322,.F.);
#414=ORIENTED_EDGE('',*,*,#317,.T.);
#415=ORIENTED_EDGE('',*,*,#300,.T.);
#416=ORIENTED_EDGE('',*,*,#323,.T.);
#417=ORIENTED_EDGE('',*,*,#324,.T.);
#418=ORIENTED_EDGE('',*,*,#325,.T.);
#419=ORIENTED_EDGE('',*,*,#323,.F.);
#420=ORIENTED_EDGE('',*,*,#299,.T.);
#421=ORIENTED_EDGE('',*,*,#326,.F.);
#422=ORIENTED_EDGE('',*,*,#327,.F.);
#423=ORIENTED_EDGE('',*,*,#328,.T.);
#424=ORIENTED_EDGE('',*,*,#329,.T.);
#425=ORIENTED_EDGE('',*,*,#330,.T.);
#426=ORIENTED_EDGE('',*,*,#331,.T.);
#427=ORIENTED_EDGE('',*,*,#296,.F.);
#428=ORIENTED_EDGE('',*,*,#301,.F.);
#429=ORIENTED_EDGE('',*,*,#325,.F.);
#430=ORIENTED_EDGE('',*,*,#332,.F.);
#431=ORIENTED_EDGE('',*,*,#329,.F.);
#432=ORIENTED_EDGE('',*,*,#333,.F.);
#433=ORIENTED_EDGE('',*,*,#307,.F.);
#434=ORIENTED_EDGE('',*,*,#316,.F.);
#435=ORIENTED_EDGE('',*,*,#334,.T.);
#436=ORIENTED_EDGE('',*,*,#335,.T.);
#437=ORIENTED_EDGE('',*,*,#336,.F.);
#438=ORIENTED_EDGE('',*,*,#308,.F.);
#439=ORIENTED_EDGE('',*,*,#304,.T.);
#440=ORIENTED_EDGE('',*,*,#333,.T.);
#441=ORIENTED_EDGE('',*,*,#328,.F.);
#442=ORIENTED_EDGE('',*,*,#337,.F.);
#443=ORIENTED_EDGE('',*,*,#338,.F.);
#444=ORIENTED_EDGE('',*,*,#321,.T.);
#445=ORIENTED_EDGE('',*,*,#311,.T.);
#446=ORIENTED_EDGE('',*,*,#339,.T.);
#447=ORIENTED_EDGE('',*,*,#340,.T.);
#448=ORIENTED_EDGE('',*,*,#341,.F.);
#449=ORIENTED_EDGE('',*,*,#309,.T.);
#450=ORIENTED_EDGE('',*,*,#336,.T.);
#451=ORIENTED_EDGE('',*,*,#342,.T.);
#452=ORIENTED_EDGE('',*,*,#343,.F.);
#453=ORIENTED_EDGE('',*,*,#318,.T.);
#454=ORIENTED_EDGE('',*,*,#322,.T.);
#455=ORIENTED_EDGE('',*,*,#338,.T.);
#456=ORIENTED_EDGE('',*,*,#344,.T.);
#457=ORIENTED_EDGE('',*,*,#345,.F.);
#458=ORIENTED_EDGE('',*,*,#346,.F.);
#459=ORIENTED_EDGE('',*,*,#347,.T.);
#460=ORIENTED_EDGE('',*,*,#348,.T.);
#461=ORIENTED_EDGE('',*,*,#331,.F.);
#462=ORIENTED_EDGE('',*,*,#349,.F.);
#463=ORIENTED_EDGE('',*,*,#344,.F.);
#464=ORIENTED_EDGE('',*,*,#337,.T.);
#465=ORIENTED_EDGE('',*,*,#332,.T.);
#466=ORIENTED_EDGE('',*,*,#324,.F.);
#467=ORIENTED_EDGE('',*,*,#327,.T.);
#468=ORIENTED_EDGE('',*,*,#350,.T.);
#469=ORIENTED_EDGE('',*,*,#351,.T.);
#470=ORIENTED_EDGE('',*,*,#352,.T.);
#471=ORIENTED_EDGE('',*,*,#353,.T.);
#472=ORIENTED_EDGE('',*,*,#354,.T.);
#473=ORIENTED_EDGE('',*,*,#355,.T.);
#474=ORIENTED_EDGE('',*,*,#345,.T.);
#475=ORIENTED_EDGE('',*,*,#349,.T.);
#476=ORIENTED_EDGE('',*,*,#330,.F.);
#477=ORIENTED_EDGE('',*,*,#310,.T.);
#478=ORIENTED_EDGE('',*,*,#343,.T.);
#479=ORIENTED_EDGE('',*,*,#356,.T.);
#480=ORIENTED_EDGE('',*,*,#339,.F.);
#481=ORIENTED_EDGE('',*,*,#312,.T.);
#482=ORIENTED_EDGE('',*,*,#341,.T.);
#483=ORIENTED_EDGE('',*,*,#357,.T.);
#484=ORIENTED_EDGE('',*,*,#358,.F.);
#485=ORIENTED_EDGE('',*,*,#315,.T.);
#486=ORIENTED_EDGE('',*,*,#359,.T.);
#487=ORIENTED_EDGE('',*,*,#360,.T.);
#488=ORIENTED_EDGE('',*,*,#334,.F.);
#489=ORIENTED_EDGE('',*,*,#314,.T.);
#490=ORIENTED_EDGE('',*,*,#361,.T.);
#491=ORIENTED_EDGE('',*,*,#362,.T.);
#492=ORIENTED_EDGE('',*,*,#359,.F.);
#493=ORIENTED_EDGE('',*,*,#313,.T.);
#494=ORIENTED_EDGE('',*,*,#358,.T.);
#495=ORIENTED_EDGE('',*,*,#363,.T.);
#496=ORIENTED_EDGE('',*,*,#361,.F.);
#497=ORIENTED_EDGE('',*,*,#363,.F.);
#498=ORIENTED_EDGE('',*,*,#357,.F.);
#499=ORIENTED_EDGE('',*,*,#340,.F.);
#500=ORIENTED_EDGE('',*,*,#356,.F.);
#501=ORIENTED_EDGE('',*,*,#342,.F.);
#502=ORIENTED_EDGE('',*,*,#335,.F.);
#503=ORIENTED_EDGE('',*,*,#360,.F.);
#504=ORIENTED_EDGE('',*,*,#362,.F.);
#505=ORIENTED_EDGE('',*,*,#364,.T.);
#506=ORIENTED_EDGE('',*,*,#346,.T.);
#507=ORIENTED_EDGE('',*,*,#355,.F.);
#508=ORIENTED_EDGE('',*,*,#365,.F.);
#509=ORIENTED_EDGE('',*,*,#366,.T.);
#510=ORIENTED_EDGE('',*,*,#365,.T.);
#511=ORIENTED_EDGE('',*,*,#354,.F.);
#512=ORIENTED_EDGE('',*,*,#367,.F.);
#513=ORIENTED_EDGE('',*,*,#368,.T.);
#514=ORIENTED_EDGE('',*,*,#367,.T.);
#515=ORIENTED_EDGE('',*,*,#353,.F.);
#516=ORIENTED_EDGE('',*,*,#369,.F.);
#517=ORIENTED_EDGE('',*,*,#370,.T.);
#518=ORIENTED_EDGE('',*,*,#369,.T.);
#519=ORIENTED_EDGE('',*,*,#352,.F.);
#520=ORIENTED_EDGE('',*,*,#371,.F.);
#521=ORIENTED_EDGE('',*,*,#372,.T.);
#522=ORIENTED_EDGE('',*,*,#371,.T.);
#523=ORIENTED_EDGE('',*,*,#351,.F.);
#524=ORIENTED_EDGE('',*,*,#373,.F.);
#525=ORIENTED_EDGE('',*,*,#320,.T.);
#526=ORIENTED_EDGE('',*,*,#374,.F.);
#527=ORIENTED_EDGE('',*,*,#375,.T.);
#528=ORIENTED_EDGE('',*,*,#373,.T.);
#529=ORIENTED_EDGE('',*,*,#350,.F.);
#530=ORIENTED_EDGE('',*,*,#326,.T.);
#531=ORIENTED_EDGE('',*,*,#298,.T.);
#532=ORIENTED_EDGE('',*,*,#303,.T.);
#533=ORIENTED_EDGE('',*,*,#319,.T.);
#534=ORIENTED_EDGE('',*,*,#348,.F.);
#535=ORIENTED_EDGE('',*,*,#376,.T.);
#536=ORIENTED_EDGE('',*,*,#374,.T.);
#537=ORIENTED_EDGE('',*,*,#347,.F.);
#538=ORIENTED_EDGE('',*,*,#364,.F.);
#539=ORIENTED_EDGE('',*,*,#366,.F.);
#540=ORIENTED_EDGE('',*,*,#368,.F.);
#541=ORIENTED_EDGE('',*,*,#370,.F.);
#542=ORIENTED_EDGE('',*,*,#372,.F.);
#543=ORIENTED_EDGE('',*,*,#375,.F.);
#544=ORIENTED_EDGE('',*,*,#376,.F.);
#545=CYLINDRICAL_SURFACE('',#602,1.7);
#546=CYLINDRICAL_SURFACE('',#609,1.7);
#547=CYLINDRICAL_SURFACE('',#620,2.);
#548=CYLINDRICAL_SURFACE('',#623,2.);
#549=CYLINDRICAL_SURFACE('',#629,1.99999999999998);
#550=CYLINDRICAL_SURFACE('',#631,2.00000000000001);
#551=CYLINDRICAL_SURFACE('',#633,4.);
#552=CYLINDRICAL_SURFACE('',#643,2.);
#553=CYLINDRICAL_SURFACE('',#646,2.);
#554=CYLINDRICAL_SURFACE('',#650,4.);
#555=CYLINDRICAL_SURFACE('',#653,4.00000000000001);
#556=CYLINDRICAL_SURFACE('',#656,3.99999999999999);
#557=ADVANCED_FACE('',(#37),#545,.F.);
#558=ADVANCED_FACE('',(#38),#19,.F.);
#559=ADVANCED_FACE('',(#39),#20,.F.);
#560=ADVANCED_FACE('',(#40),#546,.F.);
#561=ADVANCED_FACE('',(#41),#21,.F.);
#562=ADVANCED_FACE('',(#42),#22,.F.);
#563=ADVANCED_FACE('',(#43),#547,.F.);
#564=ADVANCED_FACE('',(#44),#23,.F.);
#565=ADVANCED_FACE('',(#45),#548,.F.);
#566=ADVANCED_FACE('',(#46),#24,.F.);
#567=ADVANCED_FACE('',(#47),#25,.F.);
#568=ADVANCED_FACE('',(#48),#549,.F.);
#569=ADVANCED_FACE('',(#49),#550,.F.);
#570=ADVANCED_FACE('',(#50),#551,.T.);
#571=ADVANCED_FACE('',(#51),#26,.F.);
#572=ADVANCED_FACE('',(#52),#27,.T.);
#573=ADVANCED_FACE('',(#53),#28,.F.);
#574=ADVANCED_FACE('',(#54),#29,.F.);
#575=ADVANCED_FACE('',(#55),#552,.F.);
#576=ADVANCED_FACE('',(#56),#30,.F.);
#577=ADVANCED_FACE('',(#57),#553,.F.);
#578=ADVANCED_FACE('',(#58),#31,.T.);
#579=ADVANCED_FACE('',(#59),#32,.T.);
#580=ADVANCED_FACE('',(#60),#554,.T.);
#581=ADVANCED_FACE('',(#61),#33,.T.);
#582=ADVANCED_FACE('',(#62),#555,.T.);
#583=ADVANCED_FACE('',(#63),#34,.T.);
#584=ADVANCED_FACE('',(#64),#556,.T.);
#585=ADVANCED_FACE('',(#65),#35,.T.);
#586=ADVANCED_FACE('',(#66),#36,.F.);
#587=CLOSED_SHELL('',(#557,#558,#559,#560,#561,#562,#563,#564,#565,#566,
#567,#568,#569,#570,#571,#572,#573,#574,#575,#576,#577,#578,#579,#580,#581,
#582,#583,#584,#585,#586));
#588=DERIVED_UNIT_ELEMENT(#590,1.);
#589=DERIVED_UNIT_ELEMENT(#1019,-3.);
#590=(
MASS_UNIT()
NAMED_UNIT(*)
SI_UNIT(.KILO.,.GRAM.)
);
#591=DERIVED_UNIT((#588,#589));
#592=MEASURE_REPRESENTATION_ITEM('density measure',
POSITIVE_RATIO_MEASURE(7850.),#591);
#593=PROPERTY_DEFINITION_REPRESENTATION(#598,#595);
#594=PROPERTY_DEFINITION_REPRESENTATION(#599,#596);
#595=REPRESENTATION('material name',(#597),#1016);
#596=REPRESENTATION('density',(#592),#1016);
#597=DESCRIPTIVE_REPRESENTATION_ITEM('Acier','Acier');
#598=PROPERTY_DEFINITION('material property','material name',#1031);
#599=PROPERTY_DEFINITION('material property','density of part',#1031);
#600=AXIS2_PLACEMENT_3D('',#839,#661,#662);
#601=AXIS2_PLACEMENT_3D('',#840,#663,#664);
#602=AXIS2_PLACEMENT_3D('',#841,#665,#666);
#603=AXIS2_PLACEMENT_3D('',#844,#667,#668);
#604=AXIS2_PLACEMENT_3D('',#848,#670,#671);
#605=AXIS2_PLACEMENT_3D('',#850,#673,#674);
#606=AXIS2_PLACEMENT_3D('',#854,#676,#677);
#607=AXIS2_PLACEMENT_3D('',#858,#679,#680);
#608=AXIS2_PLACEMENT_3D('',#860,#682,#683);
#609=AXIS2_PLACEMENT_3D('',#864,#686,#687);
#610=AXIS2_PLACEMENT_3D('',#867,#688,#689);
#611=AXIS2_PLACEMENT_3D('',#871,#691,#692);
#612=AXIS2_PLACEMENT_3D('',#873,#694,#695);
#613=AXIS2_PLACEMENT_3D('',#877,#697,#698);
#614=AXIS2_PLACEMENT_3D('',#881,#700,#701);
#615=AXIS2_PLACEMENT_3D('',#885,#703,#704);
#616=AXIS2_PLACEMENT_3D('',#889,#706,#707);
#617=AXIS2_PLACEMENT_3D('',#894,#710,#711);
#618=AXIS2_PLACEMENT_3D('',#897,#713,#714);
#619=AXIS2_PLACEMENT_3D('',#898,#715,#716);
#620=AXIS2_PLACEMENT_3D('',#902,#719,#720);
#621=AXIS2_PLACEMENT_3D('',#906,#722,#723);
#622=AXIS2_PLACEMENT_3D('',#908,#725,#726);
#623=AXIS2_PLACEMENT_3D('',#912,#729,#730);
#624=AXIS2_PLACEMENT_3D('',#915,#731,#732);
#625=AXIS2_PLACEMENT_3D('',#919,#734,#735);
#626=AXIS2_PLACEMENT_3D('',#921,#737,#738);
#627=AXIS2_PLACEMENT_3D('',#929,#744,#745);
#628=AXIS2_PLACEMENT_3D('',#932,#747,#748);
#629=AXIS2_PLACEMENT_3D('',#933,#749,#750);
#630=AXIS2_PLACEMENT_3D('',#937,#752,#753);
#631=AXIS2_PLACEMENT_3D('',#939,#755,#756);
#632=AXIS2_PLACEMENT_3D('',#941,#757,#758);
#633=AXIS2_PLACEMENT_3D('',#943,#760,#761);
#634=AXIS2_PLACEMENT_3D('',#947,#763,#764);
#635=AXIS2_PLACEMENT_3D('',#951,#766,#767);
#636=AXIS2_PLACEMENT_3D('',#953,#769,#770);
#637=AXIS2_PLACEMENT_3D('',#955,#772,#773);
#638=AXIS2_PLACEMENT_3D('',#957,#774,#775);
#639=AXIS2_PLACEMENT_3D('',#961,#777,#778);
#640=AXIS2_PLACEMENT_3D('',#965,#780,#781);
#641=AXIS2_PLACEMENT_3D('',#967,#783,#784);
#642=AXIS2_PLACEMENT_3D('',#969,#786,#787);
#643=AXIS2_PLACEMENT_3D('',#973,#790,#791);
#644=AXIS2_PLACEMENT_3D('',#976,#793,#794);
#645=AXIS2_PLACEMENT_3D('',#977,#795,#796);
#646=AXIS2_PLACEMENT_3D('',#981,#799,#800);
#647=AXIS2_PLACEMENT_3D('',#982,#801,#802);
#648=AXIS2_PLACEMENT_3D('',#983,#803,#804);
#649=AXIS2_PLACEMENT_3D('',#984,#805,#806);
#650=AXIS2_PLACEMENT_3D('',#988,#809,#810);
#651=AXIS2_PLACEMENT_3D('',#990,#811,#812);
#652=AXIS2_PLACEMENT_3D('',#992,#814,#815);
#653=AXIS2_PLACEMENT_3D('',#996,#818,#819);
#654=AXIS2_PLACEMENT_3D('',#998,#820,#821);
#655=AXIS2_PLACEMENT_3D('',#1000,#823,#824);
#656=AXIS2_PLACEMENT_3D('',#1004,#827,#828);
#657=AXIS2_PLACEMENT_3D('',#1007,#830,#831);
#658=AXIS2_PLACEMENT_3D('',#1008,#832,#833);
#659=AXIS2_PLACEMENT_3D('',#1010,#835,#836);
#660=AXIS2_PLACEMENT_3D('',#1011,#837,#838);
#661=DIRECTION('axis',(0.,0.,1.));
#662=DIRECTION('refdir',(1.,0.,0.));
#663=DIRECTION('axis',(0.,0.,1.));
#664=DIRECTION('refdir',(1.,0.,0.));
#665=DIRECTION('center_axis',(0.,9.65411325760959E-16,-1.));
#666=DIRECTION('ref_axis',(-0.707106781186548,0.707106781186548,0.));
#667=DIRECTION('center_axis',(0.,3.90260214716722E-15,1.));
#668=DIRECTION('ref_axis',(-0.707106781186548,0.707106781186548,0.));
#669=DIRECTION('',(0.,-9.65411325760959E-16,1.));
#670=DIRECTION('center_axis',(0.,0.,-1.));
#671=DIRECTION('ref_axis',(-0.707106781186548,0.707106781186548,0.));
#672=DIRECTION('',(0.,9.65411325760959E-16,-1.));
#673=DIRECTION('center_axis',(0.,0.,1.));
#674=DIRECTION('ref_axis',(0.,1.,0.));
#675=DIRECTION('',(-1.,0.,0.));
#676=DIRECTION('center_axis',(0.,0.,1.));
#677=DIRECTION('ref_axis',(1.,-5.5511151231258E-16,0.));
#678=DIRECTION('',(1.,3.08395284618099E-17,0.));
#679=DIRECTION('center_axis',(0.,0.,-1.));
#680=DIRECTION('ref_axis',(-0.707106781186548,0.707106781186547,0.));
#681=DIRECTION('',(0.,1.,0.));
#682=DIRECTION('center_axis',(0.,1.,9.65411325760959E-16));
#683=DIRECTION('ref_axis',(0.,9.65411325760959E-16,-1.));
#684=DIRECTION('',(-1.,0.,0.));
#685=DIRECTION('',(0.,0.,-1.));
#686=DIRECTION('center_axis',(0.,-6.75787928032709E-15,1.));
#687=DIRECTION('ref_axis',(-0.707106781186548,-0.707106781186548,-7.388670393806E-15));
#688=DIRECTION('center_axis',(0.,0.,-1.));
#689=DIRECTION('ref_axis',(-0.707106781186548,-0.707106781186548,-7.388670393806E-15));
#690=DIRECTION('',(0.,6.75787928032709E-15,-1.));
#691=DIRECTION('center_axis',(0.,3.90260214716722E-15,1.));
#692=DIRECTION('ref_axis',(-0.707106781186548,-0.707106781186548,-7.388670393806E-15));
#693=DIRECTION('',(0.,-6.75787928032709E-15,1.));
#694=DIRECTION('center_axis',(0.,-3.90260214716722E-15,-1.));
#695=DIRECTION('ref_axis',(0.,-1.,3.90260214716722E-15));
#696=DIRECTION('',(0.,-1.,3.90260214716722E-15));
#697=DIRECTION('center_axis',(0.,3.90260214716722E-15,1.));
#698=DIRECTION('ref_axis',(0.,1.,0.));
#699=DIRECTION('',(-1.,-3.08395284618099E-17,1.20354409992684E-31));
#700=DIRECTION('center_axis',(0.,3.90260214716722E-15,1.));
#701=DIRECTION('ref_axis',(1.,-1.11022302462517E-15,0.));
#702=DIRECTION('',(1.64477485129653E-16,1.,-3.90260214716722E-15));
#703=DIRECTION('center_axis',(0.,3.90260214716722E-15,1.));
#704=DIRECTION('ref_axis',(0.,-1.,0.));
#705=DIRECTION('',(1.,0.,0.));
#706=DIRECTION('center_axis',(0.,3.90260214716722E-15,1.));
#707=DIRECTION('ref_axis',(-1.,1.11022302462516E-15,0.));
#708=DIRECTION('',(0.,-1.,3.90260214716722E-15));
#709=DIRECTION('',(-1.,0.,0.));
#710=DIRECTION('center_axis',(0.,-3.90260214716722E-15,-1.));
#711=DIRECTION('ref_axis',(1.11022302462516E-15,-1.,0.));
#712=DIRECTION('',(-1.64477485129653E-16,-1.,3.90260214716722E-15));
#713=DIRECTION('center_axis',(0.,-3.90260214716722E-15,-1.));
#714=DIRECTION('ref_axis',(1.,-5.5511151231258E-16,0.));
#715=DIRECTION('center_axis',(0.,-1.,-6.75787928032709E-15));
#716=DIRECTION('ref_axis',(0.,-6.75787928032709E-15,1.));
#717=DIRECTION('',(-1.,0.,0.));
#718=DIRECTION('',(0.,0.,1.));
#719=DIRECTION('center_axis',(0.,0.,-1.));
#720=DIRECTION('ref_axis',(-0.707106781186548,0.707106781186547,0.));
#721=DIRECTION('',(0.,0.,1.));
#722=DIRECTION('center_axis',(0.,0.,1.));
#723=DIRECTION('ref_axis',(-0.707106781186548,0.707106781186547,0.));
#724=DIRECTION('',(0.,0.,-1.));
#725=DIRECTION('center_axis',(-3.08395284618099E-17,1.,0.));
#726=DIRECTION('ref_axis',(1.,3.08395284618099E-17,0.));
#727=DIRECTION('',(0.,0.,-1.));
#728=DIRECTION('',(1.,0.,0.));
#729=DIRECTION('center_axis',(0.,0.,1.));
#730=DIRECTION('ref_axis',(-0.707106781186548,-0.707106781186547,0.));
#731=DIRECTION('center_axis',(0.,0.,-1.));
#732=DIRECTION('ref_axis',(-0.707106781186548,-0.707106781186547,0.));
#733=DIRECTION('',(0.,0.,1.));
#734=DIRECTION('center_axis',(0.,0.,1.));
#735=DIRECTION('ref_axis',(-0.707106781186548,-0.707106781186547,0.));
#736=DIRECTION('',(0.,0.,-1.));
#737=DIRECTION('center_axis',(-1.,0.,0.));
#738=DIRECTION('ref_axis',(0.,1.,0.));
#739=DIRECTION('',(0.,1.,0.));
#740=DIRECTION('',(0.,1.,0.));
#741=DIRECTION('',(0.,0.,-1.));
#742=DIRECTION('',(0.,1.,0.));
#743=DIRECTION('',(0.,0.,-1.));
#744=DIRECTION('center_axis',(0.,0.,1.));
#745=DIRECTION('ref_axis',(0.,1.,0.));
#746=DIRECTION('',(-1.,0.,0.));
#747=DIRECTION('center_axis',(0.,0.,1.));
#748=DIRECTION('ref_axis',(1.11022302462516E-15,-1.,0.));
#749=DIRECTION('center_axis',(0.,0.,-1.));
#750=DIRECTION('ref_axis',(1.,-1.11022302462517E-15,0.));
#751=DIRECTION('',(0.,0.,-1.));
#752=DIRECTION('center_axis',(0.,0.,-1.));
#753=DIRECTION('ref_axis',(1.,-1.11022302462517E-15,0.));
#754=DIRECTION('',(0.,0.,-1.));
#755=DIRECTION('center_axis',(0.,0.,-1.));
#756=DIRECTION('ref_axis',(0.,1.,0.));
#757=DIRECTION('center_axis',(0.,0.,-1.));
#758=DIRECTION('ref_axis',(0.,1.,0.));
#759=DIRECTION('',(0.,0.,-1.));
#760=DIRECTION('center_axis',(0.,0.,1.));
#761=DIRECTION('ref_axis',(1.11022302462516E-15,-1.,0.));
#762=DIRECTION('',(0.,0.,1.));
#763=DIRECTION('center_axis',(0.,0.,1.));
#764=DIRECTION('ref_axis',(1.11022302462516E-15,-1.,0.));
#765=DIRECTION('',(0.,0.,1.));
#766=DIRECTION('center_axis',(0.,0.,1.));
#767=DIRECTION('ref_axis',(1.11022302462516E-15,-1.,0.));
#768=DIRECTION('',(0.,0.,1.));
#769=DIRECTION('center_axis',(0.,-1.,0.));
#770=DIRECTION('ref_axis',(-1.,0.,0.));
#771=DIRECTION('',(-1.,0.,0.));
#772=DIRECTION('center_axis',(0.,0.,1.));
#773=DIRECTION('ref_axis',(1.,0.,0.));
#774=DIRECTION('center_axis',(0.,0.,1.));
#775=DIRECTION('ref_axis',(1.,-5.5511151231258E-16,0.));
#776=DIRECTION('',(-1.,0.,0.));
#777=DIRECTION('center_axis',(0.,0.,1.));
#778=DIRECTION('ref_axis',(0.,1.,0.));
#779=DIRECTION('',(0.,-1.,0.));
#780=DIRECTION('center_axis',(0.,0.,1.));
#781=DIRECTION('ref_axis',(-1.,5.55111512312578E-16,0.));
#782=DIRECTION('',(1.,3.08395284618099E-17,0.));
#783=DIRECTION('center_axis',(-3.08395284618099E-17,1.,0.));
#784=DIRECTION('ref_axis',(1.,3.08395284618099E-17,0.));
#785=DIRECTION('',(1.,3.08395284618099E-17,0.));
#786=DIRECTION('center_axis',(1.,-1.64477485129653E-16,0.));
#787=DIRECTION('ref_axis',(-1.64477485129653E-16,-1.,0.));
#788=DIRECTION('',(-1.64477485129653E-16,-1.,0.));
#789=DIRECTION('',(0.,0.,-1.));
#790=DIRECTION('center_axis',(0.,0.,-1.));
#791=DIRECTION('ref_axis',(-1.,1.11022302462516E-15,0.));
#792=DIRECTION('',(0.,0.,-1.));
#793=DIRECTION('center_axis',(0.,0.,-1.));
#794=DIRECTION('ref_axis',(-1.,1.11022302462516E-15,0.));
#795=DIRECTION('center_axis',(0.,-1.,0.));
#796=DIRECTION('ref_axis',(-1.,0.,0.));
#797=DIRECTION('',(0.,0.,-1.));
#798=DIRECTION('',(-1.,0.,0.));
#799=DIRECTION('center_axis',(0.,0.,-1.));
#800=DIRECTION('ref_axis',(0.,-1.,0.));
#801=DIRECTION('center_axis',(0.,0.,-1.));
#802=DIRECTION('ref_axis',(0.,-1.,0.));
#803=DIRECTION('center_axis',(0.,0.,1.));
#804=DIRECTION('ref_axis',(-1.,0.,0.));
#805=DIRECTION('center_axis',(3.08395284618099E-17,-1.,0.));
#806=DIRECTION('ref_axis',(1.,3.08395284618099E-17,0.));
#807=DIRECTION('',(1.,3.08395284618099E-17,0.));
#808=DIRECTION('',(0.,0.,1.));
#809=DIRECTION('center_axis',(0.,0.,1.));
#810=DIRECTION('ref_axis',(-1.,5.55111512312578E-16,0.));
#811=DIRECTION('center_axis',(0.,0.,1.));
#812=DIRECTION('ref_axis',(-1.,5.55111512312578E-16,0.));
#813=DIRECTION('',(0.,0.,1.));
#814=DIRECTION('center_axis',(-1.,0.,0.));
#815=DIRECTION('ref_axis',(0.,-1.,0.));
#816=DIRECTION('',(0.,-1.,0.));
#817=DIRECTION('',(0.,0.,1.));
#818=DIRECTION('center_axis',(0.,0.,1.));
#819=DIRECTION('ref_axis',(0.,1.,0.));
#820=DIRECTION('center_axis',(0.,0.,1.));
#821=DIRECTION('ref_axis',(0.,1.,0.));
#822=DIRECTION('',(0.,0.,1.));
#823=DIRECTION('center_axis',(0.,1.,0.));
#824=DIRECTION('ref_axis',(-1.,0.,0.));
#825=DIRECTION('',(-1.,0.,0.));
#826=DIRECTION('',(0.,0.,1.));
#827=DIRECTION('center_axis',(0.,0.,1.));
#828=DIRECTION('ref_axis',(1.,-5.5511151231258E-16,0.));
#829=DIRECTION('',(0.,0.,1.));
#830=DIRECTION('center_axis',(0.,0.,1.));
#831=DIRECTION('ref_axis',(1.,-5.5511151231258E-16,0.));
#832=DIRECTION('center_axis',(1.,-1.64477485129653E-16,0.));
#833=DIRECTION('ref_axis',(1.64477485129653E-16,1.,0.));
#834=DIRECTION('',(1.64477485129653E-16,1.,0.));
#835=DIRECTION('center_axis',(0.,0.,1.));
#836=DIRECTION('ref_axis',(1.,0.,0.));
#837=DIRECTION('',(0.,0.,1.));
#838=DIRECTION('',(1.,0.,0.));
#839=CARTESIAN_POINT('',(0.,0.,0.));
#840=CARTESIAN_POINT('',(0.,0.,0.));
#841=CARTESIAN_POINT('Origin',(-36.3,14.8000000000005,34.));
#842=CARTESIAN_POINT('',(-36.3,16.5000000000005,30.6999999999999));
#843=CARTESIAN_POINT('',(-38.,14.8000000000005,30.6999999999999));
#844=CARTESIAN_POINT('Origin',(-36.3,14.8000000000005,30.6999999999999));
#845=CARTESIAN_POINT('',(-36.3,16.5000000000005,33.));
#846=CARTESIAN_POINT('',(-36.3,16.5000000000005,34.));
#847=CARTESIAN_POINT('',(-38.,14.8000000000005,33.));
#848=CARTESIAN_POINT('Origin',(-36.3,14.8000000000005,33.));
#849=CARTESIAN_POINT('',(-38.,14.8000000000005,34.));
#850=CARTESIAN_POINT('Origin',(40.,15.5,33.));
#851=CARTESIAN_POINT('',(38.6457513110641,16.5000000000005,33.));
#852=CARTESIAN_POINT('',(40.,16.5000000000005,33.));
#853=CARTESIAN_POINT('',(39.4641016151377,15.5,33.));
#854=CARTESIAN_POINT('Origin',(36.,13.5,33.));
#855=CARTESIAN_POINT('',(-36.,15.5,33.));
#856=CARTESIAN_POINT('',(1.99999999999999,15.5,33.));
#857=CARTESIAN_POINT('',(-38.,13.5,33.));
#858=CARTESIAN_POINT('Origin',(-36.,13.5,33.));
#859=CARTESIAN_POINT('',(-38.,-16.4999999999995,33.));
#860=CARTESIAN_POINT('Origin',(40.,16.5000000000005,33.));
#861=CARTESIAN_POINT('',(38.6457513110641,16.5000000000005,30.6999999999999));
#862=CARTESIAN_POINT('',(40.,16.5000000000005,30.6999999999999));
#863=CARTESIAN_POINT('',(38.645751311064,16.5000000000005,0.));
#864=CARTESIAN_POINT('Origin',(-36.3,-14.7999999999995,32.85));
#865=CARTESIAN_POINT('',(-36.3,-16.4999999999995,33.));
#866=CARTESIAN_POINT('',(-38.,-14.7999999999995,33.));
#867=CARTESIAN_POINT('Origin',(-36.3,-14.7999999999995,33.));
#868=CARTESIAN_POINT('',(-36.3,-16.4999999999995,30.7));
#869=CARTESIAN_POINT('',(-36.3,-16.4999999999995,32.85));
#870=CARTESIAN_POINT('',(-38.,-14.7999999999995,30.7));
#871=CARTESIAN_POINT('Origin',(-36.3,-14.7999999999995,30.6999999999997));
#872=CARTESIAN_POINT('',(-38.,-14.7999999999995,32.85));
#873=CARTESIAN_POINT('Origin',(40.,16.5000000000005,30.6999999999999));
#874=CARTESIAN_POINT('',(-38.,13.5,30.6999999999999));
#875=CARTESIAN_POINT('',(-38.,16.5000000000005,30.6999999999999));
#876=CARTESIAN_POINT('',(-36.,15.5,30.6999999999999));
#877=CARTESIAN_POINT('Origin',(-36.,13.5,30.6999999999999));
#878=CARTESIAN_POINT('',(36.,15.5,30.6999999999999));
#879=CARTESIAN_POINT('',(1.99999999999999,15.5,30.6999999999999));
#880=CARTESIAN_POINT('',(38.,13.5,30.6999999999999));
#881=CARTESIAN_POINT('Origin',(36.,13.5,30.6999999999999));
#882=CARTESIAN_POINT('',(38.,-13.5,30.7));
#883=CARTESIAN_POINT('',(38.,15.0000000000002,30.6999999999999));
#884=CARTESIAN_POINT('',(36.,-15.5,30.7));
#885=CARTESIAN_POINT('Origin',(36.,-13.5,30.6999999999999));
#886=CARTESIAN_POINT('',(-36.,-15.5,30.7));
#887=CARTESIAN_POINT('',(38.,-15.5,30.7));
#888=CARTESIAN_POINT('',(-38.,-13.5,30.7));
#889=CARTESIAN_POINT('Origin',(-36.,-13.5,30.6999999999999));
#890=CARTESIAN_POINT('',(-38.,16.5000000000005,30.6999999999999));
#891=CARTESIAN_POINT('',(38.6457513110651,-16.4999999999995,30.7));
#892=CARTESIAN_POINT('',(40.,-16.4999999999995,30.7));
#893=CARTESIAN_POINT('',(40.,-13.5,30.7));
#894=CARTESIAN_POINT('Origin',(36.,-13.5,30.6999999999999));
#895=CARTESIAN_POINT('',(40.,13.5,30.6999999999999));
#896=CARTESIAN_POINT('',(40.,1.50000000000029,30.6999999999999));
#897=CARTESIAN_POINT('Origin',(36.,13.5,30.6999999999999));
#898=CARTESIAN_POINT('Origin',(40.,-16.4999999999995,30.7));
#899=CARTESIAN_POINT('',(38.6457513110651,-16.4999999999995,33.));
#900=CARTESIAN_POINT('',(40.,-16.4999999999995,33.));
#901=CARTESIAN_POINT('',(38.6457513110653,-16.4999999999993,0.));
#902=CARTESIAN_POINT('Origin',(-36.,13.5,35.));
#903=CARTESIAN_POINT('',(-36.,15.5,35.));
#904=CARTESIAN_POINT('',(-36.,15.5,35.));
#905=CARTESIAN_POINT('',(-38.,13.5,35.));
#906=CARTESIAN_POINT('Origin',(-36.,13.5,35.));
#907=CARTESIAN_POINT('',(-38.,13.5,35.));
#908=CARTESIAN_POINT('Origin',(-36.,15.5,35.));
#909=CARTESIAN_POINT('',(39.4641016151377,15.5,35.));
#910=CARTESIAN_POINT('',(39.4641016151377,15.5,0.));
#911=CARTESIAN_POINT('',(20.,15.5,35.));
#912=CARTESIAN_POINT('Origin',(-36.,-13.5,35.));
#913=CARTESIAN_POINT('',(-36.,-15.5,33.));
#914=CARTESIAN_POINT('',(-38.,-13.5,33.));
#915=CARTESIAN_POINT('Origin',(-36.,-13.5,33.));
#916=CARTESIAN_POINT('',(-38.,-13.5,35.));
#917=CARTESIAN_POINT('',(-38.,-13.5,35.));
#918=CARTESIAN_POINT('',(-36.,-15.5,35.));
#919=CARTESIAN_POINT('Origin',(-36.,-13.5,35.));
#920=CARTESIAN_POINT('',(-36.,-15.5,35.));
#921=CARTESIAN_POINT('Origin',(-38.,-13.5,35.));
#922=CARTESIAN_POINT('',(-38.,2.27595720048157E-13,35.));
#923=CARTESIAN_POINT('',(-38.,-16.4999999999995,33.));
#924=CARTESIAN_POINT('',(-38.,-13.5,2.));
#925=CARTESIAN_POINT('',(-38.,-13.5,35.));
#926=CARTESIAN_POINT('',(-38.,13.5,2.));
#927=CARTESIAN_POINT('',(-38.,13.5,2.));
#928=CARTESIAN_POINT('',(-38.,13.5,35.));
#929=CARTESIAN_POINT('Origin',(40.,-16.4999999999995,33.));
#930=CARTESIAN_POINT('',(39.4641016151377,-15.5,33.));
#931=CARTESIAN_POINT('',(38.,-15.5,33.));
#932=CARTESIAN_POINT('Origin',(36.,-13.5,33.));
#933=CARTESIAN_POINT('Origin',(36.,13.5,35.));
#934=CARTESIAN_POINT('',(36.,15.5,2.));
#935=CARTESIAN_POINT('',(36.,15.5,35.));
#936=CARTESIAN_POINT('',(38.,13.5,2.));
#937=CARTESIAN_POINT('Origin',(36.,13.5,2.));
#938=CARTESIAN_POINT('',(38.,13.5,35.));
#939=CARTESIAN_POINT('Origin',(-36.,13.5,35.));
#940=CARTESIAN_POINT('',(-36.,15.5,2.));
#941=CARTESIAN_POINT('Origin',(-36.,13.5,2.));
#942=CARTESIAN_POINT('',(-36.,15.5,35.));
#943=CARTESIAN_POINT('Origin',(36.,-13.5,0.));
#944=CARTESIAN_POINT('',(39.4641016151377,-15.5,35.));
#945=CARTESIAN_POINT('',(39.4641016151377,-15.5,0.));
#946=CARTESIAN_POINT('',(36.,-17.5,35.));
#947=CARTESIAN_POINT('Origin',(36.,-13.5,35.));
#948=CARTESIAN_POINT('',(36.,-17.5,0.));
#949=CARTESIAN_POINT('',(36.,-17.5,0.));
#950=CARTESIAN_POINT('',(40.,-13.5,0.));
#951=CARTESIAN_POINT('Origin',(36.,-13.5,0.));
#952=CARTESIAN_POINT('',(40.,-13.5,0.));
#953=CARTESIAN_POINT('Origin',(36.,-15.5,35.));
#954=CARTESIAN_POINT('',(20.,-15.5,35.));
#955=CARTESIAN_POINT('Origin',(-8.88178419700125E-15,-2.22044604925031E-15,
35.));
#956=CARTESIAN_POINT('',(36.,17.5,35.));
#957=CARTESIAN_POINT('Origin',(36.,13.5,35.));
#958=CARTESIAN_POINT('',(-36.,17.5,35.));
#959=CARTESIAN_POINT('',(36.,17.5,35.));
#960=CARTESIAN_POINT('',(-40.,13.5,35.));
#961=CARTESIAN_POINT('Origin',(-36.,13.5,35.));
#962=CARTESIAN_POINT('',(-40.,-13.5,35.));
#963=CARTESIAN_POINT('',(-40.,13.5,35.));
#964=CARTESIAN_POINT('',(-36.,-17.5,35.));
#965=CARTESIAN_POINT('Origin',(-36.,-13.5,35.));
#966=CARTESIAN_POINT('',(-36.,-17.5,35.));
#967=CARTESIAN_POINT('Origin',(-36.,15.5,35.));
#968=CARTESIAN_POINT('',(36.,15.5,2.));
#969=CARTESIAN_POINT('Origin',(38.,13.5,35.));
#970=CARTESIAN_POINT('',(38.,-13.5,2.));
#971=CARTESIAN_POINT('',(38.,-13.5,2.));
#972=CARTESIAN_POINT('',(38.,-13.5,35.));
#973=CARTESIAN_POINT('Origin',(-36.,-13.5,35.));
#974=CARTESIAN_POINT('',(-36.,-15.5,2.));
#975=CARTESIAN_POINT('',(-36.,-15.5,35.));
#976=CARTESIAN_POINT('Origin',(-36.,-13.5,2.));
#977=CARTESIAN_POINT('Origin',(36.,-15.5,35.));
#978=CARTESIAN_POINT('',(36.,-15.5,2.));
#979=CARTESIAN_POINT('',(36.,-15.5,35.));
#980=CARTESIAN_POINT('',(-36.,-15.5,2.));
#981=CARTESIAN_POINT('Origin',(36.,-13.5,35.));
#982=CARTESIAN_POINT('Origin',(36.,-13.5,2.));
#983=CARTESIAN_POINT('Origin',(-1.33226762955019E-14,0.,2.));
#984=CARTESIAN_POINT('Origin',(-36.,-17.5,0.));
#985=CARTESIAN_POINT('',(-36.,-17.5,0.));
#986=CARTESIAN_POINT('',(-36.,-17.5,0.));
#987=CARTESIAN_POINT('',(-36.,-17.5,0.));
#988=CARTESIAN_POINT('Origin',(-36.,-13.5,0.));
#989=CARTESIAN_POINT('',(-40.,-13.5,0.));
#990=CARTESIAN_POINT('Origin',(-36.,-13.5,0.));
#991=CARTESIAN_POINT('',(-40.,-13.5,0.));
#992=CARTESIAN_POINT('Origin',(-40.,13.5,0.));
#993=CARTESIAN_POINT('',(-40.,13.5,0.));
#994=CARTESIAN_POINT('',(-40.,13.5,0.));
#995=CARTESIAN_POINT('',(-40.,13.5,0.));
#996=CARTESIAN_POINT('Origin',(-36.,13.5,0.));
#997=CARTESIAN_POINT('',(-36.,17.5,0.));
#998=CARTESIAN_POINT('Origin',(-36.,13.5,0.));
#999=CARTESIAN_POINT('',(-36.,17.5,0.));
#1000=CARTESIAN_POINT('Origin',(36.,17.5,0.));
#1001=CARTESIAN_POINT('',(36.,17.5,0.));
#1002=CARTESIAN_POINT('',(36.,17.5,0.));
#1003=CARTESIAN_POINT('',(36.,17.5,0.));
#1004=CARTESIAN_POINT('Origin',(36.,13.5,0.));
#1005=CARTESIAN_POINT('',(40.,13.5,0.));
#1006=CARTESIAN_POINT('',(40.,13.5,0.));
#1007=CARTESIAN_POINT('Origin',(36.,13.5,0.));
#1008=CARTESIAN_POINT('Origin',(40.,-13.5,0.));
#1009=CARTESIAN_POINT('',(40.,-13.5,0.));
#1010=CARTESIAN_POINT('Origin',(-8.88178419700125E-15,-2.22044604925031E-15,
0.));
#1011=CARTESIAN_POINT('',(0.,0.,0.));
#1012=UNCERTAINTY_MEASURE_WITH_UNIT(LENGTH_MEASURE(0.01),#1018,
'DISTANCE_ACCURACY_VALUE',
'Maximum model space distance between geometric entities at asserted c
onnectivities');
#1013=UNCERTAINTY_MEASURE_WITH_UNIT(LENGTH_MEASURE(0.01),#1018,
'DISTANCE_ACCURACY_VALUE',
'Maximum model space distance between geometric entities at asserted c
onnectivities');
#1014=UNCERTAINTY_MEASURE_WITH_UNIT(LENGTH_MEASURE(0.01),#1018,
'DISTANCE_ACCURACY_VALUE',
'Maximum model space distance between geometric entities at asserted c
onnectivities');
#1015=(
GEOMETRIC_REPRESENTATION_CONTEXT(3)
GLOBAL_UNCERTAINTY_ASSIGNED_CONTEXT((#1012))
GLOBAL_UNIT_ASSIGNED_CONTEXT((#1018,#1020,#1021))
REPRESENTATION_CONTEXT('','3D')
);
#1016=(
GEOMETRIC_REPRESENTATION_CONTEXT(3)
GLOBAL_UNCERTAINTY_ASSIGNED_CONTEXT((#1013))
GLOBAL_UNIT_ASSIGNED_CONTEXT((#1018,#1020,#1021))
REPRESENTATION_CONTEXT('','3D')
);
#1017=(
GEOMETRIC_REPRESENTATION_CONTEXT(3)
GLOBAL_UNCERTAINTY_ASSIGNED_CONTEXT((#1014))
GLOBAL_UNIT_ASSIGNED_CONTEXT((#1018,#1020,#1021))
REPRESENTATION_CONTEXT('','3D')
);
#1018=(
LENGTH_UNIT()
NAMED_UNIT(*)
SI_UNIT(.MILLI.,.METRE.)
);
#1019=(
LENGTH_UNIT()
NAMED_UNIT(*)
SI_UNIT($,.METRE.)
);
#1020=(
NAMED_UNIT(*)
PLANE_ANGLE_UNIT()
SI_UNIT($,.RADIAN.)
);
#1021=(
NAMED_UNIT(*)
SI_UNIT($,.STERADIAN.)
SOLID_ANGLE_UNIT()
);
#1022=SHAPE_DEFINITION_REPRESENTATION(#1024,#1027);
#1023=SHAPE_DEFINITION_REPRESENTATION(#1025,#1028);
#1024=PRODUCT_DEFINITION_SHAPE('',$,#1030);
#1025=PRODUCT_DEFINITION_SHAPE('',$,#1031);
#1026=PRODUCT_DEFINITION_SHAPE($,$,#14);
#1027=SHAPE_REPRESENTATION('',(#600,#660),#1015);
#1028=SHAPE_REPRESENTATION('',(#601),#1016);
#1029=PRODUCT_DEFINITION_CONTEXT('part definition',#1037,'design');
#1030=PRODUCT_DEFINITION('boite_domino','boite_domino v26',#1032,#1029);
#1031=PRODUCT_DEFINITION('boite','boite',#1033,#1029);
#1032=PRODUCT_DEFINITION_FORMATION('',$,#1039);
#1033=PRODUCT_DEFINITION_FORMATION('',$,#1040);
#1034=PRODUCT_RELATED_PRODUCT_CATEGORY('boite_domino v26',
'boite_domino v26',(#1039));
#1035=PRODUCT_RELATED_PRODUCT_CATEGORY('boite','boite',(#1040));
#1036=APPLICATION_PROTOCOL_DEFINITION('international standard',
'automotive_design',2009,#1037);
#1037=APPLICATION_CONTEXT(
'Core Data for Automotive Mechanical Design Process');
#1038=PRODUCT_CONTEXT('part definition',#1037,'mechanical');
#1039=PRODUCT('boite_domino','boite_domino v26',$,(#1038));
#1040=PRODUCT('boite','boite',$,(#1038));
#1041=PRESENTATION_STYLE_ASSIGNMENT((#1042));
#1042=SURFACE_STYLE_USAGE(.BOTH.,#1043);
#1043=SURFACE_SIDE_STYLE('',(#1044));
#1044=SURFACE_STYLE_FILL_AREA(#1045);
#1045=FILL_AREA_STYLE('Acier - Satin\X\E9',(#1046));
#1046=FILL_AREA_STYLE_COLOUR('Acier - Satin\X\E9',#1047);
#1047=COLOUR_RGB('Acier - Satin\X\E9',0.627450980392157,0.627450980392157,
0.627450980392157);
ENDSEC;
END-ISO-10303-21;
