ISO-10303-21;
HEADER;
/* Generated by software containing ST-Developer
 * from STEP Tools, Inc. (www.steptools.com) 
 */

FILE_DESCRIPTION(
/* description */ (''),
/* implementation_level */ '2;1');

FILE_NAME(
/* name */ 'boite_esp32_lcd_face_avant.step',
/* time_stamp */ '2026-02-15T22:42:58+01:00',
/* author */ (''),
/* organization */ (''),
/* preprocessor_version */ 'ST-DEVELOPER v20.1',
/* originating_system */ 'Autodesk Translation Framework v14.21.0.0',
/* authorisation */ '');

FILE_SCHEMA (('AUTOMOTIVE_DESIGN { 1 0 10303 214 3 1 1 }','PROCESS_PLANNING_SCHEMA'));
ENDSEC;

DATA;
#10=MECHANICAL_DESIGN_GEOMETRIC_PRESENTATION_REPRESENTATION('',(#13),#1177);
#11=SHAPE_REPRESENTATION_RELATIONSHIP('SRR','None',#1184,#12);
#12=ADVANCED_BREP_SHAPE_REPRESENTATION('',(#14),#1176);
#13=STYLED_ITEM('',(#1193),#14);
#14=MANIFOLD_SOLID_BREP('face avant',#657);
#15=ELLIPSE('',#715,1.4142135623731,1.);
#16=ELLIPSE('',#716,1.4142135623731,1.);
#17=ELLIPSE('',#718,1.4142135623731,1.);
#18=ELLIPSE('',#720,1.4142135623731,1.);
#19=FACE_BOUND('',#192,.T.);
#20=FACE_BOUND('',#193,.T.);
#21=FACE_BOUND('',#194,.T.);
#22=FACE_BOUND('',#195,.T.);
#23=FACE_BOUND('',#196,.T.);
#24=FACE_BOUND('',#197,.T.);
#25=FACE_BOUND('',#211,.T.);
#26=FACE_BOUND('',#233,.T.);
#27=PLANE('',#680);
#28=PLANE('',#681);
#29=PLANE('',#697);
#30=PLANE('',#705);
#31=PLANE('',#712);
#32=PLANE('',#713);
#33=PLANE('',#722);
#34=PLANE('',#723);
#35=PLANE('',#730);
#36=PLANE('',#737);
#37=PLANE('',#744);
#38=PLANE('',#751);
#39=PLANE('',#757);
#40=PLANE('',#758);
#41=PLANE('',#759);
#42=PLANE('',#760);
#43=LINE('',#999,#85);
#44=LINE('',#1000,#86);
#45=LINE('',#1003,#87);
#46=LINE('',#1006,#88);
#47=LINE('',#1009,#89);
#48=LINE('',#1010,#90);
#49=LINE('',#1013,#91);
#50=LINE('',#1017,#92);
#51=LINE('',#1021,#93);
#52=LINE('',#1025,#94);
#53=LINE('',#1027,#95);
#54=LINE('',#1029,#96);
#55=LINE('',#1030,#97);
#56=LINE('',#1048,#98);
#57=LINE('',#1051,#99);
#58=LINE('',#1054,#100);
#59=LINE('',#1056,#101);
#60=LINE('',#1064,#102);
#61=LINE('',#1067,#103);
#62=LINE('',#1070,#104);
#63=LINE('',#1072,#105);
#64=LINE('',#1080,#106);
#65=LINE('',#1082,#107);
#66=LINE('',#1083,#108);
#67=LINE('',#1088,#109);
#68=LINE('',#1090,#110);
#69=LINE('',#1092,#111);
#70=LINE('',#1093,#112);
#71=LINE('',#1098,#113);
#72=LINE('',#1103,#114);
#73=LINE('',#1107,#115);
#74=LINE('',#1109,#116);
#75=LINE('',#1111,#117);
#76=LINE('',#1112,#118);
#77=LINE('',#1114,#119);
#78=LINE('',#1124,#120);
#79=LINE('',#1135,#121);
#80=LINE('',#1146,#122);
#81=LINE('',#1157,#123);
#82=LINE('',#1163,#124);
#83=LINE('',#1167,#125);
#84=LINE('',#1171,#126);
#85=VECTOR('',#777,10.);
#86=VECTOR('',#778,10.);
#87=VECTOR('',#781,10.);
#88=VECTOR('',#784,10.);
#89=VECTOR('',#787,10.);
#90=VECTOR('',#788,10.);
#91=VECTOR('',#791,10.);
#92=VECTOR('',#794,10.);
#93=VECTOR('',#797,10.);
#94=VECTOR('',#800,10.);
#95=VECTOR('',#801,10.);
#96=VECTOR('',#802,10.);
#97=VECTOR('',#803,10.);
#98=VECTOR('',#824,10.);
#99=VECTOR('',#827,10.);
#100=VECTOR('',#830,10.);
#101=VECTOR('',#833,10.);
#102=VECTOR('',#844,10.);
#103=VECTOR('',#847,10.);
#104=VECTOR('',#850,10.);
#105=VECTOR('',#853,10.);
#106=VECTOR('',#864,10.);
#107=VECTOR('',#867,10.);
#108=VECTOR('',#868,10.);
#109=VECTOR('',#873,10.);
#110=VECTOR('',#874,10.);
#111=VECTOR('',#875,10.);
#112=VECTOR('',#876,10.);
#113=VECTOR('',#881,10.);
#114=VECTOR('',#888,10.);
#115=VECTOR('',#893,10.);
#116=VECTOR('',#896,10.);
#117=VECTOR('',#899,10.);
#118=VECTOR('',#900,10.);
#119=VECTOR('',#903,10.);
#120=VECTOR('',#916,1.2);
#121=VECTOR('',#931,1.2);
#122=VECTOR('',#946,1.2);
#123=VECTOR('',#961,1.2);
#124=VECTOR('',#968,1.1);
#125=VECTOR('',#973,1.2);
#126=VECTOR('',#980,10.);
#127=CYLINDRICAL_SURFACE('',#676,6.7);
#128=CYLINDRICAL_SURFACE('',#678,0.5);
#129=CYLINDRICAL_SURFACE('',#694,6.7);
#130=CYLINDRICAL_SURFACE('',#695,0.5);
#131=CYLINDRICAL_SURFACE('',#702,6.7);
#132=CYLINDRICAL_SURFACE('',#703,0.5);
#133=CYLINDRICAL_SURFACE('',#710,6.7);
#134=CYLINDRICAL_SURFACE('',#711,0.5);
#135=CYLINDRICAL_SURFACE('',#714,1.);
#136=CYLINDRICAL_SURFACE('',#717,1.);
#137=CYLINDRICAL_SURFACE('',#719,1.);
#138=CYLINDRICAL_SURFACE('',#721,1.);
#139=CYLINDRICAL_SURFACE('',#729,1.2);
#140=CYLINDRICAL_SURFACE('',#736,1.2);
#141=CYLINDRICAL_SURFACE('',#743,1.2);
#142=CYLINDRICAL_SURFACE('',#750,1.2);
#143=CYLINDRICAL_SURFACE('',#752,1.1);
#144=CYLINDRICAL_SURFACE('',#755,1.2);
#145=FACE_OUTER_BOUND('',#187,.T.);
#146=FACE_OUTER_BOUND('',#188,.T.);
#147=FACE_OUTER_BOUND('',#189,.T.);
#148=FACE_OUTER_BOUND('',#190,.T.);
#149=FACE_OUTER_BOUND('',#191,.T.);
#150=FACE_OUTER_BOUND('',#198,.T.);
#151=FACE_OUTER_BOUND('',#199,.T.);
#152=FACE_OUTER_BOUND('',#200,.T.);
#153=FACE_OUTER_BOUND('',#201,.T.);
#154=FACE_OUTER_BOUND('',#202,.T.);
#155=FACE_OUTER_BOUND('',#203,.T.);
#156=FACE_OUTER_BOUND('',#204,.T.);
#157=FACE_OUTER_BOUND('',#205,.T.);
#158=FACE_OUTER_BOUND('',#206,.T.);
#159=FACE_OUTER_BOUND('',#207,.T.);
#160=FACE_OUTER_BOUND('',#208,.T.);
#161=FACE_OUTER_BOUND('',#209,.T.);
#162=FACE_OUTER_BOUND('',#210,.T.);
#163=FACE_OUTER_BOUND('',#212,.T.);
#164=FACE_OUTER_BOUND('',#213,.T.);
#165=FACE_OUTER_BOUND('',#214,.T.);
#166=FACE_OUTER_BOUND('',#215,.T.);
#167=FACE_OUTER_BOUND('',#216,.T.);
#168=FACE_OUTER_BOUND('',#217,.T.);
#169=FACE_OUTER_BOUND('',#218,.T.);
#170=FACE_OUTER_BOUND('',#219,.T.);
#171=FACE_OUTER_BOUND('',#220,.T.);
#172=FACE_OUTER_BOUND('',#221,.T.);
#173=FACE_OUTER_BOUND('',#222,.T.);
#174=FACE_OUTER_BOUND('',#223,.T.);
#175=FACE_OUTER_BOUND('',#224,.T.);
#176=FACE_OUTER_BOUND('',#225,.T.);
#177=FACE_OUTER_BOUND('',#226,.T.);
#178=FACE_OUTER_BOUND('',#227,.T.);
#179=FACE_OUTER_BOUND('',#228,.T.);
#180=FACE_OUTER_BOUND('',#229,.T.);
#181=FACE_OUTER_BOUND('',#230,.T.);
#182=FACE_OUTER_BOUND('',#231,.T.);
#183=FACE_OUTER_BOUND('',#232,.T.);
#184=FACE_OUTER_BOUND('',#234,.T.);
#185=FACE_OUTER_BOUND('',#235,.T.);
#186=FACE_OUTER_BOUND('',#236,.T.);
#187=EDGE_LOOP('',(#427,#428,#429,#430));
#188=EDGE_LOOP('',(#431,#432,#433,#434));
#189=EDGE_LOOP('',(#435,#436,#437,#438));
#190=EDGE_LOOP('',(#439,#440,#441,#442));
#191=EDGE_LOOP('',(#443,#444,#445,#446,#447,#448,#449,#450));
#192=EDGE_LOOP('',(#451,#452,#453,#454));
#193=EDGE_LOOP('',(#455));
#194=EDGE_LOOP('',(#456));
#195=EDGE_LOOP('',(#457));
#196=EDGE_LOOP('',(#458));
#197=EDGE_LOOP('',(#459));
#198=EDGE_LOOP('',(#460,#461,#462,#463));
#199=EDGE_LOOP('',(#464,#465,#466,#467));
#200=EDGE_LOOP('',(#468,#469,#470,#471));
#201=EDGE_LOOP('',(#472,#473,#474,#475));
#202=EDGE_LOOP('',(#476,#477,#478,#479));
#203=EDGE_LOOP('',(#480,#481,#482,#483));
#204=EDGE_LOOP('',(#484,#485,#486,#487));
#205=EDGE_LOOP('',(#488,#489,#490,#491));
#206=EDGE_LOOP('',(#492,#493,#494,#495));
#207=EDGE_LOOP('',(#496,#497,#498,#499));
#208=EDGE_LOOP('',(#500,#501,#502,#503));
#209=EDGE_LOOP('',(#504,#505,#506,#507));
#210=EDGE_LOOP('',(#508,#509,#510,#511,#512,#513,#514,#515));
#211=EDGE_LOOP('',(#516,#517,#518,#519));
#212=EDGE_LOOP('',(#520,#521,#522,#523));
#213=EDGE_LOOP('',(#524,#525,#526,#527));
#214=EDGE_LOOP('',(#528,#529,#530,#531));
#215=EDGE_LOOP('',(#532,#533,#534,#535));
#216=EDGE_LOOP('',(#536,#537,#538,#539));
#217=EDGE_LOOP('',(#540,#541,#542,#543));
#218=EDGE_LOOP('',(#544,#545,#546,#547,#548));
#219=EDGE_LOOP('',(#549,#550,#551,#552,#553));
#220=EDGE_LOOP('',(#554));
#221=EDGE_LOOP('',(#555,#556,#557,#558,#559));
#222=EDGE_LOOP('',(#560,#561,#562,#563,#564));
#223=EDGE_LOOP('',(#565));
#224=EDGE_LOOP('',(#566,#567,#568,#569,#570));
#225=EDGE_LOOP('',(#571,#572,#573,#574,#575));
#226=EDGE_LOOP('',(#576));
#227=EDGE_LOOP('',(#577,#578,#579,#580,#581));
#228=EDGE_LOOP('',(#582,#583,#584,#585,#586));
#229=EDGE_LOOP('',(#587));
#230=EDGE_LOOP('',(#588,#589,#590,#591));
#231=EDGE_LOOP('',(#592,#593,#594,#595));
#232=EDGE_LOOP('',(#596));
#233=EDGE_LOOP('',(#597));
#234=EDGE_LOOP('',(#598,#599,#600,#601));
#235=EDGE_LOOP('',(#602,#603,#604,#605));
#236=EDGE_LOOP('',(#606));
#237=CIRCLE('',#672,0.499999999999998);
#238=CIRCLE('',#673,6.2);
#239=CIRCLE('',#674,0.5);
#240=CIRCLE('',#675,6.7);
#241=CIRCLE('',#677,6.7);
#242=CIRCLE('',#679,0.5);
#243=CIRCLE('',#682,6.7);
#244=CIRCLE('',#683,6.7);
#245=CIRCLE('',#684,6.7);
#246=CIRCLE('',#685,1.2);
#247=CIRCLE('',#686,1.2);
#248=CIRCLE('',#687,1.2);
#249=CIRCLE('',#688,1.2);
#250=CIRCLE('',#689,1.2);
#251=CIRCLE('',#691,0.500000000000007);
#252=CIRCLE('',#692,6.2);
#253=CIRCLE('',#693,6.7);
#254=CIRCLE('',#696,0.5);
#255=CIRCLE('',#699,0.499999999999998);
#256=CIRCLE('',#700,6.2);
#257=CIRCLE('',#701,6.7);
#258=CIRCLE('',#704,0.5);
#259=CIRCLE('',#707,0.499999999999998);
#260=CIRCLE('',#708,6.2);
#261=CIRCLE('',#709,6.7);
#262=CIRCLE('',#725,1.);
#263=CIRCLE('',#726,0.2);
#264=CIRCLE('',#727,1.2);
#265=CIRCLE('',#728,1.2);
#266=CIRCLE('',#732,1.);
#267=CIRCLE('',#733,0.2);
#268=CIRCLE('',#734,1.2);
#269=CIRCLE('',#735,1.2);
#270=CIRCLE('',#739,1.);
#271=CIRCLE('',#740,0.2);
#272=CIRCLE('',#741,1.2);
#273=CIRCLE('',#742,1.2);
#274=CIRCLE('',#746,1.);
#275=CIRCLE('',#747,0.2);
#276=CIRCLE('',#748,1.2);
#277=CIRCLE('',#749,1.2);
#278=CIRCLE('',#753,1.1);
#279=CIRCLE('',#754,1.1);
#280=CIRCLE('',#756,1.2);
#281=VERTEX_POINT('',#987);
#282=VERTEX_POINT('',#988);
#283=VERTEX_POINT('',#990);
#284=VERTEX_POINT('',#992);
#285=VERTEX_POINT('',#996);
#286=VERTEX_POINT('',#997);
#287=VERTEX_POINT('',#1002);
#288=VERTEX_POINT('',#1004);
#289=VERTEX_POINT('',#1008);
#290=VERTEX_POINT('',#1012);
#291=VERTEX_POINT('',#1014);
#292=VERTEX_POINT('',#1016);
#293=VERTEX_POINT('',#1018);
#294=VERTEX_POINT('',#1020);
#295=VERTEX_POINT('',#1023);
#296=VERTEX_POINT('',#1024);
#297=VERTEX_POINT('',#1026);
#298=VERTEX_POINT('',#1028);
#299=VERTEX_POINT('',#1031);
#300=VERTEX_POINT('',#1033);
#301=VERTEX_POINT('',#1035);
#302=VERTEX_POINT('',#1037);
#303=VERTEX_POINT('',#1039);
#304=VERTEX_POINT('',#1042);
#305=VERTEX_POINT('',#1043);
#306=VERTEX_POINT('',#1050);
#307=VERTEX_POINT('',#1052);
#308=VERTEX_POINT('',#1058);
#309=VERTEX_POINT('',#1059);
#310=VERTEX_POINT('',#1066);
#311=VERTEX_POINT('',#1068);
#312=VERTEX_POINT('',#1074);
#313=VERTEX_POINT('',#1075);
#314=VERTEX_POINT('',#1086);
#315=VERTEX_POINT('',#1087);
#316=VERTEX_POINT('',#1089);
#317=VERTEX_POINT('',#1091);
#318=VERTEX_POINT('',#1095);
#319=VERTEX_POINT('',#1097);
#320=VERTEX_POINT('',#1101);
#321=VERTEX_POINT('',#1105);
#322=VERTEX_POINT('',#1116);
#323=VERTEX_POINT('',#1118);
#324=VERTEX_POINT('',#1120);
#325=VERTEX_POINT('',#1127);
#326=VERTEX_POINT('',#1129);
#327=VERTEX_POINT('',#1131);
#328=VERTEX_POINT('',#1138);
#329=VERTEX_POINT('',#1140);
#330=VERTEX_POINT('',#1142);
#331=VERTEX_POINT('',#1149);
#332=VERTEX_POINT('',#1151);
#333=VERTEX_POINT('',#1153);
#334=VERTEX_POINT('',#1160);
#335=VERTEX_POINT('',#1162);
#336=VERTEX_POINT('',#1166);
#337=EDGE_CURVE('',#281,#282,#237,.T.);
#338=EDGE_CURVE('',#282,#283,#238,.T.);
#339=EDGE_CURVE('',#283,#284,#239,.T.);
#340=EDGE_CURVE('',#284,#281,#240,.T.);
#341=EDGE_CURVE('',#285,#286,#241,.T.);
#342=EDGE_CURVE('',#286,#281,#43,.T.);
#343=EDGE_CURVE('',#284,#285,#44,.T.);
#344=EDGE_CURVE('',#281,#287,#45,.T.);
#345=EDGE_CURVE('',#288,#287,#242,.T.);
#346=EDGE_CURVE('',#288,#282,#46,.T.);
#347=EDGE_CURVE('',#289,#286,#47,.T.);
#348=EDGE_CURVE('',#287,#289,#48,.T.);
#349=EDGE_CURVE('',#285,#290,#49,.T.);
#350=EDGE_CURVE('',#291,#290,#243,.T.);
#351=EDGE_CURVE('',#291,#292,#50,.T.);
#352=EDGE_CURVE('',#293,#292,#244,.T.);
#353=EDGE_CURVE('',#293,#294,#51,.T.);
#354=EDGE_CURVE('',#289,#294,#245,.T.);
#355=EDGE_CURVE('',#295,#296,#52,.T.);
#356=EDGE_CURVE('',#297,#295,#53,.T.);
#357=EDGE_CURVE('',#298,#297,#54,.T.);
#358=EDGE_CURVE('',#296,#298,#55,.T.);
#359=EDGE_CURVE('',#299,#299,#246,.T.);
#360=EDGE_CURVE('',#300,#300,#247,.T.);
#361=EDGE_CURVE('',#301,#301,#248,.T.);
#362=EDGE_CURVE('',#302,#302,#249,.T.);
#363=EDGE_CURVE('',#303,#303,#250,.T.);
#364=EDGE_CURVE('',#304,#305,#251,.T.);
#365=EDGE_CURVE('',#305,#288,#252,.T.);
#366=EDGE_CURVE('',#287,#304,#253,.T.);
#367=EDGE_CURVE('',#294,#304,#56,.T.);
#368=EDGE_CURVE('',#304,#306,#57,.T.);
#369=EDGE_CURVE('',#307,#306,#254,.T.);
#370=EDGE_CURVE('',#307,#305,#58,.T.);
#371=EDGE_CURVE('',#306,#293,#59,.T.);
#372=EDGE_CURVE('',#308,#309,#255,.T.);
#373=EDGE_CURVE('',#309,#307,#256,.T.);
#374=EDGE_CURVE('',#306,#308,#257,.T.);
#375=EDGE_CURVE('',#292,#308,#60,.T.);
#376=EDGE_CURVE('',#308,#310,#61,.T.);
#377=EDGE_CURVE('',#311,#310,#258,.T.);
#378=EDGE_CURVE('',#311,#309,#62,.T.);
#379=EDGE_CURVE('',#310,#291,#63,.T.);
#380=EDGE_CURVE('',#312,#313,#259,.T.);
#381=EDGE_CURVE('',#313,#311,#260,.T.);
#382=EDGE_CURVE('',#310,#312,#261,.T.);
#383=EDGE_CURVE('',#290,#312,#64,.T.);
#384=EDGE_CURVE('',#283,#313,#65,.T.);
#385=EDGE_CURVE('',#312,#284,#66,.T.);
#386=EDGE_CURVE('',#314,#315,#67,.T.);
#387=EDGE_CURVE('',#316,#314,#68,.T.);
#388=EDGE_CURVE('',#317,#316,#69,.T.);
#389=EDGE_CURVE('',#315,#317,#70,.T.);
#390=EDGE_CURVE('',#315,#318,#15,.T.);
#391=EDGE_CURVE('',#318,#319,#71,.T.);
#392=EDGE_CURVE('',#314,#319,#16,.T.);
#393=EDGE_CURVE('',#317,#320,#17,.T.);
#394=EDGE_CURVE('',#320,#318,#72,.T.);
#395=EDGE_CURVE('',#316,#321,#18,.T.);
#396=EDGE_CURVE('',#321,#320,#73,.T.);
#397=EDGE_CURVE('',#319,#321,#74,.T.);
#398=EDGE_CURVE('',#295,#319,#75,.T.);
#399=EDGE_CURVE('',#296,#321,#76,.T.);
#400=EDGE_CURVE('',#297,#318,#77,.T.);
#401=EDGE_CURVE('',#322,#322,#262,.T.);
#402=EDGE_CURVE('',#322,#323,#263,.T.);
#403=EDGE_CURVE('',#323,#324,#264,.T.);
#404=EDGE_CURVE('',#324,#323,#265,.T.);
#405=EDGE_CURVE('',#299,#324,#78,.T.);
#406=EDGE_CURVE('',#325,#325,#266,.T.);
#407=EDGE_CURVE('',#325,#326,#267,.T.);
#408=EDGE_CURVE('',#326,#327,#268,.T.);
#409=EDGE_CURVE('',#327,#326,#269,.T.);
#410=EDGE_CURVE('',#301,#327,#79,.T.);
#411=EDGE_CURVE('',#328,#328,#270,.T.);
#412=EDGE_CURVE('',#328,#329,#271,.T.);
#413=EDGE_CURVE('',#329,#330,#272,.T.);
#414=EDGE_CURVE('',#330,#329,#273,.T.);
#415=EDGE_CURVE('',#302,#330,#80,.T.);
#416=EDGE_CURVE('',#331,#331,#274,.T.);
#417=EDGE_CURVE('',#331,#332,#275,.T.);
#418=EDGE_CURVE('',#332,#333,#276,.T.);
#419=EDGE_CURVE('',#333,#332,#277,.T.);
#420=EDGE_CURVE('',#303,#333,#81,.T.);
#421=EDGE_CURVE('',#334,#334,#278,.T.);
#422=EDGE_CURVE('',#334,#335,#82,.T.);
#423=EDGE_CURVE('',#335,#335,#279,.T.);
#424=EDGE_CURVE('',#300,#336,#83,.T.);
#425=EDGE_CURVE('',#336,#336,#280,.T.);
#426=EDGE_CURVE('',#298,#320,#84,.T.);
#427=ORIENTED_EDGE('',*,*,#337,.T.);
#428=ORIENTED_EDGE('',*,*,#338,.T.);
#429=ORIENTED_EDGE('',*,*,#339,.T.);
#430=ORIENTED_EDGE('',*,*,#340,.T.);
#431=ORIENTED_EDGE('',*,*,#341,.T.);
#432=ORIENTED_EDGE('',*,*,#342,.T.);
#433=ORIENTED_EDGE('',*,*,#340,.F.);
#434=ORIENTED_EDGE('',*,*,#343,.T.);
#435=ORIENTED_EDGE('',*,*,#337,.F.);
#436=ORIENTED_EDGE('',*,*,#344,.T.);
#437=ORIENTED_EDGE('',*,*,#345,.F.);
#438=ORIENTED_EDGE('',*,*,#346,.T.);
#439=ORIENTED_EDGE('',*,*,#342,.F.);
#440=ORIENTED_EDGE('',*,*,#347,.F.);
#441=ORIENTED_EDGE('',*,*,#348,.F.);
#442=ORIENTED_EDGE('',*,*,#344,.F.);
#443=ORIENTED_EDGE('',*,*,#341,.F.);
#444=ORIENTED_EDGE('',*,*,#349,.T.);
#445=ORIENTED_EDGE('',*,*,#350,.F.);
#446=ORIENTED_EDGE('',*,*,#351,.T.);
#447=ORIENTED_EDGE('',*,*,#352,.F.);
#448=ORIENTED_EDGE('',*,*,#353,.T.);
#449=ORIENTED_EDGE('',*,*,#354,.F.);
#450=ORIENTED_EDGE('',*,*,#347,.T.);
#451=ORIENTED_EDGE('',*,*,#355,.F.);
#452=ORIENTED_EDGE('',*,*,#356,.F.);
#453=ORIENTED_EDGE('',*,*,#357,.F.);
#454=ORIENTED_EDGE('',*,*,#358,.F.);
#455=ORIENTED_EDGE('',*,*,#359,.T.);
#456=ORIENTED_EDGE('',*,*,#360,.T.);
#457=ORIENTED_EDGE('',*,*,#361,.T.);
#458=ORIENTED_EDGE('',*,*,#362,.T.);
#459=ORIENTED_EDGE('',*,*,#363,.T.);
#460=ORIENTED_EDGE('',*,*,#364,.T.);
#461=ORIENTED_EDGE('',*,*,#365,.T.);
#462=ORIENTED_EDGE('',*,*,#345,.T.);
#463=ORIENTED_EDGE('',*,*,#366,.T.);
#464=ORIENTED_EDGE('',*,*,#354,.T.);
#465=ORIENTED_EDGE('',*,*,#367,.T.);
#466=ORIENTED_EDGE('',*,*,#366,.F.);
#467=ORIENTED_EDGE('',*,*,#348,.T.);
#468=ORIENTED_EDGE('',*,*,#364,.F.);
#469=ORIENTED_EDGE('',*,*,#368,.T.);
#470=ORIENTED_EDGE('',*,*,#369,.F.);
#471=ORIENTED_EDGE('',*,*,#370,.T.);
#472=ORIENTED_EDGE('',*,*,#367,.F.);
#473=ORIENTED_EDGE('',*,*,#353,.F.);
#474=ORIENTED_EDGE('',*,*,#371,.F.);
#475=ORIENTED_EDGE('',*,*,#368,.F.);
#476=ORIENTED_EDGE('',*,*,#372,.T.);
#477=ORIENTED_EDGE('',*,*,#373,.T.);
#478=ORIENTED_EDGE('',*,*,#369,.T.);
#479=ORIENTED_EDGE('',*,*,#374,.T.);
#480=ORIENTED_EDGE('',*,*,#352,.T.);
#481=ORIENTED_EDGE('',*,*,#375,.T.);
#482=ORIENTED_EDGE('',*,*,#374,.F.);
#483=ORIENTED_EDGE('',*,*,#371,.T.);
#484=ORIENTED_EDGE('',*,*,#372,.F.);
#485=ORIENTED_EDGE('',*,*,#376,.T.);
#486=ORIENTED_EDGE('',*,*,#377,.F.);
#487=ORIENTED_EDGE('',*,*,#378,.T.);
#488=ORIENTED_EDGE('',*,*,#375,.F.);
#489=ORIENTED_EDGE('',*,*,#351,.F.);
#490=ORIENTED_EDGE('',*,*,#379,.F.);
#491=ORIENTED_EDGE('',*,*,#376,.F.);
#492=ORIENTED_EDGE('',*,*,#380,.T.);
#493=ORIENTED_EDGE('',*,*,#381,.T.);
#494=ORIENTED_EDGE('',*,*,#377,.T.);
#495=ORIENTED_EDGE('',*,*,#382,.T.);
#496=ORIENTED_EDGE('',*,*,#350,.T.);
#497=ORIENTED_EDGE('',*,*,#383,.T.);
#498=ORIENTED_EDGE('',*,*,#382,.F.);
#499=ORIENTED_EDGE('',*,*,#379,.T.);
#500=ORIENTED_EDGE('',*,*,#339,.F.);
#501=ORIENTED_EDGE('',*,*,#384,.T.);
#502=ORIENTED_EDGE('',*,*,#380,.F.);
#503=ORIENTED_EDGE('',*,*,#385,.T.);
#504=ORIENTED_EDGE('',*,*,#343,.F.);
#505=ORIENTED_EDGE('',*,*,#385,.F.);
#506=ORIENTED_EDGE('',*,*,#383,.F.);
#507=ORIENTED_EDGE('',*,*,#349,.F.);
#508=ORIENTED_EDGE('',*,*,#338,.F.);
#509=ORIENTED_EDGE('',*,*,#346,.F.);
#510=ORIENTED_EDGE('',*,*,#365,.F.);
#511=ORIENTED_EDGE('',*,*,#370,.F.);
#512=ORIENTED_EDGE('',*,*,#373,.F.);
#513=ORIENTED_EDGE('',*,*,#378,.F.);
#514=ORIENTED_EDGE('',*,*,#381,.F.);
#515=ORIENTED_EDGE('',*,*,#384,.F.);
#516=ORIENTED_EDGE('',*,*,#386,.F.);
#517=ORIENTED_EDGE('',*,*,#387,.F.);
#518=ORIENTED_EDGE('',*,*,#388,.F.);
#519=ORIENTED_EDGE('',*,*,#389,.F.);
#520=ORIENTED_EDGE('',*,*,#386,.T.);
#521=ORIENTED_EDGE('',*,*,#390,.T.);
#522=ORIENTED_EDGE('',*,*,#391,.T.);
#523=ORIENTED_EDGE('',*,*,#392,.F.);
#524=ORIENTED_EDGE('',*,*,#389,.T.);
#525=ORIENTED_EDGE('',*,*,#393,.T.);
#526=ORIENTED_EDGE('',*,*,#394,.T.);
#527=ORIENTED_EDGE('',*,*,#390,.F.);
#528=ORIENTED_EDGE('',*,*,#388,.T.);
#529=ORIENTED_EDGE('',*,*,#395,.T.);
#530=ORIENTED_EDGE('',*,*,#396,.T.);
#531=ORIENTED_EDGE('',*,*,#393,.F.);
#532=ORIENTED_EDGE('',*,*,#397,.T.);
#533=ORIENTED_EDGE('',*,*,#395,.F.);
#534=ORIENTED_EDGE('',*,*,#387,.T.);
#535=ORIENTED_EDGE('',*,*,#392,.T.);
#536=ORIENTED_EDGE('',*,*,#397,.F.);
#537=ORIENTED_EDGE('',*,*,#398,.F.);
#538=ORIENTED_EDGE('',*,*,#355,.T.);
#539=ORIENTED_EDGE('',*,*,#399,.T.);
#540=ORIENTED_EDGE('',*,*,#391,.F.);
#541=ORIENTED_EDGE('',*,*,#400,.F.);
#542=ORIENTED_EDGE('',*,*,#356,.T.);
#543=ORIENTED_EDGE('',*,*,#398,.T.);
#544=ORIENTED_EDGE('',*,*,#401,.T.);
#545=ORIENTED_EDGE('',*,*,#402,.T.);
#546=ORIENTED_EDGE('',*,*,#403,.T.);
#547=ORIENTED_EDGE('',*,*,#404,.T.);
#548=ORIENTED_EDGE('',*,*,#402,.F.);
#549=ORIENTED_EDGE('',*,*,#359,.F.);
#550=ORIENTED_EDGE('',*,*,#405,.T.);
#551=ORIENTED_EDGE('',*,*,#403,.F.);
#552=ORIENTED_EDGE('',*,*,#404,.F.);
#553=ORIENTED_EDGE('',*,*,#405,.F.);
#554=ORIENTED_EDGE('',*,*,#401,.F.);
#555=ORIENTED_EDGE('',*,*,#406,.T.);
#556=ORIENTED_EDGE('',*,*,#407,.T.);
#557=ORIENTED_EDGE('',*,*,#408,.T.);
#558=ORIENTED_EDGE('',*,*,#409,.T.);
#559=ORIENTED_EDGE('',*,*,#407,.F.);
#560=ORIENTED_EDGE('',*,*,#361,.F.);
#561=ORIENTED_EDGE('',*,*,#410,.T.);
#562=ORIENTED_EDGE('',*,*,#408,.F.);
#563=ORIENTED_EDGE('',*,*,#409,.F.);
#564=ORIENTED_EDGE('',*,*,#410,.F.);
#565=ORIENTED_EDGE('',*,*,#406,.F.);
#566=ORIENTED_EDGE('',*,*,#411,.T.);
#567=ORIENTED_EDGE('',*,*,#412,.T.);
#568=ORIENTED_EDGE('',*,*,#413,.T.);
#569=ORIENTED_EDGE('',*,*,#414,.T.);
#570=ORIENTED_EDGE('',*,*,#412,.F.);
#571=ORIENTED_EDGE('',*,*,#362,.F.);
#572=ORIENTED_EDGE('',*,*,#415,.T.);
#573=ORIENTED_EDGE('',*,*,#413,.F.);
#574=ORIENTED_EDGE('',*,*,#414,.F.);
#575=ORIENTED_EDGE('',*,*,#415,.F.);
#576=ORIENTED_EDGE('',*,*,#411,.F.);
#577=ORIENTED_EDGE('',*,*,#416,.T.);
#578=ORIENTED_EDGE('',*,*,#417,.T.);
#579=ORIENTED_EDGE('',*,*,#418,.T.);
#580=ORIENTED_EDGE('',*,*,#419,.T.);
#581=ORIENTED_EDGE('',*,*,#417,.F.);
#582=ORIENTED_EDGE('',*,*,#363,.F.);
#583=ORIENTED_EDGE('',*,*,#420,.T.);
#584=ORIENTED_EDGE('',*,*,#418,.F.);
#585=ORIENTED_EDGE('',*,*,#419,.F.);
#586=ORIENTED_EDGE('',*,*,#420,.F.);
#587=ORIENTED_EDGE('',*,*,#416,.F.);
#588=ORIENTED_EDGE('',*,*,#421,.F.);
#589=ORIENTED_EDGE('',*,*,#422,.T.);
#590=ORIENTED_EDGE('',*,*,#423,.T.);
#591=ORIENTED_EDGE('',*,*,#422,.F.);
#592=ORIENTED_EDGE('',*,*,#360,.F.);
#593=ORIENTED_EDGE('',*,*,#424,.T.);
#594=ORIENTED_EDGE('',*,*,#425,.T.);
#595=ORIENTED_EDGE('',*,*,#424,.F.);
#596=ORIENTED_EDGE('',*,*,#425,.F.);
#597=ORIENTED_EDGE('',*,*,#423,.F.);
#598=ORIENTED_EDGE('',*,*,#394,.F.);
#599=ORIENTED_EDGE('',*,*,#426,.F.);
#600=ORIENTED_EDGE('',*,*,#357,.T.);
#601=ORIENTED_EDGE('',*,*,#400,.T.);
#602=ORIENTED_EDGE('',*,*,#396,.F.);
#603=ORIENTED_EDGE('',*,*,#399,.F.);
#604=ORIENTED_EDGE('',*,*,#358,.T.);
#605=ORIENTED_EDGE('',*,*,#426,.T.);
#606=ORIENTED_EDGE('',*,*,#421,.T.);
#607=TOROIDAL_SURFACE('',#671,6.2,0.5);
#608=TOROIDAL_SURFACE('',#690,6.2,0.5);
#609=TOROIDAL_SURFACE('',#698,6.2,0.5);
#610=TOROIDAL_SURFACE('',#706,6.2,0.5);
#611=TOROIDAL_SURFACE('',#724,1.,0.2);
#612=TOROIDAL_SURFACE('',#731,1.,0.2);
#613=TOROIDAL_SURFACE('',#738,1.,0.2);
#614=TOROIDAL_SURFACE('',#745,1.,0.2);
#615=ADVANCED_FACE('',(#145),#607,.T.);
#616=ADVANCED_FACE('',(#146),#127,.T.);
#617=ADVANCED_FACE('',(#147),#128,.T.);
#618=ADVANCED_FACE('',(#148),#27,.T.);
#619=ADVANCED_FACE('',(#149,#19,#20,#21,#22,#23,#24),#28,.F.);
#620=ADVANCED_FACE('',(#150),#608,.T.);
#621=ADVANCED_FACE('',(#151),#129,.T.);
#622=ADVANCED_FACE('',(#152),#130,.T.);
#623=ADVANCED_FACE('',(#153),#29,.T.);
#624=ADVANCED_FACE('',(#154),#609,.T.);
#625=ADVANCED_FACE('',(#155),#131,.T.);
#626=ADVANCED_FACE('',(#156),#132,.T.);
#627=ADVANCED_FACE('',(#157),#30,.T.);
#628=ADVANCED_FACE('',(#158),#610,.T.);
#629=ADVANCED_FACE('',(#159),#133,.T.);
#630=ADVANCED_FACE('',(#160),#134,.T.);
#631=ADVANCED_FACE('',(#161),#31,.T.);
#632=ADVANCED_FACE('',(#162,#25),#32,.T.);
#633=ADVANCED_FACE('',(#163),#135,.T.);
#634=ADVANCED_FACE('',(#164),#136,.T.);
#635=ADVANCED_FACE('',(#165),#137,.T.);
#636=ADVANCED_FACE('',(#166),#138,.T.);
#637=ADVANCED_FACE('',(#167),#33,.T.);
#638=ADVANCED_FACE('',(#168),#34,.T.);
#639=ADVANCED_FACE('',(#169),#611,.F.);
#640=ADVANCED_FACE('',(#170),#139,.F.);
#641=ADVANCED_FACE('',(#171),#35,.F.);
#642=ADVANCED_FACE('',(#172),#612,.F.);
#643=ADVANCED_FACE('',(#173),#140,.F.);
#644=ADVANCED_FACE('',(#174),#36,.F.);
#645=ADVANCED_FACE('',(#175),#613,.F.);
#646=ADVANCED_FACE('',(#176),#141,.F.);
#647=ADVANCED_FACE('',(#177),#37,.F.);
#648=ADVANCED_FACE('',(#178),#614,.F.);
#649=ADVANCED_FACE('',(#179),#142,.F.);
#650=ADVANCED_FACE('',(#180),#38,.F.);
#651=ADVANCED_FACE('',(#181),#143,.T.);
#652=ADVANCED_FACE('',(#182),#144,.F.);
#653=ADVANCED_FACE('',(#183,#26),#39,.F.);
#654=ADVANCED_FACE('',(#184),#40,.T.);
#655=ADVANCED_FACE('',(#185),#41,.T.);
#656=ADVANCED_FACE('',(#186),#42,.F.);
#657=CLOSED_SHELL('',(#615,#616,#617,#618,#619,#620,#621,#622,#623,#624,
#625,#626,#627,#628,#629,#630,#631,#632,#633,#634,#635,#636,#637,#638,#639,
#640,#641,#642,#643,#644,#645,#646,#647,#648,#649,#650,#651,#652,#653,#654,
#655,#656));
#658=DERIVED_UNIT_ELEMENT(#660,1.);
#659=DERIVED_UNIT_ELEMENT(#1179,-3.);
#660=(
MASS_UNIT()
NAMED_UNIT(*)
SI_UNIT(.KILO.,.GRAM.)
);
#661=DERIVED_UNIT((#658,#659));
#662=MEASURE_REPRESENTATION_ITEM('density measure',
POSITIVE_RATIO_MEASURE(7850.),#661);
#663=PROPERTY_DEFINITION_REPRESENTATION(#668,#665);
#664=PROPERTY_DEFINITION_REPRESENTATION(#669,#666);
#665=REPRESENTATION('material name',(#667),#1176);
#666=REPRESENTATION('density',(#662),#1176);
#667=DESCRIPTIVE_REPRESENTATION_ITEM('Acier','Acier');
#668=PROPERTY_DEFINITION('material property','material name',#1186);
#669=PROPERTY_DEFINITION('material property','density of part',#1186);
#670=AXIS2_PLACEMENT_3D('',#985,#761,#762);
#671=AXIS2_PLACEMENT_3D('',#986,#763,#764);
#672=AXIS2_PLACEMENT_3D('',#989,#765,#766);
#673=AXIS2_PLACEMENT_3D('',#991,#767,#768);
#674=AXIS2_PLACEMENT_3D('',#993,#769,#770);
#675=AXIS2_PLACEMENT_3D('',#994,#771,#772);
#676=AXIS2_PLACEMENT_3D('',#995,#773,#774);
#677=AXIS2_PLACEMENT_3D('',#998,#775,#776);
#678=AXIS2_PLACEMENT_3D('',#1001,#779,#780);
#679=AXIS2_PLACEMENT_3D('',#1005,#782,#783);
#680=AXIS2_PLACEMENT_3D('',#1007,#785,#786);
#681=AXIS2_PLACEMENT_3D('',#1011,#789,#790);
#682=AXIS2_PLACEMENT_3D('',#1015,#792,#793);
#683=AXIS2_PLACEMENT_3D('',#1019,#795,#796);
#684=AXIS2_PLACEMENT_3D('',#1022,#798,#799);
#685=AXIS2_PLACEMENT_3D('',#1032,#804,#805);
#686=AXIS2_PLACEMENT_3D('',#1034,#806,#807);
#687=AXIS2_PLACEMENT_3D('',#1036,#808,#809);
#688=AXIS2_PLACEMENT_3D('',#1038,#810,#811);
#689=AXIS2_PLACEMENT_3D('',#1040,#812,#813);
#690=AXIS2_PLACEMENT_3D('',#1041,#814,#815);
#691=AXIS2_PLACEMENT_3D('',#1044,#816,#817);
#692=AXIS2_PLACEMENT_3D('',#1045,#818,#819);
#693=AXIS2_PLACEMENT_3D('',#1046,#820,#821);
#694=AXIS2_PLACEMENT_3D('',#1047,#822,#823);
#695=AXIS2_PLACEMENT_3D('',#1049,#825,#826);
#696=AXIS2_PLACEMENT_3D('',#1053,#828,#829);
#697=AXIS2_PLACEMENT_3D('',#1055,#831,#832);
#698=AXIS2_PLACEMENT_3D('',#1057,#834,#835);
#699=AXIS2_PLACEMENT_3D('',#1060,#836,#837);
#700=AXIS2_PLACEMENT_3D('',#1061,#838,#839);
#701=AXIS2_PLACEMENT_3D('',#1062,#840,#841);
#702=AXIS2_PLACEMENT_3D('',#1063,#842,#843);
#703=AXIS2_PLACEMENT_3D('',#1065,#845,#846);
#704=AXIS2_PLACEMENT_3D('',#1069,#848,#849);
#705=AXIS2_PLACEMENT_3D('',#1071,#851,#852);
#706=AXIS2_PLACEMENT_3D('',#1073,#854,#855);
#707=AXIS2_PLACEMENT_3D('',#1076,#856,#857);
#708=AXIS2_PLACEMENT_3D('',#1077,#858,#859);
#709=AXIS2_PLACEMENT_3D('',#1078,#860,#861);
#710=AXIS2_PLACEMENT_3D('',#1079,#862,#863);
#711=AXIS2_PLACEMENT_3D('',#1081,#865,#866);
#712=AXIS2_PLACEMENT_3D('',#1084,#869,#870);
#713=AXIS2_PLACEMENT_3D('',#1085,#871,#872);
#714=AXIS2_PLACEMENT_3D('',#1094,#877,#878);
#715=AXIS2_PLACEMENT_3D('',#1096,#879,#880);
#716=AXIS2_PLACEMENT_3D('',#1099,#882,#883);
#717=AXIS2_PLACEMENT_3D('',#1100,#884,#885);
#718=AXIS2_PLACEMENT_3D('',#1102,#886,#887);
#719=AXIS2_PLACEMENT_3D('',#1104,#889,#890);
#720=AXIS2_PLACEMENT_3D('',#1106,#891,#892);
#721=AXIS2_PLACEMENT_3D('',#1108,#894,#895);
#722=AXIS2_PLACEMENT_3D('',#1110,#897,#898);
#723=AXIS2_PLACEMENT_3D('',#1113,#901,#902);
#724=AXIS2_PLACEMENT_3D('',#1115,#904,#905);
#725=AXIS2_PLACEMENT_3D('',#1117,#906,#907);
#726=AXIS2_PLACEMENT_3D('',#1119,#908,#909);
#727=AXIS2_PLACEMENT_3D('',#1121,#910,#911);
#728=AXIS2_PLACEMENT_3D('',#1122,#912,#913);
#729=AXIS2_PLACEMENT_3D('',#1123,#914,#915);
#730=AXIS2_PLACEMENT_3D('',#1125,#917,#918);
#731=AXIS2_PLACEMENT_3D('',#1126,#919,#920);
#732=AXIS2_PLACEMENT_3D('',#1128,#921,#922);
#733=AXIS2_PLACEMENT_3D('',#1130,#923,#924);
#734=AXIS2_PLACEMENT_3D('',#1132,#925,#926);
#735=AXIS2_PLACEMENT_3D('',#1133,#927,#928);
#736=AXIS2_PLACEMENT_3D('',#1134,#929,#930);
#737=AXIS2_PLACEMENT_3D('',#1136,#932,#933);
#738=AXIS2_PLACEMENT_3D('',#1137,#934,#935);
#739=AXIS2_PLACEMENT_3D('',#1139,#936,#937);
#740=AXIS2_PLACEMENT_3D('',#1141,#938,#939);
#741=AXIS2_PLACEMENT_3D('',#1143,#940,#941);
#742=AXIS2_PLACEMENT_3D('',#1144,#942,#943);
#743=AXIS2_PLACEMENT_3D('',#1145,#944,#945);
#744=AXIS2_PLACEMENT_3D('',#1147,#947,#948);
#745=AXIS2_PLACEMENT_3D('',#1148,#949,#950);
#746=AXIS2_PLACEMENT_3D('',#1150,#951,#952);
#747=AXIS2_PLACEMENT_3D('',#1152,#953,#954);
#748=AXIS2_PLACEMENT_3D('',#1154,#955,#956);
#749=AXIS2_PLACEMENT_3D('',#1155,#957,#958);
#750=AXIS2_PLACEMENT_3D('',#1156,#959,#960);
#751=AXIS2_PLACEMENT_3D('',#1158,#962,#963);
#752=AXIS2_PLACEMENT_3D('',#1159,#964,#965);
#753=AXIS2_PLACEMENT_3D('',#1161,#966,#967);
#754=AXIS2_PLACEMENT_3D('',#1164,#969,#970);
#755=AXIS2_PLACEMENT_3D('',#1165,#971,#972);
#756=AXIS2_PLACEMENT_3D('',#1168,#974,#975);
#757=AXIS2_PLACEMENT_3D('',#1169,#976,#977);
#758=AXIS2_PLACEMENT_3D('',#1170,#978,#979);
#759=AXIS2_PLACEMENT_3D('',#1172,#981,#982);
#760=AXIS2_PLACEMENT_3D('',#1173,#983,#984);
#761=DIRECTION('axis',(0.,0.,1.));
#762=DIRECTION('refdir',(1.,0.,0.));
#763=DIRECTION('center_axis',(0.,1.,0.));
#764=DIRECTION('ref_axis',(0.,0.,1.));
#765=DIRECTION('center_axis',(1.,0.,0.));
#766=DIRECTION('ref_axis',(0.,0.,-1.));
#767=DIRECTION('center_axis',(0.,-1.,0.));
#768=DIRECTION('ref_axis',(0.707106781186548,0.,-0.707106781186548));
#769=DIRECTION('center_axis',(0.,0.,-1.));
#770=DIRECTION('ref_axis',(0.,1.,0.));
#771=DIRECTION('center_axis',(0.,1.,0.));
#772=DIRECTION('ref_axis',(0.707106781186548,0.,-0.707106781186548));
#773=DIRECTION('center_axis',(0.,1.,0.));
#774=DIRECTION('ref_axis',(0.707106781186548,0.,-0.707106781186548));
#775=DIRECTION('center_axis',(0.,1.,0.));
#776=DIRECTION('ref_axis',(0.707106781186548,0.,-0.707106781186548));
#777=DIRECTION('',(0.,1.,0.));
#778=DIRECTION('',(0.,-1.,0.));
#779=DIRECTION('center_axis',(-1.,0.,-4.85874409026327E-17));
#780=DIRECTION('ref_axis',(0.,0.707106781186555,-0.70710678118654));
#781=DIRECTION('',(-1.,0.,-4.85874409026327E-17));
#782=DIRECTION('center_axis',(-1.,0.,0.));
#783=DIRECTION('ref_axis',(0.,1.,0.));
#784=DIRECTION('',(1.,0.,4.85874409026327E-17));
#785=DIRECTION('center_axis',(4.85874409026327E-17,0.,-1.));
#786=DIRECTION('ref_axis',(-1.,0.,-4.85874409026327E-17));
#787=DIRECTION('',(1.,0.,4.85874409026327E-17));
#788=DIRECTION('',(0.,-1.,0.));
#789=DIRECTION('center_axis',(0.,1.,0.));
#790=DIRECTION('ref_axis',(1.,0.,0.));
#791=DIRECTION('',(0.,0.,1.));
#792=DIRECTION('center_axis',(0.,1.,0.));
#793=DIRECTION('ref_axis',(0.707106781186548,0.,0.707106781186548));
#794=DIRECTION('',(-1.,0.,4.85874409026327E-17));
#795=DIRECTION('center_axis',(0.,1.,0.));
#796=DIRECTION('ref_axis',(-0.707106781186548,0.,0.707106781186548));
#797=DIRECTION('',(0.,0.,-1.));
#798=DIRECTION('center_axis',(0.,1.,0.));
#799=DIRECTION('ref_axis',(-0.707106781186548,0.,-0.707106781186548));
#800=DIRECTION('',(-1.,0.,0.));
#801=DIRECTION('',(0.,0.,1.));
#802=DIRECTION('',(1.,0.,0.));
#803=DIRECTION('',(0.,0.,-1.));
#804=DIRECTION('center_axis',(0.,1.,0.));
#805=DIRECTION('ref_axis',(1.,0.,0.));
#806=DIRECTION('center_axis',(0.,1.,0.));
#807=DIRECTION('ref_axis',(1.,0.,0.));
#808=DIRECTION('center_axis',(0.,1.,0.));
#809=DIRECTION('ref_axis',(1.,0.,0.));
#810=DIRECTION('center_axis',(0.,1.,0.));
#811=DIRECTION('ref_axis',(1.,0.,0.));
#812=DIRECTION('center_axis',(0.,1.,0.));
#813=DIRECTION('ref_axis',(1.,0.,0.));
#814=DIRECTION('center_axis',(0.,1.,0.));
#815=DIRECTION('ref_axis',(0.,0.,1.));
#816=DIRECTION('center_axis',(0.,0.,-1.));
#817=DIRECTION('ref_axis',(-1.,0.,0.));
#818=DIRECTION('center_axis',(0.,-1.,0.));
#819=DIRECTION('ref_axis',(-0.707106781186548,0.,-0.707106781186547));
#820=DIRECTION('center_axis',(0.,1.,0.));
#821=DIRECTION('ref_axis',(-0.707106781186548,0.,-0.707106781186547));
#822=DIRECTION('center_axis',(0.,1.,0.));
#823=DIRECTION('ref_axis',(-0.707106781186548,0.,-0.707106781186548));
#824=DIRECTION('',(0.,1.,0.));
#825=DIRECTION('center_axis',(0.,0.,1.));
#826=DIRECTION('ref_axis',(-0.70710678118654,0.707106781186555,0.));
#827=DIRECTION('',(0.,0.,1.));
#828=DIRECTION('center_axis',(0.,0.,1.));
#829=DIRECTION('ref_axis',(0.,1.,0.));
#830=DIRECTION('',(0.,0.,-1.));
#831=DIRECTION('center_axis',(-1.,0.,0.));
#832=DIRECTION('ref_axis',(0.,0.,1.));
#833=DIRECTION('',(0.,-1.,0.));
#834=DIRECTION('center_axis',(0.,1.,0.));
#835=DIRECTION('ref_axis',(0.,0.,1.));
#836=DIRECTION('center_axis',(-1.,0.,0.));
#837=DIRECTION('ref_axis',(0.,0.,1.));
#838=DIRECTION('center_axis',(0.,-1.,0.));
#839=DIRECTION('ref_axis',(-0.707106781186548,0.,0.707106781186547));
#840=DIRECTION('center_axis',(0.,1.,0.));
#841=DIRECTION('ref_axis',(-0.707106781186548,0.,0.707106781186547));
#842=DIRECTION('center_axis',(0.,1.,0.));
#843=DIRECTION('ref_axis',(-0.707106781186548,0.,0.707106781186548));
#844=DIRECTION('',(0.,1.,0.));
#845=DIRECTION('center_axis',(1.,0.,-4.85874409026327E-17));
#846=DIRECTION('ref_axis',(0.,0.707106781186549,0.707106781186546));
#847=DIRECTION('',(1.,0.,-4.85874409026327E-17));
#848=DIRECTION('center_axis',(1.,0.,0.));
#849=DIRECTION('ref_axis',(0.,1.,-8.88178419700125E-15));
#850=DIRECTION('',(-1.,0.,4.85874409026327E-17));
#851=DIRECTION('center_axis',(4.85874409026327E-17,0.,1.));
#852=DIRECTION('ref_axis',(1.,0.,-4.85874409026327E-17));
#853=DIRECTION('',(0.,-1.,0.));
#854=DIRECTION('center_axis',(0.,1.,0.));
#855=DIRECTION('ref_axis',(0.,0.,1.));
#856=DIRECTION('center_axis',(0.,0.,1.));
#857=DIRECTION('ref_axis',(1.,0.,0.));
#858=DIRECTION('center_axis',(0.,-1.,0.));
#859=DIRECTION('ref_axis',(0.707106781186548,0.,0.707106781186547));
#860=DIRECTION('center_axis',(0.,1.,0.));
#861=DIRECTION('ref_axis',(0.707106781186548,0.,0.707106781186547));
#862=DIRECTION('center_axis',(0.,1.,0.));
#863=DIRECTION('ref_axis',(0.707106781186548,0.,0.707106781186548));
#864=DIRECTION('',(0.,1.,0.));
#865=DIRECTION('center_axis',(0.,0.,-1.));
#866=DIRECTION('ref_axis',(0.70710678118654,0.707106781186555,0.));
#867=DIRECTION('',(0.,0.,1.));
#868=DIRECTION('',(0.,0.,-1.));
#869=DIRECTION('center_axis',(1.,0.,0.));
#870=DIRECTION('ref_axis',(0.,0.,-1.));
#871=DIRECTION('center_axis',(0.,1.,0.));
#872=DIRECTION('ref_axis',(0.,0.,1.));
#873=DIRECTION('',(0.,0.,-1.));
#874=DIRECTION('',(1.,0.,0.));
#875=DIRECTION('',(0.,0.,1.));
#876=DIRECTION('',(-1.,0.,0.));
#877=DIRECTION('center_axis',(0.,0.,1.));
#878=DIRECTION('ref_axis',(-0.707106781186546,0.707106781186549,0.));
#879=DIRECTION('center_axis',(0.707106781186548,0.,0.707106781186548));
#880=DIRECTION('ref_axis',(0.707106781186547,0.,-0.707106781186547));
#881=DIRECTION('',(0.,0.,1.));
#882=DIRECTION('center_axis',(-0.707106781186548,0.,0.707106781186548));
#883=DIRECTION('ref_axis',(0.707106781186547,0.,0.707106781186547));
#884=DIRECTION('center_axis',(1.,0.,0.));
#885=DIRECTION('ref_axis',(0.,0.707106781186549,0.707106781186546));
#886=DIRECTION('center_axis',(0.707106781186548,0.,-0.707106781186548));
#887=DIRECTION('ref_axis',(-0.707106781186547,0.,-0.707106781186547));
#888=DIRECTION('',(1.,0.,0.));
#889=DIRECTION('center_axis',(0.,0.,-1.));
#890=DIRECTION('ref_axis',(0.707106781186546,0.707106781186549,0.));
#891=DIRECTION('center_axis',(-0.707106781186548,0.,-0.707106781186548));
#892=DIRECTION('ref_axis',(-0.707106781186547,0.,0.707106781186547));
#893=DIRECTION('',(0.,0.,-1.));
#894=DIRECTION('center_axis',(-1.,0.,0.));
#895=DIRECTION('ref_axis',(0.,0.707106781186549,-0.707106781186546));
#896=DIRECTION('',(-1.,0.,0.));
#897=DIRECTION('center_axis',(0.,0.,-1.));
#898=DIRECTION('ref_axis',(-1.,0.,0.));
#899=DIRECTION('',(0.,1.,0.));
#900=DIRECTION('',(0.,1.,0.));
#901=DIRECTION('center_axis',(-1.,0.,0.));
#902=DIRECTION('ref_axis',(0.,0.,1.));
#903=DIRECTION('',(0.,1.,0.));
#904=DIRECTION('center_axis',(0.,1.,0.));
#905=DIRECTION('ref_axis',(0.,0.,1.));
#906=DIRECTION('center_axis',(0.,1.,0.));
#907=DIRECTION('ref_axis',(1.,0.,0.));
#908=DIRECTION('center_axis',(-1.,0.,0.));
#909=DIRECTION('ref_axis',(0.,0.,-1.));
#910=DIRECTION('center_axis',(0.,-1.,0.));
#911=DIRECTION('ref_axis',(1.,0.,0.));
#912=DIRECTION('center_axis',(0.,-1.,0.));
#913=DIRECTION('ref_axis',(1.,0.,0.));
#914=DIRECTION('center_axis',(0.,1.,0.));
#915=DIRECTION('ref_axis',(1.,0.,0.));
#916=DIRECTION('',(0.,1.,0.));
#917=DIRECTION('center_axis',(0.,1.,0.));
#918=DIRECTION('ref_axis',(1.,0.,0.));
#919=DIRECTION('center_axis',(0.,1.,0.));
#920=DIRECTION('ref_axis',(0.,0.,1.));
#921=DIRECTION('center_axis',(0.,1.,0.));
#922=DIRECTION('ref_axis',(1.,0.,0.));
#923=DIRECTION('center_axis',(-1.,0.,0.));
#924=DIRECTION('ref_axis',(0.,0.,-1.));
#925=DIRECTION('center_axis',(0.,-1.,0.));
#926=DIRECTION('ref_axis',(1.,0.,0.));
#927=DIRECTION('center_axis',(0.,-1.,0.));
#928=DIRECTION('ref_axis',(1.,0.,0.));
#929=DIRECTION('center_axis',(0.,1.,0.));
#930=DIRECTION('ref_axis',(1.,0.,0.));
#931=DIRECTION('',(0.,1.,0.));
#932=DIRECTION('center_axis',(0.,1.,0.));
#933=DIRECTION('ref_axis',(1.,0.,0.));
#934=DIRECTION('center_axis',(0.,1.,0.));
#935=DIRECTION('ref_axis',(0.,0.,1.));
#936=DIRECTION('center_axis',(0.,1.,0.));
#937=DIRECTION('ref_axis',(1.,0.,0.));
#938=DIRECTION('center_axis',(-1.,0.,0.));
#939=DIRECTION('ref_axis',(0.,0.,-1.));
#940=DIRECTION('center_axis',(0.,-1.,0.));
#941=DIRECTION('ref_axis',(1.,0.,0.));
#942=DIRECTION('center_axis',(0.,-1.,0.));
#943=DIRECTION('ref_axis',(1.,0.,0.));
#944=DIRECTION('center_axis',(0.,1.,0.));
#945=DIRECTION('ref_axis',(1.,0.,0.));
#946=DIRECTION('',(0.,1.,0.));
#947=DIRECTION('center_axis',(0.,1.,0.));
#948=DIRECTION('ref_axis',(1.,0.,0.));
#949=DIRECTION('center_axis',(0.,1.,0.));
#950=DIRECTION('ref_axis',(0.,0.,1.));
#951=DIRECTION('center_axis',(0.,1.,0.));
#952=DIRECTION('ref_axis',(1.,0.,0.));
#953=DIRECTION('center_axis',(-1.,0.,0.));
#954=DIRECTION('ref_axis',(0.,0.,-1.));
#955=DIRECTION('center_axis',(0.,-1.,0.));
#956=DIRECTION('ref_axis',(1.,0.,0.));
#957=DIRECTION('center_axis',(0.,-1.,0.));
#958=DIRECTION('ref_axis',(1.,0.,0.));
#959=DIRECTION('center_axis',(0.,1.,0.));
#960=DIRECTION('ref_axis',(1.,0.,0.));
#961=DIRECTION('',(0.,1.,0.));
#962=DIRECTION('center_axis',(0.,1.,0.));
#963=DIRECTION('ref_axis',(1.,0.,0.));
#964=DIRECTION('center_axis',(0.,1.,0.));
#965=DIRECTION('ref_axis',(1.,0.,0.));
#966=DIRECTION('center_axis',(0.,-1.,0.));
#967=DIRECTION('ref_axis',(1.,0.,0.));
#968=DIRECTION('',(0.,1.,0.));
#969=DIRECTION('center_axis',(0.,-1.,0.));
#970=DIRECTION('ref_axis',(1.,0.,0.));
#971=DIRECTION('center_axis',(0.,1.,0.));
#972=DIRECTION('ref_axis',(1.,0.,0.));
#973=DIRECTION('',(0.,1.,0.));
#974=DIRECTION('center_axis',(0.,1.,0.));
#975=DIRECTION('ref_axis',(1.,0.,0.));
#976=DIRECTION('center_axis',(0.,1.,0.));
#977=DIRECTION('ref_axis',(1.,0.,0.));
#978=DIRECTION('center_axis',(0.,0.,1.));
#979=DIRECTION('ref_axis',(1.,0.,0.));
#980=DIRECTION('',(0.,1.,0.));
#981=DIRECTION('center_axis',(1.,0.,0.));
#982=DIRECTION('ref_axis',(0.,0.,-1.));
#983=DIRECTION('center_axis',(0.,1.,0.));
#984=DIRECTION('ref_axis',(1.,0.,0.));
#985=CARTESIAN_POINT('',(0.,0.,0.));
#986=CARTESIAN_POINT('Origin',(35.8,40.7,-24.));
#987=CARTESIAN_POINT('',(35.8,40.7,-30.7));
#988=CARTESIAN_POINT('',(35.8,41.2,-30.2));
#989=CARTESIAN_POINT('Origin',(35.8,40.7,-30.2));
#990=CARTESIAN_POINT('',(42.,41.2,-24.));
#991=CARTESIAN_POINT('Origin',(35.8,41.2,-24.));
#992=CARTESIAN_POINT('',(42.5,40.7,-24.));
#993=CARTESIAN_POINT('Origin',(42.,40.7,-24.));
#994=CARTESIAN_POINT('Origin',(35.8,40.7,-24.));
#995=CARTESIAN_POINT('Origin',(35.8,39.7,-24.));
#996=CARTESIAN_POINT('',(42.5,39.7,-24.));
#997=CARTESIAN_POINT('',(35.8,39.7,-30.7));
#998=CARTESIAN_POINT('Origin',(35.8,39.7,-24.));
#999=CARTESIAN_POINT('',(35.8,39.7,-30.7));
#1000=CARTESIAN_POINT('',(42.5,39.7,-24.));
#1001=CARTESIAN_POINT('Origin',(19.65,40.7,-30.2));
#1002=CARTESIAN_POINT('',(-42.2,40.7,-30.7));
#1003=CARTESIAN_POINT('',(19.65,40.7,-30.7));
#1004=CARTESIAN_POINT('',(-42.2,41.2,-30.2));
#1005=CARTESIAN_POINT('Origin',(-42.2,40.7,-30.2));
#1006=CARTESIAN_POINT('',(19.65,41.2,-30.2));
#1007=CARTESIAN_POINT('Origin',(42.5,39.7,-30.7));
#1008=CARTESIAN_POINT('',(-42.2,39.7,-30.7));
#1009=CARTESIAN_POINT('',(-48.9,39.7,-30.7));
#1010=CARTESIAN_POINT('',(-42.2,39.7,-30.7));
#1011=CARTESIAN_POINT('Origin',(-3.2,39.7,0.));
#1012=CARTESIAN_POINT('',(42.5,39.7,24.));
#1013=CARTESIAN_POINT('',(42.5,39.7,-30.7));
#1014=CARTESIAN_POINT('',(35.8,39.7,30.7));
#1015=CARTESIAN_POINT('Origin',(35.8,39.7,24.));
#1016=CARTESIAN_POINT('',(-42.2,39.7,30.7));
#1017=CARTESIAN_POINT('',(42.5,39.7,30.7));
#1018=CARTESIAN_POINT('',(-48.9,39.7,24.));
#1019=CARTESIAN_POINT('Origin',(-42.2,39.7,24.));
#1020=CARTESIAN_POINT('',(-48.9,39.7,-24.));
#1021=CARTESIAN_POINT('',(-48.9,39.7,30.7));
#1022=CARTESIAN_POINT('Origin',(-42.2,39.7,-24.));
#1023=CARTESIAN_POINT('',(29.,39.7,21.75));
#1024=CARTESIAN_POINT('',(-29.,39.7,21.75));
#1025=CARTESIAN_POINT('',(29.,39.7,21.75));
#1026=CARTESIAN_POINT('',(29.,39.7,-21.75));
#1027=CARTESIAN_POINT('',(29.,39.7,-21.75));
#1028=CARTESIAN_POINT('',(-29.,39.7,-21.75));
#1029=CARTESIAN_POINT('',(-29.,39.7,-21.75));
#1030=CARTESIAN_POINT('',(-29.,39.7,21.75));
#1031=CARTESIAN_POINT('',(34.6,39.7,-15.5));
#1032=CARTESIAN_POINT('Origin',(35.8,39.7,-15.5));
#1033=CARTESIAN_POINT('',(-43.4,39.7,21.));
#1034=CARTESIAN_POINT('Origin',(-42.2,39.7,21.));
#1035=CARTESIAN_POINT('',(34.6,39.7,15.5));
#1036=CARTESIAN_POINT('Origin',(35.8,39.7,15.5));
#1037=CARTESIAN_POINT('',(-43.4,39.7,-15.5));
#1038=CARTESIAN_POINT('Origin',(-42.2,39.7,-15.5));
#1039=CARTESIAN_POINT('',(-43.4,39.7,15.5));
#1040=CARTESIAN_POINT('Origin',(-42.2,39.7,15.5));
#1041=CARTESIAN_POINT('Origin',(-42.2,40.7,-24.));
#1042=CARTESIAN_POINT('',(-48.9,40.7,-24.));
#1043=CARTESIAN_POINT('',(-48.4,41.2,-24.));
#1044=CARTESIAN_POINT('Origin',(-48.4,40.7,-24.));
#1045=CARTESIAN_POINT('Origin',(-42.2,41.2,-24.));
#1046=CARTESIAN_POINT('Origin',(-42.2,40.7,-24.));
#1047=CARTESIAN_POINT('Origin',(-42.2,39.7,-24.));
#1048=CARTESIAN_POINT('',(-48.9,39.7,-24.));
#1049=CARTESIAN_POINT('Origin',(-48.4,40.7,-15.35));
#1050=CARTESIAN_POINT('',(-48.9,40.7,24.));
#1051=CARTESIAN_POINT('',(-48.9,40.7,-15.35));
#1052=CARTESIAN_POINT('',(-48.4,41.2,24.));
#1053=CARTESIAN_POINT('Origin',(-48.4,40.7,24.));
#1054=CARTESIAN_POINT('',(-48.4,41.2,-15.35));
#1055=CARTESIAN_POINT('Origin',(-48.9,39.7,-30.7));
#1056=CARTESIAN_POINT('',(-48.9,39.7,24.));
#1057=CARTESIAN_POINT('Origin',(-42.2,40.7,24.));
#1058=CARTESIAN_POINT('',(-42.2,40.7,30.7));
#1059=CARTESIAN_POINT('',(-42.2,41.2,30.2));
#1060=CARTESIAN_POINT('Origin',(-42.2,40.7,30.2));
#1061=CARTESIAN_POINT('Origin',(-42.2,41.2,24.));
#1062=CARTESIAN_POINT('Origin',(-42.2,40.7,24.));
#1063=CARTESIAN_POINT('Origin',(-42.2,39.7,24.));
#1064=CARTESIAN_POINT('',(-42.2,39.7,30.7));
#1065=CARTESIAN_POINT('Origin',(-26.05,40.7,30.2));
#1066=CARTESIAN_POINT('',(35.8,40.7,30.7));
#1067=CARTESIAN_POINT('',(-26.05,40.7,30.7));
#1068=CARTESIAN_POINT('',(35.8,41.2,30.2));
#1069=CARTESIAN_POINT('Origin',(35.8,40.7,30.2));
#1070=CARTESIAN_POINT('',(-26.05,41.2,30.2));
#1071=CARTESIAN_POINT('Origin',(-48.9,39.7,30.7));
#1072=CARTESIAN_POINT('',(35.8,39.7,30.7));
#1073=CARTESIAN_POINT('Origin',(35.8,40.7,24.));
#1074=CARTESIAN_POINT('',(42.5,40.7,24.));
#1075=CARTESIAN_POINT('',(42.,41.2,24.));
#1076=CARTESIAN_POINT('Origin',(42.,40.7,24.));
#1077=CARTESIAN_POINT('Origin',(35.8,41.2,24.));
#1078=CARTESIAN_POINT('Origin',(35.8,40.7,24.));
#1079=CARTESIAN_POINT('Origin',(35.8,39.7,24.));
#1080=CARTESIAN_POINT('',(42.5,39.7,24.));
#1081=CARTESIAN_POINT('Origin',(42.,40.7,15.35));
#1082=CARTESIAN_POINT('',(42.,41.2,15.35));
#1083=CARTESIAN_POINT('',(42.5,40.7,15.35));
#1084=CARTESIAN_POINT('Origin',(42.5,39.7,30.7));
#1085=CARTESIAN_POINT('Origin',(-3.2,41.2,0.));
#1086=CARTESIAN_POINT('',(30.,41.2,22.75));
#1087=CARTESIAN_POINT('',(30.,41.2,-22.75));
#1088=CARTESIAN_POINT('',(30.,41.2,-10.875));
#1089=CARTESIAN_POINT('',(-30.,41.2,22.75));
#1090=CARTESIAN_POINT('',(12.9,41.2,22.75));
#1091=CARTESIAN_POINT('',(-30.,41.2,-22.75));
#1092=CARTESIAN_POINT('',(-30.,41.2,10.875));
#1093=CARTESIAN_POINT('',(-16.1,41.2,-22.75));
#1094=CARTESIAN_POINT('Origin',(30.,40.2,-10.875));
#1095=CARTESIAN_POINT('',(29.,40.2,-21.75));
#1096=CARTESIAN_POINT('Origin',(30.,40.2,-22.75));
#1097=CARTESIAN_POINT('',(29.,40.2,21.75));
#1098=CARTESIAN_POINT('',(29.,40.2,-10.875));
#1099=CARTESIAN_POINT('Origin',(30.,40.2,22.75));
#1100=CARTESIAN_POINT('Origin',(-16.1,40.2,-22.75));
#1101=CARTESIAN_POINT('',(-29.,40.2,-21.75));
#1102=CARTESIAN_POINT('Origin',(-30.,40.2,-22.75));
#1103=CARTESIAN_POINT('',(-16.1,40.2,-21.75));
#1104=CARTESIAN_POINT('Origin',(-30.,40.2,10.875));
#1105=CARTESIAN_POINT('',(-29.,40.2,21.75));
#1106=CARTESIAN_POINT('Origin',(-30.,40.2,22.75));
#1107=CARTESIAN_POINT('',(-29.,40.2,10.875));
#1108=CARTESIAN_POINT('Origin',(12.9,40.2,22.75));
#1109=CARTESIAN_POINT('',(12.9,40.2,21.75));
#1110=CARTESIAN_POINT('Origin',(29.,39.7,21.75));
#1111=CARTESIAN_POINT('',(29.,39.7,21.75));
#1112=CARTESIAN_POINT('',(-29.,39.7,21.75));
#1113=CARTESIAN_POINT('Origin',(29.,39.7,-21.75));
#1114=CARTESIAN_POINT('',(29.,39.7,-21.75));
#1115=CARTESIAN_POINT('Origin',(35.8,40.3,-15.5));
#1116=CARTESIAN_POINT('',(35.8,40.5,-16.5));
#1117=CARTESIAN_POINT('Origin',(35.8,40.5,-15.5));
#1118=CARTESIAN_POINT('',(35.8,40.3,-16.7));
#1119=CARTESIAN_POINT('Origin',(35.8,40.3,-16.5));
#1120=CARTESIAN_POINT('',(34.6,40.3,-15.5));
#1121=CARTESIAN_POINT('Origin',(35.8,40.3,-15.5));
#1122=CARTESIAN_POINT('Origin',(35.8,40.3,-15.5));
#1123=CARTESIAN_POINT('Origin',(35.8,39.7,-15.5));
#1124=CARTESIAN_POINT('',(34.6,39.7,-15.5));
#1125=CARTESIAN_POINT('Origin',(35.8,40.5,-15.5));
#1126=CARTESIAN_POINT('Origin',(35.8,40.3,15.5));
#1127=CARTESIAN_POINT('',(35.8,40.5,14.5));
#1128=CARTESIAN_POINT('Origin',(35.8,40.5,15.5));
#1129=CARTESIAN_POINT('',(35.8,40.3,14.3));
#1130=CARTESIAN_POINT('Origin',(35.8,40.3,14.5));
#1131=CARTESIAN_POINT('',(34.6,40.3,15.5));
#1132=CARTESIAN_POINT('Origin',(35.8,40.3,15.5));
#1133=CARTESIAN_POINT('Origin',(35.8,40.3,15.5));
#1134=CARTESIAN_POINT('Origin',(35.8,39.7,15.5));
#1135=CARTESIAN_POINT('',(34.6,39.7,15.5));
#1136=CARTESIAN_POINT('Origin',(35.8,40.5,15.5));
#1137=CARTESIAN_POINT('Origin',(-42.2,40.3,-15.5));
#1138=CARTESIAN_POINT('',(-42.2,40.5,-16.5));
#1139=CARTESIAN_POINT('Origin',(-42.2,40.5,-15.5));
#1140=CARTESIAN_POINT('',(-42.2,40.3,-16.7));
#1141=CARTESIAN_POINT('Origin',(-42.2,40.3,-16.5));
#1142=CARTESIAN_POINT('',(-43.4,40.3,-15.5));
#1143=CARTESIAN_POINT('Origin',(-42.2,40.3,-15.5));
#1144=CARTESIAN_POINT('Origin',(-42.2,40.3,-15.5));
#1145=CARTESIAN_POINT('Origin',(-42.2,39.7,-15.5));
#1146=CARTESIAN_POINT('',(-43.4,39.7,-15.5));
#1147=CARTESIAN_POINT('Origin',(-42.2,40.5,-15.5));
#1148=CARTESIAN_POINT('Origin',(-42.2,40.3,15.5));
#1149=CARTESIAN_POINT('',(-42.2,40.5,14.5));
#1150=CARTESIAN_POINT('Origin',(-42.2,40.5,15.5));
#1151=CARTESIAN_POINT('',(-42.2,40.3,14.3));
#1152=CARTESIAN_POINT('Origin',(-42.2,40.3,14.5));
#1153=CARTESIAN_POINT('',(-43.4,40.3,15.5));
#1154=CARTESIAN_POINT('Origin',(-42.2,40.3,15.5));
#1155=CARTESIAN_POINT('Origin',(-42.2,40.3,15.5));
#1156=CARTESIAN_POINT('Origin',(-42.2,39.7,15.5));
#1157=CARTESIAN_POINT('',(-43.4,39.7,15.5));
#1158=CARTESIAN_POINT('Origin',(-42.2,40.5,15.5));
#1159=CARTESIAN_POINT('Origin',(-42.2,39.7,21.));
#1160=CARTESIAN_POINT('',(-43.3,39.7,21.));
#1161=CARTESIAN_POINT('Origin',(-42.2,39.7,21.));
#1162=CARTESIAN_POINT('',(-43.3,40.5,21.));
#1163=CARTESIAN_POINT('',(-43.3,39.7,21.));
#1164=CARTESIAN_POINT('Origin',(-42.2,40.5,21.));
#1165=CARTESIAN_POINT('Origin',(-42.2,39.7,21.));
#1166=CARTESIAN_POINT('',(-43.4,40.5,21.));
#1167=CARTESIAN_POINT('',(-43.4,39.7,21.));
#1168=CARTESIAN_POINT('Origin',(-42.2,40.5,21.));
#1169=CARTESIAN_POINT('Origin',(-42.2,40.5,21.));
#1170=CARTESIAN_POINT('Origin',(-29.,39.7,-21.75));
#1171=CARTESIAN_POINT('',(-29.,39.7,-21.75));
#1172=CARTESIAN_POINT('Origin',(-29.,39.7,21.75));
#1173=CARTESIAN_POINT('Origin',(-3.2,39.7,0.));
#1174=UNCERTAINTY_MEASURE_WITH_UNIT(LENGTH_MEASURE(0.01),#1178,
'DISTANCE_ACCURACY_VALUE',
'Maximum model space distance between geometric entities at asserted c
onnectivities');
#1175=UNCERTAINTY_MEASURE_WITH_UNIT(LENGTH_MEASURE(0.01),#1178,
'DISTANCE_ACCURACY_VALUE',
'Maximum model space distance between geometric entities at asserted c
onnectivities');
#1176=(
GEOMETRIC_REPRESENTATION_CONTEXT(3)
GLOBAL_UNCERTAINTY_ASSIGNED_CONTEXT((#1174))
GLOBAL_UNIT_ASSIGNED_CONTEXT((#1178,#1180,#1181))
REPRESENTATION_CONTEXT('','3D')
);
#1177=(
GEOMETRIC_REPRESENTATION_CONTEXT(3)
GLOBAL_UNCERTAINTY_ASSIGNED_CONTEXT((#1175))
GLOBAL_UNIT_ASSIGNED_CONTEXT((#1178,#1180,#1181))
REPRESENTATION_CONTEXT('','3D')
);
#1178=(
LENGTH_UNIT()
NAMED_UNIT(*)
SI_UNIT(.MILLI.,.METRE.)
);
#1179=(
LENGTH_UNIT()
NAMED_UNIT(*)
SI_UNIT($,.METRE.)
);
#1180=(
NAMED_UNIT(*)
PLANE_ANGLE_UNIT()
SI_UNIT($,.RADIAN.)
);
#1181=(
NAMED_UNIT(*)
SI_UNIT($,.STERADIAN.)
SOLID_ANGLE_UNIT()
);
#1182=SHAPE_DEFINITION_REPRESENTATION(#1183,#1184);
#1183=PRODUCT_DEFINITION_SHAPE('',$,#1186);
#1184=SHAPE_REPRESENTATION('',(#670),#1176);
#1185=PRODUCT_DEFINITION_CONTEXT('part definition',#1190,'design');
#1186=PRODUCT_DEFINITION('boite_esp32_lcd','boite_esp32_lcd v14',#1187,
#1185);
#1187=PRODUCT_DEFINITION_FORMATION('',$,#1192);
#1188=PRODUCT_RELATED_PRODUCT_CATEGORY('boite_esp32_lcd v14',
'boite_esp32_lcd v14',(#1192));
#1189=APPLICATION_PROTOCOL_DEFINITION('international standard',
'automotive_design',2009,#1190);
#1190=APPLICATION_CONTEXT(
'Core Data for Automotive Mechanical Design Process');
#1191=PRODUCT_CONTEXT('part definition',#1190,'mechanical');
#1192=PRODUCT('boite_esp32_lcd','boite_esp32_lcd v14',$,(#1191));
#1193=PRESENTATION_STYLE_ASSIGNMENT((#1194));
#1194=SURFACE_STYLE_USAGE(.BOTH.,#1195);
#1195=SURFACE_SIDE_STYLE('',(#1196));
#1196=SURFACE_STYLE_FILL_AREA(#1197);
#1197=FILL_AREA_STYLE('Acier - Satin\X\E9',(#1198));
#1198=FILL_AREA_STYLE_COLOUR('Acier - Satin\X\E9',#1199);
#1199=COLOUR_RGB('Acier - Satin\X\E9',0.627450980392157,0.627450980392157,
0.627450980392157);
ENDSEC;
END-ISO-10303-21;
