ISO-10303-21;
HEADER;
/* Generated by software containing ST-Developer
 * from STEP Tools, Inc. (www.steptools.com) 
 */

FILE_DESCRIPTION(
/* description */ (''),
/* implementation_level */ '2;1');

FILE_NAME(
/* name */ 'boite_1PE100_capot.step',
/* time_stamp */ '2026-01-16T17:27:48+01:00',
/* author */ (''),
/* organization */ (''),
/* preprocessor_version */ 'ST-DEVELOPER v20.1',
/* originating_system */ 'Autodesk Translation Framework v14.21.0.0',
/* authorisation */ '');

FILE_SCHEMA (('AUTOMOTIVE_DESIGN { 1 0 10303 214 3 1 1 }'));
ENDSEC;

DATA;
#10=MECHANICAL_DESIGN_GEOMETRIC_PRESENTATION_REPRESENTATION('',(#13),#1821);
#11=SHAPE_REPRESENTATION_RELATIONSHIP('SRR','None',#1828,#12);
#12=ADVANCED_BREP_SHAPE_REPRESENTATION('',(#14),#1820);
#13=STYLED_ITEM('',(#1837),#14);
#14=MANIFOLD_SOLID_BREP('capot',#953);
#15=TOROIDAL_SURFACE('',#1010,7.2,4.2);
#16=TOROIDAL_SURFACE('',#1018,7.2,4.2);
#17=TOROIDAL_SURFACE('',#1045,7.2,3.);
#18=TOROIDAL_SURFACE('',#1050,7.2,3.);
#19=ELLIPSE('',#988,5.8,4.2);
#20=ELLIPSE('',#989,5.8,4.2);
#21=ELLIPSE('',#991,5.8,4.2);
#22=ELLIPSE('',#992,5.8,4.2);
#23=ELLIPSE('',#994,5.8,4.2);
#24=ELLIPSE('',#995,5.8,4.2);
#25=ELLIPSE('',#997,5.80000000000225,4.2);
#26=ELLIPSE('',#998,5.80000000000226,4.2);
#27=ELLIPSE('',#1000,5.79999999999919,4.2);
#28=ELLIPSE('',#1001,5.79999999999919,4.2);
#29=ELLIPSE('',#1003,5.8,4.2);
#30=ELLIPSE('',#1004,5.8,4.2);
#31=ELLIPSE('',#1033,4.24264068711928,3.);
#32=ELLIPSE('',#1034,4.24264068711867,3.);
#33=ELLIPSE('',#1036,4.24264068711929,3.);
#34=ELLIPSE('',#1039,4.24264068711929,3.);
#35=ELLIPSE('',#1041,4.24264068711928,3.);
#36=ELLIPSE('',#1044,4.24264068712102,3.);
#37=B_SPLINE_SURFACE_WITH_KNOTS('',3,3,((#1458,#1459,#1460,#1461,#1462,
#1463),(#1464,#1465,#1466,#1467,#1468,#1469),(#1470,#1471,#1472,#1473,#1474,
#1475),(#1476,#1477,#1478,#1479,#1480,#1481),(#1482,#1483,#1484,#1485,#1486,
#1487)),.UNSPECIFIED.,.F.,.F.,.F.,(4,1,4),(4,1,1,4),(0.,0.5,1.),(-1.5707963267949,
-0.897597901025655,-0.448798950512828,0.),.UNSPECIFIED.);
#38=B_SPLINE_SURFACE_WITH_KNOTS('',3,3,((#1494,#1495,#1496,#1497,#1498,
#1499),(#1500,#1501,#1502,#1503,#1504,#1505),(#1506,#1507,#1508,#1509,#1510,
#1511),(#1512,#1513,#1514,#1515,#1516,#1517),(#1518,#1519,#1520,#1521,#1522,
#1523)),.UNSPECIFIED.,.F.,.F.,.F.,(4,1,4),(4,1,1,4),(0.,0.5,1.),(-1.5707963267949,
-0.897597901025655,-0.448798950512828,0.),.UNSPECIFIED.);
#39=B_SPLINE_SURFACE_WITH_KNOTS('',3,3,((#1530,#1531,#1532,#1533,#1534,
#1535),(#1536,#1537,#1538,#1539,#1540,#1541),(#1542,#1543,#1544,#1545,#1546,
#1547),(#1548,#1549,#1550,#1551,#1552,#1553),(#1554,#1555,#1556,#1557,#1558,
#1559)),.UNSPECIFIED.,.F.,.F.,.F.,(4,1,4),(4,1,1,4),(0.,0.5,1.),(-1.5707963267949,
-0.897597901025655,-0.448798950512828,0.),.UNSPECIFIED.);
#40=B_SPLINE_SURFACE_WITH_KNOTS('',3,3,((#1566,#1567,#1568,#1569,#1570,
#1571),(#1572,#1573,#1574,#1575,#1576,#1577),(#1578,#1579,#1580,#1581,#1582,
#1583),(#1584,#1585,#1586,#1587,#1588,#1589),(#1590,#1591,#1592,#1593,#1594,
#1595)),.UNSPECIFIED.,.F.,.F.,.F.,(4,1,4),(4,1,1,4),(0.,0.5,1.),(-1.5707963267949,
-0.897597901025655,-0.448798950512828,0.),.UNSPECIFIED.);
#41=B_SPLINE_SURFACE_WITH_KNOTS('',3,3,((#1602,#1603,#1604,#1605,#1606,
#1607),(#1608,#1609,#1610,#1611,#1612,#1613),(#1614,#1615,#1616,#1617,#1618,
#1619),(#1620,#1621,#1622,#1623,#1624,#1625),(#1626,#1627,#1628,#1629,#1630,
#1631)),.UNSPECIFIED.,.F.,.F.,.F.,(4,1,4),(4,1,1,4),(0.,0.5,1.),(-1.5707963267949,
-0.897597901025655,-0.448798950512828,0.),.UNSPECIFIED.);
#42=B_SPLINE_SURFACE_WITH_KNOTS('',3,3,((#1637,#1638,#1639,#1640,#1641,
#1642),(#1643,#1644,#1645,#1646,#1647,#1648),(#1649,#1650,#1651,#1652,#1653,
#1654),(#1655,#1656,#1657,#1658,#1659,#1660),(#1661,#1662,#1663,#1664,#1665,
#1666)),.UNSPECIFIED.,.F.,.F.,.F.,(4,1,4),(4,1,1,4),(0.,0.5,1.),(-1.5707963267949,
-0.897597901025656,-0.448798950512828,-1.38777878078145E-16),
 .UNSPECIFIED.);
#43=PLANE('',#973);
#44=PLANE('',#974);
#45=PLANE('',#980);
#46=PLANE('',#986);
#47=PLANE('',#1023);
#48=PLANE('',#1025);
#49=PLANE('',#1027);
#50=PLANE('',#1029);
#51=PLANE('',#1031);
#52=PLANE('',#1056);
#53=PLANE('',#1057);
#54=PLANE('',#1059);
#55=PLANE('',#1060);
#56=PLANE('',#1063);
#57=PLANE('',#1065);
#58=PLANE('',#1068);
#59=PLANE('',#1069);
#60=PLANE('',#1070);
#61=PLANE('',#1071);
#62=PLANE('',#1072);
#63=FACE_OUTER_BOUND('',#121,.T.);
#64=FACE_OUTER_BOUND('',#122,.T.);
#65=FACE_OUTER_BOUND('',#123,.T.);
#66=FACE_OUTER_BOUND('',#124,.T.);
#67=FACE_OUTER_BOUND('',#125,.T.);
#68=FACE_OUTER_BOUND('',#126,.T.);
#69=FACE_OUTER_BOUND('',#127,.T.);
#70=FACE_OUTER_BOUND('',#128,.T.);
#71=FACE_OUTER_BOUND('',#129,.T.);
#72=FACE_OUTER_BOUND('',#130,.T.);
#73=FACE_OUTER_BOUND('',#131,.T.);
#74=FACE_OUTER_BOUND('',#132,.T.);
#75=FACE_OUTER_BOUND('',#133,.T.);
#76=FACE_OUTER_BOUND('',#134,.T.);
#77=FACE_OUTER_BOUND('',#135,.T.);
#78=FACE_OUTER_BOUND('',#136,.T.);
#79=FACE_OUTER_BOUND('',#137,.T.);
#80=FACE_OUTER_BOUND('',#138,.T.);
#81=FACE_OUTER_BOUND('',#139,.T.);
#82=FACE_OUTER_BOUND('',#140,.T.);
#83=FACE_OUTER_BOUND('',#141,.T.);
#84=FACE_OUTER_BOUND('',#142,.T.);
#85=FACE_OUTER_BOUND('',#143,.T.);
#86=FACE_OUTER_BOUND('',#144,.T.);
#87=FACE_OUTER_BOUND('',#145,.T.);
#88=FACE_OUTER_BOUND('',#146,.T.);
#89=FACE_OUTER_BOUND('',#147,.T.);
#90=FACE_OUTER_BOUND('',#148,.T.);
#91=FACE_OUTER_BOUND('',#149,.T.);
#92=FACE_OUTER_BOUND('',#150,.T.);
#93=FACE_OUTER_BOUND('',#151,.T.);
#94=FACE_OUTER_BOUND('',#152,.T.);
#95=FACE_OUTER_BOUND('',#153,.T.);
#96=FACE_OUTER_BOUND('',#154,.T.);
#97=FACE_OUTER_BOUND('',#155,.T.);
#98=FACE_OUTER_BOUND('',#156,.T.);
#99=FACE_OUTER_BOUND('',#157,.T.);
#100=FACE_OUTER_BOUND('',#158,.T.);
#101=FACE_OUTER_BOUND('',#159,.T.);
#102=FACE_OUTER_BOUND('',#160,.T.);
#103=FACE_OUTER_BOUND('',#161,.T.);
#104=FACE_OUTER_BOUND('',#162,.T.);
#105=FACE_OUTER_BOUND('',#163,.T.);
#106=FACE_OUTER_BOUND('',#164,.T.);
#107=FACE_OUTER_BOUND('',#165,.T.);
#108=FACE_OUTER_BOUND('',#166,.T.);
#109=FACE_OUTER_BOUND('',#167,.T.);
#110=FACE_OUTER_BOUND('',#168,.T.);
#111=FACE_OUTER_BOUND('',#169,.T.);
#112=FACE_OUTER_BOUND('',#170,.T.);
#113=FACE_OUTER_BOUND('',#171,.T.);
#114=FACE_OUTER_BOUND('',#172,.T.);
#115=FACE_OUTER_BOUND('',#173,.T.);
#116=FACE_OUTER_BOUND('',#174,.T.);
#117=FACE_OUTER_BOUND('',#175,.T.);
#118=FACE_OUTER_BOUND('',#176,.T.);
#119=FACE_OUTER_BOUND('',#177,.T.);
#120=FACE_OUTER_BOUND('',#178,.T.);
#121=EDGE_LOOP('',(#595,#596,#597,#598));
#122=EDGE_LOOP('',(#599,#600,#601,#602));
#123=EDGE_LOOP('',(#603,#604,#605,#606,#607,#608));
#124=EDGE_LOOP('',(#609,#610,#611,#612,#613,#614,#615,#616,#617,#618,#619,
#620,#621,#622,#623,#624,#625));
#125=EDGE_LOOP('',(#626,#627,#628,#629,#630,#631,#632,#633,#634,#635,#636,
#637,#638,#639,#640,#641,#642));
#126=EDGE_LOOP('',(#643,#644,#645,#646,#647,#648));
#127=EDGE_LOOP('',(#649,#650,#651));
#128=EDGE_LOOP('',(#652,#653,#654));
#129=EDGE_LOOP('',(#655,#656,#657));
#130=EDGE_LOOP('',(#658,#659,#660));
#131=EDGE_LOOP('',(#661,#662,#663));
#132=EDGE_LOOP('',(#664,#665,#666));
#133=EDGE_LOOP('',(#667,#668,#669,#670));
#134=EDGE_LOOP('',(#671,#672,#673,#674));
#135=EDGE_LOOP('',(#675,#676,#677,#678));
#136=EDGE_LOOP('',(#679,#680,#681,#682));
#137=EDGE_LOOP('',(#683,#684,#685,#686));
#138=EDGE_LOOP('',(#687,#688,#689,#690));
#139=EDGE_LOOP('',(#691,#692,#693,#694));
#140=EDGE_LOOP('',(#695,#696,#697,#698));
#141=EDGE_LOOP('',(#699,#700,#701,#702));
#142=EDGE_LOOP('',(#703,#704,#705,#706));
#143=EDGE_LOOP('',(#707,#708,#709,#710,#711,#712));
#144=EDGE_LOOP('',(#713,#714,#715,#716));
#145=EDGE_LOOP('',(#717,#718,#719,#720));
#146=EDGE_LOOP('',(#721,#722,#723,#724));
#147=EDGE_LOOP('',(#725,#726,#727,#728));
#148=EDGE_LOOP('',(#729,#730,#731,#732));
#149=EDGE_LOOP('',(#733,#734,#735,#736));
#150=EDGE_LOOP('',(#737,#738,#739,#740));
#151=EDGE_LOOP('',(#741,#742,#743,#744,#745,#746,#747,#748,#749,#750));
#152=EDGE_LOOP('',(#751,#752,#753,#754));
#153=EDGE_LOOP('',(#755,#756,#757,#758));
#154=EDGE_LOOP('',(#759,#760,#761,#762));
#155=EDGE_LOOP('',(#763,#764,#765,#766));
#156=EDGE_LOOP('',(#767,#768,#769,#770));
#157=EDGE_LOOP('',(#771,#772,#773,#774));
#158=EDGE_LOOP('',(#775,#776,#777,#778));
#159=EDGE_LOOP('',(#779,#780,#781,#782));
#160=EDGE_LOOP('',(#783,#784,#785,#786));
#161=EDGE_LOOP('',(#787,#788,#789,#790));
#162=EDGE_LOOP('',(#791,#792,#793,#794));
#163=EDGE_LOOP('',(#795,#796,#797,#798));
#164=EDGE_LOOP('',(#799,#800,#801,#802));
#165=EDGE_LOOP('',(#803,#804,#805,#806));
#166=EDGE_LOOP('',(#807,#808,#809,#810,#811,#812,#813,#814,#815,#816));
#167=EDGE_LOOP('',(#817,#818,#819,#820));
#168=EDGE_LOOP('',(#821,#822,#823,#824));
#169=EDGE_LOOP('',(#825,#826,#827,#828));
#170=EDGE_LOOP('',(#829,#830,#831,#832));
#171=EDGE_LOOP('',(#833,#834,#835,#836));
#172=EDGE_LOOP('',(#837,#838,#839,#840));
#173=EDGE_LOOP('',(#841,#842,#843,#844));
#174=EDGE_LOOP('',(#845,#846,#847,#848));
#175=EDGE_LOOP('',(#849,#850,#851,#852,#853,#854));
#176=EDGE_LOOP('',(#855,#856,#857,#858));
#177=EDGE_LOOP('',(#859,#860,#861,#862));
#178=EDGE_LOOP('',(#863,#864,#865,#866));
#179=LINE('',#1375,#261);
#180=LINE('',#1378,#262);
#181=LINE('',#1384,#263);
#182=LINE('',#1387,#264);
#183=LINE('',#1390,#265);
#184=LINE('',#1392,#266);
#185=LINE('',#1394,#267);
#186=LINE('',#1396,#268);
#187=LINE('',#1397,#269);
#188=LINE('',#1400,#270);
#189=LINE('',#1404,#271);
#190=LINE('',#1408,#272);
#191=LINE('',#1412,#273);
#192=LINE('',#1415,#274);
#193=LINE('',#1417,#275);
#194=LINE('',#1419,#276);
#195=LINE('',#1421,#277);
#196=LINE('',#1424,#278);
#197=LINE('',#1427,#279);
#198=LINE('',#1431,#280);
#199=LINE('',#1433,#281);
#200=LINE('',#1434,#282);
#201=LINE('',#1436,#283);
#202=LINE('',#1440,#284);
#203=LINE('',#1444,#285);
#204=LINE('',#1448,#286);
#205=LINE('',#1451,#287);
#206=LINE('',#1454,#288);
#207=LINE('',#1456,#289);
#208=LINE('',#1457,#290);
#209=LINE('',#1673,#291);
#210=LINE('',#1674,#292);
#211=LINE('',#1676,#293);
#212=LINE('',#1678,#294);
#213=LINE('',#1679,#295);
#214=LINE('',#1682,#296);
#215=LINE('',#1685,#297);
#216=LINE('',#1693,#298);
#217=LINE('',#1694,#299);
#218=LINE('',#1696,#300);
#219=LINE('',#1697,#301);
#220=LINE('',#1700,#302);
#221=LINE('',#1703,#303);
#222=LINE('',#1711,#304);
#223=LINE('',#1712,#305);
#224=LINE('',#1714,#306);
#225=LINE('',#1715,#307);
#226=LINE('',#1717,#308);
#227=LINE('',#1719,#309);
#228=LINE('',#1721,#310);
#229=LINE('',#1723,#311);
#230=LINE('',#1725,#312);
#231=LINE('',#1727,#313);
#232=LINE('',#1733,#314);
#233=LINE('',#1737,#315);
#234=LINE('',#1741,#316);
#235=LINE('',#1744,#317);
#236=LINE('',#1747,#318);
#237=LINE('',#1751,#319);
#238=LINE('',#1755,#320);
#239=LINE('',#1760,#321);
#240=LINE('',#1764,#322);
#241=LINE('',#1773,#323);
#242=LINE('',#1774,#324);
#243=LINE('',#1782,#325);
#244=LINE('',#1783,#326);
#245=LINE('',#1785,#327);
#246=LINE('',#1786,#328);
#247=LINE('',#1788,#329);
#248=LINE('',#1790,#330);
#249=LINE('',#1792,#331);
#250=LINE('',#1794,#332);
#251=LINE('',#1797,#333);
#252=LINE('',#1799,#334);
#253=LINE('',#1800,#335);
#254=LINE('',#1802,#336);
#255=LINE('',#1804,#337);
#256=LINE('',#1806,#338);
#257=LINE('',#1809,#339);
#258=LINE('',#1811,#340);
#259=LINE('',#1813,#341);
#260=LINE('',#1815,#342);
#261=VECTOR('',#1079,10.);
#262=VECTOR('',#1082,10.);
#263=VECTOR('',#1087,10.);
#264=VECTOR('',#1090,10.);
#265=VECTOR('',#1093,10.);
#266=VECTOR('',#1094,10.);
#267=VECTOR('',#1095,10.);
#268=VECTOR('',#1096,10.);
#269=VECTOR('',#1097,10.);
#270=VECTOR('',#1100,10.);
#271=VECTOR('',#1103,10.);
#272=VECTOR('',#1106,10.);
#273=VECTOR('',#1109,10.);
#274=VECTOR('',#1112,10.);
#275=VECTOR('',#1113,10.);
#276=VECTOR('',#1114,10.);
#277=VECTOR('',#1115,10.);
#278=VECTOR('',#1118,10.);
#279=VECTOR('',#1121,10.);
#280=VECTOR('',#1124,10.);
#281=VECTOR('',#1125,10.);
#282=VECTOR('',#1126,10.);
#283=VECTOR('',#1127,10.);
#284=VECTOR('',#1130,10.);
#285=VECTOR('',#1133,10.);
#286=VECTOR('',#1136,10.);
#287=VECTOR('',#1139,10.);
#288=VECTOR('',#1142,10.);
#289=VECTOR('',#1143,10.);
#290=VECTOR('',#1144,10.);
#291=VECTOR('',#1183,10.);
#292=VECTOR('',#1184,10.);
#293=VECTOR('',#1187,10.);
#294=VECTOR('',#1190,10.);
#295=VECTOR('',#1191,10.);
#296=VECTOR('',#1194,10.);
#297=VECTOR('',#1197,10.);
#298=VECTOR('',#1208,10.);
#299=VECTOR('',#1209,10.);
#300=VECTOR('',#1212,10.);
#301=VECTOR('',#1213,10.);
#302=VECTOR('',#1216,10.);
#303=VECTOR('',#1219,10.);
#304=VECTOR('',#1230,10.);
#305=VECTOR('',#1231,10.);
#306=VECTOR('',#1234,10.);
#307=VECTOR('',#1235,10.);
#308=VECTOR('',#1238,10.);
#309=VECTOR('',#1241,10.);
#310=VECTOR('',#1244,10.);
#311=VECTOR('',#1247,10.);
#312=VECTOR('',#1250,10.);
#313=VECTOR('',#1253,10.);
#314=VECTOR('',#1260,10.);
#315=VECTOR('',#1263,10.);
#316=VECTOR('',#1268,10.);
#317=VECTOR('',#1271,10.);
#318=VECTOR('',#1274,10.);
#319=VECTOR('',#1277,10.);
#320=VECTOR('',#1282,10.);
#321=VECTOR('',#1287,10.);
#322=VECTOR('',#1290,10.);
#323=VECTOR('',#1303,10.);
#324=VECTOR('',#1304,10.);
#325=VECTOR('',#1315,10.);
#326=VECTOR('',#1316,10.);
#327=VECTOR('',#1319,10.);
#328=VECTOR('',#1320,10.);
#329=VECTOR('',#1323,10.);
#330=VECTOR('',#1326,10.);
#331=VECTOR('',#1329,10.);
#332=VECTOR('',#1332,10.);
#333=VECTOR('',#1337,10.);
#334=VECTOR('',#1340,10.);
#335=VECTOR('',#1341,10.);
#336=VECTOR('',#1344,10.);
#337=VECTOR('',#1347,10.);
#338=VECTOR('',#1350,10.);
#339=VECTOR('',#1355,10.);
#340=VECTOR('',#1358,10.);
#341=VECTOR('',#1361,10.);
#342=VECTOR('',#1364,10.);
#343=CIRCLE('',#968,12.5);
#344=CIRCLE('',#969,12.5);
#345=CIRCLE('',#971,12.5);
#346=CIRCLE('',#972,12.5);
#347=CIRCLE('',#975,0.2);
#348=CIRCLE('',#976,3.);
#349=CIRCLE('',#977,0.2);
#350=CIRCLE('',#978,0.2);
#351=CIRCLE('',#979,4.2);
#352=CIRCLE('',#981,4.2);
#353=CIRCLE('',#982,0.2);
#354=CIRCLE('',#983,0.2);
#355=CIRCLE('',#984,3.);
#356=CIRCLE('',#985,0.2);
#357=CIRCLE('',#987,0.199999999999996);
#358=CIRCLE('',#990,0.200000000000005);
#359=CIRCLE('',#993,0.200000000000005);
#360=CIRCLE('',#996,0.200000000000007);
#361=CIRCLE('',#999,0.199999999999996);
#362=CIRCLE('',#1002,0.200000000000002);
#363=CIRCLE('',#1009,4.2);
#364=CIRCLE('',#1011,4.2);
#365=CIRCLE('',#1012,3.);
#366=CIRCLE('',#1013,7.2);
#367=CIRCLE('',#1017,4.2);
#368=CIRCLE('',#1019,4.2);
#369=CIRCLE('',#1020,3.);
#370=CIRCLE('',#1021,7.2);
#371=CIRCLE('',#1038,3.);
#372=CIRCLE('',#1043,3.);
#373=CIRCLE('',#1046,3.);
#374=CIRCLE('',#1047,7.2);
#375=CIRCLE('',#1048,4.2);
#376=CIRCLE('',#1051,3.);
#377=CIRCLE('',#1052,7.2);
#378=CIRCLE('',#1053,4.2);
#379=VERTEX_POINT('',#1371);
#380=VERTEX_POINT('',#1372);
#381=VERTEX_POINT('',#1374);
#382=VERTEX_POINT('',#1376);
#383=VERTEX_POINT('',#1380);
#384=VERTEX_POINT('',#1381);
#385=VERTEX_POINT('',#1383);
#386=VERTEX_POINT('',#1385);
#387=VERTEX_POINT('',#1389);
#388=VERTEX_POINT('',#1391);
#389=VERTEX_POINT('',#1393);
#390=VERTEX_POINT('',#1395);
#391=VERTEX_POINT('',#1399);
#392=VERTEX_POINT('',#1401);
#393=VERTEX_POINT('',#1403);
#394=VERTEX_POINT('',#1405);
#395=VERTEX_POINT('',#1407);
#396=VERTEX_POINT('',#1409);
#397=VERTEX_POINT('',#1411);
#398=VERTEX_POINT('',#1413);
#399=VERTEX_POINT('',#1416);
#400=VERTEX_POINT('',#1418);
#401=VERTEX_POINT('',#1420);
#402=VERTEX_POINT('',#1422);
#403=VERTEX_POINT('',#1426);
#404=VERTEX_POINT('',#1428);
#405=VERTEX_POINT('',#1430);
#406=VERTEX_POINT('',#1432);
#407=VERTEX_POINT('',#1435);
#408=VERTEX_POINT('',#1437);
#409=VERTEX_POINT('',#1439);
#410=VERTEX_POINT('',#1441);
#411=VERTEX_POINT('',#1443);
#412=VERTEX_POINT('',#1445);
#413=VERTEX_POINT('',#1447);
#414=VERTEX_POINT('',#1449);
#415=VERTEX_POINT('',#1453);
#416=VERTEX_POINT('',#1455);
#417=VERTEX_POINT('',#1488);
#418=VERTEX_POINT('',#1489);
#419=VERTEX_POINT('',#1491);
#420=VERTEX_POINT('',#1524);
#421=VERTEX_POINT('',#1525);
#422=VERTEX_POINT('',#1527);
#423=VERTEX_POINT('',#1560);
#424=VERTEX_POINT('',#1561);
#425=VERTEX_POINT('',#1563);
#426=VERTEX_POINT('',#1596);
#427=VERTEX_POINT('',#1597);
#428=VERTEX_POINT('',#1599);
#429=VERTEX_POINT('',#1632);
#430=VERTEX_POINT('',#1634);
#431=VERTEX_POINT('',#1667);
#432=VERTEX_POINT('',#1669);
#433=VERTEX_POINT('',#1681);
#434=VERTEX_POINT('',#1683);
#435=VERTEX_POINT('',#1687);
#436=VERTEX_POINT('',#1688);
#437=VERTEX_POINT('',#1699);
#438=VERTEX_POINT('',#1701);
#439=VERTEX_POINT('',#1705);
#440=VERTEX_POINT('',#1706);
#441=VERTEX_POINT('',#1731);
#442=VERTEX_POINT('',#1732);
#443=VERTEX_POINT('',#1734);
#444=VERTEX_POINT('',#1736);
#445=VERTEX_POINT('',#1740);
#446=VERTEX_POINT('',#1742);
#447=VERTEX_POINT('',#1746);
#448=VERTEX_POINT('',#1748);
#449=VERTEX_POINT('',#1750);
#450=VERTEX_POINT('',#1754);
#451=VERTEX_POINT('',#1758);
#452=VERTEX_POINT('',#1759);
#453=VERTEX_POINT('',#1761);
#454=VERTEX_POINT('',#1763);
#455=VERTEX_POINT('',#1767);
#456=VERTEX_POINT('',#1768);
#457=VERTEX_POINT('',#1776);
#458=VERTEX_POINT('',#1777);
#459=EDGE_CURVE('',#379,#380,#343,.T.);
#460=EDGE_CURVE('',#381,#379,#179,.T.);
#461=EDGE_CURVE('',#382,#381,#344,.T.);
#462=EDGE_CURVE('',#380,#382,#180,.T.);
#463=EDGE_CURVE('',#383,#384,#345,.T.);
#464=EDGE_CURVE('',#385,#383,#181,.T.);
#465=EDGE_CURVE('',#386,#385,#346,.T.);
#466=EDGE_CURVE('',#384,#386,#182,.T.);
#467=EDGE_CURVE('',#385,#387,#183,.T.);
#468=EDGE_CURVE('',#387,#388,#184,.T.);
#469=EDGE_CURVE('',#389,#388,#185,.T.);
#470=EDGE_CURVE('',#390,#389,#186,.T.);
#471=EDGE_CURVE('',#390,#386,#187,.T.);
#472=EDGE_CURVE('',#391,#383,#188,.T.);
#473=EDGE_CURVE('',#392,#391,#347,.T.);
#474=EDGE_CURVE('',#393,#392,#189,.T.);
#475=EDGE_CURVE('',#394,#393,#348,.T.);
#476=EDGE_CURVE('',#395,#394,#190,.T.);
#477=EDGE_CURVE('',#396,#395,#349,.T.);
#478=EDGE_CURVE('',#397,#396,#191,.T.);
#479=EDGE_CURVE('',#398,#397,#350,.T.);
#480=EDGE_CURVE('',#381,#398,#192,.T.);
#481=EDGE_CURVE('',#399,#379,#193,.T.);
#482=EDGE_CURVE('',#400,#399,#194,.T.);
#483=EDGE_CURVE('',#401,#400,#195,.T.);
#484=EDGE_CURVE('',#402,#401,#351,.T.);
#485=EDGE_CURVE('',#387,#402,#196,.T.);
#486=EDGE_CURVE('',#403,#390,#197,.T.);
#487=EDGE_CURVE('',#404,#403,#352,.T.);
#488=EDGE_CURVE('',#405,#404,#198,.T.);
#489=EDGE_CURVE('',#406,#405,#199,.T.);
#490=EDGE_CURVE('',#380,#406,#200,.T.);
#491=EDGE_CURVE('',#407,#382,#201,.T.);
#492=EDGE_CURVE('',#408,#407,#353,.T.);
#493=EDGE_CURVE('',#409,#408,#202,.T.);
#494=EDGE_CURVE('',#410,#409,#354,.T.);
#495=EDGE_CURVE('',#411,#410,#203,.T.);
#496=EDGE_CURVE('',#412,#411,#355,.T.);
#497=EDGE_CURVE('',#413,#412,#204,.T.);
#498=EDGE_CURVE('',#414,#413,#356,.T.);
#499=EDGE_CURVE('',#384,#414,#205,.T.);
#500=EDGE_CURVE('',#415,#398,#206,.T.);
#501=EDGE_CURVE('',#416,#415,#207,.T.);
#502=EDGE_CURVE('',#407,#416,#208,.T.);
#503=EDGE_CURVE('',#417,#418,#357,.T.);
#504=EDGE_CURVE('',#418,#419,#19,.T.);
#505=EDGE_CURVE('',#419,#417,#20,.T.);
#506=EDGE_CURVE('',#420,#421,#358,.T.);
#507=EDGE_CURVE('',#421,#422,#21,.T.);
#508=EDGE_CURVE('',#422,#420,#22,.T.);
#509=EDGE_CURVE('',#423,#424,#359,.T.);
#510=EDGE_CURVE('',#424,#425,#23,.T.);
#511=EDGE_CURVE('',#425,#423,#24,.T.);
#512=EDGE_CURVE('',#426,#427,#360,.T.);
#513=EDGE_CURVE('',#427,#428,#25,.T.);
#514=EDGE_CURVE('',#428,#426,#26,.T.);
#515=EDGE_CURVE('',#429,#416,#361,.T.);
#516=EDGE_CURVE('',#416,#430,#27,.T.);
#517=EDGE_CURVE('',#430,#429,#28,.T.);
#518=EDGE_CURVE('',#415,#431,#362,.T.);
#519=EDGE_CURVE('',#431,#432,#29,.T.);
#520=EDGE_CURVE('',#432,#415,#30,.T.);
#521=EDGE_CURVE('',#419,#432,#209,.T.);
#522=EDGE_CURVE('',#431,#417,#210,.T.);
#523=EDGE_CURVE('',#432,#430,#211,.T.);
#524=EDGE_CURVE('',#427,#429,#212,.T.);
#525=EDGE_CURVE('',#430,#428,#213,.T.);
#526=EDGE_CURVE('',#428,#433,#214,.T.);
#527=EDGE_CURVE('',#433,#434,#363,.T.);
#528=EDGE_CURVE('',#434,#426,#215,.T.);
#529=EDGE_CURVE('',#435,#436,#364,.T.);
#530=EDGE_CURVE('',#436,#434,#365,.T.);
#531=EDGE_CURVE('',#433,#435,#366,.T.);
#532=EDGE_CURVE('',#424,#436,#216,.T.);
#533=EDGE_CURVE('',#435,#425,#217,.T.);
#534=EDGE_CURVE('',#421,#423,#218,.T.);
#535=EDGE_CURVE('',#425,#422,#219,.T.);
#536=EDGE_CURVE('',#422,#437,#220,.T.);
#537=EDGE_CURVE('',#437,#438,#367,.T.);
#538=EDGE_CURVE('',#438,#420,#221,.T.);
#539=EDGE_CURVE('',#439,#440,#368,.T.);
#540=EDGE_CURVE('',#440,#438,#369,.T.);
#541=EDGE_CURVE('',#437,#439,#370,.T.);
#542=EDGE_CURVE('',#418,#440,#222,.T.);
#543=EDGE_CURVE('',#439,#419,#223,.T.);
#544=EDGE_CURVE('',#423,#414,#224,.T.);
#545=EDGE_CURVE('',#391,#421,#225,.T.);
#546=EDGE_CURVE('',#420,#392,#226,.T.);
#547=EDGE_CURVE('',#393,#438,#227,.T.);
#548=EDGE_CURVE('',#440,#394,#228,.T.);
#549=EDGE_CURVE('',#395,#418,#229,.T.);
#550=EDGE_CURVE('',#417,#396,#230,.T.);
#551=EDGE_CURVE('',#397,#431,#231,.T.);
#552=EDGE_CURVE('',#441,#442,#232,.T.);
#553=EDGE_CURVE('',#442,#443,#31,.T.);
#554=EDGE_CURVE('',#443,#444,#233,.T.);
#555=EDGE_CURVE('',#441,#444,#32,.T.);
#556=EDGE_CURVE('',#442,#445,#234,.T.);
#557=EDGE_CURVE('',#445,#446,#33,.T.);
#558=EDGE_CURVE('',#446,#443,#235,.T.);
#559=EDGE_CURVE('',#388,#447,#236,.T.);
#560=EDGE_CURVE('',#447,#448,#371,.T.);
#561=EDGE_CURVE('',#448,#449,#237,.T.);
#562=EDGE_CURVE('',#449,#388,#34,.T.);
#563=EDGE_CURVE('',#449,#450,#238,.T.);
#564=EDGE_CURVE('',#450,#389,#35,.T.);
#565=EDGE_CURVE('',#451,#452,#239,.T.);
#566=EDGE_CURVE('',#452,#453,#372,.T.);
#567=EDGE_CURVE('',#453,#454,#240,.T.);
#568=EDGE_CURVE('',#454,#451,#36,.T.);
#569=EDGE_CURVE('',#455,#456,#373,.T.);
#570=EDGE_CURVE('',#456,#453,#374,.T.);
#571=EDGE_CURVE('',#452,#455,#375,.T.);
#572=EDGE_CURVE('',#450,#456,#241,.T.);
#573=EDGE_CURVE('',#455,#389,#242,.T.);
#574=EDGE_CURVE('',#457,#458,#376,.T.);
#575=EDGE_CURVE('',#458,#448,#377,.T.);
#576=EDGE_CURVE('',#447,#457,#378,.T.);
#577=EDGE_CURVE('',#445,#458,#243,.T.);
#578=EDGE_CURVE('',#457,#446,#244,.T.);
#579=EDGE_CURVE('',#444,#451,#245,.T.);
#580=EDGE_CURVE('',#454,#441,#246,.T.);
#581=EDGE_CURVE('',#447,#402,#247,.T.);
#582=EDGE_CURVE('',#403,#455,#248,.T.);
#583=EDGE_CURVE('',#452,#404,#249,.T.);
#584=EDGE_CURVE('',#405,#451,#250,.T.);
#585=EDGE_CURVE('',#401,#457,#251,.T.);
#586=EDGE_CURVE('',#436,#412,#252,.T.);
#587=EDGE_CURVE('',#411,#434,#253,.T.);
#588=EDGE_CURVE('',#426,#410,#254,.T.);
#589=EDGE_CURVE('',#429,#408,#255,.T.);
#590=EDGE_CURVE('',#409,#427,#256,.T.);
#591=EDGE_CURVE('',#413,#424,#257,.T.);
#592=EDGE_CURVE('',#406,#444,#258,.T.);
#593=EDGE_CURVE('',#399,#443,#259,.T.);
#594=EDGE_CURVE('',#400,#446,#260,.T.);
#595=ORIENTED_EDGE('',*,*,#459,.F.);
#596=ORIENTED_EDGE('',*,*,#460,.F.);
#597=ORIENTED_EDGE('',*,*,#461,.F.);
#598=ORIENTED_EDGE('',*,*,#462,.F.);
#599=ORIENTED_EDGE('',*,*,#463,.F.);
#600=ORIENTED_EDGE('',*,*,#464,.F.);
#601=ORIENTED_EDGE('',*,*,#465,.F.);
#602=ORIENTED_EDGE('',*,*,#466,.F.);
#603=ORIENTED_EDGE('',*,*,#465,.T.);
#604=ORIENTED_EDGE('',*,*,#467,.T.);
#605=ORIENTED_EDGE('',*,*,#468,.T.);
#606=ORIENTED_EDGE('',*,*,#469,.F.);
#607=ORIENTED_EDGE('',*,*,#470,.F.);
#608=ORIENTED_EDGE('',*,*,#471,.T.);
#609=ORIENTED_EDGE('',*,*,#464,.T.);
#610=ORIENTED_EDGE('',*,*,#472,.F.);
#611=ORIENTED_EDGE('',*,*,#473,.F.);
#612=ORIENTED_EDGE('',*,*,#474,.F.);
#613=ORIENTED_EDGE('',*,*,#475,.F.);
#614=ORIENTED_EDGE('',*,*,#476,.F.);
#615=ORIENTED_EDGE('',*,*,#477,.F.);
#616=ORIENTED_EDGE('',*,*,#478,.F.);
#617=ORIENTED_EDGE('',*,*,#479,.F.);
#618=ORIENTED_EDGE('',*,*,#480,.F.);
#619=ORIENTED_EDGE('',*,*,#460,.T.);
#620=ORIENTED_EDGE('',*,*,#481,.F.);
#621=ORIENTED_EDGE('',*,*,#482,.F.);
#622=ORIENTED_EDGE('',*,*,#483,.F.);
#623=ORIENTED_EDGE('',*,*,#484,.F.);
#624=ORIENTED_EDGE('',*,*,#485,.F.);
#625=ORIENTED_EDGE('',*,*,#467,.F.);
#626=ORIENTED_EDGE('',*,*,#466,.T.);
#627=ORIENTED_EDGE('',*,*,#471,.F.);
#628=ORIENTED_EDGE('',*,*,#486,.F.);
#629=ORIENTED_EDGE('',*,*,#487,.F.);
#630=ORIENTED_EDGE('',*,*,#488,.F.);
#631=ORIENTED_EDGE('',*,*,#489,.F.);
#632=ORIENTED_EDGE('',*,*,#490,.F.);
#633=ORIENTED_EDGE('',*,*,#462,.T.);
#634=ORIENTED_EDGE('',*,*,#491,.F.);
#635=ORIENTED_EDGE('',*,*,#492,.F.);
#636=ORIENTED_EDGE('',*,*,#493,.F.);
#637=ORIENTED_EDGE('',*,*,#494,.F.);
#638=ORIENTED_EDGE('',*,*,#495,.F.);
#639=ORIENTED_EDGE('',*,*,#496,.F.);
#640=ORIENTED_EDGE('',*,*,#497,.F.);
#641=ORIENTED_EDGE('',*,*,#498,.F.);
#642=ORIENTED_EDGE('',*,*,#499,.F.);
#643=ORIENTED_EDGE('',*,*,#461,.T.);
#644=ORIENTED_EDGE('',*,*,#480,.T.);
#645=ORIENTED_EDGE('',*,*,#500,.F.);
#646=ORIENTED_EDGE('',*,*,#501,.F.);
#647=ORIENTED_EDGE('',*,*,#502,.F.);
#648=ORIENTED_EDGE('',*,*,#491,.T.);
#649=ORIENTED_EDGE('',*,*,#503,.T.);
#650=ORIENTED_EDGE('',*,*,#504,.T.);
#651=ORIENTED_EDGE('',*,*,#505,.T.);
#652=ORIENTED_EDGE('',*,*,#506,.T.);
#653=ORIENTED_EDGE('',*,*,#507,.T.);
#654=ORIENTED_EDGE('',*,*,#508,.T.);
#655=ORIENTED_EDGE('',*,*,#509,.T.);
#656=ORIENTED_EDGE('',*,*,#510,.T.);
#657=ORIENTED_EDGE('',*,*,#511,.T.);
#658=ORIENTED_EDGE('',*,*,#512,.T.);
#659=ORIENTED_EDGE('',*,*,#513,.T.);
#660=ORIENTED_EDGE('',*,*,#514,.T.);
#661=ORIENTED_EDGE('',*,*,#515,.T.);
#662=ORIENTED_EDGE('',*,*,#516,.T.);
#663=ORIENTED_EDGE('',*,*,#517,.T.);
#664=ORIENTED_EDGE('',*,*,#518,.T.);
#665=ORIENTED_EDGE('',*,*,#519,.T.);
#666=ORIENTED_EDGE('',*,*,#520,.T.);
#667=ORIENTED_EDGE('',*,*,#505,.F.);
#668=ORIENTED_EDGE('',*,*,#521,.T.);
#669=ORIENTED_EDGE('',*,*,#519,.F.);
#670=ORIENTED_EDGE('',*,*,#522,.T.);
#671=ORIENTED_EDGE('',*,*,#516,.F.);
#672=ORIENTED_EDGE('',*,*,#501,.T.);
#673=ORIENTED_EDGE('',*,*,#520,.F.);
#674=ORIENTED_EDGE('',*,*,#523,.T.);
#675=ORIENTED_EDGE('',*,*,#513,.F.);
#676=ORIENTED_EDGE('',*,*,#524,.T.);
#677=ORIENTED_EDGE('',*,*,#517,.F.);
#678=ORIENTED_EDGE('',*,*,#525,.T.);
#679=ORIENTED_EDGE('',*,*,#514,.F.);
#680=ORIENTED_EDGE('',*,*,#526,.T.);
#681=ORIENTED_EDGE('',*,*,#527,.T.);
#682=ORIENTED_EDGE('',*,*,#528,.T.);
#683=ORIENTED_EDGE('',*,*,#529,.T.);
#684=ORIENTED_EDGE('',*,*,#530,.T.);
#685=ORIENTED_EDGE('',*,*,#527,.F.);
#686=ORIENTED_EDGE('',*,*,#531,.T.);
#687=ORIENTED_EDGE('',*,*,#510,.F.);
#688=ORIENTED_EDGE('',*,*,#532,.T.);
#689=ORIENTED_EDGE('',*,*,#529,.F.);
#690=ORIENTED_EDGE('',*,*,#533,.T.);
#691=ORIENTED_EDGE('',*,*,#507,.F.);
#692=ORIENTED_EDGE('',*,*,#534,.T.);
#693=ORIENTED_EDGE('',*,*,#511,.F.);
#694=ORIENTED_EDGE('',*,*,#535,.T.);
#695=ORIENTED_EDGE('',*,*,#508,.F.);
#696=ORIENTED_EDGE('',*,*,#536,.T.);
#697=ORIENTED_EDGE('',*,*,#537,.T.);
#698=ORIENTED_EDGE('',*,*,#538,.T.);
#699=ORIENTED_EDGE('',*,*,#539,.T.);
#700=ORIENTED_EDGE('',*,*,#540,.T.);
#701=ORIENTED_EDGE('',*,*,#537,.F.);
#702=ORIENTED_EDGE('',*,*,#541,.T.);
#703=ORIENTED_EDGE('',*,*,#504,.F.);
#704=ORIENTED_EDGE('',*,*,#542,.T.);
#705=ORIENTED_EDGE('',*,*,#539,.F.);
#706=ORIENTED_EDGE('',*,*,#543,.T.);
#707=ORIENTED_EDGE('',*,*,#463,.T.);
#708=ORIENTED_EDGE('',*,*,#499,.T.);
#709=ORIENTED_EDGE('',*,*,#544,.F.);
#710=ORIENTED_EDGE('',*,*,#534,.F.);
#711=ORIENTED_EDGE('',*,*,#545,.F.);
#712=ORIENTED_EDGE('',*,*,#472,.T.);
#713=ORIENTED_EDGE('',*,*,#506,.F.);
#714=ORIENTED_EDGE('',*,*,#546,.T.);
#715=ORIENTED_EDGE('',*,*,#473,.T.);
#716=ORIENTED_EDGE('',*,*,#545,.T.);
#717=ORIENTED_EDGE('',*,*,#538,.F.);
#718=ORIENTED_EDGE('',*,*,#547,.F.);
#719=ORIENTED_EDGE('',*,*,#474,.T.);
#720=ORIENTED_EDGE('',*,*,#546,.F.);
#721=ORIENTED_EDGE('',*,*,#540,.F.);
#722=ORIENTED_EDGE('',*,*,#548,.T.);
#723=ORIENTED_EDGE('',*,*,#475,.T.);
#724=ORIENTED_EDGE('',*,*,#547,.T.);
#725=ORIENTED_EDGE('',*,*,#542,.F.);
#726=ORIENTED_EDGE('',*,*,#549,.F.);
#727=ORIENTED_EDGE('',*,*,#476,.T.);
#728=ORIENTED_EDGE('',*,*,#548,.F.);
#729=ORIENTED_EDGE('',*,*,#503,.F.);
#730=ORIENTED_EDGE('',*,*,#550,.T.);
#731=ORIENTED_EDGE('',*,*,#477,.T.);
#732=ORIENTED_EDGE('',*,*,#549,.T.);
#733=ORIENTED_EDGE('',*,*,#522,.F.);
#734=ORIENTED_EDGE('',*,*,#551,.F.);
#735=ORIENTED_EDGE('',*,*,#478,.T.);
#736=ORIENTED_EDGE('',*,*,#550,.F.);
#737=ORIENTED_EDGE('',*,*,#518,.F.);
#738=ORIENTED_EDGE('',*,*,#500,.T.);
#739=ORIENTED_EDGE('',*,*,#479,.T.);
#740=ORIENTED_EDGE('',*,*,#551,.T.);
#741=ORIENTED_EDGE('',*,*,#521,.F.);
#742=ORIENTED_EDGE('',*,*,#543,.F.);
#743=ORIENTED_EDGE('',*,*,#541,.F.);
#744=ORIENTED_EDGE('',*,*,#536,.F.);
#745=ORIENTED_EDGE('',*,*,#535,.F.);
#746=ORIENTED_EDGE('',*,*,#533,.F.);
#747=ORIENTED_EDGE('',*,*,#531,.F.);
#748=ORIENTED_EDGE('',*,*,#526,.F.);
#749=ORIENTED_EDGE('',*,*,#525,.F.);
#750=ORIENTED_EDGE('',*,*,#523,.F.);
#751=ORIENTED_EDGE('',*,*,#552,.T.);
#752=ORIENTED_EDGE('',*,*,#553,.T.);
#753=ORIENTED_EDGE('',*,*,#554,.T.);
#754=ORIENTED_EDGE('',*,*,#555,.F.);
#755=ORIENTED_EDGE('',*,*,#556,.T.);
#756=ORIENTED_EDGE('',*,*,#557,.T.);
#757=ORIENTED_EDGE('',*,*,#558,.T.);
#758=ORIENTED_EDGE('',*,*,#553,.F.);
#759=ORIENTED_EDGE('',*,*,#559,.T.);
#760=ORIENTED_EDGE('',*,*,#560,.T.);
#761=ORIENTED_EDGE('',*,*,#561,.T.);
#762=ORIENTED_EDGE('',*,*,#562,.T.);
#763=ORIENTED_EDGE('',*,*,#563,.T.);
#764=ORIENTED_EDGE('',*,*,#564,.T.);
#765=ORIENTED_EDGE('',*,*,#469,.T.);
#766=ORIENTED_EDGE('',*,*,#562,.F.);
#767=ORIENTED_EDGE('',*,*,#565,.T.);
#768=ORIENTED_EDGE('',*,*,#566,.T.);
#769=ORIENTED_EDGE('',*,*,#567,.T.);
#770=ORIENTED_EDGE('',*,*,#568,.T.);
#771=ORIENTED_EDGE('',*,*,#569,.T.);
#772=ORIENTED_EDGE('',*,*,#570,.T.);
#773=ORIENTED_EDGE('',*,*,#566,.F.);
#774=ORIENTED_EDGE('',*,*,#571,.T.);
#775=ORIENTED_EDGE('',*,*,#572,.T.);
#776=ORIENTED_EDGE('',*,*,#569,.F.);
#777=ORIENTED_EDGE('',*,*,#573,.T.);
#778=ORIENTED_EDGE('',*,*,#564,.F.);
#779=ORIENTED_EDGE('',*,*,#574,.T.);
#780=ORIENTED_EDGE('',*,*,#575,.T.);
#781=ORIENTED_EDGE('',*,*,#560,.F.);
#782=ORIENTED_EDGE('',*,*,#576,.T.);
#783=ORIENTED_EDGE('',*,*,#577,.T.);
#784=ORIENTED_EDGE('',*,*,#574,.F.);
#785=ORIENTED_EDGE('',*,*,#578,.T.);
#786=ORIENTED_EDGE('',*,*,#557,.F.);
#787=ORIENTED_EDGE('',*,*,#579,.T.);
#788=ORIENTED_EDGE('',*,*,#568,.F.);
#789=ORIENTED_EDGE('',*,*,#580,.T.);
#790=ORIENTED_EDGE('',*,*,#555,.T.);
#791=ORIENTED_EDGE('',*,*,#559,.F.);
#792=ORIENTED_EDGE('',*,*,#468,.F.);
#793=ORIENTED_EDGE('',*,*,#485,.T.);
#794=ORIENTED_EDGE('',*,*,#581,.F.);
#795=ORIENTED_EDGE('',*,*,#573,.F.);
#796=ORIENTED_EDGE('',*,*,#582,.F.);
#797=ORIENTED_EDGE('',*,*,#486,.T.);
#798=ORIENTED_EDGE('',*,*,#470,.T.);
#799=ORIENTED_EDGE('',*,*,#571,.F.);
#800=ORIENTED_EDGE('',*,*,#583,.T.);
#801=ORIENTED_EDGE('',*,*,#487,.T.);
#802=ORIENTED_EDGE('',*,*,#582,.T.);
#803=ORIENTED_EDGE('',*,*,#565,.F.);
#804=ORIENTED_EDGE('',*,*,#584,.F.);
#805=ORIENTED_EDGE('',*,*,#488,.T.);
#806=ORIENTED_EDGE('',*,*,#583,.F.);
#807=ORIENTED_EDGE('',*,*,#567,.F.);
#808=ORIENTED_EDGE('',*,*,#570,.F.);
#809=ORIENTED_EDGE('',*,*,#572,.F.);
#810=ORIENTED_EDGE('',*,*,#563,.F.);
#811=ORIENTED_EDGE('',*,*,#561,.F.);
#812=ORIENTED_EDGE('',*,*,#575,.F.);
#813=ORIENTED_EDGE('',*,*,#577,.F.);
#814=ORIENTED_EDGE('',*,*,#556,.F.);
#815=ORIENTED_EDGE('',*,*,#552,.F.);
#816=ORIENTED_EDGE('',*,*,#580,.F.);
#817=ORIENTED_EDGE('',*,*,#576,.F.);
#818=ORIENTED_EDGE('',*,*,#581,.T.);
#819=ORIENTED_EDGE('',*,*,#484,.T.);
#820=ORIENTED_EDGE('',*,*,#585,.T.);
#821=ORIENTED_EDGE('',*,*,#530,.F.);
#822=ORIENTED_EDGE('',*,*,#586,.T.);
#823=ORIENTED_EDGE('',*,*,#496,.T.);
#824=ORIENTED_EDGE('',*,*,#587,.T.);
#825=ORIENTED_EDGE('',*,*,#528,.F.);
#826=ORIENTED_EDGE('',*,*,#587,.F.);
#827=ORIENTED_EDGE('',*,*,#495,.T.);
#828=ORIENTED_EDGE('',*,*,#588,.F.);
#829=ORIENTED_EDGE('',*,*,#515,.F.);
#830=ORIENTED_EDGE('',*,*,#589,.T.);
#831=ORIENTED_EDGE('',*,*,#492,.T.);
#832=ORIENTED_EDGE('',*,*,#502,.T.);
#833=ORIENTED_EDGE('',*,*,#524,.F.);
#834=ORIENTED_EDGE('',*,*,#590,.F.);
#835=ORIENTED_EDGE('',*,*,#493,.T.);
#836=ORIENTED_EDGE('',*,*,#589,.F.);
#837=ORIENTED_EDGE('',*,*,#512,.F.);
#838=ORIENTED_EDGE('',*,*,#588,.T.);
#839=ORIENTED_EDGE('',*,*,#494,.T.);
#840=ORIENTED_EDGE('',*,*,#590,.T.);
#841=ORIENTED_EDGE('',*,*,#509,.F.);
#842=ORIENTED_EDGE('',*,*,#544,.T.);
#843=ORIENTED_EDGE('',*,*,#498,.T.);
#844=ORIENTED_EDGE('',*,*,#591,.T.);
#845=ORIENTED_EDGE('',*,*,#579,.F.);
#846=ORIENTED_EDGE('',*,*,#592,.F.);
#847=ORIENTED_EDGE('',*,*,#489,.T.);
#848=ORIENTED_EDGE('',*,*,#584,.T.);
#849=ORIENTED_EDGE('',*,*,#459,.T.);
#850=ORIENTED_EDGE('',*,*,#490,.T.);
#851=ORIENTED_EDGE('',*,*,#592,.T.);
#852=ORIENTED_EDGE('',*,*,#554,.F.);
#853=ORIENTED_EDGE('',*,*,#593,.F.);
#854=ORIENTED_EDGE('',*,*,#481,.T.);
#855=ORIENTED_EDGE('',*,*,#558,.F.);
#856=ORIENTED_EDGE('',*,*,#594,.F.);
#857=ORIENTED_EDGE('',*,*,#482,.T.);
#858=ORIENTED_EDGE('',*,*,#593,.T.);
#859=ORIENTED_EDGE('',*,*,#578,.F.);
#860=ORIENTED_EDGE('',*,*,#585,.F.);
#861=ORIENTED_EDGE('',*,*,#483,.T.);
#862=ORIENTED_EDGE('',*,*,#594,.T.);
#863=ORIENTED_EDGE('',*,*,#532,.F.);
#864=ORIENTED_EDGE('',*,*,#591,.F.);
#865=ORIENTED_EDGE('',*,*,#497,.T.);
#866=ORIENTED_EDGE('',*,*,#586,.F.);
#867=CYLINDRICAL_SURFACE('',#967,12.5);
#868=CYLINDRICAL_SURFACE('',#970,12.5);
#869=CYLINDRICAL_SURFACE('',#1005,4.2);
#870=CYLINDRICAL_SURFACE('',#1006,4.2);
#871=CYLINDRICAL_SURFACE('',#1007,4.2);
#872=CYLINDRICAL_SURFACE('',#1008,4.2);
#873=CYLINDRICAL_SURFACE('',#1014,4.2);
#874=CYLINDRICAL_SURFACE('',#1015,4.2);
#875=CYLINDRICAL_SURFACE('',#1016,4.2);
#876=CYLINDRICAL_SURFACE('',#1022,4.2);
#877=CYLINDRICAL_SURFACE('',#1024,0.2);
#878=CYLINDRICAL_SURFACE('',#1026,3.);
#879=CYLINDRICAL_SURFACE('',#1028,0.2);
#880=CYLINDRICAL_SURFACE('',#1030,0.2);
#881=CYLINDRICAL_SURFACE('',#1032,3.);
#882=CYLINDRICAL_SURFACE('',#1035,3.);
#883=CYLINDRICAL_SURFACE('',#1037,3.);
#884=CYLINDRICAL_SURFACE('',#1040,3.);
#885=CYLINDRICAL_SURFACE('',#1042,3.);
#886=CYLINDRICAL_SURFACE('',#1049,3.);
#887=CYLINDRICAL_SURFACE('',#1054,3.);
#888=CYLINDRICAL_SURFACE('',#1055,3.);
#889=CYLINDRICAL_SURFACE('',#1058,4.2);
#890=CYLINDRICAL_SURFACE('',#1061,4.2);
#891=CYLINDRICAL_SURFACE('',#1062,3.);
#892=CYLINDRICAL_SURFACE('',#1064,0.2);
#893=CYLINDRICAL_SURFACE('',#1066,0.2);
#894=CYLINDRICAL_SURFACE('',#1067,0.2);
#895=ADVANCED_FACE('',(#63),#867,.F.);
#896=ADVANCED_FACE('',(#64),#868,.F.);
#897=ADVANCED_FACE('',(#65),#43,.T.);
#898=ADVANCED_FACE('',(#66),#44,.F.);
#899=ADVANCED_FACE('',(#67),#45,.F.);
#900=ADVANCED_FACE('',(#68),#46,.T.);
#901=ADVANCED_FACE('',(#69),#37,.F.);
#902=ADVANCED_FACE('',(#70),#38,.F.);
#903=ADVANCED_FACE('',(#71),#39,.F.);
#904=ADVANCED_FACE('',(#72),#40,.F.);
#905=ADVANCED_FACE('',(#73),#41,.F.);
#906=ADVANCED_FACE('',(#74),#42,.F.);
#907=ADVANCED_FACE('',(#75),#869,.T.);
#908=ADVANCED_FACE('',(#76),#870,.T.);
#909=ADVANCED_FACE('',(#77),#871,.T.);
#910=ADVANCED_FACE('',(#78),#872,.T.);
#911=ADVANCED_FACE('',(#79),#15,.T.);
#912=ADVANCED_FACE('',(#80),#873,.T.);
#913=ADVANCED_FACE('',(#81),#874,.T.);
#914=ADVANCED_FACE('',(#82),#875,.T.);
#915=ADVANCED_FACE('',(#83),#16,.T.);
#916=ADVANCED_FACE('',(#84),#876,.T.);
#917=ADVANCED_FACE('',(#85),#47,.T.);
#918=ADVANCED_FACE('',(#86),#877,.T.);
#919=ADVANCED_FACE('',(#87),#48,.T.);
#920=ADVANCED_FACE('',(#88),#878,.F.);
#921=ADVANCED_FACE('',(#89),#49,.T.);
#922=ADVANCED_FACE('',(#90),#879,.T.);
#923=ADVANCED_FACE('',(#91),#50,.T.);
#924=ADVANCED_FACE('',(#92),#880,.T.);
#925=ADVANCED_FACE('',(#93),#51,.T.);
#926=ADVANCED_FACE('',(#94),#881,.F.);
#927=ADVANCED_FACE('',(#95),#882,.F.);
#928=ADVANCED_FACE('',(#96),#883,.F.);
#929=ADVANCED_FACE('',(#97),#884,.F.);
#930=ADVANCED_FACE('',(#98),#885,.F.);
#931=ADVANCED_FACE('',(#99),#17,.F.);
#932=ADVANCED_FACE('',(#100),#886,.F.);
#933=ADVANCED_FACE('',(#101),#18,.F.);
#934=ADVANCED_FACE('',(#102),#887,.F.);
#935=ADVANCED_FACE('',(#103),#888,.F.);
#936=ADVANCED_FACE('',(#104),#52,.T.);
#937=ADVANCED_FACE('',(#105),#53,.T.);
#938=ADVANCED_FACE('',(#106),#889,.T.);
#939=ADVANCED_FACE('',(#107),#54,.T.);
#940=ADVANCED_FACE('',(#108),#55,.F.);
#941=ADVANCED_FACE('',(#109),#890,.T.);
#942=ADVANCED_FACE('',(#110),#891,.F.);
#943=ADVANCED_FACE('',(#111),#56,.T.);
#944=ADVANCED_FACE('',(#112),#892,.T.);
#945=ADVANCED_FACE('',(#113),#57,.T.);
#946=ADVANCED_FACE('',(#114),#893,.T.);
#947=ADVANCED_FACE('',(#115),#894,.T.);
#948=ADVANCED_FACE('',(#116),#58,.T.);
#949=ADVANCED_FACE('',(#117),#59,.T.);
#950=ADVANCED_FACE('',(#118),#60,.T.);
#951=ADVANCED_FACE('',(#119),#61,.T.);
#952=ADVANCED_FACE('',(#120),#62,.T.);
#953=CLOSED_SHELL('',(#895,#896,#897,#898,#899,#900,#901,#902,#903,#904,
#905,#906,#907,#908,#909,#910,#911,#912,#913,#914,#915,#916,#917,#918,#919,
#920,#921,#922,#923,#924,#925,#926,#927,#928,#929,#930,#931,#932,#933,#934,
#935,#936,#937,#938,#939,#940,#941,#942,#943,#944,#945,#946,#947,#948,#949,
#950,#951,#952));
#954=DERIVED_UNIT_ELEMENT(#956,1.);
#955=DERIVED_UNIT_ELEMENT(#1823,-3.);
#956=(
MASS_UNIT()
NAMED_UNIT(*)
SI_UNIT(.KILO.,.GRAM.)
);
#957=DERIVED_UNIT((#954,#955));
#958=MEASURE_REPRESENTATION_ITEM('density measure',
POSITIVE_RATIO_MEASURE(7850.),#957);
#959=PROPERTY_DEFINITION_REPRESENTATION(#964,#961);
#960=PROPERTY_DEFINITION_REPRESENTATION(#965,#962);
#961=REPRESENTATION('material name',(#963),#1820);
#962=REPRESENTATION('density',(#958),#1820);
#963=DESCRIPTIVE_REPRESENTATION_ITEM('Acier','Acier');
#964=PROPERTY_DEFINITION('material property','material name',#1830);
#965=PROPERTY_DEFINITION('material property','density of part',#1830);
#966=AXIS2_PLACEMENT_3D('',#1369,#1073,#1074);
#967=AXIS2_PLACEMENT_3D('',#1370,#1075,#1076);
#968=AXIS2_PLACEMENT_3D('',#1373,#1077,#1078);
#969=AXIS2_PLACEMENT_3D('',#1377,#1080,#1081);
#970=AXIS2_PLACEMENT_3D('',#1379,#1083,#1084);
#971=AXIS2_PLACEMENT_3D('',#1382,#1085,#1086);
#972=AXIS2_PLACEMENT_3D('',#1386,#1088,#1089);
#973=AXIS2_PLACEMENT_3D('',#1388,#1091,#1092);
#974=AXIS2_PLACEMENT_3D('',#1398,#1098,#1099);
#975=AXIS2_PLACEMENT_3D('',#1402,#1101,#1102);
#976=AXIS2_PLACEMENT_3D('',#1406,#1104,#1105);
#977=AXIS2_PLACEMENT_3D('',#1410,#1107,#1108);
#978=AXIS2_PLACEMENT_3D('',#1414,#1110,#1111);
#979=AXIS2_PLACEMENT_3D('',#1423,#1116,#1117);
#980=AXIS2_PLACEMENT_3D('',#1425,#1119,#1120);
#981=AXIS2_PLACEMENT_3D('',#1429,#1122,#1123);
#982=AXIS2_PLACEMENT_3D('',#1438,#1128,#1129);
#983=AXIS2_PLACEMENT_3D('',#1442,#1131,#1132);
#984=AXIS2_PLACEMENT_3D('',#1446,#1134,#1135);
#985=AXIS2_PLACEMENT_3D('',#1450,#1137,#1138);
#986=AXIS2_PLACEMENT_3D('',#1452,#1140,#1141);
#987=AXIS2_PLACEMENT_3D('',#1490,#1145,#1146);
#988=AXIS2_PLACEMENT_3D('',#1492,#1147,#1148);
#989=AXIS2_PLACEMENT_3D('',#1493,#1149,#1150);
#990=AXIS2_PLACEMENT_3D('',#1526,#1151,#1152);
#991=AXIS2_PLACEMENT_3D('',#1528,#1153,#1154);
#992=AXIS2_PLACEMENT_3D('',#1529,#1155,#1156);
#993=AXIS2_PLACEMENT_3D('',#1562,#1157,#1158);
#994=AXIS2_PLACEMENT_3D('',#1564,#1159,#1160);
#995=AXIS2_PLACEMENT_3D('',#1565,#1161,#1162);
#996=AXIS2_PLACEMENT_3D('',#1598,#1163,#1164);
#997=AXIS2_PLACEMENT_3D('',#1600,#1165,#1166);
#998=AXIS2_PLACEMENT_3D('',#1601,#1167,#1168);
#999=AXIS2_PLACEMENT_3D('',#1633,#1169,#1170);
#1000=AXIS2_PLACEMENT_3D('',#1635,#1171,#1172);
#1001=AXIS2_PLACEMENT_3D('',#1636,#1173,#1174);
#1002=AXIS2_PLACEMENT_3D('',#1668,#1175,#1176);
#1003=AXIS2_PLACEMENT_3D('',#1670,#1177,#1178);
#1004=AXIS2_PLACEMENT_3D('',#1671,#1179,#1180);
#1005=AXIS2_PLACEMENT_3D('',#1672,#1181,#1182);
#1006=AXIS2_PLACEMENT_3D('',#1675,#1185,#1186);
#1007=AXIS2_PLACEMENT_3D('',#1677,#1188,#1189);
#1008=AXIS2_PLACEMENT_3D('',#1680,#1192,#1193);
#1009=AXIS2_PLACEMENT_3D('',#1684,#1195,#1196);
#1010=AXIS2_PLACEMENT_3D('',#1686,#1198,#1199);
#1011=AXIS2_PLACEMENT_3D('',#1689,#1200,#1201);
#1012=AXIS2_PLACEMENT_3D('',#1690,#1202,#1203);
#1013=AXIS2_PLACEMENT_3D('',#1691,#1204,#1205);
#1014=AXIS2_PLACEMENT_3D('',#1692,#1206,#1207);
#1015=AXIS2_PLACEMENT_3D('',#1695,#1210,#1211);
#1016=AXIS2_PLACEMENT_3D('',#1698,#1214,#1215);
#1017=AXIS2_PLACEMENT_3D('',#1702,#1217,#1218);
#1018=AXIS2_PLACEMENT_3D('',#1704,#1220,#1221);
#1019=AXIS2_PLACEMENT_3D('',#1707,#1222,#1223);
#1020=AXIS2_PLACEMENT_3D('',#1708,#1224,#1225);
#1021=AXIS2_PLACEMENT_3D('',#1709,#1226,#1227);
#1022=AXIS2_PLACEMENT_3D('',#1710,#1228,#1229);
#1023=AXIS2_PLACEMENT_3D('',#1713,#1232,#1233);
#1024=AXIS2_PLACEMENT_3D('',#1716,#1236,#1237);
#1025=AXIS2_PLACEMENT_3D('',#1718,#1239,#1240);
#1026=AXIS2_PLACEMENT_3D('',#1720,#1242,#1243);
#1027=AXIS2_PLACEMENT_3D('',#1722,#1245,#1246);
#1028=AXIS2_PLACEMENT_3D('',#1724,#1248,#1249);
#1029=AXIS2_PLACEMENT_3D('',#1726,#1251,#1252);
#1030=AXIS2_PLACEMENT_3D('',#1728,#1254,#1255);
#1031=AXIS2_PLACEMENT_3D('',#1729,#1256,#1257);
#1032=AXIS2_PLACEMENT_3D('',#1730,#1258,#1259);
#1033=AXIS2_PLACEMENT_3D('',#1735,#1261,#1262);
#1034=AXIS2_PLACEMENT_3D('',#1738,#1264,#1265);
#1035=AXIS2_PLACEMENT_3D('',#1739,#1266,#1267);
#1036=AXIS2_PLACEMENT_3D('',#1743,#1269,#1270);
#1037=AXIS2_PLACEMENT_3D('',#1745,#1272,#1273);
#1038=AXIS2_PLACEMENT_3D('',#1749,#1275,#1276);
#1039=AXIS2_PLACEMENT_3D('',#1752,#1278,#1279);
#1040=AXIS2_PLACEMENT_3D('',#1753,#1280,#1281);
#1041=AXIS2_PLACEMENT_3D('',#1756,#1283,#1284);
#1042=AXIS2_PLACEMENT_3D('',#1757,#1285,#1286);
#1043=AXIS2_PLACEMENT_3D('',#1762,#1288,#1289);
#1044=AXIS2_PLACEMENT_3D('',#1765,#1291,#1292);
#1045=AXIS2_PLACEMENT_3D('',#1766,#1293,#1294);
#1046=AXIS2_PLACEMENT_3D('',#1769,#1295,#1296);
#1047=AXIS2_PLACEMENT_3D('',#1770,#1297,#1298);
#1048=AXIS2_PLACEMENT_3D('',#1771,#1299,#1300);
#1049=AXIS2_PLACEMENT_3D('',#1772,#1301,#1302);
#1050=AXIS2_PLACEMENT_3D('',#1775,#1305,#1306);
#1051=AXIS2_PLACEMENT_3D('',#1778,#1307,#1308);
#1052=AXIS2_PLACEMENT_3D('',#1779,#1309,#1310);
#1053=AXIS2_PLACEMENT_3D('',#1780,#1311,#1312);
#1054=AXIS2_PLACEMENT_3D('',#1781,#1313,#1314);
#1055=AXIS2_PLACEMENT_3D('',#1784,#1317,#1318);
#1056=AXIS2_PLACEMENT_3D('',#1787,#1321,#1322);
#1057=AXIS2_PLACEMENT_3D('',#1789,#1324,#1325);
#1058=AXIS2_PLACEMENT_3D('',#1791,#1327,#1328);
#1059=AXIS2_PLACEMENT_3D('',#1793,#1330,#1331);
#1060=AXIS2_PLACEMENT_3D('',#1795,#1333,#1334);
#1061=AXIS2_PLACEMENT_3D('',#1796,#1335,#1336);
#1062=AXIS2_PLACEMENT_3D('',#1798,#1338,#1339);
#1063=AXIS2_PLACEMENT_3D('',#1801,#1342,#1343);
#1064=AXIS2_PLACEMENT_3D('',#1803,#1345,#1346);
#1065=AXIS2_PLACEMENT_3D('',#1805,#1348,#1349);
#1066=AXIS2_PLACEMENT_3D('',#1807,#1351,#1352);
#1067=AXIS2_PLACEMENT_3D('',#1808,#1353,#1354);
#1068=AXIS2_PLACEMENT_3D('',#1810,#1356,#1357);
#1069=AXIS2_PLACEMENT_3D('',#1812,#1359,#1360);
#1070=AXIS2_PLACEMENT_3D('',#1814,#1362,#1363);
#1071=AXIS2_PLACEMENT_3D('',#1816,#1365,#1366);
#1072=AXIS2_PLACEMENT_3D('',#1817,#1367,#1368);
#1073=DIRECTION('axis',(0.,0.,1.));
#1074=DIRECTION('refdir',(1.,0.,0.));
#1075=DIRECTION('center_axis',(0.,-1.,0.));
#1076=DIRECTION('ref_axis',(-1.,0.,0.));
#1077=DIRECTION('center_axis',(2.73386610348502E-17,1.,0.));
#1078=DIRECTION('ref_axis',(-1.,0.,0.));
#1079=DIRECTION('',(0.,-1.,0.));
#1080=DIRECTION('center_axis',(0.,-1.,0.));
#1081=DIRECTION('ref_axis',(-1.,0.,0.));
#1082=DIRECTION('',(0.,1.,0.));
#1083=DIRECTION('center_axis',(0.,-1.,0.));
#1084=DIRECTION('ref_axis',(-1.,0.,0.));
#1085=DIRECTION('center_axis',(8.52051438699259E-17,1.,0.));
#1086=DIRECTION('ref_axis',(-1.,0.,0.));
#1087=DIRECTION('',(0.,-1.,0.));
#1088=DIRECTION('center_axis',(-8.93180228982409E-17,-1.,0.));
#1089=DIRECTION('ref_axis',(-1.,0.,0.));
#1090=DIRECTION('',(0.,1.,0.));
#1091=DIRECTION('center_axis',(8.93180228982409E-17,1.,0.));
#1092=DIRECTION('ref_axis',(-1.,8.93180228982409E-17,0.));
#1093=DIRECTION('',(-1.,8.93180228982409E-17,0.));
#1094=DIRECTION('',(0.,0.,1.));
#1095=DIRECTION('',(-1.,8.93180228982409E-17,0.));
#1096=DIRECTION('',(0.,0.,1.));
#1097=DIRECTION('',(-1.,8.93180228982409E-17,0.));
#1098=DIRECTION('center_axis',(0.,0.,1.));
#1099=DIRECTION('ref_axis',(1.,0.,0.));
#1100=DIRECTION('',(1.,-8.52051438699259E-17,0.));
#1101=DIRECTION('center_axis',(0.,0.,1.));
#1102=DIRECTION('ref_axis',(-0.707106781186532,-0.707106781186563,0.));
#1103=DIRECTION('',(0.,-1.,0.));
#1104=DIRECTION('center_axis',(0.,0.,-1.));
#1105=DIRECTION('ref_axis',(0.707106781186549,0.707106781186546,0.));
#1106=DIRECTION('',(1.,-4.23210809895253E-16,0.));
#1107=DIRECTION('center_axis',(0.,0.,1.));
#1108=DIRECTION('ref_axis',(-0.70710678118654,-0.707106781186555,0.));
#1109=DIRECTION('',(-2.99857670391659E-16,-1.,0.));
#1110=DIRECTION('center_axis',(0.,0.,1.));
#1111=DIRECTION('ref_axis',(-0.70710678118654,0.707106781186555,0.));
#1112=DIRECTION('',(-1.,0.,0.));
#1113=DIRECTION('',(1.,-2.73386610348502E-17,0.));
#1114=DIRECTION('',(3.26296259992686E-16,1.,0.));
#1115=DIRECTION('',(-1.,5.64281079860337E-16,0.));
#1116=DIRECTION('center_axis',(0.,0.,1.));
#1117=DIRECTION('ref_axis',(0.707106781186548,0.707106781186547,0.));
#1118=DIRECTION('',(0.,1.,0.));
#1119=DIRECTION('center_axis',(0.,0.,1.));
#1120=DIRECTION('ref_axis',(1.,0.,0.));
#1121=DIRECTION('',(-2.61228946970626E-16,-1.,0.));
#1122=DIRECTION('center_axis',(0.,0.,1.));
#1123=DIRECTION('ref_axis',(-0.707106781186362,0.707106781186733,0.));
#1124=DIRECTION('',(-1.,5.25101676748478E-13,0.));
#1125=DIRECTION('',(2.93014041473354E-13,-1.,0.));
#1126=DIRECTION('',(1.,-2.73386610348502E-17,0.));
#1127=DIRECTION('',(-1.,0.,0.));
#1128=DIRECTION('center_axis',(0.,0.,1.));
#1129=DIRECTION('ref_axis',(0.707106781186438,0.707106781186657,0.));
#1130=DIRECTION('',(-2.93260801642964E-13,1.,0.));
#1131=DIRECTION('center_axis',(0.,0.,1.));
#1132=DIRECTION('ref_axis',(0.707106781186453,-0.707106781186642,0.));
#1133=DIRECTION('',(1.,-5.25101676748466E-13,0.));
#1134=DIRECTION('center_axis',(0.,0.,-1.));
#1135=DIRECTION('ref_axis',(-0.707106781186362,0.707106781186733,0.));
#1136=DIRECTION('',(2.61228946970635E-16,1.,0.));
#1137=DIRECTION('center_axis',(0.,0.,1.));
#1138=DIRECTION('ref_axis',(0.707106781186548,-0.707106781186548,0.));
#1139=DIRECTION('',(1.,-8.52051438699259E-17,0.));
#1140=DIRECTION('center_axis',(0.,1.,0.));
#1141=DIRECTION('ref_axis',(-1.,0.,0.));
#1142=DIRECTION('',(0.,0.,-1.));
#1143=DIRECTION('',(-1.,0.,0.));
#1144=DIRECTION('',(0.,0.,1.));
#1145=DIRECTION('center_axis',(0.,0.,1.));
#1146=DIRECTION('ref_axis',(-1.,0.,0.));
#1147=DIRECTION('center_axis',(-0.724137931034482,0.689655172413793,0.));
#1148=DIRECTION('ref_axis',(-0.689655172413793,-0.724137931034482,0.));
#1149=DIRECTION('center_axis',(0.689655172413793,-0.724137931034483,-3.82835525732813E-16));
#1150=DIRECTION('ref_axis',(-0.724137931034483,-0.689655172413793,0.));
#1151=DIRECTION('center_axis',(0.,0.,1.));
#1152=DIRECTION('ref_axis',(-1.,0.,0.));
#1153=DIRECTION('center_axis',(-0.724137931034483,0.689655172413793,0.));
#1154=DIRECTION('ref_axis',(-0.689655172413793,-0.724137931034483,0.));
#1155=DIRECTION('center_axis',(0.689655172413793,-0.724137931034483,0.));
#1156=DIRECTION('ref_axis',(-0.724137931034483,-0.689655172413793,0.));
#1157=DIRECTION('center_axis',(0.,0.,1.));
#1158=DIRECTION('ref_axis',(2.22044604925026E-14,-1.,0.));
#1159=DIRECTION('center_axis',(-0.689655172413793,-0.724137931034483,0.));
#1160=DIRECTION('ref_axis',(0.724137931034483,-0.689655172413793,0.));
#1161=DIRECTION('center_axis',(0.724137931034483,0.689655172413793,-7.65671051465626E-16));
#1162=DIRECTION('ref_axis',(0.689655172413793,-0.724137931034483,0.));
#1163=DIRECTION('center_axis',(0.,0.,1.));
#1164=DIRECTION('ref_axis',(-4.88498130835052E-13,-1.,0.));
#1165=DIRECTION('center_axis',(-0.689655172413876,-0.724137931034404,7.29210525205445E-16));
#1166=DIRECTION('ref_axis',(0.724137931034404,-0.689655172413876,0.));
#1167=DIRECTION('center_axis',(0.724137931034563,0.689655172413709,-7.6567105146571E-16));
#1168=DIRECTION('ref_axis',(0.689655172413709,-0.724137931034563,0.));
#1169=DIRECTION('center_axis',(0.,0.,1.));
#1170=DIRECTION('ref_axis',(1.,3.1086244689505E-13,0.));
#1171=DIRECTION('center_axis',(0.724137931034583,-0.689655172413687,0.));
#1172=DIRECTION('ref_axis',(0.689655172413687,0.724137931034584,0.));
#1173=DIRECTION('center_axis',(-0.6896551724139,0.724137931034381,-3.82835525732759E-16));
#1174=DIRECTION('ref_axis',(0.724137931034381,0.6896551724139,0.));
#1175=DIRECTION('center_axis',(0.,0.,1.));
#1176=DIRECTION('ref_axis',(0.,1.,0.));
#1177=DIRECTION('center_axis',(0.689655172413793,0.724137931034483,3.82835525732813E-16));
#1178=DIRECTION('ref_axis',(-0.724137931034483,0.689655172413793,0.));
#1179=DIRECTION('center_axis',(-0.724137931034483,-0.689655172413793,-1.1302763140683E-15));
#1180=DIRECTION('ref_axis',(-0.689655172413793,0.724137931034483,0.));
#1181=DIRECTION('center_axis',(-2.99857670391659E-16,-1.,0.));
#1182=DIRECTION('ref_axis',(-0.707106781186547,1.86915768890926E-16,0.707106781186548));
#1183=DIRECTION('',(2.99857670391659E-16,1.,0.));
#1184=DIRECTION('',(-2.99857670391659E-16,-1.,0.));
#1185=DIRECTION('center_axis',(-1.,0.,0.));
#1186=DIRECTION('ref_axis',(0.,0.707106781186548,0.707106781186548));
#1187=DIRECTION('',(1.,0.,0.));
#1188=DIRECTION('center_axis',(-2.93260801642964E-13,1.,0.));
#1189=DIRECTION('ref_axis',(0.707106781186548,2.07850335006709E-13,0.707106781186548));
#1190=DIRECTION('',(-2.93260801642964E-13,1.,0.));
#1191=DIRECTION('',(2.93260801642964E-13,-1.,0.));
#1192=DIRECTION('center_axis',(1.,-5.25101676748466E-13,0.));
#1193=DIRECTION('ref_axis',(-3.70840885479596E-13,-0.707106781186548,0.707106781186548));
#1194=DIRECTION('',(-1.,5.25101676748466E-13,0.));
#1195=DIRECTION('center_axis',(1.,-5.24448209727693E-13,0.));
#1196=DIRECTION('ref_axis',(0.,0.,1.));
#1197=DIRECTION('',(1.,-5.25101676748466E-13,0.));
#1198=DIRECTION('center_axis',(0.,0.,1.));
#1199=DIRECTION('ref_axis',(1.,0.,0.));
#1200=DIRECTION('center_axis',(0.,1.,0.));
#1201=DIRECTION('ref_axis',(0.,0.,1.));
#1202=DIRECTION('center_axis',(0.,0.,-1.));
#1203=DIRECTION('ref_axis',(-0.707106781186362,0.707106781186733,0.));
#1204=DIRECTION('center_axis',(0.,0.,1.));
#1205=DIRECTION('ref_axis',(-0.707106781186362,0.707106781186733,0.));
#1206=DIRECTION('center_axis',(2.61228946970635E-16,1.,0.));
#1207=DIRECTION('ref_axis',(0.707106781186548,0.,0.707106781186548));
#1208=DIRECTION('',(2.61228946970635E-16,1.,0.));
#1209=DIRECTION('',(-2.61228946970635E-16,-1.,0.));
#1210=DIRECTION('center_axis',(1.,-8.52051438699259E-17,0.));
#1211=DIRECTION('ref_axis',(0.,-0.707106781186548,0.707106781186548));
#1212=DIRECTION('',(1.,-8.52051438699259E-17,0.));
#1213=DIRECTION('',(-1.,8.52051438699259E-17,0.));
#1214=DIRECTION('center_axis',(0.,-1.,0.));
#1215=DIRECTION('ref_axis',(-0.707106781186548,0.,0.707106781186548));
#1216=DIRECTION('',(0.,1.,0.));
#1217=DIRECTION('center_axis',(0.,-1.,0.));
#1218=DIRECTION('ref_axis',(0.,0.,1.));
#1219=DIRECTION('',(0.,-1.,0.));
#1220=DIRECTION('center_axis',(0.,0.,1.));
#1221=DIRECTION('ref_axis',(1.,0.,0.));
#1222=DIRECTION('center_axis',(1.,0.,0.));
#1223=DIRECTION('ref_axis',(0.,0.,1.));
#1224=DIRECTION('center_axis',(0.,0.,-1.));
#1225=DIRECTION('ref_axis',(0.707106781186547,0.707106781186547,0.));
#1226=DIRECTION('center_axis',(0.,0.,1.));
#1227=DIRECTION('ref_axis',(0.707106781186547,0.707106781186547,0.));
#1228=DIRECTION('center_axis',(1.,-4.23210809895253E-16,0.));
#1229=DIRECTION('ref_axis',(0.,-0.707106781186548,0.707106781186548));
#1230=DIRECTION('',(1.,-4.23210809895253E-16,0.));
#1231=DIRECTION('',(-1.,4.23210809895253E-16,0.));
#1232=DIRECTION('center_axis',(-8.52051438699259E-17,-1.,0.));
#1233=DIRECTION('ref_axis',(1.,-8.52051438699259E-17,0.));
#1234=DIRECTION('',(0.,0.,-1.));
#1235=DIRECTION('',(0.,0.,1.));
#1236=DIRECTION('center_axis',(0.,0.,1.));
#1237=DIRECTION('ref_axis',(-0.707106781186532,-0.707106781186563,0.));
#1238=DIRECTION('',(0.,0.,-1.));
#1239=DIRECTION('center_axis',(-1.,0.,0.));
#1240=DIRECTION('ref_axis',(0.,-1.,0.));
#1241=DIRECTION('',(0.,0.,1.));
#1242=DIRECTION('center_axis',(0.,0.,1.));
#1243=DIRECTION('ref_axis',(0.707106781186549,0.707106781186546,0.));
#1244=DIRECTION('',(0.,0.,-1.));
#1245=DIRECTION('center_axis',(-4.23210809895253E-16,-1.,0.));
#1246=DIRECTION('ref_axis',(1.,-4.23210809895253E-16,0.));
#1247=DIRECTION('',(0.,0.,1.));
#1248=DIRECTION('center_axis',(0.,0.,1.));
#1249=DIRECTION('ref_axis',(-0.70710678118654,-0.707106781186555,0.));
#1250=DIRECTION('',(0.,0.,-1.));
#1251=DIRECTION('center_axis',(-1.,2.99857670391659E-16,0.));
#1252=DIRECTION('ref_axis',(-2.99857670391659E-16,-1.,0.));
#1253=DIRECTION('',(0.,0.,1.));
#1254=DIRECTION('center_axis',(0.,0.,1.));
#1255=DIRECTION('ref_axis',(-0.70710678118654,0.707106781186555,0.));
#1256=DIRECTION('center_axis',(0.,0.,1.));
#1257=DIRECTION('ref_axis',(1.,0.,0.));
#1258=DIRECTION('center_axis',(1.,-2.73386610348502E-17,0.));
#1259=DIRECTION('ref_axis',(0.,0.707106781186548,0.707106781186547));
#1260=DIRECTION('',(-1.,2.73386610348502E-17,0.));
#1261=DIRECTION('center_axis',(-0.707106781186548,-0.707106781186547,-5.23364152894592E-16));
#1262=DIRECTION('ref_axis',(-0.707106781186547,0.707106781186548,5.23364152894592E-16));
#1263=DIRECTION('',(1.,-2.73386610348502E-17,0.));
#1264=DIRECTION('center_axis',(-0.707106781186652,0.707106781186443,5.23364152894515E-16));
#1265=DIRECTION('ref_axis',(0.707106781186443,0.707106781186652,-5.23364152894667E-16));
#1266=DIRECTION('center_axis',(3.26296259992686E-16,1.,0.));
#1267=DIRECTION('ref_axis',(-0.707106781186547,0.,0.707106781186547));
#1268=DIRECTION('',(-3.26296259992686E-16,-1.,0.));
#1269=DIRECTION('center_axis',(0.707106781186548,-0.707106781186548,0.));
#1270=DIRECTION('ref_axis',(-0.707106781186548,-0.707106781186548,0.));
#1271=DIRECTION('',(3.26296259992686E-16,1.,0.));
#1272=DIRECTION('center_axis',(0.,1.,0.));
#1273=DIRECTION('ref_axis',(-0.707106781186549,0.,0.707106781186546));
#1274=DIRECTION('',(0.,1.,0.));
#1275=DIRECTION('center_axis',(0.,1.,0.));
#1276=DIRECTION('ref_axis',(-1.,0.,0.));
#1277=DIRECTION('',(0.,-1.,0.));
#1278=DIRECTION('center_axis',(0.707106781186548,-0.707106781186548,0.));
#1279=DIRECTION('ref_axis',(-0.707106781186547,-0.707106781186547,0.));
#1280=DIRECTION('center_axis',(-1.,8.93180228982409E-17,0.));
#1281=DIRECTION('ref_axis',(0.,-0.707106781186549,0.707106781186546));
#1282=DIRECTION('',(1.,-8.93180228982409E-17,0.));
#1283=DIRECTION('center_axis',(0.707106781186548,0.707106781186547,0.));
#1284=DIRECTION('ref_axis',(0.707106781186547,-0.707106781186548,0.));
#1285=DIRECTION('center_axis',(-1.,5.25101676748478E-13,0.));
#1286=DIRECTION('ref_axis',(-3.70541820249371E-13,-0.707106781186547,0.707106781186547));
#1287=DIRECTION('',(-1.,5.25101676748478E-13,0.));
#1288=DIRECTION('center_axis',(-1.,5.25505564989241E-13,0.));
#1289=DIRECTION('ref_axis',(-5.25505564989241E-13,-1.,0.));
#1290=DIRECTION('',(1.,-5.25101676748478E-13,0.));
#1291=DIRECTION('center_axis',(0.70710678118663,0.707106781186465,-1.04672830578931E-15));
#1292=DIRECTION('ref_axis',(0.707106781186465,-0.70710678118663,1.04672830578845E-15));
#1293=DIRECTION('center_axis',(0.,0.,-1.));
#1294=DIRECTION('ref_axis',(-1.,0.,0.));
#1295=DIRECTION('center_axis',(0.,-1.,0.));
#1296=DIRECTION('ref_axis',(1.,0.,0.));
#1297=DIRECTION('center_axis',(0.,0.,-1.));
#1298=DIRECTION('ref_axis',(-0.707106781186362,0.707106781186733,0.));
#1299=DIRECTION('center_axis',(0.,0.,1.));
#1300=DIRECTION('ref_axis',(-0.707106781186362,0.707106781186733,0.));
#1301=DIRECTION('center_axis',(-2.61228946970626E-16,-1.,0.));
#1302=DIRECTION('ref_axis',(0.707106781186547,0.,0.707106781186547));
#1303=DIRECTION('',(2.61228946970626E-16,1.,0.));
#1304=DIRECTION('',(-2.61228946970626E-16,-1.,0.));
#1305=DIRECTION('center_axis',(0.,0.,-1.));
#1306=DIRECTION('ref_axis',(-1.,0.,0.));
#1307=DIRECTION('center_axis',(-1.,1.48029736616688E-15,0.));
#1308=DIRECTION('ref_axis',(-1.48029736616688E-15,-1.,0.));
#1309=DIRECTION('center_axis',(0.,0.,-1.));
#1310=DIRECTION('ref_axis',(0.707106781186548,0.707106781186547,0.));
#1311=DIRECTION('center_axis',(0.,0.,1.));
#1312=DIRECTION('ref_axis',(0.707106781186548,0.707106781186547,0.));
#1313=DIRECTION('center_axis',(-1.,5.64281079860337E-16,0.));
#1314=DIRECTION('ref_axis',(-1.04672830578918E-15,-0.707106781186547,0.707106781186547));
#1315=DIRECTION('',(1.,-5.64281079860337E-16,0.));
#1316=DIRECTION('',(-1.,5.64281079860337E-16,0.));
#1317=DIRECTION('center_axis',(2.93014041473354E-13,-1.,0.));
#1318=DIRECTION('ref_axis',(0.707106781186547,2.07252204546258E-13,0.707106781186547));
#1319=DIRECTION('',(2.93014041473354E-13,-1.,0.));
#1320=DIRECTION('',(-2.93014041473354E-13,1.,0.));
#1321=DIRECTION('center_axis',(1.,0.,0.));
#1322=DIRECTION('ref_axis',(0.,1.,0.));
#1323=DIRECTION('',(0.,0.,-1.));
#1324=DIRECTION('center_axis',(-1.,2.61228946970626E-16,0.));
#1325=DIRECTION('ref_axis',(-2.61228946970626E-16,-1.,0.));
#1326=DIRECTION('',(0.,0.,1.));
#1327=DIRECTION('center_axis',(0.,0.,1.));
#1328=DIRECTION('ref_axis',(-0.707106781186362,0.707106781186733,0.));
#1329=DIRECTION('',(0.,0.,-1.));
#1330=DIRECTION('center_axis',(5.25101676748478E-13,1.,0.));
#1331=DIRECTION('ref_axis',(-1.,5.25101676748478E-13,0.));
#1332=DIRECTION('',(0.,0.,1.));
#1333=DIRECTION('center_axis',(0.,0.,1.));
#1334=DIRECTION('ref_axis',(-1.,0.,0.));
#1335=DIRECTION('center_axis',(0.,0.,1.));
#1336=DIRECTION('ref_axis',(0.707106781186548,0.707106781186547,0.));
#1337=DIRECTION('',(0.,0.,1.));
#1338=DIRECTION('center_axis',(0.,0.,1.));
#1339=DIRECTION('ref_axis',(-0.707106781186362,0.707106781186733,0.));
#1340=DIRECTION('',(0.,0.,-1.));
#1341=DIRECTION('',(0.,0.,1.));
#1342=DIRECTION('center_axis',(-5.25101676748466E-13,-1.,0.));
#1343=DIRECTION('ref_axis',(1.,-5.25101676748466E-13,0.));
#1344=DIRECTION('',(0.,0.,-1.));
#1345=DIRECTION('center_axis',(0.,0.,1.));
#1346=DIRECTION('ref_axis',(0.707106781186438,0.707106781186657,0.));
#1347=DIRECTION('',(0.,0.,-1.));
#1348=DIRECTION('center_axis',(1.,2.93260801642964E-13,0.));
#1349=DIRECTION('ref_axis',(-2.93260801642964E-13,1.,0.));
#1350=DIRECTION('',(0.,0.,1.));
#1351=DIRECTION('center_axis',(0.,0.,1.));
#1352=DIRECTION('ref_axis',(0.707106781186453,-0.707106781186642,0.));
#1353=DIRECTION('center_axis',(0.,0.,1.));
#1354=DIRECTION('ref_axis',(0.707106781186548,-0.707106781186548,0.));
#1355=DIRECTION('',(0.,0.,1.));
#1356=DIRECTION('center_axis',(-1.,-2.93014041473354E-13,0.));
#1357=DIRECTION('ref_axis',(2.93014041473354E-13,-1.,0.));
#1358=DIRECTION('',(0.,0.,1.));
#1359=DIRECTION('center_axis',(-2.73386610348502E-17,-1.,0.));
#1360=DIRECTION('ref_axis',(1.,-2.73386610348502E-17,0.));
#1361=DIRECTION('',(0.,0.,1.));
#1362=DIRECTION('center_axis',(1.,-3.26296259992686E-16,0.));
#1363=DIRECTION('ref_axis',(3.26296259992686E-16,1.,0.));
#1364=DIRECTION('',(0.,0.,1.));
#1365=DIRECTION('center_axis',(5.64281079860337E-16,1.,0.));
#1366=DIRECTION('ref_axis',(-1.,5.64281079860337E-16,0.));
#1367=DIRECTION('center_axis',(1.,-2.61228946970635E-16,0.));
#1368=DIRECTION('ref_axis',(2.61228946970635E-16,1.,0.));
#1369=CARTESIAN_POINT('',(0.,0.,0.));
#1370=CARTESIAN_POINT('Origin',(0.,14.81,10.));
#1371=CARTESIAN_POINT('',(-12.5,13.61,10.));
#1372=CARTESIAN_POINT('',(12.5,13.61,10.));
#1373=CARTESIAN_POINT('Origin',(0.,13.61,10.));
#1374=CARTESIAN_POINT('',(-12.5,14.81,10.));
#1375=CARTESIAN_POINT('',(-12.5,14.81,10.));
#1376=CARTESIAN_POINT('',(12.5,14.81,10.));
#1377=CARTESIAN_POINT('Origin',(0.,14.81,10.));
#1378=CARTESIAN_POINT('',(12.5,14.81,10.));
#1379=CARTESIAN_POINT('Origin',(0.,14.81,10.));
#1380=CARTESIAN_POINT('',(-12.5,-31.81,10.));
#1381=CARTESIAN_POINT('',(12.5,-31.81,10.));
#1382=CARTESIAN_POINT('Origin',(0.,-31.81,10.));
#1383=CARTESIAN_POINT('',(-12.5,-30.61,10.));
#1384=CARTESIAN_POINT('',(-12.5,14.81,10.));
#1385=CARTESIAN_POINT('',(12.5,-30.61,10.));
#1386=CARTESIAN_POINT('Origin',(0.,-30.61,10.));
#1387=CARTESIAN_POINT('',(12.5,14.81,10.));
#1388=CARTESIAN_POINT('Origin',(24.8500000000001,-30.61,10.));
#1389=CARTESIAN_POINT('',(-24.8700000000009,-30.61,10.));
#1390=CARTESIAN_POINT('',(-24.8700000000009,-30.61,10.));
#1391=CARTESIAN_POINT('',(-24.8700000000009,-30.61,39.5));
#1392=CARTESIAN_POINT('',(-24.8700000000009,-30.61,10.));
#1393=CARTESIAN_POINT('',(24.8500000000001,-30.61,39.5));
#1394=CARTESIAN_POINT('',(12.4250000000001,-30.61,39.5));
#1395=CARTESIAN_POINT('',(24.8500000000001,-30.61,10.));
#1396=CARTESIAN_POINT('',(24.8500000000001,-30.61,10.));
#1397=CARTESIAN_POINT('',(-24.8700000000009,-30.61,10.));
#1398=CARTESIAN_POINT('Origin',(7.99360577730113E-14,-8.5,10.));
#1399=CARTESIAN_POINT('',(-25.8700000000009,-31.81,10.));
#1400=CARTESIAN_POINT('',(-26.0700000000009,-31.81,10.));
#1401=CARTESIAN_POINT('',(-26.0700000000009,-31.61,10.));
#1402=CARTESIAN_POINT('Origin',(-25.8700000000009,-31.61,10.));
#1403=CARTESIAN_POINT('',(-26.0700000000009,-17.810000000001,10.));
#1404=CARTESIAN_POINT('',(-26.0700000000009,-14.810000000001,10.));
#1405=CARTESIAN_POINT('',(-29.0700000000009,-14.810000000001,10.));
#1406=CARTESIAN_POINT('Origin',(-29.0700000000009,-17.810000000001,10.));
#1407=CARTESIAN_POINT('',(-41.6100000000001,-14.810000000001,10.));
#1408=CARTESIAN_POINT('',(-41.8100000000001,-14.810000000001,10.));
#1409=CARTESIAN_POINT('',(-41.8100000000001,-14.610000000001,10.));
#1410=CARTESIAN_POINT('Origin',(-41.6100000000001,-14.610000000001,10.));
#1411=CARTESIAN_POINT('',(-41.8100000000001,14.61,10.));
#1412=CARTESIAN_POINT('',(-41.8100000000001,14.81,10.));
#1413=CARTESIAN_POINT('',(-41.6100000000001,14.81,10.));
#1414=CARTESIAN_POINT('Origin',(-41.6100000000001,14.61,10.));
#1415=CARTESIAN_POINT('',(41.8099999999916,14.81,10.));
#1416=CARTESIAN_POINT('',(-40.6100000000001,13.61,10.));
#1417=CARTESIAN_POINT('',(40.6099999999919,13.61,10.));
#1418=CARTESIAN_POINT('',(-40.6100000000001,-13.610000000001,10.));
#1419=CARTESIAN_POINT('',(-40.6100000000001,13.61,10.));
#1420=CARTESIAN_POINT('',(-29.0700000000009,-13.610000000001,10.));
#1421=CARTESIAN_POINT('',(-40.6100000000001,-13.610000000001,10.));
#1422=CARTESIAN_POINT('',(-24.8700000000009,-17.810000000001,10.));
#1423=CARTESIAN_POINT('Origin',(-29.0700000000009,-17.810000000001,10.));
#1424=CARTESIAN_POINT('',(-24.8700000000009,-13.610000000001,10.));
#1425=CARTESIAN_POINT('Origin',(7.99360577730113E-14,-8.5,10.));
#1426=CARTESIAN_POINT('',(24.8500000000001,-17.8100000000022,10.));
#1427=CARTESIAN_POINT('',(24.8500000000001,-30.61,10.));
#1428=CARTESIAN_POINT('',(29.0500000000023,-13.6100000000022,10.));
#1429=CARTESIAN_POINT('Origin',(29.0500000000001,-17.8100000000022,10.));
#1430=CARTESIAN_POINT('',(40.6099999999999,-13.6100000000083,10.));
#1431=CARTESIAN_POINT('',(24.8500000000001,-13.61,10.));
#1432=CARTESIAN_POINT('',(40.6099999999919,13.61,10.));
#1433=CARTESIAN_POINT('',(40.6099999999999,-13.6100000000083,10.));
#1434=CARTESIAN_POINT('',(40.6099999999919,13.61,10.));
#1435=CARTESIAN_POINT('',(41.6099999999916,14.81,10.));
#1436=CARTESIAN_POINT('',(41.8099999999916,14.81,10.));
#1437=CARTESIAN_POINT('',(41.8099999999917,14.6100000000001,10.));
#1438=CARTESIAN_POINT('Origin',(41.6099999999916,14.61,10.));
#1439=CARTESIAN_POINT('',(41.8100000000002,-14.6100000000088,10.));
#1440=CARTESIAN_POINT('',(41.8100000000003,-14.8100000000089,10.));
#1441=CARTESIAN_POINT('',(41.6100000000001,-14.8100000000088,10.));
#1442=CARTESIAN_POINT('Origin',(41.6100000000002,-14.6100000000088,10.));
#1443=CARTESIAN_POINT('',(29.0500000000017,-14.8100000000022,10.));
#1444=CARTESIAN_POINT('',(26.0500000000001,-14.8100000000007,10.));
#1445=CARTESIAN_POINT('',(26.0500000000001,-17.8100000000022,10.));
#1446=CARTESIAN_POINT('Origin',(29.0500000000001,-17.8100000000022,10.));
#1447=CARTESIAN_POINT('',(26.0500000000001,-31.61,10.));
#1448=CARTESIAN_POINT('',(26.0500000000001,-31.81,10.));
#1449=CARTESIAN_POINT('',(25.8500000000001,-31.81,10.));
#1450=CARTESIAN_POINT('Origin',(25.8500000000001,-31.61,10.));
#1451=CARTESIAN_POINT('',(-26.0700000000009,-31.81,10.));
#1452=CARTESIAN_POINT('Origin',(41.8099999999916,14.81,10.));
#1453=CARTESIAN_POINT('',(-41.6100000000001,14.81,39.5));
#1454=CARTESIAN_POINT('',(-41.6100000000001,14.81,10.));
#1455=CARTESIAN_POINT('',(41.6099999999917,14.81,39.5));
#1456=CARTESIAN_POINT('',(20.9049999999958,14.81,39.5));
#1457=CARTESIAN_POINT('',(41.6099999999916,14.81,10.));
#1458=CARTESIAN_POINT('Ctrl Pts',(-37.6100000000001,-10.610000000001,43.7));
#1459=CARTESIAN_POINT('Ctrl Pts',(-38.552477796077,-11.5075979010267,43.7));
#1460=CARTESIAN_POINT('Ctrl Pts',(-40.1175354863092,-12.9981290345811,43.1492459503041));
#1461=CARTESIAN_POINT('Ctrl Pts',(-41.5225987820534,-14.3362845543375,41.3827130944706));
#1462=CARTESIAN_POINT('Ctrl Pts',(-41.8100000000001,-14.610000000001,40.128318530718));
#1463=CARTESIAN_POINT('Ctrl Pts',(-41.8100000000001,-14.610000000001,39.5));
#1464=CARTESIAN_POINT('Ctrl Pts',(-37.6100000000001,-10.610000000001,43.7));
#1465=CARTESIAN_POINT('Ctrl Pts',(-38.5449978135685,-11.5150778835352,43.7));
#1466=CARTESIAN_POINT('Ctrl Pts',(-40.0978653524279,-13.017978305242,43.159736495339));
#1467=CARTESIAN_POINT('Ctrl Pts',(-41.5137691962429,-14.3794007269049,41.4042955904826));
#1468=CARTESIAN_POINT('Ctrl Pts',(-41.8100000000001,-14.6623598775608,40.1362268361277));
#1469=CARTESIAN_POINT('Ctrl Pts',(-41.8100000000001,-14.6623598775608,39.5));
#1470=CARTESIAN_POINT('Ctrl Pts',(-37.6100000000001,-10.610000000001,43.7));
#1471=CARTESIAN_POINT('Ctrl Pts',(-38.5300378485514,-11.5300378485523,43.7));
#1472=CARTESIAN_POINT('Ctrl Pts',(-40.0579060153253,-13.0579060153262,43.1700011603017));
#1473=CARTESIAN_POINT('Ctrl Pts',(-41.4654948227003,-14.4654948227011,41.4282449060487));
#1474=CARTESIAN_POINT('Ctrl Pts',(-41.7665213636166,-14.7665213636175,40.1452104746811));
#1475=CARTESIAN_POINT('Ctrl Pts',(-41.7665213636166,-14.7665213636175,39.5));
#1476=CARTESIAN_POINT('Ctrl Pts',(-37.6100000000001,-10.610000000001,43.7));
#1477=CARTESIAN_POINT('Ctrl Pts',(-38.5150778835343,-11.5449978135694,43.7));
#1478=CARTESIAN_POINT('Ctrl Pts',(-40.0179783052411,-13.0978653524288,43.159736495339));
#1479=CARTESIAN_POINT('Ctrl Pts',(-41.379400726904,-14.5137691962438,41.4042955904826));
#1480=CARTESIAN_POINT('Ctrl Pts',(-41.66235987756,-14.810000000001,40.1362268361277));
#1481=CARTESIAN_POINT('Ctrl Pts',(-41.66235987756,-14.810000000001,39.5));
#1482=CARTESIAN_POINT('Ctrl Pts',(-37.6100000000001,-10.610000000001,43.7));
#1483=CARTESIAN_POINT('Ctrl Pts',(-38.5075979010258,-11.5524777960779,43.7));
#1484=CARTESIAN_POINT('Ctrl Pts',(-39.9981290345802,-13.1175354863101,43.1492459503041));
#1485=CARTESIAN_POINT('Ctrl Pts',(-41.3362845543366,-14.5225987820543,41.3827130944706));
#1486=CARTESIAN_POINT('Ctrl Pts',(-41.6100000000001,-14.810000000001,40.128318530718));
#1487=CARTESIAN_POINT('Ctrl Pts',(-41.6100000000001,-14.810000000001,39.5));
#1488=CARTESIAN_POINT('',(-41.8100000000001,-14.610000000001,39.5));
#1489=CARTESIAN_POINT('',(-41.6100000000001,-14.810000000001,39.5));
#1490=CARTESIAN_POINT('Origin',(-41.6100000000001,-14.610000000001,39.5));
#1491=CARTESIAN_POINT('',(-37.6100000000001,-10.610000000001,43.7));
#1492=CARTESIAN_POINT('Origin',(-37.6100000000001,-10.610000000001,39.5));
#1493=CARTESIAN_POINT('Origin',(-37.6100000000001,-10.610000000001,39.5));
#1494=CARTESIAN_POINT('Ctrl Pts',(-21.8700000000009,-27.61,43.7));
#1495=CARTESIAN_POINT('Ctrl Pts',(-22.8124777960778,-28.5075979010257,43.7));
#1496=CARTESIAN_POINT('Ctrl Pts',(-24.3775332603103,-29.9981269145804,43.1492405293162));
#1497=CARTESIAN_POINT('Ctrl Pts',(-25.7825971703963,-31.3362830194242,41.3827106207411));
#1498=CARTESIAN_POINT('Ctrl Pts',(-26.0700000000009,-31.61,40.128318530718));
#1499=CARTESIAN_POINT('Ctrl Pts',(-26.0700000000009,-31.61,39.5));
#1500=CARTESIAN_POINT('Ctrl Pts',(-21.8700000000009,-27.61,43.7));
#1501=CARTESIAN_POINT('Ctrl Pts',(-22.8049978135693,-28.5150778835342,43.7));
#1502=CARTESIAN_POINT('Ctrl Pts',(-24.3578623104091,-30.0179757787132,43.1597313275581));
#1503=CARTESIAN_POINT('Ctrl Pts',(-25.7737669347825,-31.3793988332764,41.4042930881696));
#1504=CARTESIAN_POINT('Ctrl Pts',(-26.0700000000009,-31.6623598775598,40.1362268361277));
#1505=CARTESIAN_POINT('Ctrl Pts',(-26.0700000000009,-31.6623598775598,39.5));
#1506=CARTESIAN_POINT('Ctrl Pts',(-21.8700000000009,-27.61,43.7));
#1507=CARTESIAN_POINT('Ctrl Pts',(-22.7900378485522,-28.5300378485513,43.7));
#1508=CARTESIAN_POINT('Ctrl Pts',(-24.3179029109386,-30.0579029109377,43.169995641634));
#1509=CARTESIAN_POINT('Ctrl Pts',(-25.7254921915607,-31.4654921915598,41.4282414484044));
#1510=CARTESIAN_POINT('Ctrl Pts',(-26.0265208211918,-31.7665208211909,40.1452104746811));
#1511=CARTESIAN_POINT('Ctrl Pts',(-26.0265208211918,-31.7665208211909,39.5));
#1512=CARTESIAN_POINT('Ctrl Pts',(-21.8700000000009,-27.61,43.7));
#1513=CARTESIAN_POINT('Ctrl Pts',(-22.7750778835351,-28.5449978135684,43.7));
#1514=CARTESIAN_POINT('Ctrl Pts',(-24.2779757787141,-30.0978623104082,43.1597313275581));
#1515=CARTESIAN_POINT('Ctrl Pts',(-25.6393988332773,-31.5137669347816,41.4042930881696));
#1516=CARTESIAN_POINT('Ctrl Pts',(-25.9223598775607,-31.81,40.1362268361277));
#1517=CARTESIAN_POINT('Ctrl Pts',(-25.9223598775607,-31.81,39.5));
#1518=CARTESIAN_POINT('Ctrl Pts',(-21.8700000000009,-27.61,43.7));
#1519=CARTESIAN_POINT('Ctrl Pts',(-22.7675979010266,-28.5524777960769,43.7));
#1520=CARTESIAN_POINT('Ctrl Pts',(-24.2581269145813,-30.1175332603094,43.1492405293162));
#1521=CARTESIAN_POINT('Ctrl Pts',(-25.5962830194251,-31.5225971703954,41.3827106207411));
#1522=CARTESIAN_POINT('Ctrl Pts',(-25.8700000000009,-31.81,40.128318530718));
#1523=CARTESIAN_POINT('Ctrl Pts',(-25.8700000000009,-31.81,39.5));
#1524=CARTESIAN_POINT('',(-26.0700000000009,-31.61,39.5));
#1525=CARTESIAN_POINT('',(-25.8700000000009,-31.81,39.5));
#1526=CARTESIAN_POINT('Origin',(-25.8700000000009,-31.61,39.5));
#1527=CARTESIAN_POINT('',(-21.8700000000009,-27.61,43.7));
#1528=CARTESIAN_POINT('Origin',(-21.8700000000009,-27.61,39.5));
#1529=CARTESIAN_POINT('Origin',(-21.8700000000009,-27.61,39.5));
#1530=CARTESIAN_POINT('Ctrl Pts',(21.8500000000001,-27.61,43.7));
#1531=CARTESIAN_POINT('Ctrl Pts',(22.7475979010258,-28.5524777960769,43.7));
#1532=CARTESIAN_POINT('Ctrl Pts',(24.2381269479066,-30.1175332953018,43.1492406145038));
#1533=CARTESIAN_POINT('Ctrl Pts',(25.5762830435491,-31.5225971957264,41.3827106596491));
#1534=CARTESIAN_POINT('Ctrl Pts',(25.8500000000001,-31.81,40.128318530718));
#1535=CARTESIAN_POINT('Ctrl Pts',(25.8500000000001,-31.81,39.5));
#1536=CARTESIAN_POINT('Ctrl Pts',(21.8500000000001,-27.61,43.7));
#1537=CARTESIAN_POINT('Ctrl Pts',(22.7550778835343,-28.5449978135684,43.7));
#1538=CARTESIAN_POINT('Ctrl Pts',(24.2579758184312,-30.0978623582295,43.1597314087697));
#1539=CARTESIAN_POINT('Ctrl Pts',(25.6193988630382,-31.5137669703247,41.4042931275229));
#1540=CARTESIAN_POINT('Ctrl Pts',(25.9023598775599,-31.81,40.1362268361277));
#1541=CARTESIAN_POINT('Ctrl Pts',(25.9023598775599,-31.81,39.5));
#1542=CARTESIAN_POINT('Ctrl Pts',(21.8500000000001,-27.61,43.7));
#1543=CARTESIAN_POINT('Ctrl Pts',(22.7700378485514,-28.5300378485513,43.7));
#1544=CARTESIAN_POINT('Ctrl Pts',(24.2979029597509,-30.0579029597508,43.16999572837));
#1545=CARTESIAN_POINT('Ctrl Pts',(25.7054922329117,-31.4654922329116,41.4282415027505));
#1546=CARTESIAN_POINT('Ctrl Pts',(26.0065208297098,-31.7665208297097,40.1452104746811));
#1547=CARTESIAN_POINT('Ctrl Pts',(26.0065208297098,-31.7665208297097,39.5));
#1548=CARTESIAN_POINT('Ctrl Pts',(21.8500000000001,-27.61,43.7));
#1549=CARTESIAN_POINT('Ctrl Pts',(22.7849978135685,-28.5150778835342,43.7));
#1550=CARTESIAN_POINT('Ctrl Pts',(24.3378623582296,-30.0179758184311,43.1597314087697));
#1551=CARTESIAN_POINT('Ctrl Pts',(25.7537669703248,-31.3793988630381,41.4042931275229));
#1552=CARTESIAN_POINT('Ctrl Pts',(26.0500000000001,-31.6623598775598,40.1362268361277));
#1553=CARTESIAN_POINT('Ctrl Pts',(26.0500000000001,-31.6623598775598,39.5));
#1554=CARTESIAN_POINT('Ctrl Pts',(21.8500000000001,-27.61,43.7));
#1555=CARTESIAN_POINT('Ctrl Pts',(22.792477796077,-28.5075979010257,43.7));
#1556=CARTESIAN_POINT('Ctrl Pts',(24.3575332953019,-29.9981269479064,43.1492406145038));
#1557=CARTESIAN_POINT('Ctrl Pts',(25.7625971957265,-31.336283043549,41.3827106596491));
#1558=CARTESIAN_POINT('Ctrl Pts',(26.0500000000001,-31.61,40.128318530718));
#1559=CARTESIAN_POINT('Ctrl Pts',(26.0500000000001,-31.61,39.5));
#1560=CARTESIAN_POINT('',(25.8500000000001,-31.81,39.5));
#1561=CARTESIAN_POINT('',(26.0500000000001,-31.61,39.5));
#1562=CARTESIAN_POINT('Origin',(25.8500000000001,-31.61,39.5));
#1563=CARTESIAN_POINT('',(21.8500000000001,-27.61,43.7));
#1564=CARTESIAN_POINT('Origin',(21.8500000000001,-27.61,39.5));
#1565=CARTESIAN_POINT('Origin',(21.8500000000001,-27.61,39.5));
#1566=CARTESIAN_POINT('Ctrl Pts',(37.609999999999,-10.6100000000067,43.7));
#1567=CARTESIAN_POINT('Ctrl Pts',(38.5075979010249,-11.5524777960842,43.7));
#1568=CARTESIAN_POINT('Ctrl Pts',(39.9981290345797,-13.117535486317,43.1492459503041));
#1569=CARTESIAN_POINT('Ctrl Pts',(41.3362845543365,-14.522598782062,41.3827130944706));
#1570=CARTESIAN_POINT('Ctrl Pts',(41.6100000000001,-14.8100000000088,40.128318530718));
#1571=CARTESIAN_POINT('Ctrl Pts',(41.6100000000001,-14.8100000000088,39.5));
#1572=CARTESIAN_POINT('Ctrl Pts',(37.609999999999,-10.6100000000067,43.7));
#1573=CARTESIAN_POINT('Ctrl Pts',(38.5150778835335,-11.5449978135756,43.7));
#1574=CARTESIAN_POINT('Ctrl Pts',(40.0179783052407,-13.0978653524358,43.159736495339));
#1575=CARTESIAN_POINT('Ctrl Pts',(41.3794007269039,-14.5137691962515,41.4042955904826));
#1576=CARTESIAN_POINT('Ctrl Pts',(41.66235987756,-14.8100000000089,40.1362268361277));
#1577=CARTESIAN_POINT('Ctrl Pts',(41.66235987756,-14.8100000000089,39.5));
#1578=CARTESIAN_POINT('Ctrl Pts',(37.609999999999,-10.6100000000067,43.7));
#1579=CARTESIAN_POINT('Ctrl Pts',(38.5300378485506,-11.5300378485585,43.7));
#1580=CARTESIAN_POINT('Ctrl Pts',(40.0579060153249,-13.0579060153331,43.1700011603017));
#1581=CARTESIAN_POINT('Ctrl Pts',(41.4654948227003,-14.4654948227088,41.4282449060488));
#1582=CARTESIAN_POINT('Ctrl Pts',(41.7665213636168,-14.7665213636254,40.1452104746812));
#1583=CARTESIAN_POINT('Ctrl Pts',(41.7665213636168,-14.7665213636254,39.5));
#1584=CARTESIAN_POINT('Ctrl Pts',(37.6099999999991,-10.6100000000067,43.7));
#1585=CARTESIAN_POINT('Ctrl Pts',(38.5449978135677,-11.5150778835414,43.7));
#1586=CARTESIAN_POINT('Ctrl Pts',(40.0978653524275,-13.0179783052489,43.159736495339));
#1587=CARTESIAN_POINT('Ctrl Pts',(41.513769196243,-14.3794007269125,41.4042955904826));
#1588=CARTESIAN_POINT('Ctrl Pts',(41.8100000000002,-14.6623598775686,40.1362268361277));
#1589=CARTESIAN_POINT('Ctrl Pts',(41.8100000000002,-14.6623598775686,39.5));
#1590=CARTESIAN_POINT('Ctrl Pts',(37.6099999999991,-10.6100000000067,43.7));
#1591=CARTESIAN_POINT('Ctrl Pts',(38.5524777960762,-11.5075979010329,43.7));
#1592=CARTESIAN_POINT('Ctrl Pts',(40.1175354863088,-12.998129034588,43.1492459503041));
#1593=CARTESIAN_POINT('Ctrl Pts',(41.5225987820535,-14.3362845543451,41.3827130944706));
#1594=CARTESIAN_POINT('Ctrl Pts',(41.8100000000002,-14.6100000000088,40.128318530718));
#1595=CARTESIAN_POINT('Ctrl Pts',(41.8100000000002,-14.6100000000088,39.5));
#1596=CARTESIAN_POINT('',(41.6100000000001,-14.8100000000088,39.5));
#1597=CARTESIAN_POINT('',(41.8100000000002,-14.6100000000088,39.5));
#1598=CARTESIAN_POINT('Origin',(41.6100000000002,-14.6100000000088,39.5));
#1599=CARTESIAN_POINT('',(37.609999999999,-10.6100000000067,43.7));
#1600=CARTESIAN_POINT('Origin',(37.609999999999,-10.6100000000067,39.5));
#1601=CARTESIAN_POINT('Origin',(37.609999999999,-10.6100000000067,39.5));
#1602=CARTESIAN_POINT('Ctrl Pts',(37.6099999999928,10.61,43.7));
#1603=CARTESIAN_POINT('Ctrl Pts',(38.5524777960695,11.5075979010257,43.7));
#1604=CARTESIAN_POINT('Ctrl Pts',(40.1175354863012,12.9981290345801,43.1492459503041));
#1605=CARTESIAN_POINT('Ctrl Pts',(41.5225987820451,14.3362845543366,41.3827130944706));
#1606=CARTESIAN_POINT('Ctrl Pts',(41.8099999999917,14.6100000000001,40.128318530718));
#1607=CARTESIAN_POINT('Ctrl Pts',(41.8099999999917,14.6100000000001,39.5));
#1608=CARTESIAN_POINT('Ctrl Pts',(37.6099999999928,10.61,43.7));
#1609=CARTESIAN_POINT('Ctrl Pts',(38.544997813561,11.5150778835342,43.7));
#1610=CARTESIAN_POINT('Ctrl Pts',(40.0978653524199,13.017978305241,43.159736495339));
#1611=CARTESIAN_POINT('Ctrl Pts',(41.5137691962346,14.3794007269039,41.4042955904826));
#1612=CARTESIAN_POINT('Ctrl Pts',(41.8099999999916,14.6623598775599,40.1362268361277));
#1613=CARTESIAN_POINT('Ctrl Pts',(41.8099999999916,14.6623598775599,39.5));
#1614=CARTESIAN_POINT('Ctrl Pts',(37.6099999999928,10.61,43.7));
#1615=CARTESIAN_POINT('Ctrl Pts',(38.5300378485439,11.5300378485513,43.7));
#1616=CARTESIAN_POINT('Ctrl Pts',(40.0579060153173,13.0579060153252,43.1700011603017));
#1617=CARTESIAN_POINT('Ctrl Pts',(41.4654948226919,14.4654948227002,41.4282449060487));
#1618=CARTESIAN_POINT('Ctrl Pts',(41.7665213636081,14.7665213636166,40.1452104746811));
#1619=CARTESIAN_POINT('Ctrl Pts',(41.7665213636081,14.7665213636166,39.5));
#1620=CARTESIAN_POINT('Ctrl Pts',(37.6099999999928,10.61,43.7));
#1621=CARTESIAN_POINT('Ctrl Pts',(38.5150778835268,11.5449978135684,43.7));
#1622=CARTESIAN_POINT('Ctrl Pts',(40.0179783052331,13.0978653524278,43.159736495339));
#1623=CARTESIAN_POINT('Ctrl Pts',(41.3794007268956,14.5137691962428,41.4042955904826));
#1624=CARTESIAN_POINT('Ctrl Pts',(41.6623598775515,14.81,40.1362268361277));
#1625=CARTESIAN_POINT('Ctrl Pts',(41.6623598775515,14.81,39.5));
#1626=CARTESIAN_POINT('Ctrl Pts',(37.6099999999928,10.61,43.7));
#1627=CARTESIAN_POINT('Ctrl Pts',(38.5075979010182,11.5524777960769,43.7));
#1628=CARTESIAN_POINT('Ctrl Pts',(39.9981290345722,13.1175354863091,43.1492459503041));
#1629=CARTESIAN_POINT('Ctrl Pts',(41.3362845543282,14.5225987820533,41.3827130944706));
#1630=CARTESIAN_POINT('Ctrl Pts',(41.6099999999917,14.81,40.128318530718));
#1631=CARTESIAN_POINT('Ctrl Pts',(41.6099999999917,14.81,39.5));
#1632=CARTESIAN_POINT('',(41.8099999999917,14.6100000000001,39.5));
#1633=CARTESIAN_POINT('Origin',(41.6099999999917,14.61,39.5));
#1634=CARTESIAN_POINT('',(37.6099999999928,10.61,43.7));
#1635=CARTESIAN_POINT('Origin',(37.6099999999928,10.61,39.5));
#1636=CARTESIAN_POINT('Origin',(37.6099999999928,10.61,39.5));
#1637=CARTESIAN_POINT('Ctrl Pts',(-37.6100000000001,10.61,43.7));
#1638=CARTESIAN_POINT('Ctrl Pts',(-38.5075979010258,11.5524777960769,43.7));
#1639=CARTESIAN_POINT('Ctrl Pts',(-39.9981290345802,13.1175354863091,43.1492459503041));
#1640=CARTESIAN_POINT('Ctrl Pts',(-41.3362845543366,14.5225987820533,41.3827130944706));
#1641=CARTESIAN_POINT('Ctrl Pts',(-41.6100000000001,14.81,40.128318530718));
#1642=CARTESIAN_POINT('Ctrl Pts',(-41.6100000000001,14.81,39.5));
#1643=CARTESIAN_POINT('Ctrl Pts',(-37.6100000000001,10.61,43.7));
#1644=CARTESIAN_POINT('Ctrl Pts',(-38.5150778835343,11.5449978135684,43.7));
#1645=CARTESIAN_POINT('Ctrl Pts',(-40.0179783052411,13.0978653524278,43.159736495339));
#1646=CARTESIAN_POINT('Ctrl Pts',(-41.379400726904,14.5137691962428,41.4042955904826));
#1647=CARTESIAN_POINT('Ctrl Pts',(-41.6623598775599,14.81,40.1362268361277));
#1648=CARTESIAN_POINT('Ctrl Pts',(-41.6623598775599,14.81,39.5));
#1649=CARTESIAN_POINT('Ctrl Pts',(-37.6100000000001,10.61,43.7));
#1650=CARTESIAN_POINT('Ctrl Pts',(-38.5300378485514,11.5300378485513,43.7));
#1651=CARTESIAN_POINT('Ctrl Pts',(-40.0579060153253,13.0579060153252,43.1700011603017));
#1652=CARTESIAN_POINT('Ctrl Pts',(-41.4654948227003,14.4654948227001,41.4282449060487));
#1653=CARTESIAN_POINT('Ctrl Pts',(-41.7665213636166,14.7665213636165,40.1452104746811));
#1654=CARTESIAN_POINT('Ctrl Pts',(-41.7665213636166,14.7665213636165,39.5));
#1655=CARTESIAN_POINT('Ctrl Pts',(-37.6100000000001,10.61,43.7));
#1656=CARTESIAN_POINT('Ctrl Pts',(-38.5449978135685,11.5150778835342,43.7));
#1657=CARTESIAN_POINT('Ctrl Pts',(-40.0978653524279,13.017978305241,43.159736495339));
#1658=CARTESIAN_POINT('Ctrl Pts',(-41.5137691962429,14.3794007269039,41.4042955904826));
#1659=CARTESIAN_POINT('Ctrl Pts',(-41.8100000000001,14.6623598775598,40.1362268361277));
#1660=CARTESIAN_POINT('Ctrl Pts',(-41.8100000000001,14.6623598775598,39.5));
#1661=CARTESIAN_POINT('Ctrl Pts',(-37.6100000000001,10.61,43.7));
#1662=CARTESIAN_POINT('Ctrl Pts',(-38.552477796077,11.5075979010257,43.7));
#1663=CARTESIAN_POINT('Ctrl Pts',(-40.1175354863092,12.9981290345801,43.1492459503041));
#1664=CARTESIAN_POINT('Ctrl Pts',(-41.5225987820534,14.3362845543365,41.3827130944706));
#1665=CARTESIAN_POINT('Ctrl Pts',(-41.8100000000001,14.61,40.128318530718));
#1666=CARTESIAN_POINT('Ctrl Pts',(-41.8100000000001,14.61,39.5));
#1667=CARTESIAN_POINT('',(-41.8100000000001,14.61,39.5));
#1668=CARTESIAN_POINT('Origin',(-41.6100000000001,14.61,39.5));
#1669=CARTESIAN_POINT('',(-37.6100000000001,10.61,43.7));
#1670=CARTESIAN_POINT('Origin',(-37.6100000000001,10.61,39.5));
#1671=CARTESIAN_POINT('Origin',(-37.6100000000001,10.61,39.5));
#1672=CARTESIAN_POINT('Origin',(-37.6100000000001,3.15500000000001,39.5));
#1673=CARTESIAN_POINT('',(-37.6100000000001,3.15500000000001,43.7));
#1674=CARTESIAN_POINT('',(-41.8100000000001,3.15500000000001,39.5));
#1675=CARTESIAN_POINT('Origin',(20.9049999999958,10.61,39.5));
#1676=CARTESIAN_POINT('',(20.9049999999958,10.61,43.7));
#1677=CARTESIAN_POINT('Origin',(37.6099999999994,-11.6549999999996,39.5));
#1678=CARTESIAN_POINT('',(41.8099999999993,-11.6549999999983,39.5));
#1679=CARTESIAN_POINT('',(37.6099999999994,-11.6549999999996,43.7));
#1680=CARTESIAN_POINT('Origin',(13.0250000000007,-10.6099999999938,39.5));
#1681=CARTESIAN_POINT('',(29.0500000000039,-10.6100000000022,43.7));
#1682=CARTESIAN_POINT('',(13.0250000000007,-10.6099999999938,43.7));
#1683=CARTESIAN_POINT('',(29.0500000000017,-14.8100000000022,39.5));
#1684=CARTESIAN_POINT('Origin',(29.0500000000039,-10.6100000000022,39.5));
#1685=CARTESIAN_POINT('',(13.0249999999984,-14.8099999999938,39.5));
#1686=CARTESIAN_POINT('Origin',(29.0500000000001,-17.8100000000022,39.5));
#1687=CARTESIAN_POINT('',(21.8500000000001,-17.8100000000022,43.7));
#1688=CARTESIAN_POINT('',(26.0500000000001,-17.8100000000022,39.5));
#1689=CARTESIAN_POINT('Origin',(21.8500000000001,-17.8100000000022,39.5));
#1690=CARTESIAN_POINT('Origin',(29.0500000000001,-17.8100000000022,39.5));
#1691=CARTESIAN_POINT('Origin',(29.0500000000001,-17.8100000000022,43.7));
#1692=CARTESIAN_POINT('Origin',(21.8500000000001,-20.155,39.5));
#1693=CARTESIAN_POINT('',(26.0500000000001,-20.155,39.5));
#1694=CARTESIAN_POINT('',(21.8500000000001,-20.155,43.7));
#1695=CARTESIAN_POINT('Origin',(-13.0350000000004,-27.61,39.5));
#1696=CARTESIAN_POINT('',(-13.0350000000004,-31.81,39.5));
#1697=CARTESIAN_POINT('',(-13.0350000000004,-27.61,43.7));
#1698=CARTESIAN_POINT('Origin',(-21.8700000000009,-11.6550000000005,39.5));
#1699=CARTESIAN_POINT('',(-21.8700000000009,-17.810000000001,43.7));
#1700=CARTESIAN_POINT('',(-21.8700000000009,-11.6550000000005,43.7));
#1701=CARTESIAN_POINT('',(-26.0700000000009,-17.810000000001,39.5));
#1702=CARTESIAN_POINT('Origin',(-21.8700000000009,-17.810000000001,39.5));
#1703=CARTESIAN_POINT('',(-26.0700000000009,-11.6550000000005,39.5));
#1704=CARTESIAN_POINT('Origin',(-29.0700000000009,-17.810000000001,39.5));
#1705=CARTESIAN_POINT('',(-29.0700000000009,-10.610000000001,43.7));
#1706=CARTESIAN_POINT('',(-29.0700000000009,-14.810000000001,39.5));
#1707=CARTESIAN_POINT('Origin',(-29.0700000000009,-10.610000000001,39.5));
#1708=CARTESIAN_POINT('Origin',(-29.0700000000009,-17.810000000001,39.5));
#1709=CARTESIAN_POINT('Origin',(-29.0700000000009,-17.810000000001,43.7));
#1710=CARTESIAN_POINT('Origin',(-20.905,-10.610000000001,39.5));
#1711=CARTESIAN_POINT('',(-20.905,-14.810000000001,39.5));
#1712=CARTESIAN_POINT('',(-20.905,-10.610000000001,43.7));
#1713=CARTESIAN_POINT('Origin',(-26.0700000000009,-31.81,10.));
#1714=CARTESIAN_POINT('',(25.8500000000001,-31.81,10.));
#1715=CARTESIAN_POINT('',(-25.8700000000009,-31.81,10.));
#1716=CARTESIAN_POINT('Origin',(-25.8700000000009,-31.61,10.));
#1717=CARTESIAN_POINT('',(-26.0700000000009,-31.61,10.));
#1718=CARTESIAN_POINT('Origin',(-26.0700000000009,-14.810000000001,10.));
#1719=CARTESIAN_POINT('',(-26.0700000000009,-17.810000000001,10.));
#1720=CARTESIAN_POINT('Origin',(-29.0700000000009,-17.810000000001,10.));
#1721=CARTESIAN_POINT('',(-29.0700000000009,-14.810000000001,10.));
#1722=CARTESIAN_POINT('Origin',(-41.8100000000001,-14.810000000001,10.));
#1723=CARTESIAN_POINT('',(-41.6100000000001,-14.810000000001,10.));
#1724=CARTESIAN_POINT('Origin',(-41.6100000000001,-14.610000000001,10.));
#1725=CARTESIAN_POINT('',(-41.8100000000001,-14.610000000001,10.));
#1726=CARTESIAN_POINT('Origin',(-41.8100000000001,14.81,10.));
#1727=CARTESIAN_POINT('',(-41.8100000000001,14.61,10.));
#1728=CARTESIAN_POINT('Origin',(-41.6100000000001,14.61,10.));
#1729=CARTESIAN_POINT('Origin',(8.88178419700125E-14,-8.5,43.7));
#1730=CARTESIAN_POINT('Origin',(-20.305,10.61,39.5));
#1731=CARTESIAN_POINT('',(37.6099999999928,10.61,42.5));
#1732=CARTESIAN_POINT('',(-37.6100000000001,10.61,42.5));
#1733=CARTESIAN_POINT('',(-20.305,10.61,42.5));
#1734=CARTESIAN_POINT('',(-40.6100000000001,13.61,39.5));
#1735=CARTESIAN_POINT('Origin',(-37.6100000000001,10.61,39.5));
#1736=CARTESIAN_POINT('',(40.6099999999919,13.61,39.5));
#1737=CARTESIAN_POINT('',(-20.305,13.61,39.5));
#1738=CARTESIAN_POINT('Origin',(37.6099999999928,10.61,39.5));
#1739=CARTESIAN_POINT('Origin',(-37.6100000000001,-11.0550000000005,39.5));
#1740=CARTESIAN_POINT('',(-37.6100000000001,-10.610000000001,42.5));
#1741=CARTESIAN_POINT('',(-37.6100000000001,-11.0550000000005,42.5));
#1742=CARTESIAN_POINT('',(-40.6100000000001,-13.610000000001,39.5));
#1743=CARTESIAN_POINT('Origin',(-37.6100000000001,-10.610000000001,39.5));
#1744=CARTESIAN_POINT('',(-40.6100000000001,-11.0550000000005,39.5));
#1745=CARTESIAN_POINT('Origin',(-21.8700000000009,-19.555,39.5));
#1746=CARTESIAN_POINT('',(-24.8700000000009,-17.810000000001,39.5));
#1747=CARTESIAN_POINT('',(-24.8700000000009,-19.555,39.5));
#1748=CARTESIAN_POINT('',(-21.8700000000009,-17.810000000001,42.5));
#1749=CARTESIAN_POINT('Origin',(-21.8700000000009,-17.810000000001,39.5));
#1750=CARTESIAN_POINT('',(-21.8700000000009,-27.61,42.5));
#1751=CARTESIAN_POINT('',(-21.8700000000009,-19.555,42.5));
#1752=CARTESIAN_POINT('Origin',(-21.8700000000009,-27.61,39.5));
#1753=CARTESIAN_POINT('Origin',(12.4250000000001,-27.61,39.5));
#1754=CARTESIAN_POINT('',(21.8500000000001,-27.61,42.5));
#1755=CARTESIAN_POINT('',(12.4250000000001,-27.61,42.5));
#1756=CARTESIAN_POINT('Origin',(21.8500000000001,-27.61,39.5));
#1757=CARTESIAN_POINT('Origin',(20.3050000000002,-10.6099999999976,39.5));
#1758=CARTESIAN_POINT('',(40.6099999999999,-13.6100000000083,39.5));
#1759=CARTESIAN_POINT('',(29.0500000000023,-13.6100000000022,39.5));
#1760=CARTESIAN_POINT('',(20.3049999999987,-13.6099999999976,39.5));
#1761=CARTESIAN_POINT('',(29.0500000000039,-10.6100000000022,42.5));
#1762=CARTESIAN_POINT('Origin',(29.0500000000039,-10.6100000000022,39.5));
#1763=CARTESIAN_POINT('',(37.609999999999,-10.6100000000067,42.5));
#1764=CARTESIAN_POINT('',(20.3050000000002,-10.6099999999976,42.5));
#1765=CARTESIAN_POINT('Origin',(37.609999999999,-10.6100000000067,39.5));
#1766=CARTESIAN_POINT('Origin',(29.0500000000001,-17.8100000000022,39.5));
#1767=CARTESIAN_POINT('',(24.8500000000001,-17.8100000000022,39.5));
#1768=CARTESIAN_POINT('',(21.8500000000001,-17.8100000000022,42.5));
#1769=CARTESIAN_POINT('Origin',(21.8500000000001,-17.8100000000022,39.5));
#1770=CARTESIAN_POINT('Origin',(29.0500000000001,-17.8100000000022,42.5));
#1771=CARTESIAN_POINT('Origin',(29.0500000000001,-17.8100000000022,39.5));
#1772=CARTESIAN_POINT('Origin',(21.8500000000001,-11.055,39.5));
#1773=CARTESIAN_POINT('',(21.8500000000001,-11.055,42.5));
#1774=CARTESIAN_POINT('',(24.8500000000001,-11.055,39.5));
#1775=CARTESIAN_POINT('Origin',(-29.0700000000009,-17.810000000001,39.5));
#1776=CARTESIAN_POINT('',(-29.0700000000009,-13.610000000001,39.5));
#1777=CARTESIAN_POINT('',(-29.0700000000009,-10.610000000001,42.5));
#1778=CARTESIAN_POINT('Origin',(-29.0700000000009,-10.610000000001,39.5));
#1779=CARTESIAN_POINT('Origin',(-29.0700000000009,-17.810000000001,42.5));
#1780=CARTESIAN_POINT('Origin',(-29.0700000000009,-17.810000000001,39.5));
#1781=CARTESIAN_POINT('Origin',(-12.4350000000004,-10.610000000001,39.5));
#1782=CARTESIAN_POINT('',(-12.4350000000004,-10.610000000001,42.5));
#1783=CARTESIAN_POINT('',(-12.4350000000004,-13.610000000001,39.5));
#1784=CARTESIAN_POINT('Origin',(37.6099999999952,2.55500000000507,39.5));
#1785=CARTESIAN_POINT('',(40.6099999999952,2.55500000000595,39.5));
#1786=CARTESIAN_POINT('',(37.6099999999952,2.55500000000507,42.5));
#1787=CARTESIAN_POINT('Origin',(-24.8700000000009,-30.61,10.));
#1788=CARTESIAN_POINT('',(-24.8700000000009,-17.810000000001,10.));
#1789=CARTESIAN_POINT('Origin',(24.8500000000001,-13.61,10.));
#1790=CARTESIAN_POINT('',(24.8500000000001,-17.8100000000022,10.));
#1791=CARTESIAN_POINT('Origin',(29.0500000000001,-17.8100000000022,10.));
#1792=CARTESIAN_POINT('',(29.0500000000023,-13.6100000000022,10.));
#1793=CARTESIAN_POINT('Origin',(40.6099999999999,-13.6100000000083,10.));
#1794=CARTESIAN_POINT('',(40.6099999999999,-13.6100000000083,10.));
#1795=CARTESIAN_POINT('Origin',(8.88178419700125E-14,-8.5,42.5));
#1796=CARTESIAN_POINT('Origin',(-29.0700000000009,-17.810000000001,10.));
#1797=CARTESIAN_POINT('',(-29.0700000000009,-13.610000000001,10.));
#1798=CARTESIAN_POINT('Origin',(29.0500000000001,-17.8100000000022,10.));
#1799=CARTESIAN_POINT('',(26.0500000000001,-17.8100000000022,10.));
#1800=CARTESIAN_POINT('',(29.0500000000017,-14.8100000000022,10.));
#1801=CARTESIAN_POINT('Origin',(26.0500000000001,-14.8100000000007,10.));
#1802=CARTESIAN_POINT('',(41.6100000000001,-14.8100000000088,10.));
#1803=CARTESIAN_POINT('Origin',(41.6099999999916,14.61,10.));
#1804=CARTESIAN_POINT('',(41.8099999999917,14.6100000000001,10.));
#1805=CARTESIAN_POINT('Origin',(41.8100000000003,-14.8100000000089,10.));
#1806=CARTESIAN_POINT('',(41.8100000000002,-14.6100000000088,10.));
#1807=CARTESIAN_POINT('Origin',(41.6100000000002,-14.6100000000088,10.));
#1808=CARTESIAN_POINT('Origin',(25.8500000000001,-31.61,10.));
#1809=CARTESIAN_POINT('',(26.0500000000001,-31.61,10.));
#1810=CARTESIAN_POINT('Origin',(40.6099999999919,13.61,10.));
#1811=CARTESIAN_POINT('',(40.6099999999919,13.61,10.));
#1812=CARTESIAN_POINT('Origin',(-40.6100000000001,13.61,10.));
#1813=CARTESIAN_POINT('',(-40.6100000000001,13.61,10.));
#1814=CARTESIAN_POINT('Origin',(-40.6100000000001,-13.610000000001,10.));
#1815=CARTESIAN_POINT('',(-40.6100000000001,-13.610000000001,10.));
#1816=CARTESIAN_POINT('Origin',(-24.8700000000009,-13.610000000001,10.));
#1817=CARTESIAN_POINT('Origin',(26.0500000000001,-31.81,10.));
#1818=UNCERTAINTY_MEASURE_WITH_UNIT(LENGTH_MEASURE(0.01),#1822,
'DISTANCE_ACCURACY_VALUE',
'Maximum model space distance between geometric entities at asserted c
onnectivities');
#1819=UNCERTAINTY_MEASURE_WITH_UNIT(LENGTH_MEASURE(0.01),#1822,
'DISTANCE_ACCURACY_VALUE',
'Maximum model space distance between geometric entities at asserted c
onnectivities');
#1820=(
GEOMETRIC_REPRESENTATION_CONTEXT(3)
GLOBAL_UNCERTAINTY_ASSIGNED_CONTEXT((#1818))
GLOBAL_UNIT_ASSIGNED_CONTEXT((#1822,#1824,#1825))
REPRESENTATION_CONTEXT('','3D')
);
#1821=(
GEOMETRIC_REPRESENTATION_CONTEXT(3)
GLOBAL_UNCERTAINTY_ASSIGNED_CONTEXT((#1819))
GLOBAL_UNIT_ASSIGNED_CONTEXT((#1822,#1824,#1825))
REPRESENTATION_CONTEXT('','3D')
);
#1822=(
LENGTH_UNIT()
NAMED_UNIT(*)
SI_UNIT(.MILLI.,.METRE.)
);
#1823=(
LENGTH_UNIT()
NAMED_UNIT(*)
SI_UNIT($,.METRE.)
);
#1824=(
NAMED_UNIT(*)
PLANE_ANGLE_UNIT()
SI_UNIT($,.RADIAN.)
);
#1825=(
NAMED_UNIT(*)
SI_UNIT($,.STERADIAN.)
SOLID_ANGLE_UNIT()
);
#1826=SHAPE_DEFINITION_REPRESENTATION(#1827,#1828);
#1827=PRODUCT_DEFINITION_SHAPE('',$,#1830);
#1828=SHAPE_REPRESENTATION('',(#966),#1820);
#1829=PRODUCT_DEFINITION_CONTEXT('part definition',#1834,'design');
#1830=PRODUCT_DEFINITION('boite_1PE100','boite_1PE100 v16',#1831,#1829);
#1831=PRODUCT_DEFINITION_FORMATION('',$,#1836);
#1832=PRODUCT_RELATED_PRODUCT_CATEGORY('boite_1PE100 v16',
'boite_1PE100 v16',(#1836));
#1833=APPLICATION_PROTOCOL_DEFINITION('international standard',
'automotive_design',2009,#1834);
#1834=APPLICATION_CONTEXT(
'Core Data for Automotive Mechanical Design Process');
#1835=PRODUCT_CONTEXT('part definition',#1834,'mechanical');
#1836=PRODUCT('boite_1PE100','boite_1PE100 v16',$,(#1835));
#1837=PRESENTATION_STYLE_ASSIGNMENT((#1838));
#1838=SURFACE_STYLE_USAGE(.BOTH.,#1839);
#1839=SURFACE_SIDE_STYLE('',(#1840));
#1840=SURFACE_STYLE_FILL_AREA(#1841);
#1841=FILL_AREA_STYLE('Acier - Satin\X\E9',(#1842));
#1842=FILL_AREA_STYLE_COLOUR('Acier - Satin\X\E9',#1843);
#1843=COLOUR_RGB('Acier - Satin\X\E9',0.627450980392157,0.627450980392157,
0.627450980392157);
ENDSEC;
END-ISO-10303-21;
