ISO-10303-21;
HEADER;
/* Generated by software containing ST-Developer
 * from STEP Tools, Inc. (www.steptools.com) 
 */

FILE_DESCRIPTION(
/* description */ (''),
/* implementation_level */ '2;1');

FILE_NAME(
/* name */ 'boite_esp32_lcd_intercalaire.step',
/* time_stamp */ '2026-02-15T21:55:55+01:00',
/* author */ (''),
/* organization */ (''),
/* preprocessor_version */ 'ST-DEVELOPER v20.1',
/* originating_system */ 'Autodesk Translation Framework v14.21.0.0',
/* authorisation */ '');

FILE_SCHEMA (('AUTOMOTIVE_DESIGN { 1 0 10303 214 3 1 1 }'));
ENDSEC;

DATA;
#10=MECHANICAL_DESIGN_GEOMETRIC_PRESENTATION_REPRESENTATION('',(#13),#939);
#11=SHAPE_REPRESENTATION_RELATIONSHIP('SRR','None',#946,#12);
#12=ADVANCED_BREP_SHAPE_REPRESENTATION('',(#14),#938);
#13=STYLED_ITEM('',(#955),#14);
#14=MANIFOLD_SOLID_BREP('intercalaire',#535);
#15=TOROIDAL_SURFACE('',#569,0.900000000000003,0.2);
#16=TOROIDAL_SURFACE('',#577,0.900000000000003,0.2);
#17=TOROIDAL_SURFACE('',#585,0.899999999999999,0.2);
#18=TOROIDAL_SURFACE('',#593,0.899999999999999,0.2);
#19=FACE_BOUND('',#80,.T.);
#20=FACE_BOUND('',#81,.T.);
#21=FACE_BOUND('',#82,.T.);
#22=FACE_BOUND('',#83,.T.);
#23=FACE_BOUND('',#84,.T.);
#24=FACE_BOUND('',#112,.T.);
#25=FACE_BOUND('',#113,.T.);
#26=FACE_BOUND('',#114,.T.);
#27=FACE_BOUND('',#115,.T.);
#28=FACE_BOUND('',#116,.T.);
#29=FACE_BOUND('',#117,.T.);
#30=FACE_BOUND('',#118,.T.);
#31=FACE_BOUND('',#119,.T.);
#32=FACE_BOUND('',#120,.T.);
#33=PLANE('',#552);
#34=PLANE('',#553);
#35=PLANE('',#563);
#36=PLANE('',#566);
#37=PLANE('',#576);
#38=PLANE('',#584);
#39=PLANE('',#592);
#40=PLANE('',#600);
#41=PLANE('',#609);
#42=PLANE('',#610);
#43=PLANE('',#611);
#44=PLANE('',#612);
#45=PLANE('',#613);
#46=PLANE('',#614);
#47=FACE_OUTER_BOUND('',#77,.T.);
#48=FACE_OUTER_BOUND('',#78,.T.);
#49=FACE_OUTER_BOUND('',#79,.T.);
#50=FACE_OUTER_BOUND('',#85,.T.);
#51=FACE_OUTER_BOUND('',#86,.T.);
#52=FACE_OUTER_BOUND('',#87,.T.);
#53=FACE_OUTER_BOUND('',#88,.T.);
#54=FACE_OUTER_BOUND('',#89,.T.);
#55=FACE_OUTER_BOUND('',#90,.T.);
#56=FACE_OUTER_BOUND('',#91,.T.);
#57=FACE_OUTER_BOUND('',#92,.T.);
#58=FACE_OUTER_BOUND('',#93,.T.);
#59=FACE_OUTER_BOUND('',#94,.T.);
#60=FACE_OUTER_BOUND('',#95,.T.);
#61=FACE_OUTER_BOUND('',#96,.T.);
#62=FACE_OUTER_BOUND('',#97,.T.);
#63=FACE_OUTER_BOUND('',#98,.T.);
#64=FACE_OUTER_BOUND('',#99,.T.);
#65=FACE_OUTER_BOUND('',#100,.T.);
#66=FACE_OUTER_BOUND('',#101,.T.);
#67=FACE_OUTER_BOUND('',#102,.T.);
#68=FACE_OUTER_BOUND('',#103,.T.);
#69=FACE_OUTER_BOUND('',#104,.T.);
#70=FACE_OUTER_BOUND('',#105,.T.);
#71=FACE_OUTER_BOUND('',#106,.T.);
#72=FACE_OUTER_BOUND('',#107,.T.);
#73=FACE_OUTER_BOUND('',#108,.T.);
#74=FACE_OUTER_BOUND('',#109,.T.);
#75=FACE_OUTER_BOUND('',#110,.T.);
#76=FACE_OUTER_BOUND('',#111,.T.);
#77=EDGE_LOOP('',(#349,#350,#351,#352));
#78=EDGE_LOOP('',(#353,#354,#355,#356));
#79=EDGE_LOOP('',(#357,#358,#359,#360,#361,#362,#363,#364));
#80=EDGE_LOOP('',(#365));
#81=EDGE_LOOP('',(#366));
#82=EDGE_LOOP('',(#367));
#83=EDGE_LOOP('',(#368));
#84=EDGE_LOOP('',(#369,#370,#371,#372));
#85=EDGE_LOOP('',(#373,#374,#375,#376));
#86=EDGE_LOOP('',(#377,#378,#379,#380));
#87=EDGE_LOOP('',(#381,#382,#383,#384));
#88=EDGE_LOOP('',(#385,#386,#387,#388));
#89=EDGE_LOOP('',(#389,#390,#391,#392));
#90=EDGE_LOOP('',(#393,#394,#395,#396,#397));
#91=EDGE_LOOP('',(#398,#399,#400,#401,#402));
#92=EDGE_LOOP('',(#403));
#93=EDGE_LOOP('',(#404,#405,#406,#407,#408));
#94=EDGE_LOOP('',(#409,#410,#411,#412,#413));
#95=EDGE_LOOP('',(#414));
#96=EDGE_LOOP('',(#415,#416,#417,#418,#419));
#97=EDGE_LOOP('',(#420,#421,#422,#423,#424));
#98=EDGE_LOOP('',(#425));
#99=EDGE_LOOP('',(#426,#427,#428,#429,#430));
#100=EDGE_LOOP('',(#431,#432,#433,#434,#435));
#101=EDGE_LOOP('',(#436));
#102=EDGE_LOOP('',(#437,#438,#439,#440));
#103=EDGE_LOOP('',(#441,#442,#443,#444));
#104=EDGE_LOOP('',(#445,#446,#447,#448));
#105=EDGE_LOOP('',(#449,#450,#451,#452));
#106=EDGE_LOOP('',(#453,#454,#455,#456));
#107=EDGE_LOOP('',(#457,#458,#459,#460));
#108=EDGE_LOOP('',(#461,#462,#463,#464));
#109=EDGE_LOOP('',(#465,#466,#467,#468));
#110=EDGE_LOOP('',(#469,#470,#471,#472));
#111=EDGE_LOOP('',(#473,#474,#475,#476,#477,#478,#479,#480));
#112=EDGE_LOOP('',(#481));
#113=EDGE_LOOP('',(#482));
#114=EDGE_LOOP('',(#483));
#115=EDGE_LOOP('',(#484));
#116=EDGE_LOOP('',(#485));
#117=EDGE_LOOP('',(#486));
#118=EDGE_LOOP('',(#487));
#119=EDGE_LOOP('',(#488));
#120=EDGE_LOOP('',(#489,#490,#491,#492));
#121=LINE('',#791,#157);
#122=LINE('',#794,#158);
#123=LINE('',#797,#159);
#124=LINE('',#799,#160);
#125=LINE('',#800,#161);
#126=LINE('',#803,#162);
#127=LINE('',#807,#163);
#128=LINE('',#811,#164);
#129=LINE('',#823,#165);
#130=LINE('',#825,#166);
#131=LINE('',#827,#167);
#132=LINE('',#828,#168);
#133=LINE('',#831,#169);
#134=LINE('',#835,#170);
#135=LINE('',#836,#171);
#136=LINE('',#839,#172);
#137=LINE('',#843,#173);
#138=LINE('',#844,#174);
#139=LINE('',#847,#175);
#140=LINE('',#859,#176);
#141=LINE('',#872,#177);
#142=LINE('',#885,#178);
#143=LINE('',#898,#179);
#144=LINE('',#904,#180);
#145=LINE('',#908,#181);
#146=LINE('',#912,#182);
#147=LINE('',#916,#183);
#148=LINE('',#920,#184);
#149=LINE('',#921,#185);
#150=LINE('',#922,#186);
#151=LINE('',#925,#187);
#152=LINE('',#926,#188);
#153=LINE('',#929,#189);
#154=LINE('',#930,#190);
#155=LINE('',#932,#191);
#156=LINE('',#934,#192);
#157=VECTOR('',#621,10.);
#158=VECTOR('',#624,10.);
#159=VECTOR('',#627,10.);
#160=VECTOR('',#628,10.);
#161=VECTOR('',#629,10.);
#162=VECTOR('',#632,10.);
#163=VECTOR('',#635,10.);
#164=VECTOR('',#638,10.);
#165=VECTOR('',#649,10.);
#166=VECTOR('',#650,10.);
#167=VECTOR('',#651,10.);
#168=VECTOR('',#652,10.);
#169=VECTOR('',#655,10.);
#170=VECTOR('',#660,10.);
#171=VECTOR('',#661,10.);
#172=VECTOR('',#664,10.);
#173=VECTOR('',#669,10.);
#174=VECTOR('',#670,10.);
#175=VECTOR('',#673,10.);
#176=VECTOR('',#688,1.1);
#177=VECTOR('',#705,1.1);
#178=VECTOR('',#722,1.1);
#179=VECTOR('',#739,1.1);
#180=VECTOR('',#748,1.1);
#181=VECTOR('',#753,1.1);
#182=VECTOR('',#758,1.1);
#183=VECTOR('',#763,1.1);
#184=VECTOR('',#766,10.);
#185=VECTOR('',#767,10.);
#186=VECTOR('',#768,10.);
#187=VECTOR('',#771,10.);
#188=VECTOR('',#772,10.);
#189=VECTOR('',#775,10.);
#190=VECTOR('',#776,10.);
#191=VECTOR('',#779,10.);
#192=VECTOR('',#782,10.);
#193=CIRCLE('',#550,4.5);
#194=CIRCLE('',#551,4.5);
#195=CIRCLE('',#554,4.5);
#196=CIRCLE('',#555,4.5);
#197=CIRCLE('',#556,4.5);
#198=CIRCLE('',#557,1.1);
#199=CIRCLE('',#558,1.1);
#200=CIRCLE('',#559,1.1);
#201=CIRCLE('',#560,1.1);
#202=CIRCLE('',#562,4.5);
#203=CIRCLE('',#565,4.5);
#204=CIRCLE('',#568,4.5);
#205=CIRCLE('',#570,0.900000000000003);
#206=CIRCLE('',#571,0.2);
#207=CIRCLE('',#572,1.1);
#208=CIRCLE('',#573,1.1);
#209=CIRCLE('',#575,1.1);
#210=CIRCLE('',#578,0.900000000000003);
#211=CIRCLE('',#579,0.2);
#212=CIRCLE('',#580,1.1);
#213=CIRCLE('',#581,1.1);
#214=CIRCLE('',#583,1.1);
#215=CIRCLE('',#586,0.899999999999999);
#216=CIRCLE('',#587,0.2);
#217=CIRCLE('',#588,1.1);
#218=CIRCLE('',#589,1.1);
#219=CIRCLE('',#591,1.1);
#220=CIRCLE('',#594,0.899999999999999);
#221=CIRCLE('',#595,0.2);
#222=CIRCLE('',#596,1.1);
#223=CIRCLE('',#597,1.1);
#224=CIRCLE('',#599,1.1);
#225=CIRCLE('',#602,1.1);
#226=CIRCLE('',#604,1.1);
#227=CIRCLE('',#606,1.1);
#228=CIRCLE('',#608,1.1);
#229=VERTEX_POINT('',#787);
#230=VERTEX_POINT('',#788);
#231=VERTEX_POINT('',#790);
#232=VERTEX_POINT('',#792);
#233=VERTEX_POINT('',#796);
#234=VERTEX_POINT('',#798);
#235=VERTEX_POINT('',#802);
#236=VERTEX_POINT('',#804);
#237=VERTEX_POINT('',#806);
#238=VERTEX_POINT('',#808);
#239=VERTEX_POINT('',#810);
#240=VERTEX_POINT('',#813);
#241=VERTEX_POINT('',#815);
#242=VERTEX_POINT('',#817);
#243=VERTEX_POINT('',#819);
#244=VERTEX_POINT('',#821);
#245=VERTEX_POINT('',#822);
#246=VERTEX_POINT('',#824);
#247=VERTEX_POINT('',#826);
#248=VERTEX_POINT('',#830);
#249=VERTEX_POINT('',#834);
#250=VERTEX_POINT('',#838);
#251=VERTEX_POINT('',#842);
#252=VERTEX_POINT('',#846);
#253=VERTEX_POINT('',#850);
#254=VERTEX_POINT('',#852);
#255=VERTEX_POINT('',#854);
#256=VERTEX_POINT('',#858);
#257=VERTEX_POINT('',#863);
#258=VERTEX_POINT('',#865);
#259=VERTEX_POINT('',#867);
#260=VERTEX_POINT('',#871);
#261=VERTEX_POINT('',#876);
#262=VERTEX_POINT('',#878);
#263=VERTEX_POINT('',#880);
#264=VERTEX_POINT('',#884);
#265=VERTEX_POINT('',#889);
#266=VERTEX_POINT('',#891);
#267=VERTEX_POINT('',#893);
#268=VERTEX_POINT('',#897);
#269=VERTEX_POINT('',#902);
#270=VERTEX_POINT('',#906);
#271=VERTEX_POINT('',#910);
#272=VERTEX_POINT('',#914);
#273=VERTEX_POINT('',#918);
#274=VERTEX_POINT('',#919);
#275=VERTEX_POINT('',#924);
#276=VERTEX_POINT('',#928);
#277=EDGE_CURVE('',#229,#230,#193,.T.);
#278=EDGE_CURVE('',#230,#231,#121,.T.);
#279=EDGE_CURVE('',#231,#232,#194,.T.);
#280=EDGE_CURVE('',#232,#229,#122,.T.);
#281=EDGE_CURVE('',#233,#230,#123,.T.);
#282=EDGE_CURVE('',#234,#233,#124,.T.);
#283=EDGE_CURVE('',#231,#234,#125,.T.);
#284=EDGE_CURVE('',#229,#235,#126,.T.);
#285=EDGE_CURVE('',#236,#235,#195,.T.);
#286=EDGE_CURVE('',#236,#237,#127,.T.);
#287=EDGE_CURVE('',#238,#237,#196,.T.);
#288=EDGE_CURVE('',#238,#239,#128,.T.);
#289=EDGE_CURVE('',#233,#239,#197,.T.);
#290=EDGE_CURVE('',#240,#240,#198,.T.);
#291=EDGE_CURVE('',#241,#241,#199,.T.);
#292=EDGE_CURVE('',#242,#242,#200,.T.);
#293=EDGE_CURVE('',#243,#243,#201,.T.);
#294=EDGE_CURVE('',#244,#245,#129,.T.);
#295=EDGE_CURVE('',#245,#246,#130,.T.);
#296=EDGE_CURVE('',#246,#247,#131,.T.);
#297=EDGE_CURVE('',#247,#244,#132,.T.);
#298=EDGE_CURVE('',#239,#248,#133,.T.);
#299=EDGE_CURVE('',#248,#234,#202,.T.);
#300=EDGE_CURVE('',#249,#238,#134,.T.);
#301=EDGE_CURVE('',#248,#249,#135,.T.);
#302=EDGE_CURVE('',#237,#250,#136,.T.);
#303=EDGE_CURVE('',#250,#249,#203,.T.);
#304=EDGE_CURVE('',#251,#236,#137,.T.);
#305=EDGE_CURVE('',#250,#251,#138,.T.);
#306=EDGE_CURVE('',#235,#252,#139,.T.);
#307=EDGE_CURVE('',#252,#251,#204,.T.);
#308=EDGE_CURVE('',#253,#253,#205,.T.);
#309=EDGE_CURVE('',#253,#254,#206,.T.);
#310=EDGE_CURVE('',#254,#255,#207,.T.);
#311=EDGE_CURVE('',#255,#254,#208,.T.);
#312=EDGE_CURVE('',#255,#256,#140,.T.);
#313=EDGE_CURVE('',#256,#256,#209,.T.);
#314=EDGE_CURVE('',#257,#257,#210,.T.);
#315=EDGE_CURVE('',#257,#258,#211,.T.);
#316=EDGE_CURVE('',#258,#259,#212,.T.);
#317=EDGE_CURVE('',#259,#258,#213,.T.);
#318=EDGE_CURVE('',#259,#260,#141,.T.);
#319=EDGE_CURVE('',#260,#260,#214,.T.);
#320=EDGE_CURVE('',#261,#261,#215,.T.);
#321=EDGE_CURVE('',#261,#262,#216,.T.);
#322=EDGE_CURVE('',#262,#263,#217,.T.);
#323=EDGE_CURVE('',#263,#262,#218,.T.);
#324=EDGE_CURVE('',#263,#264,#142,.T.);
#325=EDGE_CURVE('',#264,#264,#219,.T.);
#326=EDGE_CURVE('',#265,#265,#220,.T.);
#327=EDGE_CURVE('',#265,#266,#221,.T.);
#328=EDGE_CURVE('',#266,#267,#222,.T.);
#329=EDGE_CURVE('',#267,#266,#223,.T.);
#330=EDGE_CURVE('',#267,#268,#143,.T.);
#331=EDGE_CURVE('',#268,#268,#224,.T.);
#332=EDGE_CURVE('',#269,#269,#225,.T.);
#333=EDGE_CURVE('',#269,#240,#144,.T.);
#334=EDGE_CURVE('',#270,#270,#226,.T.);
#335=EDGE_CURVE('',#270,#241,#145,.T.);
#336=EDGE_CURVE('',#271,#271,#227,.T.);
#337=EDGE_CURVE('',#271,#242,#146,.T.);
#338=EDGE_CURVE('',#272,#272,#228,.T.);
#339=EDGE_CURVE('',#272,#243,#147,.T.);
#340=EDGE_CURVE('',#273,#274,#148,.T.);
#341=EDGE_CURVE('',#274,#244,#149,.T.);
#342=EDGE_CURVE('',#273,#247,#150,.T.);
#343=EDGE_CURVE('',#275,#273,#151,.T.);
#344=EDGE_CURVE('',#275,#246,#152,.T.);
#345=EDGE_CURVE('',#276,#275,#153,.T.);
#346=EDGE_CURVE('',#276,#245,#154,.T.);
#347=EDGE_CURVE('',#274,#276,#155,.T.);
#348=EDGE_CURVE('',#252,#232,#156,.T.);
#349=ORIENTED_EDGE('',*,*,#277,.T.);
#350=ORIENTED_EDGE('',*,*,#278,.T.);
#351=ORIENTED_EDGE('',*,*,#279,.T.);
#352=ORIENTED_EDGE('',*,*,#280,.T.);
#353=ORIENTED_EDGE('',*,*,#278,.F.);
#354=ORIENTED_EDGE('',*,*,#281,.F.);
#355=ORIENTED_EDGE('',*,*,#282,.F.);
#356=ORIENTED_EDGE('',*,*,#283,.F.);
#357=ORIENTED_EDGE('',*,*,#277,.F.);
#358=ORIENTED_EDGE('',*,*,#284,.T.);
#359=ORIENTED_EDGE('',*,*,#285,.F.);
#360=ORIENTED_EDGE('',*,*,#286,.T.);
#361=ORIENTED_EDGE('',*,*,#287,.F.);
#362=ORIENTED_EDGE('',*,*,#288,.T.);
#363=ORIENTED_EDGE('',*,*,#289,.F.);
#364=ORIENTED_EDGE('',*,*,#281,.T.);
#365=ORIENTED_EDGE('',*,*,#290,.T.);
#366=ORIENTED_EDGE('',*,*,#291,.T.);
#367=ORIENTED_EDGE('',*,*,#292,.T.);
#368=ORIENTED_EDGE('',*,*,#293,.T.);
#369=ORIENTED_EDGE('',*,*,#294,.T.);
#370=ORIENTED_EDGE('',*,*,#295,.T.);
#371=ORIENTED_EDGE('',*,*,#296,.T.);
#372=ORIENTED_EDGE('',*,*,#297,.T.);
#373=ORIENTED_EDGE('',*,*,#289,.T.);
#374=ORIENTED_EDGE('',*,*,#298,.T.);
#375=ORIENTED_EDGE('',*,*,#299,.T.);
#376=ORIENTED_EDGE('',*,*,#282,.T.);
#377=ORIENTED_EDGE('',*,*,#298,.F.);
#378=ORIENTED_EDGE('',*,*,#288,.F.);
#379=ORIENTED_EDGE('',*,*,#300,.F.);
#380=ORIENTED_EDGE('',*,*,#301,.F.);
#381=ORIENTED_EDGE('',*,*,#287,.T.);
#382=ORIENTED_EDGE('',*,*,#302,.T.);
#383=ORIENTED_EDGE('',*,*,#303,.T.);
#384=ORIENTED_EDGE('',*,*,#300,.T.);
#385=ORIENTED_EDGE('',*,*,#302,.F.);
#386=ORIENTED_EDGE('',*,*,#286,.F.);
#387=ORIENTED_EDGE('',*,*,#304,.F.);
#388=ORIENTED_EDGE('',*,*,#305,.F.);
#389=ORIENTED_EDGE('',*,*,#285,.T.);
#390=ORIENTED_EDGE('',*,*,#306,.T.);
#391=ORIENTED_EDGE('',*,*,#307,.T.);
#392=ORIENTED_EDGE('',*,*,#304,.T.);
#393=ORIENTED_EDGE('',*,*,#308,.T.);
#394=ORIENTED_EDGE('',*,*,#309,.T.);
#395=ORIENTED_EDGE('',*,*,#310,.T.);
#396=ORIENTED_EDGE('',*,*,#311,.T.);
#397=ORIENTED_EDGE('',*,*,#309,.F.);
#398=ORIENTED_EDGE('',*,*,#311,.F.);
#399=ORIENTED_EDGE('',*,*,#312,.T.);
#400=ORIENTED_EDGE('',*,*,#313,.F.);
#401=ORIENTED_EDGE('',*,*,#312,.F.);
#402=ORIENTED_EDGE('',*,*,#310,.F.);
#403=ORIENTED_EDGE('',*,*,#308,.F.);
#404=ORIENTED_EDGE('',*,*,#314,.T.);
#405=ORIENTED_EDGE('',*,*,#315,.T.);
#406=ORIENTED_EDGE('',*,*,#316,.T.);
#407=ORIENTED_EDGE('',*,*,#317,.T.);
#408=ORIENTED_EDGE('',*,*,#315,.F.);
#409=ORIENTED_EDGE('',*,*,#317,.F.);
#410=ORIENTED_EDGE('',*,*,#318,.T.);
#411=ORIENTED_EDGE('',*,*,#319,.F.);
#412=ORIENTED_EDGE('',*,*,#318,.F.);
#413=ORIENTED_EDGE('',*,*,#316,.F.);
#414=ORIENTED_EDGE('',*,*,#314,.F.);
#415=ORIENTED_EDGE('',*,*,#320,.T.);
#416=ORIENTED_EDGE('',*,*,#321,.T.);
#417=ORIENTED_EDGE('',*,*,#322,.T.);
#418=ORIENTED_EDGE('',*,*,#323,.T.);
#419=ORIENTED_EDGE('',*,*,#321,.F.);
#420=ORIENTED_EDGE('',*,*,#323,.F.);
#421=ORIENTED_EDGE('',*,*,#324,.T.);
#422=ORIENTED_EDGE('',*,*,#325,.F.);
#423=ORIENTED_EDGE('',*,*,#324,.F.);
#424=ORIENTED_EDGE('',*,*,#322,.F.);
#425=ORIENTED_EDGE('',*,*,#320,.F.);
#426=ORIENTED_EDGE('',*,*,#326,.T.);
#427=ORIENTED_EDGE('',*,*,#327,.T.);
#428=ORIENTED_EDGE('',*,*,#328,.T.);
#429=ORIENTED_EDGE('',*,*,#329,.T.);
#430=ORIENTED_EDGE('',*,*,#327,.F.);
#431=ORIENTED_EDGE('',*,*,#329,.F.);
#432=ORIENTED_EDGE('',*,*,#330,.T.);
#433=ORIENTED_EDGE('',*,*,#331,.F.);
#434=ORIENTED_EDGE('',*,*,#330,.F.);
#435=ORIENTED_EDGE('',*,*,#328,.F.);
#436=ORIENTED_EDGE('',*,*,#326,.F.);
#437=ORIENTED_EDGE('',*,*,#332,.F.);
#438=ORIENTED_EDGE('',*,*,#333,.T.);
#439=ORIENTED_EDGE('',*,*,#290,.F.);
#440=ORIENTED_EDGE('',*,*,#333,.F.);
#441=ORIENTED_EDGE('',*,*,#334,.F.);
#442=ORIENTED_EDGE('',*,*,#335,.T.);
#443=ORIENTED_EDGE('',*,*,#291,.F.);
#444=ORIENTED_EDGE('',*,*,#335,.F.);
#445=ORIENTED_EDGE('',*,*,#336,.F.);
#446=ORIENTED_EDGE('',*,*,#337,.T.);
#447=ORIENTED_EDGE('',*,*,#292,.F.);
#448=ORIENTED_EDGE('',*,*,#337,.F.);
#449=ORIENTED_EDGE('',*,*,#338,.F.);
#450=ORIENTED_EDGE('',*,*,#339,.T.);
#451=ORIENTED_EDGE('',*,*,#293,.F.);
#452=ORIENTED_EDGE('',*,*,#339,.F.);
#453=ORIENTED_EDGE('',*,*,#340,.T.);
#454=ORIENTED_EDGE('',*,*,#341,.T.);
#455=ORIENTED_EDGE('',*,*,#297,.F.);
#456=ORIENTED_EDGE('',*,*,#342,.F.);
#457=ORIENTED_EDGE('',*,*,#343,.T.);
#458=ORIENTED_EDGE('',*,*,#342,.T.);
#459=ORIENTED_EDGE('',*,*,#296,.F.);
#460=ORIENTED_EDGE('',*,*,#344,.F.);
#461=ORIENTED_EDGE('',*,*,#345,.T.);
#462=ORIENTED_EDGE('',*,*,#344,.T.);
#463=ORIENTED_EDGE('',*,*,#295,.F.);
#464=ORIENTED_EDGE('',*,*,#346,.F.);
#465=ORIENTED_EDGE('',*,*,#347,.T.);
#466=ORIENTED_EDGE('',*,*,#346,.T.);
#467=ORIENTED_EDGE('',*,*,#294,.F.);
#468=ORIENTED_EDGE('',*,*,#341,.F.);
#469=ORIENTED_EDGE('',*,*,#280,.F.);
#470=ORIENTED_EDGE('',*,*,#348,.F.);
#471=ORIENTED_EDGE('',*,*,#306,.F.);
#472=ORIENTED_EDGE('',*,*,#284,.F.);
#473=ORIENTED_EDGE('',*,*,#279,.F.);
#474=ORIENTED_EDGE('',*,*,#283,.T.);
#475=ORIENTED_EDGE('',*,*,#299,.F.);
#476=ORIENTED_EDGE('',*,*,#301,.T.);
#477=ORIENTED_EDGE('',*,*,#303,.F.);
#478=ORIENTED_EDGE('',*,*,#305,.T.);
#479=ORIENTED_EDGE('',*,*,#307,.F.);
#480=ORIENTED_EDGE('',*,*,#348,.T.);
#481=ORIENTED_EDGE('',*,*,#332,.T.);
#482=ORIENTED_EDGE('',*,*,#334,.T.);
#483=ORIENTED_EDGE('',*,*,#336,.T.);
#484=ORIENTED_EDGE('',*,*,#338,.T.);
#485=ORIENTED_EDGE('',*,*,#313,.T.);
#486=ORIENTED_EDGE('',*,*,#331,.T.);
#487=ORIENTED_EDGE('',*,*,#319,.T.);
#488=ORIENTED_EDGE('',*,*,#325,.T.);
#489=ORIENTED_EDGE('',*,*,#347,.F.);
#490=ORIENTED_EDGE('',*,*,#340,.F.);
#491=ORIENTED_EDGE('',*,*,#343,.F.);
#492=ORIENTED_EDGE('',*,*,#345,.F.);
#493=CYLINDRICAL_SURFACE('',#549,4.5);
#494=CYLINDRICAL_SURFACE('',#561,4.5);
#495=CYLINDRICAL_SURFACE('',#564,4.5);
#496=CYLINDRICAL_SURFACE('',#567,4.5);
#497=CYLINDRICAL_SURFACE('',#574,1.1);
#498=CYLINDRICAL_SURFACE('',#582,1.1);
#499=CYLINDRICAL_SURFACE('',#590,1.1);
#500=CYLINDRICAL_SURFACE('',#598,1.1);
#501=CYLINDRICAL_SURFACE('',#601,1.1);
#502=CYLINDRICAL_SURFACE('',#603,1.1);
#503=CYLINDRICAL_SURFACE('',#605,1.1);
#504=CYLINDRICAL_SURFACE('',#607,1.1);
#505=ADVANCED_FACE('',(#47),#493,.T.);
#506=ADVANCED_FACE('',(#48),#33,.T.);
#507=ADVANCED_FACE('',(#49,#19,#20,#21,#22,#23),#34,.T.);
#508=ADVANCED_FACE('',(#50),#494,.T.);
#509=ADVANCED_FACE('',(#51),#35,.T.);
#510=ADVANCED_FACE('',(#52),#495,.T.);
#511=ADVANCED_FACE('',(#53),#36,.T.);
#512=ADVANCED_FACE('',(#54),#496,.T.);
#513=ADVANCED_FACE('',(#55),#15,.T.);
#514=ADVANCED_FACE('',(#56),#497,.T.);
#515=ADVANCED_FACE('',(#57),#37,.F.);
#516=ADVANCED_FACE('',(#58),#16,.T.);
#517=ADVANCED_FACE('',(#59),#498,.T.);
#518=ADVANCED_FACE('',(#60),#38,.F.);
#519=ADVANCED_FACE('',(#61),#17,.T.);
#520=ADVANCED_FACE('',(#62),#499,.T.);
#521=ADVANCED_FACE('',(#63),#39,.F.);
#522=ADVANCED_FACE('',(#64),#18,.T.);
#523=ADVANCED_FACE('',(#65),#500,.T.);
#524=ADVANCED_FACE('',(#66),#40,.F.);
#525=ADVANCED_FACE('',(#67),#501,.F.);
#526=ADVANCED_FACE('',(#68),#502,.F.);
#527=ADVANCED_FACE('',(#69),#503,.F.);
#528=ADVANCED_FACE('',(#70),#504,.F.);
#529=ADVANCED_FACE('',(#71),#41,.T.);
#530=ADVANCED_FACE('',(#72),#42,.T.);
#531=ADVANCED_FACE('',(#73),#43,.T.);
#532=ADVANCED_FACE('',(#74),#44,.T.);
#533=ADVANCED_FACE('',(#75),#45,.T.);
#534=ADVANCED_FACE('',(#76,#24,#25,#26,#27,#28,#29,#30,#31,#32),#46,.F.);
#535=CLOSED_SHELL('',(#505,#506,#507,#508,#509,#510,#511,#512,#513,#514,
#515,#516,#517,#518,#519,#520,#521,#522,#523,#524,#525,#526,#527,#528,#529,
#530,#531,#532,#533,#534));
#536=DERIVED_UNIT_ELEMENT(#538,1.);
#537=DERIVED_UNIT_ELEMENT(#941,-3.);
#538=(
MASS_UNIT()
NAMED_UNIT(*)
SI_UNIT(.KILO.,.GRAM.)
);
#539=DERIVED_UNIT((#536,#537));
#540=MEASURE_REPRESENTATION_ITEM('density measure',
POSITIVE_RATIO_MEASURE(7850.),#539);
#541=PROPERTY_DEFINITION_REPRESENTATION(#546,#543);
#542=PROPERTY_DEFINITION_REPRESENTATION(#547,#544);
#543=REPRESENTATION('material name',(#545),#938);
#544=REPRESENTATION('density',(#540),#938);
#545=DESCRIPTIVE_REPRESENTATION_ITEM('Acier','Acier');
#546=PROPERTY_DEFINITION('material property','material name',#948);
#547=PROPERTY_DEFINITION('material property','density of part',#948);
#548=AXIS2_PLACEMENT_3D('',#785,#615,#616);
#549=AXIS2_PLACEMENT_3D('',#786,#617,#618);
#550=AXIS2_PLACEMENT_3D('',#789,#619,#620);
#551=AXIS2_PLACEMENT_3D('',#793,#622,#623);
#552=AXIS2_PLACEMENT_3D('',#795,#625,#626);
#553=AXIS2_PLACEMENT_3D('',#801,#630,#631);
#554=AXIS2_PLACEMENT_3D('',#805,#633,#634);
#555=AXIS2_PLACEMENT_3D('',#809,#636,#637);
#556=AXIS2_PLACEMENT_3D('',#812,#639,#640);
#557=AXIS2_PLACEMENT_3D('',#814,#641,#642);
#558=AXIS2_PLACEMENT_3D('',#816,#643,#644);
#559=AXIS2_PLACEMENT_3D('',#818,#645,#646);
#560=AXIS2_PLACEMENT_3D('',#820,#647,#648);
#561=AXIS2_PLACEMENT_3D('',#829,#653,#654);
#562=AXIS2_PLACEMENT_3D('',#832,#656,#657);
#563=AXIS2_PLACEMENT_3D('',#833,#658,#659);
#564=AXIS2_PLACEMENT_3D('',#837,#662,#663);
#565=AXIS2_PLACEMENT_3D('',#840,#665,#666);
#566=AXIS2_PLACEMENT_3D('',#841,#667,#668);
#567=AXIS2_PLACEMENT_3D('',#845,#671,#672);
#568=AXIS2_PLACEMENT_3D('',#848,#674,#675);
#569=AXIS2_PLACEMENT_3D('',#849,#676,#677);
#570=AXIS2_PLACEMENT_3D('',#851,#678,#679);
#571=AXIS2_PLACEMENT_3D('',#853,#680,#681);
#572=AXIS2_PLACEMENT_3D('',#855,#682,#683);
#573=AXIS2_PLACEMENT_3D('',#856,#684,#685);
#574=AXIS2_PLACEMENT_3D('',#857,#686,#687);
#575=AXIS2_PLACEMENT_3D('',#860,#689,#690);
#576=AXIS2_PLACEMENT_3D('',#861,#691,#692);
#577=AXIS2_PLACEMENT_3D('',#862,#693,#694);
#578=AXIS2_PLACEMENT_3D('',#864,#695,#696);
#579=AXIS2_PLACEMENT_3D('',#866,#697,#698);
#580=AXIS2_PLACEMENT_3D('',#868,#699,#700);
#581=AXIS2_PLACEMENT_3D('',#869,#701,#702);
#582=AXIS2_PLACEMENT_3D('',#870,#703,#704);
#583=AXIS2_PLACEMENT_3D('',#873,#706,#707);
#584=AXIS2_PLACEMENT_3D('',#874,#708,#709);
#585=AXIS2_PLACEMENT_3D('',#875,#710,#711);
#586=AXIS2_PLACEMENT_3D('',#877,#712,#713);
#587=AXIS2_PLACEMENT_3D('',#879,#714,#715);
#588=AXIS2_PLACEMENT_3D('',#881,#716,#717);
#589=AXIS2_PLACEMENT_3D('',#882,#718,#719);
#590=AXIS2_PLACEMENT_3D('',#883,#720,#721);
#591=AXIS2_PLACEMENT_3D('',#886,#723,#724);
#592=AXIS2_PLACEMENT_3D('',#887,#725,#726);
#593=AXIS2_PLACEMENT_3D('',#888,#727,#728);
#594=AXIS2_PLACEMENT_3D('',#890,#729,#730);
#595=AXIS2_PLACEMENT_3D('',#892,#731,#732);
#596=AXIS2_PLACEMENT_3D('',#894,#733,#734);
#597=AXIS2_PLACEMENT_3D('',#895,#735,#736);
#598=AXIS2_PLACEMENT_3D('',#896,#737,#738);
#599=AXIS2_PLACEMENT_3D('',#899,#740,#741);
#600=AXIS2_PLACEMENT_3D('',#900,#742,#743);
#601=AXIS2_PLACEMENT_3D('',#901,#744,#745);
#602=AXIS2_PLACEMENT_3D('',#903,#746,#747);
#603=AXIS2_PLACEMENT_3D('',#905,#749,#750);
#604=AXIS2_PLACEMENT_3D('',#907,#751,#752);
#605=AXIS2_PLACEMENT_3D('',#909,#754,#755);
#606=AXIS2_PLACEMENT_3D('',#911,#756,#757);
#607=AXIS2_PLACEMENT_3D('',#913,#759,#760);
#608=AXIS2_PLACEMENT_3D('',#915,#761,#762);
#609=AXIS2_PLACEMENT_3D('',#917,#764,#765);
#610=AXIS2_PLACEMENT_3D('',#923,#769,#770);
#611=AXIS2_PLACEMENT_3D('',#927,#773,#774);
#612=AXIS2_PLACEMENT_3D('',#931,#777,#778);
#613=AXIS2_PLACEMENT_3D('',#933,#780,#781);
#614=AXIS2_PLACEMENT_3D('',#935,#783,#784);
#615=DIRECTION('axis',(0.,0.,1.));
#616=DIRECTION('refdir',(1.,0.,0.));
#617=DIRECTION('center_axis',(0.,1.,0.));
#618=DIRECTION('ref_axis',(-0.707106781186547,0.,-0.707106781186548));
#619=DIRECTION('center_axis',(0.,-1.,0.));
#620=DIRECTION('ref_axis',(-0.707106781186547,0.,-0.707106781186548));
#621=DIRECTION('',(0.,-1.,0.));
#622=DIRECTION('center_axis',(0.,1.,0.));
#623=DIRECTION('ref_axis',(-0.707106781186547,0.,-0.707106781186548));
#624=DIRECTION('',(0.,1.,0.));
#625=DIRECTION('center_axis',(0.,0.,-1.));
#626=DIRECTION('ref_axis',(-1.,0.,0.));
#627=DIRECTION('',(-1.,0.,0.));
#628=DIRECTION('',(0.,1.,0.));
#629=DIRECTION('',(1.,0.,0.));
#630=DIRECTION('center_axis',(0.,1.,0.));
#631=DIRECTION('ref_axis',(0.,0.,1.));
#632=DIRECTION('',(0.,0.,1.));
#633=DIRECTION('center_axis',(0.,-1.,0.));
#634=DIRECTION('ref_axis',(-0.707106781186547,0.,0.707106781186548));
#635=DIRECTION('',(1.,0.,-5.1044736764375E-17));
#636=DIRECTION('center_axis',(0.,-1.,0.));
#637=DIRECTION('ref_axis',(0.707106781186548,0.,0.707106781186548));
#638=DIRECTION('',(0.,0.,-1.));
#639=DIRECTION('center_axis',(0.,-1.,0.));
#640=DIRECTION('ref_axis',(0.707106781186548,0.,-0.707106781186548));
#641=DIRECTION('center_axis',(0.,-1.,0.));
#642=DIRECTION('ref_axis',(1.,0.,0.));
#643=DIRECTION('center_axis',(0.,-1.,0.));
#644=DIRECTION('ref_axis',(1.,0.,0.));
#645=DIRECTION('center_axis',(0.,-1.,0.));
#646=DIRECTION('ref_axis',(1.,0.,0.));
#647=DIRECTION('center_axis',(0.,-1.,0.));
#648=DIRECTION('ref_axis',(1.,0.,0.));
#649=DIRECTION('',(-1.,0.,0.));
#650=DIRECTION('',(-1.76751924318433E-16,0.,-1.));
#651=DIRECTION('',(1.,0.,0.));
#652=DIRECTION('',(0.,0.,1.));
#653=DIRECTION('center_axis',(0.,1.,0.));
#654=DIRECTION('ref_axis',(0.707106781186548,0.,-0.707106781186548));
#655=DIRECTION('',(0.,-1.,0.));
#656=DIRECTION('center_axis',(0.,1.,0.));
#657=DIRECTION('ref_axis',(0.707106781186548,0.,-0.707106781186548));
#658=DIRECTION('center_axis',(1.,0.,0.));
#659=DIRECTION('ref_axis',(0.,0.,-1.));
#660=DIRECTION('',(0.,1.,0.));
#661=DIRECTION('',(0.,0.,1.));
#662=DIRECTION('center_axis',(0.,1.,0.));
#663=DIRECTION('ref_axis',(0.707106781186548,0.,0.707106781186548));
#664=DIRECTION('',(0.,-1.,0.));
#665=DIRECTION('center_axis',(0.,1.,0.));
#666=DIRECTION('ref_axis',(0.707106781186548,0.,0.707106781186548));
#667=DIRECTION('center_axis',(5.1044736764375E-17,0.,1.));
#668=DIRECTION('ref_axis',(1.,0.,-5.1044736764375E-17));
#669=DIRECTION('',(0.,1.,0.));
#670=DIRECTION('',(-1.,0.,5.1044736764375E-17));
#671=DIRECTION('center_axis',(0.,1.,0.));
#672=DIRECTION('ref_axis',(-0.707106781186547,0.,0.707106781186548));
#673=DIRECTION('',(0.,-1.,0.));
#674=DIRECTION('center_axis',(0.,1.,0.));
#675=DIRECTION('ref_axis',(-0.707106781186547,0.,0.707106781186548));
#676=DIRECTION('center_axis',(0.,-1.,0.));
#677=DIRECTION('ref_axis',(0.,0.,-1.));
#678=DIRECTION('center_axis',(0.,1.,0.));
#679=DIRECTION('ref_axis',(1.,0.,0.));
#680=DIRECTION('center_axis',(-1.,0.,0.));
#681=DIRECTION('ref_axis',(0.,0.,1.));
#682=DIRECTION('center_axis',(0.,-1.,0.));
#683=DIRECTION('ref_axis',(1.,0.,0.));
#684=DIRECTION('center_axis',(0.,-1.,0.));
#685=DIRECTION('ref_axis',(1.,0.,0.));
#686=DIRECTION('center_axis',(0.,-1.,0.));
#687=DIRECTION('ref_axis',(1.,0.,0.));
#688=DIRECTION('',(0.,1.,0.));
#689=DIRECTION('center_axis',(0.,1.,0.));
#690=DIRECTION('ref_axis',(1.,0.,0.));
#691=DIRECTION('center_axis',(0.,1.,0.));
#692=DIRECTION('ref_axis',(1.,0.,0.));
#693=DIRECTION('center_axis',(0.,-1.,0.));
#694=DIRECTION('ref_axis',(0.,0.,-1.));
#695=DIRECTION('center_axis',(0.,1.,0.));
#696=DIRECTION('ref_axis',(1.,0.,0.));
#697=DIRECTION('center_axis',(-1.,0.,0.));
#698=DIRECTION('ref_axis',(0.,0.,1.));
#699=DIRECTION('center_axis',(0.,-1.,0.));
#700=DIRECTION('ref_axis',(1.,0.,0.));
#701=DIRECTION('center_axis',(0.,-1.,0.));
#702=DIRECTION('ref_axis',(1.,0.,0.));
#703=DIRECTION('center_axis',(0.,-1.,0.));
#704=DIRECTION('ref_axis',(1.,0.,0.));
#705=DIRECTION('',(0.,1.,0.));
#706=DIRECTION('center_axis',(0.,1.,0.));
#707=DIRECTION('ref_axis',(1.,0.,0.));
#708=DIRECTION('center_axis',(0.,1.,0.));
#709=DIRECTION('ref_axis',(1.,0.,0.));
#710=DIRECTION('center_axis',(0.,-1.,0.));
#711=DIRECTION('ref_axis',(0.,0.,-1.));
#712=DIRECTION('center_axis',(0.,1.,0.));
#713=DIRECTION('ref_axis',(1.,0.,0.));
#714=DIRECTION('center_axis',(-1.,0.,0.));
#715=DIRECTION('ref_axis',(0.,0.,1.));
#716=DIRECTION('center_axis',(0.,-1.,0.));
#717=DIRECTION('ref_axis',(1.,0.,0.));
#718=DIRECTION('center_axis',(0.,-1.,0.));
#719=DIRECTION('ref_axis',(1.,0.,0.));
#720=DIRECTION('center_axis',(0.,-1.,0.));
#721=DIRECTION('ref_axis',(1.,0.,0.));
#722=DIRECTION('',(0.,1.,0.));
#723=DIRECTION('center_axis',(0.,1.,0.));
#724=DIRECTION('ref_axis',(1.,0.,0.));
#725=DIRECTION('center_axis',(0.,1.,0.));
#726=DIRECTION('ref_axis',(1.,0.,0.));
#727=DIRECTION('center_axis',(0.,-1.,0.));
#728=DIRECTION('ref_axis',(0.,0.,-1.));
#729=DIRECTION('center_axis',(0.,1.,0.));
#730=DIRECTION('ref_axis',(1.,0.,0.));
#731=DIRECTION('center_axis',(-1.,0.,0.));
#732=DIRECTION('ref_axis',(0.,0.,1.));
#733=DIRECTION('center_axis',(0.,-1.,0.));
#734=DIRECTION('ref_axis',(1.,0.,0.));
#735=DIRECTION('center_axis',(0.,-1.,0.));
#736=DIRECTION('ref_axis',(1.,0.,0.));
#737=DIRECTION('center_axis',(0.,-1.,0.));
#738=DIRECTION('ref_axis',(1.,0.,0.));
#739=DIRECTION('',(0.,1.,0.));
#740=DIRECTION('center_axis',(0.,1.,0.));
#741=DIRECTION('ref_axis',(1.,0.,0.));
#742=DIRECTION('center_axis',(0.,1.,0.));
#743=DIRECTION('ref_axis',(1.,0.,0.));
#744=DIRECTION('center_axis',(0.,1.,0.));
#745=DIRECTION('ref_axis',(1.,0.,0.));
#746=DIRECTION('center_axis',(0.,1.,0.));
#747=DIRECTION('ref_axis',(1.,0.,0.));
#748=DIRECTION('',(0.,1.,0.));
#749=DIRECTION('center_axis',(0.,1.,0.));
#750=DIRECTION('ref_axis',(1.,0.,0.));
#751=DIRECTION('center_axis',(0.,1.,0.));
#752=DIRECTION('ref_axis',(1.,0.,0.));
#753=DIRECTION('',(0.,1.,0.));
#754=DIRECTION('center_axis',(0.,1.,0.));
#755=DIRECTION('ref_axis',(1.,0.,0.));
#756=DIRECTION('center_axis',(0.,1.,0.));
#757=DIRECTION('ref_axis',(1.,0.,0.));
#758=DIRECTION('',(0.,1.,0.));
#759=DIRECTION('center_axis',(0.,1.,0.));
#760=DIRECTION('ref_axis',(1.,0.,0.));
#761=DIRECTION('center_axis',(0.,1.,0.));
#762=DIRECTION('ref_axis',(1.,0.,0.));
#763=DIRECTION('',(0.,1.,0.));
#764=DIRECTION('center_axis',(-1.,0.,0.));
#765=DIRECTION('ref_axis',(0.,0.,1.));
#766=DIRECTION('',(0.,0.,1.));
#767=DIRECTION('',(0.,1.,0.));
#768=DIRECTION('',(0.,1.,0.));
#769=DIRECTION('center_axis',(0.,0.,1.));
#770=DIRECTION('ref_axis',(1.,0.,0.));
#771=DIRECTION('',(1.,0.,0.));
#772=DIRECTION('',(0.,1.,0.));
#773=DIRECTION('center_axis',(1.,0.,-1.76751924318433E-16));
#774=DIRECTION('ref_axis',(-1.76751924318433E-16,0.,-1.));
#775=DIRECTION('',(-1.76751924318433E-16,0.,-1.));
#776=DIRECTION('',(0.,1.,0.));
#777=DIRECTION('center_axis',(0.,0.,-1.));
#778=DIRECTION('ref_axis',(-1.,0.,0.));
#779=DIRECTION('',(-1.,0.,0.));
#780=DIRECTION('center_axis',(-1.,0.,0.));
#781=DIRECTION('ref_axis',(0.,0.,1.));
#782=DIRECTION('',(0.,0.,-1.));
#783=DIRECTION('center_axis',(0.,1.,0.));
#784=DIRECTION('ref_axis',(1.,0.,0.));
#785=CARTESIAN_POINT('',(0.,0.,0.));
#786=CARTESIAN_POINT('Origin',(-42.2,29.7,-24.));
#787=CARTESIAN_POINT('',(-46.7,33.5,-24.));
#788=CARTESIAN_POINT('',(-42.2,33.5,-28.5));
#789=CARTESIAN_POINT('Origin',(-42.2,33.5,-24.));
#790=CARTESIAN_POINT('',(-42.2,29.7,-28.5));
#791=CARTESIAN_POINT('',(-42.2,29.7,-28.5));
#792=CARTESIAN_POINT('',(-46.7,29.7,-24.));
#793=CARTESIAN_POINT('Origin',(-42.2,29.7,-24.));
#794=CARTESIAN_POINT('',(-46.7,29.7,-24.));
#795=CARTESIAN_POINT('Origin',(40.3,29.7,-28.5));
#796=CARTESIAN_POINT('',(35.8,33.5,-28.5));
#797=CARTESIAN_POINT('',(-46.7,33.5,-28.5));
#798=CARTESIAN_POINT('',(35.8,29.7,-28.5));
#799=CARTESIAN_POINT('',(35.8,29.7,-28.5));
#800=CARTESIAN_POINT('',(-46.7,29.7,-28.5));
#801=CARTESIAN_POINT('Origin',(-3.2,33.5,4.44089209850063E-15));
#802=CARTESIAN_POINT('',(-46.7,33.5,24.));
#803=CARTESIAN_POINT('',(-46.7,33.5,28.5));
#804=CARTESIAN_POINT('',(-42.2,33.5,28.5));
#805=CARTESIAN_POINT('Origin',(-42.2,33.5,24.));
#806=CARTESIAN_POINT('',(35.8,33.5,28.5));
#807=CARTESIAN_POINT('',(40.3,33.5,28.5));
#808=CARTESIAN_POINT('',(40.3,33.5,24.));
#809=CARTESIAN_POINT('Origin',(35.8,33.5,24.));
#810=CARTESIAN_POINT('',(40.3,33.5,-24.));
#811=CARTESIAN_POINT('',(40.3,33.5,-28.5));
#812=CARTESIAN_POINT('Origin',(35.8,33.5,-24.));
#813=CARTESIAN_POINT('',(-43.3,33.5,21.));
#814=CARTESIAN_POINT('Origin',(-42.2,33.5,21.));
#815=CARTESIAN_POINT('',(34.7,33.5,21.));
#816=CARTESIAN_POINT('Origin',(35.8,33.5,21.));
#817=CARTESIAN_POINT('',(-43.3,33.5,-21.));
#818=CARTESIAN_POINT('Origin',(-42.2,33.5,-21.));
#819=CARTESIAN_POINT('',(34.7,33.5,-21.));
#820=CARTESIAN_POINT('Origin',(35.8,33.5,-21.));
#821=CARTESIAN_POINT('',(31.9,33.5,25.15));
#822=CARTESIAN_POINT('',(-37.85,33.5,25.15));
#823=CARTESIAN_POINT('',(31.9,33.5,25.15));
#824=CARTESIAN_POINT('',(-37.85,33.5,-25.1));
#825=CARTESIAN_POINT('',(-37.85,33.5,25.15));
#826=CARTESIAN_POINT('',(31.9,33.5,-25.1));
#827=CARTESIAN_POINT('',(-37.85,33.5,-25.1));
#828=CARTESIAN_POINT('',(31.9,33.5,-25.1));
#829=CARTESIAN_POINT('Origin',(35.8,29.7,-24.));
#830=CARTESIAN_POINT('',(40.3,29.7,-24.));
#831=CARTESIAN_POINT('',(40.3,29.7,-24.));
#832=CARTESIAN_POINT('Origin',(35.8,29.7,-24.));
#833=CARTESIAN_POINT('Origin',(40.3,29.7,28.5));
#834=CARTESIAN_POINT('',(40.3,29.7,24.));
#835=CARTESIAN_POINT('',(40.3,29.7,24.));
#836=CARTESIAN_POINT('',(40.3,29.7,-28.5));
#837=CARTESIAN_POINT('Origin',(35.8,29.7,24.));
#838=CARTESIAN_POINT('',(35.8,29.7,28.5));
#839=CARTESIAN_POINT('',(35.8,29.7,28.5));
#840=CARTESIAN_POINT('Origin',(35.8,29.7,24.));
#841=CARTESIAN_POINT('Origin',(-46.7,29.7,28.5));
#842=CARTESIAN_POINT('',(-42.2,29.7,28.5));
#843=CARTESIAN_POINT('',(-42.2,29.7,28.5));
#844=CARTESIAN_POINT('',(40.3,29.7,28.5));
#845=CARTESIAN_POINT('Origin',(-42.2,29.7,24.));
#846=CARTESIAN_POINT('',(-46.7,29.7,24.));
#847=CARTESIAN_POINT('',(-46.7,29.7,24.));
#848=CARTESIAN_POINT('Origin',(-42.2,29.7,24.));
#849=CARTESIAN_POINT('Origin',(-42.2,29.3,-15.5));
#850=CARTESIAN_POINT('',(-42.2,29.1,-14.6));
#851=CARTESIAN_POINT('Origin',(-42.2,29.1,-15.5));
#852=CARTESIAN_POINT('',(-42.2,29.3,-14.4));
#853=CARTESIAN_POINT('Origin',(-42.2,29.3,-14.6));
#854=CARTESIAN_POINT('',(-43.3,29.3,-15.5));
#855=CARTESIAN_POINT('Origin',(-42.2,29.3,-15.5));
#856=CARTESIAN_POINT('Origin',(-42.2,29.3,-15.5));
#857=CARTESIAN_POINT('Origin',(-42.2,29.7,-15.5));
#858=CARTESIAN_POINT('',(-43.3,29.7,-15.5));
#859=CARTESIAN_POINT('',(-43.3,29.7,-15.5));
#860=CARTESIAN_POINT('Origin',(-42.2,29.7,-15.5));
#861=CARTESIAN_POINT('Origin',(-42.2,29.1,-15.5));
#862=CARTESIAN_POINT('Origin',(-42.2,29.3,15.5));
#863=CARTESIAN_POINT('',(-42.2,29.1,16.4));
#864=CARTESIAN_POINT('Origin',(-42.2,29.1,15.5));
#865=CARTESIAN_POINT('',(-42.2,29.3,16.6));
#866=CARTESIAN_POINT('Origin',(-42.2,29.3,16.4));
#867=CARTESIAN_POINT('',(-43.3,29.3,15.5));
#868=CARTESIAN_POINT('Origin',(-42.2,29.3,15.5));
#869=CARTESIAN_POINT('Origin',(-42.2,29.3,15.5));
#870=CARTESIAN_POINT('Origin',(-42.2,29.7,15.5));
#871=CARTESIAN_POINT('',(-43.3,29.7,15.5));
#872=CARTESIAN_POINT('',(-43.3,29.7,15.5));
#873=CARTESIAN_POINT('Origin',(-42.2,29.7,15.5));
#874=CARTESIAN_POINT('Origin',(-42.2,29.1,15.5));
#875=CARTESIAN_POINT('Origin',(35.8,29.3,15.5));
#876=CARTESIAN_POINT('',(35.8,29.1,16.4));
#877=CARTESIAN_POINT('Origin',(35.8,29.1,15.5));
#878=CARTESIAN_POINT('',(35.8,29.3,16.6));
#879=CARTESIAN_POINT('Origin',(35.8,29.3,16.4));
#880=CARTESIAN_POINT('',(34.7,29.3,15.5));
#881=CARTESIAN_POINT('Origin',(35.8,29.3,15.5));
#882=CARTESIAN_POINT('Origin',(35.8,29.3,15.5));
#883=CARTESIAN_POINT('Origin',(35.8,29.7,15.5));
#884=CARTESIAN_POINT('',(34.7,29.7,15.5));
#885=CARTESIAN_POINT('',(34.7,29.7,15.5));
#886=CARTESIAN_POINT('Origin',(35.8,29.7,15.5));
#887=CARTESIAN_POINT('Origin',(35.8,29.1,15.5));
#888=CARTESIAN_POINT('Origin',(35.8,29.3,-15.5));
#889=CARTESIAN_POINT('',(35.8,29.1,-14.6));
#890=CARTESIAN_POINT('Origin',(35.8,29.1,-15.5));
#891=CARTESIAN_POINT('',(35.8,29.3,-14.4));
#892=CARTESIAN_POINT('Origin',(35.8,29.3,-14.6));
#893=CARTESIAN_POINT('',(34.7,29.3,-15.5));
#894=CARTESIAN_POINT('Origin',(35.8,29.3,-15.5));
#895=CARTESIAN_POINT('Origin',(35.8,29.3,-15.5));
#896=CARTESIAN_POINT('Origin',(35.8,29.7,-15.5));
#897=CARTESIAN_POINT('',(34.7,29.7,-15.5));
#898=CARTESIAN_POINT('',(34.7,29.7,-15.5));
#899=CARTESIAN_POINT('Origin',(35.8,29.7,-15.5));
#900=CARTESIAN_POINT('Origin',(35.8,29.1,-15.5));
#901=CARTESIAN_POINT('Origin',(-42.2,29.7,21.));
#902=CARTESIAN_POINT('',(-43.3,29.7,21.));
#903=CARTESIAN_POINT('Origin',(-42.2,29.7,21.));
#904=CARTESIAN_POINT('',(-43.3,29.7,21.));
#905=CARTESIAN_POINT('Origin',(35.8,29.7,21.));
#906=CARTESIAN_POINT('',(34.7,29.7,21.));
#907=CARTESIAN_POINT('Origin',(35.8,29.7,21.));
#908=CARTESIAN_POINT('',(34.7,29.7,21.));
#909=CARTESIAN_POINT('Origin',(-42.2,29.7,-21.));
#910=CARTESIAN_POINT('',(-43.3,29.7,-21.));
#911=CARTESIAN_POINT('Origin',(-42.2,29.7,-21.));
#912=CARTESIAN_POINT('',(-43.3,29.7,-21.));
#913=CARTESIAN_POINT('Origin',(35.8,29.7,-21.));
#914=CARTESIAN_POINT('',(34.7,29.7,-21.));
#915=CARTESIAN_POINT('Origin',(35.8,29.7,-21.));
#916=CARTESIAN_POINT('',(34.7,29.7,-21.));
#917=CARTESIAN_POINT('Origin',(31.9,29.7,-25.1));
#918=CARTESIAN_POINT('',(31.9,29.7,-25.1));
#919=CARTESIAN_POINT('',(31.9,29.7,25.15));
#920=CARTESIAN_POINT('',(31.9,29.7,-25.1));
#921=CARTESIAN_POINT('',(31.9,29.7,25.15));
#922=CARTESIAN_POINT('',(31.9,29.7,-25.1));
#923=CARTESIAN_POINT('Origin',(-37.85,29.7,-25.1));
#924=CARTESIAN_POINT('',(-37.85,29.7,-25.1));
#925=CARTESIAN_POINT('',(-37.85,29.7,-25.1));
#926=CARTESIAN_POINT('',(-37.85,29.7,-25.1));
#927=CARTESIAN_POINT('Origin',(-37.85,29.7,25.15));
#928=CARTESIAN_POINT('',(-37.85,29.7,25.15));
#929=CARTESIAN_POINT('',(-37.85,29.7,25.15));
#930=CARTESIAN_POINT('',(-37.85,29.7,25.15));
#931=CARTESIAN_POINT('Origin',(31.9,29.7,25.15));
#932=CARTESIAN_POINT('',(31.9,29.7,25.15));
#933=CARTESIAN_POINT('Origin',(-46.7,29.7,-28.5));
#934=CARTESIAN_POINT('',(-46.7,29.7,28.5));
#935=CARTESIAN_POINT('Origin',(-3.2,29.7,4.44089209850063E-15));
#936=UNCERTAINTY_MEASURE_WITH_UNIT(LENGTH_MEASURE(0.01),#940,
'DISTANCE_ACCURACY_VALUE',
'Maximum model space distance between geometric entities at asserted c
onnectivities');
#937=UNCERTAINTY_MEASURE_WITH_UNIT(LENGTH_MEASURE(0.01),#940,
'DISTANCE_ACCURACY_VALUE',
'Maximum model space distance between geometric entities at asserted c
onnectivities');
#938=(
GEOMETRIC_REPRESENTATION_CONTEXT(3)
GLOBAL_UNCERTAINTY_ASSIGNED_CONTEXT((#936))
GLOBAL_UNIT_ASSIGNED_CONTEXT((#940,#942,#943))
REPRESENTATION_CONTEXT('','3D')
);
#939=(
GEOMETRIC_REPRESENTATION_CONTEXT(3)
GLOBAL_UNCERTAINTY_ASSIGNED_CONTEXT((#937))
GLOBAL_UNIT_ASSIGNED_CONTEXT((#940,#942,#943))
REPRESENTATION_CONTEXT('','3D')
);
#940=(
LENGTH_UNIT()
NAMED_UNIT(*)
SI_UNIT(.MILLI.,.METRE.)
);
#941=(
LENGTH_UNIT()
NAMED_UNIT(*)
SI_UNIT($,.METRE.)
);
#942=(
NAMED_UNIT(*)
PLANE_ANGLE_UNIT()
SI_UNIT($,.RADIAN.)
);
#943=(
NAMED_UNIT(*)
SI_UNIT($,.STERADIAN.)
SOLID_ANGLE_UNIT()
);
#944=SHAPE_DEFINITION_REPRESENTATION(#945,#946);
#945=PRODUCT_DEFINITION_SHAPE('',$,#948);
#946=SHAPE_REPRESENTATION('',(#548),#938);
#947=PRODUCT_DEFINITION_CONTEXT('part definition',#952,'design');
#948=PRODUCT_DEFINITION('boite_esp32_lcd','boite_esp32_lcd v14',#949,#947);
#949=PRODUCT_DEFINITION_FORMATION('',$,#954);
#950=PRODUCT_RELATED_PRODUCT_CATEGORY('boite_esp32_lcd v14',
'boite_esp32_lcd v14',(#954));
#951=APPLICATION_PROTOCOL_DEFINITION('international standard',
'automotive_design',2009,#952);
#952=APPLICATION_CONTEXT(
'Core Data for Automotive Mechanical Design Process');
#953=PRODUCT_CONTEXT('part definition',#952,'mechanical');
#954=PRODUCT('boite_esp32_lcd','boite_esp32_lcd v14',$,(#953));
#955=PRESENTATION_STYLE_ASSIGNMENT((#956));
#956=SURFACE_STYLE_USAGE(.BOTH.,#957);
#957=SURFACE_SIDE_STYLE('',(#958));
#958=SURFACE_STYLE_FILL_AREA(#959);
#959=FILL_AREA_STYLE('Acier - Satin\X\E9',(#960));
#960=FILL_AREA_STYLE_COLOUR('Acier - Satin\X\E9',#961);
#961=COLOUR_RGB('Acier - Satin\X\E9',0.627450980392157,0.627450980392157,
0.627450980392157);
ENDSEC;
END-ISO-10303-21;
