ISO-10303-21;
HEADER;
/* Generated by software containing ST-Developer
 * from STEP Tools, Inc. (www.steptools.com) 
 */

FILE_DESCRIPTION(
/* description */ (''),
/* implementation_level */ '2;1');

FILE_NAME(
/* name */ 'butee_portail.step',
/* time_stamp */ '2025-10-20T15:35:47+02:00',
/* author */ (''),
/* organization */ (''),
/* preprocessor_version */ 'ST-DEVELOPER v20.1',
/* originating_system */ 'Autodesk Translation Framework v14.17.0.0',
/* authorisation */ '');

FILE_SCHEMA (('AUTOMOTIVE_DESIGN { 1 0 10303 214 3 1 1 }'));
ENDSEC;

DATA;
#10=MECHANICAL_DESIGN_GEOMETRIC_PRESENTATION_REPRESENTATION('',(#15,#16),
#1054);
#11=SHAPE_REPRESENTATION_RELATIONSHIP('SRR','None',#1061,#12);
#12=ADVANCED_BREP_SHAPE_REPRESENTATION('',(#17,#18),#1053);
#13=FACE_BOUND('',#220,.T.);
#14=FACE_BOUND('',#228,.T.);
#15=STYLED_ITEM('',(#1070),#17);
#16=STYLED_ITEM('',(#1070),#18);
#17=MANIFOLD_SOLID_BREP('Corps1',#605);
#18=MANIFOLD_SOLID_BREP('Corps2',#606);
#19=PLANE('',#648);
#20=PLANE('',#649);
#21=PLANE('',#650);
#22=PLANE('',#651);
#23=PLANE('',#652);
#24=PLANE('',#653);
#25=PLANE('',#657);
#26=PLANE('',#661);
#27=PLANE('',#665);
#28=PLANE('',#669);
#29=PLANE('',#673);
#30=PLANE('',#674);
#31=PLANE('',#680);
#32=PLANE('',#683);
#33=PLANE('',#686);
#34=PLANE('',#687);
#35=LINE('',#901,#87);
#36=LINE('',#902,#88);
#37=LINE('',#911,#89);
#38=LINE('',#912,#90);
#39=LINE('',#917,#91);
#40=LINE('',#918,#92);
#41=LINE('',#920,#93);
#42=LINE('',#921,#94);
#43=LINE('',#926,#95);
#44=LINE('',#927,#96);
#45=LINE('',#929,#97);
#46=LINE('',#930,#98);
#47=LINE('',#935,#99);
#48=LINE('',#936,#100);
#49=LINE('',#941,#101);
#50=LINE('',#942,#102);
#51=LINE('',#944,#103);
#52=LINE('',#946,#104);
#53=LINE('',#947,#105);
#54=LINE('',#948,#106);
#55=LINE('',#958,#107);
#56=LINE('',#961,#108);
#57=LINE('',#964,#109);
#58=LINE('',#966,#110);
#59=LINE('',#967,#111);
#60=LINE('',#972,#112);
#61=LINE('',#976,#113);
#62=LINE('',#978,#114);
#63=LINE('',#979,#115);
#64=LINE('',#984,#116);
#65=LINE('',#988,#117);
#66=LINE('',#990,#118);
#67=LINE('',#991,#119);
#68=LINE('',#996,#120);
#69=LINE('',#999,#121);
#70=LINE('',#1000,#122);
#71=LINE('',#1006,#123);
#72=LINE('',#1009,#124);
#73=LINE('',#1012,#125);
#74=LINE('',#1014,#126);
#75=LINE('',#1015,#127);
#76=LINE('',#1018,#128);
#77=LINE('',#1022,#129);
#78=LINE('',#1026,#130);
#79=LINE('',#1031,#131);
#80=LINE('',#1034,#132);
#81=LINE('',#1035,#133);
#82=LINE('',#1039,#134);
#83=LINE('',#1042,#135);
#84=LINE('',#1043,#136);
#85=LINE('',#1047,#137);
#86=LINE('',#1049,#138);
#87=VECTOR('',#716,10.);
#88=VECTOR('',#717,10.);
#89=VECTOR('',#728,10.);
#90=VECTOR('',#729,10.);
#91=VECTOR('',#734,10.);
#92=VECTOR('',#735,10.);
#93=VECTOR('',#738,10.);
#94=VECTOR('',#739,10.);
#95=VECTOR('',#744,10.);
#96=VECTOR('',#745,10.);
#97=VECTOR('',#748,10.);
#98=VECTOR('',#749,10.);
#99=VECTOR('',#754,10.);
#100=VECTOR('',#755,10.);
#101=VECTOR('',#760,10.);
#102=VECTOR('',#761,10.);
#103=VECTOR('',#764,10.);
#104=VECTOR('',#767,10.);
#105=VECTOR('',#768,10.);
#106=VECTOR('',#769,10.);
#107=VECTOR('',#782,10.);
#108=VECTOR('',#785,10.);
#109=VECTOR('',#788,10.);
#110=VECTOR('',#789,10.);
#111=VECTOR('',#790,10.);
#112=VECTOR('',#795,10.);
#113=VECTOR('',#800,10.);
#114=VECTOR('',#801,10.);
#115=VECTOR('',#802,10.);
#116=VECTOR('',#807,10.);
#117=VECTOR('',#812,10.);
#118=VECTOR('',#813,10.);
#119=VECTOR('',#814,10.);
#120=VECTOR('',#819,10.);
#121=VECTOR('',#824,10.);
#122=VECTOR('',#825,10.);
#123=VECTOR('',#830,10.);
#124=VECTOR('',#833,10.);
#125=VECTOR('',#836,10.);
#126=VECTOR('',#837,10.);
#127=VECTOR('',#838,10.);
#128=VECTOR('',#841,10.);
#129=VECTOR('',#844,10.);
#130=VECTOR('',#847,10.);
#131=VECTOR('',#854,10.);
#132=VECTOR('',#857,10.);
#133=VECTOR('',#858,10.);
#134=VECTOR('',#863,10.);
#135=VECTOR('',#866,10.);
#136=VECTOR('',#867,10.);
#137=VECTOR('',#872,10.);
#138=VECTOR('',#875,10.);
#139=CYLINDRICAL_SURFACE('',#632,1.5);
#140=CYLINDRICAL_SURFACE('',#637,1.5);
#141=CYLINDRICAL_SURFACE('',#638,1.5);
#142=CYLINDRICAL_SURFACE('',#640,1.5);
#143=CYLINDRICAL_SURFACE('',#641,1.5);
#144=CYLINDRICAL_SURFACE('',#643,1.5);
#145=CYLINDRICAL_SURFACE('',#644,1.5);
#146=CYLINDRICAL_SURFACE('',#646,1.5);
#147=CYLINDRICAL_SURFACE('',#654,1.5);
#148=CYLINDRICAL_SURFACE('',#658,1.5);
#149=CYLINDRICAL_SURFACE('',#662,1.5);
#150=CYLINDRICAL_SURFACE('',#666,1.5);
#151=CYLINDRICAL_SURFACE('',#670,1.5);
#152=CYLINDRICAL_SURFACE('',#678,1.5);
#153=CYLINDRICAL_SURFACE('',#681,1.5);
#154=CYLINDRICAL_SURFACE('',#684,1.5);
#155=FACE_OUTER_BOUND('',#191,.T.);
#156=FACE_OUTER_BOUND('',#192,.T.);
#157=FACE_OUTER_BOUND('',#193,.T.);
#158=FACE_OUTER_BOUND('',#194,.T.);
#159=FACE_OUTER_BOUND('',#195,.T.);
#160=FACE_OUTER_BOUND('',#196,.T.);
#161=FACE_OUTER_BOUND('',#197,.T.);
#162=FACE_OUTER_BOUND('',#198,.T.);
#163=FACE_OUTER_BOUND('',#199,.T.);
#164=FACE_OUTER_BOUND('',#200,.T.);
#165=FACE_OUTER_BOUND('',#201,.T.);
#166=FACE_OUTER_BOUND('',#202,.T.);
#167=FACE_OUTER_BOUND('',#203,.T.);
#168=FACE_OUTER_BOUND('',#204,.T.);
#169=FACE_OUTER_BOUND('',#205,.T.);
#170=FACE_OUTER_BOUND('',#206,.T.);
#171=FACE_OUTER_BOUND('',#207,.T.);
#172=FACE_OUTER_BOUND('',#208,.T.);
#173=FACE_OUTER_BOUND('',#209,.T.);
#174=FACE_OUTER_BOUND('',#210,.T.);
#175=FACE_OUTER_BOUND('',#211,.T.);
#176=FACE_OUTER_BOUND('',#212,.T.);
#177=FACE_OUTER_BOUND('',#213,.T.);
#178=FACE_OUTER_BOUND('',#214,.T.);
#179=FACE_OUTER_BOUND('',#215,.T.);
#180=FACE_OUTER_BOUND('',#216,.T.);
#181=FACE_OUTER_BOUND('',#217,.T.);
#182=FACE_OUTER_BOUND('',#218,.T.);
#183=FACE_OUTER_BOUND('',#219,.T.);
#184=FACE_OUTER_BOUND('',#221,.T.);
#185=FACE_OUTER_BOUND('',#222,.T.);
#186=FACE_OUTER_BOUND('',#223,.T.);
#187=FACE_OUTER_BOUND('',#224,.T.);
#188=FACE_OUTER_BOUND('',#225,.T.);
#189=FACE_OUTER_BOUND('',#226,.T.);
#190=FACE_OUTER_BOUND('',#227,.T.);
#191=EDGE_LOOP('',(#397,#398,#399));
#192=EDGE_LOOP('',(#400,#401,#402));
#193=EDGE_LOOP('',(#403,#404,#405));
#194=EDGE_LOOP('',(#406,#407,#408,#409));
#195=EDGE_LOOP('',(#410,#411,#412));
#196=EDGE_LOOP('',(#413,#414,#415,#416));
#197=EDGE_LOOP('',(#417,#418,#419,#420));
#198=EDGE_LOOP('',(#421,#422,#423,#424));
#199=EDGE_LOOP('',(#425,#426,#427,#428));
#200=EDGE_LOOP('',(#429,#430,#431,#432));
#201=EDGE_LOOP('',(#433,#434,#435,#436));
#202=EDGE_LOOP('',(#437,#438,#439,#440));
#203=EDGE_LOOP('',(#441,#442,#443,#444));
#204=EDGE_LOOP('',(#445,#446,#447,#448,#449,#450,#451,#452));
#205=EDGE_LOOP('',(#453,#454,#455,#456));
#206=EDGE_LOOP('',(#457,#458,#459,#460));
#207=EDGE_LOOP('',(#461,#462,#463,#464));
#208=EDGE_LOOP('',(#465,#466,#467,#468));
#209=EDGE_LOOP('',(#469,#470,#471,#472));
#210=EDGE_LOOP('',(#473,#474,#475,#476));
#211=EDGE_LOOP('',(#477,#478,#479,#480));
#212=EDGE_LOOP('',(#481,#482,#483,#484));
#213=EDGE_LOOP('',(#485,#486,#487,#488));
#214=EDGE_LOOP('',(#489,#490,#491,#492));
#215=EDGE_LOOP('',(#493,#494,#495,#496));
#216=EDGE_LOOP('',(#497,#498,#499,#500));
#217=EDGE_LOOP('',(#501,#502,#503,#504));
#218=EDGE_LOOP('',(#505,#506,#507,#508));
#219=EDGE_LOOP('',(#509,#510,#511,#512,#513,#514,#515,#516));
#220=EDGE_LOOP('',(#517,#518,#519,#520,#521,#522,#523,#524));
#221=EDGE_LOOP('',(#525,#526,#527,#528));
#222=EDGE_LOOP('',(#529,#530,#531,#532));
#223=EDGE_LOOP('',(#533,#534,#535,#536));
#224=EDGE_LOOP('',(#537,#538,#539,#540));
#225=EDGE_LOOP('',(#541,#542,#543,#544));
#226=EDGE_LOOP('',(#545,#546,#547,#548));
#227=EDGE_LOOP('',(#549,#550,#551,#552,#553,#554,#555,#556));
#228=EDGE_LOOP('',(#557,#558,#559,#560,#561,#562,#563,#564));
#229=CIRCLE('',#621,1.5);
#230=CIRCLE('',#622,1.5);
#231=CIRCLE('',#623,1.5);
#232=CIRCLE('',#625,1.5);
#233=CIRCLE('',#626,1.5);
#234=CIRCLE('',#627,1.5);
#235=CIRCLE('',#629,1.5);
#236=CIRCLE('',#630,1.5);
#237=CIRCLE('',#631,1.5);
#238=CIRCLE('',#634,1.5);
#239=CIRCLE('',#635,1.5);
#240=CIRCLE('',#636,1.5);
#241=CIRCLE('',#639,1.5);
#242=CIRCLE('',#642,1.5);
#243=CIRCLE('',#645,1.5);
#244=CIRCLE('',#647,1.5);
#245=CIRCLE('',#655,1.5);
#246=CIRCLE('',#656,1.5);
#247=CIRCLE('',#659,1.5);
#248=CIRCLE('',#660,1.5);
#249=CIRCLE('',#663,1.5);
#250=CIRCLE('',#664,1.5);
#251=CIRCLE('',#667,1.5);
#252=CIRCLE('',#668,1.5);
#253=CIRCLE('',#671,1.5);
#254=CIRCLE('',#672,1.5);
#255=CIRCLE('',#675,1.5);
#256=CIRCLE('',#676,1.5);
#257=CIRCLE('',#677,1.5);
#258=CIRCLE('',#679,1.5);
#259=CIRCLE('',#682,1.5);
#260=CIRCLE('',#685,1.5);
#261=VERTEX_POINT('',#880);
#262=VERTEX_POINT('',#881);
#263=VERTEX_POINT('',#883);
#264=VERTEX_POINT('',#887);
#265=VERTEX_POINT('',#888);
#266=VERTEX_POINT('',#890);
#267=VERTEX_POINT('',#894);
#268=VERTEX_POINT('',#895);
#269=VERTEX_POINT('',#897);
#270=VERTEX_POINT('',#904);
#271=VERTEX_POINT('',#905);
#272=VERTEX_POINT('',#907);
#273=VERTEX_POINT('',#914);
#274=VERTEX_POINT('',#915);
#275=VERTEX_POINT('',#923);
#276=VERTEX_POINT('',#924);
#277=VERTEX_POINT('',#932);
#278=VERTEX_POINT('',#933);
#279=VERTEX_POINT('',#938);
#280=VERTEX_POINT('',#939);
#281=VERTEX_POINT('',#954);
#282=VERTEX_POINT('',#955);
#283=VERTEX_POINT('',#957);
#284=VERTEX_POINT('',#959);
#285=VERTEX_POINT('',#963);
#286=VERTEX_POINT('',#965);
#287=VERTEX_POINT('',#969);
#288=VERTEX_POINT('',#971);
#289=VERTEX_POINT('',#975);
#290=VERTEX_POINT('',#977);
#291=VERTEX_POINT('',#981);
#292=VERTEX_POINT('',#983);
#293=VERTEX_POINT('',#987);
#294=VERTEX_POINT('',#989);
#295=VERTEX_POINT('',#993);
#296=VERTEX_POINT('',#995);
#297=VERTEX_POINT('',#1002);
#298=VERTEX_POINT('',#1003);
#299=VERTEX_POINT('',#1005);
#300=VERTEX_POINT('',#1007);
#301=VERTEX_POINT('',#1011);
#302=VERTEX_POINT('',#1013);
#303=VERTEX_POINT('',#1017);
#304=VERTEX_POINT('',#1019);
#305=VERTEX_POINT('',#1021);
#306=VERTEX_POINT('',#1023);
#307=VERTEX_POINT('',#1025);
#308=VERTEX_POINT('',#1029);
#309=VERTEX_POINT('',#1033);
#310=VERTEX_POINT('',#1037);
#311=VERTEX_POINT('',#1041);
#312=VERTEX_POINT('',#1045);
#313=EDGE_CURVE('',#261,#262,#229,.F.);
#314=EDGE_CURVE('',#263,#261,#230,.F.);
#315=EDGE_CURVE('',#262,#263,#231,.F.);
#316=EDGE_CURVE('',#264,#265,#232,.F.);
#317=EDGE_CURVE('',#266,#264,#233,.F.);
#318=EDGE_CURVE('',#265,#266,#234,.F.);
#319=EDGE_CURVE('',#267,#268,#235,.F.);
#320=EDGE_CURVE('',#269,#267,#236,.F.);
#321=EDGE_CURVE('',#268,#269,#237,.F.);
#322=EDGE_CURVE('',#263,#269,#35,.T.);
#323=EDGE_CURVE('',#267,#262,#36,.T.);
#324=EDGE_CURVE('',#270,#271,#238,.F.);
#325=EDGE_CURVE('',#272,#270,#239,.F.);
#326=EDGE_CURVE('',#271,#272,#240,.F.);
#327=EDGE_CURVE('',#270,#266,#37,.T.);
#328=EDGE_CURVE('',#264,#272,#38,.T.);
#329=EDGE_CURVE('',#273,#274,#241,.T.);
#330=EDGE_CURVE('',#274,#271,#39,.T.);
#331=EDGE_CURVE('',#272,#273,#40,.T.);
#332=EDGE_CURVE('',#269,#270,#41,.T.);
#333=EDGE_CURVE('',#271,#268,#42,.T.);
#334=EDGE_CURVE('',#275,#276,#242,.T.);
#335=EDGE_CURVE('',#276,#267,#43,.T.);
#336=EDGE_CURVE('',#268,#275,#44,.T.);
#337=EDGE_CURVE('',#266,#263,#45,.T.);
#338=EDGE_CURVE('',#261,#265,#46,.T.);
#339=EDGE_CURVE('',#277,#278,#243,.T.);
#340=EDGE_CURVE('',#278,#264,#47,.T.);
#341=EDGE_CURVE('',#265,#277,#48,.T.);
#342=EDGE_CURVE('',#279,#280,#244,.T.);
#343=EDGE_CURVE('',#280,#261,#49,.T.);
#344=EDGE_CURVE('',#262,#279,#50,.T.);
#345=EDGE_CURVE('',#273,#278,#51,.T.);
#346=EDGE_CURVE('',#277,#280,#52,.T.);
#347=EDGE_CURVE('',#279,#276,#53,.T.);
#348=EDGE_CURVE('',#275,#274,#54,.T.);
#349=EDGE_CURVE('',#281,#282,#245,.T.);
#350=EDGE_CURVE('',#282,#283,#55,.T.);
#351=EDGE_CURVE('',#283,#284,#246,.T.);
#352=EDGE_CURVE('',#284,#281,#56,.T.);
#353=EDGE_CURVE('',#282,#285,#57,.T.);
#354=EDGE_CURVE('',#286,#285,#58,.T.);
#355=EDGE_CURVE('',#283,#286,#59,.T.);
#356=EDGE_CURVE('',#285,#287,#247,.T.);
#357=EDGE_CURVE('',#287,#288,#60,.T.);
#358=EDGE_CURVE('',#288,#286,#248,.T.);
#359=EDGE_CURVE('',#287,#289,#61,.T.);
#360=EDGE_CURVE('',#290,#289,#62,.T.);
#361=EDGE_CURVE('',#288,#290,#63,.T.);
#362=EDGE_CURVE('',#289,#291,#249,.T.);
#363=EDGE_CURVE('',#291,#292,#64,.T.);
#364=EDGE_CURVE('',#292,#290,#250,.T.);
#365=EDGE_CURVE('',#291,#293,#65,.T.);
#366=EDGE_CURVE('',#294,#293,#66,.T.);
#367=EDGE_CURVE('',#292,#294,#67,.T.);
#368=EDGE_CURVE('',#293,#295,#251,.T.);
#369=EDGE_CURVE('',#295,#296,#68,.T.);
#370=EDGE_CURVE('',#296,#294,#252,.T.);
#371=EDGE_CURVE('',#296,#284,#69,.T.);
#372=EDGE_CURVE('',#295,#281,#70,.T.);
#373=EDGE_CURVE('',#297,#298,#253,.T.);
#374=EDGE_CURVE('',#298,#299,#71,.T.);
#375=EDGE_CURVE('',#299,#300,#254,.T.);
#376=EDGE_CURVE('',#300,#297,#72,.T.);
#377=EDGE_CURVE('',#301,#300,#73,.T.);
#378=EDGE_CURVE('',#302,#301,#74,.T.);
#379=EDGE_CURVE('',#297,#302,#75,.T.);
#380=EDGE_CURVE('',#299,#303,#76,.T.);
#381=EDGE_CURVE('',#304,#303,#255,.T.);
#382=EDGE_CURVE('',#304,#305,#77,.T.);
#383=EDGE_CURVE('',#306,#305,#256,.T.);
#384=EDGE_CURVE('',#306,#307,#78,.T.);
#385=EDGE_CURVE('',#301,#307,#257,.T.);
#386=EDGE_CURVE('',#308,#302,#258,.T.);
#387=EDGE_CURVE('',#307,#308,#79,.T.);
#388=EDGE_CURVE('',#309,#306,#80,.T.);
#389=EDGE_CURVE('',#308,#309,#81,.T.);
#390=EDGE_CURVE('',#310,#309,#259,.T.);
#391=EDGE_CURVE('',#305,#310,#82,.T.);
#392=EDGE_CURVE('',#311,#304,#83,.T.);
#393=EDGE_CURVE('',#310,#311,#84,.T.);
#394=EDGE_CURVE('',#312,#311,#260,.T.);
#395=EDGE_CURVE('',#303,#312,#85,.T.);
#396=EDGE_CURVE('',#312,#298,#86,.T.);
#397=ORIENTED_EDGE('',*,*,#313,.F.);
#398=ORIENTED_EDGE('',*,*,#314,.F.);
#399=ORIENTED_EDGE('',*,*,#315,.F.);
#400=ORIENTED_EDGE('',*,*,#316,.F.);
#401=ORIENTED_EDGE('',*,*,#317,.F.);
#402=ORIENTED_EDGE('',*,*,#318,.F.);
#403=ORIENTED_EDGE('',*,*,#319,.F.);
#404=ORIENTED_EDGE('',*,*,#320,.F.);
#405=ORIENTED_EDGE('',*,*,#321,.F.);
#406=ORIENTED_EDGE('',*,*,#315,.T.);
#407=ORIENTED_EDGE('',*,*,#322,.T.);
#408=ORIENTED_EDGE('',*,*,#320,.T.);
#409=ORIENTED_EDGE('',*,*,#323,.T.);
#410=ORIENTED_EDGE('',*,*,#324,.F.);
#411=ORIENTED_EDGE('',*,*,#325,.F.);
#412=ORIENTED_EDGE('',*,*,#326,.F.);
#413=ORIENTED_EDGE('',*,*,#325,.T.);
#414=ORIENTED_EDGE('',*,*,#327,.T.);
#415=ORIENTED_EDGE('',*,*,#317,.T.);
#416=ORIENTED_EDGE('',*,*,#328,.T.);
#417=ORIENTED_EDGE('',*,*,#329,.T.);
#418=ORIENTED_EDGE('',*,*,#330,.T.);
#419=ORIENTED_EDGE('',*,*,#326,.T.);
#420=ORIENTED_EDGE('',*,*,#331,.T.);
#421=ORIENTED_EDGE('',*,*,#321,.T.);
#422=ORIENTED_EDGE('',*,*,#332,.T.);
#423=ORIENTED_EDGE('',*,*,#324,.T.);
#424=ORIENTED_EDGE('',*,*,#333,.T.);
#425=ORIENTED_EDGE('',*,*,#334,.T.);
#426=ORIENTED_EDGE('',*,*,#335,.T.);
#427=ORIENTED_EDGE('',*,*,#319,.T.);
#428=ORIENTED_EDGE('',*,*,#336,.T.);
#429=ORIENTED_EDGE('',*,*,#318,.T.);
#430=ORIENTED_EDGE('',*,*,#337,.T.);
#431=ORIENTED_EDGE('',*,*,#314,.T.);
#432=ORIENTED_EDGE('',*,*,#338,.T.);
#433=ORIENTED_EDGE('',*,*,#339,.T.);
#434=ORIENTED_EDGE('',*,*,#340,.T.);
#435=ORIENTED_EDGE('',*,*,#316,.T.);
#436=ORIENTED_EDGE('',*,*,#341,.T.);
#437=ORIENTED_EDGE('',*,*,#342,.T.);
#438=ORIENTED_EDGE('',*,*,#343,.T.);
#439=ORIENTED_EDGE('',*,*,#313,.T.);
#440=ORIENTED_EDGE('',*,*,#344,.T.);
#441=ORIENTED_EDGE('',*,*,#331,.F.);
#442=ORIENTED_EDGE('',*,*,#328,.F.);
#443=ORIENTED_EDGE('',*,*,#340,.F.);
#444=ORIENTED_EDGE('',*,*,#345,.F.);
#445=ORIENTED_EDGE('',*,*,#329,.F.);
#446=ORIENTED_EDGE('',*,*,#345,.T.);
#447=ORIENTED_EDGE('',*,*,#339,.F.);
#448=ORIENTED_EDGE('',*,*,#346,.T.);
#449=ORIENTED_EDGE('',*,*,#342,.F.);
#450=ORIENTED_EDGE('',*,*,#347,.T.);
#451=ORIENTED_EDGE('',*,*,#334,.F.);
#452=ORIENTED_EDGE('',*,*,#348,.T.);
#453=ORIENTED_EDGE('',*,*,#341,.F.);
#454=ORIENTED_EDGE('',*,*,#338,.F.);
#455=ORIENTED_EDGE('',*,*,#343,.F.);
#456=ORIENTED_EDGE('',*,*,#346,.F.);
#457=ORIENTED_EDGE('',*,*,#327,.F.);
#458=ORIENTED_EDGE('',*,*,#332,.F.);
#459=ORIENTED_EDGE('',*,*,#322,.F.);
#460=ORIENTED_EDGE('',*,*,#337,.F.);
#461=ORIENTED_EDGE('',*,*,#330,.F.);
#462=ORIENTED_EDGE('',*,*,#348,.F.);
#463=ORIENTED_EDGE('',*,*,#336,.F.);
#464=ORIENTED_EDGE('',*,*,#333,.F.);
#465=ORIENTED_EDGE('',*,*,#335,.F.);
#466=ORIENTED_EDGE('',*,*,#347,.F.);
#467=ORIENTED_EDGE('',*,*,#344,.F.);
#468=ORIENTED_EDGE('',*,*,#323,.F.);
#469=ORIENTED_EDGE('',*,*,#349,.T.);
#470=ORIENTED_EDGE('',*,*,#350,.T.);
#471=ORIENTED_EDGE('',*,*,#351,.T.);
#472=ORIENTED_EDGE('',*,*,#352,.T.);
#473=ORIENTED_EDGE('',*,*,#350,.F.);
#474=ORIENTED_EDGE('',*,*,#353,.T.);
#475=ORIENTED_EDGE('',*,*,#354,.F.);
#476=ORIENTED_EDGE('',*,*,#355,.F.);
#477=ORIENTED_EDGE('',*,*,#356,.T.);
#478=ORIENTED_EDGE('',*,*,#357,.T.);
#479=ORIENTED_EDGE('',*,*,#358,.T.);
#480=ORIENTED_EDGE('',*,*,#354,.T.);
#481=ORIENTED_EDGE('',*,*,#357,.F.);
#482=ORIENTED_EDGE('',*,*,#359,.T.);
#483=ORIENTED_EDGE('',*,*,#360,.F.);
#484=ORIENTED_EDGE('',*,*,#361,.F.);
#485=ORIENTED_EDGE('',*,*,#362,.T.);
#486=ORIENTED_EDGE('',*,*,#363,.T.);
#487=ORIENTED_EDGE('',*,*,#364,.T.);
#488=ORIENTED_EDGE('',*,*,#360,.T.);
#489=ORIENTED_EDGE('',*,*,#363,.F.);
#490=ORIENTED_EDGE('',*,*,#365,.T.);
#491=ORIENTED_EDGE('',*,*,#366,.F.);
#492=ORIENTED_EDGE('',*,*,#367,.F.);
#493=ORIENTED_EDGE('',*,*,#368,.T.);
#494=ORIENTED_EDGE('',*,*,#369,.T.);
#495=ORIENTED_EDGE('',*,*,#370,.T.);
#496=ORIENTED_EDGE('',*,*,#366,.T.);
#497=ORIENTED_EDGE('',*,*,#352,.F.);
#498=ORIENTED_EDGE('',*,*,#371,.F.);
#499=ORIENTED_EDGE('',*,*,#369,.F.);
#500=ORIENTED_EDGE('',*,*,#372,.T.);
#501=ORIENTED_EDGE('',*,*,#373,.T.);
#502=ORIENTED_EDGE('',*,*,#374,.T.);
#503=ORIENTED_EDGE('',*,*,#375,.T.);
#504=ORIENTED_EDGE('',*,*,#376,.T.);
#505=ORIENTED_EDGE('',*,*,#376,.F.);
#506=ORIENTED_EDGE('',*,*,#377,.F.);
#507=ORIENTED_EDGE('',*,*,#378,.F.);
#508=ORIENTED_EDGE('',*,*,#379,.F.);
#509=ORIENTED_EDGE('',*,*,#375,.F.);
#510=ORIENTED_EDGE('',*,*,#380,.T.);
#511=ORIENTED_EDGE('',*,*,#381,.F.);
#512=ORIENTED_EDGE('',*,*,#382,.T.);
#513=ORIENTED_EDGE('',*,*,#383,.F.);
#514=ORIENTED_EDGE('',*,*,#384,.T.);
#515=ORIENTED_EDGE('',*,*,#385,.F.);
#516=ORIENTED_EDGE('',*,*,#377,.T.);
#517=ORIENTED_EDGE('',*,*,#368,.F.);
#518=ORIENTED_EDGE('',*,*,#365,.F.);
#519=ORIENTED_EDGE('',*,*,#362,.F.);
#520=ORIENTED_EDGE('',*,*,#359,.F.);
#521=ORIENTED_EDGE('',*,*,#356,.F.);
#522=ORIENTED_EDGE('',*,*,#353,.F.);
#523=ORIENTED_EDGE('',*,*,#349,.F.);
#524=ORIENTED_EDGE('',*,*,#372,.F.);
#525=ORIENTED_EDGE('',*,*,#386,.T.);
#526=ORIENTED_EDGE('',*,*,#378,.T.);
#527=ORIENTED_EDGE('',*,*,#385,.T.);
#528=ORIENTED_EDGE('',*,*,#387,.T.);
#529=ORIENTED_EDGE('',*,*,#387,.F.);
#530=ORIENTED_EDGE('',*,*,#384,.F.);
#531=ORIENTED_EDGE('',*,*,#388,.F.);
#532=ORIENTED_EDGE('',*,*,#389,.F.);
#533=ORIENTED_EDGE('',*,*,#390,.T.);
#534=ORIENTED_EDGE('',*,*,#388,.T.);
#535=ORIENTED_EDGE('',*,*,#383,.T.);
#536=ORIENTED_EDGE('',*,*,#391,.T.);
#537=ORIENTED_EDGE('',*,*,#391,.F.);
#538=ORIENTED_EDGE('',*,*,#382,.F.);
#539=ORIENTED_EDGE('',*,*,#392,.F.);
#540=ORIENTED_EDGE('',*,*,#393,.F.);
#541=ORIENTED_EDGE('',*,*,#394,.T.);
#542=ORIENTED_EDGE('',*,*,#392,.T.);
#543=ORIENTED_EDGE('',*,*,#381,.T.);
#544=ORIENTED_EDGE('',*,*,#395,.T.);
#545=ORIENTED_EDGE('',*,*,#374,.F.);
#546=ORIENTED_EDGE('',*,*,#396,.F.);
#547=ORIENTED_EDGE('',*,*,#395,.F.);
#548=ORIENTED_EDGE('',*,*,#380,.F.);
#549=ORIENTED_EDGE('',*,*,#373,.F.);
#550=ORIENTED_EDGE('',*,*,#379,.T.);
#551=ORIENTED_EDGE('',*,*,#386,.F.);
#552=ORIENTED_EDGE('',*,*,#389,.T.);
#553=ORIENTED_EDGE('',*,*,#390,.F.);
#554=ORIENTED_EDGE('',*,*,#393,.T.);
#555=ORIENTED_EDGE('',*,*,#394,.F.);
#556=ORIENTED_EDGE('',*,*,#396,.T.);
#557=ORIENTED_EDGE('',*,*,#371,.T.);
#558=ORIENTED_EDGE('',*,*,#351,.F.);
#559=ORIENTED_EDGE('',*,*,#355,.T.);
#560=ORIENTED_EDGE('',*,*,#358,.F.);
#561=ORIENTED_EDGE('',*,*,#361,.T.);
#562=ORIENTED_EDGE('',*,*,#364,.F.);
#563=ORIENTED_EDGE('',*,*,#367,.T.);
#564=ORIENTED_EDGE('',*,*,#370,.F.);
#565=SPHERICAL_SURFACE('',#620,1.5);
#566=SPHERICAL_SURFACE('',#624,1.5);
#567=SPHERICAL_SURFACE('',#628,1.5);
#568=SPHERICAL_SURFACE('',#633,1.5);
#569=ADVANCED_FACE('',(#155),#565,.T.);
#570=ADVANCED_FACE('',(#156),#566,.T.);
#571=ADVANCED_FACE('',(#157),#567,.T.);
#572=ADVANCED_FACE('',(#158),#139,.T.);
#573=ADVANCED_FACE('',(#159),#568,.T.);
#574=ADVANCED_FACE('',(#160),#140,.T.);
#575=ADVANCED_FACE('',(#161),#141,.T.);
#576=ADVANCED_FACE('',(#162),#142,.T.);
#577=ADVANCED_FACE('',(#163),#143,.T.);
#578=ADVANCED_FACE('',(#164),#144,.T.);
#579=ADVANCED_FACE('',(#165),#145,.T.);
#580=ADVANCED_FACE('',(#166),#146,.T.);
#581=ADVANCED_FACE('',(#167),#19,.T.);
#582=ADVANCED_FACE('',(#168),#20,.T.);
#583=ADVANCED_FACE('',(#169),#21,.T.);
#584=ADVANCED_FACE('',(#170),#22,.F.);
#585=ADVANCED_FACE('',(#171),#23,.T.);
#586=ADVANCED_FACE('',(#172),#24,.T.);
#587=ADVANCED_FACE('',(#173),#147,.F.);
#588=ADVANCED_FACE('',(#174),#25,.T.);
#589=ADVANCED_FACE('',(#175),#148,.F.);
#590=ADVANCED_FACE('',(#176),#26,.T.);
#591=ADVANCED_FACE('',(#177),#149,.F.);
#592=ADVANCED_FACE('',(#178),#27,.T.);
#593=ADVANCED_FACE('',(#179),#150,.F.);
#594=ADVANCED_FACE('',(#180),#28,.T.);
#595=ADVANCED_FACE('',(#181),#151,.T.);
#596=ADVANCED_FACE('',(#182),#29,.T.);
#597=ADVANCED_FACE('',(#183,#13),#30,.F.);
#598=ADVANCED_FACE('',(#184),#152,.T.);
#599=ADVANCED_FACE('',(#185),#31,.T.);
#600=ADVANCED_FACE('',(#186),#153,.T.);
#601=ADVANCED_FACE('',(#187),#32,.T.);
#602=ADVANCED_FACE('',(#188),#154,.T.);
#603=ADVANCED_FACE('',(#189),#33,.T.);
#604=ADVANCED_FACE('',(#190,#14),#34,.T.);
#605=CLOSED_SHELL('',(#569,#570,#571,#572,#573,#574,#575,#576,#577,#578,
#579,#580,#581,#582,#583,#584,#585,#586));
#606=CLOSED_SHELL('',(#587,#588,#589,#590,#591,#592,#593,#594,#595,#596,
#597,#598,#599,#600,#601,#602,#603,#604));
#607=DERIVED_UNIT_ELEMENT(#609,1.);
#608=DERIVED_UNIT_ELEMENT(#1056,-3.);
#609=(
MASS_UNIT()
NAMED_UNIT(*)
SI_UNIT(.KILO.,.GRAM.)
);
#610=DERIVED_UNIT((#607,#608));
#611=MEASURE_REPRESENTATION_ITEM('density measure',
POSITIVE_RATIO_MEASURE(7850.),#610);
#612=PROPERTY_DEFINITION_REPRESENTATION(#617,#614);
#613=PROPERTY_DEFINITION_REPRESENTATION(#618,#615);
#614=REPRESENTATION('material name',(#616),#1053);
#615=REPRESENTATION('density',(#611),#1053);
#616=DESCRIPTIVE_REPRESENTATION_ITEM('Acier','Acier');
#617=PROPERTY_DEFINITION('material property','material name',#1063);
#618=PROPERTY_DEFINITION('material property','density of part',#1063);
#619=AXIS2_PLACEMENT_3D('',#878,#688,#689);
#620=AXIS2_PLACEMENT_3D('',#879,#690,#691);
#621=AXIS2_PLACEMENT_3D('',#882,#692,#693);
#622=AXIS2_PLACEMENT_3D('',#884,#694,#695);
#623=AXIS2_PLACEMENT_3D('',#885,#696,#697);
#624=AXIS2_PLACEMENT_3D('',#886,#698,#699);
#625=AXIS2_PLACEMENT_3D('',#889,#700,#701);
#626=AXIS2_PLACEMENT_3D('',#891,#702,#703);
#627=AXIS2_PLACEMENT_3D('',#892,#704,#705);
#628=AXIS2_PLACEMENT_3D('',#893,#706,#707);
#629=AXIS2_PLACEMENT_3D('',#896,#708,#709);
#630=AXIS2_PLACEMENT_3D('',#898,#710,#711);
#631=AXIS2_PLACEMENT_3D('',#899,#712,#713);
#632=AXIS2_PLACEMENT_3D('',#900,#714,#715);
#633=AXIS2_PLACEMENT_3D('',#903,#718,#719);
#634=AXIS2_PLACEMENT_3D('',#906,#720,#721);
#635=AXIS2_PLACEMENT_3D('',#908,#722,#723);
#636=AXIS2_PLACEMENT_3D('',#909,#724,#725);
#637=AXIS2_PLACEMENT_3D('',#910,#726,#727);
#638=AXIS2_PLACEMENT_3D('',#913,#730,#731);
#639=AXIS2_PLACEMENT_3D('',#916,#732,#733);
#640=AXIS2_PLACEMENT_3D('',#919,#736,#737);
#641=AXIS2_PLACEMENT_3D('',#922,#740,#741);
#642=AXIS2_PLACEMENT_3D('',#925,#742,#743);
#643=AXIS2_PLACEMENT_3D('',#928,#746,#747);
#644=AXIS2_PLACEMENT_3D('',#931,#750,#751);
#645=AXIS2_PLACEMENT_3D('',#934,#752,#753);
#646=AXIS2_PLACEMENT_3D('',#937,#756,#757);
#647=AXIS2_PLACEMENT_3D('',#940,#758,#759);
#648=AXIS2_PLACEMENT_3D('',#943,#762,#763);
#649=AXIS2_PLACEMENT_3D('',#945,#765,#766);
#650=AXIS2_PLACEMENT_3D('',#949,#770,#771);
#651=AXIS2_PLACEMENT_3D('',#950,#772,#773);
#652=AXIS2_PLACEMENT_3D('',#951,#774,#775);
#653=AXIS2_PLACEMENT_3D('',#952,#776,#777);
#654=AXIS2_PLACEMENT_3D('',#953,#778,#779);
#655=AXIS2_PLACEMENT_3D('',#956,#780,#781);
#656=AXIS2_PLACEMENT_3D('',#960,#783,#784);
#657=AXIS2_PLACEMENT_3D('',#962,#786,#787);
#658=AXIS2_PLACEMENT_3D('',#968,#791,#792);
#659=AXIS2_PLACEMENT_3D('',#970,#793,#794);
#660=AXIS2_PLACEMENT_3D('',#973,#796,#797);
#661=AXIS2_PLACEMENT_3D('',#974,#798,#799);
#662=AXIS2_PLACEMENT_3D('',#980,#803,#804);
#663=AXIS2_PLACEMENT_3D('',#982,#805,#806);
#664=AXIS2_PLACEMENT_3D('',#985,#808,#809);
#665=AXIS2_PLACEMENT_3D('',#986,#810,#811);
#666=AXIS2_PLACEMENT_3D('',#992,#815,#816);
#667=AXIS2_PLACEMENT_3D('',#994,#817,#818);
#668=AXIS2_PLACEMENT_3D('',#997,#820,#821);
#669=AXIS2_PLACEMENT_3D('',#998,#822,#823);
#670=AXIS2_PLACEMENT_3D('',#1001,#826,#827);
#671=AXIS2_PLACEMENT_3D('',#1004,#828,#829);
#672=AXIS2_PLACEMENT_3D('',#1008,#831,#832);
#673=AXIS2_PLACEMENT_3D('',#1010,#834,#835);
#674=AXIS2_PLACEMENT_3D('',#1016,#839,#840);
#675=AXIS2_PLACEMENT_3D('',#1020,#842,#843);
#676=AXIS2_PLACEMENT_3D('',#1024,#845,#846);
#677=AXIS2_PLACEMENT_3D('',#1027,#848,#849);
#678=AXIS2_PLACEMENT_3D('',#1028,#850,#851);
#679=AXIS2_PLACEMENT_3D('',#1030,#852,#853);
#680=AXIS2_PLACEMENT_3D('',#1032,#855,#856);
#681=AXIS2_PLACEMENT_3D('',#1036,#859,#860);
#682=AXIS2_PLACEMENT_3D('',#1038,#861,#862);
#683=AXIS2_PLACEMENT_3D('',#1040,#864,#865);
#684=AXIS2_PLACEMENT_3D('',#1044,#868,#869);
#685=AXIS2_PLACEMENT_3D('',#1046,#870,#871);
#686=AXIS2_PLACEMENT_3D('',#1048,#873,#874);
#687=AXIS2_PLACEMENT_3D('',#1050,#876,#877);
#688=DIRECTION('axis',(0.,0.,1.));
#689=DIRECTION('refdir',(1.,0.,0.));
#690=DIRECTION('center_axis',(0.408248290463863,-0.816496580927728,-0.40824829046386));
#691=DIRECTION('ref_axis',(-0.577350269189627,-0.577350269189627,0.577350269189624));
#692=DIRECTION('center_axis',(-1.,0.,0.));
#693=DIRECTION('ref_axis',(0.,0.,1.));
#694=DIRECTION('center_axis',(0.,-1.,0.));
#695=DIRECTION('ref_axis',(-1.,0.,0.));
#696=DIRECTION('center_axis',(0.,0.,1.));
#697=DIRECTION('ref_axis',(0.,-1.,0.));
#698=DIRECTION('center_axis',(-0.408248290463863,-0.816496580927728,0.40824829046386));
#699=DIRECTION('ref_axis',(-0.577350269189627,0.577350269189627,0.577350269189624));
#700=DIRECTION('center_axis',(-1.,0.,0.));
#701=DIRECTION('ref_axis',(0.,1.,0.));
#702=DIRECTION('center_axis',(0.,0.,1.));
#703=DIRECTION('ref_axis',(-1.,0.,0.));
#704=DIRECTION('center_axis',(0.,1.,0.));
#705=DIRECTION('ref_axis',(0.,0.,1.));
#706=DIRECTION('center_axis',(0.408248290463862,0.408248290463862,-0.816496580927727));
#707=DIRECTION('ref_axis',(-0.577350269189626,-0.577350269189625,-0.577350269189627));
#708=DIRECTION('center_axis',(-1.,0.,0.));
#709=DIRECTION('ref_axis',(0.,-1.,0.));
#710=DIRECTION('center_axis',(0.,0.,-1.));
#711=DIRECTION('ref_axis',(-1.,0.,0.));
#712=DIRECTION('center_axis',(0.,-1.,0.));
#713=DIRECTION('ref_axis',(0.,0.,-1.));
#714=DIRECTION('center_axis',(0.,0.,1.));
#715=DIRECTION('ref_axis',(-0.707106781186548,-0.707106781186547,0.));
#716=DIRECTION('',(0.,0.,-1.));
#717=DIRECTION('',(0.,0.,1.));
#718=DIRECTION('center_axis',(-0.408248290463861,-0.816496580927726,-0.408248290463864));
#719=DIRECTION('ref_axis',(-0.577350269189625,0.577350269189625,-0.577350269189627));
#720=DIRECTION('center_axis',(0.,1.,0.));
#721=DIRECTION('ref_axis',(-1.,0.,0.));
#722=DIRECTION('center_axis',(2.96059473233375E-15,0.,-1.));
#723=DIRECTION('ref_axis',(0.,1.,0.));
#724=DIRECTION('center_axis',(-1.,0.,0.));
#725=DIRECTION('ref_axis',(0.,0.,-1.));
#726=DIRECTION('center_axis',(0.,0.,-1.));
#727=DIRECTION('ref_axis',(-0.707106781186548,0.707106781186547,0.));
#728=DIRECTION('',(0.,0.,1.));
#729=DIRECTION('',(0.,0.,-1.));
#730=DIRECTION('center_axis',(1.,0.,0.));
#731=DIRECTION('ref_axis',(0.,0.707106781186546,-0.707106781186549));
#732=DIRECTION('center_axis',(-1.,0.,0.));
#733=DIRECTION('ref_axis',(0.,0.707106781186546,-0.707106781186549));
#734=DIRECTION('',(-1.,0.,0.));
#735=DIRECTION('',(1.,0.,0.));
#736=DIRECTION('center_axis',(0.,-1.,0.));
#737=DIRECTION('ref_axis',(-0.707106781186549,0.,-0.707106781186546));
#738=DIRECTION('',(0.,1.,0.));
#739=DIRECTION('',(0.,-1.,0.));
#740=DIRECTION('center_axis',(1.,0.,0.));
#741=DIRECTION('ref_axis',(0.,-0.707106781186548,-0.707106781186547));
#742=DIRECTION('center_axis',(-1.,0.,0.));
#743=DIRECTION('ref_axis',(0.,-0.707106781186548,-0.707106781186547));
#744=DIRECTION('',(-1.,0.,0.));
#745=DIRECTION('',(1.,0.,0.));
#746=DIRECTION('center_axis',(0.,1.,0.));
#747=DIRECTION('ref_axis',(-0.707106781186547,0.,0.707106781186548));
#748=DIRECTION('',(0.,-1.,0.));
#749=DIRECTION('',(0.,1.,0.));
#750=DIRECTION('center_axis',(1.,0.,0.));
#751=DIRECTION('ref_axis',(0.,0.707106781186546,0.707106781186549));
#752=DIRECTION('center_axis',(-1.,0.,0.));
#753=DIRECTION('ref_axis',(0.,0.707106781186546,0.707106781186549));
#754=DIRECTION('',(-1.,0.,0.));
#755=DIRECTION('',(1.,0.,0.));
#756=DIRECTION('center_axis',(1.,0.,0.));
#757=DIRECTION('ref_axis',(0.,-0.707106781186546,0.707106781186549));
#758=DIRECTION('center_axis',(-1.,0.,0.));
#759=DIRECTION('ref_axis',(0.,-0.707106781186546,0.707106781186549));
#760=DIRECTION('',(-1.,0.,0.));
#761=DIRECTION('',(1.,0.,0.));
#762=DIRECTION('center_axis',(0.,1.,0.));
#763=DIRECTION('ref_axis',(0.,0.,1.));
#764=DIRECTION('',(0.,0.,1.));
#765=DIRECTION('center_axis',(1.,0.,0.));
#766=DIRECTION('ref_axis',(0.,0.,-1.));
#767=DIRECTION('',(0.,-1.,0.));
#768=DIRECTION('',(0.,0.,-1.));
#769=DIRECTION('',(0.,1.,0.));
#770=DIRECTION('center_axis',(0.,0.,1.));
#771=DIRECTION('ref_axis',(0.,-1.,0.));
#772=DIRECTION('center_axis',(1.,0.,0.));
#773=DIRECTION('ref_axis',(0.,0.,-1.));
#774=DIRECTION('center_axis',(0.,0.,-1.));
#775=DIRECTION('ref_axis',(0.,1.,0.));
#776=DIRECTION('center_axis',(0.,-1.,0.));
#777=DIRECTION('ref_axis',(0.,0.,-1.));
#778=DIRECTION('center_axis',(1.,0.,0.));
#779=DIRECTION('ref_axis',(0.,-0.707106781186546,0.707106781186549));
#780=DIRECTION('center_axis',(-1.,0.,0.));
#781=DIRECTION('ref_axis',(0.,-0.707106781186546,0.707106781186549));
#782=DIRECTION('',(1.,0.,0.));
#783=DIRECTION('center_axis',(1.,0.,0.));
#784=DIRECTION('ref_axis',(0.,-0.707106781186546,0.707106781186549));
#785=DIRECTION('',(-1.,0.,0.));
#786=DIRECTION('center_axis',(0.,0.,-1.));
#787=DIRECTION('ref_axis',(0.,1.,0.));
#788=DIRECTION('',(0.,1.,0.));
#789=DIRECTION('',(-1.,0.,0.));
#790=DIRECTION('',(0.,1.,0.));
#791=DIRECTION('center_axis',(1.,0.,0.));
#792=DIRECTION('ref_axis',(0.,0.707106781186546,0.707106781186549));
#793=DIRECTION('center_axis',(-1.,0.,0.));
#794=DIRECTION('ref_axis',(0.,0.707106781186546,0.707106781186549));
#795=DIRECTION('',(1.,0.,0.));
#796=DIRECTION('center_axis',(1.,0.,0.));
#797=DIRECTION('ref_axis',(0.,0.707106781186546,0.707106781186549));
#798=DIRECTION('center_axis',(0.,-1.,0.));
#799=DIRECTION('ref_axis',(0.,0.,-1.));
#800=DIRECTION('',(0.,0.,-1.));
#801=DIRECTION('',(-1.,0.,0.));
#802=DIRECTION('',(0.,0.,-1.));
#803=DIRECTION('center_axis',(1.,0.,0.));
#804=DIRECTION('ref_axis',(0.,0.707106781186548,-0.707106781186547));
#805=DIRECTION('center_axis',(-1.,0.,0.));
#806=DIRECTION('ref_axis',(0.,0.707106781186548,-0.707106781186547));
#807=DIRECTION('',(1.,0.,0.));
#808=DIRECTION('center_axis',(1.,0.,0.));
#809=DIRECTION('ref_axis',(0.,0.707106781186548,-0.707106781186547));
#810=DIRECTION('center_axis',(0.,0.,1.));
#811=DIRECTION('ref_axis',(0.,-1.,0.));
#812=DIRECTION('',(0.,-1.,0.));
#813=DIRECTION('',(-1.,0.,0.));
#814=DIRECTION('',(0.,-1.,0.));
#815=DIRECTION('center_axis',(1.,0.,0.));
#816=DIRECTION('ref_axis',(0.,-0.707106781186546,-0.707106781186549));
#817=DIRECTION('center_axis',(-1.,0.,0.));
#818=DIRECTION('ref_axis',(0.,-0.707106781186546,-0.707106781186549));
#819=DIRECTION('',(1.,0.,0.));
#820=DIRECTION('center_axis',(1.,0.,0.));
#821=DIRECTION('ref_axis',(0.,-0.707106781186546,-0.707106781186549));
#822=DIRECTION('center_axis',(0.,1.,0.));
#823=DIRECTION('ref_axis',(0.,0.,1.));
#824=DIRECTION('',(0.,0.,1.));
#825=DIRECTION('',(0.,0.,1.));
#826=DIRECTION('center_axis',(1.,0.,0.));
#827=DIRECTION('ref_axis',(0.,0.707106781186548,0.707106781186548));
#828=DIRECTION('center_axis',(-1.,0.,0.));
#829=DIRECTION('ref_axis',(0.,0.707106781186548,0.707106781186548));
#830=DIRECTION('',(-1.,0.,0.));
#831=DIRECTION('center_axis',(1.,0.,0.));
#832=DIRECTION('ref_axis',(0.,0.707106781186548,0.707106781186548));
#833=DIRECTION('',(1.,0.,0.));
#834=DIRECTION('center_axis',(0.,0.,1.));
#835=DIRECTION('ref_axis',(0.,-1.,0.));
#836=DIRECTION('',(0.,1.,0.));
#837=DIRECTION('',(-1.,0.,0.));
#838=DIRECTION('',(0.,-1.,0.));
#839=DIRECTION('center_axis',(1.,0.,0.));
#840=DIRECTION('ref_axis',(0.,0.,-1.));
#841=DIRECTION('',(0.,0.,-1.));
#842=DIRECTION('center_axis',(1.,0.,0.));
#843=DIRECTION('ref_axis',(0.,0.707106781186548,-0.707106781186548));
#844=DIRECTION('',(0.,-1.,0.));
#845=DIRECTION('center_axis',(1.,0.,0.));
#846=DIRECTION('ref_axis',(0.,-0.70710678118655,-0.707106781186545));
#847=DIRECTION('',(0.,0.,1.));
#848=DIRECTION('center_axis',(1.,0.,0.));
#849=DIRECTION('ref_axis',(0.,-0.707106781186548,0.707106781186548));
#850=DIRECTION('center_axis',(1.,0.,0.));
#851=DIRECTION('ref_axis',(0.,-0.707106781186548,0.707106781186548));
#852=DIRECTION('center_axis',(-1.,0.,0.));
#853=DIRECTION('ref_axis',(0.,-0.707106781186548,0.707106781186548));
#854=DIRECTION('',(1.,0.,0.));
#855=DIRECTION('center_axis',(0.,-1.,0.));
#856=DIRECTION('ref_axis',(0.,0.,-1.));
#857=DIRECTION('',(-1.,0.,0.));
#858=DIRECTION('',(0.,0.,-1.));
#859=DIRECTION('center_axis',(1.,0.,0.));
#860=DIRECTION('ref_axis',(0.,-0.70710678118655,-0.707106781186545));
#861=DIRECTION('center_axis',(-1.,0.,0.));
#862=DIRECTION('ref_axis',(0.,-0.70710678118655,-0.707106781186545));
#863=DIRECTION('',(1.,0.,0.));
#864=DIRECTION('center_axis',(0.,0.,-1.));
#865=DIRECTION('ref_axis',(0.,1.,0.));
#866=DIRECTION('',(-1.,0.,0.));
#867=DIRECTION('',(0.,1.,0.));
#868=DIRECTION('center_axis',(1.,0.,0.));
#869=DIRECTION('ref_axis',(0.,0.707106781186548,-0.707106781186548));
#870=DIRECTION('center_axis',(-1.,0.,0.));
#871=DIRECTION('ref_axis',(0.,0.707106781186548,-0.707106781186548));
#872=DIRECTION('',(1.,0.,0.));
#873=DIRECTION('center_axis',(0.,1.,0.));
#874=DIRECTION('ref_axis',(0.,0.,1.));
#875=DIRECTION('',(0.,0.,1.));
#876=DIRECTION('center_axis',(1.,0.,0.));
#877=DIRECTION('ref_axis',(0.,0.,-1.));
#878=CARTESIAN_POINT('',(0.,0.,0.));
#879=CARTESIAN_POINT('Origin',(1.5,-16.5,66.5));
#880=CARTESIAN_POINT('',(1.5,-16.5,68.));
#881=CARTESIAN_POINT('',(1.5,-18.,66.5));
#882=CARTESIAN_POINT('Origin',(1.5,-16.5,66.5));
#883=CARTESIAN_POINT('',(0.,-16.5,66.5));
#884=CARTESIAN_POINT('Origin',(1.5,-16.5,66.5));
#885=CARTESIAN_POINT('Origin',(1.5,-16.5,66.5));
#886=CARTESIAN_POINT('Origin',(1.5,16.5,66.5));
#887=CARTESIAN_POINT('',(1.5,18.,66.5));
#888=CARTESIAN_POINT('',(1.5,16.5,68.));
#889=CARTESIAN_POINT('Origin',(1.5,16.5,66.5));
#890=CARTESIAN_POINT('',(0.,16.5,66.5));
#891=CARTESIAN_POINT('Origin',(1.5,16.5,66.5));
#892=CARTESIAN_POINT('Origin',(1.5,16.5,66.5));
#893=CARTESIAN_POINT('Origin',(1.5,-16.5,33.5));
#894=CARTESIAN_POINT('',(1.5,-18.,33.5));
#895=CARTESIAN_POINT('',(1.5,-16.5,32.));
#896=CARTESIAN_POINT('Origin',(1.5,-16.5,33.5));
#897=CARTESIAN_POINT('',(0.,-16.5,33.5));
#898=CARTESIAN_POINT('Origin',(1.5,-16.5,33.5));
#899=CARTESIAN_POINT('Origin',(1.5,-16.5,33.5));
#900=CARTESIAN_POINT('Origin',(1.5,-16.5,59.));
#901=CARTESIAN_POINT('',(0.,-16.5,59.));
#902=CARTESIAN_POINT('',(1.5,-18.,59.));
#903=CARTESIAN_POINT('Origin',(1.5,16.5,33.5));
#904=CARTESIAN_POINT('',(0.,16.5,33.5));
#905=CARTESIAN_POINT('',(1.5,16.5,32.));
#906=CARTESIAN_POINT('Origin',(1.5,16.5,33.5));
#907=CARTESIAN_POINT('',(1.5,18.,33.5));
#908=CARTESIAN_POINT('Origin',(1.5,16.5,33.5));
#909=CARTESIAN_POINT('Origin',(1.5,16.5,33.5));
#910=CARTESIAN_POINT('Origin',(1.5,16.5,41.));
#911=CARTESIAN_POINT('',(0.,16.5,41.));
#912=CARTESIAN_POINT('',(1.5,18.,41.));
#913=CARTESIAN_POINT('Origin',(0.,16.5,33.5));
#914=CARTESIAN_POINT('',(3.,18.,33.5));
#915=CARTESIAN_POINT('',(3.,16.5,32.));
#916=CARTESIAN_POINT('Origin',(3.,16.5,33.5));
#917=CARTESIAN_POINT('',(0.,16.5,32.));
#918=CARTESIAN_POINT('',(0.,18.,33.5));
#919=CARTESIAN_POINT('Origin',(1.5,-9.,33.5));
#920=CARTESIAN_POINT('',(0.,-9.,33.5));
#921=CARTESIAN_POINT('',(1.5,-9.,32.));
#922=CARTESIAN_POINT('Origin',(0.,-16.5,33.5));
#923=CARTESIAN_POINT('',(3.,-16.5,32.));
#924=CARTESIAN_POINT('',(3.,-18.,33.5));
#925=CARTESIAN_POINT('Origin',(3.,-16.5,33.5));
#926=CARTESIAN_POINT('',(0.,-18.,33.5));
#927=CARTESIAN_POINT('',(0.,-16.5,32.));
#928=CARTESIAN_POINT('Origin',(1.5,9.,66.5));
#929=CARTESIAN_POINT('',(0.,9.,66.5));
#930=CARTESIAN_POINT('',(1.5,9.,68.));
#931=CARTESIAN_POINT('Origin',(0.,16.5,66.5));
#932=CARTESIAN_POINT('',(3.,16.5,68.));
#933=CARTESIAN_POINT('',(3.,18.,66.5));
#934=CARTESIAN_POINT('Origin',(3.,16.5,66.5));
#935=CARTESIAN_POINT('',(0.,18.,66.5));
#936=CARTESIAN_POINT('',(0.,16.5,68.));
#937=CARTESIAN_POINT('Origin',(0.,-16.5,66.5));
#938=CARTESIAN_POINT('',(3.,-18.,66.5));
#939=CARTESIAN_POINT('',(3.,-16.5,68.));
#940=CARTESIAN_POINT('Origin',(3.,-16.5,66.5));
#941=CARTESIAN_POINT('',(0.,-16.5,68.));
#942=CARTESIAN_POINT('',(0.,-18.,66.5));
#943=CARTESIAN_POINT('Origin',(0.,18.,32.));
#944=CARTESIAN_POINT('',(3.,18.,68.));
#945=CARTESIAN_POINT('Origin',(3.,0.,50.));
#946=CARTESIAN_POINT('',(3.,-18.,68.));
#947=CARTESIAN_POINT('',(3.,-18.,32.));
#948=CARTESIAN_POINT('',(3.,18.,32.));
#949=CARTESIAN_POINT('Origin',(0.,18.,68.));
#950=CARTESIAN_POINT('Origin',(0.,0.,50.));
#951=CARTESIAN_POINT('Origin',(0.,-18.,32.));
#952=CARTESIAN_POINT('Origin',(0.,-18.,68.));
#953=CARTESIAN_POINT('Origin',(0.,-11.5,61.5));
#954=CARTESIAN_POINT('',(0.,-13.,61.5));
#955=CARTESIAN_POINT('',(0.,-11.5,63.));
#956=CARTESIAN_POINT('Origin',(0.,-11.5,61.5));
#957=CARTESIAN_POINT('',(8.,-11.5,63.));
#958=CARTESIAN_POINT('',(0.,-11.5,63.));
#959=CARTESIAN_POINT('',(8.,-13.,61.5));
#960=CARTESIAN_POINT('Origin',(8.,-11.5,61.5));
#961=CARTESIAN_POINT('',(0.,-13.,61.5));
#962=CARTESIAN_POINT('Origin',(0.,-13.,63.));
#963=CARTESIAN_POINT('',(0.,11.5,63.));
#964=CARTESIAN_POINT('',(0.,-13.,63.));
#965=CARTESIAN_POINT('',(8.,11.5,63.));
#966=CARTESIAN_POINT('',(0.,11.5,63.));
#967=CARTESIAN_POINT('',(8.,-13.,63.));
#968=CARTESIAN_POINT('Origin',(0.,11.5,61.5));
#969=CARTESIAN_POINT('',(0.,13.,61.5));
#970=CARTESIAN_POINT('Origin',(0.,11.5,61.5));
#971=CARTESIAN_POINT('',(8.,13.,61.5));
#972=CARTESIAN_POINT('',(0.,13.,61.5));
#973=CARTESIAN_POINT('Origin',(8.,11.5,61.5));
#974=CARTESIAN_POINT('Origin',(0.,13.,63.));
#975=CARTESIAN_POINT('',(0.,13.,38.5));
#976=CARTESIAN_POINT('',(0.,13.,63.));
#977=CARTESIAN_POINT('',(8.,13.,38.5));
#978=CARTESIAN_POINT('',(0.,13.,38.5));
#979=CARTESIAN_POINT('',(8.,13.,63.));
#980=CARTESIAN_POINT('Origin',(0.,11.5,38.5));
#981=CARTESIAN_POINT('',(0.,11.5,37.));
#982=CARTESIAN_POINT('Origin',(0.,11.5,38.5));
#983=CARTESIAN_POINT('',(8.,11.5,37.));
#984=CARTESIAN_POINT('',(0.,11.5,37.));
#985=CARTESIAN_POINT('Origin',(8.,11.5,38.5));
#986=CARTESIAN_POINT('Origin',(0.,13.,37.));
#987=CARTESIAN_POINT('',(0.,-11.5,37.));
#988=CARTESIAN_POINT('',(0.,13.,37.));
#989=CARTESIAN_POINT('',(8.,-11.5,37.));
#990=CARTESIAN_POINT('',(0.,-11.5,37.));
#991=CARTESIAN_POINT('',(8.,13.,37.));
#992=CARTESIAN_POINT('Origin',(0.,-11.5,38.5));
#993=CARTESIAN_POINT('',(0.,-13.,38.5));
#994=CARTESIAN_POINT('Origin',(0.,-11.5,38.5));
#995=CARTESIAN_POINT('',(8.,-13.,38.5));
#996=CARTESIAN_POINT('',(0.,-13.,38.5));
#997=CARTESIAN_POINT('Origin',(8.,-11.5,38.5));
#998=CARTESIAN_POINT('Origin',(0.,-13.,37.));
#999=CARTESIAN_POINT('',(8.,-13.,37.));
#1000=CARTESIAN_POINT('',(0.,-13.,37.));
#1001=CARTESIAN_POINT('Origin',(0.,13.5,63.5));
#1002=CARTESIAN_POINT('',(8.,13.5,65.));
#1003=CARTESIAN_POINT('',(8.,15.,63.5));
#1004=CARTESIAN_POINT('Origin',(8.,13.5,63.5));
#1005=CARTESIAN_POINT('',(0.,15.,63.5));
#1006=CARTESIAN_POINT('',(0.,15.,63.5));
#1007=CARTESIAN_POINT('',(0.,13.5,65.));
#1008=CARTESIAN_POINT('Origin',(0.,13.5,63.5));
#1009=CARTESIAN_POINT('',(0.,13.5,65.));
#1010=CARTESIAN_POINT('Origin',(0.,15.,65.));
#1011=CARTESIAN_POINT('',(0.,-13.5,65.));
#1012=CARTESIAN_POINT('',(0.,-15.,65.));
#1013=CARTESIAN_POINT('',(8.,-13.5,65.));
#1014=CARTESIAN_POINT('',(0.,-13.5,65.));
#1015=CARTESIAN_POINT('',(8.,-15.,65.));
#1016=CARTESIAN_POINT('Origin',(0.,0.,50.));
#1017=CARTESIAN_POINT('',(0.,15.,36.5));
#1018=CARTESIAN_POINT('',(0.,15.,65.));
#1019=CARTESIAN_POINT('',(0.,13.5,35.));
#1020=CARTESIAN_POINT('Origin',(0.,13.5,36.5));
#1021=CARTESIAN_POINT('',(0.,-13.5,35.));
#1022=CARTESIAN_POINT('',(0.,15.,35.));
#1023=CARTESIAN_POINT('',(0.,-15.,36.5));
#1024=CARTESIAN_POINT('Origin',(0.,-13.5,36.5));
#1025=CARTESIAN_POINT('',(0.,-15.,63.5));
#1026=CARTESIAN_POINT('',(0.,-15.,35.));
#1027=CARTESIAN_POINT('Origin',(0.,-13.5,63.5));
#1028=CARTESIAN_POINT('Origin',(0.,-13.5,63.5));
#1029=CARTESIAN_POINT('',(8.,-15.,63.5));
#1030=CARTESIAN_POINT('Origin',(8.,-13.5,63.5));
#1031=CARTESIAN_POINT('',(0.,-15.,63.5));
#1032=CARTESIAN_POINT('Origin',(0.,-15.,65.));
#1033=CARTESIAN_POINT('',(8.,-15.,36.5));
#1034=CARTESIAN_POINT('',(0.,-15.,36.5));
#1035=CARTESIAN_POINT('',(8.,-15.,35.));
#1036=CARTESIAN_POINT('Origin',(0.,-13.5,36.5));
#1037=CARTESIAN_POINT('',(8.,-13.5,35.));
#1038=CARTESIAN_POINT('Origin',(8.,-13.5,36.5));
#1039=CARTESIAN_POINT('',(0.,-13.5,35.));
#1040=CARTESIAN_POINT('Origin',(0.,-15.,35.));
#1041=CARTESIAN_POINT('',(8.,13.5,35.));
#1042=CARTESIAN_POINT('',(0.,13.5,35.));
#1043=CARTESIAN_POINT('',(8.,15.,35.));
#1044=CARTESIAN_POINT('Origin',(0.,13.5,36.5));
#1045=CARTESIAN_POINT('',(8.,15.,36.5));
#1046=CARTESIAN_POINT('Origin',(8.,13.5,36.5));
#1047=CARTESIAN_POINT('',(0.,15.,36.5));
#1048=CARTESIAN_POINT('Origin',(0.,15.,35.));
#1049=CARTESIAN_POINT('',(8.,15.,65.));
#1050=CARTESIAN_POINT('Origin',(8.,0.,50.));
#1051=UNCERTAINTY_MEASURE_WITH_UNIT(LENGTH_MEASURE(0.01),#1055,
'DISTANCE_ACCURACY_VALUE',
'Maximum model space distance between geometric entities at asserted c
onnectivities');
#1052=UNCERTAINTY_MEASURE_WITH_UNIT(LENGTH_MEASURE(0.01),#1055,
'DISTANCE_ACCURACY_VALUE',
'Maximum model space distance between geometric entities at asserted c
onnectivities');
#1053=(
GEOMETRIC_REPRESENTATION_CONTEXT(3)
GLOBAL_UNCERTAINTY_ASSIGNED_CONTEXT((#1051))
GLOBAL_UNIT_ASSIGNED_CONTEXT((#1055,#1057,#1058))
REPRESENTATION_CONTEXT('','3D')
);
#1054=(
GEOMETRIC_REPRESENTATION_CONTEXT(3)
GLOBAL_UNCERTAINTY_ASSIGNED_CONTEXT((#1052))
GLOBAL_UNIT_ASSIGNED_CONTEXT((#1055,#1057,#1058))
REPRESENTATION_CONTEXT('','3D')
);
#1055=(
LENGTH_UNIT()
NAMED_UNIT(*)
SI_UNIT(.MILLI.,.METRE.)
);
#1056=(
LENGTH_UNIT()
NAMED_UNIT(*)
SI_UNIT($,.METRE.)
);
#1057=(
NAMED_UNIT(*)
PLANE_ANGLE_UNIT()
SI_UNIT($,.RADIAN.)
);
#1058=(
NAMED_UNIT(*)
SI_UNIT($,.STERADIAN.)
SOLID_ANGLE_UNIT()
);
#1059=SHAPE_DEFINITION_REPRESENTATION(#1060,#1061);
#1060=PRODUCT_DEFINITION_SHAPE('',$,#1063);
#1061=SHAPE_REPRESENTATION('',(#619),#1053);
#1062=PRODUCT_DEFINITION_CONTEXT('part definition',#1067,'design');
#1063=PRODUCT_DEFINITION('butee_portail','butee_portail v2',#1064,#1062);
#1064=PRODUCT_DEFINITION_FORMATION('',$,#1069);
#1065=PRODUCT_RELATED_PRODUCT_CATEGORY('butee_portail v2',
'butee_portail v2',(#1069));
#1066=APPLICATION_PROTOCOL_DEFINITION('international standard',
'automotive_design',2009,#1067);
#1067=APPLICATION_CONTEXT(
'Core Data for Automotive Mechanical Design Process');
#1068=PRODUCT_CONTEXT('part definition',#1067,'mechanical');
#1069=PRODUCT('butee_portail','butee_portail v2',$,(#1068));
#1070=PRESENTATION_STYLE_ASSIGNMENT((#1071));
#1071=SURFACE_STYLE_USAGE(.BOTH.,#1072);
#1072=SURFACE_SIDE_STYLE('',(#1073));
#1073=SURFACE_STYLE_FILL_AREA(#1074);
#1074=FILL_AREA_STYLE('Acier - Satin\X\E9',(#1075));
#1075=FILL_AREA_STYLE_COLOUR('Acier - Satin\X\E9',#1076);
#1076=COLOUR_RGB('Acier - Satin\X\E9',0.627450980392157,0.627450980392157,
0.627450980392157);
ENDSEC;
END-ISO-10303-21;
