ISO-10303-21;
HEADER;
/* Generated by software containing ST-Developer
 * from STEP Tools, Inc. (www.steptools.com) 
 */

FILE_DESCRIPTION(
/* description */ (''),
/* implementation_level */ '2;1');

FILE_NAME(
/* name */ 'capot_nutees_portail.step',
/* time_stamp */ '2025-10-20T13:55:21+02:00',
/* author */ (''),
/* organization */ (''),
/* preprocessor_version */ 'ST-DEVELOPER v20.1',
/* originating_system */ 'Autodesk Translation Framework v14.17.0.0',
/* authorisation */ '');

FILE_SCHEMA (('AUTOMOTIVE_DESIGN { 1 0 10303 214 3 1 1 }'));
ENDSEC;

DATA;
#10=MECHANICAL_DESIGN_GEOMETRIC_PRESENTATION_REPRESENTATION('',(#21,#22,
#23,#24),#2029);
#11=SHAPE_REPRESENTATION_RELATIONSHIP('SRR','None',#2036,#12);
#12=ADVANCED_BREP_SHAPE_REPRESENTATION('',(#25,#26,#27,#28),#2028);
#13=FACE_BOUND('',#178,.T.);
#14=FACE_BOUND('',#190,.T.);
#15=FACE_BOUND('',#204,.T.);
#16=FACE_BOUND('',#207,.T.);
#17=FACE_BOUND('',#224,.T.);
#18=FACE_BOUND('',#226,.T.);
#19=ELLIPSE('',#1239,0.707106781186547,0.5);
#20=ELLIPSE('',#1249,0.707106781186548,0.5);
#21=STYLED_ITEM('',(#2045),#25);
#22=STYLED_ITEM('',(#2045),#26);
#23=STYLED_ITEM('',(#2045),#27);
#24=STYLED_ITEM('',(#2045),#28);
#25=MANIFOLD_SOLID_BREP('Corps1',#1186);
#26=MANIFOLD_SOLID_BREP('Corps2',#1187);
#27=MANIFOLD_SOLID_BREP('Corps3',#1188);
#28=MANIFOLD_SOLID_BREP('Corps4',#1189);
#29=PLANE('',#1221);
#30=PLANE('',#1224);
#31=PLANE('',#1225);
#32=PLANE('',#1227);
#33=PLANE('',#1235);
#34=PLANE('',#1236);
#35=PLANE('',#1258);
#36=PLANE('',#1259);
#37=PLANE('',#1260);
#38=PLANE('',#1265);
#39=PLANE('',#1268);
#40=PLANE('',#1271);
#41=PLANE('',#1274);
#42=PLANE('',#1277);
#43=PLANE('',#1278);
#44=PLANE('',#1279);
#45=PLANE('',#1302);
#46=PLANE('',#1305);
#47=PLANE('',#1306);
#48=PLANE('',#1309);
#49=PLANE('',#1312);
#50=PLANE('',#1313);
#51=PLANE('',#1314);
#52=PLANE('',#1315);
#53=PLANE('',#1316);
#54=PLANE('',#1317);
#55=PLANE('',#1318);
#56=PLANE('',#1319);
#57=PLANE('',#1320);
#58=PLANE('',#1321);
#59=PLANE('',#1322);
#60=PLANE('',#1323);
#61=PLANE('',#1324);
#62=PLANE('',#1325);
#63=PLANE('',#1326);
#64=PLANE('',#1327);
#65=SPHERICAL_SURFACE('',#1206,0.5);
#66=SPHERICAL_SURFACE('',#1215,0.5);
#67=SPHERICAL_SURFACE('',#1217,0.5);
#68=SPHERICAL_SURFACE('',#1232,0.5);
#69=SPHERICAL_SURFACE('',#1240,0.5);
#70=SPHERICAL_SURFACE('',#1244,0.5);
#71=SPHERICAL_SURFACE('',#1286,1.);
#72=SPHERICAL_SURFACE('',#1291,1.);
#73=SPHERICAL_SURFACE('',#1296,1.);
#74=SPHERICAL_SURFACE('',#1298,1.);
#75=FACE_OUTER_BOUND('',#148,.T.);
#76=FACE_OUTER_BOUND('',#149,.T.);
#77=FACE_OUTER_BOUND('',#150,.T.);
#78=FACE_OUTER_BOUND('',#151,.T.);
#79=FACE_OUTER_BOUND('',#152,.T.);
#80=FACE_OUTER_BOUND('',#153,.T.);
#81=FACE_OUTER_BOUND('',#154,.T.);
#82=FACE_OUTER_BOUND('',#155,.T.);
#83=FACE_OUTER_BOUND('',#156,.T.);
#84=FACE_OUTER_BOUND('',#157,.T.);
#85=FACE_OUTER_BOUND('',#158,.T.);
#86=FACE_OUTER_BOUND('',#159,.T.);
#87=FACE_OUTER_BOUND('',#160,.T.);
#88=FACE_OUTER_BOUND('',#161,.T.);
#89=FACE_OUTER_BOUND('',#162,.T.);
#90=FACE_OUTER_BOUND('',#163,.T.);
#91=FACE_OUTER_BOUND('',#164,.T.);
#92=FACE_OUTER_BOUND('',#165,.T.);
#93=FACE_OUTER_BOUND('',#166,.T.);
#94=FACE_OUTER_BOUND('',#167,.T.);
#95=FACE_OUTER_BOUND('',#168,.T.);
#96=FACE_OUTER_BOUND('',#169,.T.);
#97=FACE_OUTER_BOUND('',#170,.T.);
#98=FACE_OUTER_BOUND('',#171,.T.);
#99=FACE_OUTER_BOUND('',#172,.T.);
#100=FACE_OUTER_BOUND('',#173,.T.);
#101=FACE_OUTER_BOUND('',#174,.T.);
#102=FACE_OUTER_BOUND('',#175,.T.);
#103=FACE_OUTER_BOUND('',#176,.T.);
#104=FACE_OUTER_BOUND('',#177,.T.);
#105=FACE_OUTER_BOUND('',#179,.T.);
#106=FACE_OUTER_BOUND('',#180,.T.);
#107=FACE_OUTER_BOUND('',#181,.T.);
#108=FACE_OUTER_BOUND('',#182,.T.);
#109=FACE_OUTER_BOUND('',#183,.T.);
#110=FACE_OUTER_BOUND('',#184,.T.);
#111=FACE_OUTER_BOUND('',#185,.T.);
#112=FACE_OUTER_BOUND('',#186,.T.);
#113=FACE_OUTER_BOUND('',#187,.T.);
#114=FACE_OUTER_BOUND('',#188,.T.);
#115=FACE_OUTER_BOUND('',#189,.T.);
#116=FACE_OUTER_BOUND('',#191,.T.);
#117=FACE_OUTER_BOUND('',#192,.T.);
#118=FACE_OUTER_BOUND('',#193,.T.);
#119=FACE_OUTER_BOUND('',#194,.T.);
#120=FACE_OUTER_BOUND('',#195,.T.);
#121=FACE_OUTER_BOUND('',#196,.T.);
#122=FACE_OUTER_BOUND('',#197,.T.);
#123=FACE_OUTER_BOUND('',#198,.T.);
#124=FACE_OUTER_BOUND('',#199,.T.);
#125=FACE_OUTER_BOUND('',#200,.T.);
#126=FACE_OUTER_BOUND('',#201,.T.);
#127=FACE_OUTER_BOUND('',#202,.T.);
#128=FACE_OUTER_BOUND('',#203,.T.);
#129=FACE_OUTER_BOUND('',#205,.T.);
#130=FACE_OUTER_BOUND('',#206,.T.);
#131=FACE_OUTER_BOUND('',#208,.T.);
#132=FACE_OUTER_BOUND('',#209,.T.);
#133=FACE_OUTER_BOUND('',#210,.T.);
#134=FACE_OUTER_BOUND('',#211,.T.);
#135=FACE_OUTER_BOUND('',#212,.T.);
#136=FACE_OUTER_BOUND('',#213,.T.);
#137=FACE_OUTER_BOUND('',#214,.T.);
#138=FACE_OUTER_BOUND('',#215,.T.);
#139=FACE_OUTER_BOUND('',#216,.T.);
#140=FACE_OUTER_BOUND('',#217,.T.);
#141=FACE_OUTER_BOUND('',#218,.T.);
#142=FACE_OUTER_BOUND('',#219,.T.);
#143=FACE_OUTER_BOUND('',#220,.T.);
#144=FACE_OUTER_BOUND('',#221,.T.);
#145=FACE_OUTER_BOUND('',#222,.T.);
#146=FACE_OUTER_BOUND('',#223,.T.);
#147=FACE_OUTER_BOUND('',#225,.T.);
#148=EDGE_LOOP('',(#760,#761,#762,#763));
#149=EDGE_LOOP('',(#764,#765,#766));
#150=EDGE_LOOP('',(#767,#768,#769,#770));
#151=EDGE_LOOP('',(#771,#772,#773,#774));
#152=EDGE_LOOP('',(#775,#776,#777));
#153=EDGE_LOOP('',(#778,#779,#780));
#154=EDGE_LOOP('',(#781,#782,#783,#784));
#155=EDGE_LOOP('',(#785,#786,#787,#788));
#156=EDGE_LOOP('',(#789,#790,#791,#792));
#157=EDGE_LOOP('',(#793,#794,#795,#796));
#158=EDGE_LOOP('',(#797,#798,#799,#800,#801,#802,#803,#804));
#159=EDGE_LOOP('',(#805,#806,#807,#808));
#160=EDGE_LOOP('',(#809,#810,#811,#812));
#161=EDGE_LOOP('',(#813,#814,#815,#816));
#162=EDGE_LOOP('',(#817,#818,#819));
#163=EDGE_LOOP('',(#820,#821,#822,#823));
#164=EDGE_LOOP('',(#824,#825,#826,#827));
#165=EDGE_LOOP('',(#828,#829,#830,#831));
#166=EDGE_LOOP('',(#832,#833,#834,#835));
#167=EDGE_LOOP('',(#836,#837,#838));
#168=EDGE_LOOP('',(#839,#840,#841));
#169=EDGE_LOOP('',(#842,#843,#844,#845));
#170=EDGE_LOOP('',(#846,#847,#848,#849));
#171=EDGE_LOOP('',(#850,#851,#852,#853));
#172=EDGE_LOOP('',(#854,#855,#856,#857));
#173=EDGE_LOOP('',(#858,#859,#860,#861));
#174=EDGE_LOOP('',(#862,#863,#864,#865));
#175=EDGE_LOOP('',(#866,#867,#868,#869));
#176=EDGE_LOOP('',(#870,#871,#872,#873));
#177=EDGE_LOOP('',(#874,#875,#876,#877,#878,#879,#880,#881));
#178=EDGE_LOOP('',(#882,#883,#884,#885,#886,#887,#888,#889));
#179=EDGE_LOOP('',(#890,#891,#892,#893));
#180=EDGE_LOOP('',(#894,#895,#896,#897));
#181=EDGE_LOOP('',(#898,#899,#900,#901));
#182=EDGE_LOOP('',(#902,#903,#904,#905));
#183=EDGE_LOOP('',(#906,#907,#908,#909));
#184=EDGE_LOOP('',(#910,#911,#912,#913));
#185=EDGE_LOOP('',(#914,#915,#916,#917));
#186=EDGE_LOOP('',(#918,#919,#920,#921));
#187=EDGE_LOOP('',(#922,#923,#924,#925));
#188=EDGE_LOOP('',(#926,#927,#928,#929));
#189=EDGE_LOOP('',(#930,#931,#932,#933));
#190=EDGE_LOOP('',(#934,#935,#936,#937,#938,#939,#940,#941));
#191=EDGE_LOOP('',(#942,#943,#944,#945));
#192=EDGE_LOOP('',(#946,#947,#948,#949));
#193=EDGE_LOOP('',(#950,#951,#952));
#194=EDGE_LOOP('',(#953,#954,#955,#956));
#195=EDGE_LOOP('',(#957,#958,#959));
#196=EDGE_LOOP('',(#960,#961,#962,#963));
#197=EDGE_LOOP('',(#964,#965,#966));
#198=EDGE_LOOP('',(#967,#968,#969));
#199=EDGE_LOOP('',(#970,#971,#972,#973));
#200=EDGE_LOOP('',(#974,#975,#976,#977));
#201=EDGE_LOOP('',(#978,#979,#980,#981));
#202=EDGE_LOOP('',(#982,#983,#984,#985));
#203=EDGE_LOOP('',(#986,#987,#988,#989));
#204=EDGE_LOOP('',(#990,#991,#992,#993));
#205=EDGE_LOOP('',(#994,#995,#996,#997));
#206=EDGE_LOOP('',(#998,#999,#1000,#1001,#1002,#1003,#1004,#1005));
#207=EDGE_LOOP('',(#1006,#1007,#1008,#1009));
#208=EDGE_LOOP('',(#1010,#1011,#1012,#1013));
#209=EDGE_LOOP('',(#1014,#1015,#1016,#1017));
#210=EDGE_LOOP('',(#1018,#1019,#1020,#1021));
#211=EDGE_LOOP('',(#1022,#1023,#1024,#1025));
#212=EDGE_LOOP('',(#1026,#1027,#1028,#1029));
#213=EDGE_LOOP('',(#1030,#1031,#1032,#1033));
#214=EDGE_LOOP('',(#1034,#1035,#1036,#1037));
#215=EDGE_LOOP('',(#1038,#1039,#1040,#1041));
#216=EDGE_LOOP('',(#1042,#1043,#1044,#1045));
#217=EDGE_LOOP('',(#1046,#1047,#1048,#1049));
#218=EDGE_LOOP('',(#1050,#1051,#1052,#1053));
#219=EDGE_LOOP('',(#1054,#1055,#1056,#1057));
#220=EDGE_LOOP('',(#1058,#1059,#1060,#1061));
#221=EDGE_LOOP('',(#1062,#1063,#1064,#1065));
#222=EDGE_LOOP('',(#1066,#1067,#1068,#1069));
#223=EDGE_LOOP('',(#1070,#1071,#1072,#1073));
#224=EDGE_LOOP('',(#1074,#1075,#1076,#1077));
#225=EDGE_LOOP('',(#1078,#1079,#1080,#1081));
#226=EDGE_LOOP('',(#1082,#1083,#1084,#1085));
#227=LINE('',#1697,#338);
#228=LINE('',#1700,#339);
#229=LINE('',#1710,#340);
#230=LINE('',#1713,#341);
#231=LINE('',#1718,#342);
#232=LINE('',#1720,#343);
#233=LINE('',#1727,#344);
#234=LINE('',#1730,#345);
#235=LINE('',#1733,#346);
#236=LINE('',#1734,#347);
#237=LINE('',#1737,#348);
#238=LINE('',#1740,#349);
#239=LINE('',#1743,#350);
#240=LINE('',#1746,#351);
#241=LINE('',#1749,#352);
#242=LINE('',#1750,#353);
#243=LINE('',#1753,#354);
#244=LINE('',#1757,#355);
#245=LINE('',#1759,#356);
#246=LINE('',#1763,#357);
#247=LINE('',#1769,#358);
#248=LINE('',#1773,#359);
#249=LINE('',#1791,#360);
#250=LINE('',#1793,#361);
#251=LINE('',#1797,#362);
#252=LINE('',#1800,#363);
#253=LINE('',#1802,#364);
#254=LINE('',#1803,#365);
#255=LINE('',#1808,#366);
#256=LINE('',#1809,#367);
#257=LINE('',#1811,#368);
#258=LINE('',#1812,#369);
#259=LINE('',#1817,#370);
#260=LINE('',#1818,#371);
#261=LINE('',#1820,#372);
#262=LINE('',#1821,#373);
#263=LINE('',#1823,#374);
#264=LINE('',#1825,#375);
#265=LINE('',#1826,#376);
#266=LINE('',#1829,#377);
#267=LINE('',#1833,#378);
#268=LINE('',#1837,#379);
#269=LINE('',#1841,#380);
#270=LINE('',#1848,#381);
#271=LINE('',#1849,#382);
#272=LINE('',#1852,#383);
#273=LINE('',#1853,#384);
#274=LINE('',#1858,#385);
#275=LINE('',#1859,#386);
#276=LINE('',#1861,#387);
#277=LINE('',#1865,#388);
#278=LINE('',#1868,#389);
#279=LINE('',#1869,#390);
#280=LINE('',#1873,#391);
#281=LINE('',#1875,#392);
#282=LINE('',#1883,#393);
#283=LINE('',#1886,#394);
#284=LINE('',#1892,#395);
#285=LINE('',#1894,#396);
#286=LINE('',#1902,#397);
#287=LINE('',#1904,#398);
#288=LINE('',#1911,#399);
#289=LINE('',#1913,#400);
#290=LINE('',#1920,#401);
#291=LINE('',#1923,#402);
#292=LINE('',#1926,#403);
#293=LINE('',#1927,#404);
#294=LINE('',#1930,#405);
#295=LINE('',#1934,#406);
#296=LINE('',#1935,#407);
#297=LINE('',#1939,#408);
#298=LINE('',#1941,#409);
#299=LINE('',#1943,#410);
#300=LINE('',#1944,#411);
#301=LINE('',#1947,#412);
#302=LINE('',#1951,#413);
#303=LINE('',#1954,#414);
#304=LINE('',#1957,#415);
#305=LINE('',#1959,#416);
#306=LINE('',#1961,#417);
#307=LINE('',#1962,#418);
#308=LINE('',#1964,#419);
#309=LINE('',#1965,#420);
#310=LINE('',#1968,#421);
#311=LINE('',#1969,#422);
#312=LINE('',#1971,#423);
#313=LINE('',#1973,#424);
#314=LINE('',#1979,#425);
#315=LINE('',#1981,#426);
#316=LINE('',#1983,#427);
#317=LINE('',#1984,#428);
#318=LINE('',#1987,#429);
#319=LINE('',#1989,#430);
#320=LINE('',#1990,#431);
#321=LINE('',#1993,#432);
#322=LINE('',#1995,#433);
#323=LINE('',#1996,#434);
#324=LINE('',#1998,#435);
#325=LINE('',#1999,#436);
#326=LINE('',#2003,#437);
#327=LINE('',#2005,#438);
#328=LINE('',#2007,#439);
#329=LINE('',#2008,#440);
#330=LINE('',#2011,#441);
#331=LINE('',#2013,#442);
#332=LINE('',#2014,#443);
#333=LINE('',#2017,#444);
#334=LINE('',#2019,#445);
#335=LINE('',#2020,#446);
#336=LINE('',#2022,#447);
#337=LINE('',#2023,#448);
#338=VECTOR('',#1334,10.);
#339=VECTOR('',#1337,10.);
#340=VECTOR('',#1348,10.);
#341=VECTOR('',#1351,10.);
#342=VECTOR('',#1356,10.);
#343=VECTOR('',#1359,10.);
#344=VECTOR('',#1370,10.);
#345=VECTOR('',#1373,10.);
#346=VECTOR('',#1376,10.);
#347=VECTOR('',#1377,10.);
#348=VECTOR('',#1380,10.);
#349=VECTOR('',#1385,10.);
#350=VECTOR('',#1388,10.);
#351=VECTOR('',#1391,10.);
#352=VECTOR('',#1394,10.);
#353=VECTOR('',#1395,10.);
#354=VECTOR('',#1398,10.);
#355=VECTOR('',#1403,10.);
#356=VECTOR('',#1406,10.);
#357=VECTOR('',#1413,10.);
#358=VECTOR('',#1420,10.);
#359=VECTOR('',#1423,10.);
#360=VECTOR('',#1444,10.);
#361=VECTOR('',#1445,10.);
#362=VECTOR('',#1450,10.);
#363=VECTOR('',#1453,10.);
#364=VECTOR('',#1456,10.);
#365=VECTOR('',#1457,10.);
#366=VECTOR('',#1462,10.);
#367=VECTOR('',#1463,10.);
#368=VECTOR('',#1466,10.);
#369=VECTOR('',#1467,10.);
#370=VECTOR('',#1472,10.);
#371=VECTOR('',#1473,10.);
#372=VECTOR('',#1476,10.);
#373=VECTOR('',#1477,10.);
#374=VECTOR('',#1480,10.);
#375=VECTOR('',#1483,10.);
#376=VECTOR('',#1484,10.);
#377=VECTOR('',#1485,10.);
#378=VECTOR('',#1488,10.);
#379=VECTOR('',#1491,10.);
#380=VECTOR('',#1494,10.);
#381=VECTOR('',#1503,10.);
#382=VECTOR('',#1504,10.);
#383=VECTOR('',#1507,10.);
#384=VECTOR('',#1508,10.);
#385=VECTOR('',#1513,10.);
#386=VECTOR('',#1514,10.);
#387=VECTOR('',#1517,10.);
#388=VECTOR('',#1522,10.);
#389=VECTOR('',#1525,10.);
#390=VECTOR('',#1526,10.);
#391=VECTOR('',#1531,10.);
#392=VECTOR('',#1534,10.);
#393=VECTOR('',#1543,10.);
#394=VECTOR('',#1546,10.);
#395=VECTOR('',#1551,10.);
#396=VECTOR('',#1554,10.);
#397=VECTOR('',#1563,10.);
#398=VECTOR('',#1566,10.);
#399=VECTOR('',#1575,10.);
#400=VECTOR('',#1578,10.);
#401=VECTOR('',#1589,10.);
#402=VECTOR('',#1592,10.);
#403=VECTOR('',#1595,10.);
#404=VECTOR('',#1596,10.);
#405=VECTOR('',#1599,10.);
#406=VECTOR('',#1604,10.);
#407=VECTOR('',#1605,10.);
#408=VECTOR('',#1608,10.);
#409=VECTOR('',#1609,10.);
#410=VECTOR('',#1610,10.);
#411=VECTOR('',#1611,10.);
#412=VECTOR('',#1614,10.);
#413=VECTOR('',#1619,10.);
#414=VECTOR('',#1622,10.);
#415=VECTOR('',#1623,10.);
#416=VECTOR('',#1624,10.);
#417=VECTOR('',#1625,10.);
#418=VECTOR('',#1626,10.);
#419=VECTOR('',#1629,10.);
#420=VECTOR('',#1630,10.);
#421=VECTOR('',#1635,10.);
#422=VECTOR('',#1636,10.);
#423=VECTOR('',#1639,10.);
#424=VECTOR('',#1642,10.);
#425=VECTOR('',#1649,10.);
#426=VECTOR('',#1650,10.);
#427=VECTOR('',#1651,10.);
#428=VECTOR('',#1652,10.);
#429=VECTOR('',#1655,10.);
#430=VECTOR('',#1656,10.);
#431=VECTOR('',#1657,10.);
#432=VECTOR('',#1660,10.);
#433=VECTOR('',#1661,10.);
#434=VECTOR('',#1662,10.);
#435=VECTOR('',#1665,10.);
#436=VECTOR('',#1666,10.);
#437=VECTOR('',#1669,10.);
#438=VECTOR('',#1670,10.);
#439=VECTOR('',#1671,10.);
#440=VECTOR('',#1672,10.);
#441=VECTOR('',#1675,10.);
#442=VECTOR('',#1676,10.);
#443=VECTOR('',#1677,10.);
#444=VECTOR('',#1680,10.);
#445=VECTOR('',#1681,10.);
#446=VECTOR('',#1682,10.);
#447=VECTOR('',#1685,10.);
#448=VECTOR('',#1686,10.);
#449=CIRCLE('',#1204,0.5);
#450=CIRCLE('',#1205,0.5);
#451=CIRCLE('',#1207,0.499999999999999);
#452=CIRCLE('',#1208,0.499999999999999);
#453=CIRCLE('',#1210,0.5);
#454=CIRCLE('',#1211,0.500000000000007);
#455=CIRCLE('',#1213,0.499999999999989);
#456=CIRCLE('',#1214,0.5);
#457=CIRCLE('',#1216,0.5);
#458=CIRCLE('',#1218,0.500000000000002);
#459=CIRCLE('',#1220,0.5);
#460=CIRCLE('',#1223,0.5);
#461=CIRCLE('',#1226,0.5);
#462=CIRCLE('',#1229,0.499999999999994);
#463=CIRCLE('',#1231,0.5);
#464=CIRCLE('',#1233,0.5);
#465=CIRCLE('',#1238,0.5);
#466=CIRCLE('',#1241,0.5);
#467=CIRCLE('',#1242,0.5);
#468=CIRCLE('',#1243,0.499999999999989);
#469=CIRCLE('',#1245,0.499999999999998);
#470=CIRCLE('',#1246,0.5);
#471=CIRCLE('',#1247,0.5);
#472=CIRCLE('',#1251,0.5);
#473=CIRCLE('',#1254,0.5);
#474=CIRCLE('',#1257,0.5);
#475=CIRCLE('',#1261,1.);
#476=CIRCLE('',#1262,1.);
#477=CIRCLE('',#1263,1.);
#478=CIRCLE('',#1264,1.);
#479=CIRCLE('',#1267,1.);
#480=CIRCLE('',#1270,1.);
#481=CIRCLE('',#1273,1.);
#482=CIRCLE('',#1276,1.);
#483=CIRCLE('',#1281,1.);
#484=CIRCLE('',#1282,1.);
#485=CIRCLE('',#1284,1.);
#486=CIRCLE('',#1285,1.);
#487=CIRCLE('',#1287,1.);
#488=CIRCLE('',#1289,1.);
#489=CIRCLE('',#1290,0.999999999999996);
#490=CIRCLE('',#1292,1.);
#491=CIRCLE('',#1294,1.);
#492=CIRCLE('',#1295,1.);
#493=CIRCLE('',#1297,1.);
#494=CIRCLE('',#1299,1.);
#495=CIRCLE('',#1301,1.);
#496=CIRCLE('',#1304,1.);
#497=CIRCLE('',#1308,1.);
#498=CIRCLE('',#1310,1.);
#499=VERTEX_POINT('',#1693);
#500=VERTEX_POINT('',#1694);
#501=VERTEX_POINT('',#1696);
#502=VERTEX_POINT('',#1698);
#503=VERTEX_POINT('',#1702);
#504=VERTEX_POINT('',#1706);
#505=VERTEX_POINT('',#1707);
#506=VERTEX_POINT('',#1709);
#507=VERTEX_POINT('',#1711);
#508=VERTEX_POINT('',#1715);
#509=VERTEX_POINT('',#1717);
#510=VERTEX_POINT('',#1726);
#511=VERTEX_POINT('',#1728);
#512=VERTEX_POINT('',#1732);
#513=VERTEX_POINT('',#1736);
#514=VERTEX_POINT('',#1742);
#515=VERTEX_POINT('',#1744);
#516=VERTEX_POINT('',#1748);
#517=VERTEX_POINT('',#1752);
#518=VERTEX_POINT('',#1756);
#519=VERTEX_POINT('',#1767);
#520=VERTEX_POINT('',#1768);
#521=VERTEX_POINT('',#1770);
#522=VERTEX_POINT('',#1772);
#523=VERTEX_POINT('',#1776);
#524=VERTEX_POINT('',#1777);
#525=VERTEX_POINT('',#1779);
#526=VERTEX_POINT('',#1783);
#527=VERTEX_POINT('',#1784);
#528=VERTEX_POINT('',#1786);
#529=VERTEX_POINT('',#1790);
#530=VERTEX_POINT('',#1792);
#531=VERTEX_POINT('',#1796);
#532=VERTEX_POINT('',#1798);
#533=VERTEX_POINT('',#1805);
#534=VERTEX_POINT('',#1806);
#535=VERTEX_POINT('',#1814);
#536=VERTEX_POINT('',#1815);
#537=VERTEX_POINT('',#1827);
#538=VERTEX_POINT('',#1828);
#539=VERTEX_POINT('',#1830);
#540=VERTEX_POINT('',#1832);
#541=VERTEX_POINT('',#1834);
#542=VERTEX_POINT('',#1836);
#543=VERTEX_POINT('',#1838);
#544=VERTEX_POINT('',#1840);
#545=VERTEX_POINT('',#1845);
#546=VERTEX_POINT('',#1846);
#547=VERTEX_POINT('',#1851);
#548=VERTEX_POINT('',#1855);
#549=VERTEX_POINT('',#1856);
#550=VERTEX_POINT('',#1863);
#551=VERTEX_POINT('',#1867);
#552=VERTEX_POINT('',#1871);
#553=VERTEX_POINT('',#1879);
#554=VERTEX_POINT('',#1880);
#555=VERTEX_POINT('',#1882);
#556=VERTEX_POINT('',#1884);
#557=VERTEX_POINT('',#1888);
#558=VERTEX_POINT('',#1889);
#559=VERTEX_POINT('',#1891);
#560=VERTEX_POINT('',#1898);
#561=VERTEX_POINT('',#1899);
#562=VERTEX_POINT('',#1901);
#563=VERTEX_POINT('',#1908);
#564=VERTEX_POINT('',#1910);
#565=VERTEX_POINT('',#1919);
#566=VERTEX_POINT('',#1921);
#567=VERTEX_POINT('',#1925);
#568=VERTEX_POINT('',#1929);
#569=VERTEX_POINT('',#1933);
#570=VERTEX_POINT('',#1937);
#571=VERTEX_POINT('',#1938);
#572=VERTEX_POINT('',#1940);
#573=VERTEX_POINT('',#1942);
#574=VERTEX_POINT('',#1946);
#575=VERTEX_POINT('',#1950);
#576=VERTEX_POINT('',#1952);
#577=VERTEX_POINT('',#1955);
#578=VERTEX_POINT('',#1956);
#579=VERTEX_POINT('',#1958);
#580=VERTEX_POINT('',#1960);
#581=VERTEX_POINT('',#1977);
#582=VERTEX_POINT('',#1978);
#583=VERTEX_POINT('',#1980);
#584=VERTEX_POINT('',#1982);
#585=VERTEX_POINT('',#1986);
#586=VERTEX_POINT('',#1988);
#587=VERTEX_POINT('',#1992);
#588=VERTEX_POINT('',#1994);
#589=VERTEX_POINT('',#2001);
#590=VERTEX_POINT('',#2002);
#591=VERTEX_POINT('',#2004);
#592=VERTEX_POINT('',#2006);
#593=VERTEX_POINT('',#2010);
#594=VERTEX_POINT('',#2012);
#595=VERTEX_POINT('',#2016);
#596=VERTEX_POINT('',#2018);
#597=EDGE_CURVE('',#499,#500,#449,.T.);
#598=EDGE_CURVE('',#500,#501,#227,.T.);
#599=EDGE_CURVE('',#501,#502,#450,.T.);
#600=EDGE_CURVE('',#502,#499,#228,.T.);
#601=EDGE_CURVE('',#501,#503,#451,.T.);
#602=EDGE_CURVE('',#503,#502,#452,.T.);
#603=EDGE_CURVE('',#504,#505,#453,.T.);
#604=EDGE_CURVE('',#505,#506,#229,.T.);
#605=EDGE_CURVE('',#506,#507,#454,.T.);
#606=EDGE_CURVE('',#507,#504,#230,.T.);
#607=EDGE_CURVE('',#508,#499,#455,.T.);
#608=EDGE_CURVE('',#499,#509,#231,.T.);
#609=EDGE_CURVE('',#509,#506,#456,.T.);
#610=EDGE_CURVE('',#506,#508,#232,.T.);
#611=EDGE_CURVE('',#509,#507,#457,.T.);
#612=EDGE_CURVE('',#508,#500,#458,.T.);
#613=EDGE_CURVE('',#501,#510,#233,.T.);
#614=EDGE_CURVE('',#510,#511,#459,.T.);
#615=EDGE_CURVE('',#511,#503,#234,.T.);
#616=EDGE_CURVE('',#512,#500,#235,.T.);
#617=EDGE_CURVE('',#510,#512,#236,.T.);
#618=EDGE_CURVE('',#508,#513,#237,.T.);
#619=EDGE_CURVE('',#513,#512,#460,.T.);
#620=EDGE_CURVE('',#513,#505,#238,.T.);
#621=EDGE_CURVE('',#504,#514,#239,.T.);
#622=EDGE_CURVE('',#515,#514,#461,.T.);
#623=EDGE_CURVE('',#515,#511,#240,.T.);
#624=EDGE_CURVE('',#516,#502,#241,.T.);
#625=EDGE_CURVE('',#509,#516,#242,.T.);
#626=EDGE_CURVE('',#503,#517,#243,.T.);
#627=EDGE_CURVE('',#517,#516,#462,.T.);
#628=EDGE_CURVE('',#514,#518,#244,.T.);
#629=EDGE_CURVE('',#518,#517,#463,.T.);
#630=EDGE_CURVE('',#517,#515,#245,.T.);
#631=EDGE_CURVE('',#518,#516,#464,.T.);
#632=EDGE_CURVE('',#518,#507,#246,.T.);
#633=EDGE_CURVE('',#519,#520,#247,.T.);
#634=EDGE_CURVE('',#520,#521,#465,.T.);
#635=EDGE_CURVE('',#521,#522,#248,.T.);
#636=EDGE_CURVE('',#522,#519,#19,.T.);
#637=EDGE_CURVE('',#523,#524,#466,.F.);
#638=EDGE_CURVE('',#525,#523,#467,.F.);
#639=EDGE_CURVE('',#524,#525,#468,.F.);
#640=EDGE_CURVE('',#526,#527,#469,.F.);
#641=EDGE_CURVE('',#528,#526,#470,.F.);
#642=EDGE_CURVE('',#527,#528,#471,.F.);
#643=EDGE_CURVE('',#529,#528,#249,.T.);
#644=EDGE_CURVE('',#526,#530,#250,.T.);
#645=EDGE_CURVE('',#530,#529,#20,.T.);
#646=EDGE_CURVE('',#530,#531,#251,.T.);
#647=EDGE_CURVE('',#531,#532,#472,.T.);
#648=EDGE_CURVE('',#532,#529,#252,.T.);
#649=EDGE_CURVE('',#523,#527,#253,.T.);
#650=EDGE_CURVE('',#528,#525,#254,.T.);
#651=EDGE_CURVE('',#533,#534,#473,.T.);
#652=EDGE_CURVE('',#534,#526,#255,.T.);
#653=EDGE_CURVE('',#527,#533,#256,.T.);
#654=EDGE_CURVE('',#522,#524,#257,.T.);
#655=EDGE_CURVE('',#525,#519,#258,.T.);
#656=EDGE_CURVE('',#535,#536,#474,.T.);
#657=EDGE_CURVE('',#536,#523,#259,.T.);
#658=EDGE_CURVE('',#524,#535,#260,.T.);
#659=EDGE_CURVE('',#520,#532,#261,.T.);
#660=EDGE_CURVE('',#519,#529,#262,.T.);
#661=EDGE_CURVE('',#531,#534,#263,.T.);
#662=EDGE_CURVE('',#533,#536,#264,.T.);
#663=EDGE_CURVE('',#535,#521,#265,.T.);
#664=EDGE_CURVE('',#537,#538,#266,.T.);
#665=EDGE_CURVE('',#539,#538,#475,.T.);
#666=EDGE_CURVE('',#539,#540,#267,.T.);
#667=EDGE_CURVE('',#541,#540,#476,.T.);
#668=EDGE_CURVE('',#541,#542,#268,.T.);
#669=EDGE_CURVE('',#543,#542,#477,.T.);
#670=EDGE_CURVE('',#543,#544,#269,.T.);
#671=EDGE_CURVE('',#537,#544,#478,.T.);
#672=EDGE_CURVE('',#545,#546,#479,.T.);
#673=EDGE_CURVE('',#546,#543,#270,.T.);
#674=EDGE_CURVE('',#542,#545,#271,.T.);
#675=EDGE_CURVE('',#546,#547,#272,.T.);
#676=EDGE_CURVE('',#544,#547,#273,.T.);
#677=EDGE_CURVE('',#548,#549,#480,.T.);
#678=EDGE_CURVE('',#549,#541,#274,.T.);
#679=EDGE_CURVE('',#540,#548,#275,.T.);
#680=EDGE_CURVE('',#549,#545,#276,.T.);
#681=EDGE_CURVE('',#547,#550,#481,.T.);
#682=EDGE_CURVE('',#550,#537,#277,.T.);
#683=EDGE_CURVE('',#550,#551,#278,.T.);
#684=EDGE_CURVE('',#538,#551,#279,.T.);
#685=EDGE_CURVE('',#551,#552,#482,.T.);
#686=EDGE_CURVE('',#552,#539,#280,.T.);
#687=EDGE_CURVE('',#552,#548,#281,.T.);
#688=EDGE_CURVE('',#553,#554,#483,.T.);
#689=EDGE_CURVE('',#554,#555,#282,.T.);
#690=EDGE_CURVE('',#555,#556,#484,.T.);
#691=EDGE_CURVE('',#556,#553,#283,.T.);
#692=EDGE_CURVE('',#557,#558,#485,.T.);
#693=EDGE_CURVE('',#558,#559,#284,.T.);
#694=EDGE_CURVE('',#559,#553,#486,.T.);
#695=EDGE_CURVE('',#553,#557,#285,.T.);
#696=EDGE_CURVE('',#559,#554,#487,.T.);
#697=EDGE_CURVE('',#560,#561,#488,.T.);
#698=EDGE_CURVE('',#561,#562,#286,.T.);
#699=EDGE_CURVE('',#562,#557,#489,.T.);
#700=EDGE_CURVE('',#557,#560,#287,.T.);
#701=EDGE_CURVE('',#562,#558,#490,.T.);
#702=EDGE_CURVE('',#556,#563,#491,.T.);
#703=EDGE_CURVE('',#563,#564,#288,.T.);
#704=EDGE_CURVE('',#564,#560,#492,.T.);
#705=EDGE_CURVE('',#560,#556,#289,.T.);
#706=EDGE_CURVE('',#564,#561,#493,.T.);
#707=EDGE_CURVE('',#555,#563,#494,.T.);
#708=EDGE_CURVE('',#562,#565,#290,.T.);
#709=EDGE_CURVE('',#565,#566,#495,.T.);
#710=EDGE_CURVE('',#566,#558,#291,.T.);
#711=EDGE_CURVE('',#567,#561,#292,.T.);
#712=EDGE_CURVE('',#567,#565,#293,.T.);
#713=EDGE_CURVE('',#564,#568,#294,.T.);
#714=EDGE_CURVE('',#568,#567,#496,.T.);
#715=EDGE_CURVE('',#569,#563,#295,.T.);
#716=EDGE_CURVE('',#569,#568,#296,.T.);
#717=EDGE_CURVE('',#570,#571,#297,.T.);
#718=EDGE_CURVE('',#571,#572,#298,.T.);
#719=EDGE_CURVE('',#572,#573,#299,.T.);
#720=EDGE_CURVE('',#573,#570,#300,.T.);
#721=EDGE_CURVE('',#555,#574,#301,.T.);
#722=EDGE_CURVE('',#574,#569,#497,.T.);
#723=EDGE_CURVE('',#575,#574,#302,.T.);
#724=EDGE_CURVE('',#576,#575,#498,.T.);
#725=EDGE_CURVE('',#566,#576,#303,.T.);
#726=EDGE_CURVE('',#577,#578,#304,.T.);
#727=EDGE_CURVE('',#579,#577,#305,.T.);
#728=EDGE_CURVE('',#580,#579,#306,.T.);
#729=EDGE_CURVE('',#578,#580,#307,.T.);
#730=EDGE_CURVE('',#559,#576,#308,.T.);
#731=EDGE_CURVE('',#575,#554,#309,.T.);
#732=EDGE_CURVE('',#577,#570,#310,.T.);
#733=EDGE_CURVE('',#579,#573,#311,.T.);
#734=EDGE_CURVE('',#580,#572,#312,.T.);
#735=EDGE_CURVE('',#578,#571,#313,.T.);
#736=EDGE_CURVE('',#581,#582,#314,.T.);
#737=EDGE_CURVE('',#582,#583,#315,.T.);
#738=EDGE_CURVE('',#584,#583,#316,.T.);
#739=EDGE_CURVE('',#581,#584,#317,.T.);
#740=EDGE_CURVE('',#585,#581,#318,.T.);
#741=EDGE_CURVE('',#586,#584,#319,.T.);
#742=EDGE_CURVE('',#585,#586,#320,.T.);
#743=EDGE_CURVE('',#587,#585,#321,.T.);
#744=EDGE_CURVE('',#588,#586,#322,.T.);
#745=EDGE_CURVE('',#587,#588,#323,.T.);
#746=EDGE_CURVE('',#582,#587,#324,.T.);
#747=EDGE_CURVE('',#583,#588,#325,.T.);
#748=EDGE_CURVE('',#589,#590,#326,.T.);
#749=EDGE_CURVE('',#590,#591,#327,.T.);
#750=EDGE_CURVE('',#592,#591,#328,.T.);
#751=EDGE_CURVE('',#589,#592,#329,.T.);
#752=EDGE_CURVE('',#593,#589,#330,.T.);
#753=EDGE_CURVE('',#594,#592,#331,.T.);
#754=EDGE_CURVE('',#593,#594,#332,.T.);
#755=EDGE_CURVE('',#595,#593,#333,.T.);
#756=EDGE_CURVE('',#596,#594,#334,.T.);
#757=EDGE_CURVE('',#595,#596,#335,.T.);
#758=EDGE_CURVE('',#590,#595,#336,.T.);
#759=EDGE_CURVE('',#591,#596,#337,.T.);
#760=ORIENTED_EDGE('',*,*,#597,.T.);
#761=ORIENTED_EDGE('',*,*,#598,.T.);
#762=ORIENTED_EDGE('',*,*,#599,.T.);
#763=ORIENTED_EDGE('',*,*,#600,.T.);
#764=ORIENTED_EDGE('',*,*,#599,.F.);
#765=ORIENTED_EDGE('',*,*,#601,.T.);
#766=ORIENTED_EDGE('',*,*,#602,.T.);
#767=ORIENTED_EDGE('',*,*,#603,.T.);
#768=ORIENTED_EDGE('',*,*,#604,.T.);
#769=ORIENTED_EDGE('',*,*,#605,.T.);
#770=ORIENTED_EDGE('',*,*,#606,.T.);
#771=ORIENTED_EDGE('',*,*,#607,.T.);
#772=ORIENTED_EDGE('',*,*,#608,.T.);
#773=ORIENTED_EDGE('',*,*,#609,.T.);
#774=ORIENTED_EDGE('',*,*,#610,.T.);
#775=ORIENTED_EDGE('',*,*,#609,.F.);
#776=ORIENTED_EDGE('',*,*,#611,.T.);
#777=ORIENTED_EDGE('',*,*,#605,.F.);
#778=ORIENTED_EDGE('',*,*,#607,.F.);
#779=ORIENTED_EDGE('',*,*,#612,.T.);
#780=ORIENTED_EDGE('',*,*,#597,.F.);
#781=ORIENTED_EDGE('',*,*,#601,.F.);
#782=ORIENTED_EDGE('',*,*,#613,.T.);
#783=ORIENTED_EDGE('',*,*,#614,.T.);
#784=ORIENTED_EDGE('',*,*,#615,.T.);
#785=ORIENTED_EDGE('',*,*,#598,.F.);
#786=ORIENTED_EDGE('',*,*,#616,.F.);
#787=ORIENTED_EDGE('',*,*,#617,.F.);
#788=ORIENTED_EDGE('',*,*,#613,.F.);
#789=ORIENTED_EDGE('',*,*,#612,.F.);
#790=ORIENTED_EDGE('',*,*,#618,.T.);
#791=ORIENTED_EDGE('',*,*,#619,.T.);
#792=ORIENTED_EDGE('',*,*,#616,.T.);
#793=ORIENTED_EDGE('',*,*,#610,.F.);
#794=ORIENTED_EDGE('',*,*,#604,.F.);
#795=ORIENTED_EDGE('',*,*,#620,.F.);
#796=ORIENTED_EDGE('',*,*,#618,.F.);
#797=ORIENTED_EDGE('',*,*,#603,.F.);
#798=ORIENTED_EDGE('',*,*,#621,.T.);
#799=ORIENTED_EDGE('',*,*,#622,.F.);
#800=ORIENTED_EDGE('',*,*,#623,.T.);
#801=ORIENTED_EDGE('',*,*,#614,.F.);
#802=ORIENTED_EDGE('',*,*,#617,.T.);
#803=ORIENTED_EDGE('',*,*,#619,.F.);
#804=ORIENTED_EDGE('',*,*,#620,.T.);
#805=ORIENTED_EDGE('',*,*,#600,.F.);
#806=ORIENTED_EDGE('',*,*,#624,.F.);
#807=ORIENTED_EDGE('',*,*,#625,.F.);
#808=ORIENTED_EDGE('',*,*,#608,.F.);
#809=ORIENTED_EDGE('',*,*,#602,.F.);
#810=ORIENTED_EDGE('',*,*,#626,.T.);
#811=ORIENTED_EDGE('',*,*,#627,.T.);
#812=ORIENTED_EDGE('',*,*,#624,.T.);
#813=ORIENTED_EDGE('',*,*,#622,.T.);
#814=ORIENTED_EDGE('',*,*,#628,.T.);
#815=ORIENTED_EDGE('',*,*,#629,.T.);
#816=ORIENTED_EDGE('',*,*,#630,.T.);
#817=ORIENTED_EDGE('',*,*,#629,.F.);
#818=ORIENTED_EDGE('',*,*,#631,.T.);
#819=ORIENTED_EDGE('',*,*,#627,.F.);
#820=ORIENTED_EDGE('',*,*,#611,.F.);
#821=ORIENTED_EDGE('',*,*,#625,.T.);
#822=ORIENTED_EDGE('',*,*,#631,.F.);
#823=ORIENTED_EDGE('',*,*,#632,.T.);
#824=ORIENTED_EDGE('',*,*,#606,.F.);
#825=ORIENTED_EDGE('',*,*,#632,.F.);
#826=ORIENTED_EDGE('',*,*,#628,.F.);
#827=ORIENTED_EDGE('',*,*,#621,.F.);
#828=ORIENTED_EDGE('',*,*,#615,.F.);
#829=ORIENTED_EDGE('',*,*,#623,.F.);
#830=ORIENTED_EDGE('',*,*,#630,.F.);
#831=ORIENTED_EDGE('',*,*,#626,.F.);
#832=ORIENTED_EDGE('',*,*,#633,.T.);
#833=ORIENTED_EDGE('',*,*,#634,.T.);
#834=ORIENTED_EDGE('',*,*,#635,.T.);
#835=ORIENTED_EDGE('',*,*,#636,.T.);
#836=ORIENTED_EDGE('',*,*,#637,.F.);
#837=ORIENTED_EDGE('',*,*,#638,.F.);
#838=ORIENTED_EDGE('',*,*,#639,.F.);
#839=ORIENTED_EDGE('',*,*,#640,.F.);
#840=ORIENTED_EDGE('',*,*,#641,.F.);
#841=ORIENTED_EDGE('',*,*,#642,.F.);
#842=ORIENTED_EDGE('',*,*,#643,.T.);
#843=ORIENTED_EDGE('',*,*,#641,.T.);
#844=ORIENTED_EDGE('',*,*,#644,.T.);
#845=ORIENTED_EDGE('',*,*,#645,.T.);
#846=ORIENTED_EDGE('',*,*,#646,.T.);
#847=ORIENTED_EDGE('',*,*,#647,.T.);
#848=ORIENTED_EDGE('',*,*,#648,.T.);
#849=ORIENTED_EDGE('',*,*,#645,.F.);
#850=ORIENTED_EDGE('',*,*,#638,.T.);
#851=ORIENTED_EDGE('',*,*,#649,.T.);
#852=ORIENTED_EDGE('',*,*,#642,.T.);
#853=ORIENTED_EDGE('',*,*,#650,.T.);
#854=ORIENTED_EDGE('',*,*,#651,.T.);
#855=ORIENTED_EDGE('',*,*,#652,.T.);
#856=ORIENTED_EDGE('',*,*,#640,.T.);
#857=ORIENTED_EDGE('',*,*,#653,.T.);
#858=ORIENTED_EDGE('',*,*,#654,.T.);
#859=ORIENTED_EDGE('',*,*,#639,.T.);
#860=ORIENTED_EDGE('',*,*,#655,.T.);
#861=ORIENTED_EDGE('',*,*,#636,.F.);
#862=ORIENTED_EDGE('',*,*,#656,.T.);
#863=ORIENTED_EDGE('',*,*,#657,.T.);
#864=ORIENTED_EDGE('',*,*,#637,.T.);
#865=ORIENTED_EDGE('',*,*,#658,.T.);
#866=ORIENTED_EDGE('',*,*,#648,.F.);
#867=ORIENTED_EDGE('',*,*,#659,.F.);
#868=ORIENTED_EDGE('',*,*,#633,.F.);
#869=ORIENTED_EDGE('',*,*,#660,.T.);
#870=ORIENTED_EDGE('',*,*,#646,.F.);
#871=ORIENTED_EDGE('',*,*,#644,.F.);
#872=ORIENTED_EDGE('',*,*,#652,.F.);
#873=ORIENTED_EDGE('',*,*,#661,.F.);
#874=ORIENTED_EDGE('',*,*,#647,.F.);
#875=ORIENTED_EDGE('',*,*,#661,.T.);
#876=ORIENTED_EDGE('',*,*,#651,.F.);
#877=ORIENTED_EDGE('',*,*,#662,.T.);
#878=ORIENTED_EDGE('',*,*,#656,.F.);
#879=ORIENTED_EDGE('',*,*,#663,.T.);
#880=ORIENTED_EDGE('',*,*,#634,.F.);
#881=ORIENTED_EDGE('',*,*,#659,.T.);
#882=ORIENTED_EDGE('',*,*,#664,.T.);
#883=ORIENTED_EDGE('',*,*,#665,.F.);
#884=ORIENTED_EDGE('',*,*,#666,.T.);
#885=ORIENTED_EDGE('',*,*,#667,.F.);
#886=ORIENTED_EDGE('',*,*,#668,.T.);
#887=ORIENTED_EDGE('',*,*,#669,.F.);
#888=ORIENTED_EDGE('',*,*,#670,.T.);
#889=ORIENTED_EDGE('',*,*,#671,.F.);
#890=ORIENTED_EDGE('',*,*,#653,.F.);
#891=ORIENTED_EDGE('',*,*,#649,.F.);
#892=ORIENTED_EDGE('',*,*,#657,.F.);
#893=ORIENTED_EDGE('',*,*,#662,.F.);
#894=ORIENTED_EDGE('',*,*,#672,.T.);
#895=ORIENTED_EDGE('',*,*,#673,.T.);
#896=ORIENTED_EDGE('',*,*,#669,.T.);
#897=ORIENTED_EDGE('',*,*,#674,.T.);
#898=ORIENTED_EDGE('',*,*,#673,.F.);
#899=ORIENTED_EDGE('',*,*,#675,.T.);
#900=ORIENTED_EDGE('',*,*,#676,.F.);
#901=ORIENTED_EDGE('',*,*,#670,.F.);
#902=ORIENTED_EDGE('',*,*,#677,.T.);
#903=ORIENTED_EDGE('',*,*,#678,.T.);
#904=ORIENTED_EDGE('',*,*,#667,.T.);
#905=ORIENTED_EDGE('',*,*,#679,.T.);
#906=ORIENTED_EDGE('',*,*,#674,.F.);
#907=ORIENTED_EDGE('',*,*,#668,.F.);
#908=ORIENTED_EDGE('',*,*,#678,.F.);
#909=ORIENTED_EDGE('',*,*,#680,.T.);
#910=ORIENTED_EDGE('',*,*,#681,.T.);
#911=ORIENTED_EDGE('',*,*,#682,.T.);
#912=ORIENTED_EDGE('',*,*,#671,.T.);
#913=ORIENTED_EDGE('',*,*,#676,.T.);
#914=ORIENTED_EDGE('',*,*,#682,.F.);
#915=ORIENTED_EDGE('',*,*,#683,.T.);
#916=ORIENTED_EDGE('',*,*,#684,.F.);
#917=ORIENTED_EDGE('',*,*,#664,.F.);
#918=ORIENTED_EDGE('',*,*,#685,.T.);
#919=ORIENTED_EDGE('',*,*,#686,.T.);
#920=ORIENTED_EDGE('',*,*,#665,.T.);
#921=ORIENTED_EDGE('',*,*,#684,.T.);
#922=ORIENTED_EDGE('',*,*,#679,.F.);
#923=ORIENTED_EDGE('',*,*,#666,.F.);
#924=ORIENTED_EDGE('',*,*,#686,.F.);
#925=ORIENTED_EDGE('',*,*,#687,.T.);
#926=ORIENTED_EDGE('',*,*,#635,.F.);
#927=ORIENTED_EDGE('',*,*,#663,.F.);
#928=ORIENTED_EDGE('',*,*,#658,.F.);
#929=ORIENTED_EDGE('',*,*,#654,.F.);
#930=ORIENTED_EDGE('',*,*,#643,.F.);
#931=ORIENTED_EDGE('',*,*,#660,.F.);
#932=ORIENTED_EDGE('',*,*,#655,.F.);
#933=ORIENTED_EDGE('',*,*,#650,.F.);
#934=ORIENTED_EDGE('',*,*,#681,.F.);
#935=ORIENTED_EDGE('',*,*,#675,.F.);
#936=ORIENTED_EDGE('',*,*,#672,.F.);
#937=ORIENTED_EDGE('',*,*,#680,.F.);
#938=ORIENTED_EDGE('',*,*,#677,.F.);
#939=ORIENTED_EDGE('',*,*,#687,.F.);
#940=ORIENTED_EDGE('',*,*,#685,.F.);
#941=ORIENTED_EDGE('',*,*,#683,.F.);
#942=ORIENTED_EDGE('',*,*,#688,.T.);
#943=ORIENTED_EDGE('',*,*,#689,.T.);
#944=ORIENTED_EDGE('',*,*,#690,.T.);
#945=ORIENTED_EDGE('',*,*,#691,.T.);
#946=ORIENTED_EDGE('',*,*,#692,.T.);
#947=ORIENTED_EDGE('',*,*,#693,.T.);
#948=ORIENTED_EDGE('',*,*,#694,.T.);
#949=ORIENTED_EDGE('',*,*,#695,.T.);
#950=ORIENTED_EDGE('',*,*,#694,.F.);
#951=ORIENTED_EDGE('',*,*,#696,.T.);
#952=ORIENTED_EDGE('',*,*,#688,.F.);
#953=ORIENTED_EDGE('',*,*,#697,.T.);
#954=ORIENTED_EDGE('',*,*,#698,.T.);
#955=ORIENTED_EDGE('',*,*,#699,.T.);
#956=ORIENTED_EDGE('',*,*,#700,.T.);
#957=ORIENTED_EDGE('',*,*,#699,.F.);
#958=ORIENTED_EDGE('',*,*,#701,.T.);
#959=ORIENTED_EDGE('',*,*,#692,.F.);
#960=ORIENTED_EDGE('',*,*,#702,.T.);
#961=ORIENTED_EDGE('',*,*,#703,.T.);
#962=ORIENTED_EDGE('',*,*,#704,.T.);
#963=ORIENTED_EDGE('',*,*,#705,.T.);
#964=ORIENTED_EDGE('',*,*,#704,.F.);
#965=ORIENTED_EDGE('',*,*,#706,.T.);
#966=ORIENTED_EDGE('',*,*,#697,.F.);
#967=ORIENTED_EDGE('',*,*,#690,.F.);
#968=ORIENTED_EDGE('',*,*,#707,.T.);
#969=ORIENTED_EDGE('',*,*,#702,.F.);
#970=ORIENTED_EDGE('',*,*,#701,.F.);
#971=ORIENTED_EDGE('',*,*,#708,.T.);
#972=ORIENTED_EDGE('',*,*,#709,.T.);
#973=ORIENTED_EDGE('',*,*,#710,.T.);
#974=ORIENTED_EDGE('',*,*,#698,.F.);
#975=ORIENTED_EDGE('',*,*,#711,.F.);
#976=ORIENTED_EDGE('',*,*,#712,.T.);
#977=ORIENTED_EDGE('',*,*,#708,.F.);
#978=ORIENTED_EDGE('',*,*,#706,.F.);
#979=ORIENTED_EDGE('',*,*,#713,.T.);
#980=ORIENTED_EDGE('',*,*,#714,.T.);
#981=ORIENTED_EDGE('',*,*,#711,.T.);
#982=ORIENTED_EDGE('',*,*,#703,.F.);
#983=ORIENTED_EDGE('',*,*,#715,.F.);
#984=ORIENTED_EDGE('',*,*,#716,.T.);
#985=ORIENTED_EDGE('',*,*,#713,.F.);
#986=ORIENTED_EDGE('',*,*,#691,.F.);
#987=ORIENTED_EDGE('',*,*,#705,.F.);
#988=ORIENTED_EDGE('',*,*,#700,.F.);
#989=ORIENTED_EDGE('',*,*,#695,.F.);
#990=ORIENTED_EDGE('',*,*,#717,.T.);
#991=ORIENTED_EDGE('',*,*,#718,.T.);
#992=ORIENTED_EDGE('',*,*,#719,.T.);
#993=ORIENTED_EDGE('',*,*,#720,.T.);
#994=ORIENTED_EDGE('',*,*,#707,.F.);
#995=ORIENTED_EDGE('',*,*,#721,.T.);
#996=ORIENTED_EDGE('',*,*,#722,.T.);
#997=ORIENTED_EDGE('',*,*,#715,.T.);
#998=ORIENTED_EDGE('',*,*,#722,.F.);
#999=ORIENTED_EDGE('',*,*,#723,.F.);
#1000=ORIENTED_EDGE('',*,*,#724,.F.);
#1001=ORIENTED_EDGE('',*,*,#725,.F.);
#1002=ORIENTED_EDGE('',*,*,#709,.F.);
#1003=ORIENTED_EDGE('',*,*,#712,.F.);
#1004=ORIENTED_EDGE('',*,*,#714,.F.);
#1005=ORIENTED_EDGE('',*,*,#716,.F.);
#1006=ORIENTED_EDGE('',*,*,#726,.F.);
#1007=ORIENTED_EDGE('',*,*,#727,.F.);
#1008=ORIENTED_EDGE('',*,*,#728,.F.);
#1009=ORIENTED_EDGE('',*,*,#729,.F.);
#1010=ORIENTED_EDGE('',*,*,#696,.F.);
#1011=ORIENTED_EDGE('',*,*,#730,.T.);
#1012=ORIENTED_EDGE('',*,*,#724,.T.);
#1013=ORIENTED_EDGE('',*,*,#731,.T.);
#1014=ORIENTED_EDGE('',*,*,#689,.F.);
#1015=ORIENTED_EDGE('',*,*,#731,.F.);
#1016=ORIENTED_EDGE('',*,*,#723,.T.);
#1017=ORIENTED_EDGE('',*,*,#721,.F.);
#1018=ORIENTED_EDGE('',*,*,#727,.T.);
#1019=ORIENTED_EDGE('',*,*,#732,.T.);
#1020=ORIENTED_EDGE('',*,*,#720,.F.);
#1021=ORIENTED_EDGE('',*,*,#733,.F.);
#1022=ORIENTED_EDGE('',*,*,#728,.T.);
#1023=ORIENTED_EDGE('',*,*,#733,.T.);
#1024=ORIENTED_EDGE('',*,*,#719,.F.);
#1025=ORIENTED_EDGE('',*,*,#734,.F.);
#1026=ORIENTED_EDGE('',*,*,#729,.T.);
#1027=ORIENTED_EDGE('',*,*,#734,.T.);
#1028=ORIENTED_EDGE('',*,*,#718,.F.);
#1029=ORIENTED_EDGE('',*,*,#735,.F.);
#1030=ORIENTED_EDGE('',*,*,#726,.T.);
#1031=ORIENTED_EDGE('',*,*,#735,.T.);
#1032=ORIENTED_EDGE('',*,*,#717,.F.);
#1033=ORIENTED_EDGE('',*,*,#732,.F.);
#1034=ORIENTED_EDGE('',*,*,#693,.F.);
#1035=ORIENTED_EDGE('',*,*,#710,.F.);
#1036=ORIENTED_EDGE('',*,*,#725,.T.);
#1037=ORIENTED_EDGE('',*,*,#730,.F.);
#1038=ORIENTED_EDGE('',*,*,#736,.T.);
#1039=ORIENTED_EDGE('',*,*,#737,.T.);
#1040=ORIENTED_EDGE('',*,*,#738,.F.);
#1041=ORIENTED_EDGE('',*,*,#739,.F.);
#1042=ORIENTED_EDGE('',*,*,#740,.T.);
#1043=ORIENTED_EDGE('',*,*,#739,.T.);
#1044=ORIENTED_EDGE('',*,*,#741,.F.);
#1045=ORIENTED_EDGE('',*,*,#742,.F.);
#1046=ORIENTED_EDGE('',*,*,#743,.T.);
#1047=ORIENTED_EDGE('',*,*,#742,.T.);
#1048=ORIENTED_EDGE('',*,*,#744,.F.);
#1049=ORIENTED_EDGE('',*,*,#745,.F.);
#1050=ORIENTED_EDGE('',*,*,#746,.T.);
#1051=ORIENTED_EDGE('',*,*,#745,.T.);
#1052=ORIENTED_EDGE('',*,*,#747,.F.);
#1053=ORIENTED_EDGE('',*,*,#737,.F.);
#1054=ORIENTED_EDGE('',*,*,#748,.T.);
#1055=ORIENTED_EDGE('',*,*,#749,.T.);
#1056=ORIENTED_EDGE('',*,*,#750,.F.);
#1057=ORIENTED_EDGE('',*,*,#751,.F.);
#1058=ORIENTED_EDGE('',*,*,#752,.T.);
#1059=ORIENTED_EDGE('',*,*,#751,.T.);
#1060=ORIENTED_EDGE('',*,*,#753,.F.);
#1061=ORIENTED_EDGE('',*,*,#754,.F.);
#1062=ORIENTED_EDGE('',*,*,#755,.T.);
#1063=ORIENTED_EDGE('',*,*,#754,.T.);
#1064=ORIENTED_EDGE('',*,*,#756,.F.);
#1065=ORIENTED_EDGE('',*,*,#757,.F.);
#1066=ORIENTED_EDGE('',*,*,#758,.T.);
#1067=ORIENTED_EDGE('',*,*,#757,.T.);
#1068=ORIENTED_EDGE('',*,*,#759,.F.);
#1069=ORIENTED_EDGE('',*,*,#749,.F.);
#1070=ORIENTED_EDGE('',*,*,#759,.T.);
#1071=ORIENTED_EDGE('',*,*,#756,.T.);
#1072=ORIENTED_EDGE('',*,*,#753,.T.);
#1073=ORIENTED_EDGE('',*,*,#750,.T.);
#1074=ORIENTED_EDGE('',*,*,#747,.T.);
#1075=ORIENTED_EDGE('',*,*,#744,.T.);
#1076=ORIENTED_EDGE('',*,*,#741,.T.);
#1077=ORIENTED_EDGE('',*,*,#738,.T.);
#1078=ORIENTED_EDGE('',*,*,#758,.F.);
#1079=ORIENTED_EDGE('',*,*,#748,.F.);
#1080=ORIENTED_EDGE('',*,*,#752,.F.);
#1081=ORIENTED_EDGE('',*,*,#755,.F.);
#1082=ORIENTED_EDGE('',*,*,#746,.F.);
#1083=ORIENTED_EDGE('',*,*,#736,.F.);
#1084=ORIENTED_EDGE('',*,*,#740,.F.);
#1085=ORIENTED_EDGE('',*,*,#743,.F.);
#1086=CYLINDRICAL_SURFACE('',#1203,0.5);
#1087=CYLINDRICAL_SURFACE('',#1209,0.5);
#1088=CYLINDRICAL_SURFACE('',#1212,0.5);
#1089=CYLINDRICAL_SURFACE('',#1219,0.5);
#1090=CYLINDRICAL_SURFACE('',#1222,0.5);
#1091=CYLINDRICAL_SURFACE('',#1228,0.5);
#1092=CYLINDRICAL_SURFACE('',#1230,0.5);
#1093=CYLINDRICAL_SURFACE('',#1234,0.5);
#1094=CYLINDRICAL_SURFACE('',#1237,0.5);
#1095=CYLINDRICAL_SURFACE('',#1248,0.5);
#1096=CYLINDRICAL_SURFACE('',#1250,0.5);
#1097=CYLINDRICAL_SURFACE('',#1252,0.5);
#1098=CYLINDRICAL_SURFACE('',#1253,0.5);
#1099=CYLINDRICAL_SURFACE('',#1255,0.5);
#1100=CYLINDRICAL_SURFACE('',#1256,0.5);
#1101=CYLINDRICAL_SURFACE('',#1266,1.);
#1102=CYLINDRICAL_SURFACE('',#1269,1.);
#1103=CYLINDRICAL_SURFACE('',#1272,1.);
#1104=CYLINDRICAL_SURFACE('',#1275,1.);
#1105=CYLINDRICAL_SURFACE('',#1280,1.);
#1106=CYLINDRICAL_SURFACE('',#1283,1.);
#1107=CYLINDRICAL_SURFACE('',#1288,1.);
#1108=CYLINDRICAL_SURFACE('',#1293,1.);
#1109=CYLINDRICAL_SURFACE('',#1300,1.);
#1110=CYLINDRICAL_SURFACE('',#1303,1.);
#1111=CYLINDRICAL_SURFACE('',#1307,1.);
#1112=CYLINDRICAL_SURFACE('',#1311,1.);
#1113=ADVANCED_FACE('',(#75),#1086,.T.);
#1114=ADVANCED_FACE('',(#76),#65,.T.);
#1115=ADVANCED_FACE('',(#77),#1087,.T.);
#1116=ADVANCED_FACE('',(#78),#1088,.T.);
#1117=ADVANCED_FACE('',(#79),#66,.T.);
#1118=ADVANCED_FACE('',(#80),#67,.T.);
#1119=ADVANCED_FACE('',(#81),#1089,.T.);
#1120=ADVANCED_FACE('',(#82),#29,.T.);
#1121=ADVANCED_FACE('',(#83),#1090,.T.);
#1122=ADVANCED_FACE('',(#84),#30,.T.);
#1123=ADVANCED_FACE('',(#85),#31,.T.);
#1124=ADVANCED_FACE('',(#86),#32,.F.);
#1125=ADVANCED_FACE('',(#87),#1091,.T.);
#1126=ADVANCED_FACE('',(#88),#1092,.T.);
#1127=ADVANCED_FACE('',(#89),#68,.T.);
#1128=ADVANCED_FACE('',(#90),#1093,.T.);
#1129=ADVANCED_FACE('',(#91),#33,.T.);
#1130=ADVANCED_FACE('',(#92),#34,.T.);
#1131=ADVANCED_FACE('',(#93),#1094,.T.);
#1132=ADVANCED_FACE('',(#94),#69,.T.);
#1133=ADVANCED_FACE('',(#95),#70,.T.);
#1134=ADVANCED_FACE('',(#96),#1095,.T.);
#1135=ADVANCED_FACE('',(#97),#1096,.T.);
#1136=ADVANCED_FACE('',(#98),#1097,.T.);
#1137=ADVANCED_FACE('',(#99),#1098,.T.);
#1138=ADVANCED_FACE('',(#100),#1099,.T.);
#1139=ADVANCED_FACE('',(#101),#1100,.T.);
#1140=ADVANCED_FACE('',(#102),#35,.T.);
#1141=ADVANCED_FACE('',(#103),#36,.T.);
#1142=ADVANCED_FACE('',(#104,#13),#37,.T.);
#1143=ADVANCED_FACE('',(#105),#38,.T.);
#1144=ADVANCED_FACE('',(#106),#1101,.F.);
#1145=ADVANCED_FACE('',(#107),#39,.T.);
#1146=ADVANCED_FACE('',(#108),#1102,.F.);
#1147=ADVANCED_FACE('',(#109),#40,.T.);
#1148=ADVANCED_FACE('',(#110),#1103,.F.);
#1149=ADVANCED_FACE('',(#111),#41,.T.);
#1150=ADVANCED_FACE('',(#112),#1104,.F.);
#1151=ADVANCED_FACE('',(#113),#42,.T.);
#1152=ADVANCED_FACE('',(#114),#43,.T.);
#1153=ADVANCED_FACE('',(#115,#14),#44,.F.);
#1154=ADVANCED_FACE('',(#116),#1105,.T.);
#1155=ADVANCED_FACE('',(#117),#1106,.T.);
#1156=ADVANCED_FACE('',(#118),#71,.T.);
#1157=ADVANCED_FACE('',(#119),#1107,.T.);
#1158=ADVANCED_FACE('',(#120),#72,.T.);
#1159=ADVANCED_FACE('',(#121),#1108,.T.);
#1160=ADVANCED_FACE('',(#122),#73,.T.);
#1161=ADVANCED_FACE('',(#123),#74,.T.);
#1162=ADVANCED_FACE('',(#124),#1109,.T.);
#1163=ADVANCED_FACE('',(#125),#45,.T.);
#1164=ADVANCED_FACE('',(#126),#1110,.T.);
#1165=ADVANCED_FACE('',(#127),#46,.T.);
#1166=ADVANCED_FACE('',(#128,#15),#47,.T.);
#1167=ADVANCED_FACE('',(#129),#1111,.T.);
#1168=ADVANCED_FACE('',(#130,#16),#48,.F.);
#1169=ADVANCED_FACE('',(#131),#1112,.T.);
#1170=ADVANCED_FACE('',(#132),#49,.T.);
#1171=ADVANCED_FACE('',(#133),#50,.T.);
#1172=ADVANCED_FACE('',(#134),#51,.T.);
#1173=ADVANCED_FACE('',(#135),#52,.T.);
#1174=ADVANCED_FACE('',(#136),#53,.T.);
#1175=ADVANCED_FACE('',(#137),#54,.T.);
#1176=ADVANCED_FACE('',(#138),#55,.T.);
#1177=ADVANCED_FACE('',(#139),#56,.T.);
#1178=ADVANCED_FACE('',(#140),#57,.T.);
#1179=ADVANCED_FACE('',(#141),#58,.T.);
#1180=ADVANCED_FACE('',(#142),#59,.T.);
#1181=ADVANCED_FACE('',(#143),#60,.T.);
#1182=ADVANCED_FACE('',(#144),#61,.T.);
#1183=ADVANCED_FACE('',(#145),#62,.T.);
#1184=ADVANCED_FACE('',(#146,#17),#63,.T.);
#1185=ADVANCED_FACE('',(#147,#18),#64,.F.);
#1186=CLOSED_SHELL('',(#1113,#1114,#1115,#1116,#1117,#1118,#1119,#1120,
#1121,#1122,#1123,#1124,#1125,#1126,#1127,#1128,#1129,#1130));
#1187=CLOSED_SHELL('',(#1131,#1132,#1133,#1134,#1135,#1136,#1137,#1138,
#1139,#1140,#1141,#1142,#1143,#1144,#1145,#1146,#1147,#1148,#1149,#1150,
#1151,#1152,#1153));
#1188=CLOSED_SHELL('',(#1154,#1155,#1156,#1157,#1158,#1159,#1160,#1161,
#1162,#1163,#1164,#1165,#1166,#1167,#1168,#1169,#1170,#1171,#1172,#1173,
#1174,#1175));
#1189=CLOSED_SHELL('',(#1176,#1177,#1178,#1179,#1180,#1181,#1182,#1183,
#1184,#1185));
#1190=DERIVED_UNIT_ELEMENT(#1192,1.);
#1191=DERIVED_UNIT_ELEMENT(#2031,-3.);
#1192=(
MASS_UNIT()
NAMED_UNIT(*)
SI_UNIT(.KILO.,.GRAM.)
);
#1193=DERIVED_UNIT((#1190,#1191));
#1194=MEASURE_REPRESENTATION_ITEM('density measure',
POSITIVE_RATIO_MEASURE(7850.),#1193);
#1195=PROPERTY_DEFINITION_REPRESENTATION(#1200,#1197);
#1196=PROPERTY_DEFINITION_REPRESENTATION(#1201,#1198);
#1197=REPRESENTATION('material name',(#1199),#2028);
#1198=REPRESENTATION('density',(#1194),#2028);
#1199=DESCRIPTIVE_REPRESENTATION_ITEM('Acier','Acier');
#1200=PROPERTY_DEFINITION('material property','material name',#2038);
#1201=PROPERTY_DEFINITION('material property','density of part',#2038);
#1202=AXIS2_PLACEMENT_3D('',#1691,#1328,#1329);
#1203=AXIS2_PLACEMENT_3D('',#1692,#1330,#1331);
#1204=AXIS2_PLACEMENT_3D('',#1695,#1332,#1333);
#1205=AXIS2_PLACEMENT_3D('',#1699,#1335,#1336);
#1206=AXIS2_PLACEMENT_3D('',#1701,#1338,#1339);
#1207=AXIS2_PLACEMENT_3D('',#1703,#1340,#1341);
#1208=AXIS2_PLACEMENT_3D('',#1704,#1342,#1343);
#1209=AXIS2_PLACEMENT_3D('',#1705,#1344,#1345);
#1210=AXIS2_PLACEMENT_3D('',#1708,#1346,#1347);
#1211=AXIS2_PLACEMENT_3D('',#1712,#1349,#1350);
#1212=AXIS2_PLACEMENT_3D('',#1714,#1352,#1353);
#1213=AXIS2_PLACEMENT_3D('',#1716,#1354,#1355);
#1214=AXIS2_PLACEMENT_3D('',#1719,#1357,#1358);
#1215=AXIS2_PLACEMENT_3D('',#1721,#1360,#1361);
#1216=AXIS2_PLACEMENT_3D('',#1722,#1362,#1363);
#1217=AXIS2_PLACEMENT_3D('',#1723,#1364,#1365);
#1218=AXIS2_PLACEMENT_3D('',#1724,#1366,#1367);
#1219=AXIS2_PLACEMENT_3D('',#1725,#1368,#1369);
#1220=AXIS2_PLACEMENT_3D('',#1729,#1371,#1372);
#1221=AXIS2_PLACEMENT_3D('',#1731,#1374,#1375);
#1222=AXIS2_PLACEMENT_3D('',#1735,#1378,#1379);
#1223=AXIS2_PLACEMENT_3D('',#1738,#1381,#1382);
#1224=AXIS2_PLACEMENT_3D('',#1739,#1383,#1384);
#1225=AXIS2_PLACEMENT_3D('',#1741,#1386,#1387);
#1226=AXIS2_PLACEMENT_3D('',#1745,#1389,#1390);
#1227=AXIS2_PLACEMENT_3D('',#1747,#1392,#1393);
#1228=AXIS2_PLACEMENT_3D('',#1751,#1396,#1397);
#1229=AXIS2_PLACEMENT_3D('',#1754,#1399,#1400);
#1230=AXIS2_PLACEMENT_3D('',#1755,#1401,#1402);
#1231=AXIS2_PLACEMENT_3D('',#1758,#1404,#1405);
#1232=AXIS2_PLACEMENT_3D('',#1760,#1407,#1408);
#1233=AXIS2_PLACEMENT_3D('',#1761,#1409,#1410);
#1234=AXIS2_PLACEMENT_3D('',#1762,#1411,#1412);
#1235=AXIS2_PLACEMENT_3D('',#1764,#1414,#1415);
#1236=AXIS2_PLACEMENT_3D('',#1765,#1416,#1417);
#1237=AXIS2_PLACEMENT_3D('',#1766,#1418,#1419);
#1238=AXIS2_PLACEMENT_3D('',#1771,#1421,#1422);
#1239=AXIS2_PLACEMENT_3D('',#1774,#1424,#1425);
#1240=AXIS2_PLACEMENT_3D('',#1775,#1426,#1427);
#1241=AXIS2_PLACEMENT_3D('',#1778,#1428,#1429);
#1242=AXIS2_PLACEMENT_3D('',#1780,#1430,#1431);
#1243=AXIS2_PLACEMENT_3D('',#1781,#1432,#1433);
#1244=AXIS2_PLACEMENT_3D('',#1782,#1434,#1435);
#1245=AXIS2_PLACEMENT_3D('',#1785,#1436,#1437);
#1246=AXIS2_PLACEMENT_3D('',#1787,#1438,#1439);
#1247=AXIS2_PLACEMENT_3D('',#1788,#1440,#1441);
#1248=AXIS2_PLACEMENT_3D('',#1789,#1442,#1443);
#1249=AXIS2_PLACEMENT_3D('',#1794,#1446,#1447);
#1250=AXIS2_PLACEMENT_3D('',#1795,#1448,#1449);
#1251=AXIS2_PLACEMENT_3D('',#1799,#1451,#1452);
#1252=AXIS2_PLACEMENT_3D('',#1801,#1454,#1455);
#1253=AXIS2_PLACEMENT_3D('',#1804,#1458,#1459);
#1254=AXIS2_PLACEMENT_3D('',#1807,#1460,#1461);
#1255=AXIS2_PLACEMENT_3D('',#1810,#1464,#1465);
#1256=AXIS2_PLACEMENT_3D('',#1813,#1468,#1469);
#1257=AXIS2_PLACEMENT_3D('',#1816,#1470,#1471);
#1258=AXIS2_PLACEMENT_3D('',#1819,#1474,#1475);
#1259=AXIS2_PLACEMENT_3D('',#1822,#1478,#1479);
#1260=AXIS2_PLACEMENT_3D('',#1824,#1481,#1482);
#1261=AXIS2_PLACEMENT_3D('',#1831,#1486,#1487);
#1262=AXIS2_PLACEMENT_3D('',#1835,#1489,#1490);
#1263=AXIS2_PLACEMENT_3D('',#1839,#1492,#1493);
#1264=AXIS2_PLACEMENT_3D('',#1842,#1495,#1496);
#1265=AXIS2_PLACEMENT_3D('',#1843,#1497,#1498);
#1266=AXIS2_PLACEMENT_3D('',#1844,#1499,#1500);
#1267=AXIS2_PLACEMENT_3D('',#1847,#1501,#1502);
#1268=AXIS2_PLACEMENT_3D('',#1850,#1505,#1506);
#1269=AXIS2_PLACEMENT_3D('',#1854,#1509,#1510);
#1270=AXIS2_PLACEMENT_3D('',#1857,#1511,#1512);
#1271=AXIS2_PLACEMENT_3D('',#1860,#1515,#1516);
#1272=AXIS2_PLACEMENT_3D('',#1862,#1518,#1519);
#1273=AXIS2_PLACEMENT_3D('',#1864,#1520,#1521);
#1274=AXIS2_PLACEMENT_3D('',#1866,#1523,#1524);
#1275=AXIS2_PLACEMENT_3D('',#1870,#1527,#1528);
#1276=AXIS2_PLACEMENT_3D('',#1872,#1529,#1530);
#1277=AXIS2_PLACEMENT_3D('',#1874,#1532,#1533);
#1278=AXIS2_PLACEMENT_3D('',#1876,#1535,#1536);
#1279=AXIS2_PLACEMENT_3D('',#1877,#1537,#1538);
#1280=AXIS2_PLACEMENT_3D('',#1878,#1539,#1540);
#1281=AXIS2_PLACEMENT_3D('',#1881,#1541,#1542);
#1282=AXIS2_PLACEMENT_3D('',#1885,#1544,#1545);
#1283=AXIS2_PLACEMENT_3D('',#1887,#1547,#1548);
#1284=AXIS2_PLACEMENT_3D('',#1890,#1549,#1550);
#1285=AXIS2_PLACEMENT_3D('',#1893,#1552,#1553);
#1286=AXIS2_PLACEMENT_3D('',#1895,#1555,#1556);
#1287=AXIS2_PLACEMENT_3D('',#1896,#1557,#1558);
#1288=AXIS2_PLACEMENT_3D('',#1897,#1559,#1560);
#1289=AXIS2_PLACEMENT_3D('',#1900,#1561,#1562);
#1290=AXIS2_PLACEMENT_3D('',#1903,#1564,#1565);
#1291=AXIS2_PLACEMENT_3D('',#1905,#1567,#1568);
#1292=AXIS2_PLACEMENT_3D('',#1906,#1569,#1570);
#1293=AXIS2_PLACEMENT_3D('',#1907,#1571,#1572);
#1294=AXIS2_PLACEMENT_3D('',#1909,#1573,#1574);
#1295=AXIS2_PLACEMENT_3D('',#1912,#1576,#1577);
#1296=AXIS2_PLACEMENT_3D('',#1914,#1579,#1580);
#1297=AXIS2_PLACEMENT_3D('',#1915,#1581,#1582);
#1298=AXIS2_PLACEMENT_3D('',#1916,#1583,#1584);
#1299=AXIS2_PLACEMENT_3D('',#1917,#1585,#1586);
#1300=AXIS2_PLACEMENT_3D('',#1918,#1587,#1588);
#1301=AXIS2_PLACEMENT_3D('',#1922,#1590,#1591);
#1302=AXIS2_PLACEMENT_3D('',#1924,#1593,#1594);
#1303=AXIS2_PLACEMENT_3D('',#1928,#1597,#1598);
#1304=AXIS2_PLACEMENT_3D('',#1931,#1600,#1601);
#1305=AXIS2_PLACEMENT_3D('',#1932,#1602,#1603);
#1306=AXIS2_PLACEMENT_3D('',#1936,#1606,#1607);
#1307=AXIS2_PLACEMENT_3D('',#1945,#1612,#1613);
#1308=AXIS2_PLACEMENT_3D('',#1948,#1615,#1616);
#1309=AXIS2_PLACEMENT_3D('',#1949,#1617,#1618);
#1310=AXIS2_PLACEMENT_3D('',#1953,#1620,#1621);
#1311=AXIS2_PLACEMENT_3D('',#1963,#1627,#1628);
#1312=AXIS2_PLACEMENT_3D('',#1966,#1631,#1632);
#1313=AXIS2_PLACEMENT_3D('',#1967,#1633,#1634);
#1314=AXIS2_PLACEMENT_3D('',#1970,#1637,#1638);
#1315=AXIS2_PLACEMENT_3D('',#1972,#1640,#1641);
#1316=AXIS2_PLACEMENT_3D('',#1974,#1643,#1644);
#1317=AXIS2_PLACEMENT_3D('',#1975,#1645,#1646);
#1318=AXIS2_PLACEMENT_3D('',#1976,#1647,#1648);
#1319=AXIS2_PLACEMENT_3D('',#1985,#1653,#1654);
#1320=AXIS2_PLACEMENT_3D('',#1991,#1658,#1659);
#1321=AXIS2_PLACEMENT_3D('',#1997,#1663,#1664);
#1322=AXIS2_PLACEMENT_3D('',#2000,#1667,#1668);
#1323=AXIS2_PLACEMENT_3D('',#2009,#1673,#1674);
#1324=AXIS2_PLACEMENT_3D('',#2015,#1678,#1679);
#1325=AXIS2_PLACEMENT_3D('',#2021,#1683,#1684);
#1326=AXIS2_PLACEMENT_3D('',#2024,#1687,#1688);
#1327=AXIS2_PLACEMENT_3D('',#2025,#1689,#1690);
#1328=DIRECTION('axis',(0.,0.,1.));
#1329=DIRECTION('refdir',(1.,0.,0.));
#1330=DIRECTION('center_axis',(-1.,0.,0.));
#1331=DIRECTION('ref_axis',(0.,-0.707106781186549,-0.707106781186546));
#1332=DIRECTION('center_axis',(1.,0.,0.));
#1333=DIRECTION('ref_axis',(0.,-1.,0.));
#1334=DIRECTION('',(1.,0.,0.));
#1335=DIRECTION('center_axis',(-1.,-8.88178419700125E-15,0.));
#1336=DIRECTION('ref_axis',(0.,0.,-1.));
#1337=DIRECTION('',(-1.,0.,0.));
#1338=DIRECTION('center_axis',(-0.408248290463859,-0.816496580927723,0.408248290463874));
#1339=DIRECTION('ref_axis',(0.577350269189616,-0.577350269189631,-0.577350269189631));
#1340=DIRECTION('center_axis',(0.,-1.,0.));
#1341=DIRECTION('ref_axis',(0.707106781186548,0.,-0.707106781186548));
#1342=DIRECTION('center_axis',(0.,0.,-1.));
#1343=DIRECTION('ref_axis',(0.707106781186539,-0.707106781186556,0.));
#1344=DIRECTION('center_axis',(0.,1.,0.));
#1345=DIRECTION('ref_axis',(-0.707106781186554,0.,0.707106781186541));
#1346=DIRECTION('center_axis',(0.,-1.,0.));
#1347=DIRECTION('ref_axis',(-0.707106781186554,0.,0.707106781186541));
#1348=DIRECTION('',(0.,-1.,0.));
#1349=DIRECTION('center_axis',(0.,1.,0.));
#1350=DIRECTION('ref_axis',(-1.,0.,0.));
#1351=DIRECTION('',(0.,1.,0.));
#1352=DIRECTION('center_axis',(0.,0.,1.));
#1353=DIRECTION('ref_axis',(-0.70710678118654,-0.707106781186555,0.));
#1354=DIRECTION('center_axis',(0.,0.,1.));
#1355=DIRECTION('ref_axis',(-1.,0.,0.));
#1356=DIRECTION('',(0.,0.,1.));
#1357=DIRECTION('center_axis',(0.,0.,-1.));
#1358=DIRECTION('ref_axis',(0.,-1.,0.));
#1359=DIRECTION('',(0.,0.,-1.));
#1360=DIRECTION('center_axis',(-0.40824829046386,-0.408248290463847,-0.816496580927735));
#1361=DIRECTION('ref_axis',(-0.577350269189649,-0.577350269189614,0.577350269189614));
#1362=DIRECTION('center_axis',(-1.,0.,0.));
#1363=DIRECTION('ref_axis',(0.,-0.707106781186549,0.707106781186546));
#1364=DIRECTION('center_axis',(0.40824829046386,-0.816496580927726,0.408248290463867));
#1365=DIRECTION('ref_axis',(-0.577350269189622,-0.577350269189626,-0.577350269189629));
#1366=DIRECTION('center_axis',(0.,-1.,0.));
#1367=DIRECTION('ref_axis',(-0.707106781186543,0.,-0.707106781186552));
#1368=DIRECTION('center_axis',(0.,1.,0.));
#1369=DIRECTION('ref_axis',(0.707106781186548,0.,-0.707106781186548));
#1370=DIRECTION('',(0.,1.,0.));
#1371=DIRECTION('center_axis',(0.,-1.,0.));
#1372=DIRECTION('ref_axis',(0.707106781186548,0.,-0.707106781186548));
#1373=DIRECTION('',(0.,-1.,0.));
#1374=DIRECTION('center_axis',(0.,0.,-1.));
#1375=DIRECTION('ref_axis',(-1.,0.,0.));
#1376=DIRECTION('',(0.,-1.,0.));
#1377=DIRECTION('',(-1.,0.,0.));
#1378=DIRECTION('center_axis',(0.,1.,0.));
#1379=DIRECTION('ref_axis',(-0.707106781186541,0.,-0.707106781186554));
#1380=DIRECTION('',(0.,1.,0.));
#1381=DIRECTION('center_axis',(0.,-1.,0.));
#1382=DIRECTION('ref_axis',(-0.707106781186541,0.,-0.707106781186554));
#1383=DIRECTION('center_axis',(-1.,0.,0.));
#1384=DIRECTION('ref_axis',(0.,0.,1.));
#1385=DIRECTION('',(0.,0.,1.));
#1386=DIRECTION('center_axis',(0.,1.,0.));
#1387=DIRECTION('ref_axis',(0.,0.,1.));
#1388=DIRECTION('',(1.,0.,0.));
#1389=DIRECTION('center_axis',(0.,-1.,0.));
#1390=DIRECTION('ref_axis',(0.707106781186548,0.,0.707106781186548));
#1391=DIRECTION('',(0.,0.,-1.));
#1392=DIRECTION('center_axis',(0.,1.,0.));
#1393=DIRECTION('ref_axis',(1.,0.,0.));
#1394=DIRECTION('',(0.,0.,-1.));
#1395=DIRECTION('',(1.,0.,0.));
#1396=DIRECTION('center_axis',(0.,0.,-1.));
#1397=DIRECTION('ref_axis',(0.70710678118654,-0.707106781186555,0.));
#1398=DIRECTION('',(0.,0.,1.));
#1399=DIRECTION('center_axis',(0.,0.,-1.));
#1400=DIRECTION('ref_axis',(1.,0.,0.));
#1401=DIRECTION('center_axis',(0.,1.,0.));
#1402=DIRECTION('ref_axis',(0.707106781186548,0.,0.707106781186548));
#1403=DIRECTION('',(0.,-1.,0.));
#1404=DIRECTION('center_axis',(0.,1.,0.));
#1405=DIRECTION('ref_axis',(0.,0.,1.));
#1406=DIRECTION('',(0.,1.,0.));
#1407=DIRECTION('center_axis',(0.408248290463866,-0.408248290463861,-0.816496580927725));
#1408=DIRECTION('ref_axis',(0.57735026918963,-0.577350269189625,0.577350269189623));
#1409=DIRECTION('center_axis',(1.,0.,0.));
#1410=DIRECTION('ref_axis',(0.,-0.707106781186549,0.707106781186546));
#1411=DIRECTION('center_axis',(1.,0.,0.));
#1412=DIRECTION('ref_axis',(0.,-0.707106781186549,0.707106781186546));
#1413=DIRECTION('',(-1.,0.,0.));
#1414=DIRECTION('center_axis',(0.,0.,1.));
#1415=DIRECTION('ref_axis',(1.,0.,0.));
#1416=DIRECTION('center_axis',(1.,0.,0.));
#1417=DIRECTION('ref_axis',(0.,0.,-1.));
#1418=DIRECTION('center_axis',(0.,1.,0.));
#1419=DIRECTION('ref_axis',(-0.707106781186554,0.,0.707106781186541));
#1420=DIRECTION('',(0.,1.,0.));
#1421=DIRECTION('center_axis',(0.,-1.,0.));
#1422=DIRECTION('ref_axis',(-0.707106781186554,0.,0.707106781186541));
#1423=DIRECTION('',(0.,-1.,0.));
#1424=DIRECTION('center_axis',(0.,0.707106781186548,0.707106781186547));
#1425=DIRECTION('ref_axis',(0.,-0.707106781186547,0.707106781186548));
#1426=DIRECTION('center_axis',(0.40824829046386,-0.816496580927722,0.408248290463874));
#1427=DIRECTION('ref_axis',(-0.577350269189618,-0.577350269189628,-0.577350269189632));
#1428=DIRECTION('center_axis',(0.,-1.,0.));
#1429=DIRECTION('ref_axis',(0.,0.,-1.));
#1430=DIRECTION('center_axis',(-1.,0.,-1.77635683940025E-14));
#1431=DIRECTION('ref_axis',(0.,-1.,0.));
#1432=DIRECTION('center_axis',(0.,0.,-1.));
#1433=DIRECTION('ref_axis',(-1.,0.,0.));
#1434=DIRECTION('center_axis',(-0.408248290463859,-0.816496580927723,0.408248290463874));
#1435=DIRECTION('ref_axis',(0.577350269189616,-0.577350269189631,-0.577350269189631));
#1436=DIRECTION('center_axis',(0.,-1.,0.));
#1437=DIRECTION('ref_axis',(1.,0.,0.));
#1438=DIRECTION('center_axis',(0.,0.,-1.));
#1439=DIRECTION('ref_axis',(0.,-1.,0.));
#1440=DIRECTION('center_axis',(1.,8.88178419700125E-15,0.));
#1441=DIRECTION('ref_axis',(0.,0.,-1.));
#1442=DIRECTION('center_axis',(0.,0.,-1.));
#1443=DIRECTION('ref_axis',(0.70710678118654,-0.707106781186555,0.));
#1444=DIRECTION('',(0.,0.,-1.));
#1445=DIRECTION('',(0.,0.,1.));
#1446=DIRECTION('center_axis',(0.,-0.707106781186548,-0.707106781186547));
#1447=DIRECTION('ref_axis',(0.,-0.707106781186547,0.707106781186548));
#1448=DIRECTION('center_axis',(0.,1.,0.));
#1449=DIRECTION('ref_axis',(0.707106781186548,0.,0.707106781186548));
#1450=DIRECTION('',(0.,1.,0.));
#1451=DIRECTION('center_axis',(0.,-1.,0.));
#1452=DIRECTION('ref_axis',(0.707106781186548,0.,0.707106781186548));
#1453=DIRECTION('',(0.,-1.,0.));
#1454=DIRECTION('center_axis',(-1.,0.,0.));
#1455=DIRECTION('ref_axis',(0.,-0.707106781186549,-0.707106781186546));
#1456=DIRECTION('',(1.,0.,0.));
#1457=DIRECTION('',(-1.,0.,0.));
#1458=DIRECTION('center_axis',(0.,1.,0.));
#1459=DIRECTION('ref_axis',(0.707106781186548,0.,-0.707106781186548));
#1460=DIRECTION('center_axis',(0.,-1.,0.));
#1461=DIRECTION('ref_axis',(0.707106781186548,0.,-0.707106781186548));
#1462=DIRECTION('',(0.,-1.,0.));
#1463=DIRECTION('',(0.,1.,0.));
#1464=DIRECTION('center_axis',(0.,0.,1.));
#1465=DIRECTION('ref_axis',(-0.70710678118654,-0.707106781186555,0.));
#1466=DIRECTION('',(0.,0.,-1.));
#1467=DIRECTION('',(0.,0.,1.));
#1468=DIRECTION('center_axis',(0.,1.,0.));
#1469=DIRECTION('ref_axis',(-0.707106781186541,0.,-0.707106781186554));
#1470=DIRECTION('center_axis',(0.,-1.,0.));
#1471=DIRECTION('ref_axis',(-0.707106781186541,0.,-0.707106781186554));
#1472=DIRECTION('',(0.,-1.,0.));
#1473=DIRECTION('',(0.,1.,0.));
#1474=DIRECTION('center_axis',(0.,0.,1.));
#1475=DIRECTION('ref_axis',(1.,0.,0.));
#1476=DIRECTION('',(1.,0.,0.));
#1477=DIRECTION('',(1.,0.,0.));
#1478=DIRECTION('center_axis',(1.,0.,0.));
#1479=DIRECTION('ref_axis',(0.,0.,-1.));
#1480=DIRECTION('',(0.,0.,-1.));
#1481=DIRECTION('center_axis',(0.,1.,0.));
#1482=DIRECTION('ref_axis',(0.,0.,1.));
#1483=DIRECTION('',(-1.,0.,0.));
#1484=DIRECTION('',(0.,0.,1.));
#1485=DIRECTION('',(-1.,0.,0.));
#1486=DIRECTION('center_axis',(0.,1.,0.));
#1487=DIRECTION('ref_axis',(-0.707106781186546,0.,0.707106781186549));
#1488=DIRECTION('',(0.,0.,-1.));
#1489=DIRECTION('center_axis',(0.,1.,0.));
#1490=DIRECTION('ref_axis',(-0.707106781186546,0.,-0.707106781186549));
#1491=DIRECTION('',(1.,0.,0.));
#1492=DIRECTION('center_axis',(0.,1.,0.));
#1493=DIRECTION('ref_axis',(0.707106781186549,0.,-0.707106781186546));
#1494=DIRECTION('',(0.,0.,1.));
#1495=DIRECTION('center_axis',(0.,1.,0.));
#1496=DIRECTION('ref_axis',(0.707106781186546,0.,0.707106781186549));
#1497=DIRECTION('center_axis',(0.,0.,-1.));
#1498=DIRECTION('ref_axis',(-1.,0.,0.));
#1499=DIRECTION('center_axis',(0.,1.,0.));
#1500=DIRECTION('ref_axis',(0.707106781186549,0.,-0.707106781186546));
#1501=DIRECTION('center_axis',(0.,-1.,0.));
#1502=DIRECTION('ref_axis',(0.707106781186549,0.,-0.707106781186546));
#1503=DIRECTION('',(0.,1.,0.));
#1504=DIRECTION('',(0.,-1.,0.));
#1505=DIRECTION('center_axis',(-1.,0.,0.));
#1506=DIRECTION('ref_axis',(0.,0.,1.));
#1507=DIRECTION('',(0.,0.,1.));
#1508=DIRECTION('',(0.,-1.,0.));
#1509=DIRECTION('center_axis',(0.,1.,0.));
#1510=DIRECTION('ref_axis',(-0.707106781186546,0.,-0.707106781186549));
#1511=DIRECTION('center_axis',(0.,-1.,0.));
#1512=DIRECTION('ref_axis',(-0.707106781186546,0.,-0.707106781186549));
#1513=DIRECTION('',(0.,1.,0.));
#1514=DIRECTION('',(0.,-1.,0.));
#1515=DIRECTION('center_axis',(0.,0.,1.));
#1516=DIRECTION('ref_axis',(1.,0.,0.));
#1517=DIRECTION('',(1.,0.,0.));
#1518=DIRECTION('center_axis',(0.,1.,0.));
#1519=DIRECTION('ref_axis',(0.707106781186546,0.,0.707106781186549));
#1520=DIRECTION('center_axis',(0.,-1.,0.));
#1521=DIRECTION('ref_axis',(0.707106781186546,0.,0.707106781186549));
#1522=DIRECTION('',(0.,1.,0.));
#1523=DIRECTION('center_axis',(0.,0.,-1.));
#1524=DIRECTION('ref_axis',(-1.,0.,0.));
#1525=DIRECTION('',(-1.,0.,0.));
#1526=DIRECTION('',(0.,-1.,0.));
#1527=DIRECTION('center_axis',(0.,1.,0.));
#1528=DIRECTION('ref_axis',(-0.707106781186546,0.,0.707106781186549));
#1529=DIRECTION('center_axis',(0.,-1.,0.));
#1530=DIRECTION('ref_axis',(-0.707106781186546,0.,0.707106781186549));
#1531=DIRECTION('',(0.,1.,0.));
#1532=DIRECTION('center_axis',(1.,0.,0.));
#1533=DIRECTION('ref_axis',(0.,0.,-1.));
#1534=DIRECTION('',(0.,0.,-1.));
#1535=DIRECTION('center_axis',(-1.,0.,0.));
#1536=DIRECTION('ref_axis',(0.,0.,1.));
#1537=DIRECTION('center_axis',(0.,1.,0.));
#1538=DIRECTION('ref_axis',(1.,0.,0.));
#1539=DIRECTION('center_axis',(0.,0.,-1.));
#1540=DIRECTION('ref_axis',(0.70710678118655,0.707106781186545,0.));
#1541=DIRECTION('center_axis',(0.,0.,-1.));
#1542=DIRECTION('ref_axis',(0.,1.,0.));
#1543=DIRECTION('',(0.,0.,-1.));
#1544=DIRECTION('center_axis',(2.22044604925031E-15,0.,1.));
#1545=DIRECTION('ref_axis',(1.,0.,-2.22044604925031E-15));
#1546=DIRECTION('',(0.,0.,1.));
#1547=DIRECTION('center_axis',(1.,0.,0.));
#1548=DIRECTION('ref_axis',(0.,0.707106781186547,0.707106781186548));
#1549=DIRECTION('center_axis',(1.,0.,0.));
#1550=DIRECTION('ref_axis',(0.,1.,0.));
#1551=DIRECTION('',(1.,0.,0.));
#1552=DIRECTION('center_axis',(-1.,0.,0.));
#1553=DIRECTION('ref_axis',(0.,0.,1.));
#1554=DIRECTION('',(-1.,0.,0.));
#1555=DIRECTION('center_axis',(0.40824829046386,-0.816496580927727,0.408248290463864));
#1556=DIRECTION('ref_axis',(0.577350269189623,0.577350269189627,0.577350269189627));
#1557=DIRECTION('center_axis',(0.,1.,0.));
#1558=DIRECTION('ref_axis',(0.70710678118655,0.,0.707106781186545));
#1559=DIRECTION('center_axis',(0.,0.,1.));
#1560=DIRECTION('ref_axis',(-0.707106781186547,0.707106781186548,0.));
#1561=DIRECTION('center_axis',(0.,0.,1.));
#1562=DIRECTION('ref_axis',(0.,1.,0.));
#1563=DIRECTION('',(0.,0.,1.));
#1564=DIRECTION('center_axis',(-2.22044604925032E-15,0.,-1.));
#1565=DIRECTION('ref_axis',(-1.,0.,2.22044604925032E-15));
#1566=DIRECTION('',(0.,0.,-1.));
#1567=DIRECTION('center_axis',(-0.40824829046386,-0.816496580927727,0.408248290463865));
#1568=DIRECTION('ref_axis',(-0.577350269189623,0.577350269189627,0.577350269189627));
#1569=DIRECTION('center_axis',(0.,1.,0.));
#1570=DIRECTION('ref_axis',(-0.707106781186546,0.,0.707106781186549));
#1571=DIRECTION('center_axis',(-1.,0.,0.));
#1572=DIRECTION('ref_axis',(0.,0.707106781186547,-0.707106781186548));
#1573=DIRECTION('center_axis',(-1.,0.,0.));
#1574=DIRECTION('ref_axis',(0.,1.,0.));
#1575=DIRECTION('',(-1.,0.,0.));
#1576=DIRECTION('center_axis',(1.,0.,0.));
#1577=DIRECTION('ref_axis',(0.,0.,-1.));
#1578=DIRECTION('',(1.,0.,0.));
#1579=DIRECTION('center_axis',(-0.40824829046386,-0.816496580927727,-0.408248290463865));
#1580=DIRECTION('ref_axis',(-0.577350269189623,0.577350269189627,-0.577350269189627));
#1581=DIRECTION('center_axis',(0.,1.,0.));
#1582=DIRECTION('ref_axis',(-0.707106781186546,0.,-0.707106781186549));
#1583=DIRECTION('center_axis',(0.40824829046386,-0.816496580927727,-0.408248290463865));
#1584=DIRECTION('ref_axis',(0.577350269189623,0.577350269189627,-0.577350269189627));
#1585=DIRECTION('center_axis',(0.,1.,0.));
#1586=DIRECTION('ref_axis',(0.707106781186546,0.,-0.707106781186549));
#1587=DIRECTION('center_axis',(0.,1.,0.));
#1588=DIRECTION('ref_axis',(-0.707106781186546,0.,0.707106781186549));
#1589=DIRECTION('',(0.,-1.,0.));
#1590=DIRECTION('center_axis',(0.,1.,0.));
#1591=DIRECTION('ref_axis',(-0.707106781186546,0.,0.707106781186549));
#1592=DIRECTION('',(0.,1.,0.));
#1593=DIRECTION('center_axis',(-1.,0.,0.));
#1594=DIRECTION('ref_axis',(0.,0.,1.));
#1595=DIRECTION('',(0.,1.,0.));
#1596=DIRECTION('',(0.,0.,1.));
#1597=DIRECTION('center_axis',(0.,1.,0.));
#1598=DIRECTION('ref_axis',(-0.707106781186546,0.,-0.707106781186549));
#1599=DIRECTION('',(0.,-1.,0.));
#1600=DIRECTION('center_axis',(0.,1.,0.));
#1601=DIRECTION('ref_axis',(-0.707106781186546,0.,-0.707106781186549));
#1602=DIRECTION('center_axis',(0.,0.,-1.));
#1603=DIRECTION('ref_axis',(-1.,0.,0.));
#1604=DIRECTION('',(0.,1.,0.));
#1605=DIRECTION('',(-1.,0.,0.));
#1606=DIRECTION('center_axis',(0.,1.,0.));
#1607=DIRECTION('ref_axis',(0.,0.,1.));
#1608=DIRECTION('',(0.,0.,1.));
#1609=DIRECTION('',(-1.,0.,0.));
#1610=DIRECTION('',(0.,0.,-1.));
#1611=DIRECTION('',(1.,0.,0.));
#1612=DIRECTION('center_axis',(0.,1.,0.));
#1613=DIRECTION('ref_axis',(0.707106781186546,0.,-0.707106781186549));
#1614=DIRECTION('',(0.,-1.,0.));
#1615=DIRECTION('center_axis',(0.,1.,0.));
#1616=DIRECTION('ref_axis',(0.707106781186546,0.,-0.707106781186549));
#1617=DIRECTION('center_axis',(0.,1.,0.));
#1618=DIRECTION('ref_axis',(1.,0.,0.));
#1619=DIRECTION('',(0.,0.,-1.));
#1620=DIRECTION('center_axis',(0.,1.,0.));
#1621=DIRECTION('ref_axis',(0.707106781186549,0.,0.707106781186546));
#1622=DIRECTION('',(1.,0.,0.));
#1623=DIRECTION('',(0.,0.,1.));
#1624=DIRECTION('',(1.,0.,0.));
#1625=DIRECTION('',(0.,0.,-1.));
#1626=DIRECTION('',(-1.,0.,0.));
#1627=DIRECTION('center_axis',(0.,1.,0.));
#1628=DIRECTION('ref_axis',(0.707106781186549,0.,0.707106781186546));
#1629=DIRECTION('',(0.,-1.,0.));
#1630=DIRECTION('',(0.,1.,0.));
#1631=DIRECTION('center_axis',(1.,0.,0.));
#1632=DIRECTION('ref_axis',(0.,0.,-1.));
#1633=DIRECTION('center_axis',(0.,0.,1.));
#1634=DIRECTION('ref_axis',(1.,0.,0.));
#1635=DIRECTION('',(0.,1.,0.));
#1636=DIRECTION('',(0.,1.,0.));
#1637=DIRECTION('center_axis',(1.,0.,0.));
#1638=DIRECTION('ref_axis',(0.,0.,-1.));
#1639=DIRECTION('',(0.,1.,0.));
#1640=DIRECTION('center_axis',(0.,0.,-1.));
#1641=DIRECTION('ref_axis',(-1.,0.,0.));
#1642=DIRECTION('',(0.,1.,0.));
#1643=DIRECTION('center_axis',(-1.,0.,0.));
#1644=DIRECTION('ref_axis',(0.,0.,1.));
#1645=DIRECTION('center_axis',(0.,0.,1.));
#1646=DIRECTION('ref_axis',(1.,0.,0.));
#1647=DIRECTION('center_axis',(0.,0.,-1.));
#1648=DIRECTION('ref_axis',(-1.,0.,0.));
#1649=DIRECTION('',(-1.,0.,0.));
#1650=DIRECTION('',(0.,1.,0.));
#1651=DIRECTION('',(-1.,0.,0.));
#1652=DIRECTION('',(0.,1.,0.));
#1653=DIRECTION('center_axis',(-1.,0.,0.));
#1654=DIRECTION('ref_axis',(0.,0.,1.));
#1655=DIRECTION('',(0.,0.,1.));
#1656=DIRECTION('',(0.,0.,1.));
#1657=DIRECTION('',(0.,1.,0.));
#1658=DIRECTION('center_axis',(0.,0.,1.));
#1659=DIRECTION('ref_axis',(1.,0.,0.));
#1660=DIRECTION('',(1.,0.,0.));
#1661=DIRECTION('',(1.,0.,0.));
#1662=DIRECTION('',(0.,1.,0.));
#1663=DIRECTION('center_axis',(1.,0.,0.));
#1664=DIRECTION('ref_axis',(0.,0.,-1.));
#1665=DIRECTION('',(0.,0.,-1.));
#1666=DIRECTION('',(0.,0.,-1.));
#1667=DIRECTION('center_axis',(0.,0.,1.));
#1668=DIRECTION('ref_axis',(1.,0.,0.));
#1669=DIRECTION('',(1.,0.,0.));
#1670=DIRECTION('',(0.,1.,0.));
#1671=DIRECTION('',(1.,0.,0.));
#1672=DIRECTION('',(0.,1.,0.));
#1673=DIRECTION('center_axis',(-1.,0.,0.));
#1674=DIRECTION('ref_axis',(0.,0.,1.));
#1675=DIRECTION('',(0.,0.,1.));
#1676=DIRECTION('',(0.,0.,1.));
#1677=DIRECTION('',(0.,1.,0.));
#1678=DIRECTION('center_axis',(0.,0.,-1.));
#1679=DIRECTION('ref_axis',(-1.,0.,0.));
#1680=DIRECTION('',(-1.,0.,0.));
#1681=DIRECTION('',(-1.,0.,0.));
#1682=DIRECTION('',(0.,1.,0.));
#1683=DIRECTION('center_axis',(1.,0.,0.));
#1684=DIRECTION('ref_axis',(0.,0.,-1.));
#1685=DIRECTION('',(0.,0.,-1.));
#1686=DIRECTION('',(0.,0.,-1.));
#1687=DIRECTION('center_axis',(0.,1.,0.));
#1688=DIRECTION('ref_axis',(0.,0.,1.));
#1689=DIRECTION('center_axis',(0.,1.,0.));
#1690=DIRECTION('ref_axis',(1.,0.,0.));
#1691=CARTESIAN_POINT('',(0.,0.,0.));
#1692=CARTESIAN_POINT('Origin',(-40.75,0.5,-18.));
#1693=CARTESIAN_POINT('',(-68.,0.,-18.));
#1694=CARTESIAN_POINT('',(-68.,0.5,-18.5));
#1695=CARTESIAN_POINT('Origin',(-68.,0.5,-18.));
#1696=CARTESIAN_POINT('',(-32.,0.5,-18.5));
#1697=CARTESIAN_POINT('',(-40.75,0.5,-18.5));
#1698=CARTESIAN_POINT('',(-32.,0.,-18.));
#1699=CARTESIAN_POINT('Origin',(-32.,0.5,-18.));
#1700=CARTESIAN_POINT('',(-40.75,0.,-18.));
#1701=CARTESIAN_POINT('Origin',(-32.,0.5,-18.));
#1702=CARTESIAN_POINT('',(-31.5,0.5,-18.));
#1703=CARTESIAN_POINT('Origin',(-32.,0.5,-18.));
#1704=CARTESIAN_POINT('Origin',(-32.,0.5,-18.));
#1705=CARTESIAN_POINT('Origin',(-68.,0.,18.));
#1706=CARTESIAN_POINT('',(-68.,2.,18.5));
#1707=CARTESIAN_POINT('',(-68.5,2.,18.));
#1708=CARTESIAN_POINT('Origin',(-68.,2.,18.));
#1709=CARTESIAN_POINT('',(-68.5,0.5,18.));
#1710=CARTESIAN_POINT('',(-68.5,0.,18.));
#1711=CARTESIAN_POINT('',(-68.,0.5,18.5));
#1712=CARTESIAN_POINT('Origin',(-68.,0.5,18.));
#1713=CARTESIAN_POINT('',(-68.,0.,18.5));
#1714=CARTESIAN_POINT('Origin',(-68.,0.5,-9.25));
#1715=CARTESIAN_POINT('',(-68.5,0.5,-18.));
#1716=CARTESIAN_POINT('Origin',(-68.,0.5,-18.));
#1717=CARTESIAN_POINT('',(-68.,0.,18.));
#1718=CARTESIAN_POINT('',(-68.,0.,-9.25));
#1719=CARTESIAN_POINT('Origin',(-68.,0.5,18.));
#1720=CARTESIAN_POINT('',(-68.5,0.5,-9.25));
#1721=CARTESIAN_POINT('Origin',(-68.,0.5,18.));
#1722=CARTESIAN_POINT('Origin',(-68.,0.5,18.));
#1723=CARTESIAN_POINT('Origin',(-68.,0.5,-18.));
#1724=CARTESIAN_POINT('Origin',(-68.,0.5,-18.));
#1725=CARTESIAN_POINT('Origin',(-32.,0.,-18.));
#1726=CARTESIAN_POINT('',(-32.,2.,-18.5));
#1727=CARTESIAN_POINT('',(-32.,0.,-18.5));
#1728=CARTESIAN_POINT('',(-31.5,2.,-18.));
#1729=CARTESIAN_POINT('Origin',(-32.,2.,-18.));
#1730=CARTESIAN_POINT('',(-31.5,0.,-18.));
#1731=CARTESIAN_POINT('Origin',(-31.5,0.,-18.5));
#1732=CARTESIAN_POINT('',(-68.,2.,-18.5));
#1733=CARTESIAN_POINT('',(-68.,0.,-18.5));
#1734=CARTESIAN_POINT('',(-31.5,2.,-18.5));
#1735=CARTESIAN_POINT('Origin',(-68.,0.,-18.));
#1736=CARTESIAN_POINT('',(-68.5,2.,-18.));
#1737=CARTESIAN_POINT('',(-68.5,0.,-18.));
#1738=CARTESIAN_POINT('Origin',(-68.,2.,-18.));
#1739=CARTESIAN_POINT('Origin',(-68.5,0.,-18.5));
#1740=CARTESIAN_POINT('',(-68.5,2.,-18.5));
#1741=CARTESIAN_POINT('Origin',(-50.,2.,0.));
#1742=CARTESIAN_POINT('',(-32.,2.,18.5));
#1743=CARTESIAN_POINT('',(-68.5,2.,18.5));
#1744=CARTESIAN_POINT('',(-31.5,2.,18.));
#1745=CARTESIAN_POINT('Origin',(-32.,2.,18.));
#1746=CARTESIAN_POINT('',(-31.5,2.,18.5));
#1747=CARTESIAN_POINT('Origin',(-50.,0.,0.));
#1748=CARTESIAN_POINT('',(-32.,0.,18.));
#1749=CARTESIAN_POINT('',(-32.,0.,9.25));
#1750=CARTESIAN_POINT('',(-59.25,0.,18.));
#1751=CARTESIAN_POINT('Origin',(-32.,0.5,9.25));
#1752=CARTESIAN_POINT('',(-31.5,0.5,18.));
#1753=CARTESIAN_POINT('',(-31.5,0.5,9.25));
#1754=CARTESIAN_POINT('Origin',(-32.,0.5,18.));
#1755=CARTESIAN_POINT('Origin',(-32.,0.,18.));
#1756=CARTESIAN_POINT('',(-32.,0.5,18.5));
#1757=CARTESIAN_POINT('',(-32.,0.,18.5));
#1758=CARTESIAN_POINT('Origin',(-32.,0.5,18.));
#1759=CARTESIAN_POINT('',(-31.5,0.,18.));
#1760=CARTESIAN_POINT('Origin',(-32.,0.5,18.));
#1761=CARTESIAN_POINT('Origin',(-32.,0.5,18.));
#1762=CARTESIAN_POINT('Origin',(-59.25,0.5,18.));
#1763=CARTESIAN_POINT('',(-59.25,0.5,18.5));
#1764=CARTESIAN_POINT('Origin',(-68.5,0.,18.5));
#1765=CARTESIAN_POINT('Origin',(-31.5,0.,18.5));
#1766=CARTESIAN_POINT('Origin',(-68.,0.,18.));
#1767=CARTESIAN_POINT('',(-68.,0.,18.5));
#1768=CARTESIAN_POINT('',(-68.,4.,18.5));
#1769=CARTESIAN_POINT('',(-68.,0.,18.5));
#1770=CARTESIAN_POINT('',(-68.5,4.,18.));
#1771=CARTESIAN_POINT('Origin',(-68.,4.,18.));
#1772=CARTESIAN_POINT('',(-68.5,0.5,18.));
#1773=CARTESIAN_POINT('',(-68.5,0.,18.));
#1774=CARTESIAN_POINT('Origin',(-68.,0.5,18.));
#1775=CARTESIAN_POINT('Origin',(-68.,0.5,-18.));
#1776=CARTESIAN_POINT('',(-68.,0.5,-18.5));
#1777=CARTESIAN_POINT('',(-68.5,0.5,-18.));
#1778=CARTESIAN_POINT('Origin',(-68.,0.5,-18.));
#1779=CARTESIAN_POINT('',(-68.,0.,-18.));
#1780=CARTESIAN_POINT('Origin',(-68.,0.5,-18.));
#1781=CARTESIAN_POINT('Origin',(-68.,0.5,-18.));
#1782=CARTESIAN_POINT('Origin',(-32.,0.5,-18.));
#1783=CARTESIAN_POINT('',(-31.5,0.5,-18.));
#1784=CARTESIAN_POINT('',(-32.,0.5,-18.5));
#1785=CARTESIAN_POINT('Origin',(-32.,0.5,-18.));
#1786=CARTESIAN_POINT('',(-32.,0.,-18.));
#1787=CARTESIAN_POINT('Origin',(-32.,0.5,-18.));
#1788=CARTESIAN_POINT('Origin',(-32.,0.5,-18.));
#1789=CARTESIAN_POINT('Origin',(-32.,0.5,9.25));
#1790=CARTESIAN_POINT('',(-32.,0.,18.5));
#1791=CARTESIAN_POINT('',(-32.,0.,9.25));
#1792=CARTESIAN_POINT('',(-31.5,0.5,18.));
#1793=CARTESIAN_POINT('',(-31.5,0.5,9.25));
#1794=CARTESIAN_POINT('Origin',(-32.,0.5,18.));
#1795=CARTESIAN_POINT('Origin',(-32.,0.,18.));
#1796=CARTESIAN_POINT('',(-31.5,4.,18.));
#1797=CARTESIAN_POINT('',(-31.5,0.,18.));
#1798=CARTESIAN_POINT('',(-32.,4.,18.5));
#1799=CARTESIAN_POINT('Origin',(-32.,4.,18.));
#1800=CARTESIAN_POINT('',(-32.,0.,18.5));
#1801=CARTESIAN_POINT('Origin',(-40.75,0.5,-18.));
#1802=CARTESIAN_POINT('',(-40.75,0.5,-18.5));
#1803=CARTESIAN_POINT('',(-40.75,0.,-18.));
#1804=CARTESIAN_POINT('Origin',(-32.,0.,-18.));
#1805=CARTESIAN_POINT('',(-32.,4.,-18.5));
#1806=CARTESIAN_POINT('',(-31.5,4.,-18.));
#1807=CARTESIAN_POINT('Origin',(-32.,4.,-18.));
#1808=CARTESIAN_POINT('',(-31.5,0.,-18.));
#1809=CARTESIAN_POINT('',(-32.,0.,-18.5));
#1810=CARTESIAN_POINT('Origin',(-68.,0.5,-9.25));
#1811=CARTESIAN_POINT('',(-68.5,0.5,-9.25));
#1812=CARTESIAN_POINT('',(-68.,0.,-9.25));
#1813=CARTESIAN_POINT('Origin',(-68.,0.,-18.));
#1814=CARTESIAN_POINT('',(-68.5,4.,-18.));
#1815=CARTESIAN_POINT('',(-68.,4.,-18.5));
#1816=CARTESIAN_POINT('Origin',(-68.,4.,-18.));
#1817=CARTESIAN_POINT('',(-68.,0.,-18.5));
#1818=CARTESIAN_POINT('',(-68.5,0.,-18.));
#1819=CARTESIAN_POINT('Origin',(-68.5,0.,18.5));
#1820=CARTESIAN_POINT('',(-68.5,4.,18.5));
#1821=CARTESIAN_POINT('',(-68.5,0.,18.5));
#1822=CARTESIAN_POINT('Origin',(-31.5,0.,18.5));
#1823=CARTESIAN_POINT('',(-31.5,4.,18.5));
#1824=CARTESIAN_POINT('Origin',(-50.,4.,0.));
#1825=CARTESIAN_POINT('',(-31.5,4.,-18.5));
#1826=CARTESIAN_POINT('',(-68.5,4.,-18.5));
#1827=CARTESIAN_POINT('',(-33.5,4.,17.5));
#1828=CARTESIAN_POINT('',(-66.5,4.,17.5));
#1829=CARTESIAN_POINT('',(-67.5,4.,17.5));
#1830=CARTESIAN_POINT('',(-67.5,4.,16.5));
#1831=CARTESIAN_POINT('Origin',(-66.5,4.,16.5));
#1832=CARTESIAN_POINT('',(-67.5,4.,-16.5));
#1833=CARTESIAN_POINT('',(-67.5,4.,-17.5));
#1834=CARTESIAN_POINT('',(-66.5,4.,-17.5));
#1835=CARTESIAN_POINT('Origin',(-66.5,4.,-16.5));
#1836=CARTESIAN_POINT('',(-33.5,4.,-17.5));
#1837=CARTESIAN_POINT('',(-32.5,4.,-17.5));
#1838=CARTESIAN_POINT('',(-32.5,4.,-16.5));
#1839=CARTESIAN_POINT('Origin',(-33.5,4.,-16.5));
#1840=CARTESIAN_POINT('',(-32.5,4.,16.5));
#1841=CARTESIAN_POINT('',(-32.5,4.,17.5));
#1842=CARTESIAN_POINT('Origin',(-33.5,4.,16.5));
#1843=CARTESIAN_POINT('Origin',(-31.5,0.,-18.5));
#1844=CARTESIAN_POINT('Origin',(-33.5,0.,-16.5));
#1845=CARTESIAN_POINT('',(-33.5,0.,-17.5));
#1846=CARTESIAN_POINT('',(-32.5,0.,-16.5));
#1847=CARTESIAN_POINT('Origin',(-33.5,0.,-16.5));
#1848=CARTESIAN_POINT('',(-32.5,0.,-16.5));
#1849=CARTESIAN_POINT('',(-33.5,0.,-17.5));
#1850=CARTESIAN_POINT('Origin',(-32.5,0.,-17.5));
#1851=CARTESIAN_POINT('',(-32.5,0.,16.5));
#1852=CARTESIAN_POINT('',(-32.5,0.,17.5));
#1853=CARTESIAN_POINT('',(-32.5,0.,16.5));
#1854=CARTESIAN_POINT('Origin',(-66.5,0.,-16.5));
#1855=CARTESIAN_POINT('',(-67.5,0.,-16.5));
#1856=CARTESIAN_POINT('',(-66.5,0.,-17.5));
#1857=CARTESIAN_POINT('Origin',(-66.5,0.,-16.5));
#1858=CARTESIAN_POINT('',(-66.5,0.,-17.5));
#1859=CARTESIAN_POINT('',(-67.5,0.,-16.5));
#1860=CARTESIAN_POINT('Origin',(-67.5,0.,-17.5));
#1861=CARTESIAN_POINT('',(-32.5,0.,-17.5));
#1862=CARTESIAN_POINT('Origin',(-33.5,0.,16.5));
#1863=CARTESIAN_POINT('',(-33.5,0.,17.5));
#1864=CARTESIAN_POINT('Origin',(-33.5,0.,16.5));
#1865=CARTESIAN_POINT('',(-33.5,0.,17.5));
#1866=CARTESIAN_POINT('Origin',(-32.5,0.,17.5));
#1867=CARTESIAN_POINT('',(-66.5,0.,17.5));
#1868=CARTESIAN_POINT('',(-67.5,0.,17.5));
#1869=CARTESIAN_POINT('',(-66.5,0.,17.5));
#1870=CARTESIAN_POINT('Origin',(-66.5,0.,16.5));
#1871=CARTESIAN_POINT('',(-67.5,0.,16.5));
#1872=CARTESIAN_POINT('Origin',(-66.5,0.,16.5));
#1873=CARTESIAN_POINT('',(-67.5,0.,16.5));
#1874=CARTESIAN_POINT('Origin',(-67.5,0.,17.5));
#1875=CARTESIAN_POINT('',(-67.5,0.,-17.5));
#1876=CARTESIAN_POINT('Origin',(-68.5,0.,-18.5));
#1877=CARTESIAN_POINT('Origin',(-50.,0.,0.));
#1878=CARTESIAN_POINT('Origin',(-36.,9.,7.5));
#1879=CARTESIAN_POINT('',(-36.,10.,14.));
#1880=CARTESIAN_POINT('',(-35.,9.,14.));
#1881=CARTESIAN_POINT('Origin',(-36.,9.,14.));
#1882=CARTESIAN_POINT('',(-35.,9.,-14.));
#1883=CARTESIAN_POINT('',(-35.,9.,7.5));
#1884=CARTESIAN_POINT('',(-36.,10.,-14.));
#1885=CARTESIAN_POINT('Origin',(-36.,9.,-14.));
#1886=CARTESIAN_POINT('',(-36.,10.,7.5));
#1887=CARTESIAN_POINT('Origin',(-57.5,9.,14.));
#1888=CARTESIAN_POINT('',(-64.,10.,14.));
#1889=CARTESIAN_POINT('',(-64.,9.,15.));
#1890=CARTESIAN_POINT('Origin',(-64.,9.,14.));
#1891=CARTESIAN_POINT('',(-36.,9.,15.));
#1892=CARTESIAN_POINT('',(-57.5,9.,15.));
#1893=CARTESIAN_POINT('Origin',(-36.,9.,14.));
#1894=CARTESIAN_POINT('',(-57.5,10.,14.));
#1895=CARTESIAN_POINT('Origin',(-36.,9.,14.));
#1896=CARTESIAN_POINT('Origin',(-36.,9.,14.));
#1897=CARTESIAN_POINT('Origin',(-64.,9.,-7.5));
#1898=CARTESIAN_POINT('',(-64.,10.,-14.));
#1899=CARTESIAN_POINT('',(-65.,9.,-14.));
#1900=CARTESIAN_POINT('Origin',(-64.,9.,-14.));
#1901=CARTESIAN_POINT('',(-65.,9.,14.));
#1902=CARTESIAN_POINT('',(-65.,9.,-7.5));
#1903=CARTESIAN_POINT('Origin',(-64.,9.,14.));
#1904=CARTESIAN_POINT('',(-64.,10.,-7.5));
#1905=CARTESIAN_POINT('Origin',(-64.,9.,14.));
#1906=CARTESIAN_POINT('Origin',(-64.,9.,14.));
#1907=CARTESIAN_POINT('Origin',(-42.5,9.,-14.));
#1908=CARTESIAN_POINT('',(-36.,9.,-15.));
#1909=CARTESIAN_POINT('Origin',(-36.,9.,-14.));
#1910=CARTESIAN_POINT('',(-64.,9.,-15.));
#1911=CARTESIAN_POINT('',(-42.5,9.,-15.));
#1912=CARTESIAN_POINT('Origin',(-64.,9.,-14.));
#1913=CARTESIAN_POINT('',(-42.5,10.,-14.));
#1914=CARTESIAN_POINT('Origin',(-64.,9.,-14.));
#1915=CARTESIAN_POINT('Origin',(-64.,9.,-14.));
#1916=CARTESIAN_POINT('Origin',(-36.,9.,-14.));
#1917=CARTESIAN_POINT('Origin',(-36.,9.,-14.));
#1918=CARTESIAN_POINT('Origin',(-64.,0.,14.));
#1919=CARTESIAN_POINT('',(-65.,0.,14.));
#1920=CARTESIAN_POINT('',(-65.,0.,14.));
#1921=CARTESIAN_POINT('',(-64.,0.,15.));
#1922=CARTESIAN_POINT('Origin',(-64.,0.,14.));
#1923=CARTESIAN_POINT('',(-64.,0.,15.));
#1924=CARTESIAN_POINT('Origin',(-65.,0.,-15.));
#1925=CARTESIAN_POINT('',(-65.,0.,-14.));
#1926=CARTESIAN_POINT('',(-65.,0.,-14.));
#1927=CARTESIAN_POINT('',(-65.,0.,-15.));
#1928=CARTESIAN_POINT('Origin',(-64.,0.,-14.));
#1929=CARTESIAN_POINT('',(-64.,0.,-15.));
#1930=CARTESIAN_POINT('',(-64.,0.,-15.));
#1931=CARTESIAN_POINT('Origin',(-64.,0.,-14.));
#1932=CARTESIAN_POINT('Origin',(-35.,0.,-15.));
#1933=CARTESIAN_POINT('',(-36.,0.,-15.));
#1934=CARTESIAN_POINT('',(-36.,0.,-15.));
#1935=CARTESIAN_POINT('',(-35.,0.,-15.));
#1936=CARTESIAN_POINT('Origin',(-50.,10.,0.));
#1937=CARTESIAN_POINT('',(-38.,10.,-12.));
#1938=CARTESIAN_POINT('',(-38.,10.,12.));
#1939=CARTESIAN_POINT('',(-38.,10.,12.));
#1940=CARTESIAN_POINT('',(-62.,10.,12.));
#1941=CARTESIAN_POINT('',(-62.,10.,12.));
#1942=CARTESIAN_POINT('',(-62.,10.,-12.));
#1943=CARTESIAN_POINT('',(-62.,10.,-12.));
#1944=CARTESIAN_POINT('',(-38.,10.,-12.));
#1945=CARTESIAN_POINT('Origin',(-36.,0.,-14.));
#1946=CARTESIAN_POINT('',(-35.,0.,-14.));
#1947=CARTESIAN_POINT('',(-35.,0.,-14.));
#1948=CARTESIAN_POINT('Origin',(-36.,0.,-14.));
#1949=CARTESIAN_POINT('Origin',(-50.,0.,0.));
#1950=CARTESIAN_POINT('',(-35.,0.,14.));
#1951=CARTESIAN_POINT('',(-35.,0.,15.));
#1952=CARTESIAN_POINT('',(-36.,0.,15.));
#1953=CARTESIAN_POINT('Origin',(-36.,0.,14.));
#1954=CARTESIAN_POINT('',(-65.,0.,15.));
#1955=CARTESIAN_POINT('',(-38.,0.,-12.));
#1956=CARTESIAN_POINT('',(-38.,0.,12.));
#1957=CARTESIAN_POINT('',(-38.,0.,12.));
#1958=CARTESIAN_POINT('',(-62.,0.,-12.));
#1959=CARTESIAN_POINT('',(-38.,0.,-12.));
#1960=CARTESIAN_POINT('',(-62.,0.,12.));
#1961=CARTESIAN_POINT('',(-62.,0.,-12.));
#1962=CARTESIAN_POINT('',(-62.,0.,12.));
#1963=CARTESIAN_POINT('Origin',(-36.,0.,14.));
#1964=CARTESIAN_POINT('',(-36.,0.,15.));
#1965=CARTESIAN_POINT('',(-35.,0.,14.));
#1966=CARTESIAN_POINT('Origin',(-35.,0.,15.));
#1967=CARTESIAN_POINT('Origin',(-62.,0.,-12.));
#1968=CARTESIAN_POINT('',(-38.,0.,-12.));
#1969=CARTESIAN_POINT('',(-62.,0.,-12.));
#1970=CARTESIAN_POINT('Origin',(-62.,0.,12.));
#1971=CARTESIAN_POINT('',(-62.,0.,12.));
#1972=CARTESIAN_POINT('Origin',(-38.,0.,12.));
#1973=CARTESIAN_POINT('',(-38.,0.,12.));
#1974=CARTESIAN_POINT('Origin',(-38.,0.,-12.));
#1975=CARTESIAN_POINT('Origin',(-65.,0.,15.));
#1976=CARTESIAN_POINT('Origin',(-35.,0.,15.));
#1977=CARTESIAN_POINT('',(-35.,0.,15.));
#1978=CARTESIAN_POINT('',(-65.,0.,15.));
#1979=CARTESIAN_POINT('',(-65.,0.,15.));
#1980=CARTESIAN_POINT('',(-65.,4.,15.));
#1981=CARTESIAN_POINT('',(-65.,0.,15.));
#1982=CARTESIAN_POINT('',(-35.,4.,15.));
#1983=CARTESIAN_POINT('',(-65.,4.,15.));
#1984=CARTESIAN_POINT('',(-35.,0.,15.));
#1985=CARTESIAN_POINT('Origin',(-35.,0.,-15.));
#1986=CARTESIAN_POINT('',(-35.,0.,-15.));
#1987=CARTESIAN_POINT('',(-35.,0.,15.));
#1988=CARTESIAN_POINT('',(-35.,4.,-15.));
#1989=CARTESIAN_POINT('',(-35.,4.,15.));
#1990=CARTESIAN_POINT('',(-35.,0.,-15.));
#1991=CARTESIAN_POINT('Origin',(-65.,0.,-15.));
#1992=CARTESIAN_POINT('',(-65.,0.,-15.));
#1993=CARTESIAN_POINT('',(-35.,0.,-15.));
#1994=CARTESIAN_POINT('',(-65.,4.,-15.));
#1995=CARTESIAN_POINT('',(-35.,4.,-15.));
#1996=CARTESIAN_POINT('',(-65.,0.,-15.));
#1997=CARTESIAN_POINT('Origin',(-65.,0.,15.));
#1998=CARTESIAN_POINT('',(-65.,0.,-15.));
#1999=CARTESIAN_POINT('',(-65.,4.,-15.));
#2000=CARTESIAN_POINT('Origin',(-65.5,0.,15.5));
#2001=CARTESIAN_POINT('',(-65.5,0.,15.5));
#2002=CARTESIAN_POINT('',(-34.5,0.,15.5));
#2003=CARTESIAN_POINT('',(-65.5,0.,15.5));
#2004=CARTESIAN_POINT('',(-34.5,4.,15.5));
#2005=CARTESIAN_POINT('',(-34.5,0.,15.5));
#2006=CARTESIAN_POINT('',(-65.5,4.,15.5));
#2007=CARTESIAN_POINT('',(-65.5,4.,15.5));
#2008=CARTESIAN_POINT('',(-65.5,0.,15.5));
#2009=CARTESIAN_POINT('Origin',(-65.5,0.,-15.5));
#2010=CARTESIAN_POINT('',(-65.5,0.,-15.5));
#2011=CARTESIAN_POINT('',(-65.5,0.,-15.5));
#2012=CARTESIAN_POINT('',(-65.5,4.,-15.5));
#2013=CARTESIAN_POINT('',(-65.5,4.,-15.5));
#2014=CARTESIAN_POINT('',(-65.5,0.,-15.5));
#2015=CARTESIAN_POINT('Origin',(-34.5,0.,-15.5));
#2016=CARTESIAN_POINT('',(-34.5,0.,-15.5));
#2017=CARTESIAN_POINT('',(-34.5,0.,-15.5));
#2018=CARTESIAN_POINT('',(-34.5,4.,-15.5));
#2019=CARTESIAN_POINT('',(-34.5,4.,-15.5));
#2020=CARTESIAN_POINT('',(-34.5,0.,-15.5));
#2021=CARTESIAN_POINT('Origin',(-34.5,0.,15.5));
#2022=CARTESIAN_POINT('',(-34.5,0.,15.5));
#2023=CARTESIAN_POINT('',(-34.5,4.,15.5));
#2024=CARTESIAN_POINT('Origin',(-50.,4.,0.));
#2025=CARTESIAN_POINT('Origin',(-50.,0.,0.));
#2026=UNCERTAINTY_MEASURE_WITH_UNIT(LENGTH_MEASURE(0.01),#2030,
'DISTANCE_ACCURACY_VALUE',
'Maximum model space distance between geometric entities at asserted c
onnectivities');
#2027=UNCERTAINTY_MEASURE_WITH_UNIT(LENGTH_MEASURE(0.01),#2030,
'DISTANCE_ACCURACY_VALUE',
'Maximum model space distance between geometric entities at asserted c
onnectivities');
#2028=(
GEOMETRIC_REPRESENTATION_CONTEXT(3)
GLOBAL_UNCERTAINTY_ASSIGNED_CONTEXT((#2026))
GLOBAL_UNIT_ASSIGNED_CONTEXT((#2030,#2032,#2033))
REPRESENTATION_CONTEXT('','3D')
);
#2029=(
GEOMETRIC_REPRESENTATION_CONTEXT(3)
GLOBAL_UNCERTAINTY_ASSIGNED_CONTEXT((#2027))
GLOBAL_UNIT_ASSIGNED_CONTEXT((#2030,#2032,#2033))
REPRESENTATION_CONTEXT('','3D')
);
#2030=(
LENGTH_UNIT()
NAMED_UNIT(*)
SI_UNIT(.MILLI.,.METRE.)
);
#2031=(
LENGTH_UNIT()
NAMED_UNIT(*)
SI_UNIT($,.METRE.)
);
#2032=(
NAMED_UNIT(*)
PLANE_ANGLE_UNIT()
SI_UNIT($,.RADIAN.)
);
#2033=(
NAMED_UNIT(*)
SI_UNIT($,.STERADIAN.)
SOLID_ANGLE_UNIT()
);
#2034=SHAPE_DEFINITION_REPRESENTATION(#2035,#2036);
#2035=PRODUCT_DEFINITION_SHAPE('',$,#2038);
#2036=SHAPE_REPRESENTATION('',(#1202),#2028);
#2037=PRODUCT_DEFINITION_CONTEXT('part definition',#2042,'design');
#2038=PRODUCT_DEFINITION('capot_nutees_portail',
'capot_nutees_portail v0',#2039,#2037);
#2039=PRODUCT_DEFINITION_FORMATION('',$,#2044);
#2040=PRODUCT_RELATED_PRODUCT_CATEGORY('capot_nutees_portail v0',
'capot_nutees_portail v0',(#2044));
#2041=APPLICATION_PROTOCOL_DEFINITION('international standard',
'automotive_design',2009,#2042);
#2042=APPLICATION_CONTEXT(
'Core Data for Automotive Mechanical Design Process');
#2043=PRODUCT_CONTEXT('part definition',#2042,'mechanical');
#2044=PRODUCT('capot_nutees_portail','capot_nutees_portail v0',$,(#2043));
#2045=PRESENTATION_STYLE_ASSIGNMENT((#2046));
#2046=SURFACE_STYLE_USAGE(.BOTH.,#2047);
#2047=SURFACE_SIDE_STYLE('',(#2048));
#2048=SURFACE_STYLE_FILL_AREA(#2049);
#2049=FILL_AREA_STYLE('Acier - Satin\X\E9',(#2050));
#2050=FILL_AREA_STYLE_COLOUR('Acier - Satin\X\E9',#2051);
#2051=COLOUR_RGB('Acier - Satin\X\E9',0.627450980392157,0.627450980392157,
0.627450980392157);
ENDSEC;
END-ISO-10303-21;
