ISO-10303-21;
HEADER;
/* Generated by software containing ST-Developer
 * from STEP Tools, Inc. (www.steptools.com) 
 */

FILE_DESCRIPTION(
/* description */ (''),
/* implementation_level */ '2;1');

FILE_NAME(
/* name */ 'capot_butees_portail.step',
/* time_stamp */ '2025-10-20T15:24:30+02:00',
/* author */ (''),
/* organization */ (''),
/* preprocessor_version */ 'ST-DEVELOPER v20.1',
/* originating_system */ 'Autodesk Translation Framework v14.17.0.0',
/* authorisation */ '');

FILE_SCHEMA (('AUTOMOTIVE_DESIGN { 1 0 10303 214 3 1 1 }'));
ENDSEC;

DATA;
#10=MECHANICAL_DESIGN_GEOMETRIC_PRESENTATION_REPRESENTATION('',(#26,#27,
#28,#29),#2242);
#11=SHAPE_REPRESENTATION_RELATIONSHIP('SRR','None',#2249,#12);
#12=ADVANCED_BREP_SHAPE_REPRESENTATION('',(#30,#31,#32,#33),#2241);
#13=FACE_BOUND('',#451,.T.);
#14=FACE_BOUND('',#473,.T.);
#15=FACE_BOUND('',#476,.T.);
#16=FACE_BOUND('',#493,.T.);
#17=FACE_BOUND('',#495,.T.);
#18=B_SPLINE_CURVE_WITH_KNOTS('',3,(#1923,#1924,#1925,#1926,#1927,#1928),
 .UNSPECIFIED.,.F.,.F.,(4,2,4),(-0.566156334494472,-0.502185407458285,-0.49032362894594),
 .UNSPECIFIED.);
#19=B_SPLINE_CURVE_WITH_KNOTS('',3,(#1934,#1935,#1936,#1937,#1938,#1939),
 .UNSPECIFIED.,.F.,.F.,(4,2,4),(0.49032362894594,0.502185407458284,0.566156334494472),
 .UNSPECIFIED.);
#20=B_SPLINE_CURVE_WITH_KNOTS('',3,(#1958,#1959,#1960,#1961,#1962,#1963),
 .UNSPECIFIED.,.F.,.F.,(4,2,4),(-0.566156334494472,-0.502185407458284,-0.490323628945941),
 .UNSPECIFIED.);
#21=B_SPLINE_CURVE_WITH_KNOTS('',3,(#1969,#1970,#1971,#1972,#1973,#1974),
 .UNSPECIFIED.,.F.,.F.,(4,2,4),(0.49032362894594,0.502185407458284,0.566156334494472),
 .UNSPECIFIED.);
#22=B_SPLINE_CURVE_WITH_KNOTS('',3,(#1985,#1986,#1987,#1988,#1989,#1990),
 .UNSPECIFIED.,.F.,.F.,(4,2,4),(-0.566156334494471,-0.502185407458283,-0.490323628945942),
 .UNSPECIFIED.);
#23=B_SPLINE_CURVE_WITH_KNOTS('',3,(#1996,#1997,#1998,#1999,#2000,#2001),
 .UNSPECIFIED.,.F.,.F.,(4,2,4),(0.490323628945942,0.502185407458283,0.566156334494471),
 .UNSPECIFIED.);
#24=B_SPLINE_CURVE_WITH_KNOTS('',3,(#2006,#2007,#2008,#2009,#2010,#2011),
 .UNSPECIFIED.,.F.,.F.,(4,2,4),(-0.566156334494472,-0.502185407458284,-0.490323628945942),
 .UNSPECIFIED.);
#25=B_SPLINE_CURVE_WITH_KNOTS('',3,(#2017,#2018,#2019,#2020,#2021,#2022),
 .UNSPECIFIED.,.F.,.F.,(4,2,4),(0.490323628945941,0.502185407458283,0.566156334494471),
 .UNSPECIFIED.);
#26=STYLED_ITEM('',(#2258),#30);
#27=STYLED_ITEM('',(#2258),#31);
#28=STYLED_ITEM('',(#2258),#32);
#29=STYLED_ITEM('',(#2258),#33);
#30=MANIFOLD_SOLID_BREP('Corps1',#1291);
#31=MANIFOLD_SOLID_BREP('Corps2',#1292);
#32=MANIFOLD_SOLID_BREP('Corps3',#1293);
#33=MANIFOLD_SOLID_BREP('Corps4',#1294);
#34=PLANE('',#1336);
#35=PLANE('',#1337);
#36=PLANE('',#1338);
#37=PLANE('',#1339);
#38=PLANE('',#1340);
#39=PLANE('',#1341);
#40=PLANE('',#1370);
#41=PLANE('',#1374);
#42=PLANE('',#1375);
#43=PLANE('',#1377);
#44=PLANE('',#1378);
#45=PLANE('',#1382);
#46=PLANE('',#1383);
#47=PLANE('',#1386);
#48=PLANE('',#1387);
#49=PLANE('',#1389);
#50=PLANE('',#1392);
#51=PLANE('',#1393);
#52=PLANE('',#1394);
#53=PLANE('',#1417);
#54=PLANE('',#1420);
#55=PLANE('',#1421);
#56=PLANE('',#1424);
#57=PLANE('',#1427);
#58=PLANE('',#1428);
#59=PLANE('',#1429);
#60=PLANE('',#1430);
#61=PLANE('',#1431);
#62=PLANE('',#1432);
#63=PLANE('',#1433);
#64=PLANE('',#1434);
#65=PLANE('',#1435);
#66=PLANE('',#1436);
#67=PLANE('',#1437);
#68=PLANE('',#1438);
#69=PLANE('',#1439);
#70=PLANE('',#1440);
#71=PLANE('',#1441);
#72=PLANE('',#1442);
#73=LINE('',#1847,#189);
#74=LINE('',#1848,#190);
#75=LINE('',#1857,#191);
#76=LINE('',#1858,#192);
#77=LINE('',#1863,#193);
#78=LINE('',#1864,#194);
#79=LINE('',#1873,#195);
#80=LINE('',#1874,#196);
#81=LINE('',#1876,#197);
#82=LINE('',#1877,#198);
#83=LINE('',#1882,#199);
#84=LINE('',#1883,#200);
#85=LINE('',#1888,#201);
#86=LINE('',#1889,#202);
#87=LINE('',#1894,#203);
#88=LINE('',#1895,#204);
#89=LINE('',#1897,#205);
#90=LINE('',#1899,#206);
#91=LINE('',#1900,#207);
#92=LINE('',#1901,#208);
#93=LINE('',#1929,#209);
#94=LINE('',#1930,#210);
#95=LINE('',#1932,#211);
#96=LINE('',#1940,#212);
#97=LINE('',#1964,#213);
#98=LINE('',#1965,#214);
#99=LINE('',#1967,#215);
#100=LINE('',#1975,#216);
#101=LINE('',#1980,#217);
#102=LINE('',#1981,#218);
#103=LINE('',#1991,#219);
#104=LINE('',#1992,#220);
#105=LINE('',#1994,#221);
#106=LINE('',#2002,#222);
#107=LINE('',#2012,#223);
#108=LINE('',#2013,#224);
#109=LINE('',#2015,#225);
#110=LINE('',#2023,#226);
#111=LINE('',#2028,#227);
#112=LINE('',#2029,#228);
#113=LINE('',#2034,#229);
#114=LINE('',#2035,#230);
#115=LINE('',#2040,#231);
#116=LINE('',#2041,#232);
#117=LINE('',#2044,#233);
#118=LINE('',#2046,#234);
#119=LINE('',#2047,#235);
#120=LINE('',#2051,#236);
#121=LINE('',#2055,#237);
#122=LINE('',#2056,#238);
#123=LINE('',#2064,#239);
#124=LINE('',#2067,#240);
#125=LINE('',#2069,#241);
#126=LINE('',#2070,#242);
#127=LINE('',#2071,#243);
#128=LINE('',#2074,#244);
#129=LINE('',#2077,#245);
#130=LINE('',#2081,#246);
#131=LINE('',#2083,#247);
#132=LINE('',#2085,#248);
#133=LINE('',#2096,#249);
#134=LINE('',#2099,#250);
#135=LINE('',#2105,#251);
#136=LINE('',#2107,#252);
#137=LINE('',#2115,#253);
#138=LINE('',#2117,#254);
#139=LINE('',#2124,#255);
#140=LINE('',#2126,#256);
#141=LINE('',#2133,#257);
#142=LINE('',#2136,#258);
#143=LINE('',#2139,#259);
#144=LINE('',#2140,#260);
#145=LINE('',#2143,#261);
#146=LINE('',#2147,#262);
#147=LINE('',#2148,#263);
#148=LINE('',#2152,#264);
#149=LINE('',#2154,#265);
#150=LINE('',#2156,#266);
#151=LINE('',#2157,#267);
#152=LINE('',#2160,#268);
#153=LINE('',#2164,#269);
#154=LINE('',#2167,#270);
#155=LINE('',#2170,#271);
#156=LINE('',#2172,#272);
#157=LINE('',#2174,#273);
#158=LINE('',#2175,#274);
#159=LINE('',#2177,#275);
#160=LINE('',#2178,#276);
#161=LINE('',#2181,#277);
#162=LINE('',#2182,#278);
#163=LINE('',#2184,#279);
#164=LINE('',#2186,#280);
#165=LINE('',#2192,#281);
#166=LINE('',#2194,#282);
#167=LINE('',#2196,#283);
#168=LINE('',#2197,#284);
#169=LINE('',#2200,#285);
#170=LINE('',#2202,#286);
#171=LINE('',#2203,#287);
#172=LINE('',#2206,#288);
#173=LINE('',#2208,#289);
#174=LINE('',#2209,#290);
#175=LINE('',#2211,#291);
#176=LINE('',#2212,#292);
#177=LINE('',#2216,#293);
#178=LINE('',#2218,#294);
#179=LINE('',#2220,#295);
#180=LINE('',#2221,#296);
#181=LINE('',#2224,#297);
#182=LINE('',#2226,#298);
#183=LINE('',#2227,#299);
#184=LINE('',#2230,#300);
#185=LINE('',#2232,#301);
#186=LINE('',#2233,#302);
#187=LINE('',#2235,#303);
#188=LINE('',#2236,#304);
#189=VECTOR('',#1463,10.);
#190=VECTOR('',#1464,10.);
#191=VECTOR('',#1475,10.);
#192=VECTOR('',#1476,10.);
#193=VECTOR('',#1481,10.);
#194=VECTOR('',#1482,10.);
#195=VECTOR('',#1493,10.);
#196=VECTOR('',#1494,10.);
#197=VECTOR('',#1497,10.);
#198=VECTOR('',#1498,10.);
#199=VECTOR('',#1503,10.);
#200=VECTOR('',#1504,10.);
#201=VECTOR('',#1509,10.);
#202=VECTOR('',#1510,10.);
#203=VECTOR('',#1515,10.);
#204=VECTOR('',#1516,10.);
#205=VECTOR('',#1519,10.);
#206=VECTOR('',#1522,10.);
#207=VECTOR('',#1523,10.);
#208=VECTOR('',#1524,10.);
#209=VECTOR('',#1551,10.);
#210=VECTOR('',#1552,10.);
#211=VECTOR('',#1553,10.);
#212=VECTOR('',#1554,10.);
#213=VECTOR('',#1573,10.);
#214=VECTOR('',#1574,10.);
#215=VECTOR('',#1575,10.);
#216=VECTOR('',#1576,10.);
#217=VECTOR('',#1581,10.);
#218=VECTOR('',#1582,10.);
#219=VECTOR('',#1585,10.);
#220=VECTOR('',#1586,10.);
#221=VECTOR('',#1587,10.);
#222=VECTOR('',#1588,10.);
#223=VECTOR('',#1591,10.);
#224=VECTOR('',#1592,10.);
#225=VECTOR('',#1593,10.);
#226=VECTOR('',#1594,10.);
#227=VECTOR('',#1599,10.);
#228=VECTOR('',#1600,10.);
#229=VECTOR('',#1605,10.);
#230=VECTOR('',#1606,10.);
#231=VECTOR('',#1611,10.);
#232=VECTOR('',#1612,10.);
#233=VECTOR('',#1615,10.);
#234=VECTOR('',#1616,10.);
#235=VECTOR('',#1617,10.);
#236=VECTOR('',#1622,10.);
#237=VECTOR('',#1627,10.);
#238=VECTOR('',#1628,10.);
#239=VECTOR('',#1641,10.);
#240=VECTOR('',#1646,10.);
#241=VECTOR('',#1649,10.);
#242=VECTOR('',#1650,10.);
#243=VECTOR('',#1651,10.);
#244=VECTOR('',#1652,10.);
#245=VECTOR('',#1655,10.);
#246=VECTOR('',#1662,10.);
#247=VECTOR('',#1665,10.);
#248=VECTOR('',#1668,10.);
#249=VECTOR('',#1683,10.);
#250=VECTOR('',#1686,10.);
#251=VECTOR('',#1691,10.);
#252=VECTOR('',#1694,10.);
#253=VECTOR('',#1703,10.);
#254=VECTOR('',#1706,10.);
#255=VECTOR('',#1715,10.);
#256=VECTOR('',#1718,10.);
#257=VECTOR('',#1729,10.);
#258=VECTOR('',#1732,10.);
#259=VECTOR('',#1735,10.);
#260=VECTOR('',#1736,10.);
#261=VECTOR('',#1739,10.);
#262=VECTOR('',#1744,10.);
#263=VECTOR('',#1745,10.);
#264=VECTOR('',#1748,10.);
#265=VECTOR('',#1749,10.);
#266=VECTOR('',#1750,10.);
#267=VECTOR('',#1751,10.);
#268=VECTOR('',#1754,10.);
#269=VECTOR('',#1759,10.);
#270=VECTOR('',#1762,10.);
#271=VECTOR('',#1763,10.);
#272=VECTOR('',#1764,10.);
#273=VECTOR('',#1765,10.);
#274=VECTOR('',#1766,10.);
#275=VECTOR('',#1769,10.);
#276=VECTOR('',#1770,10.);
#277=VECTOR('',#1775,10.);
#278=VECTOR('',#1776,10.);
#279=VECTOR('',#1779,10.);
#280=VECTOR('',#1782,10.);
#281=VECTOR('',#1789,10.);
#282=VECTOR('',#1790,10.);
#283=VECTOR('',#1791,10.);
#284=VECTOR('',#1792,10.);
#285=VECTOR('',#1795,10.);
#286=VECTOR('',#1796,10.);
#287=VECTOR('',#1797,10.);
#288=VECTOR('',#1800,10.);
#289=VECTOR('',#1801,10.);
#290=VECTOR('',#1802,10.);
#291=VECTOR('',#1805,10.);
#292=VECTOR('',#1806,10.);
#293=VECTOR('',#1809,10.);
#294=VECTOR('',#1810,10.);
#295=VECTOR('',#1811,10.);
#296=VECTOR('',#1812,10.);
#297=VECTOR('',#1815,10.);
#298=VECTOR('',#1816,10.);
#299=VECTOR('',#1817,10.);
#300=VECTOR('',#1820,10.);
#301=VECTOR('',#1821,10.);
#302=VECTOR('',#1822,10.);
#303=VECTOR('',#1825,10.);
#304=VECTOR('',#1826,10.);
#305=CYLINDRICAL_SURFACE('',#1316,1.5);
#306=CYLINDRICAL_SURFACE('',#1321,1.5);
#307=CYLINDRICAL_SURFACE('',#1322,1.5);
#308=CYLINDRICAL_SURFACE('',#1328,1.5);
#309=CYLINDRICAL_SURFACE('',#1329,1.5);
#310=CYLINDRICAL_SURFACE('',#1330,1.5);
#311=CYLINDRICAL_SURFACE('',#1332,1.5);
#312=CYLINDRICAL_SURFACE('',#1334,1.5);
#313=CYLINDRICAL_SURFACE('',#1350,1.2);
#314=CYLINDRICAL_SURFACE('',#1359,1.2);
#315=CYLINDRICAL_SURFACE('',#1360,1.2);
#316=CYLINDRICAL_SURFACE('',#1362,1.2);
#317=CYLINDRICAL_SURFACE('',#1363,1.2);
#318=CYLINDRICAL_SURFACE('',#1364,1.2);
#319=CYLINDRICAL_SURFACE('',#1366,1.2);
#320=CYLINDRICAL_SURFACE('',#1368,1.2);
#321=CYLINDRICAL_SURFACE('',#1371,1.5);
#322=CYLINDRICAL_SURFACE('',#1380,1.5);
#323=CYLINDRICAL_SURFACE('',#1388,1.5);
#324=CYLINDRICAL_SURFACE('',#1390,1.5);
#325=CYLINDRICAL_SURFACE('',#1395,1.);
#326=CYLINDRICAL_SURFACE('',#1398,1.);
#327=CYLINDRICAL_SURFACE('',#1403,1.);
#328=CYLINDRICAL_SURFACE('',#1408,1.);
#329=CYLINDRICAL_SURFACE('',#1415,1.);
#330=CYLINDRICAL_SURFACE('',#1418,1.);
#331=CYLINDRICAL_SURFACE('',#1422,1.);
#332=CYLINDRICAL_SURFACE('',#1426,1.);
#333=FACE_OUTER_BOUND('',#412,.T.);
#334=FACE_OUTER_BOUND('',#413,.T.);
#335=FACE_OUTER_BOUND('',#414,.T.);
#336=FACE_OUTER_BOUND('',#415,.T.);
#337=FACE_OUTER_BOUND('',#416,.T.);
#338=FACE_OUTER_BOUND('',#417,.T.);
#339=FACE_OUTER_BOUND('',#418,.T.);
#340=FACE_OUTER_BOUND('',#419,.T.);
#341=FACE_OUTER_BOUND('',#420,.T.);
#342=FACE_OUTER_BOUND('',#421,.T.);
#343=FACE_OUTER_BOUND('',#422,.T.);
#344=FACE_OUTER_BOUND('',#423,.T.);
#345=FACE_OUTER_BOUND('',#424,.T.);
#346=FACE_OUTER_BOUND('',#425,.T.);
#347=FACE_OUTER_BOUND('',#426,.T.);
#348=FACE_OUTER_BOUND('',#427,.T.);
#349=FACE_OUTER_BOUND('',#428,.T.);
#350=FACE_OUTER_BOUND('',#429,.T.);
#351=FACE_OUTER_BOUND('',#430,.T.);
#352=FACE_OUTER_BOUND('',#431,.T.);
#353=FACE_OUTER_BOUND('',#432,.T.);
#354=FACE_OUTER_BOUND('',#433,.T.);
#355=FACE_OUTER_BOUND('',#434,.T.);
#356=FACE_OUTER_BOUND('',#435,.T.);
#357=FACE_OUTER_BOUND('',#436,.T.);
#358=FACE_OUTER_BOUND('',#437,.T.);
#359=FACE_OUTER_BOUND('',#438,.T.);
#360=FACE_OUTER_BOUND('',#439,.T.);
#361=FACE_OUTER_BOUND('',#440,.T.);
#362=FACE_OUTER_BOUND('',#441,.T.);
#363=FACE_OUTER_BOUND('',#442,.T.);
#364=FACE_OUTER_BOUND('',#443,.T.);
#365=FACE_OUTER_BOUND('',#444,.T.);
#366=FACE_OUTER_BOUND('',#445,.T.);
#367=FACE_OUTER_BOUND('',#446,.T.);
#368=FACE_OUTER_BOUND('',#447,.T.);
#369=FACE_OUTER_BOUND('',#448,.T.);
#370=FACE_OUTER_BOUND('',#449,.T.);
#371=FACE_OUTER_BOUND('',#450,.T.);
#372=FACE_OUTER_BOUND('',#452,.T.);
#373=FACE_OUTER_BOUND('',#453,.T.);
#374=FACE_OUTER_BOUND('',#454,.T.);
#375=FACE_OUTER_BOUND('',#455,.T.);
#376=FACE_OUTER_BOUND('',#456,.T.);
#377=FACE_OUTER_BOUND('',#457,.T.);
#378=FACE_OUTER_BOUND('',#458,.T.);
#379=FACE_OUTER_BOUND('',#459,.T.);
#380=FACE_OUTER_BOUND('',#460,.T.);
#381=FACE_OUTER_BOUND('',#461,.T.);
#382=FACE_OUTER_BOUND('',#462,.T.);
#383=FACE_OUTER_BOUND('',#463,.T.);
#384=FACE_OUTER_BOUND('',#464,.T.);
#385=FACE_OUTER_BOUND('',#465,.T.);
#386=FACE_OUTER_BOUND('',#466,.T.);
#387=FACE_OUTER_BOUND('',#467,.T.);
#388=FACE_OUTER_BOUND('',#468,.T.);
#389=FACE_OUTER_BOUND('',#469,.T.);
#390=FACE_OUTER_BOUND('',#470,.T.);
#391=FACE_OUTER_BOUND('',#471,.T.);
#392=FACE_OUTER_BOUND('',#472,.T.);
#393=FACE_OUTER_BOUND('',#474,.T.);
#394=FACE_OUTER_BOUND('',#475,.T.);
#395=FACE_OUTER_BOUND('',#477,.T.);
#396=FACE_OUTER_BOUND('',#478,.T.);
#397=FACE_OUTER_BOUND('',#479,.T.);
#398=FACE_OUTER_BOUND('',#480,.T.);
#399=FACE_OUTER_BOUND('',#481,.T.);
#400=FACE_OUTER_BOUND('',#482,.T.);
#401=FACE_OUTER_BOUND('',#483,.T.);
#402=FACE_OUTER_BOUND('',#484,.T.);
#403=FACE_OUTER_BOUND('',#485,.T.);
#404=FACE_OUTER_BOUND('',#486,.T.);
#405=FACE_OUTER_BOUND('',#487,.T.);
#406=FACE_OUTER_BOUND('',#488,.T.);
#407=FACE_OUTER_BOUND('',#489,.T.);
#408=FACE_OUTER_BOUND('',#490,.T.);
#409=FACE_OUTER_BOUND('',#491,.T.);
#410=FACE_OUTER_BOUND('',#492,.T.);
#411=FACE_OUTER_BOUND('',#494,.T.);
#412=EDGE_LOOP('',(#840,#841,#842));
#413=EDGE_LOOP('',(#843,#844,#845));
#414=EDGE_LOOP('',(#846,#847,#848,#849));
#415=EDGE_LOOP('',(#850,#851,#852));
#416=EDGE_LOOP('',(#853,#854,#855,#856));
#417=EDGE_LOOP('',(#857,#858,#859,#860));
#418=EDGE_LOOP('',(#861,#862,#863));
#419=EDGE_LOOP('',(#864,#865,#866,#867));
#420=EDGE_LOOP('',(#868,#869,#870,#871));
#421=EDGE_LOOP('',(#872,#873,#874,#875));
#422=EDGE_LOOP('',(#876,#877,#878,#879));
#423=EDGE_LOOP('',(#880,#881,#882,#883));
#424=EDGE_LOOP('',(#884,#885,#886,#887));
#425=EDGE_LOOP('',(#888,#889,#890,#891,#892,#893,#894,#895));
#426=EDGE_LOOP('',(#896,#897,#898,#899));
#427=EDGE_LOOP('',(#900,#901,#902,#903));
#428=EDGE_LOOP('',(#904,#905,#906,#907));
#429=EDGE_LOOP('',(#908,#909,#910,#911));
#430=EDGE_LOOP('',(#912,#913,#914));
#431=EDGE_LOOP('',(#915,#916,#917));
#432=EDGE_LOOP('',(#918,#919,#920,#921,#922,#923,#924,#925));
#433=EDGE_LOOP('',(#926,#927,#928));
#434=EDGE_LOOP('',(#929,#930,#931));
#435=EDGE_LOOP('',(#932,#933,#934,#935,#936,#937,#938,#939));
#436=EDGE_LOOP('',(#940,#941,#942,#943));
#437=EDGE_LOOP('',(#944,#945,#946,#947,#948,#949,#950,#951));
#438=EDGE_LOOP('',(#952,#953,#954,#955,#956,#957,#958,#959));
#439=EDGE_LOOP('',(#960,#961,#962,#963));
#440=EDGE_LOOP('',(#964,#965,#966,#967));
#441=EDGE_LOOP('',(#968,#969,#970,#971));
#442=EDGE_LOOP('',(#972,#973,#974,#975));
#443=EDGE_LOOP('',(#976,#977,#978,#979,#980,#981));
#444=EDGE_LOOP('',(#982,#983,#984,#985));
#445=EDGE_LOOP('',(#986,#987,#988));
#446=EDGE_LOOP('',(#989,#990,#991));
#447=EDGE_LOOP('',(#992,#993,#994));
#448=EDGE_LOOP('',(#995,#996,#997,#998,#999,#1000));
#449=EDGE_LOOP('',(#1001,#1002,#1003,#1004));
#450=EDGE_LOOP('',(#1005,#1006,#1007,#1008,#1009,#1010,#1011,#1012));
#451=EDGE_LOOP('',(#1013,#1014,#1015,#1016,#1017,#1018,#1019,#1020));
#452=EDGE_LOOP('',(#1021,#1022,#1023,#1024));
#453=EDGE_LOOP('',(#1025,#1026,#1027,#1028));
#454=EDGE_LOOP('',(#1029,#1030,#1031,#1032,#1033,#1034));
#455=EDGE_LOOP('',(#1035,#1036,#1037,#1038));
#456=EDGE_LOOP('',(#1039,#1040,#1041,#1042,#1043,#1044));
#457=EDGE_LOOP('',(#1045,#1046,#1047,#1048));
#458=EDGE_LOOP('',(#1049,#1050,#1051,#1052));
#459=EDGE_LOOP('',(#1053,#1054,#1055));
#460=EDGE_LOOP('',(#1056,#1057,#1058,#1059));
#461=EDGE_LOOP('',(#1060,#1061,#1062,#1063));
#462=EDGE_LOOP('',(#1064,#1065,#1066));
#463=EDGE_LOOP('',(#1067,#1068,#1069,#1070));
#464=EDGE_LOOP('',(#1071,#1072,#1073));
#465=EDGE_LOOP('',(#1074,#1075,#1076,#1077));
#466=EDGE_LOOP('',(#1078,#1079,#1080));
#467=EDGE_LOOP('',(#1081,#1082,#1083));
#468=EDGE_LOOP('',(#1084,#1085,#1086,#1087));
#469=EDGE_LOOP('',(#1088,#1089,#1090,#1091));
#470=EDGE_LOOP('',(#1092,#1093,#1094,#1095));
#471=EDGE_LOOP('',(#1096,#1097,#1098,#1099));
#472=EDGE_LOOP('',(#1100,#1101,#1102,#1103));
#473=EDGE_LOOP('',(#1104,#1105,#1106,#1107));
#474=EDGE_LOOP('',(#1108,#1109,#1110,#1111));
#475=EDGE_LOOP('',(#1112,#1113,#1114,#1115,#1116,#1117,#1118,#1119));
#476=EDGE_LOOP('',(#1120,#1121,#1122,#1123));
#477=EDGE_LOOP('',(#1124,#1125,#1126,#1127));
#478=EDGE_LOOP('',(#1128,#1129,#1130,#1131));
#479=EDGE_LOOP('',(#1132,#1133,#1134,#1135));
#480=EDGE_LOOP('',(#1136,#1137,#1138,#1139));
#481=EDGE_LOOP('',(#1140,#1141,#1142,#1143));
#482=EDGE_LOOP('',(#1144,#1145,#1146,#1147));
#483=EDGE_LOOP('',(#1148,#1149,#1150,#1151));
#484=EDGE_LOOP('',(#1152,#1153,#1154,#1155));
#485=EDGE_LOOP('',(#1156,#1157,#1158,#1159));
#486=EDGE_LOOP('',(#1160,#1161,#1162,#1163));
#487=EDGE_LOOP('',(#1164,#1165,#1166,#1167));
#488=EDGE_LOOP('',(#1168,#1169,#1170,#1171));
#489=EDGE_LOOP('',(#1172,#1173,#1174,#1175));
#490=EDGE_LOOP('',(#1176,#1177,#1178,#1179));
#491=EDGE_LOOP('',(#1180,#1181,#1182,#1183));
#492=EDGE_LOOP('',(#1184,#1185,#1186,#1187));
#493=EDGE_LOOP('',(#1188,#1189,#1190,#1191));
#494=EDGE_LOOP('',(#1192,#1193,#1194,#1195));
#495=EDGE_LOOP('',(#1196,#1197,#1198,#1199));
#496=CIRCLE('',#1309,1.5);
#497=CIRCLE('',#1310,1.5);
#498=CIRCLE('',#1311,1.5);
#499=CIRCLE('',#1313,1.5);
#500=CIRCLE('',#1314,1.5);
#501=CIRCLE('',#1315,1.5);
#502=CIRCLE('',#1318,1.5);
#503=CIRCLE('',#1319,1.5);
#504=CIRCLE('',#1320,1.5);
#505=CIRCLE('',#1323,1.5);
#506=CIRCLE('',#1325,1.5);
#507=CIRCLE('',#1326,1.5);
#508=CIRCLE('',#1327,1.5);
#509=CIRCLE('',#1331,1.5);
#510=CIRCLE('',#1333,1.5);
#511=CIRCLE('',#1335,1.5);
#512=CIRCLE('',#1343,1.2);
#513=CIRCLE('',#1344,1.2);
#514=CIRCLE('',#1345,1.2);
#515=CIRCLE('',#1347,1.2);
#516=CIRCLE('',#1348,1.2);
#517=CIRCLE('',#1349,1.19999999999999);
#518=CIRCLE('',#1352,1.2);
#519=CIRCLE('',#1353,1.2);
#520=CIRCLE('',#1354,1.2);
#521=CIRCLE('',#1356,1.2);
#522=CIRCLE('',#1357,1.2);
#523=CIRCLE('',#1358,1.20000000000001);
#524=CIRCLE('',#1361,1.2);
#525=CIRCLE('',#1365,1.2);
#526=CIRCLE('',#1367,1.2);
#527=CIRCLE('',#1369,1.2);
#528=CIRCLE('',#1372,1.5);
#529=CIRCLE('',#1373,1.5);
#530=CIRCLE('',#1376,1.5);
#531=CIRCLE('',#1379,1.5);
#532=CIRCLE('',#1381,1.5);
#533=CIRCLE('',#1384,1.5);
#534=CIRCLE('',#1385,1.5);
#535=CIRCLE('',#1391,1.5);
#536=CIRCLE('',#1396,1.);
#537=CIRCLE('',#1397,1.);
#538=CIRCLE('',#1399,1.);
#539=CIRCLE('',#1400,1.);
#540=CIRCLE('',#1402,1.);
#541=CIRCLE('',#1404,1.);
#542=CIRCLE('',#1405,0.999999999999996);
#543=CIRCLE('',#1407,1.);
#544=CIRCLE('',#1409,1.);
#545=CIRCLE('',#1410,1.);
#546=CIRCLE('',#1412,1.);
#547=CIRCLE('',#1414,1.);
#548=CIRCLE('',#1416,1.);
#549=CIRCLE('',#1419,1.);
#550=CIRCLE('',#1423,1.);
#551=CIRCLE('',#1425,1.);
#552=VERTEX_POINT('',#1833);
#553=VERTEX_POINT('',#1834);
#554=VERTEX_POINT('',#1836);
#555=VERTEX_POINT('',#1840);
#556=VERTEX_POINT('',#1841);
#557=VERTEX_POINT('',#1843);
#558=VERTEX_POINT('',#1850);
#559=VERTEX_POINT('',#1851);
#560=VERTEX_POINT('',#1853);
#561=VERTEX_POINT('',#1860);
#562=VERTEX_POINT('',#1861);
#563=VERTEX_POINT('',#1866);
#564=VERTEX_POINT('',#1867);
#565=VERTEX_POINT('',#1869);
#566=VERTEX_POINT('',#1879);
#567=VERTEX_POINT('',#1880);
#568=VERTEX_POINT('',#1885);
#569=VERTEX_POINT('',#1886);
#570=VERTEX_POINT('',#1891);
#571=VERTEX_POINT('',#1892);
#572=VERTEX_POINT('',#1907);
#573=VERTEX_POINT('',#1908);
#574=VERTEX_POINT('',#1910);
#575=VERTEX_POINT('',#1914);
#576=VERTEX_POINT('',#1915);
#577=VERTEX_POINT('',#1917);
#578=VERTEX_POINT('',#1921);
#579=VERTEX_POINT('',#1922);
#580=VERTEX_POINT('',#1931);
#581=VERTEX_POINT('',#1933);
#582=VERTEX_POINT('',#1942);
#583=VERTEX_POINT('',#1943);
#584=VERTEX_POINT('',#1945);
#585=VERTEX_POINT('',#1949);
#586=VERTEX_POINT('',#1950);
#587=VERTEX_POINT('',#1952);
#588=VERTEX_POINT('',#1956);
#589=VERTEX_POINT('',#1957);
#590=VERTEX_POINT('',#1966);
#591=VERTEX_POINT('',#1968);
#592=VERTEX_POINT('',#1977);
#593=VERTEX_POINT('',#1978);
#594=VERTEX_POINT('',#1983);
#595=VERTEX_POINT('',#1984);
#596=VERTEX_POINT('',#1993);
#597=VERTEX_POINT('',#1995);
#598=VERTEX_POINT('',#2004);
#599=VERTEX_POINT('',#2005);
#600=VERTEX_POINT('',#2014);
#601=VERTEX_POINT('',#2016);
#602=VERTEX_POINT('',#2025);
#603=VERTEX_POINT('',#2026);
#604=VERTEX_POINT('',#2031);
#605=VERTEX_POINT('',#2032);
#606=VERTEX_POINT('',#2037);
#607=VERTEX_POINT('',#2038);
#608=VERTEX_POINT('',#2043);
#609=VERTEX_POINT('',#2045);
#610=VERTEX_POINT('',#2050);
#611=VERTEX_POINT('',#2054);
#612=VERTEX_POINT('',#2063);
#613=VERTEX_POINT('',#2072);
#614=VERTEX_POINT('',#2073);
#615=VERTEX_POINT('',#2076);
#616=VERTEX_POINT('',#2092);
#617=VERTEX_POINT('',#2093);
#618=VERTEX_POINT('',#2095);
#619=VERTEX_POINT('',#2097);
#620=VERTEX_POINT('',#2101);
#621=VERTEX_POINT('',#2102);
#622=VERTEX_POINT('',#2104);
#623=VERTEX_POINT('',#2111);
#624=VERTEX_POINT('',#2112);
#625=VERTEX_POINT('',#2114);
#626=VERTEX_POINT('',#2121);
#627=VERTEX_POINT('',#2123);
#628=VERTEX_POINT('',#2132);
#629=VERTEX_POINT('',#2134);
#630=VERTEX_POINT('',#2138);
#631=VERTEX_POINT('',#2142);
#632=VERTEX_POINT('',#2146);
#633=VERTEX_POINT('',#2150);
#634=VERTEX_POINT('',#2151);
#635=VERTEX_POINT('',#2153);
#636=VERTEX_POINT('',#2155);
#637=VERTEX_POINT('',#2159);
#638=VERTEX_POINT('',#2163);
#639=VERTEX_POINT('',#2165);
#640=VERTEX_POINT('',#2168);
#641=VERTEX_POINT('',#2169);
#642=VERTEX_POINT('',#2171);
#643=VERTEX_POINT('',#2173);
#644=VERTEX_POINT('',#2190);
#645=VERTEX_POINT('',#2191);
#646=VERTEX_POINT('',#2193);
#647=VERTEX_POINT('',#2195);
#648=VERTEX_POINT('',#2199);
#649=VERTEX_POINT('',#2201);
#650=VERTEX_POINT('',#2205);
#651=VERTEX_POINT('',#2207);
#652=VERTEX_POINT('',#2214);
#653=VERTEX_POINT('',#2215);
#654=VERTEX_POINT('',#2217);
#655=VERTEX_POINT('',#2219);
#656=VERTEX_POINT('',#2223);
#657=VERTEX_POINT('',#2225);
#658=VERTEX_POINT('',#2229);
#659=VERTEX_POINT('',#2231);
#660=EDGE_CURVE('',#552,#553,#496,.F.);
#661=EDGE_CURVE('',#554,#552,#497,.F.);
#662=EDGE_CURVE('',#553,#554,#498,.F.);
#663=EDGE_CURVE('',#555,#556,#499,.F.);
#664=EDGE_CURVE('',#557,#555,#500,.F.);
#665=EDGE_CURVE('',#556,#557,#501,.F.);
#666=EDGE_CURVE('',#555,#553,#73,.T.);
#667=EDGE_CURVE('',#554,#557,#74,.T.);
#668=EDGE_CURVE('',#558,#559,#502,.F.);
#669=EDGE_CURVE('',#560,#558,#503,.F.);
#670=EDGE_CURVE('',#559,#560,#504,.F.);
#671=EDGE_CURVE('',#552,#560,#75,.T.);
#672=EDGE_CURVE('',#558,#554,#76,.T.);
#673=EDGE_CURVE('',#561,#562,#505,.T.);
#674=EDGE_CURVE('',#562,#559,#77,.T.);
#675=EDGE_CURVE('',#560,#561,#78,.T.);
#676=EDGE_CURVE('',#563,#564,#506,.F.);
#677=EDGE_CURVE('',#565,#563,#507,.F.);
#678=EDGE_CURVE('',#564,#565,#508,.F.);
#679=EDGE_CURVE('',#563,#556,#79,.T.);
#680=EDGE_CURVE('',#557,#565,#80,.T.);
#681=EDGE_CURVE('',#559,#564,#81,.T.);
#682=EDGE_CURVE('',#565,#558,#82,.T.);
#683=EDGE_CURVE('',#566,#567,#509,.T.);
#684=EDGE_CURVE('',#567,#563,#83,.T.);
#685=EDGE_CURVE('',#564,#566,#84,.T.);
#686=EDGE_CURVE('',#568,#569,#510,.T.);
#687=EDGE_CURVE('',#569,#555,#85,.T.);
#688=EDGE_CURVE('',#556,#568,#86,.T.);
#689=EDGE_CURVE('',#570,#571,#511,.T.);
#690=EDGE_CURVE('',#571,#552,#87,.T.);
#691=EDGE_CURVE('',#553,#570,#88,.T.);
#692=EDGE_CURVE('',#570,#569,#89,.T.);
#693=EDGE_CURVE('',#568,#567,#90,.T.);
#694=EDGE_CURVE('',#566,#562,#91,.T.);
#695=EDGE_CURVE('',#561,#571,#92,.T.);
#696=EDGE_CURVE('',#572,#573,#512,.F.);
#697=EDGE_CURVE('',#574,#572,#513,.F.);
#698=EDGE_CURVE('',#573,#574,#514,.F.);
#699=EDGE_CURVE('',#575,#576,#515,.F.);
#700=EDGE_CURVE('',#577,#575,#516,.F.);
#701=EDGE_CURVE('',#576,#577,#517,.F.);
#702=EDGE_CURVE('',#578,#579,#18,.T.);
#703=EDGE_CURVE('',#579,#577,#93,.T.);
#704=EDGE_CURVE('',#575,#573,#94,.T.);
#705=EDGE_CURVE('',#574,#580,#95,.T.);
#706=EDGE_CURVE('',#580,#581,#19,.T.);
#707=EDGE_CURVE('',#581,#578,#96,.T.);
#708=EDGE_CURVE('',#582,#583,#518,.F.);
#709=EDGE_CURVE('',#584,#582,#519,.F.);
#710=EDGE_CURVE('',#583,#584,#520,.F.);
#711=EDGE_CURVE('',#585,#586,#521,.F.);
#712=EDGE_CURVE('',#587,#585,#522,.F.);
#713=EDGE_CURVE('',#586,#587,#523,.F.);
#714=EDGE_CURVE('',#588,#589,#20,.T.);
#715=EDGE_CURVE('',#589,#584,#97,.T.);
#716=EDGE_CURVE('',#582,#587,#98,.T.);
#717=EDGE_CURVE('',#585,#590,#99,.T.);
#718=EDGE_CURVE('',#590,#591,#21,.T.);
#719=EDGE_CURVE('',#591,#588,#100,.T.);
#720=EDGE_CURVE('',#592,#593,#524,.T.);
#721=EDGE_CURVE('',#593,#586,#101,.T.);
#722=EDGE_CURVE('',#587,#592,#102,.T.);
#723=EDGE_CURVE('',#594,#595,#22,.T.);
#724=EDGE_CURVE('',#595,#585,#103,.T.);
#725=EDGE_CURVE('',#586,#576,#104,.T.);
#726=EDGE_CURVE('',#577,#596,#105,.T.);
#727=EDGE_CURVE('',#596,#597,#23,.T.);
#728=EDGE_CURVE('',#597,#594,#106,.T.);
#729=EDGE_CURVE('',#598,#599,#24,.T.);
#730=EDGE_CURVE('',#599,#574,#107,.T.);
#731=EDGE_CURVE('',#572,#583,#108,.T.);
#732=EDGE_CURVE('',#584,#600,#109,.T.);
#733=EDGE_CURVE('',#600,#601,#25,.T.);
#734=EDGE_CURVE('',#601,#598,#110,.T.);
#735=EDGE_CURVE('',#602,#603,#525,.T.);
#736=EDGE_CURVE('',#603,#582,#111,.T.);
#737=EDGE_CURVE('',#583,#602,#112,.T.);
#738=EDGE_CURVE('',#604,#605,#526,.T.);
#739=EDGE_CURVE('',#605,#575,#113,.T.);
#740=EDGE_CURVE('',#576,#604,#114,.T.);
#741=EDGE_CURVE('',#606,#607,#527,.T.);
#742=EDGE_CURVE('',#607,#572,#115,.T.);
#743=EDGE_CURVE('',#573,#606,#116,.T.);
#744=EDGE_CURVE('',#608,#597,#117,.T.);
#745=EDGE_CURVE('',#609,#608,#118,.T.);
#746=EDGE_CURVE('',#594,#609,#119,.T.);
#747=EDGE_CURVE('',#596,#579,#528,.T.);
#748=EDGE_CURVE('',#578,#610,#120,.T.);
#749=EDGE_CURVE('',#610,#608,#529,.T.);
#750=EDGE_CURVE('',#611,#581,#121,.T.);
#751=EDGE_CURVE('',#610,#611,#122,.T.);
#752=EDGE_CURVE('',#580,#599,#530,.T.);
#753=EDGE_CURVE('',#600,#589,#531,.T.);
#754=EDGE_CURVE('',#598,#612,#123,.T.);
#755=EDGE_CURVE('',#612,#611,#532,.T.);
#756=EDGE_CURVE('',#592,#603,#124,.T.);
#757=EDGE_CURVE('',#602,#607,#125,.T.);
#758=EDGE_CURVE('',#606,#605,#126,.T.);
#759=EDGE_CURVE('',#604,#593,#127,.T.);
#760=EDGE_CURVE('',#613,#614,#128,.T.);
#761=EDGE_CURVE('',#609,#614,#533,.T.);
#762=EDGE_CURVE('',#612,#615,#129,.T.);
#763=EDGE_CURVE('',#613,#615,#534,.T.);
#764=EDGE_CURVE('',#615,#601,#130,.T.);
#765=EDGE_CURVE('',#588,#613,#131,.T.);
#766=EDGE_CURVE('',#614,#591,#132,.T.);
#767=EDGE_CURVE('',#590,#595,#535,.T.);
#768=EDGE_CURVE('',#616,#617,#536,.T.);
#769=EDGE_CURVE('',#617,#618,#133,.T.);
#770=EDGE_CURVE('',#618,#619,#537,.T.);
#771=EDGE_CURVE('',#619,#616,#134,.T.);
#772=EDGE_CURVE('',#620,#621,#538,.T.);
#773=EDGE_CURVE('',#621,#622,#135,.T.);
#774=EDGE_CURVE('',#622,#616,#539,.T.);
#775=EDGE_CURVE('',#616,#620,#136,.T.);
#776=EDGE_CURVE('',#622,#617,#540,.T.);
#777=EDGE_CURVE('',#623,#624,#541,.T.);
#778=EDGE_CURVE('',#624,#625,#137,.T.);
#779=EDGE_CURVE('',#625,#620,#542,.T.);
#780=EDGE_CURVE('',#620,#623,#138,.T.);
#781=EDGE_CURVE('',#625,#621,#543,.T.);
#782=EDGE_CURVE('',#619,#626,#544,.T.);
#783=EDGE_CURVE('',#626,#627,#139,.T.);
#784=EDGE_CURVE('',#627,#623,#545,.T.);
#785=EDGE_CURVE('',#623,#619,#140,.T.);
#786=EDGE_CURVE('',#627,#624,#546,.T.);
#787=EDGE_CURVE('',#618,#626,#547,.T.);
#788=EDGE_CURVE('',#625,#628,#141,.T.);
#789=EDGE_CURVE('',#628,#629,#548,.T.);
#790=EDGE_CURVE('',#629,#621,#142,.T.);
#791=EDGE_CURVE('',#630,#624,#143,.T.);
#792=EDGE_CURVE('',#630,#628,#144,.T.);
#793=EDGE_CURVE('',#627,#631,#145,.T.);
#794=EDGE_CURVE('',#631,#630,#549,.T.);
#795=EDGE_CURVE('',#632,#626,#146,.T.);
#796=EDGE_CURVE('',#632,#631,#147,.T.);
#797=EDGE_CURVE('',#633,#634,#148,.T.);
#798=EDGE_CURVE('',#634,#635,#149,.T.);
#799=EDGE_CURVE('',#635,#636,#150,.T.);
#800=EDGE_CURVE('',#636,#633,#151,.T.);
#801=EDGE_CURVE('',#618,#637,#152,.T.);
#802=EDGE_CURVE('',#637,#632,#550,.T.);
#803=EDGE_CURVE('',#638,#637,#153,.T.);
#804=EDGE_CURVE('',#639,#638,#551,.T.);
#805=EDGE_CURVE('',#629,#639,#154,.T.);
#806=EDGE_CURVE('',#640,#641,#155,.T.);
#807=EDGE_CURVE('',#642,#640,#156,.T.);
#808=EDGE_CURVE('',#643,#642,#157,.T.);
#809=EDGE_CURVE('',#641,#643,#158,.T.);
#810=EDGE_CURVE('',#622,#639,#159,.T.);
#811=EDGE_CURVE('',#638,#617,#160,.T.);
#812=EDGE_CURVE('',#640,#633,#161,.T.);
#813=EDGE_CURVE('',#642,#636,#162,.T.);
#814=EDGE_CURVE('',#643,#635,#163,.T.);
#815=EDGE_CURVE('',#641,#634,#164,.T.);
#816=EDGE_CURVE('',#644,#645,#165,.T.);
#817=EDGE_CURVE('',#645,#646,#166,.T.);
#818=EDGE_CURVE('',#647,#646,#167,.T.);
#819=EDGE_CURVE('',#644,#647,#168,.T.);
#820=EDGE_CURVE('',#648,#644,#169,.T.);
#821=EDGE_CURVE('',#649,#647,#170,.T.);
#822=EDGE_CURVE('',#648,#649,#171,.T.);
#823=EDGE_CURVE('',#650,#648,#172,.T.);
#824=EDGE_CURVE('',#651,#649,#173,.T.);
#825=EDGE_CURVE('',#650,#651,#174,.T.);
#826=EDGE_CURVE('',#645,#650,#175,.T.);
#827=EDGE_CURVE('',#646,#651,#176,.T.);
#828=EDGE_CURVE('',#652,#653,#177,.T.);
#829=EDGE_CURVE('',#653,#654,#178,.T.);
#830=EDGE_CURVE('',#655,#654,#179,.T.);
#831=EDGE_CURVE('',#652,#655,#180,.T.);
#832=EDGE_CURVE('',#656,#652,#181,.T.);
#833=EDGE_CURVE('',#657,#655,#182,.T.);
#834=EDGE_CURVE('',#656,#657,#183,.T.);
#835=EDGE_CURVE('',#658,#656,#184,.T.);
#836=EDGE_CURVE('',#659,#657,#185,.T.);
#837=EDGE_CURVE('',#658,#659,#186,.T.);
#838=EDGE_CURVE('',#653,#658,#187,.T.);
#839=EDGE_CURVE('',#654,#659,#188,.T.);
#840=ORIENTED_EDGE('',*,*,#660,.F.);
#841=ORIENTED_EDGE('',*,*,#661,.F.);
#842=ORIENTED_EDGE('',*,*,#662,.F.);
#843=ORIENTED_EDGE('',*,*,#663,.F.);
#844=ORIENTED_EDGE('',*,*,#664,.F.);
#845=ORIENTED_EDGE('',*,*,#665,.F.);
#846=ORIENTED_EDGE('',*,*,#664,.T.);
#847=ORIENTED_EDGE('',*,*,#666,.T.);
#848=ORIENTED_EDGE('',*,*,#662,.T.);
#849=ORIENTED_EDGE('',*,*,#667,.T.);
#850=ORIENTED_EDGE('',*,*,#668,.F.);
#851=ORIENTED_EDGE('',*,*,#669,.F.);
#852=ORIENTED_EDGE('',*,*,#670,.F.);
#853=ORIENTED_EDGE('',*,*,#661,.T.);
#854=ORIENTED_EDGE('',*,*,#671,.T.);
#855=ORIENTED_EDGE('',*,*,#669,.T.);
#856=ORIENTED_EDGE('',*,*,#672,.T.);
#857=ORIENTED_EDGE('',*,*,#673,.T.);
#858=ORIENTED_EDGE('',*,*,#674,.T.);
#859=ORIENTED_EDGE('',*,*,#670,.T.);
#860=ORIENTED_EDGE('',*,*,#675,.T.);
#861=ORIENTED_EDGE('',*,*,#676,.F.);
#862=ORIENTED_EDGE('',*,*,#677,.F.);
#863=ORIENTED_EDGE('',*,*,#678,.F.);
#864=ORIENTED_EDGE('',*,*,#677,.T.);
#865=ORIENTED_EDGE('',*,*,#679,.T.);
#866=ORIENTED_EDGE('',*,*,#665,.T.);
#867=ORIENTED_EDGE('',*,*,#680,.T.);
#868=ORIENTED_EDGE('',*,*,#668,.T.);
#869=ORIENTED_EDGE('',*,*,#681,.T.);
#870=ORIENTED_EDGE('',*,*,#678,.T.);
#871=ORIENTED_EDGE('',*,*,#682,.T.);
#872=ORIENTED_EDGE('',*,*,#683,.T.);
#873=ORIENTED_EDGE('',*,*,#684,.T.);
#874=ORIENTED_EDGE('',*,*,#676,.T.);
#875=ORIENTED_EDGE('',*,*,#685,.T.);
#876=ORIENTED_EDGE('',*,*,#686,.T.);
#877=ORIENTED_EDGE('',*,*,#687,.T.);
#878=ORIENTED_EDGE('',*,*,#663,.T.);
#879=ORIENTED_EDGE('',*,*,#688,.T.);
#880=ORIENTED_EDGE('',*,*,#689,.T.);
#881=ORIENTED_EDGE('',*,*,#690,.T.);
#882=ORIENTED_EDGE('',*,*,#660,.T.);
#883=ORIENTED_EDGE('',*,*,#691,.T.);
#884=ORIENTED_EDGE('',*,*,#691,.F.);
#885=ORIENTED_EDGE('',*,*,#666,.F.);
#886=ORIENTED_EDGE('',*,*,#687,.F.);
#887=ORIENTED_EDGE('',*,*,#692,.F.);
#888=ORIENTED_EDGE('',*,*,#689,.F.);
#889=ORIENTED_EDGE('',*,*,#692,.T.);
#890=ORIENTED_EDGE('',*,*,#686,.F.);
#891=ORIENTED_EDGE('',*,*,#693,.T.);
#892=ORIENTED_EDGE('',*,*,#683,.F.);
#893=ORIENTED_EDGE('',*,*,#694,.T.);
#894=ORIENTED_EDGE('',*,*,#673,.F.);
#895=ORIENTED_EDGE('',*,*,#695,.T.);
#896=ORIENTED_EDGE('',*,*,#688,.F.);
#897=ORIENTED_EDGE('',*,*,#679,.F.);
#898=ORIENTED_EDGE('',*,*,#684,.F.);
#899=ORIENTED_EDGE('',*,*,#693,.F.);
#900=ORIENTED_EDGE('',*,*,#667,.F.);
#901=ORIENTED_EDGE('',*,*,#672,.F.);
#902=ORIENTED_EDGE('',*,*,#682,.F.);
#903=ORIENTED_EDGE('',*,*,#680,.F.);
#904=ORIENTED_EDGE('',*,*,#674,.F.);
#905=ORIENTED_EDGE('',*,*,#694,.F.);
#906=ORIENTED_EDGE('',*,*,#685,.F.);
#907=ORIENTED_EDGE('',*,*,#681,.F.);
#908=ORIENTED_EDGE('',*,*,#690,.F.);
#909=ORIENTED_EDGE('',*,*,#695,.F.);
#910=ORIENTED_EDGE('',*,*,#675,.F.);
#911=ORIENTED_EDGE('',*,*,#671,.F.);
#912=ORIENTED_EDGE('',*,*,#696,.F.);
#913=ORIENTED_EDGE('',*,*,#697,.F.);
#914=ORIENTED_EDGE('',*,*,#698,.F.);
#915=ORIENTED_EDGE('',*,*,#699,.F.);
#916=ORIENTED_EDGE('',*,*,#700,.F.);
#917=ORIENTED_EDGE('',*,*,#701,.F.);
#918=ORIENTED_EDGE('',*,*,#702,.T.);
#919=ORIENTED_EDGE('',*,*,#703,.T.);
#920=ORIENTED_EDGE('',*,*,#700,.T.);
#921=ORIENTED_EDGE('',*,*,#704,.T.);
#922=ORIENTED_EDGE('',*,*,#698,.T.);
#923=ORIENTED_EDGE('',*,*,#705,.T.);
#924=ORIENTED_EDGE('',*,*,#706,.T.);
#925=ORIENTED_EDGE('',*,*,#707,.T.);
#926=ORIENTED_EDGE('',*,*,#708,.F.);
#927=ORIENTED_EDGE('',*,*,#709,.F.);
#928=ORIENTED_EDGE('',*,*,#710,.F.);
#929=ORIENTED_EDGE('',*,*,#711,.F.);
#930=ORIENTED_EDGE('',*,*,#712,.F.);
#931=ORIENTED_EDGE('',*,*,#713,.F.);
#932=ORIENTED_EDGE('',*,*,#714,.T.);
#933=ORIENTED_EDGE('',*,*,#715,.T.);
#934=ORIENTED_EDGE('',*,*,#709,.T.);
#935=ORIENTED_EDGE('',*,*,#716,.T.);
#936=ORIENTED_EDGE('',*,*,#712,.T.);
#937=ORIENTED_EDGE('',*,*,#717,.T.);
#938=ORIENTED_EDGE('',*,*,#718,.T.);
#939=ORIENTED_EDGE('',*,*,#719,.T.);
#940=ORIENTED_EDGE('',*,*,#720,.T.);
#941=ORIENTED_EDGE('',*,*,#721,.T.);
#942=ORIENTED_EDGE('',*,*,#713,.T.);
#943=ORIENTED_EDGE('',*,*,#722,.T.);
#944=ORIENTED_EDGE('',*,*,#723,.T.);
#945=ORIENTED_EDGE('',*,*,#724,.T.);
#946=ORIENTED_EDGE('',*,*,#711,.T.);
#947=ORIENTED_EDGE('',*,*,#725,.T.);
#948=ORIENTED_EDGE('',*,*,#701,.T.);
#949=ORIENTED_EDGE('',*,*,#726,.T.);
#950=ORIENTED_EDGE('',*,*,#727,.T.);
#951=ORIENTED_EDGE('',*,*,#728,.T.);
#952=ORIENTED_EDGE('',*,*,#729,.T.);
#953=ORIENTED_EDGE('',*,*,#730,.T.);
#954=ORIENTED_EDGE('',*,*,#697,.T.);
#955=ORIENTED_EDGE('',*,*,#731,.T.);
#956=ORIENTED_EDGE('',*,*,#710,.T.);
#957=ORIENTED_EDGE('',*,*,#732,.T.);
#958=ORIENTED_EDGE('',*,*,#733,.T.);
#959=ORIENTED_EDGE('',*,*,#734,.T.);
#960=ORIENTED_EDGE('',*,*,#735,.T.);
#961=ORIENTED_EDGE('',*,*,#736,.T.);
#962=ORIENTED_EDGE('',*,*,#708,.T.);
#963=ORIENTED_EDGE('',*,*,#737,.T.);
#964=ORIENTED_EDGE('',*,*,#738,.T.);
#965=ORIENTED_EDGE('',*,*,#739,.T.);
#966=ORIENTED_EDGE('',*,*,#699,.T.);
#967=ORIENTED_EDGE('',*,*,#740,.T.);
#968=ORIENTED_EDGE('',*,*,#741,.T.);
#969=ORIENTED_EDGE('',*,*,#742,.T.);
#970=ORIENTED_EDGE('',*,*,#696,.T.);
#971=ORIENTED_EDGE('',*,*,#743,.T.);
#972=ORIENTED_EDGE('',*,*,#728,.F.);
#973=ORIENTED_EDGE('',*,*,#744,.F.);
#974=ORIENTED_EDGE('',*,*,#745,.F.);
#975=ORIENTED_EDGE('',*,*,#746,.F.);
#976=ORIENTED_EDGE('',*,*,#727,.F.);
#977=ORIENTED_EDGE('',*,*,#747,.T.);
#978=ORIENTED_EDGE('',*,*,#702,.F.);
#979=ORIENTED_EDGE('',*,*,#748,.T.);
#980=ORIENTED_EDGE('',*,*,#749,.T.);
#981=ORIENTED_EDGE('',*,*,#744,.T.);
#982=ORIENTED_EDGE('',*,*,#707,.F.);
#983=ORIENTED_EDGE('',*,*,#750,.F.);
#984=ORIENTED_EDGE('',*,*,#751,.F.);
#985=ORIENTED_EDGE('',*,*,#748,.F.);
#986=ORIENTED_EDGE('',*,*,#705,.F.);
#987=ORIENTED_EDGE('',*,*,#730,.F.);
#988=ORIENTED_EDGE('',*,*,#752,.F.);
#989=ORIENTED_EDGE('',*,*,#726,.F.);
#990=ORIENTED_EDGE('',*,*,#703,.F.);
#991=ORIENTED_EDGE('',*,*,#747,.F.);
#992=ORIENTED_EDGE('',*,*,#715,.F.);
#993=ORIENTED_EDGE('',*,*,#753,.F.);
#994=ORIENTED_EDGE('',*,*,#732,.F.);
#995=ORIENTED_EDGE('',*,*,#706,.F.);
#996=ORIENTED_EDGE('',*,*,#752,.T.);
#997=ORIENTED_EDGE('',*,*,#729,.F.);
#998=ORIENTED_EDGE('',*,*,#754,.T.);
#999=ORIENTED_EDGE('',*,*,#755,.T.);
#1000=ORIENTED_EDGE('',*,*,#750,.T.);
#1001=ORIENTED_EDGE('',*,*,#722,.F.);
#1002=ORIENTED_EDGE('',*,*,#716,.F.);
#1003=ORIENTED_EDGE('',*,*,#736,.F.);
#1004=ORIENTED_EDGE('',*,*,#756,.F.);
#1005=ORIENTED_EDGE('',*,*,#720,.F.);
#1006=ORIENTED_EDGE('',*,*,#756,.T.);
#1007=ORIENTED_EDGE('',*,*,#735,.F.);
#1008=ORIENTED_EDGE('',*,*,#757,.T.);
#1009=ORIENTED_EDGE('',*,*,#741,.F.);
#1010=ORIENTED_EDGE('',*,*,#758,.T.);
#1011=ORIENTED_EDGE('',*,*,#738,.F.);
#1012=ORIENTED_EDGE('',*,*,#759,.T.);
#1013=ORIENTED_EDGE('',*,*,#760,.T.);
#1014=ORIENTED_EDGE('',*,*,#761,.F.);
#1015=ORIENTED_EDGE('',*,*,#745,.T.);
#1016=ORIENTED_EDGE('',*,*,#749,.F.);
#1017=ORIENTED_EDGE('',*,*,#751,.T.);
#1018=ORIENTED_EDGE('',*,*,#755,.F.);
#1019=ORIENTED_EDGE('',*,*,#762,.T.);
#1020=ORIENTED_EDGE('',*,*,#763,.F.);
#1021=ORIENTED_EDGE('',*,*,#737,.F.);
#1022=ORIENTED_EDGE('',*,*,#731,.F.);
#1023=ORIENTED_EDGE('',*,*,#742,.F.);
#1024=ORIENTED_EDGE('',*,*,#757,.F.);
#1025=ORIENTED_EDGE('',*,*,#734,.F.);
#1026=ORIENTED_EDGE('',*,*,#764,.F.);
#1027=ORIENTED_EDGE('',*,*,#762,.F.);
#1028=ORIENTED_EDGE('',*,*,#754,.F.);
#1029=ORIENTED_EDGE('',*,*,#714,.F.);
#1030=ORIENTED_EDGE('',*,*,#765,.T.);
#1031=ORIENTED_EDGE('',*,*,#763,.T.);
#1032=ORIENTED_EDGE('',*,*,#764,.T.);
#1033=ORIENTED_EDGE('',*,*,#733,.F.);
#1034=ORIENTED_EDGE('',*,*,#753,.T.);
#1035=ORIENTED_EDGE('',*,*,#719,.F.);
#1036=ORIENTED_EDGE('',*,*,#766,.F.);
#1037=ORIENTED_EDGE('',*,*,#760,.F.);
#1038=ORIENTED_EDGE('',*,*,#765,.F.);
#1039=ORIENTED_EDGE('',*,*,#723,.F.);
#1040=ORIENTED_EDGE('',*,*,#746,.T.);
#1041=ORIENTED_EDGE('',*,*,#761,.T.);
#1042=ORIENTED_EDGE('',*,*,#766,.T.);
#1043=ORIENTED_EDGE('',*,*,#718,.F.);
#1044=ORIENTED_EDGE('',*,*,#767,.T.);
#1045=ORIENTED_EDGE('',*,*,#721,.F.);
#1046=ORIENTED_EDGE('',*,*,#759,.F.);
#1047=ORIENTED_EDGE('',*,*,#740,.F.);
#1048=ORIENTED_EDGE('',*,*,#725,.F.);
#1049=ORIENTED_EDGE('',*,*,#739,.F.);
#1050=ORIENTED_EDGE('',*,*,#758,.F.);
#1051=ORIENTED_EDGE('',*,*,#743,.F.);
#1052=ORIENTED_EDGE('',*,*,#704,.F.);
#1053=ORIENTED_EDGE('',*,*,#724,.F.);
#1054=ORIENTED_EDGE('',*,*,#767,.F.);
#1055=ORIENTED_EDGE('',*,*,#717,.F.);
#1056=ORIENTED_EDGE('',*,*,#768,.T.);
#1057=ORIENTED_EDGE('',*,*,#769,.T.);
#1058=ORIENTED_EDGE('',*,*,#770,.T.);
#1059=ORIENTED_EDGE('',*,*,#771,.T.);
#1060=ORIENTED_EDGE('',*,*,#772,.T.);
#1061=ORIENTED_EDGE('',*,*,#773,.T.);
#1062=ORIENTED_EDGE('',*,*,#774,.T.);
#1063=ORIENTED_EDGE('',*,*,#775,.T.);
#1064=ORIENTED_EDGE('',*,*,#774,.F.);
#1065=ORIENTED_EDGE('',*,*,#776,.T.);
#1066=ORIENTED_EDGE('',*,*,#768,.F.);
#1067=ORIENTED_EDGE('',*,*,#777,.T.);
#1068=ORIENTED_EDGE('',*,*,#778,.T.);
#1069=ORIENTED_EDGE('',*,*,#779,.T.);
#1070=ORIENTED_EDGE('',*,*,#780,.T.);
#1071=ORIENTED_EDGE('',*,*,#779,.F.);
#1072=ORIENTED_EDGE('',*,*,#781,.T.);
#1073=ORIENTED_EDGE('',*,*,#772,.F.);
#1074=ORIENTED_EDGE('',*,*,#782,.T.);
#1075=ORIENTED_EDGE('',*,*,#783,.T.);
#1076=ORIENTED_EDGE('',*,*,#784,.T.);
#1077=ORIENTED_EDGE('',*,*,#785,.T.);
#1078=ORIENTED_EDGE('',*,*,#784,.F.);
#1079=ORIENTED_EDGE('',*,*,#786,.T.);
#1080=ORIENTED_EDGE('',*,*,#777,.F.);
#1081=ORIENTED_EDGE('',*,*,#770,.F.);
#1082=ORIENTED_EDGE('',*,*,#787,.T.);
#1083=ORIENTED_EDGE('',*,*,#782,.F.);
#1084=ORIENTED_EDGE('',*,*,#781,.F.);
#1085=ORIENTED_EDGE('',*,*,#788,.T.);
#1086=ORIENTED_EDGE('',*,*,#789,.T.);
#1087=ORIENTED_EDGE('',*,*,#790,.T.);
#1088=ORIENTED_EDGE('',*,*,#778,.F.);
#1089=ORIENTED_EDGE('',*,*,#791,.F.);
#1090=ORIENTED_EDGE('',*,*,#792,.T.);
#1091=ORIENTED_EDGE('',*,*,#788,.F.);
#1092=ORIENTED_EDGE('',*,*,#786,.F.);
#1093=ORIENTED_EDGE('',*,*,#793,.T.);
#1094=ORIENTED_EDGE('',*,*,#794,.T.);
#1095=ORIENTED_EDGE('',*,*,#791,.T.);
#1096=ORIENTED_EDGE('',*,*,#783,.F.);
#1097=ORIENTED_EDGE('',*,*,#795,.F.);
#1098=ORIENTED_EDGE('',*,*,#796,.T.);
#1099=ORIENTED_EDGE('',*,*,#793,.F.);
#1100=ORIENTED_EDGE('',*,*,#771,.F.);
#1101=ORIENTED_EDGE('',*,*,#785,.F.);
#1102=ORIENTED_EDGE('',*,*,#780,.F.);
#1103=ORIENTED_EDGE('',*,*,#775,.F.);
#1104=ORIENTED_EDGE('',*,*,#797,.T.);
#1105=ORIENTED_EDGE('',*,*,#798,.T.);
#1106=ORIENTED_EDGE('',*,*,#799,.T.);
#1107=ORIENTED_EDGE('',*,*,#800,.T.);
#1108=ORIENTED_EDGE('',*,*,#787,.F.);
#1109=ORIENTED_EDGE('',*,*,#801,.T.);
#1110=ORIENTED_EDGE('',*,*,#802,.T.);
#1111=ORIENTED_EDGE('',*,*,#795,.T.);
#1112=ORIENTED_EDGE('',*,*,#802,.F.);
#1113=ORIENTED_EDGE('',*,*,#803,.F.);
#1114=ORIENTED_EDGE('',*,*,#804,.F.);
#1115=ORIENTED_EDGE('',*,*,#805,.F.);
#1116=ORIENTED_EDGE('',*,*,#789,.F.);
#1117=ORIENTED_EDGE('',*,*,#792,.F.);
#1118=ORIENTED_EDGE('',*,*,#794,.F.);
#1119=ORIENTED_EDGE('',*,*,#796,.F.);
#1120=ORIENTED_EDGE('',*,*,#806,.F.);
#1121=ORIENTED_EDGE('',*,*,#807,.F.);
#1122=ORIENTED_EDGE('',*,*,#808,.F.);
#1123=ORIENTED_EDGE('',*,*,#809,.F.);
#1124=ORIENTED_EDGE('',*,*,#776,.F.);
#1125=ORIENTED_EDGE('',*,*,#810,.T.);
#1126=ORIENTED_EDGE('',*,*,#804,.T.);
#1127=ORIENTED_EDGE('',*,*,#811,.T.);
#1128=ORIENTED_EDGE('',*,*,#769,.F.);
#1129=ORIENTED_EDGE('',*,*,#811,.F.);
#1130=ORIENTED_EDGE('',*,*,#803,.T.);
#1131=ORIENTED_EDGE('',*,*,#801,.F.);
#1132=ORIENTED_EDGE('',*,*,#807,.T.);
#1133=ORIENTED_EDGE('',*,*,#812,.T.);
#1134=ORIENTED_EDGE('',*,*,#800,.F.);
#1135=ORIENTED_EDGE('',*,*,#813,.F.);
#1136=ORIENTED_EDGE('',*,*,#808,.T.);
#1137=ORIENTED_EDGE('',*,*,#813,.T.);
#1138=ORIENTED_EDGE('',*,*,#799,.F.);
#1139=ORIENTED_EDGE('',*,*,#814,.F.);
#1140=ORIENTED_EDGE('',*,*,#809,.T.);
#1141=ORIENTED_EDGE('',*,*,#814,.T.);
#1142=ORIENTED_EDGE('',*,*,#798,.F.);
#1143=ORIENTED_EDGE('',*,*,#815,.F.);
#1144=ORIENTED_EDGE('',*,*,#806,.T.);
#1145=ORIENTED_EDGE('',*,*,#815,.T.);
#1146=ORIENTED_EDGE('',*,*,#797,.F.);
#1147=ORIENTED_EDGE('',*,*,#812,.F.);
#1148=ORIENTED_EDGE('',*,*,#773,.F.);
#1149=ORIENTED_EDGE('',*,*,#790,.F.);
#1150=ORIENTED_EDGE('',*,*,#805,.T.);
#1151=ORIENTED_EDGE('',*,*,#810,.F.);
#1152=ORIENTED_EDGE('',*,*,#816,.T.);
#1153=ORIENTED_EDGE('',*,*,#817,.T.);
#1154=ORIENTED_EDGE('',*,*,#818,.F.);
#1155=ORIENTED_EDGE('',*,*,#819,.F.);
#1156=ORIENTED_EDGE('',*,*,#820,.T.);
#1157=ORIENTED_EDGE('',*,*,#819,.T.);
#1158=ORIENTED_EDGE('',*,*,#821,.F.);
#1159=ORIENTED_EDGE('',*,*,#822,.F.);
#1160=ORIENTED_EDGE('',*,*,#823,.T.);
#1161=ORIENTED_EDGE('',*,*,#822,.T.);
#1162=ORIENTED_EDGE('',*,*,#824,.F.);
#1163=ORIENTED_EDGE('',*,*,#825,.F.);
#1164=ORIENTED_EDGE('',*,*,#826,.T.);
#1165=ORIENTED_EDGE('',*,*,#825,.T.);
#1166=ORIENTED_EDGE('',*,*,#827,.F.);
#1167=ORIENTED_EDGE('',*,*,#817,.F.);
#1168=ORIENTED_EDGE('',*,*,#828,.T.);
#1169=ORIENTED_EDGE('',*,*,#829,.T.);
#1170=ORIENTED_EDGE('',*,*,#830,.F.);
#1171=ORIENTED_EDGE('',*,*,#831,.F.);
#1172=ORIENTED_EDGE('',*,*,#832,.T.);
#1173=ORIENTED_EDGE('',*,*,#831,.T.);
#1174=ORIENTED_EDGE('',*,*,#833,.F.);
#1175=ORIENTED_EDGE('',*,*,#834,.F.);
#1176=ORIENTED_EDGE('',*,*,#835,.T.);
#1177=ORIENTED_EDGE('',*,*,#834,.T.);
#1178=ORIENTED_EDGE('',*,*,#836,.F.);
#1179=ORIENTED_EDGE('',*,*,#837,.F.);
#1180=ORIENTED_EDGE('',*,*,#838,.T.);
#1181=ORIENTED_EDGE('',*,*,#837,.T.);
#1182=ORIENTED_EDGE('',*,*,#839,.F.);
#1183=ORIENTED_EDGE('',*,*,#829,.F.);
#1184=ORIENTED_EDGE('',*,*,#839,.T.);
#1185=ORIENTED_EDGE('',*,*,#836,.T.);
#1186=ORIENTED_EDGE('',*,*,#833,.T.);
#1187=ORIENTED_EDGE('',*,*,#830,.T.);
#1188=ORIENTED_EDGE('',*,*,#827,.T.);
#1189=ORIENTED_EDGE('',*,*,#824,.T.);
#1190=ORIENTED_EDGE('',*,*,#821,.T.);
#1191=ORIENTED_EDGE('',*,*,#818,.T.);
#1192=ORIENTED_EDGE('',*,*,#838,.F.);
#1193=ORIENTED_EDGE('',*,*,#828,.F.);
#1194=ORIENTED_EDGE('',*,*,#832,.F.);
#1195=ORIENTED_EDGE('',*,*,#835,.F.);
#1196=ORIENTED_EDGE('',*,*,#826,.F.);
#1197=ORIENTED_EDGE('',*,*,#816,.F.);
#1198=ORIENTED_EDGE('',*,*,#820,.F.);
#1199=ORIENTED_EDGE('',*,*,#823,.F.);
#1200=SPHERICAL_SURFACE('',#1308,1.5);
#1201=SPHERICAL_SURFACE('',#1312,1.5);
#1202=SPHERICAL_SURFACE('',#1317,1.5);
#1203=SPHERICAL_SURFACE('',#1324,1.5);
#1204=SPHERICAL_SURFACE('',#1342,1.2);
#1205=SPHERICAL_SURFACE('',#1346,1.2);
#1206=SPHERICAL_SURFACE('',#1351,1.2);
#1207=SPHERICAL_SURFACE('',#1355,1.2);
#1208=SPHERICAL_SURFACE('',#1401,1.);
#1209=SPHERICAL_SURFACE('',#1406,1.);
#1210=SPHERICAL_SURFACE('',#1411,1.);
#1211=SPHERICAL_SURFACE('',#1413,1.);
#1212=ADVANCED_FACE('',(#333),#1200,.T.);
#1213=ADVANCED_FACE('',(#334),#1201,.T.);
#1214=ADVANCED_FACE('',(#335),#305,.T.);
#1215=ADVANCED_FACE('',(#336),#1202,.T.);
#1216=ADVANCED_FACE('',(#337),#306,.T.);
#1217=ADVANCED_FACE('',(#338),#307,.T.);
#1218=ADVANCED_FACE('',(#339),#1203,.T.);
#1219=ADVANCED_FACE('',(#340),#308,.T.);
#1220=ADVANCED_FACE('',(#341),#309,.T.);
#1221=ADVANCED_FACE('',(#342),#310,.T.);
#1222=ADVANCED_FACE('',(#343),#311,.T.);
#1223=ADVANCED_FACE('',(#344),#312,.T.);
#1224=ADVANCED_FACE('',(#345),#34,.T.);
#1225=ADVANCED_FACE('',(#346),#35,.T.);
#1226=ADVANCED_FACE('',(#347),#36,.T.);
#1227=ADVANCED_FACE('',(#348),#37,.F.);
#1228=ADVANCED_FACE('',(#349),#38,.T.);
#1229=ADVANCED_FACE('',(#350),#39,.T.);
#1230=ADVANCED_FACE('',(#351),#1204,.T.);
#1231=ADVANCED_FACE('',(#352),#1205,.T.);
#1232=ADVANCED_FACE('',(#353),#313,.T.);
#1233=ADVANCED_FACE('',(#354),#1206,.T.);
#1234=ADVANCED_FACE('',(#355),#1207,.T.);
#1235=ADVANCED_FACE('',(#356),#314,.T.);
#1236=ADVANCED_FACE('',(#357),#315,.T.);
#1237=ADVANCED_FACE('',(#358),#316,.T.);
#1238=ADVANCED_FACE('',(#359),#317,.T.);
#1239=ADVANCED_FACE('',(#360),#318,.T.);
#1240=ADVANCED_FACE('',(#361),#319,.T.);
#1241=ADVANCED_FACE('',(#362),#320,.T.);
#1242=ADVANCED_FACE('',(#363),#40,.T.);
#1243=ADVANCED_FACE('',(#364),#321,.F.);
#1244=ADVANCED_FACE('',(#365),#41,.T.);
#1245=ADVANCED_FACE('',(#366),#42,.F.);
#1246=ADVANCED_FACE('',(#367),#43,.F.);
#1247=ADVANCED_FACE('',(#368),#44,.F.);
#1248=ADVANCED_FACE('',(#369),#322,.F.);
#1249=ADVANCED_FACE('',(#370),#45,.T.);
#1250=ADVANCED_FACE('',(#371,#13),#46,.T.);
#1251=ADVANCED_FACE('',(#372),#47,.T.);
#1252=ADVANCED_FACE('',(#373),#48,.T.);
#1253=ADVANCED_FACE('',(#374),#323,.F.);
#1254=ADVANCED_FACE('',(#375),#49,.T.);
#1255=ADVANCED_FACE('',(#376),#324,.F.);
#1256=ADVANCED_FACE('',(#377),#50,.T.);
#1257=ADVANCED_FACE('',(#378),#51,.T.);
#1258=ADVANCED_FACE('',(#379),#52,.F.);
#1259=ADVANCED_FACE('',(#380),#325,.T.);
#1260=ADVANCED_FACE('',(#381),#326,.T.);
#1261=ADVANCED_FACE('',(#382),#1208,.T.);
#1262=ADVANCED_FACE('',(#383),#327,.T.);
#1263=ADVANCED_FACE('',(#384),#1209,.T.);
#1264=ADVANCED_FACE('',(#385),#328,.T.);
#1265=ADVANCED_FACE('',(#386),#1210,.T.);
#1266=ADVANCED_FACE('',(#387),#1211,.T.);
#1267=ADVANCED_FACE('',(#388),#329,.T.);
#1268=ADVANCED_FACE('',(#389),#53,.T.);
#1269=ADVANCED_FACE('',(#390),#330,.T.);
#1270=ADVANCED_FACE('',(#391),#54,.T.);
#1271=ADVANCED_FACE('',(#392,#14),#55,.T.);
#1272=ADVANCED_FACE('',(#393),#331,.T.);
#1273=ADVANCED_FACE('',(#394,#15),#56,.F.);
#1274=ADVANCED_FACE('',(#395),#332,.T.);
#1275=ADVANCED_FACE('',(#396),#57,.T.);
#1276=ADVANCED_FACE('',(#397),#58,.T.);
#1277=ADVANCED_FACE('',(#398),#59,.T.);
#1278=ADVANCED_FACE('',(#399),#60,.T.);
#1279=ADVANCED_FACE('',(#400),#61,.T.);
#1280=ADVANCED_FACE('',(#401),#62,.T.);
#1281=ADVANCED_FACE('',(#402),#63,.T.);
#1282=ADVANCED_FACE('',(#403),#64,.T.);
#1283=ADVANCED_FACE('',(#404),#65,.T.);
#1284=ADVANCED_FACE('',(#405),#66,.T.);
#1285=ADVANCED_FACE('',(#406),#67,.T.);
#1286=ADVANCED_FACE('',(#407),#68,.T.);
#1287=ADVANCED_FACE('',(#408),#69,.T.);
#1288=ADVANCED_FACE('',(#409),#70,.T.);
#1289=ADVANCED_FACE('',(#410,#16),#71,.T.);
#1290=ADVANCED_FACE('',(#411,#17),#72,.F.);
#1291=CLOSED_SHELL('',(#1212,#1213,#1214,#1215,#1216,#1217,#1218,#1219,
#1220,#1221,#1222,#1223,#1224,#1225,#1226,#1227,#1228,#1229));
#1292=CLOSED_SHELL('',(#1230,#1231,#1232,#1233,#1234,#1235,#1236,#1237,
#1238,#1239,#1240,#1241,#1242,#1243,#1244,#1245,#1246,#1247,#1248,#1249,
#1250,#1251,#1252,#1253,#1254,#1255,#1256,#1257,#1258));
#1293=CLOSED_SHELL('',(#1259,#1260,#1261,#1262,#1263,#1264,#1265,#1266,
#1267,#1268,#1269,#1270,#1271,#1272,#1273,#1274,#1275,#1276,#1277,#1278,
#1279,#1280));
#1294=CLOSED_SHELL('',(#1281,#1282,#1283,#1284,#1285,#1286,#1287,#1288,
#1289,#1290));
#1295=DERIVED_UNIT_ELEMENT(#1297,1.);
#1296=DERIVED_UNIT_ELEMENT(#2244,-3.);
#1297=(
MASS_UNIT()
NAMED_UNIT(*)
SI_UNIT(.KILO.,.GRAM.)
);
#1298=DERIVED_UNIT((#1295,#1296));
#1299=MEASURE_REPRESENTATION_ITEM('density measure',
POSITIVE_RATIO_MEASURE(7850.),#1298);
#1300=PROPERTY_DEFINITION_REPRESENTATION(#1305,#1302);
#1301=PROPERTY_DEFINITION_REPRESENTATION(#1306,#1303);
#1302=REPRESENTATION('material name',(#1304),#2241);
#1303=REPRESENTATION('density',(#1299),#2241);
#1304=DESCRIPTIVE_REPRESENTATION_ITEM('Acier','Acier');
#1305=PROPERTY_DEFINITION('material property','material name',#2251);
#1306=PROPERTY_DEFINITION('material property','density of part',#2251);
#1307=AXIS2_PLACEMENT_3D('',#1831,#1443,#1444);
#1308=AXIS2_PLACEMENT_3D('',#1832,#1445,#1446);
#1309=AXIS2_PLACEMENT_3D('',#1835,#1447,#1448);
#1310=AXIS2_PLACEMENT_3D('',#1837,#1449,#1450);
#1311=AXIS2_PLACEMENT_3D('',#1838,#1451,#1452);
#1312=AXIS2_PLACEMENT_3D('',#1839,#1453,#1454);
#1313=AXIS2_PLACEMENT_3D('',#1842,#1455,#1456);
#1314=AXIS2_PLACEMENT_3D('',#1844,#1457,#1458);
#1315=AXIS2_PLACEMENT_3D('',#1845,#1459,#1460);
#1316=AXIS2_PLACEMENT_3D('',#1846,#1461,#1462);
#1317=AXIS2_PLACEMENT_3D('',#1849,#1465,#1466);
#1318=AXIS2_PLACEMENT_3D('',#1852,#1467,#1468);
#1319=AXIS2_PLACEMENT_3D('',#1854,#1469,#1470);
#1320=AXIS2_PLACEMENT_3D('',#1855,#1471,#1472);
#1321=AXIS2_PLACEMENT_3D('',#1856,#1473,#1474);
#1322=AXIS2_PLACEMENT_3D('',#1859,#1477,#1478);
#1323=AXIS2_PLACEMENT_3D('',#1862,#1479,#1480);
#1324=AXIS2_PLACEMENT_3D('',#1865,#1483,#1484);
#1325=AXIS2_PLACEMENT_3D('',#1868,#1485,#1486);
#1326=AXIS2_PLACEMENT_3D('',#1870,#1487,#1488);
#1327=AXIS2_PLACEMENT_3D('',#1871,#1489,#1490);
#1328=AXIS2_PLACEMENT_3D('',#1872,#1491,#1492);
#1329=AXIS2_PLACEMENT_3D('',#1875,#1495,#1496);
#1330=AXIS2_PLACEMENT_3D('',#1878,#1499,#1500);
#1331=AXIS2_PLACEMENT_3D('',#1881,#1501,#1502);
#1332=AXIS2_PLACEMENT_3D('',#1884,#1505,#1506);
#1333=AXIS2_PLACEMENT_3D('',#1887,#1507,#1508);
#1334=AXIS2_PLACEMENT_3D('',#1890,#1511,#1512);
#1335=AXIS2_PLACEMENT_3D('',#1893,#1513,#1514);
#1336=AXIS2_PLACEMENT_3D('',#1896,#1517,#1518);
#1337=AXIS2_PLACEMENT_3D('',#1898,#1520,#1521);
#1338=AXIS2_PLACEMENT_3D('',#1902,#1525,#1526);
#1339=AXIS2_PLACEMENT_3D('',#1903,#1527,#1528);
#1340=AXIS2_PLACEMENT_3D('',#1904,#1529,#1530);
#1341=AXIS2_PLACEMENT_3D('',#1905,#1531,#1532);
#1342=AXIS2_PLACEMENT_3D('',#1906,#1533,#1534);
#1343=AXIS2_PLACEMENT_3D('',#1909,#1535,#1536);
#1344=AXIS2_PLACEMENT_3D('',#1911,#1537,#1538);
#1345=AXIS2_PLACEMENT_3D('',#1912,#1539,#1540);
#1346=AXIS2_PLACEMENT_3D('',#1913,#1541,#1542);
#1347=AXIS2_PLACEMENT_3D('',#1916,#1543,#1544);
#1348=AXIS2_PLACEMENT_3D('',#1918,#1545,#1546);
#1349=AXIS2_PLACEMENT_3D('',#1919,#1547,#1548);
#1350=AXIS2_PLACEMENT_3D('',#1920,#1549,#1550);
#1351=AXIS2_PLACEMENT_3D('',#1941,#1555,#1556);
#1352=AXIS2_PLACEMENT_3D('',#1944,#1557,#1558);
#1353=AXIS2_PLACEMENT_3D('',#1946,#1559,#1560);
#1354=AXIS2_PLACEMENT_3D('',#1947,#1561,#1562);
#1355=AXIS2_PLACEMENT_3D('',#1948,#1563,#1564);
#1356=AXIS2_PLACEMENT_3D('',#1951,#1565,#1566);
#1357=AXIS2_PLACEMENT_3D('',#1953,#1567,#1568);
#1358=AXIS2_PLACEMENT_3D('',#1954,#1569,#1570);
#1359=AXIS2_PLACEMENT_3D('',#1955,#1571,#1572);
#1360=AXIS2_PLACEMENT_3D('',#1976,#1577,#1578);
#1361=AXIS2_PLACEMENT_3D('',#1979,#1579,#1580);
#1362=AXIS2_PLACEMENT_3D('',#1982,#1583,#1584);
#1363=AXIS2_PLACEMENT_3D('',#2003,#1589,#1590);
#1364=AXIS2_PLACEMENT_3D('',#2024,#1595,#1596);
#1365=AXIS2_PLACEMENT_3D('',#2027,#1597,#1598);
#1366=AXIS2_PLACEMENT_3D('',#2030,#1601,#1602);
#1367=AXIS2_PLACEMENT_3D('',#2033,#1603,#1604);
#1368=AXIS2_PLACEMENT_3D('',#2036,#1607,#1608);
#1369=AXIS2_PLACEMENT_3D('',#2039,#1609,#1610);
#1370=AXIS2_PLACEMENT_3D('',#2042,#1613,#1614);
#1371=AXIS2_PLACEMENT_3D('',#2048,#1618,#1619);
#1372=AXIS2_PLACEMENT_3D('',#2049,#1620,#1621);
#1373=AXIS2_PLACEMENT_3D('',#2052,#1623,#1624);
#1374=AXIS2_PLACEMENT_3D('',#2053,#1625,#1626);
#1375=AXIS2_PLACEMENT_3D('',#2057,#1629,#1630);
#1376=AXIS2_PLACEMENT_3D('',#2058,#1631,#1632);
#1377=AXIS2_PLACEMENT_3D('',#2059,#1633,#1634);
#1378=AXIS2_PLACEMENT_3D('',#2060,#1635,#1636);
#1379=AXIS2_PLACEMENT_3D('',#2061,#1637,#1638);
#1380=AXIS2_PLACEMENT_3D('',#2062,#1639,#1640);
#1381=AXIS2_PLACEMENT_3D('',#2065,#1642,#1643);
#1382=AXIS2_PLACEMENT_3D('',#2066,#1644,#1645);
#1383=AXIS2_PLACEMENT_3D('',#2068,#1647,#1648);
#1384=AXIS2_PLACEMENT_3D('',#2075,#1653,#1654);
#1385=AXIS2_PLACEMENT_3D('',#2078,#1656,#1657);
#1386=AXIS2_PLACEMENT_3D('',#2079,#1658,#1659);
#1387=AXIS2_PLACEMENT_3D('',#2080,#1660,#1661);
#1388=AXIS2_PLACEMENT_3D('',#2082,#1663,#1664);
#1389=AXIS2_PLACEMENT_3D('',#2084,#1666,#1667);
#1390=AXIS2_PLACEMENT_3D('',#2086,#1669,#1670);
#1391=AXIS2_PLACEMENT_3D('',#2087,#1671,#1672);
#1392=AXIS2_PLACEMENT_3D('',#2088,#1673,#1674);
#1393=AXIS2_PLACEMENT_3D('',#2089,#1675,#1676);
#1394=AXIS2_PLACEMENT_3D('',#2090,#1677,#1678);
#1395=AXIS2_PLACEMENT_3D('',#2091,#1679,#1680);
#1396=AXIS2_PLACEMENT_3D('',#2094,#1681,#1682);
#1397=AXIS2_PLACEMENT_3D('',#2098,#1684,#1685);
#1398=AXIS2_PLACEMENT_3D('',#2100,#1687,#1688);
#1399=AXIS2_PLACEMENT_3D('',#2103,#1689,#1690);
#1400=AXIS2_PLACEMENT_3D('',#2106,#1692,#1693);
#1401=AXIS2_PLACEMENT_3D('',#2108,#1695,#1696);
#1402=AXIS2_PLACEMENT_3D('',#2109,#1697,#1698);
#1403=AXIS2_PLACEMENT_3D('',#2110,#1699,#1700);
#1404=AXIS2_PLACEMENT_3D('',#2113,#1701,#1702);
#1405=AXIS2_PLACEMENT_3D('',#2116,#1704,#1705);
#1406=AXIS2_PLACEMENT_3D('',#2118,#1707,#1708);
#1407=AXIS2_PLACEMENT_3D('',#2119,#1709,#1710);
#1408=AXIS2_PLACEMENT_3D('',#2120,#1711,#1712);
#1409=AXIS2_PLACEMENT_3D('',#2122,#1713,#1714);
#1410=AXIS2_PLACEMENT_3D('',#2125,#1716,#1717);
#1411=AXIS2_PLACEMENT_3D('',#2127,#1719,#1720);
#1412=AXIS2_PLACEMENT_3D('',#2128,#1721,#1722);
#1413=AXIS2_PLACEMENT_3D('',#2129,#1723,#1724);
#1414=AXIS2_PLACEMENT_3D('',#2130,#1725,#1726);
#1415=AXIS2_PLACEMENT_3D('',#2131,#1727,#1728);
#1416=AXIS2_PLACEMENT_3D('',#2135,#1730,#1731);
#1417=AXIS2_PLACEMENT_3D('',#2137,#1733,#1734);
#1418=AXIS2_PLACEMENT_3D('',#2141,#1737,#1738);
#1419=AXIS2_PLACEMENT_3D('',#2144,#1740,#1741);
#1420=AXIS2_PLACEMENT_3D('',#2145,#1742,#1743);
#1421=AXIS2_PLACEMENT_3D('',#2149,#1746,#1747);
#1422=AXIS2_PLACEMENT_3D('',#2158,#1752,#1753);
#1423=AXIS2_PLACEMENT_3D('',#2161,#1755,#1756);
#1424=AXIS2_PLACEMENT_3D('',#2162,#1757,#1758);
#1425=AXIS2_PLACEMENT_3D('',#2166,#1760,#1761);
#1426=AXIS2_PLACEMENT_3D('',#2176,#1767,#1768);
#1427=AXIS2_PLACEMENT_3D('',#2179,#1771,#1772);
#1428=AXIS2_PLACEMENT_3D('',#2180,#1773,#1774);
#1429=AXIS2_PLACEMENT_3D('',#2183,#1777,#1778);
#1430=AXIS2_PLACEMENT_3D('',#2185,#1780,#1781);
#1431=AXIS2_PLACEMENT_3D('',#2187,#1783,#1784);
#1432=AXIS2_PLACEMENT_3D('',#2188,#1785,#1786);
#1433=AXIS2_PLACEMENT_3D('',#2189,#1787,#1788);
#1434=AXIS2_PLACEMENT_3D('',#2198,#1793,#1794);
#1435=AXIS2_PLACEMENT_3D('',#2204,#1798,#1799);
#1436=AXIS2_PLACEMENT_3D('',#2210,#1803,#1804);
#1437=AXIS2_PLACEMENT_3D('',#2213,#1807,#1808);
#1438=AXIS2_PLACEMENT_3D('',#2222,#1813,#1814);
#1439=AXIS2_PLACEMENT_3D('',#2228,#1818,#1819);
#1440=AXIS2_PLACEMENT_3D('',#2234,#1823,#1824);
#1441=AXIS2_PLACEMENT_3D('',#2237,#1827,#1828);
#1442=AXIS2_PLACEMENT_3D('',#2238,#1829,#1830);
#1443=DIRECTION('axis',(0.,0.,1.));
#1444=DIRECTION('refdir',(1.,0.,0.));
#1445=DIRECTION('center_axis',(0.408248290463864,-0.408248290463862,-0.816496580927726));
#1446=DIRECTION('ref_axis',(0.577350269189627,-0.577350269189625,0.577350269189625));
#1447=DIRECTION('center_axis',(0.,-1.,0.));
#1448=DIRECTION('ref_axis',(0.,0.,1.));
#1449=DIRECTION('center_axis',(1.,0.,-2.96059473233375E-15));
#1450=DIRECTION('ref_axis',(0.,-1.,0.));
#1451=DIRECTION('center_axis',(0.,0.,1.));
#1452=DIRECTION('ref_axis',(1.,0.,0.));
#1453=DIRECTION('center_axis',(-0.408248290463864,0.408248290463862,-0.816496580927726));
#1454=DIRECTION('ref_axis',(0.577350269189627,-0.577350269189625,-0.577350269189625));
#1455=DIRECTION('center_axis',(0.,-1.,0.));
#1456=DIRECTION('ref_axis',(1.,0.,0.));
#1457=DIRECTION('center_axis',(0.,0.,-1.));
#1458=DIRECTION('ref_axis',(0.,-1.,0.));
#1459=DIRECTION('center_axis',(1.,-2.96059473233375E-15,0.));
#1460=DIRECTION('ref_axis',(0.,0.,-1.));
#1461=DIRECTION('center_axis',(0.,0.,-1.));
#1462=DIRECTION('ref_axis',(0.707106781186548,-0.707106781186547,0.));
#1463=DIRECTION('',(0.,0.,1.));
#1464=DIRECTION('',(0.,0.,-1.));
#1465=DIRECTION('center_axis',(-0.40824829046386,-0.408248290463863,-0.816496580927727));
#1466=DIRECTION('ref_axis',(-0.577350269189623,-0.577350269189626,0.577350269189628));
#1467=DIRECTION('center_axis',(0.,0.,1.));
#1468=DIRECTION('ref_axis',(0.,-1.,0.));
#1469=DIRECTION('center_axis',(-1.,0.,0.));
#1470=DIRECTION('ref_axis',(0.,0.,1.));
#1471=DIRECTION('center_axis',(0.,-1.,0.));
#1472=DIRECTION('ref_axis',(-1.,0.,0.));
#1473=DIRECTION('center_axis',(1.,0.,0.));
#1474=DIRECTION('ref_axis',(0.,-0.707106781186547,0.707106781186548));
#1475=DIRECTION('',(-1.,0.,0.));
#1476=DIRECTION('',(1.,0.,0.));
#1477=DIRECTION('center_axis',(0.,1.,0.));
#1478=DIRECTION('ref_axis',(-0.707106781186548,0.,0.707106781186548));
#1479=DIRECTION('center_axis',(0.,-1.,0.));
#1480=DIRECTION('ref_axis',(-0.707106781186548,0.,0.707106781186548));
#1481=DIRECTION('',(0.,-1.,0.));
#1482=DIRECTION('',(0.,1.,0.));
#1483=DIRECTION('center_axis',(0.40824829046386,0.408248290463863,-0.816496580927727));
#1484=DIRECTION('ref_axis',(-0.577350269189624,-0.577350269189627,-0.577350269189626));
#1485=DIRECTION('center_axis',(0.,-1.,0.));
#1486=DIRECTION('ref_axis',(0.,0.,-1.));
#1487=DIRECTION('center_axis',(-1.,0.,0.));
#1488=DIRECTION('ref_axis',(0.,-1.,0.));
#1489=DIRECTION('center_axis',(0.,0.,-1.));
#1490=DIRECTION('ref_axis',(-1.,0.,0.));
#1491=DIRECTION('center_axis',(-1.,0.,0.));
#1492=DIRECTION('ref_axis',(0.,-0.707106781186547,-0.707106781186548));
#1493=DIRECTION('',(1.,0.,0.));
#1494=DIRECTION('',(-1.,0.,0.));
#1495=DIRECTION('center_axis',(0.,0.,1.));
#1496=DIRECTION('ref_axis',(-0.707106781186548,-0.707106781186547,0.));
#1497=DIRECTION('',(0.,0.,-1.));
#1498=DIRECTION('',(0.,0.,1.));
#1499=DIRECTION('center_axis',(0.,1.,0.));
#1500=DIRECTION('ref_axis',(-0.707106781186548,0.,-0.707106781186548));
#1501=DIRECTION('center_axis',(0.,-1.,0.));
#1502=DIRECTION('ref_axis',(-0.707106781186548,0.,-0.707106781186548));
#1503=DIRECTION('',(0.,-1.,0.));
#1504=DIRECTION('',(0.,1.,0.));
#1505=DIRECTION('center_axis',(0.,1.,0.));
#1506=DIRECTION('ref_axis',(0.707106781186548,0.,-0.707106781186548));
#1507=DIRECTION('center_axis',(0.,-1.,0.));
#1508=DIRECTION('ref_axis',(0.707106781186548,0.,-0.707106781186548));
#1509=DIRECTION('',(0.,-1.,0.));
#1510=DIRECTION('',(0.,1.,0.));
#1511=DIRECTION('center_axis',(0.,1.,0.));
#1512=DIRECTION('ref_axis',(0.707106781186548,0.,0.707106781186548));
#1513=DIRECTION('center_axis',(0.,-1.,0.));
#1514=DIRECTION('ref_axis',(0.707106781186548,0.,0.707106781186548));
#1515=DIRECTION('',(0.,-1.,0.));
#1516=DIRECTION('',(0.,1.,0.));
#1517=DIRECTION('center_axis',(1.,0.,0.));
#1518=DIRECTION('ref_axis',(0.,0.,-1.));
#1519=DIRECTION('',(0.,0.,-1.));
#1520=DIRECTION('center_axis',(0.,1.,0.));
#1521=DIRECTION('ref_axis',(0.,0.,1.));
#1522=DIRECTION('',(-1.,0.,0.));
#1523=DIRECTION('',(0.,0.,1.));
#1524=DIRECTION('',(1.,0.,0.));
#1525=DIRECTION('center_axis',(0.,0.,-1.));
#1526=DIRECTION('ref_axis',(-1.,0.,0.));
#1527=DIRECTION('center_axis',(0.,1.,0.));
#1528=DIRECTION('ref_axis',(1.,0.,0.));
#1529=DIRECTION('center_axis',(-1.,0.,0.));
#1530=DIRECTION('ref_axis',(0.,0.,1.));
#1531=DIRECTION('center_axis',(0.,0.,1.));
#1532=DIRECTION('ref_axis',(1.,0.,0.));
#1533=DIRECTION('center_axis',(-0.816496580927726,-0.408248290463862,-0.408248290463863));
#1534=DIRECTION('ref_axis',(0.577350269189623,-0.577350269189628,-0.577350269189626));
#1535=DIRECTION('center_axis',(0.,-1.,0.));
#1536=DIRECTION('ref_axis',(1.,0.,0.));
#1537=DIRECTION('center_axis',(0.,0.,-1.));
#1538=DIRECTION('ref_axis',(0.,-1.,0.));
#1539=DIRECTION('center_axis',(1.,3.70074341541719E-15,0.));
#1540=DIRECTION('ref_axis',(0.,0.,-1.));
#1541=DIRECTION('center_axis',(-0.81649658092773,0.408248290463859,0.408248290463859));
#1542=DIRECTION('ref_axis',(-0.577350269189622,-0.577350269189628,-0.577350269189628));
#1543=DIRECTION('center_axis',(0.,-1.,0.));
#1544=DIRECTION('ref_axis',(0.,0.,-1.));
#1545=DIRECTION('center_axis',(-1.,0.,-7.40148683083438E-15));
#1546=DIRECTION('ref_axis',(0.,-1.,0.));
#1547=DIRECTION('center_axis',(0.,0.,-1.));
#1548=DIRECTION('ref_axis',(-1.,0.,0.));
#1549=DIRECTION('center_axis',(-1.,0.,0.));
#1550=DIRECTION('ref_axis',(0.,-0.707106781186547,-0.707106781186548));
#1551=DIRECTION('',(-1.,0.,0.));
#1552=DIRECTION('',(1.,0.,0.));
#1553=DIRECTION('',(-1.,0.,0.));
#1554=DIRECTION('',(-1.,0.,0.));
#1555=DIRECTION('center_axis',(-0.816496580927726,-0.408248290463862,0.408248290463863));
#1556=DIRECTION('ref_axis',(0.577350269189623,-0.577350269189628,0.577350269189626));
#1557=DIRECTION('center_axis',(0.,-1.,0.));
#1558=DIRECTION('ref_axis',(0.,0.,1.));
#1559=DIRECTION('center_axis',(1.,0.,3.70074341541719E-15));
#1560=DIRECTION('ref_axis',(0.,-1.,0.));
#1561=DIRECTION('center_axis',(0.,0.,1.));
#1562=DIRECTION('ref_axis',(1.,0.,0.));
#1563=DIRECTION('center_axis',(-0.408248290463861,-0.408248290463856,-0.816496580927731));
#1564=DIRECTION('ref_axis',(-0.577350269189635,-0.577350269189622,0.57735026918962));
#1565=DIRECTION('center_axis',(0.,0.,1.));
#1566=DIRECTION('ref_axis',(0.,-1.,0.));
#1567=DIRECTION('center_axis',(-1.,1.48029736616688E-14,0.));
#1568=DIRECTION('ref_axis',(0.,0.,1.));
#1569=DIRECTION('center_axis',(0.,-1.,0.));
#1570=DIRECTION('ref_axis',(-1.,0.,0.));
#1571=DIRECTION('center_axis',(1.,0.,0.));
#1572=DIRECTION('ref_axis',(0.,-0.707106781186547,0.707106781186548));
#1573=DIRECTION('',(1.,0.,0.));
#1574=DIRECTION('',(-1.,0.,0.));
#1575=DIRECTION('',(1.,0.,0.));
#1576=DIRECTION('',(1.,0.,0.));
#1577=DIRECTION('center_axis',(0.,1.,0.));
#1578=DIRECTION('ref_axis',(-0.70710678118655,0.,0.707106781186545));
#1579=DIRECTION('center_axis',(0.,-1.,0.));
#1580=DIRECTION('ref_axis',(-0.70710678118655,0.,0.707106781186545));
#1581=DIRECTION('',(0.,-1.,0.));
#1582=DIRECTION('',(0.,1.,0.));
#1583=DIRECTION('center_axis',(0.,0.,1.));
#1584=DIRECTION('ref_axis',(-0.707106781186545,-0.70710678118655,0.));
#1585=DIRECTION('',(0.,0.,1.));
#1586=DIRECTION('',(0.,0.,-1.));
#1587=DIRECTION('',(0.,0.,1.));
#1588=DIRECTION('',(0.,0.,1.));
#1589=DIRECTION('center_axis',(0.,0.,-1.));
#1590=DIRECTION('ref_axis',(0.707106781186545,-0.70710678118655,0.));
#1591=DIRECTION('',(0.,0.,-1.));
#1592=DIRECTION('',(0.,0.,1.));
#1593=DIRECTION('',(0.,0.,-1.));
#1594=DIRECTION('',(0.,0.,-1.));
#1595=DIRECTION('center_axis',(0.,1.,0.));
#1596=DIRECTION('ref_axis',(0.707106781186547,0.,0.707106781186547));
#1597=DIRECTION('center_axis',(0.,-1.,0.));
#1598=DIRECTION('ref_axis',(0.707106781186547,0.,0.707106781186547));
#1599=DIRECTION('',(0.,-1.,0.));
#1600=DIRECTION('',(0.,1.,0.));
#1601=DIRECTION('center_axis',(0.,1.,0.));
#1602=DIRECTION('ref_axis',(-0.707106781186545,0.,-0.70710678118655));
#1603=DIRECTION('center_axis',(0.,-1.,0.));
#1604=DIRECTION('ref_axis',(-0.707106781186545,0.,-0.70710678118655));
#1605=DIRECTION('',(0.,-1.,0.));
#1606=DIRECTION('',(0.,1.,0.));
#1607=DIRECTION('center_axis',(0.,1.,0.));
#1608=DIRECTION('ref_axis',(0.707106781186547,0.,-0.707106781186547));
#1609=DIRECTION('center_axis',(0.,-1.,0.));
#1610=DIRECTION('ref_axis',(0.707106781186547,0.,-0.707106781186547));
#1611=DIRECTION('',(0.,-1.,0.));
#1612=DIRECTION('',(0.,1.,0.));
#1613=DIRECTION('center_axis',(1.,0.,0.));
#1614=DIRECTION('ref_axis',(0.,0.,-1.));
#1615=DIRECTION('',(0.,-1.,0.));
#1616=DIRECTION('',(0.,0.,-1.));
#1617=DIRECTION('',(0.,1.,0.));
#1618=DIRECTION('center_axis',(0.,1.,0.));
#1619=DIRECTION('ref_axis',(-0.707106781186548,0.,-0.707106781186548));
#1620=DIRECTION('center_axis',(0.,-1.,0.));
#1621=DIRECTION('ref_axis',(-0.707106781186548,0.,-0.707106781186548));
#1622=DIRECTION('',(0.,1.,0.));
#1623=DIRECTION('center_axis',(0.,1.,0.));
#1624=DIRECTION('ref_axis',(-0.707106781186548,0.,-0.707106781186548));
#1625=DIRECTION('center_axis',(0.,0.,1.));
#1626=DIRECTION('ref_axis',(1.,0.,0.));
#1627=DIRECTION('',(0.,-1.,0.));
#1628=DIRECTION('',(1.,0.,0.));
#1629=DIRECTION('center_axis',(0.,1.,0.));
#1630=DIRECTION('ref_axis',(1.,0.,0.));
#1631=DIRECTION('center_axis',(0.,-1.,0.));
#1632=DIRECTION('ref_axis',(0.707106781186545,0.,-0.70710678118655));
#1633=DIRECTION('center_axis',(0.,1.,0.));
#1634=DIRECTION('ref_axis',(1.,0.,0.));
#1635=DIRECTION('center_axis',(0.,1.,0.));
#1636=DIRECTION('ref_axis',(1.,0.,0.));
#1637=DIRECTION('center_axis',(0.,-1.,0.));
#1638=DIRECTION('ref_axis',(0.707106781186548,0.,0.707106781186548));
#1639=DIRECTION('center_axis',(0.,1.,0.));
#1640=DIRECTION('ref_axis',(0.707106781186545,0.,-0.70710678118655));
#1641=DIRECTION('',(0.,1.,0.));
#1642=DIRECTION('center_axis',(0.,1.,0.));
#1643=DIRECTION('ref_axis',(0.707106781186545,0.,-0.70710678118655));
#1644=DIRECTION('center_axis',(0.,0.,1.));
#1645=DIRECTION('ref_axis',(1.,0.,0.));
#1646=DIRECTION('',(1.,0.,0.));
#1647=DIRECTION('center_axis',(0.,1.,0.));
#1648=DIRECTION('ref_axis',(0.,0.,1.));
#1649=DIRECTION('',(0.,0.,-1.));
#1650=DIRECTION('',(-1.,0.,0.));
#1651=DIRECTION('',(0.,0.,1.));
#1652=DIRECTION('',(-1.,0.,0.));
#1653=DIRECTION('center_axis',(0.,1.,0.));
#1654=DIRECTION('ref_axis',(-0.707106781186548,0.,0.707106781186548));
#1655=DIRECTION('',(0.,0.,1.));
#1656=DIRECTION('center_axis',(0.,1.,0.));
#1657=DIRECTION('ref_axis',(0.707106781186548,0.,0.707106781186548));
#1658=DIRECTION('center_axis',(1.,0.,0.));
#1659=DIRECTION('ref_axis',(0.,0.,-1.));
#1660=DIRECTION('center_axis',(-1.,0.,0.));
#1661=DIRECTION('ref_axis',(0.,0.,1.));
#1662=DIRECTION('',(0.,-1.,0.));
#1663=DIRECTION('center_axis',(0.,1.,0.));
#1664=DIRECTION('ref_axis',(0.707106781186548,0.,0.707106781186548));
#1665=DIRECTION('',(0.,1.,0.));
#1666=DIRECTION('center_axis',(0.,0.,-1.));
#1667=DIRECTION('ref_axis',(-1.,0.,0.));
#1668=DIRECTION('',(0.,-1.,0.));
#1669=DIRECTION('center_axis',(0.,1.,0.));
#1670=DIRECTION('ref_axis',(-0.707106781186548,0.,0.707106781186548));
#1671=DIRECTION('center_axis',(0.,-1.,0.));
#1672=DIRECTION('ref_axis',(-0.707106781186548,0.,0.707106781186548));
#1673=DIRECTION('center_axis',(-1.,0.,0.));
#1674=DIRECTION('ref_axis',(0.,0.,1.));
#1675=DIRECTION('center_axis',(0.,0.,-1.));
#1676=DIRECTION('ref_axis',(-1.,0.,0.));
#1677=DIRECTION('center_axis',(0.,1.,0.));
#1678=DIRECTION('ref_axis',(1.,0.,0.));
#1679=DIRECTION('center_axis',(0.,0.,-1.));
#1680=DIRECTION('ref_axis',(0.70710678118655,0.707106781186545,0.));
#1681=DIRECTION('center_axis',(0.,0.,-1.));
#1682=DIRECTION('ref_axis',(0.,1.,0.));
#1683=DIRECTION('',(0.,0.,-1.));
#1684=DIRECTION('center_axis',(2.22044604925031E-15,0.,1.));
#1685=DIRECTION('ref_axis',(1.,0.,-2.22044604925031E-15));
#1686=DIRECTION('',(0.,0.,1.));
#1687=DIRECTION('center_axis',(1.,0.,0.));
#1688=DIRECTION('ref_axis',(0.,0.707106781186547,0.707106781186548));
#1689=DIRECTION('center_axis',(1.,0.,0.));
#1690=DIRECTION('ref_axis',(0.,1.,0.));
#1691=DIRECTION('',(1.,0.,0.));
#1692=DIRECTION('center_axis',(-1.,0.,0.));
#1693=DIRECTION('ref_axis',(0.,0.,1.));
#1694=DIRECTION('',(-1.,0.,0.));
#1695=DIRECTION('center_axis',(0.40824829046386,-0.816496580927727,0.408248290463864));
#1696=DIRECTION('ref_axis',(0.577350269189623,0.577350269189627,0.577350269189627));
#1697=DIRECTION('center_axis',(0.,1.,0.));
#1698=DIRECTION('ref_axis',(0.70710678118655,0.,0.707106781186545));
#1699=DIRECTION('center_axis',(0.,0.,1.));
#1700=DIRECTION('ref_axis',(-0.707106781186547,0.707106781186548,0.));
#1701=DIRECTION('center_axis',(0.,0.,1.));
#1702=DIRECTION('ref_axis',(0.,1.,0.));
#1703=DIRECTION('',(0.,0.,1.));
#1704=DIRECTION('center_axis',(-2.22044604925032E-15,0.,-1.));
#1705=DIRECTION('ref_axis',(-1.,0.,2.22044604925032E-15));
#1706=DIRECTION('',(0.,0.,-1.));
#1707=DIRECTION('center_axis',(-0.40824829046386,-0.816496580927727,0.408248290463865));
#1708=DIRECTION('ref_axis',(-0.577350269189623,0.577350269189627,0.577350269189627));
#1709=DIRECTION('center_axis',(0.,1.,0.));
#1710=DIRECTION('ref_axis',(-0.707106781186546,0.,0.707106781186549));
#1711=DIRECTION('center_axis',(-1.,0.,0.));
#1712=DIRECTION('ref_axis',(0.,0.707106781186547,-0.707106781186548));
#1713=DIRECTION('center_axis',(-1.,0.,0.));
#1714=DIRECTION('ref_axis',(0.,1.,0.));
#1715=DIRECTION('',(-1.,0.,0.));
#1716=DIRECTION('center_axis',(1.,0.,0.));
#1717=DIRECTION('ref_axis',(0.,0.,-1.));
#1718=DIRECTION('',(1.,0.,0.));
#1719=DIRECTION('center_axis',(-0.40824829046386,-0.816496580927727,-0.408248290463865));
#1720=DIRECTION('ref_axis',(-0.577350269189623,0.577350269189627,-0.577350269189627));
#1721=DIRECTION('center_axis',(0.,1.,0.));
#1722=DIRECTION('ref_axis',(-0.707106781186546,0.,-0.707106781186549));
#1723=DIRECTION('center_axis',(0.40824829046386,-0.816496580927727,-0.408248290463865));
#1724=DIRECTION('ref_axis',(0.577350269189623,0.577350269189627,-0.577350269189627));
#1725=DIRECTION('center_axis',(0.,1.,0.));
#1726=DIRECTION('ref_axis',(0.707106781186546,0.,-0.707106781186549));
#1727=DIRECTION('center_axis',(0.,1.,0.));
#1728=DIRECTION('ref_axis',(-0.707106781186546,0.,0.707106781186549));
#1729=DIRECTION('',(0.,-1.,0.));
#1730=DIRECTION('center_axis',(0.,1.,0.));
#1731=DIRECTION('ref_axis',(-0.707106781186546,0.,0.707106781186549));
#1732=DIRECTION('',(0.,1.,0.));
#1733=DIRECTION('center_axis',(-1.,0.,0.));
#1734=DIRECTION('ref_axis',(0.,0.,1.));
#1735=DIRECTION('',(0.,1.,0.));
#1736=DIRECTION('',(0.,0.,1.));
#1737=DIRECTION('center_axis',(0.,1.,0.));
#1738=DIRECTION('ref_axis',(-0.707106781186546,0.,-0.707106781186549));
#1739=DIRECTION('',(0.,-1.,0.));
#1740=DIRECTION('center_axis',(0.,1.,0.));
#1741=DIRECTION('ref_axis',(-0.707106781186546,0.,-0.707106781186549));
#1742=DIRECTION('center_axis',(0.,0.,-1.));
#1743=DIRECTION('ref_axis',(-1.,0.,0.));
#1744=DIRECTION('',(0.,1.,0.));
#1745=DIRECTION('',(-1.,0.,0.));
#1746=DIRECTION('center_axis',(0.,1.,0.));
#1747=DIRECTION('ref_axis',(0.,0.,1.));
#1748=DIRECTION('',(0.,0.,1.));
#1749=DIRECTION('',(-1.,0.,0.));
#1750=DIRECTION('',(0.,0.,-1.));
#1751=DIRECTION('',(1.,0.,0.));
#1752=DIRECTION('center_axis',(0.,1.,0.));
#1753=DIRECTION('ref_axis',(0.707106781186546,0.,-0.707106781186549));
#1754=DIRECTION('',(0.,-1.,0.));
#1755=DIRECTION('center_axis',(0.,1.,0.));
#1756=DIRECTION('ref_axis',(0.707106781186546,0.,-0.707106781186549));
#1757=DIRECTION('center_axis',(0.,1.,0.));
#1758=DIRECTION('ref_axis',(1.,0.,0.));
#1759=DIRECTION('',(0.,0.,-1.));
#1760=DIRECTION('center_axis',(0.,1.,0.));
#1761=DIRECTION('ref_axis',(0.707106781186549,0.,0.707106781186546));
#1762=DIRECTION('',(1.,0.,0.));
#1763=DIRECTION('',(0.,0.,1.));
#1764=DIRECTION('',(1.,0.,0.));
#1765=DIRECTION('',(0.,0.,-1.));
#1766=DIRECTION('',(-1.,0.,0.));
#1767=DIRECTION('center_axis',(0.,1.,0.));
#1768=DIRECTION('ref_axis',(0.707106781186549,0.,0.707106781186546));
#1769=DIRECTION('',(0.,-1.,0.));
#1770=DIRECTION('',(0.,1.,0.));
#1771=DIRECTION('center_axis',(1.,0.,0.));
#1772=DIRECTION('ref_axis',(0.,0.,-1.));
#1773=DIRECTION('center_axis',(0.,0.,1.));
#1774=DIRECTION('ref_axis',(1.,0.,0.));
#1775=DIRECTION('',(0.,1.,0.));
#1776=DIRECTION('',(0.,1.,0.));
#1777=DIRECTION('center_axis',(1.,0.,0.));
#1778=DIRECTION('ref_axis',(0.,0.,-1.));
#1779=DIRECTION('',(0.,1.,0.));
#1780=DIRECTION('center_axis',(0.,0.,-1.));
#1781=DIRECTION('ref_axis',(-1.,0.,0.));
#1782=DIRECTION('',(0.,1.,0.));
#1783=DIRECTION('center_axis',(-1.,0.,0.));
#1784=DIRECTION('ref_axis',(0.,0.,1.));
#1785=DIRECTION('center_axis',(0.,0.,1.));
#1786=DIRECTION('ref_axis',(1.,0.,0.));
#1787=DIRECTION('center_axis',(0.,0.,-1.));
#1788=DIRECTION('ref_axis',(-1.,0.,0.));
#1789=DIRECTION('',(-1.,0.,0.));
#1790=DIRECTION('',(0.,1.,0.));
#1791=DIRECTION('',(-1.,0.,0.));
#1792=DIRECTION('',(0.,1.,0.));
#1793=DIRECTION('center_axis',(-1.,0.,0.));
#1794=DIRECTION('ref_axis',(0.,0.,1.));
#1795=DIRECTION('',(0.,0.,1.));
#1796=DIRECTION('',(0.,0.,1.));
#1797=DIRECTION('',(0.,1.,0.));
#1798=DIRECTION('center_axis',(0.,0.,1.));
#1799=DIRECTION('ref_axis',(1.,0.,0.));
#1800=DIRECTION('',(1.,0.,0.));
#1801=DIRECTION('',(1.,0.,0.));
#1802=DIRECTION('',(0.,1.,0.));
#1803=DIRECTION('center_axis',(1.,0.,0.));
#1804=DIRECTION('ref_axis',(0.,0.,-1.));
#1805=DIRECTION('',(0.,0.,-1.));
#1806=DIRECTION('',(0.,0.,-1.));
#1807=DIRECTION('center_axis',(0.,0.,1.));
#1808=DIRECTION('ref_axis',(1.,0.,0.));
#1809=DIRECTION('',(1.,0.,0.));
#1810=DIRECTION('',(0.,1.,0.));
#1811=DIRECTION('',(1.,0.,0.));
#1812=DIRECTION('',(0.,1.,0.));
#1813=DIRECTION('center_axis',(-1.,0.,0.));
#1814=DIRECTION('ref_axis',(0.,0.,1.));
#1815=DIRECTION('',(0.,0.,1.));
#1816=DIRECTION('',(0.,0.,1.));
#1817=DIRECTION('',(0.,1.,0.));
#1818=DIRECTION('center_axis',(0.,0.,-1.));
#1819=DIRECTION('ref_axis',(-1.,0.,0.));
#1820=DIRECTION('',(-1.,0.,0.));
#1821=DIRECTION('',(-1.,0.,0.));
#1822=DIRECTION('',(0.,1.,0.));
#1823=DIRECTION('center_axis',(1.,0.,0.));
#1824=DIRECTION('ref_axis',(0.,0.,-1.));
#1825=DIRECTION('',(0.,0.,-1.));
#1826=DIRECTION('',(0.,0.,-1.));
#1827=DIRECTION('center_axis',(0.,1.,0.));
#1828=DIRECTION('ref_axis',(0.,0.,1.));
#1829=DIRECTION('center_axis',(0.,1.,0.));
#1830=DIRECTION('ref_axis',(1.,0.,0.));
#1831=CARTESIAN_POINT('',(0.,0.,0.));
#1832=CARTESIAN_POINT('Origin',(-33.,1.5,17.));
#1833=CARTESIAN_POINT('',(-33.,1.5,18.5));
#1834=CARTESIAN_POINT('',(-31.5,1.5,17.));
#1835=CARTESIAN_POINT('Origin',(-33.,1.5,17.));
#1836=CARTESIAN_POINT('',(-33.,0.,17.));
#1837=CARTESIAN_POINT('Origin',(-33.,1.5,17.));
#1838=CARTESIAN_POINT('Origin',(-33.,1.5,17.));
#1839=CARTESIAN_POINT('Origin',(-33.,1.5,-17.));
#1840=CARTESIAN_POINT('',(-31.5,1.5,-17.));
#1841=CARTESIAN_POINT('',(-33.,1.5,-18.5));
#1842=CARTESIAN_POINT('Origin',(-33.,1.5,-17.));
#1843=CARTESIAN_POINT('',(-33.,0.,-17.));
#1844=CARTESIAN_POINT('Origin',(-33.,1.5,-17.));
#1845=CARTESIAN_POINT('Origin',(-33.,1.5,-17.));
#1846=CARTESIAN_POINT('Origin',(-33.,1.5,9.25));
#1847=CARTESIAN_POINT('',(-31.5,1.5,9.25));
#1848=CARTESIAN_POINT('',(-33.,0.,9.25));
#1849=CARTESIAN_POINT('Origin',(-67.,1.5,17.));
#1850=CARTESIAN_POINT('',(-67.,0.,17.));
#1851=CARTESIAN_POINT('',(-68.5,1.5,17.));
#1852=CARTESIAN_POINT('Origin',(-67.,1.5,17.));
#1853=CARTESIAN_POINT('',(-67.,1.5,18.5));
#1854=CARTESIAN_POINT('Origin',(-67.,1.5,17.));
#1855=CARTESIAN_POINT('Origin',(-67.,1.5,17.));
#1856=CARTESIAN_POINT('Origin',(-59.25,1.5,17.));
#1857=CARTESIAN_POINT('',(-59.25,1.5,18.5));
#1858=CARTESIAN_POINT('',(-59.25,0.,17.));
#1859=CARTESIAN_POINT('Origin',(-67.,0.,17.));
#1860=CARTESIAN_POINT('',(-67.,2.,18.5));
#1861=CARTESIAN_POINT('',(-68.5,2.,17.));
#1862=CARTESIAN_POINT('Origin',(-67.,2.,17.));
#1863=CARTESIAN_POINT('',(-68.5,0.,17.));
#1864=CARTESIAN_POINT('',(-67.,0.,18.5));
#1865=CARTESIAN_POINT('Origin',(-67.,1.5,-17.));
#1866=CARTESIAN_POINT('',(-67.,1.5,-18.5));
#1867=CARTESIAN_POINT('',(-68.5,1.5,-17.));
#1868=CARTESIAN_POINT('Origin',(-67.,1.5,-17.));
#1869=CARTESIAN_POINT('',(-67.,0.,-17.));
#1870=CARTESIAN_POINT('Origin',(-67.,1.5,-17.));
#1871=CARTESIAN_POINT('Origin',(-67.,1.5,-17.));
#1872=CARTESIAN_POINT('Origin',(-40.75,1.5,-17.));
#1873=CARTESIAN_POINT('',(-40.75,1.5,-18.5));
#1874=CARTESIAN_POINT('',(-40.75,0.,-17.));
#1875=CARTESIAN_POINT('Origin',(-67.,1.5,-9.25));
#1876=CARTESIAN_POINT('',(-68.5,1.5,-9.25));
#1877=CARTESIAN_POINT('',(-67.,0.,-9.25));
#1878=CARTESIAN_POINT('Origin',(-67.,0.,-17.));
#1879=CARTESIAN_POINT('',(-68.5,2.,-17.));
#1880=CARTESIAN_POINT('',(-67.,2.,-18.5));
#1881=CARTESIAN_POINT('Origin',(-67.,2.,-17.));
#1882=CARTESIAN_POINT('',(-67.,0.,-18.5));
#1883=CARTESIAN_POINT('',(-68.5,0.,-17.));
#1884=CARTESIAN_POINT('Origin',(-33.,0.,-17.));
#1885=CARTESIAN_POINT('',(-33.,2.,-18.5));
#1886=CARTESIAN_POINT('',(-31.5,2.,-17.));
#1887=CARTESIAN_POINT('Origin',(-33.,2.,-17.));
#1888=CARTESIAN_POINT('',(-31.5,0.,-17.));
#1889=CARTESIAN_POINT('',(-33.,0.,-18.5));
#1890=CARTESIAN_POINT('Origin',(-33.,0.,17.));
#1891=CARTESIAN_POINT('',(-31.5,2.,17.));
#1892=CARTESIAN_POINT('',(-33.,2.,18.5));
#1893=CARTESIAN_POINT('Origin',(-33.,2.,17.));
#1894=CARTESIAN_POINT('',(-33.,0.,18.5));
#1895=CARTESIAN_POINT('',(-31.5,0.,17.));
#1896=CARTESIAN_POINT('Origin',(-31.5,0.,18.5));
#1897=CARTESIAN_POINT('',(-31.5,2.,18.5));
#1898=CARTESIAN_POINT('Origin',(-50.,2.,0.));
#1899=CARTESIAN_POINT('',(-31.5,2.,-18.5));
#1900=CARTESIAN_POINT('',(-68.5,2.,-18.5));
#1901=CARTESIAN_POINT('',(-68.5,2.,18.5));
#1902=CARTESIAN_POINT('Origin',(-31.5,0.,-18.5));
#1903=CARTESIAN_POINT('Origin',(-50.,0.,0.));
#1904=CARTESIAN_POINT('Origin',(-68.5,0.,-18.5));
#1905=CARTESIAN_POINT('Origin',(-68.5,0.,18.5));
#1906=CARTESIAN_POINT('Origin',(-32.7,1.2,-17.3));
#1907=CARTESIAN_POINT('',(-31.5,1.2,-17.3));
#1908=CARTESIAN_POINT('',(-32.7,1.2,-18.5));
#1909=CARTESIAN_POINT('Origin',(-32.7,1.2,-17.3));
#1910=CARTESIAN_POINT('',(-32.7,0.,-17.3));
#1911=CARTESIAN_POINT('Origin',(-32.7,1.2,-17.3));
#1912=CARTESIAN_POINT('Origin',(-32.7,1.2,-17.3));
#1913=CARTESIAN_POINT('Origin',(-67.3,1.2,-17.3));
#1914=CARTESIAN_POINT('',(-67.3,1.2,-18.5));
#1915=CARTESIAN_POINT('',(-68.5,1.2,-17.3));
#1916=CARTESIAN_POINT('Origin',(-67.3,1.2,-17.3));
#1917=CARTESIAN_POINT('',(-67.3,0.,-17.3));
#1918=CARTESIAN_POINT('Origin',(-67.3,1.2,-17.3));
#1919=CARTESIAN_POINT('Origin',(-67.3,1.2,-17.3));
#1920=CARTESIAN_POINT('Origin',(-40.75,1.2,-17.3));
#1921=CARTESIAN_POINT('',(-66.,0.0167840433800766,-17.5));
#1922=CARTESIAN_POINT('',(-66.7483314773548,0.,-17.3));
#1923=CARTESIAN_POINT('Ctrl Pts',(-66.,0.0167840433800764,-17.5));
#1924=CARTESIAN_POINT('Ctrl Pts',(-66.2132364234539,0.0167840433800761,
-17.5));
#1925=CARTESIAN_POINT('Ctrl Pts',(-66.4376523585702,0.00587796233402432,
-17.4518642660422));
#1926=CARTESIAN_POINT('Ctrl Pts',(-66.6761553926534,0.000524561791766061,
-17.3395947546835));
#1927=CARTESIAN_POINT('Ctrl Pts',(-66.7127089195182,1.75535419592034E-16,
-17.3205057548715));
#1928=CARTESIAN_POINT('Ctrl Pts',(-66.7483314773548,1.38777878078145E-16,
-17.3));
#1929=CARTESIAN_POINT('',(-40.75,0.,-17.3));
#1930=CARTESIAN_POINT('',(-40.75,1.2,-18.5));
#1931=CARTESIAN_POINT('',(-33.2516685226452,0.,-17.3));
#1932=CARTESIAN_POINT('',(-40.75,0.,-17.3));
#1933=CARTESIAN_POINT('',(-34.,0.0167840433800766,-17.5));
#1934=CARTESIAN_POINT('Ctrl Pts',(-33.2516685226452,1.38777878078145E-16,
-17.3));
#1935=CARTESIAN_POINT('Ctrl Pts',(-33.2872910804818,1.37592150932535E-16,
-17.3205057548715));
#1936=CARTESIAN_POINT('Ctrl Pts',(-33.3238446073466,0.000524561791766214,
-17.3395947546835));
#1937=CARTESIAN_POINT('Ctrl Pts',(-33.5623476414298,0.00587796233402436,
-17.4518642660422));
#1938=CARTESIAN_POINT('Ctrl Pts',(-33.786763576546,0.0167840433800766,-17.5));
#1939=CARTESIAN_POINT('Ctrl Pts',(-34.,0.0167840433800766,-17.5));
#1940=CARTESIAN_POINT('',(-40.75,0.0167840433800766,-17.5));
#1941=CARTESIAN_POINT('Origin',(-32.7,1.2,17.3));
#1942=CARTESIAN_POINT('',(-32.7,1.2,18.5));
#1943=CARTESIAN_POINT('',(-31.5,1.2,17.3));
#1944=CARTESIAN_POINT('Origin',(-32.7,1.2,17.3));
#1945=CARTESIAN_POINT('',(-32.7,0.,17.3));
#1946=CARTESIAN_POINT('Origin',(-32.7,1.2,17.3));
#1947=CARTESIAN_POINT('Origin',(-32.7,1.2,17.3));
#1948=CARTESIAN_POINT('Origin',(-67.3,1.2,17.3));
#1949=CARTESIAN_POINT('',(-67.3,0.,17.3));
#1950=CARTESIAN_POINT('',(-68.5,1.2,17.3));
#1951=CARTESIAN_POINT('Origin',(-67.3,1.2,17.3));
#1952=CARTESIAN_POINT('',(-67.3,1.2,18.5));
#1953=CARTESIAN_POINT('Origin',(-67.3,1.2,17.3));
#1954=CARTESIAN_POINT('Origin',(-67.3,1.2,17.3));
#1955=CARTESIAN_POINT('Origin',(-59.25,1.2,17.3));
#1956=CARTESIAN_POINT('',(-34.,0.0167840433800766,17.5));
#1957=CARTESIAN_POINT('',(-33.2516685226452,0.,17.3));
#1958=CARTESIAN_POINT('Ctrl Pts',(-34.,0.0167840433800764,17.5));
#1959=CARTESIAN_POINT('Ctrl Pts',(-33.786763576546,0.0167840433800765,17.5));
#1960=CARTESIAN_POINT('Ctrl Pts',(-33.5623476414298,0.00587796233402434,
17.4518642660422));
#1961=CARTESIAN_POINT('Ctrl Pts',(-33.3238446073466,0.000524561791766323,
17.3395947546835));
#1962=CARTESIAN_POINT('Ctrl Pts',(-33.2872910804818,1.37592150932535E-16,
17.3205057548715));
#1963=CARTESIAN_POINT('Ctrl Pts',(-33.2516685226452,1.38777878078145E-16,
17.3));
#1964=CARTESIAN_POINT('',(-59.25,0.,17.3));
#1965=CARTESIAN_POINT('',(-59.25,1.2,18.5));
#1966=CARTESIAN_POINT('',(-66.7483314773548,0.,17.3));
#1967=CARTESIAN_POINT('',(-59.25,0.,17.3));
#1968=CARTESIAN_POINT('',(-66.,0.0167840433800766,17.5));
#1969=CARTESIAN_POINT('Ctrl Pts',(-66.7483314773548,1.38777878078145E-16,
17.3));
#1970=CARTESIAN_POINT('Ctrl Pts',(-66.7127089195182,1.75535419592041E-16,
17.3205057548715));
#1971=CARTESIAN_POINT('Ctrl Pts',(-66.6761553926534,0.000524561791766061,
17.3395947546835));
#1972=CARTESIAN_POINT('Ctrl Pts',(-66.4376523585702,0.00587796233402432,
17.4518642660422));
#1973=CARTESIAN_POINT('Ctrl Pts',(-66.2132364234539,0.0167840433800761,
17.5));
#1974=CARTESIAN_POINT('Ctrl Pts',(-66.,0.0167840433800764,17.5));
#1975=CARTESIAN_POINT('',(-59.25,0.0167840433800766,17.5));
#1976=CARTESIAN_POINT('Origin',(-67.3,0.,17.3));
#1977=CARTESIAN_POINT('',(-67.3,4.,18.5));
#1978=CARTESIAN_POINT('',(-68.5,4.,17.3));
#1979=CARTESIAN_POINT('Origin',(-67.3,4.,17.3));
#1980=CARTESIAN_POINT('',(-68.5,0.,17.3));
#1981=CARTESIAN_POINT('',(-67.3,0.,18.5));
#1982=CARTESIAN_POINT('Origin',(-67.3,1.2,-9.25));
#1983=CARTESIAN_POINT('',(-67.5,0.016784043380076,16.));
#1984=CARTESIAN_POINT('',(-67.3,0.,16.7483314773548));
#1985=CARTESIAN_POINT('Ctrl Pts',(-67.5,0.0167840433800755,16.));
#1986=CARTESIAN_POINT('Ctrl Pts',(-67.5,0.0167840433800755,16.213236423454));
#1987=CARTESIAN_POINT('Ctrl Pts',(-67.4518642660422,0.00587796233402363,
16.4376523585702));
#1988=CARTESIAN_POINT('Ctrl Pts',(-67.3395947546835,0.00052456179176585,
16.6761553926534));
#1989=CARTESIAN_POINT('Ctrl Pts',(-67.3205057548715,0.,16.7127089195182));
#1990=CARTESIAN_POINT('Ctrl Pts',(-67.3,0.,16.7483314773548));
#1991=CARTESIAN_POINT('',(-67.3,0.,-9.25));
#1992=CARTESIAN_POINT('',(-68.5,1.2,-9.25));
#1993=CARTESIAN_POINT('',(-67.3,0.,-16.7483314773548));
#1994=CARTESIAN_POINT('',(-67.3,0.,-9.25));
#1995=CARTESIAN_POINT('',(-67.5,0.016784043380076,-16.));
#1996=CARTESIAN_POINT('Ctrl Pts',(-67.3,0.,-16.7483314773548));
#1997=CARTESIAN_POINT('Ctrl Pts',(-67.3205057548715,0.,-16.7127089195182));
#1998=CARTESIAN_POINT('Ctrl Pts',(-67.3395947546835,0.00052456179176587,
-16.6761553926534));
#1999=CARTESIAN_POINT('Ctrl Pts',(-67.4518642660422,0.00587796233402365,
-16.4376523585702));
#2000=CARTESIAN_POINT('Ctrl Pts',(-67.5,0.0167840433800755,-16.213236423454));
#2001=CARTESIAN_POINT('Ctrl Pts',(-67.5,0.0167840433800755,-16.));
#2002=CARTESIAN_POINT('',(-67.5,0.016784043380076,-9.25));
#2003=CARTESIAN_POINT('Origin',(-32.7,1.2,9.25));
#2004=CARTESIAN_POINT('',(-32.5,0.016784043380076,-16.));
#2005=CARTESIAN_POINT('',(-32.7,0.,-16.7483314773548));
#2006=CARTESIAN_POINT('Ctrl Pts',(-32.5,0.0167840433800763,-16.));
#2007=CARTESIAN_POINT('Ctrl Pts',(-32.5,0.0167840433800763,-16.213236423454));
#2008=CARTESIAN_POINT('Ctrl Pts',(-32.5481357339578,0.00587796233402339,
-16.4376523585702));
#2009=CARTESIAN_POINT('Ctrl Pts',(-32.6604052453165,0.000524561791765912,
-16.6761553926534));
#2010=CARTESIAN_POINT('Ctrl Pts',(-32.6794942451285,0.,-16.7127089195182));
#2011=CARTESIAN_POINT('Ctrl Pts',(-32.7,0.,-16.7483314773548));
#2012=CARTESIAN_POINT('',(-32.7,0.,9.25));
#2013=CARTESIAN_POINT('',(-31.5,1.2,9.25));
#2014=CARTESIAN_POINT('',(-32.7,0.,16.7483314773548));
#2015=CARTESIAN_POINT('',(-32.7,0.,9.25));
#2016=CARTESIAN_POINT('',(-32.5,0.016784043380076,16.));
#2017=CARTESIAN_POINT('Ctrl Pts',(-32.7,0.,16.7483314773548));
#2018=CARTESIAN_POINT('Ctrl Pts',(-32.6794942451285,0.,16.7127089195182));
#2019=CARTESIAN_POINT('Ctrl Pts',(-32.6604052453165,0.000524561791765907,
16.6761553926534));
#2020=CARTESIAN_POINT('Ctrl Pts',(-32.5481357339578,0.00587796233402333,
16.4376523585702));
#2021=CARTESIAN_POINT('Ctrl Pts',(-32.5,0.0167840433800756,16.213236423454));
#2022=CARTESIAN_POINT('Ctrl Pts',(-32.5,0.0167840433800756,16.));
#2023=CARTESIAN_POINT('',(-32.5,0.016784043380076,9.25));
#2024=CARTESIAN_POINT('Origin',(-32.7,0.,17.3));
#2025=CARTESIAN_POINT('',(-31.5,4.,17.3));
#2026=CARTESIAN_POINT('',(-32.7,4.,18.5));
#2027=CARTESIAN_POINT('Origin',(-32.7,4.,17.3));
#2028=CARTESIAN_POINT('',(-32.7,0.,18.5));
#2029=CARTESIAN_POINT('',(-31.5,0.,17.3));
#2030=CARTESIAN_POINT('Origin',(-67.3,0.,-17.3));
#2031=CARTESIAN_POINT('',(-68.5,4.,-17.3));
#2032=CARTESIAN_POINT('',(-67.3,4.,-18.5));
#2033=CARTESIAN_POINT('Origin',(-67.3,4.,-17.3));
#2034=CARTESIAN_POINT('',(-67.3,0.,-18.5));
#2035=CARTESIAN_POINT('',(-68.5,0.,-17.3));
#2036=CARTESIAN_POINT('Origin',(-32.7,0.,-17.3));
#2037=CARTESIAN_POINT('',(-32.7,4.,-18.5));
#2038=CARTESIAN_POINT('',(-31.5,4.,-17.3));
#2039=CARTESIAN_POINT('Origin',(-32.7,4.,-17.3));
#2040=CARTESIAN_POINT('',(-31.5,0.,-17.3));
#2041=CARTESIAN_POINT('',(-32.7,0.,-18.5));
#2042=CARTESIAN_POINT('Origin',(-67.5,0.,17.5));
#2043=CARTESIAN_POINT('',(-67.5,4.,-16.));
#2044=CARTESIAN_POINT('',(-67.5,0.,-16.));
#2045=CARTESIAN_POINT('',(-67.5,4.,16.));
#2046=CARTESIAN_POINT('',(-67.5,4.,-17.5));
#2047=CARTESIAN_POINT('',(-67.5,0.,16.));
#2048=CARTESIAN_POINT('Origin',(-66.,0.,-16.));
#2049=CARTESIAN_POINT('Origin',(-66.,0.,-16.));
#2050=CARTESIAN_POINT('',(-66.,4.,-17.5));
#2051=CARTESIAN_POINT('',(-66.,0.,-17.5));
#2052=CARTESIAN_POINT('Origin',(-66.,4.,-16.));
#2053=CARTESIAN_POINT('Origin',(-67.5,0.,-17.5));
#2054=CARTESIAN_POINT('',(-34.,4.,-17.5));
#2055=CARTESIAN_POINT('',(-34.,0.,-17.5));
#2056=CARTESIAN_POINT('',(-32.5,4.,-17.5));
#2057=CARTESIAN_POINT('Origin',(-50.,0.,0.));
#2058=CARTESIAN_POINT('Origin',(-34.,0.,-16.));
#2059=CARTESIAN_POINT('Origin',(-50.,0.,0.));
#2060=CARTESIAN_POINT('Origin',(-50.,0.,0.));
#2061=CARTESIAN_POINT('Origin',(-34.,0.,16.));
#2062=CARTESIAN_POINT('Origin',(-34.,0.,-16.));
#2063=CARTESIAN_POINT('',(-32.5,4.,-16.));
#2064=CARTESIAN_POINT('',(-32.5,0.,-16.));
#2065=CARTESIAN_POINT('Origin',(-34.,4.,-16.));
#2066=CARTESIAN_POINT('Origin',(-68.5,0.,18.5));
#2067=CARTESIAN_POINT('',(-68.5,4.,18.5));
#2068=CARTESIAN_POINT('Origin',(-50.,4.,0.));
#2069=CARTESIAN_POINT('',(-31.5,4.,18.5));
#2070=CARTESIAN_POINT('',(-31.5,4.,-18.5));
#2071=CARTESIAN_POINT('',(-68.5,4.,-18.5));
#2072=CARTESIAN_POINT('',(-34.,4.,17.5));
#2073=CARTESIAN_POINT('',(-66.,4.,17.5));
#2074=CARTESIAN_POINT('',(-67.5,4.,17.5));
#2075=CARTESIAN_POINT('Origin',(-66.,4.,16.));
#2076=CARTESIAN_POINT('',(-32.5,4.,16.));
#2077=CARTESIAN_POINT('',(-32.5,4.,17.5));
#2078=CARTESIAN_POINT('Origin',(-34.,4.,16.));
#2079=CARTESIAN_POINT('Origin',(-31.5,0.,18.5));
#2080=CARTESIAN_POINT('Origin',(-32.5,0.,-17.5));
#2081=CARTESIAN_POINT('',(-32.5,0.,16.));
#2082=CARTESIAN_POINT('Origin',(-34.,0.,16.));
#2083=CARTESIAN_POINT('',(-34.,0.,17.5));
#2084=CARTESIAN_POINT('Origin',(-32.5,0.,17.5));
#2085=CARTESIAN_POINT('',(-66.,0.,17.5));
#2086=CARTESIAN_POINT('Origin',(-66.,0.,16.));
#2087=CARTESIAN_POINT('Origin',(-66.,0.,16.));
#2088=CARTESIAN_POINT('Origin',(-68.5,0.,-18.5));
#2089=CARTESIAN_POINT('Origin',(-31.5,0.,-18.5));
#2090=CARTESIAN_POINT('Origin',(-50.,0.,0.));
#2091=CARTESIAN_POINT('Origin',(-36.,9.,7.5));
#2092=CARTESIAN_POINT('',(-36.,10.,14.));
#2093=CARTESIAN_POINT('',(-35.,9.,14.));
#2094=CARTESIAN_POINT('Origin',(-36.,9.,14.));
#2095=CARTESIAN_POINT('',(-35.,9.,-14.));
#2096=CARTESIAN_POINT('',(-35.,9.,7.5));
#2097=CARTESIAN_POINT('',(-36.,10.,-14.));
#2098=CARTESIAN_POINT('Origin',(-36.,9.,-14.));
#2099=CARTESIAN_POINT('',(-36.,10.,7.5));
#2100=CARTESIAN_POINT('Origin',(-57.5,9.,14.));
#2101=CARTESIAN_POINT('',(-64.,10.,14.));
#2102=CARTESIAN_POINT('',(-64.,9.,15.));
#2103=CARTESIAN_POINT('Origin',(-64.,9.,14.));
#2104=CARTESIAN_POINT('',(-36.,9.,15.));
#2105=CARTESIAN_POINT('',(-57.5,9.,15.));
#2106=CARTESIAN_POINT('Origin',(-36.,9.,14.));
#2107=CARTESIAN_POINT('',(-57.5,10.,14.));
#2108=CARTESIAN_POINT('Origin',(-36.,9.,14.));
#2109=CARTESIAN_POINT('Origin',(-36.,9.,14.));
#2110=CARTESIAN_POINT('Origin',(-64.,9.,-7.5));
#2111=CARTESIAN_POINT('',(-64.,10.,-14.));
#2112=CARTESIAN_POINT('',(-65.,9.,-14.));
#2113=CARTESIAN_POINT('Origin',(-64.,9.,-14.));
#2114=CARTESIAN_POINT('',(-65.,9.,14.));
#2115=CARTESIAN_POINT('',(-65.,9.,-7.5));
#2116=CARTESIAN_POINT('Origin',(-64.,9.,14.));
#2117=CARTESIAN_POINT('',(-64.,10.,-7.5));
#2118=CARTESIAN_POINT('Origin',(-64.,9.,14.));
#2119=CARTESIAN_POINT('Origin',(-64.,9.,14.));
#2120=CARTESIAN_POINT('Origin',(-42.5,9.,-14.));
#2121=CARTESIAN_POINT('',(-36.,9.,-15.));
#2122=CARTESIAN_POINT('Origin',(-36.,9.,-14.));
#2123=CARTESIAN_POINT('',(-64.,9.,-15.));
#2124=CARTESIAN_POINT('',(-42.5,9.,-15.));
#2125=CARTESIAN_POINT('Origin',(-64.,9.,-14.));
#2126=CARTESIAN_POINT('',(-42.5,10.,-14.));
#2127=CARTESIAN_POINT('Origin',(-64.,9.,-14.));
#2128=CARTESIAN_POINT('Origin',(-64.,9.,-14.));
#2129=CARTESIAN_POINT('Origin',(-36.,9.,-14.));
#2130=CARTESIAN_POINT('Origin',(-36.,9.,-14.));
#2131=CARTESIAN_POINT('Origin',(-64.,0.,14.));
#2132=CARTESIAN_POINT('',(-65.,0.,14.));
#2133=CARTESIAN_POINT('',(-65.,0.,14.));
#2134=CARTESIAN_POINT('',(-64.,0.,15.));
#2135=CARTESIAN_POINT('Origin',(-64.,0.,14.));
#2136=CARTESIAN_POINT('',(-64.,0.,15.));
#2137=CARTESIAN_POINT('Origin',(-65.,0.,-15.));
#2138=CARTESIAN_POINT('',(-65.,0.,-14.));
#2139=CARTESIAN_POINT('',(-65.,0.,-14.));
#2140=CARTESIAN_POINT('',(-65.,0.,-15.));
#2141=CARTESIAN_POINT('Origin',(-64.,0.,-14.));
#2142=CARTESIAN_POINT('',(-64.,0.,-15.));
#2143=CARTESIAN_POINT('',(-64.,0.,-15.));
#2144=CARTESIAN_POINT('Origin',(-64.,0.,-14.));
#2145=CARTESIAN_POINT('Origin',(-35.,0.,-15.));
#2146=CARTESIAN_POINT('',(-36.,0.,-15.));
#2147=CARTESIAN_POINT('',(-36.,0.,-15.));
#2148=CARTESIAN_POINT('',(-35.,0.,-15.));
#2149=CARTESIAN_POINT('Origin',(-50.,10.,0.));
#2150=CARTESIAN_POINT('',(-38.,10.,-12.));
#2151=CARTESIAN_POINT('',(-38.,10.,12.));
#2152=CARTESIAN_POINT('',(-38.,10.,12.));
#2153=CARTESIAN_POINT('',(-62.,10.,12.));
#2154=CARTESIAN_POINT('',(-62.,10.,12.));
#2155=CARTESIAN_POINT('',(-62.,10.,-12.));
#2156=CARTESIAN_POINT('',(-62.,10.,-12.));
#2157=CARTESIAN_POINT('',(-38.,10.,-12.));
#2158=CARTESIAN_POINT('Origin',(-36.,0.,-14.));
#2159=CARTESIAN_POINT('',(-35.,0.,-14.));
#2160=CARTESIAN_POINT('',(-35.,0.,-14.));
#2161=CARTESIAN_POINT('Origin',(-36.,0.,-14.));
#2162=CARTESIAN_POINT('Origin',(-50.,0.,0.));
#2163=CARTESIAN_POINT('',(-35.,0.,14.));
#2164=CARTESIAN_POINT('',(-35.,0.,15.));
#2165=CARTESIAN_POINT('',(-36.,0.,15.));
#2166=CARTESIAN_POINT('Origin',(-36.,0.,14.));
#2167=CARTESIAN_POINT('',(-65.,0.,15.));
#2168=CARTESIAN_POINT('',(-38.,0.,-12.));
#2169=CARTESIAN_POINT('',(-38.,0.,12.));
#2170=CARTESIAN_POINT('',(-38.,0.,12.));
#2171=CARTESIAN_POINT('',(-62.,0.,-12.));
#2172=CARTESIAN_POINT('',(-38.,0.,-12.));
#2173=CARTESIAN_POINT('',(-62.,0.,12.));
#2174=CARTESIAN_POINT('',(-62.,0.,-12.));
#2175=CARTESIAN_POINT('',(-62.,0.,12.));
#2176=CARTESIAN_POINT('Origin',(-36.,0.,14.));
#2177=CARTESIAN_POINT('',(-36.,0.,15.));
#2178=CARTESIAN_POINT('',(-35.,0.,14.));
#2179=CARTESIAN_POINT('Origin',(-35.,0.,15.));
#2180=CARTESIAN_POINT('Origin',(-62.,0.,-12.));
#2181=CARTESIAN_POINT('',(-38.,0.,-12.));
#2182=CARTESIAN_POINT('',(-62.,0.,-12.));
#2183=CARTESIAN_POINT('Origin',(-62.,0.,12.));
#2184=CARTESIAN_POINT('',(-62.,0.,12.));
#2185=CARTESIAN_POINT('Origin',(-38.,0.,12.));
#2186=CARTESIAN_POINT('',(-38.,0.,12.));
#2187=CARTESIAN_POINT('Origin',(-38.,0.,-12.));
#2188=CARTESIAN_POINT('Origin',(-65.,0.,15.));
#2189=CARTESIAN_POINT('Origin',(-35.,0.,15.));
#2190=CARTESIAN_POINT('',(-35.,0.,15.));
#2191=CARTESIAN_POINT('',(-65.,0.,15.));
#2192=CARTESIAN_POINT('',(-65.,0.,15.));
#2193=CARTESIAN_POINT('',(-65.,4.,15.));
#2194=CARTESIAN_POINT('',(-65.,0.,15.));
#2195=CARTESIAN_POINT('',(-35.,4.,15.));
#2196=CARTESIAN_POINT('',(-65.,4.,15.));
#2197=CARTESIAN_POINT('',(-35.,0.,15.));
#2198=CARTESIAN_POINT('Origin',(-35.,0.,-15.));
#2199=CARTESIAN_POINT('',(-35.,0.,-15.));
#2200=CARTESIAN_POINT('',(-35.,0.,15.));
#2201=CARTESIAN_POINT('',(-35.,4.,-15.));
#2202=CARTESIAN_POINT('',(-35.,4.,15.));
#2203=CARTESIAN_POINT('',(-35.,0.,-15.));
#2204=CARTESIAN_POINT('Origin',(-65.,0.,-15.));
#2205=CARTESIAN_POINT('',(-65.,0.,-15.));
#2206=CARTESIAN_POINT('',(-35.,0.,-15.));
#2207=CARTESIAN_POINT('',(-65.,4.,-15.));
#2208=CARTESIAN_POINT('',(-35.,4.,-15.));
#2209=CARTESIAN_POINT('',(-65.,0.,-15.));
#2210=CARTESIAN_POINT('Origin',(-65.,0.,15.));
#2211=CARTESIAN_POINT('',(-65.,0.,-15.));
#2212=CARTESIAN_POINT('',(-65.,4.,-15.));
#2213=CARTESIAN_POINT('Origin',(-65.5,0.,15.5));
#2214=CARTESIAN_POINT('',(-65.5,0.,15.5));
#2215=CARTESIAN_POINT('',(-34.5,0.,15.5));
#2216=CARTESIAN_POINT('',(-65.5,0.,15.5));
#2217=CARTESIAN_POINT('',(-34.5,4.,15.5));
#2218=CARTESIAN_POINT('',(-34.5,0.,15.5));
#2219=CARTESIAN_POINT('',(-65.5,4.,15.5));
#2220=CARTESIAN_POINT('',(-65.5,4.,15.5));
#2221=CARTESIAN_POINT('',(-65.5,0.,15.5));
#2222=CARTESIAN_POINT('Origin',(-65.5,0.,-15.5));
#2223=CARTESIAN_POINT('',(-65.5,0.,-15.5));
#2224=CARTESIAN_POINT('',(-65.5,0.,-15.5));
#2225=CARTESIAN_POINT('',(-65.5,4.,-15.5));
#2226=CARTESIAN_POINT('',(-65.5,4.,-15.5));
#2227=CARTESIAN_POINT('',(-65.5,0.,-15.5));
#2228=CARTESIAN_POINT('Origin',(-34.5,0.,-15.5));
#2229=CARTESIAN_POINT('',(-34.5,0.,-15.5));
#2230=CARTESIAN_POINT('',(-34.5,0.,-15.5));
#2231=CARTESIAN_POINT('',(-34.5,4.,-15.5));
#2232=CARTESIAN_POINT('',(-34.5,4.,-15.5));
#2233=CARTESIAN_POINT('',(-34.5,0.,-15.5));
#2234=CARTESIAN_POINT('Origin',(-34.5,0.,15.5));
#2235=CARTESIAN_POINT('',(-34.5,0.,15.5));
#2236=CARTESIAN_POINT('',(-34.5,4.,15.5));
#2237=CARTESIAN_POINT('Origin',(-50.,4.,0.));
#2238=CARTESIAN_POINT('Origin',(-50.,0.,0.));
#2239=UNCERTAINTY_MEASURE_WITH_UNIT(LENGTH_MEASURE(0.01),#2243,
'DISTANCE_ACCURACY_VALUE',
'Maximum model space distance between geometric entities at asserted c
onnectivities');
#2240=UNCERTAINTY_MEASURE_WITH_UNIT(LENGTH_MEASURE(0.01),#2243,
'DISTANCE_ACCURACY_VALUE',
'Maximum model space distance between geometric entities at asserted c
onnectivities');
#2241=(
GEOMETRIC_REPRESENTATION_CONTEXT(3)
GLOBAL_UNCERTAINTY_ASSIGNED_CONTEXT((#2239))
GLOBAL_UNIT_ASSIGNED_CONTEXT((#2243,#2245,#2246))
REPRESENTATION_CONTEXT('','3D')
);
#2242=(
GEOMETRIC_REPRESENTATION_CONTEXT(3)
GLOBAL_UNCERTAINTY_ASSIGNED_CONTEXT((#2240))
GLOBAL_UNIT_ASSIGNED_CONTEXT((#2243,#2245,#2246))
REPRESENTATION_CONTEXT('','3D')
);
#2243=(
LENGTH_UNIT()
NAMED_UNIT(*)
SI_UNIT(.MILLI.,.METRE.)
);
#2244=(
LENGTH_UNIT()
NAMED_UNIT(*)
SI_UNIT($,.METRE.)
);
#2245=(
NAMED_UNIT(*)
PLANE_ANGLE_UNIT()
SI_UNIT($,.RADIAN.)
);
#2246=(
NAMED_UNIT(*)
SI_UNIT($,.STERADIAN.)
SOLID_ANGLE_UNIT()
);
#2247=SHAPE_DEFINITION_REPRESENTATION(#2248,#2249);
#2248=PRODUCT_DEFINITION_SHAPE('',$,#2251);
#2249=SHAPE_REPRESENTATION('',(#1307),#2241);
#2250=PRODUCT_DEFINITION_CONTEXT('part definition',#2255,'design');
#2251=PRODUCT_DEFINITION('capot_nutees_portail',
'capot_nutees_portail v1',#2252,#2250);
#2252=PRODUCT_DEFINITION_FORMATION('',$,#2257);
#2253=PRODUCT_RELATED_PRODUCT_CATEGORY('capot_nutees_portail v1',
'capot_nutees_portail v1',(#2257));
#2254=APPLICATION_PROTOCOL_DEFINITION('international standard',
'automotive_design',2009,#2255);
#2255=APPLICATION_CONTEXT(
'Core Data for Automotive Mechanical Design Process');
#2256=PRODUCT_CONTEXT('part definition',#2255,'mechanical');
#2257=PRODUCT('capot_nutees_portail','capot_nutees_portail v1',$,(#2256));
#2258=PRESENTATION_STYLE_ASSIGNMENT((#2259));
#2259=SURFACE_STYLE_USAGE(.BOTH.,#2260);
#2260=SURFACE_SIDE_STYLE('',(#2261));
#2261=SURFACE_STYLE_FILL_AREA(#2262);
#2262=FILL_AREA_STYLE('Acier - Satin\X\E9',(#2263));
#2263=FILL_AREA_STYLE_COLOUR('Acier - Satin\X\E9',#2264);
#2264=COLOUR_RGB('Acier - Satin\X\E9',0.627450980392157,0.627450980392157,
0.627450980392157);
ENDSEC;
END-ISO-10303-21;
