ISO-10303-21;
HEADER;
/* Generated by software containing ST-Developer
 * from STEP Tools, Inc. (www.steptools.com) 
 */

FILE_DESCRIPTION(
/* description */ (''),
/* implementation_level */ '2;1');

FILE_NAME(
/* name */ 'casier_micro-sd.step',
/* time_stamp */ '2026-02-11T20:34:16+01:00',
/* author */ (''),
/* organization */ (''),
/* preprocessor_version */ 'ST-DEVELOPER v20.1',
/* originating_system */ 'Autodesk Translation Framework v14.21.0.0',
/* authorisation */ '');

FILE_SCHEMA (('AUTOMOTIVE_DESIGN { 1 0 10303 214 3 1 1 }'));
ENDSEC;

DATA;
#10=MECHANICAL_DESIGN_GEOMETRIC_PRESENTATION_REPRESENTATION('',(#13),#1312);
#11=SHAPE_REPRESENTATION_RELATIONSHIP('SRR','None',#1319,#12);
#12=ADVANCED_BREP_SHAPE_REPRESENTATION('',(#14),#1311);
#13=STYLED_ITEM('',(#1328),#14);
#14=MANIFOLD_SOLID_BREP('Corps1',#725);
#15=ELLIPSE('',#811,1.4142135623731,1.);
#16=ELLIPSE('',#819,1.4142135623731,1.);
#17=PLANE('',#780);
#18=PLANE('',#781);
#19=PLANE('',#783);
#20=PLANE('',#784);
#21=PLANE('',#786);
#22=PLANE('',#789);
#23=PLANE('',#790);
#24=PLANE('',#791);
#25=PLANE('',#833);
#26=PLANE('',#834);
#27=PLANE('',#835);
#28=PLANE('',#837);
#29=PLANE('',#838);
#30=B_SPLINE_CURVE_WITH_KNOTS('',3,(#1135,#1136,#1137,#1138,#1139,#1140),
 .UNSPECIFIED.,.F.,.F.,(4,2,4),(0.505532240038509,0.581995466601179,0.699558285734088),
 .UNSPECIFIED.);
#31=B_SPLINE_CURVE_WITH_KNOTS('',3,(#1167,#1168,#1169,#1170,#1171,#1172),
 .UNSPECIFIED.,.F.,.F.,(4,2,4),(0.,0.117562819132909,0.194026045695578),
 .UNSPECIFIED.);
#32=TOROIDAL_SURFACE('',#752,2.,1.);
#33=TOROIDAL_SURFACE('',#758,2.,1.);
#34=TOROIDAL_SURFACE('',#762,2.,1.);
#35=TOROIDAL_SURFACE('',#770,2.,1.);
#36=TOROIDAL_SURFACE('',#824,4.,1.);
#37=TOROIDAL_SURFACE('',#829,4.,1.);
#38=LINE('',#1102,#87);
#39=LINE('',#1103,#88);
#40=LINE('',#1115,#89);
#41=LINE('',#1116,#90);
#42=LINE('',#1118,#91);
#43=LINE('',#1119,#92);
#44=LINE('',#1130,#93);
#45=LINE('',#1131,#94);
#46=LINE('',#1156,#95);
#47=LINE('',#1157,#96);
#48=LINE('',#1162,#97);
#49=LINE('',#1163,#98);
#50=LINE('',#1179,#99);
#51=LINE('',#1181,#100);
#52=LINE('',#1188,#101);
#53=LINE('',#1189,#102);
#54=LINE('',#1192,#103);
#55=LINE('',#1194,#104);
#56=LINE('',#1197,#105);
#57=LINE('',#1200,#106);
#58=LINE('',#1201,#107);
#59=LINE('',#1203,#108);
#60=LINE('',#1204,#109);
#61=LINE('',#1206,#110);
#62=LINE('',#1208,#111);
#63=LINE('',#1210,#112);
#64=LINE('',#1214,#113);
#65=LINE('',#1217,#114);
#66=LINE('',#1220,#115);
#67=LINE('',#1224,#116);
#68=LINE('',#1226,#117);
#69=LINE('',#1228,#118);
#70=LINE('',#1229,#119);
#71=LINE('',#1244,#120);
#72=LINE('',#1245,#121);
#73=LINE('',#1260,#122);
#74=LINE('',#1261,#123);
#75=LINE('',#1264,#124);
#76=LINE('',#1265,#125);
#77=LINE('',#1273,#126);
#78=LINE('',#1275,#127);
#79=LINE('',#1279,#128);
#80=LINE('',#1281,#129);
#81=LINE('',#1282,#130);
#82=LINE('',#1286,#131);
#83=LINE('',#1287,#132);
#84=LINE('',#1295,#133);
#85=LINE('',#1301,#134);
#86=LINE('',#1306,#135);
#87=VECTOR('',#853,10.);
#88=VECTOR('',#854,10.);
#89=VECTOR('',#867,10.);
#90=VECTOR('',#868,10.);
#91=VECTOR('',#871,10.);
#92=VECTOR('',#872,10.);
#93=VECTOR('',#885,10.);
#94=VECTOR('',#886,10.);
#95=VECTOR('',#907,10.);
#96=VECTOR('',#908,10.);
#97=VECTOR('',#913,10.);
#98=VECTOR('',#914,10.);
#99=VECTOR('',#925,10.);
#100=VECTOR('',#928,10.);
#101=VECTOR('',#939,10.);
#102=VECTOR('',#940,10.);
#103=VECTOR('',#943,10.);
#104=VECTOR('',#944,10.);
#105=VECTOR('',#947,10.);
#106=VECTOR('',#950,10.);
#107=VECTOR('',#951,10.);
#108=VECTOR('',#954,10.);
#109=VECTOR('',#955,10.);
#110=VECTOR('',#958,10.);
#111=VECTOR('',#961,10.);
#112=VECTOR('',#962,10.);
#113=VECTOR('',#965,10.);
#114=VECTOR('',#968,10.);
#115=VECTOR('',#973,10.);
#116=VECTOR('',#976,10.);
#117=VECTOR('',#977,10.);
#118=VECTOR('',#978,10.);
#119=VECTOR('',#979,10.);
#120=VECTOR('',#998,10.);
#121=VECTOR('',#999,10.);
#122=VECTOR('',#1018,10.);
#123=VECTOR('',#1019,10.);
#124=VECTOR('',#1022,10.);
#125=VECTOR('',#1023,10.);
#126=VECTOR('',#1036,10.);
#127=VECTOR('',#1039,10.);
#128=VECTOR('',#1046,10.);
#129=VECTOR('',#1049,10.);
#130=VECTOR('',#1050,10.);
#131=VECTOR('',#1055,10.);
#132=VECTOR('',#1056,10.);
#133=VECTOR('',#1067,10.);
#134=VECTOR('',#1076,10.);
#135=VECTOR('',#1085,10.);
#136=CYLINDRICAL_SURFACE('',#743,1.);
#137=CYLINDRICAL_SURFACE('',#749,1.);
#138=CYLINDRICAL_SURFACE('',#751,1.);
#139=CYLINDRICAL_SURFACE('',#757,1.);
#140=CYLINDRICAL_SURFACE('',#767,1.);
#141=CYLINDRICAL_SURFACE('',#768,1.);
#142=CYLINDRICAL_SURFACE('',#773,1.);
#143=CYLINDRICAL_SURFACE('',#785,1.);
#144=CYLINDRICAL_SURFACE('',#800,1.);
#145=CYLINDRICAL_SURFACE('',#809,1.);
#146=CYLINDRICAL_SURFACE('',#810,1.);
#147=CYLINDRICAL_SURFACE('',#816,1.);
#148=CYLINDRICAL_SURFACE('',#817,1.);
#149=CYLINDRICAL_SURFACE('',#818,1.);
#150=CYLINDRICAL_SURFACE('',#820,1.);
#151=CYLINDRICAL_SURFACE('',#821,1.);
#152=CYLINDRICAL_SURFACE('',#822,1.);
#153=CYLINDRICAL_SURFACE('',#827,1.);
#154=CYLINDRICAL_SURFACE('',#832,1.);
#155=CYLINDRICAL_SURFACE('',#836,1.);
#156=FACE_OUTER_BOUND('',#204,.T.);
#157=FACE_OUTER_BOUND('',#205,.T.);
#158=FACE_OUTER_BOUND('',#206,.T.);
#159=FACE_OUTER_BOUND('',#207,.T.);
#160=FACE_OUTER_BOUND('',#208,.T.);
#161=FACE_OUTER_BOUND('',#209,.T.);
#162=FACE_OUTER_BOUND('',#210,.T.);
#163=FACE_OUTER_BOUND('',#211,.T.);
#164=FACE_OUTER_BOUND('',#212,.T.);
#165=FACE_OUTER_BOUND('',#213,.T.);
#166=FACE_OUTER_BOUND('',#214,.T.);
#167=FACE_OUTER_BOUND('',#215,.T.);
#168=FACE_OUTER_BOUND('',#216,.T.);
#169=FACE_OUTER_BOUND('',#217,.T.);
#170=FACE_OUTER_BOUND('',#218,.T.);
#171=FACE_OUTER_BOUND('',#219,.T.);
#172=FACE_OUTER_BOUND('',#220,.T.);
#173=FACE_OUTER_BOUND('',#221,.T.);
#174=FACE_OUTER_BOUND('',#222,.T.);
#175=FACE_OUTER_BOUND('',#223,.T.);
#176=FACE_OUTER_BOUND('',#224,.T.);
#177=FACE_OUTER_BOUND('',#225,.T.);
#178=FACE_OUTER_BOUND('',#226,.T.);
#179=FACE_OUTER_BOUND('',#227,.T.);
#180=FACE_OUTER_BOUND('',#228,.T.);
#181=FACE_OUTER_BOUND('',#229,.T.);
#182=FACE_OUTER_BOUND('',#230,.T.);
#183=FACE_OUTER_BOUND('',#231,.T.);
#184=FACE_OUTER_BOUND('',#232,.T.);
#185=FACE_OUTER_BOUND('',#233,.T.);
#186=FACE_OUTER_BOUND('',#234,.T.);
#187=FACE_OUTER_BOUND('',#235,.T.);
#188=FACE_OUTER_BOUND('',#236,.T.);
#189=FACE_OUTER_BOUND('',#237,.T.);
#190=FACE_OUTER_BOUND('',#238,.T.);
#191=FACE_OUTER_BOUND('',#239,.T.);
#192=FACE_OUTER_BOUND('',#240,.T.);
#193=FACE_OUTER_BOUND('',#241,.T.);
#194=FACE_OUTER_BOUND('',#242,.T.);
#195=FACE_OUTER_BOUND('',#243,.T.);
#196=FACE_OUTER_BOUND('',#244,.T.);
#197=FACE_OUTER_BOUND('',#245,.T.);
#198=FACE_OUTER_BOUND('',#246,.T.);
#199=FACE_OUTER_BOUND('',#247,.T.);
#200=FACE_OUTER_BOUND('',#248,.T.);
#201=FACE_OUTER_BOUND('',#249,.T.);
#202=FACE_OUTER_BOUND('',#250,.T.);
#203=FACE_OUTER_BOUND('',#251,.T.);
#204=EDGE_LOOP('',(#462,#463,#464));
#205=EDGE_LOOP('',(#465,#466,#467,#468));
#206=EDGE_LOOP('',(#469,#470,#471));
#207=EDGE_LOOP('',(#472,#473,#474,#475));
#208=EDGE_LOOP('',(#476,#477,#478,#479));
#209=EDGE_LOOP('',(#480,#481,#482,#483));
#210=EDGE_LOOP('',(#484,#485,#486,#487));
#211=EDGE_LOOP('',(#488,#489,#490,#491));
#212=EDGE_LOOP('',(#492,#493,#494,#495));
#213=EDGE_LOOP('',(#496,#497,#498,#499));
#214=EDGE_LOOP('',(#500,#501,#502,#503));
#215=EDGE_LOOP('',(#504,#505,#506,#507));
#216=EDGE_LOOP('',(#508,#509,#510,#511));
#217=EDGE_LOOP('',(#512,#513,#514));
#218=EDGE_LOOP('',(#515,#516,#517));
#219=EDGE_LOOP('',(#518,#519,#520));
#220=EDGE_LOOP('',(#521,#522,#523,#524,#525,#526,#527));
#221=EDGE_LOOP('',(#528,#529,#530));
#222=EDGE_LOOP('',(#531,#532,#533,#534));
#223=EDGE_LOOP('',(#535,#536,#537,#538));
#224=EDGE_LOOP('',(#539,#540,#541,#542,#543,#544,#545,#546,#547,#548,#549,
#550));
#225=EDGE_LOOP('',(#551,#552,#553,#554));
#226=EDGE_LOOP('',(#555,#556,#557,#558));
#227=EDGE_LOOP('',(#559,#560,#561,#562));
#228=EDGE_LOOP('',(#563,#564,#565));
#229=EDGE_LOOP('',(#566,#567,#568));
#230=EDGE_LOOP('',(#569,#570,#571,#572));
#231=EDGE_LOOP('',(#573,#574,#575));
#232=EDGE_LOOP('',(#576,#577,#578));
#233=EDGE_LOOP('',(#579,#580,#581,#582));
#234=EDGE_LOOP('',(#583,#584,#585,#586));
#235=EDGE_LOOP('',(#587,#588,#589));
#236=EDGE_LOOP('',(#590,#591,#592,#593));
#237=EDGE_LOOP('',(#594,#595,#596,#597,#598,#599,#600,#601));
#238=EDGE_LOOP('',(#602,#603,#604,#605,#606,#607,#608,#609));
#239=EDGE_LOOP('',(#610,#611,#612,#613));
#240=EDGE_LOOP('',(#614,#615,#616,#617));
#241=EDGE_LOOP('',(#618,#619,#620,#621,#622,#623));
#242=EDGE_LOOP('',(#624,#625,#626,#627));
#243=EDGE_LOOP('',(#628,#629,#630,#631));
#244=EDGE_LOOP('',(#632,#633,#634,#635));
#245=EDGE_LOOP('',(#636,#637,#638,#639,#640,#641));
#246=EDGE_LOOP('',(#642,#643,#644,#645,#646,#647));
#247=EDGE_LOOP('',(#648,#649,#650,#651));
#248=EDGE_LOOP('',(#652,#653,#654,#655));
#249=EDGE_LOOP('',(#656,#657,#658,#659));
#250=EDGE_LOOP('',(#660,#661,#662,#663));
#251=EDGE_LOOP('',(#664,#665,#666,#667));
#252=CIRCLE('',#740,1.);
#253=CIRCLE('',#741,1.);
#254=CIRCLE('',#742,1.);
#255=CIRCLE('',#744,1.);
#256=CIRCLE('',#746,1.);
#257=CIRCLE('',#747,1.);
#258=CIRCLE('',#748,1.);
#259=CIRCLE('',#750,1.);
#260=CIRCLE('',#753,1.);
#261=CIRCLE('',#754,1.);
#262=CIRCLE('',#755,1.);
#263=CIRCLE('',#756,2.);
#264=CIRCLE('',#759,2.);
#265=CIRCLE('',#760,1.);
#266=CIRCLE('',#761,1.);
#267=CIRCLE('',#763,1.);
#268=CIRCLE('',#764,1.);
#269=CIRCLE('',#765,1.);
#270=CIRCLE('',#766,2.);
#271=CIRCLE('',#769,1.);
#272=CIRCLE('',#771,1.);
#273=CIRCLE('',#772,2.);
#274=CIRCLE('',#774,1.);
#275=CIRCLE('',#775,1.);
#276=CIRCLE('',#777,1.);
#277=CIRCLE('',#779,1.);
#278=CIRCLE('',#782,1.);
#279=CIRCLE('',#787,4.);
#280=CIRCLE('',#788,4.);
#281=CIRCLE('',#793,1.);
#282=CIRCLE('',#794,1.);
#283=CIRCLE('',#795,1.);
#284=CIRCLE('',#797,1.);
#285=CIRCLE('',#798,1.);
#286=CIRCLE('',#799,1.);
#287=CIRCLE('',#802,1.);
#288=CIRCLE('',#803,1.);
#289=CIRCLE('',#804,1.);
#290=CIRCLE('',#806,1.);
#291=CIRCLE('',#807,1.);
#292=CIRCLE('',#808,1.);
#293=CIRCLE('',#813,1.);
#294=CIRCLE('',#814,1.);
#295=CIRCLE('',#815,1.);
#296=CIRCLE('',#823,0.999999999999999);
#297=CIRCLE('',#825,1.);
#298=CIRCLE('',#826,4.);
#299=CIRCLE('',#828,1.);
#300=CIRCLE('',#830,1.);
#301=CIRCLE('',#831,4.);
#302=VERTEX_POINT('',#1092);
#303=VERTEX_POINT('',#1093);
#304=VERTEX_POINT('',#1095);
#305=VERTEX_POINT('',#1099);
#306=VERTEX_POINT('',#1100);
#307=VERTEX_POINT('',#1105);
#308=VERTEX_POINT('',#1106);
#309=VERTEX_POINT('',#1108);
#310=VERTEX_POINT('',#1112);
#311=VERTEX_POINT('',#1113);
#312=VERTEX_POINT('',#1121);
#313=VERTEX_POINT('',#1122);
#314=VERTEX_POINT('',#1124);
#315=VERTEX_POINT('',#1126);
#316=VERTEX_POINT('',#1133);
#317=VERTEX_POINT('',#1134);
#318=VERTEX_POINT('',#1141);
#319=VERTEX_POINT('',#1143);
#320=VERTEX_POINT('',#1147);
#321=VERTEX_POINT('',#1148);
#322=VERTEX_POINT('',#1150);
#323=VERTEX_POINT('',#1152);
#324=VERTEX_POINT('',#1159);
#325=VERTEX_POINT('',#1160);
#326=VERTEX_POINT('',#1165);
#327=VERTEX_POINT('',#1166);
#328=VERTEX_POINT('',#1176);
#329=VERTEX_POINT('',#1178);
#330=VERTEX_POINT('',#1187);
#331=VERTEX_POINT('',#1191);
#332=VERTEX_POINT('',#1193);
#333=VERTEX_POINT('',#1195);
#334=VERTEX_POINT('',#1199);
#335=VERTEX_POINT('',#1209);
#336=VERTEX_POINT('',#1211);
#337=VERTEX_POINT('',#1213);
#338=VERTEX_POINT('',#1215);
#339=VERTEX_POINT('',#1222);
#340=VERTEX_POINT('',#1223);
#341=VERTEX_POINT('',#1225);
#342=VERTEX_POINT('',#1227);
#343=VERTEX_POINT('',#1231);
#344=VERTEX_POINT('',#1232);
#345=VERTEX_POINT('',#1234);
#346=VERTEX_POINT('',#1238);
#347=VERTEX_POINT('',#1240);
#348=VERTEX_POINT('',#1247);
#349=VERTEX_POINT('',#1248);
#350=VERTEX_POINT('',#1250);
#351=VERTEX_POINT('',#1254);
#352=VERTEX_POINT('',#1256);
#353=VERTEX_POINT('',#1263);
#354=VERTEX_POINT('',#1269);
#355=VERTEX_POINT('',#1284);
#356=VERTEX_POINT('',#1289);
#357=VERTEX_POINT('',#1293);
#358=VERTEX_POINT('',#1297);
#359=EDGE_CURVE('',#302,#303,#252,.F.);
#360=EDGE_CURVE('',#304,#302,#253,.F.);
#361=EDGE_CURVE('',#303,#304,#254,.F.);
#362=EDGE_CURVE('',#305,#306,#255,.T.);
#363=EDGE_CURVE('',#306,#304,#38,.T.);
#364=EDGE_CURVE('',#302,#305,#39,.T.);
#365=EDGE_CURVE('',#307,#308,#256,.F.);
#366=EDGE_CURVE('',#309,#307,#257,.F.);
#367=EDGE_CURVE('',#308,#309,#258,.F.);
#368=EDGE_CURVE('',#310,#311,#259,.T.);
#369=EDGE_CURVE('',#311,#309,#40,.T.);
#370=EDGE_CURVE('',#307,#310,#41,.T.);
#371=EDGE_CURVE('',#309,#302,#42,.T.);
#372=EDGE_CURVE('',#303,#308,#43,.T.);
#373=EDGE_CURVE('',#312,#313,#260,.T.);
#374=EDGE_CURVE('',#314,#312,#261,.F.);
#375=EDGE_CURVE('',#315,#314,#262,.T.);
#376=EDGE_CURVE('',#315,#313,#263,.T.);
#377=EDGE_CURVE('',#312,#303,#44,.T.);
#378=EDGE_CURVE('',#304,#314,#45,.T.);
#379=EDGE_CURVE('',#316,#317,#30,.F.);
#380=EDGE_CURVE('',#317,#318,#264,.T.);
#381=EDGE_CURVE('',#319,#318,#265,.T.);
#382=EDGE_CURVE('',#319,#316,#266,.T.);
#383=EDGE_CURVE('',#320,#321,#267,.T.);
#384=EDGE_CURVE('',#322,#320,#268,.F.);
#385=EDGE_CURVE('',#323,#322,#269,.T.);
#386=EDGE_CURVE('',#323,#321,#270,.T.);
#387=EDGE_CURVE('',#320,#307,#46,.T.);
#388=EDGE_CURVE('',#308,#322,#47,.T.);
#389=EDGE_CURVE('',#324,#325,#271,.T.);
#390=EDGE_CURVE('',#325,#320,#48,.T.);
#391=EDGE_CURVE('',#321,#324,#49,.T.);
#392=EDGE_CURVE('',#326,#327,#31,.F.);
#393=EDGE_CURVE('',#327,#325,#272,.T.);
#394=EDGE_CURVE('',#324,#326,#273,.T.);
#395=EDGE_CURVE('',#311,#328,#274,.T.);
#396=EDGE_CURVE('',#328,#329,#50,.T.);
#397=EDGE_CURVE('',#329,#305,#275,.T.);
#398=EDGE_CURVE('',#305,#311,#51,.T.);
#399=EDGE_CURVE('',#329,#306,#276,.T.);
#400=EDGE_CURVE('',#310,#328,#277,.T.);
#401=EDGE_CURVE('',#317,#330,#52,.T.);
#402=EDGE_CURVE('',#318,#330,#53,.T.);
#403=EDGE_CURVE('',#331,#323,#54,.T.);
#404=EDGE_CURVE('',#331,#332,#55,.T.);
#405=EDGE_CURVE('',#333,#332,#278,.F.);
#406=EDGE_CURVE('',#333,#326,#56,.T.);
#407=EDGE_CURVE('',#334,#315,#57,.T.);
#408=EDGE_CURVE('',#313,#334,#58,.T.);
#409=EDGE_CURVE('',#314,#319,#59,.T.);
#410=EDGE_CURVE('',#319,#306,#60,.T.);
#411=EDGE_CURVE('',#329,#316,#61,.T.);
#412=EDGE_CURVE('',#327,#328,#62,.T.);
#413=EDGE_CURVE('',#335,#333,#63,.T.);
#414=EDGE_CURVE('',#336,#335,#279,.T.);
#415=EDGE_CURVE('',#337,#336,#64,.T.);
#416=EDGE_CURVE('',#338,#337,#280,.T.);
#417=EDGE_CURVE('',#330,#338,#65,.T.);
#418=EDGE_CURVE('',#322,#312,#66,.T.);
#419=EDGE_CURVE('',#339,#340,#67,.T.);
#420=EDGE_CURVE('',#341,#339,#68,.T.);
#421=EDGE_CURVE('',#342,#341,#69,.T.);
#422=EDGE_CURVE('',#340,#342,#70,.T.);
#423=EDGE_CURVE('',#343,#344,#281,.F.);
#424=EDGE_CURVE('',#345,#343,#282,.F.);
#425=EDGE_CURVE('',#344,#345,#283,.F.);
#426=EDGE_CURVE('',#346,#341,#284,.F.);
#427=EDGE_CURVE('',#347,#346,#285,.F.);
#428=EDGE_CURVE('',#341,#347,#286,.F.);
#429=EDGE_CURVE('',#345,#347,#71,.T.);
#430=EDGE_CURVE('',#346,#344,#72,.T.);
#431=EDGE_CURVE('',#348,#349,#287,.F.);
#432=EDGE_CURVE('',#350,#348,#288,.F.);
#433=EDGE_CURVE('',#349,#350,#289,.F.);
#434=EDGE_CURVE('',#351,#342,#290,.F.);
#435=EDGE_CURVE('',#352,#351,#291,.F.);
#436=EDGE_CURVE('',#342,#352,#292,.F.);
#437=EDGE_CURVE('',#351,#350,#73,.T.);
#438=EDGE_CURVE('',#348,#352,#74,.T.);
#439=EDGE_CURVE('',#353,#348,#75,.T.);
#440=EDGE_CURVE('',#349,#331,#76,.T.);
#441=EDGE_CURVE('',#331,#353,#15,.T.);
#442=EDGE_CURVE('',#340,#334,#293,.F.);
#443=EDGE_CURVE('',#354,#340,#294,.F.);
#444=EDGE_CURVE('',#334,#354,#295,.F.);
#445=EDGE_CURVE('',#352,#354,#77,.T.);
#446=EDGE_CURVE('',#354,#353,#78,.T.);
#447=EDGE_CURVE('',#339,#330,#16,.F.);
#448=EDGE_CURVE('',#347,#351,#79,.T.);
#449=EDGE_CURVE('',#350,#345,#80,.T.);
#450=EDGE_CURVE('',#343,#349,#81,.T.);
#451=EDGE_CURVE('',#335,#355,#296,.T.);
#452=EDGE_CURVE('',#332,#343,#82,.T.);
#453=EDGE_CURVE('',#344,#355,#83,.T.);
#454=EDGE_CURVE('',#356,#336,#297,.T.);
#455=EDGE_CURVE('',#355,#356,#298,.T.);
#456=EDGE_CURVE('',#357,#337,#299,.T.);
#457=EDGE_CURVE('',#356,#357,#84,.T.);
#458=EDGE_CURVE('',#358,#338,#300,.T.);
#459=EDGE_CURVE('',#357,#358,#301,.T.);
#460=EDGE_CURVE('',#358,#346,#85,.T.);
#461=EDGE_CURVE('',#310,#325,#86,.T.);
#462=ORIENTED_EDGE('',*,*,#359,.F.);
#463=ORIENTED_EDGE('',*,*,#360,.F.);
#464=ORIENTED_EDGE('',*,*,#361,.F.);
#465=ORIENTED_EDGE('',*,*,#362,.T.);
#466=ORIENTED_EDGE('',*,*,#363,.T.);
#467=ORIENTED_EDGE('',*,*,#360,.T.);
#468=ORIENTED_EDGE('',*,*,#364,.T.);
#469=ORIENTED_EDGE('',*,*,#365,.F.);
#470=ORIENTED_EDGE('',*,*,#366,.F.);
#471=ORIENTED_EDGE('',*,*,#367,.F.);
#472=ORIENTED_EDGE('',*,*,#368,.T.);
#473=ORIENTED_EDGE('',*,*,#369,.T.);
#474=ORIENTED_EDGE('',*,*,#366,.T.);
#475=ORIENTED_EDGE('',*,*,#370,.T.);
#476=ORIENTED_EDGE('',*,*,#367,.T.);
#477=ORIENTED_EDGE('',*,*,#371,.T.);
#478=ORIENTED_EDGE('',*,*,#359,.T.);
#479=ORIENTED_EDGE('',*,*,#372,.T.);
#480=ORIENTED_EDGE('',*,*,#373,.F.);
#481=ORIENTED_EDGE('',*,*,#374,.F.);
#482=ORIENTED_EDGE('',*,*,#375,.F.);
#483=ORIENTED_EDGE('',*,*,#376,.T.);
#484=ORIENTED_EDGE('',*,*,#374,.T.);
#485=ORIENTED_EDGE('',*,*,#377,.T.);
#486=ORIENTED_EDGE('',*,*,#361,.T.);
#487=ORIENTED_EDGE('',*,*,#378,.T.);
#488=ORIENTED_EDGE('',*,*,#379,.T.);
#489=ORIENTED_EDGE('',*,*,#380,.T.);
#490=ORIENTED_EDGE('',*,*,#381,.F.);
#491=ORIENTED_EDGE('',*,*,#382,.T.);
#492=ORIENTED_EDGE('',*,*,#383,.F.);
#493=ORIENTED_EDGE('',*,*,#384,.F.);
#494=ORIENTED_EDGE('',*,*,#385,.F.);
#495=ORIENTED_EDGE('',*,*,#386,.T.);
#496=ORIENTED_EDGE('',*,*,#384,.T.);
#497=ORIENTED_EDGE('',*,*,#387,.T.);
#498=ORIENTED_EDGE('',*,*,#365,.T.);
#499=ORIENTED_EDGE('',*,*,#388,.T.);
#500=ORIENTED_EDGE('',*,*,#389,.T.);
#501=ORIENTED_EDGE('',*,*,#390,.T.);
#502=ORIENTED_EDGE('',*,*,#383,.T.);
#503=ORIENTED_EDGE('',*,*,#391,.T.);
#504=ORIENTED_EDGE('',*,*,#392,.T.);
#505=ORIENTED_EDGE('',*,*,#393,.T.);
#506=ORIENTED_EDGE('',*,*,#389,.F.);
#507=ORIENTED_EDGE('',*,*,#394,.T.);
#508=ORIENTED_EDGE('',*,*,#395,.T.);
#509=ORIENTED_EDGE('',*,*,#396,.T.);
#510=ORIENTED_EDGE('',*,*,#397,.T.);
#511=ORIENTED_EDGE('',*,*,#398,.T.);
#512=ORIENTED_EDGE('',*,*,#397,.F.);
#513=ORIENTED_EDGE('',*,*,#399,.T.);
#514=ORIENTED_EDGE('',*,*,#362,.F.);
#515=ORIENTED_EDGE('',*,*,#368,.F.);
#516=ORIENTED_EDGE('',*,*,#400,.T.);
#517=ORIENTED_EDGE('',*,*,#395,.F.);
#518=ORIENTED_EDGE('',*,*,#380,.F.);
#519=ORIENTED_EDGE('',*,*,#401,.T.);
#520=ORIENTED_EDGE('',*,*,#402,.F.);
#521=ORIENTED_EDGE('',*,*,#386,.F.);
#522=ORIENTED_EDGE('',*,*,#403,.F.);
#523=ORIENTED_EDGE('',*,*,#404,.T.);
#524=ORIENTED_EDGE('',*,*,#405,.F.);
#525=ORIENTED_EDGE('',*,*,#406,.T.);
#526=ORIENTED_EDGE('',*,*,#394,.F.);
#527=ORIENTED_EDGE('',*,*,#391,.F.);
#528=ORIENTED_EDGE('',*,*,#376,.F.);
#529=ORIENTED_EDGE('',*,*,#407,.F.);
#530=ORIENTED_EDGE('',*,*,#408,.F.);
#531=ORIENTED_EDGE('',*,*,#409,.F.);
#532=ORIENTED_EDGE('',*,*,#378,.F.);
#533=ORIENTED_EDGE('',*,*,#363,.F.);
#534=ORIENTED_EDGE('',*,*,#410,.F.);
#535=ORIENTED_EDGE('',*,*,#382,.F.);
#536=ORIENTED_EDGE('',*,*,#410,.T.);
#537=ORIENTED_EDGE('',*,*,#399,.F.);
#538=ORIENTED_EDGE('',*,*,#411,.T.);
#539=ORIENTED_EDGE('',*,*,#396,.F.);
#540=ORIENTED_EDGE('',*,*,#412,.F.);
#541=ORIENTED_EDGE('',*,*,#392,.F.);
#542=ORIENTED_EDGE('',*,*,#406,.F.);
#543=ORIENTED_EDGE('',*,*,#413,.F.);
#544=ORIENTED_EDGE('',*,*,#414,.F.);
#545=ORIENTED_EDGE('',*,*,#415,.F.);
#546=ORIENTED_EDGE('',*,*,#416,.F.);
#547=ORIENTED_EDGE('',*,*,#417,.F.);
#548=ORIENTED_EDGE('',*,*,#401,.F.);
#549=ORIENTED_EDGE('',*,*,#379,.F.);
#550=ORIENTED_EDGE('',*,*,#411,.F.);
#551=ORIENTED_EDGE('',*,*,#369,.F.);
#552=ORIENTED_EDGE('',*,*,#398,.F.);
#553=ORIENTED_EDGE('',*,*,#364,.F.);
#554=ORIENTED_EDGE('',*,*,#371,.F.);
#555=ORIENTED_EDGE('',*,*,#372,.F.);
#556=ORIENTED_EDGE('',*,*,#377,.F.);
#557=ORIENTED_EDGE('',*,*,#418,.F.);
#558=ORIENTED_EDGE('',*,*,#388,.F.);
#559=ORIENTED_EDGE('',*,*,#419,.F.);
#560=ORIENTED_EDGE('',*,*,#420,.F.);
#561=ORIENTED_EDGE('',*,*,#421,.F.);
#562=ORIENTED_EDGE('',*,*,#422,.F.);
#563=ORIENTED_EDGE('',*,*,#423,.F.);
#564=ORIENTED_EDGE('',*,*,#424,.F.);
#565=ORIENTED_EDGE('',*,*,#425,.F.);
#566=ORIENTED_EDGE('',*,*,#426,.F.);
#567=ORIENTED_EDGE('',*,*,#427,.F.);
#568=ORIENTED_EDGE('',*,*,#428,.F.);
#569=ORIENTED_EDGE('',*,*,#425,.T.);
#570=ORIENTED_EDGE('',*,*,#429,.T.);
#571=ORIENTED_EDGE('',*,*,#427,.T.);
#572=ORIENTED_EDGE('',*,*,#430,.T.);
#573=ORIENTED_EDGE('',*,*,#431,.F.);
#574=ORIENTED_EDGE('',*,*,#432,.F.);
#575=ORIENTED_EDGE('',*,*,#433,.F.);
#576=ORIENTED_EDGE('',*,*,#434,.F.);
#577=ORIENTED_EDGE('',*,*,#435,.F.);
#578=ORIENTED_EDGE('',*,*,#436,.F.);
#579=ORIENTED_EDGE('',*,*,#435,.T.);
#580=ORIENTED_EDGE('',*,*,#437,.T.);
#581=ORIENTED_EDGE('',*,*,#432,.T.);
#582=ORIENTED_EDGE('',*,*,#438,.T.);
#583=ORIENTED_EDGE('',*,*,#439,.T.);
#584=ORIENTED_EDGE('',*,*,#431,.T.);
#585=ORIENTED_EDGE('',*,*,#440,.T.);
#586=ORIENTED_EDGE('',*,*,#441,.T.);
#587=ORIENTED_EDGE('',*,*,#442,.F.);
#588=ORIENTED_EDGE('',*,*,#443,.F.);
#589=ORIENTED_EDGE('',*,*,#444,.F.);
#590=ORIENTED_EDGE('',*,*,#443,.T.);
#591=ORIENTED_EDGE('',*,*,#422,.T.);
#592=ORIENTED_EDGE('',*,*,#436,.T.);
#593=ORIENTED_EDGE('',*,*,#445,.T.);
#594=ORIENTED_EDGE('',*,*,#403,.T.);
#595=ORIENTED_EDGE('',*,*,#385,.T.);
#596=ORIENTED_EDGE('',*,*,#418,.T.);
#597=ORIENTED_EDGE('',*,*,#373,.T.);
#598=ORIENTED_EDGE('',*,*,#408,.T.);
#599=ORIENTED_EDGE('',*,*,#444,.T.);
#600=ORIENTED_EDGE('',*,*,#446,.T.);
#601=ORIENTED_EDGE('',*,*,#441,.F.);
#602=ORIENTED_EDGE('',*,*,#419,.T.);
#603=ORIENTED_EDGE('',*,*,#442,.T.);
#604=ORIENTED_EDGE('',*,*,#407,.T.);
#605=ORIENTED_EDGE('',*,*,#375,.T.);
#606=ORIENTED_EDGE('',*,*,#409,.T.);
#607=ORIENTED_EDGE('',*,*,#381,.T.);
#608=ORIENTED_EDGE('',*,*,#402,.T.);
#609=ORIENTED_EDGE('',*,*,#447,.F.);
#610=ORIENTED_EDGE('',*,*,#428,.T.);
#611=ORIENTED_EDGE('',*,*,#448,.T.);
#612=ORIENTED_EDGE('',*,*,#434,.T.);
#613=ORIENTED_EDGE('',*,*,#421,.T.);
#614=ORIENTED_EDGE('',*,*,#433,.T.);
#615=ORIENTED_EDGE('',*,*,#449,.T.);
#616=ORIENTED_EDGE('',*,*,#424,.T.);
#617=ORIENTED_EDGE('',*,*,#450,.T.);
#618=ORIENTED_EDGE('',*,*,#451,.F.);
#619=ORIENTED_EDGE('',*,*,#413,.T.);
#620=ORIENTED_EDGE('',*,*,#405,.T.);
#621=ORIENTED_EDGE('',*,*,#452,.T.);
#622=ORIENTED_EDGE('',*,*,#423,.T.);
#623=ORIENTED_EDGE('',*,*,#453,.T.);
#624=ORIENTED_EDGE('',*,*,#454,.T.);
#625=ORIENTED_EDGE('',*,*,#414,.T.);
#626=ORIENTED_EDGE('',*,*,#451,.T.);
#627=ORIENTED_EDGE('',*,*,#455,.T.);
#628=ORIENTED_EDGE('',*,*,#456,.T.);
#629=ORIENTED_EDGE('',*,*,#415,.T.);
#630=ORIENTED_EDGE('',*,*,#454,.F.);
#631=ORIENTED_EDGE('',*,*,#457,.T.);
#632=ORIENTED_EDGE('',*,*,#458,.T.);
#633=ORIENTED_EDGE('',*,*,#416,.T.);
#634=ORIENTED_EDGE('',*,*,#456,.F.);
#635=ORIENTED_EDGE('',*,*,#459,.T.);
#636=ORIENTED_EDGE('',*,*,#458,.F.);
#637=ORIENTED_EDGE('',*,*,#460,.T.);
#638=ORIENTED_EDGE('',*,*,#426,.T.);
#639=ORIENTED_EDGE('',*,*,#420,.T.);
#640=ORIENTED_EDGE('',*,*,#447,.T.);
#641=ORIENTED_EDGE('',*,*,#417,.T.);
#642=ORIENTED_EDGE('',*,*,#430,.F.);
#643=ORIENTED_EDGE('',*,*,#460,.F.);
#644=ORIENTED_EDGE('',*,*,#459,.F.);
#645=ORIENTED_EDGE('',*,*,#457,.F.);
#646=ORIENTED_EDGE('',*,*,#455,.F.);
#647=ORIENTED_EDGE('',*,*,#453,.F.);
#648=ORIENTED_EDGE('',*,*,#437,.F.);
#649=ORIENTED_EDGE('',*,*,#448,.F.);
#650=ORIENTED_EDGE('',*,*,#429,.F.);
#651=ORIENTED_EDGE('',*,*,#449,.F.);
#652=ORIENTED_EDGE('',*,*,#438,.F.);
#653=ORIENTED_EDGE('',*,*,#439,.F.);
#654=ORIENTED_EDGE('',*,*,#446,.F.);
#655=ORIENTED_EDGE('',*,*,#445,.F.);
#656=ORIENTED_EDGE('',*,*,#393,.F.);
#657=ORIENTED_EDGE('',*,*,#412,.T.);
#658=ORIENTED_EDGE('',*,*,#400,.F.);
#659=ORIENTED_EDGE('',*,*,#461,.T.);
#660=ORIENTED_EDGE('',*,*,#404,.F.);
#661=ORIENTED_EDGE('',*,*,#440,.F.);
#662=ORIENTED_EDGE('',*,*,#450,.F.);
#663=ORIENTED_EDGE('',*,*,#452,.F.);
#664=ORIENTED_EDGE('',*,*,#390,.F.);
#665=ORIENTED_EDGE('',*,*,#461,.F.);
#666=ORIENTED_EDGE('',*,*,#370,.F.);
#667=ORIENTED_EDGE('',*,*,#387,.F.);
#668=SPHERICAL_SURFACE('',#739,1.);
#669=SPHERICAL_SURFACE('',#745,1.);
#670=SPHERICAL_SURFACE('',#776,1.);
#671=SPHERICAL_SURFACE('',#778,1.);
#672=SPHERICAL_SURFACE('',#792,1.);
#673=SPHERICAL_SURFACE('',#796,1.);
#674=SPHERICAL_SURFACE('',#801,1.);
#675=SPHERICAL_SURFACE('',#805,1.);
#676=SPHERICAL_SURFACE('',#812,1.);
#677=ADVANCED_FACE('',(#156),#668,.F.);
#678=ADVANCED_FACE('',(#157),#136,.F.);
#679=ADVANCED_FACE('',(#158),#669,.F.);
#680=ADVANCED_FACE('',(#159),#137,.F.);
#681=ADVANCED_FACE('',(#160),#138,.F.);
#682=ADVANCED_FACE('',(#161),#32,.T.);
#683=ADVANCED_FACE('',(#162),#139,.F.);
#684=ADVANCED_FACE('',(#163),#33,.T.);
#685=ADVANCED_FACE('',(#164),#34,.T.);
#686=ADVANCED_FACE('',(#165),#140,.F.);
#687=ADVANCED_FACE('',(#166),#141,.T.);
#688=ADVANCED_FACE('',(#167),#35,.T.);
#689=ADVANCED_FACE('',(#168),#142,.F.);
#690=ADVANCED_FACE('',(#169),#670,.F.);
#691=ADVANCED_FACE('',(#170),#671,.F.);
#692=ADVANCED_FACE('',(#171),#17,.T.);
#693=ADVANCED_FACE('',(#172),#18,.T.);
#694=ADVANCED_FACE('',(#173),#19,.T.);
#695=ADVANCED_FACE('',(#174),#20,.T.);
#696=ADVANCED_FACE('',(#175),#143,.F.);
#697=ADVANCED_FACE('',(#176),#21,.T.);
#698=ADVANCED_FACE('',(#177),#22,.T.);
#699=ADVANCED_FACE('',(#178),#23,.T.);
#700=ADVANCED_FACE('',(#179),#24,.T.);
#701=ADVANCED_FACE('',(#180),#672,.T.);
#702=ADVANCED_FACE('',(#181),#673,.T.);
#703=ADVANCED_FACE('',(#182),#144,.T.);
#704=ADVANCED_FACE('',(#183),#674,.T.);
#705=ADVANCED_FACE('',(#184),#675,.T.);
#706=ADVANCED_FACE('',(#185),#145,.T.);
#707=ADVANCED_FACE('',(#186),#146,.T.);
#708=ADVANCED_FACE('',(#187),#676,.T.);
#709=ADVANCED_FACE('',(#188),#147,.T.);
#710=ADVANCED_FACE('',(#189),#148,.T.);
#711=ADVANCED_FACE('',(#190),#149,.T.);
#712=ADVANCED_FACE('',(#191),#150,.T.);
#713=ADVANCED_FACE('',(#192),#151,.T.);
#714=ADVANCED_FACE('',(#193),#152,.T.);
#715=ADVANCED_FACE('',(#194),#36,.T.);
#716=ADVANCED_FACE('',(#195),#153,.T.);
#717=ADVANCED_FACE('',(#196),#37,.T.);
#718=ADVANCED_FACE('',(#197),#154,.T.);
#719=ADVANCED_FACE('',(#198),#25,.T.);
#720=ADVANCED_FACE('',(#199),#26,.F.);
#721=ADVANCED_FACE('',(#200),#27,.T.);
#722=ADVANCED_FACE('',(#201),#155,.F.);
#723=ADVANCED_FACE('',(#202),#28,.T.);
#724=ADVANCED_FACE('',(#203),#29,.T.);
#725=CLOSED_SHELL('',(#677,#678,#679,#680,#681,#682,#683,#684,#685,#686,
#687,#688,#689,#690,#691,#692,#693,#694,#695,#696,#697,#698,#699,#700,#701,
#702,#703,#704,#705,#706,#707,#708,#709,#710,#711,#712,#713,#714,#715,#716,
#717,#718,#719,#720,#721,#722,#723,#724));
#726=DERIVED_UNIT_ELEMENT(#728,1.);
#727=DERIVED_UNIT_ELEMENT(#1314,-3.);
#728=(
MASS_UNIT()
NAMED_UNIT(*)
SI_UNIT(.KILO.,.GRAM.)
);
#729=DERIVED_UNIT((#726,#727));
#730=MEASURE_REPRESENTATION_ITEM('density measure',
POSITIVE_RATIO_MEASURE(7850.),#729);
#731=PROPERTY_DEFINITION_REPRESENTATION(#736,#733);
#732=PROPERTY_DEFINITION_REPRESENTATION(#737,#734);
#733=REPRESENTATION('material name',(#735),#1311);
#734=REPRESENTATION('density',(#730),#1311);
#735=DESCRIPTIVE_REPRESENTATION_ITEM('Acier','Acier');
#736=PROPERTY_DEFINITION('material property','material name',#1321);
#737=PROPERTY_DEFINITION('material property','density of part',#1321);
#738=AXIS2_PLACEMENT_3D('',#1090,#839,#840);
#739=AXIS2_PLACEMENT_3D('',#1091,#841,#842);
#740=AXIS2_PLACEMENT_3D('',#1094,#843,#844);
#741=AXIS2_PLACEMENT_3D('',#1096,#845,#846);
#742=AXIS2_PLACEMENT_3D('',#1097,#847,#848);
#743=AXIS2_PLACEMENT_3D('',#1098,#849,#850);
#744=AXIS2_PLACEMENT_3D('',#1101,#851,#852);
#745=AXIS2_PLACEMENT_3D('',#1104,#855,#856);
#746=AXIS2_PLACEMENT_3D('',#1107,#857,#858);
#747=AXIS2_PLACEMENT_3D('',#1109,#859,#860);
#748=AXIS2_PLACEMENT_3D('',#1110,#861,#862);
#749=AXIS2_PLACEMENT_3D('',#1111,#863,#864);
#750=AXIS2_PLACEMENT_3D('',#1114,#865,#866);
#751=AXIS2_PLACEMENT_3D('',#1117,#869,#870);
#752=AXIS2_PLACEMENT_3D('',#1120,#873,#874);
#753=AXIS2_PLACEMENT_3D('',#1123,#875,#876);
#754=AXIS2_PLACEMENT_3D('',#1125,#877,#878);
#755=AXIS2_PLACEMENT_3D('',#1127,#879,#880);
#756=AXIS2_PLACEMENT_3D('',#1128,#881,#882);
#757=AXIS2_PLACEMENT_3D('',#1129,#883,#884);
#758=AXIS2_PLACEMENT_3D('',#1132,#887,#888);
#759=AXIS2_PLACEMENT_3D('',#1142,#889,#890);
#760=AXIS2_PLACEMENT_3D('',#1144,#891,#892);
#761=AXIS2_PLACEMENT_3D('',#1145,#893,#894);
#762=AXIS2_PLACEMENT_3D('',#1146,#895,#896);
#763=AXIS2_PLACEMENT_3D('',#1149,#897,#898);
#764=AXIS2_PLACEMENT_3D('',#1151,#899,#900);
#765=AXIS2_PLACEMENT_3D('',#1153,#901,#902);
#766=AXIS2_PLACEMENT_3D('',#1154,#903,#904);
#767=AXIS2_PLACEMENT_3D('',#1155,#905,#906);
#768=AXIS2_PLACEMENT_3D('',#1158,#909,#910);
#769=AXIS2_PLACEMENT_3D('',#1161,#911,#912);
#770=AXIS2_PLACEMENT_3D('',#1164,#915,#916);
#771=AXIS2_PLACEMENT_3D('',#1173,#917,#918);
#772=AXIS2_PLACEMENT_3D('',#1174,#919,#920);
#773=AXIS2_PLACEMENT_3D('',#1175,#921,#922);
#774=AXIS2_PLACEMENT_3D('',#1177,#923,#924);
#775=AXIS2_PLACEMENT_3D('',#1180,#926,#927);
#776=AXIS2_PLACEMENT_3D('',#1182,#929,#930);
#777=AXIS2_PLACEMENT_3D('',#1183,#931,#932);
#778=AXIS2_PLACEMENT_3D('',#1184,#933,#934);
#779=AXIS2_PLACEMENT_3D('',#1185,#935,#936);
#780=AXIS2_PLACEMENT_3D('',#1186,#937,#938);
#781=AXIS2_PLACEMENT_3D('',#1190,#941,#942);
#782=AXIS2_PLACEMENT_3D('',#1196,#945,#946);
#783=AXIS2_PLACEMENT_3D('',#1198,#948,#949);
#784=AXIS2_PLACEMENT_3D('',#1202,#952,#953);
#785=AXIS2_PLACEMENT_3D('',#1205,#956,#957);
#786=AXIS2_PLACEMENT_3D('',#1207,#959,#960);
#787=AXIS2_PLACEMENT_3D('',#1212,#963,#964);
#788=AXIS2_PLACEMENT_3D('',#1216,#966,#967);
#789=AXIS2_PLACEMENT_3D('',#1218,#969,#970);
#790=AXIS2_PLACEMENT_3D('',#1219,#971,#972);
#791=AXIS2_PLACEMENT_3D('',#1221,#974,#975);
#792=AXIS2_PLACEMENT_3D('',#1230,#980,#981);
#793=AXIS2_PLACEMENT_3D('',#1233,#982,#983);
#794=AXIS2_PLACEMENT_3D('',#1235,#984,#985);
#795=AXIS2_PLACEMENT_3D('',#1236,#986,#987);
#796=AXIS2_PLACEMENT_3D('',#1237,#988,#989);
#797=AXIS2_PLACEMENT_3D('',#1239,#990,#991);
#798=AXIS2_PLACEMENT_3D('',#1241,#992,#993);
#799=AXIS2_PLACEMENT_3D('',#1242,#994,#995);
#800=AXIS2_PLACEMENT_3D('',#1243,#996,#997);
#801=AXIS2_PLACEMENT_3D('',#1246,#1000,#1001);
#802=AXIS2_PLACEMENT_3D('',#1249,#1002,#1003);
#803=AXIS2_PLACEMENT_3D('',#1251,#1004,#1005);
#804=AXIS2_PLACEMENT_3D('',#1252,#1006,#1007);
#805=AXIS2_PLACEMENT_3D('',#1253,#1008,#1009);
#806=AXIS2_PLACEMENT_3D('',#1255,#1010,#1011);
#807=AXIS2_PLACEMENT_3D('',#1257,#1012,#1013);
#808=AXIS2_PLACEMENT_3D('',#1258,#1014,#1015);
#809=AXIS2_PLACEMENT_3D('',#1259,#1016,#1017);
#810=AXIS2_PLACEMENT_3D('',#1262,#1020,#1021);
#811=AXIS2_PLACEMENT_3D('',#1266,#1024,#1025);
#812=AXIS2_PLACEMENT_3D('',#1267,#1026,#1027);
#813=AXIS2_PLACEMENT_3D('',#1268,#1028,#1029);
#814=AXIS2_PLACEMENT_3D('',#1270,#1030,#1031);
#815=AXIS2_PLACEMENT_3D('',#1271,#1032,#1033);
#816=AXIS2_PLACEMENT_3D('',#1272,#1034,#1035);
#817=AXIS2_PLACEMENT_3D('',#1274,#1037,#1038);
#818=AXIS2_PLACEMENT_3D('',#1276,#1040,#1041);
#819=AXIS2_PLACEMENT_3D('',#1277,#1042,#1043);
#820=AXIS2_PLACEMENT_3D('',#1278,#1044,#1045);
#821=AXIS2_PLACEMENT_3D('',#1280,#1047,#1048);
#822=AXIS2_PLACEMENT_3D('',#1283,#1051,#1052);
#823=AXIS2_PLACEMENT_3D('',#1285,#1053,#1054);
#824=AXIS2_PLACEMENT_3D('',#1288,#1057,#1058);
#825=AXIS2_PLACEMENT_3D('',#1290,#1059,#1060);
#826=AXIS2_PLACEMENT_3D('',#1291,#1061,#1062);
#827=AXIS2_PLACEMENT_3D('',#1292,#1063,#1064);
#828=AXIS2_PLACEMENT_3D('',#1294,#1065,#1066);
#829=AXIS2_PLACEMENT_3D('',#1296,#1068,#1069);
#830=AXIS2_PLACEMENT_3D('',#1298,#1070,#1071);
#831=AXIS2_PLACEMENT_3D('',#1299,#1072,#1073);
#832=AXIS2_PLACEMENT_3D('',#1300,#1074,#1075);
#833=AXIS2_PLACEMENT_3D('',#1302,#1077,#1078);
#834=AXIS2_PLACEMENT_3D('',#1303,#1079,#1080);
#835=AXIS2_PLACEMENT_3D('',#1304,#1081,#1082);
#836=AXIS2_PLACEMENT_3D('',#1305,#1083,#1084);
#837=AXIS2_PLACEMENT_3D('',#1307,#1086,#1087);
#838=AXIS2_PLACEMENT_3D('',#1308,#1088,#1089);
#839=DIRECTION('axis',(0.,0.,1.));
#840=DIRECTION('refdir',(1.,0.,0.));
#841=DIRECTION('center_axis',(-0.408248290463863,-0.408248290463863,-0.816496580927726));
#842=DIRECTION('ref_axis',(-0.577350269189626,-0.577350269189626,0.577350269189626));
#843=DIRECTION('center_axis',(1.,0.,0.));
#844=DIRECTION('ref_axis',(0.,-1.,0.));
#845=DIRECTION('center_axis',(0.,0.,-1.));
#846=DIRECTION('ref_axis',(-1.,0.,0.));
#847=DIRECTION('center_axis',(0.,1.,0.));
#848=DIRECTION('ref_axis',(0.,0.,1.));
#849=DIRECTION('center_axis',(0.,0.,1.));
#850=DIRECTION('ref_axis',(-0.707106781186548,-0.707106781186548,0.));
#851=DIRECTION('center_axis',(0.,0.,-1.));
#852=DIRECTION('ref_axis',(0.,-1.,0.));
#853=DIRECTION('',(0.,0.,1.));
#854=DIRECTION('',(0.,0.,-1.));
#855=DIRECTION('center_axis',(0.408248290463863,-0.408248290463863,-0.816496580927726));
#856=DIRECTION('ref_axis',(0.577350269189626,-0.577350269189626,0.577350269189625));
#857=DIRECTION('center_axis',(0.,1.,0.));
#858=DIRECTION('ref_axis',(1.,0.,0.));
#859=DIRECTION('center_axis',(0.,0.,-1.));
#860=DIRECTION('ref_axis',(0.,-1.,0.));
#861=DIRECTION('center_axis',(-1.,0.,0.));
#862=DIRECTION('ref_axis',(0.,0.,1.));
#863=DIRECTION('center_axis',(0.,0.,-1.));
#864=DIRECTION('ref_axis',(0.707106781186548,-0.707106781186548,0.));
#865=DIRECTION('center_axis',(0.,0.,-1.));
#866=DIRECTION('ref_axis',(1.,0.,0.));
#867=DIRECTION('',(0.,0.,1.));
#868=DIRECTION('',(0.,0.,-1.));
#869=DIRECTION('center_axis',(1.,0.,0.));
#870=DIRECTION('ref_axis',(0.,-0.707106781186548,0.707106781186547));
#871=DIRECTION('',(-1.,0.,0.));
#872=DIRECTION('',(1.,0.,0.));
#873=DIRECTION('center_axis',(0.,-1.,0.));
#874=DIRECTION('ref_axis',(0.,0.,-1.));
#875=DIRECTION('center_axis',(1.,0.,0.));
#876=DIRECTION('ref_axis',(0.,0.,-1.));
#877=DIRECTION('center_axis',(0.,-1.,0.));
#878=DIRECTION('ref_axis',(-1.,0.,0.));
#879=DIRECTION('center_axis',(0.,0.,-1.));
#880=DIRECTION('ref_axis',(0.,1.,0.));
#881=DIRECTION('center_axis',(0.,1.,0.));
#882=DIRECTION('ref_axis',(-0.707106781186548,0.,0.707106781186547));
#883=DIRECTION('center_axis',(0.,1.,0.));
#884=DIRECTION('ref_axis',(-0.707106781186548,0.,0.707106781186547));
#885=DIRECTION('',(0.,-1.,0.));
#886=DIRECTION('',(0.,1.,0.));
#887=DIRECTION('center_axis',(0.,1.,0.));
#888=DIRECTION('ref_axis',(0.,0.,1.));
#889=DIRECTION('center_axis',(0.,1.,0.));
#890=DIRECTION('ref_axis',(-0.707106781186548,0.,-0.707106781186547));
#891=DIRECTION('center_axis',(5.55111512312578E-16,0.,1.));
#892=DIRECTION('ref_axis',(1.,0.,-5.55111512312578E-16));
#893=DIRECTION('center_axis',(0.,-1.,0.));
#894=DIRECTION('ref_axis',(-0.707106781186548,0.,-0.707106781186547));
#895=DIRECTION('center_axis',(0.,-1.,0.));
#896=DIRECTION('ref_axis',(0.,0.,-1.));
#897=DIRECTION('center_axis',(0.,0.,-1.));
#898=DIRECTION('ref_axis',(-1.,0.,0.));
#899=DIRECTION('center_axis',(0.,-1.,0.));
#900=DIRECTION('ref_axis',(0.,0.,1.));
#901=DIRECTION('center_axis',(-1.,0.,0.));
#902=DIRECTION('ref_axis',(0.,1.,0.));
#903=DIRECTION('center_axis',(0.,1.,0.));
#904=DIRECTION('ref_axis',(0.707106781186548,0.,0.707106781186547));
#905=DIRECTION('center_axis',(0.,1.,0.));
#906=DIRECTION('ref_axis',(0.707106781186548,0.,0.707106781186547));
#907=DIRECTION('',(0.,-1.,0.));
#908=DIRECTION('',(0.,1.,0.));
#909=DIRECTION('center_axis',(0.,0.,1.));
#910=DIRECTION('ref_axis',(-0.707106781186548,0.707106781186548,0.));
#911=DIRECTION('center_axis',(0.,0.,1.));
#912=DIRECTION('ref_axis',(0.,1.,0.));
#913=DIRECTION('',(0.,0.,1.));
#914=DIRECTION('',(0.,0.,-1.));
#915=DIRECTION('center_axis',(0.,1.,0.));
#916=DIRECTION('ref_axis',(0.,0.,1.));
#917=DIRECTION('center_axis',(0.,-1.,0.));
#918=DIRECTION('ref_axis',(0.707106781186548,0.,-0.707106781186547));
#919=DIRECTION('center_axis',(0.,1.,0.));
#920=DIRECTION('ref_axis',(0.707106781186548,0.,-0.707106781186547));
#921=DIRECTION('center_axis',(-1.,0.,0.));
#922=DIRECTION('ref_axis',(0.,-0.707106781186548,-0.707106781186547));
#923=DIRECTION('center_axis',(1.,0.,0.));
#924=DIRECTION('ref_axis',(0.,-1.,0.));
#925=DIRECTION('',(-1.,0.,0.));
#926=DIRECTION('center_axis',(-1.,0.,0.));
#927=DIRECTION('ref_axis',(0.,0.,-1.));
#928=DIRECTION('',(1.,0.,0.));
#929=DIRECTION('center_axis',(0.408248290463863,0.408248290463863,-0.816496580927726));
#930=DIRECTION('ref_axis',(-0.577350269189626,-0.577350269189626,-0.577350269189625));
#931=DIRECTION('center_axis',(0.,1.,0.));
#932=DIRECTION('ref_axis',(-0.707106781186548,0.,-0.707106781186547));
#933=DIRECTION('center_axis',(-0.408248290463863,0.408248290463863,-0.816496580927726));
#934=DIRECTION('ref_axis',(0.577350269189626,-0.577350269189626,-0.577350269189625));
#935=DIRECTION('center_axis',(0.,1.,0.));
#936=DIRECTION('ref_axis',(0.707106781186548,0.,-0.707106781186547));
#937=DIRECTION('center_axis',(0.,1.,0.));
#938=DIRECTION('ref_axis',(0.,0.,1.));
#939=DIRECTION('',(-1.,0.,0.));
#940=DIRECTION('',(0.,0.,-1.));
#941=DIRECTION('center_axis',(0.,1.,0.));
#942=DIRECTION('ref_axis',(0.,0.,1.));
#943=DIRECTION('',(-1.,0.,0.));
#944=DIRECTION('',(0.,0.,-1.));
#945=DIRECTION('center_axis',(0.,-1.,0.));
#946=DIRECTION('ref_axis',(0.707106781186548,0.,0.707106781186547));
#947=DIRECTION('',(-1.,0.,0.));
#948=DIRECTION('center_axis',(0.,1.,0.));
#949=DIRECTION('ref_axis',(0.,0.,1.));
#950=DIRECTION('',(0.,0.,-1.));
#951=DIRECTION('',(-1.,0.,0.));
#952=DIRECTION('center_axis',(1.,0.,0.));
#953=DIRECTION('ref_axis',(0.,0.,-1.));
#954=DIRECTION('',(0.,0.,-1.));
#955=DIRECTION('',(0.,-1.,0.));
#956=DIRECTION('center_axis',(0.,1.,0.));
#957=DIRECTION('ref_axis',(-0.707106781186548,0.,-0.707106781186547));
#958=DIRECTION('',(0.,1.,0.));
#959=DIRECTION('center_axis',(0.,0.,1.));
#960=DIRECTION('ref_axis',(1.,0.,0.));
#961=DIRECTION('',(0.,-1.,0.));
#962=DIRECTION('',(0.,-1.,0.));
#963=DIRECTION('center_axis',(0.,0.,-1.));
#964=DIRECTION('ref_axis',(0.707106781186548,0.707106781186547,0.));
#965=DIRECTION('',(1.,0.,0.));
#966=DIRECTION('center_axis',(0.,0.,-1.));
#967=DIRECTION('ref_axis',(-0.707106781186548,0.707106781186547,0.));
#968=DIRECTION('',(0.,1.,0.));
#969=DIRECTION('center_axis',(0.,1.,0.));
#970=DIRECTION('ref_axis',(0.,0.,1.));
#971=DIRECTION('center_axis',(0.,0.,-1.));
#972=DIRECTION('ref_axis',(-1.,0.,0.));
#973=DIRECTION('',(-1.,0.,0.));
#974=DIRECTION('center_axis',(-1.,0.,0.));
#975=DIRECTION('ref_axis',(0.,0.,1.));
#976=DIRECTION('',(0.,0.,1.));
#977=DIRECTION('',(0.,1.,0.));
#978=DIRECTION('',(0.,0.,-1.));
#979=DIRECTION('',(0.,-1.,0.));
#980=DIRECTION('center_axis',(-0.408248290463863,0.408248290463863,-0.816496580927726));
#981=DIRECTION('ref_axis',(0.577350269189626,-0.577350269189626,-0.577350269189625));
#982=DIRECTION('center_axis',(0.,-1.,0.));
#983=DIRECTION('ref_axis',(1.,0.,0.));
#984=DIRECTION('center_axis',(0.,0.,-1.));
#985=DIRECTION('ref_axis',(0.,-1.,0.));
#986=DIRECTION('center_axis',(1.,0.,0.));
#987=DIRECTION('ref_axis',(0.,0.,-1.));
#988=DIRECTION('center_axis',(-0.816496580927727,0.408248290463862,0.408248290463863));
#989=DIRECTION('ref_axis',(-0.577350269189625,-0.577350269189627,-0.577350269189626));
#990=DIRECTION('center_axis',(0.,-1.,0.));
#991=DIRECTION('ref_axis',(0.,0.,-1.));
#992=DIRECTION('center_axis',(-1.,0.,0.));
#993=DIRECTION('ref_axis',(0.,-1.,0.));
#994=DIRECTION('center_axis',(0.,0.,-1.));
#995=DIRECTION('ref_axis',(-1.,0.,0.));
#996=DIRECTION('center_axis',(1.,0.,0.));
#997=DIRECTION('ref_axis',(0.,-0.707106781186547,-0.707106781186548));
#998=DIRECTION('',(-1.,0.,0.));
#999=DIRECTION('',(1.,0.,0.));
#1000=DIRECTION('center_axis',(-0.816496580927727,-0.408248290463862,0.408248290463862));
#1001=DIRECTION('ref_axis',(0.577350269189625,-0.577350269189627,0.577350269189626));
#1002=DIRECTION('center_axis',(0.,-1.,0.));
#1003=DIRECTION('ref_axis',(0.,0.,1.));
#1004=DIRECTION('center_axis',(1.,0.,0.));
#1005=DIRECTION('ref_axis',(0.,-1.,0.));
#1006=DIRECTION('center_axis',(0.,0.,1.));
#1007=DIRECTION('ref_axis',(1.,0.,0.));
#1008=DIRECTION('center_axis',(-0.408248290463863,-0.408248290463863,-0.816496580927726));
#1009=DIRECTION('ref_axis',(-0.577350269189626,-0.577350269189626,0.577350269189625));
#1010=DIRECTION('center_axis',(0.,0.,1.));
#1011=DIRECTION('ref_axis',(0.,-1.,0.));
#1012=DIRECTION('center_axis',(-1.,0.,0.));
#1013=DIRECTION('ref_axis',(0.,0.,1.));
#1014=DIRECTION('center_axis',(0.,-1.,0.));
#1015=DIRECTION('ref_axis',(-1.,0.,0.));
#1016=DIRECTION('center_axis',(-1.,0.,0.));
#1017=DIRECTION('ref_axis',(0.,-0.707106781186547,0.707106781186548));
#1018=DIRECTION('',(1.,0.,0.));
#1019=DIRECTION('',(-1.,0.,0.));
#1020=DIRECTION('center_axis',(0.,1.,0.));
#1021=DIRECTION('ref_axis',(0.707106781186548,0.,0.707106781186548));
#1022=DIRECTION('',(0.,-1.,0.));
#1023=DIRECTION('',(0.,1.,0.));
#1024=DIRECTION('center_axis',(0.707106781186548,-0.707106781186548,-1.57009245868378E-15));
#1025=DIRECTION('ref_axis',(-0.707106781186548,-0.707106781186548,1.57009245868378E-15));
#1026=DIRECTION('center_axis',(-0.816496580927726,-0.408248290463863,-0.408248290463863));
#1027=DIRECTION('ref_axis',(-0.577350269189626,0.577350269189626,0.577350269189625));
#1028=DIRECTION('center_axis',(0.,0.,1.));
#1029=DIRECTION('ref_axis',(-1.,0.,0.));
#1030=DIRECTION('center_axis',(0.,1.,0.));
#1031=DIRECTION('ref_axis',(0.,0.,1.));
#1032=DIRECTION('center_axis',(-1.,0.,0.));
#1033=DIRECTION('ref_axis',(0.,1.,0.));
#1034=DIRECTION('center_axis',(0.,1.,0.));
#1035=DIRECTION('ref_axis',(-0.707106781186548,0.,0.707106781186548));
#1036=DIRECTION('',(0.,1.,0.));
#1037=DIRECTION('center_axis',(1.,0.,0.));
#1038=DIRECTION('ref_axis',(0.,0.707106781186548,0.707106781186548));
#1039=DIRECTION('',(1.,0.,0.));
#1040=DIRECTION('center_axis',(0.,0.,1.));
#1041=DIRECTION('ref_axis',(-0.707106781186548,0.707106781186548,0.));
#1042=DIRECTION('center_axis',(0.,-0.707106781186547,0.707106781186548));
#1043=DIRECTION('ref_axis',(0.,0.707106781186548,0.707106781186547));
#1044=DIRECTION('center_axis',(0.,0.,-1.));
#1045=DIRECTION('ref_axis',(-0.707106781186548,-0.707106781186547,0.));
#1046=DIRECTION('',(0.,0.,1.));
#1047=DIRECTION('center_axis',(0.,0.,1.));
#1048=DIRECTION('ref_axis',(0.707106781186548,-0.707106781186547,0.));
#1049=DIRECTION('',(0.,0.,-1.));
#1050=DIRECTION('',(0.,0.,1.));
#1051=DIRECTION('center_axis',(0.,1.,0.));
#1052=DIRECTION('ref_axis',(0.707106781186548,0.,-0.707106781186548));
#1053=DIRECTION('center_axis',(-4.44089209850063E-15,1.,0.));
#1054=DIRECTION('ref_axis',(0.,0.,1.));
#1055=DIRECTION('',(0.,-1.,0.));
#1056=DIRECTION('',(0.,1.,0.));
#1057=DIRECTION('center_axis',(0.,0.,1.));
#1058=DIRECTION('ref_axis',(1.,0.,0.));
#1059=DIRECTION('center_axis',(1.,0.,0.));
#1060=DIRECTION('ref_axis',(0.,0.,-1.));
#1061=DIRECTION('center_axis',(0.,0.,1.));
#1062=DIRECTION('ref_axis',(0.707106781186548,0.707106781186547,0.));
#1063=DIRECTION('center_axis',(-1.,0.,0.));
#1064=DIRECTION('ref_axis',(0.,0.707106781186546,-0.707106781186549));
#1065=DIRECTION('center_axis',(1.,-2.22044604925031E-15,0.));
#1066=DIRECTION('ref_axis',(0.,0.,-1.));
#1067=DIRECTION('',(-1.,0.,0.));
#1068=DIRECTION('center_axis',(0.,0.,1.));
#1069=DIRECTION('ref_axis',(1.,0.,0.));
#1070=DIRECTION('center_axis',(4.44089209850063E-15,1.,0.));
#1071=DIRECTION('ref_axis',(0.,0.,-1.));
#1072=DIRECTION('center_axis',(0.,0.,1.));
#1073=DIRECTION('ref_axis',(-0.707106781186548,0.707106781186547,0.));
#1074=DIRECTION('center_axis',(0.,1.,0.));
#1075=DIRECTION('ref_axis',(-0.707106781186548,0.,-0.707106781186548));
#1076=DIRECTION('',(0.,-1.,0.));
#1077=DIRECTION('center_axis',(0.,0.,-1.));
#1078=DIRECTION('ref_axis',(-1.,0.,0.));
#1079=DIRECTION('center_axis',(0.,1.,0.));
#1080=DIRECTION('ref_axis',(1.,0.,0.));
#1081=DIRECTION('center_axis',(0.,0.,1.));
#1082=DIRECTION('ref_axis',(1.,0.,0.));
#1083=DIRECTION('center_axis',(0.,1.,0.));
#1084=DIRECTION('ref_axis',(0.707106781186548,0.,-0.707106781186547));
#1085=DIRECTION('',(0.,1.,0.));
#1086=DIRECTION('center_axis',(1.,0.,0.));
#1087=DIRECTION('ref_axis',(0.,0.,-1.));
#1088=DIRECTION('center_axis',(-1.,0.,0.));
#1089=DIRECTION('ref_axis',(0.,0.,1.));
#1090=CARTESIAN_POINT('',(0.,0.,0.));
#1091=CARTESIAN_POINT('Origin',(-12.1,3.,4.));
#1092=CARTESIAN_POINT('',(-12.1,2.,4.));
#1093=CARTESIAN_POINT('',(-12.1,3.,5.));
#1094=CARTESIAN_POINT('Origin',(-12.1,3.,4.));
#1095=CARTESIAN_POINT('',(-13.1,3.,4.));
#1096=CARTESIAN_POINT('Origin',(-12.1,3.,4.));
#1097=CARTESIAN_POINT('Origin',(-12.1,3.,4.));
#1098=CARTESIAN_POINT('Origin',(-12.1,3.,2.5));
#1099=CARTESIAN_POINT('',(-12.1,2.,-4.));
#1100=CARTESIAN_POINT('',(-13.1,3.,-4.));
#1101=CARTESIAN_POINT('Origin',(-12.1,3.,-4.));
#1102=CARTESIAN_POINT('',(-13.1,3.,2.5));
#1103=CARTESIAN_POINT('',(-12.1,2.,2.5));
#1104=CARTESIAN_POINT('Origin',(12.1,3.,4.));
#1105=CARTESIAN_POINT('',(13.1,3.,4.));
#1106=CARTESIAN_POINT('',(12.1,3.,5.));
#1107=CARTESIAN_POINT('Origin',(12.1,3.,4.));
#1108=CARTESIAN_POINT('',(12.1,2.,4.));
#1109=CARTESIAN_POINT('Origin',(12.1,3.,4.));
#1110=CARTESIAN_POINT('Origin',(12.1,3.,4.));
#1111=CARTESIAN_POINT('Origin',(12.1,3.,-2.5));
#1112=CARTESIAN_POINT('',(13.1,3.,-4.));
#1113=CARTESIAN_POINT('',(12.1,2.,-4.));
#1114=CARTESIAN_POINT('Origin',(12.1,3.,-4.));
#1115=CARTESIAN_POINT('',(12.1,2.,-2.5));
#1116=CARTESIAN_POINT('',(13.1,3.,-2.5));
#1117=CARTESIAN_POINT('Origin',(6.55,3.,4.));
#1118=CARTESIAN_POINT('',(6.55,2.,4.));
#1119=CARTESIAN_POINT('',(6.55,3.,5.));
#1120=CARTESIAN_POINT('Origin',(-12.1,19.,4.));
#1121=CARTESIAN_POINT('',(-12.1,19.,5.));
#1122=CARTESIAN_POINT('',(-12.1,20.,6.));
#1123=CARTESIAN_POINT('Origin',(-12.1,19.,6.));
#1124=CARTESIAN_POINT('',(-13.1,19.,4.));
#1125=CARTESIAN_POINT('Origin',(-12.1,19.,4.));
#1126=CARTESIAN_POINT('',(-14.1,20.,4.));
#1127=CARTESIAN_POINT('Origin',(-14.1,19.,4.));
#1128=CARTESIAN_POINT('Origin',(-12.1,20.,4.));
#1129=CARTESIAN_POINT('Origin',(-12.1,0.,4.));
#1130=CARTESIAN_POINT('',(-12.1,0.,5.));
#1131=CARTESIAN_POINT('',(-13.1,0.,4.));
#1132=CARTESIAN_POINT('Origin',(-12.1,19.,-4.));
#1133=CARTESIAN_POINT('',(-12.1,19.,-5.));
#1134=CARTESIAN_POINT('',(-13.8320508075689,20.,-5.));
#1135=CARTESIAN_POINT('Ctrl Pts',(-13.8320508075689,20.,-5.));
#1136=CARTESIAN_POINT('Ctrl Pts',(-13.5771733856933,20.,-5.));
#1137=CARTESIAN_POINT('Ctrl Pts',(-13.2847304731509,19.9104280001022,-5.));
#1138=CARTESIAN_POINT('Ctrl Pts',(-12.715223272204,19.6039127161887,-5.));
#1139=CARTESIAN_POINT('Ctrl Pts',(-12.377098222081,19.277098222081,-5.));
#1140=CARTESIAN_POINT('Ctrl Pts',(-12.1,19.,-5.));
#1141=CARTESIAN_POINT('',(-14.1,20.,-4.));
#1142=CARTESIAN_POINT('Origin',(-12.1,20.,-4.));
#1143=CARTESIAN_POINT('',(-13.1,19.,-4.));
#1144=CARTESIAN_POINT('Origin',(-14.1,19.,-4.));
#1145=CARTESIAN_POINT('Origin',(-12.1,19.,-4.));
#1146=CARTESIAN_POINT('Origin',(12.1,19.,4.));
#1147=CARTESIAN_POINT('',(13.1,19.,4.));
#1148=CARTESIAN_POINT('',(14.1,20.,4.));
#1149=CARTESIAN_POINT('Origin',(14.1,19.,4.));
#1150=CARTESIAN_POINT('',(12.1,19.,5.));
#1151=CARTESIAN_POINT('Origin',(12.1,19.,4.));
#1152=CARTESIAN_POINT('',(12.1,20.,6.));
#1153=CARTESIAN_POINT('Origin',(12.1,19.,6.));
#1154=CARTESIAN_POINT('Origin',(12.1,20.,4.));
#1155=CARTESIAN_POINT('Origin',(12.1,0.,4.));
#1156=CARTESIAN_POINT('',(13.1,0.,4.));
#1157=CARTESIAN_POINT('',(12.1,0.,5.));
#1158=CARTESIAN_POINT('Origin',(14.1,19.,-2.));
#1159=CARTESIAN_POINT('',(14.1,20.,-4.));
#1160=CARTESIAN_POINT('',(13.1,19.,-4.));
#1161=CARTESIAN_POINT('Origin',(14.1,19.,-4.));
#1162=CARTESIAN_POINT('',(13.1,19.,-2.));
#1163=CARTESIAN_POINT('',(14.1,20.,-2.));
#1164=CARTESIAN_POINT('Origin',(12.1,19.,-4.));
#1165=CARTESIAN_POINT('',(13.8320508075689,20.,-5.));
#1166=CARTESIAN_POINT('',(12.1,19.,-5.));
#1167=CARTESIAN_POINT('Ctrl Pts',(12.1,19.,-5.));
#1168=CARTESIAN_POINT('Ctrl Pts',(12.377098222081,19.277098222081,-5.));
#1169=CARTESIAN_POINT('Ctrl Pts',(12.715223272204,19.6039127161887,-5.));
#1170=CARTESIAN_POINT('Ctrl Pts',(13.2847304731509,19.9104280001022,-5.));
#1171=CARTESIAN_POINT('Ctrl Pts',(13.5771733856933,20.,-5.));
#1172=CARTESIAN_POINT('Ctrl Pts',(13.8320508075689,20.,-5.));
#1173=CARTESIAN_POINT('Origin',(12.1,19.,-4.));
#1174=CARTESIAN_POINT('Origin',(12.1,20.,-4.));
#1175=CARTESIAN_POINT('Origin',(-7.55,3.,-4.));
#1176=CARTESIAN_POINT('',(12.1,3.,-5.));
#1177=CARTESIAN_POINT('Origin',(12.1,3.,-4.));
#1178=CARTESIAN_POINT('',(-12.1,3.,-5.));
#1179=CARTESIAN_POINT('',(-7.55,3.,-5.));
#1180=CARTESIAN_POINT('Origin',(-12.1,3.,-4.));
#1181=CARTESIAN_POINT('',(-7.55,2.,-4.));
#1182=CARTESIAN_POINT('Origin',(-12.1,3.,-4.));
#1183=CARTESIAN_POINT('Origin',(-12.1,3.,-4.));
#1184=CARTESIAN_POINT('Origin',(12.1,3.,-4.));
#1185=CARTESIAN_POINT('Origin',(12.1,3.,-4.));
#1186=CARTESIAN_POINT('Origin',(0.,20.,1.));
#1187=CARTESIAN_POINT('',(-14.1,20.,-5.));
#1188=CARTESIAN_POINT('',(-15.1,20.,-5.));
#1189=CARTESIAN_POINT('',(-14.1,20.,-3.));
#1190=CARTESIAN_POINT('Origin',(0.,20.,1.));
#1191=CARTESIAN_POINT('',(15.1,20.,6.));
#1192=CARTESIAN_POINT('',(-7.55,20.,6.));
#1193=CARTESIAN_POINT('',(15.1,20.,-6.));
#1194=CARTESIAN_POINT('',(15.1,20.,-7.));
#1195=CARTESIAN_POINT('',(14.1,20.,-5.));
#1196=CARTESIAN_POINT('Origin',(14.1,20.,-6.));
#1197=CARTESIAN_POINT('',(13.1,20.,-5.));
#1198=CARTESIAN_POINT('Origin',(0.,20.,1.));
#1199=CARTESIAN_POINT('',(-14.1,20.,6.));
#1200=CARTESIAN_POINT('',(-14.1,20.,-3.));
#1201=CARTESIAN_POINT('',(-7.55,20.,6.));
#1202=CARTESIAN_POINT('Origin',(-13.1,0.,5.));
#1203=CARTESIAN_POINT('',(-13.1,19.,3.));
#1204=CARTESIAN_POINT('',(-13.1,0.,-4.));
#1205=CARTESIAN_POINT('Origin',(-12.1,0.,-4.));
#1206=CARTESIAN_POINT('',(-12.1,0.,-5.));
#1207=CARTESIAN_POINT('Origin',(-15.1,0.,-5.));
#1208=CARTESIAN_POINT('',(12.1,0.,-5.));
#1209=CARTESIAN_POINT('',(14.1,23.,-5.));
#1210=CARTESIAN_POINT('',(14.1,0.,-5.));
#1211=CARTESIAN_POINT('',(10.1,27.,-5.));
#1212=CARTESIAN_POINT('Origin',(10.1,23.,-5.));
#1213=CARTESIAN_POINT('',(-10.1,27.,-5.));
#1214=CARTESIAN_POINT('',(-7.55,27.,-5.));
#1215=CARTESIAN_POINT('',(-14.1,23.,-5.));
#1216=CARTESIAN_POINT('Origin',(-10.1,23.,-5.));
#1217=CARTESIAN_POINT('',(-14.1,0.,-5.));
#1218=CARTESIAN_POINT('Origin',(0.,2.,0.));
#1219=CARTESIAN_POINT('Origin',(13.1,0.,5.));
#1220=CARTESIAN_POINT('',(6.55,19.,5.));
#1221=CARTESIAN_POINT('Origin',(-15.1,0.,-7.));
#1222=CARTESIAN_POINT('',(-15.1,19.,-6.));
#1223=CARTESIAN_POINT('',(-15.1,19.,6.));
#1224=CARTESIAN_POINT('',(-15.1,19.,-3.));
#1225=CARTESIAN_POINT('',(-15.1,1.,-6.));
#1226=CARTESIAN_POINT('',(-15.1,0.,-6.));
#1227=CARTESIAN_POINT('',(-15.1,1.,6.));
#1228=CARTESIAN_POINT('',(-15.1,1.,-3.5));
#1229=CARTESIAN_POINT('',(-15.1,0.,6.));
#1230=CARTESIAN_POINT('Origin',(14.1,1.,-6.));
#1231=CARTESIAN_POINT('',(15.1,1.,-6.));
#1232=CARTESIAN_POINT('',(14.1,1.,-7.));
#1233=CARTESIAN_POINT('Origin',(14.1,1.,-6.));
#1234=CARTESIAN_POINT('',(14.1,0.,-6.));
#1235=CARTESIAN_POINT('Origin',(14.1,1.,-6.));
#1236=CARTESIAN_POINT('Origin',(14.1,1.,-6.));
#1237=CARTESIAN_POINT('Origin',(-14.1,1.,-6.));
#1238=CARTESIAN_POINT('',(-14.1,1.,-7.));
#1239=CARTESIAN_POINT('Origin',(-14.1,1.,-6.));
#1240=CARTESIAN_POINT('',(-14.1,0.,-6.));
#1241=CARTESIAN_POINT('Origin',(-14.1,1.,-6.));
#1242=CARTESIAN_POINT('Origin',(-14.1,1.,-6.));
#1243=CARTESIAN_POINT('Origin',(7.55,1.,-6.));
#1244=CARTESIAN_POINT('',(7.55,0.,-6.));
#1245=CARTESIAN_POINT('',(7.55,1.,-7.));
#1246=CARTESIAN_POINT('Origin',(14.1,1.,6.));
#1247=CARTESIAN_POINT('',(14.1,1.,7.));
#1248=CARTESIAN_POINT('',(15.1,1.,6.));
#1249=CARTESIAN_POINT('Origin',(14.1,1.,6.));
#1250=CARTESIAN_POINT('',(14.1,0.,6.));
#1251=CARTESIAN_POINT('Origin',(14.1,1.,6.));
#1252=CARTESIAN_POINT('Origin',(14.1,1.,6.));
#1253=CARTESIAN_POINT('Origin',(-14.1,1.,6.));
#1254=CARTESIAN_POINT('',(-14.1,0.,6.));
#1255=CARTESIAN_POINT('Origin',(-14.1,1.,6.));
#1256=CARTESIAN_POINT('',(-14.1,1.,7.));
#1257=CARTESIAN_POINT('Origin',(-14.1,1.,6.));
#1258=CARTESIAN_POINT('Origin',(-14.1,1.,6.));
#1259=CARTESIAN_POINT('Origin',(-7.55,1.,6.));
#1260=CARTESIAN_POINT('',(-7.55,0.,6.));
#1261=CARTESIAN_POINT('',(-7.55,1.,7.));
#1262=CARTESIAN_POINT('Origin',(14.1,0.,6.));
#1263=CARTESIAN_POINT('',(14.1,19.,7.));
#1264=CARTESIAN_POINT('',(14.1,0.,7.));
#1265=CARTESIAN_POINT('',(15.1,0.,6.));
#1266=CARTESIAN_POINT('Origin',(14.1,19.,6.));
#1267=CARTESIAN_POINT('Origin',(-14.1,19.,6.));
#1268=CARTESIAN_POINT('Origin',(-14.1,19.,6.));
#1269=CARTESIAN_POINT('',(-14.1,19.,7.));
#1270=CARTESIAN_POINT('Origin',(-14.1,19.,6.));
#1271=CARTESIAN_POINT('Origin',(-14.1,19.,6.));
#1272=CARTESIAN_POINT('Origin',(-14.1,0.,6.));
#1273=CARTESIAN_POINT('',(-14.1,0.,7.));
#1274=CARTESIAN_POINT('Origin',(-7.55,19.,6.));
#1275=CARTESIAN_POINT('',(-7.55,19.,7.));
#1276=CARTESIAN_POINT('Origin',(-14.1,19.,-3.));
#1277=CARTESIAN_POINT('Origin',(-14.1,19.,-6.));
#1278=CARTESIAN_POINT('Origin',(-14.1,1.,-3.5));
#1279=CARTESIAN_POINT('',(-14.1,0.,-3.5));
#1280=CARTESIAN_POINT('Origin',(14.1,1.,3.5));
#1281=CARTESIAN_POINT('',(14.1,0.,3.5));
#1282=CARTESIAN_POINT('',(15.1,1.,3.5));
#1283=CARTESIAN_POINT('Origin',(14.1,0.,-6.));
#1284=CARTESIAN_POINT('',(14.1,23.,-7.));
#1285=CARTESIAN_POINT('Origin',(14.1,23.,-6.));
#1286=CARTESIAN_POINT('',(15.1,0.,-6.));
#1287=CARTESIAN_POINT('',(14.1,0.,-7.));
#1288=CARTESIAN_POINT('Origin',(10.1,23.,-6.));
#1289=CARTESIAN_POINT('',(10.1,27.,-7.));
#1290=CARTESIAN_POINT('Origin',(10.1,27.,-6.));
#1291=CARTESIAN_POINT('Origin',(10.1,23.,-7.));
#1292=CARTESIAN_POINT('Origin',(7.55,27.,-6.));
#1293=CARTESIAN_POINT('',(-10.1,27.,-7.));
#1294=CARTESIAN_POINT('Origin',(-10.1,27.,-6.));
#1295=CARTESIAN_POINT('',(7.55,27.,-7.));
#1296=CARTESIAN_POINT('Origin',(-10.1,23.,-6.));
#1297=CARTESIAN_POINT('',(-14.1,23.,-7.));
#1298=CARTESIAN_POINT('Origin',(-14.1,23.,-6.));
#1299=CARTESIAN_POINT('Origin',(-10.1,23.,-7.));
#1300=CARTESIAN_POINT('Origin',(-14.1,0.,-6.));
#1301=CARTESIAN_POINT('',(-14.1,0.,-7.));
#1302=CARTESIAN_POINT('Origin',(15.1,0.,-7.));
#1303=CARTESIAN_POINT('Origin',(0.,0.,0.));
#1304=CARTESIAN_POINT('Origin',(-15.1,0.,7.));
#1305=CARTESIAN_POINT('Origin',(12.1,0.,-4.));
#1306=CARTESIAN_POINT('',(13.1,0.,-4.));
#1307=CARTESIAN_POINT('Origin',(15.1,0.,7.));
#1308=CARTESIAN_POINT('Origin',(13.1,0.,-5.));
#1309=UNCERTAINTY_MEASURE_WITH_UNIT(LENGTH_MEASURE(0.01),#1313,
'DISTANCE_ACCURACY_VALUE',
'Maximum model space distance between geometric entities at asserted c
onnectivities');
#1310=UNCERTAINTY_MEASURE_WITH_UNIT(LENGTH_MEASURE(0.01),#1313,
'DISTANCE_ACCURACY_VALUE',
'Maximum model space distance between geometric entities at asserted c
onnectivities');
#1311=(
GEOMETRIC_REPRESENTATION_CONTEXT(3)
GLOBAL_UNCERTAINTY_ASSIGNED_CONTEXT((#1309))
GLOBAL_UNIT_ASSIGNED_CONTEXT((#1313,#1315,#1316))
REPRESENTATION_CONTEXT('','3D')
);
#1312=(
GEOMETRIC_REPRESENTATION_CONTEXT(3)
GLOBAL_UNCERTAINTY_ASSIGNED_CONTEXT((#1310))
GLOBAL_UNIT_ASSIGNED_CONTEXT((#1313,#1315,#1316))
REPRESENTATION_CONTEXT('','3D')
);
#1313=(
LENGTH_UNIT()
NAMED_UNIT(*)
SI_UNIT(.MILLI.,.METRE.)
);
#1314=(
LENGTH_UNIT()
NAMED_UNIT(*)
SI_UNIT($,.METRE.)
);
#1315=(
NAMED_UNIT(*)
PLANE_ANGLE_UNIT()
SI_UNIT($,.RADIAN.)
);
#1316=(
NAMED_UNIT(*)
SI_UNIT($,.STERADIAN.)
SOLID_ANGLE_UNIT()
);
#1317=SHAPE_DEFINITION_REPRESENTATION(#1318,#1319);
#1318=PRODUCT_DEFINITION_SHAPE('',$,#1321);
#1319=SHAPE_REPRESENTATION('',(#738),#1311);
#1320=PRODUCT_DEFINITION_CONTEXT('part definition',#1325,'design');
#1321=PRODUCT_DEFINITION('casier_micro-sd','casier_micro-sd v1',#1322,#1320);
#1322=PRODUCT_DEFINITION_FORMATION('',$,#1327);
#1323=PRODUCT_RELATED_PRODUCT_CATEGORY('casier_micro-sd v1',
'casier_micro-sd v1',(#1327));
#1324=APPLICATION_PROTOCOL_DEFINITION('international standard',
'automotive_design',2009,#1325);
#1325=APPLICATION_CONTEXT(
'Core Data for Automotive Mechanical Design Process');
#1326=PRODUCT_CONTEXT('part definition',#1325,'mechanical');
#1327=PRODUCT('casier_micro-sd','casier_micro-sd v1',$,(#1326));
#1328=PRESENTATION_STYLE_ASSIGNMENT((#1329));
#1329=SURFACE_STYLE_USAGE(.BOTH.,#1330);
#1330=SURFACE_SIDE_STYLE('',(#1331));
#1331=SURFACE_STYLE_FILL_AREA(#1332);
#1332=FILL_AREA_STYLE('Acier - Satin\X\E9',(#1333));
#1333=FILL_AREA_STYLE_COLOUR('Acier - Satin\X\E9',#1334);
#1334=COLOUR_RGB('Acier - Satin\X\E9',0.627450980392157,0.627450980392157,
0.627450980392157);
ENDSEC;
END-ISO-10303-21;
