ISO-10303-21;
HEADER;
/* Generated by software containing ST-Developer
 * from STEP Tools, Inc. (www.steptools.com) 
 */

FILE_DESCRIPTION(
/* description */ (''),
/* implementation_level */ '2;1');

FILE_NAME(
/* name */ 'etau_molette.step',
/* time_stamp */ '2025-10-28T18:36:58+01:00',
/* author */ (''),
/* organization */ (''),
/* preprocessor_version */ 'ST-DEVELOPER v20.1',
/* originating_system */ 'Autodesk Translation Framework v14.17.0.0',
/* authorisation */ '');

FILE_SCHEMA (('AUTOMOTIVE_DESIGN { 1 0 10303 214 3 1 1 }'));
ENDSEC;

DATA;
#10=MECHANICAL_DESIGN_GEOMETRIC_PRESENTATION_REPRESENTATION('',(#13),#1135);
#11=SHAPE_REPRESENTATION_RELATIONSHIP('SRR','None',#1142,#12);
#12=ADVANCED_BREP_SHAPE_REPRESENTATION('',(#14),#1134);
#13=STYLED_ITEM('',(#1151),#14);
#14=MANIFOLD_SOLID_BREP('Corps8',#707);
#15=CYLINDRICAL_SURFACE('',#729,9.95);
#16=CYLINDRICAL_SURFACE('',#733,2.65);
#17=FACE_BOUND('',#68,.T.);
#18=FACE_BOUND('',#71,.T.);
#19=FACE_BOUND('',#98,.T.);
#20=FACE_BOUND('',#100,.T.);
#21=CIRCLE('',#728,2.65);
#22=CIRCLE('',#730,9.95);
#23=CIRCLE('',#731,9.95);
#24=CIRCLE('',#734,2.65);
#25=FACE_OUTER_BOUND('',#61,.T.);
#26=FACE_OUTER_BOUND('',#62,.T.);
#27=FACE_OUTER_BOUND('',#63,.T.);
#28=FACE_OUTER_BOUND('',#64,.T.);
#29=FACE_OUTER_BOUND('',#65,.T.);
#30=FACE_OUTER_BOUND('',#66,.T.);
#31=FACE_OUTER_BOUND('',#67,.T.);
#32=FACE_OUTER_BOUND('',#69,.T.);
#33=FACE_OUTER_BOUND('',#70,.T.);
#34=FACE_OUTER_BOUND('',#72,.T.);
#35=FACE_OUTER_BOUND('',#73,.T.);
#36=FACE_OUTER_BOUND('',#74,.T.);
#37=FACE_OUTER_BOUND('',#75,.T.);
#38=FACE_OUTER_BOUND('',#76,.T.);
#39=FACE_OUTER_BOUND('',#77,.T.);
#40=FACE_OUTER_BOUND('',#78,.T.);
#41=FACE_OUTER_BOUND('',#79,.T.);
#42=FACE_OUTER_BOUND('',#80,.T.);
#43=FACE_OUTER_BOUND('',#81,.T.);
#44=FACE_OUTER_BOUND('',#82,.T.);
#45=FACE_OUTER_BOUND('',#83,.T.);
#46=FACE_OUTER_BOUND('',#84,.T.);
#47=FACE_OUTER_BOUND('',#85,.T.);
#48=FACE_OUTER_BOUND('',#86,.T.);
#49=FACE_OUTER_BOUND('',#87,.T.);
#50=FACE_OUTER_BOUND('',#88,.T.);
#51=FACE_OUTER_BOUND('',#89,.T.);
#52=FACE_OUTER_BOUND('',#90,.T.);
#53=FACE_OUTER_BOUND('',#91,.T.);
#54=FACE_OUTER_BOUND('',#92,.T.);
#55=FACE_OUTER_BOUND('',#93,.T.);
#56=FACE_OUTER_BOUND('',#94,.T.);
#57=FACE_OUTER_BOUND('',#95,.T.);
#58=FACE_OUTER_BOUND('',#96,.T.);
#59=FACE_OUTER_BOUND('',#97,.T.);
#60=FACE_OUTER_BOUND('',#99,.T.);
#61=EDGE_LOOP('',(#445,#446,#447,#448));
#62=EDGE_LOOP('',(#449,#450,#451,#452));
#63=EDGE_LOOP('',(#453,#454,#455,#456));
#64=EDGE_LOOP('',(#457,#458,#459,#460));
#65=EDGE_LOOP('',(#461,#462,#463,#464));
#66=EDGE_LOOP('',(#465,#466,#467,#468));
#67=EDGE_LOOP('',(#469,#470,#471,#472,#473,#474));
#68=EDGE_LOOP('',(#475));
#69=EDGE_LOOP('',(#476,#477,#478,#479));
#70=EDGE_LOOP('',(#480));
#71=EDGE_LOOP('',(#481,#482,#483,#484,#485,#486));
#72=EDGE_LOOP('',(#487,#488,#489,#490));
#73=EDGE_LOOP('',(#491,#492,#493,#494));
#74=EDGE_LOOP('',(#495,#496,#497,#498));
#75=EDGE_LOOP('',(#499,#500,#501,#502));
#76=EDGE_LOOP('',(#503,#504,#505,#506));
#77=EDGE_LOOP('',(#507,#508,#509,#510));
#78=EDGE_LOOP('',(#511,#512,#513,#514));
#79=EDGE_LOOP('',(#515,#516,#517,#518));
#80=EDGE_LOOP('',(#519,#520,#521,#522));
#81=EDGE_LOOP('',(#523,#524,#525,#526));
#82=EDGE_LOOP('',(#527,#528,#529,#530));
#83=EDGE_LOOP('',(#531,#532,#533,#534));
#84=EDGE_LOOP('',(#535,#536,#537,#538));
#85=EDGE_LOOP('',(#539,#540,#541,#542));
#86=EDGE_LOOP('',(#543,#544,#545,#546));
#87=EDGE_LOOP('',(#547,#548,#549,#550));
#88=EDGE_LOOP('',(#551,#552,#553,#554));
#89=EDGE_LOOP('',(#555,#556,#557,#558));
#90=EDGE_LOOP('',(#559,#560,#561,#562));
#91=EDGE_LOOP('',(#563,#564,#565,#566));
#92=EDGE_LOOP('',(#567,#568,#569,#570));
#93=EDGE_LOOP('',(#571,#572,#573,#574));
#94=EDGE_LOOP('',(#575,#576,#577,#578));
#95=EDGE_LOOP('',(#579,#580,#581,#582));
#96=EDGE_LOOP('',(#583,#584,#585,#586));
#97=EDGE_LOOP('',(#587,#588,#589,#590,#591,#592,#593,#594,#595,#596,#597,
#598,#599,#600,#601,#602,#603,#604,#605,#606,#607,#608,#609,#610));
#98=EDGE_LOOP('',(#611));
#99=EDGE_LOOP('',(#612,#613,#614,#615,#616,#617,#618,#619,#620,#621,#622,
#623,#624,#625,#626,#627,#628,#629,#630,#631,#632,#633,#634,#635));
#100=EDGE_LOOP('',(#636));
#101=LINE('',#939,#193);
#102=LINE('',#941,#194);
#103=LINE('',#943,#195);
#104=LINE('',#944,#196);
#105=LINE('',#947,#197);
#106=LINE('',#949,#198);
#107=LINE('',#950,#199);
#108=LINE('',#953,#200);
#109=LINE('',#955,#201);
#110=LINE('',#956,#202);
#111=LINE('',#959,#203);
#112=LINE('',#961,#204);
#113=LINE('',#962,#205);
#114=LINE('',#965,#206);
#115=LINE('',#967,#207);
#116=LINE('',#968,#208);
#117=LINE('',#970,#209);
#118=LINE('',#971,#210);
#119=LINE('',#979,#211);
#120=LINE('',#985,#212);
#121=LINE('',#989,#213);
#122=LINE('',#991,#214);
#123=LINE('',#993,#215);
#124=LINE('',#994,#216);
#125=LINE('',#997,#217);
#126=LINE('',#999,#218);
#127=LINE('',#1000,#219);
#128=LINE('',#1003,#220);
#129=LINE('',#1005,#221);
#130=LINE('',#1006,#222);
#131=LINE('',#1009,#223);
#132=LINE('',#1011,#224);
#133=LINE('',#1012,#225);
#134=LINE('',#1015,#226);
#135=LINE('',#1017,#227);
#136=LINE('',#1018,#228);
#137=LINE('',#1021,#229);
#138=LINE('',#1023,#230);
#139=LINE('',#1024,#231);
#140=LINE('',#1027,#232);
#141=LINE('',#1029,#233);
#142=LINE('',#1030,#234);
#143=LINE('',#1033,#235);
#144=LINE('',#1035,#236);
#145=LINE('',#1036,#237);
#146=LINE('',#1039,#238);
#147=LINE('',#1041,#239);
#148=LINE('',#1042,#240);
#149=LINE('',#1045,#241);
#150=LINE('',#1047,#242);
#151=LINE('',#1048,#243);
#152=LINE('',#1051,#244);
#153=LINE('',#1053,#245);
#154=LINE('',#1054,#246);
#155=LINE('',#1057,#247);
#156=LINE('',#1059,#248);
#157=LINE('',#1060,#249);
#158=LINE('',#1063,#250);
#159=LINE('',#1065,#251);
#160=LINE('',#1066,#252);
#161=LINE('',#1069,#253);
#162=LINE('',#1071,#254);
#163=LINE('',#1072,#255);
#164=LINE('',#1075,#256);
#165=LINE('',#1077,#257);
#166=LINE('',#1078,#258);
#167=LINE('',#1081,#259);
#168=LINE('',#1083,#260);
#169=LINE('',#1084,#261);
#170=LINE('',#1087,#262);
#171=LINE('',#1089,#263);
#172=LINE('',#1090,#264);
#173=LINE('',#1093,#265);
#174=LINE('',#1095,#266);
#175=LINE('',#1096,#267);
#176=LINE('',#1099,#268);
#177=LINE('',#1101,#269);
#178=LINE('',#1102,#270);
#179=LINE('',#1105,#271);
#180=LINE('',#1107,#272);
#181=LINE('',#1108,#273);
#182=LINE('',#1111,#274);
#183=LINE('',#1113,#275);
#184=LINE('',#1114,#276);
#185=LINE('',#1117,#277);
#186=LINE('',#1119,#278);
#187=LINE('',#1120,#279);
#188=LINE('',#1123,#280);
#189=LINE('',#1125,#281);
#190=LINE('',#1126,#282);
#191=LINE('',#1128,#283);
#192=LINE('',#1129,#284);
#193=VECTOR('',#765,10.);
#194=VECTOR('',#766,10.);
#195=VECTOR('',#767,10.);
#196=VECTOR('',#768,10.);
#197=VECTOR('',#771,10.);
#198=VECTOR('',#772,10.);
#199=VECTOR('',#773,10.);
#200=VECTOR('',#776,10.);
#201=VECTOR('',#777,10.);
#202=VECTOR('',#778,10.);
#203=VECTOR('',#781,10.);
#204=VECTOR('',#782,10.);
#205=VECTOR('',#783,10.);
#206=VECTOR('',#786,10.);
#207=VECTOR('',#787,10.);
#208=VECTOR('',#788,10.);
#209=VECTOR('',#791,10.);
#210=VECTOR('',#792,10.);
#211=VECTOR('',#801,9.95);
#212=VECTOR('',#810,2.65);
#213=VECTOR('',#813,10.);
#214=VECTOR('',#814,10.);
#215=VECTOR('',#815,10.);
#216=VECTOR('',#816,10.);
#217=VECTOR('',#819,10.);
#218=VECTOR('',#820,10.);
#219=VECTOR('',#821,10.);
#220=VECTOR('',#824,10.);
#221=VECTOR('',#825,10.);
#222=VECTOR('',#826,10.);
#223=VECTOR('',#829,10.);
#224=VECTOR('',#830,10.);
#225=VECTOR('',#831,10.);
#226=VECTOR('',#834,10.);
#227=VECTOR('',#835,10.);
#228=VECTOR('',#836,10.);
#229=VECTOR('',#839,10.);
#230=VECTOR('',#840,10.);
#231=VECTOR('',#841,10.);
#232=VECTOR('',#844,10.);
#233=VECTOR('',#845,10.);
#234=VECTOR('',#846,10.);
#235=VECTOR('',#849,10.);
#236=VECTOR('',#850,10.);
#237=VECTOR('',#851,10.);
#238=VECTOR('',#854,10.);
#239=VECTOR('',#855,10.);
#240=VECTOR('',#856,10.);
#241=VECTOR('',#859,10.);
#242=VECTOR('',#860,10.);
#243=VECTOR('',#861,10.);
#244=VECTOR('',#864,10.);
#245=VECTOR('',#865,10.);
#246=VECTOR('',#866,10.);
#247=VECTOR('',#869,10.);
#248=VECTOR('',#870,10.);
#249=VECTOR('',#871,10.);
#250=VECTOR('',#874,10.);
#251=VECTOR('',#875,10.);
#252=VECTOR('',#876,10.);
#253=VECTOR('',#879,10.);
#254=VECTOR('',#880,10.);
#255=VECTOR('',#881,10.);
#256=VECTOR('',#884,10.);
#257=VECTOR('',#885,10.);
#258=VECTOR('',#886,10.);
#259=VECTOR('',#889,10.);
#260=VECTOR('',#890,10.);
#261=VECTOR('',#891,10.);
#262=VECTOR('',#894,10.);
#263=VECTOR('',#895,10.);
#264=VECTOR('',#896,10.);
#265=VECTOR('',#899,10.);
#266=VECTOR('',#900,10.);
#267=VECTOR('',#901,10.);
#268=VECTOR('',#904,10.);
#269=VECTOR('',#905,10.);
#270=VECTOR('',#906,10.);
#271=VECTOR('',#909,10.);
#272=VECTOR('',#910,10.);
#273=VECTOR('',#911,10.);
#274=VECTOR('',#914,10.);
#275=VECTOR('',#915,10.);
#276=VECTOR('',#916,10.);
#277=VECTOR('',#919,10.);
#278=VECTOR('',#920,10.);
#279=VECTOR('',#921,10.);
#280=VECTOR('',#924,10.);
#281=VECTOR('',#925,10.);
#282=VECTOR('',#926,10.);
#283=VECTOR('',#929,10.);
#284=VECTOR('',#930,10.);
#285=VERTEX_POINT('',#937);
#286=VERTEX_POINT('',#938);
#287=VERTEX_POINT('',#940);
#288=VERTEX_POINT('',#942);
#289=VERTEX_POINT('',#946);
#290=VERTEX_POINT('',#948);
#291=VERTEX_POINT('',#952);
#292=VERTEX_POINT('',#954);
#293=VERTEX_POINT('',#958);
#294=VERTEX_POINT('',#960);
#295=VERTEX_POINT('',#964);
#296=VERTEX_POINT('',#966);
#297=VERTEX_POINT('',#973);
#298=VERTEX_POINT('',#976);
#299=VERTEX_POINT('',#978);
#300=VERTEX_POINT('',#983);
#301=VERTEX_POINT('',#987);
#302=VERTEX_POINT('',#988);
#303=VERTEX_POINT('',#990);
#304=VERTEX_POINT('',#992);
#305=VERTEX_POINT('',#996);
#306=VERTEX_POINT('',#998);
#307=VERTEX_POINT('',#1002);
#308=VERTEX_POINT('',#1004);
#309=VERTEX_POINT('',#1008);
#310=VERTEX_POINT('',#1010);
#311=VERTEX_POINT('',#1014);
#312=VERTEX_POINT('',#1016);
#313=VERTEX_POINT('',#1020);
#314=VERTEX_POINT('',#1022);
#315=VERTEX_POINT('',#1026);
#316=VERTEX_POINT('',#1028);
#317=VERTEX_POINT('',#1032);
#318=VERTEX_POINT('',#1034);
#319=VERTEX_POINT('',#1038);
#320=VERTEX_POINT('',#1040);
#321=VERTEX_POINT('',#1044);
#322=VERTEX_POINT('',#1046);
#323=VERTEX_POINT('',#1050);
#324=VERTEX_POINT('',#1052);
#325=VERTEX_POINT('',#1056);
#326=VERTEX_POINT('',#1058);
#327=VERTEX_POINT('',#1062);
#328=VERTEX_POINT('',#1064);
#329=VERTEX_POINT('',#1068);
#330=VERTEX_POINT('',#1070);
#331=VERTEX_POINT('',#1074);
#332=VERTEX_POINT('',#1076);
#333=VERTEX_POINT('',#1080);
#334=VERTEX_POINT('',#1082);
#335=VERTEX_POINT('',#1086);
#336=VERTEX_POINT('',#1088);
#337=VERTEX_POINT('',#1092);
#338=VERTEX_POINT('',#1094);
#339=VERTEX_POINT('',#1098);
#340=VERTEX_POINT('',#1100);
#341=VERTEX_POINT('',#1104);
#342=VERTEX_POINT('',#1106);
#343=VERTEX_POINT('',#1110);
#344=VERTEX_POINT('',#1112);
#345=VERTEX_POINT('',#1116);
#346=VERTEX_POINT('',#1118);
#347=VERTEX_POINT('',#1122);
#348=VERTEX_POINT('',#1124);
#349=EDGE_CURVE('',#285,#286,#101,.T.);
#350=EDGE_CURVE('',#285,#287,#102,.T.);
#351=EDGE_CURVE('',#287,#288,#103,.T.);
#352=EDGE_CURVE('',#286,#288,#104,.T.);
#353=EDGE_CURVE('',#289,#285,#105,.T.);
#354=EDGE_CURVE('',#289,#290,#106,.T.);
#355=EDGE_CURVE('',#290,#287,#107,.T.);
#356=EDGE_CURVE('',#291,#289,#108,.T.);
#357=EDGE_CURVE('',#291,#292,#109,.T.);
#358=EDGE_CURVE('',#292,#290,#110,.T.);
#359=EDGE_CURVE('',#293,#291,#111,.T.);
#360=EDGE_CURVE('',#293,#294,#112,.T.);
#361=EDGE_CURVE('',#294,#292,#113,.T.);
#362=EDGE_CURVE('',#295,#293,#114,.T.);
#363=EDGE_CURVE('',#295,#296,#115,.T.);
#364=EDGE_CURVE('',#296,#294,#116,.T.);
#365=EDGE_CURVE('',#286,#295,#117,.T.);
#366=EDGE_CURVE('',#288,#296,#118,.T.);
#367=EDGE_CURVE('',#297,#297,#21,.T.);
#368=EDGE_CURVE('',#298,#298,#22,.T.);
#369=EDGE_CURVE('',#298,#299,#119,.T.);
#370=EDGE_CURVE('',#299,#299,#23,.T.);
#371=EDGE_CURVE('',#300,#300,#24,.T.);
#372=EDGE_CURVE('',#300,#297,#120,.T.);
#373=EDGE_CURVE('',#301,#302,#121,.T.);
#374=EDGE_CURVE('',#302,#303,#122,.T.);
#375=EDGE_CURVE('',#304,#303,#123,.T.);
#376=EDGE_CURVE('',#301,#304,#124,.T.);
#377=EDGE_CURVE('',#305,#301,#125,.T.);
#378=EDGE_CURVE('',#306,#304,#126,.T.);
#379=EDGE_CURVE('',#305,#306,#127,.T.);
#380=EDGE_CURVE('',#307,#305,#128,.T.);
#381=EDGE_CURVE('',#308,#306,#129,.T.);
#382=EDGE_CURVE('',#307,#308,#130,.T.);
#383=EDGE_CURVE('',#309,#307,#131,.T.);
#384=EDGE_CURVE('',#310,#308,#132,.T.);
#385=EDGE_CURVE('',#309,#310,#133,.T.);
#386=EDGE_CURVE('',#311,#309,#134,.T.);
#387=EDGE_CURVE('',#312,#310,#135,.T.);
#388=EDGE_CURVE('',#311,#312,#136,.T.);
#389=EDGE_CURVE('',#313,#311,#137,.T.);
#390=EDGE_CURVE('',#314,#312,#138,.T.);
#391=EDGE_CURVE('',#313,#314,#139,.T.);
#392=EDGE_CURVE('',#315,#313,#140,.T.);
#393=EDGE_CURVE('',#316,#314,#141,.T.);
#394=EDGE_CURVE('',#315,#316,#142,.T.);
#395=EDGE_CURVE('',#317,#315,#143,.T.);
#396=EDGE_CURVE('',#318,#316,#144,.T.);
#397=EDGE_CURVE('',#317,#318,#145,.T.);
#398=EDGE_CURVE('',#319,#317,#146,.T.);
#399=EDGE_CURVE('',#320,#318,#147,.T.);
#400=EDGE_CURVE('',#319,#320,#148,.T.);
#401=EDGE_CURVE('',#321,#319,#149,.T.);
#402=EDGE_CURVE('',#322,#320,#150,.T.);
#403=EDGE_CURVE('',#321,#322,#151,.T.);
#404=EDGE_CURVE('',#323,#321,#152,.T.);
#405=EDGE_CURVE('',#324,#322,#153,.T.);
#406=EDGE_CURVE('',#323,#324,#154,.T.);
#407=EDGE_CURVE('',#325,#323,#155,.T.);
#408=EDGE_CURVE('',#326,#324,#156,.T.);
#409=EDGE_CURVE('',#325,#326,#157,.T.);
#410=EDGE_CURVE('',#327,#325,#158,.T.);
#411=EDGE_CURVE('',#328,#326,#159,.T.);
#412=EDGE_CURVE('',#327,#328,#160,.T.);
#413=EDGE_CURVE('',#329,#327,#161,.T.);
#414=EDGE_CURVE('',#330,#328,#162,.T.);
#415=EDGE_CURVE('',#329,#330,#163,.T.);
#416=EDGE_CURVE('',#331,#329,#164,.T.);
#417=EDGE_CURVE('',#332,#330,#165,.T.);
#418=EDGE_CURVE('',#331,#332,#166,.T.);
#419=EDGE_CURVE('',#333,#331,#167,.T.);
#420=EDGE_CURVE('',#334,#332,#168,.T.);
#421=EDGE_CURVE('',#333,#334,#169,.T.);
#422=EDGE_CURVE('',#335,#333,#170,.T.);
#423=EDGE_CURVE('',#336,#334,#171,.T.);
#424=EDGE_CURVE('',#335,#336,#172,.T.);
#425=EDGE_CURVE('',#337,#335,#173,.T.);
#426=EDGE_CURVE('',#338,#336,#174,.T.);
#427=EDGE_CURVE('',#337,#338,#175,.T.);
#428=EDGE_CURVE('',#339,#337,#176,.T.);
#429=EDGE_CURVE('',#340,#338,#177,.T.);
#430=EDGE_CURVE('',#339,#340,#178,.T.);
#431=EDGE_CURVE('',#341,#339,#179,.T.);
#432=EDGE_CURVE('',#342,#340,#180,.T.);
#433=EDGE_CURVE('',#341,#342,#181,.T.);
#434=EDGE_CURVE('',#343,#341,#182,.T.);
#435=EDGE_CURVE('',#344,#342,#183,.T.);
#436=EDGE_CURVE('',#343,#344,#184,.T.);
#437=EDGE_CURVE('',#345,#343,#185,.T.);
#438=EDGE_CURVE('',#346,#344,#186,.T.);
#439=EDGE_CURVE('',#345,#346,#187,.T.);
#440=EDGE_CURVE('',#347,#345,#188,.T.);
#441=EDGE_CURVE('',#348,#346,#189,.T.);
#442=EDGE_CURVE('',#347,#348,#190,.T.);
#443=EDGE_CURVE('',#302,#347,#191,.T.);
#444=EDGE_CURVE('',#303,#348,#192,.T.);
#445=ORIENTED_EDGE('',*,*,#349,.F.);
#446=ORIENTED_EDGE('',*,*,#350,.T.);
#447=ORIENTED_EDGE('',*,*,#351,.T.);
#448=ORIENTED_EDGE('',*,*,#352,.F.);
#449=ORIENTED_EDGE('',*,*,#353,.F.);
#450=ORIENTED_EDGE('',*,*,#354,.T.);
#451=ORIENTED_EDGE('',*,*,#355,.T.);
#452=ORIENTED_EDGE('',*,*,#350,.F.);
#453=ORIENTED_EDGE('',*,*,#356,.F.);
#454=ORIENTED_EDGE('',*,*,#357,.T.);
#455=ORIENTED_EDGE('',*,*,#358,.T.);
#456=ORIENTED_EDGE('',*,*,#354,.F.);
#457=ORIENTED_EDGE('',*,*,#359,.F.);
#458=ORIENTED_EDGE('',*,*,#360,.T.);
#459=ORIENTED_EDGE('',*,*,#361,.T.);
#460=ORIENTED_EDGE('',*,*,#357,.F.);
#461=ORIENTED_EDGE('',*,*,#362,.F.);
#462=ORIENTED_EDGE('',*,*,#363,.T.);
#463=ORIENTED_EDGE('',*,*,#364,.T.);
#464=ORIENTED_EDGE('',*,*,#360,.F.);
#465=ORIENTED_EDGE('',*,*,#365,.F.);
#466=ORIENTED_EDGE('',*,*,#352,.T.);
#467=ORIENTED_EDGE('',*,*,#366,.T.);
#468=ORIENTED_EDGE('',*,*,#363,.F.);
#469=ORIENTED_EDGE('',*,*,#366,.F.);
#470=ORIENTED_EDGE('',*,*,#351,.F.);
#471=ORIENTED_EDGE('',*,*,#355,.F.);
#472=ORIENTED_EDGE('',*,*,#358,.F.);
#473=ORIENTED_EDGE('',*,*,#361,.F.);
#474=ORIENTED_EDGE('',*,*,#364,.F.);
#475=ORIENTED_EDGE('',*,*,#367,.F.);
#476=ORIENTED_EDGE('',*,*,#368,.F.);
#477=ORIENTED_EDGE('',*,*,#369,.T.);
#478=ORIENTED_EDGE('',*,*,#370,.T.);
#479=ORIENTED_EDGE('',*,*,#369,.F.);
#480=ORIENTED_EDGE('',*,*,#370,.F.);
#481=ORIENTED_EDGE('',*,*,#349,.T.);
#482=ORIENTED_EDGE('',*,*,#365,.T.);
#483=ORIENTED_EDGE('',*,*,#362,.T.);
#484=ORIENTED_EDGE('',*,*,#359,.T.);
#485=ORIENTED_EDGE('',*,*,#356,.T.);
#486=ORIENTED_EDGE('',*,*,#353,.T.);
#487=ORIENTED_EDGE('',*,*,#371,.F.);
#488=ORIENTED_EDGE('',*,*,#372,.T.);
#489=ORIENTED_EDGE('',*,*,#367,.T.);
#490=ORIENTED_EDGE('',*,*,#372,.F.);
#491=ORIENTED_EDGE('',*,*,#373,.T.);
#492=ORIENTED_EDGE('',*,*,#374,.T.);
#493=ORIENTED_EDGE('',*,*,#375,.F.);
#494=ORIENTED_EDGE('',*,*,#376,.F.);
#495=ORIENTED_EDGE('',*,*,#377,.T.);
#496=ORIENTED_EDGE('',*,*,#376,.T.);
#497=ORIENTED_EDGE('',*,*,#378,.F.);
#498=ORIENTED_EDGE('',*,*,#379,.F.);
#499=ORIENTED_EDGE('',*,*,#380,.T.);
#500=ORIENTED_EDGE('',*,*,#379,.T.);
#501=ORIENTED_EDGE('',*,*,#381,.F.);
#502=ORIENTED_EDGE('',*,*,#382,.F.);
#503=ORIENTED_EDGE('',*,*,#383,.T.);
#504=ORIENTED_EDGE('',*,*,#382,.T.);
#505=ORIENTED_EDGE('',*,*,#384,.F.);
#506=ORIENTED_EDGE('',*,*,#385,.F.);
#507=ORIENTED_EDGE('',*,*,#386,.T.);
#508=ORIENTED_EDGE('',*,*,#385,.T.);
#509=ORIENTED_EDGE('',*,*,#387,.F.);
#510=ORIENTED_EDGE('',*,*,#388,.F.);
#511=ORIENTED_EDGE('',*,*,#389,.T.);
#512=ORIENTED_EDGE('',*,*,#388,.T.);
#513=ORIENTED_EDGE('',*,*,#390,.F.);
#514=ORIENTED_EDGE('',*,*,#391,.F.);
#515=ORIENTED_EDGE('',*,*,#392,.T.);
#516=ORIENTED_EDGE('',*,*,#391,.T.);
#517=ORIENTED_EDGE('',*,*,#393,.F.);
#518=ORIENTED_EDGE('',*,*,#394,.F.);
#519=ORIENTED_EDGE('',*,*,#395,.T.);
#520=ORIENTED_EDGE('',*,*,#394,.T.);
#521=ORIENTED_EDGE('',*,*,#396,.F.);
#522=ORIENTED_EDGE('',*,*,#397,.F.);
#523=ORIENTED_EDGE('',*,*,#398,.T.);
#524=ORIENTED_EDGE('',*,*,#397,.T.);
#525=ORIENTED_EDGE('',*,*,#399,.F.);
#526=ORIENTED_EDGE('',*,*,#400,.F.);
#527=ORIENTED_EDGE('',*,*,#401,.T.);
#528=ORIENTED_EDGE('',*,*,#400,.T.);
#529=ORIENTED_EDGE('',*,*,#402,.F.);
#530=ORIENTED_EDGE('',*,*,#403,.F.);
#531=ORIENTED_EDGE('',*,*,#404,.T.);
#532=ORIENTED_EDGE('',*,*,#403,.T.);
#533=ORIENTED_EDGE('',*,*,#405,.F.);
#534=ORIENTED_EDGE('',*,*,#406,.F.);
#535=ORIENTED_EDGE('',*,*,#407,.T.);
#536=ORIENTED_EDGE('',*,*,#406,.T.);
#537=ORIENTED_EDGE('',*,*,#408,.F.);
#538=ORIENTED_EDGE('',*,*,#409,.F.);
#539=ORIENTED_EDGE('',*,*,#410,.T.);
#540=ORIENTED_EDGE('',*,*,#409,.T.);
#541=ORIENTED_EDGE('',*,*,#411,.F.);
#542=ORIENTED_EDGE('',*,*,#412,.F.);
#543=ORIENTED_EDGE('',*,*,#413,.T.);
#544=ORIENTED_EDGE('',*,*,#412,.T.);
#545=ORIENTED_EDGE('',*,*,#414,.F.);
#546=ORIENTED_EDGE('',*,*,#415,.F.);
#547=ORIENTED_EDGE('',*,*,#416,.T.);
#548=ORIENTED_EDGE('',*,*,#415,.T.);
#549=ORIENTED_EDGE('',*,*,#417,.F.);
#550=ORIENTED_EDGE('',*,*,#418,.F.);
#551=ORIENTED_EDGE('',*,*,#419,.T.);
#552=ORIENTED_EDGE('',*,*,#418,.T.);
#553=ORIENTED_EDGE('',*,*,#420,.F.);
#554=ORIENTED_EDGE('',*,*,#421,.F.);
#555=ORIENTED_EDGE('',*,*,#422,.T.);
#556=ORIENTED_EDGE('',*,*,#421,.T.);
#557=ORIENTED_EDGE('',*,*,#423,.F.);
#558=ORIENTED_EDGE('',*,*,#424,.F.);
#559=ORIENTED_EDGE('',*,*,#425,.T.);
#560=ORIENTED_EDGE('',*,*,#424,.T.);
#561=ORIENTED_EDGE('',*,*,#426,.F.);
#562=ORIENTED_EDGE('',*,*,#427,.F.);
#563=ORIENTED_EDGE('',*,*,#428,.T.);
#564=ORIENTED_EDGE('',*,*,#427,.T.);
#565=ORIENTED_EDGE('',*,*,#429,.F.);
#566=ORIENTED_EDGE('',*,*,#430,.F.);
#567=ORIENTED_EDGE('',*,*,#431,.T.);
#568=ORIENTED_EDGE('',*,*,#430,.T.);
#569=ORIENTED_EDGE('',*,*,#432,.F.);
#570=ORIENTED_EDGE('',*,*,#433,.F.);
#571=ORIENTED_EDGE('',*,*,#434,.T.);
#572=ORIENTED_EDGE('',*,*,#433,.T.);
#573=ORIENTED_EDGE('',*,*,#435,.F.);
#574=ORIENTED_EDGE('',*,*,#436,.F.);
#575=ORIENTED_EDGE('',*,*,#437,.T.);
#576=ORIENTED_EDGE('',*,*,#436,.T.);
#577=ORIENTED_EDGE('',*,*,#438,.F.);
#578=ORIENTED_EDGE('',*,*,#439,.F.);
#579=ORIENTED_EDGE('',*,*,#440,.T.);
#580=ORIENTED_EDGE('',*,*,#439,.T.);
#581=ORIENTED_EDGE('',*,*,#441,.F.);
#582=ORIENTED_EDGE('',*,*,#442,.F.);
#583=ORIENTED_EDGE('',*,*,#443,.T.);
#584=ORIENTED_EDGE('',*,*,#442,.T.);
#585=ORIENTED_EDGE('',*,*,#444,.F.);
#586=ORIENTED_EDGE('',*,*,#374,.F.);
#587=ORIENTED_EDGE('',*,*,#444,.T.);
#588=ORIENTED_EDGE('',*,*,#441,.T.);
#589=ORIENTED_EDGE('',*,*,#438,.T.);
#590=ORIENTED_EDGE('',*,*,#435,.T.);
#591=ORIENTED_EDGE('',*,*,#432,.T.);
#592=ORIENTED_EDGE('',*,*,#429,.T.);
#593=ORIENTED_EDGE('',*,*,#426,.T.);
#594=ORIENTED_EDGE('',*,*,#423,.T.);
#595=ORIENTED_EDGE('',*,*,#420,.T.);
#596=ORIENTED_EDGE('',*,*,#417,.T.);
#597=ORIENTED_EDGE('',*,*,#414,.T.);
#598=ORIENTED_EDGE('',*,*,#411,.T.);
#599=ORIENTED_EDGE('',*,*,#408,.T.);
#600=ORIENTED_EDGE('',*,*,#405,.T.);
#601=ORIENTED_EDGE('',*,*,#402,.T.);
#602=ORIENTED_EDGE('',*,*,#399,.T.);
#603=ORIENTED_EDGE('',*,*,#396,.T.);
#604=ORIENTED_EDGE('',*,*,#393,.T.);
#605=ORIENTED_EDGE('',*,*,#390,.T.);
#606=ORIENTED_EDGE('',*,*,#387,.T.);
#607=ORIENTED_EDGE('',*,*,#384,.T.);
#608=ORIENTED_EDGE('',*,*,#381,.T.);
#609=ORIENTED_EDGE('',*,*,#378,.T.);
#610=ORIENTED_EDGE('',*,*,#375,.T.);
#611=ORIENTED_EDGE('',*,*,#371,.T.);
#612=ORIENTED_EDGE('',*,*,#443,.F.);
#613=ORIENTED_EDGE('',*,*,#373,.F.);
#614=ORIENTED_EDGE('',*,*,#377,.F.);
#615=ORIENTED_EDGE('',*,*,#380,.F.);
#616=ORIENTED_EDGE('',*,*,#383,.F.);
#617=ORIENTED_EDGE('',*,*,#386,.F.);
#618=ORIENTED_EDGE('',*,*,#389,.F.);
#619=ORIENTED_EDGE('',*,*,#392,.F.);
#620=ORIENTED_EDGE('',*,*,#395,.F.);
#621=ORIENTED_EDGE('',*,*,#398,.F.);
#622=ORIENTED_EDGE('',*,*,#401,.F.);
#623=ORIENTED_EDGE('',*,*,#404,.F.);
#624=ORIENTED_EDGE('',*,*,#407,.F.);
#625=ORIENTED_EDGE('',*,*,#410,.F.);
#626=ORIENTED_EDGE('',*,*,#413,.F.);
#627=ORIENTED_EDGE('',*,*,#416,.F.);
#628=ORIENTED_EDGE('',*,*,#419,.F.);
#629=ORIENTED_EDGE('',*,*,#422,.F.);
#630=ORIENTED_EDGE('',*,*,#425,.F.);
#631=ORIENTED_EDGE('',*,*,#428,.F.);
#632=ORIENTED_EDGE('',*,*,#431,.F.);
#633=ORIENTED_EDGE('',*,*,#434,.F.);
#634=ORIENTED_EDGE('',*,*,#437,.F.);
#635=ORIENTED_EDGE('',*,*,#440,.F.);
#636=ORIENTED_EDGE('',*,*,#368,.T.);
#637=PLANE('',#721);
#638=PLANE('',#722);
#639=PLANE('',#723);
#640=PLANE('',#724);
#641=PLANE('',#725);
#642=PLANE('',#726);
#643=PLANE('',#727);
#644=PLANE('',#732);
#645=PLANE('',#735);
#646=PLANE('',#736);
#647=PLANE('',#737);
#648=PLANE('',#738);
#649=PLANE('',#739);
#650=PLANE('',#740);
#651=PLANE('',#741);
#652=PLANE('',#742);
#653=PLANE('',#743);
#654=PLANE('',#744);
#655=PLANE('',#745);
#656=PLANE('',#746);
#657=PLANE('',#747);
#658=PLANE('',#748);
#659=PLANE('',#749);
#660=PLANE('',#750);
#661=PLANE('',#751);
#662=PLANE('',#752);
#663=PLANE('',#753);
#664=PLANE('',#754);
#665=PLANE('',#755);
#666=PLANE('',#756);
#667=PLANE('',#757);
#668=PLANE('',#758);
#669=PLANE('',#759);
#670=PLANE('',#760);
#671=ADVANCED_FACE('',(#25),#637,.F.);
#672=ADVANCED_FACE('',(#26),#638,.F.);
#673=ADVANCED_FACE('',(#27),#639,.F.);
#674=ADVANCED_FACE('',(#28),#640,.F.);
#675=ADVANCED_FACE('',(#29),#641,.F.);
#676=ADVANCED_FACE('',(#30),#642,.F.);
#677=ADVANCED_FACE('',(#31,#17),#643,.T.);
#678=ADVANCED_FACE('',(#32),#15,.F.);
#679=ADVANCED_FACE('',(#33,#18),#644,.F.);
#680=ADVANCED_FACE('',(#34),#16,.F.);
#681=ADVANCED_FACE('',(#35),#645,.T.);
#682=ADVANCED_FACE('',(#36),#646,.T.);
#683=ADVANCED_FACE('',(#37),#647,.T.);
#684=ADVANCED_FACE('',(#38),#648,.T.);
#685=ADVANCED_FACE('',(#39),#649,.T.);
#686=ADVANCED_FACE('',(#40),#650,.T.);
#687=ADVANCED_FACE('',(#41),#651,.T.);
#688=ADVANCED_FACE('',(#42),#652,.T.);
#689=ADVANCED_FACE('',(#43),#653,.T.);
#690=ADVANCED_FACE('',(#44),#654,.T.);
#691=ADVANCED_FACE('',(#45),#655,.T.);
#692=ADVANCED_FACE('',(#46),#656,.T.);
#693=ADVANCED_FACE('',(#47),#657,.T.);
#694=ADVANCED_FACE('',(#48),#658,.T.);
#695=ADVANCED_FACE('',(#49),#659,.T.);
#696=ADVANCED_FACE('',(#50),#660,.T.);
#697=ADVANCED_FACE('',(#51),#661,.T.);
#698=ADVANCED_FACE('',(#52),#662,.T.);
#699=ADVANCED_FACE('',(#53),#663,.T.);
#700=ADVANCED_FACE('',(#54),#664,.T.);
#701=ADVANCED_FACE('',(#55),#665,.T.);
#702=ADVANCED_FACE('',(#56),#666,.T.);
#703=ADVANCED_FACE('',(#57),#667,.T.);
#704=ADVANCED_FACE('',(#58),#668,.T.);
#705=ADVANCED_FACE('',(#59,#19),#669,.T.);
#706=ADVANCED_FACE('',(#60,#20),#670,.F.);
#707=CLOSED_SHELL('',(#671,#672,#673,#674,#675,#676,#677,#678,#679,#680,
#681,#682,#683,#684,#685,#686,#687,#688,#689,#690,#691,#692,#693,#694,#695,
#696,#697,#698,#699,#700,#701,#702,#703,#704,#705,#706));
#708=DERIVED_UNIT_ELEMENT(#710,1.);
#709=DERIVED_UNIT_ELEMENT(#1137,-3.);
#710=(
MASS_UNIT()
NAMED_UNIT(*)
SI_UNIT(.KILO.,.GRAM.)
);
#711=DERIVED_UNIT((#708,#709));
#712=MEASURE_REPRESENTATION_ITEM('density measure',
POSITIVE_RATIO_MEASURE(7850.),#711);
#713=PROPERTY_DEFINITION_REPRESENTATION(#718,#715);
#714=PROPERTY_DEFINITION_REPRESENTATION(#719,#716);
#715=REPRESENTATION('material name',(#717),#1134);
#716=REPRESENTATION('density',(#712),#1134);
#717=DESCRIPTIVE_REPRESENTATION_ITEM('Acier','Acier');
#718=PROPERTY_DEFINITION('material property','material name',#1144);
#719=PROPERTY_DEFINITION('material property','density of part',#1144);
#720=AXIS2_PLACEMENT_3D('',#935,#761,#762);
#721=AXIS2_PLACEMENT_3D('',#936,#763,#764);
#722=AXIS2_PLACEMENT_3D('',#945,#769,#770);
#723=AXIS2_PLACEMENT_3D('',#951,#774,#775);
#724=AXIS2_PLACEMENT_3D('',#957,#779,#780);
#725=AXIS2_PLACEMENT_3D('',#963,#784,#785);
#726=AXIS2_PLACEMENT_3D('',#969,#789,#790);
#727=AXIS2_PLACEMENT_3D('',#972,#793,#794);
#728=AXIS2_PLACEMENT_3D('',#974,#795,#796);
#729=AXIS2_PLACEMENT_3D('',#975,#797,#798);
#730=AXIS2_PLACEMENT_3D('',#977,#799,#800);
#731=AXIS2_PLACEMENT_3D('',#980,#802,#803);
#732=AXIS2_PLACEMENT_3D('',#981,#804,#805);
#733=AXIS2_PLACEMENT_3D('',#982,#806,#807);
#734=AXIS2_PLACEMENT_3D('',#984,#808,#809);
#735=AXIS2_PLACEMENT_3D('',#986,#811,#812);
#736=AXIS2_PLACEMENT_3D('',#995,#817,#818);
#737=AXIS2_PLACEMENT_3D('',#1001,#822,#823);
#738=AXIS2_PLACEMENT_3D('',#1007,#827,#828);
#739=AXIS2_PLACEMENT_3D('',#1013,#832,#833);
#740=AXIS2_PLACEMENT_3D('',#1019,#837,#838);
#741=AXIS2_PLACEMENT_3D('',#1025,#842,#843);
#742=AXIS2_PLACEMENT_3D('',#1031,#847,#848);
#743=AXIS2_PLACEMENT_3D('',#1037,#852,#853);
#744=AXIS2_PLACEMENT_3D('',#1043,#857,#858);
#745=AXIS2_PLACEMENT_3D('',#1049,#862,#863);
#746=AXIS2_PLACEMENT_3D('',#1055,#867,#868);
#747=AXIS2_PLACEMENT_3D('',#1061,#872,#873);
#748=AXIS2_PLACEMENT_3D('',#1067,#877,#878);
#749=AXIS2_PLACEMENT_3D('',#1073,#882,#883);
#750=AXIS2_PLACEMENT_3D('',#1079,#887,#888);
#751=AXIS2_PLACEMENT_3D('',#1085,#892,#893);
#752=AXIS2_PLACEMENT_3D('',#1091,#897,#898);
#753=AXIS2_PLACEMENT_3D('',#1097,#902,#903);
#754=AXIS2_PLACEMENT_3D('',#1103,#907,#908);
#755=AXIS2_PLACEMENT_3D('',#1109,#912,#913);
#756=AXIS2_PLACEMENT_3D('',#1115,#917,#918);
#757=AXIS2_PLACEMENT_3D('',#1121,#922,#923);
#758=AXIS2_PLACEMENT_3D('',#1127,#927,#928);
#759=AXIS2_PLACEMENT_3D('',#1130,#931,#932);
#760=AXIS2_PLACEMENT_3D('',#1131,#933,#934);
#761=DIRECTION('axis',(0.,0.,1.));
#762=DIRECTION('refdir',(1.,0.,0.));
#763=DIRECTION('center_axis',(0.686955836475849,0.726699166596307,0.));
#764=DIRECTION('ref_axis',(-0.726699166596307,0.686955836475849,0.));
#765=DIRECTION('',(-0.726699166596307,0.686955836475849,0.));
#766=DIRECTION('',(0.,0.,1.));
#767=DIRECTION('',(-0.726699166596307,0.686955836475849,0.));
#768=DIRECTION('',(0.,0.,1.));
#769=DIRECTION('center_axis',(0.972817857419306,-0.231571622367921,0.));
#770=DIRECTION('ref_axis',(0.231571622367921,0.972817857419306,0.));
#771=DIRECTION('',(0.231571622367921,0.972817857419306,0.));
#772=DIRECTION('',(0.,0.,1.));
#773=DIRECTION('',(0.231571622367921,0.972817857419306,0.));
#774=DIRECTION('center_axis',(0.285862020943457,-0.958270788964227,0.));
#775=DIRECTION('ref_axis',(0.958270788964227,0.285862020943457,0.));
#776=DIRECTION('',(0.958270788964227,0.285862020943457,0.));
#777=DIRECTION('',(0.,0.,1.));
#778=DIRECTION('',(0.958270788964227,0.285862020943457,0.));
#779=DIRECTION('center_axis',(-0.686955836475849,-0.726699166596307,0.));
#780=DIRECTION('ref_axis',(0.726699166596307,-0.686955836475849,0.));
#781=DIRECTION('',(0.726699166596307,-0.686955836475849,0.));
#782=DIRECTION('',(0.,0.,1.));
#783=DIRECTION('',(0.726699166596307,-0.686955836475849,0.));
#784=DIRECTION('center_axis',(-0.972817857419306,0.231571622367921,0.));
#785=DIRECTION('ref_axis',(-0.231571622367921,-0.972817857419306,0.));
#786=DIRECTION('',(-0.231571622367921,-0.972817857419306,0.));
#787=DIRECTION('',(0.,0.,1.));
#788=DIRECTION('',(-0.231571622367921,-0.972817857419306,0.));
#789=DIRECTION('center_axis',(-0.285862020943457,0.958270788964227,0.));
#790=DIRECTION('ref_axis',(-0.958270788964227,-0.285862020943457,0.));
#791=DIRECTION('',(-0.958270788964227,-0.285862020943457,0.));
#792=DIRECTION('',(-0.958270788964227,-0.285862020943457,0.));
#793=DIRECTION('center_axis',(0.,0.,-1.));
#794=DIRECTION('ref_axis',(-1.,0.,0.));
#795=DIRECTION('center_axis',(0.,0.,-1.));
#796=DIRECTION('ref_axis',(1.,0.,0.));
#797=DIRECTION('center_axis',(0.,0.,1.));
#798=DIRECTION('ref_axis',(1.,0.,0.));
#799=DIRECTION('center_axis',(0.,0.,1.));
#800=DIRECTION('ref_axis',(1.,0.,0.));
#801=DIRECTION('',(0.,0.,1.));
#802=DIRECTION('center_axis',(0.,0.,1.));
#803=DIRECTION('ref_axis',(1.,0.,0.));
#804=DIRECTION('center_axis',(0.,0.,1.));
#805=DIRECTION('ref_axis',(1.,0.,0.));
#806=DIRECTION('center_axis',(0.,0.,1.));
#807=DIRECTION('ref_axis',(1.,0.,0.));
#808=DIRECTION('center_axis',(0.,0.,-1.));
#809=DIRECTION('ref_axis',(1.,0.,0.));
#810=DIRECTION('',(0.,0.,-1.));
#811=DIRECTION('center_axis',(0.737695670026622,0.675133393059456,0.));
#812=DIRECTION('ref_axis',(-0.675133393059456,0.737695670026622,0.));
#813=DIRECTION('',(-0.675133393059456,0.737695670026622,0.));
#814=DIRECTION('',(0.,0.,1.));
#815=DIRECTION('',(-0.675133393059456,0.737695670026622,0.));
#816=DIRECTION('',(0.,0.,1.));
#817=DIRECTION('center_axis',(0.887296679728806,0.461199091653742,0.));
#818=DIRECTION('ref_axis',(-0.461199091653742,0.887296679728806,0.));
#819=DIRECTION('',(-0.461199091653742,0.887296679728806,0.));
#820=DIRECTION('',(-0.461199091653742,0.887296679728806,0.));
#821=DIRECTION('',(0.,0.,1.));
#822=DIRECTION('center_axis',(0.976429887034565,0.215834834319361,0.));
#823=DIRECTION('ref_axis',(-0.215834834319361,0.976429887034565,0.));
#824=DIRECTION('',(-0.215834834319361,0.976429887034565,0.));
#825=DIRECTION('',(-0.215834834319361,0.976429887034565,0.));
#826=DIRECTION('',(0.,0.,1.));
#827=DIRECTION('center_axis',(0.999021011165602,-0.0442382102899555,0.));
#828=DIRECTION('ref_axis',(0.0442382102899555,0.999021011165602,0.));
#829=DIRECTION('',(0.0442382102899555,0.999021011165602,0.));
#830=DIRECTION('',(0.0442382102899555,0.999021011165602,0.));
#831=DIRECTION('',(0.,0.,1.));
#832=DIRECTION('center_axis',(0.953530504345984,-0.301296493975109,0.));
#833=DIRECTION('ref_axis',(0.301296493975109,0.953530504345984,0.));
#834=DIRECTION('',(0.301296493975109,0.953530504345984,0.));
#835=DIRECTION('',(0.301296493975109,0.953530504345984,0.));
#836=DIRECTION('',(0.,0.,1.));
#837=DIRECTION('center_axis',(0.843058469438852,-0.537821919511859,0.));
#838=DIRECTION('ref_axis',(0.537821919511859,0.843058469438852,0.));
#839=DIRECTION('',(0.537821919511859,0.843058469438852,0.));
#840=DIRECTION('',(0.537821919511859,0.843058469438852,0.));
#841=DIRECTION('',(0.,0.,1.));
#842=DIRECTION('center_axis',(0.675133393059455,-0.737695670026622,0.));
#843=DIRECTION('ref_axis',(0.737695670026622,0.675133393059455,0.));
#844=DIRECTION('',(0.737695670026622,0.675133393059455,0.));
#845=DIRECTION('',(0.737695670026622,0.675133393059455,0.));
#846=DIRECTION('',(0.,0.,1.));
#847=DIRECTION('center_axis',(0.461199091653743,-0.887296679728806,0.));
#848=DIRECTION('ref_axis',(0.887296679728806,0.461199091653743,0.));
#849=DIRECTION('',(0.887296679728806,0.461199091653743,0.));
#850=DIRECTION('',(0.887296679728806,0.461199091653743,0.));
#851=DIRECTION('',(0.,0.,1.));
#852=DIRECTION('center_axis',(0.215834834319363,-0.976429887034565,0.));
#853=DIRECTION('ref_axis',(0.976429887034565,0.215834834319363,0.));
#854=DIRECTION('',(0.976429887034565,0.215834834319363,0.));
#855=DIRECTION('',(0.976429887034565,0.215834834319363,0.));
#856=DIRECTION('',(0.,0.,1.));
#857=DIRECTION('center_axis',(-0.0442382102899541,-0.999021011165602,0.));
#858=DIRECTION('ref_axis',(0.999021011165602,-0.0442382102899541,0.));
#859=DIRECTION('',(0.999021011165602,-0.0442382102899541,0.));
#860=DIRECTION('',(0.999021011165602,-0.0442382102899541,0.));
#861=DIRECTION('',(0.,0.,1.));
#862=DIRECTION('center_axis',(-0.301296493975109,-0.953530504345984,0.));
#863=DIRECTION('ref_axis',(0.953530504345984,-0.301296493975109,0.));
#864=DIRECTION('',(0.953530504345984,-0.301296493975109,0.));
#865=DIRECTION('',(0.953530504345984,-0.301296493975109,0.));
#866=DIRECTION('',(0.,0.,1.));
#867=DIRECTION('center_axis',(-0.537821919511859,-0.843058469438852,0.));
#868=DIRECTION('ref_axis',(0.843058469438852,-0.537821919511859,0.));
#869=DIRECTION('',(0.843058469438852,-0.537821919511859,0.));
#870=DIRECTION('',(0.843058469438852,-0.537821919511859,0.));
#871=DIRECTION('',(0.,0.,1.));
#872=DIRECTION('center_axis',(-0.737695670026621,-0.675133393059456,0.));
#873=DIRECTION('ref_axis',(0.675133393059456,-0.737695670026621,0.));
#874=DIRECTION('',(0.675133393059456,-0.737695670026621,0.));
#875=DIRECTION('',(0.675133393059456,-0.737695670026621,0.));
#876=DIRECTION('',(0.,0.,1.));
#877=DIRECTION('center_axis',(-0.887296679728806,-0.461199091653743,0.));
#878=DIRECTION('ref_axis',(0.461199091653743,-0.887296679728806,0.));
#879=DIRECTION('',(0.461199091653743,-0.887296679728806,0.));
#880=DIRECTION('',(0.461199091653743,-0.887296679728806,0.));
#881=DIRECTION('',(0.,0.,1.));
#882=DIRECTION('center_axis',(-0.976429887034565,-0.215834834319364,0.));
#883=DIRECTION('ref_axis',(0.215834834319364,-0.976429887034565,0.));
#884=DIRECTION('',(0.215834834319364,-0.976429887034565,0.));
#885=DIRECTION('',(0.215834834319364,-0.976429887034565,0.));
#886=DIRECTION('',(0.,0.,1.));
#887=DIRECTION('center_axis',(-0.999021011165602,0.0442382102899526,0.));
#888=DIRECTION('ref_axis',(-0.0442382102899526,-0.999021011165602,0.));
#889=DIRECTION('',(-0.0442382102899526,-0.999021011165602,0.));
#890=DIRECTION('',(-0.0442382102899526,-0.999021011165602,0.));
#891=DIRECTION('',(0.,0.,1.));
#892=DIRECTION('center_axis',(-0.953530504345985,0.301296493975106,0.));
#893=DIRECTION('ref_axis',(-0.301296493975106,-0.953530504345985,0.));
#894=DIRECTION('',(-0.301296493975106,-0.953530504345985,0.));
#895=DIRECTION('',(-0.301296493975106,-0.953530504345985,0.));
#896=DIRECTION('',(0.,0.,1.));
#897=DIRECTION('center_axis',(-0.843058469438852,0.537821919511858,0.));
#898=DIRECTION('ref_axis',(-0.537821919511858,-0.843058469438852,0.));
#899=DIRECTION('',(-0.537821919511858,-0.843058469438852,0.));
#900=DIRECTION('',(-0.537821919511858,-0.843058469438852,0.));
#901=DIRECTION('',(0.,0.,1.));
#902=DIRECTION('center_axis',(-0.675133393059456,0.737695670026622,0.));
#903=DIRECTION('ref_axis',(-0.737695670026622,-0.675133393059456,0.));
#904=DIRECTION('',(-0.737695670026622,-0.675133393059456,0.));
#905=DIRECTION('',(-0.737695670026622,-0.675133393059456,0.));
#906=DIRECTION('',(0.,0.,1.));
#907=DIRECTION('center_axis',(-0.461199091653742,0.887296679728806,0.));
#908=DIRECTION('ref_axis',(-0.887296679728806,-0.461199091653742,0.));
#909=DIRECTION('',(-0.887296679728806,-0.461199091653742,0.));
#910=DIRECTION('',(-0.887296679728806,-0.461199091653742,0.));
#911=DIRECTION('',(0.,0.,1.));
#912=DIRECTION('center_axis',(-0.215834834319363,0.976429887034565,0.));
#913=DIRECTION('ref_axis',(-0.976429887034565,-0.215834834319363,0.));
#914=DIRECTION('',(-0.976429887034565,-0.215834834319363,0.));
#915=DIRECTION('',(-0.976429887034565,-0.215834834319363,0.));
#916=DIRECTION('',(0.,0.,1.));
#917=DIRECTION('center_axis',(0.044238210289954,0.999021011165602,0.));
#918=DIRECTION('ref_axis',(-0.999021011165602,0.044238210289954,0.));
#919=DIRECTION('',(-0.999021011165602,0.044238210289954,0.));
#920=DIRECTION('',(-0.999021011165602,0.044238210289954,0.));
#921=DIRECTION('',(0.,0.,1.));
#922=DIRECTION('center_axis',(0.301296493975109,0.953530504345984,0.));
#923=DIRECTION('ref_axis',(-0.953530504345984,0.301296493975109,0.));
#924=DIRECTION('',(-0.953530504345984,0.301296493975109,0.));
#925=DIRECTION('',(-0.953530504345984,0.301296493975109,0.));
#926=DIRECTION('',(0.,0.,1.));
#927=DIRECTION('center_axis',(0.53782191951186,0.843058469438851,0.));
#928=DIRECTION('ref_axis',(-0.843058469438851,0.53782191951186,0.));
#929=DIRECTION('',(-0.843058469438851,0.53782191951186,0.));
#930=DIRECTION('',(-0.843058469438851,0.53782191951186,0.));
#931=DIRECTION('center_axis',(0.,0.,1.));
#932=DIRECTION('ref_axis',(1.,0.,0.));
#933=DIRECTION('center_axis',(0.,0.,1.));
#934=DIRECTION('ref_axis',(1.,0.,0.));
#935=CARTESIAN_POINT('',(0.,0.,0.));
#936=CARTESIAN_POINT('Origin',(-65.472170522144,1.35069804895783,9.));
#937=CARTESIAN_POINT('',(-65.472170522144,1.35069804895783,9.));
#938=CARTESIAN_POINT('',(-68.9058240843116,4.59656437630622,9.));
#939=CARTESIAN_POINT('',(-66.3305839126859,2.16216463079493,9.));
#940=CARTESIAN_POINT('',(-65.472170522144,1.35069804895783,13.15));
#941=CARTESIAN_POINT('',(-65.472170522144,1.35069804895783,9.));
#942=CARTESIAN_POINT('',(-68.9058240843116,4.59656437630622,13.15));
#943=CARTESIAN_POINT('',(-68.9058240843116,4.59656437630622,13.15));
#944=CARTESIAN_POINT('',(-68.9058240843116,4.59656437630622,9.));
#945=CARTESIAN_POINT('Origin',(-66.5663464378325,-3.24586632734839,9.));
#946=CARTESIAN_POINT('',(-66.5663464378325,-3.24586632734839,9.));
#947=CARTESIAN_POINT('',(-66.2928024589103,-2.09672523327183,9.));
#948=CARTESIAN_POINT('',(-66.5663464378325,-3.24586632734839,13.15));
#949=CARTESIAN_POINT('',(-66.5663464378325,-3.24586632734839,9.));
#950=CARTESIAN_POINT('',(-65.472170522144,1.35069804895783,13.15));
#951=CARTESIAN_POINT('Origin',(-71.0941759156884,-4.59656437630622,9.));
#952=CARTESIAN_POINT('',(-71.0941759156884,-4.59656437630622,9.));
#953=CARTESIAN_POINT('',(-69.9622185462244,-4.25888986406676,9.));
#954=CARTESIAN_POINT('',(-71.0941759156884,-4.59656437630622,13.15));
#955=CARTESIAN_POINT('',(-71.0941759156884,-4.59656437630622,9.));
#956=CARTESIAN_POINT('',(-66.5663464378325,-3.24586632734839,13.15));
#957=CARTESIAN_POINT('Origin',(-74.527829477856,-1.35069804895783,9.));
#958=CARTESIAN_POINT('',(-74.527829477856,-1.35069804895783,9.));
#959=CARTESIAN_POINT('',(-73.6694160873141,-2.16216463079493,9.));
#960=CARTESIAN_POINT('',(-74.527829477856,-1.35069804895783,13.15));
#961=CARTESIAN_POINT('',(-74.527829477856,-1.35069804895783,9.));
#962=CARTESIAN_POINT('',(-71.0941759156884,-4.59656437630622,13.15));
#963=CARTESIAN_POINT('Origin',(-73.4336535621675,3.24586632734839,9.));
#964=CARTESIAN_POINT('',(-73.4336535621675,3.24586632734839,9.));
#965=CARTESIAN_POINT('',(-73.7071975410897,2.09672523327183,9.));
#966=CARTESIAN_POINT('',(-73.4336535621675,3.24586632734839,13.15));
#967=CARTESIAN_POINT('',(-73.4336535621675,3.24586632734839,9.));
#968=CARTESIAN_POINT('',(-74.527829477856,-1.35069804895783,13.15));
#969=CARTESIAN_POINT('Origin',(-68.9058240843116,4.59656437630622,9.));
#970=CARTESIAN_POINT('',(-70.0377814537756,4.25888986406676,9.));
#971=CARTESIAN_POINT('',(-73.4336535621675,3.24586632734839,13.15));
#972=CARTESIAN_POINT('Origin',(-70.,0.,13.15));
#973=CARTESIAN_POINT('',(-72.65,-3.24531401774048E-16,13.15));
#974=CARTESIAN_POINT('Origin',(-70.,0.,13.15));
#975=CARTESIAN_POINT('Origin',(-70.,0.,0.));
#976=CARTESIAN_POINT('',(-79.95,-1.21852356515162E-15,0.));
#977=CARTESIAN_POINT('Origin',(-70.,0.,0.));
#978=CARTESIAN_POINT('',(-79.95,-1.21852356515162E-15,9.));
#979=CARTESIAN_POINT('',(-79.95,-1.21852356515162E-15,0.));
#980=CARTESIAN_POINT('Origin',(-70.,0.,9.));
#981=CARTESIAN_POINT('Origin',(-70.,0.,9.));
#982=CARTESIAN_POINT('Origin',(-70.,0.,0.));
#983=CARTESIAN_POINT('',(-72.65,-3.24531401774048E-16,16.3));
#984=CARTESIAN_POINT('Origin',(-70.,0.,16.3));
#985=CARTESIAN_POINT('',(-72.65,-3.24531401774048E-16,0.));
#986=CARTESIAN_POINT('Origin',(-60.3298153663614,6.76221333228543,0.));
#987=CARTESIAN_POINT('',(-60.3298153663614,6.76221333228543,0.));
#988=CARTESIAN_POINT('',(-62.4095085148264,9.03462445337419,0.));
#989=CARTESIAN_POINT('',(-60.3298153663614,6.76221333228543,0.));
#990=CARTESIAN_POINT('',(-62.4095085148264,9.03462445337419,16.3));
#991=CARTESIAN_POINT('',(-62.4095085148264,9.03462445337419,0.));
#992=CARTESIAN_POINT('',(-60.3298153663614,6.76221333228543,16.3));
#993=CARTESIAN_POINT('',(-60.3298153663614,6.76221333228543,16.3));
#994=CARTESIAN_POINT('',(-60.3298153663614,6.76221333228543,0.));
#995=CARTESIAN_POINT('Origin',(-58.9091293199431,4.02896854768734,0.));
#996=CARTESIAN_POINT('',(-58.9091293199431,4.02896854768734,0.));
#997=CARTESIAN_POINT('',(-58.9091293199431,4.02896854768734,0.));
#998=CARTESIAN_POINT('',(-58.9091293199431,4.02896854768734,16.3));
#999=CARTESIAN_POINT('',(-58.9091293199431,4.02896854768734,16.3));
#1000=CARTESIAN_POINT('',(-58.9091293199431,4.02896854768734,0.));
#1001=CARTESIAN_POINT('Origin',(-58.2442677818403,1.02115621474968,0.));
#1002=CARTESIAN_POINT('',(-58.2442677818403,1.02115621474968,0.));
#1003=CARTESIAN_POINT('',(-58.2442677818403,1.02115621474968,0.));
#1004=CARTESIAN_POINT('',(-58.2442677818403,1.02115621474968,16.3));
#1005=CARTESIAN_POINT('',(-58.2442677818403,1.02115621474968,16.3));
#1006=CARTESIAN_POINT('',(-58.2442677818403,1.02115621474968,0.));
#1007=CARTESIAN_POINT('Origin',(-58.3805399671391,-2.05624622668273,0.));
#1008=CARTESIAN_POINT('',(-58.3805399671391,-2.05624622668273,0.));
#1009=CARTESIAN_POINT('',(-58.3805399671391,-2.05624622668273,0.));
#1010=CARTESIAN_POINT('',(-58.3805399671391,-2.05624622668273,16.3));
#1011=CARTESIAN_POINT('',(-58.3805399671391,-2.05624622668273,16.3));
#1012=CARTESIAN_POINT('',(-58.3805399671391,-2.05624622668273,0.));
#1013=CARTESIAN_POINT('Origin',(-59.3086591516117,-4.99351888587427,0.));
#1014=CARTESIAN_POINT('',(-59.3086591516117,-4.99351888587427,0.));
#1015=CARTESIAN_POINT('',(-59.3086591516117,-4.99351888587427,0.));
#1016=CARTESIAN_POINT('',(-59.3086591516117,-4.99351888587427,16.3));
#1017=CARTESIAN_POINT('',(-59.3086591516117,-4.99351888587427,16.3));
#1018=CARTESIAN_POINT('',(-59.3086591516117,-4.99351888587427,0.));
#1019=CARTESIAN_POINT('Origin',(-60.9653755466258,-7.59049148517361,0.));
#1020=CARTESIAN_POINT('',(-60.9653755466258,-7.59049148517361,0.));
#1021=CARTESIAN_POINT('',(-60.9653755466258,-7.59049148517361,0.));
#1022=CARTESIAN_POINT('',(-60.9653755466258,-7.59049148517361,16.3));
#1023=CARTESIAN_POINT('',(-60.9653755466258,-7.59049148517361,16.3));
#1024=CARTESIAN_POINT('',(-60.9653755466258,-7.59049148517361,0.));
#1025=CARTESIAN_POINT('Origin',(-63.2377866677146,-9.67018463363864,0.));
#1026=CARTESIAN_POINT('',(-63.2377866677146,-9.67018463363864,0.));
#1027=CARTESIAN_POINT('',(-63.2377866677146,-9.67018463363864,0.));
#1028=CARTESIAN_POINT('',(-63.2377866677146,-9.67018463363864,16.3));
#1029=CARTESIAN_POINT('',(-63.2377866677146,-9.67018463363864,16.3));
#1030=CARTESIAN_POINT('',(-63.2377866677146,-9.67018463363864,0.));
#1031=CARTESIAN_POINT('Origin',(-65.9710314523127,-11.0908706800569,0.));
#1032=CARTESIAN_POINT('',(-65.9710314523127,-11.0908706800569,0.));
#1033=CARTESIAN_POINT('',(-65.9710314523127,-11.0908706800569,0.));
#1034=CARTESIAN_POINT('',(-65.9710314523127,-11.0908706800569,16.3));
#1035=CARTESIAN_POINT('',(-65.9710314523127,-11.0908706800569,16.3));
#1036=CARTESIAN_POINT('',(-65.9710314523127,-11.0908706800569,0.));
#1037=CARTESIAN_POINT('Origin',(-68.9788437852503,-11.7557322181597,0.));
#1038=CARTESIAN_POINT('',(-68.9788437852503,-11.7557322181597,0.));
#1039=CARTESIAN_POINT('',(-68.9788437852503,-11.7557322181597,0.));
#1040=CARTESIAN_POINT('',(-68.9788437852503,-11.7557322181597,16.3));
#1041=CARTESIAN_POINT('',(-68.9788437852503,-11.7557322181597,16.3));
#1042=CARTESIAN_POINT('',(-68.9788437852503,-11.7557322181597,0.));
#1043=CARTESIAN_POINT('Origin',(-72.0562462266827,-11.6194600328609,0.));
#1044=CARTESIAN_POINT('',(-72.0562462266827,-11.6194600328609,0.));
#1045=CARTESIAN_POINT('',(-72.0562462266827,-11.6194600328609,0.));
#1046=CARTESIAN_POINT('',(-72.0562462266827,-11.6194600328609,16.3));
#1047=CARTESIAN_POINT('',(-72.0562462266827,-11.6194600328609,16.3));
#1048=CARTESIAN_POINT('',(-72.0562462266827,-11.6194600328609,0.));
#1049=CARTESIAN_POINT('Origin',(-74.9935188858743,-10.6913408483883,0.));
#1050=CARTESIAN_POINT('',(-74.9935188858743,-10.6913408483883,0.));
#1051=CARTESIAN_POINT('',(-74.9935188858743,-10.6913408483883,0.));
#1052=CARTESIAN_POINT('',(-74.9935188858743,-10.6913408483883,16.3));
#1053=CARTESIAN_POINT('',(-74.9935188858743,-10.6913408483883,16.3));
#1054=CARTESIAN_POINT('',(-74.9935188858743,-10.6913408483883,0.));
#1055=CARTESIAN_POINT('Origin',(-77.5904914851736,-9.03462445337419,0.));
#1056=CARTESIAN_POINT('',(-77.5904914851736,-9.03462445337419,0.));
#1057=CARTESIAN_POINT('',(-77.5904914851736,-9.03462445337419,0.));
#1058=CARTESIAN_POINT('',(-77.5904914851736,-9.03462445337419,16.3));
#1059=CARTESIAN_POINT('',(-77.5904914851736,-9.03462445337419,16.3));
#1060=CARTESIAN_POINT('',(-77.5904914851736,-9.03462445337419,0.));
#1061=CARTESIAN_POINT('Origin',(-79.6701846336386,-6.76221333228544,0.));
#1062=CARTESIAN_POINT('',(-79.6701846336386,-6.76221333228544,0.));
#1063=CARTESIAN_POINT('',(-79.6701846336386,-6.76221333228544,0.));
#1064=CARTESIAN_POINT('',(-79.6701846336386,-6.76221333228544,16.3));
#1065=CARTESIAN_POINT('',(-79.6701846336386,-6.76221333228544,16.3));
#1066=CARTESIAN_POINT('',(-79.6701846336386,-6.76221333228544,0.));
#1067=CARTESIAN_POINT('Origin',(-81.0908706800569,-4.02896854768735,0.));
#1068=CARTESIAN_POINT('',(-81.0908706800569,-4.02896854768735,0.));
#1069=CARTESIAN_POINT('',(-81.0908706800569,-4.02896854768735,0.));
#1070=CARTESIAN_POINT('',(-81.0908706800569,-4.02896854768735,16.3));
#1071=CARTESIAN_POINT('',(-81.0908706800569,-4.02896854768735,16.3));
#1072=CARTESIAN_POINT('',(-81.0908706800569,-4.02896854768735,0.));
#1073=CARTESIAN_POINT('Origin',(-81.7557322181597,-1.0211562147497,0.));
#1074=CARTESIAN_POINT('',(-81.7557322181597,-1.0211562147497,0.));
#1075=CARTESIAN_POINT('',(-81.7557322181597,-1.0211562147497,0.));
#1076=CARTESIAN_POINT('',(-81.7557322181597,-1.0211562147497,16.3));
#1077=CARTESIAN_POINT('',(-81.7557322181597,-1.0211562147497,16.3));
#1078=CARTESIAN_POINT('',(-81.7557322181597,-1.0211562147497,0.));
#1079=CARTESIAN_POINT('Origin',(-81.619460032861,2.05624622668272,0.));
#1080=CARTESIAN_POINT('',(-81.619460032861,2.05624622668272,0.));
#1081=CARTESIAN_POINT('',(-81.619460032861,2.05624622668272,0.));
#1082=CARTESIAN_POINT('',(-81.619460032861,2.05624622668272,16.3));
#1083=CARTESIAN_POINT('',(-81.619460032861,2.05624622668272,16.3));
#1084=CARTESIAN_POINT('',(-81.619460032861,2.05624622668272,0.));
#1085=CARTESIAN_POINT('Origin',(-80.6913408483884,4.99351888587426,0.));
#1086=CARTESIAN_POINT('',(-80.6913408483884,4.99351888587426,0.));
#1087=CARTESIAN_POINT('',(-80.6913408483884,4.99351888587426,0.));
#1088=CARTESIAN_POINT('',(-80.6913408483884,4.99351888587426,16.3));
#1089=CARTESIAN_POINT('',(-80.6913408483884,4.99351888587426,16.3));
#1090=CARTESIAN_POINT('',(-80.6913408483884,4.99351888587426,0.));
#1091=CARTESIAN_POINT('Origin',(-79.0346244533742,7.59049148517361,0.));
#1092=CARTESIAN_POINT('',(-79.0346244533742,7.59049148517361,0.));
#1093=CARTESIAN_POINT('',(-79.0346244533742,7.59049148517361,0.));
#1094=CARTESIAN_POINT('',(-79.0346244533742,7.59049148517361,16.3));
#1095=CARTESIAN_POINT('',(-79.0346244533742,7.59049148517361,16.3));
#1096=CARTESIAN_POINT('',(-79.0346244533742,7.59049148517361,0.));
#1097=CARTESIAN_POINT('Origin',(-76.7622133322855,9.67018463363865,0.));
#1098=CARTESIAN_POINT('',(-76.7622133322855,9.67018463363865,0.));
#1099=CARTESIAN_POINT('',(-76.7622133322855,9.67018463363865,0.));
#1100=CARTESIAN_POINT('',(-76.7622133322855,9.67018463363865,16.3));
#1101=CARTESIAN_POINT('',(-76.7622133322855,9.67018463363865,16.3));
#1102=CARTESIAN_POINT('',(-76.7622133322855,9.67018463363865,0.));
#1103=CARTESIAN_POINT('Origin',(-74.0289685476874,11.0908706800569,0.));
#1104=CARTESIAN_POINT('',(-74.0289685476874,11.0908706800569,0.));
#1105=CARTESIAN_POINT('',(-74.0289685476874,11.0908706800569,0.));
#1106=CARTESIAN_POINT('',(-74.0289685476874,11.0908706800569,16.3));
#1107=CARTESIAN_POINT('',(-74.0289685476874,11.0908706800569,16.3));
#1108=CARTESIAN_POINT('',(-74.0289685476874,11.0908706800569,0.));
#1109=CARTESIAN_POINT('Origin',(-71.0211562147497,11.7557322181597,0.));
#1110=CARTESIAN_POINT('',(-71.0211562147497,11.7557322181597,0.));
#1111=CARTESIAN_POINT('',(-71.0211562147497,11.7557322181597,0.));
#1112=CARTESIAN_POINT('',(-71.0211562147497,11.7557322181597,16.3));
#1113=CARTESIAN_POINT('',(-71.0211562147497,11.7557322181597,16.3));
#1114=CARTESIAN_POINT('',(-71.0211562147497,11.7557322181597,0.));
#1115=CARTESIAN_POINT('Origin',(-67.9437537733173,11.619460032861,0.));
#1116=CARTESIAN_POINT('',(-67.9437537733173,11.619460032861,0.));
#1117=CARTESIAN_POINT('',(-67.9437537733173,11.619460032861,0.));
#1118=CARTESIAN_POINT('',(-67.9437537733173,11.619460032861,16.3));
#1119=CARTESIAN_POINT('',(-67.9437537733173,11.619460032861,16.3));
#1120=CARTESIAN_POINT('',(-67.9437537733173,11.619460032861,0.));
#1121=CARTESIAN_POINT('Origin',(-65.0064811141257,10.6913408483883,0.));
#1122=CARTESIAN_POINT('',(-65.0064811141257,10.6913408483883,0.));
#1123=CARTESIAN_POINT('',(-65.0064811141257,10.6913408483883,0.));
#1124=CARTESIAN_POINT('',(-65.0064811141257,10.6913408483883,16.3));
#1125=CARTESIAN_POINT('',(-65.0064811141257,10.6913408483883,16.3));
#1126=CARTESIAN_POINT('',(-65.0064811141257,10.6913408483883,0.));
#1127=CARTESIAN_POINT('Origin',(-62.4095085148264,9.03462445337419,0.));
#1128=CARTESIAN_POINT('',(-62.4095085148264,9.03462445337419,0.));
#1129=CARTESIAN_POINT('',(-62.4095085148264,9.03462445337419,16.3));
#1130=CARTESIAN_POINT('Origin',(-70.,4.44089209850063E-15,16.3));
#1131=CARTESIAN_POINT('Origin',(-70.,4.44089209850063E-15,0.));
#1132=UNCERTAINTY_MEASURE_WITH_UNIT(LENGTH_MEASURE(0.01),#1136,
'DISTANCE_ACCURACY_VALUE',
'Maximum model space distance between geometric entities at asserted c
onnectivities');
#1133=UNCERTAINTY_MEASURE_WITH_UNIT(LENGTH_MEASURE(0.01),#1136,
'DISTANCE_ACCURACY_VALUE',
'Maximum model space distance between geometric entities at asserted c
onnectivities');
#1134=(
GEOMETRIC_REPRESENTATION_CONTEXT(3)
GLOBAL_UNCERTAINTY_ASSIGNED_CONTEXT((#1132))
GLOBAL_UNIT_ASSIGNED_CONTEXT((#1136,#1138,#1139))
REPRESENTATION_CONTEXT('','3D')
);
#1135=(
GEOMETRIC_REPRESENTATION_CONTEXT(3)
GLOBAL_UNCERTAINTY_ASSIGNED_CONTEXT((#1133))
GLOBAL_UNIT_ASSIGNED_CONTEXT((#1136,#1138,#1139))
REPRESENTATION_CONTEXT('','3D')
);
#1136=(
LENGTH_UNIT()
NAMED_UNIT(*)
SI_UNIT(.MILLI.,.METRE.)
);
#1137=(
LENGTH_UNIT()
NAMED_UNIT(*)
SI_UNIT($,.METRE.)
);
#1138=(
NAMED_UNIT(*)
PLANE_ANGLE_UNIT()
SI_UNIT($,.RADIAN.)
);
#1139=(
NAMED_UNIT(*)
SI_UNIT($,.STERADIAN.)
SOLID_ANGLE_UNIT()
);
#1140=SHAPE_DEFINITION_REPRESENTATION(#1141,#1142);
#1141=PRODUCT_DEFINITION_SHAPE('',$,#1144);
#1142=SHAPE_REPRESENTATION('',(#720),#1134);
#1143=PRODUCT_DEFINITION_CONTEXT('part definition',#1148,'design');
#1144=PRODUCT_DEFINITION('etau','etau v14',#1145,#1143);
#1145=PRODUCT_DEFINITION_FORMATION('',$,#1150);
#1146=PRODUCT_RELATED_PRODUCT_CATEGORY('etau v14','etau v14',(#1150));
#1147=APPLICATION_PROTOCOL_DEFINITION('international standard',
'automotive_design',2009,#1148);
#1148=APPLICATION_CONTEXT(
'Core Data for Automotive Mechanical Design Process');
#1149=PRODUCT_CONTEXT('part definition',#1148,'mechanical');
#1150=PRODUCT('etau','etau v14',$,(#1149));
#1151=PRESENTATION_STYLE_ASSIGNMENT((#1152));
#1152=SURFACE_STYLE_USAGE(.BOTH.,#1153);
#1153=SURFACE_SIDE_STYLE('',(#1154));
#1154=SURFACE_STYLE_FILL_AREA(#1155);
#1155=FILL_AREA_STYLE('Acier - Satin\X\E9',(#1156));
#1156=FILL_AREA_STYLE_COLOUR('Acier - Satin\X\E9',#1157);
#1157=COLOUR_RGB('Acier - Satin\X\E9',0.627450980392157,0.627450980392157,
0.627450980392157);
ENDSEC;
END-ISO-10303-21;
