ISO-10303-21;
HEADER;
/* Generated by software containing ST-Developer
 * from STEP Tools, Inc. (www.steptools.com) 
 */

FILE_DESCRIPTION(
/* description */ (''),
/* implementation_level */ '2;1');

FILE_NAME(
/* name */ 'etau3_molette.step',
/* time_stamp */ '2025-10-31T14:31:16+01:00',
/* author */ (''),
/* organization */ (''),
/* preprocessor_version */ 'ST-DEVELOPER v20.1',
/* originating_system */ 'Autodesk Translation Framework v14.17.0.0',
/* authorisation */ '');

FILE_SCHEMA (('AUTOMOTIVE_DESIGN { 1 0 10303 214 3 1 1 }'));
ENDSEC;

DATA;
#10=MECHANICAL_DESIGN_GEOMETRIC_PRESENTATION_REPRESENTATION('',(#13),#1266);
#11=SHAPE_REPRESENTATION_RELATIONSHIP('SRR','None',#1273,#12);
#12=ADVANCED_BREP_SHAPE_REPRESENTATION('',(#14),#1265);
#13=STYLED_ITEM('',(#1282),#14);
#14=MANIFOLD_SOLID_BREP('Corps8',#774);
#15=FACE_BOUND('',#104,.T.);
#16=FACE_BOUND('',#118,.T.);
#17=FACE_BOUND('',#146,.T.);
#18=FACE_BOUND('',#148,.T.);
#19=PLANE('',#797);
#20=PLANE('',#799);
#21=PLANE('',#800);
#22=PLANE('',#801);
#23=PLANE('',#802);
#24=PLANE('',#803);
#25=PLANE('',#804);
#26=PLANE('',#805);
#27=PLANE('',#806);
#28=PLANE('',#807);
#29=PLANE('',#808);
#30=PLANE('',#809);
#31=PLANE('',#810);
#32=PLANE('',#811);
#33=PLANE('',#817);
#34=PLANE('',#818);
#35=PLANE('',#819);
#36=PLANE('',#820);
#37=PLANE('',#821);
#38=PLANE('',#822);
#39=PLANE('',#823);
#40=PLANE('',#824);
#41=PLANE('',#825);
#42=PLANE('',#826);
#43=PLANE('',#827);
#44=PLANE('',#828);
#45=PLANE('',#829);
#46=PLANE('',#830);
#47=PLANE('',#831);
#48=PLANE('',#832);
#49=PLANE('',#833);
#50=PLANE('',#834);
#51=PLANE('',#835);
#52=PLANE('',#836);
#53=PLANE('',#837);
#54=PLANE('',#838);
#55=PLANE('',#839);
#56=PLANE('',#840);
#57=PLANE('',#841);
#58=PLANE('',#842);
#59=FACE_OUTER_BOUND('',#102,.T.);
#60=FACE_OUTER_BOUND('',#103,.T.);
#61=FACE_OUTER_BOUND('',#105,.T.);
#62=FACE_OUTER_BOUND('',#106,.T.);
#63=FACE_OUTER_BOUND('',#107,.T.);
#64=FACE_OUTER_BOUND('',#108,.T.);
#65=FACE_OUTER_BOUND('',#109,.T.);
#66=FACE_OUTER_BOUND('',#110,.T.);
#67=FACE_OUTER_BOUND('',#111,.T.);
#68=FACE_OUTER_BOUND('',#112,.T.);
#69=FACE_OUTER_BOUND('',#113,.T.);
#70=FACE_OUTER_BOUND('',#114,.T.);
#71=FACE_OUTER_BOUND('',#115,.T.);
#72=FACE_OUTER_BOUND('',#116,.T.);
#73=FACE_OUTER_BOUND('',#117,.T.);
#74=FACE_OUTER_BOUND('',#119,.T.);
#75=FACE_OUTER_BOUND('',#120,.T.);
#76=FACE_OUTER_BOUND('',#121,.T.);
#77=FACE_OUTER_BOUND('',#122,.T.);
#78=FACE_OUTER_BOUND('',#123,.T.);
#79=FACE_OUTER_BOUND('',#124,.T.);
#80=FACE_OUTER_BOUND('',#125,.T.);
#81=FACE_OUTER_BOUND('',#126,.T.);
#82=FACE_OUTER_BOUND('',#127,.T.);
#83=FACE_OUTER_BOUND('',#128,.T.);
#84=FACE_OUTER_BOUND('',#129,.T.);
#85=FACE_OUTER_BOUND('',#130,.T.);
#86=FACE_OUTER_BOUND('',#131,.T.);
#87=FACE_OUTER_BOUND('',#132,.T.);
#88=FACE_OUTER_BOUND('',#133,.T.);
#89=FACE_OUTER_BOUND('',#134,.T.);
#90=FACE_OUTER_BOUND('',#135,.T.);
#91=FACE_OUTER_BOUND('',#136,.T.);
#92=FACE_OUTER_BOUND('',#137,.T.);
#93=FACE_OUTER_BOUND('',#138,.T.);
#94=FACE_OUTER_BOUND('',#139,.T.);
#95=FACE_OUTER_BOUND('',#140,.T.);
#96=FACE_OUTER_BOUND('',#141,.T.);
#97=FACE_OUTER_BOUND('',#142,.T.);
#98=FACE_OUTER_BOUND('',#143,.T.);
#99=FACE_OUTER_BOUND('',#144,.T.);
#100=FACE_OUTER_BOUND('',#145,.T.);
#101=FACE_OUTER_BOUND('',#147,.T.);
#102=EDGE_LOOP('',(#518,#519,#520,#521,#522,#523,#524,#525,#526,#527));
#103=EDGE_LOOP('',(#528));
#104=EDGE_LOOP('',(#529));
#105=EDGE_LOOP('',(#530,#531));
#106=EDGE_LOOP('',(#532,#533));
#107=EDGE_LOOP('',(#534,#535));
#108=EDGE_LOOP('',(#536,#537));
#109=EDGE_LOOP('',(#538,#539));
#110=EDGE_LOOP('',(#540,#541,#542));
#111=EDGE_LOOP('',(#543,#544,#545,#546));
#112=EDGE_LOOP('',(#547,#548,#549,#550));
#113=EDGE_LOOP('',(#551,#552,#553,#554));
#114=EDGE_LOOP('',(#555,#556,#557,#558));
#115=EDGE_LOOP('',(#559,#560,#561,#562));
#116=EDGE_LOOP('',(#563,#564,#565,#566));
#117=EDGE_LOOP('',(#567,#568,#569,#570,#571,#572));
#118=EDGE_LOOP('',(#573));
#119=EDGE_LOOP('',(#574,#575,#576,#577));
#120=EDGE_LOOP('',(#578,#579,#580,#581));
#121=EDGE_LOOP('',(#582,#583,#584,#585));
#122=EDGE_LOOP('',(#586,#587,#588,#589));
#123=EDGE_LOOP('',(#590,#591,#592,#593));
#124=EDGE_LOOP('',(#594,#595,#596,#597));
#125=EDGE_LOOP('',(#598,#599,#600,#601));
#126=EDGE_LOOP('',(#602,#603,#604,#605));
#127=EDGE_LOOP('',(#606,#607,#608,#609));
#128=EDGE_LOOP('',(#610,#611,#612,#613));
#129=EDGE_LOOP('',(#614,#615,#616,#617));
#130=EDGE_LOOP('',(#618,#619,#620,#621));
#131=EDGE_LOOP('',(#622,#623,#624,#625));
#132=EDGE_LOOP('',(#626,#627,#628,#629));
#133=EDGE_LOOP('',(#630,#631,#632,#633));
#134=EDGE_LOOP('',(#634,#635,#636,#637));
#135=EDGE_LOOP('',(#638,#639,#640,#641));
#136=EDGE_LOOP('',(#642,#643,#644,#645));
#137=EDGE_LOOP('',(#646,#647,#648,#649));
#138=EDGE_LOOP('',(#650,#651,#652,#653));
#139=EDGE_LOOP('',(#654,#655,#656,#657));
#140=EDGE_LOOP('',(#658,#659,#660,#661));
#141=EDGE_LOOP('',(#662,#663,#664,#665));
#142=EDGE_LOOP('',(#666,#667,#668,#669));
#143=EDGE_LOOP('',(#670,#671,#672,#673));
#144=EDGE_LOOP('',(#674,#675,#676,#677));
#145=EDGE_LOOP('',(#678,#679,#680,#681,#682,#683,#684,#685,#686,#687,#688,
#689,#690,#691,#692,#693,#694,#695,#696,#697,#698,#699,#700,#701));
#146=EDGE_LOOP('',(#702));
#147=EDGE_LOOP('',(#703,#704,#705,#706,#707,#708,#709,#710,#711,#712,#713,
#714,#715,#716,#717,#718,#719,#720,#721,#722,#723,#724,#725,#726));
#148=EDGE_LOOP('',(#727));
#149=LINE('',#1053,#242);
#150=LINE('',#1071,#243);
#151=LINE('',#1073,#244);
#152=LINE('',#1075,#245);
#153=LINE('',#1077,#246);
#154=LINE('',#1079,#247);
#155=LINE('',#1081,#248);
#156=LINE('',#1084,#249);
#157=LINE('',#1086,#250);
#158=LINE('',#1087,#251);
#159=LINE('',#1090,#252);
#160=LINE('',#1091,#253);
#161=LINE('',#1094,#254);
#162=LINE('',#1095,#255);
#163=LINE('',#1098,#256);
#164=LINE('',#1099,#257);
#165=LINE('',#1102,#258);
#166=LINE('',#1103,#259);
#167=LINE('',#1105,#260);
#168=LINE('',#1112,#261);
#169=LINE('',#1116,#262);
#170=LINE('',#1120,#263);
#171=LINE('',#1122,#264);
#172=LINE('',#1124,#265);
#173=LINE('',#1125,#266);
#174=LINE('',#1128,#267);
#175=LINE('',#1130,#268);
#176=LINE('',#1131,#269);
#177=LINE('',#1134,#270);
#178=LINE('',#1136,#271);
#179=LINE('',#1137,#272);
#180=LINE('',#1140,#273);
#181=LINE('',#1142,#274);
#182=LINE('',#1143,#275);
#183=LINE('',#1146,#276);
#184=LINE('',#1148,#277);
#185=LINE('',#1149,#278);
#186=LINE('',#1152,#279);
#187=LINE('',#1154,#280);
#188=LINE('',#1155,#281);
#189=LINE('',#1158,#282);
#190=LINE('',#1160,#283);
#191=LINE('',#1161,#284);
#192=LINE('',#1164,#285);
#193=LINE('',#1166,#286);
#194=LINE('',#1167,#287);
#195=LINE('',#1170,#288);
#196=LINE('',#1172,#289);
#197=LINE('',#1173,#290);
#198=LINE('',#1176,#291);
#199=LINE('',#1178,#292);
#200=LINE('',#1179,#293);
#201=LINE('',#1182,#294);
#202=LINE('',#1184,#295);
#203=LINE('',#1185,#296);
#204=LINE('',#1188,#297);
#205=LINE('',#1190,#298);
#206=LINE('',#1191,#299);
#207=LINE('',#1194,#300);
#208=LINE('',#1196,#301);
#209=LINE('',#1197,#302);
#210=LINE('',#1200,#303);
#211=LINE('',#1202,#304);
#212=LINE('',#1203,#305);
#213=LINE('',#1206,#306);
#214=LINE('',#1208,#307);
#215=LINE('',#1209,#308);
#216=LINE('',#1212,#309);
#217=LINE('',#1214,#310);
#218=LINE('',#1215,#311);
#219=LINE('',#1218,#312);
#220=LINE('',#1220,#313);
#221=LINE('',#1221,#314);
#222=LINE('',#1224,#315);
#223=LINE('',#1226,#316);
#224=LINE('',#1227,#317);
#225=LINE('',#1230,#318);
#226=LINE('',#1232,#319);
#227=LINE('',#1233,#320);
#228=LINE('',#1236,#321);
#229=LINE('',#1238,#322);
#230=LINE('',#1239,#323);
#231=LINE('',#1242,#324);
#232=LINE('',#1244,#325);
#233=LINE('',#1245,#326);
#234=LINE('',#1248,#327);
#235=LINE('',#1250,#328);
#236=LINE('',#1251,#329);
#237=LINE('',#1254,#330);
#238=LINE('',#1256,#331);
#239=LINE('',#1257,#332);
#240=LINE('',#1259,#333);
#241=LINE('',#1260,#334);
#242=VECTOR('',#849,4.725);
#243=VECTOR('',#870,10.);
#244=VECTOR('',#873,10.);
#245=VECTOR('',#876,10.);
#246=VECTOR('',#879,10.);
#247=VECTOR('',#882,10.);
#248=VECTOR('',#885,10.);
#249=VECTOR('',#888,10.);
#250=VECTOR('',#889,10.);
#251=VECTOR('',#890,10.);
#252=VECTOR('',#893,10.);
#253=VECTOR('',#894,10.);
#254=VECTOR('',#897,10.);
#255=VECTOR('',#898,10.);
#256=VECTOR('',#901,10.);
#257=VECTOR('',#902,10.);
#258=VECTOR('',#905,10.);
#259=VECTOR('',#906,10.);
#260=VECTOR('',#909,10.);
#261=VECTOR('',#918,8.825);
#262=VECTOR('',#923,2.65);
#263=VECTOR('',#926,10.);
#264=VECTOR('',#927,10.);
#265=VECTOR('',#928,10.);
#266=VECTOR('',#929,10.);
#267=VECTOR('',#932,10.);
#268=VECTOR('',#933,10.);
#269=VECTOR('',#934,10.);
#270=VECTOR('',#937,10.);
#271=VECTOR('',#938,10.);
#272=VECTOR('',#939,10.);
#273=VECTOR('',#942,10.);
#274=VECTOR('',#943,10.);
#275=VECTOR('',#944,10.);
#276=VECTOR('',#947,10.);
#277=VECTOR('',#948,10.);
#278=VECTOR('',#949,10.);
#279=VECTOR('',#952,10.);
#280=VECTOR('',#953,10.);
#281=VECTOR('',#954,10.);
#282=VECTOR('',#957,10.);
#283=VECTOR('',#958,10.);
#284=VECTOR('',#959,10.);
#285=VECTOR('',#962,10.);
#286=VECTOR('',#963,10.);
#287=VECTOR('',#964,10.);
#288=VECTOR('',#967,10.);
#289=VECTOR('',#968,10.);
#290=VECTOR('',#969,10.);
#291=VECTOR('',#972,10.);
#292=VECTOR('',#973,10.);
#293=VECTOR('',#974,10.);
#294=VECTOR('',#977,10.);
#295=VECTOR('',#978,10.);
#296=VECTOR('',#979,10.);
#297=VECTOR('',#982,10.);
#298=VECTOR('',#983,10.);
#299=VECTOR('',#984,10.);
#300=VECTOR('',#987,10.);
#301=VECTOR('',#988,10.);
#302=VECTOR('',#989,10.);
#303=VECTOR('',#992,10.);
#304=VECTOR('',#993,10.);
#305=VECTOR('',#994,10.);
#306=VECTOR('',#997,10.);
#307=VECTOR('',#998,10.);
#308=VECTOR('',#999,10.);
#309=VECTOR('',#1002,10.);
#310=VECTOR('',#1003,10.);
#311=VECTOR('',#1004,10.);
#312=VECTOR('',#1007,10.);
#313=VECTOR('',#1008,10.);
#314=VECTOR('',#1009,10.);
#315=VECTOR('',#1012,10.);
#316=VECTOR('',#1013,10.);
#317=VECTOR('',#1014,10.);
#318=VECTOR('',#1017,10.);
#319=VECTOR('',#1018,10.);
#320=VECTOR('',#1019,10.);
#321=VECTOR('',#1022,10.);
#322=VECTOR('',#1023,10.);
#323=VECTOR('',#1024,10.);
#324=VECTOR('',#1027,10.);
#325=VECTOR('',#1028,10.);
#326=VECTOR('',#1029,10.);
#327=VECTOR('',#1032,10.);
#328=VECTOR('',#1033,10.);
#329=VECTOR('',#1034,10.);
#330=VECTOR('',#1037,10.);
#331=VECTOR('',#1038,10.);
#332=VECTOR('',#1039,10.);
#333=VECTOR('',#1042,10.);
#334=VECTOR('',#1043,10.);
#335=CIRCLE('',#789,4.725);
#336=CIRCLE('',#790,4.725);
#337=CIRCLE('',#791,4.725);
#338=CIRCLE('',#792,4.725);
#339=CIRCLE('',#793,4.725);
#340=CIRCLE('',#794,4.725);
#341=CIRCLE('',#795,4.725);
#342=CIRCLE('',#796,4.725);
#343=CIRCLE('',#798,8.825);
#344=CIRCLE('',#812,2.65);
#345=CIRCLE('',#814,8.825);
#346=CIRCLE('',#816,2.65);
#347=VERTEX_POINT('',#1050);
#348=VERTEX_POINT('',#1052);
#349=VERTEX_POINT('',#1054);
#350=VERTEX_POINT('',#1056);
#351=VERTEX_POINT('',#1058);
#352=VERTEX_POINT('',#1060);
#353=VERTEX_POINT('',#1062);
#354=VERTEX_POINT('',#1064);
#355=VERTEX_POINT('',#1068);
#356=VERTEX_POINT('',#1083);
#357=VERTEX_POINT('',#1085);
#358=VERTEX_POINT('',#1089);
#359=VERTEX_POINT('',#1093);
#360=VERTEX_POINT('',#1097);
#361=VERTEX_POINT('',#1101);
#362=VERTEX_POINT('',#1107);
#363=VERTEX_POINT('',#1110);
#364=VERTEX_POINT('',#1114);
#365=VERTEX_POINT('',#1118);
#366=VERTEX_POINT('',#1119);
#367=VERTEX_POINT('',#1121);
#368=VERTEX_POINT('',#1123);
#369=VERTEX_POINT('',#1127);
#370=VERTEX_POINT('',#1129);
#371=VERTEX_POINT('',#1133);
#372=VERTEX_POINT('',#1135);
#373=VERTEX_POINT('',#1139);
#374=VERTEX_POINT('',#1141);
#375=VERTEX_POINT('',#1145);
#376=VERTEX_POINT('',#1147);
#377=VERTEX_POINT('',#1151);
#378=VERTEX_POINT('',#1153);
#379=VERTEX_POINT('',#1157);
#380=VERTEX_POINT('',#1159);
#381=VERTEX_POINT('',#1163);
#382=VERTEX_POINT('',#1165);
#383=VERTEX_POINT('',#1169);
#384=VERTEX_POINT('',#1171);
#385=VERTEX_POINT('',#1175);
#386=VERTEX_POINT('',#1177);
#387=VERTEX_POINT('',#1181);
#388=VERTEX_POINT('',#1183);
#389=VERTEX_POINT('',#1187);
#390=VERTEX_POINT('',#1189);
#391=VERTEX_POINT('',#1193);
#392=VERTEX_POINT('',#1195);
#393=VERTEX_POINT('',#1199);
#394=VERTEX_POINT('',#1201);
#395=VERTEX_POINT('',#1205);
#396=VERTEX_POINT('',#1207);
#397=VERTEX_POINT('',#1211);
#398=VERTEX_POINT('',#1213);
#399=VERTEX_POINT('',#1217);
#400=VERTEX_POINT('',#1219);
#401=VERTEX_POINT('',#1223);
#402=VERTEX_POINT('',#1225);
#403=VERTEX_POINT('',#1229);
#404=VERTEX_POINT('',#1231);
#405=VERTEX_POINT('',#1235);
#406=VERTEX_POINT('',#1237);
#407=VERTEX_POINT('',#1241);
#408=VERTEX_POINT('',#1243);
#409=VERTEX_POINT('',#1247);
#410=VERTEX_POINT('',#1249);
#411=VERTEX_POINT('',#1253);
#412=VERTEX_POINT('',#1255);
#413=EDGE_CURVE('',#347,#347,#335,.T.);
#414=EDGE_CURVE('',#347,#348,#149,.T.);
#415=EDGE_CURVE('',#349,#348,#336,.T.);
#416=EDGE_CURVE('',#350,#349,#337,.T.);
#417=EDGE_CURVE('',#351,#350,#338,.T.);
#418=EDGE_CURVE('',#352,#351,#339,.T.);
#419=EDGE_CURVE('',#353,#352,#340,.T.);
#420=EDGE_CURVE('',#354,#353,#341,.T.);
#421=EDGE_CURVE('',#348,#354,#342,.T.);
#422=EDGE_CURVE('',#355,#355,#343,.T.);
#423=EDGE_CURVE('',#353,#354,#150,.T.);
#424=EDGE_CURVE('',#352,#353,#151,.T.);
#425=EDGE_CURVE('',#351,#352,#152,.T.);
#426=EDGE_CURVE('',#350,#351,#153,.T.);
#427=EDGE_CURVE('',#349,#350,#154,.T.);
#428=EDGE_CURVE('',#354,#349,#155,.T.);
#429=EDGE_CURVE('',#349,#356,#156,.T.);
#430=EDGE_CURVE('',#356,#357,#157,.T.);
#431=EDGE_CURVE('',#350,#357,#158,.T.);
#432=EDGE_CURVE('',#354,#358,#159,.T.);
#433=EDGE_CURVE('',#358,#356,#160,.T.);
#434=EDGE_CURVE('',#353,#359,#161,.T.);
#435=EDGE_CURVE('',#359,#358,#162,.T.);
#436=EDGE_CURVE('',#352,#360,#163,.T.);
#437=EDGE_CURVE('',#360,#359,#164,.T.);
#438=EDGE_CURVE('',#351,#361,#165,.T.);
#439=EDGE_CURVE('',#361,#360,#166,.T.);
#440=EDGE_CURVE('',#357,#361,#167,.T.);
#441=EDGE_CURVE('',#362,#362,#344,.T.);
#442=EDGE_CURVE('',#363,#363,#345,.T.);
#443=EDGE_CURVE('',#363,#355,#168,.T.);
#444=EDGE_CURVE('',#364,#364,#346,.T.);
#445=EDGE_CURVE('',#364,#362,#169,.T.);
#446=EDGE_CURVE('',#365,#366,#170,.T.);
#447=EDGE_CURVE('',#366,#367,#171,.T.);
#448=EDGE_CURVE('',#368,#367,#172,.T.);
#449=EDGE_CURVE('',#365,#368,#173,.T.);
#450=EDGE_CURVE('',#369,#365,#174,.T.);
#451=EDGE_CURVE('',#370,#368,#175,.T.);
#452=EDGE_CURVE('',#369,#370,#176,.T.);
#453=EDGE_CURVE('',#371,#369,#177,.T.);
#454=EDGE_CURVE('',#372,#370,#178,.T.);
#455=EDGE_CURVE('',#371,#372,#179,.T.);
#456=EDGE_CURVE('',#373,#371,#180,.T.);
#457=EDGE_CURVE('',#374,#372,#181,.T.);
#458=EDGE_CURVE('',#373,#374,#182,.T.);
#459=EDGE_CURVE('',#375,#373,#183,.T.);
#460=EDGE_CURVE('',#376,#374,#184,.T.);
#461=EDGE_CURVE('',#375,#376,#185,.T.);
#462=EDGE_CURVE('',#377,#375,#186,.T.);
#463=EDGE_CURVE('',#378,#376,#187,.T.);
#464=EDGE_CURVE('',#377,#378,#188,.T.);
#465=EDGE_CURVE('',#379,#377,#189,.T.);
#466=EDGE_CURVE('',#380,#378,#190,.T.);
#467=EDGE_CURVE('',#379,#380,#191,.T.);
#468=EDGE_CURVE('',#381,#379,#192,.T.);
#469=EDGE_CURVE('',#382,#380,#193,.T.);
#470=EDGE_CURVE('',#381,#382,#194,.T.);
#471=EDGE_CURVE('',#383,#381,#195,.T.);
#472=EDGE_CURVE('',#384,#382,#196,.T.);
#473=EDGE_CURVE('',#383,#384,#197,.T.);
#474=EDGE_CURVE('',#385,#383,#198,.T.);
#475=EDGE_CURVE('',#386,#384,#199,.T.);
#476=EDGE_CURVE('',#385,#386,#200,.T.);
#477=EDGE_CURVE('',#387,#385,#201,.T.);
#478=EDGE_CURVE('',#388,#386,#202,.T.);
#479=EDGE_CURVE('',#387,#388,#203,.T.);
#480=EDGE_CURVE('',#389,#387,#204,.T.);
#481=EDGE_CURVE('',#390,#388,#205,.T.);
#482=EDGE_CURVE('',#389,#390,#206,.T.);
#483=EDGE_CURVE('',#391,#389,#207,.T.);
#484=EDGE_CURVE('',#392,#390,#208,.T.);
#485=EDGE_CURVE('',#391,#392,#209,.T.);
#486=EDGE_CURVE('',#393,#391,#210,.T.);
#487=EDGE_CURVE('',#394,#392,#211,.T.);
#488=EDGE_CURVE('',#393,#394,#212,.T.);
#489=EDGE_CURVE('',#395,#393,#213,.T.);
#490=EDGE_CURVE('',#396,#394,#214,.T.);
#491=EDGE_CURVE('',#395,#396,#215,.T.);
#492=EDGE_CURVE('',#397,#395,#216,.T.);
#493=EDGE_CURVE('',#398,#396,#217,.T.);
#494=EDGE_CURVE('',#397,#398,#218,.T.);
#495=EDGE_CURVE('',#399,#397,#219,.T.);
#496=EDGE_CURVE('',#400,#398,#220,.T.);
#497=EDGE_CURVE('',#399,#400,#221,.T.);
#498=EDGE_CURVE('',#401,#399,#222,.T.);
#499=EDGE_CURVE('',#402,#400,#223,.T.);
#500=EDGE_CURVE('',#401,#402,#224,.T.);
#501=EDGE_CURVE('',#403,#401,#225,.T.);
#502=EDGE_CURVE('',#404,#402,#226,.T.);
#503=EDGE_CURVE('',#403,#404,#227,.T.);
#504=EDGE_CURVE('',#405,#403,#228,.T.);
#505=EDGE_CURVE('',#406,#404,#229,.T.);
#506=EDGE_CURVE('',#405,#406,#230,.T.);
#507=EDGE_CURVE('',#407,#405,#231,.T.);
#508=EDGE_CURVE('',#408,#406,#232,.T.);
#509=EDGE_CURVE('',#407,#408,#233,.T.);
#510=EDGE_CURVE('',#409,#407,#234,.T.);
#511=EDGE_CURVE('',#410,#408,#235,.T.);
#512=EDGE_CURVE('',#409,#410,#236,.T.);
#513=EDGE_CURVE('',#411,#409,#237,.T.);
#514=EDGE_CURVE('',#412,#410,#238,.T.);
#515=EDGE_CURVE('',#411,#412,#239,.T.);
#516=EDGE_CURVE('',#366,#411,#240,.T.);
#517=EDGE_CURVE('',#367,#412,#241,.T.);
#518=ORIENTED_EDGE('',*,*,#413,.F.);
#519=ORIENTED_EDGE('',*,*,#414,.T.);
#520=ORIENTED_EDGE('',*,*,#415,.F.);
#521=ORIENTED_EDGE('',*,*,#416,.F.);
#522=ORIENTED_EDGE('',*,*,#417,.F.);
#523=ORIENTED_EDGE('',*,*,#418,.F.);
#524=ORIENTED_EDGE('',*,*,#419,.F.);
#525=ORIENTED_EDGE('',*,*,#420,.F.);
#526=ORIENTED_EDGE('',*,*,#421,.F.);
#527=ORIENTED_EDGE('',*,*,#414,.F.);
#528=ORIENTED_EDGE('',*,*,#422,.F.);
#529=ORIENTED_EDGE('',*,*,#413,.T.);
#530=ORIENTED_EDGE('',*,*,#420,.T.);
#531=ORIENTED_EDGE('',*,*,#423,.T.);
#532=ORIENTED_EDGE('',*,*,#419,.T.);
#533=ORIENTED_EDGE('',*,*,#424,.T.);
#534=ORIENTED_EDGE('',*,*,#418,.T.);
#535=ORIENTED_EDGE('',*,*,#425,.T.);
#536=ORIENTED_EDGE('',*,*,#417,.T.);
#537=ORIENTED_EDGE('',*,*,#426,.T.);
#538=ORIENTED_EDGE('',*,*,#416,.T.);
#539=ORIENTED_EDGE('',*,*,#427,.T.);
#540=ORIENTED_EDGE('',*,*,#415,.T.);
#541=ORIENTED_EDGE('',*,*,#421,.T.);
#542=ORIENTED_EDGE('',*,*,#428,.T.);
#543=ORIENTED_EDGE('',*,*,#427,.F.);
#544=ORIENTED_EDGE('',*,*,#429,.T.);
#545=ORIENTED_EDGE('',*,*,#430,.T.);
#546=ORIENTED_EDGE('',*,*,#431,.F.);
#547=ORIENTED_EDGE('',*,*,#428,.F.);
#548=ORIENTED_EDGE('',*,*,#432,.T.);
#549=ORIENTED_EDGE('',*,*,#433,.T.);
#550=ORIENTED_EDGE('',*,*,#429,.F.);
#551=ORIENTED_EDGE('',*,*,#423,.F.);
#552=ORIENTED_EDGE('',*,*,#434,.T.);
#553=ORIENTED_EDGE('',*,*,#435,.T.);
#554=ORIENTED_EDGE('',*,*,#432,.F.);
#555=ORIENTED_EDGE('',*,*,#424,.F.);
#556=ORIENTED_EDGE('',*,*,#436,.T.);
#557=ORIENTED_EDGE('',*,*,#437,.T.);
#558=ORIENTED_EDGE('',*,*,#434,.F.);
#559=ORIENTED_EDGE('',*,*,#425,.F.);
#560=ORIENTED_EDGE('',*,*,#438,.T.);
#561=ORIENTED_EDGE('',*,*,#439,.T.);
#562=ORIENTED_EDGE('',*,*,#436,.F.);
#563=ORIENTED_EDGE('',*,*,#426,.F.);
#564=ORIENTED_EDGE('',*,*,#431,.T.);
#565=ORIENTED_EDGE('',*,*,#440,.T.);
#566=ORIENTED_EDGE('',*,*,#438,.F.);
#567=ORIENTED_EDGE('',*,*,#440,.F.);
#568=ORIENTED_EDGE('',*,*,#430,.F.);
#569=ORIENTED_EDGE('',*,*,#433,.F.);
#570=ORIENTED_EDGE('',*,*,#435,.F.);
#571=ORIENTED_EDGE('',*,*,#437,.F.);
#572=ORIENTED_EDGE('',*,*,#439,.F.);
#573=ORIENTED_EDGE('',*,*,#441,.F.);
#574=ORIENTED_EDGE('',*,*,#442,.F.);
#575=ORIENTED_EDGE('',*,*,#443,.T.);
#576=ORIENTED_EDGE('',*,*,#422,.T.);
#577=ORIENTED_EDGE('',*,*,#443,.F.);
#578=ORIENTED_EDGE('',*,*,#444,.F.);
#579=ORIENTED_EDGE('',*,*,#445,.T.);
#580=ORIENTED_EDGE('',*,*,#441,.T.);
#581=ORIENTED_EDGE('',*,*,#445,.F.);
#582=ORIENTED_EDGE('',*,*,#446,.T.);
#583=ORIENTED_EDGE('',*,*,#447,.T.);
#584=ORIENTED_EDGE('',*,*,#448,.F.);
#585=ORIENTED_EDGE('',*,*,#449,.F.);
#586=ORIENTED_EDGE('',*,*,#450,.T.);
#587=ORIENTED_EDGE('',*,*,#449,.T.);
#588=ORIENTED_EDGE('',*,*,#451,.F.);
#589=ORIENTED_EDGE('',*,*,#452,.F.);
#590=ORIENTED_EDGE('',*,*,#453,.T.);
#591=ORIENTED_EDGE('',*,*,#452,.T.);
#592=ORIENTED_EDGE('',*,*,#454,.F.);
#593=ORIENTED_EDGE('',*,*,#455,.F.);
#594=ORIENTED_EDGE('',*,*,#456,.T.);
#595=ORIENTED_EDGE('',*,*,#455,.T.);
#596=ORIENTED_EDGE('',*,*,#457,.F.);
#597=ORIENTED_EDGE('',*,*,#458,.F.);
#598=ORIENTED_EDGE('',*,*,#459,.T.);
#599=ORIENTED_EDGE('',*,*,#458,.T.);
#600=ORIENTED_EDGE('',*,*,#460,.F.);
#601=ORIENTED_EDGE('',*,*,#461,.F.);
#602=ORIENTED_EDGE('',*,*,#462,.T.);
#603=ORIENTED_EDGE('',*,*,#461,.T.);
#604=ORIENTED_EDGE('',*,*,#463,.F.);
#605=ORIENTED_EDGE('',*,*,#464,.F.);
#606=ORIENTED_EDGE('',*,*,#465,.T.);
#607=ORIENTED_EDGE('',*,*,#464,.T.);
#608=ORIENTED_EDGE('',*,*,#466,.F.);
#609=ORIENTED_EDGE('',*,*,#467,.F.);
#610=ORIENTED_EDGE('',*,*,#468,.T.);
#611=ORIENTED_EDGE('',*,*,#467,.T.);
#612=ORIENTED_EDGE('',*,*,#469,.F.);
#613=ORIENTED_EDGE('',*,*,#470,.F.);
#614=ORIENTED_EDGE('',*,*,#471,.T.);
#615=ORIENTED_EDGE('',*,*,#470,.T.);
#616=ORIENTED_EDGE('',*,*,#472,.F.);
#617=ORIENTED_EDGE('',*,*,#473,.F.);
#618=ORIENTED_EDGE('',*,*,#474,.T.);
#619=ORIENTED_EDGE('',*,*,#473,.T.);
#620=ORIENTED_EDGE('',*,*,#475,.F.);
#621=ORIENTED_EDGE('',*,*,#476,.F.);
#622=ORIENTED_EDGE('',*,*,#477,.T.);
#623=ORIENTED_EDGE('',*,*,#476,.T.);
#624=ORIENTED_EDGE('',*,*,#478,.F.);
#625=ORIENTED_EDGE('',*,*,#479,.F.);
#626=ORIENTED_EDGE('',*,*,#480,.T.);
#627=ORIENTED_EDGE('',*,*,#479,.T.);
#628=ORIENTED_EDGE('',*,*,#481,.F.);
#629=ORIENTED_EDGE('',*,*,#482,.F.);
#630=ORIENTED_EDGE('',*,*,#483,.T.);
#631=ORIENTED_EDGE('',*,*,#482,.T.);
#632=ORIENTED_EDGE('',*,*,#484,.F.);
#633=ORIENTED_EDGE('',*,*,#485,.F.);
#634=ORIENTED_EDGE('',*,*,#486,.T.);
#635=ORIENTED_EDGE('',*,*,#485,.T.);
#636=ORIENTED_EDGE('',*,*,#487,.F.);
#637=ORIENTED_EDGE('',*,*,#488,.F.);
#638=ORIENTED_EDGE('',*,*,#489,.T.);
#639=ORIENTED_EDGE('',*,*,#488,.T.);
#640=ORIENTED_EDGE('',*,*,#490,.F.);
#641=ORIENTED_EDGE('',*,*,#491,.F.);
#642=ORIENTED_EDGE('',*,*,#492,.T.);
#643=ORIENTED_EDGE('',*,*,#491,.T.);
#644=ORIENTED_EDGE('',*,*,#493,.F.);
#645=ORIENTED_EDGE('',*,*,#494,.F.);
#646=ORIENTED_EDGE('',*,*,#495,.T.);
#647=ORIENTED_EDGE('',*,*,#494,.T.);
#648=ORIENTED_EDGE('',*,*,#496,.F.);
#649=ORIENTED_EDGE('',*,*,#497,.F.);
#650=ORIENTED_EDGE('',*,*,#498,.T.);
#651=ORIENTED_EDGE('',*,*,#497,.T.);
#652=ORIENTED_EDGE('',*,*,#499,.F.);
#653=ORIENTED_EDGE('',*,*,#500,.F.);
#654=ORIENTED_EDGE('',*,*,#501,.T.);
#655=ORIENTED_EDGE('',*,*,#500,.T.);
#656=ORIENTED_EDGE('',*,*,#502,.F.);
#657=ORIENTED_EDGE('',*,*,#503,.F.);
#658=ORIENTED_EDGE('',*,*,#504,.T.);
#659=ORIENTED_EDGE('',*,*,#503,.T.);
#660=ORIENTED_EDGE('',*,*,#505,.F.);
#661=ORIENTED_EDGE('',*,*,#506,.F.);
#662=ORIENTED_EDGE('',*,*,#507,.T.);
#663=ORIENTED_EDGE('',*,*,#506,.T.);
#664=ORIENTED_EDGE('',*,*,#508,.F.);
#665=ORIENTED_EDGE('',*,*,#509,.F.);
#666=ORIENTED_EDGE('',*,*,#510,.T.);
#667=ORIENTED_EDGE('',*,*,#509,.T.);
#668=ORIENTED_EDGE('',*,*,#511,.F.);
#669=ORIENTED_EDGE('',*,*,#512,.F.);
#670=ORIENTED_EDGE('',*,*,#513,.T.);
#671=ORIENTED_EDGE('',*,*,#512,.T.);
#672=ORIENTED_EDGE('',*,*,#514,.F.);
#673=ORIENTED_EDGE('',*,*,#515,.F.);
#674=ORIENTED_EDGE('',*,*,#516,.T.);
#675=ORIENTED_EDGE('',*,*,#515,.T.);
#676=ORIENTED_EDGE('',*,*,#517,.F.);
#677=ORIENTED_EDGE('',*,*,#447,.F.);
#678=ORIENTED_EDGE('',*,*,#517,.T.);
#679=ORIENTED_EDGE('',*,*,#514,.T.);
#680=ORIENTED_EDGE('',*,*,#511,.T.);
#681=ORIENTED_EDGE('',*,*,#508,.T.);
#682=ORIENTED_EDGE('',*,*,#505,.T.);
#683=ORIENTED_EDGE('',*,*,#502,.T.);
#684=ORIENTED_EDGE('',*,*,#499,.T.);
#685=ORIENTED_EDGE('',*,*,#496,.T.);
#686=ORIENTED_EDGE('',*,*,#493,.T.);
#687=ORIENTED_EDGE('',*,*,#490,.T.);
#688=ORIENTED_EDGE('',*,*,#487,.T.);
#689=ORIENTED_EDGE('',*,*,#484,.T.);
#690=ORIENTED_EDGE('',*,*,#481,.T.);
#691=ORIENTED_EDGE('',*,*,#478,.T.);
#692=ORIENTED_EDGE('',*,*,#475,.T.);
#693=ORIENTED_EDGE('',*,*,#472,.T.);
#694=ORIENTED_EDGE('',*,*,#469,.T.);
#695=ORIENTED_EDGE('',*,*,#466,.T.);
#696=ORIENTED_EDGE('',*,*,#463,.T.);
#697=ORIENTED_EDGE('',*,*,#460,.T.);
#698=ORIENTED_EDGE('',*,*,#457,.T.);
#699=ORIENTED_EDGE('',*,*,#454,.T.);
#700=ORIENTED_EDGE('',*,*,#451,.T.);
#701=ORIENTED_EDGE('',*,*,#448,.T.);
#702=ORIENTED_EDGE('',*,*,#444,.T.);
#703=ORIENTED_EDGE('',*,*,#516,.F.);
#704=ORIENTED_EDGE('',*,*,#446,.F.);
#705=ORIENTED_EDGE('',*,*,#450,.F.);
#706=ORIENTED_EDGE('',*,*,#453,.F.);
#707=ORIENTED_EDGE('',*,*,#456,.F.);
#708=ORIENTED_EDGE('',*,*,#459,.F.);
#709=ORIENTED_EDGE('',*,*,#462,.F.);
#710=ORIENTED_EDGE('',*,*,#465,.F.);
#711=ORIENTED_EDGE('',*,*,#468,.F.);
#712=ORIENTED_EDGE('',*,*,#471,.F.);
#713=ORIENTED_EDGE('',*,*,#474,.F.);
#714=ORIENTED_EDGE('',*,*,#477,.F.);
#715=ORIENTED_EDGE('',*,*,#480,.F.);
#716=ORIENTED_EDGE('',*,*,#483,.F.);
#717=ORIENTED_EDGE('',*,*,#486,.F.);
#718=ORIENTED_EDGE('',*,*,#489,.F.);
#719=ORIENTED_EDGE('',*,*,#492,.F.);
#720=ORIENTED_EDGE('',*,*,#495,.F.);
#721=ORIENTED_EDGE('',*,*,#498,.F.);
#722=ORIENTED_EDGE('',*,*,#501,.F.);
#723=ORIENTED_EDGE('',*,*,#504,.F.);
#724=ORIENTED_EDGE('',*,*,#507,.F.);
#725=ORIENTED_EDGE('',*,*,#510,.F.);
#726=ORIENTED_EDGE('',*,*,#513,.F.);
#727=ORIENTED_EDGE('',*,*,#442,.T.);
#728=CYLINDRICAL_SURFACE('',#788,4.725);
#729=CYLINDRICAL_SURFACE('',#813,8.825);
#730=CYLINDRICAL_SURFACE('',#815,2.65);
#731=ADVANCED_FACE('',(#59),#728,.F.);
#732=ADVANCED_FACE('',(#60,#15),#19,.T.);
#733=ADVANCED_FACE('',(#61),#20,.F.);
#734=ADVANCED_FACE('',(#62),#21,.F.);
#735=ADVANCED_FACE('',(#63),#22,.F.);
#736=ADVANCED_FACE('',(#64),#23,.F.);
#737=ADVANCED_FACE('',(#65),#24,.F.);
#738=ADVANCED_FACE('',(#66),#25,.F.);
#739=ADVANCED_FACE('',(#67),#26,.F.);
#740=ADVANCED_FACE('',(#68),#27,.F.);
#741=ADVANCED_FACE('',(#69),#28,.F.);
#742=ADVANCED_FACE('',(#70),#29,.F.);
#743=ADVANCED_FACE('',(#71),#30,.F.);
#744=ADVANCED_FACE('',(#72),#31,.F.);
#745=ADVANCED_FACE('',(#73,#16),#32,.T.);
#746=ADVANCED_FACE('',(#74),#729,.F.);
#747=ADVANCED_FACE('',(#75),#730,.F.);
#748=ADVANCED_FACE('',(#76),#33,.T.);
#749=ADVANCED_FACE('',(#77),#34,.T.);
#750=ADVANCED_FACE('',(#78),#35,.T.);
#751=ADVANCED_FACE('',(#79),#36,.T.);
#752=ADVANCED_FACE('',(#80),#37,.T.);
#753=ADVANCED_FACE('',(#81),#38,.T.);
#754=ADVANCED_FACE('',(#82),#39,.T.);
#755=ADVANCED_FACE('',(#83),#40,.T.);
#756=ADVANCED_FACE('',(#84),#41,.T.);
#757=ADVANCED_FACE('',(#85),#42,.T.);
#758=ADVANCED_FACE('',(#86),#43,.T.);
#759=ADVANCED_FACE('',(#87),#44,.T.);
#760=ADVANCED_FACE('',(#88),#45,.T.);
#761=ADVANCED_FACE('',(#89),#46,.T.);
#762=ADVANCED_FACE('',(#90),#47,.T.);
#763=ADVANCED_FACE('',(#91),#48,.T.);
#764=ADVANCED_FACE('',(#92),#49,.T.);
#765=ADVANCED_FACE('',(#93),#50,.T.);
#766=ADVANCED_FACE('',(#94),#51,.T.);
#767=ADVANCED_FACE('',(#95),#52,.T.);
#768=ADVANCED_FACE('',(#96),#53,.T.);
#769=ADVANCED_FACE('',(#97),#54,.T.);
#770=ADVANCED_FACE('',(#98),#55,.T.);
#771=ADVANCED_FACE('',(#99),#56,.T.);
#772=ADVANCED_FACE('',(#100,#17),#57,.T.);
#773=ADVANCED_FACE('',(#101,#18),#58,.F.);
#774=CLOSED_SHELL('',(#731,#732,#733,#734,#735,#736,#737,#738,#739,#740,
#741,#742,#743,#744,#745,#746,#747,#748,#749,#750,#751,#752,#753,#754,#755,
#756,#757,#758,#759,#760,#761,#762,#763,#764,#765,#766,#767,#768,#769,#770,
#771,#772,#773));
#775=DERIVED_UNIT_ELEMENT(#777,1.);
#776=DERIVED_UNIT_ELEMENT(#1268,-3.);
#777=(
MASS_UNIT()
NAMED_UNIT(*)
SI_UNIT(.KILO.,.GRAM.)
);
#778=DERIVED_UNIT((#775,#776));
#779=MEASURE_REPRESENTATION_ITEM('density measure',
POSITIVE_RATIO_MEASURE(7850.),#778);
#780=PROPERTY_DEFINITION_REPRESENTATION(#785,#782);
#781=PROPERTY_DEFINITION_REPRESENTATION(#786,#783);
#782=REPRESENTATION('material name',(#784),#1265);
#783=REPRESENTATION('density',(#779),#1265);
#784=DESCRIPTIVE_REPRESENTATION_ITEM('Acier','Acier');
#785=PROPERTY_DEFINITION('material property','material name',#1275);
#786=PROPERTY_DEFINITION('material property','density of part',#1275);
#787=AXIS2_PLACEMENT_3D('',#1048,#843,#844);
#788=AXIS2_PLACEMENT_3D('',#1049,#845,#846);
#789=AXIS2_PLACEMENT_3D('',#1051,#847,#848);
#790=AXIS2_PLACEMENT_3D('',#1055,#850,#851);
#791=AXIS2_PLACEMENT_3D('',#1057,#852,#853);
#792=AXIS2_PLACEMENT_3D('',#1059,#854,#855);
#793=AXIS2_PLACEMENT_3D('',#1061,#856,#857);
#794=AXIS2_PLACEMENT_3D('',#1063,#858,#859);
#795=AXIS2_PLACEMENT_3D('',#1065,#860,#861);
#796=AXIS2_PLACEMENT_3D('',#1066,#862,#863);
#797=AXIS2_PLACEMENT_3D('',#1067,#864,#865);
#798=AXIS2_PLACEMENT_3D('',#1069,#866,#867);
#799=AXIS2_PLACEMENT_3D('',#1070,#868,#869);
#800=AXIS2_PLACEMENT_3D('',#1072,#871,#872);
#801=AXIS2_PLACEMENT_3D('',#1074,#874,#875);
#802=AXIS2_PLACEMENT_3D('',#1076,#877,#878);
#803=AXIS2_PLACEMENT_3D('',#1078,#880,#881);
#804=AXIS2_PLACEMENT_3D('',#1080,#883,#884);
#805=AXIS2_PLACEMENT_3D('',#1082,#886,#887);
#806=AXIS2_PLACEMENT_3D('',#1088,#891,#892);
#807=AXIS2_PLACEMENT_3D('',#1092,#895,#896);
#808=AXIS2_PLACEMENT_3D('',#1096,#899,#900);
#809=AXIS2_PLACEMENT_3D('',#1100,#903,#904);
#810=AXIS2_PLACEMENT_3D('',#1104,#907,#908);
#811=AXIS2_PLACEMENT_3D('',#1106,#910,#911);
#812=AXIS2_PLACEMENT_3D('',#1108,#912,#913);
#813=AXIS2_PLACEMENT_3D('',#1109,#914,#915);
#814=AXIS2_PLACEMENT_3D('',#1111,#916,#917);
#815=AXIS2_PLACEMENT_3D('',#1113,#919,#920);
#816=AXIS2_PLACEMENT_3D('',#1115,#921,#922);
#817=AXIS2_PLACEMENT_3D('',#1117,#924,#925);
#818=AXIS2_PLACEMENT_3D('',#1126,#930,#931);
#819=AXIS2_PLACEMENT_3D('',#1132,#935,#936);
#820=AXIS2_PLACEMENT_3D('',#1138,#940,#941);
#821=AXIS2_PLACEMENT_3D('',#1144,#945,#946);
#822=AXIS2_PLACEMENT_3D('',#1150,#950,#951);
#823=AXIS2_PLACEMENT_3D('',#1156,#955,#956);
#824=AXIS2_PLACEMENT_3D('',#1162,#960,#961);
#825=AXIS2_PLACEMENT_3D('',#1168,#965,#966);
#826=AXIS2_PLACEMENT_3D('',#1174,#970,#971);
#827=AXIS2_PLACEMENT_3D('',#1180,#975,#976);
#828=AXIS2_PLACEMENT_3D('',#1186,#980,#981);
#829=AXIS2_PLACEMENT_3D('',#1192,#985,#986);
#830=AXIS2_PLACEMENT_3D('',#1198,#990,#991);
#831=AXIS2_PLACEMENT_3D('',#1204,#995,#996);
#832=AXIS2_PLACEMENT_3D('',#1210,#1000,#1001);
#833=AXIS2_PLACEMENT_3D('',#1216,#1005,#1006);
#834=AXIS2_PLACEMENT_3D('',#1222,#1010,#1011);
#835=AXIS2_PLACEMENT_3D('',#1228,#1015,#1016);
#836=AXIS2_PLACEMENT_3D('',#1234,#1020,#1021);
#837=AXIS2_PLACEMENT_3D('',#1240,#1025,#1026);
#838=AXIS2_PLACEMENT_3D('',#1246,#1030,#1031);
#839=AXIS2_PLACEMENT_3D('',#1252,#1035,#1036);
#840=AXIS2_PLACEMENT_3D('',#1258,#1040,#1041);
#841=AXIS2_PLACEMENT_3D('',#1261,#1044,#1045);
#842=AXIS2_PLACEMENT_3D('',#1262,#1046,#1047);
#843=DIRECTION('axis',(0.,0.,1.));
#844=DIRECTION('refdir',(1.,0.,0.));
#845=DIRECTION('center_axis',(0.,1.,2.22044604925031E-16));
#846=DIRECTION('ref_axis',(-1.,0.,0.));
#847=DIRECTION('center_axis',(0.,-1.,-2.22044604925031E-16));
#848=DIRECTION('ref_axis',(-1.,0.,0.));
#849=DIRECTION('',(0.,-1.,-2.22044604925031E-16));
#850=DIRECTION('center_axis',(0.,1.,2.22044604925031E-16));
#851=DIRECTION('ref_axis',(-1.,0.,0.));
#852=DIRECTION('center_axis',(0.,1.,2.22044604925031E-16));
#853=DIRECTION('ref_axis',(-1.,0.,0.));
#854=DIRECTION('center_axis',(0.,1.,2.22044604925031E-16));
#855=DIRECTION('ref_axis',(-1.,0.,0.));
#856=DIRECTION('center_axis',(0.,1.,2.22044604925031E-16));
#857=DIRECTION('ref_axis',(-1.,0.,0.));
#858=DIRECTION('center_axis',(0.,1.,2.22044604925031E-16));
#859=DIRECTION('ref_axis',(-1.,0.,0.));
#860=DIRECTION('center_axis',(0.,1.,2.22044604925031E-16));
#861=DIRECTION('ref_axis',(-1.,0.,0.));
#862=DIRECTION('center_axis',(0.,1.,2.22044604925031E-16));
#863=DIRECTION('ref_axis',(-1.,0.,0.));
#864=DIRECTION('center_axis',(0.,1.,2.22044604925031E-16));
#865=DIRECTION('ref_axis',(-1.,0.,0.));
#866=DIRECTION('center_axis',(0.,-1.,-2.22044604925031E-16));
#867=DIRECTION('ref_axis',(1.,0.,0.));
#868=DIRECTION('center_axis',(0.,-1.,-2.22044604925031E-16));
#869=DIRECTION('ref_axis',(1.,0.,0.));
#870=DIRECTION('',(0.958270788964227,-6.34741195034609E-17,0.285862020943457));
#871=DIRECTION('center_axis',(0.,-1.,-2.22044604925031E-16));
#872=DIRECTION('ref_axis',(1.,0.,0.));
#873=DIRECTION('',(0.726699166596307,1.52534837311224E-16,-0.686955836475849));
#874=DIRECTION('center_axis',(0.,-1.,-2.22044604925031E-16));
#875=DIRECTION('ref_axis',(1.,0.,0.));
#876=DIRECTION('',(-0.231571622367921,2.16008956814685E-16,-0.972817857419306));
#877=DIRECTION('center_axis',(0.,-1.,-2.22044604925031E-16));
#878=DIRECTION('ref_axis',(1.,0.,0.));
#879=DIRECTION('',(-0.958270788964227,6.34741195034609E-17,-0.285862020943457));
#880=DIRECTION('center_axis',(0.,-1.,-2.22044604925031E-16));
#881=DIRECTION('ref_axis',(1.,0.,0.));
#882=DIRECTION('',(-0.726699166596307,-1.52534837311224E-16,0.686955836475849));
#883=DIRECTION('center_axis',(0.,-1.,-2.22044604925031E-16));
#884=DIRECTION('ref_axis',(1.,0.,0.));
#885=DIRECTION('',(0.231571622367921,-2.16008956814685E-16,0.972817857419306));
#886=DIRECTION('center_axis',(0.686955836475849,-1.61359629346226E-16,0.726699166596307));
#887=DIRECTION('ref_axis',(-0.726699166596307,-1.52534837311224E-16,0.686955836475849));
#888=DIRECTION('',(0.,-1.,-2.22044604925031E-16));
#889=DIRECTION('',(-0.726699166596307,-1.52534837311224E-16,0.686955836475849));
#890=DIRECTION('',(0.,-1.,-2.22044604925031E-16));
#891=DIRECTION('center_axis',(0.972817857419306,5.14192294005335E-17,-0.231571622367921));
#892=DIRECTION('ref_axis',(0.231571622367921,-2.16008956814685E-16,0.972817857419306));
#893=DIRECTION('',(0.,-1.,-2.22044604925031E-16));
#894=DIRECTION('',(0.231571622367921,-2.16008956814685E-16,0.972817857419306));
#895=DIRECTION('center_axis',(0.285862020943457,2.1277885874676E-16,-0.958270788964227));
#896=DIRECTION('ref_axis',(0.958270788964227,-6.34741195034609E-17,0.285862020943457));
#897=DIRECTION('',(0.,-1.,-2.22044604925031E-16));
#898=DIRECTION('',(0.958270788964227,-6.34741195034609E-17,0.285862020943457));
#899=DIRECTION('center_axis',(-0.686955836475849,1.61359629346226E-16,-0.726699166596307));
#900=DIRECTION('ref_axis',(0.726699166596307,1.52534837311224E-16,-0.686955836475849));
#901=DIRECTION('',(0.,-1.,-2.22044604925031E-16));
#902=DIRECTION('',(0.726699166596307,1.52534837311224E-16,-0.686955836475849));
#903=DIRECTION('center_axis',(-0.972817857419306,-5.14192294005335E-17,
0.231571622367921));
#904=DIRECTION('ref_axis',(-0.231571622367921,2.16008956814685E-16,-0.972817857419306));
#905=DIRECTION('',(0.,-1.,-2.22044604925031E-16));
#906=DIRECTION('',(-0.231571622367921,2.16008956814685E-16,-0.972817857419306));
#907=DIRECTION('center_axis',(-0.285862020943457,-2.1277885874676E-16,0.958270788964227));
#908=DIRECTION('ref_axis',(-0.958270788964227,6.34741195034609E-17,-0.285862020943457));
#909=DIRECTION('',(-0.958270788964227,6.34741195034609E-17,-0.285862020943457));
#910=DIRECTION('center_axis',(0.,1.,2.22044604925031E-16));
#911=DIRECTION('ref_axis',(-1.,0.,0.));
#912=DIRECTION('center_axis',(0.,1.,2.22044604925031E-16));
#913=DIRECTION('ref_axis',(1.,0.,0.));
#914=DIRECTION('center_axis',(0.,-1.,-2.22044604925031E-16));
#915=DIRECTION('ref_axis',(1.,0.,0.));
#916=DIRECTION('center_axis',(0.,-1.,-2.22044604925031E-16));
#917=DIRECTION('ref_axis',(1.,0.,0.));
#918=DIRECTION('',(0.,-1.,-2.22044604925031E-16));
#919=DIRECTION('center_axis',(0.,-1.,-2.22044604925031E-16));
#920=DIRECTION('ref_axis',(1.,0.,0.));
#921=DIRECTION('center_axis',(0.,1.,2.22044604925031E-16));
#922=DIRECTION('ref_axis',(1.,0.,0.));
#923=DIRECTION('',(0.,1.,2.22044604925031E-16));
#924=DIRECTION('center_axis',(0.737695670026622,-1.49909727533583E-16,0.675133393059455));
#925=DIRECTION('ref_axis',(-0.675133393059455,-1.63801343605968E-16,0.737695670026622));
#926=DIRECTION('',(-0.675133393059455,-1.63801343605968E-16,0.737695670026622));
#927=DIRECTION('',(0.,-1.,-2.22044604925031E-16));
#928=DIRECTION('',(-0.675133393059455,-1.63801343605968E-16,0.737695670026622));
#929=DIRECTION('',(0.,-1.,-2.22044604925031E-16));
#930=DIRECTION('center_axis',(0.887296679728805,-1.02406770098039E-16,0.461199091653744));
#931=DIRECTION('ref_axis',(-0.461199091653744,-1.97019440701675E-16,0.887296679728805));
#932=DIRECTION('',(-0.461199091653744,-1.97019440701675E-16,0.887296679728805));
#933=DIRECTION('',(-0.461199091653744,-1.97019440701675E-16,0.887296679728805));
#934=DIRECTION('',(0.,-1.,-2.22044604925031E-16));
#935=DIRECTION('center_axis',(0.976429887034565,-4.79249605155023E-17,0.215834834319362));
#936=DIRECTION('ref_axis',(-0.215834834319362,-2.16810988503583E-16,0.976429887034565));
#937=DIRECTION('',(-0.215834834319362,-2.16810988503583E-16,0.976429887034565));
#938=DIRECTION('',(-0.215834834319362,-2.16810988503583E-16,0.976429887034565));
#939=DIRECTION('',(0.,-1.,-2.22044604925031E-16));
#940=DIRECTION('center_axis',(0.999021011165602,9.82285592642204E-18,-0.0442382102899484));
#941=DIRECTION('ref_axis',(0.0442382102899484,-2.21827225736071E-16,0.999021011165602));
#942=DIRECTION('',(0.0442382102899484,-2.21827225736071E-16,0.999021011165602));
#943=DIRECTION('',(0.0442382102899484,-2.21827225736071E-16,0.999021011165602));
#944=DIRECTION('',(0.,-1.,-2.22044604925031E-16));
#945=DIRECTION('center_axis',(0.953530504345985,6.69012609699998E-17,-0.301296493975107));
#946=DIRECTION('ref_axis',(0.301296493975107,-2.1172630412147E-16,0.953530504345985));
#947=DIRECTION('',(0.301296493975107,-2.1172630412147E-16,0.953530504345985));
#948=DIRECTION('',(0.301296493975107,-2.1172630412147E-16,0.953530504345985));
#949=DIRECTION('',(0.,-1.,-2.22044604925031E-16));
#950=DIRECTION('center_axis',(0.843058469438851,1.19420455638033E-16,-0.537821919511861));
#951=DIRECTION('ref_axis',(0.537821919511861,-1.87196584775251E-16,0.843058469438851));
#952=DIRECTION('',(0.537821919511861,-1.87196584775251E-16,0.843058469438851));
#953=DIRECTION('',(0.537821919511861,-1.87196584775251E-16,0.843058469438851));
#954=DIRECTION('',(0.,-1.,-2.22044604925031E-16));
#955=DIRECTION('center_axis',(0.675133393059456,1.63801343605967E-16,-0.737695670026621));
#956=DIRECTION('ref_axis',(0.737695670026621,-1.49909727533583E-16,0.675133393059456));
#957=DIRECTION('',(0.737695670026621,-1.49909727533583E-16,0.675133393059456));
#958=DIRECTION('',(0.737695670026621,-1.49909727533583E-16,0.675133393059456));
#959=DIRECTION('',(0.,-1.,-2.22044604925031E-16));
#960=DIRECTION('center_axis',(0.461199091653744,1.97019440701674E-16,-0.887296679728805));
#961=DIRECTION('ref_axis',(0.887296679728805,-1.02406770098039E-16,0.461199091653744));
#962=DIRECTION('',(0.887296679728805,-1.02406770098039E-16,0.461199091653744));
#963=DIRECTION('',(0.887296679728805,-1.02406770098039E-16,0.461199091653744));
#964=DIRECTION('',(0.,-1.,-2.22044604925031E-16));
#965=DIRECTION('center_axis',(0.215834834319364,2.16810988503583E-16,-0.976429887034565));
#966=DIRECTION('ref_axis',(0.976429887034565,-4.79249605155027E-17,0.215834834319364));
#967=DIRECTION('',(0.976429887034565,-4.79249605155027E-17,0.215834834319364));
#968=DIRECTION('',(0.976429887034565,-4.79249605155027E-17,0.215834834319364));
#969=DIRECTION('',(0.,-1.,-2.22044604925031E-16));
#970=DIRECTION('center_axis',(-0.0442382102899527,2.21827225736071E-16,
-0.999021011165602));
#971=DIRECTION('ref_axis',(0.999021011165602,9.822855926423E-18,-0.0442382102899527));
#972=DIRECTION('',(0.999021011165602,9.822855926423E-18,-0.0442382102899527));
#973=DIRECTION('',(0.999021011165602,9.822855926423E-18,-0.0442382102899527));
#974=DIRECTION('',(0.,-1.,-2.22044604925031E-16));
#975=DIRECTION('center_axis',(-0.301296493975108,2.1172630412147E-16,-0.953530504345985));
#976=DIRECTION('ref_axis',(0.953530504345985,6.69012609699999E-17,-0.301296493975108));
#977=DIRECTION('',(0.953530504345985,6.69012609699999E-17,-0.301296493975108));
#978=DIRECTION('',(0.953530504345985,6.69012609699999E-17,-0.301296493975108));
#979=DIRECTION('',(0.,-1.,-2.22044604925031E-16));
#980=DIRECTION('center_axis',(-0.537821919511859,1.87196584775251E-16,-0.843058469438852));
#981=DIRECTION('ref_axis',(0.843058469438852,1.19420455638033E-16,-0.537821919511859));
#982=DIRECTION('',(0.843058469438852,1.19420455638033E-16,-0.537821919511859));
#983=DIRECTION('',(0.843058469438852,1.19420455638033E-16,-0.537821919511859));
#984=DIRECTION('',(0.,-1.,-2.22044604925031E-16));
#985=DIRECTION('center_axis',(-0.737695670026621,1.49909727533583E-16,-0.675133393059457));
#986=DIRECTION('ref_axis',(0.675133393059457,1.63801343605967E-16,-0.73769567002662));
#987=DIRECTION('',(0.675133393059457,1.63801343605967E-16,-0.737695670026621));
#988=DIRECTION('',(0.675133393059457,1.63801343605967E-16,-0.737695670026621));
#989=DIRECTION('',(0.,-1.,-2.22044604925031E-16));
#990=DIRECTION('center_axis',(-0.887296679728805,1.02406770098039E-16,-0.461199091653744));
#991=DIRECTION('ref_axis',(0.461199091653744,1.97019440701675E-16,-0.887296679728805));
#992=DIRECTION('',(0.461199091653744,1.97019440701675E-16,-0.887296679728805));
#993=DIRECTION('',(0.461199091653744,1.97019440701675E-16,-0.887296679728805));
#994=DIRECTION('',(0.,-1.,-2.22044604925031E-16));
#995=DIRECTION('center_axis',(-0.976429887034565,4.79249605155023E-17,-0.215834834319362));
#996=DIRECTION('ref_axis',(0.215834834319362,2.16810988503583E-16,-0.976429887034565));
#997=DIRECTION('',(0.215834834319362,2.16810988503583E-16,-0.976429887034565));
#998=DIRECTION('',(0.215834834319362,2.16810988503583E-16,-0.976429887034565));
#999=DIRECTION('',(0.,-1.,-2.22044604925031E-16));
#1000=DIRECTION('center_axis',(-0.999021011165602,-9.82285592642125E-18,
0.0442382102899448));
#1001=DIRECTION('ref_axis',(-0.0442382102899448,2.21827225736071E-16,-0.999021011165602));
#1002=DIRECTION('',(-0.0442382102899448,2.21827225736071E-16,-0.999021011165602));
#1003=DIRECTION('',(-0.0442382102899448,2.21827225736071E-16,-0.999021011165602));
#1004=DIRECTION('',(0.,-1.,-2.22044604925031E-16));
#1005=DIRECTION('center_axis',(-0.953530504345984,-6.69012609700004E-17,
0.30129649397511));
#1006=DIRECTION('ref_axis',(-0.30129649397511,2.1172630412147E-16,-0.953530504345984));
#1007=DIRECTION('',(-0.30129649397511,2.1172630412147E-16,-0.953530504345984));
#1008=DIRECTION('',(-0.30129649397511,2.1172630412147E-16,-0.953530504345984));
#1009=DIRECTION('',(0.,-1.,-2.22044604925031E-16));
#1010=DIRECTION('center_axis',(-0.843058469438851,-1.19420455638033E-16,
0.537821919511861));
#1011=DIRECTION('ref_axis',(-0.537821919511861,1.87196584775251E-16,-0.843058469438851));
#1012=DIRECTION('',(-0.537821919511861,1.87196584775251E-16,-0.843058469438851));
#1013=DIRECTION('',(-0.537821919511861,1.87196584775251E-16,-0.843058469438851));
#1014=DIRECTION('',(0.,-1.,-2.22044604925031E-16));
#1015=DIRECTION('center_axis',(-0.675133393059457,-1.63801343605967E-16,
0.737695670026621));
#1016=DIRECTION('ref_axis',(-0.737695670026621,1.49909727533583E-16,-0.675133393059457));
#1017=DIRECTION('',(-0.737695670026621,1.49909727533583E-16,-0.675133393059457));
#1018=DIRECTION('',(-0.737695670026621,1.49909727533583E-16,-0.675133393059457));
#1019=DIRECTION('',(0.,-1.,-2.22044604925031E-16));
#1020=DIRECTION('center_axis',(-0.461199091653744,-1.97019440701674E-16,
0.887296679728805));
#1021=DIRECTION('ref_axis',(-0.887296679728805,1.02406770098039E-16,-0.461199091653744));
#1022=DIRECTION('',(-0.887296679728805,1.02406770098039E-16,-0.461199091653744));
#1023=DIRECTION('',(-0.887296679728805,1.02406770098039E-16,-0.461199091653744));
#1024=DIRECTION('',(0.,-1.,-2.22044604925031E-16));
#1025=DIRECTION('center_axis',(-0.215834834319364,-2.16810988503583E-16,
0.976429887034565));
#1026=DIRECTION('ref_axis',(-0.976429887034565,4.79249605155028E-17,-0.215834834319364));
#1027=DIRECTION('',(-0.976429887034565,4.79249605155028E-17,-0.215834834319364));
#1028=DIRECTION('',(-0.976429887034565,4.79249605155028E-17,-0.215834834319364));
#1029=DIRECTION('',(0.,-1.,-2.22044604925031E-16));
#1030=DIRECTION('center_axis',(0.0442382102899527,-2.21827225736071E-16,
0.999021011165602));
#1031=DIRECTION('ref_axis',(-0.999021011165602,-9.822855926423E-18,0.0442382102899527));
#1032=DIRECTION('',(-0.999021011165602,-9.822855926423E-18,0.0442382102899527));
#1033=DIRECTION('',(-0.999021011165602,-9.822855926423E-18,0.0442382102899527));
#1034=DIRECTION('',(0.,-1.,-2.22044604925031E-16));
#1035=DIRECTION('center_axis',(0.301296493975108,-2.1172630412147E-16,0.953530504345985));
#1036=DIRECTION('ref_axis',(-0.953530504345985,-6.69012609699999E-17,0.301296493975108));
#1037=DIRECTION('',(-0.953530504345985,-6.69012609699999E-17,0.301296493975108));
#1038=DIRECTION('',(-0.953530504345985,-6.69012609699999E-17,0.301296493975108));
#1039=DIRECTION('',(0.,-1.,-2.22044604925031E-16));
#1040=DIRECTION('center_axis',(0.537821919511858,-1.87196584775252E-16,
0.843058469438853));
#1041=DIRECTION('ref_axis',(-0.843058469438853,-1.19420455638032E-16,0.537821919511858));
#1042=DIRECTION('',(-0.843058469438853,-1.19420455638032E-16,0.537821919511858));
#1043=DIRECTION('',(-0.843058469438853,-1.19420455638032E-16,0.537821919511858));
#1044=DIRECTION('center_axis',(0.,-1.,-2.22044604925031E-16));
#1045=DIRECTION('ref_axis',(1.,0.,0.));
#1046=DIRECTION('center_axis',(0.,-1.,-2.22044604925031E-16));
#1047=DIRECTION('ref_axis',(1.,0.,0.));
#1048=CARTESIAN_POINT('',(0.,0.,0.));
#1049=CARTESIAN_POINT('Origin',(0.,-34.2370767315591,0.0370767315590581));
#1050=CARTESIAN_POINT('',(4.725,-30.2370767315591,0.0370767315590581));
#1051=CARTESIAN_POINT('Origin',(0.,-30.2370767315591,0.0370767315590603));
#1052=CARTESIAN_POINT('',(4.725,-34.2370767315591,0.0370767315590575));
#1053=CARTESIAN_POINT('',(4.725,-34.2370767315591,0.0370767315590575));
#1054=CARTESIAN_POINT('',(4.52782947785598,-34.2370767315591,1.38777478051689));
#1055=CARTESIAN_POINT('Origin',(0.,-34.2370767315591,0.0370767315590581));
#1056=CARTESIAN_POINT('',(1.09417591568842,-34.2370767315591,4.63364110786528));
#1057=CARTESIAN_POINT('Origin',(0.,-34.2370767315591,0.0370767315590581));
#1058=CARTESIAN_POINT('',(-3.43365356216755,-34.2370767315591,3.28294305890744));
#1059=CARTESIAN_POINT('Origin',(0.,-34.2370767315591,0.0370767315590581));
#1060=CARTESIAN_POINT('',(-4.52782947785598,-34.2370767315591,-1.31362131739878));
#1061=CARTESIAN_POINT('Origin',(0.,-34.2370767315591,0.0370767315590581));
#1062=CARTESIAN_POINT('',(-1.09417591568842,-34.2370767315591,-4.55948764474716));
#1063=CARTESIAN_POINT('Origin',(0.,-34.2370767315591,0.0370767315590581));
#1064=CARTESIAN_POINT('',(3.43365356216755,-34.2370767315591,-3.20878959578933));
#1065=CARTESIAN_POINT('Origin',(0.,-34.2370767315591,0.0370767315590581));
#1066=CARTESIAN_POINT('Origin',(0.,-34.2370767315591,0.0370767315590581));
#1067=CARTESIAN_POINT('Origin',(0.,-30.2370767315591,0.0370767315590603));
#1068=CARTESIAN_POINT('',(-8.825,-30.2370767315591,0.0370767315590581));
#1069=CARTESIAN_POINT('Origin',(0.,-30.2370767315591,0.0370767315590603));
#1070=CARTESIAN_POINT('Origin',(0.,-34.2370767315591,0.0370767315590581));
#1071=CARTESIAN_POINT('',(0.0377814537755672,-34.2370767315591,-4.2218131325077));
#1072=CARTESIAN_POINT('Origin',(0.,-34.2370767315591,0.0370767315590581));
#1073=CARTESIAN_POINT('',(-3.66941608731408,-34.2370767315591,-2.12508789923587));
#1074=CARTESIAN_POINT('Origin',(0.,-34.2370767315591,0.0370767315590581));
#1075=CARTESIAN_POINT('',(-3.70719754108966,-34.2370767315591,2.13380196483089));
#1076=CARTESIAN_POINT('Origin',(0.,-34.2370767315591,0.0370767315590581));
#1077=CARTESIAN_POINT('',(-0.0377814537755672,-34.2370767315591,4.29596659562582));
#1078=CARTESIAN_POINT('Origin',(0.,-34.2370767315591,0.0370767315590581));
#1079=CARTESIAN_POINT('',(3.66941608731408,-34.2370767315591,2.19924136235399));
#1080=CARTESIAN_POINT('Origin',(0.,-34.2370767315591,0.0370767315590581));
#1081=CARTESIAN_POINT('',(3.70719754108966,-34.2370767315591,-2.05964850171277));
#1082=CARTESIAN_POINT('Origin',(4.52782947785598,-34.2370767315591,1.38777478051689));
#1083=CARTESIAN_POINT('',(4.52782947785598,-39.3870767315591,1.38777478051689));
#1084=CARTESIAN_POINT('',(4.52782947785598,-34.2370767315591,1.38777478051689));
#1085=CARTESIAN_POINT('',(1.09417591568842,-39.3870767315591,4.63364110786528));
#1086=CARTESIAN_POINT('',(1.09417591568842,-39.3870767315591,4.63364110786528));
#1087=CARTESIAN_POINT('',(1.09417591568842,-34.2370767315591,4.63364110786528));
#1088=CARTESIAN_POINT('Origin',(3.43365356216755,-34.2370767315591,-3.20878959578933));
#1089=CARTESIAN_POINT('',(3.43365356216755,-39.3870767315591,-3.20878959578933));
#1090=CARTESIAN_POINT('',(3.43365356216755,-34.2370767315591,-3.20878959578933));
#1091=CARTESIAN_POINT('',(4.52782947785598,-39.3870767315591,1.38777478051689));
#1092=CARTESIAN_POINT('Origin',(-1.09417591568842,-34.2370767315591,-4.55948764474716));
#1093=CARTESIAN_POINT('',(-1.09417591568842,-39.3870767315591,-4.55948764474716));
#1094=CARTESIAN_POINT('',(-1.09417591568842,-34.2370767315591,-4.55948764474716));
#1095=CARTESIAN_POINT('',(3.43365356216755,-39.3870767315591,-3.20878959578933));
#1096=CARTESIAN_POINT('Origin',(-4.52782947785598,-34.2370767315591,-1.31362131739878));
#1097=CARTESIAN_POINT('',(-4.52782947785598,-39.3870767315591,-1.31362131739878));
#1098=CARTESIAN_POINT('',(-4.52782947785598,-34.2370767315591,-1.31362131739878));
#1099=CARTESIAN_POINT('',(-1.09417591568842,-39.3870767315591,-4.55948764474716));
#1100=CARTESIAN_POINT('Origin',(-3.43365356216755,-34.2370767315591,3.28294305890744));
#1101=CARTESIAN_POINT('',(-3.43365356216755,-39.3870767315591,3.28294305890744));
#1102=CARTESIAN_POINT('',(-3.43365356216755,-34.2370767315591,3.28294305890744));
#1103=CARTESIAN_POINT('',(-4.52782947785598,-39.3870767315591,-1.31362131739878));
#1104=CARTESIAN_POINT('Origin',(1.09417591568842,-34.2370767315591,4.63364110786528));
#1105=CARTESIAN_POINT('',(-3.43365356216755,-39.3870767315591,3.28294305890744));
#1106=CARTESIAN_POINT('Origin',(0.,-39.3870767315591,0.0370767315590581));
#1107=CARTESIAN_POINT('',(-2.65,-39.3870767315591,0.0370767315590569));
#1108=CARTESIAN_POINT('Origin',(0.,-39.3870767315591,0.0370767315590581));
#1109=CARTESIAN_POINT('Origin',(0.,-25.2370767315591,0.0370767315590603));
#1110=CARTESIAN_POINT('',(-8.825,-25.2370767315591,0.0370767315590603));
#1111=CARTESIAN_POINT('Origin',(0.,-25.2370767315591,0.0370767315590603));
#1112=CARTESIAN_POINT('',(-8.825,-25.2370767315591,0.0370767315590592));
#1113=CARTESIAN_POINT('Origin',(0.,-25.2370767315591,0.0370767315590603));
#1114=CARTESIAN_POINT('',(-2.65,-41.5370767315591,0.0370767315590559));
#1115=CARTESIAN_POINT('Origin',(0.,-41.5370767315591,0.0370767315590559));
#1116=CARTESIAN_POINT('',(-2.65,-25.2370767315591,0.03707673155906));
#1117=CARTESIAN_POINT('Origin',(7.92873189241134,-25.2370767315591,5.58151859510667));
#1118=CARTESIAN_POINT('',(7.92873189241134,-25.2370767315591,5.58151859510667));
#1119=CARTESIAN_POINT('',(6.22355975585209,-25.2370767315591,7.44470313718578));
#1120=CARTESIAN_POINT('',(7.92873189241134,-25.2370767315591,5.58151859510667));
#1121=CARTESIAN_POINT('',(6.22355975585209,-41.5370767315591,7.44470313718578));
#1122=CARTESIAN_POINT('',(6.22355975585209,-25.2370767315591,7.44470313718578));
#1123=CARTESIAN_POINT('',(7.92873189241134,-41.5370767315591,5.58151859510666));
#1124=CARTESIAN_POINT('',(7.92873189241134,-41.5370767315591,5.58151859510666));
#1125=CARTESIAN_POINT('',(7.92873189241134,-25.2370767315591,5.58151859510667));
#1126=CARTESIAN_POINT('Origin',(9.09357405335174,-25.2370767315591,3.34048950265018));
#1127=CARTESIAN_POINT('',(9.09357405335174,-25.2370767315591,3.34048950265018));
#1128=CARTESIAN_POINT('',(9.09357405335174,-25.2370767315591,3.34048950265018));
#1129=CARTESIAN_POINT('',(9.09357405335174,-41.5370767315591,3.34048950265017));
#1130=CARTESIAN_POINT('',(9.09357405335174,-41.5370767315591,3.34048950265017));
#1131=CARTESIAN_POINT('',(9.09357405335174,-25.2370767315591,3.34048950265018));
#1132=CARTESIAN_POINT('Origin',(9.63870417039788,-25.2370767315591,0.874338288991545));
#1133=CARTESIAN_POINT('',(9.63870417039788,-25.2370767315591,0.874338288991545));
#1134=CARTESIAN_POINT('',(9.63870417039788,-25.2370767315591,0.874338288991545));
#1135=CARTESIAN_POINT('',(9.63870417039788,-41.5370767315591,0.874338288991541));
#1136=CARTESIAN_POINT('',(9.63870417039788,-41.5370767315591,0.874338288991541));
#1137=CARTESIAN_POINT('',(9.63870417039788,-25.2370767315591,0.874338288991545));
#1138=CARTESIAN_POINT('Origin',(9.5269725269432,-25.2370767315591,-1.64887091616596));
#1139=CARTESIAN_POINT('',(9.5269725269432,-25.2370767315591,-1.64887091616596));
#1140=CARTESIAN_POINT('',(9.5269725269432,-25.2370767315591,-1.64887091616596));
#1141=CARTESIAN_POINT('',(9.5269725269432,-41.5370767315591,-1.64887091616596));
#1142=CARTESIAN_POINT('',(9.5269725269432,-41.5370767315591,-1.64887091616596));
#1143=CARTESIAN_POINT('',(9.5269725269432,-25.2370767315591,-1.64887091616596));
#1144=CARTESIAN_POINT('Origin',(8.76599344984384,-25.2370767315591,-4.05718557529123));
#1145=CARTESIAN_POINT('',(8.76599344984384,-25.2370767315591,-4.05718557529123));
#1146=CARTESIAN_POINT('',(8.76599344984384,-25.2370767315591,-4.05718557529123));
#1147=CARTESIAN_POINT('',(8.76599344984384,-41.5370767315591,-4.05718557529123));
#1148=CARTESIAN_POINT('',(8.76599344984384,-41.5370767315591,-4.05718557529123));
#1149=CARTESIAN_POINT('',(8.76599344984384,-25.2370767315591,-4.05718557529123));
#1150=CARTESIAN_POINT('Origin',(7.40762640562672,-25.2370767315591,-6.18648302429303));
#1151=CARTESIAN_POINT('',(7.40762640562672,-25.2370767315591,-6.18648302429303));
#1152=CARTESIAN_POINT('',(7.40762640562672,-25.2370767315591,-6.18648302429303));
#1153=CARTESIAN_POINT('',(7.40762640562672,-41.5370767315591,-6.18648302429303));
#1154=CARTESIAN_POINT('',(7.40762640562672,-41.5370767315591,-6.18648302429303));
#1155=CARTESIAN_POINT('',(7.40762640562672,-25.2370767315591,-6.18648302429303));
#1156=CARTESIAN_POINT('Origin',(5.5444418635476,-25.2370767315591,-7.89165516085228));
#1157=CARTESIAN_POINT('',(5.5444418635476,-25.2370767315591,-7.89165516085228));
#1158=CARTESIAN_POINT('',(5.5444418635476,-25.2370767315591,-7.89165516085228));
#1159=CARTESIAN_POINT('',(5.5444418635476,-41.5370767315591,-7.89165516085229));
#1160=CARTESIAN_POINT('',(5.5444418635476,-41.5370767315591,-7.89165516085229));
#1161=CARTESIAN_POINT('',(5.5444418635476,-25.2370767315591,-7.89165516085228));
#1162=CARTESIAN_POINT('Origin',(3.30341277109111,-25.2370767315591,-9.05649732179269));
#1163=CARTESIAN_POINT('',(3.30341277109111,-25.2370767315591,-9.05649732179269));
#1164=CARTESIAN_POINT('',(3.30341277109111,-25.2370767315591,-9.05649732179269));
#1165=CARTESIAN_POINT('',(3.30341277109111,-41.5370767315591,-9.05649732179269));
#1166=CARTESIAN_POINT('',(3.30341277109111,-41.5370767315591,-9.05649732179269));
#1167=CARTESIAN_POINT('',(3.30341277109111,-25.2370767315591,-9.05649732179269));
#1168=CARTESIAN_POINT('Origin',(0.837261557432489,-25.2370767315591,-9.60162743883883));
#1169=CARTESIAN_POINT('',(0.837261557432489,-25.2370767315591,-9.60162743883883));
#1170=CARTESIAN_POINT('',(0.837261557432489,-25.2370767315591,-9.60162743883883));
#1171=CARTESIAN_POINT('',(0.837261557432489,-41.5370767315591,-9.60162743883884));
#1172=CARTESIAN_POINT('',(0.837261557432489,-41.5370767315591,-9.60162743883884));
#1173=CARTESIAN_POINT('',(0.837261557432489,-25.2370767315591,-9.60162743883883));
#1174=CARTESIAN_POINT('Origin',(-1.68594764772502,-25.2370767315591,-9.48989579538414));
#1175=CARTESIAN_POINT('',(-1.68594764772502,-25.2370767315591,-9.48989579538414));
#1176=CARTESIAN_POINT('',(-1.68594764772502,-25.2370767315591,-9.48989579538414));
#1177=CARTESIAN_POINT('',(-1.68594764772502,-41.5370767315591,-9.48989579538414));
#1178=CARTESIAN_POINT('',(-1.68594764772502,-41.5370767315591,-9.48989579538414));
#1179=CARTESIAN_POINT('',(-1.68594764772502,-25.2370767315591,-9.48989579538414));
#1180=CARTESIAN_POINT('Origin',(-4.09426230685028,-25.2370767315591,-8.72891671828477));
#1181=CARTESIAN_POINT('',(-4.09426230685028,-25.2370767315591,-8.72891671828477));
#1182=CARTESIAN_POINT('',(-4.09426230685028,-25.2370767315591,-8.72891671828477));
#1183=CARTESIAN_POINT('',(-4.09426230685028,-41.5370767315591,-8.72891671828478));
#1184=CARTESIAN_POINT('',(-4.09426230685028,-41.5370767315591,-8.72891671828478));
#1185=CARTESIAN_POINT('',(-4.09426230685028,-25.2370767315591,-8.72891671828477));
#1186=CARTESIAN_POINT('Origin',(-6.22355975585208,-25.2370767315591,-7.37054967406767));
#1187=CARTESIAN_POINT('',(-6.22355975585208,-25.2370767315591,-7.37054967406767));
#1188=CARTESIAN_POINT('',(-6.22355975585208,-25.2370767315591,-7.37054967406767));
#1189=CARTESIAN_POINT('',(-6.22355975585208,-41.5370767315591,-7.37054967406767));
#1190=CARTESIAN_POINT('',(-6.22355975585208,-41.5370767315591,-7.37054967406767));
#1191=CARTESIAN_POINT('',(-6.22355975585208,-25.2370767315591,-7.37054967406767));
#1192=CARTESIAN_POINT('Origin',(-7.92873189241134,-25.2370767315591,-5.50736513198855));
#1193=CARTESIAN_POINT('',(-7.92873189241134,-25.2370767315591,-5.50736513198855));
#1194=CARTESIAN_POINT('',(-7.92873189241134,-25.2370767315591,-5.50736513198855));
#1195=CARTESIAN_POINT('',(-7.92873189241134,-41.5370767315591,-5.50736513198855));
#1196=CARTESIAN_POINT('',(-7.92873189241134,-41.5370767315591,-5.50736513198855));
#1197=CARTESIAN_POINT('',(-7.92873189241134,-25.2370767315591,-5.50736513198855));
#1198=CARTESIAN_POINT('Origin',(-9.09357405335174,-25.2370767315591,-3.26633603953206));
#1199=CARTESIAN_POINT('',(-9.09357405335174,-25.2370767315591,-3.26633603953206));
#1200=CARTESIAN_POINT('',(-9.09357405335174,-25.2370767315591,-3.26633603953206));
#1201=CARTESIAN_POINT('',(-9.09357405335174,-41.5370767315591,-3.26633603953206));
#1202=CARTESIAN_POINT('',(-9.09357405335174,-41.5370767315591,-3.26633603953206));
#1203=CARTESIAN_POINT('',(-9.09357405335174,-25.2370767315591,-3.26633603953206));
#1204=CARTESIAN_POINT('Origin',(-9.63870417039788,-25.2370767315591,-0.800184825873429));
#1205=CARTESIAN_POINT('',(-9.63870417039788,-25.2370767315591,-0.800184825873429));
#1206=CARTESIAN_POINT('',(-9.63870417039788,-25.2370767315591,-0.800184825873429));
#1207=CARTESIAN_POINT('',(-9.63870417039788,-41.5370767315591,-0.800184825873433));
#1208=CARTESIAN_POINT('',(-9.63870417039788,-41.5370767315591,-0.800184825873433));
#1209=CARTESIAN_POINT('',(-9.63870417039788,-25.2370767315591,-0.800184825873429));
#1210=CARTESIAN_POINT('Origin',(-9.52697252694321,-25.2370767315591,1.72302437928407));
#1211=CARTESIAN_POINT('',(-9.52697252694321,-25.2370767315591,1.72302437928407));
#1212=CARTESIAN_POINT('',(-9.52697252694321,-25.2370767315591,1.72302437928407));
#1213=CARTESIAN_POINT('',(-9.52697252694321,-41.5370767315591,1.72302437928407));
#1214=CARTESIAN_POINT('',(-9.52697252694321,-41.5370767315591,1.72302437928407));
#1215=CARTESIAN_POINT('',(-9.52697252694321,-25.2370767315591,1.72302437928407));
#1216=CARTESIAN_POINT('Origin',(-8.76599344984384,-25.2370767315591,4.13133903840935));
#1217=CARTESIAN_POINT('',(-8.76599344984384,-25.2370767315591,4.13133903840935));
#1218=CARTESIAN_POINT('',(-8.76599344984384,-25.2370767315591,4.13133903840935));
#1219=CARTESIAN_POINT('',(-8.76599344984384,-41.5370767315591,4.13133903840934));
#1220=CARTESIAN_POINT('',(-8.76599344984384,-41.5370767315591,4.13133903840934));
#1221=CARTESIAN_POINT('',(-8.76599344984384,-25.2370767315591,4.13133903840935));
#1222=CARTESIAN_POINT('Origin',(-7.40762640562672,-25.2370767315591,6.26063648741114));
#1223=CARTESIAN_POINT('',(-7.40762640562672,-25.2370767315591,6.26063648741114));
#1224=CARTESIAN_POINT('',(-7.40762640562672,-25.2370767315591,6.26063648741114));
#1225=CARTESIAN_POINT('',(-7.40762640562672,-41.5370767315591,6.26063648741114));
#1226=CARTESIAN_POINT('',(-7.40762640562672,-41.5370767315591,6.26063648741114));
#1227=CARTESIAN_POINT('',(-7.40762640562672,-25.2370767315591,6.26063648741114));
#1228=CARTESIAN_POINT('Origin',(-5.5444418635476,-25.2370767315591,7.9658086239704));
#1229=CARTESIAN_POINT('',(-5.5444418635476,-25.2370767315591,7.9658086239704));
#1230=CARTESIAN_POINT('',(-5.5444418635476,-25.2370767315591,7.9658086239704));
#1231=CARTESIAN_POINT('',(-5.5444418635476,-41.5370767315591,7.9658086239704));
#1232=CARTESIAN_POINT('',(-5.5444418635476,-41.5370767315591,7.9658086239704));
#1233=CARTESIAN_POINT('',(-5.5444418635476,-25.2370767315591,7.9658086239704));
#1234=CARTESIAN_POINT('Origin',(-3.30341277109111,-25.2370767315591,9.13065078491081));
#1235=CARTESIAN_POINT('',(-3.30341277109111,-25.2370767315591,9.13065078491081));
#1236=CARTESIAN_POINT('',(-3.30341277109111,-25.2370767315591,9.13065078491081));
#1237=CARTESIAN_POINT('',(-3.30341277109111,-41.5370767315591,9.1306507849108));
#1238=CARTESIAN_POINT('',(-3.30341277109111,-41.5370767315591,9.1306507849108));
#1239=CARTESIAN_POINT('',(-3.30341277109111,-25.2370767315591,9.13065078491081));
#1240=CARTESIAN_POINT('Origin',(-0.837261557432489,-25.2370767315591,9.67578090195695));
#1241=CARTESIAN_POINT('',(-0.837261557432489,-25.2370767315591,9.67578090195695));
#1242=CARTESIAN_POINT('',(-0.837261557432489,-25.2370767315591,9.67578090195695));
#1243=CARTESIAN_POINT('',(-0.837261557432489,-41.5370767315591,9.67578090195695));
#1244=CARTESIAN_POINT('',(-0.837261557432489,-41.5370767315591,9.67578090195695));
#1245=CARTESIAN_POINT('',(-0.837261557432489,-25.2370767315591,9.67578090195695));
#1246=CARTESIAN_POINT('Origin',(1.68594764772502,-25.2370767315591,9.56404925850226));
#1247=CARTESIAN_POINT('',(1.68594764772502,-25.2370767315591,9.56404925850226));
#1248=CARTESIAN_POINT('',(1.68594764772502,-25.2370767315591,9.56404925850226));
#1249=CARTESIAN_POINT('',(1.68594764772502,-41.5370767315591,9.56404925850225));
#1250=CARTESIAN_POINT('',(1.68594764772502,-41.5370767315591,9.56404925850225));
#1251=CARTESIAN_POINT('',(1.68594764772502,-25.2370767315591,9.56404925850226));
#1252=CARTESIAN_POINT('Origin',(4.09426230685028,-25.2370767315591,8.80307018140289));
#1253=CARTESIAN_POINT('',(4.09426230685028,-25.2370767315591,8.80307018140289));
#1254=CARTESIAN_POINT('',(4.09426230685028,-25.2370767315591,8.80307018140289));
#1255=CARTESIAN_POINT('',(4.09426230685028,-41.5370767315591,8.80307018140289));
#1256=CARTESIAN_POINT('',(4.09426230685028,-41.5370767315591,8.80307018140289));
#1257=CARTESIAN_POINT('',(4.09426230685028,-25.2370767315591,8.80307018140289));
#1258=CARTESIAN_POINT('Origin',(6.22355975585209,-25.2370767315591,7.44470313718578));
#1259=CARTESIAN_POINT('',(6.22355975585209,-25.2370767315591,7.44470313718578));
#1260=CARTESIAN_POINT('',(6.22355975585209,-41.5370767315591,7.44470313718578));
#1261=CARTESIAN_POINT('Origin',(0.,-41.5370767315591,0.0370767315590559));
#1262=CARTESIAN_POINT('Origin',(0.,-25.2370767315591,0.0370767315590603));
#1263=UNCERTAINTY_MEASURE_WITH_UNIT(LENGTH_MEASURE(0.01),#1267,
'DISTANCE_ACCURACY_VALUE',
'Maximum model space distance between geometric entities at asserted c
onnectivities');
#1264=UNCERTAINTY_MEASURE_WITH_UNIT(LENGTH_MEASURE(0.01),#1267,
'DISTANCE_ACCURACY_VALUE',
'Maximum model space distance between geometric entities at asserted c
onnectivities');
#1265=(
GEOMETRIC_REPRESENTATION_CONTEXT(3)
GLOBAL_UNCERTAINTY_ASSIGNED_CONTEXT((#1263))
GLOBAL_UNIT_ASSIGNED_CONTEXT((#1267,#1269,#1270))
REPRESENTATION_CONTEXT('','3D')
);
#1266=(
GEOMETRIC_REPRESENTATION_CONTEXT(3)
GLOBAL_UNCERTAINTY_ASSIGNED_CONTEXT((#1264))
GLOBAL_UNIT_ASSIGNED_CONTEXT((#1267,#1269,#1270))
REPRESENTATION_CONTEXT('','3D')
);
#1267=(
LENGTH_UNIT()
NAMED_UNIT(*)
SI_UNIT(.MILLI.,.METRE.)
);
#1268=(
LENGTH_UNIT()
NAMED_UNIT(*)
SI_UNIT($,.METRE.)
);
#1269=(
NAMED_UNIT(*)
PLANE_ANGLE_UNIT()
SI_UNIT($,.RADIAN.)
);
#1270=(
NAMED_UNIT(*)
SI_UNIT($,.STERADIAN.)
SOLID_ANGLE_UNIT()
);
#1271=SHAPE_DEFINITION_REPRESENTATION(#1272,#1273);
#1272=PRODUCT_DEFINITION_SHAPE('',$,#1275);
#1273=SHAPE_REPRESENTATION('',(#787),#1265);
#1274=PRODUCT_DEFINITION_CONTEXT('part definition',#1279,'design');
#1275=PRODUCT_DEFINITION('etau (v25~recovered)','etau (v25~recovered)',
#1276,#1274);
#1276=PRODUCT_DEFINITION_FORMATION('',$,#1281);
#1277=PRODUCT_RELATED_PRODUCT_CATEGORY('etau (v25~recovered)',
'etau (v25~recovered)',(#1281));
#1278=APPLICATION_PROTOCOL_DEFINITION('international standard',
'automotive_design',2009,#1279);
#1279=APPLICATION_CONTEXT(
'Core Data for Automotive Mechanical Design Process');
#1280=PRODUCT_CONTEXT('part definition',#1279,'mechanical');
#1281=PRODUCT('etau (v25~recovered)','etau (v25~recovered)',$,(#1280));
#1282=PRESENTATION_STYLE_ASSIGNMENT((#1283));
#1283=SURFACE_STYLE_USAGE(.BOTH.,#1284);
#1284=SURFACE_SIDE_STYLE('',(#1285));
#1285=SURFACE_STYLE_FILL_AREA(#1286);
#1286=FILL_AREA_STYLE('Acier - Satin\X\E9',(#1287));
#1287=FILL_AREA_STYLE_COLOUR('Acier - Satin\X\E9',#1288);
#1288=COLOUR_RGB('Acier - Satin\X\E9',0.627450980392157,0.627450980392157,
0.627450980392157);
ENDSEC;
END-ISO-10303-21;
