ISO-10303-21;
HEADER;
/* Generated by software containing ST-Developer
 * from STEP Tools, Inc. (www.steptools.com) 
 */

FILE_DESCRIPTION(
/* description */ (''),
/* implementation_level */ '2;1');

FILE_NAME(
/* name */ 'etau3_piston.step',
/* time_stamp */ '2025-10-31T19:41:55+01:00',
/* author */ (''),
/* organization */ (''),
/* preprocessor_version */ 'ST-DEVELOPER v20.1',
/* originating_system */ 'Autodesk Translation Framework v14.17.0.0',
/* authorisation */ '');

FILE_SCHEMA (('AUTOMOTIVE_DESIGN { 1 0 10303 214 3 1 1 }'));
ENDSEC;

DATA;
#10=MECHANICAL_DESIGN_GEOMETRIC_PRESENTATION_REPRESENTATION('',(#13),#1220);
#11=SHAPE_REPRESENTATION_RELATIONSHIP('SRR','None',#1227,#12);
#12=ADVANCED_BREP_SHAPE_REPRESENTATION('',(#14),#1219);
#13=STYLED_ITEM('',(#1236),#14);
#14=MANIFOLD_SOLID_BREP('Corps6',#754);
#15=CYLINDRICAL_SURFACE('',#773,0.5);
#16=CYLINDRICAL_SURFACE('',#804,1.);
#17=CYLINDRICAL_SURFACE('',#806,1.);
#18=CYLINDRICAL_SURFACE('',#808,2.65000000000001);
#19=FACE_BOUND('',#73,.T.);
#20=FACE_BOUND('',#80,.T.);
#21=FACE_BOUND('',#93,.T.);
#22=FACE_BOUND('',#101,.T.);
#23=CIRCLE('',#771,1.);
#24=CIRCLE('',#772,1.);
#25=CIRCLE('',#774,0.5);
#26=CIRCLE('',#775,0.5);
#27=CIRCLE('',#781,1.);
#28=CIRCLE('',#782,1.);
#29=CIRCLE('',#795,2.65000000000001);
#30=CIRCLE('',#803,2.65000000000001);
#31=FACE_OUTER_BOUND('',#70,.T.);
#32=FACE_OUTER_BOUND('',#71,.T.);
#33=FACE_OUTER_BOUND('',#72,.T.);
#34=FACE_OUTER_BOUND('',#74,.T.);
#35=FACE_OUTER_BOUND('',#75,.T.);
#36=FACE_OUTER_BOUND('',#76,.T.);
#37=FACE_OUTER_BOUND('',#77,.T.);
#38=FACE_OUTER_BOUND('',#78,.T.);
#39=FACE_OUTER_BOUND('',#79,.T.);
#40=FACE_OUTER_BOUND('',#81,.T.);
#41=FACE_OUTER_BOUND('',#82,.T.);
#42=FACE_OUTER_BOUND('',#83,.T.);
#43=FACE_OUTER_BOUND('',#84,.T.);
#44=FACE_OUTER_BOUND('',#85,.T.);
#45=FACE_OUTER_BOUND('',#86,.T.);
#46=FACE_OUTER_BOUND('',#87,.T.);
#47=FACE_OUTER_BOUND('',#88,.T.);
#48=FACE_OUTER_BOUND('',#89,.T.);
#49=FACE_OUTER_BOUND('',#90,.T.);
#50=FACE_OUTER_BOUND('',#91,.T.);
#51=FACE_OUTER_BOUND('',#92,.T.);
#52=FACE_OUTER_BOUND('',#94,.T.);
#53=FACE_OUTER_BOUND('',#95,.T.);
#54=FACE_OUTER_BOUND('',#96,.T.);
#55=FACE_OUTER_BOUND('',#97,.T.);
#56=FACE_OUTER_BOUND('',#98,.T.);
#57=FACE_OUTER_BOUND('',#99,.T.);
#58=FACE_OUTER_BOUND('',#100,.T.);
#59=FACE_OUTER_BOUND('',#102,.T.);
#60=FACE_OUTER_BOUND('',#103,.T.);
#61=FACE_OUTER_BOUND('',#104,.T.);
#62=FACE_OUTER_BOUND('',#105,.T.);
#63=FACE_OUTER_BOUND('',#106,.T.);
#64=FACE_OUTER_BOUND('',#107,.T.);
#65=FACE_OUTER_BOUND('',#108,.T.);
#66=FACE_OUTER_BOUND('',#109,.T.);
#67=FACE_OUTER_BOUND('',#110,.T.);
#68=FACE_OUTER_BOUND('',#111,.T.);
#69=FACE_OUTER_BOUND('',#112,.T.);
#70=EDGE_LOOP('',(#474,#475,#476,#477));
#71=EDGE_LOOP('',(#478,#479,#480,#481));
#72=EDGE_LOOP('',(#482,#483,#484,#485,#486,#487,#488,#489,#490,#491,#492,
#493));
#73=EDGE_LOOP('',(#494,#495,#496,#497,#498,#499));
#74=EDGE_LOOP('',(#500,#501,#502,#503));
#75=EDGE_LOOP('',(#504,#505,#506,#507,#508,#509,#510));
#76=EDGE_LOOP('',(#511,#512,#513,#514));
#77=EDGE_LOOP('',(#515,#516,#517,#518));
#78=EDGE_LOOP('',(#519,#520,#521,#522,#523,#524));
#79=EDGE_LOOP('',(#525,#526,#527,#528,#529,#530,#531,#532,#533,#534,#535,
#536,#537,#538,#539,#540));
#80=EDGE_LOOP('',(#541,#542,#543,#544,#545,#546));
#81=EDGE_LOOP('',(#547,#548,#549,#550,#551,#552,#553));
#82=EDGE_LOOP('',(#554,#555,#556,#557));
#83=EDGE_LOOP('',(#558,#559,#560,#561));
#84=EDGE_LOOP('',(#562,#563,#564,#565));
#85=EDGE_LOOP('',(#566,#567,#568,#569));
#86=EDGE_LOOP('',(#570,#571,#572,#573));
#87=EDGE_LOOP('',(#574,#575,#576,#577));
#88=EDGE_LOOP('',(#578,#579,#580,#581));
#89=EDGE_LOOP('',(#582,#583,#584,#585));
#90=EDGE_LOOP('',(#586,#587,#588,#589));
#91=EDGE_LOOP('',(#590,#591,#592,#593));
#92=EDGE_LOOP('',(#594,#595,#596,#597,#598,#599));
#93=EDGE_LOOP('',(#600));
#94=EDGE_LOOP('',(#601,#602,#603,#604));
#95=EDGE_LOOP('',(#605,#606,#607,#608));
#96=EDGE_LOOP('',(#609,#610,#611,#612));
#97=EDGE_LOOP('',(#613,#614,#615,#616));
#98=EDGE_LOOP('',(#617,#618,#619,#620));
#99=EDGE_LOOP('',(#621,#622,#623,#624));
#100=EDGE_LOOP('',(#625,#626,#627,#628,#629,#630));
#101=EDGE_LOOP('',(#631));
#102=EDGE_LOOP('',(#632,#633,#634,#635));
#103=EDGE_LOOP('',(#636,#637,#638,#639));
#104=EDGE_LOOP('',(#640,#641,#642,#643));
#105=EDGE_LOOP('',(#644,#645,#646,#647));
#106=EDGE_LOOP('',(#648,#649,#650,#651));
#107=EDGE_LOOP('',(#652,#653,#654,#655));
#108=EDGE_LOOP('',(#656,#657,#658,#659));
#109=EDGE_LOOP('',(#660,#661,#662,#663,#664,#665));
#110=EDGE_LOOP('',(#666,#667,#668,#669));
#111=EDGE_LOOP('',(#670,#671,#672,#673,#674,#675));
#112=EDGE_LOOP('',(#676,#677,#678,#679));
#113=LINE('',#1010,#208);
#114=LINE('',#1012,#209);
#115=LINE('',#1014,#210);
#116=LINE('',#1015,#211);
#117=LINE('',#1018,#212);
#118=LINE('',#1020,#213);
#119=LINE('',#1021,#214);
#120=LINE('',#1024,#215);
#121=LINE('',#1026,#216);
#122=LINE('',#1030,#217);
#123=LINE('',#1032,#218);
#124=LINE('',#1034,#219);
#125=LINE('',#1036,#220);
#126=LINE('',#1038,#221);
#127=LINE('',#1041,#222);
#128=LINE('',#1044,#223);
#129=LINE('',#1046,#224);
#130=LINE('',#1048,#225);
#131=LINE('',#1050,#226);
#132=LINE('',#1052,#227);
#133=LINE('',#1053,#228);
#134=LINE('',#1059,#229);
#135=LINE('',#1062,#230);
#136=LINE('',#1065,#231);
#137=LINE('',#1067,#232);
#138=LINE('',#1069,#233);
#139=LINE('',#1071,#234);
#140=LINE('',#1073,#235);
#141=LINE('',#1074,#236);
#142=LINE('',#1077,#237);
#143=LINE('',#1078,#238);
#144=LINE('',#1081,#239);
#145=LINE('',#1082,#240);
#146=LINE('',#1085,#241);
#147=LINE('',#1087,#242);
#148=LINE('',#1089,#243);
#149=LINE('',#1091,#244);
#150=LINE('',#1092,#245);
#151=LINE('',#1095,#246);
#152=LINE('',#1099,#247);
#153=LINE('',#1101,#248);
#154=LINE('',#1102,#249);
#155=LINE('',#1104,#250);
#156=LINE('',#1106,#251);
#157=LINE('',#1108,#252);
#158=LINE('',#1110,#253);
#159=LINE('',#1114,#254);
#160=LINE('',#1115,#255);
#161=LINE('',#1118,#256);
#162=LINE('',#1120,#257);
#163=LINE('',#1122,#258);
#164=LINE('',#1124,#259);
#165=LINE('',#1126,#260);
#166=LINE('',#1127,#261);
#167=LINE('',#1129,#262);
#168=LINE('',#1130,#263);
#169=LINE('',#1133,#264);
#170=LINE('',#1135,#265);
#171=LINE('',#1136,#266);
#172=LINE('',#1138,#267);
#173=LINE('',#1140,#268);
#174=LINE('',#1144,#269);
#175=LINE('',#1146,#270);
#176=LINE('',#1147,#271);
#177=LINE('',#1150,#272);
#178=LINE('',#1151,#273);
#179=LINE('',#1154,#274);
#180=LINE('',#1155,#275);
#181=LINE('',#1158,#276);
#182=LINE('',#1159,#277);
#183=LINE('',#1162,#278);
#184=LINE('',#1163,#279);
#185=LINE('',#1165,#280);
#186=LINE('',#1171,#281);
#187=LINE('',#1173,#282);
#188=LINE('',#1174,#283);
#189=LINE('',#1177,#284);
#190=LINE('',#1178,#285);
#191=LINE('',#1181,#286);
#192=LINE('',#1182,#287);
#193=LINE('',#1185,#288);
#194=LINE('',#1186,#289);
#195=LINE('',#1189,#290);
#196=LINE('',#1190,#291);
#197=LINE('',#1192,#292);
#198=LINE('',#1197,#293);
#199=LINE('',#1198,#294);
#200=LINE('',#1200,#295);
#201=LINE('',#1202,#296);
#202=LINE('',#1203,#297);
#203=LINE('',#1205,#298);
#204=LINE('',#1207,#299);
#205=LINE('',#1209,#300);
#206=LINE('',#1212,#301);
#207=LINE('',#1214,#302);
#208=VECTOR('',#819,10.);
#209=VECTOR('',#820,10.);
#210=VECTOR('',#821,10.);
#211=VECTOR('',#822,10.);
#212=VECTOR('',#825,10.);
#213=VECTOR('',#826,10.);
#214=VECTOR('',#827,10.);
#215=VECTOR('',#830,10.);
#216=VECTOR('',#831,10.);
#217=VECTOR('',#834,10.);
#218=VECTOR('',#835,10.);
#219=VECTOR('',#836,10.);
#220=VECTOR('',#837,10.);
#221=VECTOR('',#838,10.);
#222=VECTOR('',#841,10.);
#223=VECTOR('',#842,10.);
#224=VECTOR('',#843,10.);
#225=VECTOR('',#844,10.);
#226=VECTOR('',#845,10.);
#227=VECTOR('',#846,10.);
#228=VECTOR('',#847,10.);
#229=VECTOR('',#852,10.);
#230=VECTOR('',#855,10.);
#231=VECTOR('',#858,10.);
#232=VECTOR('',#859,10.);
#233=VECTOR('',#860,10.);
#234=VECTOR('',#861,10.);
#235=VECTOR('',#862,10.);
#236=VECTOR('',#863,10.);
#237=VECTOR('',#866,10.);
#238=VECTOR('',#867,10.);
#239=VECTOR('',#870,10.);
#240=VECTOR('',#871,10.);
#241=VECTOR('',#874,10.);
#242=VECTOR('',#875,10.);
#243=VECTOR('',#876,10.);
#244=VECTOR('',#877,10.);
#245=VECTOR('',#878,10.);
#246=VECTOR('',#881,10.);
#247=VECTOR('',#884,10.);
#248=VECTOR('',#885,10.);
#249=VECTOR('',#886,10.);
#250=VECTOR('',#887,10.);
#251=VECTOR('',#888,10.);
#252=VECTOR('',#889,10.);
#253=VECTOR('',#890,10.);
#254=VECTOR('',#893,10.);
#255=VECTOR('',#894,10.);
#256=VECTOR('',#895,10.);
#257=VECTOR('',#896,10.);
#258=VECTOR('',#897,10.);
#259=VECTOR('',#898,10.);
#260=VECTOR('',#899,10.);
#261=VECTOR('',#900,10.);
#262=VECTOR('',#903,10.);
#263=VECTOR('',#904,10.);
#264=VECTOR('',#907,10.);
#265=VECTOR('',#908,10.);
#266=VECTOR('',#909,10.);
#267=VECTOR('',#912,10.);
#268=VECTOR('',#915,10.);
#269=VECTOR('',#920,10.);
#270=VECTOR('',#921,10.);
#271=VECTOR('',#922,10.);
#272=VECTOR('',#925,10.);
#273=VECTOR('',#926,10.);
#274=VECTOR('',#929,10.);
#275=VECTOR('',#930,10.);
#276=VECTOR('',#933,10.);
#277=VECTOR('',#934,10.);
#278=VECTOR('',#937,10.);
#279=VECTOR('',#938,10.);
#280=VECTOR('',#941,10.);
#281=VECTOR('',#948,10.);
#282=VECTOR('',#949,10.);
#283=VECTOR('',#950,10.);
#284=VECTOR('',#953,10.);
#285=VECTOR('',#954,10.);
#286=VECTOR('',#957,10.);
#287=VECTOR('',#958,10.);
#288=VECTOR('',#961,10.);
#289=VECTOR('',#962,10.);
#290=VECTOR('',#965,10.);
#291=VECTOR('',#966,10.);
#292=VECTOR('',#969,10.);
#293=VECTOR('',#976,10.);
#294=VECTOR('',#977,10.);
#295=VECTOR('',#980,10.);
#296=VECTOR('',#983,10.);
#297=VECTOR('',#984,10.);
#298=VECTOR('',#987,10.);
#299=VECTOR('',#990,2.65000000000001);
#300=VECTOR('',#993,10.);
#301=VECTOR('',#998,10.);
#302=VECTOR('',#1001,10.);
#303=VERTEX_POINT('',#1008);
#304=VERTEX_POINT('',#1009);
#305=VERTEX_POINT('',#1011);
#306=VERTEX_POINT('',#1013);
#307=VERTEX_POINT('',#1017);
#308=VERTEX_POINT('',#1019);
#309=VERTEX_POINT('',#1023);
#310=VERTEX_POINT('',#1025);
#311=VERTEX_POINT('',#1027);
#312=VERTEX_POINT('',#1029);
#313=VERTEX_POINT('',#1031);
#314=VERTEX_POINT('',#1033);
#315=VERTEX_POINT('',#1035);
#316=VERTEX_POINT('',#1037);
#317=VERTEX_POINT('',#1039);
#318=VERTEX_POINT('',#1042);
#319=VERTEX_POINT('',#1043);
#320=VERTEX_POINT('',#1045);
#321=VERTEX_POINT('',#1047);
#322=VERTEX_POINT('',#1049);
#323=VERTEX_POINT('',#1051);
#324=VERTEX_POINT('',#1055);
#325=VERTEX_POINT('',#1056);
#326=VERTEX_POINT('',#1058);
#327=VERTEX_POINT('',#1060);
#328=VERTEX_POINT('',#1064);
#329=VERTEX_POINT('',#1066);
#330=VERTEX_POINT('',#1068);
#331=VERTEX_POINT('',#1070);
#332=VERTEX_POINT('',#1072);
#333=VERTEX_POINT('',#1076);
#334=VERTEX_POINT('',#1080);
#335=VERTEX_POINT('',#1084);
#336=VERTEX_POINT('',#1086);
#337=VERTEX_POINT('',#1088);
#338=VERTEX_POINT('',#1090);
#339=VERTEX_POINT('',#1094);
#340=VERTEX_POINT('',#1096);
#341=VERTEX_POINT('',#1098);
#342=VERTEX_POINT('',#1100);
#343=VERTEX_POINT('',#1103);
#344=VERTEX_POINT('',#1105);
#345=VERTEX_POINT('',#1107);
#346=VERTEX_POINT('',#1109);
#347=VERTEX_POINT('',#1111);
#348=VERTEX_POINT('',#1113);
#349=VERTEX_POINT('',#1116);
#350=VERTEX_POINT('',#1117);
#351=VERTEX_POINT('',#1119);
#352=VERTEX_POINT('',#1121);
#353=VERTEX_POINT('',#1123);
#354=VERTEX_POINT('',#1125);
#355=VERTEX_POINT('',#1132);
#356=VERTEX_POINT('',#1134);
#357=VERTEX_POINT('',#1143);
#358=VERTEX_POINT('',#1145);
#359=VERTEX_POINT('',#1149);
#360=VERTEX_POINT('',#1153);
#361=VERTEX_POINT('',#1157);
#362=VERTEX_POINT('',#1161);
#363=VERTEX_POINT('',#1167);
#364=VERTEX_POINT('',#1170);
#365=VERTEX_POINT('',#1172);
#366=VERTEX_POINT('',#1176);
#367=VERTEX_POINT('',#1180);
#368=VERTEX_POINT('',#1184);
#369=VERTEX_POINT('',#1188);
#370=VERTEX_POINT('',#1194);
#371=EDGE_CURVE('',#303,#304,#113,.T.);
#372=EDGE_CURVE('',#305,#303,#114,.T.);
#373=EDGE_CURVE('',#306,#305,#115,.T.);
#374=EDGE_CURVE('',#304,#306,#116,.T.);
#375=EDGE_CURVE('',#303,#307,#117,.T.);
#376=EDGE_CURVE('',#307,#308,#118,.T.);
#377=EDGE_CURVE('',#305,#308,#119,.T.);
#378=EDGE_CURVE('',#309,#304,#120,.T.);
#379=EDGE_CURVE('',#309,#310,#121,.T.);
#380=EDGE_CURVE('',#311,#310,#23,.T.);
#381=EDGE_CURVE('',#312,#311,#122,.T.);
#382=EDGE_CURVE('',#313,#312,#123,.T.);
#383=EDGE_CURVE('',#314,#313,#124,.T.);
#384=EDGE_CURVE('',#315,#314,#125,.T.);
#385=EDGE_CURVE('',#316,#315,#126,.T.);
#386=EDGE_CURVE('',#317,#316,#24,.T.);
#387=EDGE_CURVE('',#317,#307,#127,.T.);
#388=EDGE_CURVE('',#318,#319,#128,.T.);
#389=EDGE_CURVE('',#319,#320,#129,.T.);
#390=EDGE_CURVE('',#320,#321,#130,.T.);
#391=EDGE_CURVE('',#321,#322,#131,.T.);
#392=EDGE_CURVE('',#322,#323,#132,.T.);
#393=EDGE_CURVE('',#323,#318,#133,.T.);
#394=EDGE_CURVE('',#324,#325,#25,.T.);
#395=EDGE_CURVE('',#325,#326,#134,.T.);
#396=EDGE_CURVE('',#326,#327,#26,.T.);
#397=EDGE_CURVE('',#327,#324,#135,.T.);
#398=EDGE_CURVE('',#324,#328,#136,.T.);
#399=EDGE_CURVE('',#328,#329,#137,.T.);
#400=EDGE_CURVE('',#330,#329,#138,.T.);
#401=EDGE_CURVE('',#330,#331,#139,.T.);
#402=EDGE_CURVE('',#331,#332,#140,.T.);
#403=EDGE_CURVE('',#325,#332,#141,.T.);
#404=EDGE_CURVE('',#333,#327,#142,.T.);
#405=EDGE_CURVE('',#328,#333,#143,.T.);
#406=EDGE_CURVE('',#334,#333,#144,.T.);
#407=EDGE_CURVE('',#329,#334,#145,.T.);
#408=EDGE_CURVE('',#331,#335,#146,.T.);
#409=EDGE_CURVE('',#336,#335,#147,.T.);
#410=EDGE_CURVE('',#336,#337,#148,.T.);
#411=EDGE_CURVE('',#338,#337,#149,.T.);
#412=EDGE_CURVE('',#332,#338,#150,.T.);
#413=EDGE_CURVE('',#308,#339,#151,.T.);
#414=EDGE_CURVE('',#340,#339,#27,.T.);
#415=EDGE_CURVE('',#340,#341,#152,.T.);
#416=EDGE_CURVE('',#341,#342,#153,.T.);
#417=EDGE_CURVE('',#342,#330,#154,.T.);
#418=EDGE_CURVE('',#343,#334,#155,.T.);
#419=EDGE_CURVE('',#343,#344,#156,.T.);
#420=EDGE_CURVE('',#344,#345,#157,.T.);
#421=EDGE_CURVE('',#345,#346,#158,.T.);
#422=EDGE_CURVE('',#347,#346,#28,.T.);
#423=EDGE_CURVE('',#347,#348,#159,.T.);
#424=EDGE_CURVE('',#348,#306,#160,.T.);
#425=EDGE_CURVE('',#349,#350,#161,.T.);
#426=EDGE_CURVE('',#350,#351,#162,.T.);
#427=EDGE_CURVE('',#351,#352,#163,.T.);
#428=EDGE_CURVE('',#352,#353,#164,.T.);
#429=EDGE_CURVE('',#353,#354,#165,.T.);
#430=EDGE_CURVE('',#354,#349,#166,.T.);
#431=EDGE_CURVE('',#338,#326,#167,.T.);
#432=EDGE_CURVE('',#337,#343,#168,.T.);
#433=EDGE_CURVE('',#335,#355,#169,.T.);
#434=EDGE_CURVE('',#356,#355,#170,.T.);
#435=EDGE_CURVE('',#356,#336,#171,.T.);
#436=EDGE_CURVE('',#344,#336,#172,.T.);
#437=EDGE_CURVE('',#335,#342,#173,.T.);
#438=EDGE_CURVE('',#349,#357,#174,.T.);
#439=EDGE_CURVE('',#357,#358,#175,.T.);
#440=EDGE_CURVE('',#350,#358,#176,.T.);
#441=EDGE_CURVE('',#354,#359,#177,.T.);
#442=EDGE_CURVE('',#359,#357,#178,.T.);
#443=EDGE_CURVE('',#353,#360,#179,.T.);
#444=EDGE_CURVE('',#360,#359,#180,.T.);
#445=EDGE_CURVE('',#352,#361,#181,.T.);
#446=EDGE_CURVE('',#361,#360,#182,.T.);
#447=EDGE_CURVE('',#351,#362,#183,.T.);
#448=EDGE_CURVE('',#362,#361,#184,.T.);
#449=EDGE_CURVE('',#358,#362,#185,.T.);
#450=EDGE_CURVE('',#363,#363,#29,.T.);
#451=EDGE_CURVE('',#318,#364,#186,.T.);
#452=EDGE_CURVE('',#364,#365,#187,.T.);
#453=EDGE_CURVE('',#319,#365,#188,.T.);
#454=EDGE_CURVE('',#323,#366,#189,.T.);
#455=EDGE_CURVE('',#366,#364,#190,.T.);
#456=EDGE_CURVE('',#322,#367,#191,.T.);
#457=EDGE_CURVE('',#367,#366,#192,.T.);
#458=EDGE_CURVE('',#321,#368,#193,.T.);
#459=EDGE_CURVE('',#368,#367,#194,.T.);
#460=EDGE_CURVE('',#320,#369,#195,.T.);
#461=EDGE_CURVE('',#369,#368,#196,.T.);
#462=EDGE_CURVE('',#365,#369,#197,.T.);
#463=EDGE_CURVE('',#370,#370,#30,.T.);
#464=EDGE_CURVE('',#339,#317,#198,.T.);
#465=EDGE_CURVE('',#316,#340,#199,.T.);
#466=EDGE_CURVE('',#315,#341,#200,.T.);
#467=EDGE_CURVE('',#346,#311,#201,.T.);
#468=EDGE_CURVE('',#310,#347,#202,.T.);
#469=EDGE_CURVE('',#312,#345,#203,.T.);
#470=EDGE_CURVE('',#363,#370,#204,.T.);
#471=EDGE_CURVE('',#309,#348,#205,.T.);
#472=EDGE_CURVE('',#313,#356,#206,.T.);
#473=EDGE_CURVE('',#314,#355,#207,.T.);
#474=ORIENTED_EDGE('',*,*,#371,.F.);
#475=ORIENTED_EDGE('',*,*,#372,.F.);
#476=ORIENTED_EDGE('',*,*,#373,.F.);
#477=ORIENTED_EDGE('',*,*,#374,.F.);
#478=ORIENTED_EDGE('',*,*,#372,.T.);
#479=ORIENTED_EDGE('',*,*,#375,.T.);
#480=ORIENTED_EDGE('',*,*,#376,.T.);
#481=ORIENTED_EDGE('',*,*,#377,.F.);
#482=ORIENTED_EDGE('',*,*,#371,.T.);
#483=ORIENTED_EDGE('',*,*,#378,.F.);
#484=ORIENTED_EDGE('',*,*,#379,.T.);
#485=ORIENTED_EDGE('',*,*,#380,.F.);
#486=ORIENTED_EDGE('',*,*,#381,.F.);
#487=ORIENTED_EDGE('',*,*,#382,.F.);
#488=ORIENTED_EDGE('',*,*,#383,.F.);
#489=ORIENTED_EDGE('',*,*,#384,.F.);
#490=ORIENTED_EDGE('',*,*,#385,.F.);
#491=ORIENTED_EDGE('',*,*,#386,.F.);
#492=ORIENTED_EDGE('',*,*,#387,.T.);
#493=ORIENTED_EDGE('',*,*,#375,.F.);
#494=ORIENTED_EDGE('',*,*,#388,.T.);
#495=ORIENTED_EDGE('',*,*,#389,.T.);
#496=ORIENTED_EDGE('',*,*,#390,.T.);
#497=ORIENTED_EDGE('',*,*,#391,.T.);
#498=ORIENTED_EDGE('',*,*,#392,.T.);
#499=ORIENTED_EDGE('',*,*,#393,.T.);
#500=ORIENTED_EDGE('',*,*,#394,.T.);
#501=ORIENTED_EDGE('',*,*,#395,.T.);
#502=ORIENTED_EDGE('',*,*,#396,.T.);
#503=ORIENTED_EDGE('',*,*,#397,.T.);
#504=ORIENTED_EDGE('',*,*,#394,.F.);
#505=ORIENTED_EDGE('',*,*,#398,.T.);
#506=ORIENTED_EDGE('',*,*,#399,.T.);
#507=ORIENTED_EDGE('',*,*,#400,.F.);
#508=ORIENTED_EDGE('',*,*,#401,.T.);
#509=ORIENTED_EDGE('',*,*,#402,.T.);
#510=ORIENTED_EDGE('',*,*,#403,.F.);
#511=ORIENTED_EDGE('',*,*,#397,.F.);
#512=ORIENTED_EDGE('',*,*,#404,.F.);
#513=ORIENTED_EDGE('',*,*,#405,.F.);
#514=ORIENTED_EDGE('',*,*,#398,.F.);
#515=ORIENTED_EDGE('',*,*,#399,.F.);
#516=ORIENTED_EDGE('',*,*,#405,.T.);
#517=ORIENTED_EDGE('',*,*,#406,.F.);
#518=ORIENTED_EDGE('',*,*,#407,.F.);
#519=ORIENTED_EDGE('',*,*,#402,.F.);
#520=ORIENTED_EDGE('',*,*,#408,.T.);
#521=ORIENTED_EDGE('',*,*,#409,.F.);
#522=ORIENTED_EDGE('',*,*,#410,.T.);
#523=ORIENTED_EDGE('',*,*,#411,.F.);
#524=ORIENTED_EDGE('',*,*,#412,.F.);
#525=ORIENTED_EDGE('',*,*,#373,.T.);
#526=ORIENTED_EDGE('',*,*,#377,.T.);
#527=ORIENTED_EDGE('',*,*,#413,.T.);
#528=ORIENTED_EDGE('',*,*,#414,.F.);
#529=ORIENTED_EDGE('',*,*,#415,.T.);
#530=ORIENTED_EDGE('',*,*,#416,.T.);
#531=ORIENTED_EDGE('',*,*,#417,.T.);
#532=ORIENTED_EDGE('',*,*,#400,.T.);
#533=ORIENTED_EDGE('',*,*,#407,.T.);
#534=ORIENTED_EDGE('',*,*,#418,.F.);
#535=ORIENTED_EDGE('',*,*,#419,.T.);
#536=ORIENTED_EDGE('',*,*,#420,.T.);
#537=ORIENTED_EDGE('',*,*,#421,.T.);
#538=ORIENTED_EDGE('',*,*,#422,.F.);
#539=ORIENTED_EDGE('',*,*,#423,.T.);
#540=ORIENTED_EDGE('',*,*,#424,.T.);
#541=ORIENTED_EDGE('',*,*,#425,.T.);
#542=ORIENTED_EDGE('',*,*,#426,.T.);
#543=ORIENTED_EDGE('',*,*,#427,.T.);
#544=ORIENTED_EDGE('',*,*,#428,.T.);
#545=ORIENTED_EDGE('',*,*,#429,.T.);
#546=ORIENTED_EDGE('',*,*,#430,.T.);
#547=ORIENTED_EDGE('',*,*,#396,.F.);
#548=ORIENTED_EDGE('',*,*,#431,.F.);
#549=ORIENTED_EDGE('',*,*,#411,.T.);
#550=ORIENTED_EDGE('',*,*,#432,.T.);
#551=ORIENTED_EDGE('',*,*,#418,.T.);
#552=ORIENTED_EDGE('',*,*,#406,.T.);
#553=ORIENTED_EDGE('',*,*,#404,.T.);
#554=ORIENTED_EDGE('',*,*,#409,.T.);
#555=ORIENTED_EDGE('',*,*,#433,.T.);
#556=ORIENTED_EDGE('',*,*,#434,.F.);
#557=ORIENTED_EDGE('',*,*,#435,.T.);
#558=ORIENTED_EDGE('',*,*,#436,.F.);
#559=ORIENTED_EDGE('',*,*,#419,.F.);
#560=ORIENTED_EDGE('',*,*,#432,.F.);
#561=ORIENTED_EDGE('',*,*,#410,.F.);
#562=ORIENTED_EDGE('',*,*,#437,.F.);
#563=ORIENTED_EDGE('',*,*,#408,.F.);
#564=ORIENTED_EDGE('',*,*,#401,.F.);
#565=ORIENTED_EDGE('',*,*,#417,.F.);
#566=ORIENTED_EDGE('',*,*,#395,.F.);
#567=ORIENTED_EDGE('',*,*,#403,.T.);
#568=ORIENTED_EDGE('',*,*,#412,.T.);
#569=ORIENTED_EDGE('',*,*,#431,.T.);
#570=ORIENTED_EDGE('',*,*,#425,.F.);
#571=ORIENTED_EDGE('',*,*,#438,.T.);
#572=ORIENTED_EDGE('',*,*,#439,.T.);
#573=ORIENTED_EDGE('',*,*,#440,.F.);
#574=ORIENTED_EDGE('',*,*,#430,.F.);
#575=ORIENTED_EDGE('',*,*,#441,.T.);
#576=ORIENTED_EDGE('',*,*,#442,.T.);
#577=ORIENTED_EDGE('',*,*,#438,.F.);
#578=ORIENTED_EDGE('',*,*,#429,.F.);
#579=ORIENTED_EDGE('',*,*,#443,.T.);
#580=ORIENTED_EDGE('',*,*,#444,.T.);
#581=ORIENTED_EDGE('',*,*,#441,.F.);
#582=ORIENTED_EDGE('',*,*,#428,.F.);
#583=ORIENTED_EDGE('',*,*,#445,.T.);
#584=ORIENTED_EDGE('',*,*,#446,.T.);
#585=ORIENTED_EDGE('',*,*,#443,.F.);
#586=ORIENTED_EDGE('',*,*,#427,.F.);
#587=ORIENTED_EDGE('',*,*,#447,.T.);
#588=ORIENTED_EDGE('',*,*,#448,.T.);
#589=ORIENTED_EDGE('',*,*,#445,.F.);
#590=ORIENTED_EDGE('',*,*,#426,.F.);
#591=ORIENTED_EDGE('',*,*,#440,.T.);
#592=ORIENTED_EDGE('',*,*,#449,.T.);
#593=ORIENTED_EDGE('',*,*,#447,.F.);
#594=ORIENTED_EDGE('',*,*,#449,.F.);
#595=ORIENTED_EDGE('',*,*,#439,.F.);
#596=ORIENTED_EDGE('',*,*,#442,.F.);
#597=ORIENTED_EDGE('',*,*,#444,.F.);
#598=ORIENTED_EDGE('',*,*,#446,.F.);
#599=ORIENTED_EDGE('',*,*,#448,.F.);
#600=ORIENTED_EDGE('',*,*,#450,.F.);
#601=ORIENTED_EDGE('',*,*,#388,.F.);
#602=ORIENTED_EDGE('',*,*,#451,.T.);
#603=ORIENTED_EDGE('',*,*,#452,.T.);
#604=ORIENTED_EDGE('',*,*,#453,.F.);
#605=ORIENTED_EDGE('',*,*,#393,.F.);
#606=ORIENTED_EDGE('',*,*,#454,.T.);
#607=ORIENTED_EDGE('',*,*,#455,.T.);
#608=ORIENTED_EDGE('',*,*,#451,.F.);
#609=ORIENTED_EDGE('',*,*,#392,.F.);
#610=ORIENTED_EDGE('',*,*,#456,.T.);
#611=ORIENTED_EDGE('',*,*,#457,.T.);
#612=ORIENTED_EDGE('',*,*,#454,.F.);
#613=ORIENTED_EDGE('',*,*,#391,.F.);
#614=ORIENTED_EDGE('',*,*,#458,.T.);
#615=ORIENTED_EDGE('',*,*,#459,.T.);
#616=ORIENTED_EDGE('',*,*,#456,.F.);
#617=ORIENTED_EDGE('',*,*,#390,.F.);
#618=ORIENTED_EDGE('',*,*,#460,.T.);
#619=ORIENTED_EDGE('',*,*,#461,.T.);
#620=ORIENTED_EDGE('',*,*,#458,.F.);
#621=ORIENTED_EDGE('',*,*,#389,.F.);
#622=ORIENTED_EDGE('',*,*,#453,.T.);
#623=ORIENTED_EDGE('',*,*,#462,.T.);
#624=ORIENTED_EDGE('',*,*,#460,.F.);
#625=ORIENTED_EDGE('',*,*,#462,.F.);
#626=ORIENTED_EDGE('',*,*,#452,.F.);
#627=ORIENTED_EDGE('',*,*,#455,.F.);
#628=ORIENTED_EDGE('',*,*,#457,.F.);
#629=ORIENTED_EDGE('',*,*,#459,.F.);
#630=ORIENTED_EDGE('',*,*,#461,.F.);
#631=ORIENTED_EDGE('',*,*,#463,.F.);
#632=ORIENTED_EDGE('',*,*,#414,.T.);
#633=ORIENTED_EDGE('',*,*,#464,.T.);
#634=ORIENTED_EDGE('',*,*,#386,.T.);
#635=ORIENTED_EDGE('',*,*,#465,.T.);
#636=ORIENTED_EDGE('',*,*,#465,.F.);
#637=ORIENTED_EDGE('',*,*,#385,.T.);
#638=ORIENTED_EDGE('',*,*,#466,.T.);
#639=ORIENTED_EDGE('',*,*,#415,.F.);
#640=ORIENTED_EDGE('',*,*,#422,.T.);
#641=ORIENTED_EDGE('',*,*,#467,.T.);
#642=ORIENTED_EDGE('',*,*,#380,.T.);
#643=ORIENTED_EDGE('',*,*,#468,.T.);
#644=ORIENTED_EDGE('',*,*,#467,.F.);
#645=ORIENTED_EDGE('',*,*,#421,.F.);
#646=ORIENTED_EDGE('',*,*,#469,.F.);
#647=ORIENTED_EDGE('',*,*,#381,.T.);
#648=ORIENTED_EDGE('',*,*,#450,.T.);
#649=ORIENTED_EDGE('',*,*,#470,.T.);
#650=ORIENTED_EDGE('',*,*,#463,.T.);
#651=ORIENTED_EDGE('',*,*,#470,.F.);
#652=ORIENTED_EDGE('',*,*,#374,.T.);
#653=ORIENTED_EDGE('',*,*,#424,.F.);
#654=ORIENTED_EDGE('',*,*,#471,.F.);
#655=ORIENTED_EDGE('',*,*,#378,.T.);
#656=ORIENTED_EDGE('',*,*,#468,.F.);
#657=ORIENTED_EDGE('',*,*,#379,.F.);
#658=ORIENTED_EDGE('',*,*,#471,.T.);
#659=ORIENTED_EDGE('',*,*,#423,.F.);
#660=ORIENTED_EDGE('',*,*,#382,.T.);
#661=ORIENTED_EDGE('',*,*,#469,.T.);
#662=ORIENTED_EDGE('',*,*,#420,.F.);
#663=ORIENTED_EDGE('',*,*,#436,.T.);
#664=ORIENTED_EDGE('',*,*,#435,.F.);
#665=ORIENTED_EDGE('',*,*,#472,.F.);
#666=ORIENTED_EDGE('',*,*,#434,.T.);
#667=ORIENTED_EDGE('',*,*,#473,.F.);
#668=ORIENTED_EDGE('',*,*,#383,.T.);
#669=ORIENTED_EDGE('',*,*,#472,.T.);
#670=ORIENTED_EDGE('',*,*,#384,.T.);
#671=ORIENTED_EDGE('',*,*,#473,.T.);
#672=ORIENTED_EDGE('',*,*,#433,.F.);
#673=ORIENTED_EDGE('',*,*,#437,.T.);
#674=ORIENTED_EDGE('',*,*,#416,.F.);
#675=ORIENTED_EDGE('',*,*,#466,.F.);
#676=ORIENTED_EDGE('',*,*,#464,.F.);
#677=ORIENTED_EDGE('',*,*,#413,.F.);
#678=ORIENTED_EDGE('',*,*,#376,.F.);
#679=ORIENTED_EDGE('',*,*,#387,.F.);
#680=PLANE('',#768);
#681=PLANE('',#769);
#682=PLANE('',#770);
#683=PLANE('',#776);
#684=PLANE('',#777);
#685=PLANE('',#778);
#686=PLANE('',#779);
#687=PLANE('',#780);
#688=PLANE('',#783);
#689=PLANE('',#784);
#690=PLANE('',#785);
#691=PLANE('',#786);
#692=PLANE('',#787);
#693=PLANE('',#788);
#694=PLANE('',#789);
#695=PLANE('',#790);
#696=PLANE('',#791);
#697=PLANE('',#792);
#698=PLANE('',#793);
#699=PLANE('',#794);
#700=PLANE('',#796);
#701=PLANE('',#797);
#702=PLANE('',#798);
#703=PLANE('',#799);
#704=PLANE('',#800);
#705=PLANE('',#801);
#706=PLANE('',#802);
#707=PLANE('',#805);
#708=PLANE('',#807);
#709=PLANE('',#809);
#710=PLANE('',#810);
#711=PLANE('',#811);
#712=PLANE('',#812);
#713=PLANE('',#813);
#714=PLANE('',#814);
#715=ADVANCED_FACE('',(#31),#680,.F.);
#716=ADVANCED_FACE('',(#32),#681,.T.);
#717=ADVANCED_FACE('',(#33,#19),#682,.F.);
#718=ADVANCED_FACE('',(#34),#15,.T.);
#719=ADVANCED_FACE('',(#35),#683,.T.);
#720=ADVANCED_FACE('',(#36),#684,.F.);
#721=ADVANCED_FACE('',(#37),#685,.F.);
#722=ADVANCED_FACE('',(#38),#686,.F.);
#723=ADVANCED_FACE('',(#39,#20),#687,.T.);
#724=ADVANCED_FACE('',(#40),#688,.T.);
#725=ADVANCED_FACE('',(#41),#689,.T.);
#726=ADVANCED_FACE('',(#42),#690,.F.);
#727=ADVANCED_FACE('',(#43),#691,.F.);
#728=ADVANCED_FACE('',(#44),#692,.T.);
#729=ADVANCED_FACE('',(#45),#693,.F.);
#730=ADVANCED_FACE('',(#46),#694,.F.);
#731=ADVANCED_FACE('',(#47),#695,.F.);
#732=ADVANCED_FACE('',(#48),#696,.F.);
#733=ADVANCED_FACE('',(#49),#697,.F.);
#734=ADVANCED_FACE('',(#50),#698,.F.);
#735=ADVANCED_FACE('',(#51,#21),#699,.T.);
#736=ADVANCED_FACE('',(#52),#700,.F.);
#737=ADVANCED_FACE('',(#53),#701,.F.);
#738=ADVANCED_FACE('',(#54),#702,.F.);
#739=ADVANCED_FACE('',(#55),#703,.F.);
#740=ADVANCED_FACE('',(#56),#704,.F.);
#741=ADVANCED_FACE('',(#57),#705,.F.);
#742=ADVANCED_FACE('',(#58,#22),#706,.F.);
#743=ADVANCED_FACE('',(#59),#16,.T.);
#744=ADVANCED_FACE('',(#60),#707,.T.);
#745=ADVANCED_FACE('',(#61),#17,.T.);
#746=ADVANCED_FACE('',(#62),#708,.T.);
#747=ADVANCED_FACE('',(#63),#18,.F.);
#748=ADVANCED_FACE('',(#64),#709,.T.);
#749=ADVANCED_FACE('',(#65),#710,.T.);
#750=ADVANCED_FACE('',(#66),#711,.T.);
#751=ADVANCED_FACE('',(#67),#712,.T.);
#752=ADVANCED_FACE('',(#68),#713,.T.);
#753=ADVANCED_FACE('',(#69),#714,.T.);
#754=CLOSED_SHELL('',(#715,#716,#717,#718,#719,#720,#721,#722,#723,#724,
#725,#726,#727,#728,#729,#730,#731,#732,#733,#734,#735,#736,#737,#738,#739,
#740,#741,#742,#743,#744,#745,#746,#747,#748,#749,#750,#751,#752,#753));
#755=DERIVED_UNIT_ELEMENT(#757,1.);
#756=DERIVED_UNIT_ELEMENT(#1222,-3.);
#757=(
MASS_UNIT()
NAMED_UNIT(*)
SI_UNIT(.KILO.,.GRAM.)
);
#758=DERIVED_UNIT((#755,#756));
#759=MEASURE_REPRESENTATION_ITEM('density measure',
POSITIVE_RATIO_MEASURE(7850.),#758);
#760=PROPERTY_DEFINITION_REPRESENTATION(#765,#762);
#761=PROPERTY_DEFINITION_REPRESENTATION(#766,#763);
#762=REPRESENTATION('material name',(#764),#1219);
#763=REPRESENTATION('density',(#759),#1219);
#764=DESCRIPTIVE_REPRESENTATION_ITEM('Acier','Acier');
#765=PROPERTY_DEFINITION('material property','material name',#1229);
#766=PROPERTY_DEFINITION('material property','density of part',#1229);
#767=AXIS2_PLACEMENT_3D('',#1006,#815,#816);
#768=AXIS2_PLACEMENT_3D('',#1007,#817,#818);
#769=AXIS2_PLACEMENT_3D('',#1016,#823,#824);
#770=AXIS2_PLACEMENT_3D('',#1022,#828,#829);
#771=AXIS2_PLACEMENT_3D('',#1028,#832,#833);
#772=AXIS2_PLACEMENT_3D('',#1040,#839,#840);
#773=AXIS2_PLACEMENT_3D('',#1054,#848,#849);
#774=AXIS2_PLACEMENT_3D('',#1057,#850,#851);
#775=AXIS2_PLACEMENT_3D('',#1061,#853,#854);
#776=AXIS2_PLACEMENT_3D('',#1063,#856,#857);
#777=AXIS2_PLACEMENT_3D('',#1075,#864,#865);
#778=AXIS2_PLACEMENT_3D('',#1079,#868,#869);
#779=AXIS2_PLACEMENT_3D('',#1083,#872,#873);
#780=AXIS2_PLACEMENT_3D('',#1093,#879,#880);
#781=AXIS2_PLACEMENT_3D('',#1097,#882,#883);
#782=AXIS2_PLACEMENT_3D('',#1112,#891,#892);
#783=AXIS2_PLACEMENT_3D('',#1128,#901,#902);
#784=AXIS2_PLACEMENT_3D('',#1131,#905,#906);
#785=AXIS2_PLACEMENT_3D('',#1137,#910,#911);
#786=AXIS2_PLACEMENT_3D('',#1139,#913,#914);
#787=AXIS2_PLACEMENT_3D('',#1141,#916,#917);
#788=AXIS2_PLACEMENT_3D('',#1142,#918,#919);
#789=AXIS2_PLACEMENT_3D('',#1148,#923,#924);
#790=AXIS2_PLACEMENT_3D('',#1152,#927,#928);
#791=AXIS2_PLACEMENT_3D('',#1156,#931,#932);
#792=AXIS2_PLACEMENT_3D('',#1160,#935,#936);
#793=AXIS2_PLACEMENT_3D('',#1164,#939,#940);
#794=AXIS2_PLACEMENT_3D('',#1166,#942,#943);
#795=AXIS2_PLACEMENT_3D('',#1168,#944,#945);
#796=AXIS2_PLACEMENT_3D('',#1169,#946,#947);
#797=AXIS2_PLACEMENT_3D('',#1175,#951,#952);
#798=AXIS2_PLACEMENT_3D('',#1179,#955,#956);
#799=AXIS2_PLACEMENT_3D('',#1183,#959,#960);
#800=AXIS2_PLACEMENT_3D('',#1187,#963,#964);
#801=AXIS2_PLACEMENT_3D('',#1191,#967,#968);
#802=AXIS2_PLACEMENT_3D('',#1193,#970,#971);
#803=AXIS2_PLACEMENT_3D('',#1195,#972,#973);
#804=AXIS2_PLACEMENT_3D('',#1196,#974,#975);
#805=AXIS2_PLACEMENT_3D('',#1199,#978,#979);
#806=AXIS2_PLACEMENT_3D('',#1201,#981,#982);
#807=AXIS2_PLACEMENT_3D('',#1204,#985,#986);
#808=AXIS2_PLACEMENT_3D('',#1206,#988,#989);
#809=AXIS2_PLACEMENT_3D('',#1208,#991,#992);
#810=AXIS2_PLACEMENT_3D('',#1210,#994,#995);
#811=AXIS2_PLACEMENT_3D('',#1211,#996,#997);
#812=AXIS2_PLACEMENT_3D('',#1213,#999,#1000);
#813=AXIS2_PLACEMENT_3D('',#1215,#1002,#1003);
#814=AXIS2_PLACEMENT_3D('',#1216,#1004,#1005);
#815=DIRECTION('axis',(0.,0.,1.));
#816=DIRECTION('refdir',(1.,0.,0.));
#817=DIRECTION('center_axis',(-1.88686715342069E-49,-1.54074395550979E-33,
1.));
#818=DIRECTION('ref_axis',(-1.,1.22464679914735E-16,0.));
#819=DIRECTION('',(-1.,1.22464679914735E-16,0.));
#820=DIRECTION('',(1.22464679914735E-16,1.,1.54074395550979E-33));
#821=DIRECTION('',(1.,-1.22464679914735E-16,0.));
#822=DIRECTION('',(-1.22464679914735E-16,-1.,-1.54074395550979E-33));
#823=DIRECTION('center_axis',(1.,-1.22464679914735E-16,0.));
#824=DIRECTION('ref_axis',(-1.88686715342069E-49,-1.54074395550979E-33,
1.));
#825=DIRECTION('',(-1.88686715342069E-49,-1.54074395550979E-33,1.));
#826=DIRECTION('',(-1.22464679914735E-16,-1.,-1.54074395550979E-33));
#827=DIRECTION('',(-1.88686715342069E-49,-1.54074395550979E-33,1.));
#828=DIRECTION('center_axis',(-1.22464679914735E-16,-1.,-1.54074395550979E-33));
#829=DIRECTION('ref_axis',(-1.,1.22464679914735E-16,0.));
#830=DIRECTION('',(-1.00359143468941E-15,1.24445247769918E-31,-1.));
#831=DIRECTION('',(-0.707106781186546,8.65956056235492E-17,0.707106781186549));
#832=DIRECTION('center_axis',(-1.22464679914735E-16,-1.,-1.54074395550979E-33));
#833=DIRECTION('ref_axis',(-1.,1.22464679914735E-16,3.5327080320385E-15));
#834=DIRECTION('',(-0.707106781186546,8.65956056235492E-17,-0.707106781186549));
#835=DIRECTION('',(-1.00359143468941E-15,1.24445247769918E-31,-1.));
#836=DIRECTION('',(-1.,1.22464679914735E-16,0.));
#837=DIRECTION('',(-1.88686715342069E-49,-1.54074395550979E-33,1.));
#838=DIRECTION('',(-0.707106781186551,8.65956056235497E-17,0.707106781186544));
#839=DIRECTION('center_axis',(-1.22464679914735E-16,-1.,-1.54074395550979E-33));
#840=DIRECTION('ref_axis',(1.,-1.22464679914735E-16,7.065416064077E-15));
#841=DIRECTION('',(-0.707106781186544,8.6595605623549E-17,-0.707106781186551));
#842=DIRECTION('',(-0.573723730987324,7.02608930748504E-17,-0.819048887736248));
#843=DIRECTION('',(0.422455278227309,-5.17358504263978E-17,-0.90638376965714));
#844=DIRECTION('',(0.996179009214641,-1.21996743501249E-16,-0.0873348819208924));
#845=DIRECTION('',(0.573723730987326,-7.02608930748506E-17,0.819048887736246));
#846=DIRECTION('',(-0.422455278227312,5.17358504263982E-17,0.906383769657138));
#847=DIRECTION('',(-0.996179009214641,1.21996743501249E-16,0.0873348819208924));
#848=DIRECTION('center_axis',(1.,-1.22464679914735E-16,0.));
#849=DIRECTION('ref_axis',(-1.05733331414408E-16,-0.863378171469713,0.504557363467837));
#850=DIRECTION('center_axis',(-1.,6.77576192227314E-16,8.55284707229503E-49));
#851=DIRECTION('ref_axis',(-1.05733331414408E-16,-0.863378171469713,0.504557363467837));
#852=DIRECTION('',(-1.,1.22464679914735E-16,0.));
#853=DIRECTION('center_axis',(1.,-1.22464679914735E-16,0.));
#854=DIRECTION('ref_axis',(-1.05733331414408E-16,-0.863378171469713,0.504557363467837));
#855=DIRECTION('',(1.,-1.22464679914735E-16,0.));
#856=DIRECTION('center_axis',(1.,-6.77576192227314E-16,-8.55284707229503E-49));
#857=DIRECTION('ref_axis',(6.77576192227314E-16,1.,1.54074395550979E-33));
#858=DIRECTION('',(3.32584028222228E-16,0.490843733940776,-0.871247627744877));
#859=DIRECTION('',(-6.77576192227314E-16,-1.,-1.54074395550979E-33));
#860=DIRECTION('',(-1.88686715342069E-49,-1.54074395550979E-33,1.));
#861=DIRECTION('',(6.77576192227314E-16,1.,1.54074395550979E-33));
#862=DIRECTION('',(-3.17211747742777E-16,-0.468156572473489,0.88364553054371));
#863=DIRECTION('',(6.77576192227314E-16,1.,1.54074395550979E-33));
#864=DIRECTION('center_axis',(1.06697061858249E-16,0.871247627744877,0.490843733940776));
#865=DIRECTION('ref_axis',(6.01110207652107E-17,0.490843733940776,-0.871247627744877));
#866=DIRECTION('',(-6.01110207652107E-17,-0.490843733940776,0.871247627744877));
#867=DIRECTION('',(-1.,1.22464679914735E-16,0.));
#868=DIRECTION('center_axis',(1.88686715342069E-49,1.54074395550979E-33,
-1.));
#869=DIRECTION('ref_axis',(-1.22464679914735E-16,-1.,-1.54074395550979E-33));
#870=DIRECTION('',(1.22464679914735E-16,1.,1.54074395550979E-33));
#871=DIRECTION('',(-1.,1.22464679914735E-16,0.));
#872=DIRECTION('center_axis',(-1.08215367056122E-16,-0.88364553054371,-0.468156572473489));
#873=DIRECTION('ref_axis',(-5.73326447979454E-17,-0.468156572473489,0.88364553054371));
#874=DIRECTION('',(-1.,2.77334500263493E-16,2.38614739593235E-49));
#875=DIRECTION('',(1.,-2.77334500263493E-16,2.9231678590828E-16));
#876=DIRECTION('',(-1.,2.77334500263493E-16,2.38614739593235E-49));
#877=DIRECTION('',(5.73326447979454E-17,0.468156572473489,-0.88364553054371));
#878=DIRECTION('',(-1.,1.22464679914735E-16,0.));
#879=DIRECTION('center_axis',(-1.22464679914735E-16,-1.,-1.54074395550979E-33));
#880=DIRECTION('ref_axis',(-1.,1.22464679914735E-16,0.));
#881=DIRECTION('',(0.707106781186544,-8.6595605623549E-17,0.707106781186551));
#882=DIRECTION('center_axis',(1.22464679914735E-16,1.,1.54074395550979E-33));
#883=DIRECTION('ref_axis',(1.,-1.22464679914735E-16,7.065416064077E-15));
#884=DIRECTION('',(-0.707106781186551,8.65956056235497E-17,0.707106781186544));
#885=DIRECTION('',(-1.88686715342069E-49,-1.54074395550979E-33,1.));
#886=DIRECTION('',(1.,-1.22464679914735E-16,0.));
#887=DIRECTION('',(-1.88686715342069E-49,-1.54074395550979E-33,1.));
#888=DIRECTION('',(1.,-1.22464679914735E-16,0.));
#889=DIRECTION('',(1.88686715342069E-49,1.54074395550979E-33,-1.));
#890=DIRECTION('',(-0.707106781186546,8.65956056235492E-17,-0.707106781186549));
#891=DIRECTION('center_axis',(1.22464679914735E-16,1.,1.54074395550979E-33));
#892=DIRECTION('ref_axis',(-1.,1.22464679914735E-16,3.5327080320385E-15));
#893=DIRECTION('',(0.707106781186546,-8.65956056235492E-17,-0.707106781186549));
#894=DIRECTION('',(-1.00359143468941E-15,1.24445247769918E-31,-1.));
#895=DIRECTION('',(0.834655622316273,-1.02215833625997E-16,0.550772178069876));
#896=DIRECTION('',(0.894310509064336,-1.09521450236948E-16,-0.447446883302464));
#897=DIRECTION('',(0.0596548867480629,-7.30561661095131E-18,-0.99821906137234));
#898=DIRECTION('',(-0.834655622316273,1.02215833625997E-16,-0.550772178069876));
#899=DIRECTION('',(-0.894310509064336,1.09521450236948E-16,0.447446883302464));
#900=DIRECTION('',(-0.0596548867480629,7.30561661095131E-18,0.99821906137234));
#901=DIRECTION('center_axis',(-1.,1.22464679914735E-16,0.));
#902=DIRECTION('ref_axis',(-1.22464679914735E-16,-1.,-1.54074395550979E-33));
#903=DIRECTION('',(-1.22464679914735E-16,-1.,-1.54074395550979E-33));
#904=DIRECTION('',(-1.22464679914735E-16,-1.,-1.54074395550979E-33));
#905=DIRECTION('center_axis',(2.77334500263493E-16,1.,1.54074395550979E-33));
#906=DIRECTION('ref_axis',(-1.,2.77334500263493E-16,2.38614739593235E-49));
#907=DIRECTION('',(1.88686715342069E-49,1.54074395550979E-33,-1.));
#908=DIRECTION('',(1.,-2.77334500263493E-16,-2.38614739593235E-49));
#909=DIRECTION('',(-1.88686715342069E-49,-1.54074395550979E-33,1.));
#910=DIRECTION('center_axis',(-1.88686715342069E-49,-1.54074395550979E-33,
1.));
#911=DIRECTION('ref_axis',(-1.,1.22464679914735E-16,0.));
#912=DIRECTION('',(1.22464679914735E-16,1.,1.54074395550979E-33));
#913=DIRECTION('center_axis',(-1.88686715342069E-49,-1.54074395550979E-33,
1.));
#914=DIRECTION('ref_axis',(-1.,1.22464679914735E-16,0.));
#915=DIRECTION('',(-1.22464679914735E-16,-1.,-1.54074395550979E-33));
#916=DIRECTION('center_axis',(-1.88686715342069E-49,-1.54074395550979E-33,
1.));
#917=DIRECTION('ref_axis',(-1.,1.22464679914735E-16,0.));
#918=DIRECTION('center_axis',(-0.550772178069876,6.7450138493269E-17,0.834655622316273));
#919=DIRECTION('ref_axis',(0.834655622316273,-1.02215833625997E-16,0.550772178069876));
#920=DIRECTION('',(1.22464679914735E-16,1.,1.54074395550979E-33));
#921=DIRECTION('',(0.834655622316273,-1.02215833625997E-16,0.550772178069876));
#922=DIRECTION('',(1.22464679914735E-16,1.,1.54074395550979E-33));
#923=DIRECTION('center_axis',(-0.99821906137234,1.22246577835751E-16,-0.0596548867480629));
#924=DIRECTION('ref_axis',(-0.0596548867480629,7.30561661095131E-18,0.99821906137234));
#925=DIRECTION('',(1.22464679914735E-16,1.,1.54074395550979E-33));
#926=DIRECTION('',(-0.0596548867480629,7.30561661095131E-18,0.99821906137234));
#927=DIRECTION('center_axis',(-0.447446883302464,5.47964393424822E-17,-0.894310509064336));
#928=DIRECTION('ref_axis',(-0.894310509064336,1.09521450236948E-16,0.447446883302464));
#929=DIRECTION('',(1.22464679914735E-16,1.,1.54074395550979E-33));
#930=DIRECTION('',(-0.894310509064336,1.09521450236948E-16,0.447446883302464));
#931=DIRECTION('center_axis',(0.550772178069876,-6.7450138493269E-17,-0.834655622316273));
#932=DIRECTION('ref_axis',(-0.834655622316273,1.02215833625997E-16,-0.550772178069876));
#933=DIRECTION('',(1.22464679914735E-16,1.,1.54074395550979E-33));
#934=DIRECTION('',(-0.834655622316273,1.02215833625997E-16,-0.550772178069876));
#935=DIRECTION('center_axis',(0.99821906137234,-1.22246577835751E-16,0.0596548867480629));
#936=DIRECTION('ref_axis',(0.0596548867480629,-7.30561661095131E-18,-0.99821906137234));
#937=DIRECTION('',(1.22464679914735E-16,1.,1.54074395550979E-33));
#938=DIRECTION('',(0.0596548867480629,-7.30561661095131E-18,-0.99821906137234));
#939=DIRECTION('center_axis',(0.447446883302464,-5.47964393424822E-17,0.894310509064336));
#940=DIRECTION('ref_axis',(0.894310509064336,-1.09521450236948E-16,-0.447446883302464));
#941=DIRECTION('',(0.894310509064336,-1.09521450236948E-16,-0.447446883302464));
#942=DIRECTION('center_axis',(-1.22464679914735E-16,-1.,-1.54074395550979E-33));
#943=DIRECTION('ref_axis',(1.,-1.22464679914735E-16,0.));
#944=DIRECTION('center_axis',(-1.22464679914735E-16,-1.,-1.54074395550979E-33));
#945=DIRECTION('ref_axis',(-1.,1.22464679914735E-16,0.));
#946=DIRECTION('center_axis',(-0.819048887736248,1.0030455987114E-16,0.573723730987324));
#947=DIRECTION('ref_axis',(-0.573723730987324,7.02608930748504E-17,-0.819048887736248));
#948=DIRECTION('',(-1.22464679914735E-16,-1.,-1.54074395550979E-33));
#949=DIRECTION('',(-0.573723730987324,7.02608930748503E-17,-0.819048887736248));
#950=DIRECTION('',(-1.22464679914735E-16,-1.,-1.54074395550979E-33));
#951=DIRECTION('center_axis',(0.0873348819208924,-1.06954383598333E-17,
0.996179009214641));
#952=DIRECTION('ref_axis',(-0.996179009214641,1.21996743501249E-16,0.0873348819208924));
#953=DIRECTION('',(-1.22464679914735E-16,-1.,-1.54074395550979E-33));
#954=DIRECTION('',(-0.996179009214641,1.21996743501249E-16,0.0873348819208924));
#955=DIRECTION('center_axis',(0.906383769657138,-1.10999998230973E-16,0.422455278227312));
#956=DIRECTION('ref_axis',(-0.422455278227312,5.17358504263982E-17,0.906383769657138));
#957=DIRECTION('',(-1.22464679914735E-16,-1.,-1.54074395550979E-33));
#958=DIRECTION('',(-0.422455278227312,5.17358504263982E-17,0.906383769657138));
#959=DIRECTION('center_axis',(0.819048887736246,-1.00304559871139E-16,-0.573723730987326));
#960=DIRECTION('ref_axis',(0.573723730987326,-7.02608930748506E-17,0.819048887736246));
#961=DIRECTION('',(-1.22464679914735E-16,-1.,-1.54074395550979E-33));
#962=DIRECTION('',(0.573723730987326,-7.02608930748506E-17,0.819048887736246));
#963=DIRECTION('center_axis',(-0.0873348819208924,1.06954383598333E-17,
-0.996179009214641));
#964=DIRECTION('ref_axis',(0.996179009214641,-1.21996743501249E-16,-0.0873348819208924));
#965=DIRECTION('',(-1.22464679914735E-16,-1.,-1.54074395550979E-33));
#966=DIRECTION('',(0.996179009214641,-1.21996743501249E-16,-0.0873348819208924));
#967=DIRECTION('center_axis',(-0.90638376965714,1.10999998230973E-16,-0.422455278227309));
#968=DIRECTION('ref_axis',(0.422455278227309,-5.17358504263978E-17,-0.90638376965714));
#969=DIRECTION('',(0.422455278227309,-5.17358504263978E-17,-0.90638376965714));
#970=DIRECTION('center_axis',(-1.22464679914735E-16,-1.,-1.54074395550979E-33));
#971=DIRECTION('ref_axis',(-1.,1.22464679914735E-16,0.));
#972=DIRECTION('center_axis',(1.22464679914735E-16,1.,1.54074395550979E-33));
#973=DIRECTION('ref_axis',(-1.,1.22464679914735E-16,0.));
#974=DIRECTION('center_axis',(-1.22464679914735E-16,-1.,-1.54074395550979E-33));
#975=DIRECTION('ref_axis',(1.,-1.22464679914735E-16,7.065416064077E-15));
#976=DIRECTION('',(1.22464679914735E-16,1.,1.54074395550979E-33));
#977=DIRECTION('',(-1.22464679914735E-16,-1.,-1.54074395550979E-33));
#978=DIRECTION('center_axis',(0.707106781186544,-8.6595605623549E-17,0.707106781186551));
#979=DIRECTION('ref_axis',(-0.707106781186551,8.65956056235497E-17,0.707106781186544));
#980=DIRECTION('',(-1.22464679914735E-16,-1.,-1.54074395550979E-33));
#981=DIRECTION('center_axis',(-1.22464679914735E-16,-1.,-1.54074395550979E-33));
#982=DIRECTION('ref_axis',(-1.,1.22464679914735E-16,3.5327080320385E-15));
#983=DIRECTION('',(1.22464679914735E-16,1.,1.54074395550979E-33));
#984=DIRECTION('',(-1.22464679914735E-16,-1.,-1.54074395550979E-33));
#985=DIRECTION('center_axis',(-0.707106781186549,8.65956056235495E-17,0.707106781186546));
#986=DIRECTION('ref_axis',(-0.707106781186546,8.65956056235492E-17,-0.707106781186549));
#987=DIRECTION('',(-1.22464679914735E-16,-1.,-1.54074395550979E-33));
#988=DIRECTION('center_axis',(-1.22464679914735E-16,-1.,-1.54074395550979E-33));
#989=DIRECTION('ref_axis',(-1.,1.22464679914735E-16,0.));
#990=DIRECTION('',(1.22464679914735E-16,1.,1.54074395550979E-33));
#991=DIRECTION('center_axis',(-1.,1.22464679914735E-16,1.00359143468941E-15));
#992=DIRECTION('ref_axis',(-1.00359143468941E-15,1.24445247769918E-31,-1.));
#993=DIRECTION('',(-1.22464679914735E-16,-1.,-1.54074395550979E-33));
#994=DIRECTION('center_axis',(-0.707106781186549,8.65956056235495E-17,-0.707106781186546));
#995=DIRECTION('ref_axis',(0.707106781186546,-8.65956056235492E-17,-0.707106781186549));
#996=DIRECTION('center_axis',(-1.,1.22464679914735E-16,1.00359143468941E-15));
#997=DIRECTION('ref_axis',(-1.00359143468941E-15,1.24445247769918E-31,-1.));
#998=DIRECTION('',(-1.22464679914735E-16,-1.,-1.54074395550979E-33));
#999=DIRECTION('center_axis',(-1.88686715342069E-49,-1.54074395550979E-33,
1.));
#1000=DIRECTION('ref_axis',(-1.,1.22464679914735E-16,0.));
#1001=DIRECTION('',(-1.22464679914735E-16,-1.,-1.54074395550979E-33));
#1002=DIRECTION('center_axis',(1.,-1.22464679914735E-16,0.));
#1003=DIRECTION('ref_axis',(-1.88686715342069E-49,-1.54074395550979E-33,
1.));
#1004=DIRECTION('center_axis',(0.707106781186551,-8.65956056235497E-17,
-0.707106781186544));
#1005=DIRECTION('ref_axis',(0.707106781186544,-8.6595605623549E-17,0.707106781186551));
#1006=CARTESIAN_POINT('',(0.,0.,0.));
#1007=CARTESIAN_POINT('Origin',(-18.6423688339994,153.4,-9.07566520805347));
#1008=CARTESIAN_POINT('',(19.9076311660005,153.4,-9.07566520805347));
#1009=CARTESIAN_POINT('',(-18.6423688339994,153.4,-9.07566520805347));
#1010=CARTESIAN_POINT('',(-9.00486883399944,153.4,-9.07566520805347));
#1011=CARTESIAN_POINT('',(19.9076311660005,133.4,-9.07566520805347));
#1012=CARTESIAN_POINT('',(19.9076311660005,153.4,-9.07566520805347));
#1013=CARTESIAN_POINT('',(-18.6423688339994,133.4,-9.07566520805347));
#1014=CARTESIAN_POINT('',(-9.00486883399944,133.4,-9.07566520805347));
#1015=CARTESIAN_POINT('',(-18.6423688339994,153.4,-9.07566520805347));
#1016=CARTESIAN_POINT('Origin',(19.9076311660005,153.4,-9.22566520805347));
#1017=CARTESIAN_POINT('',(19.9076311660005,153.4,-5.37566520805347));
#1018=CARTESIAN_POINT('',(19.9076311660005,153.4,-9.22566520805347));
#1019=CARTESIAN_POINT('',(19.9076311660005,133.4,-5.37566520805347));
#1020=CARTESIAN_POINT('',(19.9076311660005,153.4,-5.37566520805347));
#1021=CARTESIAN_POINT('',(19.9076311660005,133.4,-9.22566520805347));
#1022=CARTESIAN_POINT('Origin',(0.632631166000572,153.4,-0.375665208053469));
#1023=CARTESIAN_POINT('',(-18.6423688339994,153.4,-5.37566520805349));
#1024=CARTESIAN_POINT('',(-18.6423688339994,153.4,8.47433479194653));
#1025=CARTESIAN_POINT('',(-22.9352620528129,153.4,-1.08277198924004));
#1026=CARTESIAN_POINT('',(-18.6423688339994,153.4,-5.37566520805349));
#1027=CARTESIAN_POINT('',(-22.9352620528129,153.4,0.331441573133051));
#1028=CARTESIAN_POINT('Origin',(-22.2281552716263,153.4,-0.3756652080535));
#1029=CARTESIAN_POINT('',(-18.6423688339994,153.4,4.6243347919465));
#1030=CARTESIAN_POINT('',(-18.6423688339994,153.4,4.6243347919465));
#1031=CARTESIAN_POINT('',(-18.6423688339994,153.4,8.47433479194653));
#1032=CARTESIAN_POINT('',(-18.6423688339994,153.4,8.47433479194653));
#1033=CARTESIAN_POINT('',(19.9076311660005,153.4,8.47433479194653));
#1034=CARTESIAN_POINT('',(19.9076311660005,153.4,8.47433479194653));
#1035=CARTESIAN_POINT('',(19.9076311660005,153.4,4.62433479194653));
#1036=CARTESIAN_POINT('',(19.9076311660005,153.4,-9.22566520805347));
#1037=CARTESIAN_POINT('',(24.200524384814,153.4,0.331441573133115));
#1038=CARTESIAN_POINT('',(24.9076311660005,153.4,-0.375665208053426));
#1039=CARTESIAN_POINT('',(24.200524384814,153.4,-1.08277198923998));
#1040=CARTESIAN_POINT('Origin',(23.4934176036274,153.4,-0.375665208053436));
#1041=CARTESIAN_POINT('',(24.9076311660005,153.4,-0.375665208053426));
#1042=CARTESIAN_POINT('',(-1.36347002362354,153.4,3.90699810357656));
#1043=CARTESIAN_POINT('',(-4.07431465253868,153.4,0.036992109022749));
#1044=CARTESIAN_POINT('',(-2.04118118085233,153.4,2.93949660493811));
#1045=CARTESIAN_POINT('',(-2.07821346291462,153.4,-4.24567120260729));
#1046=CARTESIAN_POINT('',(-3.57528935513267,153.4,-1.03367371888475));
#1047=CARTESIAN_POINT('',(2.62873235562463,153.4,-4.65832851968351));
#1048=CARTESIAN_POINT('',(-0.901477008279801,153.4,-4.34883553187635));
#1049=CARTESIAN_POINT('',(5.33957698453979,153.4,-0.788322525129698));
#1050=CARTESIAN_POINT('',(3.30644351285342,153.4,-3.69082702104505));
#1051=CARTESIAN_POINT('',(3.34347579491571,153.4,3.49434078650034));
#1052=CARTESIAN_POINT('',(4.84055168713376,153.4,0.282343302777806));
#1053=CARTESIAN_POINT('',(2.16673934028091,153.4,3.59750511576939));
#1054=CARTESIAN_POINT('Origin',(15.1099830239607,134.255579795264,15.9743347919465));
#1055=CARTESIAN_POINT('',(29.4474830239608,133.819955981392,15.7289129249761));
#1056=CARTESIAN_POINT('',(29.4474830239608,134.255579795264,16.4743347919465));
#1057=CARTESIAN_POINT('Origin',(29.4474830239608,134.255579795264,15.9743347919465));
#1058=CARTESIAN_POINT('',(-27.9025169760393,134.255579795264,16.4743347919465));
#1059=CARTESIAN_POINT('',(15.1099830239607,134.255579795264,16.4743347919465));
#1060=CARTESIAN_POINT('',(-27.9025169760393,133.819955981392,15.7289129249761));
#1061=CARTESIAN_POINT('Origin',(-27.9025169760393,134.255579795264,15.9743347919465));
#1062=CARTESIAN_POINT('',(15.1099830239607,133.819955981392,15.7289129249761));
#1063=CARTESIAN_POINT('Origin',(29.4474830239608,133.4,8.47433479194653));
#1064=CARTESIAN_POINT('',(29.4474830239608,135.4,12.9243347919465));
#1065=CARTESIAN_POINT('',(29.4474830239608,135.110585755157,13.4380450765422));
#1066=CARTESIAN_POINT('',(29.4474830239608,133.4,12.9243347919465));
#1067=CARTESIAN_POINT('',(29.4474830239608,134.4,12.9243347919465));
#1068=CARTESIAN_POINT('',(29.4474830239608,133.4,8.92433479194653));
#1069=CARTESIAN_POINT('',(29.4474830239608,133.4,8.47433479194653));
#1070=CARTESIAN_POINT('',(29.4474830239608,149.4,8.92433479194653));
#1071=CARTESIAN_POINT('',(29.4474830239608,137.4,8.92433479194653));
#1072=CARTESIAN_POINT('',(29.4474830239608,145.4,16.4743347919465));
#1073=CARTESIAN_POINT('',(29.4474830239608,147.739714393343,12.0581238745122));
#1074=CARTESIAN_POINT('',(29.4474830239608,133.4,16.4743347919465));
#1075=CARTESIAN_POINT('Origin',(29.4474830239608,133.4,16.4743347919465));
#1076=CARTESIAN_POINT('',(-27.9025169760392,135.4,12.9243347919465));
#1077=CARTESIAN_POINT('',(-27.9025169760393,137.038006324349,10.0168735662275));
#1078=CARTESIAN_POINT('',(29.4474830239608,135.4,12.9243347919465));
#1079=CARTESIAN_POINT('Origin',(29.4474830239608,135.4,12.9243347919465));
#1080=CARTESIAN_POINT('',(-27.9025169760392,133.4,12.9243347919465));
#1081=CARTESIAN_POINT('',(-27.9025169760393,142.4,12.9243347919465));
#1082=CARTESIAN_POINT('',(15.0400570949806,133.4,12.9243347919465));
#1083=CARTESIAN_POINT('Origin',(29.4474830239608,149.4,8.92433479194653));
#1084=CARTESIAN_POINT('',(19.9076311660005,149.4,8.92433479194653));
#1085=CARTESIAN_POINT('',(15.1099830239607,149.4,8.92433479194653));
#1086=CARTESIAN_POINT('',(-18.6423688339994,149.4,8.92433479194653));
#1087=CARTESIAN_POINT('',(29.4474830239608,149.4,8.92433479194646));
#1088=CARTESIAN_POINT('',(-27.9025169760393,149.4,8.92433479194653));
#1089=CARTESIAN_POINT('',(15.1099830239607,149.4,8.92433479194653));
#1090=CARTESIAN_POINT('',(-27.9025169760392,145.4,16.4743347919465));
#1091=CARTESIAN_POINT('',(-27.9025169760393,149.493079004144,8.7486481716253));
#1092=CARTESIAN_POINT('',(15.1099830239607,145.4,16.4743347919465));
#1093=CARTESIAN_POINT('Origin',(0.632631166000572,133.4,-0.375665208053469));
#1094=CARTESIAN_POINT('',(24.200524384814,133.4,-1.08277198923998));
#1095=CARTESIAN_POINT('',(24.9076311660005,133.4,-0.375665208053426));
#1096=CARTESIAN_POINT('',(24.200524384814,133.4,0.331441573133115));
#1097=CARTESIAN_POINT('Origin',(23.4934176036274,133.4,-0.375665208053436));
#1098=CARTESIAN_POINT('',(19.9076311660005,133.4,4.62433479194653));
#1099=CARTESIAN_POINT('',(24.9076311660005,133.4,-0.375665208053426));
#1100=CARTESIAN_POINT('',(19.9076311660005,133.4,8.92433479194653));
#1101=CARTESIAN_POINT('',(19.9076311660005,133.4,-9.22566520805347));
#1102=CARTESIAN_POINT('',(0.702557094980656,133.4,8.92433479194653));
#1103=CARTESIAN_POINT('',(-27.9025169760393,133.4,8.92433479194653));
#1104=CARTESIAN_POINT('',(-27.9025169760393,133.4,8.47433479194653));
#1105=CARTESIAN_POINT('',(-18.6423688339994,133.4,8.92433479194653));
#1106=CARTESIAN_POINT('',(0.702557094980656,133.4,8.92433479194653));
#1107=CARTESIAN_POINT('',(-18.6423688339994,133.4,4.62433479194651));
#1108=CARTESIAN_POINT('',(-18.6423688339994,133.4,4.04933479194653));
#1109=CARTESIAN_POINT('',(-22.9352620528129,133.4,0.331441573133051));
#1110=CARTESIAN_POINT('',(-18.6423688339994,133.4,4.6243347919465));
#1111=CARTESIAN_POINT('',(-22.9352620528129,133.4,-1.08277198924004));
#1112=CARTESIAN_POINT('Origin',(-22.2281552716263,133.4,-0.3756652080535));
#1113=CARTESIAN_POINT('',(-18.6423688339994,133.4,-5.37566520805349));
#1114=CARTESIAN_POINT('',(-18.6423688339994,133.4,-5.37566520805349));
#1115=CARTESIAN_POINT('',(-18.6423688339994,133.4,8.47433479194653));
#1116=CARTESIAN_POINT('',(-3.59298598932845,133.4,1.73852131555067));
#1117=CARTESIAN_POINT('',(0.350761826115939,133.4,4.34091985693083));
#1118=CARTESIAN_POINT('',(-2.60704903546733,133.4,2.38912095089572));
#1119=CARTESIAN_POINT('',(4.57637898144493,133.4,2.22673333332669));
#1120=CARTESIAN_POINT('',(1.40716611494819,133.4,3.81237322602979));
#1121=CARTESIAN_POINT('',(4.85824832132952,133.4,-2.48985173165762));
#1122=CARTESIAN_POINT('',(4.64684631641607,133.4,1.04758706708061));
#1123=CARTESIAN_POINT('',(0.914500505885134,133.4,-5.09225027303778));
#1124=CARTESIAN_POINT('',(3.87231136746844,133.4,-3.14045136700265));
#1125=CARTESIAN_POINT('',(-3.31111664944385,133.4,-2.97806374943364));
#1126=CARTESIAN_POINT('',(-0.1419037829471,133.4,-4.56370364213675));
#1127=CARTESIAN_POINT('',(-3.381583984415,133.4,-1.79891748318756));
#1128=CARTESIAN_POINT('Origin',(-27.9025169760393,149.4,8.47433479194653));
#1129=CARTESIAN_POINT('',(-27.9025169760393,149.4,16.4743347919465));
#1130=CARTESIAN_POINT('',(-27.9025169760393,145.4,8.92433479194653));
#1131=CARTESIAN_POINT('Origin',(29.4474830239608,149.4,8.47433479194653));
#1132=CARTESIAN_POINT('',(19.9076311660005,149.4,8.47433479194653));
#1133=CARTESIAN_POINT('',(19.9076311660005,149.4,8.47433479194653));
#1134=CARTESIAN_POINT('',(-18.6423688339994,149.4,8.47433479194653));
#1135=CARTESIAN_POINT('',(24.6775570949807,149.4,8.47433479194653));
#1136=CARTESIAN_POINT('',(-18.6423688339994,149.4,8.47433479194653));
#1137=CARTESIAN_POINT('Origin',(0.772483023960739,141.4,8.92433479194653));
#1138=CARTESIAN_POINT('',(-18.6423688339994,153.4,8.92433479194653));
#1139=CARTESIAN_POINT('Origin',(0.772483023960739,141.4,8.92433479194653));
#1140=CARTESIAN_POINT('',(19.9076311660005,153.4,8.92433479194653));
#1141=CARTESIAN_POINT('Origin',(0.772483023960739,141.4,16.4743347919465));
#1142=CARTESIAN_POINT('Origin',(-3.59298598932845,133.4,1.73852131555067));
#1143=CARTESIAN_POINT('',(-3.59298598932845,137.55,1.73852131555067));
#1144=CARTESIAN_POINT('',(-3.59298598932845,133.4,1.73852131555067));
#1145=CARTESIAN_POINT('',(0.350761826115939,137.55,4.34091985693083));
#1146=CARTESIAN_POINT('',(0.350761826115939,137.55,4.34091985693083));
#1147=CARTESIAN_POINT('',(0.350761826115939,133.4,4.34091985693083));
#1148=CARTESIAN_POINT('Origin',(-3.31111664944385,133.4,-2.97806374943364));
#1149=CARTESIAN_POINT('',(-3.31111664944385,137.55,-2.97806374943364));
#1150=CARTESIAN_POINT('',(-3.31111664944385,133.4,-2.97806374943364));
#1151=CARTESIAN_POINT('',(-3.59298598932845,137.55,1.73852131555067));
#1152=CARTESIAN_POINT('Origin',(0.914500505885134,133.4,-5.09225027303778));
#1153=CARTESIAN_POINT('',(0.914500505885134,137.55,-5.09225027303778));
#1154=CARTESIAN_POINT('',(0.914500505885134,133.4,-5.09225027303778));
#1155=CARTESIAN_POINT('',(-3.31111664944385,137.55,-2.97806374943364));
#1156=CARTESIAN_POINT('Origin',(4.85824832132952,133.4,-2.48985173165762));
#1157=CARTESIAN_POINT('',(4.85824832132952,137.55,-2.48985173165762));
#1158=CARTESIAN_POINT('',(4.85824832132952,133.4,-2.48985173165762));
#1159=CARTESIAN_POINT('',(0.914500505885134,137.55,-5.09225027303778));
#1160=CARTESIAN_POINT('Origin',(4.57637898144493,133.4,2.22673333332669));
#1161=CARTESIAN_POINT('',(4.57637898144493,137.55,2.22673333332669));
#1162=CARTESIAN_POINT('',(4.57637898144493,133.4,2.22673333332669));
#1163=CARTESIAN_POINT('',(4.85824832132952,137.55,-2.48985173165762));
#1164=CARTESIAN_POINT('Origin',(0.350761826115939,133.4,4.34091985693083));
#1165=CARTESIAN_POINT('',(4.57637898144493,137.55,2.22673333332669));
#1166=CARTESIAN_POINT('Origin',(0.632631166000537,137.55,-0.375665208053475));
#1167=CARTESIAN_POINT('',(3.28263116600054,137.55,-0.375665208053476));
#1168=CARTESIAN_POINT('Origin',(0.632631166000537,137.55,-0.375665208053476));
#1169=CARTESIAN_POINT('Origin',(-1.36347002362354,153.4,3.90699810357656));
#1170=CARTESIAN_POINT('',(-1.36347002362354,149.4,3.90699810357656));
#1171=CARTESIAN_POINT('',(-1.36347002362354,153.4,3.90699810357656));
#1172=CARTESIAN_POINT('',(-4.07431465253868,149.4,0.036992109022749));
#1173=CARTESIAN_POINT('',(-1.36347002362354,149.4,3.90699810357656));
#1174=CARTESIAN_POINT('',(-4.07431465253868,153.4,0.036992109022749));
#1175=CARTESIAN_POINT('Origin',(3.34347579491571,153.4,3.49434078650034));
#1176=CARTESIAN_POINT('',(3.34347579491571,149.4,3.49434078650034));
#1177=CARTESIAN_POINT('',(3.34347579491571,153.4,3.49434078650034));
#1178=CARTESIAN_POINT('',(3.34347579491571,149.4,3.49434078650034));
#1179=CARTESIAN_POINT('Origin',(5.33957698453979,153.4,-0.788322525129698));
#1180=CARTESIAN_POINT('',(5.33957698453979,149.4,-0.788322525129698));
#1181=CARTESIAN_POINT('',(5.33957698453979,153.4,-0.788322525129698));
#1182=CARTESIAN_POINT('',(5.33957698453979,149.4,-0.788322525129698));
#1183=CARTESIAN_POINT('Origin',(2.62873235562463,153.4,-4.65832851968351));
#1184=CARTESIAN_POINT('',(2.62873235562463,149.4,-4.65832851968351));
#1185=CARTESIAN_POINT('',(2.62873235562463,153.4,-4.65832851968351));
#1186=CARTESIAN_POINT('',(2.62873235562463,149.4,-4.65832851968351));
#1187=CARTESIAN_POINT('Origin',(-2.07821346291462,153.4,-4.24567120260729));
#1188=CARTESIAN_POINT('',(-2.07821346291462,149.4,-4.24567120260729));
#1189=CARTESIAN_POINT('',(-2.07821346291462,153.4,-4.24567120260729));
#1190=CARTESIAN_POINT('',(-2.07821346291462,149.4,-4.24567120260729));
#1191=CARTESIAN_POINT('Origin',(-4.07431465253868,153.4,0.036992109022749));
#1192=CARTESIAN_POINT('',(-4.07431465253868,149.4,0.036992109022749));
#1193=CARTESIAN_POINT('Origin',(0.632631166000554,149.4,-0.375665208053476));
#1194=CARTESIAN_POINT('',(3.28263116600054,149.4,-0.375665208053476));
#1195=CARTESIAN_POINT('Origin',(0.632631166000537,149.4,-0.375665208053476));
#1196=CARTESIAN_POINT('Origin',(23.4934176036274,153.4,-0.375665208053436));
#1197=CARTESIAN_POINT('',(24.200524384814,153.4,-1.08277198923998));
#1198=CARTESIAN_POINT('',(24.200524384814,153.4,0.331441573133115));
#1199=CARTESIAN_POINT('Origin',(24.9076311660005,153.4,-0.375665208053426));
#1200=CARTESIAN_POINT('',(19.9076311660005,153.4,4.62433479194653));
#1201=CARTESIAN_POINT('Origin',(-22.2281552716263,153.4,-0.3756652080535));
#1202=CARTESIAN_POINT('',(-22.9352620528129,153.4,0.331441573133049));
#1203=CARTESIAN_POINT('',(-22.9352620528129,153.4,-1.08277198924004));
#1204=CARTESIAN_POINT('Origin',(-18.6423688339994,153.4,4.6243347919465));
#1205=CARTESIAN_POINT('',(-18.6423688339994,153.4,4.6243347919465));
#1206=CARTESIAN_POINT('Origin',(0.632631166000537,153.4,-0.375665208053476));
#1207=CARTESIAN_POINT('',(3.28263116600054,153.4,-0.375665208053476));
#1208=CARTESIAN_POINT('Origin',(-18.6423688339994,153.4,-5.37566520805349));
#1209=CARTESIAN_POINT('',(-18.6423688339994,153.4,-5.37566520805349));
#1210=CARTESIAN_POINT('Origin',(-23.6423688339994,153.4,-0.375665208053495));
#1211=CARTESIAN_POINT('Origin',(-18.6423688339994,153.4,8.47433479194653));
#1212=CARTESIAN_POINT('',(-18.6423688339994,153.4,8.47433479194653));
#1213=CARTESIAN_POINT('Origin',(19.9076311660005,153.4,8.47433479194653));
#1214=CARTESIAN_POINT('',(19.9076311660005,153.4,8.47433479194653));
#1215=CARTESIAN_POINT('Origin',(19.9076311660005,153.4,4.62433479194653));
#1216=CARTESIAN_POINT('Origin',(19.9076311660005,153.4,-5.37566520805347));
#1217=UNCERTAINTY_MEASURE_WITH_UNIT(LENGTH_MEASURE(0.01),#1221,
'DISTANCE_ACCURACY_VALUE',
'Maximum model space distance between geometric entities at asserted c
onnectivities');
#1218=UNCERTAINTY_MEASURE_WITH_UNIT(LENGTH_MEASURE(0.01),#1221,
'DISTANCE_ACCURACY_VALUE',
'Maximum model space distance between geometric entities at asserted c
onnectivities');
#1219=(
GEOMETRIC_REPRESENTATION_CONTEXT(3)
GLOBAL_UNCERTAINTY_ASSIGNED_CONTEXT((#1217))
GLOBAL_UNIT_ASSIGNED_CONTEXT((#1221,#1223,#1224))
REPRESENTATION_CONTEXT('','3D')
);
#1220=(
GEOMETRIC_REPRESENTATION_CONTEXT(3)
GLOBAL_UNCERTAINTY_ASSIGNED_CONTEXT((#1218))
GLOBAL_UNIT_ASSIGNED_CONTEXT((#1221,#1223,#1224))
REPRESENTATION_CONTEXT('','3D')
);
#1221=(
LENGTH_UNIT()
NAMED_UNIT(*)
SI_UNIT(.MILLI.,.METRE.)
);
#1222=(
LENGTH_UNIT()
NAMED_UNIT(*)
SI_UNIT($,.METRE.)
);
#1223=(
NAMED_UNIT(*)
PLANE_ANGLE_UNIT()
SI_UNIT($,.RADIAN.)
);
#1224=(
NAMED_UNIT(*)
SI_UNIT($,.STERADIAN.)
SOLID_ANGLE_UNIT()
);
#1225=SHAPE_DEFINITION_REPRESENTATION(#1226,#1227);
#1226=PRODUCT_DEFINITION_SHAPE('',$,#1229);
#1227=SHAPE_REPRESENTATION('',(#767),#1219);
#1228=PRODUCT_DEFINITION_CONTEXT('part definition',#1233,'design');
#1229=PRODUCT_DEFINITION('etau','etau v30',#1230,#1228);
#1230=PRODUCT_DEFINITION_FORMATION('',$,#1235);
#1231=PRODUCT_RELATED_PRODUCT_CATEGORY('etau v30','etau v30',(#1235));
#1232=APPLICATION_PROTOCOL_DEFINITION('international standard',
'automotive_design',2009,#1233);
#1233=APPLICATION_CONTEXT(
'Core Data for Automotive Mechanical Design Process');
#1234=PRODUCT_CONTEXT('part definition',#1233,'mechanical');
#1235=PRODUCT('etau','etau v30',$,(#1234));
#1236=PRESENTATION_STYLE_ASSIGNMENT((#1237));
#1237=SURFACE_STYLE_USAGE(.BOTH.,#1238);
#1238=SURFACE_SIDE_STYLE('',(#1239));
#1239=SURFACE_STYLE_FILL_AREA(#1240);
#1240=FILL_AREA_STYLE('Acier - Satin\X\E9',(#1241));
#1241=FILL_AREA_STYLE_COLOUR('Acier - Satin\X\E9',#1242);
#1242=COLOUR_RGB('Acier - Satin\X\E9',0.627450980392157,0.627450980392157,
0.627450980392157);
ENDSEC;
END-ISO-10303-21;
