ISO-10303-21;
HEADER;
/* Generated by software containing ST-Developer
 * from STEP Tools, Inc. (www.steptools.com) 
 */

FILE_DESCRIPTION(
/* description */ (''),
/* implementation_level */ '2;1');

FILE_NAME(
/* name */ 'etau3_intercalaire.step',
/* time_stamp */ '2025-10-31T16:41:35+01:00',
/* author */ (''),
/* organization */ (''),
/* preprocessor_version */ 'ST-DEVELOPER v20.1',
/* originating_system */ 'Autodesk Translation Framework v14.17.0.0',
/* authorisation */ '');

FILE_SCHEMA (('AUTOMOTIVE_DESIGN { 1 0 10303 214 3 1 1 }'));
ENDSEC;

DATA;
#10=MECHANICAL_DESIGN_GEOMETRIC_PRESENTATION_REPRESENTATION('',(#13,#14),
#905);
#11=SHAPE_REPRESENTATION_RELATIONSHIP('SRR','None',#912,#12);
#12=ADVANCED_BREP_SHAPE_REPRESENTATION('',(#15,#16),#904);
#13=STYLED_ITEM('',(#921),#15);
#14=STYLED_ITEM('',(#921),#16);
#15=MANIFOLD_SOLID_BREP('Corps11',#556);
#16=MANIFOLD_SOLID_BREP('Corps12',#557);
#17=CYLINDRICAL_SURFACE('',#575,0.5);
#18=CYLINDRICAL_SURFACE('',#581,0.5);
#19=CYLINDRICAL_SURFACE('',#590,2.65);
#20=FACE_BOUND('',#60,.T.);
#21=FACE_BOUND('',#81,.T.);
#22=CIRCLE('',#574,2.65);
#23=CIRCLE('',#576,0.5);
#24=CIRCLE('',#577,0.5);
#25=CIRCLE('',#580,0.5);
#26=CIRCLE('',#582,0.5);
#27=CIRCLE('',#591,2.65);
#28=FACE_OUTER_BOUND('',#57,.T.);
#29=FACE_OUTER_BOUND('',#58,.T.);
#30=FACE_OUTER_BOUND('',#59,.T.);
#31=FACE_OUTER_BOUND('',#61,.T.);
#32=FACE_OUTER_BOUND('',#62,.T.);
#33=FACE_OUTER_BOUND('',#63,.T.);
#34=FACE_OUTER_BOUND('',#64,.T.);
#35=FACE_OUTER_BOUND('',#65,.T.);
#36=FACE_OUTER_BOUND('',#66,.T.);
#37=FACE_OUTER_BOUND('',#67,.T.);
#38=FACE_OUTER_BOUND('',#68,.T.);
#39=FACE_OUTER_BOUND('',#69,.T.);
#40=FACE_OUTER_BOUND('',#70,.T.);
#41=FACE_OUTER_BOUND('',#71,.T.);
#42=FACE_OUTER_BOUND('',#72,.T.);
#43=FACE_OUTER_BOUND('',#73,.T.);
#44=FACE_OUTER_BOUND('',#74,.T.);
#45=FACE_OUTER_BOUND('',#75,.T.);
#46=FACE_OUTER_BOUND('',#76,.T.);
#47=FACE_OUTER_BOUND('',#77,.T.);
#48=FACE_OUTER_BOUND('',#78,.T.);
#49=FACE_OUTER_BOUND('',#79,.T.);
#50=FACE_OUTER_BOUND('',#80,.T.);
#51=FACE_OUTER_BOUND('',#82,.T.);
#52=FACE_OUTER_BOUND('',#83,.T.);
#53=FACE_OUTER_BOUND('',#84,.T.);
#54=FACE_OUTER_BOUND('',#85,.T.);
#55=FACE_OUTER_BOUND('',#86,.T.);
#56=FACE_OUTER_BOUND('',#87,.T.);
#57=EDGE_LOOP('',(#351,#352,#353,#354));
#58=EDGE_LOOP('',(#355,#356,#357,#358));
#59=EDGE_LOOP('',(#359,#360,#361,#362,#363,#364,#365,#366,#367,#368,#369,
#370,#371,#372));
#60=EDGE_LOOP('',(#373));
#61=EDGE_LOOP('',(#374,#375,#376,#377));
#62=EDGE_LOOP('',(#378,#379,#380,#381));
#63=EDGE_LOOP('',(#382,#383,#384,#385,#386,#387,#388,#389,#390,#391));
#64=EDGE_LOOP('',(#392,#393,#394,#395));
#65=EDGE_LOOP('',(#396,#397,#398,#399));
#66=EDGE_LOOP('',(#400,#401,#402,#403));
#67=EDGE_LOOP('',(#404,#405,#406,#407));
#68=EDGE_LOOP('',(#408,#409,#410,#411,#412,#413,#414,#415,#416,#417));
#69=EDGE_LOOP('',(#418,#419,#420,#421));
#70=EDGE_LOOP('',(#422,#423,#424,#425));
#71=EDGE_LOOP('',(#426,#427,#428,#429));
#72=EDGE_LOOP('',(#430,#431,#432,#433));
#73=EDGE_LOOP('',(#434,#435,#436,#437));
#74=EDGE_LOOP('',(#438,#439,#440,#441));
#75=EDGE_LOOP('',(#442,#443,#444,#445));
#76=EDGE_LOOP('',(#446,#447,#448,#449));
#77=EDGE_LOOP('',(#450,#451,#452,#453));
#78=EDGE_LOOP('',(#454,#455,#456,#457));
#79=EDGE_LOOP('',(#458,#459,#460,#461));
#80=EDGE_LOOP('',(#462,#463,#464,#465,#466,#467,#468,#469,#470,#471,#472,
#473,#474,#475));
#81=EDGE_LOOP('',(#476));
#82=EDGE_LOOP('',(#477,#478,#479,#480));
#83=EDGE_LOOP('',(#481,#482,#483,#484));
#84=EDGE_LOOP('',(#485,#486,#487,#488));
#85=EDGE_LOOP('',(#489,#490,#491,#492));
#86=EDGE_LOOP('',(#493,#494,#495,#496));
#87=EDGE_LOOP('',(#497,#498,#499,#500));
#88=LINE('',#751,#157);
#89=LINE('',#753,#158);
#90=LINE('',#755,#159);
#91=LINE('',#756,#160);
#92=LINE('',#759,#161);
#93=LINE('',#761,#162);
#94=LINE('',#762,#163);
#95=LINE('',#765,#164);
#96=LINE('',#767,#165);
#97=LINE('',#769,#166);
#98=LINE('',#771,#167);
#99=LINE('',#773,#168);
#100=LINE('',#775,#169);
#101=LINE('',#777,#170);
#102=LINE('',#779,#171);
#103=LINE('',#781,#172);
#104=LINE('',#783,#173);
#105=LINE('',#785,#174);
#106=LINE('',#786,#175);
#107=LINE('',#794,#176);
#108=LINE('',#797,#177);
#109=LINE('',#800,#178);
#110=LINE('',#802,#179);
#111=LINE('',#803,#180);
#112=LINE('',#806,#181);
#113=LINE('',#810,#182);
#114=LINE('',#811,#183);
#115=LINE('',#813,#184);
#116=LINE('',#815,#185);
#117=LINE('',#816,#186);
#118=LINE('',#819,#187);
#119=LINE('',#822,#188);
#120=LINE('',#825,#189);
#121=LINE('',#826,#190);
#122=LINE('',#828,#191);
#123=LINE('',#831,#192);
#124=LINE('',#832,#193);
#125=LINE('',#835,#194);
#126=LINE('',#836,#195);
#127=LINE('',#837,#196);
#128=LINE('',#840,#197);
#129=LINE('',#841,#198);
#130=LINE('',#844,#199);
#131=LINE('',#845,#200);
#132=LINE('',#850,#201);
#133=LINE('',#853,#202);
#134=LINE('',#855,#203);
#135=LINE('',#856,#204);
#136=LINE('',#858,#205);
#137=LINE('',#861,#206);
#138=LINE('',#862,#207);
#139=LINE('',#865,#208);
#140=LINE('',#866,#209);
#141=LINE('',#868,#210);
#142=LINE('',#871,#211);
#143=LINE('',#872,#212);
#144=LINE('',#874,#213);
#145=LINE('',#879,#214);
#146=LINE('',#881,#215);
#147=LINE('',#883,#216);
#148=LINE('',#884,#217);
#149=LINE('',#887,#218);
#150=LINE('',#889,#219);
#151=LINE('',#890,#220);
#152=LINE('',#893,#221);
#153=LINE('',#895,#222);
#154=LINE('',#896,#223);
#155=LINE('',#898,#224);
#156=LINE('',#899,#225);
#157=VECTOR('',#610,10.);
#158=VECTOR('',#611,10.);
#159=VECTOR('',#612,10.);
#160=VECTOR('',#613,10.);
#161=VECTOR('',#616,10.);
#162=VECTOR('',#617,10.);
#163=VECTOR('',#618,10.);
#164=VECTOR('',#621,10.);
#165=VECTOR('',#622,10.);
#166=VECTOR('',#623,10.);
#167=VECTOR('',#624,10.);
#168=VECTOR('',#625,10.);
#169=VECTOR('',#626,10.);
#170=VECTOR('',#627,10.);
#171=VECTOR('',#628,10.);
#172=VECTOR('',#629,10.);
#173=VECTOR('',#630,10.);
#174=VECTOR('',#631,10.);
#175=VECTOR('',#632,10.);
#176=VECTOR('',#639,10.);
#177=VECTOR('',#642,10.);
#178=VECTOR('',#645,10.);
#179=VECTOR('',#646,10.);
#180=VECTOR('',#647,10.);
#181=VECTOR('',#650,10.);
#182=VECTOR('',#653,10.);
#183=VECTOR('',#654,10.);
#184=VECTOR('',#655,10.);
#185=VECTOR('',#656,10.);
#186=VECTOR('',#657,10.);
#187=VECTOR('',#660,10.);
#188=VECTOR('',#663,10.);
#189=VECTOR('',#666,10.);
#190=VECTOR('',#667,10.);
#191=VECTOR('',#670,10.);
#192=VECTOR('',#673,10.);
#193=VECTOR('',#674,10.);
#194=VECTOR('',#677,10.);
#195=VECTOR('',#678,10.);
#196=VECTOR('',#679,10.);
#197=VECTOR('',#682,10.);
#198=VECTOR('',#683,10.);
#199=VECTOR('',#686,10.);
#200=VECTOR('',#687,10.);
#201=VECTOR('',#694,2.65);
#202=VECTOR('',#697,10.);
#203=VECTOR('',#698,10.);
#204=VECTOR('',#699,10.);
#205=VECTOR('',#702,10.);
#206=VECTOR('',#705,10.);
#207=VECTOR('',#706,10.);
#208=VECTOR('',#709,10.);
#209=VECTOR('',#710,10.);
#210=VECTOR('',#713,10.);
#211=VECTOR('',#716,10.);
#212=VECTOR('',#717,10.);
#213=VECTOR('',#720,10.);
#214=VECTOR('',#725,10.);
#215=VECTOR('',#726,10.);
#216=VECTOR('',#727,10.);
#217=VECTOR('',#728,10.);
#218=VECTOR('',#731,10.);
#219=VECTOR('',#732,10.);
#220=VECTOR('',#733,10.);
#221=VECTOR('',#736,10.);
#222=VECTOR('',#737,10.);
#223=VECTOR('',#738,10.);
#224=VECTOR('',#741,10.);
#225=VECTOR('',#742,10.);
#226=VERTEX_POINT('',#749);
#227=VERTEX_POINT('',#750);
#228=VERTEX_POINT('',#752);
#229=VERTEX_POINT('',#754);
#230=VERTEX_POINT('',#758);
#231=VERTEX_POINT('',#760);
#232=VERTEX_POINT('',#764);
#233=VERTEX_POINT('',#766);
#234=VERTEX_POINT('',#768);
#235=VERTEX_POINT('',#770);
#236=VERTEX_POINT('',#772);
#237=VERTEX_POINT('',#774);
#238=VERTEX_POINT('',#776);
#239=VERTEX_POINT('',#778);
#240=VERTEX_POINT('',#780);
#241=VERTEX_POINT('',#782);
#242=VERTEX_POINT('',#784);
#243=VERTEX_POINT('',#787);
#244=VERTEX_POINT('',#790);
#245=VERTEX_POINT('',#791);
#246=VERTEX_POINT('',#793);
#247=VERTEX_POINT('',#795);
#248=VERTEX_POINT('',#799);
#249=VERTEX_POINT('',#801);
#250=VERTEX_POINT('',#805);
#251=VERTEX_POINT('',#807);
#252=VERTEX_POINT('',#809);
#253=VERTEX_POINT('',#812);
#254=VERTEX_POINT('',#814);
#255=VERTEX_POINT('',#818);
#256=VERTEX_POINT('',#820);
#257=VERTEX_POINT('',#824);
#258=VERTEX_POINT('',#830);
#259=VERTEX_POINT('',#834);
#260=VERTEX_POINT('',#839);
#261=VERTEX_POINT('',#843);
#262=VERTEX_POINT('',#848);
#263=VERTEX_POINT('',#852);
#264=VERTEX_POINT('',#854);
#265=VERTEX_POINT('',#860);
#266=VERTEX_POINT('',#864);
#267=VERTEX_POINT('',#870);
#268=VERTEX_POINT('',#877);
#269=VERTEX_POINT('',#878);
#270=VERTEX_POINT('',#880);
#271=VERTEX_POINT('',#882);
#272=VERTEX_POINT('',#886);
#273=VERTEX_POINT('',#888);
#274=VERTEX_POINT('',#892);
#275=VERTEX_POINT('',#894);
#276=EDGE_CURVE('',#226,#227,#88,.T.);
#277=EDGE_CURVE('',#228,#226,#89,.T.);
#278=EDGE_CURVE('',#229,#228,#90,.T.);
#279=EDGE_CURVE('',#227,#229,#91,.T.);
#280=EDGE_CURVE('',#226,#230,#92,.T.);
#281=EDGE_CURVE('',#230,#231,#93,.T.);
#282=EDGE_CURVE('',#228,#231,#94,.T.);
#283=EDGE_CURVE('',#232,#227,#95,.T.);
#284=EDGE_CURVE('',#233,#232,#96,.T.);
#285=EDGE_CURVE('',#233,#234,#97,.T.);
#286=EDGE_CURVE('',#234,#235,#98,.T.);
#287=EDGE_CURVE('',#235,#236,#99,.T.);
#288=EDGE_CURVE('',#236,#237,#100,.T.);
#289=EDGE_CURVE('',#237,#238,#101,.T.);
#290=EDGE_CURVE('',#239,#238,#102,.T.);
#291=EDGE_CURVE('',#239,#240,#103,.T.);
#292=EDGE_CURVE('',#241,#240,#104,.T.);
#293=EDGE_CURVE('',#241,#242,#105,.T.);
#294=EDGE_CURVE('',#230,#242,#106,.T.);
#295=EDGE_CURVE('',#243,#243,#22,.T.);
#296=EDGE_CURVE('',#244,#245,#23,.T.);
#297=EDGE_CURVE('',#245,#246,#107,.T.);
#298=EDGE_CURVE('',#246,#247,#24,.T.);
#299=EDGE_CURVE('',#247,#244,#108,.T.);
#300=EDGE_CURVE('',#248,#247,#109,.T.);
#301=EDGE_CURVE('',#249,#248,#110,.T.);
#302=EDGE_CURVE('',#244,#249,#111,.T.);
#303=EDGE_CURVE('',#250,#246,#112,.T.);
#304=EDGE_CURVE('',#251,#250,#25,.T.);
#305=EDGE_CURVE('',#251,#252,#113,.T.);
#306=EDGE_CURVE('',#252,#237,#114,.T.);
#307=EDGE_CURVE('',#236,#253,#115,.T.);
#308=EDGE_CURVE('',#253,#254,#116,.T.);
#309=EDGE_CURVE('',#254,#248,#117,.T.);
#310=EDGE_CURVE('',#250,#255,#118,.T.);
#311=EDGE_CURVE('',#255,#256,#26,.T.);
#312=EDGE_CURVE('',#256,#251,#119,.T.);
#313=EDGE_CURVE('',#257,#256,#120,.T.);
#314=EDGE_CURVE('',#257,#252,#121,.T.);
#315=EDGE_CURVE('',#238,#257,#122,.T.);
#316=EDGE_CURVE('',#249,#258,#123,.T.);
#317=EDGE_CURVE('',#258,#254,#124,.T.);
#318=EDGE_CURVE('',#259,#258,#125,.T.);
#319=EDGE_CURVE('',#259,#239,#126,.T.);
#320=EDGE_CURVE('',#245,#255,#127,.T.);
#321=EDGE_CURVE('',#260,#235,#128,.T.);
#322=EDGE_CURVE('',#253,#260,#129,.T.);
#323=EDGE_CURVE('',#240,#261,#130,.T.);
#324=EDGE_CURVE('',#261,#259,#131,.T.);
#325=EDGE_CURVE('',#262,#262,#27,.T.);
#326=EDGE_CURVE('',#262,#243,#132,.T.);
#327=EDGE_CURVE('',#233,#263,#133,.T.);
#328=EDGE_CURVE('',#264,#263,#134,.T.);
#329=EDGE_CURVE('',#234,#264,#135,.T.);
#330=EDGE_CURVE('',#260,#264,#136,.T.);
#331=EDGE_CURVE('',#265,#261,#137,.T.);
#332=EDGE_CURVE('',#241,#265,#138,.T.);
#333=EDGE_CURVE('',#266,#265,#139,.T.);
#334=EDGE_CURVE('',#242,#266,#140,.T.);
#335=EDGE_CURVE('',#231,#266,#141,.T.);
#336=EDGE_CURVE('',#267,#229,#142,.T.);
#337=EDGE_CURVE('',#232,#267,#143,.T.);
#338=EDGE_CURVE('',#263,#267,#144,.T.);
#339=EDGE_CURVE('',#268,#269,#145,.T.);
#340=EDGE_CURVE('',#269,#270,#146,.T.);
#341=EDGE_CURVE('',#271,#270,#147,.T.);
#342=EDGE_CURVE('',#268,#271,#148,.T.);
#343=EDGE_CURVE('',#272,#268,#149,.T.);
#344=EDGE_CURVE('',#273,#271,#150,.T.);
#345=EDGE_CURVE('',#272,#273,#151,.T.);
#346=EDGE_CURVE('',#274,#272,#152,.T.);
#347=EDGE_CURVE('',#275,#273,#153,.T.);
#348=EDGE_CURVE('',#274,#275,#154,.T.);
#349=EDGE_CURVE('',#269,#274,#155,.T.);
#350=EDGE_CURVE('',#270,#275,#156,.T.);
#351=ORIENTED_EDGE('',*,*,#276,.F.);
#352=ORIENTED_EDGE('',*,*,#277,.F.);
#353=ORIENTED_EDGE('',*,*,#278,.F.);
#354=ORIENTED_EDGE('',*,*,#279,.F.);
#355=ORIENTED_EDGE('',*,*,#277,.T.);
#356=ORIENTED_EDGE('',*,*,#280,.T.);
#357=ORIENTED_EDGE('',*,*,#281,.T.);
#358=ORIENTED_EDGE('',*,*,#282,.F.);
#359=ORIENTED_EDGE('',*,*,#276,.T.);
#360=ORIENTED_EDGE('',*,*,#283,.F.);
#361=ORIENTED_EDGE('',*,*,#284,.F.);
#362=ORIENTED_EDGE('',*,*,#285,.T.);
#363=ORIENTED_EDGE('',*,*,#286,.T.);
#364=ORIENTED_EDGE('',*,*,#287,.T.);
#365=ORIENTED_EDGE('',*,*,#288,.T.);
#366=ORIENTED_EDGE('',*,*,#289,.T.);
#367=ORIENTED_EDGE('',*,*,#290,.F.);
#368=ORIENTED_EDGE('',*,*,#291,.T.);
#369=ORIENTED_EDGE('',*,*,#292,.F.);
#370=ORIENTED_EDGE('',*,*,#293,.T.);
#371=ORIENTED_EDGE('',*,*,#294,.F.);
#372=ORIENTED_EDGE('',*,*,#280,.F.);
#373=ORIENTED_EDGE('',*,*,#295,.F.);
#374=ORIENTED_EDGE('',*,*,#296,.T.);
#375=ORIENTED_EDGE('',*,*,#297,.T.);
#376=ORIENTED_EDGE('',*,*,#298,.T.);
#377=ORIENTED_EDGE('',*,*,#299,.T.);
#378=ORIENTED_EDGE('',*,*,#299,.F.);
#379=ORIENTED_EDGE('',*,*,#300,.F.);
#380=ORIENTED_EDGE('',*,*,#301,.F.);
#381=ORIENTED_EDGE('',*,*,#302,.F.);
#382=ORIENTED_EDGE('',*,*,#298,.F.);
#383=ORIENTED_EDGE('',*,*,#303,.F.);
#384=ORIENTED_EDGE('',*,*,#304,.F.);
#385=ORIENTED_EDGE('',*,*,#305,.T.);
#386=ORIENTED_EDGE('',*,*,#306,.T.);
#387=ORIENTED_EDGE('',*,*,#288,.F.);
#388=ORIENTED_EDGE('',*,*,#307,.T.);
#389=ORIENTED_EDGE('',*,*,#308,.T.);
#390=ORIENTED_EDGE('',*,*,#309,.T.);
#391=ORIENTED_EDGE('',*,*,#300,.T.);
#392=ORIENTED_EDGE('',*,*,#304,.T.);
#393=ORIENTED_EDGE('',*,*,#310,.T.);
#394=ORIENTED_EDGE('',*,*,#311,.T.);
#395=ORIENTED_EDGE('',*,*,#312,.T.);
#396=ORIENTED_EDGE('',*,*,#312,.F.);
#397=ORIENTED_EDGE('',*,*,#313,.F.);
#398=ORIENTED_EDGE('',*,*,#314,.T.);
#399=ORIENTED_EDGE('',*,*,#305,.F.);
#400=ORIENTED_EDGE('',*,*,#315,.F.);
#401=ORIENTED_EDGE('',*,*,#289,.F.);
#402=ORIENTED_EDGE('',*,*,#306,.F.);
#403=ORIENTED_EDGE('',*,*,#314,.F.);
#404=ORIENTED_EDGE('',*,*,#316,.F.);
#405=ORIENTED_EDGE('',*,*,#301,.T.);
#406=ORIENTED_EDGE('',*,*,#309,.F.);
#407=ORIENTED_EDGE('',*,*,#317,.F.);
#408=ORIENTED_EDGE('',*,*,#296,.F.);
#409=ORIENTED_EDGE('',*,*,#302,.T.);
#410=ORIENTED_EDGE('',*,*,#316,.T.);
#411=ORIENTED_EDGE('',*,*,#318,.F.);
#412=ORIENTED_EDGE('',*,*,#319,.T.);
#413=ORIENTED_EDGE('',*,*,#290,.T.);
#414=ORIENTED_EDGE('',*,*,#315,.T.);
#415=ORIENTED_EDGE('',*,*,#313,.T.);
#416=ORIENTED_EDGE('',*,*,#311,.F.);
#417=ORIENTED_EDGE('',*,*,#320,.F.);
#418=ORIENTED_EDGE('',*,*,#321,.F.);
#419=ORIENTED_EDGE('',*,*,#322,.F.);
#420=ORIENTED_EDGE('',*,*,#307,.F.);
#421=ORIENTED_EDGE('',*,*,#287,.F.);
#422=ORIENTED_EDGE('',*,*,#323,.F.);
#423=ORIENTED_EDGE('',*,*,#291,.F.);
#424=ORIENTED_EDGE('',*,*,#319,.F.);
#425=ORIENTED_EDGE('',*,*,#324,.F.);
#426=ORIENTED_EDGE('',*,*,#297,.F.);
#427=ORIENTED_EDGE('',*,*,#320,.T.);
#428=ORIENTED_EDGE('',*,*,#310,.F.);
#429=ORIENTED_EDGE('',*,*,#303,.T.);
#430=ORIENTED_EDGE('',*,*,#325,.F.);
#431=ORIENTED_EDGE('',*,*,#326,.T.);
#432=ORIENTED_EDGE('',*,*,#295,.T.);
#433=ORIENTED_EDGE('',*,*,#326,.F.);
#434=ORIENTED_EDGE('',*,*,#285,.F.);
#435=ORIENTED_EDGE('',*,*,#327,.T.);
#436=ORIENTED_EDGE('',*,*,#328,.F.);
#437=ORIENTED_EDGE('',*,*,#329,.F.);
#438=ORIENTED_EDGE('',*,*,#286,.F.);
#439=ORIENTED_EDGE('',*,*,#329,.T.);
#440=ORIENTED_EDGE('',*,*,#330,.F.);
#441=ORIENTED_EDGE('',*,*,#321,.T.);
#442=ORIENTED_EDGE('',*,*,#292,.T.);
#443=ORIENTED_EDGE('',*,*,#323,.T.);
#444=ORIENTED_EDGE('',*,*,#331,.F.);
#445=ORIENTED_EDGE('',*,*,#332,.F.);
#446=ORIENTED_EDGE('',*,*,#293,.F.);
#447=ORIENTED_EDGE('',*,*,#332,.T.);
#448=ORIENTED_EDGE('',*,*,#333,.F.);
#449=ORIENTED_EDGE('',*,*,#334,.F.);
#450=ORIENTED_EDGE('',*,*,#294,.T.);
#451=ORIENTED_EDGE('',*,*,#334,.T.);
#452=ORIENTED_EDGE('',*,*,#335,.F.);
#453=ORIENTED_EDGE('',*,*,#281,.F.);
#454=ORIENTED_EDGE('',*,*,#279,.T.);
#455=ORIENTED_EDGE('',*,*,#336,.F.);
#456=ORIENTED_EDGE('',*,*,#337,.F.);
#457=ORIENTED_EDGE('',*,*,#283,.T.);
#458=ORIENTED_EDGE('',*,*,#284,.T.);
#459=ORIENTED_EDGE('',*,*,#337,.T.);
#460=ORIENTED_EDGE('',*,*,#338,.F.);
#461=ORIENTED_EDGE('',*,*,#327,.F.);
#462=ORIENTED_EDGE('',*,*,#278,.T.);
#463=ORIENTED_EDGE('',*,*,#282,.T.);
#464=ORIENTED_EDGE('',*,*,#335,.T.);
#465=ORIENTED_EDGE('',*,*,#333,.T.);
#466=ORIENTED_EDGE('',*,*,#331,.T.);
#467=ORIENTED_EDGE('',*,*,#324,.T.);
#468=ORIENTED_EDGE('',*,*,#318,.T.);
#469=ORIENTED_EDGE('',*,*,#317,.T.);
#470=ORIENTED_EDGE('',*,*,#308,.F.);
#471=ORIENTED_EDGE('',*,*,#322,.T.);
#472=ORIENTED_EDGE('',*,*,#330,.T.);
#473=ORIENTED_EDGE('',*,*,#328,.T.);
#474=ORIENTED_EDGE('',*,*,#338,.T.);
#475=ORIENTED_EDGE('',*,*,#336,.T.);
#476=ORIENTED_EDGE('',*,*,#325,.T.);
#477=ORIENTED_EDGE('',*,*,#339,.T.);
#478=ORIENTED_EDGE('',*,*,#340,.T.);
#479=ORIENTED_EDGE('',*,*,#341,.F.);
#480=ORIENTED_EDGE('',*,*,#342,.F.);
#481=ORIENTED_EDGE('',*,*,#343,.T.);
#482=ORIENTED_EDGE('',*,*,#342,.T.);
#483=ORIENTED_EDGE('',*,*,#344,.F.);
#484=ORIENTED_EDGE('',*,*,#345,.F.);
#485=ORIENTED_EDGE('',*,*,#346,.T.);
#486=ORIENTED_EDGE('',*,*,#345,.T.);
#487=ORIENTED_EDGE('',*,*,#347,.F.);
#488=ORIENTED_EDGE('',*,*,#348,.F.);
#489=ORIENTED_EDGE('',*,*,#349,.T.);
#490=ORIENTED_EDGE('',*,*,#348,.T.);
#491=ORIENTED_EDGE('',*,*,#350,.F.);
#492=ORIENTED_EDGE('',*,*,#340,.F.);
#493=ORIENTED_EDGE('',*,*,#349,.F.);
#494=ORIENTED_EDGE('',*,*,#339,.F.);
#495=ORIENTED_EDGE('',*,*,#343,.F.);
#496=ORIENTED_EDGE('',*,*,#346,.F.);
#497=ORIENTED_EDGE('',*,*,#350,.T.);
#498=ORIENTED_EDGE('',*,*,#347,.T.);
#499=ORIENTED_EDGE('',*,*,#344,.T.);
#500=ORIENTED_EDGE('',*,*,#341,.T.);
#501=PLANE('',#571);
#502=PLANE('',#572);
#503=PLANE('',#573);
#504=PLANE('',#578);
#505=PLANE('',#579);
#506=PLANE('',#583);
#507=PLANE('',#584);
#508=PLANE('',#585);
#509=PLANE('',#586);
#510=PLANE('',#587);
#511=PLANE('',#588);
#512=PLANE('',#589);
#513=PLANE('',#592);
#514=PLANE('',#593);
#515=PLANE('',#594);
#516=PLANE('',#595);
#517=PLANE('',#596);
#518=PLANE('',#597);
#519=PLANE('',#598);
#520=PLANE('',#599);
#521=PLANE('',#600);
#522=PLANE('',#601);
#523=PLANE('',#602);
#524=PLANE('',#603);
#525=PLANE('',#604);
#526=PLANE('',#605);
#527=ADVANCED_FACE('',(#28),#501,.F.);
#528=ADVANCED_FACE('',(#29),#502,.T.);
#529=ADVANCED_FACE('',(#30,#20),#503,.F.);
#530=ADVANCED_FACE('',(#31),#17,.T.);
#531=ADVANCED_FACE('',(#32),#504,.F.);
#532=ADVANCED_FACE('',(#33),#505,.T.);
#533=ADVANCED_FACE('',(#34),#18,.T.);
#534=ADVANCED_FACE('',(#35),#506,.F.);
#535=ADVANCED_FACE('',(#36),#507,.F.);
#536=ADVANCED_FACE('',(#37),#508,.F.);
#537=ADVANCED_FACE('',(#38),#509,.T.);
#538=ADVANCED_FACE('',(#39),#510,.F.);
#539=ADVANCED_FACE('',(#40),#511,.F.);
#540=ADVANCED_FACE('',(#41),#512,.T.);
#541=ADVANCED_FACE('',(#42),#19,.F.);
#542=ADVANCED_FACE('',(#43),#513,.T.);
#543=ADVANCED_FACE('',(#44),#514,.T.);
#544=ADVANCED_FACE('',(#45),#515,.T.);
#545=ADVANCED_FACE('',(#46),#516,.T.);
#546=ADVANCED_FACE('',(#47),#517,.T.);
#547=ADVANCED_FACE('',(#48),#518,.T.);
#548=ADVANCED_FACE('',(#49),#519,.T.);
#549=ADVANCED_FACE('',(#50,#21),#520,.T.);
#550=ADVANCED_FACE('',(#51),#521,.T.);
#551=ADVANCED_FACE('',(#52),#522,.T.);
#552=ADVANCED_FACE('',(#53),#523,.T.);
#553=ADVANCED_FACE('',(#54),#524,.T.);
#554=ADVANCED_FACE('',(#55),#525,.T.);
#555=ADVANCED_FACE('',(#56),#526,.T.);
#556=CLOSED_SHELL('',(#527,#528,#529,#530,#531,#532,#533,#534,#535,#536,
#537,#538,#539,#540,#541,#542,#543,#544,#545,#546,#547,#548,#549));
#557=CLOSED_SHELL('',(#550,#551,#552,#553,#554,#555));
#558=DERIVED_UNIT_ELEMENT(#560,1.);
#559=DERIVED_UNIT_ELEMENT(#907,-3.);
#560=(
MASS_UNIT()
NAMED_UNIT(*)
SI_UNIT(.KILO.,.GRAM.)
);
#561=DERIVED_UNIT((#558,#559));
#562=MEASURE_REPRESENTATION_ITEM('density measure',
POSITIVE_RATIO_MEASURE(7850.),#561);
#563=PROPERTY_DEFINITION_REPRESENTATION(#568,#565);
#564=PROPERTY_DEFINITION_REPRESENTATION(#569,#566);
#565=REPRESENTATION('material name',(#567),#904);
#566=REPRESENTATION('density',(#562),#904);
#567=DESCRIPTIVE_REPRESENTATION_ITEM('Acier','Acier');
#568=PROPERTY_DEFINITION('material property','material name',#914);
#569=PROPERTY_DEFINITION('material property','density of part',#914);
#570=AXIS2_PLACEMENT_3D('',#747,#606,#607);
#571=AXIS2_PLACEMENT_3D('',#748,#608,#609);
#572=AXIS2_PLACEMENT_3D('',#757,#614,#615);
#573=AXIS2_PLACEMENT_3D('',#763,#619,#620);
#574=AXIS2_PLACEMENT_3D('',#788,#633,#634);
#575=AXIS2_PLACEMENT_3D('',#789,#635,#636);
#576=AXIS2_PLACEMENT_3D('',#792,#637,#638);
#577=AXIS2_PLACEMENT_3D('',#796,#640,#641);
#578=AXIS2_PLACEMENT_3D('',#798,#643,#644);
#579=AXIS2_PLACEMENT_3D('',#804,#648,#649);
#580=AXIS2_PLACEMENT_3D('',#808,#651,#652);
#581=AXIS2_PLACEMENT_3D('',#817,#658,#659);
#582=AXIS2_PLACEMENT_3D('',#821,#661,#662);
#583=AXIS2_PLACEMENT_3D('',#823,#664,#665);
#584=AXIS2_PLACEMENT_3D('',#827,#668,#669);
#585=AXIS2_PLACEMENT_3D('',#829,#671,#672);
#586=AXIS2_PLACEMENT_3D('',#833,#675,#676);
#587=AXIS2_PLACEMENT_3D('',#838,#680,#681);
#588=AXIS2_PLACEMENT_3D('',#842,#684,#685);
#589=AXIS2_PLACEMENT_3D('',#846,#688,#689);
#590=AXIS2_PLACEMENT_3D('',#847,#690,#691);
#591=AXIS2_PLACEMENT_3D('',#849,#692,#693);
#592=AXIS2_PLACEMENT_3D('',#851,#695,#696);
#593=AXIS2_PLACEMENT_3D('',#857,#700,#701);
#594=AXIS2_PLACEMENT_3D('',#859,#703,#704);
#595=AXIS2_PLACEMENT_3D('',#863,#707,#708);
#596=AXIS2_PLACEMENT_3D('',#867,#711,#712);
#597=AXIS2_PLACEMENT_3D('',#869,#714,#715);
#598=AXIS2_PLACEMENT_3D('',#873,#718,#719);
#599=AXIS2_PLACEMENT_3D('',#875,#721,#722);
#600=AXIS2_PLACEMENT_3D('',#876,#723,#724);
#601=AXIS2_PLACEMENT_3D('',#885,#729,#730);
#602=AXIS2_PLACEMENT_3D('',#891,#734,#735);
#603=AXIS2_PLACEMENT_3D('',#897,#739,#740);
#604=AXIS2_PLACEMENT_3D('',#900,#743,#744);
#605=AXIS2_PLACEMENT_3D('',#901,#745,#746);
#606=DIRECTION('axis',(0.,0.,1.));
#607=DIRECTION('refdir',(1.,0.,0.));
#608=DIRECTION('center_axis',(0.,1.22464679914735E-16,1.));
#609=DIRECTION('ref_axis',(-1.,0.,0.));
#610=DIRECTION('',(-1.,0.,0.));
#611=DIRECTION('',(0.,1.,-1.22464679914735E-16));
#612=DIRECTION('',(1.,0.,0.));
#613=DIRECTION('',(0.,-1.,1.22464679914735E-16));
#614=DIRECTION('center_axis',(1.,0.,0.));
#615=DIRECTION('ref_axis',(0.,1.22464679914735E-16,1.));
#616=DIRECTION('',(0.,1.22464679914735E-16,1.));
#617=DIRECTION('',(0.,-1.,1.22464679914735E-16));
#618=DIRECTION('',(0.,1.22464679914735E-16,1.));
#619=DIRECTION('center_axis',(0.,-1.,1.22464679914735E-16));
#620=DIRECTION('ref_axis',(1.,0.,0.));
#621=DIRECTION('',(5.01795717344703E-16,-1.22464679914735E-16,-1.));
#622=DIRECTION('',(0.707106781186547,-8.65956056235493E-17,-0.707106781186548));
#623=DIRECTION('',(0.707106781186547,8.65956056235494E-17,0.707106781186548));
#624=DIRECTION('',(0.,1.22464679914735E-16,1.));
#625=DIRECTION('',(-1.,0.,0.));
#626=DIRECTION('',(0.,1.22464679914735E-16,1.));
#627=DIRECTION('',(1.,0.,0.));
#628=DIRECTION('',(0.,1.22464679914735E-16,1.));
#629=DIRECTION('',(-1.,0.,0.));
#630=DIRECTION('',(0.,1.22464679914735E-16,1.));
#631=DIRECTION('',(0.707106781186548,-8.65956056235493E-17,-0.707106781186547));
#632=DIRECTION('',(0.707106781186548,8.65956056235493E-17,0.707106781186547));
#633=DIRECTION('center_axis',(0.,1.,-1.22464679914735E-16));
#634=DIRECTION('ref_axis',(1.,0.,0.));
#635=DIRECTION('center_axis',(1.,0.,0.));
#636=DIRECTION('ref_axis',(0.,-0.850650808352036,0.52573111211914));
#637=DIRECTION('center_axis',(-1.,-2.11682523361863E-13,2.5923632467054E-29));
#638=DIRECTION('ref_axis',(0.,-0.850650808352036,0.52573111211914));
#639=DIRECTION('',(-1.,0.,0.));
#640=DIRECTION('center_axis',(1.,1.03620815631681E-14,-1.26898900188376E-30));
#641=DIRECTION('ref_axis',(0.,-0.850650808352036,0.52573111211914));
#642=DIRECTION('',(1.,0.,0.));
#643=DIRECTION('center_axis',(0.,0.894427190999917,0.447213595499956));
#644=DIRECTION('ref_axis',(0.,0.447213595499956,-0.894427190999917));
#645=DIRECTION('',(4.63406375272822E-15,-0.447213595499956,0.894427190999917));
#646=DIRECTION('',(-1.,0.,0.));
#647=DIRECTION('',(-9.46673023771622E-14,0.447213595499956,-0.894427190999917));
#648=DIRECTION('center_axis',(-1.,-1.03620815631681E-14,1.26898900188376E-30));
#649=DIRECTION('ref_axis',(1.03620815631681E-14,-1.,1.22464679914735E-16));
#650=DIRECTION('',(1.03620815631681E-14,-1.,1.22464679914735E-16));
#651=DIRECTION('center_axis',(1.,1.03620815631681E-14,-1.26898900188376E-30));
#652=DIRECTION('ref_axis',(0.,0.850650808352036,0.52573111211914));
#653=DIRECTION('',(4.63406375272821E-15,-0.447213595499956,-0.894427190999917));
#654=DIRECTION('',(-1.03620815631681E-14,1.,-1.22464679914735E-16));
#655=DIRECTION('',(1.03620815631681E-14,-1.,1.22464679914735E-16));
#656=DIRECTION('',(0.,1.22464679914735E-16,1.));
#657=DIRECTION('',(-1.03620815631681E-14,1.,-1.22464679914735E-16));
#658=DIRECTION('center_axis',(-1.,0.,0.));
#659=DIRECTION('ref_axis',(0.,0.850650808352036,0.52573111211914));
#660=DIRECTION('',(1.,0.,0.));
#661=DIRECTION('center_axis',(-1.,-2.11682523361863E-13,2.5923632467054E-29));
#662=DIRECTION('ref_axis',(0.,0.850650808352036,0.52573111211914));
#663=DIRECTION('',(-1.,0.,0.));
#664=DIRECTION('center_axis',(0.,-0.894427190999917,0.447213595499956));
#665=DIRECTION('ref_axis',(0.,0.447213595499956,0.894427190999917));
#666=DIRECTION('',(-9.46673023771621E-14,0.447213595499956,0.894427190999917));
#667=DIRECTION('',(-1.,0.,0.));
#668=DIRECTION('center_axis',(0.,-1.22464679914735E-16,-1.));
#669=DIRECTION('ref_axis',(0.,-1.,1.22464679914735E-16));
#670=DIRECTION('',(2.11682523361863E-13,-1.,1.22464679914735E-16));
#671=DIRECTION('center_axis',(0.,-1.22464679914735E-16,-1.));
#672=DIRECTION('ref_axis',(0.,-1.,1.22464679914735E-16));
#673=DIRECTION('',(2.11682523361863E-13,-1.,1.22464679914735E-16));
#674=DIRECTION('',(-1.,0.,0.));
#675=DIRECTION('center_axis',(1.,2.11682523361863E-13,-2.5923632467054E-29));
#676=DIRECTION('ref_axis',(-2.11682523361863E-13,1.,-1.22464679914735E-16));
#677=DIRECTION('',(0.,1.22464679914735E-16,1.));
#678=DIRECTION('',(-2.11682523361863E-13,1.,-1.22464679914735E-16));
#679=DIRECTION('',(-2.11682523361863E-13,1.,-1.22464679914735E-16));
#680=DIRECTION('center_axis',(0.,1.22464679914735E-16,1.));
#681=DIRECTION('ref_axis',(-1.,0.,0.));
#682=DIRECTION('',(0.,1.,-1.22464679914735E-16));
#683=DIRECTION('',(1.,0.,0.));
#684=DIRECTION('center_axis',(0.,1.22464679914735E-16,1.));
#685=DIRECTION('ref_axis',(-1.,0.,0.));
#686=DIRECTION('',(0.,-1.,1.22464679914735E-16));
#687=DIRECTION('',(1.,0.,0.));
#688=DIRECTION('center_axis',(0.,1.22464679914735E-16,1.));
#689=DIRECTION('ref_axis',(-1.,0.,0.));
#690=DIRECTION('center_axis',(0.,-1.,1.22464679914735E-16));
#691=DIRECTION('ref_axis',(1.,0.,0.));
#692=DIRECTION('center_axis',(0.,1.,-1.22464679914735E-16));
#693=DIRECTION('ref_axis',(1.,0.,0.));
#694=DIRECTION('',(0.,1.,-1.22464679914735E-16));
#695=DIRECTION('center_axis',(-0.707106781186548,8.65956056235493E-17,0.707106781186547));
#696=DIRECTION('ref_axis',(-0.707106781186547,-8.65956056235494E-17,-0.707106781186548));
#697=DIRECTION('',(0.,-1.,1.22464679914735E-16));
#698=DIRECTION('',(-0.707106781186547,-8.65956056235494E-17,-0.707106781186548));
#699=DIRECTION('',(0.,-1.,1.22464679914735E-16));
#700=DIRECTION('center_axis',(-1.,-6.14522519072041E-32,-5.01795717344703E-16));
#701=DIRECTION('ref_axis',(5.01795717344703E-16,-1.22464679914735E-16,-1.));
#702=DIRECTION('',(0.,-1.22464679914735E-16,-1.));
#703=DIRECTION('center_axis',(1.,0.,0.));
#704=DIRECTION('ref_axis',(0.,1.22464679914735E-16,1.));
#705=DIRECTION('',(0.,1.22464679914735E-16,1.));
#706=DIRECTION('',(0.,-1.,1.22464679914735E-16));
#707=DIRECTION('center_axis',(0.707106781186547,8.65956056235494E-17,0.707106781186548));
#708=DIRECTION('ref_axis',(-0.707106781186548,8.65956056235493E-17,0.707106781186547));
#709=DIRECTION('',(-0.707106781186548,8.65956056235493E-17,0.707106781186547));
#710=DIRECTION('',(0.,-1.,1.22464679914735E-16));
#711=DIRECTION('center_axis',(0.707106781186547,-8.65956056235494E-17,-0.707106781186548));
#712=DIRECTION('ref_axis',(0.707106781186548,8.65956056235493E-17,0.707106781186547));
#713=DIRECTION('',(0.707106781186548,8.65956056235493E-17,0.707106781186547));
#714=DIRECTION('center_axis',(-1.,-6.14522519072041E-32,-5.01795717344703E-16));
#715=DIRECTION('ref_axis',(5.01795717344703E-16,-1.22464679914735E-16,-1.));
#716=DIRECTION('',(5.01795717344703E-16,-1.22464679914735E-16,-1.));
#717=DIRECTION('',(0.,-1.,1.22464679914735E-16));
#718=DIRECTION('center_axis',(-0.707106781186548,-8.65956056235493E-17,
-0.707106781186547));
#719=DIRECTION('ref_axis',(0.707106781186547,-8.65956056235493E-17,-0.707106781186548));
#720=DIRECTION('',(0.707106781186547,-8.65956056235493E-17,-0.707106781186548));
#721=DIRECTION('center_axis',(0.,-1.,1.22464679914735E-16));
#722=DIRECTION('ref_axis',(1.,0.,0.));
#723=DIRECTION('center_axis',(-1.,0.,1.42862483768777E-15));
#724=DIRECTION('ref_axis',(1.42862483768777E-15,0.,1.));
#725=DIRECTION('',(1.42862483768777E-15,0.,1.));
#726=DIRECTION('',(0.,1.,0.));
#727=DIRECTION('',(1.42862483768777E-15,0.,1.));
#728=DIRECTION('',(0.,1.,0.));
#729=DIRECTION('center_axis',(0.,0.,-1.));
#730=DIRECTION('ref_axis',(-1.,0.,0.));
#731=DIRECTION('',(-1.,0.,0.));
#732=DIRECTION('',(-1.,0.,0.));
#733=DIRECTION('',(0.,1.,0.));
#734=DIRECTION('center_axis',(1.,0.,0.));
#735=DIRECTION('ref_axis',(0.,0.,-1.));
#736=DIRECTION('',(0.,0.,-1.));
#737=DIRECTION('',(0.,0.,-1.));
#738=DIRECTION('',(0.,1.,0.));
#739=DIRECTION('center_axis',(0.,0.,1.));
#740=DIRECTION('ref_axis',(1.,0.,0.));
#741=DIRECTION('',(1.,0.,0.));
#742=DIRECTION('',(1.,0.,0.));
#743=DIRECTION('center_axis',(0.,-1.,0.));
#744=DIRECTION('ref_axis',(1.,0.,0.));
#745=DIRECTION('center_axis',(0.,1.,0.));
#746=DIRECTION('ref_axis',(0.,0.,1.));
#747=CARTESIAN_POINT('',(0.,0.,0.));
#748=CARTESIAN_POINT('Origin',(-18.8,165.,-9.07184421726805));
#749=CARTESIAN_POINT('',(19.75,165.,-9.0718442172681));
#750=CARTESIAN_POINT('',(-18.8,165.,-9.07184421726805));
#751=CARTESIAN_POINT('',(-9.16249999999999,165.,-9.07184421726805));
#752=CARTESIAN_POINT('',(19.75,159.,-9.0718442172681));
#753=CARTESIAN_POINT('',(19.75,165.,-9.07184421726805));
#754=CARTESIAN_POINT('',(-18.8,159.,-9.07184421726805));
#755=CARTESIAN_POINT('',(-9.16249999999999,159.,-9.07184421726805));
#756=CARTESIAN_POINT('',(-18.8,165.,-9.07184421726805));
#757=CARTESIAN_POINT('Origin',(19.75,165.,-9.2218442172681));
#758=CARTESIAN_POINT('',(19.75,165.,-5.37184421726807));
#759=CARTESIAN_POINT('',(19.75,165.,-9.2218442172681));
#760=CARTESIAN_POINT('',(19.75,159.,-5.37184421726807));
#761=CARTESIAN_POINT('',(19.75,165.,-5.37184421726807));
#762=CARTESIAN_POINT('',(19.75,159.,-9.2218442172681));
#763=CARTESIAN_POINT('Origin',(0.474999999999985,165.,-0.371844217268064));
#764=CARTESIAN_POINT('',(-18.8,165.,-5.37184421726814));
#765=CARTESIAN_POINT('',(-18.8,165.,8.47815578273197));
#766=CARTESIAN_POINT('',(-23.8,165.,-0.371844217268139));
#767=CARTESIAN_POINT('',(-23.8,165.,-0.371844217268139));
#768=CARTESIAN_POINT('',(-18.8,165.,4.62815578273186));
#769=CARTESIAN_POINT('',(-23.8,165.,-0.371844217268139));
#770=CARTESIAN_POINT('',(-18.8,165.,8.92815578273197));
#771=CARTESIAN_POINT('',(-18.8,165.,4.05315578273195));
#772=CARTESIAN_POINT('',(-27.8,165.,8.9281557827319));
#773=CARTESIAN_POINT('',(0.675000000000323,165.,8.92815578273197));
#774=CARTESIAN_POINT('',(-27.8000000000348,165.,12.4781557827319));
#775=CARTESIAN_POINT('',(-27.8,165.,8.4781557827319));
#776=CARTESIAN_POINT('',(29.5499999999652,165.,12.4781557827319));
#777=CARTESIAN_POINT('',(15.0124999999826,165.,12.4781557827319));
#778=CARTESIAN_POINT('',(29.55,165.,8.9281557827319));
#779=CARTESIAN_POINT('',(29.55,165.,8.4781557827319));
#780=CARTESIAN_POINT('',(19.75,165.,8.92815578273191));
#781=CARTESIAN_POINT('',(0.675000000000323,165.,8.92815578273191));
#782=CARTESIAN_POINT('',(19.75,165.,4.62815578273193));
#783=CARTESIAN_POINT('',(19.75,165.,-9.2218442172681));
#784=CARTESIAN_POINT('',(24.75,165.,-0.37184421726807));
#785=CARTESIAN_POINT('',(19.75,165.,4.62815578273193));
#786=CARTESIAN_POINT('',(19.75,165.,-5.37184421726807));
#787=CARTESIAN_POINT('',(-2.175,165.,-0.371844217268096));
#788=CARTESIAN_POINT('Origin',(0.475000000000001,165.,-0.371844217268096));
#789=CARTESIAN_POINT('Origin',(15.2124999999829,159.809016994369,15.9781557827319));
#790=CARTESIAN_POINT('',(29.5500000000012,159.361803398869,15.7545489849819));
#791=CARTESIAN_POINT('',(29.5500000000011,159.809016994369,16.4781557827319));
#792=CARTESIAN_POINT('Origin',(29.5500000000013,159.809016994369,15.9781557827319));
#793=CARTESIAN_POINT('',(-27.7999999999999,159.809016994369,16.4781557827319));
#794=CARTESIAN_POINT('',(15.2124999999829,159.809016994369,16.4781557827319));
#795=CARTESIAN_POINT('',(-27.7999999999999,159.361803398869,15.7545489849819));
#796=CARTESIAN_POINT('Origin',(-27.8,159.809016994369,15.9781557827319));
#797=CARTESIAN_POINT('',(15.2124999999829,159.361803398869,15.7545489849819));
#798=CARTESIAN_POINT('Origin',(29.5499999999652,158.999999999994,16.4781557827319));
#799=CARTESIAN_POINT('',(-27.8000000000348,160.999999999994,12.4781557827319));
#800=CARTESIAN_POINT('',(-27.7999999999999,161.199999999994,12.0781557827308));
#801=CARTESIAN_POINT('',(29.5499999999652,160.999999999994,12.4781557827319));
#802=CARTESIAN_POINT('',(29.5499999999652,160.999999999994,12.4781557827319));
#803=CARTESIAN_POINT('',(29.550000000001,160.599999999994,13.2781557827306));
#804=CARTESIAN_POINT('Origin',(-27.8,165.,8.4781557827319));
#805=CARTESIAN_POINT('',(-27.8,164.190983005625,16.4781557827319));
#806=CARTESIAN_POINT('',(-27.7999999999999,159.,16.4781557827319));
#807=CARTESIAN_POINT('',(-27.8,164.638196601125,15.7545489849819));
#808=CARTESIAN_POINT('Origin',(-27.8,164.190983005625,15.9781557827319));
#809=CARTESIAN_POINT('',(-27.8000000000348,163.,12.4781557827319));
#810=CARTESIAN_POINT('',(-27.7999999999999,162.4,11.2781557827318));
#811=CARTESIAN_POINT('',(-27.8,165.,12.4781557827319));
#812=CARTESIAN_POINT('',(-27.7999999999999,159.,8.9281557827319));
#813=CARTESIAN_POINT('',(-27.8,163.5,8.92815578273197));
#814=CARTESIAN_POINT('',(-27.8000000000348,158.999999999994,12.4781557827319));
#815=CARTESIAN_POINT('',(-27.7999999999999,159.,8.4781557827319));
#816=CARTESIAN_POINT('',(-27.7999999999999,162.999999999997,12.4781557827319));
#817=CARTESIAN_POINT('Origin',(15.2124999999829,164.190983005625,15.9781557827319));
#818=CARTESIAN_POINT('',(29.5500000000002,164.190983005625,16.4781557827319));
#819=CARTESIAN_POINT('',(15.2124999999829,164.190983005625,16.4781557827319));
#820=CARTESIAN_POINT('',(29.5500000000001,164.638196601125,15.7545489849819));
#821=CARTESIAN_POINT('Origin',(29.5500000000013,164.190983005625,15.9781557827319));
#822=CARTESIAN_POINT('',(15.2124999999829,164.638196601125,15.7545489849819));
#823=CARTESIAN_POINT('Origin',(29.5499999999652,163.,12.4781557827319));
#824=CARTESIAN_POINT('',(29.5499999999652,163.,12.4781557827319));
#825=CARTESIAN_POINT('',(29.5500000000007,161.8,10.0781557827319));
#826=CARTESIAN_POINT('',(29.5499999999652,163.,12.4781557827319));
#827=CARTESIAN_POINT('Origin',(29.5499999999652,165.,12.4781557827319));
#828=CARTESIAN_POINT('',(29.5500000000007,162.,12.4781557827319));
#829=CARTESIAN_POINT('Origin',(29.5499999999652,160.999999999994,12.4781557827319));
#830=CARTESIAN_POINT('',(29.5499999999652,158.999999999994,12.4781557827319));
#831=CARTESIAN_POINT('',(29.5500000000011,159.999999999997,12.4781557827319));
#832=CARTESIAN_POINT('',(15.0124999999826,159.,12.4781557827319));
#833=CARTESIAN_POINT('Origin',(29.5500000000013,159.,8.4781557827319));
#834=CARTESIAN_POINT('',(29.5500000000013,159.,8.9281557827319));
#835=CARTESIAN_POINT('',(29.5500000000013,159.,8.4781557827319));
#836=CARTESIAN_POINT('',(29.550000000001,160.500000000003,8.9281557827319));
#837=CARTESIAN_POINT('',(29.55,165.,16.4781557827319));
#838=CARTESIAN_POINT('Origin',(0.875000000000661,162.,8.92815578273197));
#839=CARTESIAN_POINT('',(-18.8,159.,8.92815578273197));
#840=CARTESIAN_POINT('',(-18.8,165.,8.92815578273197));
#841=CARTESIAN_POINT('',(0.675000000000323,159.,8.92815578273197));
#842=CARTESIAN_POINT('Origin',(0.875000000000661,162.,8.92815578273191));
#843=CARTESIAN_POINT('',(19.75,159.,8.92815578273191));
#844=CARTESIAN_POINT('',(19.75,165.,8.92815578273191));
#845=CARTESIAN_POINT('',(0.675000000000323,159.,8.92815578273191));
#846=CARTESIAN_POINT('Origin',(0.875000000000661,162.,16.4781557827319));
#847=CARTESIAN_POINT('Origin',(0.475000000000001,165.,-0.371844217268096));
#848=CARTESIAN_POINT('',(-2.175,159.,-0.371844217268095));
#849=CARTESIAN_POINT('Origin',(0.475000000000001,159.,-0.371844217268095));
#850=CARTESIAN_POINT('',(-2.175,165.,-0.371844217268096));
#851=CARTESIAN_POINT('Origin',(-18.8,165.,4.62815578273186));
#852=CARTESIAN_POINT('',(-23.8,159.,-0.371844217268139));
#853=CARTESIAN_POINT('',(-23.8,165.,-0.371844217268139));
#854=CARTESIAN_POINT('',(-18.8,159.,4.62815578273186));
#855=CARTESIAN_POINT('',(-23.8,159.,-0.371844217268139));
#856=CARTESIAN_POINT('',(-18.8,165.,4.62815578273186));
#857=CARTESIAN_POINT('Origin',(-18.8,165.,8.47815578273197));
#858=CARTESIAN_POINT('',(-18.8,159.,4.05315578273196));
#859=CARTESIAN_POINT('Origin',(19.75,165.,4.62815578273193));
#860=CARTESIAN_POINT('',(19.75,159.,4.62815578273193));
#861=CARTESIAN_POINT('',(19.75,159.,-9.2218442172681));
#862=CARTESIAN_POINT('',(19.75,165.,4.62815578273193));
#863=CARTESIAN_POINT('Origin',(24.75,165.,-0.371844217268069));
#864=CARTESIAN_POINT('',(24.75,159.,-0.371844217268069));
#865=CARTESIAN_POINT('',(19.75,159.,4.62815578273193));
#866=CARTESIAN_POINT('',(24.75,165.,-0.37184421726807));
#867=CARTESIAN_POINT('Origin',(19.75,165.,-5.37184421726807));
#868=CARTESIAN_POINT('',(19.75,159.,-5.37184421726807));
#869=CARTESIAN_POINT('Origin',(-18.8,165.,-5.37184421726814));
#870=CARTESIAN_POINT('',(-18.8,159.,-5.37184421726814));
#871=CARTESIAN_POINT('',(-18.8,159.,8.47815578273197));
#872=CARTESIAN_POINT('',(-18.8,165.,-5.37184421726814));
#873=CARTESIAN_POINT('Origin',(-23.8,165.,-0.371844217268139));
#874=CARTESIAN_POINT('',(-23.8,159.,-0.371844217268139));
#875=CARTESIAN_POINT('Origin',(0.474999999999985,159.,-0.371844217268063));
#876=CARTESIAN_POINT('Origin',(-30.0000004470348,159.,14.8914920151457));
#877=CARTESIAN_POINT('',(-30.0000004470348,159.,14.8914920151457));
#878=CARTESIAN_POINT('',(-30.0000004470348,159.,18.0000002682209));
#879=CARTESIAN_POINT('',(-30.0000004470348,159.,14.8914920151457));
#880=CARTESIAN_POINT('',(-30.0000004470348,159.3,18.0000002682209));
#881=CARTESIAN_POINT('',(-30.0000004470348,159.,18.0000002682209));
#882=CARTESIAN_POINT('',(-30.0000004470348,159.3,14.8914920151457));
#883=CARTESIAN_POINT('',(-30.0000004470348,159.3,14.8914920151457));
#884=CARTESIAN_POINT('',(-30.0000004470348,159.,14.8914920151457));
#885=CARTESIAN_POINT('Origin',(31.423206339206,159.,14.8914920151457));
#886=CARTESIAN_POINT('',(31.423206339206,159.,14.8914920151457));
#887=CARTESIAN_POINT('',(31.423206339206,159.,14.8914920151457));
#888=CARTESIAN_POINT('',(31.423206339206,159.3,14.8914920151457));
#889=CARTESIAN_POINT('',(31.423206339206,159.3,14.8914920151457));
#890=CARTESIAN_POINT('',(31.423206339206,159.,14.8914920151457));
#891=CARTESIAN_POINT('Origin',(31.423206339206,159.,18.0000002682209));
#892=CARTESIAN_POINT('',(31.423206339206,159.,18.0000002682209));
#893=CARTESIAN_POINT('',(31.423206339206,159.,18.0000002682209));
#894=CARTESIAN_POINT('',(31.423206339206,159.3,18.0000002682209));
#895=CARTESIAN_POINT('',(31.423206339206,159.3,18.0000002682209));
#896=CARTESIAN_POINT('',(31.423206339206,159.,18.0000002682209));
#897=CARTESIAN_POINT('Origin',(-30.0000004470348,159.,18.0000002682209));
#898=CARTESIAN_POINT('',(-30.0000004470348,159.,18.0000002682209));
#899=CARTESIAN_POINT('',(-30.0000004470348,159.3,18.0000002682209));
#900=CARTESIAN_POINT('Origin',(0.711602946085592,159.,16.4457461416833));
#901=CARTESIAN_POINT('Origin',(0.711602946085592,159.3,16.4457461416833));
#902=UNCERTAINTY_MEASURE_WITH_UNIT(LENGTH_MEASURE(0.01),#906,
'DISTANCE_ACCURACY_VALUE',
'Maximum model space distance between geometric entities at asserted c
onnectivities');
#903=UNCERTAINTY_MEASURE_WITH_UNIT(LENGTH_MEASURE(0.01),#906,
'DISTANCE_ACCURACY_VALUE',
'Maximum model space distance between geometric entities at asserted c
onnectivities');
#904=(
GEOMETRIC_REPRESENTATION_CONTEXT(3)
GLOBAL_UNCERTAINTY_ASSIGNED_CONTEXT((#902))
GLOBAL_UNIT_ASSIGNED_CONTEXT((#906,#908,#909))
REPRESENTATION_CONTEXT('','3D')
);
#905=(
GEOMETRIC_REPRESENTATION_CONTEXT(3)
GLOBAL_UNCERTAINTY_ASSIGNED_CONTEXT((#903))
GLOBAL_UNIT_ASSIGNED_CONTEXT((#906,#908,#909))
REPRESENTATION_CONTEXT('','3D')
);
#906=(
LENGTH_UNIT()
NAMED_UNIT(*)
SI_UNIT(.MILLI.,.METRE.)
);
#907=(
LENGTH_UNIT()
NAMED_UNIT(*)
SI_UNIT($,.METRE.)
);
#908=(
NAMED_UNIT(*)
PLANE_ANGLE_UNIT()
SI_UNIT($,.RADIAN.)
);
#909=(
NAMED_UNIT(*)
SI_UNIT($,.STERADIAN.)
SOLID_ANGLE_UNIT()
);
#910=SHAPE_DEFINITION_REPRESENTATION(#911,#912);
#911=PRODUCT_DEFINITION_SHAPE('',$,#914);
#912=SHAPE_REPRESENTATION('',(#570),#904);
#913=PRODUCT_DEFINITION_CONTEXT('part definition',#918,'design');
#914=PRODUCT_DEFINITION('etau','etau v30',#915,#913);
#915=PRODUCT_DEFINITION_FORMATION('',$,#920);
#916=PRODUCT_RELATED_PRODUCT_CATEGORY('etau v30','etau v30',(#920));
#917=APPLICATION_PROTOCOL_DEFINITION('international standard',
'automotive_design',2009,#918);
#918=APPLICATION_CONTEXT(
'Core Data for Automotive Mechanical Design Process');
#919=PRODUCT_CONTEXT('part definition',#918,'mechanical');
#920=PRODUCT('etau','etau v30',$,(#919));
#921=PRESENTATION_STYLE_ASSIGNMENT((#922));
#922=SURFACE_STYLE_USAGE(.BOTH.,#923);
#923=SURFACE_SIDE_STYLE('',(#924));
#924=SURFACE_STYLE_FILL_AREA(#925);
#925=FILL_AREA_STYLE('Acier - Satin\X\E9',(#926));
#926=FILL_AREA_STYLE_COLOUR('Acier - Satin\X\E9',#927);
#927=COLOUR_RGB('Acier - Satin\X\E9',0.627450980392157,0.627450980392157,
0.627450980392157);
ENDSEC;
END-ISO-10303-21;
