ISO-10303-21;
HEADER;
/* Generated by software containing ST-Developer
 * from STEP Tools, Inc. (www.steptools.com) 
 */

FILE_DESCRIPTION(
/* description */ (''),
/* implementation_level */ '2;1');

FILE_NAME(
/* name */ 'etau_piston.step',
/* time_stamp */ '2025-10-28T09:51:33+01:00',
/* author */ (''),
/* organization */ (''),
/* preprocessor_version */ 'ST-DEVELOPER v20.1',
/* originating_system */ 'Autodesk Translation Framework v14.17.0.0',
/* authorisation */ '');

FILE_SCHEMA (('AUTOMOTIVE_DESIGN { 1 0 10303 214 3 1 1 }'));
ENDSEC;

DATA;
#10=MECHANICAL_DESIGN_GEOMETRIC_PRESENTATION_REPRESENTATION('',(#13),#1205);
#11=SHAPE_REPRESENTATION_RELATIONSHIP('SRR','None',#1212,#12);
#12=ADVANCED_BREP_SHAPE_REPRESENTATION('',(#14),#1204);
#13=STYLED_ITEM('',(#1221),#14);
#14=MANIFOLD_SOLID_BREP('Corps6',#745);
#15=CYLINDRICAL_SURFACE('',#769,0.5);
#16=CYLINDRICAL_SURFACE('',#794,1.);
#17=CYLINDRICAL_SURFACE('',#796,1.);
#18=CYLINDRICAL_SURFACE('',#798,2.5);
#19=FACE_BOUND('',#72,.T.);
#20=FACE_BOUND('',#76,.T.);
#21=FACE_BOUND('',#91,.T.);
#22=FACE_BOUND('',#99,.T.);
#23=CIRCLE('',#762,1.);
#24=CIRCLE('',#763,1.);
#25=CIRCLE('',#767,1.);
#26=CIRCLE('',#768,1.);
#27=CIRCLE('',#770,0.5);
#28=CIRCLE('',#771,0.5);
#29=CIRCLE('',#785,2.5);
#30=CIRCLE('',#793,2.5);
#31=FACE_OUTER_BOUND('',#69,.T.);
#32=FACE_OUTER_BOUND('',#70,.T.);
#33=FACE_OUTER_BOUND('',#71,.T.);
#34=FACE_OUTER_BOUND('',#73,.T.);
#35=FACE_OUTER_BOUND('',#74,.T.);
#36=FACE_OUTER_BOUND('',#75,.T.);
#37=FACE_OUTER_BOUND('',#77,.T.);
#38=FACE_OUTER_BOUND('',#78,.T.);
#39=FACE_OUTER_BOUND('',#79,.T.);
#40=FACE_OUTER_BOUND('',#80,.T.);
#41=FACE_OUTER_BOUND('',#81,.T.);
#42=FACE_OUTER_BOUND('',#82,.T.);
#43=FACE_OUTER_BOUND('',#83,.T.);
#44=FACE_OUTER_BOUND('',#84,.T.);
#45=FACE_OUTER_BOUND('',#85,.T.);
#46=FACE_OUTER_BOUND('',#86,.T.);
#47=FACE_OUTER_BOUND('',#87,.T.);
#48=FACE_OUTER_BOUND('',#88,.T.);
#49=FACE_OUTER_BOUND('',#89,.T.);
#50=FACE_OUTER_BOUND('',#90,.T.);
#51=FACE_OUTER_BOUND('',#92,.T.);
#52=FACE_OUTER_BOUND('',#93,.T.);
#53=FACE_OUTER_BOUND('',#94,.T.);
#54=FACE_OUTER_BOUND('',#95,.T.);
#55=FACE_OUTER_BOUND('',#96,.T.);
#56=FACE_OUTER_BOUND('',#97,.T.);
#57=FACE_OUTER_BOUND('',#98,.T.);
#58=FACE_OUTER_BOUND('',#100,.T.);
#59=FACE_OUTER_BOUND('',#101,.T.);
#60=FACE_OUTER_BOUND('',#102,.T.);
#61=FACE_OUTER_BOUND('',#103,.T.);
#62=FACE_OUTER_BOUND('',#104,.T.);
#63=FACE_OUTER_BOUND('',#105,.T.);
#64=FACE_OUTER_BOUND('',#106,.T.);
#65=FACE_OUTER_BOUND('',#107,.T.);
#66=FACE_OUTER_BOUND('',#108,.T.);
#67=FACE_OUTER_BOUND('',#109,.T.);
#68=FACE_OUTER_BOUND('',#110,.T.);
#69=EDGE_LOOP('',(#469,#470,#471,#472));
#70=EDGE_LOOP('',(#473,#474,#475,#476));
#71=EDGE_LOOP('',(#477,#478,#479,#480,#481,#482,#483,#484,#485,#486,#487,
#488,#489,#490,#491,#492));
#72=EDGE_LOOP('',(#493,#494,#495,#496,#497,#498));
#73=EDGE_LOOP('',(#499,#500,#501,#502));
#74=EDGE_LOOP('',(#503,#504,#505,#506));
#75=EDGE_LOOP('',(#507,#508,#509,#510,#511,#512,#513,#514,#515,#516,#517,
#518));
#76=EDGE_LOOP('',(#519,#520,#521,#522,#523,#524));
#77=EDGE_LOOP('',(#525,#526,#527,#528));
#78=EDGE_LOOP('',(#529,#530,#531,#532,#533,#534,#535));
#79=EDGE_LOOP('',(#536,#537,#538,#539));
#80=EDGE_LOOP('',(#540,#541,#542,#543));
#81=EDGE_LOOP('',(#544,#545,#546,#547,#548,#549,#550,#551));
#82=EDGE_LOOP('',(#552,#553,#554,#555,#556,#557,#558));
#83=EDGE_LOOP('',(#559,#560,#561,#562));
#84=EDGE_LOOP('',(#563,#564,#565,#566));
#85=EDGE_LOOP('',(#567,#568,#569,#570));
#86=EDGE_LOOP('',(#571,#572,#573,#574));
#87=EDGE_LOOP('',(#575,#576,#577,#578));
#88=EDGE_LOOP('',(#579,#580,#581,#582));
#89=EDGE_LOOP('',(#583,#584,#585,#586));
#90=EDGE_LOOP('',(#587,#588,#589,#590,#591,#592));
#91=EDGE_LOOP('',(#593));
#92=EDGE_LOOP('',(#594,#595,#596,#597));
#93=EDGE_LOOP('',(#598,#599,#600,#601));
#94=EDGE_LOOP('',(#602,#603,#604,#605));
#95=EDGE_LOOP('',(#606,#607,#608,#609));
#96=EDGE_LOOP('',(#610,#611,#612,#613));
#97=EDGE_LOOP('',(#614,#615,#616,#617));
#98=EDGE_LOOP('',(#618,#619,#620,#621,#622,#623));
#99=EDGE_LOOP('',(#624));
#100=EDGE_LOOP('',(#625,#626,#627,#628));
#101=EDGE_LOOP('',(#629,#630,#631,#632));
#102=EDGE_LOOP('',(#633,#634,#635,#636));
#103=EDGE_LOOP('',(#637,#638,#639,#640));
#104=EDGE_LOOP('',(#641,#642,#643,#644));
#105=EDGE_LOOP('',(#645,#646,#647,#648));
#106=EDGE_LOOP('',(#649,#650,#651,#652));
#107=EDGE_LOOP('',(#653,#654,#655,#656,#657,#658));
#108=EDGE_LOOP('',(#659,#660,#661,#662));
#109=EDGE_LOOP('',(#663,#664,#665,#666,#667,#668));
#110=EDGE_LOOP('',(#669,#670,#671,#672));
#111=LINE('',#997,#205);
#112=LINE('',#999,#206);
#113=LINE('',#1001,#207);
#114=LINE('',#1002,#208);
#115=LINE('',#1006,#209);
#116=LINE('',#1008,#210);
#117=LINE('',#1010,#211);
#118=LINE('',#1011,#212);
#119=LINE('',#1014,#213);
#120=LINE('',#1016,#214);
#121=LINE('',#1018,#215);
#122=LINE('',#1019,#216);
#123=LINE('',#1021,#217);
#124=LINE('',#1023,#218);
#125=LINE('',#1027,#219);
#126=LINE('',#1029,#220);
#127=LINE('',#1031,#221);
#128=LINE('',#1033,#222);
#129=LINE('',#1035,#223);
#130=LINE('',#1038,#224);
#131=LINE('',#1041,#225);
#132=LINE('',#1043,#226);
#133=LINE('',#1045,#227);
#134=LINE('',#1047,#228);
#135=LINE('',#1049,#229);
#136=LINE('',#1050,#230);
#137=LINE('',#1054,#231);
#138=LINE('',#1055,#232);
#139=LINE('',#1056,#233);
#140=LINE('',#1059,#234);
#141=LINE('',#1060,#235);
#142=LINE('',#1063,#236);
#143=LINE('',#1065,#237);
#144=LINE('',#1069,#238);
#145=LINE('',#1071,#239);
#146=LINE('',#1073,#240);
#147=LINE('',#1075,#241);
#148=LINE('',#1077,#242);
#149=LINE('',#1080,#243);
#150=LINE('',#1083,#244);
#151=LINE('',#1085,#245);
#152=LINE('',#1087,#246);
#153=LINE('',#1089,#247);
#154=LINE('',#1091,#248);
#155=LINE('',#1092,#249);
#156=LINE('',#1098,#250);
#157=LINE('',#1101,#251);
#158=LINE('',#1104,#252);
#159=LINE('',#1105,#253);
#160=LINE('',#1107,#254);
#161=LINE('',#1108,#255);
#162=LINE('',#1111,#256);
#163=LINE('',#1112,#257);
#164=LINE('',#1114,#258);
#165=LINE('',#1117,#259);
#166=LINE('',#1119,#260);
#167=LINE('',#1120,#261);
#168=LINE('',#1122,#262);
#169=LINE('',#1123,#263);
#170=LINE('',#1125,#264);
#171=LINE('',#1129,#265);
#172=LINE('',#1131,#266);
#173=LINE('',#1132,#267);
#174=LINE('',#1135,#268);
#175=LINE('',#1136,#269);
#176=LINE('',#1139,#270);
#177=LINE('',#1140,#271);
#178=LINE('',#1143,#272);
#179=LINE('',#1144,#273);
#180=LINE('',#1147,#274);
#181=LINE('',#1148,#275);
#182=LINE('',#1150,#276);
#183=LINE('',#1156,#277);
#184=LINE('',#1158,#278);
#185=LINE('',#1159,#279);
#186=LINE('',#1162,#280);
#187=LINE('',#1163,#281);
#188=LINE('',#1166,#282);
#189=LINE('',#1167,#283);
#190=LINE('',#1170,#284);
#191=LINE('',#1171,#285);
#192=LINE('',#1174,#286);
#193=LINE('',#1175,#287);
#194=LINE('',#1177,#288);
#195=LINE('',#1182,#289);
#196=LINE('',#1183,#290);
#197=LINE('',#1185,#291);
#198=LINE('',#1187,#292);
#199=LINE('',#1188,#293);
#200=LINE('',#1190,#294);
#201=LINE('',#1192,#295);
#202=LINE('',#1194,#296);
#203=LINE('',#1197,#297);
#204=LINE('',#1199,#298);
#205=VECTOR('',#809,10.);
#206=VECTOR('',#810,10.);
#207=VECTOR('',#811,10.);
#208=VECTOR('',#812,10.);
#209=VECTOR('',#815,10.);
#210=VECTOR('',#816,10.);
#211=VECTOR('',#817,10.);
#212=VECTOR('',#818,10.);
#213=VECTOR('',#821,10.);
#214=VECTOR('',#822,10.);
#215=VECTOR('',#823,10.);
#216=VECTOR('',#824,10.);
#217=VECTOR('',#825,10.);
#218=VECTOR('',#826,10.);
#219=VECTOR('',#829,10.);
#220=VECTOR('',#830,10.);
#221=VECTOR('',#831,10.);
#222=VECTOR('',#832,10.);
#223=VECTOR('',#833,10.);
#224=VECTOR('',#836,10.);
#225=VECTOR('',#837,10.);
#226=VECTOR('',#838,10.);
#227=VECTOR('',#839,10.);
#228=VECTOR('',#840,10.);
#229=VECTOR('',#841,10.);
#230=VECTOR('',#842,10.);
#231=VECTOR('',#845,10.);
#232=VECTOR('',#846,10.);
#233=VECTOR('',#847,10.);
#234=VECTOR('',#850,10.);
#235=VECTOR('',#851,10.);
#236=VECTOR('',#854,10.);
#237=VECTOR('',#855,10.);
#238=VECTOR('',#858,10.);
#239=VECTOR('',#859,10.);
#240=VECTOR('',#860,10.);
#241=VECTOR('',#861,10.);
#242=VECTOR('',#862,10.);
#243=VECTOR('',#865,10.);
#244=VECTOR('',#866,10.);
#245=VECTOR('',#867,10.);
#246=VECTOR('',#868,10.);
#247=VECTOR('',#869,10.);
#248=VECTOR('',#870,10.);
#249=VECTOR('',#871,10.);
#250=VECTOR('',#876,10.);
#251=VECTOR('',#879,10.);
#252=VECTOR('',#882,10.);
#253=VECTOR('',#883,10.);
#254=VECTOR('',#884,10.);
#255=VECTOR('',#885,10.);
#256=VECTOR('',#888,10.);
#257=VECTOR('',#889,10.);
#258=VECTOR('',#892,10.);
#259=VECTOR('',#895,10.);
#260=VECTOR('',#896,10.);
#261=VECTOR('',#897,10.);
#262=VECTOR('',#898,10.);
#263=VECTOR('',#899,10.);
#264=VECTOR('',#902,10.);
#265=VECTOR('',#907,10.);
#266=VECTOR('',#908,10.);
#267=VECTOR('',#909,10.);
#268=VECTOR('',#912,10.);
#269=VECTOR('',#913,10.);
#270=VECTOR('',#916,10.);
#271=VECTOR('',#917,10.);
#272=VECTOR('',#920,10.);
#273=VECTOR('',#921,10.);
#274=VECTOR('',#924,10.);
#275=VECTOR('',#925,10.);
#276=VECTOR('',#928,10.);
#277=VECTOR('',#935,10.);
#278=VECTOR('',#936,10.);
#279=VECTOR('',#937,10.);
#280=VECTOR('',#940,10.);
#281=VECTOR('',#941,10.);
#282=VECTOR('',#944,10.);
#283=VECTOR('',#945,10.);
#284=VECTOR('',#948,10.);
#285=VECTOR('',#949,10.);
#286=VECTOR('',#952,10.);
#287=VECTOR('',#953,10.);
#288=VECTOR('',#956,10.);
#289=VECTOR('',#963,10.);
#290=VECTOR('',#964,10.);
#291=VECTOR('',#967,10.);
#292=VECTOR('',#970,10.);
#293=VECTOR('',#971,10.);
#294=VECTOR('',#974,10.);
#295=VECTOR('',#977,2.5);
#296=VECTOR('',#980,10.);
#297=VECTOR('',#985,10.);
#298=VECTOR('',#988,10.);
#299=VERTEX_POINT('',#995);
#300=VERTEX_POINT('',#996);
#301=VERTEX_POINT('',#998);
#302=VERTEX_POINT('',#1000);
#303=VERTEX_POINT('',#1004);
#304=VERTEX_POINT('',#1005);
#305=VERTEX_POINT('',#1007);
#306=VERTEX_POINT('',#1009);
#307=VERTEX_POINT('',#1013);
#308=VERTEX_POINT('',#1015);
#309=VERTEX_POINT('',#1017);
#310=VERTEX_POINT('',#1020);
#311=VERTEX_POINT('',#1022);
#312=VERTEX_POINT('',#1024);
#313=VERTEX_POINT('',#1026);
#314=VERTEX_POINT('',#1028);
#315=VERTEX_POINT('',#1030);
#316=VERTEX_POINT('',#1032);
#317=VERTEX_POINT('',#1034);
#318=VERTEX_POINT('',#1036);
#319=VERTEX_POINT('',#1039);
#320=VERTEX_POINT('',#1040);
#321=VERTEX_POINT('',#1042);
#322=VERTEX_POINT('',#1044);
#323=VERTEX_POINT('',#1046);
#324=VERTEX_POINT('',#1048);
#325=VERTEX_POINT('',#1052);
#326=VERTEX_POINT('',#1053);
#327=VERTEX_POINT('',#1058);
#328=VERTEX_POINT('',#1062);
#329=VERTEX_POINT('',#1064);
#330=VERTEX_POINT('',#1066);
#331=VERTEX_POINT('',#1068);
#332=VERTEX_POINT('',#1070);
#333=VERTEX_POINT('',#1072);
#334=VERTEX_POINT('',#1074);
#335=VERTEX_POINT('',#1076);
#336=VERTEX_POINT('',#1078);
#337=VERTEX_POINT('',#1081);
#338=VERTEX_POINT('',#1082);
#339=VERTEX_POINT('',#1084);
#340=VERTEX_POINT('',#1086);
#341=VERTEX_POINT('',#1088);
#342=VERTEX_POINT('',#1090);
#343=VERTEX_POINT('',#1094);
#344=VERTEX_POINT('',#1095);
#345=VERTEX_POINT('',#1097);
#346=VERTEX_POINT('',#1099);
#347=VERTEX_POINT('',#1103);
#348=VERTEX_POINT('',#1106);
#349=VERTEX_POINT('',#1110);
#350=VERTEX_POINT('',#1116);
#351=VERTEX_POINT('',#1118);
#352=VERTEX_POINT('',#1121);
#353=VERTEX_POINT('',#1128);
#354=VERTEX_POINT('',#1130);
#355=VERTEX_POINT('',#1134);
#356=VERTEX_POINT('',#1138);
#357=VERTEX_POINT('',#1142);
#358=VERTEX_POINT('',#1146);
#359=VERTEX_POINT('',#1152);
#360=VERTEX_POINT('',#1155);
#361=VERTEX_POINT('',#1157);
#362=VERTEX_POINT('',#1161);
#363=VERTEX_POINT('',#1165);
#364=VERTEX_POINT('',#1169);
#365=VERTEX_POINT('',#1173);
#366=VERTEX_POINT('',#1179);
#367=EDGE_CURVE('',#299,#300,#111,.T.);
#368=EDGE_CURVE('',#301,#299,#112,.T.);
#369=EDGE_CURVE('',#302,#301,#113,.T.);
#370=EDGE_CURVE('',#300,#302,#114,.T.);
#371=EDGE_CURVE('',#303,#304,#115,.T.);
#372=EDGE_CURVE('',#305,#303,#116,.T.);
#373=EDGE_CURVE('',#306,#305,#117,.T.);
#374=EDGE_CURVE('',#304,#306,#118,.T.);
#375=EDGE_CURVE('',#307,#302,#119,.T.);
#376=EDGE_CURVE('',#301,#308,#120,.T.);
#377=EDGE_CURVE('',#308,#309,#121,.T.);
#378=EDGE_CURVE('',#306,#309,#122,.T.);
#379=EDGE_CURVE('',#305,#310,#123,.T.);
#380=EDGE_CURVE('',#310,#311,#124,.T.);
#381=EDGE_CURVE('',#312,#311,#23,.T.);
#382=EDGE_CURVE('',#312,#313,#125,.T.);
#383=EDGE_CURVE('',#313,#314,#126,.T.);
#384=EDGE_CURVE('',#314,#315,#127,.T.);
#385=EDGE_CURVE('',#315,#316,#128,.T.);
#386=EDGE_CURVE('',#316,#317,#129,.T.);
#387=EDGE_CURVE('',#318,#317,#24,.T.);
#388=EDGE_CURVE('',#318,#307,#130,.T.);
#389=EDGE_CURVE('',#319,#320,#131,.T.);
#390=EDGE_CURVE('',#320,#321,#132,.T.);
#391=EDGE_CURVE('',#321,#322,#133,.T.);
#392=EDGE_CURVE('',#322,#323,#134,.T.);
#393=EDGE_CURVE('',#323,#324,#135,.T.);
#394=EDGE_CURVE('',#324,#319,#136,.T.);
#395=EDGE_CURVE('',#325,#326,#137,.T.);
#396=EDGE_CURVE('',#315,#325,#138,.T.);
#397=EDGE_CURVE('',#326,#314,#139,.T.);
#398=EDGE_CURVE('',#325,#327,#140,.T.);
#399=EDGE_CURVE('',#327,#316,#141,.T.);
#400=EDGE_CURVE('',#328,#326,#142,.T.);
#401=EDGE_CURVE('',#328,#329,#143,.T.);
#402=EDGE_CURVE('',#330,#329,#25,.T.);
#403=EDGE_CURVE('',#331,#330,#144,.T.);
#404=EDGE_CURVE('',#332,#331,#145,.T.);
#405=EDGE_CURVE('',#333,#332,#146,.T.);
#406=EDGE_CURVE('',#334,#333,#147,.T.);
#407=EDGE_CURVE('',#335,#334,#148,.T.);
#408=EDGE_CURVE('',#336,#335,#26,.T.);
#409=EDGE_CURVE('',#336,#327,#149,.T.);
#410=EDGE_CURVE('',#337,#338,#150,.T.);
#411=EDGE_CURVE('',#338,#339,#151,.T.);
#412=EDGE_CURVE('',#339,#340,#152,.T.);
#413=EDGE_CURVE('',#340,#341,#153,.T.);
#414=EDGE_CURVE('',#341,#342,#154,.T.);
#415=EDGE_CURVE('',#342,#337,#155,.T.);
#416=EDGE_CURVE('',#343,#344,#27,.T.);
#417=EDGE_CURVE('',#344,#345,#156,.T.);
#418=EDGE_CURVE('',#345,#346,#28,.T.);
#419=EDGE_CURVE('',#346,#343,#157,.T.);
#420=EDGE_CURVE('',#299,#347,#158,.T.);
#421=EDGE_CURVE('',#344,#347,#159,.T.);
#422=EDGE_CURVE('',#343,#348,#160,.T.);
#423=EDGE_CURVE('',#348,#308,#161,.T.);
#424=EDGE_CURVE('',#349,#346,#162,.T.);
#425=EDGE_CURVE('',#348,#349,#163,.T.);
#426=EDGE_CURVE('',#309,#349,#164,.T.);
#427=EDGE_CURVE('',#300,#350,#165,.T.);
#428=EDGE_CURVE('',#351,#350,#166,.T.);
#429=EDGE_CURVE('',#351,#303,#167,.T.);
#430=EDGE_CURVE('',#352,#304,#168,.T.);
#431=EDGE_CURVE('',#347,#352,#169,.T.);
#432=EDGE_CURVE('',#352,#345,#170,.T.);
#433=EDGE_CURVE('',#319,#353,#171,.T.);
#434=EDGE_CURVE('',#353,#354,#172,.T.);
#435=EDGE_CURVE('',#320,#354,#173,.T.);
#436=EDGE_CURVE('',#324,#355,#174,.T.);
#437=EDGE_CURVE('',#355,#353,#175,.T.);
#438=EDGE_CURVE('',#323,#356,#176,.T.);
#439=EDGE_CURVE('',#356,#355,#177,.T.);
#440=EDGE_CURVE('',#322,#357,#178,.T.);
#441=EDGE_CURVE('',#357,#356,#179,.T.);
#442=EDGE_CURVE('',#321,#358,#180,.T.);
#443=EDGE_CURVE('',#358,#357,#181,.T.);
#444=EDGE_CURVE('',#354,#358,#182,.T.);
#445=EDGE_CURVE('',#359,#359,#29,.T.);
#446=EDGE_CURVE('',#337,#360,#183,.T.);
#447=EDGE_CURVE('',#360,#361,#184,.T.);
#448=EDGE_CURVE('',#338,#361,#185,.T.);
#449=EDGE_CURVE('',#342,#362,#186,.T.);
#450=EDGE_CURVE('',#362,#360,#187,.T.);
#451=EDGE_CURVE('',#341,#363,#188,.T.);
#452=EDGE_CURVE('',#363,#362,#189,.T.);
#453=EDGE_CURVE('',#340,#364,#190,.T.);
#454=EDGE_CURVE('',#364,#363,#191,.T.);
#455=EDGE_CURVE('',#339,#365,#192,.T.);
#456=EDGE_CURVE('',#365,#364,#193,.T.);
#457=EDGE_CURVE('',#361,#365,#194,.T.);
#458=EDGE_CURVE('',#366,#366,#30,.T.);
#459=EDGE_CURVE('',#317,#336,#195,.T.);
#460=EDGE_CURVE('',#335,#318,#196,.T.);
#461=EDGE_CURVE('',#334,#307,#197,.T.);
#462=EDGE_CURVE('',#311,#330,#198,.T.);
#463=EDGE_CURVE('',#329,#312,#199,.T.);
#464=EDGE_CURVE('',#331,#310,#200,.T.);
#465=EDGE_CURVE('',#359,#366,#201,.T.);
#466=EDGE_CURVE('',#328,#313,#202,.T.);
#467=EDGE_CURVE('',#332,#351,#203,.T.);
#468=EDGE_CURVE('',#333,#350,#204,.T.);
#469=ORIENTED_EDGE('',*,*,#367,.F.);
#470=ORIENTED_EDGE('',*,*,#368,.F.);
#471=ORIENTED_EDGE('',*,*,#369,.F.);
#472=ORIENTED_EDGE('',*,*,#370,.F.);
#473=ORIENTED_EDGE('',*,*,#371,.F.);
#474=ORIENTED_EDGE('',*,*,#372,.F.);
#475=ORIENTED_EDGE('',*,*,#373,.F.);
#476=ORIENTED_EDGE('',*,*,#374,.F.);
#477=ORIENTED_EDGE('',*,*,#375,.T.);
#478=ORIENTED_EDGE('',*,*,#369,.T.);
#479=ORIENTED_EDGE('',*,*,#376,.T.);
#480=ORIENTED_EDGE('',*,*,#377,.T.);
#481=ORIENTED_EDGE('',*,*,#378,.F.);
#482=ORIENTED_EDGE('',*,*,#373,.T.);
#483=ORIENTED_EDGE('',*,*,#379,.T.);
#484=ORIENTED_EDGE('',*,*,#380,.T.);
#485=ORIENTED_EDGE('',*,*,#381,.F.);
#486=ORIENTED_EDGE('',*,*,#382,.T.);
#487=ORIENTED_EDGE('',*,*,#383,.T.);
#488=ORIENTED_EDGE('',*,*,#384,.T.);
#489=ORIENTED_EDGE('',*,*,#385,.T.);
#490=ORIENTED_EDGE('',*,*,#386,.T.);
#491=ORIENTED_EDGE('',*,*,#387,.F.);
#492=ORIENTED_EDGE('',*,*,#388,.T.);
#493=ORIENTED_EDGE('',*,*,#389,.T.);
#494=ORIENTED_EDGE('',*,*,#390,.T.);
#495=ORIENTED_EDGE('',*,*,#391,.T.);
#496=ORIENTED_EDGE('',*,*,#392,.T.);
#497=ORIENTED_EDGE('',*,*,#393,.T.);
#498=ORIENTED_EDGE('',*,*,#394,.T.);
#499=ORIENTED_EDGE('',*,*,#395,.F.);
#500=ORIENTED_EDGE('',*,*,#396,.F.);
#501=ORIENTED_EDGE('',*,*,#384,.F.);
#502=ORIENTED_EDGE('',*,*,#397,.F.);
#503=ORIENTED_EDGE('',*,*,#396,.T.);
#504=ORIENTED_EDGE('',*,*,#398,.T.);
#505=ORIENTED_EDGE('',*,*,#399,.T.);
#506=ORIENTED_EDGE('',*,*,#385,.F.);
#507=ORIENTED_EDGE('',*,*,#395,.T.);
#508=ORIENTED_EDGE('',*,*,#400,.F.);
#509=ORIENTED_EDGE('',*,*,#401,.T.);
#510=ORIENTED_EDGE('',*,*,#402,.F.);
#511=ORIENTED_EDGE('',*,*,#403,.F.);
#512=ORIENTED_EDGE('',*,*,#404,.F.);
#513=ORIENTED_EDGE('',*,*,#405,.F.);
#514=ORIENTED_EDGE('',*,*,#406,.F.);
#515=ORIENTED_EDGE('',*,*,#407,.F.);
#516=ORIENTED_EDGE('',*,*,#408,.F.);
#517=ORIENTED_EDGE('',*,*,#409,.T.);
#518=ORIENTED_EDGE('',*,*,#398,.F.);
#519=ORIENTED_EDGE('',*,*,#410,.T.);
#520=ORIENTED_EDGE('',*,*,#411,.T.);
#521=ORIENTED_EDGE('',*,*,#412,.T.);
#522=ORIENTED_EDGE('',*,*,#413,.T.);
#523=ORIENTED_EDGE('',*,*,#414,.T.);
#524=ORIENTED_EDGE('',*,*,#415,.T.);
#525=ORIENTED_EDGE('',*,*,#416,.T.);
#526=ORIENTED_EDGE('',*,*,#417,.T.);
#527=ORIENTED_EDGE('',*,*,#418,.T.);
#528=ORIENTED_EDGE('',*,*,#419,.T.);
#529=ORIENTED_EDGE('',*,*,#368,.T.);
#530=ORIENTED_EDGE('',*,*,#420,.T.);
#531=ORIENTED_EDGE('',*,*,#421,.F.);
#532=ORIENTED_EDGE('',*,*,#416,.F.);
#533=ORIENTED_EDGE('',*,*,#422,.T.);
#534=ORIENTED_EDGE('',*,*,#423,.T.);
#535=ORIENTED_EDGE('',*,*,#376,.F.);
#536=ORIENTED_EDGE('',*,*,#419,.F.);
#537=ORIENTED_EDGE('',*,*,#424,.F.);
#538=ORIENTED_EDGE('',*,*,#425,.F.);
#539=ORIENTED_EDGE('',*,*,#422,.F.);
#540=ORIENTED_EDGE('',*,*,#423,.F.);
#541=ORIENTED_EDGE('',*,*,#425,.T.);
#542=ORIENTED_EDGE('',*,*,#426,.F.);
#543=ORIENTED_EDGE('',*,*,#377,.F.);
#544=ORIENTED_EDGE('',*,*,#427,.T.);
#545=ORIENTED_EDGE('',*,*,#428,.F.);
#546=ORIENTED_EDGE('',*,*,#429,.T.);
#547=ORIENTED_EDGE('',*,*,#371,.T.);
#548=ORIENTED_EDGE('',*,*,#430,.F.);
#549=ORIENTED_EDGE('',*,*,#431,.F.);
#550=ORIENTED_EDGE('',*,*,#420,.F.);
#551=ORIENTED_EDGE('',*,*,#367,.T.);
#552=ORIENTED_EDGE('',*,*,#374,.T.);
#553=ORIENTED_EDGE('',*,*,#378,.T.);
#554=ORIENTED_EDGE('',*,*,#426,.T.);
#555=ORIENTED_EDGE('',*,*,#424,.T.);
#556=ORIENTED_EDGE('',*,*,#418,.F.);
#557=ORIENTED_EDGE('',*,*,#432,.F.);
#558=ORIENTED_EDGE('',*,*,#430,.T.);
#559=ORIENTED_EDGE('',*,*,#417,.F.);
#560=ORIENTED_EDGE('',*,*,#421,.T.);
#561=ORIENTED_EDGE('',*,*,#431,.T.);
#562=ORIENTED_EDGE('',*,*,#432,.T.);
#563=ORIENTED_EDGE('',*,*,#389,.F.);
#564=ORIENTED_EDGE('',*,*,#433,.T.);
#565=ORIENTED_EDGE('',*,*,#434,.T.);
#566=ORIENTED_EDGE('',*,*,#435,.F.);
#567=ORIENTED_EDGE('',*,*,#394,.F.);
#568=ORIENTED_EDGE('',*,*,#436,.T.);
#569=ORIENTED_EDGE('',*,*,#437,.T.);
#570=ORIENTED_EDGE('',*,*,#433,.F.);
#571=ORIENTED_EDGE('',*,*,#393,.F.);
#572=ORIENTED_EDGE('',*,*,#438,.T.);
#573=ORIENTED_EDGE('',*,*,#439,.T.);
#574=ORIENTED_EDGE('',*,*,#436,.F.);
#575=ORIENTED_EDGE('',*,*,#392,.F.);
#576=ORIENTED_EDGE('',*,*,#440,.T.);
#577=ORIENTED_EDGE('',*,*,#441,.T.);
#578=ORIENTED_EDGE('',*,*,#438,.F.);
#579=ORIENTED_EDGE('',*,*,#391,.F.);
#580=ORIENTED_EDGE('',*,*,#442,.T.);
#581=ORIENTED_EDGE('',*,*,#443,.T.);
#582=ORIENTED_EDGE('',*,*,#440,.F.);
#583=ORIENTED_EDGE('',*,*,#390,.F.);
#584=ORIENTED_EDGE('',*,*,#435,.T.);
#585=ORIENTED_EDGE('',*,*,#444,.T.);
#586=ORIENTED_EDGE('',*,*,#442,.F.);
#587=ORIENTED_EDGE('',*,*,#444,.F.);
#588=ORIENTED_EDGE('',*,*,#434,.F.);
#589=ORIENTED_EDGE('',*,*,#437,.F.);
#590=ORIENTED_EDGE('',*,*,#439,.F.);
#591=ORIENTED_EDGE('',*,*,#441,.F.);
#592=ORIENTED_EDGE('',*,*,#443,.F.);
#593=ORIENTED_EDGE('',*,*,#445,.F.);
#594=ORIENTED_EDGE('',*,*,#410,.F.);
#595=ORIENTED_EDGE('',*,*,#446,.T.);
#596=ORIENTED_EDGE('',*,*,#447,.T.);
#597=ORIENTED_EDGE('',*,*,#448,.F.);
#598=ORIENTED_EDGE('',*,*,#415,.F.);
#599=ORIENTED_EDGE('',*,*,#449,.T.);
#600=ORIENTED_EDGE('',*,*,#450,.T.);
#601=ORIENTED_EDGE('',*,*,#446,.F.);
#602=ORIENTED_EDGE('',*,*,#414,.F.);
#603=ORIENTED_EDGE('',*,*,#451,.T.);
#604=ORIENTED_EDGE('',*,*,#452,.T.);
#605=ORIENTED_EDGE('',*,*,#449,.F.);
#606=ORIENTED_EDGE('',*,*,#413,.F.);
#607=ORIENTED_EDGE('',*,*,#453,.T.);
#608=ORIENTED_EDGE('',*,*,#454,.T.);
#609=ORIENTED_EDGE('',*,*,#451,.F.);
#610=ORIENTED_EDGE('',*,*,#412,.F.);
#611=ORIENTED_EDGE('',*,*,#455,.T.);
#612=ORIENTED_EDGE('',*,*,#456,.T.);
#613=ORIENTED_EDGE('',*,*,#453,.F.);
#614=ORIENTED_EDGE('',*,*,#411,.F.);
#615=ORIENTED_EDGE('',*,*,#448,.T.);
#616=ORIENTED_EDGE('',*,*,#457,.T.);
#617=ORIENTED_EDGE('',*,*,#455,.F.);
#618=ORIENTED_EDGE('',*,*,#457,.F.);
#619=ORIENTED_EDGE('',*,*,#447,.F.);
#620=ORIENTED_EDGE('',*,*,#450,.F.);
#621=ORIENTED_EDGE('',*,*,#452,.F.);
#622=ORIENTED_EDGE('',*,*,#454,.F.);
#623=ORIENTED_EDGE('',*,*,#456,.F.);
#624=ORIENTED_EDGE('',*,*,#458,.F.);
#625=ORIENTED_EDGE('',*,*,#387,.T.);
#626=ORIENTED_EDGE('',*,*,#459,.T.);
#627=ORIENTED_EDGE('',*,*,#408,.T.);
#628=ORIENTED_EDGE('',*,*,#460,.T.);
#629=ORIENTED_EDGE('',*,*,#460,.F.);
#630=ORIENTED_EDGE('',*,*,#407,.T.);
#631=ORIENTED_EDGE('',*,*,#461,.T.);
#632=ORIENTED_EDGE('',*,*,#388,.F.);
#633=ORIENTED_EDGE('',*,*,#381,.T.);
#634=ORIENTED_EDGE('',*,*,#462,.T.);
#635=ORIENTED_EDGE('',*,*,#402,.T.);
#636=ORIENTED_EDGE('',*,*,#463,.T.);
#637=ORIENTED_EDGE('',*,*,#462,.F.);
#638=ORIENTED_EDGE('',*,*,#380,.F.);
#639=ORIENTED_EDGE('',*,*,#464,.F.);
#640=ORIENTED_EDGE('',*,*,#403,.T.);
#641=ORIENTED_EDGE('',*,*,#445,.T.);
#642=ORIENTED_EDGE('',*,*,#465,.T.);
#643=ORIENTED_EDGE('',*,*,#458,.T.);
#644=ORIENTED_EDGE('',*,*,#465,.F.);
#645=ORIENTED_EDGE('',*,*,#397,.T.);
#646=ORIENTED_EDGE('',*,*,#383,.F.);
#647=ORIENTED_EDGE('',*,*,#466,.F.);
#648=ORIENTED_EDGE('',*,*,#400,.T.);
#649=ORIENTED_EDGE('',*,*,#463,.F.);
#650=ORIENTED_EDGE('',*,*,#401,.F.);
#651=ORIENTED_EDGE('',*,*,#466,.T.);
#652=ORIENTED_EDGE('',*,*,#382,.F.);
#653=ORIENTED_EDGE('',*,*,#404,.T.);
#654=ORIENTED_EDGE('',*,*,#464,.T.);
#655=ORIENTED_EDGE('',*,*,#379,.F.);
#656=ORIENTED_EDGE('',*,*,#372,.T.);
#657=ORIENTED_EDGE('',*,*,#429,.F.);
#658=ORIENTED_EDGE('',*,*,#467,.F.);
#659=ORIENTED_EDGE('',*,*,#428,.T.);
#660=ORIENTED_EDGE('',*,*,#468,.F.);
#661=ORIENTED_EDGE('',*,*,#405,.T.);
#662=ORIENTED_EDGE('',*,*,#467,.T.);
#663=ORIENTED_EDGE('',*,*,#406,.T.);
#664=ORIENTED_EDGE('',*,*,#468,.T.);
#665=ORIENTED_EDGE('',*,*,#427,.F.);
#666=ORIENTED_EDGE('',*,*,#370,.T.);
#667=ORIENTED_EDGE('',*,*,#375,.F.);
#668=ORIENTED_EDGE('',*,*,#461,.F.);
#669=ORIENTED_EDGE('',*,*,#459,.F.);
#670=ORIENTED_EDGE('',*,*,#386,.F.);
#671=ORIENTED_EDGE('',*,*,#399,.F.);
#672=ORIENTED_EDGE('',*,*,#409,.F.);
#673=PLANE('',#759);
#674=PLANE('',#760);
#675=PLANE('',#761);
#676=PLANE('',#764);
#677=PLANE('',#765);
#678=PLANE('',#766);
#679=PLANE('',#772);
#680=PLANE('',#773);
#681=PLANE('',#774);
#682=PLANE('',#775);
#683=PLANE('',#776);
#684=PLANE('',#777);
#685=PLANE('',#778);
#686=PLANE('',#779);
#687=PLANE('',#780);
#688=PLANE('',#781);
#689=PLANE('',#782);
#690=PLANE('',#783);
#691=PLANE('',#784);
#692=PLANE('',#786);
#693=PLANE('',#787);
#694=PLANE('',#788);
#695=PLANE('',#789);
#696=PLANE('',#790);
#697=PLANE('',#791);
#698=PLANE('',#792);
#699=PLANE('',#795);
#700=PLANE('',#797);
#701=PLANE('',#799);
#702=PLANE('',#800);
#703=PLANE('',#801);
#704=PLANE('',#802);
#705=PLANE('',#803);
#706=PLANE('',#804);
#707=ADVANCED_FACE('',(#31),#673,.F.);
#708=ADVANCED_FACE('',(#32),#674,.F.);
#709=ADVANCED_FACE('',(#33,#19),#675,.T.);
#710=ADVANCED_FACE('',(#34),#676,.F.);
#711=ADVANCED_FACE('',(#35),#677,.T.);
#712=ADVANCED_FACE('',(#36,#20),#678,.F.);
#713=ADVANCED_FACE('',(#37),#15,.T.);
#714=ADVANCED_FACE('',(#38),#679,.T.);
#715=ADVANCED_FACE('',(#39),#680,.F.);
#716=ADVANCED_FACE('',(#40),#681,.F.);
#717=ADVANCED_FACE('',(#41),#682,.F.);
#718=ADVANCED_FACE('',(#42),#683,.T.);
#719=ADVANCED_FACE('',(#43),#684,.T.);
#720=ADVANCED_FACE('',(#44),#685,.F.);
#721=ADVANCED_FACE('',(#45),#686,.F.);
#722=ADVANCED_FACE('',(#46),#687,.F.);
#723=ADVANCED_FACE('',(#47),#688,.F.);
#724=ADVANCED_FACE('',(#48),#689,.F.);
#725=ADVANCED_FACE('',(#49),#690,.F.);
#726=ADVANCED_FACE('',(#50,#21),#691,.T.);
#727=ADVANCED_FACE('',(#51),#692,.F.);
#728=ADVANCED_FACE('',(#52),#693,.F.);
#729=ADVANCED_FACE('',(#53),#694,.F.);
#730=ADVANCED_FACE('',(#54),#695,.F.);
#731=ADVANCED_FACE('',(#55),#696,.F.);
#732=ADVANCED_FACE('',(#56),#697,.F.);
#733=ADVANCED_FACE('',(#57,#22),#698,.F.);
#734=ADVANCED_FACE('',(#58),#16,.T.);
#735=ADVANCED_FACE('',(#59),#699,.T.);
#736=ADVANCED_FACE('',(#60),#17,.T.);
#737=ADVANCED_FACE('',(#61),#700,.T.);
#738=ADVANCED_FACE('',(#62),#18,.F.);
#739=ADVANCED_FACE('',(#63),#701,.T.);
#740=ADVANCED_FACE('',(#64),#702,.T.);
#741=ADVANCED_FACE('',(#65),#703,.T.);
#742=ADVANCED_FACE('',(#66),#704,.T.);
#743=ADVANCED_FACE('',(#67),#705,.T.);
#744=ADVANCED_FACE('',(#68),#706,.T.);
#745=CLOSED_SHELL('',(#707,#708,#709,#710,#711,#712,#713,#714,#715,#716,
#717,#718,#719,#720,#721,#722,#723,#724,#725,#726,#727,#728,#729,#730,#731,
#732,#733,#734,#735,#736,#737,#738,#739,#740,#741,#742,#743,#744));
#746=DERIVED_UNIT_ELEMENT(#748,1.);
#747=DERIVED_UNIT_ELEMENT(#1207,-3.);
#748=(
MASS_UNIT()
NAMED_UNIT(*)
SI_UNIT(.KILO.,.GRAM.)
);
#749=DERIVED_UNIT((#746,#747));
#750=MEASURE_REPRESENTATION_ITEM('density measure',
POSITIVE_RATIO_MEASURE(7850.),#749);
#751=PROPERTY_DEFINITION_REPRESENTATION(#756,#753);
#752=PROPERTY_DEFINITION_REPRESENTATION(#757,#754);
#753=REPRESENTATION('material name',(#755),#1204);
#754=REPRESENTATION('density',(#750),#1204);
#755=DESCRIPTIVE_REPRESENTATION_ITEM('Acier','Acier');
#756=PROPERTY_DEFINITION('material property','material name',#1214);
#757=PROPERTY_DEFINITION('material property','density of part',#1214);
#758=AXIS2_PLACEMENT_3D('',#993,#805,#806);
#759=AXIS2_PLACEMENT_3D('',#994,#807,#808);
#760=AXIS2_PLACEMENT_3D('',#1003,#813,#814);
#761=AXIS2_PLACEMENT_3D('',#1012,#819,#820);
#762=AXIS2_PLACEMENT_3D('',#1025,#827,#828);
#763=AXIS2_PLACEMENT_3D('',#1037,#834,#835);
#764=AXIS2_PLACEMENT_3D('',#1051,#843,#844);
#765=AXIS2_PLACEMENT_3D('',#1057,#848,#849);
#766=AXIS2_PLACEMENT_3D('',#1061,#852,#853);
#767=AXIS2_PLACEMENT_3D('',#1067,#856,#857);
#768=AXIS2_PLACEMENT_3D('',#1079,#863,#864);
#769=AXIS2_PLACEMENT_3D('',#1093,#872,#873);
#770=AXIS2_PLACEMENT_3D('',#1096,#874,#875);
#771=AXIS2_PLACEMENT_3D('',#1100,#877,#878);
#772=AXIS2_PLACEMENT_3D('',#1102,#880,#881);
#773=AXIS2_PLACEMENT_3D('',#1109,#886,#887);
#774=AXIS2_PLACEMENT_3D('',#1113,#890,#891);
#775=AXIS2_PLACEMENT_3D('',#1115,#893,#894);
#776=AXIS2_PLACEMENT_3D('',#1124,#900,#901);
#777=AXIS2_PLACEMENT_3D('',#1126,#903,#904);
#778=AXIS2_PLACEMENT_3D('',#1127,#905,#906);
#779=AXIS2_PLACEMENT_3D('',#1133,#910,#911);
#780=AXIS2_PLACEMENT_3D('',#1137,#914,#915);
#781=AXIS2_PLACEMENT_3D('',#1141,#918,#919);
#782=AXIS2_PLACEMENT_3D('',#1145,#922,#923);
#783=AXIS2_PLACEMENT_3D('',#1149,#926,#927);
#784=AXIS2_PLACEMENT_3D('',#1151,#929,#930);
#785=AXIS2_PLACEMENT_3D('',#1153,#931,#932);
#786=AXIS2_PLACEMENT_3D('',#1154,#933,#934);
#787=AXIS2_PLACEMENT_3D('',#1160,#938,#939);
#788=AXIS2_PLACEMENT_3D('',#1164,#942,#943);
#789=AXIS2_PLACEMENT_3D('',#1168,#946,#947);
#790=AXIS2_PLACEMENT_3D('',#1172,#950,#951);
#791=AXIS2_PLACEMENT_3D('',#1176,#954,#955);
#792=AXIS2_PLACEMENT_3D('',#1178,#957,#958);
#793=AXIS2_PLACEMENT_3D('',#1180,#959,#960);
#794=AXIS2_PLACEMENT_3D('',#1181,#961,#962);
#795=AXIS2_PLACEMENT_3D('',#1184,#965,#966);
#796=AXIS2_PLACEMENT_3D('',#1186,#968,#969);
#797=AXIS2_PLACEMENT_3D('',#1189,#972,#973);
#798=AXIS2_PLACEMENT_3D('',#1191,#975,#976);
#799=AXIS2_PLACEMENT_3D('',#1193,#978,#979);
#800=AXIS2_PLACEMENT_3D('',#1195,#981,#982);
#801=AXIS2_PLACEMENT_3D('',#1196,#983,#984);
#802=AXIS2_PLACEMENT_3D('',#1198,#986,#987);
#803=AXIS2_PLACEMENT_3D('',#1200,#989,#990);
#804=AXIS2_PLACEMENT_3D('',#1201,#991,#992);
#805=DIRECTION('axis',(0.,0.,1.));
#806=DIRECTION('refdir',(1.,0.,0.));
#807=DIRECTION('center_axis',(0.,0.,1.));
#808=DIRECTION('ref_axis',(1.,0.,0.));
#809=DIRECTION('',(1.,0.,0.));
#810=DIRECTION('',(-5.55111512312578E-16,-1.,0.));
#811=DIRECTION('',(-1.,0.,0.));
#812=DIRECTION('',(-4.50851989695495E-16,1.,0.));
#813=DIRECTION('center_axis',(0.,0.,1.));
#814=DIRECTION('ref_axis',(1.,0.,0.));
#815=DIRECTION('',(1.,0.,0.));
#816=DIRECTION('',(0.,-1.,0.));
#817=DIRECTION('',(-1.,0.,0.));
#818=DIRECTION('',(0.,1.,0.));
#819=DIRECTION('center_axis',(0.,1.,0.));
#820=DIRECTION('ref_axis',(1.,0.,0.));
#821=DIRECTION('',(0.,0.,1.));
#822=DIRECTION('',(0.,0.,1.));
#823=DIRECTION('',(1.,0.,0.));
#824=DIRECTION('',(0.,0.,1.));
#825=DIRECTION('',(0.,0.,-1.));
#826=DIRECTION('',(0.740235559007147,0.,-0.672347616327578));
#827=DIRECTION('center_axis',(0.,-1.,0.));
#828=DIRECTION('ref_axis',(1.,0.,7.22427746418684E-16));
#829=DIRECTION('',(-0.740235559007147,0.,-0.672347616327578));
#830=DIRECTION('',(0.,0.,-1.));
#831=DIRECTION('',(-1.,0.,0.));
#832=DIRECTION('',(0.,0.,1.));
#833=DIRECTION('',(-0.720832986508121,0.,0.69310879778126));
#834=DIRECTION('center_axis',(0.,-1.,0.));
#835=DIRECTION('ref_axis',(-1.,0.,-1.60180195112101E-15));
#836=DIRECTION('',(0.720832986508121,0.,0.69310879778126));
#837=DIRECTION('',(-0.834655622316273,0.,0.550772178069876));
#838=DIRECTION('',(-0.894310509064336,0.,-0.447446883302464));
#839=DIRECTION('',(-0.0596548867480629,0.,-0.99821906137234));
#840=DIRECTION('',(0.834655622316273,0.,-0.550772178069876));
#841=DIRECTION('',(0.894310509064336,0.,0.447446883302464));
#842=DIRECTION('',(0.0596548867480629,0.,0.99821906137234));
#843=DIRECTION('center_axis',(0.,0.,1.));
#844=DIRECTION('ref_axis',(1.,0.,0.));
#845=DIRECTION('',(1.,0.,0.));
#846=DIRECTION('',(0.,-1.,0.));
#847=DIRECTION('',(0.,1.,0.));
#848=DIRECTION('center_axis',(-1.,0.,0.));
#849=DIRECTION('ref_axis',(0.,0.,1.));
#850=DIRECTION('',(0.,0.,1.));
#851=DIRECTION('',(0.,1.,0.));
#852=DIRECTION('center_axis',(0.,1.,0.));
#853=DIRECTION('ref_axis',(1.,0.,0.));
#854=DIRECTION('',(0.,0.,-1.));
#855=DIRECTION('',(0.740235559007147,0.,0.672347616327578));
#856=DIRECTION('center_axis',(0.,1.,0.));
#857=DIRECTION('ref_axis',(1.,0.,7.22427746418684E-16));
#858=DIRECTION('',(0.740235559007147,0.,-0.672347616327578));
#859=DIRECTION('',(0.,0.,-1.));
#860=DIRECTION('',(1.,0.,0.));
#861=DIRECTION('',(0.,0.,1.));
#862=DIRECTION('',(0.720832986508121,0.,0.69310879778126));
#863=DIRECTION('center_axis',(0.,1.,0.));
#864=DIRECTION('ref_axis',(-1.,0.,-1.60180195112101E-15));
#865=DIRECTION('',(0.720832986508121,0.,-0.69310879778126));
#866=DIRECTION('',(0.573685496890118,0.,-0.81907566845679));
#867=DIRECTION('',(-0.422497588060242,0.,-0.906364048317936));
#868=DIRECTION('',(-0.99618308495036,0.,-0.0872883798611442));
#869=DIRECTION('',(-0.573685496890116,0.,0.819075668456792));
#870=DIRECTION('',(0.422497588060243,0.,0.906364048317936));
#871=DIRECTION('',(0.99618308495036,0.,0.0872883798611449));
#872=DIRECTION('center_axis',(-1.,0.,0.));
#873=DIRECTION('ref_axis',(0.,0.850650808352044,0.525731112119128));
#874=DIRECTION('center_axis',(1.,-5.55111512312578E-16,0.));
#875=DIRECTION('ref_axis',(0.,0.850650808352044,0.525731112119128));
#876=DIRECTION('',(1.,0.,0.));
#877=DIRECTION('center_axis',(-1.,0.,0.));
#878=DIRECTION('ref_axis',(0.,0.850650808352044,0.525731112119128));
#879=DIRECTION('',(-1.,0.,0.));
#880=DIRECTION('center_axis',(-1.,5.55111512312578E-16,0.));
#881=DIRECTION('ref_axis',(-5.55111512312578E-16,-1.,0.));
#882=DIRECTION('',(2.48253415324727E-16,0.447213595499957,0.894427190999916));
#883=DIRECTION('',(-5.55111512312578E-16,-1.,0.));
#884=DIRECTION('',(-2.48253415324728E-16,-0.447213595499959,-0.894427190999915));
#885=DIRECTION('',(5.55111512312578E-16,1.,0.));
#886=DIRECTION('center_axis',(0.,-0.894427190999915,0.447213595499959));
#887=DIRECTION('ref_axis',(0.,-0.447213595499959,-0.894427190999915));
#888=DIRECTION('',(0.,0.447213595499959,0.894427190999915));
#889=DIRECTION('',(1.,0.,0.));
#890=DIRECTION('center_axis',(0.,0.,-1.));
#891=DIRECTION('ref_axis',(0.,1.,0.));
#892=DIRECTION('',(0.,-1.,0.));
#893=DIRECTION('center_axis',(0.,0.894427190999916,-0.447213595499957));
#894=DIRECTION('ref_axis',(0.,0.447213595499957,0.894427190999916));
#895=DIRECTION('',(2.01627139350032E-16,-0.447213595499957,-0.894427190999916));
#896=DIRECTION('',(-1.,1.490232247819E-16,0.));
#897=DIRECTION('',(0.,0.447213595499957,0.894427190999916));
#898=DIRECTION('',(0.,-0.447213595499957,-0.894427190999916));
#899=DIRECTION('',(1.,0.,0.));
#900=DIRECTION('center_axis',(1.,0.,0.));
#901=DIRECTION('ref_axis',(0.,1.,0.));
#902=DIRECTION('',(0.,1.,0.));
#903=DIRECTION('center_axis',(0.,0.,1.));
#904=DIRECTION('ref_axis',(1.,0.,0.));
#905=DIRECTION('center_axis',(0.550772178069876,0.,0.834655622316273));
#906=DIRECTION('ref_axis',(-0.834655622316273,0.,0.550772178069876));
#907=DIRECTION('',(0.,-1.,0.));
#908=DIRECTION('',(-0.834655622316273,0.,0.550772178069876));
#909=DIRECTION('',(0.,-1.,0.));
#910=DIRECTION('center_axis',(0.99821906137234,0.,-0.0596548867480629));
#911=DIRECTION('ref_axis',(0.0596548867480629,0.,0.99821906137234));
#912=DIRECTION('',(0.,-1.,0.));
#913=DIRECTION('',(0.0596548867480629,0.,0.99821906137234));
#914=DIRECTION('center_axis',(0.447446883302464,0.,-0.894310509064336));
#915=DIRECTION('ref_axis',(0.894310509064336,0.,0.447446883302464));
#916=DIRECTION('',(0.,-1.,0.));
#917=DIRECTION('',(0.894310509064336,0.,0.447446883302464));
#918=DIRECTION('center_axis',(-0.550772178069876,0.,-0.834655622316273));
#919=DIRECTION('ref_axis',(0.834655622316273,0.,-0.550772178069876));
#920=DIRECTION('',(0.,-1.,0.));
#921=DIRECTION('',(0.834655622316273,0.,-0.550772178069876));
#922=DIRECTION('center_axis',(-0.99821906137234,0.,0.0596548867480629));
#923=DIRECTION('ref_axis',(-0.0596548867480629,0.,-0.99821906137234));
#924=DIRECTION('',(0.,-1.,0.));
#925=DIRECTION('',(-0.0596548867480629,0.,-0.99821906137234));
#926=DIRECTION('center_axis',(-0.447446883302464,0.,0.894310509064336));
#927=DIRECTION('ref_axis',(-0.894310509064336,0.,-0.447446883302464));
#928=DIRECTION('',(-0.894310509064336,0.,-0.447446883302464));
#929=DIRECTION('center_axis',(0.,1.,0.));
#930=DIRECTION('ref_axis',(-1.,0.,0.));
#931=DIRECTION('center_axis',(0.,1.,0.));
#932=DIRECTION('ref_axis',(1.,0.,0.));
#933=DIRECTION('center_axis',(0.81907566845679,0.,0.573685496890118));
#934=DIRECTION('ref_axis',(0.573685496890118,0.,-0.81907566845679));
#935=DIRECTION('',(0.,1.,0.));
#936=DIRECTION('',(0.573685496890118,0.,-0.81907566845679));
#937=DIRECTION('',(0.,1.,0.));
#938=DIRECTION('center_axis',(-0.0872883798611449,0.,0.99618308495036));
#939=DIRECTION('ref_axis',(0.99618308495036,0.,0.0872883798611449));
#940=DIRECTION('',(0.,1.,0.));
#941=DIRECTION('',(0.99618308495036,0.,0.0872883798611449));
#942=DIRECTION('center_axis',(-0.906364048317936,0.,0.422497588060243));
#943=DIRECTION('ref_axis',(0.422497588060243,0.,0.906364048317936));
#944=DIRECTION('',(0.,1.,0.));
#945=DIRECTION('',(0.422497588060243,0.,0.906364048317936));
#946=DIRECTION('center_axis',(-0.819075668456792,0.,-0.573685496890116));
#947=DIRECTION('ref_axis',(-0.573685496890116,0.,0.819075668456792));
#948=DIRECTION('',(0.,1.,0.));
#949=DIRECTION('',(-0.573685496890116,0.,0.819075668456792));
#950=DIRECTION('center_axis',(0.0872883798611442,0.,-0.99618308495036));
#951=DIRECTION('ref_axis',(-0.99618308495036,0.,-0.0872883798611442));
#952=DIRECTION('',(0.,1.,0.));
#953=DIRECTION('',(-0.99618308495036,0.,-0.0872883798611442));
#954=DIRECTION('center_axis',(0.906364048317936,0.,-0.422497588060242));
#955=DIRECTION('ref_axis',(-0.422497588060242,0.,-0.906364048317936));
#956=DIRECTION('',(-0.422497588060242,0.,-0.906364048317936));
#957=DIRECTION('center_axis',(0.,1.,0.));
#958=DIRECTION('ref_axis',(1.,0.,0.));
#959=DIRECTION('center_axis',(0.,-1.,0.));
#960=DIRECTION('ref_axis',(1.,0.,0.));
#961=DIRECTION('center_axis',(0.,1.,0.));
#962=DIRECTION('ref_axis',(-1.,0.,-1.60180195112101E-15));
#963=DIRECTION('',(0.,-1.,0.));
#964=DIRECTION('',(0.,1.,0.));
#965=DIRECTION('center_axis',(-0.69310879778126,0.,0.720832986508121));
#966=DIRECTION('ref_axis',(0.720832986508121,0.,0.69310879778126));
#967=DIRECTION('',(0.,1.,0.));
#968=DIRECTION('center_axis',(0.,1.,0.));
#969=DIRECTION('ref_axis',(1.,0.,7.22427746418684E-16));
#970=DIRECTION('',(0.,-1.,0.));
#971=DIRECTION('',(0.,1.,0.));
#972=DIRECTION('center_axis',(0.672347616327578,0.,0.740235559007147));
#973=DIRECTION('ref_axis',(0.740235559007147,0.,-0.672347616327578));
#974=DIRECTION('',(0.,1.,0.));
#975=DIRECTION('center_axis',(0.,1.,0.));
#976=DIRECTION('ref_axis',(1.,0.,0.));
#977=DIRECTION('',(0.,-1.,0.));
#978=DIRECTION('center_axis',(1.,0.,0.));
#979=DIRECTION('ref_axis',(0.,0.,-1.));
#980=DIRECTION('',(0.,1.,0.));
#981=DIRECTION('center_axis',(0.672347616327578,0.,-0.740235559007147));
#982=DIRECTION('ref_axis',(-0.740235559007147,0.,-0.672347616327578));
#983=DIRECTION('center_axis',(1.,0.,0.));
#984=DIRECTION('ref_axis',(0.,0.,-1.));
#985=DIRECTION('',(0.,1.,0.));
#986=DIRECTION('center_axis',(0.,0.,1.));
#987=DIRECTION('ref_axis',(1.,0.,0.));
#988=DIRECTION('',(0.,1.,0.));
#989=DIRECTION('center_axis',(-1.,0.,0.));
#990=DIRECTION('ref_axis',(0.,0.,1.));
#991=DIRECTION('center_axis',(-0.69310879778126,0.,-0.720832986508121));
#992=DIRECTION('ref_axis',(-0.720832986508121,0.,0.69310879778126));
#993=CARTESIAN_POINT('',(0.,0.,0.));
#994=CARTESIAN_POINT('Origin',(74.4300740710199,11.7,10.6281557827319));
#995=CARTESIAN_POINT('',(69.6601481420398,3.77500000000004,10.6281557827319));
#996=CARTESIAN_POINT('',(79.2,3.77500000000004,10.6281557827319));
#997=CARTESIAN_POINT('',(72.0451111065299,3.77500000000004,10.6281557827319));
#998=CARTESIAN_POINT('',(69.6601481420398,19.7,10.6281557827319));
#999=CARTESIAN_POINT('',(69.6601481420398,15.7,10.6281557827319));
#1000=CARTESIAN_POINT('',(79.2,19.7,10.6281557827319));
#1001=CARTESIAN_POINT('',(86.9662516961397,19.7,10.6281557827319));
#1002=CARTESIAN_POINT('',(79.2,19.7,10.6281557827319));
#1003=CARTESIAN_POINT('Origin',(124.38007407102,11.7,10.6281557827319));
#1004=CARTESIAN_POINT('',(119.5,3.77500000000004,10.6281557827319));
#1005=CARTESIAN_POINT('',(129.26014814204,3.77500000000004,10.6281557827319));
#1006=CARTESIAN_POINT('',(97.0201111065299,3.77500000000004,10.6281557827319));
#1007=CARTESIAN_POINT('',(119.5,19.7,10.6281557827319));
#1008=CARTESIAN_POINT('',(119.5,0.,10.6281557827319));
#1009=CARTESIAN_POINT('',(129.26014814204,19.7,10.6281557827319));
#1010=CARTESIAN_POINT('',(111.94125169614,19.7,10.6281557827319));
#1011=CARTESIAN_POINT('',(129.26014814204,7.7,10.6281557827319));
#1012=CARTESIAN_POINT('Origin',(99.5024293212594,19.7,0.128155782731891));
#1013=CARTESIAN_POINT('',(79.2,19.7,5.));
#1014=CARTESIAN_POINT('',(79.2,19.7,-10.2218442172681));
#1015=CARTESIAN_POINT('',(69.6601481420398,19.7,14.4781557827319));
#1016=CARTESIAN_POINT('',(69.6601481420398,19.7,10.4781557827319));
#1017=CARTESIAN_POINT('',(129.26014814204,19.7,14.4781557827319));
#1018=CARTESIAN_POINT('',(84.5812887316496,19.7,14.4781557827319));
#1019=CARTESIAN_POINT('',(129.26014814204,19.7,10.4781557827319));
#1020=CARTESIAN_POINT('',(119.5,19.7,5.00000000000001));
#1021=CARTESIAN_POINT('',(119.5,19.7,5.30315578273189));
#1022=CARTESIAN_POINT('',(124.189879216707,19.7,0.740235559007161));
#1023=CARTESIAN_POINT('',(119.5,19.7,5.00000000000001));
#1024=CARTESIAN_POINT('',(124.189879216707,19.7,-0.740235559007131));
#1025=CARTESIAN_POINT('Origin',(123.517531600379,19.7,1.36002320516582E-14));
#1026=CARTESIAN_POINT('',(119.5,19.7,-4.99999999999999));
#1027=CARTESIAN_POINT('',(119.5,19.7,-4.99999999999998));
#1028=CARTESIAN_POINT('',(119.5,19.7,-10.0718442172681));
#1029=CARTESIAN_POINT('',(119.5,19.7,10.4781557827319));
#1030=CARTESIAN_POINT('',(79.2,19.7,-10.0718442172681));
#1031=CARTESIAN_POINT('',(109.50121466063,19.7,-10.0718442172681));
#1032=CARTESIAN_POINT('',(79.2,19.7,-5.));
#1033=CARTESIAN_POINT('',(79.2,19.7,-10.2218442172681));
#1034=CARTESIAN_POINT('',(74.7496673134485,19.7,-0.72083298650812));
#1035=CARTESIAN_POINT('',(74.0000011771917,19.7,0.));
#1036=CARTESIAN_POINT('',(74.7496673134485,19.7,0.720832986508121));
#1037=CARTESIAN_POINT('Origin',(75.4427761112297,19.7,1.94289029309402E-15));
#1038=CARTESIAN_POINT('',(74.0000011771917,19.7,0.));
#1039=CARTESIAN_POINT('',(103.575617155329,19.7,2.24234230633603));
#1040=CARTESIAN_POINT('',(99.6318693398846,19.7,4.8447408477162));
#1041=CARTESIAN_POINT('',(102.642775145395,19.7,2.85790567387275));
#1042=CARTESIAN_POINT('',(95.4062521845556,19.7,2.73055432411205));
#1043=CARTESIAN_POINT('',(98.6364208725369,19.7,4.34669200484959));
#1044=CARTESIAN_POINT('',(95.124382844671,19.7,-1.98603074087226));
#1045=CARTESIAN_POINT('',(95.3360560751174,19.7,1.55594653763987));
#1046=CARTESIAN_POINT('',(99.0681306601154,19.7,-4.58842928225242));
#1047=CARTESIAN_POINT('',(96.1634147424592,19.7,-2.67166664402562));
#1048=CARTESIAN_POINT('',(103.293747815444,19.7,-2.47424275864828));
#1049=CARTESIAN_POINT('',(100.185490770432,19.7,-4.02938486331696));
#1050=CARTESIAN_POINT('',(103.364486375949,19.7,-1.2905580126283));
#1051=CARTESIAN_POINT('Origin',(119.5,0.,-10.0718442172681));
#1052=CARTESIAN_POINT('',(79.2,0.,-10.0718442172681));
#1053=CARTESIAN_POINT('',(119.5,0.,-10.0718442172681));
#1054=CARTESIAN_POINT('',(109.50121466063,0.,-10.0718442172681));
#1055=CARTESIAN_POINT('',(79.2,0.,-10.0718442172681));
#1056=CARTESIAN_POINT('',(119.5,0.,-10.0718442172681));
#1057=CARTESIAN_POINT('Origin',(79.2,0.,-10.2218442172681));
#1058=CARTESIAN_POINT('',(79.2,0.,-5.));
#1059=CARTESIAN_POINT('',(79.2,0.,-10.2218442172681));
#1060=CARTESIAN_POINT('',(79.2,0.,-5.));
#1061=CARTESIAN_POINT('Origin',(99.5024293212594,0.,0.128155782731891));
#1062=CARTESIAN_POINT('',(119.5,0.,-4.99999999999998));
#1063=CARTESIAN_POINT('',(119.5,0.,10.4781557827319));
#1064=CARTESIAN_POINT('',(124.189879216707,0.,-0.740235559007131));
#1065=CARTESIAN_POINT('',(119.5,0.,-4.99999999999998));
#1066=CARTESIAN_POINT('',(124.189879216707,0.,0.740235559007161));
#1067=CARTESIAN_POINT('Origin',(123.517531600379,0.,1.36002320516582E-14));
#1068=CARTESIAN_POINT('',(119.5,0.,5.00000000000001));
#1069=CARTESIAN_POINT('',(119.5,0.,5.00000000000001));
#1070=CARTESIAN_POINT('',(119.5,0.,10.4781557827319));
#1071=CARTESIAN_POINT('',(119.5,0.,10.4781557827319));
#1072=CARTESIAN_POINT('',(79.2,0.,10.4781557827319));
#1073=CARTESIAN_POINT('',(79.2,0.,10.4781557827319));
#1074=CARTESIAN_POINT('',(79.2,0.,5.));
#1075=CARTESIAN_POINT('',(79.2,0.,-10.2218442172681));
#1076=CARTESIAN_POINT('',(74.7496673134485,0.,0.720832986508121));
#1077=CARTESIAN_POINT('',(74.0000011771917,0.,0.));
#1078=CARTESIAN_POINT('',(74.7496673134485,0.,-0.72083298650812));
#1079=CARTESIAN_POINT('Origin',(75.4427761112297,0.,1.94289029309402E-15));
#1080=CARTESIAN_POINT('',(74.0000011771917,0.,0.));
#1081=CARTESIAN_POINT('',(101.346301103585,0.,4.41072591103413));
#1082=CARTESIAN_POINT('',(104.05696507639,0.,0.540593377575798));
#1083=CARTESIAN_POINT('',(102.04905048858,0.,3.4073801311725));
#1084=CARTESIAN_POINT('',(102.060663972806,0.,-3.74197675072645));
#1085=CARTESIAN_POINT('',(103.571494438427,0.,-0.500863769634623));
#1086=CARTESIAN_POINT('',(97.3536988964154,0.,-4.15441434557036));
#1087=CARTESIAN_POINT('',(100.959556664927,0.,-3.83845888780551));
#1088=CARTESIAN_POINT('',(94.6430349236096,0.,-0.284281812112019));
#1089=CARTESIAN_POINT('',(96.7011162950077,0.,-3.22269385870282));
#1090=CARTESIAN_POINT('',(96.6393360271942,0.,3.99828831619023));
#1091=CARTESIAN_POINT('',(95.155714837438,0.,0.81554610482868));
#1092=CARTESIAN_POINT('',(97.8917112575105,0.,4.10802497653312));
#1093=CARTESIAN_POINT('Origin',(84.5601481420398,18.8909830056251,17.9781557827319));
#1094=CARTESIAN_POINT('',(69.6601481420398,19.338196601125,17.7545489849819));
#1095=CARTESIAN_POINT('',(69.6601481420398,18.8909830056251,18.4781557827319));
#1096=CARTESIAN_POINT('Origin',(69.6601481420398,18.8909830056251,17.9781557827319));
#1097=CARTESIAN_POINT('',(129.26014814204,18.8909830056251,18.4781557827319));
#1098=CARTESIAN_POINT('',(84.5601481420398,18.8909830056251,18.4781557827319));
#1099=CARTESIAN_POINT('',(129.26014814204,19.338196601125,17.7545489849819));
#1100=CARTESIAN_POINT('Origin',(129.26014814204,18.8909830056251,17.9781557827319));
#1101=CARTESIAN_POINT('',(84.5601481420398,19.338196601125,17.7545489849819));
#1102=CARTESIAN_POINT('Origin',(69.6601481420398,19.7,10.4781557827319));
#1103=CARTESIAN_POINT('',(69.6601481420398,7.70000000000003,18.4781557827319));
#1104=CARTESIAN_POINT('',(69.6601481420398,5.30000000000003,13.6781557827319));
#1105=CARTESIAN_POINT('',(69.6601481420398,19.7,18.4781557827319));
#1106=CARTESIAN_POINT('',(69.6601481420398,17.7,14.4781557827319));
#1107=CARTESIAN_POINT('',(69.6601481420398,18.1,15.2781557827319));
#1108=CARTESIAN_POINT('',(69.6601481420398,18.7,14.4781557827319));
#1109=CARTESIAN_POINT('Origin',(69.6601481420398,19.7,18.4781557827319));
#1110=CARTESIAN_POINT('',(129.26014814204,17.7,14.4781557827319));
#1111=CARTESIAN_POINT('',(129.26014814204,16.5,12.0781557827319));
#1112=CARTESIAN_POINT('',(69.6601481420398,17.7,14.4781557827319));
#1113=CARTESIAN_POINT('Origin',(69.6601481420398,17.7,14.4781557827319));
#1114=CARTESIAN_POINT('',(129.26014814204,10.7,14.4781557827319));
#1115=CARTESIAN_POINT('Origin',(69.6601481420398,3.70000000000004,10.4781557827319));
#1116=CARTESIAN_POINT('',(79.2,3.7,10.4781557827319));
#1117=CARTESIAN_POINT('',(79.2,3.70000000000004,10.4781557827319));
#1118=CARTESIAN_POINT('',(119.5,3.69999999999999,10.4781557827319));
#1119=CARTESIAN_POINT('',(74.4300740710199,3.7,10.4781557827319));
#1120=CARTESIAN_POINT('',(119.5,5.30000000000003,13.6781557827319));
#1121=CARTESIAN_POINT('',(129.26014814204,7.70000000000003,18.4781557827319));
#1122=CARTESIAN_POINT('',(129.26014814204,3.70000000000003,10.4781557827319));
#1123=CARTESIAN_POINT('',(84.5601481420398,7.70000000000003,18.4781557827319));
#1124=CARTESIAN_POINT('Origin',(129.26014814204,3.69999999999999,10.4781557827319));
#1125=CARTESIAN_POINT('',(129.26014814204,3.69999999999999,18.4781557827319));
#1126=CARTESIAN_POINT('Origin',(99.4601481420398,11.7,18.4781557827319));
#1127=CARTESIAN_POINT('Origin',(103.575617155329,19.7,2.24234230633603));
#1128=CARTESIAN_POINT('',(103.575617155329,15.55,2.24234230633603));
#1129=CARTESIAN_POINT('',(103.575617155329,19.7,2.24234230633603));
#1130=CARTESIAN_POINT('',(99.6318693398846,15.55,4.8447408477162));
#1131=CARTESIAN_POINT('',(99.6318693398846,15.55,4.8447408477162));
#1132=CARTESIAN_POINT('',(99.6318693398846,19.7,4.8447408477162));
#1133=CARTESIAN_POINT('Origin',(103.293747815444,19.7,-2.47424275864828));
#1134=CARTESIAN_POINT('',(103.293747815444,15.55,-2.47424275864828));
#1135=CARTESIAN_POINT('',(103.293747815444,19.7,-2.47424275864828));
#1136=CARTESIAN_POINT('',(103.575617155329,15.55,2.24234230633603));
#1137=CARTESIAN_POINT('Origin',(99.0681306601154,19.7,-4.58842928225242));
#1138=CARTESIAN_POINT('',(99.0681306601154,15.55,-4.58842928225242));
#1139=CARTESIAN_POINT('',(99.0681306601154,19.7,-4.58842928225242));
#1140=CARTESIAN_POINT('',(103.293747815444,15.55,-2.47424275864828));
#1141=CARTESIAN_POINT('Origin',(95.124382844671,19.7,-1.98603074087226));
#1142=CARTESIAN_POINT('',(95.124382844671,15.55,-1.98603074087226));
#1143=CARTESIAN_POINT('',(95.124382844671,19.7,-1.98603074087226));
#1144=CARTESIAN_POINT('',(99.0681306601154,15.55,-4.58842928225242));
#1145=CARTESIAN_POINT('Origin',(95.4062521845556,19.7,2.73055432411205));
#1146=CARTESIAN_POINT('',(95.4062521845556,15.55,2.73055432411205));
#1147=CARTESIAN_POINT('',(95.4062521845556,19.7,2.73055432411205));
#1148=CARTESIAN_POINT('',(95.124382844671,15.55,-1.98603074087226));
#1149=CARTESIAN_POINT('Origin',(99.6318693398846,19.7,4.8447408477162));
#1150=CARTESIAN_POINT('',(95.4062521845556,15.55,2.73055432411205));
#1151=CARTESIAN_POINT('Origin',(99.35,15.55,0.128155782731888));
#1152=CARTESIAN_POINT('',(96.85,15.55,0.128155782731888));
#1153=CARTESIAN_POINT('Origin',(99.35,15.55,0.128155782731888));
#1154=CARTESIAN_POINT('Origin',(101.346301103585,0.,4.41072591103413));
#1155=CARTESIAN_POINT('',(101.346301103585,4.,4.41072591103413));
#1156=CARTESIAN_POINT('',(101.346301103585,0.,4.41072591103413));
#1157=CARTESIAN_POINT('',(104.05696507639,4.,0.540593377575798));
#1158=CARTESIAN_POINT('',(101.346301103585,4.,4.41072591103413));
#1159=CARTESIAN_POINT('',(104.05696507639,0.,0.540593377575798));
#1160=CARTESIAN_POINT('Origin',(96.6393360271942,0.,3.99828831619023));
#1161=CARTESIAN_POINT('',(96.6393360271942,4.,3.99828831619023));
#1162=CARTESIAN_POINT('',(96.6393360271942,0.,3.99828831619023));
#1163=CARTESIAN_POINT('',(96.6393360271942,4.,3.99828831619023));
#1164=CARTESIAN_POINT('Origin',(94.6430349236096,0.,-0.284281812112019));
#1165=CARTESIAN_POINT('',(94.6430349236096,4.,-0.284281812112019));
#1166=CARTESIAN_POINT('',(94.6430349236096,0.,-0.284281812112019));
#1167=CARTESIAN_POINT('',(94.6430349236096,4.,-0.284281812112019));
#1168=CARTESIAN_POINT('Origin',(97.3536988964154,0.,-4.15441434557036));
#1169=CARTESIAN_POINT('',(97.3536988964154,4.,-4.15441434557036));
#1170=CARTESIAN_POINT('',(97.3536988964154,0.,-4.15441434557036));
#1171=CARTESIAN_POINT('',(97.3536988964154,4.,-4.15441434557036));
#1172=CARTESIAN_POINT('Origin',(102.060663972806,0.,-3.74197675072645));
#1173=CARTESIAN_POINT('',(102.060663972806,4.,-3.74197675072645));
#1174=CARTESIAN_POINT('',(102.060663972806,0.,-3.74197675072645));
#1175=CARTESIAN_POINT('',(102.060663972806,4.,-3.74197675072645));
#1176=CARTESIAN_POINT('Origin',(104.05696507639,0.,0.540593377575798));
#1177=CARTESIAN_POINT('',(104.05696507639,4.,0.540593377575798));
#1178=CARTESIAN_POINT('Origin',(99.3500000000001,4.,0.128155782731888));
#1179=CARTESIAN_POINT('',(96.85,4.,0.128155782731888));
#1180=CARTESIAN_POINT('Origin',(99.35,4.,0.128155782731888));
#1181=CARTESIAN_POINT('Origin',(75.4427761112297,0.,1.94289029309402E-15));
#1182=CARTESIAN_POINT('',(74.7496673134485,0.,-0.720832986508119));
#1183=CARTESIAN_POINT('',(74.7496673134485,0.,0.72083298650812));
#1184=CARTESIAN_POINT('Origin',(74.0000011771917,0.,0.));
#1185=CARTESIAN_POINT('',(79.2,0.,5.));
#1186=CARTESIAN_POINT('Origin',(123.517531600379,0.,1.36002320516582E-14));
#1187=CARTESIAN_POINT('',(124.189879216707,0.,0.740235559007161));
#1188=CARTESIAN_POINT('',(124.189879216707,0.,-0.740235559007132));
#1189=CARTESIAN_POINT('Origin',(119.5,0.,5.00000000000001));
#1190=CARTESIAN_POINT('',(119.5,0.,5.00000000000001));
#1191=CARTESIAN_POINT('Origin',(99.35,0.,0.128155782731888));
#1192=CARTESIAN_POINT('',(96.85,0.,0.128155782731888));
#1193=CARTESIAN_POINT('Origin',(119.5,0.,-4.99999999999998));
#1194=CARTESIAN_POINT('',(119.5,0.,-4.99999999999998));
#1195=CARTESIAN_POINT('Origin',(125.004857465327,0.,1.49880108324396E-14));
#1196=CARTESIAN_POINT('Origin',(119.5,0.,10.4781557827319));
#1197=CARTESIAN_POINT('',(119.5,0.,10.4781557827319));
#1198=CARTESIAN_POINT('Origin',(79.2,0.,10.4781557827319));
#1199=CARTESIAN_POINT('',(79.2,0.,10.4781557827319));
#1200=CARTESIAN_POINT('Origin',(79.2,0.,5.));
#1201=CARTESIAN_POINT('Origin',(79.2,0.,-5.));
#1202=UNCERTAINTY_MEASURE_WITH_UNIT(LENGTH_MEASURE(0.01),#1206,
'DISTANCE_ACCURACY_VALUE',
'Maximum model space distance between geometric entities at asserted c
onnectivities');
#1203=UNCERTAINTY_MEASURE_WITH_UNIT(LENGTH_MEASURE(0.01),#1206,
'DISTANCE_ACCURACY_VALUE',
'Maximum model space distance between geometric entities at asserted c
onnectivities');
#1204=(
GEOMETRIC_REPRESENTATION_CONTEXT(3)
GLOBAL_UNCERTAINTY_ASSIGNED_CONTEXT((#1202))
GLOBAL_UNIT_ASSIGNED_CONTEXT((#1206,#1208,#1209))
REPRESENTATION_CONTEXT('','3D')
);
#1205=(
GEOMETRIC_REPRESENTATION_CONTEXT(3)
GLOBAL_UNCERTAINTY_ASSIGNED_CONTEXT((#1203))
GLOBAL_UNIT_ASSIGNED_CONTEXT((#1206,#1208,#1209))
REPRESENTATION_CONTEXT('','3D')
);
#1206=(
LENGTH_UNIT()
NAMED_UNIT(*)
SI_UNIT(.MILLI.,.METRE.)
);
#1207=(
LENGTH_UNIT()
NAMED_UNIT(*)
SI_UNIT($,.METRE.)
);
#1208=(
NAMED_UNIT(*)
PLANE_ANGLE_UNIT()
SI_UNIT($,.RADIAN.)
);
#1209=(
NAMED_UNIT(*)
SI_UNIT($,.STERADIAN.)
SOLID_ANGLE_UNIT()
);
#1210=SHAPE_DEFINITION_REPRESENTATION(#1211,#1212);
#1211=PRODUCT_DEFINITION_SHAPE('',$,#1214);
#1212=SHAPE_REPRESENTATION('',(#758),#1204);
#1213=PRODUCT_DEFINITION_CONTEXT('part definition',#1218,'design');
#1214=PRODUCT_DEFINITION('etau','etau v12',#1215,#1213);
#1215=PRODUCT_DEFINITION_FORMATION('',$,#1220);
#1216=PRODUCT_RELATED_PRODUCT_CATEGORY('etau v12','etau v12',(#1220));
#1217=APPLICATION_PROTOCOL_DEFINITION('international standard',
'automotive_design',2009,#1218);
#1218=APPLICATION_CONTEXT(
'Core Data for Automotive Mechanical Design Process');
#1219=PRODUCT_CONTEXT('part definition',#1218,'mechanical');
#1220=PRODUCT('etau','etau v12',$,(#1219));
#1221=PRESENTATION_STYLE_ASSIGNMENT((#1222));
#1222=SURFACE_STYLE_USAGE(.BOTH.,#1223);
#1223=SURFACE_SIDE_STYLE('',(#1224));
#1224=SURFACE_STYLE_FILL_AREA(#1225);
#1225=FILL_AREA_STYLE('Acier - Satin\X\E9',(#1226));
#1226=FILL_AREA_STYLE_COLOUR('Acier - Satin\X\E9',#1227);
#1227=COLOUR_RGB('Acier - Satin\X\E9',0.627450980392157,0.627450980392157,
0.627450980392157);
ENDSEC;
END-ISO-10303-21;
