ISO-10303-21;
HEADER;
/* Generated by software containing ST-Developer
 * from STEP Tools, Inc. (www.steptools.com) 
 */

FILE_DESCRIPTION(
/* description */ (''),
/* implementation_level */ '2;1');

FILE_NAME(
/* name */ 'etau2_piston.step',
/* time_stamp */ '2025-10-30T09:32:50+01:00',
/* author */ (''),
/* organization */ (''),
/* preprocessor_version */ 'ST-DEVELOPER v20.1',
/* originating_system */ 'Autodesk Translation Framework v14.17.0.0',
/* authorisation */ '');

FILE_SCHEMA (('AUTOMOTIVE_DESIGN { 1 0 10303 214 3 1 1 }'));
ENDSEC;

DATA;
#10=MECHANICAL_DESIGN_GEOMETRIC_PRESENTATION_REPRESENTATION('',(#13),#1238);
#11=SHAPE_REPRESENTATION_RELATIONSHIP('SRR','None',#1245,#12);
#12=ADVANCED_BREP_SHAPE_REPRESENTATION('',(#14),#1237);
#13=STYLED_ITEM('',(#1254),#14);
#14=MANIFOLD_SOLID_BREP('Corps6',#766);
#15=CYLINDRICAL_SURFACE('',#791,0.5);
#16=CYLINDRICAL_SURFACE('',#817,1.);
#17=CYLINDRICAL_SURFACE('',#819,1.);
#18=CYLINDRICAL_SURFACE('',#821,2.65000000000001);
#19=FACE_BOUND('',#73,.T.);
#20=FACE_BOUND('',#78,.T.);
#21=FACE_BOUND('',#94,.T.);
#22=FACE_BOUND('',#102,.T.);
#23=CIRCLE('',#783,1.);
#24=CIRCLE('',#784,1.);
#25=CIRCLE('',#789,1.);
#26=CIRCLE('',#790,1.);
#27=CIRCLE('',#792,0.5);
#28=CIRCLE('',#793,0.5);
#29=CIRCLE('',#808,2.65000000000001);
#30=CIRCLE('',#816,2.65000000000001);
#31=FACE_OUTER_BOUND('',#70,.T.);
#32=FACE_OUTER_BOUND('',#71,.T.);
#33=FACE_OUTER_BOUND('',#72,.T.);
#34=FACE_OUTER_BOUND('',#74,.T.);
#35=FACE_OUTER_BOUND('',#75,.T.);
#36=FACE_OUTER_BOUND('',#76,.T.);
#37=FACE_OUTER_BOUND('',#77,.T.);
#38=FACE_OUTER_BOUND('',#79,.T.);
#39=FACE_OUTER_BOUND('',#80,.T.);
#40=FACE_OUTER_BOUND('',#81,.T.);
#41=FACE_OUTER_BOUND('',#82,.T.);
#42=FACE_OUTER_BOUND('',#83,.T.);
#43=FACE_OUTER_BOUND('',#84,.T.);
#44=FACE_OUTER_BOUND('',#85,.T.);
#45=FACE_OUTER_BOUND('',#86,.T.);
#46=FACE_OUTER_BOUND('',#87,.T.);
#47=FACE_OUTER_BOUND('',#88,.T.);
#48=FACE_OUTER_BOUND('',#89,.T.);
#49=FACE_OUTER_BOUND('',#90,.T.);
#50=FACE_OUTER_BOUND('',#91,.T.);
#51=FACE_OUTER_BOUND('',#92,.T.);
#52=FACE_OUTER_BOUND('',#93,.T.);
#53=FACE_OUTER_BOUND('',#95,.T.);
#54=FACE_OUTER_BOUND('',#96,.T.);
#55=FACE_OUTER_BOUND('',#97,.T.);
#56=FACE_OUTER_BOUND('',#98,.T.);
#57=FACE_OUTER_BOUND('',#99,.T.);
#58=FACE_OUTER_BOUND('',#100,.T.);
#59=FACE_OUTER_BOUND('',#101,.T.);
#60=FACE_OUTER_BOUND('',#103,.T.);
#61=FACE_OUTER_BOUND('',#104,.T.);
#62=FACE_OUTER_BOUND('',#105,.T.);
#63=FACE_OUTER_BOUND('',#106,.T.);
#64=FACE_OUTER_BOUND('',#107,.T.);
#65=FACE_OUTER_BOUND('',#108,.T.);
#66=FACE_OUTER_BOUND('',#109,.T.);
#67=FACE_OUTER_BOUND('',#110,.T.);
#68=FACE_OUTER_BOUND('',#111,.T.);
#69=FACE_OUTER_BOUND('',#112,.T.);
#70=EDGE_LOOP('',(#482,#483,#484,#485));
#71=EDGE_LOOP('',(#486,#487,#488,#489));
#72=EDGE_LOOP('',(#490,#491,#492,#493,#494,#495,#496,#497,#498,#499,#500,
#501,#502,#503,#504,#505));
#73=EDGE_LOOP('',(#506,#507,#508,#509,#510,#511));
#74=EDGE_LOOP('',(#512,#513,#514,#515));
#75=EDGE_LOOP('',(#516,#517,#518,#519));
#76=EDGE_LOOP('',(#520,#521,#522,#523));
#77=EDGE_LOOP('',(#524,#525,#526,#527,#528,#529,#530,#531,#532,#533,#534,
#535));
#78=EDGE_LOOP('',(#536,#537,#538,#539,#540,#541));
#79=EDGE_LOOP('',(#542,#543,#544,#545));
#80=EDGE_LOOP('',(#546,#547,#548,#549,#550,#551,#552));
#81=EDGE_LOOP('',(#553,#554,#555,#556));
#82=EDGE_LOOP('',(#557,#558,#559,#560));
#83=EDGE_LOOP('',(#561,#562,#563,#564,#565,#566,#567,#568));
#84=EDGE_LOOP('',(#569,#570,#571,#572,#573,#574,#575));
#85=EDGE_LOOP('',(#576,#577,#578,#579));
#86=EDGE_LOOP('',(#580,#581,#582,#583));
#87=EDGE_LOOP('',(#584,#585,#586,#587));
#88=EDGE_LOOP('',(#588,#589,#590,#591));
#89=EDGE_LOOP('',(#592,#593,#594,#595));
#90=EDGE_LOOP('',(#596,#597,#598,#599));
#91=EDGE_LOOP('',(#600,#601,#602,#603));
#92=EDGE_LOOP('',(#604,#605,#606,#607));
#93=EDGE_LOOP('',(#608,#609,#610,#611,#612,#613));
#94=EDGE_LOOP('',(#614));
#95=EDGE_LOOP('',(#615,#616,#617,#618));
#96=EDGE_LOOP('',(#619,#620,#621,#622));
#97=EDGE_LOOP('',(#623,#624,#625,#626));
#98=EDGE_LOOP('',(#627,#628,#629,#630));
#99=EDGE_LOOP('',(#631,#632,#633,#634));
#100=EDGE_LOOP('',(#635,#636,#637,#638));
#101=EDGE_LOOP('',(#639,#640,#641,#642,#643,#644));
#102=EDGE_LOOP('',(#645));
#103=EDGE_LOOP('',(#646,#647,#648,#649));
#104=EDGE_LOOP('',(#650,#651,#652,#653));
#105=EDGE_LOOP('',(#654,#655,#656,#657));
#106=EDGE_LOOP('',(#658,#659,#660,#661));
#107=EDGE_LOOP('',(#662,#663,#664,#665));
#108=EDGE_LOOP('',(#666,#667,#668,#669));
#109=EDGE_LOOP('',(#670,#671,#672,#673,#674,#675,#676));
#110=EDGE_LOOP('',(#677,#678,#679,#680));
#111=EDGE_LOOP('',(#681,#682,#683,#684,#685,#686,#687));
#112=EDGE_LOOP('',(#688,#689,#690,#691));
#113=LINE('',#1024,#210);
#114=LINE('',#1026,#211);
#115=LINE('',#1028,#212);
#116=LINE('',#1029,#213);
#117=LINE('',#1032,#214);
#118=LINE('',#1034,#215);
#119=LINE('',#1035,#216);
#120=LINE('',#1038,#217);
#121=LINE('',#1040,#218);
#122=LINE('',#1044,#219);
#123=LINE('',#1046,#220);
#124=LINE('',#1048,#221);
#125=LINE('',#1050,#222);
#126=LINE('',#1052,#223);
#127=LINE('',#1054,#224);
#128=LINE('',#1056,#225);
#129=LINE('',#1058,#226);
#130=LINE('',#1060,#227);
#131=LINE('',#1063,#228);
#132=LINE('',#1066,#229);
#133=LINE('',#1068,#230);
#134=LINE('',#1070,#231);
#135=LINE('',#1072,#232);
#136=LINE('',#1074,#233);
#137=LINE('',#1075,#234);
#138=LINE('',#1079,#235);
#139=LINE('',#1080,#236);
#140=LINE('',#1081,#237);
#141=LINE('',#1085,#238);
#142=LINE('',#1086,#239);
#143=LINE('',#1087,#240);
#144=LINE('',#1090,#241);
#145=LINE('',#1091,#242);
#146=LINE('',#1094,#243);
#147=LINE('',#1098,#244);
#148=LINE('',#1100,#245);
#149=LINE('',#1102,#246);
#150=LINE('',#1104,#247);
#151=LINE('',#1106,#248);
#152=LINE('',#1109,#249);
#153=LINE('',#1112,#250);
#154=LINE('',#1114,#251);
#155=LINE('',#1116,#252);
#156=LINE('',#1118,#253);
#157=LINE('',#1120,#254);
#158=LINE('',#1121,#255);
#159=LINE('',#1127,#256);
#160=LINE('',#1130,#257);
#161=LINE('',#1133,#258);
#162=LINE('',#1134,#259);
#163=LINE('',#1136,#260);
#164=LINE('',#1137,#261);
#165=LINE('',#1140,#262);
#166=LINE('',#1141,#263);
#167=LINE('',#1143,#264);
#168=LINE('',#1146,#265);
#169=LINE('',#1148,#266);
#170=LINE('',#1149,#267);
#171=LINE('',#1151,#268);
#172=LINE('',#1152,#269);
#173=LINE('',#1154,#270);
#174=LINE('',#1157,#271);
#175=LINE('',#1159,#272);
#176=LINE('',#1160,#273);
#177=LINE('',#1164,#274);
#178=LINE('',#1166,#275);
#179=LINE('',#1167,#276);
#180=LINE('',#1170,#277);
#181=LINE('',#1171,#278);
#182=LINE('',#1174,#279);
#183=LINE('',#1175,#280);
#184=LINE('',#1178,#281);
#185=LINE('',#1179,#282);
#186=LINE('',#1182,#283);
#187=LINE('',#1183,#284);
#188=LINE('',#1185,#285);
#189=LINE('',#1191,#286);
#190=LINE('',#1193,#287);
#191=LINE('',#1194,#288);
#192=LINE('',#1197,#289);
#193=LINE('',#1198,#290);
#194=LINE('',#1201,#291);
#195=LINE('',#1202,#292);
#196=LINE('',#1205,#293);
#197=LINE('',#1206,#294);
#198=LINE('',#1209,#295);
#199=LINE('',#1210,#296);
#200=LINE('',#1212,#297);
#201=LINE('',#1217,#298);
#202=LINE('',#1218,#299);
#203=LINE('',#1220,#300);
#204=LINE('',#1222,#301);
#205=LINE('',#1223,#302);
#206=LINE('',#1225,#303);
#207=LINE('',#1227,#304);
#208=LINE('',#1230,#305);
#209=LINE('',#1232,#306);
#210=VECTOR('',#831,10.);
#211=VECTOR('',#832,10.);
#212=VECTOR('',#833,10.);
#213=VECTOR('',#834,10.);
#214=VECTOR('',#837,10.);
#215=VECTOR('',#838,10.);
#216=VECTOR('',#839,10.);
#217=VECTOR('',#842,10.);
#218=VECTOR('',#843,10.);
#219=VECTOR('',#846,10.);
#220=VECTOR('',#847,10.);
#221=VECTOR('',#848,10.);
#222=VECTOR('',#849,10.);
#223=VECTOR('',#850,10.);
#224=VECTOR('',#851,10.);
#225=VECTOR('',#852,10.);
#226=VECTOR('',#853,10.);
#227=VECTOR('',#854,10.);
#228=VECTOR('',#857,10.);
#229=VECTOR('',#858,10.);
#230=VECTOR('',#859,10.);
#231=VECTOR('',#860,10.);
#232=VECTOR('',#861,10.);
#233=VECTOR('',#862,10.);
#234=VECTOR('',#863,10.);
#235=VECTOR('',#866,10.);
#236=VECTOR('',#867,10.);
#237=VECTOR('',#868,10.);
#238=VECTOR('',#871,10.);
#239=VECTOR('',#872,10.);
#240=VECTOR('',#873,10.);
#241=VECTOR('',#876,10.);
#242=VECTOR('',#877,10.);
#243=VECTOR('',#880,10.);
#244=VECTOR('',#883,10.);
#245=VECTOR('',#884,10.);
#246=VECTOR('',#885,10.);
#247=VECTOR('',#886,10.);
#248=VECTOR('',#887,10.);
#249=VECTOR('',#890,10.);
#250=VECTOR('',#891,10.);
#251=VECTOR('',#892,10.);
#252=VECTOR('',#893,10.);
#253=VECTOR('',#894,10.);
#254=VECTOR('',#895,10.);
#255=VECTOR('',#896,10.);
#256=VECTOR('',#901,10.);
#257=VECTOR('',#904,10.);
#258=VECTOR('',#907,10.);
#259=VECTOR('',#908,10.);
#260=VECTOR('',#909,10.);
#261=VECTOR('',#910,10.);
#262=VECTOR('',#913,10.);
#263=VECTOR('',#914,10.);
#264=VECTOR('',#917,10.);
#265=VECTOR('',#920,10.);
#266=VECTOR('',#921,10.);
#267=VECTOR('',#922,10.);
#268=VECTOR('',#923,10.);
#269=VECTOR('',#924,10.);
#270=VECTOR('',#927,10.);
#271=VECTOR('',#930,10.);
#272=VECTOR('',#931,10.);
#273=VECTOR('',#932,10.);
#274=VECTOR('',#937,10.);
#275=VECTOR('',#938,10.);
#276=VECTOR('',#939,10.);
#277=VECTOR('',#942,10.);
#278=VECTOR('',#943,10.);
#279=VECTOR('',#946,10.);
#280=VECTOR('',#947,10.);
#281=VECTOR('',#950,10.);
#282=VECTOR('',#951,10.);
#283=VECTOR('',#954,10.);
#284=VECTOR('',#955,10.);
#285=VECTOR('',#958,10.);
#286=VECTOR('',#965,10.);
#287=VECTOR('',#966,10.);
#288=VECTOR('',#967,10.);
#289=VECTOR('',#970,10.);
#290=VECTOR('',#971,10.);
#291=VECTOR('',#974,10.);
#292=VECTOR('',#975,10.);
#293=VECTOR('',#978,10.);
#294=VECTOR('',#979,10.);
#295=VECTOR('',#982,10.);
#296=VECTOR('',#983,10.);
#297=VECTOR('',#986,10.);
#298=VECTOR('',#993,10.);
#299=VECTOR('',#994,10.);
#300=VECTOR('',#997,10.);
#301=VECTOR('',#1000,10.);
#302=VECTOR('',#1001,10.);
#303=VECTOR('',#1004,10.);
#304=VECTOR('',#1007,2.65000000000001);
#305=VECTOR('',#1012,10.);
#306=VECTOR('',#1015,10.);
#307=VERTEX_POINT('',#1022);
#308=VERTEX_POINT('',#1023);
#309=VERTEX_POINT('',#1025);
#310=VERTEX_POINT('',#1027);
#311=VERTEX_POINT('',#1031);
#312=VERTEX_POINT('',#1033);
#313=VERTEX_POINT('',#1037);
#314=VERTEX_POINT('',#1039);
#315=VERTEX_POINT('',#1041);
#316=VERTEX_POINT('',#1043);
#317=VERTEX_POINT('',#1045);
#318=VERTEX_POINT('',#1047);
#319=VERTEX_POINT('',#1049);
#320=VERTEX_POINT('',#1051);
#321=VERTEX_POINT('',#1053);
#322=VERTEX_POINT('',#1055);
#323=VERTEX_POINT('',#1057);
#324=VERTEX_POINT('',#1059);
#325=VERTEX_POINT('',#1061);
#326=VERTEX_POINT('',#1064);
#327=VERTEX_POINT('',#1065);
#328=VERTEX_POINT('',#1067);
#329=VERTEX_POINT('',#1069);
#330=VERTEX_POINT('',#1071);
#331=VERTEX_POINT('',#1073);
#332=VERTEX_POINT('',#1077);
#333=VERTEX_POINT('',#1078);
#334=VERTEX_POINT('',#1083);
#335=VERTEX_POINT('',#1084);
#336=VERTEX_POINT('',#1089);
#337=VERTEX_POINT('',#1093);
#338=VERTEX_POINT('',#1095);
#339=VERTEX_POINT('',#1097);
#340=VERTEX_POINT('',#1099);
#341=VERTEX_POINT('',#1101);
#342=VERTEX_POINT('',#1103);
#343=VERTEX_POINT('',#1105);
#344=VERTEX_POINT('',#1107);
#345=VERTEX_POINT('',#1110);
#346=VERTEX_POINT('',#1111);
#347=VERTEX_POINT('',#1113);
#348=VERTEX_POINT('',#1115);
#349=VERTEX_POINT('',#1117);
#350=VERTEX_POINT('',#1119);
#351=VERTEX_POINT('',#1123);
#352=VERTEX_POINT('',#1124);
#353=VERTEX_POINT('',#1126);
#354=VERTEX_POINT('',#1128);
#355=VERTEX_POINT('',#1132);
#356=VERTEX_POINT('',#1135);
#357=VERTEX_POINT('',#1139);
#358=VERTEX_POINT('',#1145);
#359=VERTEX_POINT('',#1147);
#360=VERTEX_POINT('',#1150);
#361=VERTEX_POINT('',#1156);
#362=VERTEX_POINT('',#1158);
#363=VERTEX_POINT('',#1163);
#364=VERTEX_POINT('',#1165);
#365=VERTEX_POINT('',#1169);
#366=VERTEX_POINT('',#1173);
#367=VERTEX_POINT('',#1177);
#368=VERTEX_POINT('',#1181);
#369=VERTEX_POINT('',#1187);
#370=VERTEX_POINT('',#1190);
#371=VERTEX_POINT('',#1192);
#372=VERTEX_POINT('',#1196);
#373=VERTEX_POINT('',#1200);
#374=VERTEX_POINT('',#1204);
#375=VERTEX_POINT('',#1208);
#376=VERTEX_POINT('',#1214);
#377=EDGE_CURVE('',#307,#308,#113,.T.);
#378=EDGE_CURVE('',#309,#307,#114,.T.);
#379=EDGE_CURVE('',#310,#309,#115,.T.);
#380=EDGE_CURVE('',#308,#310,#116,.T.);
#381=EDGE_CURVE('',#311,#310,#117,.T.);
#382=EDGE_CURVE('',#312,#311,#118,.T.);
#383=EDGE_CURVE('',#312,#308,#119,.T.);
#384=EDGE_CURVE('',#309,#313,#120,.T.);
#385=EDGE_CURVE('',#313,#314,#121,.T.);
#386=EDGE_CURVE('',#315,#314,#23,.T.);
#387=EDGE_CURVE('',#315,#316,#122,.T.);
#388=EDGE_CURVE('',#316,#317,#123,.T.);
#389=EDGE_CURVE('',#317,#318,#124,.T.);
#390=EDGE_CURVE('',#318,#319,#125,.T.);
#391=EDGE_CURVE('',#319,#320,#126,.T.);
#392=EDGE_CURVE('',#321,#320,#127,.T.);
#393=EDGE_CURVE('',#321,#322,#128,.T.);
#394=EDGE_CURVE('',#322,#323,#129,.T.);
#395=EDGE_CURVE('',#323,#324,#130,.T.);
#396=EDGE_CURVE('',#325,#324,#24,.T.);
#397=EDGE_CURVE('',#325,#311,#131,.T.);
#398=EDGE_CURVE('',#326,#327,#132,.T.);
#399=EDGE_CURVE('',#327,#328,#133,.T.);
#400=EDGE_CURVE('',#328,#329,#134,.T.);
#401=EDGE_CURVE('',#329,#330,#135,.T.);
#402=EDGE_CURVE('',#330,#331,#136,.T.);
#403=EDGE_CURVE('',#331,#326,#137,.T.);
#404=EDGE_CURVE('',#332,#333,#138,.T.);
#405=EDGE_CURVE('',#318,#332,#139,.T.);
#406=EDGE_CURVE('',#333,#317,#140,.T.);
#407=EDGE_CURVE('',#334,#335,#141,.T.);
#408=EDGE_CURVE('',#322,#334,#142,.T.);
#409=EDGE_CURVE('',#335,#321,#143,.T.);
#410=EDGE_CURVE('',#307,#336,#144,.T.);
#411=EDGE_CURVE('',#336,#313,#145,.T.);
#412=EDGE_CURVE('',#312,#337,#146,.T.);
#413=EDGE_CURVE('',#338,#337,#25,.T.);
#414=EDGE_CURVE('',#339,#338,#147,.T.);
#415=EDGE_CURVE('',#340,#339,#148,.T.);
#416=EDGE_CURVE('',#341,#340,#149,.T.);
#417=EDGE_CURVE('',#342,#341,#150,.T.);
#418=EDGE_CURVE('',#343,#342,#151,.T.);
#419=EDGE_CURVE('',#344,#343,#26,.T.);
#420=EDGE_CURVE('',#344,#336,#152,.T.);
#421=EDGE_CURVE('',#345,#346,#153,.T.);
#422=EDGE_CURVE('',#346,#347,#154,.T.);
#423=EDGE_CURVE('',#347,#348,#155,.T.);
#424=EDGE_CURVE('',#348,#349,#156,.T.);
#425=EDGE_CURVE('',#349,#350,#157,.T.);
#426=EDGE_CURVE('',#350,#345,#158,.T.);
#427=EDGE_CURVE('',#351,#352,#27,.T.);
#428=EDGE_CURVE('',#352,#353,#159,.T.);
#429=EDGE_CURVE('',#353,#354,#28,.T.);
#430=EDGE_CURVE('',#354,#351,#160,.T.);
#431=EDGE_CURVE('',#332,#355,#161,.T.);
#432=EDGE_CURVE('',#352,#355,#162,.T.);
#433=EDGE_CURVE('',#351,#356,#163,.T.);
#434=EDGE_CURVE('',#356,#319,#164,.T.);
#435=EDGE_CURVE('',#357,#354,#165,.T.);
#436=EDGE_CURVE('',#356,#357,#166,.T.);
#437=EDGE_CURVE('',#320,#357,#167,.T.);
#438=EDGE_CURVE('',#333,#358,#168,.T.);
#439=EDGE_CURVE('',#359,#358,#169,.T.);
#440=EDGE_CURVE('',#359,#334,#170,.T.);
#441=EDGE_CURVE('',#360,#335,#171,.T.);
#442=EDGE_CURVE('',#355,#360,#172,.T.);
#443=EDGE_CURVE('',#360,#353,#173,.T.);
#444=EDGE_CURVE('',#358,#361,#174,.T.);
#445=EDGE_CURVE('',#362,#361,#175,.T.);
#446=EDGE_CURVE('',#362,#359,#176,.T.);
#447=EDGE_CURVE('',#326,#363,#177,.T.);
#448=EDGE_CURVE('',#363,#364,#178,.T.);
#449=EDGE_CURVE('',#327,#364,#179,.T.);
#450=EDGE_CURVE('',#331,#365,#180,.T.);
#451=EDGE_CURVE('',#365,#363,#181,.T.);
#452=EDGE_CURVE('',#330,#366,#182,.T.);
#453=EDGE_CURVE('',#366,#365,#183,.T.);
#454=EDGE_CURVE('',#329,#367,#184,.T.);
#455=EDGE_CURVE('',#367,#366,#185,.T.);
#456=EDGE_CURVE('',#328,#368,#186,.T.);
#457=EDGE_CURVE('',#368,#367,#187,.T.);
#458=EDGE_CURVE('',#364,#368,#188,.T.);
#459=EDGE_CURVE('',#369,#369,#29,.T.);
#460=EDGE_CURVE('',#345,#370,#189,.T.);
#461=EDGE_CURVE('',#370,#371,#190,.T.);
#462=EDGE_CURVE('',#346,#371,#191,.T.);
#463=EDGE_CURVE('',#350,#372,#192,.T.);
#464=EDGE_CURVE('',#372,#370,#193,.T.);
#465=EDGE_CURVE('',#349,#373,#194,.T.);
#466=EDGE_CURVE('',#373,#372,#195,.T.);
#467=EDGE_CURVE('',#348,#374,#196,.T.);
#468=EDGE_CURVE('',#374,#373,#197,.T.);
#469=EDGE_CURVE('',#347,#375,#198,.T.);
#470=EDGE_CURVE('',#375,#374,#199,.T.);
#471=EDGE_CURVE('',#371,#375,#200,.T.);
#472=EDGE_CURVE('',#376,#376,#30,.T.);
#473=EDGE_CURVE('',#314,#344,#201,.T.);
#474=EDGE_CURVE('',#343,#315,#202,.T.);
#475=EDGE_CURVE('',#342,#316,#203,.T.);
#476=EDGE_CURVE('',#324,#338,#204,.T.);
#477=EDGE_CURVE('',#337,#325,#205,.T.);
#478=EDGE_CURVE('',#339,#323,#206,.T.);
#479=EDGE_CURVE('',#369,#376,#207,.T.);
#480=EDGE_CURVE('',#340,#362,#208,.T.);
#481=EDGE_CURVE('',#341,#361,#209,.T.);
#482=ORIENTED_EDGE('',*,*,#377,.F.);
#483=ORIENTED_EDGE('',*,*,#378,.F.);
#484=ORIENTED_EDGE('',*,*,#379,.F.);
#485=ORIENTED_EDGE('',*,*,#380,.F.);
#486=ORIENTED_EDGE('',*,*,#380,.T.);
#487=ORIENTED_EDGE('',*,*,#381,.F.);
#488=ORIENTED_EDGE('',*,*,#382,.F.);
#489=ORIENTED_EDGE('',*,*,#383,.T.);
#490=ORIENTED_EDGE('',*,*,#379,.T.);
#491=ORIENTED_EDGE('',*,*,#384,.T.);
#492=ORIENTED_EDGE('',*,*,#385,.T.);
#493=ORIENTED_EDGE('',*,*,#386,.F.);
#494=ORIENTED_EDGE('',*,*,#387,.T.);
#495=ORIENTED_EDGE('',*,*,#388,.T.);
#496=ORIENTED_EDGE('',*,*,#389,.T.);
#497=ORIENTED_EDGE('',*,*,#390,.T.);
#498=ORIENTED_EDGE('',*,*,#391,.T.);
#499=ORIENTED_EDGE('',*,*,#392,.F.);
#500=ORIENTED_EDGE('',*,*,#393,.T.);
#501=ORIENTED_EDGE('',*,*,#394,.T.);
#502=ORIENTED_EDGE('',*,*,#395,.T.);
#503=ORIENTED_EDGE('',*,*,#396,.F.);
#504=ORIENTED_EDGE('',*,*,#397,.T.);
#505=ORIENTED_EDGE('',*,*,#381,.T.);
#506=ORIENTED_EDGE('',*,*,#398,.T.);
#507=ORIENTED_EDGE('',*,*,#399,.T.);
#508=ORIENTED_EDGE('',*,*,#400,.T.);
#509=ORIENTED_EDGE('',*,*,#401,.T.);
#510=ORIENTED_EDGE('',*,*,#402,.T.);
#511=ORIENTED_EDGE('',*,*,#403,.T.);
#512=ORIENTED_EDGE('',*,*,#404,.F.);
#513=ORIENTED_EDGE('',*,*,#405,.F.);
#514=ORIENTED_EDGE('',*,*,#389,.F.);
#515=ORIENTED_EDGE('',*,*,#406,.F.);
#516=ORIENTED_EDGE('',*,*,#407,.F.);
#517=ORIENTED_EDGE('',*,*,#408,.F.);
#518=ORIENTED_EDGE('',*,*,#393,.F.);
#519=ORIENTED_EDGE('',*,*,#409,.F.);
#520=ORIENTED_EDGE('',*,*,#378,.T.);
#521=ORIENTED_EDGE('',*,*,#410,.T.);
#522=ORIENTED_EDGE('',*,*,#411,.T.);
#523=ORIENTED_EDGE('',*,*,#384,.F.);
#524=ORIENTED_EDGE('',*,*,#377,.T.);
#525=ORIENTED_EDGE('',*,*,#383,.F.);
#526=ORIENTED_EDGE('',*,*,#412,.T.);
#527=ORIENTED_EDGE('',*,*,#413,.F.);
#528=ORIENTED_EDGE('',*,*,#414,.F.);
#529=ORIENTED_EDGE('',*,*,#415,.F.);
#530=ORIENTED_EDGE('',*,*,#416,.F.);
#531=ORIENTED_EDGE('',*,*,#417,.F.);
#532=ORIENTED_EDGE('',*,*,#418,.F.);
#533=ORIENTED_EDGE('',*,*,#419,.F.);
#534=ORIENTED_EDGE('',*,*,#420,.T.);
#535=ORIENTED_EDGE('',*,*,#410,.F.);
#536=ORIENTED_EDGE('',*,*,#421,.T.);
#537=ORIENTED_EDGE('',*,*,#422,.T.);
#538=ORIENTED_EDGE('',*,*,#423,.T.);
#539=ORIENTED_EDGE('',*,*,#424,.T.);
#540=ORIENTED_EDGE('',*,*,#425,.T.);
#541=ORIENTED_EDGE('',*,*,#426,.T.);
#542=ORIENTED_EDGE('',*,*,#427,.T.);
#543=ORIENTED_EDGE('',*,*,#428,.T.);
#544=ORIENTED_EDGE('',*,*,#429,.T.);
#545=ORIENTED_EDGE('',*,*,#430,.T.);
#546=ORIENTED_EDGE('',*,*,#405,.T.);
#547=ORIENTED_EDGE('',*,*,#431,.T.);
#548=ORIENTED_EDGE('',*,*,#432,.F.);
#549=ORIENTED_EDGE('',*,*,#427,.F.);
#550=ORIENTED_EDGE('',*,*,#433,.T.);
#551=ORIENTED_EDGE('',*,*,#434,.T.);
#552=ORIENTED_EDGE('',*,*,#390,.F.);
#553=ORIENTED_EDGE('',*,*,#430,.F.);
#554=ORIENTED_EDGE('',*,*,#435,.F.);
#555=ORIENTED_EDGE('',*,*,#436,.F.);
#556=ORIENTED_EDGE('',*,*,#433,.F.);
#557=ORIENTED_EDGE('',*,*,#434,.F.);
#558=ORIENTED_EDGE('',*,*,#436,.T.);
#559=ORIENTED_EDGE('',*,*,#437,.F.);
#560=ORIENTED_EDGE('',*,*,#391,.F.);
#561=ORIENTED_EDGE('',*,*,#438,.T.);
#562=ORIENTED_EDGE('',*,*,#439,.F.);
#563=ORIENTED_EDGE('',*,*,#440,.T.);
#564=ORIENTED_EDGE('',*,*,#407,.T.);
#565=ORIENTED_EDGE('',*,*,#441,.F.);
#566=ORIENTED_EDGE('',*,*,#442,.F.);
#567=ORIENTED_EDGE('',*,*,#431,.F.);
#568=ORIENTED_EDGE('',*,*,#404,.T.);
#569=ORIENTED_EDGE('',*,*,#409,.T.);
#570=ORIENTED_EDGE('',*,*,#392,.T.);
#571=ORIENTED_EDGE('',*,*,#437,.T.);
#572=ORIENTED_EDGE('',*,*,#435,.T.);
#573=ORIENTED_EDGE('',*,*,#429,.F.);
#574=ORIENTED_EDGE('',*,*,#443,.F.);
#575=ORIENTED_EDGE('',*,*,#441,.T.);
#576=ORIENTED_EDGE('',*,*,#439,.T.);
#577=ORIENTED_EDGE('',*,*,#444,.T.);
#578=ORIENTED_EDGE('',*,*,#445,.F.);
#579=ORIENTED_EDGE('',*,*,#446,.T.);
#580=ORIENTED_EDGE('',*,*,#428,.F.);
#581=ORIENTED_EDGE('',*,*,#432,.T.);
#582=ORIENTED_EDGE('',*,*,#442,.T.);
#583=ORIENTED_EDGE('',*,*,#443,.T.);
#584=ORIENTED_EDGE('',*,*,#398,.F.);
#585=ORIENTED_EDGE('',*,*,#447,.T.);
#586=ORIENTED_EDGE('',*,*,#448,.T.);
#587=ORIENTED_EDGE('',*,*,#449,.F.);
#588=ORIENTED_EDGE('',*,*,#403,.F.);
#589=ORIENTED_EDGE('',*,*,#450,.T.);
#590=ORIENTED_EDGE('',*,*,#451,.T.);
#591=ORIENTED_EDGE('',*,*,#447,.F.);
#592=ORIENTED_EDGE('',*,*,#402,.F.);
#593=ORIENTED_EDGE('',*,*,#452,.T.);
#594=ORIENTED_EDGE('',*,*,#453,.T.);
#595=ORIENTED_EDGE('',*,*,#450,.F.);
#596=ORIENTED_EDGE('',*,*,#401,.F.);
#597=ORIENTED_EDGE('',*,*,#454,.T.);
#598=ORIENTED_EDGE('',*,*,#455,.T.);
#599=ORIENTED_EDGE('',*,*,#452,.F.);
#600=ORIENTED_EDGE('',*,*,#400,.F.);
#601=ORIENTED_EDGE('',*,*,#456,.T.);
#602=ORIENTED_EDGE('',*,*,#457,.T.);
#603=ORIENTED_EDGE('',*,*,#454,.F.);
#604=ORIENTED_EDGE('',*,*,#399,.F.);
#605=ORIENTED_EDGE('',*,*,#449,.T.);
#606=ORIENTED_EDGE('',*,*,#458,.T.);
#607=ORIENTED_EDGE('',*,*,#456,.F.);
#608=ORIENTED_EDGE('',*,*,#458,.F.);
#609=ORIENTED_EDGE('',*,*,#448,.F.);
#610=ORIENTED_EDGE('',*,*,#451,.F.);
#611=ORIENTED_EDGE('',*,*,#453,.F.);
#612=ORIENTED_EDGE('',*,*,#455,.F.);
#613=ORIENTED_EDGE('',*,*,#457,.F.);
#614=ORIENTED_EDGE('',*,*,#459,.F.);
#615=ORIENTED_EDGE('',*,*,#421,.F.);
#616=ORIENTED_EDGE('',*,*,#460,.T.);
#617=ORIENTED_EDGE('',*,*,#461,.T.);
#618=ORIENTED_EDGE('',*,*,#462,.F.);
#619=ORIENTED_EDGE('',*,*,#426,.F.);
#620=ORIENTED_EDGE('',*,*,#463,.T.);
#621=ORIENTED_EDGE('',*,*,#464,.T.);
#622=ORIENTED_EDGE('',*,*,#460,.F.);
#623=ORIENTED_EDGE('',*,*,#425,.F.);
#624=ORIENTED_EDGE('',*,*,#465,.T.);
#625=ORIENTED_EDGE('',*,*,#466,.T.);
#626=ORIENTED_EDGE('',*,*,#463,.F.);
#627=ORIENTED_EDGE('',*,*,#424,.F.);
#628=ORIENTED_EDGE('',*,*,#467,.T.);
#629=ORIENTED_EDGE('',*,*,#468,.T.);
#630=ORIENTED_EDGE('',*,*,#465,.F.);
#631=ORIENTED_EDGE('',*,*,#423,.F.);
#632=ORIENTED_EDGE('',*,*,#469,.T.);
#633=ORIENTED_EDGE('',*,*,#470,.T.);
#634=ORIENTED_EDGE('',*,*,#467,.F.);
#635=ORIENTED_EDGE('',*,*,#422,.F.);
#636=ORIENTED_EDGE('',*,*,#462,.T.);
#637=ORIENTED_EDGE('',*,*,#471,.T.);
#638=ORIENTED_EDGE('',*,*,#469,.F.);
#639=ORIENTED_EDGE('',*,*,#471,.F.);
#640=ORIENTED_EDGE('',*,*,#461,.F.);
#641=ORIENTED_EDGE('',*,*,#464,.F.);
#642=ORIENTED_EDGE('',*,*,#466,.F.);
#643=ORIENTED_EDGE('',*,*,#468,.F.);
#644=ORIENTED_EDGE('',*,*,#470,.F.);
#645=ORIENTED_EDGE('',*,*,#472,.F.);
#646=ORIENTED_EDGE('',*,*,#386,.T.);
#647=ORIENTED_EDGE('',*,*,#473,.T.);
#648=ORIENTED_EDGE('',*,*,#419,.T.);
#649=ORIENTED_EDGE('',*,*,#474,.T.);
#650=ORIENTED_EDGE('',*,*,#474,.F.);
#651=ORIENTED_EDGE('',*,*,#418,.T.);
#652=ORIENTED_EDGE('',*,*,#475,.T.);
#653=ORIENTED_EDGE('',*,*,#387,.F.);
#654=ORIENTED_EDGE('',*,*,#396,.T.);
#655=ORIENTED_EDGE('',*,*,#476,.T.);
#656=ORIENTED_EDGE('',*,*,#413,.T.);
#657=ORIENTED_EDGE('',*,*,#477,.T.);
#658=ORIENTED_EDGE('',*,*,#476,.F.);
#659=ORIENTED_EDGE('',*,*,#395,.F.);
#660=ORIENTED_EDGE('',*,*,#478,.F.);
#661=ORIENTED_EDGE('',*,*,#414,.T.);
#662=ORIENTED_EDGE('',*,*,#459,.T.);
#663=ORIENTED_EDGE('',*,*,#479,.T.);
#664=ORIENTED_EDGE('',*,*,#472,.T.);
#665=ORIENTED_EDGE('',*,*,#479,.F.);
#666=ORIENTED_EDGE('',*,*,#477,.F.);
#667=ORIENTED_EDGE('',*,*,#412,.F.);
#668=ORIENTED_EDGE('',*,*,#382,.T.);
#669=ORIENTED_EDGE('',*,*,#397,.F.);
#670=ORIENTED_EDGE('',*,*,#415,.T.);
#671=ORIENTED_EDGE('',*,*,#478,.T.);
#672=ORIENTED_EDGE('',*,*,#394,.F.);
#673=ORIENTED_EDGE('',*,*,#408,.T.);
#674=ORIENTED_EDGE('',*,*,#440,.F.);
#675=ORIENTED_EDGE('',*,*,#446,.F.);
#676=ORIENTED_EDGE('',*,*,#480,.F.);
#677=ORIENTED_EDGE('',*,*,#445,.T.);
#678=ORIENTED_EDGE('',*,*,#481,.F.);
#679=ORIENTED_EDGE('',*,*,#416,.T.);
#680=ORIENTED_EDGE('',*,*,#480,.T.);
#681=ORIENTED_EDGE('',*,*,#417,.T.);
#682=ORIENTED_EDGE('',*,*,#481,.T.);
#683=ORIENTED_EDGE('',*,*,#444,.F.);
#684=ORIENTED_EDGE('',*,*,#438,.F.);
#685=ORIENTED_EDGE('',*,*,#406,.T.);
#686=ORIENTED_EDGE('',*,*,#388,.F.);
#687=ORIENTED_EDGE('',*,*,#475,.F.);
#688=ORIENTED_EDGE('',*,*,#473,.F.);
#689=ORIENTED_EDGE('',*,*,#385,.F.);
#690=ORIENTED_EDGE('',*,*,#411,.F.);
#691=ORIENTED_EDGE('',*,*,#420,.F.);
#692=PLANE('',#780);
#693=PLANE('',#781);
#694=PLANE('',#782);
#695=PLANE('',#785);
#696=PLANE('',#786);
#697=PLANE('',#787);
#698=PLANE('',#788);
#699=PLANE('',#794);
#700=PLANE('',#795);
#701=PLANE('',#796);
#702=PLANE('',#797);
#703=PLANE('',#798);
#704=PLANE('',#799);
#705=PLANE('',#800);
#706=PLANE('',#801);
#707=PLANE('',#802);
#708=PLANE('',#803);
#709=PLANE('',#804);
#710=PLANE('',#805);
#711=PLANE('',#806);
#712=PLANE('',#807);
#713=PLANE('',#809);
#714=PLANE('',#810);
#715=PLANE('',#811);
#716=PLANE('',#812);
#717=PLANE('',#813);
#718=PLANE('',#814);
#719=PLANE('',#815);
#720=PLANE('',#818);
#721=PLANE('',#820);
#722=PLANE('',#822);
#723=PLANE('',#823);
#724=PLANE('',#824);
#725=PLANE('',#825);
#726=PLANE('',#826);
#727=ADVANCED_FACE('',(#31),#692,.F.);
#728=ADVANCED_FACE('',(#32),#693,.T.);
#729=ADVANCED_FACE('',(#33,#19),#694,.T.);
#730=ADVANCED_FACE('',(#34),#695,.F.);
#731=ADVANCED_FACE('',(#35),#696,.F.);
#732=ADVANCED_FACE('',(#36),#697,.T.);
#733=ADVANCED_FACE('',(#37,#20),#698,.F.);
#734=ADVANCED_FACE('',(#38),#15,.T.);
#735=ADVANCED_FACE('',(#39),#699,.T.);
#736=ADVANCED_FACE('',(#40),#700,.F.);
#737=ADVANCED_FACE('',(#41),#701,.F.);
#738=ADVANCED_FACE('',(#42),#702,.F.);
#739=ADVANCED_FACE('',(#43),#703,.T.);
#740=ADVANCED_FACE('',(#44),#704,.T.);
#741=ADVANCED_FACE('',(#45),#705,.T.);
#742=ADVANCED_FACE('',(#46),#706,.F.);
#743=ADVANCED_FACE('',(#47),#707,.F.);
#744=ADVANCED_FACE('',(#48),#708,.F.);
#745=ADVANCED_FACE('',(#49),#709,.F.);
#746=ADVANCED_FACE('',(#50),#710,.F.);
#747=ADVANCED_FACE('',(#51),#711,.F.);
#748=ADVANCED_FACE('',(#52,#21),#712,.T.);
#749=ADVANCED_FACE('',(#53),#713,.F.);
#750=ADVANCED_FACE('',(#54),#714,.F.);
#751=ADVANCED_FACE('',(#55),#715,.F.);
#752=ADVANCED_FACE('',(#56),#716,.F.);
#753=ADVANCED_FACE('',(#57),#717,.F.);
#754=ADVANCED_FACE('',(#58),#718,.F.);
#755=ADVANCED_FACE('',(#59,#22),#719,.F.);
#756=ADVANCED_FACE('',(#60),#16,.T.);
#757=ADVANCED_FACE('',(#61),#720,.T.);
#758=ADVANCED_FACE('',(#62),#17,.T.);
#759=ADVANCED_FACE('',(#63),#721,.T.);
#760=ADVANCED_FACE('',(#64),#18,.F.);
#761=ADVANCED_FACE('',(#65),#722,.T.);
#762=ADVANCED_FACE('',(#66),#723,.T.);
#763=ADVANCED_FACE('',(#67),#724,.T.);
#764=ADVANCED_FACE('',(#68),#725,.T.);
#765=ADVANCED_FACE('',(#69),#726,.T.);
#766=CLOSED_SHELL('',(#727,#728,#729,#730,#731,#732,#733,#734,#735,#736,
#737,#738,#739,#740,#741,#742,#743,#744,#745,#746,#747,#748,#749,#750,#751,
#752,#753,#754,#755,#756,#757,#758,#759,#760,#761,#762,#763,#764,#765));
#767=DERIVED_UNIT_ELEMENT(#769,1.);
#768=DERIVED_UNIT_ELEMENT(#1240,-3.);
#769=(
MASS_UNIT()
NAMED_UNIT(*)
SI_UNIT(.KILO.,.GRAM.)
);
#770=DERIVED_UNIT((#767,#768));
#771=MEASURE_REPRESENTATION_ITEM('density measure',
POSITIVE_RATIO_MEASURE(7850.),#770);
#772=PROPERTY_DEFINITION_REPRESENTATION(#777,#774);
#773=PROPERTY_DEFINITION_REPRESENTATION(#778,#775);
#774=REPRESENTATION('material name',(#776),#1237);
#775=REPRESENTATION('density',(#771),#1237);
#776=DESCRIPTIVE_REPRESENTATION_ITEM('Acier','Acier');
#777=PROPERTY_DEFINITION('material property','material name',#1247);
#778=PROPERTY_DEFINITION('material property','density of part',#1247);
#779=AXIS2_PLACEMENT_3D('',#1020,#827,#828);
#780=AXIS2_PLACEMENT_3D('',#1021,#829,#830);
#781=AXIS2_PLACEMENT_3D('',#1030,#835,#836);
#782=AXIS2_PLACEMENT_3D('',#1036,#840,#841);
#783=AXIS2_PLACEMENT_3D('',#1042,#844,#845);
#784=AXIS2_PLACEMENT_3D('',#1062,#855,#856);
#785=AXIS2_PLACEMENT_3D('',#1076,#864,#865);
#786=AXIS2_PLACEMENT_3D('',#1082,#869,#870);
#787=AXIS2_PLACEMENT_3D('',#1088,#874,#875);
#788=AXIS2_PLACEMENT_3D('',#1092,#878,#879);
#789=AXIS2_PLACEMENT_3D('',#1096,#881,#882);
#790=AXIS2_PLACEMENT_3D('',#1108,#888,#889);
#791=AXIS2_PLACEMENT_3D('',#1122,#897,#898);
#792=AXIS2_PLACEMENT_3D('',#1125,#899,#900);
#793=AXIS2_PLACEMENT_3D('',#1129,#902,#903);
#794=AXIS2_PLACEMENT_3D('',#1131,#905,#906);
#795=AXIS2_PLACEMENT_3D('',#1138,#911,#912);
#796=AXIS2_PLACEMENT_3D('',#1142,#915,#916);
#797=AXIS2_PLACEMENT_3D('',#1144,#918,#919);
#798=AXIS2_PLACEMENT_3D('',#1153,#925,#926);
#799=AXIS2_PLACEMENT_3D('',#1155,#928,#929);
#800=AXIS2_PLACEMENT_3D('',#1161,#933,#934);
#801=AXIS2_PLACEMENT_3D('',#1162,#935,#936);
#802=AXIS2_PLACEMENT_3D('',#1168,#940,#941);
#803=AXIS2_PLACEMENT_3D('',#1172,#944,#945);
#804=AXIS2_PLACEMENT_3D('',#1176,#948,#949);
#805=AXIS2_PLACEMENT_3D('',#1180,#952,#953);
#806=AXIS2_PLACEMENT_3D('',#1184,#956,#957);
#807=AXIS2_PLACEMENT_3D('',#1186,#959,#960);
#808=AXIS2_PLACEMENT_3D('',#1188,#961,#962);
#809=AXIS2_PLACEMENT_3D('',#1189,#963,#964);
#810=AXIS2_PLACEMENT_3D('',#1195,#968,#969);
#811=AXIS2_PLACEMENT_3D('',#1199,#972,#973);
#812=AXIS2_PLACEMENT_3D('',#1203,#976,#977);
#813=AXIS2_PLACEMENT_3D('',#1207,#980,#981);
#814=AXIS2_PLACEMENT_3D('',#1211,#984,#985);
#815=AXIS2_PLACEMENT_3D('',#1213,#987,#988);
#816=AXIS2_PLACEMENT_3D('',#1215,#989,#990);
#817=AXIS2_PLACEMENT_3D('',#1216,#991,#992);
#818=AXIS2_PLACEMENT_3D('',#1219,#995,#996);
#819=AXIS2_PLACEMENT_3D('',#1221,#998,#999);
#820=AXIS2_PLACEMENT_3D('',#1224,#1002,#1003);
#821=AXIS2_PLACEMENT_3D('',#1226,#1005,#1006);
#822=AXIS2_PLACEMENT_3D('',#1228,#1008,#1009);
#823=AXIS2_PLACEMENT_3D('',#1229,#1010,#1011);
#824=AXIS2_PLACEMENT_3D('',#1231,#1013,#1014);
#825=AXIS2_PLACEMENT_3D('',#1233,#1016,#1017);
#826=AXIS2_PLACEMENT_3D('',#1234,#1018,#1019);
#827=DIRECTION('axis',(0.,0.,1.));
#828=DIRECTION('refdir',(1.,0.,0.));
#829=DIRECTION('center_axis',(0.,0.,1.));
#830=DIRECTION('ref_axis',(1.,0.,0.));
#831=DIRECTION('',(1.,0.,0.));
#832=DIRECTION('',(0.,-1.,0.));
#833=DIRECTION('',(-1.,0.,0.));
#834=DIRECTION('',(0.,1.,0.));
#835=DIRECTION('center_axis',(1.,0.,1.00359143468941E-15));
#836=DIRECTION('ref_axis',(1.00359143468941E-15,0.,-1.));
#837=DIRECTION('',(1.00359143468941E-15,0.,-1.));
#838=DIRECTION('',(0.,1.,0.));
#839=DIRECTION('',(1.00359143468941E-15,0.,-1.));
#840=DIRECTION('center_axis',(0.,1.,0.));
#841=DIRECTION('ref_axis',(1.,0.,0.));
#842=DIRECTION('',(0.,0.,1.));
#843=DIRECTION('',(-0.707106781186544,0.,0.707106781186551));
#844=DIRECTION('center_axis',(0.,-1.,0.));
#845=DIRECTION('ref_axis',(-1.,0.,7.065416064077E-15));
#846=DIRECTION('',(0.707106781186551,0.,0.707106781186544));
#847=DIRECTION('',(0.,0.,1.));
#848=DIRECTION('',(-1.,0.,0.));
#849=DIRECTION('',(0.,0.,1.));
#850=DIRECTION('',(1.,0.,0.));
#851=DIRECTION('',(0.,0.,1.));
#852=DIRECTION('',(-1.,0.,0.));
#853=DIRECTION('',(0.,0.,-1.));
#854=DIRECTION('',(0.707106781186546,0.,-0.707106781186549));
#855=DIRECTION('center_axis',(0.,-1.,0.));
#856=DIRECTION('ref_axis',(1.,0.,-3.14018491736756E-15));
#857=DIRECTION('',(-0.707106781186546,0.,-0.707106781186549));
#858=DIRECTION('',(-0.834655622316273,0.,0.550772178069876));
#859=DIRECTION('',(-0.894310509064336,0.,-0.447446883302464));
#860=DIRECTION('',(-0.0596548867480629,0.,-0.99821906137234));
#861=DIRECTION('',(0.834655622316273,0.,-0.550772178069876));
#862=DIRECTION('',(0.894310509064336,0.,0.447446883302464));
#863=DIRECTION('',(0.0596548867480629,0.,0.99821906137234));
#864=DIRECTION('center_axis',(0.,0.,1.));
#865=DIRECTION('ref_axis',(1.,0.,0.));
#866=DIRECTION('',(1.,0.,0.));
#867=DIRECTION('',(-5.55111512312578E-16,-1.,0.));
#868=DIRECTION('',(0.,1.,0.));
#869=DIRECTION('center_axis',(0.,0.,1.));
#870=DIRECTION('ref_axis',(1.,0.,0.));
#871=DIRECTION('',(1.,0.,0.));
#872=DIRECTION('',(0.,-1.,0.));
#873=DIRECTION('',(0.,1.,0.));
#874=DIRECTION('center_axis',(-1.,0.,0.));
#875=DIRECTION('ref_axis',(0.,0.,1.));
#876=DIRECTION('',(0.,0.,1.));
#877=DIRECTION('',(0.,1.,0.));
#878=DIRECTION('center_axis',(0.,1.,0.));
#879=DIRECTION('ref_axis',(1.,0.,0.));
#880=DIRECTION('',(0.707106781186546,0.,0.707106781186549));
#881=DIRECTION('center_axis',(0.,1.,0.));
#882=DIRECTION('ref_axis',(1.,0.,-3.14018491736756E-15));
#883=DIRECTION('',(0.707106781186546,0.,-0.707106781186549));
#884=DIRECTION('',(1.00359143468941E-15,0.,-1.));
#885=DIRECTION('',(1.,0.,0.));
#886=DIRECTION('',(0.,0.,1.));
#887=DIRECTION('',(0.707106781186551,0.,0.707106781186544));
#888=DIRECTION('center_axis',(0.,1.,0.));
#889=DIRECTION('ref_axis',(-1.,0.,7.065416064077E-15));
#890=DIRECTION('',(0.707106781186544,0.,-0.707106781186551));
#891=DIRECTION('',(0.573673835382627,0.,-0.819083836122644));
#892=DIRECTION('',(-0.422510492220106,0.,-0.90635803298913));
#893=DIRECTION('',(-0.996184327602733,0.,-0.0872741968664847));
#894=DIRECTION('',(-0.573673835382627,0.,0.819083836122644));
#895=DIRECTION('',(0.422510492220106,0.,0.906358032989129));
#896=DIRECTION('',(0.996184327602733,0.,0.0872741968664849));
#897=DIRECTION('center_axis',(-1.,0.,0.));
#898=DIRECTION('ref_axis',(0.,0.863378171469715,0.504557363467833));
#899=DIRECTION('center_axis',(1.,-5.55111512312578E-16,0.));
#900=DIRECTION('ref_axis',(0.,0.863378171469715,0.504557363467833));
#901=DIRECTION('',(1.,0.,0.));
#902=DIRECTION('center_axis',(-1.,0.,0.));
#903=DIRECTION('ref_axis',(0.,0.863378171469715,0.504557363467833));
#904=DIRECTION('',(-1.,0.,0.));
#905=DIRECTION('center_axis',(-1.,5.55111512312578E-16,0.));
#906=DIRECTION('ref_axis',(-5.55111512312578E-16,-1.,0.));
#907=DIRECTION('',(2.59879102944832E-16,0.468156572473489,0.88364553054371));
#908=DIRECTION('',(-5.55111512312578E-16,-1.,0.));
#909=DIRECTION('',(-2.72473007457017E-16,-0.490843733940776,-0.871247627744878));
#910=DIRECTION('',(5.55111512312578E-16,1.,0.));
#911=DIRECTION('center_axis',(0.,-0.871247627744878,0.490843733940776));
#912=DIRECTION('ref_axis',(0.,-0.490843733940776,-0.871247627744878));
#913=DIRECTION('',(0.,0.490843733940776,0.871247627744878));
#914=DIRECTION('',(1.,0.,0.));
#915=DIRECTION('center_axis',(0.,0.,-1.));
#916=DIRECTION('ref_axis',(0.,1.,0.));
#917=DIRECTION('',(0.,-1.,0.));
#918=DIRECTION('center_axis',(0.,0.88364553054371,-0.468156572473489));
#919=DIRECTION('ref_axis',(0.,0.468156572473489,0.88364553054371));
#920=DIRECTION('',(0.,-0.468156572473489,-0.88364553054371));
#921=DIRECTION('',(-1.,1.490232247819E-16,2.81281336775836E-16));
#922=DIRECTION('',(0.,0.468156572473489,0.88364553054371));
#923=DIRECTION('',(0.,-0.468156572473489,-0.88364553054371));
#924=DIRECTION('',(1.,0.,0.));
#925=DIRECTION('center_axis',(1.,0.,0.));
#926=DIRECTION('ref_axis',(0.,1.,0.));
#927=DIRECTION('',(0.,1.,0.));
#928=DIRECTION('center_axis',(-1.490232247819E-16,-1.,0.));
#929=DIRECTION('ref_axis',(1.,-1.490232247819E-16,0.));
#930=DIRECTION('',(0.,0.,-1.));
#931=DIRECTION('',(-1.,1.490232247819E-16,0.));
#932=DIRECTION('',(0.,0.,1.));
#933=DIRECTION('center_axis',(0.,0.,1.));
#934=DIRECTION('ref_axis',(1.,0.,0.));
#935=DIRECTION('center_axis',(0.550772178069876,0.,0.834655622316273));
#936=DIRECTION('ref_axis',(-0.834655622316273,0.,0.550772178069876));
#937=DIRECTION('',(0.,-1.,0.));
#938=DIRECTION('',(-0.834655622316273,0.,0.550772178069876));
#939=DIRECTION('',(0.,-1.,0.));
#940=DIRECTION('center_axis',(0.99821906137234,0.,-0.0596548867480629));
#941=DIRECTION('ref_axis',(0.0596548867480629,0.,0.99821906137234));
#942=DIRECTION('',(0.,-1.,0.));
#943=DIRECTION('',(0.0596548867480629,0.,0.99821906137234));
#944=DIRECTION('center_axis',(0.447446883302464,0.,-0.894310509064336));
#945=DIRECTION('ref_axis',(0.894310509064336,0.,0.447446883302464));
#946=DIRECTION('',(0.,-1.,0.));
#947=DIRECTION('',(0.894310509064336,0.,0.447446883302464));
#948=DIRECTION('center_axis',(-0.550772178069876,0.,-0.834655622316273));
#949=DIRECTION('ref_axis',(0.834655622316273,0.,-0.550772178069876));
#950=DIRECTION('',(0.,-1.,0.));
#951=DIRECTION('',(0.834655622316273,0.,-0.550772178069876));
#952=DIRECTION('center_axis',(-0.99821906137234,0.,0.0596548867480629));
#953=DIRECTION('ref_axis',(-0.0596548867480629,0.,-0.99821906137234));
#954=DIRECTION('',(0.,-1.,0.));
#955=DIRECTION('',(-0.0596548867480629,0.,-0.99821906137234));
#956=DIRECTION('center_axis',(-0.447446883302464,0.,0.894310509064336));
#957=DIRECTION('ref_axis',(-0.894310509064336,0.,-0.447446883302464));
#958=DIRECTION('',(-0.894310509064336,0.,-0.447446883302464));
#959=DIRECTION('center_axis',(0.,1.,0.));
#960=DIRECTION('ref_axis',(-1.,0.,0.));
#961=DIRECTION('center_axis',(0.,1.,0.));
#962=DIRECTION('ref_axis',(1.,0.,0.));
#963=DIRECTION('center_axis',(0.819083836122644,0.,0.573673835382627));
#964=DIRECTION('ref_axis',(0.573673835382627,0.,-0.819083836122644));
#965=DIRECTION('',(0.,1.,0.));
#966=DIRECTION('',(0.573673835382627,0.,-0.819083836122644));
#967=DIRECTION('',(0.,1.,0.));
#968=DIRECTION('center_axis',(-0.0872741968664849,0.,0.996184327602733));
#969=DIRECTION('ref_axis',(0.996184327602733,0.,0.0872741968664849));
#970=DIRECTION('',(0.,1.,0.));
#971=DIRECTION('',(0.996184327602733,0.,0.0872741968664849));
#972=DIRECTION('center_axis',(-0.90635803298913,0.,0.422510492220106));
#973=DIRECTION('ref_axis',(0.422510492220106,0.,0.906358032989129));
#974=DIRECTION('',(0.,1.,0.));
#975=DIRECTION('',(0.422510492220106,0.,0.906358032989129));
#976=DIRECTION('center_axis',(-0.819083836122644,0.,-0.573673835382627));
#977=DIRECTION('ref_axis',(-0.573673835382627,0.,0.819083836122644));
#978=DIRECTION('',(0.,1.,0.));
#979=DIRECTION('',(-0.573673835382627,0.,0.819083836122644));
#980=DIRECTION('center_axis',(0.0872741968664847,0.,-0.996184327602733));
#981=DIRECTION('ref_axis',(-0.996184327602733,0.,-0.0872741968664847));
#982=DIRECTION('',(0.,1.,0.));
#983=DIRECTION('',(-0.996184327602733,0.,-0.0872741968664847));
#984=DIRECTION('center_axis',(0.90635803298913,0.,-0.422510492220106));
#985=DIRECTION('ref_axis',(-0.422510492220106,0.,-0.90635803298913));
#986=DIRECTION('',(-0.422510492220106,0.,-0.90635803298913));
#987=DIRECTION('center_axis',(0.,1.,0.));
#988=DIRECTION('ref_axis',(1.,0.,0.));
#989=DIRECTION('center_axis',(0.,-1.,0.));
#990=DIRECTION('ref_axis',(1.,0.,0.));
#991=DIRECTION('center_axis',(0.,1.,0.));
#992=DIRECTION('ref_axis',(-1.,0.,7.065416064077E-15));
#993=DIRECTION('',(0.,-1.,0.));
#994=DIRECTION('',(0.,1.,0.));
#995=DIRECTION('center_axis',(-0.707106781186544,0.,0.707106781186551));
#996=DIRECTION('ref_axis',(0.707106781186551,0.,0.707106781186544));
#997=DIRECTION('',(0.,1.,0.));
#998=DIRECTION('center_axis',(0.,1.,0.));
#999=DIRECTION('ref_axis',(1.,0.,-3.14018491736756E-15));
#1000=DIRECTION('',(0.,-1.,0.));
#1001=DIRECTION('',(0.,1.,0.));
#1002=DIRECTION('center_axis',(0.707106781186549,0.,0.707106781186546));
#1003=DIRECTION('ref_axis',(0.707106781186546,0.,-0.707106781186549));
#1004=DIRECTION('',(0.,1.,0.));
#1005=DIRECTION('center_axis',(0.,1.,0.));
#1006=DIRECTION('ref_axis',(1.,0.,0.));
#1007=DIRECTION('',(0.,-1.,0.));
#1008=DIRECTION('center_axis',(0.707106781186549,0.,-0.707106781186546));
#1009=DIRECTION('ref_axis',(-0.707106781186546,0.,-0.707106781186549));
#1010=DIRECTION('center_axis',(1.,0.,1.00359143468941E-15));
#1011=DIRECTION('ref_axis',(1.00359143468941E-15,0.,-1.));
#1012=DIRECTION('',(0.,1.,0.));
#1013=DIRECTION('center_axis',(0.,0.,1.));
#1014=DIRECTION('ref_axis',(1.,0.,0.));
#1015=DIRECTION('',(0.,1.,0.));
#1016=DIRECTION('center_axis',(-1.,0.,0.));
#1017=DIRECTION('ref_axis',(0.,0.,1.));
#1018=DIRECTION('center_axis',(-0.707106781186551,0.,-0.707106781186544));
#1019=DIRECTION('ref_axis',(-0.707106781186544,0.,0.707106781186551));
#1020=CARTESIAN_POINT('',(0.,0.,0.));
#1021=CARTESIAN_POINT('Origin',(120.,0.,-9.77184421726811));
#1022=CARTESIAN_POINT('',(79.2,0.,-9.77184421726811));
#1023=CARTESIAN_POINT('',(120.,0.,-9.77184421726811));
#1024=CARTESIAN_POINT('',(109.8,0.,-9.77184421726811));
#1025=CARTESIAN_POINT('',(79.2,19.7,-9.77184421726811));
#1026=CARTESIAN_POINT('',(79.2,0.,-9.77184421726811));
#1027=CARTESIAN_POINT('',(120.,19.7,-9.77184421726811));
#1028=CARTESIAN_POINT('',(109.8,19.7,-9.77184421726811));
#1029=CARTESIAN_POINT('',(120.,0.,-9.77184421726811));
#1030=CARTESIAN_POINT('Origin',(120.,0.,-6.37184421726811));
#1031=CARTESIAN_POINT('',(120.,19.7,-6.37184421726812));
#1032=CARTESIAN_POINT('',(120.,19.7,7.47815578273189));
#1033=CARTESIAN_POINT('',(120.,0.,-6.37184421726812));
#1034=CARTESIAN_POINT('',(120.,0.,-6.37184421726812));
#1035=CARTESIAN_POINT('',(120.,0.,7.47815578273189));
#1036=CARTESIAN_POINT('Origin',(99.6,19.7,-1.37184421726811));
#1037=CARTESIAN_POINT('',(79.2,19.7,-6.37184421726811));
#1038=CARTESIAN_POINT('',(79.2,19.7,-10.2218442172681));
#1039=CARTESIAN_POINT('',(74.9071067811865,19.7,-2.07895099845462));
#1040=CARTESIAN_POINT('',(74.2,19.7,-1.37184421726807));
#1041=CARTESIAN_POINT('',(74.9071067811865,19.7,-0.664737436081526));
#1042=CARTESIAN_POINT('Origin',(75.6142135623731,19.7,-1.37184421726808));
#1043=CARTESIAN_POINT('',(79.2,19.7,3.62815578273189));
#1044=CARTESIAN_POINT('',(74.2,19.7,-1.37184421726807));
#1045=CARTESIAN_POINT('',(79.2,19.7,8.07815578273189));
#1046=CARTESIAN_POINT('',(79.2,19.7,-10.2218442172681));
#1047=CARTESIAN_POINT('',(69.6601481420398,19.7,8.07815578273189));
#1048=CARTESIAN_POINT('',(99.5300740710199,19.7,8.07815578273189));
#1049=CARTESIAN_POINT('',(69.6601481420398,19.7,11.9281557827319));
#1050=CARTESIAN_POINT('',(69.6601481420398,19.7,7.47815578273189));
#1051=CARTESIAN_POINT('',(129.26014814204,19.7,11.9281557827319));
#1052=CARTESIAN_POINT('',(84.6300740710199,19.7,11.9281557827319));
#1053=CARTESIAN_POINT('',(129.26014814204,19.7,8.07815578273189));
#1054=CARTESIAN_POINT('',(129.26014814204,19.7,7.47815578273189));
#1055=CARTESIAN_POINT('',(120.,19.7,8.07815578273189));
#1056=CARTESIAN_POINT('',(99.5300740710199,19.7,8.07815578273189));
#1057=CARTESIAN_POINT('',(120.,19.7,3.62815578273188));
#1058=CARTESIAN_POINT('',(120.,19.7,3.05315578273189));
#1059=CARTESIAN_POINT('',(124.292893218813,19.7,-0.664737436081567));
#1060=CARTESIAN_POINT('',(120.,19.7,3.62815578273188));
#1061=CARTESIAN_POINT('',(124.292893218813,19.7,-2.07895099845466));
#1062=CARTESIAN_POINT('Origin',(123.585786437627,19.7,-1.37184421726811));
#1063=CARTESIAN_POINT('',(120.,19.7,-6.37184421726812));
#1064=CARTESIAN_POINT('',(103.825617155329,19.7,0.74234230633605));
#1065=CARTESIAN_POINT('',(99.8818693398846,19.7,3.34474084771621));
#1066=CARTESIAN_POINT('',(102.839680201468,19.7,1.39294194168109));
#1067=CARTESIAN_POINT('',(95.6562521845556,19.7,1.23055432411207));
#1068=CARTESIAN_POINT('',(98.8254650510524,19.7,2.81619421681518));
#1069=CARTESIAN_POINT('',(95.374382844671,19.7,-3.48603074087224));
#1070=CARTESIAN_POINT('',(95.5857848495845,19.7,0.0514080578659863));
#1071=CARTESIAN_POINT('',(99.3181306601154,19.7,-6.0884292822524));
#1072=CARTESIAN_POINT('',(96.3603197985321,19.7,-4.13663037621728));
#1073=CARTESIAN_POINT('',(103.543747815444,19.7,-3.97424275864826));
#1074=CARTESIAN_POINT('',(100.374534948948,19.7,-5.55988265135137));
#1075=CARTESIAN_POINT('',(103.614215150416,19.7,-2.79509649240219));
#1076=CARTESIAN_POINT('Origin',(99.4601481420398,11.7,8.07815578273189));
#1077=CARTESIAN_POINT('',(69.6601481420398,3.77947019867553,8.07815578273189));
#1078=CARTESIAN_POINT('',(79.2,3.77947019867553,8.07815578273189));
#1079=CARTESIAN_POINT('',(84.5601481420398,3.77947019867553,8.07815578273189));
#1080=CARTESIAN_POINT('',(69.6601481420398,15.7,8.07815578273189));
#1081=CARTESIAN_POINT('',(79.2,0.,8.07815578273189));
#1082=CARTESIAN_POINT('Origin',(99.4601481420398,11.7,8.07815578273189));
#1083=CARTESIAN_POINT('',(120.,3.77947019867553,8.07815578273189));
#1084=CARTESIAN_POINT('',(129.26014814204,3.77947019867553,8.07815578273189));
#1085=CARTESIAN_POINT('',(84.5601481420398,3.77947019867553,8.07815578273189));
#1086=CARTESIAN_POINT('',(120.,0.,8.07815578273189));
#1087=CARTESIAN_POINT('',(129.26014814204,7.69999999999999,8.07815578273189));
#1088=CARTESIAN_POINT('Origin',(79.2,0.,-10.2218442172681));
#1089=CARTESIAN_POINT('',(79.2,0.,-6.37184421726811));
#1090=CARTESIAN_POINT('',(79.2,0.,-10.2218442172681));
#1091=CARTESIAN_POINT('',(79.2,0.,-6.37184421726811));
#1092=CARTESIAN_POINT('Origin',(99.6,0.,-1.37184421726811));
#1093=CARTESIAN_POINT('',(124.292893218813,0.,-2.07895099845466));
#1094=CARTESIAN_POINT('',(120.,0.,-6.37184421726812));
#1095=CARTESIAN_POINT('',(124.292893218813,0.,-0.664737436081567));
#1096=CARTESIAN_POINT('Origin',(123.585786437627,0.,-1.37184421726811));
#1097=CARTESIAN_POINT('',(120.,0.,3.62815578273188));
#1098=CARTESIAN_POINT('',(120.,0.,3.62815578273188));
#1099=CARTESIAN_POINT('',(120.,0.,7.47815578273189));
#1100=CARTESIAN_POINT('',(120.,0.,7.47815578273189));
#1101=CARTESIAN_POINT('',(79.2,0.,7.47815578273189));
#1102=CARTESIAN_POINT('',(79.2,0.,7.47815578273189));
#1103=CARTESIAN_POINT('',(79.2,0.,3.62815578273189));
#1104=CARTESIAN_POINT('',(79.2,0.,-10.2218442172681));
#1105=CARTESIAN_POINT('',(74.9071067811865,0.,-0.664737436081526));
#1106=CARTESIAN_POINT('',(74.2,0.,-1.37184421726807));
#1107=CARTESIAN_POINT('',(74.9071067811865,0.,-2.07895099845462));
#1108=CARTESIAN_POINT('Origin',(75.6142135623731,0.,-1.37184421726808));
#1109=CARTESIAN_POINT('',(74.2,0.,-1.37184421726807));
#1110=CARTESIAN_POINT('',(101.59636207574,0.,2.91069748860556));
#1111=CARTESIAN_POINT('',(104.306970947923,0.,-0.959473637073949));
#1112=CARTESIAN_POINT('',(102.274014293786,0.,1.94315470718568));
#1113=CARTESIAN_POINT('',(102.310608872183,0.,-5.2420153429476));
#1114=CARTESIAN_POINT('',(103.807880428988,0.,-2.03010906354237));
#1115=CARTESIAN_POINT('',(97.60363792426,0.,-5.65438592314174));
#1116=CARTESIAN_POINT('',(101.133866135202,0.,-5.34510798799614));
#1117=CARTESIAN_POINT('',(94.8930290520771,0.,-1.78421479746224));
#1118=CARTESIAN_POINT('',(96.9259857062143,0.,-4.68684314172187));
#1119=CARTESIAN_POINT('',(96.8893911278171,0.,2.49832690841141));
#1120=CARTESIAN_POINT('',(95.3921195710121,0.,-0.713579370993835));
#1121=CARTESIAN_POINT('',(98.0661338647978,0.,2.60141955345995));
#1122=CARTESIAN_POINT('Origin',(84.5601481420398,18.8444202047358,14.9781557827319));
#1123=CARTESIAN_POINT('',(69.6601481420398,19.2800440186083,14.7327339157615));
#1124=CARTESIAN_POINT('',(69.6601481420398,18.8444202047358,15.4781557827319));
#1125=CARTESIAN_POINT('Origin',(69.6601481420398,18.8444202047358,14.9781557827319));
#1126=CARTESIAN_POINT('',(129.26014814204,18.8444202047358,15.4781557827319));
#1127=CARTESIAN_POINT('',(84.5601481420398,18.8444202047358,15.4781557827319));
#1128=CARTESIAN_POINT('',(129.26014814204,19.2800440186083,14.7327339157615));
#1129=CARTESIAN_POINT('Origin',(129.26014814204,18.8444202047358,14.9781557827319));
#1130=CARTESIAN_POINT('',(84.5601481420398,19.2800440186083,14.7327339157615));
#1131=CARTESIAN_POINT('Origin',(69.6601481420398,19.7,7.47815578273189));
#1132=CARTESIAN_POINT('',(69.6601481420398,7.70000000000004,15.4781557827319));
#1133=CARTESIAN_POINT('',(69.6601481420398,5.36028560665734,11.0619448652976));
#1134=CARTESIAN_POINT('',(69.6601481420398,19.7,15.4781557827319));
#1135=CARTESIAN_POINT('',(69.6601481420398,17.7,11.9281557827319));
#1136=CARTESIAN_POINT('',(69.6601481420398,17.9894142448427,12.4418660673276));
#1137=CARTESIAN_POINT('',(69.6601481420398,18.7,11.9281557827319));
#1138=CARTESIAN_POINT('Origin',(69.6601481420398,19.7,15.4781557827319));
#1139=CARTESIAN_POINT('',(129.26014814204,17.7,11.9281557827319));
#1140=CARTESIAN_POINT('',(129.26014814204,16.0619936756513,9.02069455701286));
#1141=CARTESIAN_POINT('',(69.6601481420398,17.7,11.9281557827319));
#1142=CARTESIAN_POINT('Origin',(69.6601481420398,17.7,11.9281557827319));
#1143=CARTESIAN_POINT('',(129.26014814204,10.7,11.9281557827319));
#1144=CARTESIAN_POINT('Origin',(69.6601481420398,3.70000000000003,7.92815578273189));
#1145=CARTESIAN_POINT('',(79.2,3.69999999999999,7.92815578273189));
#1146=CARTESIAN_POINT('',(79.2,3.70000000000003,7.92815578273188));
#1147=CARTESIAN_POINT('',(120.,3.69999999999999,7.92815578273189));
#1148=CARTESIAN_POINT('',(69.6601481420398,3.7,7.92815578273182));
#1149=CARTESIAN_POINT('',(120.,5.45336461080103,11.2376314856188));
#1150=CARTESIAN_POINT('',(129.26014814204,7.70000000000004,15.4781557827319));
#1151=CARTESIAN_POINT('',(129.26014814204,3.60692099585634,7.75246916241066));
#1152=CARTESIAN_POINT('',(84.5601481420398,7.70000000000004,15.4781557827319));
#1153=CARTESIAN_POINT('Origin',(129.26014814204,3.69999999999999,7.47815578273189));
#1154=CARTESIAN_POINT('',(129.26014814204,3.69999999999999,15.4781557827319));
#1155=CARTESIAN_POINT('Origin',(69.6601481420398,3.7,7.47815578273189));
#1156=CARTESIAN_POINT('',(79.2,3.69999999999999,7.47815578273189));
#1157=CARTESIAN_POINT('',(79.2,3.69999999999999,7.47815578273189));
#1158=CARTESIAN_POINT('',(120.,3.69999999999999,7.47815578273189));
#1159=CARTESIAN_POINT('',(74.4300740710199,3.7,7.47815578273189));
#1160=CARTESIAN_POINT('',(120.,3.69999999999999,7.47815578273189));
#1161=CARTESIAN_POINT('Origin',(99.4601481420398,11.7,15.4781557827319));
#1162=CARTESIAN_POINT('Origin',(103.825617155329,19.7,0.74234230633605));
#1163=CARTESIAN_POINT('',(103.825617155329,15.55,0.74234230633605));
#1164=CARTESIAN_POINT('',(103.825617155329,19.7,0.74234230633605));
#1165=CARTESIAN_POINT('',(99.8818693398846,15.55,3.34474084771621));
#1166=CARTESIAN_POINT('',(99.8818693398846,15.55,3.34474084771621));
#1167=CARTESIAN_POINT('',(99.8818693398846,19.7,3.34474084771621));
#1168=CARTESIAN_POINT('Origin',(103.543747815444,19.7,-3.97424275864826));
#1169=CARTESIAN_POINT('',(103.543747815444,15.55,-3.97424275864826));
#1170=CARTESIAN_POINT('',(103.543747815444,19.7,-3.97424275864826));
#1171=CARTESIAN_POINT('',(103.825617155329,15.55,0.74234230633605));
#1172=CARTESIAN_POINT('Origin',(99.3181306601154,19.7,-6.0884292822524));
#1173=CARTESIAN_POINT('',(99.3181306601154,15.55,-6.0884292822524));
#1174=CARTESIAN_POINT('',(99.3181306601154,19.7,-6.0884292822524));
#1175=CARTESIAN_POINT('',(103.543747815444,15.55,-3.97424275864826));
#1176=CARTESIAN_POINT('Origin',(95.374382844671,19.7,-3.48603074087224));
#1177=CARTESIAN_POINT('',(95.374382844671,15.55,-3.48603074087224));
#1178=CARTESIAN_POINT('',(95.374382844671,19.7,-3.48603074087224));
#1179=CARTESIAN_POINT('',(99.3181306601154,15.55,-6.0884292822524));
#1180=CARTESIAN_POINT('Origin',(95.6562521845556,19.7,1.23055432411207));
#1181=CARTESIAN_POINT('',(95.6562521845556,15.55,1.23055432411207));
#1182=CARTESIAN_POINT('',(95.6562521845556,19.7,1.23055432411207));
#1183=CARTESIAN_POINT('',(95.374382844671,15.55,-3.48603074087224));
#1184=CARTESIAN_POINT('Origin',(99.8818693398846,19.7,3.34474084771621));
#1185=CARTESIAN_POINT('',(95.6562521845556,15.55,1.23055432411207));
#1186=CARTESIAN_POINT('Origin',(99.6,15.55,-1.37184421726809));
#1187=CARTESIAN_POINT('',(96.95,15.55,-1.37184421726809));
#1188=CARTESIAN_POINT('Origin',(99.6,15.55,-1.37184421726809));
#1189=CARTESIAN_POINT('Origin',(101.59636207574,0.,2.91069748860556));
#1190=CARTESIAN_POINT('',(101.59636207574,4.,2.91069748860556));
#1191=CARTESIAN_POINT('',(101.59636207574,0.,2.91069748860556));
#1192=CARTESIAN_POINT('',(104.306970947923,4.,-0.959473637073949));
#1193=CARTESIAN_POINT('',(101.59636207574,4.,2.91069748860556));
#1194=CARTESIAN_POINT('',(104.306970947923,0.,-0.959473637073949));
#1195=CARTESIAN_POINT('Origin',(96.8893911278171,0.,2.49832690841141));
#1196=CARTESIAN_POINT('',(96.8893911278171,4.,2.49832690841141));
#1197=CARTESIAN_POINT('',(96.8893911278171,0.,2.49832690841141));
#1198=CARTESIAN_POINT('',(96.8893911278171,4.,2.49832690841141));
#1199=CARTESIAN_POINT('Origin',(94.8930290520771,0.,-1.78421479746224));
#1200=CARTESIAN_POINT('',(94.8930290520771,4.,-1.78421479746224));
#1201=CARTESIAN_POINT('',(94.8930290520771,0.,-1.78421479746224));
#1202=CARTESIAN_POINT('',(94.8930290520771,4.,-1.78421479746224));
#1203=CARTESIAN_POINT('Origin',(97.60363792426,0.,-5.65438592314174));
#1204=CARTESIAN_POINT('',(97.60363792426,4.,-5.65438592314174));
#1205=CARTESIAN_POINT('',(97.60363792426,0.,-5.65438592314174));
#1206=CARTESIAN_POINT('',(97.60363792426,4.,-5.65438592314174));
#1207=CARTESIAN_POINT('Origin',(102.310608872183,0.,-5.2420153429476));
#1208=CARTESIAN_POINT('',(102.310608872183,4.,-5.2420153429476));
#1209=CARTESIAN_POINT('',(102.310608872183,0.,-5.2420153429476));
#1210=CARTESIAN_POINT('',(102.310608872183,4.,-5.2420153429476));
#1211=CARTESIAN_POINT('Origin',(104.306970947923,0.,-0.959473637073949));
#1212=CARTESIAN_POINT('',(104.306970947923,4.,-0.959473637073949));
#1213=CARTESIAN_POINT('Origin',(99.6,4.,-1.37184421726809));
#1214=CARTESIAN_POINT('',(96.95,4.,-1.37184421726809));
#1215=CARTESIAN_POINT('Origin',(99.6,4.,-1.37184421726809));
#1216=CARTESIAN_POINT('Origin',(75.6142135623731,0.,-1.37184421726808));
#1217=CARTESIAN_POINT('',(74.9071067811865,0.,-2.07895099845462));
#1218=CARTESIAN_POINT('',(74.9071067811865,0.,-0.664737436081526));
#1219=CARTESIAN_POINT('Origin',(74.2,0.,-1.37184421726807));
#1220=CARTESIAN_POINT('',(79.2,0.,3.62815578273189));
#1221=CARTESIAN_POINT('Origin',(123.585786437627,0.,-1.37184421726811));
#1222=CARTESIAN_POINT('',(124.292893218813,0.,-0.664737436081567));
#1223=CARTESIAN_POINT('',(124.292893218813,0.,-2.07895099845466));
#1224=CARTESIAN_POINT('Origin',(120.,0.,3.62815578273188));
#1225=CARTESIAN_POINT('',(120.,0.,3.62815578273188));
#1226=CARTESIAN_POINT('Origin',(99.6,0.,-1.37184421726809));
#1227=CARTESIAN_POINT('',(96.95,0.,-1.37184421726809));
#1228=CARTESIAN_POINT('Origin',(125.,0.,-1.37184421726812));
#1229=CARTESIAN_POINT('Origin',(120.,0.,7.47815578273189));
#1230=CARTESIAN_POINT('',(120.,0.,7.47815578273189));
#1231=CARTESIAN_POINT('Origin',(79.2,0.,7.47815578273189));
#1232=CARTESIAN_POINT('',(79.2,0.,7.47815578273189));
#1233=CARTESIAN_POINT('Origin',(79.2,0.,3.62815578273189));
#1234=CARTESIAN_POINT('Origin',(79.2,0.,-6.37184421726811));
#1235=UNCERTAINTY_MEASURE_WITH_UNIT(LENGTH_MEASURE(0.01),#1239,
'DISTANCE_ACCURACY_VALUE',
'Maximum model space distance between geometric entities at asserted c
onnectivities');
#1236=UNCERTAINTY_MEASURE_WITH_UNIT(LENGTH_MEASURE(0.01),#1239,
'DISTANCE_ACCURACY_VALUE',
'Maximum model space distance between geometric entities at asserted c
onnectivities');
#1237=(
GEOMETRIC_REPRESENTATION_CONTEXT(3)
GLOBAL_UNCERTAINTY_ASSIGNED_CONTEXT((#1235))
GLOBAL_UNIT_ASSIGNED_CONTEXT((#1239,#1241,#1242))
REPRESENTATION_CONTEXT('','3D')
);
#1238=(
GEOMETRIC_REPRESENTATION_CONTEXT(3)
GLOBAL_UNCERTAINTY_ASSIGNED_CONTEXT((#1236))
GLOBAL_UNIT_ASSIGNED_CONTEXT((#1239,#1241,#1242))
REPRESENTATION_CONTEXT('','3D')
);
#1239=(
LENGTH_UNIT()
NAMED_UNIT(*)
SI_UNIT(.MILLI.,.METRE.)
);
#1240=(
LENGTH_UNIT()
NAMED_UNIT(*)
SI_UNIT($,.METRE.)
);
#1241=(
NAMED_UNIT(*)
PLANE_ANGLE_UNIT()
SI_UNIT($,.RADIAN.)
);
#1242=(
NAMED_UNIT(*)
SI_UNIT($,.STERADIAN.)
SOLID_ANGLE_UNIT()
);
#1243=SHAPE_DEFINITION_REPRESENTATION(#1244,#1245);
#1244=PRODUCT_DEFINITION_SHAPE('',$,#1247);
#1245=SHAPE_REPRESENTATION('',(#779),#1237);
#1246=PRODUCT_DEFINITION_CONTEXT('part definition',#1251,'design');
#1247=PRODUCT_DEFINITION('etau','etau v19',#1248,#1246);
#1248=PRODUCT_DEFINITION_FORMATION('',$,#1253);
#1249=PRODUCT_RELATED_PRODUCT_CATEGORY('etau v19','etau v19',(#1253));
#1250=APPLICATION_PROTOCOL_DEFINITION('international standard',
'automotive_design',2009,#1251);
#1251=APPLICATION_CONTEXT(
'Core Data for Automotive Mechanical Design Process');
#1252=PRODUCT_CONTEXT('part definition',#1251,'mechanical');
#1253=PRODUCT('etau','etau v19',$,(#1252));
#1254=PRESENTATION_STYLE_ASSIGNMENT((#1255));
#1255=SURFACE_STYLE_USAGE(.BOTH.,#1256);
#1256=SURFACE_SIDE_STYLE('',(#1257));
#1257=SURFACE_STYLE_FILL_AREA(#1258);
#1258=FILL_AREA_STYLE('Acier - Satin\X\E9',(#1259));
#1259=FILL_AREA_STYLE_COLOUR('Acier - Satin\X\E9',#1260);
#1260=COLOUR_RGB('Acier - Satin\X\E9',0.627450980392157,0.627450980392157,
0.627450980392157);
ENDSEC;
END-ISO-10303-21;
