ISO-10303-21;
HEADER;
/* Generated by software containing ST-Developer
 * from STEP Tools, Inc. (www.steptools.com) 
 */

FILE_DESCRIPTION(
/* description */ (''),
/* implementation_level */ '2;1');

FILE_NAME(
/* name */ 'fixation_pcb_sur_colonette_double.step',
/* time_stamp */ '2025-11-08T16:31:17+01:00',
/* author */ (''),
/* organization */ (''),
/* preprocessor_version */ 'ST-DEVELOPER v20.1',
/* originating_system */ 'Autodesk Translation Framework v14.17.0.0',
/* authorisation */ '');

FILE_SCHEMA (('AUTOMOTIVE_DESIGN { 1 0 10303 214 3 1 1 }'));
ENDSEC;

DATA;
#10=MECHANICAL_DESIGN_GEOMETRIC_PRESENTATION_REPRESENTATION('',(#13,#14),
#2044);
#11=SHAPE_REPRESENTATION_RELATIONSHIP('SRR','None',#2051,#12);
#12=ADVANCED_BREP_SHAPE_REPRESENTATION('',(#15,#16),#2043);
#13=STYLED_ITEM('',(#2060),#15);
#14=STYLED_ITEM('',(#2060),#16);
#15=MANIFOLD_SOLID_BREP('Corps1',#1255);
#16=MANIFOLD_SOLID_BREP('Corps2',#1256);
#17=FACE_BOUND('',#156,.T.);
#18=FACE_BOUND('',#164,.T.);
#19=FACE_BOUND('',#166,.T.);
#20=FACE_BOUND('',#179,.T.);
#21=FACE_BOUND('',#180,.T.);
#22=FACE_BOUND('',#193,.T.);
#23=FACE_BOUND('',#201,.T.);
#24=FACE_BOUND('',#203,.T.);
#25=FACE_BOUND('',#216,.T.);
#26=FACE_BOUND('',#217,.T.);
#27=PLANE('',#1275);
#28=PLANE('',#1279);
#29=PLANE('',#1280);
#30=PLANE('',#1281);
#31=PLANE('',#1282);
#32=PLANE('',#1283);
#33=PLANE('',#1284);
#34=PLANE('',#1285);
#35=PLANE('',#1286);
#36=PLANE('',#1288);
#37=PLANE('',#1289);
#38=PLANE('',#1290);
#39=PLANE('',#1291);
#40=PLANE('',#1292);
#41=PLANE('',#1293);
#42=PLANE('',#1294);
#43=PLANE('',#1296);
#44=PLANE('',#1297);
#45=PLANE('',#1299);
#46=PLANE('',#1304);
#47=PLANE('',#1307);
#48=PLANE('',#1308);
#49=PLANE('',#1309);
#50=PLANE('',#1310);
#51=PLANE('',#1311);
#52=PLANE('',#1312);
#53=PLANE('',#1313);
#54=PLANE('',#1319);
#55=PLANE('',#1323);
#56=PLANE('',#1324);
#57=PLANE('',#1325);
#58=PLANE('',#1326);
#59=PLANE('',#1327);
#60=PLANE('',#1328);
#61=PLANE('',#1329);
#62=PLANE('',#1330);
#63=PLANE('',#1332);
#64=PLANE('',#1333);
#65=PLANE('',#1334);
#66=PLANE('',#1335);
#67=PLANE('',#1336);
#68=PLANE('',#1337);
#69=PLANE('',#1338);
#70=PLANE('',#1340);
#71=PLANE('',#1341);
#72=PLANE('',#1343);
#73=PLANE('',#1348);
#74=PLANE('',#1351);
#75=PLANE('',#1352);
#76=PLANE('',#1353);
#77=PLANE('',#1354);
#78=PLANE('',#1355);
#79=PLANE('',#1356);
#80=PLANE('',#1357);
#81=FACE_OUTER_BOUND('',#145,.T.);
#82=FACE_OUTER_BOUND('',#146,.T.);
#83=FACE_OUTER_BOUND('',#147,.T.);
#84=FACE_OUTER_BOUND('',#148,.T.);
#85=FACE_OUTER_BOUND('',#149,.T.);
#86=FACE_OUTER_BOUND('',#150,.T.);
#87=FACE_OUTER_BOUND('',#151,.T.);
#88=FACE_OUTER_BOUND('',#152,.T.);
#89=FACE_OUTER_BOUND('',#153,.T.);
#90=FACE_OUTER_BOUND('',#154,.T.);
#91=FACE_OUTER_BOUND('',#155,.T.);
#92=FACE_OUTER_BOUND('',#157,.T.);
#93=FACE_OUTER_BOUND('',#158,.T.);
#94=FACE_OUTER_BOUND('',#159,.T.);
#95=FACE_OUTER_BOUND('',#160,.T.);
#96=FACE_OUTER_BOUND('',#161,.T.);
#97=FACE_OUTER_BOUND('',#162,.T.);
#98=FACE_OUTER_BOUND('',#163,.T.);
#99=FACE_OUTER_BOUND('',#165,.T.);
#100=FACE_OUTER_BOUND('',#167,.T.);
#101=FACE_OUTER_BOUND('',#168,.T.);
#102=FACE_OUTER_BOUND('',#169,.T.);
#103=FACE_OUTER_BOUND('',#170,.T.);
#104=FACE_OUTER_BOUND('',#171,.T.);
#105=FACE_OUTER_BOUND('',#172,.T.);
#106=FACE_OUTER_BOUND('',#173,.T.);
#107=FACE_OUTER_BOUND('',#174,.T.);
#108=FACE_OUTER_BOUND('',#175,.T.);
#109=FACE_OUTER_BOUND('',#176,.T.);
#110=FACE_OUTER_BOUND('',#177,.T.);
#111=FACE_OUTER_BOUND('',#178,.T.);
#112=FACE_OUTER_BOUND('',#181,.T.);
#113=FACE_OUTER_BOUND('',#182,.T.);
#114=FACE_OUTER_BOUND('',#183,.T.);
#115=FACE_OUTER_BOUND('',#184,.T.);
#116=FACE_OUTER_BOUND('',#185,.T.);
#117=FACE_OUTER_BOUND('',#186,.T.);
#118=FACE_OUTER_BOUND('',#187,.T.);
#119=FACE_OUTER_BOUND('',#188,.T.);
#120=FACE_OUTER_BOUND('',#189,.T.);
#121=FACE_OUTER_BOUND('',#190,.T.);
#122=FACE_OUTER_BOUND('',#191,.T.);
#123=FACE_OUTER_BOUND('',#192,.T.);
#124=FACE_OUTER_BOUND('',#194,.T.);
#125=FACE_OUTER_BOUND('',#195,.T.);
#126=FACE_OUTER_BOUND('',#196,.T.);
#127=FACE_OUTER_BOUND('',#197,.T.);
#128=FACE_OUTER_BOUND('',#198,.T.);
#129=FACE_OUTER_BOUND('',#199,.T.);
#130=FACE_OUTER_BOUND('',#200,.T.);
#131=FACE_OUTER_BOUND('',#202,.T.);
#132=FACE_OUTER_BOUND('',#204,.T.);
#133=FACE_OUTER_BOUND('',#205,.T.);
#134=FACE_OUTER_BOUND('',#206,.T.);
#135=FACE_OUTER_BOUND('',#207,.T.);
#136=FACE_OUTER_BOUND('',#208,.T.);
#137=FACE_OUTER_BOUND('',#209,.T.);
#138=FACE_OUTER_BOUND('',#210,.T.);
#139=FACE_OUTER_BOUND('',#211,.T.);
#140=FACE_OUTER_BOUND('',#212,.T.);
#141=FACE_OUTER_BOUND('',#213,.T.);
#142=FACE_OUTER_BOUND('',#214,.T.);
#143=FACE_OUTER_BOUND('',#215,.T.);
#144=FACE_OUTER_BOUND('',#218,.T.);
#145=EDGE_LOOP('',(#833,#834,#835,#836,#837,#838,#839));
#146=EDGE_LOOP('',(#840,#841,#842,#843));
#147=EDGE_LOOP('',(#844,#845,#846,#847));
#148=EDGE_LOOP('',(#848,#849,#850,#851));
#149=EDGE_LOOP('',(#852,#853,#854,#855));
#150=EDGE_LOOP('',(#856,#857,#858,#859));
#151=EDGE_LOOP('',(#860,#861,#862,#863));
#152=EDGE_LOOP('',(#864,#865,#866,#867));
#153=EDGE_LOOP('',(#868,#869,#870,#871));
#154=EDGE_LOOP('',(#872,#873,#874,#875));
#155=EDGE_LOOP('',(#876,#877,#878,#879,#880,#881));
#156=EDGE_LOOP('',(#882));
#157=EDGE_LOOP('',(#883,#884,#885,#886));
#158=EDGE_LOOP('',(#887,#888,#889,#890,#891));
#159=EDGE_LOOP('',(#892,#893,#894,#895,#896));
#160=EDGE_LOOP('',(#897,#898,#899,#900));
#161=EDGE_LOOP('',(#901,#902,#903,#904));
#162=EDGE_LOOP('',(#905,#906,#907,#908));
#163=EDGE_LOOP('',(#909,#910,#911,#912,#913,#914));
#164=EDGE_LOOP('',(#915));
#165=EDGE_LOOP('',(#916,#917,#918,#919,#920,#921,#922,#923,#924,#925,#926));
#166=EDGE_LOOP('',(#927,#928,#929,#930,#931,#932));
#167=EDGE_LOOP('',(#933,#934,#935,#936,#937,#938,#939,#940,#941,#942,#943,
#944,#945,#946));
#168=EDGE_LOOP('',(#947,#948,#949,#950));
#169=EDGE_LOOP('',(#951,#952,#953,#954));
#170=EDGE_LOOP('',(#955,#956,#957,#958));
#171=EDGE_LOOP('',(#959,#960,#961,#962));
#172=EDGE_LOOP('',(#963,#964,#965,#966));
#173=EDGE_LOOP('',(#967,#968,#969,#970));
#174=EDGE_LOOP('',(#971,#972,#973,#974));
#175=EDGE_LOOP('',(#975,#976,#977,#978));
#176=EDGE_LOOP('',(#979,#980,#981,#982,#983,#984,#985,#986,#987,#988,#989,
#990,#991,#992));
#177=EDGE_LOOP('',(#993,#994,#995,#996));
#178=EDGE_LOOP('',(#997,#998,#999,#1000));
#179=EDGE_LOOP('',(#1001));
#180=EDGE_LOOP('',(#1002));
#181=EDGE_LOOP('',(#1003,#1004,#1005,#1006));
#182=EDGE_LOOP('',(#1007,#1008,#1009,#1010,#1011,#1012,#1013));
#183=EDGE_LOOP('',(#1014,#1015,#1016,#1017));
#184=EDGE_LOOP('',(#1018,#1019,#1020,#1021));
#185=EDGE_LOOP('',(#1022,#1023,#1024,#1025));
#186=EDGE_LOOP('',(#1026,#1027,#1028,#1029));
#187=EDGE_LOOP('',(#1030,#1031,#1032,#1033));
#188=EDGE_LOOP('',(#1034,#1035,#1036,#1037));
#189=EDGE_LOOP('',(#1038,#1039,#1040,#1041));
#190=EDGE_LOOP('',(#1042,#1043,#1044,#1045));
#191=EDGE_LOOP('',(#1046,#1047,#1048,#1049));
#192=EDGE_LOOP('',(#1050,#1051,#1052,#1053,#1054,#1055));
#193=EDGE_LOOP('',(#1056));
#194=EDGE_LOOP('',(#1057,#1058,#1059,#1060));
#195=EDGE_LOOP('',(#1061,#1062,#1063,#1064,#1065));
#196=EDGE_LOOP('',(#1066,#1067,#1068,#1069,#1070));
#197=EDGE_LOOP('',(#1071,#1072,#1073,#1074));
#198=EDGE_LOOP('',(#1075,#1076,#1077,#1078));
#199=EDGE_LOOP('',(#1079,#1080,#1081,#1082));
#200=EDGE_LOOP('',(#1083,#1084,#1085,#1086,#1087,#1088));
#201=EDGE_LOOP('',(#1089));
#202=EDGE_LOOP('',(#1090,#1091,#1092,#1093,#1094,#1095,#1096,#1097,#1098,
#1099,#1100));
#203=EDGE_LOOP('',(#1101,#1102,#1103,#1104,#1105,#1106));
#204=EDGE_LOOP('',(#1107,#1108,#1109,#1110,#1111,#1112,#1113,#1114,#1115,
#1116,#1117,#1118,#1119,#1120));
#205=EDGE_LOOP('',(#1121,#1122,#1123,#1124));
#206=EDGE_LOOP('',(#1125,#1126,#1127,#1128));
#207=EDGE_LOOP('',(#1129,#1130,#1131,#1132));
#208=EDGE_LOOP('',(#1133,#1134,#1135,#1136));
#209=EDGE_LOOP('',(#1137,#1138,#1139,#1140));
#210=EDGE_LOOP('',(#1141,#1142,#1143,#1144));
#211=EDGE_LOOP('',(#1145,#1146,#1147,#1148));
#212=EDGE_LOOP('',(#1149,#1150,#1151,#1152));
#213=EDGE_LOOP('',(#1153,#1154,#1155,#1156,#1157,#1158,#1159,#1160,#1161,
#1162,#1163,#1164,#1165,#1166));
#214=EDGE_LOOP('',(#1167,#1168,#1169,#1170));
#215=EDGE_LOOP('',(#1171,#1172,#1173,#1174));
#216=EDGE_LOOP('',(#1175));
#217=EDGE_LOOP('',(#1176));
#218=EDGE_LOOP('',(#1177,#1178,#1179,#1180));
#219=CIRCLE('',#1272,0.5);
#220=CIRCLE('',#1273,0.5);
#221=CIRCLE('',#1277,0.5);
#222=CIRCLE('',#1278,0.5);
#223=CIRCLE('',#1287,1.1);
#224=CIRCLE('',#1295,1.1);
#225=CIRCLE('',#1298,3.);
#226=CIRCLE('',#1301,1.1);
#227=CIRCLE('',#1303,1.1);
#228=CIRCLE('',#1306,3.);
#229=CIRCLE('',#1316,0.5);
#230=CIRCLE('',#1317,0.5);
#231=CIRCLE('',#1321,0.5);
#232=CIRCLE('',#1322,0.5);
#233=CIRCLE('',#1331,1.1);
#234=CIRCLE('',#1339,1.1);
#235=CIRCLE('',#1342,3.);
#236=CIRCLE('',#1345,1.1);
#237=CIRCLE('',#1347,1.1);
#238=CIRCLE('',#1350,3.);
#239=LINE('',#1692,#389);
#240=LINE('',#1696,#390);
#241=LINE('',#1700,#391);
#242=LINE('',#1704,#392);
#243=LINE('',#1706,#393);
#244=LINE('',#1707,#394);
#245=LINE('',#1712,#395);
#246=LINE('',#1716,#396);
#247=LINE('',#1718,#397);
#248=LINE('',#1719,#398);
#249=LINE('',#1723,#399);
#250=LINE('',#1725,#400);
#251=LINE('',#1727,#401);
#252=LINE('',#1728,#402);
#253=LINE('',#1731,#403);
#254=LINE('',#1733,#404);
#255=LINE('',#1734,#405);
#256=LINE('',#1737,#406);
#257=LINE('',#1739,#407);
#258=LINE('',#1740,#408);
#259=LINE('',#1743,#409);
#260=LINE('',#1745,#410);
#261=LINE('',#1746,#411);
#262=LINE('',#1749,#412);
#263=LINE('',#1751,#413);
#264=LINE('',#1752,#414);
#265=LINE('',#1754,#415);
#266=LINE('',#1755,#416);
#267=LINE('',#1762,#417);
#268=LINE('',#1764,#418);
#269=LINE('',#1766,#419);
#270=LINE('',#1767,#420);
#271=LINE('',#1770,#421);
#272=LINE('',#1771,#422);
#273=LINE('',#1772,#423);
#274=LINE('',#1775,#424);
#275=LINE('',#1777,#425);
#276=LINE('',#1778,#426);
#277=LINE('',#1781,#427);
#278=LINE('',#1783,#428);
#279=LINE('',#1784,#429);
#280=LINE('',#1787,#430);
#281=LINE('',#1789,#431);
#282=LINE('',#1790,#432);
#283=LINE('',#1792,#433);
#284=LINE('',#1793,#434);
#285=LINE('',#1799,#435);
#286=LINE('',#1801,#436);
#287=LINE('',#1802,#437);
#288=LINE('',#1805,#438);
#289=LINE('',#1807,#439);
#290=LINE('',#1809,#440);
#291=LINE('',#1811,#441);
#292=LINE('',#1815,#442);
#293=LINE('',#1817,#443);
#294=LINE('',#1819,#444);
#295=LINE('',#1820,#445);
#296=LINE('',#1823,#446);
#297=LINE('',#1824,#447);
#298=LINE('',#1828,#448);
#299=LINE('',#1832,#449);
#300=LINE('',#1835,#450);
#301=LINE('',#1837,#451);
#302=LINE('',#1838,#452);
#303=LINE('',#1841,#453);
#304=LINE('',#1845,#454);
#305=LINE('',#1846,#455);
#306=LINE('',#1849,#456);
#307=LINE('',#1850,#457);
#308=LINE('',#1853,#458);
#309=LINE('',#1854,#459);
#310=LINE('',#1857,#460);
#311=LINE('',#1858,#461);
#312=LINE('',#1859,#462);
#313=LINE('',#1861,#463);
#314=LINE('',#1869,#464);
#315=LINE('',#1873,#465);
#316=LINE('',#1877,#466);
#317=LINE('',#1881,#467);
#318=LINE('',#1883,#468);
#319=LINE('',#1884,#469);
#320=LINE('',#1889,#470);
#321=LINE('',#1893,#471);
#322=LINE('',#1895,#472);
#323=LINE('',#1896,#473);
#324=LINE('',#1900,#474);
#325=LINE('',#1902,#475);
#326=LINE('',#1904,#476);
#327=LINE('',#1905,#477);
#328=LINE('',#1908,#478);
#329=LINE('',#1910,#479);
#330=LINE('',#1911,#480);
#331=LINE('',#1914,#481);
#332=LINE('',#1916,#482);
#333=LINE('',#1917,#483);
#334=LINE('',#1920,#484);
#335=LINE('',#1922,#485);
#336=LINE('',#1923,#486);
#337=LINE('',#1926,#487);
#338=LINE('',#1928,#488);
#339=LINE('',#1929,#489);
#340=LINE('',#1931,#490);
#341=LINE('',#1932,#491);
#342=LINE('',#1939,#492);
#343=LINE('',#1941,#493);
#344=LINE('',#1943,#494);
#345=LINE('',#1944,#495);
#346=LINE('',#1947,#496);
#347=LINE('',#1948,#497);
#348=LINE('',#1949,#498);
#349=LINE('',#1952,#499);
#350=LINE('',#1954,#500);
#351=LINE('',#1955,#501);
#352=LINE('',#1958,#502);
#353=LINE('',#1960,#503);
#354=LINE('',#1961,#504);
#355=LINE('',#1964,#505);
#356=LINE('',#1966,#506);
#357=LINE('',#1967,#507);
#358=LINE('',#1969,#508);
#359=LINE('',#1970,#509);
#360=LINE('',#1976,#510);
#361=LINE('',#1978,#511);
#362=LINE('',#1979,#512);
#363=LINE('',#1982,#513);
#364=LINE('',#1984,#514);
#365=LINE('',#1986,#515);
#366=LINE('',#1988,#516);
#367=LINE('',#1992,#517);
#368=LINE('',#1994,#518);
#369=LINE('',#1996,#519);
#370=LINE('',#1997,#520);
#371=LINE('',#2000,#521);
#372=LINE('',#2001,#522);
#373=LINE('',#2005,#523);
#374=LINE('',#2009,#524);
#375=LINE('',#2012,#525);
#376=LINE('',#2014,#526);
#377=LINE('',#2015,#527);
#378=LINE('',#2018,#528);
#379=LINE('',#2022,#529);
#380=LINE('',#2023,#530);
#381=LINE('',#2026,#531);
#382=LINE('',#2027,#532);
#383=LINE('',#2030,#533);
#384=LINE('',#2031,#534);
#385=LINE('',#2034,#535);
#386=LINE('',#2035,#536);
#387=LINE('',#2036,#537);
#388=LINE('',#2038,#538);
#389=VECTOR('',#1364,10.);
#390=VECTOR('',#1367,10.);
#391=VECTOR('',#1370,10.);
#392=VECTOR('',#1375,10.);
#393=VECTOR('',#1376,10.);
#394=VECTOR('',#1377,10.);
#395=VECTOR('',#1382,10.);
#396=VECTOR('',#1387,10.);
#397=VECTOR('',#1388,10.);
#398=VECTOR('',#1389,10.);
#399=VECTOR('',#1392,10.);
#400=VECTOR('',#1393,10.);
#401=VECTOR('',#1394,10.);
#402=VECTOR('',#1395,10.);
#403=VECTOR('',#1398,10.);
#404=VECTOR('',#1399,10.);
#405=VECTOR('',#1400,10.);
#406=VECTOR('',#1403,10.);
#407=VECTOR('',#1404,10.);
#408=VECTOR('',#1405,10.);
#409=VECTOR('',#1408,10.);
#410=VECTOR('',#1409,10.);
#411=VECTOR('',#1410,10.);
#412=VECTOR('',#1413,10.);
#413=VECTOR('',#1414,10.);
#414=VECTOR('',#1415,10.);
#415=VECTOR('',#1418,10.);
#416=VECTOR('',#1419,10.);
#417=VECTOR('',#1426,10.);
#418=VECTOR('',#1427,10.);
#419=VECTOR('',#1428,10.);
#420=VECTOR('',#1429,10.);
#421=VECTOR('',#1432,10.);
#422=VECTOR('',#1433,10.);
#423=VECTOR('',#1434,10.);
#424=VECTOR('',#1437,10.);
#425=VECTOR('',#1438,10.);
#426=VECTOR('',#1439,10.);
#427=VECTOR('',#1442,10.);
#428=VECTOR('',#1443,10.);
#429=VECTOR('',#1444,10.);
#430=VECTOR('',#1447,10.);
#431=VECTOR('',#1448,10.);
#432=VECTOR('',#1449,10.);
#433=VECTOR('',#1452,10.);
#434=VECTOR('',#1453,10.);
#435=VECTOR('',#1460,10.);
#436=VECTOR('',#1461,10.);
#437=VECTOR('',#1462,10.);
#438=VECTOR('',#1465,10.);
#439=VECTOR('',#1466,10.);
#440=VECTOR('',#1467,10.);
#441=VECTOR('',#1468,10.);
#442=VECTOR('',#1471,10.);
#443=VECTOR('',#1472,10.);
#444=VECTOR('',#1473,10.);
#445=VECTOR('',#1474,10.);
#446=VECTOR('',#1477,10.);
#447=VECTOR('',#1478,10.);
#448=VECTOR('',#1483,1.1);
#449=VECTOR('',#1488,1.1);
#450=VECTOR('',#1491,10.);
#451=VECTOR('',#1492,10.);
#452=VECTOR('',#1493,10.);
#453=VECTOR('',#1496,10.);
#454=VECTOR('',#1501,10.);
#455=VECTOR('',#1502,10.);
#456=VECTOR('',#1505,10.);
#457=VECTOR('',#1506,10.);
#458=VECTOR('',#1509,10.);
#459=VECTOR('',#1510,10.);
#460=VECTOR('',#1513,10.);
#461=VECTOR('',#1514,10.);
#462=VECTOR('',#1515,10.);
#463=VECTOR('',#1518,10.);
#464=VECTOR('',#1527,10.);
#465=VECTOR('',#1530,10.);
#466=VECTOR('',#1533,10.);
#467=VECTOR('',#1538,10.);
#468=VECTOR('',#1539,10.);
#469=VECTOR('',#1540,10.);
#470=VECTOR('',#1545,10.);
#471=VECTOR('',#1550,10.);
#472=VECTOR('',#1551,10.);
#473=VECTOR('',#1552,10.);
#474=VECTOR('',#1555,10.);
#475=VECTOR('',#1556,10.);
#476=VECTOR('',#1557,10.);
#477=VECTOR('',#1558,10.);
#478=VECTOR('',#1561,10.);
#479=VECTOR('',#1562,10.);
#480=VECTOR('',#1563,10.);
#481=VECTOR('',#1566,10.);
#482=VECTOR('',#1567,10.);
#483=VECTOR('',#1568,10.);
#484=VECTOR('',#1571,10.);
#485=VECTOR('',#1572,10.);
#486=VECTOR('',#1573,10.);
#487=VECTOR('',#1576,10.);
#488=VECTOR('',#1577,10.);
#489=VECTOR('',#1578,10.);
#490=VECTOR('',#1581,10.);
#491=VECTOR('',#1582,10.);
#492=VECTOR('',#1589,10.);
#493=VECTOR('',#1590,10.);
#494=VECTOR('',#1591,10.);
#495=VECTOR('',#1592,10.);
#496=VECTOR('',#1595,10.);
#497=VECTOR('',#1596,10.);
#498=VECTOR('',#1597,10.);
#499=VECTOR('',#1600,10.);
#500=VECTOR('',#1601,10.);
#501=VECTOR('',#1602,10.);
#502=VECTOR('',#1605,10.);
#503=VECTOR('',#1606,10.);
#504=VECTOR('',#1607,10.);
#505=VECTOR('',#1610,10.);
#506=VECTOR('',#1611,10.);
#507=VECTOR('',#1612,10.);
#508=VECTOR('',#1615,10.);
#509=VECTOR('',#1616,10.);
#510=VECTOR('',#1623,10.);
#511=VECTOR('',#1624,10.);
#512=VECTOR('',#1625,10.);
#513=VECTOR('',#1628,10.);
#514=VECTOR('',#1629,10.);
#515=VECTOR('',#1630,10.);
#516=VECTOR('',#1631,10.);
#517=VECTOR('',#1634,10.);
#518=VECTOR('',#1635,10.);
#519=VECTOR('',#1636,10.);
#520=VECTOR('',#1637,10.);
#521=VECTOR('',#1640,10.);
#522=VECTOR('',#1641,10.);
#523=VECTOR('',#1646,1.1);
#524=VECTOR('',#1651,1.1);
#525=VECTOR('',#1654,10.);
#526=VECTOR('',#1655,10.);
#527=VECTOR('',#1656,10.);
#528=VECTOR('',#1659,10.);
#529=VECTOR('',#1664,10.);
#530=VECTOR('',#1665,10.);
#531=VECTOR('',#1668,10.);
#532=VECTOR('',#1669,10.);
#533=VECTOR('',#1672,10.);
#534=VECTOR('',#1673,10.);
#535=VECTOR('',#1676,10.);
#536=VECTOR('',#1677,10.);
#537=VECTOR('',#1678,10.);
#538=VECTOR('',#1681,10.);
#539=ELLIPSE('',#1271,0.64991644043415,0.5);
#540=ELLIPSE('',#1274,2.96564804076294,0.5);
#541=ELLIPSE('',#1315,0.64991644043415,0.5);
#542=ELLIPSE('',#1318,2.96564804076294,0.5);
#543=VERTEX_POINT('',#1688);
#544=VERTEX_POINT('',#1689);
#545=VERTEX_POINT('',#1691);
#546=VERTEX_POINT('',#1693);
#547=VERTEX_POINT('',#1695);
#548=VERTEX_POINT('',#1697);
#549=VERTEX_POINT('',#1699);
#550=VERTEX_POINT('',#1703);
#551=VERTEX_POINT('',#1705);
#552=VERTEX_POINT('',#1709);
#553=VERTEX_POINT('',#1711);
#554=VERTEX_POINT('',#1715);
#555=VERTEX_POINT('',#1717);
#556=VERTEX_POINT('',#1721);
#557=VERTEX_POINT('',#1722);
#558=VERTEX_POINT('',#1724);
#559=VERTEX_POINT('',#1726);
#560=VERTEX_POINT('',#1730);
#561=VERTEX_POINT('',#1732);
#562=VERTEX_POINT('',#1736);
#563=VERTEX_POINT('',#1738);
#564=VERTEX_POINT('',#1742);
#565=VERTEX_POINT('',#1744);
#566=VERTEX_POINT('',#1748);
#567=VERTEX_POINT('',#1750);
#568=VERTEX_POINT('',#1757);
#569=VERTEX_POINT('',#1760);
#570=VERTEX_POINT('',#1761);
#571=VERTEX_POINT('',#1763);
#572=VERTEX_POINT('',#1765);
#573=VERTEX_POINT('',#1769);
#574=VERTEX_POINT('',#1774);
#575=VERTEX_POINT('',#1776);
#576=VERTEX_POINT('',#1780);
#577=VERTEX_POINT('',#1782);
#578=VERTEX_POINT('',#1786);
#579=VERTEX_POINT('',#1788);
#580=VERTEX_POINT('',#1795);
#581=VERTEX_POINT('',#1798);
#582=VERTEX_POINT('',#1800);
#583=VERTEX_POINT('',#1804);
#584=VERTEX_POINT('',#1806);
#585=VERTEX_POINT('',#1808);
#586=VERTEX_POINT('',#1810);
#587=VERTEX_POINT('',#1812);
#588=VERTEX_POINT('',#1814);
#589=VERTEX_POINT('',#1816);
#590=VERTEX_POINT('',#1818);
#591=VERTEX_POINT('',#1822);
#592=VERTEX_POINT('',#1826);
#593=VERTEX_POINT('',#1830);
#594=VERTEX_POINT('',#1834);
#595=VERTEX_POINT('',#1836);
#596=VERTEX_POINT('',#1840);
#597=VERTEX_POINT('',#1844);
#598=VERTEX_POINT('',#1848);
#599=VERTEX_POINT('',#1852);
#600=VERTEX_POINT('',#1856);
#601=VERTEX_POINT('',#1865);
#602=VERTEX_POINT('',#1866);
#603=VERTEX_POINT('',#1868);
#604=VERTEX_POINT('',#1870);
#605=VERTEX_POINT('',#1872);
#606=VERTEX_POINT('',#1874);
#607=VERTEX_POINT('',#1876);
#608=VERTEX_POINT('',#1880);
#609=VERTEX_POINT('',#1882);
#610=VERTEX_POINT('',#1886);
#611=VERTEX_POINT('',#1888);
#612=VERTEX_POINT('',#1892);
#613=VERTEX_POINT('',#1894);
#614=VERTEX_POINT('',#1898);
#615=VERTEX_POINT('',#1899);
#616=VERTEX_POINT('',#1901);
#617=VERTEX_POINT('',#1903);
#618=VERTEX_POINT('',#1907);
#619=VERTEX_POINT('',#1909);
#620=VERTEX_POINT('',#1913);
#621=VERTEX_POINT('',#1915);
#622=VERTEX_POINT('',#1919);
#623=VERTEX_POINT('',#1921);
#624=VERTEX_POINT('',#1925);
#625=VERTEX_POINT('',#1927);
#626=VERTEX_POINT('',#1934);
#627=VERTEX_POINT('',#1937);
#628=VERTEX_POINT('',#1938);
#629=VERTEX_POINT('',#1940);
#630=VERTEX_POINT('',#1942);
#631=VERTEX_POINT('',#1946);
#632=VERTEX_POINT('',#1951);
#633=VERTEX_POINT('',#1953);
#634=VERTEX_POINT('',#1957);
#635=VERTEX_POINT('',#1959);
#636=VERTEX_POINT('',#1963);
#637=VERTEX_POINT('',#1965);
#638=VERTEX_POINT('',#1972);
#639=VERTEX_POINT('',#1975);
#640=VERTEX_POINT('',#1977);
#641=VERTEX_POINT('',#1981);
#642=VERTEX_POINT('',#1983);
#643=VERTEX_POINT('',#1985);
#644=VERTEX_POINT('',#1987);
#645=VERTEX_POINT('',#1989);
#646=VERTEX_POINT('',#1991);
#647=VERTEX_POINT('',#1993);
#648=VERTEX_POINT('',#1995);
#649=VERTEX_POINT('',#1999);
#650=VERTEX_POINT('',#2003);
#651=VERTEX_POINT('',#2007);
#652=VERTEX_POINT('',#2011);
#653=VERTEX_POINT('',#2013);
#654=VERTEX_POINT('',#2017);
#655=VERTEX_POINT('',#2021);
#656=VERTEX_POINT('',#2025);
#657=VERTEX_POINT('',#2029);
#658=VERTEX_POINT('',#2033);
#659=EDGE_CURVE('',#543,#544,#539,.F.);
#660=EDGE_CURVE('',#543,#545,#239,.T.);
#661=EDGE_CURVE('',#545,#546,#219,.T.);
#662=EDGE_CURVE('',#546,#547,#240,.T.);
#663=EDGE_CURVE('',#547,#548,#220,.T.);
#664=EDGE_CURVE('',#548,#549,#241,.T.);
#665=EDGE_CURVE('',#544,#549,#540,.F.);
#666=EDGE_CURVE('',#550,#546,#242,.T.);
#667=EDGE_CURVE('',#551,#550,#243,.T.);
#668=EDGE_CURVE('',#547,#551,#244,.T.);
#669=EDGE_CURVE('',#550,#552,#221,.T.);
#670=EDGE_CURVE('',#552,#553,#245,.T.);
#671=EDGE_CURVE('',#553,#551,#222,.T.);
#672=EDGE_CURVE('',#554,#552,#246,.T.);
#673=EDGE_CURVE('',#555,#554,#247,.T.);
#674=EDGE_CURVE('',#553,#555,#248,.T.);
#675=EDGE_CURVE('',#556,#557,#249,.T.);
#676=EDGE_CURVE('',#556,#558,#250,.T.);
#677=EDGE_CURVE('',#558,#559,#251,.T.);
#678=EDGE_CURVE('',#557,#559,#252,.T.);
#679=EDGE_CURVE('',#560,#556,#253,.T.);
#680=EDGE_CURVE('',#560,#561,#254,.T.);
#681=EDGE_CURVE('',#561,#558,#255,.T.);
#682=EDGE_CURVE('',#562,#560,#256,.T.);
#683=EDGE_CURVE('',#562,#563,#257,.T.);
#684=EDGE_CURVE('',#563,#561,#258,.T.);
#685=EDGE_CURVE('',#564,#562,#259,.T.);
#686=EDGE_CURVE('',#564,#565,#260,.T.);
#687=EDGE_CURVE('',#565,#563,#261,.T.);
#688=EDGE_CURVE('',#566,#564,#262,.T.);
#689=EDGE_CURVE('',#566,#567,#263,.T.);
#690=EDGE_CURVE('',#567,#565,#264,.T.);
#691=EDGE_CURVE('',#557,#566,#265,.T.);
#692=EDGE_CURVE('',#559,#567,#266,.T.);
#693=EDGE_CURVE('',#568,#568,#223,.T.);
#694=EDGE_CURVE('',#569,#570,#267,.T.);
#695=EDGE_CURVE('',#569,#571,#268,.T.);
#696=EDGE_CURVE('',#571,#572,#269,.T.);
#697=EDGE_CURVE('',#570,#572,#270,.T.);
#698=EDGE_CURVE('',#544,#573,#271,.T.);
#699=EDGE_CURVE('',#573,#571,#272,.T.);
#700=EDGE_CURVE('',#543,#569,#273,.T.);
#701=EDGE_CURVE('',#574,#549,#274,.T.);
#702=EDGE_CURVE('',#574,#575,#275,.T.);
#703=EDGE_CURVE('',#575,#573,#276,.T.);
#704=EDGE_CURVE('',#576,#574,#277,.T.);
#705=EDGE_CURVE('',#576,#577,#278,.T.);
#706=EDGE_CURVE('',#577,#575,#279,.T.);
#707=EDGE_CURVE('',#578,#576,#280,.T.);
#708=EDGE_CURVE('',#578,#579,#281,.T.);
#709=EDGE_CURVE('',#579,#577,#282,.T.);
#710=EDGE_CURVE('',#570,#578,#283,.T.);
#711=EDGE_CURVE('',#572,#579,#284,.T.);
#712=EDGE_CURVE('',#580,#580,#224,.T.);
#713=EDGE_CURVE('',#581,#548,#285,.T.);
#714=EDGE_CURVE('',#582,#581,#286,.T.);
#715=EDGE_CURVE('',#545,#582,#287,.T.);
#716=EDGE_CURVE('',#582,#583,#288,.T.);
#717=EDGE_CURVE('',#583,#584,#289,.T.);
#718=EDGE_CURVE('',#584,#585,#290,.T.);
#719=EDGE_CURVE('',#585,#586,#291,.T.);
#720=EDGE_CURVE('',#586,#587,#225,.T.);
#721=EDGE_CURVE('',#587,#588,#292,.T.);
#722=EDGE_CURVE('',#588,#589,#293,.T.);
#723=EDGE_CURVE('',#589,#590,#294,.T.);
#724=EDGE_CURVE('',#590,#554,#295,.T.);
#725=EDGE_CURVE('',#591,#581,#296,.T.);
#726=EDGE_CURVE('',#591,#583,#297,.T.);
#727=EDGE_CURVE('',#592,#592,#226,.T.);
#728=EDGE_CURVE('',#592,#568,#298,.T.);
#729=EDGE_CURVE('',#593,#593,#227,.T.);
#730=EDGE_CURVE('',#593,#580,#299,.T.);
#731=EDGE_CURVE('',#587,#594,#300,.T.);
#732=EDGE_CURVE('',#595,#594,#301,.T.);
#733=EDGE_CURVE('',#588,#595,#302,.T.);
#734=EDGE_CURVE('',#586,#596,#303,.T.);
#735=EDGE_CURVE('',#594,#596,#228,.T.);
#736=EDGE_CURVE('',#597,#585,#304,.T.);
#737=EDGE_CURVE('',#596,#597,#305,.T.);
#738=EDGE_CURVE('',#598,#584,#306,.T.);
#739=EDGE_CURVE('',#597,#598,#307,.T.);
#740=EDGE_CURVE('',#599,#595,#308,.T.);
#741=EDGE_CURVE('',#599,#589,#309,.T.);
#742=EDGE_CURVE('',#555,#600,#310,.T.);
#743=EDGE_CURVE('',#600,#599,#311,.T.);
#744=EDGE_CURVE('',#598,#591,#312,.T.);
#745=EDGE_CURVE('',#600,#590,#313,.T.);
#746=EDGE_CURVE('',#601,#602,#541,.F.);
#747=EDGE_CURVE('',#601,#603,#314,.T.);
#748=EDGE_CURVE('',#603,#604,#229,.T.);
#749=EDGE_CURVE('',#604,#605,#315,.T.);
#750=EDGE_CURVE('',#605,#606,#230,.T.);
#751=EDGE_CURVE('',#606,#607,#316,.T.);
#752=EDGE_CURVE('',#602,#607,#542,.F.);
#753=EDGE_CURVE('',#608,#604,#317,.T.);
#754=EDGE_CURVE('',#609,#608,#318,.T.);
#755=EDGE_CURVE('',#605,#609,#319,.T.);
#756=EDGE_CURVE('',#608,#610,#231,.T.);
#757=EDGE_CURVE('',#610,#611,#320,.T.);
#758=EDGE_CURVE('',#611,#609,#232,.T.);
#759=EDGE_CURVE('',#612,#610,#321,.T.);
#760=EDGE_CURVE('',#613,#612,#322,.T.);
#761=EDGE_CURVE('',#611,#613,#323,.T.);
#762=EDGE_CURVE('',#614,#615,#324,.T.);
#763=EDGE_CURVE('',#614,#616,#325,.T.);
#764=EDGE_CURVE('',#616,#617,#326,.T.);
#765=EDGE_CURVE('',#615,#617,#327,.T.);
#766=EDGE_CURVE('',#618,#614,#328,.T.);
#767=EDGE_CURVE('',#618,#619,#329,.T.);
#768=EDGE_CURVE('',#619,#616,#330,.T.);
#769=EDGE_CURVE('',#620,#618,#331,.T.);
#770=EDGE_CURVE('',#620,#621,#332,.T.);
#771=EDGE_CURVE('',#621,#619,#333,.T.);
#772=EDGE_CURVE('',#622,#620,#334,.T.);
#773=EDGE_CURVE('',#622,#623,#335,.T.);
#774=EDGE_CURVE('',#623,#621,#336,.T.);
#775=EDGE_CURVE('',#624,#622,#337,.T.);
#776=EDGE_CURVE('',#624,#625,#338,.T.);
#777=EDGE_CURVE('',#625,#623,#339,.T.);
#778=EDGE_CURVE('',#615,#624,#340,.T.);
#779=EDGE_CURVE('',#617,#625,#341,.T.);
#780=EDGE_CURVE('',#626,#626,#233,.T.);
#781=EDGE_CURVE('',#627,#628,#342,.T.);
#782=EDGE_CURVE('',#627,#629,#343,.T.);
#783=EDGE_CURVE('',#629,#630,#344,.T.);
#784=EDGE_CURVE('',#628,#630,#345,.T.);
#785=EDGE_CURVE('',#602,#631,#346,.T.);
#786=EDGE_CURVE('',#631,#629,#347,.T.);
#787=EDGE_CURVE('',#601,#627,#348,.T.);
#788=EDGE_CURVE('',#632,#607,#349,.T.);
#789=EDGE_CURVE('',#632,#633,#350,.T.);
#790=EDGE_CURVE('',#633,#631,#351,.T.);
#791=EDGE_CURVE('',#634,#632,#352,.T.);
#792=EDGE_CURVE('',#634,#635,#353,.T.);
#793=EDGE_CURVE('',#635,#633,#354,.T.);
#794=EDGE_CURVE('',#636,#634,#355,.T.);
#795=EDGE_CURVE('',#636,#637,#356,.T.);
#796=EDGE_CURVE('',#637,#635,#357,.T.);
#797=EDGE_CURVE('',#628,#636,#358,.T.);
#798=EDGE_CURVE('',#630,#637,#359,.T.);
#799=EDGE_CURVE('',#638,#638,#234,.T.);
#800=EDGE_CURVE('',#639,#606,#360,.T.);
#801=EDGE_CURVE('',#640,#639,#361,.T.);
#802=EDGE_CURVE('',#603,#640,#362,.T.);
#803=EDGE_CURVE('',#640,#641,#363,.T.);
#804=EDGE_CURVE('',#641,#642,#364,.T.);
#805=EDGE_CURVE('',#642,#643,#365,.T.);
#806=EDGE_CURVE('',#643,#644,#366,.T.);
#807=EDGE_CURVE('',#644,#645,#235,.T.);
#808=EDGE_CURVE('',#645,#646,#367,.T.);
#809=EDGE_CURVE('',#646,#647,#368,.T.);
#810=EDGE_CURVE('',#647,#648,#369,.T.);
#811=EDGE_CURVE('',#648,#612,#370,.T.);
#812=EDGE_CURVE('',#649,#639,#371,.T.);
#813=EDGE_CURVE('',#649,#641,#372,.T.);
#814=EDGE_CURVE('',#650,#650,#236,.T.);
#815=EDGE_CURVE('',#650,#626,#373,.T.);
#816=EDGE_CURVE('',#651,#651,#237,.T.);
#817=EDGE_CURVE('',#651,#638,#374,.T.);
#818=EDGE_CURVE('',#645,#652,#375,.T.);
#819=EDGE_CURVE('',#653,#652,#376,.T.);
#820=EDGE_CURVE('',#646,#653,#377,.T.);
#821=EDGE_CURVE('',#644,#654,#378,.T.);
#822=EDGE_CURVE('',#652,#654,#238,.T.);
#823=EDGE_CURVE('',#655,#643,#379,.T.);
#824=EDGE_CURVE('',#654,#655,#380,.T.);
#825=EDGE_CURVE('',#656,#642,#381,.T.);
#826=EDGE_CURVE('',#655,#656,#382,.T.);
#827=EDGE_CURVE('',#657,#653,#383,.T.);
#828=EDGE_CURVE('',#657,#647,#384,.T.);
#829=EDGE_CURVE('',#613,#658,#385,.T.);
#830=EDGE_CURVE('',#658,#657,#386,.T.);
#831=EDGE_CURVE('',#656,#649,#387,.T.);
#832=EDGE_CURVE('',#658,#648,#388,.T.);
#833=ORIENTED_EDGE('',*,*,#659,.F.);
#834=ORIENTED_EDGE('',*,*,#660,.T.);
#835=ORIENTED_EDGE('',*,*,#661,.T.);
#836=ORIENTED_EDGE('',*,*,#662,.T.);
#837=ORIENTED_EDGE('',*,*,#663,.T.);
#838=ORIENTED_EDGE('',*,*,#664,.T.);
#839=ORIENTED_EDGE('',*,*,#665,.F.);
#840=ORIENTED_EDGE('',*,*,#662,.F.);
#841=ORIENTED_EDGE('',*,*,#666,.F.);
#842=ORIENTED_EDGE('',*,*,#667,.F.);
#843=ORIENTED_EDGE('',*,*,#668,.F.);
#844=ORIENTED_EDGE('',*,*,#669,.T.);
#845=ORIENTED_EDGE('',*,*,#670,.T.);
#846=ORIENTED_EDGE('',*,*,#671,.T.);
#847=ORIENTED_EDGE('',*,*,#667,.T.);
#848=ORIENTED_EDGE('',*,*,#670,.F.);
#849=ORIENTED_EDGE('',*,*,#672,.F.);
#850=ORIENTED_EDGE('',*,*,#673,.F.);
#851=ORIENTED_EDGE('',*,*,#674,.F.);
#852=ORIENTED_EDGE('',*,*,#675,.F.);
#853=ORIENTED_EDGE('',*,*,#676,.T.);
#854=ORIENTED_EDGE('',*,*,#677,.T.);
#855=ORIENTED_EDGE('',*,*,#678,.F.);
#856=ORIENTED_EDGE('',*,*,#679,.F.);
#857=ORIENTED_EDGE('',*,*,#680,.T.);
#858=ORIENTED_EDGE('',*,*,#681,.T.);
#859=ORIENTED_EDGE('',*,*,#676,.F.);
#860=ORIENTED_EDGE('',*,*,#682,.F.);
#861=ORIENTED_EDGE('',*,*,#683,.T.);
#862=ORIENTED_EDGE('',*,*,#684,.T.);
#863=ORIENTED_EDGE('',*,*,#680,.F.);
#864=ORIENTED_EDGE('',*,*,#685,.F.);
#865=ORIENTED_EDGE('',*,*,#686,.T.);
#866=ORIENTED_EDGE('',*,*,#687,.T.);
#867=ORIENTED_EDGE('',*,*,#683,.F.);
#868=ORIENTED_EDGE('',*,*,#688,.F.);
#869=ORIENTED_EDGE('',*,*,#689,.T.);
#870=ORIENTED_EDGE('',*,*,#690,.T.);
#871=ORIENTED_EDGE('',*,*,#686,.F.);
#872=ORIENTED_EDGE('',*,*,#691,.F.);
#873=ORIENTED_EDGE('',*,*,#678,.T.);
#874=ORIENTED_EDGE('',*,*,#692,.T.);
#875=ORIENTED_EDGE('',*,*,#689,.F.);
#876=ORIENTED_EDGE('',*,*,#692,.F.);
#877=ORIENTED_EDGE('',*,*,#677,.F.);
#878=ORIENTED_EDGE('',*,*,#681,.F.);
#879=ORIENTED_EDGE('',*,*,#684,.F.);
#880=ORIENTED_EDGE('',*,*,#687,.F.);
#881=ORIENTED_EDGE('',*,*,#690,.F.);
#882=ORIENTED_EDGE('',*,*,#693,.F.);
#883=ORIENTED_EDGE('',*,*,#694,.F.);
#884=ORIENTED_EDGE('',*,*,#695,.T.);
#885=ORIENTED_EDGE('',*,*,#696,.T.);
#886=ORIENTED_EDGE('',*,*,#697,.F.);
#887=ORIENTED_EDGE('',*,*,#698,.T.);
#888=ORIENTED_EDGE('',*,*,#699,.T.);
#889=ORIENTED_EDGE('',*,*,#695,.F.);
#890=ORIENTED_EDGE('',*,*,#700,.F.);
#891=ORIENTED_EDGE('',*,*,#659,.T.);
#892=ORIENTED_EDGE('',*,*,#701,.F.);
#893=ORIENTED_EDGE('',*,*,#702,.T.);
#894=ORIENTED_EDGE('',*,*,#703,.T.);
#895=ORIENTED_EDGE('',*,*,#698,.F.);
#896=ORIENTED_EDGE('',*,*,#665,.T.);
#897=ORIENTED_EDGE('',*,*,#704,.F.);
#898=ORIENTED_EDGE('',*,*,#705,.T.);
#899=ORIENTED_EDGE('',*,*,#706,.T.);
#900=ORIENTED_EDGE('',*,*,#702,.F.);
#901=ORIENTED_EDGE('',*,*,#707,.F.);
#902=ORIENTED_EDGE('',*,*,#708,.T.);
#903=ORIENTED_EDGE('',*,*,#709,.T.);
#904=ORIENTED_EDGE('',*,*,#705,.F.);
#905=ORIENTED_EDGE('',*,*,#710,.F.);
#906=ORIENTED_EDGE('',*,*,#697,.T.);
#907=ORIENTED_EDGE('',*,*,#711,.T.);
#908=ORIENTED_EDGE('',*,*,#708,.F.);
#909=ORIENTED_EDGE('',*,*,#711,.F.);
#910=ORIENTED_EDGE('',*,*,#696,.F.);
#911=ORIENTED_EDGE('',*,*,#699,.F.);
#912=ORIENTED_EDGE('',*,*,#703,.F.);
#913=ORIENTED_EDGE('',*,*,#706,.F.);
#914=ORIENTED_EDGE('',*,*,#709,.F.);
#915=ORIENTED_EDGE('',*,*,#712,.F.);
#916=ORIENTED_EDGE('',*,*,#664,.F.);
#917=ORIENTED_EDGE('',*,*,#713,.F.);
#918=ORIENTED_EDGE('',*,*,#714,.F.);
#919=ORIENTED_EDGE('',*,*,#715,.F.);
#920=ORIENTED_EDGE('',*,*,#660,.F.);
#921=ORIENTED_EDGE('',*,*,#700,.T.);
#922=ORIENTED_EDGE('',*,*,#694,.T.);
#923=ORIENTED_EDGE('',*,*,#710,.T.);
#924=ORIENTED_EDGE('',*,*,#707,.T.);
#925=ORIENTED_EDGE('',*,*,#704,.T.);
#926=ORIENTED_EDGE('',*,*,#701,.T.);
#927=ORIENTED_EDGE('',*,*,#675,.T.);
#928=ORIENTED_EDGE('',*,*,#691,.T.);
#929=ORIENTED_EDGE('',*,*,#688,.T.);
#930=ORIENTED_EDGE('',*,*,#685,.T.);
#931=ORIENTED_EDGE('',*,*,#682,.T.);
#932=ORIENTED_EDGE('',*,*,#679,.T.);
#933=ORIENTED_EDGE('',*,*,#672,.T.);
#934=ORIENTED_EDGE('',*,*,#669,.F.);
#935=ORIENTED_EDGE('',*,*,#666,.T.);
#936=ORIENTED_EDGE('',*,*,#661,.F.);
#937=ORIENTED_EDGE('',*,*,#715,.T.);
#938=ORIENTED_EDGE('',*,*,#716,.T.);
#939=ORIENTED_EDGE('',*,*,#717,.T.);
#940=ORIENTED_EDGE('',*,*,#718,.T.);
#941=ORIENTED_EDGE('',*,*,#719,.T.);
#942=ORIENTED_EDGE('',*,*,#720,.T.);
#943=ORIENTED_EDGE('',*,*,#721,.T.);
#944=ORIENTED_EDGE('',*,*,#722,.T.);
#945=ORIENTED_EDGE('',*,*,#723,.T.);
#946=ORIENTED_EDGE('',*,*,#724,.T.);
#947=ORIENTED_EDGE('',*,*,#714,.T.);
#948=ORIENTED_EDGE('',*,*,#725,.F.);
#949=ORIENTED_EDGE('',*,*,#726,.T.);
#950=ORIENTED_EDGE('',*,*,#716,.F.);
#951=ORIENTED_EDGE('',*,*,#727,.F.);
#952=ORIENTED_EDGE('',*,*,#728,.T.);
#953=ORIENTED_EDGE('',*,*,#693,.T.);
#954=ORIENTED_EDGE('',*,*,#728,.F.);
#955=ORIENTED_EDGE('',*,*,#729,.F.);
#956=ORIENTED_EDGE('',*,*,#730,.T.);
#957=ORIENTED_EDGE('',*,*,#712,.T.);
#958=ORIENTED_EDGE('',*,*,#730,.F.);
#959=ORIENTED_EDGE('',*,*,#721,.F.);
#960=ORIENTED_EDGE('',*,*,#731,.T.);
#961=ORIENTED_EDGE('',*,*,#732,.F.);
#962=ORIENTED_EDGE('',*,*,#733,.F.);
#963=ORIENTED_EDGE('',*,*,#720,.F.);
#964=ORIENTED_EDGE('',*,*,#734,.T.);
#965=ORIENTED_EDGE('',*,*,#735,.F.);
#966=ORIENTED_EDGE('',*,*,#731,.F.);
#967=ORIENTED_EDGE('',*,*,#719,.F.);
#968=ORIENTED_EDGE('',*,*,#736,.F.);
#969=ORIENTED_EDGE('',*,*,#737,.F.);
#970=ORIENTED_EDGE('',*,*,#734,.F.);
#971=ORIENTED_EDGE('',*,*,#736,.T.);
#972=ORIENTED_EDGE('',*,*,#718,.F.);
#973=ORIENTED_EDGE('',*,*,#738,.F.);
#974=ORIENTED_EDGE('',*,*,#739,.F.);
#975=ORIENTED_EDGE('',*,*,#733,.T.);
#976=ORIENTED_EDGE('',*,*,#740,.F.);
#977=ORIENTED_EDGE('',*,*,#741,.T.);
#978=ORIENTED_EDGE('',*,*,#722,.F.);
#979=ORIENTED_EDGE('',*,*,#674,.T.);
#980=ORIENTED_EDGE('',*,*,#742,.T.);
#981=ORIENTED_EDGE('',*,*,#743,.T.);
#982=ORIENTED_EDGE('',*,*,#740,.T.);
#983=ORIENTED_EDGE('',*,*,#732,.T.);
#984=ORIENTED_EDGE('',*,*,#735,.T.);
#985=ORIENTED_EDGE('',*,*,#737,.T.);
#986=ORIENTED_EDGE('',*,*,#739,.T.);
#987=ORIENTED_EDGE('',*,*,#744,.T.);
#988=ORIENTED_EDGE('',*,*,#725,.T.);
#989=ORIENTED_EDGE('',*,*,#713,.T.);
#990=ORIENTED_EDGE('',*,*,#663,.F.);
#991=ORIENTED_EDGE('',*,*,#668,.T.);
#992=ORIENTED_EDGE('',*,*,#671,.F.);
#993=ORIENTED_EDGE('',*,*,#743,.F.);
#994=ORIENTED_EDGE('',*,*,#745,.T.);
#995=ORIENTED_EDGE('',*,*,#723,.F.);
#996=ORIENTED_EDGE('',*,*,#741,.F.);
#997=ORIENTED_EDGE('',*,*,#744,.F.);
#998=ORIENTED_EDGE('',*,*,#738,.T.);
#999=ORIENTED_EDGE('',*,*,#717,.F.);
#1000=ORIENTED_EDGE('',*,*,#726,.F.);
#1001=ORIENTED_EDGE('',*,*,#727,.T.);
#1002=ORIENTED_EDGE('',*,*,#729,.T.);
#1003=ORIENTED_EDGE('',*,*,#673,.T.);
#1004=ORIENTED_EDGE('',*,*,#724,.F.);
#1005=ORIENTED_EDGE('',*,*,#745,.F.);
#1006=ORIENTED_EDGE('',*,*,#742,.F.);
#1007=ORIENTED_EDGE('',*,*,#746,.F.);
#1008=ORIENTED_EDGE('',*,*,#747,.T.);
#1009=ORIENTED_EDGE('',*,*,#748,.T.);
#1010=ORIENTED_EDGE('',*,*,#749,.T.);
#1011=ORIENTED_EDGE('',*,*,#750,.T.);
#1012=ORIENTED_EDGE('',*,*,#751,.T.);
#1013=ORIENTED_EDGE('',*,*,#752,.F.);
#1014=ORIENTED_EDGE('',*,*,#749,.F.);
#1015=ORIENTED_EDGE('',*,*,#753,.F.);
#1016=ORIENTED_EDGE('',*,*,#754,.F.);
#1017=ORIENTED_EDGE('',*,*,#755,.F.);
#1018=ORIENTED_EDGE('',*,*,#756,.T.);
#1019=ORIENTED_EDGE('',*,*,#757,.T.);
#1020=ORIENTED_EDGE('',*,*,#758,.T.);
#1021=ORIENTED_EDGE('',*,*,#754,.T.);
#1022=ORIENTED_EDGE('',*,*,#757,.F.);
#1023=ORIENTED_EDGE('',*,*,#759,.F.);
#1024=ORIENTED_EDGE('',*,*,#760,.F.);
#1025=ORIENTED_EDGE('',*,*,#761,.F.);
#1026=ORIENTED_EDGE('',*,*,#762,.F.);
#1027=ORIENTED_EDGE('',*,*,#763,.T.);
#1028=ORIENTED_EDGE('',*,*,#764,.T.);
#1029=ORIENTED_EDGE('',*,*,#765,.F.);
#1030=ORIENTED_EDGE('',*,*,#766,.F.);
#1031=ORIENTED_EDGE('',*,*,#767,.T.);
#1032=ORIENTED_EDGE('',*,*,#768,.T.);
#1033=ORIENTED_EDGE('',*,*,#763,.F.);
#1034=ORIENTED_EDGE('',*,*,#769,.F.);
#1035=ORIENTED_EDGE('',*,*,#770,.T.);
#1036=ORIENTED_EDGE('',*,*,#771,.T.);
#1037=ORIENTED_EDGE('',*,*,#767,.F.);
#1038=ORIENTED_EDGE('',*,*,#772,.F.);
#1039=ORIENTED_EDGE('',*,*,#773,.T.);
#1040=ORIENTED_EDGE('',*,*,#774,.T.);
#1041=ORIENTED_EDGE('',*,*,#770,.F.);
#1042=ORIENTED_EDGE('',*,*,#775,.F.);
#1043=ORIENTED_EDGE('',*,*,#776,.T.);
#1044=ORIENTED_EDGE('',*,*,#777,.T.);
#1045=ORIENTED_EDGE('',*,*,#773,.F.);
#1046=ORIENTED_EDGE('',*,*,#778,.F.);
#1047=ORIENTED_EDGE('',*,*,#765,.T.);
#1048=ORIENTED_EDGE('',*,*,#779,.T.);
#1049=ORIENTED_EDGE('',*,*,#776,.F.);
#1050=ORIENTED_EDGE('',*,*,#779,.F.);
#1051=ORIENTED_EDGE('',*,*,#764,.F.);
#1052=ORIENTED_EDGE('',*,*,#768,.F.);
#1053=ORIENTED_EDGE('',*,*,#771,.F.);
#1054=ORIENTED_EDGE('',*,*,#774,.F.);
#1055=ORIENTED_EDGE('',*,*,#777,.F.);
#1056=ORIENTED_EDGE('',*,*,#780,.F.);
#1057=ORIENTED_EDGE('',*,*,#781,.F.);
#1058=ORIENTED_EDGE('',*,*,#782,.T.);
#1059=ORIENTED_EDGE('',*,*,#783,.T.);
#1060=ORIENTED_EDGE('',*,*,#784,.F.);
#1061=ORIENTED_EDGE('',*,*,#785,.T.);
#1062=ORIENTED_EDGE('',*,*,#786,.T.);
#1063=ORIENTED_EDGE('',*,*,#782,.F.);
#1064=ORIENTED_EDGE('',*,*,#787,.F.);
#1065=ORIENTED_EDGE('',*,*,#746,.T.);
#1066=ORIENTED_EDGE('',*,*,#788,.F.);
#1067=ORIENTED_EDGE('',*,*,#789,.T.);
#1068=ORIENTED_EDGE('',*,*,#790,.T.);
#1069=ORIENTED_EDGE('',*,*,#785,.F.);
#1070=ORIENTED_EDGE('',*,*,#752,.T.);
#1071=ORIENTED_EDGE('',*,*,#791,.F.);
#1072=ORIENTED_EDGE('',*,*,#792,.T.);
#1073=ORIENTED_EDGE('',*,*,#793,.T.);
#1074=ORIENTED_EDGE('',*,*,#789,.F.);
#1075=ORIENTED_EDGE('',*,*,#794,.F.);
#1076=ORIENTED_EDGE('',*,*,#795,.T.);
#1077=ORIENTED_EDGE('',*,*,#796,.T.);
#1078=ORIENTED_EDGE('',*,*,#792,.F.);
#1079=ORIENTED_EDGE('',*,*,#797,.F.);
#1080=ORIENTED_EDGE('',*,*,#784,.T.);
#1081=ORIENTED_EDGE('',*,*,#798,.T.);
#1082=ORIENTED_EDGE('',*,*,#795,.F.);
#1083=ORIENTED_EDGE('',*,*,#798,.F.);
#1084=ORIENTED_EDGE('',*,*,#783,.F.);
#1085=ORIENTED_EDGE('',*,*,#786,.F.);
#1086=ORIENTED_EDGE('',*,*,#790,.F.);
#1087=ORIENTED_EDGE('',*,*,#793,.F.);
#1088=ORIENTED_EDGE('',*,*,#796,.F.);
#1089=ORIENTED_EDGE('',*,*,#799,.F.);
#1090=ORIENTED_EDGE('',*,*,#751,.F.);
#1091=ORIENTED_EDGE('',*,*,#800,.F.);
#1092=ORIENTED_EDGE('',*,*,#801,.F.);
#1093=ORIENTED_EDGE('',*,*,#802,.F.);
#1094=ORIENTED_EDGE('',*,*,#747,.F.);
#1095=ORIENTED_EDGE('',*,*,#787,.T.);
#1096=ORIENTED_EDGE('',*,*,#781,.T.);
#1097=ORIENTED_EDGE('',*,*,#797,.T.);
#1098=ORIENTED_EDGE('',*,*,#794,.T.);
#1099=ORIENTED_EDGE('',*,*,#791,.T.);
#1100=ORIENTED_EDGE('',*,*,#788,.T.);
#1101=ORIENTED_EDGE('',*,*,#762,.T.);
#1102=ORIENTED_EDGE('',*,*,#778,.T.);
#1103=ORIENTED_EDGE('',*,*,#775,.T.);
#1104=ORIENTED_EDGE('',*,*,#772,.T.);
#1105=ORIENTED_EDGE('',*,*,#769,.T.);
#1106=ORIENTED_EDGE('',*,*,#766,.T.);
#1107=ORIENTED_EDGE('',*,*,#759,.T.);
#1108=ORIENTED_EDGE('',*,*,#756,.F.);
#1109=ORIENTED_EDGE('',*,*,#753,.T.);
#1110=ORIENTED_EDGE('',*,*,#748,.F.);
#1111=ORIENTED_EDGE('',*,*,#802,.T.);
#1112=ORIENTED_EDGE('',*,*,#803,.T.);
#1113=ORIENTED_EDGE('',*,*,#804,.T.);
#1114=ORIENTED_EDGE('',*,*,#805,.T.);
#1115=ORIENTED_EDGE('',*,*,#806,.T.);
#1116=ORIENTED_EDGE('',*,*,#807,.T.);
#1117=ORIENTED_EDGE('',*,*,#808,.T.);
#1118=ORIENTED_EDGE('',*,*,#809,.T.);
#1119=ORIENTED_EDGE('',*,*,#810,.T.);
#1120=ORIENTED_EDGE('',*,*,#811,.T.);
#1121=ORIENTED_EDGE('',*,*,#801,.T.);
#1122=ORIENTED_EDGE('',*,*,#812,.F.);
#1123=ORIENTED_EDGE('',*,*,#813,.T.);
#1124=ORIENTED_EDGE('',*,*,#803,.F.);
#1125=ORIENTED_EDGE('',*,*,#814,.F.);
#1126=ORIENTED_EDGE('',*,*,#815,.T.);
#1127=ORIENTED_EDGE('',*,*,#780,.T.);
#1128=ORIENTED_EDGE('',*,*,#815,.F.);
#1129=ORIENTED_EDGE('',*,*,#816,.F.);
#1130=ORIENTED_EDGE('',*,*,#817,.T.);
#1131=ORIENTED_EDGE('',*,*,#799,.T.);
#1132=ORIENTED_EDGE('',*,*,#817,.F.);
#1133=ORIENTED_EDGE('',*,*,#808,.F.);
#1134=ORIENTED_EDGE('',*,*,#818,.T.);
#1135=ORIENTED_EDGE('',*,*,#819,.F.);
#1136=ORIENTED_EDGE('',*,*,#820,.F.);
#1137=ORIENTED_EDGE('',*,*,#807,.F.);
#1138=ORIENTED_EDGE('',*,*,#821,.T.);
#1139=ORIENTED_EDGE('',*,*,#822,.F.);
#1140=ORIENTED_EDGE('',*,*,#818,.F.);
#1141=ORIENTED_EDGE('',*,*,#806,.F.);
#1142=ORIENTED_EDGE('',*,*,#823,.F.);
#1143=ORIENTED_EDGE('',*,*,#824,.F.);
#1144=ORIENTED_EDGE('',*,*,#821,.F.);
#1145=ORIENTED_EDGE('',*,*,#823,.T.);
#1146=ORIENTED_EDGE('',*,*,#805,.F.);
#1147=ORIENTED_EDGE('',*,*,#825,.F.);
#1148=ORIENTED_EDGE('',*,*,#826,.F.);
#1149=ORIENTED_EDGE('',*,*,#820,.T.);
#1150=ORIENTED_EDGE('',*,*,#827,.F.);
#1151=ORIENTED_EDGE('',*,*,#828,.T.);
#1152=ORIENTED_EDGE('',*,*,#809,.F.);
#1153=ORIENTED_EDGE('',*,*,#761,.T.);
#1154=ORIENTED_EDGE('',*,*,#829,.T.);
#1155=ORIENTED_EDGE('',*,*,#830,.T.);
#1156=ORIENTED_EDGE('',*,*,#827,.T.);
#1157=ORIENTED_EDGE('',*,*,#819,.T.);
#1158=ORIENTED_EDGE('',*,*,#822,.T.);
#1159=ORIENTED_EDGE('',*,*,#824,.T.);
#1160=ORIENTED_EDGE('',*,*,#826,.T.);
#1161=ORIENTED_EDGE('',*,*,#831,.T.);
#1162=ORIENTED_EDGE('',*,*,#812,.T.);
#1163=ORIENTED_EDGE('',*,*,#800,.T.);
#1164=ORIENTED_EDGE('',*,*,#750,.F.);
#1165=ORIENTED_EDGE('',*,*,#755,.T.);
#1166=ORIENTED_EDGE('',*,*,#758,.F.);
#1167=ORIENTED_EDGE('',*,*,#830,.F.);
#1168=ORIENTED_EDGE('',*,*,#832,.T.);
#1169=ORIENTED_EDGE('',*,*,#810,.F.);
#1170=ORIENTED_EDGE('',*,*,#828,.F.);
#1171=ORIENTED_EDGE('',*,*,#831,.F.);
#1172=ORIENTED_EDGE('',*,*,#825,.T.);
#1173=ORIENTED_EDGE('',*,*,#804,.F.);
#1174=ORIENTED_EDGE('',*,*,#813,.F.);
#1175=ORIENTED_EDGE('',*,*,#814,.T.);
#1176=ORIENTED_EDGE('',*,*,#816,.T.);
#1177=ORIENTED_EDGE('',*,*,#760,.T.);
#1178=ORIENTED_EDGE('',*,*,#811,.F.);
#1179=ORIENTED_EDGE('',*,*,#832,.F.);
#1180=ORIENTED_EDGE('',*,*,#829,.F.);
#1181=CYLINDRICAL_SURFACE('',#1270,0.5);
#1182=CYLINDRICAL_SURFACE('',#1276,0.5);
#1183=CYLINDRICAL_SURFACE('',#1300,1.1);
#1184=CYLINDRICAL_SURFACE('',#1302,1.1);
#1185=CYLINDRICAL_SURFACE('',#1305,3.);
#1186=CYLINDRICAL_SURFACE('',#1314,0.5);
#1187=CYLINDRICAL_SURFACE('',#1320,0.5);
#1188=CYLINDRICAL_SURFACE('',#1344,1.1);
#1189=CYLINDRICAL_SURFACE('',#1346,1.1);
#1190=CYLINDRICAL_SURFACE('',#1349,3.);
#1191=ADVANCED_FACE('',(#81),#1181,.F.);
#1192=ADVANCED_FACE('',(#82),#27,.F.);
#1193=ADVANCED_FACE('',(#83),#1182,.F.);
#1194=ADVANCED_FACE('',(#84),#28,.F.);
#1195=ADVANCED_FACE('',(#85),#29,.F.);
#1196=ADVANCED_FACE('',(#86),#30,.F.);
#1197=ADVANCED_FACE('',(#87),#31,.F.);
#1198=ADVANCED_FACE('',(#88),#32,.F.);
#1199=ADVANCED_FACE('',(#89),#33,.F.);
#1200=ADVANCED_FACE('',(#90),#34,.F.);
#1201=ADVANCED_FACE('',(#91,#17),#35,.F.);
#1202=ADVANCED_FACE('',(#92),#36,.F.);
#1203=ADVANCED_FACE('',(#93),#37,.F.);
#1204=ADVANCED_FACE('',(#94),#38,.F.);
#1205=ADVANCED_FACE('',(#95),#39,.F.);
#1206=ADVANCED_FACE('',(#96),#40,.F.);
#1207=ADVANCED_FACE('',(#97),#41,.F.);
#1208=ADVANCED_FACE('',(#98,#18),#42,.F.);
#1209=ADVANCED_FACE('',(#99,#19),#43,.F.);
#1210=ADVANCED_FACE('',(#100),#44,.T.);
#1211=ADVANCED_FACE('',(#101),#45,.T.);
#1212=ADVANCED_FACE('',(#102),#1183,.F.);
#1213=ADVANCED_FACE('',(#103),#1184,.F.);
#1214=ADVANCED_FACE('',(#104),#46,.F.);
#1215=ADVANCED_FACE('',(#105),#1185,.F.);
#1216=ADVANCED_FACE('',(#106),#47,.F.);
#1217=ADVANCED_FACE('',(#107),#48,.T.);
#1218=ADVANCED_FACE('',(#108),#49,.T.);
#1219=ADVANCED_FACE('',(#109),#50,.F.);
#1220=ADVANCED_FACE('',(#110),#51,.T.);
#1221=ADVANCED_FACE('',(#111,#20,#21),#52,.T.);
#1222=ADVANCED_FACE('',(#112),#53,.T.);
#1223=ADVANCED_FACE('',(#113),#1186,.F.);
#1224=ADVANCED_FACE('',(#114),#54,.F.);
#1225=ADVANCED_FACE('',(#115),#1187,.F.);
#1226=ADVANCED_FACE('',(#116),#55,.F.);
#1227=ADVANCED_FACE('',(#117),#56,.F.);
#1228=ADVANCED_FACE('',(#118),#57,.F.);
#1229=ADVANCED_FACE('',(#119),#58,.F.);
#1230=ADVANCED_FACE('',(#120),#59,.F.);
#1231=ADVANCED_FACE('',(#121),#60,.F.);
#1232=ADVANCED_FACE('',(#122),#61,.F.);
#1233=ADVANCED_FACE('',(#123,#22),#62,.F.);
#1234=ADVANCED_FACE('',(#124),#63,.F.);
#1235=ADVANCED_FACE('',(#125),#64,.F.);
#1236=ADVANCED_FACE('',(#126),#65,.F.);
#1237=ADVANCED_FACE('',(#127),#66,.F.);
#1238=ADVANCED_FACE('',(#128),#67,.F.);
#1239=ADVANCED_FACE('',(#129),#68,.F.);
#1240=ADVANCED_FACE('',(#130,#23),#69,.F.);
#1241=ADVANCED_FACE('',(#131,#24),#70,.F.);
#1242=ADVANCED_FACE('',(#132),#71,.T.);
#1243=ADVANCED_FACE('',(#133),#72,.T.);
#1244=ADVANCED_FACE('',(#134),#1188,.F.);
#1245=ADVANCED_FACE('',(#135),#1189,.F.);
#1246=ADVANCED_FACE('',(#136),#73,.F.);
#1247=ADVANCED_FACE('',(#137),#1190,.F.);
#1248=ADVANCED_FACE('',(#138),#74,.F.);
#1249=ADVANCED_FACE('',(#139),#75,.T.);
#1250=ADVANCED_FACE('',(#140),#76,.T.);
#1251=ADVANCED_FACE('',(#141),#77,.F.);
#1252=ADVANCED_FACE('',(#142),#78,.T.);
#1253=ADVANCED_FACE('',(#143,#25,#26),#79,.T.);
#1254=ADVANCED_FACE('',(#144),#80,.T.);
#1255=CLOSED_SHELL('',(#1191,#1192,#1193,#1194,#1195,#1196,#1197,#1198,
#1199,#1200,#1201,#1202,#1203,#1204,#1205,#1206,#1207,#1208,#1209,#1210,
#1211,#1212,#1213,#1214,#1215,#1216,#1217,#1218,#1219,#1220,#1221,#1222));
#1256=CLOSED_SHELL('',(#1223,#1224,#1225,#1226,#1227,#1228,#1229,#1230,
#1231,#1232,#1233,#1234,#1235,#1236,#1237,#1238,#1239,#1240,#1241,#1242,
#1243,#1244,#1245,#1246,#1247,#1248,#1249,#1250,#1251,#1252,#1253,#1254));
#1257=DERIVED_UNIT_ELEMENT(#1259,1.);
#1258=DERIVED_UNIT_ELEMENT(#2046,-3.);
#1259=(
MASS_UNIT()
NAMED_UNIT(*)
SI_UNIT(.KILO.,.GRAM.)
);
#1260=DERIVED_UNIT((#1257,#1258));
#1261=MEASURE_REPRESENTATION_ITEM('density measure',
POSITIVE_RATIO_MEASURE(7850.),#1260);
#1262=PROPERTY_DEFINITION_REPRESENTATION(#1267,#1264);
#1263=PROPERTY_DEFINITION_REPRESENTATION(#1268,#1265);
#1264=REPRESENTATION('material name',(#1266),#2043);
#1265=REPRESENTATION('density',(#1261),#2043);
#1266=DESCRIPTIVE_REPRESENTATION_ITEM('Acier','Acier');
#1267=PROPERTY_DEFINITION('material property','material name',#2053);
#1268=PROPERTY_DEFINITION('material property','density of part',#2053);
#1269=AXIS2_PLACEMENT_3D('',#1686,#1358,#1359);
#1270=AXIS2_PLACEMENT_3D('',#1687,#1360,#1361);
#1271=AXIS2_PLACEMENT_3D('',#1690,#1362,#1363);
#1272=AXIS2_PLACEMENT_3D('',#1694,#1365,#1366);
#1273=AXIS2_PLACEMENT_3D('',#1698,#1368,#1369);
#1274=AXIS2_PLACEMENT_3D('',#1701,#1371,#1372);
#1275=AXIS2_PLACEMENT_3D('',#1702,#1373,#1374);
#1276=AXIS2_PLACEMENT_3D('',#1708,#1378,#1379);
#1277=AXIS2_PLACEMENT_3D('',#1710,#1380,#1381);
#1278=AXIS2_PLACEMENT_3D('',#1713,#1383,#1384);
#1279=AXIS2_PLACEMENT_3D('',#1714,#1385,#1386);
#1280=AXIS2_PLACEMENT_3D('',#1720,#1390,#1391);
#1281=AXIS2_PLACEMENT_3D('',#1729,#1396,#1397);
#1282=AXIS2_PLACEMENT_3D('',#1735,#1401,#1402);
#1283=AXIS2_PLACEMENT_3D('',#1741,#1406,#1407);
#1284=AXIS2_PLACEMENT_3D('',#1747,#1411,#1412);
#1285=AXIS2_PLACEMENT_3D('',#1753,#1416,#1417);
#1286=AXIS2_PLACEMENT_3D('',#1756,#1420,#1421);
#1287=AXIS2_PLACEMENT_3D('',#1758,#1422,#1423);
#1288=AXIS2_PLACEMENT_3D('',#1759,#1424,#1425);
#1289=AXIS2_PLACEMENT_3D('',#1768,#1430,#1431);
#1290=AXIS2_PLACEMENT_3D('',#1773,#1435,#1436);
#1291=AXIS2_PLACEMENT_3D('',#1779,#1440,#1441);
#1292=AXIS2_PLACEMENT_3D('',#1785,#1445,#1446);
#1293=AXIS2_PLACEMENT_3D('',#1791,#1450,#1451);
#1294=AXIS2_PLACEMENT_3D('',#1794,#1454,#1455);
#1295=AXIS2_PLACEMENT_3D('',#1796,#1456,#1457);
#1296=AXIS2_PLACEMENT_3D('',#1797,#1458,#1459);
#1297=AXIS2_PLACEMENT_3D('',#1803,#1463,#1464);
#1298=AXIS2_PLACEMENT_3D('',#1813,#1469,#1470);
#1299=AXIS2_PLACEMENT_3D('',#1821,#1475,#1476);
#1300=AXIS2_PLACEMENT_3D('',#1825,#1479,#1480);
#1301=AXIS2_PLACEMENT_3D('',#1827,#1481,#1482);
#1302=AXIS2_PLACEMENT_3D('',#1829,#1484,#1485);
#1303=AXIS2_PLACEMENT_3D('',#1831,#1486,#1487);
#1304=AXIS2_PLACEMENT_3D('',#1833,#1489,#1490);
#1305=AXIS2_PLACEMENT_3D('',#1839,#1494,#1495);
#1306=AXIS2_PLACEMENT_3D('',#1842,#1497,#1498);
#1307=AXIS2_PLACEMENT_3D('',#1843,#1499,#1500);
#1308=AXIS2_PLACEMENT_3D('',#1847,#1503,#1504);
#1309=AXIS2_PLACEMENT_3D('',#1851,#1507,#1508);
#1310=AXIS2_PLACEMENT_3D('',#1855,#1511,#1512);
#1311=AXIS2_PLACEMENT_3D('',#1860,#1516,#1517);
#1312=AXIS2_PLACEMENT_3D('',#1862,#1519,#1520);
#1313=AXIS2_PLACEMENT_3D('',#1863,#1521,#1522);
#1314=AXIS2_PLACEMENT_3D('',#1864,#1523,#1524);
#1315=AXIS2_PLACEMENT_3D('',#1867,#1525,#1526);
#1316=AXIS2_PLACEMENT_3D('',#1871,#1528,#1529);
#1317=AXIS2_PLACEMENT_3D('',#1875,#1531,#1532);
#1318=AXIS2_PLACEMENT_3D('',#1878,#1534,#1535);
#1319=AXIS2_PLACEMENT_3D('',#1879,#1536,#1537);
#1320=AXIS2_PLACEMENT_3D('',#1885,#1541,#1542);
#1321=AXIS2_PLACEMENT_3D('',#1887,#1543,#1544);
#1322=AXIS2_PLACEMENT_3D('',#1890,#1546,#1547);
#1323=AXIS2_PLACEMENT_3D('',#1891,#1548,#1549);
#1324=AXIS2_PLACEMENT_3D('',#1897,#1553,#1554);
#1325=AXIS2_PLACEMENT_3D('',#1906,#1559,#1560);
#1326=AXIS2_PLACEMENT_3D('',#1912,#1564,#1565);
#1327=AXIS2_PLACEMENT_3D('',#1918,#1569,#1570);
#1328=AXIS2_PLACEMENT_3D('',#1924,#1574,#1575);
#1329=AXIS2_PLACEMENT_3D('',#1930,#1579,#1580);
#1330=AXIS2_PLACEMENT_3D('',#1933,#1583,#1584);
#1331=AXIS2_PLACEMENT_3D('',#1935,#1585,#1586);
#1332=AXIS2_PLACEMENT_3D('',#1936,#1587,#1588);
#1333=AXIS2_PLACEMENT_3D('',#1945,#1593,#1594);
#1334=AXIS2_PLACEMENT_3D('',#1950,#1598,#1599);
#1335=AXIS2_PLACEMENT_3D('',#1956,#1603,#1604);
#1336=AXIS2_PLACEMENT_3D('',#1962,#1608,#1609);
#1337=AXIS2_PLACEMENT_3D('',#1968,#1613,#1614);
#1338=AXIS2_PLACEMENT_3D('',#1971,#1617,#1618);
#1339=AXIS2_PLACEMENT_3D('',#1973,#1619,#1620);
#1340=AXIS2_PLACEMENT_3D('',#1974,#1621,#1622);
#1341=AXIS2_PLACEMENT_3D('',#1980,#1626,#1627);
#1342=AXIS2_PLACEMENT_3D('',#1990,#1632,#1633);
#1343=AXIS2_PLACEMENT_3D('',#1998,#1638,#1639);
#1344=AXIS2_PLACEMENT_3D('',#2002,#1642,#1643);
#1345=AXIS2_PLACEMENT_3D('',#2004,#1644,#1645);
#1346=AXIS2_PLACEMENT_3D('',#2006,#1647,#1648);
#1347=AXIS2_PLACEMENT_3D('',#2008,#1649,#1650);
#1348=AXIS2_PLACEMENT_3D('',#2010,#1652,#1653);
#1349=AXIS2_PLACEMENT_3D('',#2016,#1657,#1658);
#1350=AXIS2_PLACEMENT_3D('',#2019,#1660,#1661);
#1351=AXIS2_PLACEMENT_3D('',#2020,#1662,#1663);
#1352=AXIS2_PLACEMENT_3D('',#2024,#1666,#1667);
#1353=AXIS2_PLACEMENT_3D('',#2028,#1670,#1671);
#1354=AXIS2_PLACEMENT_3D('',#2032,#1674,#1675);
#1355=AXIS2_PLACEMENT_3D('',#2037,#1679,#1680);
#1356=AXIS2_PLACEMENT_3D('',#2039,#1682,#1683);
#1357=AXIS2_PLACEMENT_3D('',#2040,#1684,#1685);
#1358=DIRECTION('axis',(0.,0.,1.));
#1359=DIRECTION('refdir',(1.,0.,0.));
#1360=DIRECTION('center_axis',(-1.,0.,0.));
#1361=DIRECTION('ref_axis',(0.,0.707106781186549,-0.707106781186546));
#1362=DIRECTION('center_axis',(-0.769329669004827,-0.638851986291758,0.));
#1363=DIRECTION('ref_axis',(-0.638851986291757,0.769329669004827,0.));
#1364=DIRECTION('',(1.,0.,0.));
#1365=DIRECTION('center_axis',(1.,0.,0.));
#1366=DIRECTION('ref_axis',(0.,0.707106781186549,-0.707106781186546));
#1367=DIRECTION('',(-1.,0.,0.));
#1368=DIRECTION('center_axis',(-1.,0.,0.));
#1369=DIRECTION('ref_axis',(0.,0.707106781186549,-0.707106781186546));
#1370=DIRECTION('',(1.,0.,0.));
#1371=DIRECTION('center_axis',(0.168597214884397,-0.985685030389132,0.));
#1372=DIRECTION('ref_axis',(0.985685030389132,0.168597214884397,0.));
#1373=DIRECTION('center_axis',(0.,1.,0.));
#1374=DIRECTION('ref_axis',(0.,0.,-1.));
#1375=DIRECTION('',(0.,0.,-1.));
#1376=DIRECTION('',(1.,0.,0.));
#1377=DIRECTION('',(0.,0.,1.));
#1378=DIRECTION('center_axis',(-1.,0.,0.));
#1379=DIRECTION('ref_axis',(0.,0.707106781186548,0.707106781186547));
#1380=DIRECTION('center_axis',(1.,0.,0.));
#1381=DIRECTION('ref_axis',(0.,0.707106781186548,0.707106781186547));
#1382=DIRECTION('',(-1.,0.,0.));
#1383=DIRECTION('center_axis',(-1.,0.,0.));
#1384=DIRECTION('ref_axis',(0.,0.707106781186548,0.707106781186547));
#1385=DIRECTION('center_axis',(0.,0.,1.));
#1386=DIRECTION('ref_axis',(0.,1.,0.));
#1387=DIRECTION('',(0.,1.,0.));
#1388=DIRECTION('',(1.,0.,0.));
#1389=DIRECTION('',(0.,-1.,0.));
#1390=DIRECTION('center_axis',(0.0296243068699452,-0.999561103906347,0.));
#1391=DIRECTION('ref_axis',(-0.999561103906347,-0.0296243068699452,0.));
#1392=DIRECTION('',(-0.999561103906347,-0.0296243068699452,0.));
#1393=DIRECTION('',(0.,0.,-1.));
#1394=DIRECTION('',(-0.999561103906347,-0.0296243068699452,0.));
#1395=DIRECTION('',(0.,0.,-1.));
#1396=DIRECTION('center_axis',(0.880457462052686,-0.474125149634295,0.));
#1397=DIRECTION('ref_axis',(-0.474125149634295,-0.880457462052686,0.));
#1398=DIRECTION('',(-0.474125149634295,-0.880457462052686,0.));
#1399=DIRECTION('',(0.,0.,-1.));
#1400=DIRECTION('',(-0.474125149634295,-0.880457462052686,0.));
#1401=DIRECTION('center_axis',(0.850833155182741,0.525435954272052,0.));
#1402=DIRECTION('ref_axis',(0.525435954272052,-0.850833155182741,0.));
#1403=DIRECTION('',(0.525435954272052,-0.850833155182741,0.));
#1404=DIRECTION('',(0.,0.,-1.));
#1405=DIRECTION('',(0.525435954272052,-0.850833155182741,0.));
#1406=DIRECTION('center_axis',(-0.0296243068699451,0.999561103906347,0.));
#1407=DIRECTION('ref_axis',(0.999561103906347,0.0296243068699451,0.));
#1408=DIRECTION('',(0.999561103906347,0.0296243068699451,0.));
#1409=DIRECTION('',(0.,0.,-1.));
#1410=DIRECTION('',(0.999561103906347,0.0296243068699451,0.));
#1411=DIRECTION('center_axis',(-0.880457462052686,0.474125149634296,0.));
#1412=DIRECTION('ref_axis',(0.474125149634296,0.880457462052686,0.));
#1413=DIRECTION('',(0.474125149634296,0.880457462052686,0.));
#1414=DIRECTION('',(0.,0.,-1.));
#1415=DIRECTION('',(0.474125149634296,0.880457462052686,0.));
#1416=DIRECTION('center_axis',(-0.850833155182741,-0.525435954272052,0.));
#1417=DIRECTION('ref_axis',(-0.525435954272052,0.850833155182741,0.));
#1418=DIRECTION('',(-0.525435954272052,0.850833155182741,0.));
#1419=DIRECTION('',(-0.525435954272052,0.850833155182741,0.));
#1420=DIRECTION('center_axis',(0.,0.,-1.));
#1421=DIRECTION('ref_axis',(-1.,0.,0.));
#1422=DIRECTION('center_axis',(0.,0.,1.));
#1423=DIRECTION('ref_axis',(-1.,0.,0.));
#1424=DIRECTION('center_axis',(0.937926883889223,-0.346833044097375,0.));
#1425=DIRECTION('ref_axis',(-0.346833044097375,-0.937926883889223,0.));
#1426=DIRECTION('',(-0.346833044097375,-0.937926883889223,0.));
#1427=DIRECTION('',(0.,0.,-1.));
#1428=DIRECTION('',(-0.346833044097375,-0.937926883889223,0.));
#1429=DIRECTION('',(0.,0.,-1.));
#1430=DIRECTION('center_axis',(0.769329669004827,0.638851986291758,0.));
#1431=DIRECTION('ref_axis',(0.638851986291758,-0.769329669004827,0.));
#1432=DIRECTION('',(0.,0.,-1.));
#1433=DIRECTION('',(0.638851986291758,-0.769329669004827,0.));
#1434=DIRECTION('',(0.638851986291758,-0.769329669004827,0.));
#1435=DIRECTION('center_axis',(-0.168597214884397,0.985685030389132,0.));
#1436=DIRECTION('ref_axis',(0.985685030389132,0.168597214884397,0.));
#1437=DIRECTION('',(0.985685030389132,0.168597214884397,0.));
#1438=DIRECTION('',(0.,0.,-1.));
#1439=DIRECTION('',(0.985685030389132,0.168597214884397,0.));
#1440=DIRECTION('center_axis',(-0.937926883889223,0.346833044097375,0.));
#1441=DIRECTION('ref_axis',(0.346833044097375,0.937926883889223,0.));
#1442=DIRECTION('',(0.346833044097375,0.937926883889223,0.));
#1443=DIRECTION('',(0.,0.,-1.));
#1444=DIRECTION('',(0.346833044097375,0.937926883889223,0.));
#1445=DIRECTION('center_axis',(-0.769329669004827,-0.638851986291757,0.));
#1446=DIRECTION('ref_axis',(-0.638851986291757,0.769329669004827,0.));
#1447=DIRECTION('',(-0.638851986291757,0.769329669004827,0.));
#1448=DIRECTION('',(0.,0.,-1.));
#1449=DIRECTION('',(-0.638851986291757,0.769329669004827,0.));
#1450=DIRECTION('center_axis',(0.168597214884397,-0.985685030389132,0.));
#1451=DIRECTION('ref_axis',(-0.985685030389132,-0.168597214884397,0.));
#1452=DIRECTION('',(-0.985685030389132,-0.168597214884397,0.));
#1453=DIRECTION('',(-0.985685030389132,-0.168597214884397,0.));
#1454=DIRECTION('center_axis',(0.,0.,-1.));
#1455=DIRECTION('ref_axis',(-1.,0.,0.));
#1456=DIRECTION('center_axis',(0.,0.,1.));
#1457=DIRECTION('ref_axis',(-1.,0.,0.));
#1458=DIRECTION('center_axis',(0.,0.,-1.));
#1459=DIRECTION('ref_axis',(0.,-1.,0.));
#1460=DIRECTION('',(0.,1.,0.));
#1461=DIRECTION('',(-1.,0.,0.));
#1462=DIRECTION('',(0.,-1.,0.));
#1463=DIRECTION('center_axis',(1.,0.,0.));
#1464=DIRECTION('ref_axis',(0.,0.,-1.));
#1465=DIRECTION('',(0.,1.22451068892481E-16,-1.));
#1466=DIRECTION('',(0.,1.,9.34924652315921E-16));
#1467=DIRECTION('',(0.,4.08170229641602E-17,1.));
#1468=DIRECTION('',(0.,-1.,-5.55111512312578E-16));
#1469=DIRECTION('center_axis',(-1.,0.,0.));
#1470=DIRECTION('ref_axis',(0.,0.,-1.));
#1471=DIRECTION('',(0.,1.,0.));
#1472=DIRECTION('',(0.,4.08170229641602E-17,1.));
#1473=DIRECTION('',(0.,-1.,4.6746232615796E-16));
#1474=DIRECTION('',(0.,1.22451068892481E-16,-1.));
#1475=DIRECTION('center_axis',(0.,-1.,-1.22451068892481E-16));
#1476=DIRECTION('ref_axis',(0.,1.22451068892481E-16,-1.));
#1477=DIRECTION('',(0.,-1.22451068892481E-16,1.));
#1478=DIRECTION('',(1.,0.,0.));
#1479=DIRECTION('center_axis',(0.,-9.34924652315921E-16,1.));
#1480=DIRECTION('ref_axis',(-1.,0.,0.));
#1481=DIRECTION('center_axis',(0.,-9.34924652315921E-16,1.));
#1482=DIRECTION('ref_axis',(-1.,0.,0.));
#1483=DIRECTION('',(0.,-9.34924652315921E-16,1.));
#1484=DIRECTION('center_axis',(0.,-9.34924652315921E-16,1.));
#1485=DIRECTION('ref_axis',(-1.,0.,0.));
#1486=DIRECTION('center_axis',(0.,-9.34924652315921E-16,1.));
#1487=DIRECTION('ref_axis',(-1.,0.,0.));
#1488=DIRECTION('',(0.,-9.34924652315921E-16,1.));
#1489=DIRECTION('center_axis',(0.,0.,1.));
#1490=DIRECTION('ref_axis',(0.,1.,0.));
#1491=DIRECTION('',(-1.,0.,0.));
#1492=DIRECTION('',(0.,-1.,0.));
#1493=DIRECTION('',(-1.,0.,0.));
#1494=DIRECTION('center_axis',(-1.,0.,0.));
#1495=DIRECTION('ref_axis',(0.,-0.999999991618097,0.000129475118339284));
#1496=DIRECTION('',(-1.,0.,0.));
#1497=DIRECTION('center_axis',(1.,0.,0.));
#1498=DIRECTION('ref_axis',(0.,0.,-1.));
#1499=DIRECTION('center_axis',(0.,5.55111512312578E-16,-1.));
#1500=DIRECTION('ref_axis',(0.,-1.,-5.55111512312578E-16));
#1501=DIRECTION('',(1.,0.,0.));
#1502=DIRECTION('',(0.,1.,5.55111512312578E-16));
#1503=DIRECTION('center_axis',(0.,1.,-4.08170229641602E-17));
#1504=DIRECTION('ref_axis',(0.,4.08170229641602E-17,1.));
#1505=DIRECTION('',(1.,0.,0.));
#1506=DIRECTION('',(0.,-4.08170229641602E-17,-1.));
#1507=DIRECTION('center_axis',(0.,1.,-4.08170229641602E-17));
#1508=DIRECTION('ref_axis',(0.,4.08170229641602E-17,1.));
#1509=DIRECTION('',(0.,-4.08170229641602E-17,-1.));
#1510=DIRECTION('',(1.,0.,0.));
#1511=DIRECTION('center_axis',(1.,0.,0.));
#1512=DIRECTION('ref_axis',(0.,0.,-1.));
#1513=DIRECTION('',(0.,-1.22451068892481E-16,1.));
#1514=DIRECTION('',(0.,1.,-4.6746232615796E-16));
#1515=DIRECTION('',(0.,-1.,-9.34924652315921E-16));
#1516=DIRECTION('center_axis',(0.,4.6746232615796E-16,1.));
#1517=DIRECTION('ref_axis',(0.,-1.,4.6746232615796E-16));
#1518=DIRECTION('',(1.,0.,0.));
#1519=DIRECTION('center_axis',(0.,9.34924652315921E-16,-1.));
#1520=DIRECTION('ref_axis',(0.,1.,9.34924652315921E-16));
#1521=DIRECTION('center_axis',(0.,-1.,-1.22451068892481E-16));
#1522=DIRECTION('ref_axis',(0.,1.22451068892481E-16,-1.));
#1523=DIRECTION('center_axis',(-1.,0.,0.));
#1524=DIRECTION('ref_axis',(0.,0.707106781186549,-0.707106781186546));
#1525=DIRECTION('center_axis',(-0.769329669004827,-0.638851986291758,0.));
#1526=DIRECTION('ref_axis',(-0.638851986291757,0.769329669004827,0.));
#1527=DIRECTION('',(1.,0.,0.));
#1528=DIRECTION('center_axis',(1.,0.,0.));
#1529=DIRECTION('ref_axis',(0.,0.707106781186549,-0.707106781186546));
#1530=DIRECTION('',(-1.,0.,0.));
#1531=DIRECTION('center_axis',(-1.,0.,0.));
#1532=DIRECTION('ref_axis',(0.,0.707106781186549,-0.707106781186546));
#1533=DIRECTION('',(1.,0.,0.));
#1534=DIRECTION('center_axis',(0.168597214884397,-0.985685030389132,0.));
#1535=DIRECTION('ref_axis',(0.985685030389132,0.168597214884397,0.));
#1536=DIRECTION('center_axis',(0.,1.,0.));
#1537=DIRECTION('ref_axis',(0.,0.,-1.));
#1538=DIRECTION('',(0.,0.,-1.));
#1539=DIRECTION('',(1.,0.,0.));
#1540=DIRECTION('',(0.,0.,1.));
#1541=DIRECTION('center_axis',(-1.,0.,0.));
#1542=DIRECTION('ref_axis',(0.,0.707106781186548,0.707106781186547));
#1543=DIRECTION('center_axis',(1.,0.,0.));
#1544=DIRECTION('ref_axis',(0.,0.707106781186548,0.707106781186547));
#1545=DIRECTION('',(-1.,0.,0.));
#1546=DIRECTION('center_axis',(-1.,0.,0.));
#1547=DIRECTION('ref_axis',(0.,0.707106781186548,0.707106781186547));
#1548=DIRECTION('center_axis',(0.,0.,1.));
#1549=DIRECTION('ref_axis',(0.,1.,0.));
#1550=DIRECTION('',(0.,1.,0.));
#1551=DIRECTION('',(1.,0.,0.));
#1552=DIRECTION('',(0.,-1.,0.));
#1553=DIRECTION('center_axis',(0.0296243068699452,-0.999561103906347,0.));
#1554=DIRECTION('ref_axis',(-0.999561103906347,-0.0296243068699452,0.));
#1555=DIRECTION('',(-0.999561103906347,-0.0296243068699452,0.));
#1556=DIRECTION('',(0.,0.,-1.));
#1557=DIRECTION('',(-0.999561103906347,-0.0296243068699452,0.));
#1558=DIRECTION('',(0.,0.,-1.));
#1559=DIRECTION('center_axis',(0.880457462052686,-0.474125149634295,0.));
#1560=DIRECTION('ref_axis',(-0.474125149634295,-0.880457462052686,0.));
#1561=DIRECTION('',(-0.474125149634295,-0.880457462052686,0.));
#1562=DIRECTION('',(0.,0.,-1.));
#1563=DIRECTION('',(-0.474125149634295,-0.880457462052686,0.));
#1564=DIRECTION('center_axis',(0.850833155182741,0.525435954272052,0.));
#1565=DIRECTION('ref_axis',(0.525435954272052,-0.850833155182741,0.));
#1566=DIRECTION('',(0.525435954272052,-0.850833155182741,0.));
#1567=DIRECTION('',(0.,0.,-1.));
#1568=DIRECTION('',(0.525435954272052,-0.850833155182741,0.));
#1569=DIRECTION('center_axis',(-0.0296243068699451,0.999561103906347,0.));
#1570=DIRECTION('ref_axis',(0.999561103906347,0.0296243068699451,0.));
#1571=DIRECTION('',(0.999561103906347,0.0296243068699451,0.));
#1572=DIRECTION('',(0.,0.,-1.));
#1573=DIRECTION('',(0.999561103906347,0.0296243068699451,0.));
#1574=DIRECTION('center_axis',(-0.880457462052686,0.474125149634296,0.));
#1575=DIRECTION('ref_axis',(0.474125149634296,0.880457462052686,0.));
#1576=DIRECTION('',(0.474125149634296,0.880457462052686,0.));
#1577=DIRECTION('',(0.,0.,-1.));
#1578=DIRECTION('',(0.474125149634296,0.880457462052686,0.));
#1579=DIRECTION('center_axis',(-0.850833155182741,-0.525435954272052,0.));
#1580=DIRECTION('ref_axis',(-0.525435954272052,0.850833155182741,0.));
#1581=DIRECTION('',(-0.525435954272052,0.850833155182741,0.));
#1582=DIRECTION('',(-0.525435954272052,0.850833155182741,0.));
#1583=DIRECTION('center_axis',(0.,0.,-1.));
#1584=DIRECTION('ref_axis',(-1.,0.,0.));
#1585=DIRECTION('center_axis',(0.,0.,1.));
#1586=DIRECTION('ref_axis',(-1.,0.,0.));
#1587=DIRECTION('center_axis',(0.937926883889223,-0.346833044097375,0.));
#1588=DIRECTION('ref_axis',(-0.346833044097375,-0.937926883889223,0.));
#1589=DIRECTION('',(-0.346833044097375,-0.937926883889223,0.));
#1590=DIRECTION('',(0.,0.,-1.));
#1591=DIRECTION('',(-0.346833044097375,-0.937926883889223,0.));
#1592=DIRECTION('',(0.,0.,-1.));
#1593=DIRECTION('center_axis',(0.769329669004827,0.638851986291758,0.));
#1594=DIRECTION('ref_axis',(0.638851986291758,-0.769329669004827,0.));
#1595=DIRECTION('',(0.,0.,-1.));
#1596=DIRECTION('',(0.638851986291758,-0.769329669004827,0.));
#1597=DIRECTION('',(0.638851986291758,-0.769329669004827,0.));
#1598=DIRECTION('center_axis',(-0.168597214884397,0.985685030389132,0.));
#1599=DIRECTION('ref_axis',(0.985685030389132,0.168597214884397,0.));
#1600=DIRECTION('',(0.985685030389132,0.168597214884397,0.));
#1601=DIRECTION('',(0.,0.,-1.));
#1602=DIRECTION('',(0.985685030389132,0.168597214884397,0.));
#1603=DIRECTION('center_axis',(-0.937926883889223,0.346833044097375,0.));
#1604=DIRECTION('ref_axis',(0.346833044097375,0.937926883889223,0.));
#1605=DIRECTION('',(0.346833044097375,0.937926883889223,0.));
#1606=DIRECTION('',(0.,0.,-1.));
#1607=DIRECTION('',(0.346833044097375,0.937926883889223,0.));
#1608=DIRECTION('center_axis',(-0.769329669004827,-0.638851986291757,0.));
#1609=DIRECTION('ref_axis',(-0.638851986291757,0.769329669004827,0.));
#1610=DIRECTION('',(-0.638851986291757,0.769329669004827,0.));
#1611=DIRECTION('',(0.,0.,-1.));
#1612=DIRECTION('',(-0.638851986291757,0.769329669004827,0.));
#1613=DIRECTION('center_axis',(0.168597214884397,-0.985685030389132,0.));
#1614=DIRECTION('ref_axis',(-0.985685030389132,-0.168597214884397,0.));
#1615=DIRECTION('',(-0.985685030389132,-0.168597214884397,0.));
#1616=DIRECTION('',(-0.985685030389132,-0.168597214884397,0.));
#1617=DIRECTION('center_axis',(0.,0.,-1.));
#1618=DIRECTION('ref_axis',(-1.,0.,0.));
#1619=DIRECTION('center_axis',(0.,0.,1.));
#1620=DIRECTION('ref_axis',(-1.,0.,0.));
#1621=DIRECTION('center_axis',(0.,0.,-1.));
#1622=DIRECTION('ref_axis',(0.,-1.,0.));
#1623=DIRECTION('',(0.,1.,0.));
#1624=DIRECTION('',(-1.,0.,0.));
#1625=DIRECTION('',(0.,-1.,0.));
#1626=DIRECTION('center_axis',(1.,0.,0.));
#1627=DIRECTION('ref_axis',(0.,0.,-1.));
#1628=DIRECTION('',(0.,1.22451068892481E-16,-1.));
#1629=DIRECTION('',(0.,1.,9.34924652315921E-16));
#1630=DIRECTION('',(0.,4.08170229641602E-17,1.));
#1631=DIRECTION('',(0.,-1.,-5.55111512312578E-16));
#1632=DIRECTION('center_axis',(-1.,0.,0.));
#1633=DIRECTION('ref_axis',(0.,0.,-1.));
#1634=DIRECTION('',(0.,1.,0.));
#1635=DIRECTION('',(0.,4.08170229641602E-17,1.));
#1636=DIRECTION('',(0.,-1.,4.6746232615796E-16));
#1637=DIRECTION('',(0.,1.22451068892481E-16,-1.));
#1638=DIRECTION('center_axis',(0.,-1.,-1.22451068892481E-16));
#1639=DIRECTION('ref_axis',(0.,1.22451068892481E-16,-1.));
#1640=DIRECTION('',(0.,-1.22451068892481E-16,1.));
#1641=DIRECTION('',(1.,0.,0.));
#1642=DIRECTION('center_axis',(0.,-9.34924652315921E-16,1.));
#1643=DIRECTION('ref_axis',(-1.,0.,0.));
#1644=DIRECTION('center_axis',(0.,-9.34924652315921E-16,1.));
#1645=DIRECTION('ref_axis',(-1.,0.,0.));
#1646=DIRECTION('',(0.,-9.34924652315921E-16,1.));
#1647=DIRECTION('center_axis',(0.,-9.34924652315921E-16,1.));
#1648=DIRECTION('ref_axis',(-1.,0.,0.));
#1649=DIRECTION('center_axis',(0.,-9.34924652315921E-16,1.));
#1650=DIRECTION('ref_axis',(-1.,0.,0.));
#1651=DIRECTION('',(0.,-9.34924652315921E-16,1.));
#1652=DIRECTION('center_axis',(0.,0.,1.));
#1653=DIRECTION('ref_axis',(0.,1.,0.));
#1654=DIRECTION('',(-1.,0.,0.));
#1655=DIRECTION('',(0.,-1.,0.));
#1656=DIRECTION('',(-1.,0.,0.));
#1657=DIRECTION('center_axis',(-1.,0.,0.));
#1658=DIRECTION('ref_axis',(0.,-0.999999991618097,0.000129475118339284));
#1659=DIRECTION('',(-1.,0.,0.));
#1660=DIRECTION('center_axis',(1.,0.,0.));
#1661=DIRECTION('ref_axis',(0.,0.,-1.));
#1662=DIRECTION('center_axis',(0.,5.55111512312578E-16,-1.));
#1663=DIRECTION('ref_axis',(0.,-1.,-5.55111512312578E-16));
#1664=DIRECTION('',(1.,0.,0.));
#1665=DIRECTION('',(0.,1.,5.55111512312578E-16));
#1666=DIRECTION('center_axis',(0.,1.,-4.08170229641602E-17));
#1667=DIRECTION('ref_axis',(0.,4.08170229641602E-17,1.));
#1668=DIRECTION('',(1.,0.,0.));
#1669=DIRECTION('',(0.,-4.08170229641602E-17,-1.));
#1670=DIRECTION('center_axis',(0.,1.,-4.08170229641602E-17));
#1671=DIRECTION('ref_axis',(0.,4.08170229641602E-17,1.));
#1672=DIRECTION('',(0.,-4.08170229641602E-17,-1.));
#1673=DIRECTION('',(1.,0.,0.));
#1674=DIRECTION('center_axis',(1.,0.,0.));
#1675=DIRECTION('ref_axis',(0.,0.,-1.));
#1676=DIRECTION('',(0.,-1.22451068892481E-16,1.));
#1677=DIRECTION('',(0.,1.,-4.6746232615796E-16));
#1678=DIRECTION('',(0.,-1.,-9.34924652315921E-16));
#1679=DIRECTION('center_axis',(0.,4.6746232615796E-16,1.));
#1680=DIRECTION('ref_axis',(0.,-1.,4.6746232615796E-16));
#1681=DIRECTION('',(1.,0.,0.));
#1682=DIRECTION('center_axis',(0.,9.34924652315921E-16,-1.));
#1683=DIRECTION('ref_axis',(0.,1.,9.34924652315921E-16));
#1684=DIRECTION('center_axis',(0.,-1.,-1.22451068892481E-16));
#1685=DIRECTION('ref_axis',(0.,1.22451068892481E-16,-1.));
#1686=CARTESIAN_POINT('',(0.,0.,0.));
#1687=CARTESIAN_POINT('Origin',(30.,0.750000000000088,-7.0999999999995));
#1688=CARTESIAN_POINT('',(25.8719970293089,0.750000000000088,-7.5999999999995));
#1689=CARTESIAN_POINT('',(25.7803743492191,0.860335488750751,-7.58767415342795));
#1690=CARTESIAN_POINT('Origin',(25.8719970293089,0.750000000000088,-7.0999999999995));
#1691=CARTESIAN_POINT('',(30.,0.750000000000088,-7.5999999999995));
#1692=CARTESIAN_POINT('',(30.,0.750000000000088,-7.5999999999995));
#1693=CARTESIAN_POINT('',(30.,1.25000000000009,-7.0999999999995));
#1694=CARTESIAN_POINT('Origin',(30.,0.750000000000088,-7.0999999999995));
#1695=CARTESIAN_POINT('',(0.,1.25000000000009,-7.0999999999995));
#1696=CARTESIAN_POINT('',(30.,1.25000000000009,-7.0999999999995));
#1697=CARTESIAN_POINT('',(0.,0.750000000000088,-7.5999999999995));
#1698=CARTESIAN_POINT('Origin',(0.,0.750000000000088,-7.0999999999995));
#1699=CARTESIAN_POINT('',(25.1353100778029,0.750000000000088,-7.5999999999995));
#1700=CARTESIAN_POINT('',(30.,0.750000000000088,-7.5999999999995));
#1701=CARTESIAN_POINT('Origin',(25.1353100778029,0.750000000000088,-7.0999999999995));
#1702=CARTESIAN_POINT('Origin',(30.,1.25000000000009,-3.5999999999995));
#1703=CARTESIAN_POINT('',(30.,1.25000000000009,-4.0999999999995));
#1704=CARTESIAN_POINT('',(30.,1.25000000000009,-1.7999999999995));
#1705=CARTESIAN_POINT('',(0.,1.25000000000009,-4.0999999999995));
#1706=CARTESIAN_POINT('',(30.,1.25000000000009,-4.0999999999995));
#1707=CARTESIAN_POINT('',(0.,1.25000000000009,-1.7999999999995));
#1708=CARTESIAN_POINT('Origin',(30.,0.750000000000088,-4.0999999999995));
#1709=CARTESIAN_POINT('',(30.,0.750000000000088,-3.5999999999995));
#1710=CARTESIAN_POINT('Origin',(30.,0.750000000000088,-4.0999999999995));
#1711=CARTESIAN_POINT('',(0.,0.750000000000088,-3.5999999999995));
#1712=CARTESIAN_POINT('',(30.,0.750000000000088,-3.5999999999995));
#1713=CARTESIAN_POINT('Origin',(0.,0.750000000000088,-4.0999999999995));
#1714=CARTESIAN_POINT('Origin',(30.,-5.72118640531063,-3.5999999999995));
#1715=CARTESIAN_POINT('',(30.,-4.74999999999991,-3.5999999999995));
#1716=CARTESIAN_POINT('',(30.,-2.86059320265527,-3.5999999999995));
#1717=CARTESIAN_POINT('',(0.,-4.74999999999991,-3.5999999999995));
#1718=CARTESIAN_POINT('',(15.,-4.74999999999991,-3.5999999999995));
#1719=CARTESIAN_POINT('',(0.,-2.86059320265527,-3.5999999999995));
#1720=CARTESIAN_POINT('Origin',(6.18223089711212,-3.16437459916117,-7.5999999999995));
#1721=CARTESIAN_POINT('',(6.18223089711212,-3.16437459916117,-7.5999999999995));
#1722=CARTESIAN_POINT('',(3.93321841332284,-3.23102928961855,-7.5999999999995));
#1723=CARTESIAN_POINT('',(18.1460219127925,-2.80979996136132,-7.5999999999995));
#1724=CARTESIAN_POINT('',(6.18223089711212,-3.16437459916117,-10.0999999999995));
#1725=CARTESIAN_POINT('',(6.18223089711212,-3.16437459916117,-7.5999999999995));
#1726=CARTESIAN_POINT('',(3.93321841332284,-3.23102928961855,-10.0999999999995));
#1727=CARTESIAN_POINT('',(3.93321841332284,-3.23102928961855,-10.0999999999995));
#1728=CARTESIAN_POINT('',(3.93321841332284,-3.23102928961855,-7.5999999999995));
#1729=CARTESIAN_POINT('Origin',(7.24901248378928,-1.18334530954263,-7.5999999999995));
#1730=CARTESIAN_POINT('',(7.24901248378928,-1.18334530954263,-7.5999999999995));
#1731=CARTESIAN_POINT('',(10.3140590884947,4.50849187043761,-7.5999999999995));
#1732=CARTESIAN_POINT('',(7.24901248378928,-1.18334530954263,-10.0999999999995));
#1733=CARTESIAN_POINT('',(7.24901248378928,-1.18334530954263,-7.5999999999995));
#1734=CARTESIAN_POINT('',(6.18223089711212,-3.16437459916117,-10.0999999999995));
#1735=CARTESIAN_POINT('Origin',(6.06678158667716,0.731029289618541,-7.5999999999995));
#1736=CARTESIAN_POINT('',(6.06678158667716,0.731029289618541,-7.5999999999995));
#1737=CARTESIAN_POINT('',(9.25455317295277,-4.43089717297075,-7.5999999999995));
#1738=CARTESIAN_POINT('',(6.06678158667716,0.731029289618541,-10.0999999999995));
#1739=CARTESIAN_POINT('',(6.06678158667716,0.731029289618541,-7.5999999999995));
#1740=CARTESIAN_POINT('',(7.24901248378928,-1.18334530954263,-10.0999999999995));
#1741=CARTESIAN_POINT('Origin',(3.81776910288788,0.664374599161165,-7.5999999999995));
#1742=CARTESIAN_POINT('',(3.81776910288788,0.664374599161165,-7.5999999999995));
#1743=CARTESIAN_POINT('',(16.9060663604629,1.0522765821897,-7.5999999999995));
#1744=CARTESIAN_POINT('',(3.81776910288788,0.664374599161165,-10.0999999999995));
#1745=CARTESIAN_POINT('',(3.81776910288788,0.664374599161165,-7.5999999999995));
#1746=CARTESIAN_POINT('',(6.06678158667716,0.731029289618541,-10.0999999999995));
#1747=CARTESIAN_POINT('Origin',(2.75098751621072,-1.31665469045738,-7.5999999999995));
#1748=CARTESIAN_POINT('',(2.75098751621072,-1.31665469045738,-7.5999999999995));
#1749=CARTESIAN_POINT('',(6.34942491425478,5.36569713433214,-7.5999999999995));
#1750=CARTESIAN_POINT('',(2.75098751621072,-1.31665469045738,-10.0999999999995));
#1751=CARTESIAN_POINT('',(2.75098751621072,-1.31665469045738,-7.5999999999995));
#1752=CARTESIAN_POINT('',(3.81776910288788,0.664374599161165,-10.0999999999995));
#1753=CARTESIAN_POINT('Origin',(3.93321841332284,-3.23102928961855,-7.5999999999995));
#1754=CARTESIAN_POINT('',(6.52987455104238,-7.43576845262725,-7.5999999999995));
#1755=CARTESIAN_POINT('',(2.75098751621072,-1.31665469045738,-10.0999999999995));
#1756=CARTESIAN_POINT('Origin',(5.,-1.25,-10.0999999999995));
#1757=CARTESIAN_POINT('',(6.1,-1.25,-10.0999999999995));
#1758=CARTESIAN_POINT('Origin',(5.,-1.25,-10.0999999999995));
#1759=CARTESIAN_POINT('Origin',(27.2177913183755,-0.87065626651011,-7.5999999999995));
#1760=CARTESIAN_POINT('',(27.2177913183755,-0.87065626651011,-7.5999999999995));
#1761=CARTESIAN_POINT('',(26.4374169691565,-2.98099175526086,-7.5999999999995));
#1762=CARTESIAN_POINT('',(27.7300606776155,0.514653501405088,-7.5999999999995));
#1763=CARTESIAN_POINT('',(27.2177913183755,-0.87065626651011,-10.0999999999995));
#1764=CARTESIAN_POINT('',(27.2177913183755,-0.87065626651011,-7.5999999999995));
#1765=CARTESIAN_POINT('',(26.4374169691565,-2.98099175526086,-10.0999999999995));
#1766=CARTESIAN_POINT('',(26.4374169691565,-2.98099175526086,-10.0999999999995));
#1767=CARTESIAN_POINT('',(26.4374169691565,-2.98099175526086,-7.5999999999995));
#1768=CARTESIAN_POINT('Origin',(25.7803743492191,0.860335488750751,-7.5999999999995));
#1769=CARTESIAN_POINT('',(25.7803743492191,0.86033548875075,-10.0999999999995));
#1770=CARTESIAN_POINT('',(25.7803743492191,0.860335488750751,-7.5999999999995));
#1771=CARTESIAN_POINT('',(27.2177913183755,-0.87065626651011,-10.0999999999995));
#1772=CARTESIAN_POINT('',(26.5456985085344,-0.0612967434428775,-7.5999999999995));
#1773=CARTESIAN_POINT('Origin',(23.5625830308435,0.480991755260858,-7.5999999999995));
#1774=CARTESIAN_POINT('',(23.5625830308435,0.480991755260858,-7.5999999999995));
#1775=CARTESIAN_POINT('',(26.7536979968666,1.02681834190893,-7.5999999999995));
#1776=CARTESIAN_POINT('',(23.5625830308435,0.480991755260858,-10.0999999999995));
#1777=CARTESIAN_POINT('',(23.5625830308435,0.480991755260858,-7.5999999999995));
#1778=CARTESIAN_POINT('',(25.7803743492191,0.860335488750751,-10.0999999999995));
#1779=CARTESIAN_POINT('Origin',(22.7822086816245,-1.62934373348989,-7.5999999999995));
#1780=CARTESIAN_POINT('',(22.7822086816245,-1.62934373348989,-7.5999999999995));
#1781=CARTESIAN_POINT('',(23.6846652154739,0.811133778800679,-7.5999999999995));
#1782=CARTESIAN_POINT('',(22.7822086816245,-1.62934373348989,-10.0999999999995));
#1783=CARTESIAN_POINT('',(22.7822086816245,-1.62934373348989,-7.5999999999995));
#1784=CARTESIAN_POINT('',(23.5625830308435,0.480991755260858,-10.0999999999995));
#1785=CARTESIAN_POINT('Origin',(24.2196256507809,-3.36033548875076,-7.5999999999995));
#1786=CARTESIAN_POINT('',(24.2196256507809,-3.36033548875076,-7.5999999999995));
#1787=CARTESIAN_POINT('',(24.2662413255179,-3.41647184331395,-7.5999999999995));
#1788=CARTESIAN_POINT('',(24.2196256507809,-3.36033548875076,-10.0999999999995));
#1789=CARTESIAN_POINT('',(24.2196256507809,-3.36033548875076,-7.5999999999995));
#1790=CARTESIAN_POINT('',(22.7822086816245,-1.62934373348989,-10.0999999999995));
#1791=CARTESIAN_POINT('Origin',(26.4374169691565,-2.98099175526086,-7.5999999999995));
#1792=CARTESIAN_POINT('',(28.5196362759917,-2.62483703535774,-7.5999999999995));
#1793=CARTESIAN_POINT('',(24.2196256507809,-3.36033548875076,-10.0999999999995));
#1794=CARTESIAN_POINT('Origin',(25.,-1.25,-10.0999999999995));
#1795=CARTESIAN_POINT('',(26.1,-1.25,-10.0999999999995));
#1796=CARTESIAN_POINT('Origin',(25.,-1.25,-10.0999999999995));
#1797=CARTESIAN_POINT('Origin',(30.,1.25000000000009,-7.5999999999995));
#1798=CARTESIAN_POINT('',(0.,-4.74999999999991,-7.5999999999995));
#1799=CARTESIAN_POINT('',(0.,0.625000000000088,-7.5999999999995));
#1800=CARTESIAN_POINT('',(30.,-4.74999999999991,-7.5999999999995));
#1801=CARTESIAN_POINT('',(15.,-4.74999999999991,-7.5999999999995));
#1802=CARTESIAN_POINT('',(30.,0.625000000000088,-7.5999999999995));
#1803=CARTESIAN_POINT('Origin',(30.,8.71525074330748E-14,4.9515946898282E-13));
#1804=CARTESIAN_POINT('',(30.,-4.74999999999991,-13.5999999999995));
#1805=CARTESIAN_POINT('',(30.,-4.74999999999991,-13.5999999999995));
#1806=CARTESIAN_POINT('',(30.,4.75000000000009,-13.5999999999995));
#1807=CARTESIAN_POINT('',(30.,4.75000000000009,-13.5999999999995));
#1808=CARTESIAN_POINT('',(30.,4.75000000000009,4.59999997764875));
#1809=CARTESIAN_POINT('',(30.,4.75000000000009,13.6000000000005));
#1810=CARTESIAN_POINT('',(30.,1.75000000000009,4.59999997764875));
#1811=CARTESIAN_POINT('',(30.,2.37500000000009,4.59999997764875));
#1812=CARTESIAN_POINT('',(30.,1.75077685070361,10.5999998994177));
#1813=CARTESIAN_POINT('Origin',(30.,1.75000000000009,7.60000000000049));
#1814=CARTESIAN_POINT('',(30.,4.75000000000009,10.5999998994177));
#1815=CARTESIAN_POINT('',(30.,0.87538842535185,10.5999998994177));
#1816=CARTESIAN_POINT('',(30.,4.75000000000009,13.6000000000005));
#1817=CARTESIAN_POINT('',(30.,4.75000000000009,13.6000000000005));
#1818=CARTESIAN_POINT('',(30.,-4.74999999999992,13.6000000000005));
#1819=CARTESIAN_POINT('',(30.,-4.74999999999992,13.6000000000005));
#1820=CARTESIAN_POINT('',(30.,-4.74999999999991,-13.5999999999995));
#1821=CARTESIAN_POINT('Origin',(0.,-4.74999999999992,13.6000000000005));
#1822=CARTESIAN_POINT('',(0.,-4.74999999999991,-13.5999999999995));
#1823=CARTESIAN_POINT('',(0.,-4.74999999999991,-13.5999999999995));
#1824=CARTESIAN_POINT('',(0.,-4.74999999999991,-13.5999999999995));
#1825=CARTESIAN_POINT('Origin',(5.,-1.25,-13.5999999999995));
#1826=CARTESIAN_POINT('',(6.1,-1.25,-13.5999999999995));
#1827=CARTESIAN_POINT('Origin',(5.,-1.25,-13.5999999999995));
#1828=CARTESIAN_POINT('',(6.1,-1.25,-13.5999999999995));
#1829=CARTESIAN_POINT('Origin',(25.,-1.25,-13.5999999999995));
#1830=CARTESIAN_POINT('',(26.1,-1.25,-13.5999999999995));
#1831=CARTESIAN_POINT('Origin',(25.,-1.25,-13.5999999999995));
#1832=CARTESIAN_POINT('',(26.1,-1.25,-13.5999999999995));
#1833=CARTESIAN_POINT('Origin',(30.,1.75077685070361,10.5999998994177));
#1834=CARTESIAN_POINT('',(0.,1.75077685070361,10.5999998994177));
#1835=CARTESIAN_POINT('',(30.,1.75077685070361,10.5999998994177));
#1836=CARTESIAN_POINT('',(0.,4.75000000000009,10.5999998994177));
#1837=CARTESIAN_POINT('',(0.,0.87538842535185,10.5999998994177));
#1838=CARTESIAN_POINT('',(15.,4.75000000000009,10.5999998994177));
#1839=CARTESIAN_POINT('Origin',(30.,1.75000000000009,7.60000000000049));
#1840=CARTESIAN_POINT('',(0.,1.75000000000009,4.59999997764875));
#1841=CARTESIAN_POINT('',(30.,1.75000000000009,4.59999997764875));
#1842=CARTESIAN_POINT('Origin',(0.,1.75000000000009,7.60000000000049));
#1843=CARTESIAN_POINT('Origin',(30.,4.75000000000009,4.59999997764875));
#1844=CARTESIAN_POINT('',(0.,4.75000000000009,4.59999997764875));
#1845=CARTESIAN_POINT('',(15.,4.75000000000009,4.59999997764875));
#1846=CARTESIAN_POINT('',(0.,2.37500000000009,4.59999997764875));
#1847=CARTESIAN_POINT('Origin',(0.,4.75000000000009,-13.5999999999995));
#1848=CARTESIAN_POINT('',(0.,4.75000000000009,-13.5999999999995));
#1849=CARTESIAN_POINT('',(0.,4.75000000000009,-13.5999999999995));
#1850=CARTESIAN_POINT('',(0.,4.75000000000009,13.6000000000005));
#1851=CARTESIAN_POINT('Origin',(0.,4.75000000000009,-13.5999999999995));
#1852=CARTESIAN_POINT('',(0.,4.75000000000009,13.6000000000005));
#1853=CARTESIAN_POINT('',(0.,4.75000000000009,13.6000000000005));
#1854=CARTESIAN_POINT('',(0.,4.75000000000009,13.6000000000005));
#1855=CARTESIAN_POINT('Origin',(0.,8.71525074330748E-14,4.9515946898282E-13));
#1856=CARTESIAN_POINT('',(0.,-4.74999999999992,13.6000000000005));
#1857=CARTESIAN_POINT('',(0.,-4.74999999999991,-13.5999999999995));
#1858=CARTESIAN_POINT('',(0.,-4.74999999999992,13.6000000000005));
#1859=CARTESIAN_POINT('',(0.,4.75000000000009,-13.5999999999995));
#1860=CARTESIAN_POINT('Origin',(0.,4.75000000000009,13.6000000000005));
#1861=CARTESIAN_POINT('',(0.,-4.74999999999992,13.6000000000005));
#1862=CARTESIAN_POINT('Origin',(0.,-4.74999999999991,-13.5999999999995));
#1863=CARTESIAN_POINT('Origin',(0.,-4.74999999999992,13.6000000000005));
#1864=CARTESIAN_POINT('Origin',(30.,0.750000000000088,-36.0999999999995));
#1865=CARTESIAN_POINT('',(25.8719970293089,0.750000000000088,-36.5999999999995));
#1866=CARTESIAN_POINT('',(25.7803743492191,0.860335488750751,-36.587674153428));
#1867=CARTESIAN_POINT('Origin',(25.8719970293089,0.750000000000088,-36.0999999999995));
#1868=CARTESIAN_POINT('',(30.,0.750000000000088,-36.5999999999995));
#1869=CARTESIAN_POINT('',(30.,0.750000000000088,-36.5999999999995));
#1870=CARTESIAN_POINT('',(30.,1.25000000000009,-36.0999999999995));
#1871=CARTESIAN_POINT('Origin',(30.,0.750000000000088,-36.0999999999995));
#1872=CARTESIAN_POINT('',(0.,1.25000000000009,-36.0999999999995));
#1873=CARTESIAN_POINT('',(30.,1.25000000000009,-36.0999999999995));
#1874=CARTESIAN_POINT('',(0.,0.750000000000088,-36.5999999999995));
#1875=CARTESIAN_POINT('Origin',(0.,0.750000000000088,-36.0999999999995));
#1876=CARTESIAN_POINT('',(25.1353100778029,0.750000000000088,-36.5999999999995));
#1877=CARTESIAN_POINT('',(30.,0.750000000000088,-36.5999999999995));
#1878=CARTESIAN_POINT('Origin',(25.1353100778029,0.750000000000088,-36.0999999999995));
#1879=CARTESIAN_POINT('Origin',(30.,1.25000000000009,-32.5999999999995));
#1880=CARTESIAN_POINT('',(30.,1.25000000000009,-33.0999999999995));
#1881=CARTESIAN_POINT('',(30.,1.25000000000009,-30.7999999999995));
#1882=CARTESIAN_POINT('',(0.,1.25000000000009,-33.0999999999995));
#1883=CARTESIAN_POINT('',(30.,1.25000000000009,-33.0999999999995));
#1884=CARTESIAN_POINT('',(0.,1.25000000000009,-30.7999999999995));
#1885=CARTESIAN_POINT('Origin',(30.,0.750000000000088,-33.0999999999995));
#1886=CARTESIAN_POINT('',(30.,0.750000000000088,-32.5999999999995));
#1887=CARTESIAN_POINT('Origin',(30.,0.750000000000088,-33.0999999999995));
#1888=CARTESIAN_POINT('',(0.,0.750000000000088,-32.5999999999995));
#1889=CARTESIAN_POINT('',(30.,0.750000000000088,-32.5999999999995));
#1890=CARTESIAN_POINT('Origin',(0.,0.750000000000088,-33.0999999999995));
#1891=CARTESIAN_POINT('Origin',(30.,-5.72118640531063,-32.5999999999995));
#1892=CARTESIAN_POINT('',(30.,-4.74999999999991,-32.5999999999995));
#1893=CARTESIAN_POINT('',(30.,-2.86059320265527,-32.5999999999995));
#1894=CARTESIAN_POINT('',(0.,-4.74999999999991,-32.5999999999995));
#1895=CARTESIAN_POINT('',(15.,-4.74999999999991,-32.5999999999995));
#1896=CARTESIAN_POINT('',(0.,-2.86059320265527,-32.5999999999995));
#1897=CARTESIAN_POINT('Origin',(6.18223089711212,-3.16437459916117,-36.5999999999995));
#1898=CARTESIAN_POINT('',(6.18223089711212,-3.16437459916117,-36.5999999999995));
#1899=CARTESIAN_POINT('',(3.93321841332284,-3.23102928961855,-36.5999999999995));
#1900=CARTESIAN_POINT('',(18.1460219127925,-2.80979996136132,-36.5999999999995));
#1901=CARTESIAN_POINT('',(6.18223089711212,-3.16437459916117,-39.0999999999995));
#1902=CARTESIAN_POINT('',(6.18223089711212,-3.16437459916117,-36.5999999999995));
#1903=CARTESIAN_POINT('',(3.93321841332284,-3.23102928961855,-39.0999999999995));
#1904=CARTESIAN_POINT('',(3.93321841332284,-3.23102928961855,-39.0999999999995));
#1905=CARTESIAN_POINT('',(3.93321841332284,-3.23102928961855,-36.5999999999995));
#1906=CARTESIAN_POINT('Origin',(7.24901248378928,-1.18334530954263,-36.5999999999995));
#1907=CARTESIAN_POINT('',(7.24901248378928,-1.18334530954263,-36.5999999999995));
#1908=CARTESIAN_POINT('',(10.3140590884947,4.50849187043761,-36.5999999999995));
#1909=CARTESIAN_POINT('',(7.24901248378928,-1.18334530954263,-39.0999999999995));
#1910=CARTESIAN_POINT('',(7.24901248378928,-1.18334530954263,-36.5999999999995));
#1911=CARTESIAN_POINT('',(6.18223089711212,-3.16437459916117,-39.0999999999995));
#1912=CARTESIAN_POINT('Origin',(6.06678158667716,0.731029289618541,-36.5999999999995));
#1913=CARTESIAN_POINT('',(6.06678158667716,0.731029289618541,-36.5999999999995));
#1914=CARTESIAN_POINT('',(9.25455317295277,-4.43089717297075,-36.5999999999995));
#1915=CARTESIAN_POINT('',(6.06678158667716,0.731029289618541,-39.0999999999995));
#1916=CARTESIAN_POINT('',(6.06678158667716,0.731029289618541,-36.5999999999995));
#1917=CARTESIAN_POINT('',(7.24901248378928,-1.18334530954263,-39.0999999999995));
#1918=CARTESIAN_POINT('Origin',(3.81776910288788,0.664374599161165,-36.5999999999995));
#1919=CARTESIAN_POINT('',(3.81776910288788,0.664374599161165,-36.5999999999995));
#1920=CARTESIAN_POINT('',(16.9060663604629,1.0522765821897,-36.5999999999995));
#1921=CARTESIAN_POINT('',(3.81776910288788,0.664374599161165,-39.0999999999995));
#1922=CARTESIAN_POINT('',(3.81776910288788,0.664374599161165,-36.5999999999995));
#1923=CARTESIAN_POINT('',(6.06678158667716,0.731029289618541,-39.0999999999995));
#1924=CARTESIAN_POINT('Origin',(2.75098751621072,-1.31665469045738,-36.5999999999995));
#1925=CARTESIAN_POINT('',(2.75098751621072,-1.31665469045738,-36.5999999999995));
#1926=CARTESIAN_POINT('',(6.34942491425478,5.36569713433214,-36.5999999999995));
#1927=CARTESIAN_POINT('',(2.75098751621072,-1.31665469045738,-39.0999999999995));
#1928=CARTESIAN_POINT('',(2.75098751621072,-1.31665469045738,-36.5999999999995));
#1929=CARTESIAN_POINT('',(3.81776910288788,0.664374599161165,-39.0999999999995));
#1930=CARTESIAN_POINT('Origin',(3.93321841332284,-3.23102928961855,-36.5999999999995));
#1931=CARTESIAN_POINT('',(6.52987455104238,-7.43576845262725,-36.5999999999995));
#1932=CARTESIAN_POINT('',(2.75098751621072,-1.31665469045738,-39.0999999999995));
#1933=CARTESIAN_POINT('Origin',(5.,-1.25,-39.0999999999995));
#1934=CARTESIAN_POINT('',(6.1,-1.25,-39.0999999999995));
#1935=CARTESIAN_POINT('Origin',(5.,-1.25,-39.0999999999995));
#1936=CARTESIAN_POINT('Origin',(27.2177913183755,-0.87065626651011,-36.5999999999995));
#1937=CARTESIAN_POINT('',(27.2177913183755,-0.87065626651011,-36.5999999999995));
#1938=CARTESIAN_POINT('',(26.4374169691565,-2.98099175526086,-36.5999999999995));
#1939=CARTESIAN_POINT('',(27.7300606776155,0.514653501405088,-36.5999999999995));
#1940=CARTESIAN_POINT('',(27.2177913183755,-0.87065626651011,-39.0999999999995));
#1941=CARTESIAN_POINT('',(27.2177913183755,-0.87065626651011,-36.5999999999995));
#1942=CARTESIAN_POINT('',(26.4374169691565,-2.98099175526086,-39.0999999999995));
#1943=CARTESIAN_POINT('',(26.4374169691565,-2.98099175526086,-39.0999999999995));
#1944=CARTESIAN_POINT('',(26.4374169691565,-2.98099175526086,-36.5999999999995));
#1945=CARTESIAN_POINT('Origin',(25.7803743492191,0.860335488750751,-36.5999999999995));
#1946=CARTESIAN_POINT('',(25.7803743492191,0.86033548875075,-39.0999999999995));
#1947=CARTESIAN_POINT('',(25.7803743492191,0.860335488750751,-36.5999999999995));
#1948=CARTESIAN_POINT('',(27.2177913183755,-0.87065626651011,-39.0999999999995));
#1949=CARTESIAN_POINT('',(26.5456985085344,-0.0612967434428775,-36.5999999999995));
#1950=CARTESIAN_POINT('Origin',(23.5625830308435,0.480991755260858,-36.5999999999995));
#1951=CARTESIAN_POINT('',(23.5625830308435,0.480991755260858,-36.5999999999995));
#1952=CARTESIAN_POINT('',(26.7536979968666,1.02681834190893,-36.5999999999995));
#1953=CARTESIAN_POINT('',(23.5625830308435,0.480991755260858,-39.0999999999995));
#1954=CARTESIAN_POINT('',(23.5625830308435,0.480991755260858,-36.5999999999995));
#1955=CARTESIAN_POINT('',(25.7803743492191,0.860335488750751,-39.0999999999995));
#1956=CARTESIAN_POINT('Origin',(22.7822086816245,-1.62934373348989,-36.5999999999995));
#1957=CARTESIAN_POINT('',(22.7822086816245,-1.62934373348989,-36.5999999999995));
#1958=CARTESIAN_POINT('',(23.6846652154739,0.811133778800679,-36.5999999999995));
#1959=CARTESIAN_POINT('',(22.7822086816245,-1.62934373348989,-39.0999999999995));
#1960=CARTESIAN_POINT('',(22.7822086816245,-1.62934373348989,-36.5999999999995));
#1961=CARTESIAN_POINT('',(23.5625830308435,0.480991755260858,-39.0999999999995));
#1962=CARTESIAN_POINT('Origin',(24.2196256507809,-3.36033548875076,-36.5999999999995));
#1963=CARTESIAN_POINT('',(24.2196256507809,-3.36033548875076,-36.5999999999995));
#1964=CARTESIAN_POINT('',(24.2662413255179,-3.41647184331395,-36.5999999999995));
#1965=CARTESIAN_POINT('',(24.2196256507809,-3.36033548875076,-39.0999999999995));
#1966=CARTESIAN_POINT('',(24.2196256507809,-3.36033548875076,-36.5999999999995));
#1967=CARTESIAN_POINT('',(22.7822086816245,-1.62934373348989,-39.0999999999995));
#1968=CARTESIAN_POINT('Origin',(26.4374169691565,-2.98099175526086,-36.5999999999995));
#1969=CARTESIAN_POINT('',(28.5196362759917,-2.62483703535774,-36.5999999999995));
#1970=CARTESIAN_POINT('',(24.2196256507809,-3.36033548875076,-39.0999999999995));
#1971=CARTESIAN_POINT('Origin',(25.,-1.25,-39.0999999999995));
#1972=CARTESIAN_POINT('',(26.1,-1.25,-39.0999999999995));
#1973=CARTESIAN_POINT('Origin',(25.,-1.25,-39.0999999999995));
#1974=CARTESIAN_POINT('Origin',(30.,1.25000000000009,-36.5999999999995));
#1975=CARTESIAN_POINT('',(0.,-4.74999999999991,-36.5999999999995));
#1976=CARTESIAN_POINT('',(0.,0.625000000000088,-36.5999999999995));
#1977=CARTESIAN_POINT('',(30.,-4.74999999999991,-36.5999999999995));
#1978=CARTESIAN_POINT('',(15.,-4.74999999999991,-36.5999999999995));
#1979=CARTESIAN_POINT('',(30.,0.625000000000088,-36.5999999999995));
#1980=CARTESIAN_POINT('Origin',(30.,8.71525074330748E-14,-28.9999999999995));
#1981=CARTESIAN_POINT('',(30.,-4.74999999999991,-42.5999999999995));
#1982=CARTESIAN_POINT('',(30.,-4.74999999999991,-42.5999999999995));
#1983=CARTESIAN_POINT('',(30.,4.75000000000009,-42.5999999999995));
#1984=CARTESIAN_POINT('',(30.,4.75000000000009,-42.5999999999995));
#1985=CARTESIAN_POINT('',(30.,4.75000000000009,-24.4000000223513));
#1986=CARTESIAN_POINT('',(30.,4.75000000000009,-15.3999999999995));
#1987=CARTESIAN_POINT('',(30.,1.75000000000009,-24.4000000223513));
#1988=CARTESIAN_POINT('',(30.,2.37500000000009,-24.4000000223513));
#1989=CARTESIAN_POINT('',(30.,1.75077685070361,-18.4000001005824));
#1990=CARTESIAN_POINT('Origin',(30.,1.75000000000009,-21.3999999999995));
#1991=CARTESIAN_POINT('',(30.,4.75000000000009,-18.4000001005824));
#1992=CARTESIAN_POINT('',(30.,0.87538842535185,-18.4000001005824));
#1993=CARTESIAN_POINT('',(30.,4.75000000000009,-15.3999999999995));
#1994=CARTESIAN_POINT('',(30.,4.75000000000009,-15.3999999999995));
#1995=CARTESIAN_POINT('',(30.,-4.74999999999992,-15.3999999999995));
#1996=CARTESIAN_POINT('',(30.,-4.74999999999992,-15.3999999999995));
#1997=CARTESIAN_POINT('',(30.,-4.74999999999991,-42.5999999999995));
#1998=CARTESIAN_POINT('Origin',(0.,-4.74999999999992,-15.3999999999995));
#1999=CARTESIAN_POINT('',(0.,-4.74999999999991,-42.5999999999995));
#2000=CARTESIAN_POINT('',(0.,-4.74999999999991,-42.5999999999995));
#2001=CARTESIAN_POINT('',(0.,-4.74999999999991,-42.5999999999995));
#2002=CARTESIAN_POINT('Origin',(5.,-1.25,-42.5999999999995));
#2003=CARTESIAN_POINT('',(6.1,-1.25,-42.5999999999995));
#2004=CARTESIAN_POINT('Origin',(5.,-1.25,-42.5999999999995));
#2005=CARTESIAN_POINT('',(6.1,-1.25,-42.5999999999995));
#2006=CARTESIAN_POINT('Origin',(25.,-1.25,-42.5999999999995));
#2007=CARTESIAN_POINT('',(26.1,-1.25,-42.5999999999995));
#2008=CARTESIAN_POINT('Origin',(25.,-1.25,-42.5999999999995));
#2009=CARTESIAN_POINT('',(26.1,-1.25,-42.5999999999995));
#2010=CARTESIAN_POINT('Origin',(30.,1.75077685070361,-18.4000001005824));
#2011=CARTESIAN_POINT('',(0.,1.75077685070361,-18.4000001005824));
#2012=CARTESIAN_POINT('',(30.,1.75077685070361,-18.4000001005824));
#2013=CARTESIAN_POINT('',(0.,4.75000000000009,-18.4000001005824));
#2014=CARTESIAN_POINT('',(0.,0.87538842535185,-18.4000001005824));
#2015=CARTESIAN_POINT('',(15.,4.75000000000009,-18.4000001005824));
#2016=CARTESIAN_POINT('Origin',(30.,1.75000000000009,-21.3999999999995));
#2017=CARTESIAN_POINT('',(0.,1.75000000000009,-24.4000000223513));
#2018=CARTESIAN_POINT('',(30.,1.75000000000009,-24.4000000223513));
#2019=CARTESIAN_POINT('Origin',(0.,1.75000000000009,-21.3999999999995));
#2020=CARTESIAN_POINT('Origin',(30.,4.75000000000009,-24.4000000223513));
#2021=CARTESIAN_POINT('',(0.,4.75000000000009,-24.4000000223513));
#2022=CARTESIAN_POINT('',(15.,4.75000000000009,-24.4000000223513));
#2023=CARTESIAN_POINT('',(0.,2.37500000000009,-24.4000000223513));
#2024=CARTESIAN_POINT('Origin',(0.,4.75000000000009,-42.5999999999995));
#2025=CARTESIAN_POINT('',(0.,4.75000000000009,-42.5999999999995));
#2026=CARTESIAN_POINT('',(0.,4.75000000000009,-42.5999999999995));
#2027=CARTESIAN_POINT('',(0.,4.75000000000009,-15.3999999999995));
#2028=CARTESIAN_POINT('Origin',(0.,4.75000000000009,-42.5999999999995));
#2029=CARTESIAN_POINT('',(0.,4.75000000000009,-15.3999999999995));
#2030=CARTESIAN_POINT('',(0.,4.75000000000009,-15.3999999999995));
#2031=CARTESIAN_POINT('',(0.,4.75000000000009,-15.3999999999995));
#2032=CARTESIAN_POINT('Origin',(0.,8.71525074330748E-14,-28.9999999999995));
#2033=CARTESIAN_POINT('',(0.,-4.74999999999992,-15.3999999999995));
#2034=CARTESIAN_POINT('',(0.,-4.74999999999991,-42.5999999999995));
#2035=CARTESIAN_POINT('',(0.,-4.74999999999992,-15.3999999999995));
#2036=CARTESIAN_POINT('',(0.,4.75000000000009,-42.5999999999995));
#2037=CARTESIAN_POINT('Origin',(0.,4.75000000000009,-15.3999999999995));
#2038=CARTESIAN_POINT('',(0.,-4.74999999999992,-15.3999999999995));
#2039=CARTESIAN_POINT('Origin',(0.,-4.74999999999991,-42.5999999999995));
#2040=CARTESIAN_POINT('Origin',(0.,-4.74999999999992,-15.3999999999995));
#2041=UNCERTAINTY_MEASURE_WITH_UNIT(LENGTH_MEASURE(0.01),#2045,
'DISTANCE_ACCURACY_VALUE',
'Maximum model space distance between geometric entities at asserted c
onnectivities');
#2042=UNCERTAINTY_MEASURE_WITH_UNIT(LENGTH_MEASURE(0.01),#2045,
'DISTANCE_ACCURACY_VALUE',
'Maximum model space distance between geometric entities at asserted c
onnectivities');
#2043=(
GEOMETRIC_REPRESENTATION_CONTEXT(3)
GLOBAL_UNCERTAINTY_ASSIGNED_CONTEXT((#2041))
GLOBAL_UNIT_ASSIGNED_CONTEXT((#2045,#2047,#2048))
REPRESENTATION_CONTEXT('','3D')
);
#2044=(
GEOMETRIC_REPRESENTATION_CONTEXT(3)
GLOBAL_UNCERTAINTY_ASSIGNED_CONTEXT((#2042))
GLOBAL_UNIT_ASSIGNED_CONTEXT((#2045,#2047,#2048))
REPRESENTATION_CONTEXT('','3D')
);
#2045=(
LENGTH_UNIT()
NAMED_UNIT(*)
SI_UNIT(.MILLI.,.METRE.)
);
#2046=(
LENGTH_UNIT()
NAMED_UNIT(*)
SI_UNIT($,.METRE.)
);
#2047=(
NAMED_UNIT(*)
PLANE_ANGLE_UNIT()
SI_UNIT($,.RADIAN.)
);
#2048=(
NAMED_UNIT(*)
SI_UNIT($,.STERADIAN.)
SOLID_ANGLE_UNIT()
);
#2049=SHAPE_DEFINITION_REPRESENTATION(#2050,#2051);
#2050=PRODUCT_DEFINITION_SHAPE('',$,#2053);
#2051=SHAPE_REPRESENTATION('',(#1269),#2043);
#2052=PRODUCT_DEFINITION_CONTEXT('part definition',#2057,'design');
#2053=PRODUCT_DEFINITION('fixation_pcb_sur_colonette',
'fixation_pcb_sur_colonette v3',#2054,#2052);
#2054=PRODUCT_DEFINITION_FORMATION('',$,#2059);
#2055=PRODUCT_RELATED_PRODUCT_CATEGORY('fixation_pcb_sur_colonette v3',
'fixation_pcb_sur_colonette v3',(#2059));
#2056=APPLICATION_PROTOCOL_DEFINITION('international standard',
'automotive_design',2009,#2057);
#2057=APPLICATION_CONTEXT(
'Core Data for Automotive Mechanical Design Process');
#2058=PRODUCT_CONTEXT('part definition',#2057,'mechanical');
#2059=PRODUCT('fixation_pcb_sur_colonette',
'fixation_pcb_sur_colonette v3',$,(#2058));
#2060=PRESENTATION_STYLE_ASSIGNMENT((#2061));
#2061=SURFACE_STYLE_USAGE(.BOTH.,#2062);
#2062=SURFACE_SIDE_STYLE('',(#2063));
#2063=SURFACE_STYLE_FILL_AREA(#2064);
#2064=FILL_AREA_STYLE('Acier - Satin\X\E9',(#2065));
#2065=FILL_AREA_STYLE_COLOUR('Acier - Satin\X\E9',#2066);
#2066=COLOUR_RGB('Acier - Satin\X\E9',0.627450980392157,0.627450980392157,
0.627450980392157);
ENDSEC;
END-ISO-10303-21;
