ISO-10303-21;
HEADER;
/* Generated by software containing ST-Developer
 * from STEP Tools, Inc. (www.steptools.com) 
 */

FILE_DESCRIPTION(
/* description */ (''),
/* implementation_level */ '2;1');

FILE_NAME(
/* name */ 'glissire_male.step',
/* time_stamp */ '2025-10-26T20:19:37+01:00',
/* author */ (''),
/* organization */ (''),
/* preprocessor_version */ 'ST-DEVELOPER v20.1',
/* originating_system */ 'Autodesk Translation Framework v14.17.0.0',
/* authorisation */ '');

FILE_SCHEMA (('AUTOMOTIVE_DESIGN { 1 0 10303 214 3 1 1 }'));
ENDSEC;

DATA;
#10=MECHANICAL_DESIGN_GEOMETRIC_PRESENTATION_REPRESENTATION('',(#13),#451);
#11=SHAPE_REPRESENTATION_RELATIONSHIP('SRR','None',#458,#12);
#12=ADVANCED_BREP_SHAPE_REPRESENTATION('',(#14),#450);
#13=STYLED_ITEM('',(#467),#14);
#14=MANIFOLD_SOLID_BREP('Corps1',#271);
#15=PLANE('',#288);
#16=PLANE('',#290);
#17=PLANE('',#293);
#18=PLANE('',#294);
#19=PLANE('',#295);
#20=PLANE('',#296);
#21=PLANE('',#297);
#22=PLANE('',#298);
#23=PLANE('',#299);
#24=PLANE('',#300);
#25=PLANE('',#301);
#26=PLANE('',#302);
#27=FACE_OUTER_BOUND('',#41,.T.);
#28=FACE_OUTER_BOUND('',#42,.T.);
#29=FACE_OUTER_BOUND('',#43,.T.);
#30=FACE_OUTER_BOUND('',#44,.T.);
#31=FACE_OUTER_BOUND('',#45,.T.);
#32=FACE_OUTER_BOUND('',#46,.T.);
#33=FACE_OUTER_BOUND('',#47,.T.);
#34=FACE_OUTER_BOUND('',#48,.T.);
#35=FACE_OUTER_BOUND('',#49,.T.);
#36=FACE_OUTER_BOUND('',#50,.T.);
#37=FACE_OUTER_BOUND('',#51,.T.);
#38=FACE_OUTER_BOUND('',#52,.T.);
#39=FACE_OUTER_BOUND('',#53,.T.);
#40=FACE_OUTER_BOUND('',#54,.T.);
#41=EDGE_LOOP('',(#183,#184,#185,#186));
#42=EDGE_LOOP('',(#187,#188,#189,#190,#191,#192,#193,#194));
#43=EDGE_LOOP('',(#195,#196,#197,#198));
#44=EDGE_LOOP('',(#199,#200,#201,#202));
#45=EDGE_LOOP('',(#203,#204,#205,#206));
#46=EDGE_LOOP('',(#207,#208,#209,#210));
#47=EDGE_LOOP('',(#211,#212,#213,#214));
#48=EDGE_LOOP('',(#215,#216,#217,#218));
#49=EDGE_LOOP('',(#219,#220,#221,#222));
#50=EDGE_LOOP('',(#223,#224,#225,#226));
#51=EDGE_LOOP('',(#227,#228,#229,#230,#231,#232,#233,#234,#235,#236,#237,
#238));
#52=EDGE_LOOP('',(#239,#240,#241,#242));
#53=EDGE_LOOP('',(#243,#244,#245,#246));
#54=EDGE_LOOP('',(#247,#248,#249,#250,#251,#252,#253,#254));
#55=LINE('',#379,#87);
#56=LINE('',#382,#88);
#57=LINE('',#385,#89);
#58=LINE('',#387,#90);
#59=LINE('',#389,#91);
#60=LINE('',#393,#92);
#61=LINE('',#395,#93);
#62=LINE('',#396,#94);
#63=LINE('',#399,#95);
#64=LINE('',#400,#96);
#65=LINE('',#403,#97);
#66=LINE('',#406,#98);
#67=LINE('',#409,#99);
#68=LINE('',#410,#100);
#69=LINE('',#413,#101);
#70=LINE('',#414,#102);
#71=LINE('',#416,#103);
#72=LINE('',#419,#104);
#73=LINE('',#420,#105);
#74=LINE('',#424,#106);
#75=LINE('',#426,#107);
#76=LINE('',#428,#108);
#77=LINE('',#429,#109);
#78=LINE('',#432,#110);
#79=LINE('',#434,#111);
#80=LINE('',#435,#112);
#81=LINE('',#437,#113);
#82=LINE('',#439,#114);
#83=LINE('',#441,#115);
#84=LINE('',#442,#116);
#85=LINE('',#444,#117);
#86=LINE('',#445,#118);
#87=VECTOR('',#309,10.);
#88=VECTOR('',#312,10.);
#89=VECTOR('',#315,10.);
#90=VECTOR('',#316,10.);
#91=VECTOR('',#317,10.);
#92=VECTOR('',#320,10.);
#93=VECTOR('',#321,10.);
#94=VECTOR('',#322,10.);
#95=VECTOR('',#325,10.);
#96=VECTOR('',#326,10.);
#97=VECTOR('',#329,10.);
#98=VECTOR('',#332,10.);
#99=VECTOR('',#335,10.);
#100=VECTOR('',#336,10.);
#101=VECTOR('',#339,10.);
#102=VECTOR('',#340,10.);
#103=VECTOR('',#343,10.);
#104=VECTOR('',#346,10.);
#105=VECTOR('',#347,10.);
#106=VECTOR('',#350,10.);
#107=VECTOR('',#351,10.);
#108=VECTOR('',#352,10.);
#109=VECTOR('',#353,10.);
#110=VECTOR('',#356,10.);
#111=VECTOR('',#357,10.);
#112=VECTOR('',#358,10.);
#113=VECTOR('',#361,10.);
#114=VECTOR('',#362,10.);
#115=VECTOR('',#363,10.);
#116=VECTOR('',#364,10.);
#117=VECTOR('',#367,10.);
#118=VECTOR('',#368,10.);
#119=CIRCLE('',#286,0.2);
#120=CIRCLE('',#287,0.2);
#121=CIRCLE('',#289,0.2);
#122=CIRCLE('',#292,0.2);
#123=VERTEX_POINT('',#375);
#124=VERTEX_POINT('',#376);
#125=VERTEX_POINT('',#378);
#126=VERTEX_POINT('',#380);
#127=VERTEX_POINT('',#384);
#128=VERTEX_POINT('',#386);
#129=VERTEX_POINT('',#388);
#130=VERTEX_POINT('',#390);
#131=VERTEX_POINT('',#392);
#132=VERTEX_POINT('',#394);
#133=VERTEX_POINT('',#398);
#134=VERTEX_POINT('',#402);
#135=VERTEX_POINT('',#404);
#136=VERTEX_POINT('',#408);
#137=VERTEX_POINT('',#412);
#138=VERTEX_POINT('',#418);
#139=VERTEX_POINT('',#422);
#140=VERTEX_POINT('',#423);
#141=VERTEX_POINT('',#425);
#142=VERTEX_POINT('',#427);
#143=VERTEX_POINT('',#431);
#144=VERTEX_POINT('',#433);
#145=VERTEX_POINT('',#438);
#146=VERTEX_POINT('',#440);
#147=EDGE_CURVE('',#123,#124,#119,.T.);
#148=EDGE_CURVE('',#124,#125,#55,.T.);
#149=EDGE_CURVE('',#125,#126,#120,.F.);
#150=EDGE_CURVE('',#126,#123,#56,.T.);
#151=EDGE_CURVE('',#123,#127,#57,.T.);
#152=EDGE_CURVE('',#127,#128,#58,.T.);
#153=EDGE_CURVE('',#128,#129,#59,.T.);
#154=EDGE_CURVE('',#130,#129,#121,.T.);
#155=EDGE_CURVE('',#130,#131,#60,.T.);
#156=EDGE_CURVE('',#131,#132,#61,.T.);
#157=EDGE_CURVE('',#132,#124,#62,.T.);
#158=EDGE_CURVE('',#133,#126,#63,.T.);
#159=EDGE_CURVE('',#133,#127,#64,.T.);
#160=EDGE_CURVE('',#129,#134,#65,.T.);
#161=EDGE_CURVE('',#134,#135,#122,.F.);
#162=EDGE_CURVE('',#135,#130,#66,.T.);
#163=EDGE_CURVE('',#136,#135,#67,.T.);
#164=EDGE_CURVE('',#136,#131,#68,.T.);
#165=EDGE_CURVE('',#137,#128,#69,.T.);
#166=EDGE_CURVE('',#134,#137,#70,.T.);
#167=EDGE_CURVE('',#137,#133,#71,.T.);
#168=EDGE_CURVE('',#138,#132,#72,.T.);
#169=EDGE_CURVE('',#125,#138,#73,.T.);
#170=EDGE_CURVE('',#139,#140,#74,.T.);
#171=EDGE_CURVE('',#139,#141,#75,.T.);
#172=EDGE_CURVE('',#142,#141,#76,.T.);
#173=EDGE_CURVE('',#140,#142,#77,.T.);
#174=EDGE_CURVE('',#140,#143,#78,.T.);
#175=EDGE_CURVE('',#144,#142,#79,.T.);
#176=EDGE_CURVE('',#143,#144,#80,.T.);
#177=EDGE_CURVE('',#143,#138,#81,.T.);
#178=EDGE_CURVE('',#145,#144,#82,.T.);
#179=EDGE_CURVE('',#146,#145,#83,.T.);
#180=EDGE_CURVE('',#136,#146,#84,.T.);
#181=EDGE_CURVE('',#146,#139,#85,.T.);
#182=EDGE_CURVE('',#141,#145,#86,.T.);
#183=ORIENTED_EDGE('',*,*,#147,.T.);
#184=ORIENTED_EDGE('',*,*,#148,.T.);
#185=ORIENTED_EDGE('',*,*,#149,.T.);
#186=ORIENTED_EDGE('',*,*,#150,.T.);
#187=ORIENTED_EDGE('',*,*,#147,.F.);
#188=ORIENTED_EDGE('',*,*,#151,.T.);
#189=ORIENTED_EDGE('',*,*,#152,.T.);
#190=ORIENTED_EDGE('',*,*,#153,.T.);
#191=ORIENTED_EDGE('',*,*,#154,.F.);
#192=ORIENTED_EDGE('',*,*,#155,.T.);
#193=ORIENTED_EDGE('',*,*,#156,.T.);
#194=ORIENTED_EDGE('',*,*,#157,.T.);
#195=ORIENTED_EDGE('',*,*,#150,.F.);
#196=ORIENTED_EDGE('',*,*,#158,.F.);
#197=ORIENTED_EDGE('',*,*,#159,.T.);
#198=ORIENTED_EDGE('',*,*,#151,.F.);
#199=ORIENTED_EDGE('',*,*,#154,.T.);
#200=ORIENTED_EDGE('',*,*,#160,.T.);
#201=ORIENTED_EDGE('',*,*,#161,.T.);
#202=ORIENTED_EDGE('',*,*,#162,.T.);
#203=ORIENTED_EDGE('',*,*,#162,.F.);
#204=ORIENTED_EDGE('',*,*,#163,.F.);
#205=ORIENTED_EDGE('',*,*,#164,.T.);
#206=ORIENTED_EDGE('',*,*,#155,.F.);
#207=ORIENTED_EDGE('',*,*,#160,.F.);
#208=ORIENTED_EDGE('',*,*,#153,.F.);
#209=ORIENTED_EDGE('',*,*,#165,.F.);
#210=ORIENTED_EDGE('',*,*,#166,.F.);
#211=ORIENTED_EDGE('',*,*,#167,.F.);
#212=ORIENTED_EDGE('',*,*,#165,.T.);
#213=ORIENTED_EDGE('',*,*,#152,.F.);
#214=ORIENTED_EDGE('',*,*,#159,.F.);
#215=ORIENTED_EDGE('',*,*,#148,.F.);
#216=ORIENTED_EDGE('',*,*,#157,.F.);
#217=ORIENTED_EDGE('',*,*,#168,.F.);
#218=ORIENTED_EDGE('',*,*,#169,.F.);
#219=ORIENTED_EDGE('',*,*,#170,.F.);
#220=ORIENTED_EDGE('',*,*,#171,.T.);
#221=ORIENTED_EDGE('',*,*,#172,.F.);
#222=ORIENTED_EDGE('',*,*,#173,.F.);
#223=ORIENTED_EDGE('',*,*,#174,.F.);
#224=ORIENTED_EDGE('',*,*,#173,.T.);
#225=ORIENTED_EDGE('',*,*,#175,.F.);
#226=ORIENTED_EDGE('',*,*,#176,.F.);
#227=ORIENTED_EDGE('',*,*,#169,.T.);
#228=ORIENTED_EDGE('',*,*,#177,.F.);
#229=ORIENTED_EDGE('',*,*,#176,.T.);
#230=ORIENTED_EDGE('',*,*,#178,.F.);
#231=ORIENTED_EDGE('',*,*,#179,.F.);
#232=ORIENTED_EDGE('',*,*,#180,.F.);
#233=ORIENTED_EDGE('',*,*,#163,.T.);
#234=ORIENTED_EDGE('',*,*,#161,.F.);
#235=ORIENTED_EDGE('',*,*,#166,.T.);
#236=ORIENTED_EDGE('',*,*,#167,.T.);
#237=ORIENTED_EDGE('',*,*,#158,.T.);
#238=ORIENTED_EDGE('',*,*,#149,.F.);
#239=ORIENTED_EDGE('',*,*,#181,.F.);
#240=ORIENTED_EDGE('',*,*,#179,.T.);
#241=ORIENTED_EDGE('',*,*,#182,.F.);
#242=ORIENTED_EDGE('',*,*,#171,.F.);
#243=ORIENTED_EDGE('',*,*,#182,.T.);
#244=ORIENTED_EDGE('',*,*,#178,.T.);
#245=ORIENTED_EDGE('',*,*,#175,.T.);
#246=ORIENTED_EDGE('',*,*,#172,.T.);
#247=ORIENTED_EDGE('',*,*,#181,.T.);
#248=ORIENTED_EDGE('',*,*,#170,.T.);
#249=ORIENTED_EDGE('',*,*,#174,.T.);
#250=ORIENTED_EDGE('',*,*,#177,.T.);
#251=ORIENTED_EDGE('',*,*,#168,.T.);
#252=ORIENTED_EDGE('',*,*,#156,.F.);
#253=ORIENTED_EDGE('',*,*,#164,.F.);
#254=ORIENTED_EDGE('',*,*,#180,.T.);
#255=CYLINDRICAL_SURFACE('',#285,0.2);
#256=CYLINDRICAL_SURFACE('',#291,0.2);
#257=ADVANCED_FACE('',(#27),#255,.T.);
#258=ADVANCED_FACE('',(#28),#15,.T.);
#259=ADVANCED_FACE('',(#29),#16,.T.);
#260=ADVANCED_FACE('',(#30),#256,.T.);
#261=ADVANCED_FACE('',(#31),#17,.T.);
#262=ADVANCED_FACE('',(#32),#18,.T.);
#263=ADVANCED_FACE('',(#33),#19,.T.);
#264=ADVANCED_FACE('',(#34),#20,.T.);
#265=ADVANCED_FACE('',(#35),#21,.T.);
#266=ADVANCED_FACE('',(#36),#22,.T.);
#267=ADVANCED_FACE('',(#37),#23,.T.);
#268=ADVANCED_FACE('',(#38),#24,.T.);
#269=ADVANCED_FACE('',(#39),#25,.T.);
#270=ADVANCED_FACE('',(#40),#26,.F.);
#271=CLOSED_SHELL('',(#257,#258,#259,#260,#261,#262,#263,#264,#265,#266,
#267,#268,#269,#270));
#272=DERIVED_UNIT_ELEMENT(#274,1.);
#273=DERIVED_UNIT_ELEMENT(#453,-3.);
#274=(
MASS_UNIT()
NAMED_UNIT(*)
SI_UNIT(.KILO.,.GRAM.)
);
#275=DERIVED_UNIT((#272,#273));
#276=MEASURE_REPRESENTATION_ITEM('density measure',
POSITIVE_RATIO_MEASURE(7850.),#275);
#277=PROPERTY_DEFINITION_REPRESENTATION(#282,#279);
#278=PROPERTY_DEFINITION_REPRESENTATION(#283,#280);
#279=REPRESENTATION('material name',(#281),#450);
#280=REPRESENTATION('density',(#276),#450);
#281=DESCRIPTIVE_REPRESENTATION_ITEM('Acier','Acier');
#282=PROPERTY_DEFINITION('material property','material name',#460);
#283=PROPERTY_DEFINITION('material property','density of part',#460);
#284=AXIS2_PLACEMENT_3D('',#373,#303,#304);
#285=AXIS2_PLACEMENT_3D('',#374,#305,#306);
#286=AXIS2_PLACEMENT_3D('',#377,#307,#308);
#287=AXIS2_PLACEMENT_3D('',#381,#310,#311);
#288=AXIS2_PLACEMENT_3D('',#383,#313,#314);
#289=AXIS2_PLACEMENT_3D('',#391,#318,#319);
#290=AXIS2_PLACEMENT_3D('',#397,#323,#324);
#291=AXIS2_PLACEMENT_3D('',#401,#327,#328);
#292=AXIS2_PLACEMENT_3D('',#405,#330,#331);
#293=AXIS2_PLACEMENT_3D('',#407,#333,#334);
#294=AXIS2_PLACEMENT_3D('',#411,#337,#338);
#295=AXIS2_PLACEMENT_3D('',#415,#341,#342);
#296=AXIS2_PLACEMENT_3D('',#417,#344,#345);
#297=AXIS2_PLACEMENT_3D('',#421,#348,#349);
#298=AXIS2_PLACEMENT_3D('',#430,#354,#355);
#299=AXIS2_PLACEMENT_3D('',#436,#359,#360);
#300=AXIS2_PLACEMENT_3D('',#443,#365,#366);
#301=AXIS2_PLACEMENT_3D('',#446,#369,#370);
#302=AXIS2_PLACEMENT_3D('',#447,#371,#372);
#303=DIRECTION('axis',(0.,0.,1.));
#304=DIRECTION('refdir',(1.,0.,0.));
#305=DIRECTION('center_axis',(-1.,0.,0.));
#306=DIRECTION('ref_axis',(0.,-1.96261557335471E-15,1.));
#307=DIRECTION('center_axis',(1.,0.,0.));
#308=DIRECTION('ref_axis',(0.,-1.96261557335471E-15,1.));
#309=DIRECTION('',(1.,0.,0.));
#310=DIRECTION('center_axis',(1.,0.,4.93432455388958E-17));
#311=DIRECTION('ref_axis',(0.,-1.96261557335471E-15,1.));
#312=DIRECTION('',(-1.,0.,0.));
#313=DIRECTION('center_axis',(-1.,0.,0.));
#314=DIRECTION('ref_axis',(0.,0.,1.));
#315=DIRECTION('',(0.,0.707106781186547,-0.707106781186548));
#316=DIRECTION('',(0.,0.,-1.));
#317=DIRECTION('',(0.,-0.707106781186547,-0.707106781186548));
#318=DIRECTION('center_axis',(1.,0.,0.));
#319=DIRECTION('ref_axis',(0.,-1.96261557335473E-15,-1.));
#320=DIRECTION('',(0.,-0.707106781186548,0.707106781186547));
#321=DIRECTION('',(0.,0.,1.));
#322=DIRECTION('',(0.,0.707106781186547,0.707106781186548));
#323=DIRECTION('center_axis',(0.,0.707106781186548,0.707106781186547));
#324=DIRECTION('ref_axis',(0.,0.707106781186547,-0.707106781186548));
#325=DIRECTION('',(-3.48909435263061E-17,-0.707106781186547,0.707106781186548));
#326=DIRECTION('',(-1.,0.,0.));
#327=DIRECTION('center_axis',(-1.,0.,0.));
#328=DIRECTION('ref_axis',(0.,-1.96261557335473E-15,-1.));
#329=DIRECTION('',(1.,0.,0.));
#330=DIRECTION('center_axis',(1.,0.,4.93432455388958E-17));
#331=DIRECTION('ref_axis',(0.,-1.96261557335473E-15,-1.));
#332=DIRECTION('',(-1.,0.,0.));
#333=DIRECTION('center_axis',(0.,-0.707106781186547,-0.707106781186548));
#334=DIRECTION('ref_axis',(0.,-0.707106781186548,0.707106781186547));
#335=DIRECTION('',(3.48909435263061E-17,0.707106781186548,-0.707106781186547));
#336=DIRECTION('',(-1.,0.,0.));
#337=DIRECTION('center_axis',(0.,0.707106781186548,-0.707106781186547));
#338=DIRECTION('ref_axis',(0.,-0.707106781186547,-0.707106781186548));
#339=DIRECTION('',(-1.,0.,0.));
#340=DIRECTION('',(-3.48909435263061E-17,0.707106781186547,0.707106781186548));
#341=DIRECTION('center_axis',(0.,1.,0.));
#342=DIRECTION('ref_axis',(0.,0.,-1.));
#343=DIRECTION('',(-4.93432455388958E-17,0.,1.));
#344=DIRECTION('center_axis',(0.,-0.707106781186548,0.707106781186547));
#345=DIRECTION('ref_axis',(0.,0.707106781186547,0.707106781186548));
#346=DIRECTION('',(-1.,0.,0.));
#347=DIRECTION('',(3.48909435263061E-17,-0.707106781186547,-0.707106781186548));
#348=DIRECTION('center_axis',(1.,0.,9.86864910777917E-17));
#349=DIRECTION('ref_axis',(9.86864910777917E-17,0.,-1.));
#350=DIRECTION('',(-9.86864910777917E-17,0.,1.));
#351=DIRECTION('',(0.,1.,0.));
#352=DIRECTION('',(9.86864910777917E-17,0.,-1.));
#353=DIRECTION('',(0.,1.,0.));
#354=DIRECTION('center_axis',(2.77555756156289E-16,0.,1.));
#355=DIRECTION('ref_axis',(1.,0.,-2.77555756156289E-16));
#356=DIRECTION('',(-1.,0.,2.77555756156289E-16));
#357=DIRECTION('',(1.,0.,-2.77555756156289E-16));
#358=DIRECTION('',(0.,1.,0.));
#359=DIRECTION('center_axis',(-1.,0.,-4.93432455388958E-17));
#360=DIRECTION('ref_axis',(-4.93432455388958E-17,0.,1.));
#361=DIRECTION('',(4.93432455388958E-17,0.,-1.));
#362=DIRECTION('',(-4.93432455388958E-17,0.,1.));
#363=DIRECTION('',(0.,1.,0.));
#364=DIRECTION('',(4.93432455388958E-17,0.,-1.));
#365=DIRECTION('center_axis',(0.,0.,-1.));
#366=DIRECTION('ref_axis',(-1.,0.,0.));
#367=DIRECTION('',(1.,0.,0.));
#368=DIRECTION('',(-1.,0.,0.));
#369=DIRECTION('center_axis',(0.,1.,0.));
#370=DIRECTION('ref_axis',(0.,0.,1.));
#371=DIRECTION('center_axis',(0.,1.,0.));
#372=DIRECTION('ref_axis',(1.,0.,0.));
#373=CARTESIAN_POINT('',(0.,0.,0.));
#374=CARTESIAN_POINT('Origin',(8.55,2.,7.32573593128807));
#375=CARTESIAN_POINT('',(-24.45,2.14142135623731,7.46715728752538));
#376=CARTESIAN_POINT('',(-24.45,1.85857864376269,7.46715728752538));
#377=CARTESIAN_POINT('Origin',(-24.45,2.,7.32573593128807));
#378=CARTESIAN_POINT('',(8.55,1.85857864376269,7.46715728752538));
#379=CARTESIAN_POINT('',(8.55,1.85857864376269,7.46715728752538));
#380=CARTESIAN_POINT('',(8.55,2.14142135623731,7.46715728752538));
#381=CARTESIAN_POINT('Origin',(8.55,2.,7.32573593128807));
#382=CARTESIAN_POINT('',(8.55,2.14142135623731,7.46715728752538));
#383=CARTESIAN_POINT('Origin',(-24.45,1.95,0.));
#384=CARTESIAN_POINT('',(-24.45,3.9,5.70857864376269));
#385=CARTESIAN_POINT('',(-24.45,2.,7.60857864376269));
#386=CARTESIAN_POINT('',(-24.45,3.9,-5.70857864376269));
#387=CARTESIAN_POINT('',(-24.45,3.9,-7.75));
#388=CARTESIAN_POINT('',(-24.45,2.14142135623731,-7.46715728752538));
#389=CARTESIAN_POINT('',(-24.45,2.,-7.60857864376269));
#390=CARTESIAN_POINT('',(-24.45,1.85857864376269,-7.46715728752538));
#391=CARTESIAN_POINT('Origin',(-24.45,2.,-7.32573593128807));
#392=CARTESIAN_POINT('',(-24.45,0.,-5.60857864376269));
#393=CARTESIAN_POINT('',(-24.45,2.,-7.60857864376269));
#394=CARTESIAN_POINT('',(-24.45,-2.77555756156289E-16,5.60857864376268));
#395=CARTESIAN_POINT('',(-24.45,0.,7.75));
#396=CARTESIAN_POINT('',(-24.45,2.,7.60857864376269));
#397=CARTESIAN_POINT('Origin',(8.55,2.,7.60857864376269));
#398=CARTESIAN_POINT('',(8.55,3.9,5.70857864376269));
#399=CARTESIAN_POINT('',(8.55,6.21464466094067,3.39393398282201));
#400=CARTESIAN_POINT('',(8.55,3.9,5.70857864376269));
#401=CARTESIAN_POINT('Origin',(8.55,2.,-7.32573593128807));
#402=CARTESIAN_POINT('',(8.55,2.14142135623731,-7.46715728752538));
#403=CARTESIAN_POINT('',(8.55,2.14142135623731,-7.46715728752538));
#404=CARTESIAN_POINT('',(8.55,1.85857864376269,-7.46715728752538));
#405=CARTESIAN_POINT('Origin',(8.55,2.,-7.32573593128807));
#406=CARTESIAN_POINT('',(8.55,1.85857864376269,-7.46715728752538));
#407=CARTESIAN_POINT('Origin',(8.55,2.,-7.60857864376269));
#408=CARTESIAN_POINT('',(8.55,0.,-5.60857864376269));
#409=CARTESIAN_POINT('',(8.55,2.41035533905933,-8.01893398282202));
#410=CARTESIAN_POINT('',(8.55,0.,-5.60857864376269));
#411=CARTESIAN_POINT('Origin',(8.55,3.9,-5.70857864376269));
#412=CARTESIAN_POINT('',(8.55,3.9,-5.70857864376269));
#413=CARTESIAN_POINT('',(8.55,3.9,-5.70857864376269));
#414=CARTESIAN_POINT('',(8.55,1.53964466094067,-8.06893398282202));
#415=CARTESIAN_POINT('Origin',(8.55,3.9,5.70857864376269));
#416=CARTESIAN_POINT('',(8.55,3.9,-2.77071067811866));
#417=CARTESIAN_POINT('Origin',(8.55,-2.77555756156289E-16,5.60857864376268));
#418=CARTESIAN_POINT('',(8.55,-2.77555756156289E-16,5.60857864376268));
#419=CARTESIAN_POINT('',(8.55,-2.77555756156289E-16,5.60857864376268));
#420=CARTESIAN_POINT('',(8.55,-4.21464466094067,1.39393398282201));
#421=CARTESIAN_POINT('Origin',(16.55,0.,11.25));
#422=CARTESIAN_POINT('',(16.55,0.,-11.25));
#423=CARTESIAN_POINT('',(16.55,0.,11.25));
#424=CARTESIAN_POINT('',(16.55,0.,-11.25));
#425=CARTESIAN_POINT('',(16.55,5.,-11.25));
#426=CARTESIAN_POINT('',(16.55,0.,-11.25));
#427=CARTESIAN_POINT('',(16.55,5.,11.25));
#428=CARTESIAN_POINT('',(16.55,5.,-11.25));
#429=CARTESIAN_POINT('',(16.55,0.,11.25));
#430=CARTESIAN_POINT('Origin',(8.55,0.,11.25));
#431=CARTESIAN_POINT('',(8.55,0.,11.25));
#432=CARTESIAN_POINT('',(16.55,0.,11.25));
#433=CARTESIAN_POINT('',(8.55,5.,11.25));
#434=CARTESIAN_POINT('',(16.55,5.,11.25));
#435=CARTESIAN_POINT('',(8.55,0.,11.25));
#436=CARTESIAN_POINT('Origin',(8.55,0.,-11.25));
#437=CARTESIAN_POINT('',(8.55,0.,11.25));
#438=CARTESIAN_POINT('',(8.55,5.,-11.25));
#439=CARTESIAN_POINT('',(8.55,5.,11.25));
#440=CARTESIAN_POINT('',(8.55,0.,-11.25));
#441=CARTESIAN_POINT('',(8.55,0.,-11.25));
#442=CARTESIAN_POINT('',(8.55,0.,11.25));
#443=CARTESIAN_POINT('Origin',(16.55,0.,-11.25));
#444=CARTESIAN_POINT('',(8.55,0.,-11.25));
#445=CARTESIAN_POINT('',(8.55,5.,-11.25));
#446=CARTESIAN_POINT('Origin',(12.55,5.,-2.22044604925031E-15));
#447=CARTESIAN_POINT('Origin',(12.55,0.,-2.22044604925031E-15));
#448=UNCERTAINTY_MEASURE_WITH_UNIT(LENGTH_MEASURE(0.01),#452,
'DISTANCE_ACCURACY_VALUE',
'Maximum model space distance between geometric entities at asserted c
onnectivities');
#449=UNCERTAINTY_MEASURE_WITH_UNIT(LENGTH_MEASURE(0.01),#452,
'DISTANCE_ACCURACY_VALUE',
'Maximum model space distance between geometric entities at asserted c
onnectivities');
#450=(
GEOMETRIC_REPRESENTATION_CONTEXT(3)
GLOBAL_UNCERTAINTY_ASSIGNED_CONTEXT((#448))
GLOBAL_UNIT_ASSIGNED_CONTEXT((#452,#454,#455))
REPRESENTATION_CONTEXT('','3D')
);
#451=(
GEOMETRIC_REPRESENTATION_CONTEXT(3)
GLOBAL_UNCERTAINTY_ASSIGNED_CONTEXT((#449))
GLOBAL_UNIT_ASSIGNED_CONTEXT((#452,#454,#455))
REPRESENTATION_CONTEXT('','3D')
);
#452=(
LENGTH_UNIT()
NAMED_UNIT(*)
SI_UNIT(.MILLI.,.METRE.)
);
#453=(
LENGTH_UNIT()
NAMED_UNIT(*)
SI_UNIT($,.METRE.)
);
#454=(
NAMED_UNIT(*)
PLANE_ANGLE_UNIT()
SI_UNIT($,.RADIAN.)
);
#455=(
NAMED_UNIT(*)
SI_UNIT($,.STERADIAN.)
SOLID_ANGLE_UNIT()
);
#456=SHAPE_DEFINITION_REPRESENTATION(#457,#458);
#457=PRODUCT_DEFINITION_SHAPE('',$,#460);
#458=SHAPE_REPRESENTATION('',(#284),#450);
#459=PRODUCT_DEFINITION_CONTEXT('part definition',#464,'design');
#460=PRODUCT_DEFINITION('glissi\X\E8re','glissi\X\E8re v5',#461,#459);
#461=PRODUCT_DEFINITION_FORMATION('',$,#466);
#462=PRODUCT_RELATED_PRODUCT_CATEGORY('glissi\X\E8re v5',
'glissi\X\E8re v5',(#466));
#463=APPLICATION_PROTOCOL_DEFINITION('international standard',
'automotive_design',2009,#464);
#464=APPLICATION_CONTEXT(
'Core Data for Automotive Mechanical Design Process');
#465=PRODUCT_CONTEXT('part definition',#464,'mechanical');
#466=PRODUCT('glissi\X\E8re','glissi\X\E8re v5',$,(#465));
#467=PRESENTATION_STYLE_ASSIGNMENT((#468));
#468=SURFACE_STYLE_USAGE(.BOTH.,#469);
#469=SURFACE_SIDE_STYLE('',(#470));
#470=SURFACE_STYLE_FILL_AREA(#471);
#471=FILL_AREA_STYLE('Acier - Satin\X\E9',(#472));
#472=FILL_AREA_STYLE_COLOUR('Acier - Satin\X\E9',#473);
#473=COLOUR_RGB('Acier - Satin\X\E9',0.627450980392157,0.627450980392157,
0.627450980392157);
ENDSEC;
END-ISO-10303-21;
