ISO-10303-21;
HEADER;
/* Generated by software containing ST-Developer
 * from STEP Tools, Inc. (www.steptools.com) 
 */

FILE_DESCRIPTION(
/* description */ (''),
/* implementation_level */ '2;1');

FILE_NAME(
/* name */ 'pince_chargeur.step',
/* time_stamp */ '2026-02-14T19:59:30+01:00',
/* author */ (''),
/* organization */ (''),
/* preprocessor_version */ 'ST-DEVELOPER v20.1',
/* originating_system */ 'Autodesk Translation Framework v14.21.0.0',
/* authorisation */ '');

FILE_SCHEMA (('AUTOMOTIVE_DESIGN { 1 0 10303 214 3 1 1 }'));
ENDSEC;

DATA;
#10=MECHANICAL_DESIGN_GEOMETRIC_PRESENTATION_REPRESENTATION('',(#13),#989);
#11=SHAPE_REPRESENTATION_RELATIONSHIP('SRR','None',#996,#12);
#12=ADVANCED_BREP_SHAPE_REPRESENTATION('',(#14),#988);
#13=STYLED_ITEM('',(#1005),#14);
#14=MANIFOLD_SOLID_BREP('Corps3',#554);
#15=TOROIDAL_SURFACE('',#599,1.75,0.5);
#16=TOROIDAL_SURFACE('',#605,1.75,0.5);
#17=TOROIDAL_SURFACE('',#611,1.75,0.5);
#18=TOROIDAL_SURFACE('',#613,1.75,0.5);
#19=TOROIDAL_SURFACE('',#618,8.25,0.5);
#20=TOROIDAL_SURFACE('',#627,7.1,0.5);
#21=FACE_BOUND('',#73,.T.);
#22=FACE_BOUND('',#79,.T.);
#23=FACE_BOUND('',#83,.T.);
#24=FACE_BOUND('',#91,.T.);
#25=FACE_BOUND('',#94,.T.);
#26=PLANE('',#571);
#27=PLANE('',#576);
#28=PLANE('',#582);
#29=PLANE('',#583);
#30=PLANE('',#588);
#31=PLANE('',#590);
#32=PLANE('',#597);
#33=PLANE('',#616);
#34=PLANE('',#622);
#35=PLANE('',#632);
#36=PLANE('',#633);
#37=PLANE('',#635);
#38=PLANE('',#637);
#39=FACE_OUTER_BOUND('',#70,.T.);
#40=FACE_OUTER_BOUND('',#71,.T.);
#41=FACE_OUTER_BOUND('',#72,.T.);
#42=FACE_OUTER_BOUND('',#74,.T.);
#43=FACE_OUTER_BOUND('',#75,.T.);
#44=FACE_OUTER_BOUND('',#76,.T.);
#45=FACE_OUTER_BOUND('',#77,.T.);
#46=FACE_OUTER_BOUND('',#78,.T.);
#47=FACE_OUTER_BOUND('',#80,.T.);
#48=FACE_OUTER_BOUND('',#81,.T.);
#49=FACE_OUTER_BOUND('',#82,.T.);
#50=FACE_OUTER_BOUND('',#84,.T.);
#51=FACE_OUTER_BOUND('',#85,.T.);
#52=FACE_OUTER_BOUND('',#86,.T.);
#53=FACE_OUTER_BOUND('',#87,.T.);
#54=FACE_OUTER_BOUND('',#88,.T.);
#55=FACE_OUTER_BOUND('',#89,.T.);
#56=FACE_OUTER_BOUND('',#90,.T.);
#57=FACE_OUTER_BOUND('',#92,.T.);
#58=FACE_OUTER_BOUND('',#93,.T.);
#59=FACE_OUTER_BOUND('',#95,.T.);
#60=FACE_OUTER_BOUND('',#96,.T.);
#61=FACE_OUTER_BOUND('',#97,.T.);
#62=FACE_OUTER_BOUND('',#98,.T.);
#63=FACE_OUTER_BOUND('',#99,.T.);
#64=FACE_OUTER_BOUND('',#100,.T.);
#65=FACE_OUTER_BOUND('',#101,.T.);
#66=FACE_OUTER_BOUND('',#102,.T.);
#67=FACE_OUTER_BOUND('',#103,.T.);
#68=FACE_OUTER_BOUND('',#104,.T.);
#69=FACE_OUTER_BOUND('',#105,.T.);
#70=EDGE_LOOP('',(#353,#354,#355,#356));
#71=EDGE_LOOP('',(#357,#358,#359,#360,#361,#362,#363,#364,#365,#366,#367,
#368,#369));
#72=EDGE_LOOP('',(#370,#371,#372,#373,#374,#375));
#73=EDGE_LOOP('',(#376));
#74=EDGE_LOOP('',(#377,#378,#379,#380));
#75=EDGE_LOOP('',(#381,#382,#383,#384));
#76=EDGE_LOOP('',(#385,#386,#387,#388,#389,#390));
#77=EDGE_LOOP('',(#391,#392,#393,#394));
#78=EDGE_LOOP('',(#395,#396,#397,#398,#399,#400));
#79=EDGE_LOOP('',(#401));
#80=EDGE_LOOP('',(#402,#403,#404,#405,#406,#407,#408,#409,#410,#411,#412,
#413,#414));
#81=EDGE_LOOP('',(#415,#416,#417,#418));
#82=EDGE_LOOP('',(#419,#420,#421,#422,#423,#424));
#83=EDGE_LOOP('',(#425));
#84=EDGE_LOOP('',(#426,#427,#428,#429));
#85=EDGE_LOOP('',(#430,#431,#432,#433,#434));
#86=EDGE_LOOP('',(#435,#436,#437,#438,#439));
#87=EDGE_LOOP('',(#440,#441,#442,#443,#444));
#88=EDGE_LOOP('',(#445,#446,#447,#448));
#89=EDGE_LOOP('',(#449,#450,#451,#452,#453));
#90=EDGE_LOOP('',(#454));
#91=EDGE_LOOP('',(#455));
#92=EDGE_LOOP('',(#456,#457,#458,#459));
#93=EDGE_LOOP('',(#460));
#94=EDGE_LOOP('',(#461));
#95=EDGE_LOOP('',(#462,#463,#464,#465,#466,#467));
#96=EDGE_LOOP('',(#468,#469,#470,#471,#472));
#97=EDGE_LOOP('',(#473,#474,#475,#476,#477));
#98=EDGE_LOOP('',(#478,#479,#480,#481,#482));
#99=EDGE_LOOP('',(#483,#484,#485,#486));
#100=EDGE_LOOP('',(#487,#488,#489,#490));
#101=EDGE_LOOP('',(#491,#492,#493,#494));
#102=EDGE_LOOP('',(#495,#496,#497,#498));
#103=EDGE_LOOP('',(#499,#500,#501,#502));
#104=EDGE_LOOP('',(#503,#504,#505,#506));
#105=EDGE_LOOP('',(#507,#508,#509,#510));
#106=LINE('',#830,#144);
#107=LINE('',#833,#145);
#108=LINE('',#836,#146);
#109=LINE('',#840,#147);
#110=LINE('',#842,#148);
#111=LINE('',#844,#149);
#112=LINE('',#846,#150);
#113=LINE('',#850,#151);
#114=LINE('',#854,#152);
#115=LINE('',#857,#153);
#116=LINE('',#860,#154);
#117=LINE('',#864,#155);
#118=LINE('',#865,#156);
#119=LINE('',#872,#157);
#120=LINE('',#876,#158);
#121=LINE('',#878,#159);
#122=LINE('',#879,#160);
#123=LINE('',#884,#161);
#124=LINE('',#889,#162);
#125=LINE('',#892,#163);
#126=LINE('',#893,#164);
#127=LINE('',#898,#165);
#128=LINE('',#901,#166);
#129=LINE('',#903,#167);
#130=LINE('',#907,#168);
#131=LINE('',#911,#169);
#132=LINE('',#915,#170);
#133=LINE('',#918,#171);
#134=LINE('',#919,#172);
#135=LINE('',#930,#173);
#136=LINE('',#940,#174);
#137=LINE('',#962,#175);
#138=LINE('',#972,#176);
#139=LINE('',#974,#177);
#140=LINE('',#977,#178);
#141=LINE('',#979,#179);
#142=LINE('',#981,#180);
#143=LINE('',#983,#181);
#144=VECTOR('',#646,10.);
#145=VECTOR('',#649,10.);
#146=VECTOR('',#652,10.);
#147=VECTOR('',#655,10.);
#148=VECTOR('',#656,10.);
#149=VECTOR('',#657,10.);
#150=VECTOR('',#658,10.);
#151=VECTOR('',#661,10.);
#152=VECTOR('',#664,10.);
#153=VECTOR('',#667,10.);
#154=VECTOR('',#670,10.);
#155=VECTOR('',#673,10.);
#156=VECTOR('',#674,10.);
#157=VECTOR('',#681,10.);
#158=VECTOR('',#686,10.);
#159=VECTOR('',#687,10.);
#160=VECTOR('',#688,10.);
#161=VECTOR('',#693,10.);
#162=VECTOR('',#700,10.);
#163=VECTOR('',#703,10.);
#164=VECTOR('',#704,10.);
#165=VECTOR('',#709,10.);
#166=VECTOR('',#712,10.);
#167=VECTOR('',#713,10.);
#168=VECTOR('',#716,10.);
#169=VECTOR('',#719,10.);
#170=VECTOR('',#724,10.);
#171=VECTOR('',#729,10.);
#172=VECTOR('',#730,10.);
#173=VECTOR('',#743,1.25);
#174=VECTOR('',#756,1.25);
#175=VECTOR('',#787,8.75);
#176=VECTOR('',#802,6.6);
#177=VECTOR('',#805,10.);
#178=VECTOR('',#810,10.);
#179=VECTOR('',#813,10.);
#180=VECTOR('',#816,10.);
#181=VECTOR('',#819,10.);
#182=CIRCLE('',#569,5.);
#183=CIRCLE('',#570,5.);
#184=CIRCLE('',#572,13.5);
#185=CIRCLE('',#573,13.);
#186=CIRCLE('',#574,10.5);
#187=CIRCLE('',#575,13.);
#188=CIRCLE('',#577,5.);
#189=CIRCLE('',#578,1.75);
#190=CIRCLE('',#580,5.);
#191=CIRCLE('',#581,5.);
#192=CIRCLE('',#584,8.75);
#193=CIRCLE('',#585,5.);
#194=CIRCLE('',#587,5.);
#195=CIRCLE('',#589,1.75);
#196=CIRCLE('',#591,13.5);
#197=CIRCLE('',#592,13.);
#198=CIRCLE('',#593,10.5);
#199=CIRCLE('',#594,13.);
#200=CIRCLE('',#596,5.);
#201=CIRCLE('',#598,1.75);
#202=CIRCLE('',#600,0.5);
#203=CIRCLE('',#601,1.25);
#204=CIRCLE('',#603,1.25);
#205=CIRCLE('',#604,1.25);
#206=CIRCLE('',#606,0.5);
#207=CIRCLE('',#607,1.25);
#208=CIRCLE('',#608,1.25);
#209=CIRCLE('',#610,1.25);
#210=CIRCLE('',#612,0.5);
#211=CIRCLE('',#614,1.75);
#212=CIRCLE('',#615,0.5);
#213=CIRCLE('',#617,6.6);
#214=CIRCLE('',#619,8.25);
#215=CIRCLE('',#620,0.5);
#216=CIRCLE('',#621,8.75);
#217=CIRCLE('',#623,7.1);
#218=CIRCLE('',#625,8.75);
#219=CIRCLE('',#626,8.75);
#220=CIRCLE('',#628,0.5);
#221=CIRCLE('',#629,6.6);
#222=CIRCLE('',#630,6.6);
#223=VERTEX_POINT('',#826);
#224=VERTEX_POINT('',#827);
#225=VERTEX_POINT('',#829);
#226=VERTEX_POINT('',#831);
#227=VERTEX_POINT('',#835);
#228=VERTEX_POINT('',#837);
#229=VERTEX_POINT('',#839);
#230=VERTEX_POINT('',#841);
#231=VERTEX_POINT('',#843);
#232=VERTEX_POINT('',#845);
#233=VERTEX_POINT('',#847);
#234=VERTEX_POINT('',#849);
#235=VERTEX_POINT('',#851);
#236=VERTEX_POINT('',#853);
#237=VERTEX_POINT('',#855);
#238=VERTEX_POINT('',#859);
#239=VERTEX_POINT('',#861);
#240=VERTEX_POINT('',#863);
#241=VERTEX_POINT('',#866);
#242=VERTEX_POINT('',#869);
#243=VERTEX_POINT('',#871);
#244=VERTEX_POINT('',#875);
#245=VERTEX_POINT('',#877);
#246=VERTEX_POINT('',#881);
#247=VERTEX_POINT('',#883);
#248=VERTEX_POINT('',#887);
#249=VERTEX_POINT('',#891);
#250=VERTEX_POINT('',#894);
#251=VERTEX_POINT('',#897);
#252=VERTEX_POINT('',#900);
#253=VERTEX_POINT('',#902);
#254=VERTEX_POINT('',#904);
#255=VERTEX_POINT('',#906);
#256=VERTEX_POINT('',#908);
#257=VERTEX_POINT('',#910);
#258=VERTEX_POINT('',#914);
#259=VERTEX_POINT('',#920);
#260=VERTEX_POINT('',#923);
#261=VERTEX_POINT('',#927);
#262=VERTEX_POINT('',#928);
#263=VERTEX_POINT('',#933);
#264=VERTEX_POINT('',#935);
#265=VERTEX_POINT('',#939);
#266=VERTEX_POINT('',#945);
#267=VERTEX_POINT('',#949);
#268=VERTEX_POINT('',#952);
#269=VERTEX_POINT('',#954);
#270=VERTEX_POINT('',#958);
#271=VERTEX_POINT('',#961);
#272=VERTEX_POINT('',#966);
#273=VERTEX_POINT('',#968);
#274=EDGE_CURVE('',#223,#224,#182,.T.);
#275=EDGE_CURVE('',#224,#225,#106,.T.);
#276=EDGE_CURVE('',#225,#226,#183,.T.);
#277=EDGE_CURVE('',#226,#223,#107,.T.);
#278=EDGE_CURVE('',#224,#227,#108,.T.);
#279=EDGE_CURVE('',#227,#228,#184,.T.);
#280=EDGE_CURVE('',#228,#229,#109,.T.);
#281=EDGE_CURVE('',#229,#230,#110,.T.);
#282=EDGE_CURVE('',#231,#230,#111,.T.);
#283=EDGE_CURVE('',#231,#232,#112,.T.);
#284=EDGE_CURVE('',#232,#233,#185,.T.);
#285=EDGE_CURVE('',#233,#234,#113,.T.);
#286=EDGE_CURVE('',#234,#235,#186,.T.);
#287=EDGE_CURVE('',#235,#236,#114,.T.);
#288=EDGE_CURVE('',#236,#237,#187,.T.);
#289=EDGE_CURVE('',#237,#225,#115,.T.);
#290=EDGE_CURVE('',#238,#223,#116,.T.);
#291=EDGE_CURVE('',#239,#238,#188,.T.);
#292=EDGE_CURVE('',#240,#239,#117,.T.);
#293=EDGE_CURVE('',#240,#227,#118,.T.);
#294=EDGE_CURVE('',#241,#241,#189,.T.);
#295=EDGE_CURVE('',#230,#242,#190,.T.);
#296=EDGE_CURVE('',#242,#243,#119,.T.);
#297=EDGE_CURVE('',#243,#231,#191,.T.);
#298=EDGE_CURVE('',#244,#242,#120,.T.);
#299=EDGE_CURVE('',#245,#244,#121,.T.);
#300=EDGE_CURVE('',#245,#243,#122,.T.);
#301=EDGE_CURVE('',#229,#246,#192,.T.);
#302=EDGE_CURVE('',#246,#247,#123,.T.);
#303=EDGE_CURVE('',#244,#247,#193,.T.);
#304=EDGE_CURVE('',#248,#245,#194,.T.);
#305=EDGE_CURVE('',#247,#248,#124,.T.);
#306=EDGE_CURVE('',#249,#248,#125,.T.);
#307=EDGE_CURVE('',#249,#232,#126,.T.);
#308=EDGE_CURVE('',#250,#250,#195,.T.);
#309=EDGE_CURVE('',#251,#246,#127,.T.);
#310=EDGE_CURVE('',#240,#251,#196,.T.);
#311=EDGE_CURVE('',#252,#239,#128,.T.);
#312=EDGE_CURVE('',#253,#252,#129,.T.);
#313=EDGE_CURVE('',#253,#254,#197,.T.);
#314=EDGE_CURVE('',#255,#254,#130,.T.);
#315=EDGE_CURVE('',#255,#256,#198,.T.);
#316=EDGE_CURVE('',#256,#257,#131,.T.);
#317=EDGE_CURVE('',#257,#249,#199,.T.);
#318=EDGE_CURVE('',#238,#258,#132,.T.);
#319=EDGE_CURVE('',#258,#252,#200,.T.);
#320=EDGE_CURVE('',#253,#237,#133,.T.);
#321=EDGE_CURVE('',#258,#226,#134,.T.);
#322=EDGE_CURVE('',#259,#259,#201,.T.);
#323=EDGE_CURVE('',#250,#260,#202,.T.);
#324=EDGE_CURVE('',#260,#260,#203,.T.);
#325=EDGE_CURVE('',#261,#262,#204,.T.);
#326=EDGE_CURVE('',#261,#260,#135,.T.);
#327=EDGE_CURVE('',#262,#261,#205,.T.);
#328=EDGE_CURVE('',#241,#263,#206,.T.);
#329=EDGE_CURVE('',#263,#264,#207,.T.);
#330=EDGE_CURVE('',#264,#263,#208,.T.);
#331=EDGE_CURVE('',#264,#265,#136,.T.);
#332=EDGE_CURVE('',#265,#265,#209,.T.);
#333=EDGE_CURVE('',#259,#265,#210,.T.);
#334=EDGE_CURVE('',#266,#266,#211,.T.);
#335=EDGE_CURVE('',#266,#262,#212,.T.);
#336=EDGE_CURVE('',#267,#267,#213,.T.);
#337=EDGE_CURVE('',#268,#268,#214,.T.);
#338=EDGE_CURVE('',#268,#269,#215,.T.);
#339=EDGE_CURVE('',#269,#269,#216,.T.);
#340=EDGE_CURVE('',#270,#270,#217,.T.);
#341=EDGE_CURVE('',#269,#271,#137,.T.);
#342=EDGE_CURVE('',#246,#271,#218,.T.);
#343=EDGE_CURVE('',#271,#229,#219,.T.);
#344=EDGE_CURVE('',#270,#272,#220,.T.);
#345=EDGE_CURVE('',#272,#273,#221,.T.);
#346=EDGE_CURVE('',#273,#272,#222,.T.);
#347=EDGE_CURVE('',#273,#267,#138,.T.);
#348=EDGE_CURVE('',#251,#228,#139,.T.);
#349=EDGE_CURVE('',#254,#236,#140,.T.);
#350=EDGE_CURVE('',#255,#235,#141,.T.);
#351=EDGE_CURVE('',#256,#234,#142,.T.);
#352=EDGE_CURVE('',#257,#233,#143,.T.);
#353=ORIENTED_EDGE('',*,*,#274,.T.);
#354=ORIENTED_EDGE('',*,*,#275,.T.);
#355=ORIENTED_EDGE('',*,*,#276,.T.);
#356=ORIENTED_EDGE('',*,*,#277,.T.);
#357=ORIENTED_EDGE('',*,*,#275,.F.);
#358=ORIENTED_EDGE('',*,*,#278,.T.);
#359=ORIENTED_EDGE('',*,*,#279,.T.);
#360=ORIENTED_EDGE('',*,*,#280,.T.);
#361=ORIENTED_EDGE('',*,*,#281,.T.);
#362=ORIENTED_EDGE('',*,*,#282,.F.);
#363=ORIENTED_EDGE('',*,*,#283,.T.);
#364=ORIENTED_EDGE('',*,*,#284,.T.);
#365=ORIENTED_EDGE('',*,*,#285,.T.);
#366=ORIENTED_EDGE('',*,*,#286,.T.);
#367=ORIENTED_EDGE('',*,*,#287,.T.);
#368=ORIENTED_EDGE('',*,*,#288,.T.);
#369=ORIENTED_EDGE('',*,*,#289,.T.);
#370=ORIENTED_EDGE('',*,*,#274,.F.);
#371=ORIENTED_EDGE('',*,*,#290,.F.);
#372=ORIENTED_EDGE('',*,*,#291,.F.);
#373=ORIENTED_EDGE('',*,*,#292,.F.);
#374=ORIENTED_EDGE('',*,*,#293,.T.);
#375=ORIENTED_EDGE('',*,*,#278,.F.);
#376=ORIENTED_EDGE('',*,*,#294,.F.);
#377=ORIENTED_EDGE('',*,*,#295,.T.);
#378=ORIENTED_EDGE('',*,*,#296,.T.);
#379=ORIENTED_EDGE('',*,*,#297,.T.);
#380=ORIENTED_EDGE('',*,*,#282,.T.);
#381=ORIENTED_EDGE('',*,*,#296,.F.);
#382=ORIENTED_EDGE('',*,*,#298,.F.);
#383=ORIENTED_EDGE('',*,*,#299,.F.);
#384=ORIENTED_EDGE('',*,*,#300,.T.);
#385=ORIENTED_EDGE('',*,*,#295,.F.);
#386=ORIENTED_EDGE('',*,*,#281,.F.);
#387=ORIENTED_EDGE('',*,*,#301,.T.);
#388=ORIENTED_EDGE('',*,*,#302,.T.);
#389=ORIENTED_EDGE('',*,*,#303,.F.);
#390=ORIENTED_EDGE('',*,*,#298,.T.);
#391=ORIENTED_EDGE('',*,*,#304,.T.);
#392=ORIENTED_EDGE('',*,*,#299,.T.);
#393=ORIENTED_EDGE('',*,*,#303,.T.);
#394=ORIENTED_EDGE('',*,*,#305,.T.);
#395=ORIENTED_EDGE('',*,*,#297,.F.);
#396=ORIENTED_EDGE('',*,*,#300,.F.);
#397=ORIENTED_EDGE('',*,*,#304,.F.);
#398=ORIENTED_EDGE('',*,*,#306,.F.);
#399=ORIENTED_EDGE('',*,*,#307,.T.);
#400=ORIENTED_EDGE('',*,*,#283,.F.);
#401=ORIENTED_EDGE('',*,*,#308,.F.);
#402=ORIENTED_EDGE('',*,*,#305,.F.);
#403=ORIENTED_EDGE('',*,*,#302,.F.);
#404=ORIENTED_EDGE('',*,*,#309,.F.);
#405=ORIENTED_EDGE('',*,*,#310,.F.);
#406=ORIENTED_EDGE('',*,*,#292,.T.);
#407=ORIENTED_EDGE('',*,*,#311,.F.);
#408=ORIENTED_EDGE('',*,*,#312,.F.);
#409=ORIENTED_EDGE('',*,*,#313,.T.);
#410=ORIENTED_EDGE('',*,*,#314,.F.);
#411=ORIENTED_EDGE('',*,*,#315,.T.);
#412=ORIENTED_EDGE('',*,*,#316,.T.);
#413=ORIENTED_EDGE('',*,*,#317,.T.);
#414=ORIENTED_EDGE('',*,*,#306,.T.);
#415=ORIENTED_EDGE('',*,*,#291,.T.);
#416=ORIENTED_EDGE('',*,*,#318,.T.);
#417=ORIENTED_EDGE('',*,*,#319,.T.);
#418=ORIENTED_EDGE('',*,*,#311,.T.);
#419=ORIENTED_EDGE('',*,*,#276,.F.);
#420=ORIENTED_EDGE('',*,*,#289,.F.);
#421=ORIENTED_EDGE('',*,*,#320,.F.);
#422=ORIENTED_EDGE('',*,*,#312,.T.);
#423=ORIENTED_EDGE('',*,*,#319,.F.);
#424=ORIENTED_EDGE('',*,*,#321,.T.);
#425=ORIENTED_EDGE('',*,*,#322,.F.);
#426=ORIENTED_EDGE('',*,*,#308,.T.);
#427=ORIENTED_EDGE('',*,*,#323,.T.);
#428=ORIENTED_EDGE('',*,*,#324,.T.);
#429=ORIENTED_EDGE('',*,*,#323,.F.);
#430=ORIENTED_EDGE('',*,*,#325,.F.);
#431=ORIENTED_EDGE('',*,*,#326,.T.);
#432=ORIENTED_EDGE('',*,*,#324,.F.);
#433=ORIENTED_EDGE('',*,*,#326,.F.);
#434=ORIENTED_EDGE('',*,*,#327,.F.);
#435=ORIENTED_EDGE('',*,*,#294,.T.);
#436=ORIENTED_EDGE('',*,*,#328,.T.);
#437=ORIENTED_EDGE('',*,*,#329,.T.);
#438=ORIENTED_EDGE('',*,*,#330,.T.);
#439=ORIENTED_EDGE('',*,*,#328,.F.);
#440=ORIENTED_EDGE('',*,*,#330,.F.);
#441=ORIENTED_EDGE('',*,*,#331,.T.);
#442=ORIENTED_EDGE('',*,*,#332,.F.);
#443=ORIENTED_EDGE('',*,*,#331,.F.);
#444=ORIENTED_EDGE('',*,*,#329,.F.);
#445=ORIENTED_EDGE('',*,*,#322,.T.);
#446=ORIENTED_EDGE('',*,*,#333,.T.);
#447=ORIENTED_EDGE('',*,*,#332,.T.);
#448=ORIENTED_EDGE('',*,*,#333,.F.);
#449=ORIENTED_EDGE('',*,*,#334,.T.);
#450=ORIENTED_EDGE('',*,*,#335,.T.);
#451=ORIENTED_EDGE('',*,*,#327,.T.);
#452=ORIENTED_EDGE('',*,*,#325,.T.);
#453=ORIENTED_EDGE('',*,*,#335,.F.);
#454=ORIENTED_EDGE('',*,*,#336,.T.);
#455=ORIENTED_EDGE('',*,*,#334,.F.);
#456=ORIENTED_EDGE('',*,*,#337,.T.);
#457=ORIENTED_EDGE('',*,*,#338,.T.);
#458=ORIENTED_EDGE('',*,*,#339,.T.);
#459=ORIENTED_EDGE('',*,*,#338,.F.);
#460=ORIENTED_EDGE('',*,*,#337,.F.);
#461=ORIENTED_EDGE('',*,*,#340,.F.);
#462=ORIENTED_EDGE('',*,*,#339,.F.);
#463=ORIENTED_EDGE('',*,*,#341,.T.);
#464=ORIENTED_EDGE('',*,*,#342,.F.);
#465=ORIENTED_EDGE('',*,*,#301,.F.);
#466=ORIENTED_EDGE('',*,*,#343,.F.);
#467=ORIENTED_EDGE('',*,*,#341,.F.);
#468=ORIENTED_EDGE('',*,*,#340,.T.);
#469=ORIENTED_EDGE('',*,*,#344,.T.);
#470=ORIENTED_EDGE('',*,*,#345,.T.);
#471=ORIENTED_EDGE('',*,*,#346,.T.);
#472=ORIENTED_EDGE('',*,*,#344,.F.);
#473=ORIENTED_EDGE('',*,*,#346,.F.);
#474=ORIENTED_EDGE('',*,*,#347,.T.);
#475=ORIENTED_EDGE('',*,*,#336,.F.);
#476=ORIENTED_EDGE('',*,*,#347,.F.);
#477=ORIENTED_EDGE('',*,*,#345,.F.);
#478=ORIENTED_EDGE('',*,*,#342,.T.);
#479=ORIENTED_EDGE('',*,*,#343,.T.);
#480=ORIENTED_EDGE('',*,*,#280,.F.);
#481=ORIENTED_EDGE('',*,*,#348,.F.);
#482=ORIENTED_EDGE('',*,*,#309,.T.);
#483=ORIENTED_EDGE('',*,*,#277,.F.);
#484=ORIENTED_EDGE('',*,*,#321,.F.);
#485=ORIENTED_EDGE('',*,*,#318,.F.);
#486=ORIENTED_EDGE('',*,*,#290,.T.);
#487=ORIENTED_EDGE('',*,*,#313,.F.);
#488=ORIENTED_EDGE('',*,*,#320,.T.);
#489=ORIENTED_EDGE('',*,*,#288,.F.);
#490=ORIENTED_EDGE('',*,*,#349,.F.);
#491=ORIENTED_EDGE('',*,*,#314,.T.);
#492=ORIENTED_EDGE('',*,*,#349,.T.);
#493=ORIENTED_EDGE('',*,*,#287,.F.);
#494=ORIENTED_EDGE('',*,*,#350,.F.);
#495=ORIENTED_EDGE('',*,*,#315,.F.);
#496=ORIENTED_EDGE('',*,*,#350,.T.);
#497=ORIENTED_EDGE('',*,*,#286,.F.);
#498=ORIENTED_EDGE('',*,*,#351,.F.);
#499=ORIENTED_EDGE('',*,*,#316,.F.);
#500=ORIENTED_EDGE('',*,*,#351,.T.);
#501=ORIENTED_EDGE('',*,*,#285,.F.);
#502=ORIENTED_EDGE('',*,*,#352,.F.);
#503=ORIENTED_EDGE('',*,*,#317,.F.);
#504=ORIENTED_EDGE('',*,*,#352,.T.);
#505=ORIENTED_EDGE('',*,*,#284,.F.);
#506=ORIENTED_EDGE('',*,*,#307,.F.);
#507=ORIENTED_EDGE('',*,*,#310,.T.);
#508=ORIENTED_EDGE('',*,*,#348,.T.);
#509=ORIENTED_EDGE('',*,*,#279,.F.);
#510=ORIENTED_EDGE('',*,*,#293,.F.);
#511=CYLINDRICAL_SURFACE('',#568,5.);
#512=CYLINDRICAL_SURFACE('',#579,5.);
#513=CYLINDRICAL_SURFACE('',#586,5.);
#514=CYLINDRICAL_SURFACE('',#595,5.);
#515=CYLINDRICAL_SURFACE('',#602,1.25);
#516=CYLINDRICAL_SURFACE('',#609,1.25);
#517=CYLINDRICAL_SURFACE('',#624,8.75);
#518=CYLINDRICAL_SURFACE('',#631,6.6);
#519=CYLINDRICAL_SURFACE('',#634,13.);
#520=CYLINDRICAL_SURFACE('',#636,10.5);
#521=CYLINDRICAL_SURFACE('',#638,13.);
#522=CYLINDRICAL_SURFACE('',#639,13.5);
#523=ADVANCED_FACE('',(#39),#511,.T.);
#524=ADVANCED_FACE('',(#40),#26,.T.);
#525=ADVANCED_FACE('',(#41,#21),#27,.T.);
#526=ADVANCED_FACE('',(#42),#512,.T.);
#527=ADVANCED_FACE('',(#43),#28,.T.);
#528=ADVANCED_FACE('',(#44),#29,.T.);
#529=ADVANCED_FACE('',(#45),#513,.T.);
#530=ADVANCED_FACE('',(#46,#22),#30,.T.);
#531=ADVANCED_FACE('',(#47),#31,.F.);
#532=ADVANCED_FACE('',(#48),#514,.T.);
#533=ADVANCED_FACE('',(#49,#23),#32,.T.);
#534=ADVANCED_FACE('',(#50),#15,.T.);
#535=ADVANCED_FACE('',(#51),#515,.F.);
#536=ADVANCED_FACE('',(#52),#16,.T.);
#537=ADVANCED_FACE('',(#53),#516,.F.);
#538=ADVANCED_FACE('',(#54),#17,.T.);
#539=ADVANCED_FACE('',(#55),#18,.T.);
#540=ADVANCED_FACE('',(#56,#24),#33,.T.);
#541=ADVANCED_FACE('',(#57),#19,.T.);
#542=ADVANCED_FACE('',(#58,#25),#34,.T.);
#543=ADVANCED_FACE('',(#59),#517,.T.);
#544=ADVANCED_FACE('',(#60),#20,.T.);
#545=ADVANCED_FACE('',(#61),#518,.F.);
#546=ADVANCED_FACE('',(#62),#35,.T.);
#547=ADVANCED_FACE('',(#63),#36,.T.);
#548=ADVANCED_FACE('',(#64),#519,.F.);
#549=ADVANCED_FACE('',(#65),#37,.T.);
#550=ADVANCED_FACE('',(#66),#520,.F.);
#551=ADVANCED_FACE('',(#67),#38,.T.);
#552=ADVANCED_FACE('',(#68),#521,.F.);
#553=ADVANCED_FACE('',(#69),#522,.T.);
#554=CLOSED_SHELL('',(#523,#524,#525,#526,#527,#528,#529,#530,#531,#532,
#533,#534,#535,#536,#537,#538,#539,#540,#541,#542,#543,#544,#545,#546,#547,
#548,#549,#550,#551,#552,#553));
#555=DERIVED_UNIT_ELEMENT(#557,1.);
#556=DERIVED_UNIT_ELEMENT(#991,-3.);
#557=(
MASS_UNIT()
NAMED_UNIT(*)
SI_UNIT(.KILO.,.GRAM.)
);
#558=DERIVED_UNIT((#555,#556));
#559=MEASURE_REPRESENTATION_ITEM('density measure',
POSITIVE_RATIO_MEASURE(7850.),#558);
#560=PROPERTY_DEFINITION_REPRESENTATION(#565,#562);
#561=PROPERTY_DEFINITION_REPRESENTATION(#566,#563);
#562=REPRESENTATION('material name',(#564),#988);
#563=REPRESENTATION('density',(#559),#988);
#564=DESCRIPTIVE_REPRESENTATION_ITEM('Acier','Acier');
#565=PROPERTY_DEFINITION('material property','material name',#998);
#566=PROPERTY_DEFINITION('material property','density of part',#998);
#567=AXIS2_PLACEMENT_3D('',#824,#640,#641);
#568=AXIS2_PLACEMENT_3D('',#825,#642,#643);
#569=AXIS2_PLACEMENT_3D('',#828,#644,#645);
#570=AXIS2_PLACEMENT_3D('',#832,#647,#648);
#571=AXIS2_PLACEMENT_3D('',#834,#650,#651);
#572=AXIS2_PLACEMENT_3D('',#838,#653,#654);
#573=AXIS2_PLACEMENT_3D('',#848,#659,#660);
#574=AXIS2_PLACEMENT_3D('',#852,#662,#663);
#575=AXIS2_PLACEMENT_3D('',#856,#665,#666);
#576=AXIS2_PLACEMENT_3D('',#858,#668,#669);
#577=AXIS2_PLACEMENT_3D('',#862,#671,#672);
#578=AXIS2_PLACEMENT_3D('',#867,#675,#676);
#579=AXIS2_PLACEMENT_3D('',#868,#677,#678);
#580=AXIS2_PLACEMENT_3D('',#870,#679,#680);
#581=AXIS2_PLACEMENT_3D('',#873,#682,#683);
#582=AXIS2_PLACEMENT_3D('',#874,#684,#685);
#583=AXIS2_PLACEMENT_3D('',#880,#689,#690);
#584=AXIS2_PLACEMENT_3D('',#882,#691,#692);
#585=AXIS2_PLACEMENT_3D('',#885,#694,#695);
#586=AXIS2_PLACEMENT_3D('',#886,#696,#697);
#587=AXIS2_PLACEMENT_3D('',#888,#698,#699);
#588=AXIS2_PLACEMENT_3D('',#890,#701,#702);
#589=AXIS2_PLACEMENT_3D('',#895,#705,#706);
#590=AXIS2_PLACEMENT_3D('',#896,#707,#708);
#591=AXIS2_PLACEMENT_3D('',#899,#710,#711);
#592=AXIS2_PLACEMENT_3D('',#905,#714,#715);
#593=AXIS2_PLACEMENT_3D('',#909,#717,#718);
#594=AXIS2_PLACEMENT_3D('',#912,#720,#721);
#595=AXIS2_PLACEMENT_3D('',#913,#722,#723);
#596=AXIS2_PLACEMENT_3D('',#916,#725,#726);
#597=AXIS2_PLACEMENT_3D('',#917,#727,#728);
#598=AXIS2_PLACEMENT_3D('',#921,#731,#732);
#599=AXIS2_PLACEMENT_3D('',#922,#733,#734);
#600=AXIS2_PLACEMENT_3D('',#924,#735,#736);
#601=AXIS2_PLACEMENT_3D('',#925,#737,#738);
#602=AXIS2_PLACEMENT_3D('',#926,#739,#740);
#603=AXIS2_PLACEMENT_3D('',#929,#741,#742);
#604=AXIS2_PLACEMENT_3D('',#931,#744,#745);
#605=AXIS2_PLACEMENT_3D('',#932,#746,#747);
#606=AXIS2_PLACEMENT_3D('',#934,#748,#749);
#607=AXIS2_PLACEMENT_3D('',#936,#750,#751);
#608=AXIS2_PLACEMENT_3D('',#937,#752,#753);
#609=AXIS2_PLACEMENT_3D('',#938,#754,#755);
#610=AXIS2_PLACEMENT_3D('',#941,#757,#758);
#611=AXIS2_PLACEMENT_3D('',#942,#759,#760);
#612=AXIS2_PLACEMENT_3D('',#943,#761,#762);
#613=AXIS2_PLACEMENT_3D('',#944,#763,#764);
#614=AXIS2_PLACEMENT_3D('',#946,#765,#766);
#615=AXIS2_PLACEMENT_3D('',#947,#767,#768);
#616=AXIS2_PLACEMENT_3D('',#948,#769,#770);
#617=AXIS2_PLACEMENT_3D('',#950,#771,#772);
#618=AXIS2_PLACEMENT_3D('',#951,#773,#774);
#619=AXIS2_PLACEMENT_3D('',#953,#775,#776);
#620=AXIS2_PLACEMENT_3D('',#955,#777,#778);
#621=AXIS2_PLACEMENT_3D('',#956,#779,#780);
#622=AXIS2_PLACEMENT_3D('',#957,#781,#782);
#623=AXIS2_PLACEMENT_3D('',#959,#783,#784);
#624=AXIS2_PLACEMENT_3D('',#960,#785,#786);
#625=AXIS2_PLACEMENT_3D('',#963,#788,#789);
#626=AXIS2_PLACEMENT_3D('',#964,#790,#791);
#627=AXIS2_PLACEMENT_3D('',#965,#792,#793);
#628=AXIS2_PLACEMENT_3D('',#967,#794,#795);
#629=AXIS2_PLACEMENT_3D('',#969,#796,#797);
#630=AXIS2_PLACEMENT_3D('',#970,#798,#799);
#631=AXIS2_PLACEMENT_3D('',#971,#800,#801);
#632=AXIS2_PLACEMENT_3D('',#973,#803,#804);
#633=AXIS2_PLACEMENT_3D('',#975,#806,#807);
#634=AXIS2_PLACEMENT_3D('',#976,#808,#809);
#635=AXIS2_PLACEMENT_3D('',#978,#811,#812);
#636=AXIS2_PLACEMENT_3D('',#980,#814,#815);
#637=AXIS2_PLACEMENT_3D('',#982,#817,#818);
#638=AXIS2_PLACEMENT_3D('',#984,#820,#821);
#639=AXIS2_PLACEMENT_3D('',#985,#822,#823);
#640=DIRECTION('axis',(0.,0.,1.));
#641=DIRECTION('refdir',(1.,0.,0.));
#642=DIRECTION('center_axis',(0.100685240357774,0.,0.994918329499511));
#643=DIRECTION('ref_axis',(-0.703513497515895,0.707106781186548,0.0711952162223792));
#644=DIRECTION('center_axis',(-0.100685240357774,0.,-0.994918329499511));
#645=DIRECTION('ref_axis',(-0.703513497515895,0.707106781186548,0.0711952162223792));
#646=DIRECTION('',(-0.100685240357774,0.,-0.994918329499511));
#647=DIRECTION('center_axis',(0.100685240357774,0.,0.994918329499511));
#648=DIRECTION('ref_axis',(-0.703513497515895,0.707106781186548,0.0711952162223792));
#649=DIRECTION('',(0.100685240357774,0.,0.994918329499511));
#650=DIRECTION('center_axis',(0.,1.,0.));
#651=DIRECTION('ref_axis',(1.,0.,0.));
#652=DIRECTION('',(0.994918329499511,0.,-0.100685240357774));
#653=DIRECTION('center_axis',(0.,1.,0.));
#654=DIRECTION('ref_axis',(1.,0.,0.));
#655=DIRECTION('',(-0.995039745485583,0.,-0.0994781629503984));
#656=DIRECTION('',(-0.995039745485583,0.,-0.0994781629503984));
#657=DIRECTION('',(0.0994781629503979,0.,-0.995039745485583));
#658=DIRECTION('',(0.995039745485583,0.,0.0994781629503984));
#659=DIRECTION('center_axis',(0.,-1.,0.));
#660=DIRECTION('ref_axis',(1.,0.,0.));
#661=DIRECTION('',(0.995039745485583,0.,0.0994781629503984));
#662=DIRECTION('center_axis',(0.,-1.,0.));
#663=DIRECTION('ref_axis',(1.,0.,0.));
#664=DIRECTION('',(-0.994918329499511,0.,0.100685240357774));
#665=DIRECTION('center_axis',(0.,-1.,0.));
#666=DIRECTION('ref_axis',(1.,0.,0.));
#667=DIRECTION('',(-0.994918329499511,0.,0.100685240357774));
#668=DIRECTION('center_axis',(0.100685240357774,0.,0.994918329499511));
#669=DIRECTION('ref_axis',(0.994918329499511,0.,-0.100685240357774));
#670=DIRECTION('',(0.,1.,0.));
#671=DIRECTION('center_axis',(-0.100685240357774,0.,-0.994918329499511));
#672=DIRECTION('ref_axis',(-0.703513497515895,-0.707106781186548,0.0711952162223792));
#673=DIRECTION('',(-0.994918329499511,0.,0.100685240357774));
#674=DIRECTION('',(0.,1.,0.));
#675=DIRECTION('center_axis',(0.100685240357774,0.,0.994918329499511));
#676=DIRECTION('ref_axis',(0.994918329499511,0.,-0.100685240357774));
#677=DIRECTION('center_axis',(-0.0994781629503979,0.,0.995039745485583));
#678=DIRECTION('ref_axis',(-0.703599351582993,0.707106781186547,-0.0703416836022065));
#679=DIRECTION('center_axis',(-0.0994781629503984,0.,0.995039745485583));
#680=DIRECTION('ref_axis',(-0.703599351582993,0.707106781186547,-0.0703416836022065));
#681=DIRECTION('',(-0.0994781629503979,0.,0.995039745485583));
#682=DIRECTION('center_axis',(0.0994781629503984,0.,-0.995039745485583));
#683=DIRECTION('ref_axis',(-0.703599351582993,0.707106781186547,-0.0703416836022065));
#684=DIRECTION('center_axis',(-0.995039745485583,0.,-0.0994781629503979));
#685=DIRECTION('ref_axis',(-0.0994781629503979,0.,0.995039745485583));
#686=DIRECTION('',(0.,1.,0.));
#687=DIRECTION('',(0.0994781629503979,0.,-0.995039745485583));
#688=DIRECTION('',(0.,1.,0.));
#689=DIRECTION('center_axis',(0.0994781629503984,0.,-0.995039745485583));
#690=DIRECTION('ref_axis',(-0.995039745485583,0.,-0.0994781629503984));
#691=DIRECTION('center_axis',(-0.0994781629503984,0.,0.995039745485583));
#692=DIRECTION('ref_axis',(-0.995039745485583,0.,-0.0994781629503984));
#693=DIRECTION('',(-0.995039745485583,0.,-0.0994781629503984));
#694=DIRECTION('center_axis',(-0.0994781629503984,0.,0.995039745485583));
#695=DIRECTION('ref_axis',(-0.703599351582993,-0.707106781186547,-0.0703416836022065));
#696=DIRECTION('center_axis',(-0.0994781629503979,0.,0.995039745485583));
#697=DIRECTION('ref_axis',(-0.703599351582993,-0.707106781186547,-0.0703416836022065));
#698=DIRECTION('center_axis',(0.0994781629503984,0.,-0.995039745485583));
#699=DIRECTION('ref_axis',(-0.703599351582993,-0.707106781186547,-0.0703416836022065));
#700=DIRECTION('',(-0.0994781629503979,0.,0.995039745485583));
#701=DIRECTION('center_axis',(-0.0994781629503984,0.,0.995039745485583));
#702=DIRECTION('ref_axis',(0.995039745485583,0.,0.0994781629503984));
#703=DIRECTION('',(-0.995039745485583,0.,-0.0994781629503984));
#704=DIRECTION('',(0.,1.,0.));
#705=DIRECTION('center_axis',(-0.0994781629503984,0.,0.995039745485583));
#706=DIRECTION('ref_axis',(-0.995039745485583,0.,-0.0994781629503984));
#707=DIRECTION('center_axis',(0.,1.,0.));
#708=DIRECTION('ref_axis',(1.,0.,0.));
#709=DIRECTION('',(-0.995039745485583,0.,-0.0994781629503984));
#710=DIRECTION('center_axis',(0.,1.,0.));
#711=DIRECTION('ref_axis',(1.,0.,0.));
#712=DIRECTION('',(0.100685240357774,0.,0.994918329499511));
#713=DIRECTION('',(-0.994918329499511,0.,0.100685240357774));
#714=DIRECTION('center_axis',(0.,1.,0.));
#715=DIRECTION('ref_axis',(1.,0.,0.));
#716=DIRECTION('',(-0.994918329499511,0.,0.100685240357774));
#717=DIRECTION('center_axis',(0.,1.,0.));
#718=DIRECTION('ref_axis',(1.,0.,0.));
#719=DIRECTION('',(-0.995039745485583,0.,-0.0994781629503984));
#720=DIRECTION('center_axis',(0.,1.,0.));
#721=DIRECTION('ref_axis',(1.,0.,0.));
#722=DIRECTION('center_axis',(-0.100685240357774,0.,-0.994918329499511));
#723=DIRECTION('ref_axis',(-0.703513497515895,-0.707106781186548,0.0711952162223792));
#724=DIRECTION('',(-0.100685240357774,0.,-0.994918329499511));
#725=DIRECTION('center_axis',(0.100685240357774,0.,0.994918329499511));
#726=DIRECTION('ref_axis',(-0.703513497515895,-0.707106781186548,0.0711952162223792));
#727=DIRECTION('center_axis',(-0.100685240357774,0.,-0.994918329499511));
#728=DIRECTION('ref_axis',(-0.994918329499511,0.,0.100685240357774));
#729=DIRECTION('',(0.,1.,0.));
#730=DIRECTION('',(0.,1.,0.));
#731=DIRECTION('center_axis',(-0.100685240357774,0.,-0.994918329499511));
#732=DIRECTION('ref_axis',(0.994918329499511,0.,-0.100685240357774));
#733=DIRECTION('center_axis',(0.0994781629503984,0.,-0.995039745485583));
#734=DIRECTION('ref_axis',(-0.995039745485583,0.,-0.0994781629503984));
#735=DIRECTION('center_axis',(0.,-1.,0.));
#736=DIRECTION('ref_axis',(0.995039745485583,0.,0.0994781629503984));
#737=DIRECTION('center_axis',(0.0994781629503984,0.,-0.995039745485583));
#738=DIRECTION('ref_axis',(-0.995039745485583,0.,-0.0994781629503984));
#739=DIRECTION('center_axis',(-0.0994781629503979,0.,0.995039745485583));
#740=DIRECTION('ref_axis',(-0.995039745485583,0.,-0.0994781629503979));
#741=DIRECTION('center_axis',(-0.0994781629503984,0.,0.995039745485583));
#742=DIRECTION('ref_axis',(-0.995039745485583,0.,-0.0994781629503984));
#743=DIRECTION('',(-0.0994781629503979,0.,0.995039745485583));
#744=DIRECTION('center_axis',(-0.0994781629503984,0.,0.995039745485583));
#745=DIRECTION('ref_axis',(-0.995039745485583,0.,-0.0994781629503984));
#746=DIRECTION('center_axis',(-0.100685240357774,0.,-0.994918329499511));
#747=DIRECTION('ref_axis',(-0.994918329499511,0.,0.100685240357775));
#748=DIRECTION('center_axis',(0.,-1.,0.));
#749=DIRECTION('ref_axis',(0.994918329499511,0.,-0.100685240357774));
#750=DIRECTION('center_axis',(-0.100685240357774,0.,-0.994918329499511));
#751=DIRECTION('ref_axis',(0.994918329499511,0.,-0.100685240357774));
#752=DIRECTION('center_axis',(-0.100685240357774,0.,-0.994918329499511));
#753=DIRECTION('ref_axis',(0.994918329499511,0.,-0.100685240357774));
#754=DIRECTION('center_axis',(-0.100685240357774,0.,-0.994918329499511));
#755=DIRECTION('ref_axis',(0.994918329499511,0.,-0.100685240357774));
#756=DIRECTION('',(-0.100685240357774,0.,-0.994918329499511));
#757=DIRECTION('center_axis',(0.100685240357774,0.,0.994918329499511));
#758=DIRECTION('ref_axis',(0.994918329499511,0.,-0.100685240357774));
#759=DIRECTION('center_axis',(0.100685240357774,0.,0.994918329499511));
#760=DIRECTION('ref_axis',(0.994918329499511,0.,-0.100685240357774));
#761=DIRECTION('center_axis',(0.,-1.,0.));
#762=DIRECTION('ref_axis',(-0.994918329499511,0.,0.100685240357774));
#763=DIRECTION('center_axis',(-0.0994781629503984,0.,0.995039745485583));
#764=DIRECTION('ref_axis',(0.995039745485583,0.,0.0994781629503984));
#765=DIRECTION('center_axis',(0.0994781629503984,0.,-0.995039745485583));
#766=DIRECTION('ref_axis',(-0.995039745485583,0.,-0.0994781629503984));
#767=DIRECTION('center_axis',(0.,-1.,0.));
#768=DIRECTION('ref_axis',(-0.995039745485583,0.,-0.0994781629503984));
#769=DIRECTION('center_axis',(0.0994781629503984,0.,-0.995039745485583));
#770=DIRECTION('ref_axis',(-0.995039745485583,0.,-0.0994781629503984));
#771=DIRECTION('center_axis',(0.0994781629503984,0.,-0.995039745485583));
#772=DIRECTION('ref_axis',(-0.995039745485583,0.,-0.0994781629503984));
#773=DIRECTION('center_axis',(0.0994781629503984,0.,-0.995039745485583));
#774=DIRECTION('ref_axis',(-0.995039745485583,0.,-0.0994781629503982));
#775=DIRECTION('center_axis',(-0.0994781629503984,0.,0.995039745485583));
#776=DIRECTION('ref_axis',(-0.995039745485583,0.,-0.0994781629503984));
#777=DIRECTION('center_axis',(-1.262532612406E-16,-1.,-1.26220510805652E-17));
#778=DIRECTION('ref_axis',(0.995039745485583,-1.26882631385732E-16,0.0994781629503986));
#779=DIRECTION('center_axis',(0.0994781629503984,0.,-0.995039745485583));
#780=DIRECTION('ref_axis',(-0.995039745485583,0.,-0.0994781629503984));
#781=DIRECTION('center_axis',(0.0994781629503984,0.,-0.995039745485583));
#782=DIRECTION('ref_axis',(-0.995039745485583,0.,-0.0994781629503984));
#783=DIRECTION('center_axis',(0.0994781629503984,0.,-0.995039745485583));
#784=DIRECTION('ref_axis',(-0.995039745485583,0.,-0.0994781629503984));
#785=DIRECTION('center_axis',(0.0994781629503985,0.,-0.995039745485583));
#786=DIRECTION('ref_axis',(-0.995039745485583,0.,-0.0994781629503984));
#787=DIRECTION('',(-0.0994781629503985,0.,0.995039745485583));
#788=DIRECTION('center_axis',(-0.0994781629503984,0.,0.995039745485583));
#789=DIRECTION('ref_axis',(-0.995039745485583,0.,-0.0994781629503984));
#790=DIRECTION('center_axis',(-0.0994781629503984,0.,0.995039745485583));
#791=DIRECTION('ref_axis',(-0.995039745485583,0.,-0.0994781629503984));
#792=DIRECTION('center_axis',(-0.0994781629503984,0.,0.995039745485583));
#793=DIRECTION('ref_axis',(0.995039745485583,0.,0.0994781629503984));
#794=DIRECTION('center_axis',(1.45357373138849E-16,-1.,1.45319667045981E-17));
#795=DIRECTION('ref_axis',(-0.995039745485583,-1.46081976924363E-16,-0.0994781629503984));
#796=DIRECTION('center_axis',(-0.0994781629503984,0.,0.995039745485583));
#797=DIRECTION('ref_axis',(-0.995039745485583,0.,-0.0994781629503984));
#798=DIRECTION('center_axis',(-0.0994781629503984,0.,0.995039745485583));
#799=DIRECTION('ref_axis',(-0.995039745485583,0.,-0.0994781629503984));
#800=DIRECTION('center_axis',(0.0994781629503985,0.,-0.995039745485583));
#801=DIRECTION('ref_axis',(-0.995039745485583,0.,-0.0994781629503984));
#802=DIRECTION('',(-0.0994781629503984,0.,0.995039745485583));
#803=DIRECTION('center_axis',(0.0994781629503984,0.,-0.995039745485583));
#804=DIRECTION('ref_axis',(-0.995039745485583,0.,-0.0994781629503984));
#805=DIRECTION('',(0.,1.,0.));
#806=DIRECTION('center_axis',(-0.994918329499511,0.,0.100685240357774));
#807=DIRECTION('ref_axis',(0.100685240357774,0.,0.994918329499511));
#808=DIRECTION('center_axis',(0.,1.,0.));
#809=DIRECTION('ref_axis',(1.,0.,0.));
#810=DIRECTION('',(0.,1.,0.));
#811=DIRECTION('center_axis',(-0.100685240357774,0.,-0.994918329499511));
#812=DIRECTION('ref_axis',(-0.994918329499511,0.,0.100685240357774));
#813=DIRECTION('',(0.,1.,0.));
#814=DIRECTION('center_axis',(0.,1.,0.));
#815=DIRECTION('ref_axis',(1.,0.,0.));
#816=DIRECTION('',(0.,1.,0.));
#817=DIRECTION('center_axis',(-0.0994781629503984,0.,0.995039745485583));
#818=DIRECTION('ref_axis',(0.995039745485583,0.,0.0994781629503984));
#819=DIRECTION('',(0.,1.,0.));
#820=DIRECTION('center_axis',(0.,1.,0.));
#821=DIRECTION('ref_axis',(1.,0.,0.));
#822=DIRECTION('center_axis',(0.,1.,0.));
#823=DIRECTION('ref_axis',(1.,0.,0.));
#824=CARTESIAN_POINT('',(0.,0.,0.));
#825=CARTESIAN_POINT('Origin',(-33.1136006502582,12.5,8.03241875664524));
#826=CARTESIAN_POINT('',(-37.1978880750863,12.5,17.3333607295353));
#827=CARTESIAN_POINT('',(-32.2232964275888,17.5,16.8299345277464));
#828=CARTESIAN_POINT('Origin',(-32.2232964275888,12.5,16.8299345277464));
#829=CARTESIAN_POINT('',(-32.5253521486621,17.5,13.8451795392479));
#830=CARTESIAN_POINT('',(-33.1136006502582,17.5,8.03241875664524));
#831=CARTESIAN_POINT('',(-37.4999437961596,12.5,14.3486057410367));
#832=CARTESIAN_POINT('Origin',(-32.5253521486621,12.5,13.8451795392479));
#833=CARTESIAN_POINT('',(-38.0881922977557,12.5,8.53584495843412));
#834=CARTESIAN_POINT('Origin',(-11.9999718980798,17.5,0.0234387842621309));
#835=CARTESIAN_POINT('',(1.35925074482995,17.5,13.4313974482434));
#836=CARTESIAN_POINT('',(1.35925074482995,17.5,13.4313974482434));
#837=CARTESIAN_POINT('',(1.34295519983038,17.5,-13.4330365640554));
#838=CARTESIAN_POINT('Origin',(0.,17.5,0.));
#839=CARTESIAN_POINT('',(-28.08319907771,17.5,-16.3748886694667));
#840=CARTESIAN_POINT('',(1.34295519983038,17.5,-13.4330365640554));
#841=CARTESIAN_POINT('',(-32.2263105798805,17.5,-16.789092346259));
#842=CARTESIAN_POINT('',(1.34295519983038,17.5,-13.4330365640554));
#843=CARTESIAN_POINT('',(-32.5247450687317,17.5,-13.8039731098022));
#844=CARTESIAN_POINT('',(-32.958323510991,17.5,-9.46706368125951));
#845=CARTESIAN_POINT('',(-24.4828141605134,17.5,-12.9999886288274));
#846=CARTESIAN_POINT('',(1.04452071097918,17.5,-10.4479173275986));
#847=CARTESIAN_POINT('',(-21.9432621996668,17.5,-12.7460993094024));
#848=CARTESIAN_POINT('Origin',(-24.5000086467849,17.5,1.50019285841838E-15));
#849=CARTESIAN_POINT('',(1.04452071097918,17.5,-10.4479173275986));
#850=CARTESIAN_POINT('',(1.04452071097918,17.5,-10.4479173275986));
#851=CARTESIAN_POINT('',(1.05719502375663,17.5,10.4466424597449));
#852=CARTESIAN_POINT('Origin',(0.,17.5,0.));
#853=CARTESIAN_POINT('',(-22.2705212246244,17.5,12.8073957475526));
#854=CARTESIAN_POINT('',(1.05719502375663,17.5,10.4466424597449));
#855=CARTESIAN_POINT('',(-24.1183674824479,17.5,12.9943968702546));
#856=CARTESIAN_POINT('Origin',(-24.5000086467849,17.5,1.50019285841838E-15));
#857=CARTESIAN_POINT('',(1.05719502375663,17.5,10.4466424597449));
#858=CARTESIAN_POINT('Origin',(-37.1978880750863,0.,17.3333607295353));
#859=CARTESIAN_POINT('',(-37.1978880750863,5.,17.3333607295353));
#860=CARTESIAN_POINT('',(-37.1978880750863,0.,17.3333607295353));
#861=CARTESIAN_POINT('',(-32.2232964275888,0.,16.8299345277464));
#862=CARTESIAN_POINT('Origin',(-32.2232964275888,5.,16.8299345277464));
#863=CARTESIAN_POINT('',(1.35925074482995,0.,13.4313974482434));
#864=CARTESIAN_POINT('',(1.35925074482995,0.,13.4313974482434));
#865=CARTESIAN_POINT('',(1.35925074482995,0.,13.4313974482434));
#866=CARTESIAN_POINT('',(-27.0475240123906,8.75,16.3061489322759));
#867=CARTESIAN_POINT('Origin',(-28.7886310890147,8.75,16.482348102902));
#868=CARTESIAN_POINT('Origin',(-32.958323510991,12.5,-9.46706368125951));
#869=CARTESIAN_POINT('',(-37.2015093073084,12.5,-17.286483161011));
#870=CARTESIAN_POINT('Origin',(-32.2263105798805,12.5,-16.789092346259));
#871=CARTESIAN_POINT('',(-37.4999437961596,12.5,-14.3013639245542));
#872=CARTESIAN_POINT('',(-37.9335222384189,12.5,-9.9644544960115));
#873=CARTESIAN_POINT('Origin',(-32.5247450687317,12.5,-13.8039731098022));
#874=CARTESIAN_POINT('Origin',(-37.2015093073084,0.,-17.286483161011));
#875=CARTESIAN_POINT('',(-37.2015093073084,5.,-17.286483161011));
#876=CARTESIAN_POINT('',(-37.2015093073084,0.,-17.286483161011));
#877=CARTESIAN_POINT('',(-37.4999437961596,5.,-14.3013639245542));
#878=CARTESIAN_POINT('',(-37.9335222384189,5.,-9.9644544960115));
#879=CARTESIAN_POINT('',(-37.4999437961596,0.,-14.3013639245542));
#880=CARTESIAN_POINT('Origin',(1.34295519983038,0.,-13.4330365640554));
#881=CARTESIAN_POINT('',(-28.08319907771,0.,-16.3748886694667));
#882=CARTESIAN_POINT('Origin',(-28.08319907771,8.75,-16.3748886694667));
#883=CARTESIAN_POINT('',(-32.2263105798805,0.,-16.789092346259));
#884=CARTESIAN_POINT('',(1.34295519983038,0.,-13.4330365640554));
#885=CARTESIAN_POINT('Origin',(-32.2263105798805,5.,-16.789092346259));
#886=CARTESIAN_POINT('Origin',(-32.958323510991,5.,-9.46706368125951));
#887=CARTESIAN_POINT('',(-32.5247450687317,0.,-13.8039731098022));
#888=CARTESIAN_POINT('Origin',(-32.5247450687317,5.,-13.8039731098022));
#889=CARTESIAN_POINT('',(-32.958323510991,0.,-9.46706368125951));
#890=CARTESIAN_POINT('Origin',(-37.4999437961596,0.,-14.3013639245542));
#891=CARTESIAN_POINT('',(-24.4828141605134,0.,-12.9999886288274));
#892=CARTESIAN_POINT('',(1.04452071097918,0.,-10.4479173275986));
#893=CARTESIAN_POINT('',(-24.4828141605134,0.,-12.9999886288274));
#894=CARTESIAN_POINT('',(-26.6403140119614,8.75,-13.2156826478468));
#895=CARTESIAN_POINT('Origin',(-28.3816335665612,8.75,-13.38976943301));
#896=CARTESIAN_POINT('Origin',(-11.9999718980798,0.,0.0234387842621309));
#897=CARTESIAN_POINT('',(1.34295519983038,0.,-13.4330365640554));
#898=CARTESIAN_POINT('',(1.34295519983038,0.,-13.4330365640554));
#899=CARTESIAN_POINT('Origin',(0.,0.,0.));
#900=CARTESIAN_POINT('',(-32.5253521486621,0.,13.8451795392479));
#901=CARTESIAN_POINT('',(-33.1136006502582,0.,8.03241875664524));
#902=CARTESIAN_POINT('',(-24.1183674824479,0.,12.9943968702546));
#903=CARTESIAN_POINT('',(1.05719502375663,0.,10.4466424597449));
#904=CARTESIAN_POINT('',(-22.2705212246244,0.,12.8073957475526));
#905=CARTESIAN_POINT('Origin',(-24.5000086467849,0.,1.50019285841838E-15));
#906=CARTESIAN_POINT('',(1.05719502375663,0.,10.4466424597449));
#907=CARTESIAN_POINT('',(1.05719502375663,0.,10.4466424597449));
#908=CARTESIAN_POINT('',(1.04452071097918,0.,-10.4479173275986));
#909=CARTESIAN_POINT('Origin',(0.,0.,0.));
#910=CARTESIAN_POINT('',(-21.9432621996668,0.,-12.7460993094024));
#911=CARTESIAN_POINT('',(1.04452071097918,0.,-10.4479173275986));
#912=CARTESIAN_POINT('Origin',(-24.5000086467849,0.,1.50019285841838E-15));
#913=CARTESIAN_POINT('Origin',(-33.1136006502582,5.,8.03241875664524));
#914=CARTESIAN_POINT('',(-37.4999437961596,5.,14.3486057410367));
#915=CARTESIAN_POINT('',(-38.0881922977557,5.,8.53584495843412));
#916=CARTESIAN_POINT('Origin',(-32.5253521486621,5.,13.8451795392479));
#917=CARTESIAN_POINT('Origin',(-24.1183674824479,0.,12.9943968702546));
#918=CARTESIAN_POINT('',(-24.1183674824479,0.,12.9943968702546));
#919=CARTESIAN_POINT('',(-37.4999437961596,0.,14.3486057410367));
#920=CARTESIAN_POINT('',(-30.8317938867122,8.75,13.6737922850296));
#921=CARTESIAN_POINT('Origin',(-29.0906868100881,8.75,13.4975931144035));
#922=CARTESIAN_POINT('Origin',(-28.331894485086,8.75,-13.8872893057528));
#923=CARTESIAN_POINT('',(-27.088094803229,8.75,-13.7629416020648));
#924=CARTESIAN_POINT('Origin',(-26.5905749304862,8.75,-13.7132025205896));
#925=CARTESIAN_POINT('Origin',(-28.331894485086,8.75,-13.8872893057528));
#926=CARTESIAN_POINT('Origin',(-28.08319907771,8.75,-16.3748886694667));
#927=CARTESIAN_POINT('',(-26.8891384773282,8.75,-15.7530210930359));
#928=CARTESIAN_POINT('',(-29.3767378410422,8.75,-16.0017165004119));
#929=CARTESIAN_POINT('Origin',(-28.1329381591852,8.75,-15.8773687967239));
#930=CARTESIAN_POINT('',(-26.839399395853,8.75,-16.2505409657787));
#931=CARTESIAN_POINT('Origin',(-28.1329381591852,8.75,-15.8773687967239));
#932=CARTESIAN_POINT('Origin',(-28.8389737091936,8.75,15.9848889381523));
#933=CARTESIAN_POINT('',(-27.5953257973192,8.75,15.8590323877051));
#934=CARTESIAN_POINT('Origin',(-27.0978666325695,8.75,15.8086897675262));
#935=CARTESIAN_POINT('',(-30.082621621068,8.75,16.1107454885995));
#936=CARTESIAN_POINT('Origin',(-28.8389737091936,8.75,15.9848889381523));
#937=CARTESIAN_POINT('Origin',(-28.8389737091936,8.75,15.9848889381523));
#938=CARTESIAN_POINT('Origin',(-28.7886310890147,8.75,16.482348102902));
#939=CARTESIAN_POINT('',(-30.2839921017836,8.75,14.1209088296005));
#940=CARTESIAN_POINT('',(-30.0322790008891,8.75,16.6082046533493));
#941=CARTESIAN_POINT('Origin',(-29.0403441899092,8.75,13.9950522791533));
#942=CARTESIAN_POINT('Origin',(-29.0403441899092,8.75,13.9950522791533));
#943=CARTESIAN_POINT('Origin',(-30.7814512665333,8.75,14.1712514497794));
#944=CARTESIAN_POINT('Origin',(-28.1329381591852,8.75,-15.8773687967239));
#945=CARTESIAN_POINT('',(-29.8245186323098,8.75,-16.5489754546299));
#946=CARTESIAN_POINT('Origin',(-28.08319907771,8.75,-16.3748886694667));
#947=CARTESIAN_POINT('Origin',(-29.874257713785,8.75,-16.0514555818871));
#948=CARTESIAN_POINT('Origin',(1.34295519983038,0.,-13.4330365640554));
#949=CARTESIAN_POINT('',(-21.5159367575052,8.75,-15.7183327939941));
#950=CARTESIAN_POINT('Origin',(-28.08319907771,8.75,-16.3748886694667));
#951=CARTESIAN_POINT('Origin',(-26.6407657149292,8.75,-30.8029649790077));
#952=CARTESIAN_POINT('',(-18.381948733198,8.75,-30.4797900074097));
#953=CARTESIAN_POINT('Origin',(-26.591026633454,8.75,-31.3004848517505));
#954=CARTESIAN_POINT('',(-17.9341679419304,8.75,-29.9325310531917));
#955=CARTESIAN_POINT('Origin',(-18.4316878146732,8.75,-29.9822701346669));
#956=CARTESIAN_POINT('Origin',(-26.6407657149292,8.75,-30.8029649790077));
#957=CARTESIAN_POINT('Origin',(-26.591026633454,8.75,-31.3004848517505));
#958=CARTESIAN_POINT('',(-33.6558088264017,8.75,-32.0067798086983));
#959=CARTESIAN_POINT('Origin',(-26.591026633454,8.75,-31.3004848517505));
#960=CARTESIAN_POINT('Origin',(-28.08319907771,8.75,-16.3748886694667));
#961=CARTESIAN_POINT('',(-19.3766013047112,8.75,-15.5044547436507));
#962=CARTESIAN_POINT('',(-19.3766013047112,8.75,-15.5044547436507));
#963=CARTESIAN_POINT('Origin',(-28.08319907771,8.75,-16.3748886694667));
#964=CARTESIAN_POINT('Origin',(-28.08319907771,8.75,-16.3748886694667));
#965=CARTESIAN_POINT('Origin',(-26.6407657149292,8.75,-30.8029649790077));
#966=CARTESIAN_POINT('',(-33.2080280351341,8.75,-31.4595208544803));
#967=CARTESIAN_POINT('Origin',(-33.7055479078769,8.75,-31.5092599359555));
#968=CARTESIAN_POINT('',(-20.0735033947244,8.75,-30.146409103535));
#969=CARTESIAN_POINT('Origin',(-26.6407657149292,8.75,-30.8029649790077));
#970=CARTESIAN_POINT('Origin',(-26.6407657149292,8.75,-30.8029649790077));
#971=CARTESIAN_POINT('Origin',(-28.08319907771,8.75,-16.3748886694667));
#972=CARTESIAN_POINT('',(-21.5159367575052,8.75,-15.7183327939941));
#973=CARTESIAN_POINT('Origin',(1.34295519983038,0.,-13.4330365640554));
#974=CARTESIAN_POINT('',(1.34295519983038,0.,-13.4330365640554));
#975=CARTESIAN_POINT('Origin',(-37.4999437961596,0.,14.3486057410367));
#976=CARTESIAN_POINT('Origin',(-24.5000086467849,0.,1.50019285841838E-15));
#977=CARTESIAN_POINT('',(-22.2705212246244,0.,12.8073957475526));
#978=CARTESIAN_POINT('Origin',(1.05719502375663,0.,10.4466424597449));
#979=CARTESIAN_POINT('',(1.05719502375663,0.,10.4466424597449));
#980=CARTESIAN_POINT('Origin',(0.,0.,0.));
#981=CARTESIAN_POINT('',(1.04452071097918,0.,-10.4479173275986));
#982=CARTESIAN_POINT('Origin',(-21.9432621996668,0.,-12.7460993094024));
#983=CARTESIAN_POINT('',(-21.9432621996668,0.,-12.7460993094024));
#984=CARTESIAN_POINT('Origin',(-24.5000086467849,0.,1.50019285841838E-15));
#985=CARTESIAN_POINT('Origin',(0.,0.,0.));
#986=UNCERTAINTY_MEASURE_WITH_UNIT(LENGTH_MEASURE(0.01),#990,
'DISTANCE_ACCURACY_VALUE',
'Maximum model space distance between geometric entities at asserted c
onnectivities');
#987=UNCERTAINTY_MEASURE_WITH_UNIT(LENGTH_MEASURE(0.01),#990,
'DISTANCE_ACCURACY_VALUE',
'Maximum model space distance between geometric entities at asserted c
onnectivities');
#988=(
GEOMETRIC_REPRESENTATION_CONTEXT(3)
GLOBAL_UNCERTAINTY_ASSIGNED_CONTEXT((#986))
GLOBAL_UNIT_ASSIGNED_CONTEXT((#990,#992,#993))
REPRESENTATION_CONTEXT('','3D')
);
#989=(
GEOMETRIC_REPRESENTATION_CONTEXT(3)
GLOBAL_UNCERTAINTY_ASSIGNED_CONTEXT((#987))
GLOBAL_UNIT_ASSIGNED_CONTEXT((#990,#992,#993))
REPRESENTATION_CONTEXT('','3D')
);
#990=(
LENGTH_UNIT()
NAMED_UNIT(*)
SI_UNIT(.MILLI.,.METRE.)
);
#991=(
LENGTH_UNIT()
NAMED_UNIT(*)
SI_UNIT($,.METRE.)
);
#992=(
NAMED_UNIT(*)
PLANE_ANGLE_UNIT()
SI_UNIT($,.RADIAN.)
);
#993=(
NAMED_UNIT(*)
SI_UNIT($,.STERADIAN.)
SOLID_ANGLE_UNIT()
);
#994=SHAPE_DEFINITION_REPRESENTATION(#995,#996);
#995=PRODUCT_DEFINITION_SHAPE('',$,#998);
#996=SHAPE_REPRESENTATION('',(#567),#988);
#997=PRODUCT_DEFINITION_CONTEXT('part definition',#1002,'design');
#998=PRODUCT_DEFINITION('pince_chargeur','pince_chargeur v4',#999,#997);
#999=PRODUCT_DEFINITION_FORMATION('',$,#1004);
#1000=PRODUCT_RELATED_PRODUCT_CATEGORY('pince_chargeur v4',
'pince_chargeur v4',(#1004));
#1001=APPLICATION_PROTOCOL_DEFINITION('international standard',
'automotive_design',2009,#1002);
#1002=APPLICATION_CONTEXT(
'Core Data for Automotive Mechanical Design Process');
#1003=PRODUCT_CONTEXT('part definition',#1002,'mechanical');
#1004=PRODUCT('pince_chargeur','pince_chargeur v4',$,(#1003));
#1005=PRESENTATION_STYLE_ASSIGNMENT((#1006));
#1006=SURFACE_STYLE_USAGE(.BOTH.,#1007);
#1007=SURFACE_SIDE_STYLE('',(#1008));
#1008=SURFACE_STYLE_FILL_AREA(#1009);
#1009=FILL_AREA_STYLE('Acier - Satin\X\E9',(#1010));
#1010=FILL_AREA_STYLE_COLOUR('Acier - Satin\X\E9',#1011);
#1011=COLOUR_RGB('Acier - Satin\X\E9',0.627450980392157,0.627450980392157,
0.627450980392157);
ENDSEC;
END-ISO-10303-21;
