ISO-10303-21;
HEADER;
/* Generated by software containing ST-Developer
 * from STEP Tools, Inc. (www.steptools.com) 
 */

FILE_DESCRIPTION(
/* description */ (''),
/* implementation_level */ '2;1');

FILE_NAME(
/* name */ 'rampe_coders_boumboum.step',
/* time_stamp */ '2026-01-31T16:46:05+01:00',
/* author */ (''),
/* organization */ (''),
/* preprocessor_version */ 'ST-DEVELOPER v20.1',
/* originating_system */ 'Autodesk Translation Framework v14.21.0.0',
/* authorisation */ '');

FILE_SCHEMA (('AUTOMOTIVE_DESIGN { 1 0 10303 214 3 1 1 }'));
ENDSEC;

DATA;
#10=MECHANICAL_DESIGN_GEOMETRIC_PRESENTATION_REPRESENTATION('',(#13),#1927);
#11=SHAPE_REPRESENTATION_RELATIONSHIP('SRR','None',#1934,#12);
#12=ADVANCED_BREP_SHAPE_REPRESENTATION('',(#14),#1926);
#13=STYLED_ITEM('',(#1943),#14);
#14=MANIFOLD_SOLID_BREP('Corps39',#1063);
#15=TOROIDAL_SURFACE('',#1118,4.5,1.);
#16=TOROIDAL_SURFACE('',#1128,4.5,1.);
#17=TOROIDAL_SURFACE('',#1138,4.5,1.);
#18=TOROIDAL_SURFACE('',#1148,4.5,1.);
#19=TOROIDAL_SURFACE('',#1158,4.5,1.);
#20=TOROIDAL_SURFACE('',#1168,4.5,1.);
#21=TOROIDAL_SURFACE('',#1178,4.5,1.);
#22=TOROIDAL_SURFACE('',#1187,4.5,1.);
#23=TOROIDAL_SURFACE('',#1189,4.5,1.);
#24=TOROIDAL_SURFACE('',#1191,4.5,1.);
#25=TOROIDAL_SURFACE('',#1193,4.5,1.);
#26=TOROIDAL_SURFACE('',#1195,4.5,1.);
#27=FACE_BOUND('',#153,.T.);
#28=FACE_BOUND('',#154,.T.);
#29=FACE_BOUND('',#155,.T.);
#30=FACE_BOUND('',#156,.T.);
#31=FACE_BOUND('',#157,.T.);
#32=FACE_BOUND('',#158,.T.);
#33=FACE_BOUND('',#162,.T.);
#34=FACE_BOUND('',#166,.T.);
#35=FACE_BOUND('',#170,.T.);
#36=FACE_BOUND('',#174,.T.);
#37=FACE_BOUND('',#178,.T.);
#38=FACE_BOUND('',#182,.T.);
#39=FACE_BOUND('',#185,.T.);
#40=FACE_BOUND('',#186,.T.);
#41=FACE_BOUND('',#187,.T.);
#42=FACE_BOUND('',#188,.T.);
#43=FACE_BOUND('',#189,.T.);
#44=FACE_BOUND('',#190,.T.);
#45=SPHERICAL_SURFACE('',#1081,1.);
#46=SPHERICAL_SURFACE('',#1085,1.);
#47=SPHERICAL_SURFACE('',#1092,1.);
#48=SPHERICAL_SURFACE('',#1096,1.00000000000001);
#49=SPHERICAL_SURFACE('',#1197,1.);
#50=SPHERICAL_SURFACE('',#1203,0.999999999999979);
#51=SPHERICAL_SURFACE('',#1209,0.999999999999988);
#52=SPHERICAL_SURFACE('',#1216,1.00000000000001);
#53=PLANE('',#1080);
#54=PLANE('',#1109);
#55=PLANE('',#1110);
#56=PLANE('',#1111);
#57=PLANE('',#1126);
#58=PLANE('',#1136);
#59=PLANE('',#1146);
#60=PLANE('',#1156);
#61=PLANE('',#1166);
#62=PLANE('',#1176);
#63=PLANE('',#1181);
#64=PLANE('',#1225);
#65=PLANE('',#1226);
#66=PLANE('',#1233);
#67=PLANE('',#1234);
#68=PLANE('',#1235);
#69=PLANE('',#1236);
#70=FACE_OUTER_BOUND('',#136,.T.);
#71=FACE_OUTER_BOUND('',#137,.T.);
#72=FACE_OUTER_BOUND('',#138,.T.);
#73=FACE_OUTER_BOUND('',#139,.T.);
#74=FACE_OUTER_BOUND('',#140,.T.);
#75=FACE_OUTER_BOUND('',#141,.T.);
#76=FACE_OUTER_BOUND('',#142,.T.);
#77=FACE_OUTER_BOUND('',#143,.T.);
#78=FACE_OUTER_BOUND('',#144,.T.);
#79=FACE_OUTER_BOUND('',#145,.T.);
#80=FACE_OUTER_BOUND('',#146,.T.);
#81=FACE_OUTER_BOUND('',#147,.T.);
#82=FACE_OUTER_BOUND('',#148,.T.);
#83=FACE_OUTER_BOUND('',#149,.T.);
#84=FACE_OUTER_BOUND('',#150,.T.);
#85=FACE_OUTER_BOUND('',#151,.T.);
#86=FACE_OUTER_BOUND('',#152,.T.);
#87=FACE_OUTER_BOUND('',#159,.T.);
#88=FACE_OUTER_BOUND('',#160,.T.);
#89=FACE_OUTER_BOUND('',#161,.T.);
#90=FACE_OUTER_BOUND('',#163,.T.);
#91=FACE_OUTER_BOUND('',#164,.T.);
#92=FACE_OUTER_BOUND('',#165,.T.);
#93=FACE_OUTER_BOUND('',#167,.T.);
#94=FACE_OUTER_BOUND('',#168,.T.);
#95=FACE_OUTER_BOUND('',#169,.T.);
#96=FACE_OUTER_BOUND('',#171,.T.);
#97=FACE_OUTER_BOUND('',#172,.T.);
#98=FACE_OUTER_BOUND('',#173,.T.);
#99=FACE_OUTER_BOUND('',#175,.T.);
#100=FACE_OUTER_BOUND('',#176,.T.);
#101=FACE_OUTER_BOUND('',#177,.T.);
#102=FACE_OUTER_BOUND('',#179,.T.);
#103=FACE_OUTER_BOUND('',#180,.T.);
#104=FACE_OUTER_BOUND('',#181,.T.);
#105=FACE_OUTER_BOUND('',#183,.T.);
#106=FACE_OUTER_BOUND('',#184,.T.);
#107=FACE_OUTER_BOUND('',#191,.T.);
#108=FACE_OUTER_BOUND('',#192,.T.);
#109=FACE_OUTER_BOUND('',#193,.T.);
#110=FACE_OUTER_BOUND('',#194,.T.);
#111=FACE_OUTER_BOUND('',#195,.T.);
#112=FACE_OUTER_BOUND('',#196,.T.);
#113=FACE_OUTER_BOUND('',#197,.T.);
#114=FACE_OUTER_BOUND('',#198,.T.);
#115=FACE_OUTER_BOUND('',#199,.T.);
#116=FACE_OUTER_BOUND('',#200,.T.);
#117=FACE_OUTER_BOUND('',#201,.T.);
#118=FACE_OUTER_BOUND('',#202,.T.);
#119=FACE_OUTER_BOUND('',#203,.T.);
#120=FACE_OUTER_BOUND('',#204,.T.);
#121=FACE_OUTER_BOUND('',#205,.T.);
#122=FACE_OUTER_BOUND('',#206,.T.);
#123=FACE_OUTER_BOUND('',#207,.T.);
#124=FACE_OUTER_BOUND('',#208,.T.);
#125=FACE_OUTER_BOUND('',#209,.T.);
#126=FACE_OUTER_BOUND('',#210,.T.);
#127=FACE_OUTER_BOUND('',#211,.T.);
#128=FACE_OUTER_BOUND('',#212,.T.);
#129=FACE_OUTER_BOUND('',#213,.T.);
#130=FACE_OUTER_BOUND('',#214,.T.);
#131=FACE_OUTER_BOUND('',#215,.T.);
#132=FACE_OUTER_BOUND('',#216,.T.);
#133=FACE_OUTER_BOUND('',#217,.T.);
#134=FACE_OUTER_BOUND('',#218,.T.);
#135=FACE_OUTER_BOUND('',#219,.T.);
#136=EDGE_LOOP('',(#668,#669,#670,#671));
#137=EDGE_LOOP('',(#672,#673,#674,#675,#676,#677));
#138=EDGE_LOOP('',(#678,#679,#680));
#139=EDGE_LOOP('',(#681,#682,#683));
#140=EDGE_LOOP('',(#684,#685,#686,#687));
#141=EDGE_LOOP('',(#688,#689,#690,#691));
#142=EDGE_LOOP('',(#692,#693,#694));
#143=EDGE_LOOP('',(#695,#696,#697));
#144=EDGE_LOOP('',(#698,#699,#700,#701));
#145=EDGE_LOOP('',(#702,#703,#704,#705));
#146=EDGE_LOOP('',(#706,#707,#708,#709));
#147=EDGE_LOOP('',(#710,#711,#712,#713));
#148=EDGE_LOOP('',(#714,#715,#716,#717));
#149=EDGE_LOOP('',(#718,#719,#720,#721));
#150=EDGE_LOOP('',(#722,#723,#724,#725));
#151=EDGE_LOOP('',(#726,#727,#728,#729,#730,#731));
#152=EDGE_LOOP('',(#732,#733,#734,#735));
#153=EDGE_LOOP('',(#736));
#154=EDGE_LOOP('',(#737));
#155=EDGE_LOOP('',(#738));
#156=EDGE_LOOP('',(#739));
#157=EDGE_LOOP('',(#740));
#158=EDGE_LOOP('',(#741));
#159=EDGE_LOOP('',(#742,#743,#744,#745,#746));
#160=EDGE_LOOP('',(#747,#748,#749,#750,#751,#752));
#161=EDGE_LOOP('',(#753));
#162=EDGE_LOOP('',(#754));
#163=EDGE_LOOP('',(#755,#756,#757,#758,#759));
#164=EDGE_LOOP('',(#760,#761,#762,#763,#764,#765));
#165=EDGE_LOOP('',(#766));
#166=EDGE_LOOP('',(#767));
#167=EDGE_LOOP('',(#768,#769,#770,#771,#772));
#168=EDGE_LOOP('',(#773,#774,#775,#776,#777,#778));
#169=EDGE_LOOP('',(#779));
#170=EDGE_LOOP('',(#780));
#171=EDGE_LOOP('',(#781,#782,#783,#784,#785));
#172=EDGE_LOOP('',(#786,#787,#788,#789,#790,#791));
#173=EDGE_LOOP('',(#792));
#174=EDGE_LOOP('',(#793));
#175=EDGE_LOOP('',(#794,#795,#796,#797,#798));
#176=EDGE_LOOP('',(#799,#800,#801,#802,#803,#804));
#177=EDGE_LOOP('',(#805));
#178=EDGE_LOOP('',(#806));
#179=EDGE_LOOP('',(#807,#808,#809,#810,#811));
#180=EDGE_LOOP('',(#812,#813,#814,#815,#816,#817));
#181=EDGE_LOOP('',(#818));
#182=EDGE_LOOP('',(#819));
#183=EDGE_LOOP('',(#820,#821,#822,#823,#824));
#184=EDGE_LOOP('',(#825,#826,#827,#828));
#185=EDGE_LOOP('',(#829));
#186=EDGE_LOOP('',(#830));
#187=EDGE_LOOP('',(#831));
#188=EDGE_LOOP('',(#832));
#189=EDGE_LOOP('',(#833));
#190=EDGE_LOOP('',(#834));
#191=EDGE_LOOP('',(#835,#836,#837,#838,#839));
#192=EDGE_LOOP('',(#840,#841,#842,#843,#844));
#193=EDGE_LOOP('',(#845,#846,#847,#848,#849));
#194=EDGE_LOOP('',(#850,#851,#852,#853,#854));
#195=EDGE_LOOP('',(#855,#856,#857,#858,#859));
#196=EDGE_LOOP('',(#860,#861,#862));
#197=EDGE_LOOP('',(#863,#864,#865,#866));
#198=EDGE_LOOP('',(#867,#868,#869));
#199=EDGE_LOOP('',(#870,#871,#872,#873));
#200=EDGE_LOOP('',(#874,#875,#876));
#201=EDGE_LOOP('',(#877,#878,#879,#880));
#202=EDGE_LOOP('',(#881,#882,#883,#884));
#203=EDGE_LOOP('',(#885,#886,#887));
#204=EDGE_LOOP('',(#888,#889,#890,#891));
#205=EDGE_LOOP('',(#892,#893,#894,#895));
#206=EDGE_LOOP('',(#896,#897,#898,#899));
#207=EDGE_LOOP('',(#900,#901,#902,#903));
#208=EDGE_LOOP('',(#904,#905,#906,#907));
#209=EDGE_LOOP('',(#908,#909,#910,#911));
#210=EDGE_LOOP('',(#912,#913,#914,#915));
#211=EDGE_LOOP('',(#916,#917,#918,#919));
#212=EDGE_LOOP('',(#920,#921,#922,#923));
#213=EDGE_LOOP('',(#924,#925,#926,#927));
#214=EDGE_LOOP('',(#928,#929,#930,#931));
#215=EDGE_LOOP('',(#932,#933,#934,#935));
#216=EDGE_LOOP('',(#936,#937,#938,#939));
#217=EDGE_LOOP('',(#940,#941,#942,#943));
#218=EDGE_LOOP('',(#944,#945,#946,#947,#948,#949,#950,#951,#952,#953,#954,
#955,#956,#957,#958,#959,#960,#961,#962,#963));
#219=EDGE_LOOP('',(#964,#965,#966,#967));
#220=LINE('',#1621,#276);
#221=LINE('',#1624,#277);
#222=LINE('',#1627,#278);
#223=LINE('',#1629,#279);
#224=LINE('',#1631,#280);
#225=LINE('',#1633,#281);
#226=LINE('',#1634,#282);
#227=LINE('',#1650,#283);
#228=LINE('',#1651,#284);
#229=LINE('',#1656,#285);
#230=LINE('',#1657,#286);
#231=LINE('',#1673,#287);
#232=LINE('',#1674,#288);
#233=LINE('',#1679,#289);
#234=LINE('',#1680,#290);
#235=LINE('',#1682,#291);
#236=LINE('',#1683,#292);
#237=LINE('',#1688,#293);
#238=LINE('',#1689,#294);
#239=LINE('',#1691,#295);
#240=LINE('',#1692,#296);
#241=LINE('',#1697,#297);
#242=LINE('',#1698,#298);
#243=LINE('',#1700,#299);
#244=LINE('',#1702,#300);
#245=LINE('',#1703,#301);
#246=LINE('',#1729,#302);
#247=LINE('',#1746,#303);
#248=LINE('',#1763,#304);
#249=LINE('',#1780,#305);
#250=LINE('',#1797,#306);
#251=LINE('',#1814,#307);
#252=LINE('',#1826,#308);
#253=LINE('',#1828,#309);
#254=LINE('',#1830,#310);
#255=LINE('',#1831,#311);
#256=LINE('',#1860,#312);
#257=LINE('',#1869,#313);
#258=LINE('',#1880,#314);
#259=LINE('',#1881,#315);
#260=LINE('',#1883,#316);
#261=LINE('',#1894,#317);
#262=LINE('',#1895,#318);
#263=LINE('',#1897,#319);
#264=LINE('',#1899,#320);
#265=LINE('',#1902,#321);
#266=LINE('',#1904,#322);
#267=LINE('',#1906,#323);
#268=LINE('',#1908,#324);
#269=LINE('',#1910,#325);
#270=LINE('',#1912,#326);
#271=LINE('',#1914,#327);
#272=LINE('',#1916,#328);
#273=LINE('',#1918,#329);
#274=LINE('',#1920,#330);
#275=LINE('',#1922,#331);
#276=VECTOR('',#1243,10.);
#277=VECTOR('',#1246,10.);
#278=VECTOR('',#1249,10.);
#279=VECTOR('',#1250,10.);
#280=VECTOR('',#1251,10.);
#281=VECTOR('',#1252,10.);
#282=VECTOR('',#1253,10.);
#283=VECTOR('',#1272,10.);
#284=VECTOR('',#1273,10.);
#285=VECTOR('',#1278,10.);
#286=VECTOR('',#1279,10.);
#287=VECTOR('',#1298,10.);
#288=VECTOR('',#1299,10.);
#289=VECTOR('',#1304,10.);
#290=VECTOR('',#1305,10.);
#291=VECTOR('',#1308,10.);
#292=VECTOR('',#1309,10.);
#293=VECTOR('',#1314,10.);
#294=VECTOR('',#1315,10.);
#295=VECTOR('',#1318,10.);
#296=VECTOR('',#1319,10.);
#297=VECTOR('',#1324,10.);
#298=VECTOR('',#1325,10.);
#299=VECTOR('',#1328,10.);
#300=VECTOR('',#1331,10.);
#301=VECTOR('',#1332,10.);
#302=VECTOR('',#1361,3.5);
#303=VECTOR('',#1382,3.5);
#304=VECTOR('',#1403,3.5);
#305=VECTOR('',#1424,3.5);
#306=VECTOR('',#1445,3.5);
#307=VECTOR('',#1466,3.5);
#308=VECTOR('',#1481,10.);
#309=VECTOR('',#1482,10.);
#310=VECTOR('',#1483,10.);
#311=VECTOR('',#1484,10.);
#312=VECTOR('',#1527,10.);
#313=VECTOR('',#1540,10.);
#314=VECTOR('',#1553,10.);
#315=VECTOR('',#1554,10.);
#316=VECTOR('',#1557,10.);
#317=VECTOR('',#1570,10.);
#318=VECTOR('',#1571,10.);
#319=VECTOR('',#1574,10.);
#320=VECTOR('',#1577,10.);
#321=VECTOR('',#1582,10.);
#322=VECTOR('',#1585,10.);
#323=VECTOR('',#1588,5.50000000000001);
#324=VECTOR('',#1591,5.5);
#325=VECTOR('',#1594,5.5);
#326=VECTOR('',#1597,5.50000000000001);
#327=VECTOR('',#1600,5.5);
#328=VECTOR('',#1603,5.5);
#329=VECTOR('',#1606,10.);
#330=VECTOR('',#1609,10.);
#331=VECTOR('',#1612,10.);
#332=CIRCLE('',#1078,6.);
#333=CIRCLE('',#1079,6.);
#334=CIRCLE('',#1082,1.);
#335=CIRCLE('',#1083,1.);
#336=CIRCLE('',#1084,0.999999999999996);
#337=CIRCLE('',#1086,1.);
#338=CIRCLE('',#1087,1.);
#339=CIRCLE('',#1088,0.999999999999996);
#340=CIRCLE('',#1091,1.);
#341=CIRCLE('',#1093,1.);
#342=CIRCLE('',#1094,1.);
#343=CIRCLE('',#1095,1.00000000000001);
#344=CIRCLE('',#1097,1.);
#345=CIRCLE('',#1098,1.00000000000001);
#346=CIRCLE('',#1099,0.999999999999996);
#347=CIRCLE('',#1102,1.);
#348=CIRCLE('',#1105,1.);
#349=CIRCLE('',#1108,1.);
#350=CIRCLE('',#1112,5.5);
#351=CIRCLE('',#1113,5.5);
#352=CIRCLE('',#1114,5.50000000000001);
#353=CIRCLE('',#1115,5.5);
#354=CIRCLE('',#1116,5.5);
#355=CIRCLE('',#1117,5.50000000000001);
#356=CIRCLE('',#1119,4.5);
#357=CIRCLE('',#1120,1.);
#358=CIRCLE('',#1121,3.5);
#359=CIRCLE('',#1122,3.5);
#360=CIRCLE('',#1124,3.5);
#361=CIRCLE('',#1125,3.5);
#362=CIRCLE('',#1127,5.5);
#363=CIRCLE('',#1129,4.5);
#364=CIRCLE('',#1130,1.);
#365=CIRCLE('',#1131,3.5);
#366=CIRCLE('',#1132,3.5);
#367=CIRCLE('',#1134,3.5);
#368=CIRCLE('',#1135,3.5);
#369=CIRCLE('',#1137,5.5);
#370=CIRCLE('',#1139,4.5);
#371=CIRCLE('',#1140,1.);
#372=CIRCLE('',#1141,3.5);
#373=CIRCLE('',#1142,3.5);
#374=CIRCLE('',#1144,3.5);
#375=CIRCLE('',#1145,3.5);
#376=CIRCLE('',#1147,5.5);
#377=CIRCLE('',#1149,4.5);
#378=CIRCLE('',#1150,1.);
#379=CIRCLE('',#1151,3.5);
#380=CIRCLE('',#1152,3.5);
#381=CIRCLE('',#1154,3.5);
#382=CIRCLE('',#1155,3.5);
#383=CIRCLE('',#1157,5.5);
#384=CIRCLE('',#1159,4.5);
#385=CIRCLE('',#1160,1.);
#386=CIRCLE('',#1161,3.5);
#387=CIRCLE('',#1162,3.5);
#388=CIRCLE('',#1164,3.5);
#389=CIRCLE('',#1165,3.5);
#390=CIRCLE('',#1167,5.50000000000001);
#391=CIRCLE('',#1169,4.5);
#392=CIRCLE('',#1170,1.);
#393=CIRCLE('',#1171,3.5);
#394=CIRCLE('',#1172,3.5);
#395=CIRCLE('',#1174,3.5);
#396=CIRCLE('',#1175,3.5);
#397=CIRCLE('',#1177,5.50000000000001);
#398=CIRCLE('',#1179,4.5);
#399=CIRCLE('',#1180,1.);
#400=CIRCLE('',#1182,4.5);
#401=CIRCLE('',#1183,4.5);
#402=CIRCLE('',#1184,4.5);
#403=CIRCLE('',#1185,4.5);
#404=CIRCLE('',#1186,4.5);
#405=CIRCLE('',#1188,1.);
#406=CIRCLE('',#1190,1.);
#407=CIRCLE('',#1192,1.);
#408=CIRCLE('',#1194,1.);
#409=CIRCLE('',#1196,1.);
#410=CIRCLE('',#1198,0.999999999999996);
#411=CIRCLE('',#1199,1.);
#412=CIRCLE('',#1200,1.);
#413=CIRCLE('',#1202,1.);
#414=CIRCLE('',#1204,1.);
#415=CIRCLE('',#1205,0.999999999999979);
#416=CIRCLE('',#1206,1.);
#417=CIRCLE('',#1208,1.);
#418=CIRCLE('',#1210,1.);
#419=CIRCLE('',#1211,0.999999999999988);
#420=CIRCLE('',#1212,1.);
#421=CIRCLE('',#1214,1.);
#422=CIRCLE('',#1217,0.999999999999996);
#423=CIRCLE('',#1218,1.00000000000001);
#424=CIRCLE('',#1219,1.);
#425=CIRCLE('',#1221,1.);
#426=VERTEX_POINT('',#1617);
#427=VERTEX_POINT('',#1618);
#428=VERTEX_POINT('',#1620);
#429=VERTEX_POINT('',#1622);
#430=VERTEX_POINT('',#1626);
#431=VERTEX_POINT('',#1628);
#432=VERTEX_POINT('',#1630);
#433=VERTEX_POINT('',#1632);
#434=VERTEX_POINT('',#1636);
#435=VERTEX_POINT('',#1637);
#436=VERTEX_POINT('',#1639);
#437=VERTEX_POINT('',#1643);
#438=VERTEX_POINT('',#1644);
#439=VERTEX_POINT('',#1646);
#440=VERTEX_POINT('',#1653);
#441=VERTEX_POINT('',#1654);
#442=VERTEX_POINT('',#1659);
#443=VERTEX_POINT('',#1660);
#444=VERTEX_POINT('',#1662);
#445=VERTEX_POINT('',#1666);
#446=VERTEX_POINT('',#1667);
#447=VERTEX_POINT('',#1669);
#448=VERTEX_POINT('',#1676);
#449=VERTEX_POINT('',#1677);
#450=VERTEX_POINT('',#1685);
#451=VERTEX_POINT('',#1686);
#452=VERTEX_POINT('',#1694);
#453=VERTEX_POINT('',#1695);
#454=VERTEX_POINT('',#1705);
#455=VERTEX_POINT('',#1707);
#456=VERTEX_POINT('',#1709);
#457=VERTEX_POINT('',#1711);
#458=VERTEX_POINT('',#1713);
#459=VERTEX_POINT('',#1715);
#460=VERTEX_POINT('',#1718);
#461=VERTEX_POINT('',#1720);
#462=VERTEX_POINT('',#1722);
#463=VERTEX_POINT('',#1726);
#464=VERTEX_POINT('',#1727);
#465=VERTEX_POINT('',#1732);
#466=VERTEX_POINT('',#1735);
#467=VERTEX_POINT('',#1737);
#468=VERTEX_POINT('',#1739);
#469=VERTEX_POINT('',#1743);
#470=VERTEX_POINT('',#1744);
#471=VERTEX_POINT('',#1749);
#472=VERTEX_POINT('',#1752);
#473=VERTEX_POINT('',#1754);
#474=VERTEX_POINT('',#1756);
#475=VERTEX_POINT('',#1760);
#476=VERTEX_POINT('',#1761);
#477=VERTEX_POINT('',#1766);
#478=VERTEX_POINT('',#1769);
#479=VERTEX_POINT('',#1771);
#480=VERTEX_POINT('',#1773);
#481=VERTEX_POINT('',#1777);
#482=VERTEX_POINT('',#1778);
#483=VERTEX_POINT('',#1783);
#484=VERTEX_POINT('',#1786);
#485=VERTEX_POINT('',#1788);
#486=VERTEX_POINT('',#1790);
#487=VERTEX_POINT('',#1794);
#488=VERTEX_POINT('',#1795);
#489=VERTEX_POINT('',#1800);
#490=VERTEX_POINT('',#1803);
#491=VERTEX_POINT('',#1805);
#492=VERTEX_POINT('',#1807);
#493=VERTEX_POINT('',#1811);
#494=VERTEX_POINT('',#1812);
#495=VERTEX_POINT('',#1817);
#496=VERTEX_POINT('',#1820);
#497=VERTEX_POINT('',#1824);
#498=VERTEX_POINT('',#1825);
#499=VERTEX_POINT('',#1827);
#500=VERTEX_POINT('',#1829);
#501=VERTEX_POINT('',#1832);
#502=VERTEX_POINT('',#1834);
#503=VERTEX_POINT('',#1836);
#504=VERTEX_POINT('',#1838);
#505=VERTEX_POINT('',#1840);
#506=VERTEX_POINT('',#1853);
#507=VERTEX_POINT('',#1858);
#508=VERTEX_POINT('',#1863);
#509=VERTEX_POINT('',#1867);
#510=VERTEX_POINT('',#1871);
#511=VERTEX_POINT('',#1873);
#512=VERTEX_POINT('',#1877);
#513=VERTEX_POINT('',#1878);
#514=VERTEX_POINT('',#1885);
#515=VERTEX_POINT('',#1887);
#516=VERTEX_POINT('',#1891);
#517=VERTEX_POINT('',#1892);
#518=EDGE_CURVE('',#426,#427,#332,.T.);
#519=EDGE_CURVE('',#428,#426,#220,.T.);
#520=EDGE_CURVE('',#429,#428,#333,.T.);
#521=EDGE_CURVE('',#427,#429,#221,.T.);
#522=EDGE_CURVE('',#430,#427,#222,.T.);
#523=EDGE_CURVE('',#431,#430,#223,.T.);
#524=EDGE_CURVE('',#432,#431,#224,.T.);
#525=EDGE_CURVE('',#433,#432,#225,.T.);
#526=EDGE_CURVE('',#426,#433,#226,.T.);
#527=EDGE_CURVE('',#434,#435,#334,.F.);
#528=EDGE_CURVE('',#436,#434,#335,.F.);
#529=EDGE_CURVE('',#435,#436,#336,.F.);
#530=EDGE_CURVE('',#437,#438,#337,.F.);
#531=EDGE_CURVE('',#439,#437,#338,.F.);
#532=EDGE_CURVE('',#438,#439,#339,.F.);
#533=EDGE_CURVE('',#437,#436,#227,.T.);
#534=EDGE_CURVE('',#434,#439,#228,.T.);
#535=EDGE_CURVE('',#440,#441,#340,.T.);
#536=EDGE_CURVE('',#441,#438,#229,.T.);
#537=EDGE_CURVE('',#439,#440,#230,.T.);
#538=EDGE_CURVE('',#442,#443,#341,.F.);
#539=EDGE_CURVE('',#444,#442,#342,.F.);
#540=EDGE_CURVE('',#443,#444,#343,.F.);
#541=EDGE_CURVE('',#445,#446,#344,.F.);
#542=EDGE_CURVE('',#447,#445,#345,.F.);
#543=EDGE_CURVE('',#446,#447,#346,.F.);
#544=EDGE_CURVE('',#445,#437,#231,.T.);
#545=EDGE_CURVE('',#438,#447,#232,.T.);
#546=EDGE_CURVE('',#448,#449,#347,.T.);
#547=EDGE_CURVE('',#449,#446,#233,.T.);
#548=EDGE_CURVE('',#447,#448,#234,.T.);
#549=EDGE_CURVE('',#442,#445,#235,.T.);
#550=EDGE_CURVE('',#446,#444,#236,.T.);
#551=EDGE_CURVE('',#450,#451,#348,.T.);
#552=EDGE_CURVE('',#451,#443,#237,.T.);
#553=EDGE_CURVE('',#444,#450,#238,.T.);
#554=EDGE_CURVE('',#436,#442,#239,.T.);
#555=EDGE_CURVE('',#443,#435,#240,.T.);
#556=EDGE_CURVE('',#452,#453,#349,.T.);
#557=EDGE_CURVE('',#453,#434,#241,.T.);
#558=EDGE_CURVE('',#435,#452,#242,.T.);
#559=EDGE_CURVE('',#448,#441,#243,.T.);
#560=EDGE_CURVE('',#440,#428,#244,.T.);
#561=EDGE_CURVE('',#429,#453,#245,.T.);
#562=EDGE_CURVE('',#454,#454,#350,.T.);
#563=EDGE_CURVE('',#455,#455,#351,.T.);
#564=EDGE_CURVE('',#456,#456,#352,.T.);
#565=EDGE_CURVE('',#457,#457,#353,.T.);
#566=EDGE_CURVE('',#458,#458,#354,.T.);
#567=EDGE_CURVE('',#459,#459,#355,.T.);
#568=EDGE_CURVE('',#460,#460,#356,.T.);
#569=EDGE_CURVE('',#460,#461,#357,.T.);
#570=EDGE_CURVE('',#461,#462,#358,.T.);
#571=EDGE_CURVE('',#462,#461,#359,.T.);
#572=EDGE_CURVE('',#463,#464,#360,.T.);
#573=EDGE_CURVE('',#463,#462,#246,.T.);
#574=EDGE_CURVE('',#464,#463,#361,.T.);
#575=EDGE_CURVE('',#465,#465,#362,.T.);
#576=EDGE_CURVE('',#466,#466,#363,.T.);
#577=EDGE_CURVE('',#466,#467,#364,.T.);
#578=EDGE_CURVE('',#467,#468,#365,.T.);
#579=EDGE_CURVE('',#468,#467,#366,.T.);
#580=EDGE_CURVE('',#469,#470,#367,.T.);
#581=EDGE_CURVE('',#469,#468,#247,.T.);
#582=EDGE_CURVE('',#470,#469,#368,.T.);
#583=EDGE_CURVE('',#471,#471,#369,.T.);
#584=EDGE_CURVE('',#472,#472,#370,.T.);
#585=EDGE_CURVE('',#472,#473,#371,.T.);
#586=EDGE_CURVE('',#473,#474,#372,.T.);
#587=EDGE_CURVE('',#474,#473,#373,.T.);
#588=EDGE_CURVE('',#475,#476,#374,.T.);
#589=EDGE_CURVE('',#475,#474,#248,.T.);
#590=EDGE_CURVE('',#476,#475,#375,.T.);
#591=EDGE_CURVE('',#477,#477,#376,.T.);
#592=EDGE_CURVE('',#478,#478,#377,.T.);
#593=EDGE_CURVE('',#478,#479,#378,.T.);
#594=EDGE_CURVE('',#479,#480,#379,.T.);
#595=EDGE_CURVE('',#480,#479,#380,.T.);
#596=EDGE_CURVE('',#481,#482,#381,.T.);
#597=EDGE_CURVE('',#481,#480,#249,.T.);
#598=EDGE_CURVE('',#482,#481,#382,.T.);
#599=EDGE_CURVE('',#483,#483,#383,.T.);
#600=EDGE_CURVE('',#484,#484,#384,.T.);
#601=EDGE_CURVE('',#484,#485,#385,.T.);
#602=EDGE_CURVE('',#485,#486,#386,.T.);
#603=EDGE_CURVE('',#486,#485,#387,.T.);
#604=EDGE_CURVE('',#487,#488,#388,.T.);
#605=EDGE_CURVE('',#487,#486,#250,.T.);
#606=EDGE_CURVE('',#488,#487,#389,.T.);
#607=EDGE_CURVE('',#489,#489,#390,.T.);
#608=EDGE_CURVE('',#490,#490,#391,.T.);
#609=EDGE_CURVE('',#490,#491,#392,.T.);
#610=EDGE_CURVE('',#491,#492,#393,.T.);
#611=EDGE_CURVE('',#492,#491,#394,.T.);
#612=EDGE_CURVE('',#493,#494,#395,.T.);
#613=EDGE_CURVE('',#493,#492,#251,.T.);
#614=EDGE_CURVE('',#494,#493,#396,.T.);
#615=EDGE_CURVE('',#495,#495,#397,.T.);
#616=EDGE_CURVE('',#496,#496,#398,.T.);
#617=EDGE_CURVE('',#496,#494,#399,.T.);
#618=EDGE_CURVE('',#497,#498,#252,.T.);
#619=EDGE_CURVE('',#499,#497,#253,.T.);
#620=EDGE_CURVE('',#500,#499,#254,.T.);
#621=EDGE_CURVE('',#498,#500,#255,.T.);
#622=EDGE_CURVE('',#501,#501,#400,.T.);
#623=EDGE_CURVE('',#502,#502,#401,.T.);
#624=EDGE_CURVE('',#503,#503,#402,.T.);
#625=EDGE_CURVE('',#504,#504,#403,.T.);
#626=EDGE_CURVE('',#505,#505,#404,.T.);
#627=EDGE_CURVE('',#501,#488,#405,.T.);
#628=EDGE_CURVE('',#505,#482,#406,.T.);
#629=EDGE_CURVE('',#502,#476,#407,.T.);
#630=EDGE_CURVE('',#504,#470,#408,.T.);
#631=EDGE_CURVE('',#503,#464,#409,.T.);
#632=EDGE_CURVE('',#506,#497,#410,.F.);
#633=EDGE_CURVE('',#432,#506,#411,.F.);
#634=EDGE_CURVE('',#497,#432,#412,.F.);
#635=EDGE_CURVE('',#507,#433,#413,.T.);
#636=EDGE_CURVE('',#506,#507,#256,.T.);
#637=EDGE_CURVE('',#431,#499,#414,.F.);
#638=EDGE_CURVE('',#508,#431,#415,.F.);
#639=EDGE_CURVE('',#499,#508,#416,.F.);
#640=EDGE_CURVE('',#430,#509,#417,.T.);
#641=EDGE_CURVE('',#509,#508,#257,.T.);
#642=EDGE_CURVE('',#510,#498,#418,.F.);
#643=EDGE_CURVE('',#511,#510,#419,.F.);
#644=EDGE_CURVE('',#498,#511,#420,.F.);
#645=EDGE_CURVE('',#512,#513,#421,.T.);
#646=EDGE_CURVE('',#513,#511,#258,.T.);
#647=EDGE_CURVE('',#510,#512,#259,.T.);
#648=EDGE_CURVE('',#511,#506,#260,.T.);
#649=EDGE_CURVE('',#514,#500,#422,.F.);
#650=EDGE_CURVE('',#515,#514,#423,.F.);
#651=EDGE_CURVE('',#500,#515,#424,.F.);
#652=EDGE_CURVE('',#516,#517,#425,.T.);
#653=EDGE_CURVE('',#517,#515,#261,.T.);
#654=EDGE_CURVE('',#514,#516,#262,.T.);
#655=EDGE_CURVE('',#515,#510,#263,.T.);
#656=EDGE_CURVE('',#508,#514,#264,.T.);
#657=EDGE_CURVE('',#507,#513,#265,.T.);
#658=EDGE_CURVE('',#512,#517,#266,.T.);
#659=EDGE_CURVE('',#495,#459,#267,.T.);
#660=EDGE_CURVE('',#471,#458,#268,.T.);
#661=EDGE_CURVE('',#477,#457,#269,.T.);
#662=EDGE_CURVE('',#489,#456,#270,.T.);
#663=EDGE_CURVE('',#465,#455,#271,.T.);
#664=EDGE_CURVE('',#483,#454,#272,.T.);
#665=EDGE_CURVE('',#450,#449,#273,.T.);
#666=EDGE_CURVE('',#452,#451,#274,.T.);
#667=EDGE_CURVE('',#516,#509,#275,.T.);
#668=ORIENTED_EDGE('',*,*,#518,.F.);
#669=ORIENTED_EDGE('',*,*,#519,.F.);
#670=ORIENTED_EDGE('',*,*,#520,.F.);
#671=ORIENTED_EDGE('',*,*,#521,.F.);
#672=ORIENTED_EDGE('',*,*,#518,.T.);
#673=ORIENTED_EDGE('',*,*,#522,.F.);
#674=ORIENTED_EDGE('',*,*,#523,.F.);
#675=ORIENTED_EDGE('',*,*,#524,.F.);
#676=ORIENTED_EDGE('',*,*,#525,.F.);
#677=ORIENTED_EDGE('',*,*,#526,.F.);
#678=ORIENTED_EDGE('',*,*,#527,.F.);
#679=ORIENTED_EDGE('',*,*,#528,.F.);
#680=ORIENTED_EDGE('',*,*,#529,.F.);
#681=ORIENTED_EDGE('',*,*,#530,.F.);
#682=ORIENTED_EDGE('',*,*,#531,.F.);
#683=ORIENTED_EDGE('',*,*,#532,.F.);
#684=ORIENTED_EDGE('',*,*,#531,.T.);
#685=ORIENTED_EDGE('',*,*,#533,.T.);
#686=ORIENTED_EDGE('',*,*,#528,.T.);
#687=ORIENTED_EDGE('',*,*,#534,.T.);
#688=ORIENTED_EDGE('',*,*,#535,.T.);
#689=ORIENTED_EDGE('',*,*,#536,.T.);
#690=ORIENTED_EDGE('',*,*,#532,.T.);
#691=ORIENTED_EDGE('',*,*,#537,.T.);
#692=ORIENTED_EDGE('',*,*,#538,.F.);
#693=ORIENTED_EDGE('',*,*,#539,.F.);
#694=ORIENTED_EDGE('',*,*,#540,.F.);
#695=ORIENTED_EDGE('',*,*,#541,.F.);
#696=ORIENTED_EDGE('',*,*,#542,.F.);
#697=ORIENTED_EDGE('',*,*,#543,.F.);
#698=ORIENTED_EDGE('',*,*,#542,.T.);
#699=ORIENTED_EDGE('',*,*,#544,.T.);
#700=ORIENTED_EDGE('',*,*,#530,.T.);
#701=ORIENTED_EDGE('',*,*,#545,.T.);
#702=ORIENTED_EDGE('',*,*,#546,.T.);
#703=ORIENTED_EDGE('',*,*,#547,.T.);
#704=ORIENTED_EDGE('',*,*,#543,.T.);
#705=ORIENTED_EDGE('',*,*,#548,.T.);
#706=ORIENTED_EDGE('',*,*,#539,.T.);
#707=ORIENTED_EDGE('',*,*,#549,.T.);
#708=ORIENTED_EDGE('',*,*,#541,.T.);
#709=ORIENTED_EDGE('',*,*,#550,.T.);
#710=ORIENTED_EDGE('',*,*,#551,.T.);
#711=ORIENTED_EDGE('',*,*,#552,.T.);
#712=ORIENTED_EDGE('',*,*,#540,.T.);
#713=ORIENTED_EDGE('',*,*,#553,.T.);
#714=ORIENTED_EDGE('',*,*,#529,.T.);
#715=ORIENTED_EDGE('',*,*,#554,.T.);
#716=ORIENTED_EDGE('',*,*,#538,.T.);
#717=ORIENTED_EDGE('',*,*,#555,.T.);
#718=ORIENTED_EDGE('',*,*,#556,.T.);
#719=ORIENTED_EDGE('',*,*,#557,.T.);
#720=ORIENTED_EDGE('',*,*,#527,.T.);
#721=ORIENTED_EDGE('',*,*,#558,.T.);
#722=ORIENTED_EDGE('',*,*,#548,.F.);
#723=ORIENTED_EDGE('',*,*,#545,.F.);
#724=ORIENTED_EDGE('',*,*,#536,.F.);
#725=ORIENTED_EDGE('',*,*,#559,.F.);
#726=ORIENTED_EDGE('',*,*,#520,.T.);
#727=ORIENTED_EDGE('',*,*,#560,.F.);
#728=ORIENTED_EDGE('',*,*,#537,.F.);
#729=ORIENTED_EDGE('',*,*,#534,.F.);
#730=ORIENTED_EDGE('',*,*,#557,.F.);
#731=ORIENTED_EDGE('',*,*,#561,.F.);
#732=ORIENTED_EDGE('',*,*,#533,.F.);
#733=ORIENTED_EDGE('',*,*,#544,.F.);
#734=ORIENTED_EDGE('',*,*,#549,.F.);
#735=ORIENTED_EDGE('',*,*,#554,.F.);
#736=ORIENTED_EDGE('',*,*,#562,.T.);
#737=ORIENTED_EDGE('',*,*,#563,.T.);
#738=ORIENTED_EDGE('',*,*,#564,.T.);
#739=ORIENTED_EDGE('',*,*,#565,.T.);
#740=ORIENTED_EDGE('',*,*,#566,.T.);
#741=ORIENTED_EDGE('',*,*,#567,.T.);
#742=ORIENTED_EDGE('',*,*,#568,.T.);
#743=ORIENTED_EDGE('',*,*,#569,.T.);
#744=ORIENTED_EDGE('',*,*,#570,.T.);
#745=ORIENTED_EDGE('',*,*,#571,.T.);
#746=ORIENTED_EDGE('',*,*,#569,.F.);
#747=ORIENTED_EDGE('',*,*,#572,.F.);
#748=ORIENTED_EDGE('',*,*,#573,.T.);
#749=ORIENTED_EDGE('',*,*,#570,.F.);
#750=ORIENTED_EDGE('',*,*,#571,.F.);
#751=ORIENTED_EDGE('',*,*,#573,.F.);
#752=ORIENTED_EDGE('',*,*,#574,.F.);
#753=ORIENTED_EDGE('',*,*,#575,.T.);
#754=ORIENTED_EDGE('',*,*,#568,.F.);
#755=ORIENTED_EDGE('',*,*,#576,.T.);
#756=ORIENTED_EDGE('',*,*,#577,.T.);
#757=ORIENTED_EDGE('',*,*,#578,.T.);
#758=ORIENTED_EDGE('',*,*,#579,.T.);
#759=ORIENTED_EDGE('',*,*,#577,.F.);
#760=ORIENTED_EDGE('',*,*,#580,.F.);
#761=ORIENTED_EDGE('',*,*,#581,.T.);
#762=ORIENTED_EDGE('',*,*,#578,.F.);
#763=ORIENTED_EDGE('',*,*,#579,.F.);
#764=ORIENTED_EDGE('',*,*,#581,.F.);
#765=ORIENTED_EDGE('',*,*,#582,.F.);
#766=ORIENTED_EDGE('',*,*,#583,.T.);
#767=ORIENTED_EDGE('',*,*,#576,.F.);
#768=ORIENTED_EDGE('',*,*,#584,.T.);
#769=ORIENTED_EDGE('',*,*,#585,.T.);
#770=ORIENTED_EDGE('',*,*,#586,.T.);
#771=ORIENTED_EDGE('',*,*,#587,.T.);
#772=ORIENTED_EDGE('',*,*,#585,.F.);
#773=ORIENTED_EDGE('',*,*,#588,.F.);
#774=ORIENTED_EDGE('',*,*,#589,.T.);
#775=ORIENTED_EDGE('',*,*,#586,.F.);
#776=ORIENTED_EDGE('',*,*,#587,.F.);
#777=ORIENTED_EDGE('',*,*,#589,.F.);
#778=ORIENTED_EDGE('',*,*,#590,.F.);
#779=ORIENTED_EDGE('',*,*,#591,.T.);
#780=ORIENTED_EDGE('',*,*,#584,.F.);
#781=ORIENTED_EDGE('',*,*,#592,.T.);
#782=ORIENTED_EDGE('',*,*,#593,.T.);
#783=ORIENTED_EDGE('',*,*,#594,.T.);
#784=ORIENTED_EDGE('',*,*,#595,.T.);
#785=ORIENTED_EDGE('',*,*,#593,.F.);
#786=ORIENTED_EDGE('',*,*,#596,.F.);
#787=ORIENTED_EDGE('',*,*,#597,.T.);
#788=ORIENTED_EDGE('',*,*,#594,.F.);
#789=ORIENTED_EDGE('',*,*,#595,.F.);
#790=ORIENTED_EDGE('',*,*,#597,.F.);
#791=ORIENTED_EDGE('',*,*,#598,.F.);
#792=ORIENTED_EDGE('',*,*,#599,.T.);
#793=ORIENTED_EDGE('',*,*,#592,.F.);
#794=ORIENTED_EDGE('',*,*,#600,.T.);
#795=ORIENTED_EDGE('',*,*,#601,.T.);
#796=ORIENTED_EDGE('',*,*,#602,.T.);
#797=ORIENTED_EDGE('',*,*,#603,.T.);
#798=ORIENTED_EDGE('',*,*,#601,.F.);
#799=ORIENTED_EDGE('',*,*,#604,.F.);
#800=ORIENTED_EDGE('',*,*,#605,.T.);
#801=ORIENTED_EDGE('',*,*,#602,.F.);
#802=ORIENTED_EDGE('',*,*,#603,.F.);
#803=ORIENTED_EDGE('',*,*,#605,.F.);
#804=ORIENTED_EDGE('',*,*,#606,.F.);
#805=ORIENTED_EDGE('',*,*,#607,.T.);
#806=ORIENTED_EDGE('',*,*,#600,.F.);
#807=ORIENTED_EDGE('',*,*,#608,.T.);
#808=ORIENTED_EDGE('',*,*,#609,.T.);
#809=ORIENTED_EDGE('',*,*,#610,.T.);
#810=ORIENTED_EDGE('',*,*,#611,.T.);
#811=ORIENTED_EDGE('',*,*,#609,.F.);
#812=ORIENTED_EDGE('',*,*,#612,.F.);
#813=ORIENTED_EDGE('',*,*,#613,.T.);
#814=ORIENTED_EDGE('',*,*,#610,.F.);
#815=ORIENTED_EDGE('',*,*,#611,.F.);
#816=ORIENTED_EDGE('',*,*,#613,.F.);
#817=ORIENTED_EDGE('',*,*,#614,.F.);
#818=ORIENTED_EDGE('',*,*,#615,.T.);
#819=ORIENTED_EDGE('',*,*,#608,.F.);
#820=ORIENTED_EDGE('',*,*,#616,.T.);
#821=ORIENTED_EDGE('',*,*,#617,.T.);
#822=ORIENTED_EDGE('',*,*,#614,.T.);
#823=ORIENTED_EDGE('',*,*,#612,.T.);
#824=ORIENTED_EDGE('',*,*,#617,.F.);
#825=ORIENTED_EDGE('',*,*,#618,.F.);
#826=ORIENTED_EDGE('',*,*,#619,.F.);
#827=ORIENTED_EDGE('',*,*,#620,.F.);
#828=ORIENTED_EDGE('',*,*,#621,.F.);
#829=ORIENTED_EDGE('',*,*,#622,.F.);
#830=ORIENTED_EDGE('',*,*,#623,.F.);
#831=ORIENTED_EDGE('',*,*,#624,.F.);
#832=ORIENTED_EDGE('',*,*,#625,.F.);
#833=ORIENTED_EDGE('',*,*,#626,.F.);
#834=ORIENTED_EDGE('',*,*,#616,.F.);
#835=ORIENTED_EDGE('',*,*,#622,.T.);
#836=ORIENTED_EDGE('',*,*,#627,.T.);
#837=ORIENTED_EDGE('',*,*,#606,.T.);
#838=ORIENTED_EDGE('',*,*,#604,.T.);
#839=ORIENTED_EDGE('',*,*,#627,.F.);
#840=ORIENTED_EDGE('',*,*,#626,.T.);
#841=ORIENTED_EDGE('',*,*,#628,.T.);
#842=ORIENTED_EDGE('',*,*,#598,.T.);
#843=ORIENTED_EDGE('',*,*,#596,.T.);
#844=ORIENTED_EDGE('',*,*,#628,.F.);
#845=ORIENTED_EDGE('',*,*,#623,.T.);
#846=ORIENTED_EDGE('',*,*,#629,.T.);
#847=ORIENTED_EDGE('',*,*,#590,.T.);
#848=ORIENTED_EDGE('',*,*,#588,.T.);
#849=ORIENTED_EDGE('',*,*,#629,.F.);
#850=ORIENTED_EDGE('',*,*,#625,.T.);
#851=ORIENTED_EDGE('',*,*,#630,.T.);
#852=ORIENTED_EDGE('',*,*,#582,.T.);
#853=ORIENTED_EDGE('',*,*,#580,.T.);
#854=ORIENTED_EDGE('',*,*,#630,.F.);
#855=ORIENTED_EDGE('',*,*,#624,.T.);
#856=ORIENTED_EDGE('',*,*,#631,.T.);
#857=ORIENTED_EDGE('',*,*,#574,.T.);
#858=ORIENTED_EDGE('',*,*,#572,.T.);
#859=ORIENTED_EDGE('',*,*,#631,.F.);
#860=ORIENTED_EDGE('',*,*,#632,.F.);
#861=ORIENTED_EDGE('',*,*,#633,.F.);
#862=ORIENTED_EDGE('',*,*,#634,.F.);
#863=ORIENTED_EDGE('',*,*,#635,.T.);
#864=ORIENTED_EDGE('',*,*,#525,.T.);
#865=ORIENTED_EDGE('',*,*,#633,.T.);
#866=ORIENTED_EDGE('',*,*,#636,.T.);
#867=ORIENTED_EDGE('',*,*,#637,.F.);
#868=ORIENTED_EDGE('',*,*,#638,.F.);
#869=ORIENTED_EDGE('',*,*,#639,.F.);
#870=ORIENTED_EDGE('',*,*,#640,.T.);
#871=ORIENTED_EDGE('',*,*,#641,.T.);
#872=ORIENTED_EDGE('',*,*,#638,.T.);
#873=ORIENTED_EDGE('',*,*,#523,.T.);
#874=ORIENTED_EDGE('',*,*,#642,.F.);
#875=ORIENTED_EDGE('',*,*,#643,.F.);
#876=ORIENTED_EDGE('',*,*,#644,.F.);
#877=ORIENTED_EDGE('',*,*,#645,.T.);
#878=ORIENTED_EDGE('',*,*,#646,.T.);
#879=ORIENTED_EDGE('',*,*,#643,.T.);
#880=ORIENTED_EDGE('',*,*,#647,.T.);
#881=ORIENTED_EDGE('',*,*,#632,.T.);
#882=ORIENTED_EDGE('',*,*,#618,.T.);
#883=ORIENTED_EDGE('',*,*,#644,.T.);
#884=ORIENTED_EDGE('',*,*,#648,.T.);
#885=ORIENTED_EDGE('',*,*,#649,.F.);
#886=ORIENTED_EDGE('',*,*,#650,.F.);
#887=ORIENTED_EDGE('',*,*,#651,.F.);
#888=ORIENTED_EDGE('',*,*,#652,.T.);
#889=ORIENTED_EDGE('',*,*,#653,.T.);
#890=ORIENTED_EDGE('',*,*,#650,.T.);
#891=ORIENTED_EDGE('',*,*,#654,.T.);
#892=ORIENTED_EDGE('',*,*,#642,.T.);
#893=ORIENTED_EDGE('',*,*,#621,.T.);
#894=ORIENTED_EDGE('',*,*,#651,.T.);
#895=ORIENTED_EDGE('',*,*,#655,.T.);
#896=ORIENTED_EDGE('',*,*,#649,.T.);
#897=ORIENTED_EDGE('',*,*,#620,.T.);
#898=ORIENTED_EDGE('',*,*,#639,.T.);
#899=ORIENTED_EDGE('',*,*,#656,.T.);
#900=ORIENTED_EDGE('',*,*,#637,.T.);
#901=ORIENTED_EDGE('',*,*,#619,.T.);
#902=ORIENTED_EDGE('',*,*,#634,.T.);
#903=ORIENTED_EDGE('',*,*,#524,.T.);
#904=ORIENTED_EDGE('',*,*,#636,.F.);
#905=ORIENTED_EDGE('',*,*,#648,.F.);
#906=ORIENTED_EDGE('',*,*,#646,.F.);
#907=ORIENTED_EDGE('',*,*,#657,.F.);
#908=ORIENTED_EDGE('',*,*,#647,.F.);
#909=ORIENTED_EDGE('',*,*,#655,.F.);
#910=ORIENTED_EDGE('',*,*,#653,.F.);
#911=ORIENTED_EDGE('',*,*,#658,.F.);
#912=ORIENTED_EDGE('',*,*,#615,.F.);
#913=ORIENTED_EDGE('',*,*,#659,.T.);
#914=ORIENTED_EDGE('',*,*,#567,.F.);
#915=ORIENTED_EDGE('',*,*,#659,.F.);
#916=ORIENTED_EDGE('',*,*,#583,.F.);
#917=ORIENTED_EDGE('',*,*,#660,.T.);
#918=ORIENTED_EDGE('',*,*,#566,.F.);
#919=ORIENTED_EDGE('',*,*,#660,.F.);
#920=ORIENTED_EDGE('',*,*,#591,.F.);
#921=ORIENTED_EDGE('',*,*,#661,.T.);
#922=ORIENTED_EDGE('',*,*,#565,.F.);
#923=ORIENTED_EDGE('',*,*,#661,.F.);
#924=ORIENTED_EDGE('',*,*,#607,.F.);
#925=ORIENTED_EDGE('',*,*,#662,.T.);
#926=ORIENTED_EDGE('',*,*,#564,.F.);
#927=ORIENTED_EDGE('',*,*,#662,.F.);
#928=ORIENTED_EDGE('',*,*,#575,.F.);
#929=ORIENTED_EDGE('',*,*,#663,.T.);
#930=ORIENTED_EDGE('',*,*,#563,.F.);
#931=ORIENTED_EDGE('',*,*,#663,.F.);
#932=ORIENTED_EDGE('',*,*,#599,.F.);
#933=ORIENTED_EDGE('',*,*,#664,.T.);
#934=ORIENTED_EDGE('',*,*,#562,.F.);
#935=ORIENTED_EDGE('',*,*,#664,.F.);
#936=ORIENTED_EDGE('',*,*,#547,.F.);
#937=ORIENTED_EDGE('',*,*,#665,.F.);
#938=ORIENTED_EDGE('',*,*,#553,.F.);
#939=ORIENTED_EDGE('',*,*,#550,.F.);
#940=ORIENTED_EDGE('',*,*,#552,.F.);
#941=ORIENTED_EDGE('',*,*,#666,.F.);
#942=ORIENTED_EDGE('',*,*,#558,.F.);
#943=ORIENTED_EDGE('',*,*,#555,.F.);
#944=ORIENTED_EDGE('',*,*,#519,.T.);
#945=ORIENTED_EDGE('',*,*,#526,.T.);
#946=ORIENTED_EDGE('',*,*,#635,.F.);
#947=ORIENTED_EDGE('',*,*,#657,.T.);
#948=ORIENTED_EDGE('',*,*,#645,.F.);
#949=ORIENTED_EDGE('',*,*,#658,.T.);
#950=ORIENTED_EDGE('',*,*,#652,.F.);
#951=ORIENTED_EDGE('',*,*,#667,.T.);
#952=ORIENTED_EDGE('',*,*,#640,.F.);
#953=ORIENTED_EDGE('',*,*,#522,.T.);
#954=ORIENTED_EDGE('',*,*,#521,.T.);
#955=ORIENTED_EDGE('',*,*,#561,.T.);
#956=ORIENTED_EDGE('',*,*,#556,.F.);
#957=ORIENTED_EDGE('',*,*,#666,.T.);
#958=ORIENTED_EDGE('',*,*,#551,.F.);
#959=ORIENTED_EDGE('',*,*,#665,.T.);
#960=ORIENTED_EDGE('',*,*,#546,.F.);
#961=ORIENTED_EDGE('',*,*,#559,.T.);
#962=ORIENTED_EDGE('',*,*,#535,.F.);
#963=ORIENTED_EDGE('',*,*,#560,.T.);
#964=ORIENTED_EDGE('',*,*,#641,.F.);
#965=ORIENTED_EDGE('',*,*,#667,.F.);
#966=ORIENTED_EDGE('',*,*,#654,.F.);
#967=ORIENTED_EDGE('',*,*,#656,.F.);
#968=CYLINDRICAL_SURFACE('',#1077,6.);
#969=CYLINDRICAL_SURFACE('',#1089,1.);
#970=CYLINDRICAL_SURFACE('',#1090,1.);
#971=CYLINDRICAL_SURFACE('',#1100,1.);
#972=CYLINDRICAL_SURFACE('',#1101,1.);
#973=CYLINDRICAL_SURFACE('',#1103,1.);
#974=CYLINDRICAL_SURFACE('',#1104,1.);
#975=CYLINDRICAL_SURFACE('',#1106,1.);
#976=CYLINDRICAL_SURFACE('',#1107,1.);
#977=CYLINDRICAL_SURFACE('',#1123,3.5);
#978=CYLINDRICAL_SURFACE('',#1133,3.5);
#979=CYLINDRICAL_SURFACE('',#1143,3.5);
#980=CYLINDRICAL_SURFACE('',#1153,3.5);
#981=CYLINDRICAL_SURFACE('',#1163,3.5);
#982=CYLINDRICAL_SURFACE('',#1173,3.5);
#983=CYLINDRICAL_SURFACE('',#1201,1.);
#984=CYLINDRICAL_SURFACE('',#1207,1.);
#985=CYLINDRICAL_SURFACE('',#1213,1.);
#986=CYLINDRICAL_SURFACE('',#1215,1.);
#987=CYLINDRICAL_SURFACE('',#1220,1.);
#988=CYLINDRICAL_SURFACE('',#1222,1.);
#989=CYLINDRICAL_SURFACE('',#1223,1.);
#990=CYLINDRICAL_SURFACE('',#1224,1.);
#991=CYLINDRICAL_SURFACE('',#1227,5.50000000000001);
#992=CYLINDRICAL_SURFACE('',#1228,5.5);
#993=CYLINDRICAL_SURFACE('',#1229,5.5);
#994=CYLINDRICAL_SURFACE('',#1230,5.50000000000001);
#995=CYLINDRICAL_SURFACE('',#1231,5.5);
#996=CYLINDRICAL_SURFACE('',#1232,5.5);
#997=ADVANCED_FACE('',(#70),#968,.F.);
#998=ADVANCED_FACE('',(#71),#53,.T.);
#999=ADVANCED_FACE('',(#72),#45,.F.);
#1000=ADVANCED_FACE('',(#73),#46,.F.);
#1001=ADVANCED_FACE('',(#74),#969,.F.);
#1002=ADVANCED_FACE('',(#75),#970,.F.);
#1003=ADVANCED_FACE('',(#76),#47,.F.);
#1004=ADVANCED_FACE('',(#77),#48,.F.);
#1005=ADVANCED_FACE('',(#78),#971,.F.);
#1006=ADVANCED_FACE('',(#79),#972,.F.);
#1007=ADVANCED_FACE('',(#80),#973,.F.);
#1008=ADVANCED_FACE('',(#81),#974,.F.);
#1009=ADVANCED_FACE('',(#82),#975,.F.);
#1010=ADVANCED_FACE('',(#83),#976,.F.);
#1011=ADVANCED_FACE('',(#84),#54,.T.);
#1012=ADVANCED_FACE('',(#85),#55,.T.);
#1013=ADVANCED_FACE('',(#86,#27,#28,#29,#30,#31,#32),#56,.T.);
#1014=ADVANCED_FACE('',(#87),#15,.T.);
#1015=ADVANCED_FACE('',(#88),#977,.F.);
#1016=ADVANCED_FACE('',(#89,#33),#57,.T.);
#1017=ADVANCED_FACE('',(#90),#16,.T.);
#1018=ADVANCED_FACE('',(#91),#978,.F.);
#1019=ADVANCED_FACE('',(#92,#34),#58,.T.);
#1020=ADVANCED_FACE('',(#93),#17,.T.);
#1021=ADVANCED_FACE('',(#94),#979,.F.);
#1022=ADVANCED_FACE('',(#95,#35),#59,.T.);
#1023=ADVANCED_FACE('',(#96),#18,.T.);
#1024=ADVANCED_FACE('',(#97),#980,.F.);
#1025=ADVANCED_FACE('',(#98,#36),#60,.T.);
#1026=ADVANCED_FACE('',(#99),#19,.T.);
#1027=ADVANCED_FACE('',(#100),#981,.F.);
#1028=ADVANCED_FACE('',(#101,#37),#61,.T.);
#1029=ADVANCED_FACE('',(#102),#20,.T.);
#1030=ADVANCED_FACE('',(#103),#982,.F.);
#1031=ADVANCED_FACE('',(#104,#38),#62,.T.);
#1032=ADVANCED_FACE('',(#105),#21,.T.);
#1033=ADVANCED_FACE('',(#106,#39,#40,#41,#42,#43,#44),#63,.F.);
#1034=ADVANCED_FACE('',(#107),#22,.T.);
#1035=ADVANCED_FACE('',(#108),#23,.T.);
#1036=ADVANCED_FACE('',(#109),#24,.T.);
#1037=ADVANCED_FACE('',(#110),#25,.T.);
#1038=ADVANCED_FACE('',(#111),#26,.T.);
#1039=ADVANCED_FACE('',(#112),#49,.T.);
#1040=ADVANCED_FACE('',(#113),#983,.T.);
#1041=ADVANCED_FACE('',(#114),#50,.T.);
#1042=ADVANCED_FACE('',(#115),#984,.T.);
#1043=ADVANCED_FACE('',(#116),#51,.T.);
#1044=ADVANCED_FACE('',(#117),#985,.T.);
#1045=ADVANCED_FACE('',(#118),#986,.T.);
#1046=ADVANCED_FACE('',(#119),#52,.T.);
#1047=ADVANCED_FACE('',(#120),#987,.T.);
#1048=ADVANCED_FACE('',(#121),#988,.T.);
#1049=ADVANCED_FACE('',(#122),#989,.T.);
#1050=ADVANCED_FACE('',(#123),#990,.T.);
#1051=ADVANCED_FACE('',(#124),#64,.T.);
#1052=ADVANCED_FACE('',(#125),#65,.T.);
#1053=ADVANCED_FACE('',(#126),#991,.T.);
#1054=ADVANCED_FACE('',(#127),#992,.T.);
#1055=ADVANCED_FACE('',(#128),#993,.T.);
#1056=ADVANCED_FACE('',(#129),#994,.T.);
#1057=ADVANCED_FACE('',(#130),#995,.T.);
#1058=ADVANCED_FACE('',(#131),#996,.T.);
#1059=ADVANCED_FACE('',(#132),#66,.T.);
#1060=ADVANCED_FACE('',(#133),#67,.T.);
#1061=ADVANCED_FACE('',(#134),#68,.T.);
#1062=ADVANCED_FACE('',(#135),#69,.T.);
#1063=CLOSED_SHELL('',(#997,#998,#999,#1000,#1001,#1002,#1003,#1004,#1005,
#1006,#1007,#1008,#1009,#1010,#1011,#1012,#1013,#1014,#1015,#1016,#1017,
#1018,#1019,#1020,#1021,#1022,#1023,#1024,#1025,#1026,#1027,#1028,#1029,
#1030,#1031,#1032,#1033,#1034,#1035,#1036,#1037,#1038,#1039,#1040,#1041,
#1042,#1043,#1044,#1045,#1046,#1047,#1048,#1049,#1050,#1051,#1052,#1053,
#1054,#1055,#1056,#1057,#1058,#1059,#1060,#1061,#1062));
#1064=DERIVED_UNIT_ELEMENT(#1066,1.);
#1065=DERIVED_UNIT_ELEMENT(#1929,-3.);
#1066=(
MASS_UNIT()
NAMED_UNIT(*)
SI_UNIT(.KILO.,.GRAM.)
);
#1067=DERIVED_UNIT((#1064,#1065));
#1068=MEASURE_REPRESENTATION_ITEM('density measure',
POSITIVE_RATIO_MEASURE(7850.),#1067);
#1069=PROPERTY_DEFINITION_REPRESENTATION(#1074,#1071);
#1070=PROPERTY_DEFINITION_REPRESENTATION(#1075,#1072);
#1071=REPRESENTATION('material name',(#1073),#1926);
#1072=REPRESENTATION('density',(#1068),#1926);
#1073=DESCRIPTIVE_REPRESENTATION_ITEM('Acier','Acier');
#1074=PROPERTY_DEFINITION('material property','material name',#1936);
#1075=PROPERTY_DEFINITION('material property','density of part',#1936);
#1076=AXIS2_PLACEMENT_3D('',#1615,#1237,#1238);
#1077=AXIS2_PLACEMENT_3D('',#1616,#1239,#1240);
#1078=AXIS2_PLACEMENT_3D('',#1619,#1241,#1242);
#1079=AXIS2_PLACEMENT_3D('',#1623,#1244,#1245);
#1080=AXIS2_PLACEMENT_3D('',#1625,#1247,#1248);
#1081=AXIS2_PLACEMENT_3D('',#1635,#1254,#1255);
#1082=AXIS2_PLACEMENT_3D('',#1638,#1256,#1257);
#1083=AXIS2_PLACEMENT_3D('',#1640,#1258,#1259);
#1084=AXIS2_PLACEMENT_3D('',#1641,#1260,#1261);
#1085=AXIS2_PLACEMENT_3D('',#1642,#1262,#1263);
#1086=AXIS2_PLACEMENT_3D('',#1645,#1264,#1265);
#1087=AXIS2_PLACEMENT_3D('',#1647,#1266,#1267);
#1088=AXIS2_PLACEMENT_3D('',#1648,#1268,#1269);
#1089=AXIS2_PLACEMENT_3D('',#1649,#1270,#1271);
#1090=AXIS2_PLACEMENT_3D('',#1652,#1274,#1275);
#1091=AXIS2_PLACEMENT_3D('',#1655,#1276,#1277);
#1092=AXIS2_PLACEMENT_3D('',#1658,#1280,#1281);
#1093=AXIS2_PLACEMENT_3D('',#1661,#1282,#1283);
#1094=AXIS2_PLACEMENT_3D('',#1663,#1284,#1285);
#1095=AXIS2_PLACEMENT_3D('',#1664,#1286,#1287);
#1096=AXIS2_PLACEMENT_3D('',#1665,#1288,#1289);
#1097=AXIS2_PLACEMENT_3D('',#1668,#1290,#1291);
#1098=AXIS2_PLACEMENT_3D('',#1670,#1292,#1293);
#1099=AXIS2_PLACEMENT_3D('',#1671,#1294,#1295);
#1100=AXIS2_PLACEMENT_3D('',#1672,#1296,#1297);
#1101=AXIS2_PLACEMENT_3D('',#1675,#1300,#1301);
#1102=AXIS2_PLACEMENT_3D('',#1678,#1302,#1303);
#1103=AXIS2_PLACEMENT_3D('',#1681,#1306,#1307);
#1104=AXIS2_PLACEMENT_3D('',#1684,#1310,#1311);
#1105=AXIS2_PLACEMENT_3D('',#1687,#1312,#1313);
#1106=AXIS2_PLACEMENT_3D('',#1690,#1316,#1317);
#1107=AXIS2_PLACEMENT_3D('',#1693,#1320,#1321);
#1108=AXIS2_PLACEMENT_3D('',#1696,#1322,#1323);
#1109=AXIS2_PLACEMENT_3D('',#1699,#1326,#1327);
#1110=AXIS2_PLACEMENT_3D('',#1701,#1329,#1330);
#1111=AXIS2_PLACEMENT_3D('',#1704,#1333,#1334);
#1112=AXIS2_PLACEMENT_3D('',#1706,#1335,#1336);
#1113=AXIS2_PLACEMENT_3D('',#1708,#1337,#1338);
#1114=AXIS2_PLACEMENT_3D('',#1710,#1339,#1340);
#1115=AXIS2_PLACEMENT_3D('',#1712,#1341,#1342);
#1116=AXIS2_PLACEMENT_3D('',#1714,#1343,#1344);
#1117=AXIS2_PLACEMENT_3D('',#1716,#1345,#1346);
#1118=AXIS2_PLACEMENT_3D('',#1717,#1347,#1348);
#1119=AXIS2_PLACEMENT_3D('',#1719,#1349,#1350);
#1120=AXIS2_PLACEMENT_3D('',#1721,#1351,#1352);
#1121=AXIS2_PLACEMENT_3D('',#1723,#1353,#1354);
#1122=AXIS2_PLACEMENT_3D('',#1724,#1355,#1356);
#1123=AXIS2_PLACEMENT_3D('',#1725,#1357,#1358);
#1124=AXIS2_PLACEMENT_3D('',#1728,#1359,#1360);
#1125=AXIS2_PLACEMENT_3D('',#1730,#1362,#1363);
#1126=AXIS2_PLACEMENT_3D('',#1731,#1364,#1365);
#1127=AXIS2_PLACEMENT_3D('',#1733,#1366,#1367);
#1128=AXIS2_PLACEMENT_3D('',#1734,#1368,#1369);
#1129=AXIS2_PLACEMENT_3D('',#1736,#1370,#1371);
#1130=AXIS2_PLACEMENT_3D('',#1738,#1372,#1373);
#1131=AXIS2_PLACEMENT_3D('',#1740,#1374,#1375);
#1132=AXIS2_PLACEMENT_3D('',#1741,#1376,#1377);
#1133=AXIS2_PLACEMENT_3D('',#1742,#1378,#1379);
#1134=AXIS2_PLACEMENT_3D('',#1745,#1380,#1381);
#1135=AXIS2_PLACEMENT_3D('',#1747,#1383,#1384);
#1136=AXIS2_PLACEMENT_3D('',#1748,#1385,#1386);
#1137=AXIS2_PLACEMENT_3D('',#1750,#1387,#1388);
#1138=AXIS2_PLACEMENT_3D('',#1751,#1389,#1390);
#1139=AXIS2_PLACEMENT_3D('',#1753,#1391,#1392);
#1140=AXIS2_PLACEMENT_3D('',#1755,#1393,#1394);
#1141=AXIS2_PLACEMENT_3D('',#1757,#1395,#1396);
#1142=AXIS2_PLACEMENT_3D('',#1758,#1397,#1398);
#1143=AXIS2_PLACEMENT_3D('',#1759,#1399,#1400);
#1144=AXIS2_PLACEMENT_3D('',#1762,#1401,#1402);
#1145=AXIS2_PLACEMENT_3D('',#1764,#1404,#1405);
#1146=AXIS2_PLACEMENT_3D('',#1765,#1406,#1407);
#1147=AXIS2_PLACEMENT_3D('',#1767,#1408,#1409);
#1148=AXIS2_PLACEMENT_3D('',#1768,#1410,#1411);
#1149=AXIS2_PLACEMENT_3D('',#1770,#1412,#1413);
#1150=AXIS2_PLACEMENT_3D('',#1772,#1414,#1415);
#1151=AXIS2_PLACEMENT_3D('',#1774,#1416,#1417);
#1152=AXIS2_PLACEMENT_3D('',#1775,#1418,#1419);
#1153=AXIS2_PLACEMENT_3D('',#1776,#1420,#1421);
#1154=AXIS2_PLACEMENT_3D('',#1779,#1422,#1423);
#1155=AXIS2_PLACEMENT_3D('',#1781,#1425,#1426);
#1156=AXIS2_PLACEMENT_3D('',#1782,#1427,#1428);
#1157=AXIS2_PLACEMENT_3D('',#1784,#1429,#1430);
#1158=AXIS2_PLACEMENT_3D('',#1785,#1431,#1432);
#1159=AXIS2_PLACEMENT_3D('',#1787,#1433,#1434);
#1160=AXIS2_PLACEMENT_3D('',#1789,#1435,#1436);
#1161=AXIS2_PLACEMENT_3D('',#1791,#1437,#1438);
#1162=AXIS2_PLACEMENT_3D('',#1792,#1439,#1440);
#1163=AXIS2_PLACEMENT_3D('',#1793,#1441,#1442);
#1164=AXIS2_PLACEMENT_3D('',#1796,#1443,#1444);
#1165=AXIS2_PLACEMENT_3D('',#1798,#1446,#1447);
#1166=AXIS2_PLACEMENT_3D('',#1799,#1448,#1449);
#1167=AXIS2_PLACEMENT_3D('',#1801,#1450,#1451);
#1168=AXIS2_PLACEMENT_3D('',#1802,#1452,#1453);
#1169=AXIS2_PLACEMENT_3D('',#1804,#1454,#1455);
#1170=AXIS2_PLACEMENT_3D('',#1806,#1456,#1457);
#1171=AXIS2_PLACEMENT_3D('',#1808,#1458,#1459);
#1172=AXIS2_PLACEMENT_3D('',#1809,#1460,#1461);
#1173=AXIS2_PLACEMENT_3D('',#1810,#1462,#1463);
#1174=AXIS2_PLACEMENT_3D('',#1813,#1464,#1465);
#1175=AXIS2_PLACEMENT_3D('',#1815,#1467,#1468);
#1176=AXIS2_PLACEMENT_3D('',#1816,#1469,#1470);
#1177=AXIS2_PLACEMENT_3D('',#1818,#1471,#1472);
#1178=AXIS2_PLACEMENT_3D('',#1819,#1473,#1474);
#1179=AXIS2_PLACEMENT_3D('',#1821,#1475,#1476);
#1180=AXIS2_PLACEMENT_3D('',#1822,#1477,#1478);
#1181=AXIS2_PLACEMENT_3D('',#1823,#1479,#1480);
#1182=AXIS2_PLACEMENT_3D('',#1833,#1485,#1486);
#1183=AXIS2_PLACEMENT_3D('',#1835,#1487,#1488);
#1184=AXIS2_PLACEMENT_3D('',#1837,#1489,#1490);
#1185=AXIS2_PLACEMENT_3D('',#1839,#1491,#1492);
#1186=AXIS2_PLACEMENT_3D('',#1841,#1493,#1494);
#1187=AXIS2_PLACEMENT_3D('',#1842,#1495,#1496);
#1188=AXIS2_PLACEMENT_3D('',#1843,#1497,#1498);
#1189=AXIS2_PLACEMENT_3D('',#1844,#1499,#1500);
#1190=AXIS2_PLACEMENT_3D('',#1845,#1501,#1502);
#1191=AXIS2_PLACEMENT_3D('',#1846,#1503,#1504);
#1192=AXIS2_PLACEMENT_3D('',#1847,#1505,#1506);
#1193=AXIS2_PLACEMENT_3D('',#1848,#1507,#1508);
#1194=AXIS2_PLACEMENT_3D('',#1849,#1509,#1510);
#1195=AXIS2_PLACEMENT_3D('',#1850,#1511,#1512);
#1196=AXIS2_PLACEMENT_3D('',#1851,#1513,#1514);
#1197=AXIS2_PLACEMENT_3D('',#1852,#1515,#1516);
#1198=AXIS2_PLACEMENT_3D('',#1854,#1517,#1518);
#1199=AXIS2_PLACEMENT_3D('',#1855,#1519,#1520);
#1200=AXIS2_PLACEMENT_3D('',#1856,#1521,#1522);
#1201=AXIS2_PLACEMENT_3D('',#1857,#1523,#1524);
#1202=AXIS2_PLACEMENT_3D('',#1859,#1525,#1526);
#1203=AXIS2_PLACEMENT_3D('',#1861,#1528,#1529);
#1204=AXIS2_PLACEMENT_3D('',#1862,#1530,#1531);
#1205=AXIS2_PLACEMENT_3D('',#1864,#1532,#1533);
#1206=AXIS2_PLACEMENT_3D('',#1865,#1534,#1535);
#1207=AXIS2_PLACEMENT_3D('',#1866,#1536,#1537);
#1208=AXIS2_PLACEMENT_3D('',#1868,#1538,#1539);
#1209=AXIS2_PLACEMENT_3D('',#1870,#1541,#1542);
#1210=AXIS2_PLACEMENT_3D('',#1872,#1543,#1544);
#1211=AXIS2_PLACEMENT_3D('',#1874,#1545,#1546);
#1212=AXIS2_PLACEMENT_3D('',#1875,#1547,#1548);
#1213=AXIS2_PLACEMENT_3D('',#1876,#1549,#1550);
#1214=AXIS2_PLACEMENT_3D('',#1879,#1551,#1552);
#1215=AXIS2_PLACEMENT_3D('',#1882,#1555,#1556);
#1216=AXIS2_PLACEMENT_3D('',#1884,#1558,#1559);
#1217=AXIS2_PLACEMENT_3D('',#1886,#1560,#1561);
#1218=AXIS2_PLACEMENT_3D('',#1888,#1562,#1563);
#1219=AXIS2_PLACEMENT_3D('',#1889,#1564,#1565);
#1220=AXIS2_PLACEMENT_3D('',#1890,#1566,#1567);
#1221=AXIS2_PLACEMENT_3D('',#1893,#1568,#1569);
#1222=AXIS2_PLACEMENT_3D('',#1896,#1572,#1573);
#1223=AXIS2_PLACEMENT_3D('',#1898,#1575,#1576);
#1224=AXIS2_PLACEMENT_3D('',#1900,#1578,#1579);
#1225=AXIS2_PLACEMENT_3D('',#1901,#1580,#1581);
#1226=AXIS2_PLACEMENT_3D('',#1903,#1583,#1584);
#1227=AXIS2_PLACEMENT_3D('',#1905,#1586,#1587);
#1228=AXIS2_PLACEMENT_3D('',#1907,#1589,#1590);
#1229=AXIS2_PLACEMENT_3D('',#1909,#1592,#1593);
#1230=AXIS2_PLACEMENT_3D('',#1911,#1595,#1596);
#1231=AXIS2_PLACEMENT_3D('',#1913,#1598,#1599);
#1232=AXIS2_PLACEMENT_3D('',#1915,#1601,#1602);
#1233=AXIS2_PLACEMENT_3D('',#1917,#1604,#1605);
#1234=AXIS2_PLACEMENT_3D('',#1919,#1607,#1608);
#1235=AXIS2_PLACEMENT_3D('',#1921,#1610,#1611);
#1236=AXIS2_PLACEMENT_3D('',#1923,#1613,#1614);
#1237=DIRECTION('axis',(0.,0.,1.));
#1238=DIRECTION('refdir',(1.,0.,0.));
#1239=DIRECTION('center_axis',(0.,0.,-1.));
#1240=DIRECTION('ref_axis',(1.,0.,0.));
#1241=DIRECTION('center_axis',(0.,0.,-1.));
#1242=DIRECTION('ref_axis',(1.,0.,0.));
#1243=DIRECTION('',(0.,0.,1.));
#1244=DIRECTION('center_axis',(0.,0.,1.));
#1245=DIRECTION('ref_axis',(1.,0.,0.));
#1246=DIRECTION('',(0.,0.,-1.));
#1247=DIRECTION('center_axis',(0.,0.,1.));
#1248=DIRECTION('ref_axis',(-1.,0.,0.));
#1249=DIRECTION('',(1.,0.,0.));
#1250=DIRECTION('',(0.,1.,0.));
#1251=DIRECTION('',(-1.,0.,0.));
#1252=DIRECTION('',(0.,-1.,0.));
#1253=DIRECTION('',(1.,0.,0.));
#1254=DIRECTION('center_axis',(0.40824829046386,-0.816496580927726,-0.408248290463865));
#1255=DIRECTION('ref_axis',(-0.577350269189623,-0.577350269189627,0.577350269189627));
#1256=DIRECTION('center_axis',(0.,1.,0.));
#1257=DIRECTION('ref_axis',(0.,0.,1.));
#1258=DIRECTION('center_axis',(1.,0.,0.));
#1259=DIRECTION('ref_axis',(0.,-1.,0.));
#1260=DIRECTION('center_axis',(0.,0.,-1.));
#1261=DIRECTION('ref_axis',(-1.,0.,0.));
#1262=DIRECTION('center_axis',(-0.816496580927735,-0.408248290463854,0.408248290463853));
#1263=DIRECTION('ref_axis',(0.577350269189609,-0.577350269189635,0.577350269189634));
#1264=DIRECTION('center_axis',(-4.4408920985006E-15,0.,-1.));
#1265=DIRECTION('ref_axis',(0.,-1.,0.));
#1266=DIRECTION('center_axis',(-1.,1.77635683940025E-14,0.));
#1267=DIRECTION('ref_axis',(0.,0.,1.));
#1268=DIRECTION('center_axis',(0.,1.,0.));
#1269=DIRECTION('ref_axis',(1.,0.,0.));
#1270=DIRECTION('center_axis',(1.,0.,0.));
#1271=DIRECTION('ref_axis',(0.,-0.707106781186547,0.707106781186548));
#1272=DIRECTION('',(-1.,0.,0.));
#1273=DIRECTION('',(1.,0.,0.));
#1274=DIRECTION('center_axis',(0.,1.,0.));
#1275=DIRECTION('ref_axis',(0.707106781186546,0.,0.707106781186549));
#1276=DIRECTION('center_axis',(0.,1.,0.));
#1277=DIRECTION('ref_axis',(0.707106781186546,0.,0.707106781186549));
#1278=DIRECTION('',(0.,-1.,0.));
#1279=DIRECTION('',(0.,1.,0.));
#1280=DIRECTION('center_axis',(0.40824829046386,0.408248290463852,-0.816496580927733));
#1281=DIRECTION('ref_axis',(-0.577350269189646,-0.577350269189616,-0.577350269189615));
#1282=DIRECTION('center_axis',(8.88178419700128E-15,0.,1.));
#1283=DIRECTION('ref_axis',(0.,-1.,0.));
#1284=DIRECTION('center_axis',(1.,-1.77635683940025E-14,0.));
#1285=DIRECTION('ref_axis',(0.,0.,-1.));
#1286=DIRECTION('center_axis',(0.,1.,0.));
#1287=DIRECTION('ref_axis',(-1.,0.,0.));
#1288=DIRECTION('center_axis',(-0.408248290463858,0.408248290463853,-0.816496580927733));
#1289=DIRECTION('ref_axis',(0.577350269189634,-0.577350269189623,-0.57735026918962));
#1290=DIRECTION('center_axis',(-1.,0.,-3.5527136788005E-14));
#1291=DIRECTION('ref_axis',(0.,-1.,0.));
#1292=DIRECTION('center_axis',(0.,4.44089209850063E-15,1.));
#1293=DIRECTION('ref_axis',(1.,0.,0.));
#1294=DIRECTION('center_axis',(0.,1.,0.));
#1295=DIRECTION('ref_axis',(0.,0.,-1.));
#1296=DIRECTION('center_axis',(0.,0.,-1.));
#1297=DIRECTION('ref_axis',(0.707106781186553,-0.707106781186543,0.));
#1298=DIRECTION('',(0.,0.,1.));
#1299=DIRECTION('',(0.,0.,-1.));
#1300=DIRECTION('center_axis',(0.,1.,0.));
#1301=DIRECTION('ref_axis',(0.707106781186541,0.,-0.707106781186554));
#1302=DIRECTION('center_axis',(0.,1.,0.));
#1303=DIRECTION('ref_axis',(0.707106781186541,0.,-0.707106781186554));
#1304=DIRECTION('',(0.,-1.,0.));
#1305=DIRECTION('',(0.,1.,0.));
#1306=DIRECTION('center_axis',(-1.,0.,0.));
#1307=DIRECTION('ref_axis',(0.,-0.707106781186546,-0.707106781186549));
#1308=DIRECTION('',(1.,0.,0.));
#1309=DIRECTION('',(-1.,0.,0.));
#1310=DIRECTION('center_axis',(0.,1.,0.));
#1311=DIRECTION('ref_axis',(-0.707106781186551,0.,-0.707106781186544));
#1312=DIRECTION('center_axis',(0.,1.,0.));
#1313=DIRECTION('ref_axis',(-0.707106781186551,0.,-0.707106781186544));
#1314=DIRECTION('',(0.,-1.,0.));
#1315=DIRECTION('',(0.,1.,0.));
#1316=DIRECTION('center_axis',(0.,0.,1.));
#1317=DIRECTION('ref_axis',(-0.70710678118654,-0.707106781186555,0.));
#1318=DIRECTION('',(0.,0.,-1.));
#1319=DIRECTION('',(0.,0.,1.));
#1320=DIRECTION('center_axis',(0.,1.,0.));
#1321=DIRECTION('ref_axis',(-0.70710678118654,0.,0.707106781186555));
#1322=DIRECTION('center_axis',(0.,1.,0.));
#1323=DIRECTION('ref_axis',(-0.70710678118654,0.,0.707106781186555));
#1324=DIRECTION('',(0.,-1.,0.));
#1325=DIRECTION('',(0.,1.,0.));
#1326=DIRECTION('center_axis',(-1.,0.,0.));
#1327=DIRECTION('ref_axis',(0.,0.,1.));
#1328=DIRECTION('',(0.,0.,1.));
#1329=DIRECTION('center_axis',(0.,0.,-1.));
#1330=DIRECTION('ref_axis',(-1.,0.,0.));
#1331=DIRECTION('',(-1.,0.,0.));
#1332=DIRECTION('',(-1.,0.,0.));
#1333=DIRECTION('center_axis',(0.,1.,0.));
#1334=DIRECTION('ref_axis',(1.,0.,0.));
#1335=DIRECTION('center_axis',(0.,-1.,0.));
#1336=DIRECTION('ref_axis',(1.,0.,0.));
#1337=DIRECTION('center_axis',(0.,-1.,0.));
#1338=DIRECTION('ref_axis',(1.,0.,0.));
#1339=DIRECTION('center_axis',(0.,-1.,0.));
#1340=DIRECTION('ref_axis',(1.,0.,0.));
#1341=DIRECTION('center_axis',(0.,-1.,0.));
#1342=DIRECTION('ref_axis',(1.,0.,0.));
#1343=DIRECTION('center_axis',(0.,-1.,0.));
#1344=DIRECTION('ref_axis',(1.,0.,0.));
#1345=DIRECTION('center_axis',(0.,-1.,0.));
#1346=DIRECTION('ref_axis',(1.,0.,0.));
#1347=DIRECTION('center_axis',(0.,-1.,0.));
#1348=DIRECTION('ref_axis',(0.,0.,-1.));
#1349=DIRECTION('center_axis',(0.,1.,0.));
#1350=DIRECTION('ref_axis',(1.,0.,0.));
#1351=DIRECTION('center_axis',(-1.,0.,0.));
#1352=DIRECTION('ref_axis',(0.,0.,1.));
#1353=DIRECTION('center_axis',(0.,-1.,0.));
#1354=DIRECTION('ref_axis',(1.,0.,0.));
#1355=DIRECTION('center_axis',(0.,-1.,0.));
#1356=DIRECTION('ref_axis',(1.,0.,0.));
#1357=DIRECTION('center_axis',(0.,-1.,0.));
#1358=DIRECTION('ref_axis',(1.,0.,0.));
#1359=DIRECTION('center_axis',(0.,1.,0.));
#1360=DIRECTION('ref_axis',(1.,0.,0.));
#1361=DIRECTION('',(0.,1.,0.));
#1362=DIRECTION('center_axis',(0.,1.,0.));
#1363=DIRECTION('ref_axis',(1.,0.,0.));
#1364=DIRECTION('center_axis',(0.,1.,0.));
#1365=DIRECTION('ref_axis',(1.,0.,0.));
#1366=DIRECTION('center_axis',(0.,1.,0.));
#1367=DIRECTION('ref_axis',(1.,0.,0.));
#1368=DIRECTION('center_axis',(0.,-1.,0.));
#1369=DIRECTION('ref_axis',(0.,0.,-1.));
#1370=DIRECTION('center_axis',(0.,1.,0.));
#1371=DIRECTION('ref_axis',(1.,0.,0.));
#1372=DIRECTION('center_axis',(-1.,0.,0.));
#1373=DIRECTION('ref_axis',(0.,0.,1.));
#1374=DIRECTION('center_axis',(0.,-1.,0.));
#1375=DIRECTION('ref_axis',(1.,0.,0.));
#1376=DIRECTION('center_axis',(0.,-1.,0.));
#1377=DIRECTION('ref_axis',(1.,0.,0.));
#1378=DIRECTION('center_axis',(0.,-1.,0.));
#1379=DIRECTION('ref_axis',(1.,0.,0.));
#1380=DIRECTION('center_axis',(0.,1.,0.));
#1381=DIRECTION('ref_axis',(1.,0.,0.));
#1382=DIRECTION('',(0.,1.,0.));
#1383=DIRECTION('center_axis',(0.,1.,0.));
#1384=DIRECTION('ref_axis',(1.,0.,0.));
#1385=DIRECTION('center_axis',(0.,1.,0.));
#1386=DIRECTION('ref_axis',(1.,0.,0.));
#1387=DIRECTION('center_axis',(0.,1.,0.));
#1388=DIRECTION('ref_axis',(1.,0.,0.));
#1389=DIRECTION('center_axis',(0.,-1.,0.));
#1390=DIRECTION('ref_axis',(0.,0.,-1.));
#1391=DIRECTION('center_axis',(0.,1.,0.));
#1392=DIRECTION('ref_axis',(1.,0.,0.));
#1393=DIRECTION('center_axis',(-1.,0.,0.));
#1394=DIRECTION('ref_axis',(0.,0.,1.));
#1395=DIRECTION('center_axis',(0.,-1.,0.));
#1396=DIRECTION('ref_axis',(1.,0.,0.));
#1397=DIRECTION('center_axis',(0.,-1.,0.));
#1398=DIRECTION('ref_axis',(1.,0.,0.));
#1399=DIRECTION('center_axis',(0.,-1.,0.));
#1400=DIRECTION('ref_axis',(1.,0.,0.));
#1401=DIRECTION('center_axis',(0.,1.,0.));
#1402=DIRECTION('ref_axis',(1.,0.,0.));
#1403=DIRECTION('',(0.,1.,0.));
#1404=DIRECTION('center_axis',(0.,1.,0.));
#1405=DIRECTION('ref_axis',(1.,0.,0.));
#1406=DIRECTION('center_axis',(0.,1.,0.));
#1407=DIRECTION('ref_axis',(1.,0.,0.));
#1408=DIRECTION('center_axis',(0.,1.,0.));
#1409=DIRECTION('ref_axis',(1.,0.,0.));
#1410=DIRECTION('center_axis',(0.,-1.,0.));
#1411=DIRECTION('ref_axis',(0.,0.,-1.));
#1412=DIRECTION('center_axis',(0.,1.,0.));
#1413=DIRECTION('ref_axis',(1.,0.,0.));
#1414=DIRECTION('center_axis',(-1.,0.,0.));
#1415=DIRECTION('ref_axis',(0.,0.,1.));
#1416=DIRECTION('center_axis',(0.,-1.,0.));
#1417=DIRECTION('ref_axis',(1.,0.,0.));
#1418=DIRECTION('center_axis',(0.,-1.,0.));
#1419=DIRECTION('ref_axis',(1.,0.,0.));
#1420=DIRECTION('center_axis',(0.,-1.,0.));
#1421=DIRECTION('ref_axis',(1.,0.,0.));
#1422=DIRECTION('center_axis',(0.,1.,0.));
#1423=DIRECTION('ref_axis',(1.,0.,0.));
#1424=DIRECTION('',(0.,1.,0.));
#1425=DIRECTION('center_axis',(0.,1.,0.));
#1426=DIRECTION('ref_axis',(1.,0.,0.));
#1427=DIRECTION('center_axis',(0.,1.,0.));
#1428=DIRECTION('ref_axis',(1.,0.,0.));
#1429=DIRECTION('center_axis',(0.,1.,0.));
#1430=DIRECTION('ref_axis',(1.,0.,0.));
#1431=DIRECTION('center_axis',(0.,-1.,0.));
#1432=DIRECTION('ref_axis',(0.,0.,-1.));
#1433=DIRECTION('center_axis',(0.,1.,0.));
#1434=DIRECTION('ref_axis',(1.,0.,0.));
#1435=DIRECTION('center_axis',(-1.,0.,0.));
#1436=DIRECTION('ref_axis',(0.,0.,1.));
#1437=DIRECTION('center_axis',(0.,-1.,0.));
#1438=DIRECTION('ref_axis',(1.,0.,0.));
#1439=DIRECTION('center_axis',(0.,-1.,0.));
#1440=DIRECTION('ref_axis',(1.,0.,0.));
#1441=DIRECTION('center_axis',(0.,-1.,0.));
#1442=DIRECTION('ref_axis',(1.,0.,0.));
#1443=DIRECTION('center_axis',(0.,1.,0.));
#1444=DIRECTION('ref_axis',(1.,0.,0.));
#1445=DIRECTION('',(0.,1.,0.));
#1446=DIRECTION('center_axis',(0.,1.,0.));
#1447=DIRECTION('ref_axis',(1.,0.,0.));
#1448=DIRECTION('center_axis',(0.,1.,0.));
#1449=DIRECTION('ref_axis',(1.,0.,0.));
#1450=DIRECTION('center_axis',(0.,1.,0.));
#1451=DIRECTION('ref_axis',(1.,0.,0.));
#1452=DIRECTION('center_axis',(0.,-1.,0.));
#1453=DIRECTION('ref_axis',(0.,0.,-1.));
#1454=DIRECTION('center_axis',(0.,1.,0.));
#1455=DIRECTION('ref_axis',(1.,0.,0.));
#1456=DIRECTION('center_axis',(-1.,0.,0.));
#1457=DIRECTION('ref_axis',(0.,0.,1.));
#1458=DIRECTION('center_axis',(0.,-1.,0.));
#1459=DIRECTION('ref_axis',(1.,0.,0.));
#1460=DIRECTION('center_axis',(0.,-1.,0.));
#1461=DIRECTION('ref_axis',(1.,0.,0.));
#1462=DIRECTION('center_axis',(0.,-1.,0.));
#1463=DIRECTION('ref_axis',(1.,0.,0.));
#1464=DIRECTION('center_axis',(0.,1.,0.));
#1465=DIRECTION('ref_axis',(1.,0.,0.));
#1466=DIRECTION('',(0.,1.,0.));
#1467=DIRECTION('center_axis',(0.,1.,0.));
#1468=DIRECTION('ref_axis',(1.,0.,0.));
#1469=DIRECTION('center_axis',(0.,1.,0.));
#1470=DIRECTION('ref_axis',(1.,0.,0.));
#1471=DIRECTION('center_axis',(0.,1.,0.));
#1472=DIRECTION('ref_axis',(1.,0.,0.));
#1473=DIRECTION('center_axis',(0.,1.,0.));
#1474=DIRECTION('ref_axis',(0.,0.,1.));
#1475=DIRECTION('center_axis',(0.,-1.,0.));
#1476=DIRECTION('ref_axis',(1.,0.,0.));
#1477=DIRECTION('center_axis',(-1.,0.,0.));
#1478=DIRECTION('ref_axis',(0.,0.,-1.));
#1479=DIRECTION('center_axis',(0.,1.,0.));
#1480=DIRECTION('ref_axis',(1.,0.,0.));
#1481=DIRECTION('',(0.,0.,-1.));
#1482=DIRECTION('',(1.,0.,0.));
#1483=DIRECTION('',(0.,0.,1.));
#1484=DIRECTION('',(-1.,0.,0.));
#1485=DIRECTION('center_axis',(0.,-1.,0.));
#1486=DIRECTION('ref_axis',(1.,0.,0.));
#1487=DIRECTION('center_axis',(0.,-1.,0.));
#1488=DIRECTION('ref_axis',(1.,0.,0.));
#1489=DIRECTION('center_axis',(0.,-1.,0.));
#1490=DIRECTION('ref_axis',(1.,0.,0.));
#1491=DIRECTION('center_axis',(0.,-1.,0.));
#1492=DIRECTION('ref_axis',(1.,0.,0.));
#1493=DIRECTION('center_axis',(0.,-1.,0.));
#1494=DIRECTION('ref_axis',(1.,0.,0.));
#1495=DIRECTION('center_axis',(0.,1.,0.));
#1496=DIRECTION('ref_axis',(0.,0.,1.));
#1497=DIRECTION('center_axis',(-1.,0.,0.));
#1498=DIRECTION('ref_axis',(0.,0.,-1.));
#1499=DIRECTION('center_axis',(0.,1.,0.));
#1500=DIRECTION('ref_axis',(0.,0.,1.));
#1501=DIRECTION('center_axis',(-1.,0.,0.));
#1502=DIRECTION('ref_axis',(0.,0.,-1.));
#1503=DIRECTION('center_axis',(0.,1.,0.));
#1504=DIRECTION('ref_axis',(0.,0.,1.));
#1505=DIRECTION('center_axis',(-1.,0.,0.));
#1506=DIRECTION('ref_axis',(0.,0.,-1.));
#1507=DIRECTION('center_axis',(0.,1.,0.));
#1508=DIRECTION('ref_axis',(0.,0.,1.));
#1509=DIRECTION('center_axis',(-1.,0.,0.));
#1510=DIRECTION('ref_axis',(0.,0.,-1.));
#1511=DIRECTION('center_axis',(0.,1.,0.));
#1512=DIRECTION('ref_axis',(0.,0.,1.));
#1513=DIRECTION('center_axis',(-1.,0.,0.));
#1514=DIRECTION('ref_axis',(0.,0.,-1.));
#1515=DIRECTION('center_axis',(-0.408248290463859,-0.816496580927727,-0.408248290463866));
#1516=DIRECTION('ref_axis',(0.577350269189622,-0.577350269189627,0.577350269189629));
#1517=DIRECTION('center_axis',(0.,0.,1.));
#1518=DIRECTION('ref_axis',(1.,0.,0.));
#1519=DIRECTION('center_axis',(0.,-1.,0.));
#1520=DIRECTION('ref_axis',(0.,0.,1.));
#1521=DIRECTION('center_axis',(1.,0.,0.));
#1522=DIRECTION('ref_axis',(0.,-1.,0.));
#1523=DIRECTION('center_axis',(0.,1.,0.));
#1524=DIRECTION('ref_axis',(0.707106781186546,0.,0.707106781186549));
#1525=DIRECTION('center_axis',(0.,-1.,0.));
#1526=DIRECTION('ref_axis',(0.707106781186546,0.,0.707106781186549));
#1527=DIRECTION('',(0.,1.,0.));
#1528=DIRECTION('center_axis',(0.408248290463867,-0.816496580927715,-0.408248290463881));
#1529=DIRECTION('ref_axis',(-0.577350269189605,-0.577350269189635,0.577350269189637));
#1530=DIRECTION('center_axis',(-1.,-3.5527136788005E-14,0.));
#1531=DIRECTION('ref_axis',(0.,0.,1.));
#1532=DIRECTION('center_axis',(0.,-1.,0.));
#1533=DIRECTION('ref_axis',(-1.,0.,0.));
#1534=DIRECTION('center_axis',(0.,0.,1.));
#1535=DIRECTION('ref_axis',(0.,-1.,0.));
#1536=DIRECTION('center_axis',(0.,-1.,0.));
#1537=DIRECTION('ref_axis',(-0.70710678118654,0.,0.707106781186555));
#1538=DIRECTION('center_axis',(0.,-1.,0.));
#1539=DIRECTION('ref_axis',(-0.70710678118654,0.,0.707106781186555));
#1540=DIRECTION('',(0.,-1.,0.));
#1541=DIRECTION('center_axis',(-0.408248290463864,-0.81649658092772,0.408248290463875));
#1542=DIRECTION('ref_axis',(0.577350269189614,-0.577350269189631,-0.577350269189632));
#1543=DIRECTION('center_axis',(1.,-3.5527136788005E-14,0.));
#1544=DIRECTION('ref_axis',(0.,0.,-1.));
#1545=DIRECTION('center_axis',(0.,-1.,0.));
#1546=DIRECTION('ref_axis',(1.,0.,0.));
#1547=DIRECTION('center_axis',(0.,0.,-1.));
#1548=DIRECTION('ref_axis',(0.,-1.,0.));
#1549=DIRECTION('center_axis',(0.,1.,0.));
#1550=DIRECTION('ref_axis',(0.707106781186544,0.,-0.707106781186551));
#1551=DIRECTION('center_axis',(0.,-1.,0.));
#1552=DIRECTION('ref_axis',(0.707106781186544,0.,-0.707106781186551));
#1553=DIRECTION('',(0.,-1.,0.));
#1554=DIRECTION('',(0.,1.,0.));
#1555=DIRECTION('center_axis',(0.,0.,1.));
#1556=DIRECTION('ref_axis',(0.707106781186546,-0.707106781186549,0.));
#1557=DIRECTION('',(0.,0.,1.));
#1558=DIRECTION('center_axis',(0.408248290463858,-0.816496580927728,0.408248290463865));
#1559=DIRECTION('ref_axis',(-0.57735026918962,-0.577350269189626,-0.577350269189631));
#1560=DIRECTION('center_axis',(0.,0.,-1.));
#1561=DIRECTION('ref_axis',(-1.,0.,0.));
#1562=DIRECTION('center_axis',(0.,-1.,0.));
#1563=DIRECTION('ref_axis',(0.,0.,-1.));
#1564=DIRECTION('center_axis',(-1.,0.,0.));
#1565=DIRECTION('ref_axis',(0.,-1.,0.));
#1566=DIRECTION('center_axis',(0.,1.,0.));
#1567=DIRECTION('ref_axis',(-0.707106781186538,0.,-0.707106781186557));
#1568=DIRECTION('center_axis',(0.,-1.,0.));
#1569=DIRECTION('ref_axis',(-0.707106781186538,0.,-0.707106781186557));
#1570=DIRECTION('',(0.,-1.,0.));
#1571=DIRECTION('',(0.,1.,0.));
#1572=DIRECTION('center_axis',(1.,0.,0.));
#1573=DIRECTION('ref_axis',(0.,-0.707106781186546,-0.707106781186549));
#1574=DIRECTION('',(1.,0.,0.));
#1575=DIRECTION('center_axis',(0.,0.,-1.));
#1576=DIRECTION('ref_axis',(-0.70710678118654,-0.707106781186555,0.));
#1577=DIRECTION('',(0.,0.,-1.));
#1578=DIRECTION('center_axis',(-1.,0.,0.));
#1579=DIRECTION('ref_axis',(0.,-0.707106781186547,0.707106781186548));
#1580=DIRECTION('center_axis',(1.,0.,0.));
#1581=DIRECTION('ref_axis',(0.,0.,1.));
#1582=DIRECTION('',(0.,0.,-1.));
#1583=DIRECTION('center_axis',(0.,0.,-1.));
#1584=DIRECTION('ref_axis',(1.,0.,0.));
#1585=DIRECTION('',(-1.,0.,0.));
#1586=DIRECTION('center_axis',(0.,1.,0.));
#1587=DIRECTION('ref_axis',(1.,0.,0.));
#1588=DIRECTION('',(0.,-1.,0.));
#1589=DIRECTION('center_axis',(0.,1.,0.));
#1590=DIRECTION('ref_axis',(1.,0.,0.));
#1591=DIRECTION('',(0.,-1.,0.));
#1592=DIRECTION('center_axis',(0.,1.,0.));
#1593=DIRECTION('ref_axis',(1.,0.,0.));
#1594=DIRECTION('',(0.,-1.,0.));
#1595=DIRECTION('center_axis',(0.,1.,0.));
#1596=DIRECTION('ref_axis',(1.,0.,0.));
#1597=DIRECTION('',(0.,-1.,0.));
#1598=DIRECTION('center_axis',(0.,1.,0.));
#1599=DIRECTION('ref_axis',(1.,0.,0.));
#1600=DIRECTION('',(0.,-1.,0.));
#1601=DIRECTION('center_axis',(0.,1.,0.));
#1602=DIRECTION('ref_axis',(1.,0.,0.));
#1603=DIRECTION('',(0.,-1.,0.));
#1604=DIRECTION('center_axis',(0.,0.,1.));
#1605=DIRECTION('ref_axis',(1.,0.,0.));
#1606=DIRECTION('',(1.,0.,0.));
#1607=DIRECTION('center_axis',(1.,0.,0.));
#1608=DIRECTION('ref_axis',(0.,0.,-1.));
#1609=DIRECTION('',(0.,0.,-1.));
#1610=DIRECTION('center_axis',(0.,1.,0.));
#1611=DIRECTION('ref_axis',(0.,0.,1.));
#1612=DIRECTION('',(0.,0.,1.));
#1613=DIRECTION('center_axis',(-1.,0.,0.));
#1614=DIRECTION('ref_axis',(0.,0.,-1.));
#1615=CARTESIAN_POINT('',(0.,0.,0.));
#1616=CARTESIAN_POINT('Origin',(40.,20.,20.));
#1617=CARTESIAN_POINT('',(46.,20.,20.));
#1618=CARTESIAN_POINT('',(34.,20.,20.));
#1619=CARTESIAN_POINT('Origin',(40.,20.,20.));
#1620=CARTESIAN_POINT('',(46.,20.,17.));
#1621=CARTESIAN_POINT('',(46.,20.,20.));
#1622=CARTESIAN_POINT('',(34.,20.,17.));
#1623=CARTESIAN_POINT('Origin',(40.,20.,17.));
#1624=CARTESIAN_POINT('',(34.,20.,20.));
#1625=CARTESIAN_POINT('Origin',(73.999997779727,0.,20.));
#1626=CARTESIAN_POINT('',(-153.000002220273,20.,20.));
#1627=CARTESIAN_POINT('',(73.999997779727,20.,20.));
#1628=CARTESIAN_POINT('',(-153.000002220273,-2.,20.));
#1629=CARTESIAN_POINT('',(-153.000002220273,0.,20.));
#1630=CARTESIAN_POINT('',(72.999997779727,-2.,20.));
#1631=CARTESIAN_POINT('',(16.999997779727,-2.,20.));
#1632=CARTESIAN_POINT('',(72.999997779727,20.,20.));
#1633=CARTESIAN_POINT('',(72.999997779727,0.,20.));
#1634=CARTESIAN_POINT('',(73.999997779727,20.,20.));
#1635=CARTESIAN_POINT('Origin',(-150.000002220273,1.,16.));
#1636=CARTESIAN_POINT('',(-150.000002220273,1.,17.));
#1637=CARTESIAN_POINT('',(-151.000002220273,1.,16.));
#1638=CARTESIAN_POINT('Origin',(-150.000002220273,1.,16.));
#1639=CARTESIAN_POINT('',(-150.000002220273,0.,16.));
#1640=CARTESIAN_POINT('Origin',(-150.000002220273,1.,16.));
#1641=CARTESIAN_POINT('Origin',(-150.000002220273,1.,16.));
#1642=CARTESIAN_POINT('Origin',(69.999997779727,1.,16.));
#1643=CARTESIAN_POINT('',(69.999997779727,0.,16.));
#1644=CARTESIAN_POINT('',(70.999997779727,1.,16.));
#1645=CARTESIAN_POINT('Origin',(69.999997779727,1.,16.));
#1646=CARTESIAN_POINT('',(69.999997779727,1.,17.));
#1647=CARTESIAN_POINT('Origin',(69.999997779727,1.,16.));
#1648=CARTESIAN_POINT('Origin',(69.999997779727,1.,16.));
#1649=CARTESIAN_POINT('Origin',(15.499997779727,1.,16.));
#1650=CARTESIAN_POINT('',(15.499997779727,0.,16.));
#1651=CARTESIAN_POINT('',(15.499997779727,1.,17.));
#1652=CARTESIAN_POINT('Origin',(69.999997779727,0.,16.));
#1653=CARTESIAN_POINT('',(69.999997779727,20.,17.));
#1654=CARTESIAN_POINT('',(70.999997779727,20.,16.));
#1655=CARTESIAN_POINT('Origin',(69.999997779727,20.,16.));
#1656=CARTESIAN_POINT('',(70.999997779727,0.,16.));
#1657=CARTESIAN_POINT('',(69.999997779727,0.,17.));
#1658=CARTESIAN_POINT('Origin',(-150.000002220273,1.,-23.));
#1659=CARTESIAN_POINT('',(-150.000002220273,0.,-23.));
#1660=CARTESIAN_POINT('',(-151.000002220273,1.,-23.));
#1661=CARTESIAN_POINT('Origin',(-150.000002220273,1.,-23.));
#1662=CARTESIAN_POINT('',(-150.000002220273,1.,-24.));
#1663=CARTESIAN_POINT('Origin',(-150.000002220273,1.,-23.));
#1664=CARTESIAN_POINT('Origin',(-150.000002220273,1.,-23.));
#1665=CARTESIAN_POINT('Origin',(69.999997779727,1.,-23.));
#1666=CARTESIAN_POINT('',(69.999997779727,0.,-23.));
#1667=CARTESIAN_POINT('',(69.999997779727,1.,-24.));
#1668=CARTESIAN_POINT('Origin',(69.999997779727,1.,-23.));
#1669=CARTESIAN_POINT('',(70.999997779727,1.,-23.));
#1670=CARTESIAN_POINT('Origin',(69.999997779727,1.,-23.));
#1671=CARTESIAN_POINT('Origin',(69.999997779727,1.,-23.));
#1672=CARTESIAN_POINT('Origin',(69.999997779727,1.,-13.75));
#1673=CARTESIAN_POINT('',(69.999997779727,0.,-13.75));
#1674=CARTESIAN_POINT('',(70.999997779727,1.,-13.75));
#1675=CARTESIAN_POINT('Origin',(69.999997779727,0.,-23.));
#1676=CARTESIAN_POINT('',(70.999997779727,20.,-23.));
#1677=CARTESIAN_POINT('',(69.999997779727,20.,-24.));
#1678=CARTESIAN_POINT('Origin',(69.999997779727,20.,-23.));
#1679=CARTESIAN_POINT('',(69.999997779727,0.,-24.));
#1680=CARTESIAN_POINT('',(70.999997779727,0.,-23.));
#1681=CARTESIAN_POINT('Origin',(-95.500002220273,1.,-23.));
#1682=CARTESIAN_POINT('',(-95.500002220273,0.,-23.));
#1683=CARTESIAN_POINT('',(-95.500002220273,1.,-24.));
#1684=CARTESIAN_POINT('Origin',(-150.000002220273,0.,-23.));
#1685=CARTESIAN_POINT('',(-150.000002220273,20.,-24.));
#1686=CARTESIAN_POINT('',(-151.000002220273,20.,-23.));
#1687=CARTESIAN_POINT('Origin',(-150.000002220273,20.,-23.));
#1688=CARTESIAN_POINT('',(-151.000002220273,0.,-23.));
#1689=CARTESIAN_POINT('',(-150.000002220273,0.,-24.));
#1690=CARTESIAN_POINT('Origin',(-150.000002220273,1.,6.75000000000001));
#1691=CARTESIAN_POINT('',(-150.000002220273,0.,6.75000000000001));
#1692=CARTESIAN_POINT('',(-151.000002220273,1.,6.75000000000001));
#1693=CARTESIAN_POINT('Origin',(-150.000002220273,0.,16.));
#1694=CARTESIAN_POINT('',(-151.000002220273,20.,16.));
#1695=CARTESIAN_POINT('',(-150.000002220273,20.,17.));
#1696=CARTESIAN_POINT('Origin',(-150.000002220273,20.,16.));
#1697=CARTESIAN_POINT('',(-150.000002220273,0.,17.));
#1698=CARTESIAN_POINT('',(-151.000002220273,0.,16.));
#1699=CARTESIAN_POINT('Origin',(70.999997779727,0.,-24.));
#1700=CARTESIAN_POINT('',(70.999997779727,20.,-24.));
#1701=CARTESIAN_POINT('Origin',(70.999997779727,0.,17.));
#1702=CARTESIAN_POINT('',(70.999997779727,20.,17.));
#1703=CARTESIAN_POINT('',(70.999997779727,20.,17.));
#1704=CARTESIAN_POINT('Origin',(-40.000002220273,0.,-3.49999999999999));
#1705=CARTESIAN_POINT('',(-65.5,0.,-2.));
#1706=CARTESIAN_POINT('Origin',(-60.,0.,-2.));
#1707=CARTESIAN_POINT('',(54.5,0.,-2.));
#1708=CARTESIAN_POINT('Origin',(60.,0.,-2.));
#1709=CARTESIAN_POINT('',(-105.5,0.,-1.99999999999999));
#1710=CARTESIAN_POINT('Origin',(-100.,0.,-1.99999999999999));
#1711=CARTESIAN_POINT('',(-25.5,0.,-2.));
#1712=CARTESIAN_POINT('Origin',(-20.,0.,-2.));
#1713=CARTESIAN_POINT('',(14.5,0.,-2.));
#1714=CARTESIAN_POINT('Origin',(20.,0.,-2.));
#1715=CARTESIAN_POINT('',(-145.5,0.,-1.99999999999999));
#1716=CARTESIAN_POINT('Origin',(-140.,0.,-1.99999999999999));
#1717=CARTESIAN_POINT('Origin',(60.,0.7,-2.));
#1718=CARTESIAN_POINT('',(60.,1.7,2.5));
#1719=CARTESIAN_POINT('Origin',(60.,1.7,-2.));
#1720=CARTESIAN_POINT('',(60.,0.7,1.5));
#1721=CARTESIAN_POINT('Origin',(60.,0.7,2.5));
#1722=CARTESIAN_POINT('',(56.5,0.7,-2.));
#1723=CARTESIAN_POINT('Origin',(60.,0.7,-2.));
#1724=CARTESIAN_POINT('Origin',(60.,0.7,-2.));
#1725=CARTESIAN_POINT('Origin',(60.,0.,-2.));
#1726=CARTESIAN_POINT('',(56.5,-2.,-2.));
#1727=CARTESIAN_POINT('',(60.,-2.,-5.5));
#1728=CARTESIAN_POINT('Origin',(60.,-2.,-2.));
#1729=CARTESIAN_POINT('',(56.5,0.,-2.));
#1730=CARTESIAN_POINT('Origin',(60.,-2.,-2.));
#1731=CARTESIAN_POINT('Origin',(60.,1.7,-2.));
#1732=CARTESIAN_POINT('',(54.5,1.7,-2.));
#1733=CARTESIAN_POINT('Origin',(60.,1.7,-2.));
#1734=CARTESIAN_POINT('Origin',(20.,0.7,-2.));
#1735=CARTESIAN_POINT('',(20.,1.7,2.5));
#1736=CARTESIAN_POINT('Origin',(20.,1.7,-2.));
#1737=CARTESIAN_POINT('',(20.,0.7,1.5));
#1738=CARTESIAN_POINT('Origin',(20.,0.7,2.5));
#1739=CARTESIAN_POINT('',(16.5,0.7,-2.));
#1740=CARTESIAN_POINT('Origin',(20.,0.7,-2.));
#1741=CARTESIAN_POINT('Origin',(20.,0.7,-2.));
#1742=CARTESIAN_POINT('Origin',(20.,0.,-2.));
#1743=CARTESIAN_POINT('',(16.5,-2.,-2.));
#1744=CARTESIAN_POINT('',(20.,-2.,-5.5));
#1745=CARTESIAN_POINT('Origin',(20.,-2.,-2.));
#1746=CARTESIAN_POINT('',(16.5,0.,-2.));
#1747=CARTESIAN_POINT('Origin',(20.,-2.,-2.));
#1748=CARTESIAN_POINT('Origin',(20.,1.7,-2.));
#1749=CARTESIAN_POINT('',(14.5,1.7,-2.));
#1750=CARTESIAN_POINT('Origin',(20.,1.7,-2.));
#1751=CARTESIAN_POINT('Origin',(-20.,0.7,-2.));
#1752=CARTESIAN_POINT('',(-20.,1.7,2.5));
#1753=CARTESIAN_POINT('Origin',(-20.,1.7,-2.));
#1754=CARTESIAN_POINT('',(-20.,0.7,1.5));
#1755=CARTESIAN_POINT('Origin',(-20.,0.7,2.5));
#1756=CARTESIAN_POINT('',(-23.5,0.7,-2.));
#1757=CARTESIAN_POINT('Origin',(-20.,0.7,-2.));
#1758=CARTESIAN_POINT('Origin',(-20.,0.7,-2.));
#1759=CARTESIAN_POINT('Origin',(-20.,0.,-2.));
#1760=CARTESIAN_POINT('',(-23.5,-2.,-2.));
#1761=CARTESIAN_POINT('',(-20.,-2.,-5.5));
#1762=CARTESIAN_POINT('Origin',(-20.,-2.,-2.));
#1763=CARTESIAN_POINT('',(-23.5,0.,-2.));
#1764=CARTESIAN_POINT('Origin',(-20.,-2.,-2.));
#1765=CARTESIAN_POINT('Origin',(-20.,1.7,-2.));
#1766=CARTESIAN_POINT('',(-25.5,1.7,-2.));
#1767=CARTESIAN_POINT('Origin',(-20.,1.7,-2.));
#1768=CARTESIAN_POINT('Origin',(-60.,0.7,-2.));
#1769=CARTESIAN_POINT('',(-60.,1.7,2.5));
#1770=CARTESIAN_POINT('Origin',(-60.,1.7,-2.));
#1771=CARTESIAN_POINT('',(-60.,0.7,1.5));
#1772=CARTESIAN_POINT('Origin',(-60.,0.7,2.5));
#1773=CARTESIAN_POINT('',(-63.5,0.7,-2.));
#1774=CARTESIAN_POINT('Origin',(-60.,0.7,-2.));
#1775=CARTESIAN_POINT('Origin',(-60.,0.7,-2.));
#1776=CARTESIAN_POINT('Origin',(-60.,0.,-2.));
#1777=CARTESIAN_POINT('',(-63.5,-2.,-2.));
#1778=CARTESIAN_POINT('',(-60.,-2.,-5.49999999999999));
#1779=CARTESIAN_POINT('Origin',(-60.,-2.,-2.));
#1780=CARTESIAN_POINT('',(-63.5,0.,-2.));
#1781=CARTESIAN_POINT('Origin',(-60.,-2.,-2.));
#1782=CARTESIAN_POINT('Origin',(-60.,1.7,-2.));
#1783=CARTESIAN_POINT('',(-65.5,1.7,-2.));
#1784=CARTESIAN_POINT('Origin',(-60.,1.7,-2.));
#1785=CARTESIAN_POINT('Origin',(-100.,0.7,-1.99999999999999));
#1786=CARTESIAN_POINT('',(-100.,1.7,2.5));
#1787=CARTESIAN_POINT('Origin',(-100.,1.7,-1.99999999999999));
#1788=CARTESIAN_POINT('',(-100.,0.7,1.5));
#1789=CARTESIAN_POINT('Origin',(-100.,0.7,2.5));
#1790=CARTESIAN_POINT('',(-103.5,0.7,-1.99999999999999));
#1791=CARTESIAN_POINT('Origin',(-100.,0.7,-1.99999999999999));
#1792=CARTESIAN_POINT('Origin',(-100.,0.7,-1.99999999999999));
#1793=CARTESIAN_POINT('Origin',(-100.,0.,-1.99999999999999));
#1794=CARTESIAN_POINT('',(-103.5,-2.,-1.99999999999999));
#1795=CARTESIAN_POINT('',(-100.,-2.,-5.49999999999999));
#1796=CARTESIAN_POINT('Origin',(-100.,-2.,-1.99999999999999));
#1797=CARTESIAN_POINT('',(-103.5,0.,-1.99999999999999));
#1798=CARTESIAN_POINT('Origin',(-100.,-2.,-1.99999999999999));
#1799=CARTESIAN_POINT('Origin',(-100.,1.7,-1.99999999999999));
#1800=CARTESIAN_POINT('',(-105.5,1.7,-1.99999999999999));
#1801=CARTESIAN_POINT('Origin',(-100.,1.7,-1.99999999999999));
#1802=CARTESIAN_POINT('Origin',(-140.,0.7,-1.99999999999999));
#1803=CARTESIAN_POINT('',(-140.,1.7,2.5));
#1804=CARTESIAN_POINT('Origin',(-140.,1.7,-1.99999999999999));
#1805=CARTESIAN_POINT('',(-140.,0.7,1.50000000000001));
#1806=CARTESIAN_POINT('Origin',(-140.,0.7,2.5));
#1807=CARTESIAN_POINT('',(-143.5,0.7,-1.99999999999999));
#1808=CARTESIAN_POINT('Origin',(-140.,0.7,-1.99999999999999));
#1809=CARTESIAN_POINT('Origin',(-140.,0.7,-1.99999999999999));
#1810=CARTESIAN_POINT('Origin',(-140.,0.,-1.99999999999999));
#1811=CARTESIAN_POINT('',(-143.5,-2.,-1.99999999999999));
#1812=CARTESIAN_POINT('',(-140.,-2.,-5.49999999999999));
#1813=CARTESIAN_POINT('Origin',(-140.,-2.,-1.99999999999999));
#1814=CARTESIAN_POINT('',(-143.5,0.,-1.99999999999999));
#1815=CARTESIAN_POINT('Origin',(-140.,-2.,-1.99999999999999));
#1816=CARTESIAN_POINT('Origin',(-140.,1.7,-1.99999999999999));
#1817=CARTESIAN_POINT('',(-145.5,1.7,-1.99999999999999));
#1818=CARTESIAN_POINT('Origin',(-140.,1.7,-1.99999999999999));
#1819=CARTESIAN_POINT('Origin',(-140.,-2.,-1.99999999999999));
#1820=CARTESIAN_POINT('',(-140.,-3.,-6.49999999999999));
#1821=CARTESIAN_POINT('Origin',(-140.,-3.,-1.99999999999999));
#1822=CARTESIAN_POINT('Origin',(-140.,-2.,-6.49999999999999));
#1823=CARTESIAN_POINT('Origin',(-40.000002220273,-3.,-3.49999999999999));
#1824=CARTESIAN_POINT('',(72.999997779727,-3.,19.));
#1825=CARTESIAN_POINT('',(72.999997779727,-3.,-26.));
#1826=CARTESIAN_POINT('',(72.999997779727,-3.,-15.25));
#1827=CARTESIAN_POINT('',(-153.000002220273,-3.,19.));
#1828=CARTESIAN_POINT('',(16.999997779727,-3.,19.));
#1829=CARTESIAN_POINT('',(-153.000002220273,-3.,-26.));
#1830=CARTESIAN_POINT('',(-153.000002220273,-3.,8.25000000000001));
#1831=CARTESIAN_POINT('',(-97.000002220273,-3.,-26.));
#1832=CARTESIAN_POINT('',(-100.,-3.,-6.49999999999999));
#1833=CARTESIAN_POINT('Origin',(-100.,-3.,-1.99999999999999));
#1834=CARTESIAN_POINT('',(-20.,-3.,-6.5));
#1835=CARTESIAN_POINT('Origin',(-20.,-3.,-2.));
#1836=CARTESIAN_POINT('',(60.,-3.,-6.5));
#1837=CARTESIAN_POINT('Origin',(60.,-3.,-2.));
#1838=CARTESIAN_POINT('',(20.,-3.,-6.5));
#1839=CARTESIAN_POINT('Origin',(20.,-3.,-2.));
#1840=CARTESIAN_POINT('',(-60.,-3.,-6.49999999999999));
#1841=CARTESIAN_POINT('Origin',(-60.,-3.,-2.));
#1842=CARTESIAN_POINT('Origin',(-100.,-2.,-1.99999999999999));
#1843=CARTESIAN_POINT('Origin',(-100.,-2.,-6.49999999999999));
#1844=CARTESIAN_POINT('Origin',(-60.,-2.,-2.));
#1845=CARTESIAN_POINT('Origin',(-60.,-2.,-6.49999999999999));
#1846=CARTESIAN_POINT('Origin',(-20.,-2.,-2.));
#1847=CARTESIAN_POINT('Origin',(-20.,-2.,-6.5));
#1848=CARTESIAN_POINT('Origin',(20.,-2.,-2.));
#1849=CARTESIAN_POINT('Origin',(20.,-2.,-6.5));
#1850=CARTESIAN_POINT('Origin',(60.,-2.,-2.));
#1851=CARTESIAN_POINT('Origin',(60.,-2.,-6.5));
#1852=CARTESIAN_POINT('Origin',(72.999997779727,-2.,19.));
#1853=CARTESIAN_POINT('',(73.999997779727,-2.,19.));
#1854=CARTESIAN_POINT('Origin',(72.999997779727,-2.,19.));
#1855=CARTESIAN_POINT('Origin',(72.999997779727,-2.,19.));
#1856=CARTESIAN_POINT('Origin',(72.999997779727,-2.,19.));
#1857=CARTESIAN_POINT('Origin',(72.999997779727,0.,19.));
#1858=CARTESIAN_POINT('',(73.999997779727,20.,19.));
#1859=CARTESIAN_POINT('Origin',(72.999997779727,20.,19.));
#1860=CARTESIAN_POINT('',(73.999997779727,0.,19.));
#1861=CARTESIAN_POINT('Origin',(-153.000002220273,-2.,19.));
#1862=CARTESIAN_POINT('Origin',(-153.000002220273,-2.,19.));
#1863=CARTESIAN_POINT('',(-154.000002220273,-2.,19.));
#1864=CARTESIAN_POINT('Origin',(-153.000002220273,-2.,19.));
#1865=CARTESIAN_POINT('Origin',(-153.000002220273,-2.,19.));
#1866=CARTESIAN_POINT('Origin',(-153.000002220273,0.,19.));
#1867=CARTESIAN_POINT('',(-154.000002220273,20.,19.));
#1868=CARTESIAN_POINT('Origin',(-153.000002220273,20.,19.));
#1869=CARTESIAN_POINT('',(-154.000002220273,0.,19.));
#1870=CARTESIAN_POINT('Origin',(72.999997779727,-2.,-26.));
#1871=CARTESIAN_POINT('',(72.999997779727,-2.,-27.));
#1872=CARTESIAN_POINT('Origin',(72.999997779727,-2.,-26.));
#1873=CARTESIAN_POINT('',(73.999997779727,-2.,-26.));
#1874=CARTESIAN_POINT('Origin',(72.999997779727,-2.,-26.));
#1875=CARTESIAN_POINT('Origin',(72.999997779727,-2.,-26.));
#1876=CARTESIAN_POINT('Origin',(72.999997779727,0.,-26.));
#1877=CARTESIAN_POINT('',(72.999997779727,20.,-27.));
#1878=CARTESIAN_POINT('',(73.999997779727,20.,-26.));
#1879=CARTESIAN_POINT('Origin',(72.999997779727,20.,-26.));
#1880=CARTESIAN_POINT('',(73.999997779727,0.,-26.));
#1881=CARTESIAN_POINT('',(72.999997779727,0.,-27.));
#1882=CARTESIAN_POINT('Origin',(72.999997779727,-2.,-15.25));
#1883=CARTESIAN_POINT('',(73.999997779727,-2.,-15.25));
#1884=CARTESIAN_POINT('Origin',(-153.000002220273,-2.,-26.));
#1885=CARTESIAN_POINT('',(-154.000002220273,-2.,-26.));
#1886=CARTESIAN_POINT('Origin',(-153.000002220273,-2.,-26.));
#1887=CARTESIAN_POINT('',(-153.000002220273,-2.,-27.));
#1888=CARTESIAN_POINT('Origin',(-153.000002220273,-2.,-26.));
#1889=CARTESIAN_POINT('Origin',(-153.000002220273,-2.,-26.));
#1890=CARTESIAN_POINT('Origin',(-153.000002220273,0.,-26.));
#1891=CARTESIAN_POINT('',(-154.000002220273,20.,-26.));
#1892=CARTESIAN_POINT('',(-153.000002220273,20.,-27.));
#1893=CARTESIAN_POINT('Origin',(-153.000002220273,20.,-26.));
#1894=CARTESIAN_POINT('',(-153.000002220273,0.,-27.));
#1895=CARTESIAN_POINT('',(-154.000002220273,0.,-26.));
#1896=CARTESIAN_POINT('Origin',(-97.000002220273,-2.,-26.));
#1897=CARTESIAN_POINT('',(-97.000002220273,-2.,-27.));
#1898=CARTESIAN_POINT('Origin',(-153.000002220273,-2.,8.25000000000001));
#1899=CARTESIAN_POINT('',(-154.000002220273,-2.,8.25000000000001));
#1900=CARTESIAN_POINT('Origin',(16.999997779727,-2.,19.));
#1901=CARTESIAN_POINT('Origin',(73.999997779727,0.,-27.));
#1902=CARTESIAN_POINT('',(73.999997779727,20.,-27.));
#1903=CARTESIAN_POINT('Origin',(-154.000002220273,0.,-27.));
#1904=CARTESIAN_POINT('',(-154.000002220273,20.,-27.));
#1905=CARTESIAN_POINT('Origin',(-140.,0.,-1.99999999999999));
#1906=CARTESIAN_POINT('',(-145.5,0.,-1.99999999999999));
#1907=CARTESIAN_POINT('Origin',(20.,0.,-2.));
#1908=CARTESIAN_POINT('',(14.5,0.,-2.));
#1909=CARTESIAN_POINT('Origin',(-20.,0.,-2.));
#1910=CARTESIAN_POINT('',(-25.5,0.,-2.));
#1911=CARTESIAN_POINT('Origin',(-100.,0.,-1.99999999999999));
#1912=CARTESIAN_POINT('',(-105.5,0.,-1.99999999999999));
#1913=CARTESIAN_POINT('Origin',(60.,0.,-2.));
#1914=CARTESIAN_POINT('',(54.5,0.,-2.));
#1915=CARTESIAN_POINT('Origin',(-60.,0.,-2.));
#1916=CARTESIAN_POINT('',(-65.5,0.,-2.));
#1917=CARTESIAN_POINT('Origin',(-151.000002220273,0.,-24.));
#1918=CARTESIAN_POINT('',(-151.000002220273,20.,-24.));
#1919=CARTESIAN_POINT('Origin',(-151.000002220273,0.,17.));
#1920=CARTESIAN_POINT('',(-151.000002220273,20.,17.));
#1921=CARTESIAN_POINT('Origin',(-40.000002220273,20.,-3.49999999999999));
#1922=CARTESIAN_POINT('',(-154.000002220273,20.,20.));
#1923=CARTESIAN_POINT('Origin',(-154.000002220273,0.,20.));
#1924=UNCERTAINTY_MEASURE_WITH_UNIT(LENGTH_MEASURE(0.01),#1928,
'DISTANCE_ACCURACY_VALUE',
'Maximum model space distance between geometric entities at asserted c
onnectivities');
#1925=UNCERTAINTY_MEASURE_WITH_UNIT(LENGTH_MEASURE(0.01),#1928,
'DISTANCE_ACCURACY_VALUE',
'Maximum model space distance between geometric entities at asserted c
onnectivities');
#1926=(
GEOMETRIC_REPRESENTATION_CONTEXT(3)
GLOBAL_UNCERTAINTY_ASSIGNED_CONTEXT((#1924))
GLOBAL_UNIT_ASSIGNED_CONTEXT((#1928,#1930,#1931))
REPRESENTATION_CONTEXT('','3D')
);
#1927=(
GEOMETRIC_REPRESENTATION_CONTEXT(3)
GLOBAL_UNCERTAINTY_ASSIGNED_CONTEXT((#1925))
GLOBAL_UNIT_ASSIGNED_CONTEXT((#1928,#1930,#1931))
REPRESENTATION_CONTEXT('','3D')
);
#1928=(
LENGTH_UNIT()
NAMED_UNIT(*)
SI_UNIT(.MILLI.,.METRE.)
);
#1929=(
LENGTH_UNIT()
NAMED_UNIT(*)
SI_UNIT($,.METRE.)
);
#1930=(
NAMED_UNIT(*)
PLANE_ANGLE_UNIT()
SI_UNIT($,.RADIAN.)
);
#1931=(
NAMED_UNIT(*)
SI_UNIT($,.STERADIAN.)
SOLID_ANGLE_UNIT()
);
#1932=SHAPE_DEFINITION_REPRESENTATION(#1933,#1934);
#1933=PRODUCT_DEFINITION_SHAPE('',$,#1936);
#1934=SHAPE_REPRESENTATION('',(#1076),#1926);
#1935=PRODUCT_DEFINITION_CONTEXT('part definition',#1940,'design');
#1936=PRODUCT_DEFINITION('rampe_coders_boumboum',
'rampe_coders_boumboum v11',#1937,#1935);
#1937=PRODUCT_DEFINITION_FORMATION('',$,#1942);
#1938=PRODUCT_RELATED_PRODUCT_CATEGORY('rampe_coders_boumboum v11',
'rampe_coders_boumboum v11',(#1942));
#1939=APPLICATION_PROTOCOL_DEFINITION('international standard',
'automotive_design',2009,#1940);
#1940=APPLICATION_CONTEXT(
'Core Data for Automotive Mechanical Design Process');
#1941=PRODUCT_CONTEXT('part definition',#1940,'mechanical');
#1942=PRODUCT('rampe_coders_boumboum','rampe_coders_boumboum v11',$,(#1941));
#1943=PRESENTATION_STYLE_ASSIGNMENT((#1944));
#1944=SURFACE_STYLE_USAGE(.BOTH.,#1945);
#1945=SURFACE_SIDE_STYLE('',(#1946));
#1946=SURFACE_STYLE_FILL_AREA(#1947);
#1947=FILL_AREA_STYLE('Acier - Satin\X\E9',(#1948));
#1948=FILL_AREA_STYLE_COLOUR('Acier - Satin\X\E9',#1949);
#1949=COLOUR_RGB('Acier - Satin\X\E9',0.627450980392157,0.627450980392157,
0.627450980392157);
ENDSEC;
END-ISO-10303-21;
