ISO-10303-21;
HEADER;
/* Generated by software containing ST-Developer
 * from STEP Tools, Inc. (www.steptools.com) 
 */

FILE_DESCRIPTION(
/* description */ (''),
/* implementation_level */ '2;1');

FILE_NAME(
/* name */ 'support_fils.step',
/* time_stamp */ '2025-11-16T19:03:24+01:00',
/* author */ (''),
/* organization */ (''),
/* preprocessor_version */ 'ST-DEVELOPER v20.1',
/* originating_system */ 'Autodesk Translation Framework v14.21.0.0',
/* authorisation */ '');

FILE_SCHEMA (('AUTOMOTIVE_DESIGN { 1 0 10303 214 3 1 1 }'));
ENDSEC;

DATA;
#10=MECHANICAL_DESIGN_GEOMETRIC_PRESENTATION_REPRESENTATION('',(#13,#14),
#405);
#11=SHAPE_REPRESENTATION_RELATIONSHIP('SRR','None',#412,#12);
#12=ADVANCED_BREP_SHAPE_REPRESENTATION('',(#15,#16),#404);
#13=STYLED_ITEM('',(#421),#15);
#14=STYLED_ITEM('',(#421),#16);
#15=MANIFOLD_SOLID_BREP('Corps1',#232);
#16=MANIFOLD_SOLID_BREP('Corps2',#233);
#17=PLANE('',#250);
#18=PLANE('',#251);
#19=PLANE('',#252);
#20=PLANE('',#254);
#21=PLANE('',#259);
#22=PLANE('',#262);
#23=PLANE('',#265);
#24=PLANE('',#266);
#25=PLANE('',#267);
#26=PLANE('',#268);
#27=PLANE('',#269);
#28=FACE_OUTER_BOUND('',#43,.T.);
#29=FACE_OUTER_BOUND('',#44,.T.);
#30=FACE_OUTER_BOUND('',#45,.T.);
#31=FACE_OUTER_BOUND('',#46,.T.);
#32=FACE_OUTER_BOUND('',#47,.T.);
#33=FACE_OUTER_BOUND('',#48,.T.);
#34=FACE_OUTER_BOUND('',#49,.T.);
#35=FACE_OUTER_BOUND('',#50,.T.);
#36=FACE_OUTER_BOUND('',#51,.T.);
#37=FACE_OUTER_BOUND('',#52,.T.);
#38=FACE_OUTER_BOUND('',#53,.T.);
#39=FACE_OUTER_BOUND('',#54,.T.);
#40=FACE_OUTER_BOUND('',#55,.T.);
#41=FACE_OUTER_BOUND('',#56,.T.);
#42=FACE_OUTER_BOUND('',#57,.T.);
#43=EDGE_LOOP('',(#155,#156,#157,#158));
#44=EDGE_LOOP('',(#159));
#45=EDGE_LOOP('',(#160));
#46=EDGE_LOOP('',(#161,#162,#163,#164));
#47=EDGE_LOOP('',(#165,#166,#167,#168));
#48=EDGE_LOOP('',(#169,#170,#171,#172));
#49=EDGE_LOOP('',(#173,#174,#175,#176));
#50=EDGE_LOOP('',(#177,#178,#179,#180));
#51=EDGE_LOOP('',(#181,#182,#183,#184));
#52=EDGE_LOOP('',(#185,#186,#187,#188));
#53=EDGE_LOOP('',(#189,#190,#191,#192));
#54=EDGE_LOOP('',(#193,#194,#195,#196));
#55=EDGE_LOOP('',(#197,#198,#199,#200,#201,#202,#203,#204));
#56=EDGE_LOOP('',(#205,#206,#207,#208));
#57=EDGE_LOOP('',(#209,#210,#211,#212));
#58=LINE('',#344,#79);
#59=LINE('',#351,#80);
#60=LINE('',#353,#81);
#61=LINE('',#355,#82);
#62=LINE('',#360,#83);
#63=LINE('',#364,#84);
#64=LINE('',#365,#85);
#65=LINE('',#369,#86);
#66=LINE('',#372,#87);
#67=LINE('',#375,#88);
#68=LINE('',#377,#89);
#69=LINE('',#379,#90);
#70=LINE('',#382,#91);
#71=LINE('',#383,#92);
#72=LINE('',#386,#93);
#73=LINE('',#390,#94);
#74=LINE('',#391,#95);
#75=LINE('',#393,#96);
#76=LINE('',#394,#97);
#77=LINE('',#398,#98);
#78=LINE('',#399,#99);
#79=VECTOR('',#276,2.5);
#80=VECTOR('',#285,10.);
#81=VECTOR('',#286,10.);
#82=VECTOR('',#287,10.);
#83=VECTOR('',#292,10.);
#84=VECTOR('',#295,10.);
#85=VECTOR('',#296,10.);
#86=VECTOR('',#301,10.);
#87=VECTOR('',#304,10.);
#88=VECTOR('',#307,10.);
#89=VECTOR('',#308,10.);
#90=VECTOR('',#309,10.);
#91=VECTOR('',#314,5.);
#92=VECTOR('',#315,10.);
#93=VECTOR('',#318,10.);
#94=VECTOR('',#321,10.);
#95=VECTOR('',#322,10.);
#96=VECTOR('',#325,5.);
#97=VECTOR('',#326,10.);
#98=VECTOR('',#333,10.);
#99=VECTOR('',#334,10.);
#100=CIRCLE('',#248,2.5);
#101=CIRCLE('',#249,2.5);
#102=CIRCLE('',#253,5.);
#103=CIRCLE('',#255,5.);
#104=CIRCLE('',#257,5.);
#105=CIRCLE('',#258,5.);
#106=CIRCLE('',#260,5.);
#107=CIRCLE('',#263,5.);
#108=VERTEX_POINT('',#341);
#109=VERTEX_POINT('',#343);
#110=VERTEX_POINT('',#349);
#111=VERTEX_POINT('',#350);
#112=VERTEX_POINT('',#352);
#113=VERTEX_POINT('',#354);
#114=VERTEX_POINT('',#358);
#115=VERTEX_POINT('',#359);
#116=VERTEX_POINT('',#361);
#117=VERTEX_POINT('',#363);
#118=VERTEX_POINT('',#367);
#119=VERTEX_POINT('',#370);
#120=VERTEX_POINT('',#374);
#121=VERTEX_POINT('',#376);
#122=VERTEX_POINT('',#378);
#123=VERTEX_POINT('',#385);
#124=VERTEX_POINT('',#387);
#125=VERTEX_POINT('',#389);
#126=EDGE_CURVE('',#108,#108,#100,.T.);
#127=EDGE_CURVE('',#108,#109,#58,.T.);
#128=EDGE_CURVE('',#109,#109,#101,.T.);
#129=EDGE_CURVE('',#110,#111,#59,.T.);
#130=EDGE_CURVE('',#112,#111,#60,.T.);
#131=EDGE_CURVE('',#112,#113,#61,.T.);
#132=EDGE_CURVE('',#110,#113,#102,.T.);
#133=EDGE_CURVE('',#114,#115,#62,.T.);
#134=EDGE_CURVE('',#116,#115,#103,.T.);
#135=EDGE_CURVE('',#117,#116,#63,.T.);
#136=EDGE_CURVE('',#114,#117,#64,.T.);
#137=EDGE_CURVE('',#118,#114,#104,.F.);
#138=EDGE_CURVE('',#111,#114,#65,.T.);
#139=EDGE_CURVE('',#111,#119,#105,.F.);
#140=EDGE_CURVE('',#119,#118,#66,.T.);
#141=EDGE_CURVE('',#120,#118,#67,.T.);
#142=EDGE_CURVE('',#118,#121,#68,.T.);
#143=EDGE_CURVE('',#122,#121,#69,.T.);
#144=EDGE_CURVE('',#120,#122,#106,.T.);
#145=EDGE_CURVE('',#115,#120,#70,.T.);
#146=EDGE_CURVE('',#116,#122,#71,.T.);
#147=EDGE_CURVE('',#119,#123,#72,.T.);
#148=EDGE_CURVE('',#124,#123,#107,.T.);
#149=EDGE_CURVE('',#124,#125,#73,.T.);
#150=EDGE_CURVE('',#125,#119,#74,.T.);
#151=EDGE_CURVE('',#123,#110,#75,.T.);
#152=EDGE_CURVE('',#113,#124,#76,.T.);
#153=EDGE_CURVE('',#125,#112,#77,.T.);
#154=EDGE_CURVE('',#121,#117,#78,.T.);
#155=ORIENTED_EDGE('',*,*,#126,.F.);
#156=ORIENTED_EDGE('',*,*,#127,.T.);
#157=ORIENTED_EDGE('',*,*,#128,.F.);
#158=ORIENTED_EDGE('',*,*,#127,.F.);
#159=ORIENTED_EDGE('',*,*,#128,.T.);
#160=ORIENTED_EDGE('',*,*,#126,.T.);
#161=ORIENTED_EDGE('',*,*,#129,.T.);
#162=ORIENTED_EDGE('',*,*,#130,.F.);
#163=ORIENTED_EDGE('',*,*,#131,.T.);
#164=ORIENTED_EDGE('',*,*,#132,.F.);
#165=ORIENTED_EDGE('',*,*,#133,.T.);
#166=ORIENTED_EDGE('',*,*,#134,.F.);
#167=ORIENTED_EDGE('',*,*,#135,.F.);
#168=ORIENTED_EDGE('',*,*,#136,.F.);
#169=ORIENTED_EDGE('',*,*,#137,.T.);
#170=ORIENTED_EDGE('',*,*,#138,.F.);
#171=ORIENTED_EDGE('',*,*,#139,.T.);
#172=ORIENTED_EDGE('',*,*,#140,.T.);
#173=ORIENTED_EDGE('',*,*,#141,.T.);
#174=ORIENTED_EDGE('',*,*,#142,.T.);
#175=ORIENTED_EDGE('',*,*,#143,.F.);
#176=ORIENTED_EDGE('',*,*,#144,.F.);
#177=ORIENTED_EDGE('',*,*,#134,.T.);
#178=ORIENTED_EDGE('',*,*,#145,.T.);
#179=ORIENTED_EDGE('',*,*,#144,.T.);
#180=ORIENTED_EDGE('',*,*,#146,.F.);
#181=ORIENTED_EDGE('',*,*,#147,.T.);
#182=ORIENTED_EDGE('',*,*,#148,.F.);
#183=ORIENTED_EDGE('',*,*,#149,.T.);
#184=ORIENTED_EDGE('',*,*,#150,.T.);
#185=ORIENTED_EDGE('',*,*,#148,.T.);
#186=ORIENTED_EDGE('',*,*,#151,.T.);
#187=ORIENTED_EDGE('',*,*,#132,.T.);
#188=ORIENTED_EDGE('',*,*,#152,.T.);
#189=ORIENTED_EDGE('',*,*,#145,.F.);
#190=ORIENTED_EDGE('',*,*,#133,.F.);
#191=ORIENTED_EDGE('',*,*,#137,.F.);
#192=ORIENTED_EDGE('',*,*,#141,.F.);
#193=ORIENTED_EDGE('',*,*,#151,.F.);
#194=ORIENTED_EDGE('',*,*,#147,.F.);
#195=ORIENTED_EDGE('',*,*,#139,.F.);
#196=ORIENTED_EDGE('',*,*,#129,.F.);
#197=ORIENTED_EDGE('',*,*,#153,.T.);
#198=ORIENTED_EDGE('',*,*,#130,.T.);
#199=ORIENTED_EDGE('',*,*,#138,.T.);
#200=ORIENTED_EDGE('',*,*,#136,.T.);
#201=ORIENTED_EDGE('',*,*,#154,.F.);
#202=ORIENTED_EDGE('',*,*,#142,.F.);
#203=ORIENTED_EDGE('',*,*,#140,.F.);
#204=ORIENTED_EDGE('',*,*,#150,.F.);
#205=ORIENTED_EDGE('',*,*,#146,.T.);
#206=ORIENTED_EDGE('',*,*,#143,.T.);
#207=ORIENTED_EDGE('',*,*,#154,.T.);
#208=ORIENTED_EDGE('',*,*,#135,.T.);
#209=ORIENTED_EDGE('',*,*,#152,.F.);
#210=ORIENTED_EDGE('',*,*,#131,.F.);
#211=ORIENTED_EDGE('',*,*,#153,.F.);
#212=ORIENTED_EDGE('',*,*,#149,.F.);
#213=CYLINDRICAL_SURFACE('',#247,2.5);
#214=CYLINDRICAL_SURFACE('',#256,5.);
#215=CYLINDRICAL_SURFACE('',#261,5.);
#216=CYLINDRICAL_SURFACE('',#264,5.);
#217=ADVANCED_FACE('',(#28),#213,.T.);
#218=ADVANCED_FACE('',(#29),#17,.T.);
#219=ADVANCED_FACE('',(#30),#18,.F.);
#220=ADVANCED_FACE('',(#31),#19,.T.);
#221=ADVANCED_FACE('',(#32),#20,.T.);
#222=ADVANCED_FACE('',(#33),#214,.T.);
#223=ADVANCED_FACE('',(#34),#21,.T.);
#224=ADVANCED_FACE('',(#35),#215,.T.);
#225=ADVANCED_FACE('',(#36),#22,.T.);
#226=ADVANCED_FACE('',(#37),#216,.T.);
#227=ADVANCED_FACE('',(#38),#23,.F.);
#228=ADVANCED_FACE('',(#39),#24,.F.);
#229=ADVANCED_FACE('',(#40),#25,.T.);
#230=ADVANCED_FACE('',(#41),#26,.T.);
#231=ADVANCED_FACE('',(#42),#27,.F.);
#232=CLOSED_SHELL('',(#217,#218,#219));
#233=CLOSED_SHELL('',(#220,#221,#222,#223,#224,#225,#226,#227,#228,#229,
#230,#231));
#234=DERIVED_UNIT_ELEMENT(#236,1.);
#235=DERIVED_UNIT_ELEMENT(#407,-3.);
#236=(
MASS_UNIT()
NAMED_UNIT(*)
SI_UNIT(.KILO.,.GRAM.)
);
#237=DERIVED_UNIT((#234,#235));
#238=MEASURE_REPRESENTATION_ITEM('density measure',
POSITIVE_RATIO_MEASURE(7850.),#237);
#239=PROPERTY_DEFINITION_REPRESENTATION(#244,#241);
#240=PROPERTY_DEFINITION_REPRESENTATION(#245,#242);
#241=REPRESENTATION('material name',(#243),#404);
#242=REPRESENTATION('density',(#238),#404);
#243=DESCRIPTIVE_REPRESENTATION_ITEM('Acier','Acier');
#244=PROPERTY_DEFINITION('material property','material name',#414);
#245=PROPERTY_DEFINITION('material property','density of part',#414);
#246=AXIS2_PLACEMENT_3D('',#339,#270,#271);
#247=AXIS2_PLACEMENT_3D('',#340,#272,#273);
#248=AXIS2_PLACEMENT_3D('',#342,#274,#275);
#249=AXIS2_PLACEMENT_3D('',#345,#277,#278);
#250=AXIS2_PLACEMENT_3D('',#346,#279,#280);
#251=AXIS2_PLACEMENT_3D('',#347,#281,#282);
#252=AXIS2_PLACEMENT_3D('',#348,#283,#284);
#253=AXIS2_PLACEMENT_3D('',#356,#288,#289);
#254=AXIS2_PLACEMENT_3D('',#357,#290,#291);
#255=AXIS2_PLACEMENT_3D('',#362,#293,#294);
#256=AXIS2_PLACEMENT_3D('',#366,#297,#298);
#257=AXIS2_PLACEMENT_3D('',#368,#299,#300);
#258=AXIS2_PLACEMENT_3D('',#371,#302,#303);
#259=AXIS2_PLACEMENT_3D('',#373,#305,#306);
#260=AXIS2_PLACEMENT_3D('',#380,#310,#311);
#261=AXIS2_PLACEMENT_3D('',#381,#312,#313);
#262=AXIS2_PLACEMENT_3D('',#384,#316,#317);
#263=AXIS2_PLACEMENT_3D('',#388,#319,#320);
#264=AXIS2_PLACEMENT_3D('',#392,#323,#324);
#265=AXIS2_PLACEMENT_3D('',#395,#327,#328);
#266=AXIS2_PLACEMENT_3D('',#396,#329,#330);
#267=AXIS2_PLACEMENT_3D('',#397,#331,#332);
#268=AXIS2_PLACEMENT_3D('',#400,#335,#336);
#269=AXIS2_PLACEMENT_3D('',#401,#337,#338);
#270=DIRECTION('axis',(0.,0.,1.));
#271=DIRECTION('refdir',(1.,0.,0.));
#272=DIRECTION('center_axis',(-1.,0.,0.));
#273=DIRECTION('ref_axis',(0.,0.,-1.));
#274=DIRECTION('center_axis',(-1.,0.,0.));
#275=DIRECTION('ref_axis',(0.,0.,-1.));
#276=DIRECTION('',(1.,0.,0.));
#277=DIRECTION('center_axis',(1.,0.,0.));
#278=DIRECTION('ref_axis',(0.,0.,-1.));
#279=DIRECTION('center_axis',(1.,0.,0.));
#280=DIRECTION('ref_axis',(0.,0.,-1.));
#281=DIRECTION('center_axis',(1.,0.,0.));
#282=DIRECTION('ref_axis',(0.,0.,-1.));
#283=DIRECTION('center_axis',(0.,1.,0.));
#284=DIRECTION('ref_axis',(0.,0.,1.));
#285=DIRECTION('',(0.,0.,-1.));
#286=DIRECTION('',(1.,0.,0.));
#287=DIRECTION('',(0.,0.,1.));
#288=DIRECTION('center_axis',(0.,-1.,0.));
#289=DIRECTION('ref_axis',(0.399999991059303,0.,0.916515142893208));
#290=DIRECTION('center_axis',(0.,1.,0.));
#291=DIRECTION('ref_axis',(0.,0.,1.));
#292=DIRECTION('',(0.,0.,1.));
#293=DIRECTION('center_axis',(0.,-1.,0.));
#294=DIRECTION('ref_axis',(-0.400000035762787,0.,0.916515123383007));
#295=DIRECTION('',(0.,0.,1.));
#296=DIRECTION('',(1.,0.,0.));
#297=DIRECTION('center_axis',(-1.,0.,0.));
#298=DIRECTION('ref_axis',(0.,-0.707106781186547,0.707106781186547));
#299=DIRECTION('center_axis',(1.,0.,0.));
#300=DIRECTION('ref_axis',(0.,-0.707106781186547,0.707106781186547));
#301=DIRECTION('',(1.,0.,0.));
#302=DIRECTION('center_axis',(-1.,0.,0.));
#303=DIRECTION('ref_axis',(0.,0.707106781186547,0.707106781186547));
#304=DIRECTION('',(1.,0.,0.));
#305=DIRECTION('center_axis',(0.,-1.,0.));
#306=DIRECTION('ref_axis',(0.,0.,-1.));
#307=DIRECTION('',(0.,0.,-1.));
#308=DIRECTION('',(1.,0.,0.));
#309=DIRECTION('',(0.,0.,-1.));
#310=DIRECTION('center_axis',(0.,1.,0.));
#311=DIRECTION('ref_axis',(-0.400000035762787,0.,0.916515123383007));
#312=DIRECTION('center_axis',(0.,-1.,0.));
#313=DIRECTION('ref_axis',(-0.400000035762787,0.,0.916515123383007));
#314=DIRECTION('',(0.,-1.,0.));
#315=DIRECTION('',(0.,-1.,0.));
#316=DIRECTION('center_axis',(0.,-1.,0.));
#317=DIRECTION('ref_axis',(0.,0.,-1.));
#318=DIRECTION('',(0.,0.,1.));
#319=DIRECTION('center_axis',(0.,1.,0.));
#320=DIRECTION('ref_axis',(0.399999991059303,0.,0.916515142893208));
#321=DIRECTION('',(0.,0.,-1.));
#322=DIRECTION('',(1.,0.,0.));
#323=DIRECTION('center_axis',(0.,1.,0.));
#324=DIRECTION('ref_axis',(0.399999991059303,0.,0.916515142893208));
#325=DIRECTION('',(0.,1.,0.));
#326=DIRECTION('',(0.,-1.,0.));
#327=DIRECTION('center_axis',(1.,0.,0.));
#328=DIRECTION('ref_axis',(0.,-1.,0.));
#329=DIRECTION('center_axis',(-1.,0.,0.));
#330=DIRECTION('ref_axis',(0.,1.,0.));
#331=DIRECTION('center_axis',(0.,0.,-1.));
#332=DIRECTION('ref_axis',(0.,1.,0.));
#333=DIRECTION('',(0.,1.,0.));
#334=DIRECTION('',(0.,1.,0.));
#335=DIRECTION('center_axis',(1.,0.,0.));
#336=DIRECTION('ref_axis',(0.,0.,-1.));
#337=DIRECTION('center_axis',(1.,0.,0.));
#338=DIRECTION('ref_axis',(0.,0.,-1.));
#339=CARTESIAN_POINT('',(0.,0.,0.));
#340=CARTESIAN_POINT('Origin',(0.,0.,0.));
#341=CARTESIAN_POINT('',(-20.,-3.06161699786838E-16,2.5));
#342=CARTESIAN_POINT('Origin',(-20.,0.,0.));
#343=CARTESIAN_POINT('',(0.,-3.06161699786838E-16,2.5));
#344=CARTESIAN_POINT('',(0.,3.06161699786838E-16,2.5));
#345=CARTESIAN_POINT('Origin',(0.,0.,0.));
#346=CARTESIAN_POINT('Origin',(0.,0.,0.));
#347=CARTESIAN_POINT('Origin',(-20.,0.,0.));
#348=CARTESIAN_POINT('Origin',(0.,5.,-10.));
#349=CARTESIAN_POINT('',(3.00000004470348,5.,0.41742428553396));
#350=CARTESIAN_POINT('',(3.00000004470348,5.,-10.));
#351=CARTESIAN_POINT('',(3.00000004470348,5.,-2.5));
#352=CARTESIAN_POINT('',(0.,5.,-10.));
#353=CARTESIAN_POINT('',(0.,5.,-10.));
#354=CARTESIAN_POINT('',(0.,5.,5.));
#355=CARTESIAN_POINT('',(0.,5.,-10.));
#356=CARTESIAN_POINT('Origin',(-1.99999995529652,5.,0.41742428553396));
#357=CARTESIAN_POINT('Origin',(0.,5.,-10.));
#358=CARTESIAN_POINT('',(12.0000001788139,5.,-10.));
#359=CARTESIAN_POINT('',(12.0000001788139,5.,0.417424383084963));
#360=CARTESIAN_POINT('',(12.0000001788139,5.,-2.5));
#361=CARTESIAN_POINT('',(15.,5.,5.));
#362=CARTESIAN_POINT('Origin',(17.0000001788139,5.,0.417424383084963));
#363=CARTESIAN_POINT('',(15.,5.,-10.));
#364=CARTESIAN_POINT('',(15.,5.,-10.));
#365=CARTESIAN_POINT('',(0.,5.,-10.));
#366=CARTESIAN_POINT('Origin',(3.75000005587935,0.,-10.));
#367=CARTESIAN_POINT('',(12.0000001788139,-5.,-10.));
#368=CARTESIAN_POINT('Origin',(12.0000001788139,0.,-10.));
#369=CARTESIAN_POINT('',(0.,5.,-10.));
#370=CARTESIAN_POINT('',(3.00000004470348,-5.,-10.));
#371=CARTESIAN_POINT('Origin',(3.00000004470348,0.,-10.));
#372=CARTESIAN_POINT('',(0.,-5.,-10.));
#373=CARTESIAN_POINT('Origin',(0.,-5.,5.));
#374=CARTESIAN_POINT('',(12.0000001788139,-5.,0.417424383084963));
#375=CARTESIAN_POINT('',(12.0000001788139,-5.,5.));
#376=CARTESIAN_POINT('',(15.,-5.,-10.));
#377=CARTESIAN_POINT('',(0.,-5.,-10.));
#378=CARTESIAN_POINT('',(15.,-5.,5.));
#379=CARTESIAN_POINT('',(15.,-5.,10.));
#380=CARTESIAN_POINT('Origin',(17.0000001788139,-5.,0.417424383084963));
#381=CARTESIAN_POINT('Origin',(17.0000001788139,5.,0.417424383084963));
#382=CARTESIAN_POINT('',(12.0000001788139,5.,0.417424383084963));
#383=CARTESIAN_POINT('',(15.,5.,5.));
#384=CARTESIAN_POINT('Origin',(0.,-5.,5.));
#385=CARTESIAN_POINT('',(3.00000004470348,-5.,0.41742428553396));
#386=CARTESIAN_POINT('',(3.00000004470348,-5.,5.));
#387=CARTESIAN_POINT('',(0.,-5.,5.));
#388=CARTESIAN_POINT('Origin',(-1.99999995529652,-5.,0.41742428553396));
#389=CARTESIAN_POINT('',(0.,-5.,-10.));
#390=CARTESIAN_POINT('',(0.,-5.,10.));
#391=CARTESIAN_POINT('',(0.,-5.,-10.));
#392=CARTESIAN_POINT('Origin',(-1.99999995529652,5.,0.41742428553396));
#393=CARTESIAN_POINT('',(3.00000004470348,5.,0.41742428553396));
#394=CARTESIAN_POINT('',(0.,5.,5.));
#395=CARTESIAN_POINT('Origin',(12.0000001788139,5.00000007450581,5.));
#396=CARTESIAN_POINT('Origin',(3.00000004470348,-5.00000007450581,5.));
#397=CARTESIAN_POINT('Origin',(0.,-5.,-10.));
#398=CARTESIAN_POINT('',(0.,-5.,-10.));
#399=CARTESIAN_POINT('',(15.,-5.,-10.));
#400=CARTESIAN_POINT('Origin',(15.,0.,-2.5));
#401=CARTESIAN_POINT('Origin',(0.,0.,-2.5));
#402=UNCERTAINTY_MEASURE_WITH_UNIT(LENGTH_MEASURE(0.01),#406,
'DISTANCE_ACCURACY_VALUE',
'Maximum model space distance between geometric entities at asserted c
onnectivities');
#403=UNCERTAINTY_MEASURE_WITH_UNIT(LENGTH_MEASURE(0.01),#406,
'DISTANCE_ACCURACY_VALUE',
'Maximum model space distance between geometric entities at asserted c
onnectivities');
#404=(
GEOMETRIC_REPRESENTATION_CONTEXT(3)
GLOBAL_UNCERTAINTY_ASSIGNED_CONTEXT((#402))
GLOBAL_UNIT_ASSIGNED_CONTEXT((#406,#408,#409))
REPRESENTATION_CONTEXT('','3D')
);
#405=(
GEOMETRIC_REPRESENTATION_CONTEXT(3)
GLOBAL_UNCERTAINTY_ASSIGNED_CONTEXT((#403))
GLOBAL_UNIT_ASSIGNED_CONTEXT((#406,#408,#409))
REPRESENTATION_CONTEXT('','3D')
);
#406=(
LENGTH_UNIT()
NAMED_UNIT(*)
SI_UNIT(.MILLI.,.METRE.)
);
#407=(
LENGTH_UNIT()
NAMED_UNIT(*)
SI_UNIT($,.METRE.)
);
#408=(
NAMED_UNIT(*)
PLANE_ANGLE_UNIT()
SI_UNIT($,.RADIAN.)
);
#409=(
NAMED_UNIT(*)
SI_UNIT($,.STERADIAN.)
SOLID_ANGLE_UNIT()
);
#410=SHAPE_DEFINITION_REPRESENTATION(#411,#412);
#411=PRODUCT_DEFINITION_SHAPE('',$,#414);
#412=SHAPE_REPRESENTATION('',(#246),#404);
#413=PRODUCT_DEFINITION_CONTEXT('part definition',#418,'design');
#414=PRODUCT_DEFINITION('support_fils','support_fils v1',#415,#413);
#415=PRODUCT_DEFINITION_FORMATION('',$,#420);
#416=PRODUCT_RELATED_PRODUCT_CATEGORY('support_fils v1',
'support_fils v1',(#420));
#417=APPLICATION_PROTOCOL_DEFINITION('international standard',
'automotive_design',2009,#418);
#418=APPLICATION_CONTEXT(
'Core Data for Automotive Mechanical Design Process');
#419=PRODUCT_CONTEXT('part definition',#418,'mechanical');
#420=PRODUCT('support_fils','support_fils v1',$,(#419));
#421=PRESENTATION_STYLE_ASSIGNMENT((#422));
#422=SURFACE_STYLE_USAGE(.BOTH.,#423);
#423=SURFACE_SIDE_STYLE('',(#424));
#424=SURFACE_STYLE_FILL_AREA(#425);
#425=FILL_AREA_STYLE('Acier - Satin\X\E9',(#426));
#426=FILL_AREA_STYLE_COLOUR('Acier - Satin\X\E9',#427);
#427=COLOUR_RGB('Acier - Satin\X\E9',0.627450980392157,0.627450980392157,
0.627450980392157);
ENDSEC;
END-ISO-10303-21;
