ISO-10303-21;
HEADER;
/* Generated by software containing ST-Developer
 * from STEP Tools, Inc. (www.steptools.com) 
 */

FILE_DESCRIPTION(
/* description */ (''),
/* implementation_level */ '2;1');

FILE_NAME(
/* name */ 'support_tagres_central_.step',
/* time_stamp */ '2025-10-10T11:47:36+02:00',
/* author */ (''),
/* organization */ (''),
/* preprocessor_version */ 'ST-DEVELOPER v20.1',
/* originating_system */ 'Autodesk Translation Framework v14.17.0.0',
/* authorisation */ '');

FILE_SCHEMA (('AUTOMOTIVE_DESIGN { 1 0 10303 214 3 1 1 }'));
ENDSEC;

DATA;
#10=MECHANICAL_DESIGN_GEOMETRIC_PRESENTATION_REPRESENTATION('',(#13),#1469);
#11=SHAPE_REPRESENTATION_RELATIONSHIP('SRR','None',#1476,#12);
#12=ADVANCED_BREP_SHAPE_REPRESENTATION('',(#14),#1468);
#13=STYLED_ITEM('',(#1485),#14);
#14=MANIFOLD_SOLID_BREP('Corps1',#613);
#15=ELLIPSE('',#661,17.4218812633649,15.);
#16=ELLIPSE('',#662,17.4417211365029,15.);
#17=ELLIPSE('',#665,17.4218812633649,15.);
#18=ELLIPSE('',#667,17.4417211365028,15.);
#19=TOROIDAL_SURFACE('',#648,301.,1.);
#20=TOROIDAL_SURFACE('',#655,301.,1.);
#21=FACE_BOUND('',#196,.T.);
#22=FACE_BOUND('',#202,.T.);
#23=FACE_BOUND('',#214,.T.);
#24=FACE_BOUND('',#215,.T.);
#25=PLANE('',#638);
#26=PLANE('',#640);
#27=PLANE('',#644);
#28=PLANE('',#647);
#29=PLANE('',#651);
#30=PLANE('',#652);
#31=PLANE('',#657);
#32=PLANE('',#658);
#33=PLANE('',#659);
#34=PLANE('',#663);
#35=PLANE('',#664);
#36=PLANE('',#666);
#37=PLANE('',#669);
#38=PLANE('',#673);
#39=PLANE('',#676);
#40=LINE('',#960,#82);
#41=LINE('',#964,#83);
#42=LINE('',#980,#84);
#43=LINE('',#983,#85);
#44=LINE('',#986,#86);
#45=LINE('',#1005,#87);
#46=LINE('',#1089,#88);
#47=LINE('',#1093,#89);
#48=LINE('',#1109,#90);
#49=LINE('',#1113,#91);
#50=LINE('',#1204,#92);
#51=LINE('',#1206,#93);
#52=LINE('',#1210,#94);
#53=LINE('',#1321,#95);
#54=LINE('',#1325,#96);
#55=LINE('',#1326,#97);
#56=LINE('',#1331,#98);
#57=LINE('',#1332,#99);
#58=LINE('',#1335,#100);
#59=LINE('',#1341,#101);
#60=LINE('',#1343,#102);
#61=LINE('',#1344,#103);
#62=LINE('',#1358,#104);
#63=LINE('',#1361,#105);
#64=LINE('',#1364,#106);
#65=LINE('',#1365,#107);
#66=LINE('',#1367,#108);
#67=LINE('',#1384,#109);
#68=LINE('',#1385,#110);
#69=LINE('',#1387,#111);
#70=LINE('',#1390,#112);
#71=LINE('',#1391,#113);
#72=LINE('',#1394,#114);
#73=LINE('',#1395,#115);
#74=LINE('',#1421,#116);
#75=LINE('',#1425,#117);
#76=LINE('',#1428,#118);
#77=LINE('',#1452,#119);
#78=LINE('',#1453,#120);
#79=LINE('',#1460,#121);
#80=LINE('',#1462,#122);
#81=LINE('',#1464,#123);
#82=VECTOR('',#683,10.);
#83=VECTOR('',#686,10.);
#84=VECTOR('',#689,10.);
#85=VECTOR('',#692,10.);
#86=VECTOR('',#695,10.);
#87=VECTOR('',#696,10.);
#88=VECTOR('',#699,10.);
#89=VECTOR('',#702,10.);
#90=VECTOR('',#705,10.);
#91=VECTOR('',#708,10.);
#92=VECTOR('',#713,10.);
#93=VECTOR('',#714,10.);
#94=VECTOR('',#717,10.);
#95=VECTOR('',#720,10.);
#96=VECTOR('',#723,10.);
#97=VECTOR('',#724,10.);
#98=VECTOR('',#729,10.);
#99=VECTOR('',#730,10.);
#100=VECTOR('',#733,10.);
#101=VECTOR('',#740,10.);
#102=VECTOR('',#741,10.);
#103=VECTOR('',#742,10.);
#104=VECTOR('',#747,10.);
#105=VECTOR('',#750,10.);
#106=VECTOR('',#753,10.);
#107=VECTOR('',#754,10.);
#108=VECTOR('',#755,10.);
#109=VECTOR('',#766,10.);
#110=VECTOR('',#767,10.);
#111=VECTOR('',#770,10.);
#112=VECTOR('',#773,10.);
#113=VECTOR('',#774,10.);
#114=VECTOR('',#777,10.);
#115=VECTOR('',#778,10.);
#116=VECTOR('',#787,10.);
#117=VECTOR('',#792,10.);
#118=VECTOR('',#795,10.);
#119=VECTOR('',#802,10.);
#120=VECTOR('',#803,10.);
#121=VECTOR('',#812,10.);
#122=VECTOR('',#815,1.49999999999999);
#123=VECTOR('',#818,1.49999999999999);
#124=CIRCLE('',#628,300.);
#125=CIRCLE('',#629,300.);
#126=CIRCLE('',#630,300.);
#127=CIRCLE('',#631,300.);
#128=CIRCLE('',#634,300.);
#129=CIRCLE('',#635,300.);
#130=CIRCLE('',#636,300.);
#131=CIRCLE('',#637,300.);
#132=CIRCLE('',#639,1.);
#133=CIRCLE('',#641,1.);
#134=CIRCLE('',#643,1.);
#135=CIRCLE('',#645,301.);
#136=CIRCLE('',#646,1.49999999999999);
#137=CIRCLE('',#650,1.);
#138=CIRCLE('',#653,301.);
#139=CIRCLE('',#654,1.49999999999999);
#140=CIRCLE('',#670,1.49999999999999);
#141=CIRCLE('',#671,1.49999999999999);
#142=CYLINDRICAL_SURFACE('',#627,300.);
#143=CYLINDRICAL_SURFACE('',#632,1.);
#144=CYLINDRICAL_SURFACE('',#633,300.);
#145=CYLINDRICAL_SURFACE('',#642,1.);
#146=CYLINDRICAL_SURFACE('',#649,1.);
#147=CYLINDRICAL_SURFACE('',#656,1.);
#148=CYLINDRICAL_SURFACE('',#660,15.);
#149=CYLINDRICAL_SURFACE('',#668,3.16666666666667);
#150=CYLINDRICAL_SURFACE('',#672,15.);
#151=CYLINDRICAL_SURFACE('',#674,1.49999999999999);
#152=CYLINDRICAL_SURFACE('',#675,1.49999999999999);
#153=FACE_OUTER_BOUND('',#185,.T.);
#154=FACE_OUTER_BOUND('',#186,.T.);
#155=FACE_OUTER_BOUND('',#187,.T.);
#156=FACE_OUTER_BOUND('',#188,.T.);
#157=FACE_OUTER_BOUND('',#189,.T.);
#158=FACE_OUTER_BOUND('',#190,.T.);
#159=FACE_OUTER_BOUND('',#191,.T.);
#160=FACE_OUTER_BOUND('',#192,.T.);
#161=FACE_OUTER_BOUND('',#193,.T.);
#162=FACE_OUTER_BOUND('',#194,.T.);
#163=FACE_OUTER_BOUND('',#195,.T.);
#164=FACE_OUTER_BOUND('',#197,.T.);
#165=FACE_OUTER_BOUND('',#198,.T.);
#166=FACE_OUTER_BOUND('',#199,.T.);
#167=FACE_OUTER_BOUND('',#200,.T.);
#168=FACE_OUTER_BOUND('',#201,.T.);
#169=FACE_OUTER_BOUND('',#203,.T.);
#170=FACE_OUTER_BOUND('',#204,.T.);
#171=FACE_OUTER_BOUND('',#205,.T.);
#172=FACE_OUTER_BOUND('',#206,.T.);
#173=FACE_OUTER_BOUND('',#207,.T.);
#174=FACE_OUTER_BOUND('',#208,.T.);
#175=FACE_OUTER_BOUND('',#209,.T.);
#176=FACE_OUTER_BOUND('',#210,.T.);
#177=FACE_OUTER_BOUND('',#211,.T.);
#178=FACE_OUTER_BOUND('',#212,.T.);
#179=FACE_OUTER_BOUND('',#213,.T.);
#180=FACE_OUTER_BOUND('',#216,.T.);
#181=FACE_OUTER_BOUND('',#217,.T.);
#182=FACE_OUTER_BOUND('',#218,.T.);
#183=FACE_OUTER_BOUND('',#219,.T.);
#184=FACE_OUTER_BOUND('',#220,.T.);
#185=EDGE_LOOP('',(#397,#398,#399,#400));
#186=EDGE_LOOP('',(#401,#402,#403,#404,#405,#406,#407,#408,#409,#410,#411,
#412));
#187=EDGE_LOOP('',(#413,#414,#415,#416,#417,#418));
#188=EDGE_LOOP('',(#419,#420,#421,#422));
#189=EDGE_LOOP('',(#423,#424,#425,#426,#427,#428,#429,#430,#431,#432,#433,
#434));
#190=EDGE_LOOP('',(#435,#436,#437,#438));
#191=EDGE_LOOP('',(#439,#440,#441,#442,#443,#444,#445));
#192=EDGE_LOOP('',(#446,#447,#448,#449));
#193=EDGE_LOOP('',(#450,#451,#452,#453,#454,#455,#456));
#194=EDGE_LOOP('',(#457,#458,#459,#460));
#195=EDGE_LOOP('',(#461,#462,#463,#464));
#196=EDGE_LOOP('',(#465));
#197=EDGE_LOOP('',(#466,#467,#468,#469,#470,#471));
#198=EDGE_LOOP('',(#472,#473,#474,#475));
#199=EDGE_LOOP('',(#476,#477,#478,#479));
#200=EDGE_LOOP('',(#480,#481,#482,#483,#484,#485,#486));
#201=EDGE_LOOP('',(#487,#488,#489,#490));
#202=EDGE_LOOP('',(#491));
#203=EDGE_LOOP('',(#492,#493,#494,#495));
#204=EDGE_LOOP('',(#496,#497,#498,#499,#500,#501));
#205=EDGE_LOOP('',(#502,#503,#504,#505));
#206=EDGE_LOOP('',(#506,#507,#508,#509));
#207=EDGE_LOOP('',(#510,#511,#512,#513,#514,#515,#516));
#208=EDGE_LOOP('',(#517,#518,#519,#520,#521,#522,#523,#524));
#209=EDGE_LOOP('',(#525,#526,#527,#528));
#210=EDGE_LOOP('',(#529,#530,#531,#532,#533,#534));
#211=EDGE_LOOP('',(#535,#536,#537,#538,#539,#540));
#212=EDGE_LOOP('',(#541,#542,#543,#544));
#213=EDGE_LOOP('',(#545,#546,#547,#548,#549,#550));
#214=EDGE_LOOP('',(#551));
#215=EDGE_LOOP('',(#552));
#216=EDGE_LOOP('',(#553,#554,#555,#556,#557,#558,#559,#560));
#217=EDGE_LOOP('',(#561,#562,#563,#564));
#218=EDGE_LOOP('',(#565,#566,#567,#568));
#219=EDGE_LOOP('',(#569,#570,#571,#572));
#220=EDGE_LOOP('',(#573,#574,#575,#576));
#221=B_SPLINE_CURVE_WITH_KNOTS('',3,(#854,#855,#856,#857,#858,#859,#860,
#861,#862,#863,#864,#865,#866,#867,#868,#869,#870,#871,#872,#873,#874,#875,
#876,#877,#878,#879,#880,#881,#882,#883,#884,#885,#886,#887,#888,#889,#890,
#891,#892,#893,#894,#895,#896,#897,#898,#899),.UNSPECIFIED.,.F.,.F.,(4,
3,3,3,3,3,3,3,3,3,3,3,3,3,3,4),(-0.000629545394426209,2.16840434497101E-18,
0.0183862117260724,0.0362775059209918,0.0392380423235134,0.05576571058996,
0.0709241209325211,0.0722933788564067,0.0768434263179486,0.0910944451170971,
0.104835321842194,0.11790604923366,0.122351460356536,0.134498741053041,
0.146030074223033,0.15567899724541),.UNSPECIFIED.);
#222=B_SPLINE_CURVE_WITH_KNOTS('',3,(#901,#902,#903,#904,#905,#906),
 .UNSPECIFIED.,.F.,.F.,(4,1,1,4),(0.104522558489173,0.70954586243509,1.31456916638101,
2.22030597850562),.UNSPECIFIED.);
#223=B_SPLINE_CURVE_WITH_KNOTS('',3,(#908,#909,#910,#911,#912,#913,#914,
#915,#916,#917,#918,#919,#920,#921,#922,#923,#924,#925,#926,#927,#928,#929,
#930,#931,#932,#933,#934,#935,#936,#937,#938,#939,#940,#941,#942,#943,#944),
 .UNSPECIFIED.,.F.,.F.,(4,3,3,3,3,3,3,3,3,3,3,3,4),(0.,0.0135763311589026,
0.0270055067269402,0.039613127986388,0.0531025934823208,0.0663025949512825,
0.0766535891689751,0.0866881709205936,0.0998883192013662,0.11307440297553,
0.126162001655604,0.139763715597617,0.152296957934527),.UNSPECIFIED.);
#224=B_SPLINE_CURVE_WITH_KNOTS('',3,(#945,#946,#947,#948,#949,#950),
 .UNSPECIFIED.,.F.,.F.,(4,1,1,4),(-2.22210412229988,-1.31456916638101,-0.70954586243509,
-0.200270341272723),.UNSPECIFIED.);
#225=B_SPLINE_CURVE_WITH_KNOTS('',3,(#953,#954,#955,#956),.UNSPECIFIED.,
 .F.,.F.,(4,4),(0.155021324261787,0.185036780432468),.UNSPECIFIED.);
#226=B_SPLINE_CURVE_WITH_KNOTS('',3,(#968,#969,#970,#971),.UNSPECIFIED.,
 .F.,.F.,(4,4),(0.434881434734962,0.464896890905642),.UNSPECIFIED.);
#227=B_SPLINE_CURVE_WITH_KNOTS('',3,(#973,#974,#975,#976,#977,#978),
 .UNSPECIFIED.,.F.,.F.,(4,1,1,4),(3.10440246223637,4.01013927436165,4.61516257830757,
5.22018588225349),.UNSPECIFIED.);
#228=B_SPLINE_CURVE_WITH_KNOTS('',3,(#988,#989,#990,#991,#992,#993,#994,
#995,#996,#997,#998,#999),.UNSPECIFIED.,.F.,.F.,(4,2,2,2,2,4),(0.,0.0330655667511194,
0.0782158862155452,0.115525674156552,0.154455286948481,0.155079883824547),
 .UNSPECIFIED.);
#229=B_SPLINE_CURVE_WITH_KNOTS('',3,(#1001,#1002,#1003,#1004),
 .UNSPECIFIED.,.F.,.F.,(4,4),(0.434884011822613,0.464899467993291),
 .UNSPECIFIED.);
#230=B_SPLINE_CURVE_WITH_KNOTS('',3,(#1037,#1038,#1039,#1040,#1041,#1042),
 .UNSPECIFIED.,.F.,.F.,(4,1,1,4),(-5.12443883914001,-4.61516333306962,-4.01014005511268,
-3.10260513817727),.UNSPECIFIED.);
#231=B_SPLINE_CURVE_WITH_KNOTS('',3,(#1044,#1045,#1046,#1047,#1048,#1049,
#1050,#1051,#1052,#1053,#1054,#1055,#1056,#1057,#1058,#1059,#1060,#1061,
#1062,#1063,#1064,#1065,#1066,#1067,#1068,#1069,#1070,#1071,#1072,#1073,
#1074,#1075,#1076,#1077,#1078,#1079,#1080),.UNSPECIFIED.,.F.,.F.,(4,3,3,
3,3,3,3,3,3,3,3,3,4),(0.,0.0136434829110626,0.0268528498313505,0.039771102265863,
0.0529941288266055,0.0656356947613485,0.0770381763832887,0.0901607873858098,
0.103641862712604,0.113376691419378,0.126732550739295,0.140331117825455,
0.152341169557661),.UNSPECIFIED.);
#232=B_SPLINE_CURVE_WITH_KNOTS('',3,(#1081,#1082,#1083,#1084,#1085,#1086),
 .UNSPECIFIED.,.F.,.F.,(4,1,1,4),(3.10440328165965,4.01014005511268,4.61516333306962,
5.22018661102656),.UNSPECIFIED.);
#233=B_SPLINE_CURVE_WITH_KNOTS('',3,(#1095,#1096,#1097,#1098,#1099,#1100),
 .UNSPECIFIED.,.F.,.F.,(4,1,1,4),(0.104523322756533,0.709546600713476,1.31456987867042,
2.22030665212413),.UNSPECIFIED.);
#234=B_SPLINE_CURVE_WITH_KNOTS('',3,(#1102,#1103,#1104,#1105),
 .UNSPECIFIED.,.F.,.F.,(4,4),(0.155021324261786,0.185036780432464),
 .UNSPECIFIED.);
#235=B_SPLINE_CURVE_WITH_KNOTS('',3,(#1146,#1147,#1148,#1149,#1150,#1151,
#1152,#1153,#1154,#1155,#1156,#1157),.UNSPECIFIED.,.F.,.F.,(4,2,2,2,2,4),
(0.,0.033065566745855,0.0782158861946582,0.115525674152216,0.154455286975174,
0.155079883845299),.UNSPECIFIED.);
#236=B_SPLINE_CURVE_WITH_KNOTS('',3,(#1159,#1160,#1161,#1162,#1163,#1164),
 .UNSPECIFIED.,.F.,.F.,(4,1,1,4),(-5.12443810941896,-4.61516257830757,-4.01013927436165,
-3.10260431844278),.UNSPECIFIED.);
#237=B_SPLINE_CURVE_WITH_KNOTS('',3,(#1165,#1166,#1167,#1168,#1169,#1170,
#1171,#1172,#1173,#1174,#1175,#1176,#1177,#1178,#1179,#1180,#1181,#1182,
#1183,#1184,#1185,#1186,#1187,#1188,#1189,#1190,#1191,#1192,#1193,#1194,
#1195,#1196,#1197,#1198,#1199,#1200,#1201),.UNSPECIFIED.,.F.,.F.,(4,3,3,
3,3,3,3,3,3,3,3,3,4),(0.,0.0136434801555784,0.0268528280022311,0.0397711022657327,
0.0529941154682185,0.0656356947613183,0.0770381763846543,0.0901607726051595,
0.103641843455641,0.113376691420385,0.126732538606433,0.140331104471168,
0.152341169557614),.UNSPECIFIED.);
#238=B_SPLINE_CURVE_WITH_KNOTS('',3,(#1211,#1212,#1213,#1214,#1215,#1216,
#1217,#1218,#1219,#1220),.UNSPECIFIED.,.F.,.F.,(4,2,2,2,4),(0.151244403816902,
0.190354872996789,0.22865232950953,0.265976846998184,0.302507984382972),
 .UNSPECIFIED.);
#239=B_SPLINE_CURVE_WITH_KNOTS('',3,(#1252,#1253,#1254,#1255,#1256,#1257,
#1258,#1259,#1260,#1261,#1262,#1263),.UNSPECIFIED.,.F.,.F.,(4,2,2,2,2,4),
(-0.000629545396943028,0.,0.039238042356164,0.076843426377105,0.122351460483333,
0.155678997415555),.UNSPECIFIED.);
#240=B_SPLINE_CURVE_WITH_KNOTS('',3,(#1265,#1266,#1267,#1268,#1269,#1270,
#1271,#1272,#1273,#1274,#1275,#1276,#1277,#1278,#1279,#1280,#1281,#1282,
#1283,#1284,#1285,#1286,#1287,#1288,#1289,#1290,#1291,#1292,#1293,#1294,
#1295,#1296,#1297,#1298,#1299,#1300,#1301),.UNSPECIFIED.,.F.,.F.,(4,3,3,
3,3,3,3,3,3,3,3,3,4),(0.,0.0135763318677282,0.0270054970485258,0.039613127984019,
0.0531025910619691,0.0663025789350459,0.07665358916554,0.0866881709205423,
0.0998883051665124,0.113074402972632,0.126161980597521,0.139763687902979,
0.152296957934449),.UNSPECIFIED.);
#241=B_SPLINE_CURVE_WITH_KNOTS('',3,(#1302,#1303,#1304,#1305,#1306,#1307),
 .UNSPECIFIED.,.F.,.F.,(4,1,1,4),(-2.22210479560583,-1.31456987867042,-0.709546600713476,
-0.200271084690444),.UNSPECIFIED.);
#242=B_SPLINE_CURVE_WITH_KNOTS('',3,(#1310,#1311,#1312,#1313,#1314,#1315,
#1316,#1317,#1318,#1319),.UNSPECIFIED.,.F.,.F.,(4,2,2,2,4),(0.302507984382973,
0.339039121767762,0.376363639256416,0.414661095769157,0.453771564949043),
 .UNSPECIFIED.);
#243=B_SPLINE_CURVE_WITH_KNOTS('',3,(#1346,#1347,#1348,#1349,#1350,#1351,
#1352,#1353,#1354,#1355),.UNSPECIFIED.,.F.,.F.,(4,2,2,2,4),(0.302507984382973,
0.339039121767762,0.376363639256416,0.414661095769157,0.453771564949043),
 .UNSPECIFIED.);
#244=B_SPLINE_CURVE_WITH_KNOTS('',3,(#1368,#1369,#1370,#1371,#1372,#1373,
#1374,#1375,#1376,#1377),.UNSPECIFIED.,.F.,.F.,(4,2,2,2,4),(0.151244403816902,
0.190354872996789,0.22865232950953,0.265976846998184,0.302507984382972),
 .UNSPECIFIED.);
#245=B_SPLINE_CURVE_WITH_KNOTS('',3,(#1400,#1401,#1402,#1403,#1404,#1405,
#1406,#1407,#1408,#1409,#1410,#1411,#1412,#1413,#1414,#1415,#1416,#1417,
#1418),.UNSPECIFIED.,.F.,.F.,(4,2,2,2,3,2,2,2,4),(-0.449364440068815,-0.375093620834142,
-0.235446238752144,-0.117723119376072,0.,0.121812581603262,0.243625163206523,
0.37917842375668,0.456982661400057),.UNSPECIFIED.);
#246=B_SPLINE_CURVE_WITH_KNOTS('',3,(#1431,#1432,#1433,#1434,#1435,#1436,
#1437,#1438,#1439,#1440,#1441,#1442,#1443,#1444,#1445,#1446,#1447,#1448,
#1449),.UNSPECIFIED.,.F.,.F.,(4,2,2,2,3,2,2,2,4),(-0.456982661400058,-0.37917842375668,
-0.243625163206524,-0.121812581603262,0.,0.117723119376072,0.235446238752144,
0.375093620834141,0.449364440068813),.UNSPECIFIED.);
#247=VERTEX_POINT('',#852);
#248=VERTEX_POINT('',#853);
#249=VERTEX_POINT('',#900);
#250=VERTEX_POINT('',#907);
#251=VERTEX_POINT('',#952);
#252=VERTEX_POINT('',#957);
#253=VERTEX_POINT('',#959);
#254=VERTEX_POINT('',#961);
#255=VERTEX_POINT('',#963);
#256=VERTEX_POINT('',#965);
#257=VERTEX_POINT('',#967);
#258=VERTEX_POINT('',#972);
#259=VERTEX_POINT('',#979);
#260=VERTEX_POINT('',#981);
#261=VERTEX_POINT('',#985);
#262=VERTEX_POINT('',#987);
#263=VERTEX_POINT('',#1000);
#264=VERTEX_POINT('',#1036);
#265=VERTEX_POINT('',#1043);
#266=VERTEX_POINT('',#1088);
#267=VERTEX_POINT('',#1090);
#268=VERTEX_POINT('',#1092);
#269=VERTEX_POINT('',#1094);
#270=VERTEX_POINT('',#1101);
#271=VERTEX_POINT('',#1106);
#272=VERTEX_POINT('',#1108);
#273=VERTEX_POINT('',#1110);
#274=VERTEX_POINT('',#1112);
#275=VERTEX_POINT('',#1145);
#276=VERTEX_POINT('',#1158);
#277=VERTEX_POINT('',#1203);
#278=VERTEX_POINT('',#1205);
#279=VERTEX_POINT('',#1207);
#280=VERTEX_POINT('',#1209);
#281=VERTEX_POINT('',#1251);
#282=VERTEX_POINT('',#1264);
#283=VERTEX_POINT('',#1309);
#284=VERTEX_POINT('',#1320);
#285=VERTEX_POINT('',#1322);
#286=VERTEX_POINT('',#1324);
#287=VERTEX_POINT('',#1328);
#288=VERTEX_POINT('',#1329);
#289=VERTEX_POINT('',#1334);
#290=VERTEX_POINT('',#1337);
#291=VERTEX_POINT('',#1340);
#292=VERTEX_POINT('',#1342);
#293=VERTEX_POINT('',#1357);
#294=VERTEX_POINT('',#1359);
#295=VERTEX_POINT('',#1363);
#296=VERTEX_POINT('',#1366);
#297=VERTEX_POINT('',#1380);
#298=VERTEX_POINT('',#1389);
#299=VERTEX_POINT('',#1393);
#300=VERTEX_POINT('',#1397);
#301=VERTEX_POINT('',#1399);
#302=VERTEX_POINT('',#1423);
#303=VERTEX_POINT('',#1427);
#304=VERTEX_POINT('',#1451);
#305=VERTEX_POINT('',#1454);
#306=VERTEX_POINT('',#1456);
#307=EDGE_CURVE('',#247,#248,#221,.T.);
#308=EDGE_CURVE('',#248,#249,#222,.T.);
#309=EDGE_CURVE('',#249,#250,#223,.T.);
#310=EDGE_CURVE('',#250,#247,#224,.T.);
#311=EDGE_CURVE('',#251,#248,#225,.T.);
#312=EDGE_CURVE('',#252,#251,#124,.T.);
#313=EDGE_CURVE('',#253,#252,#40,.T.);
#314=EDGE_CURVE('',#254,#253,#125,.T.);
#315=EDGE_CURVE('',#255,#254,#41,.T.);
#316=EDGE_CURVE('',#256,#255,#126,.T.);
#317=EDGE_CURVE('',#257,#256,#226,.T.);
#318=EDGE_CURVE('',#258,#257,#227,.T.);
#319=EDGE_CURVE('',#259,#258,#42,.T.);
#320=EDGE_CURVE('',#260,#259,#127,.T.);
#321=EDGE_CURVE('',#249,#260,#43,.T.);
#322=EDGE_CURVE('',#247,#261,#44,.T.);
#323=EDGE_CURVE('',#262,#261,#228,.T.);
#324=EDGE_CURVE('',#262,#263,#229,.T.);
#325=EDGE_CURVE('',#263,#251,#45,.T.);
#326=EDGE_CURVE('',#261,#264,#230,.T.);
#327=EDGE_CURVE('',#264,#265,#231,.T.);
#328=EDGE_CURVE('',#265,#262,#232,.T.);
#329=EDGE_CURVE('',#266,#265,#46,.T.);
#330=EDGE_CURVE('',#267,#266,#128,.T.);
#331=EDGE_CURVE('',#268,#267,#47,.T.);
#332=EDGE_CURVE('',#269,#268,#233,.T.);
#333=EDGE_CURVE('',#270,#269,#234,.T.);
#334=EDGE_CURVE('',#271,#270,#129,.T.);
#335=EDGE_CURVE('',#272,#271,#48,.T.);
#336=EDGE_CURVE('',#273,#272,#130,.T.);
#337=EDGE_CURVE('',#274,#273,#49,.T.);
#338=EDGE_CURVE('',#263,#274,#131,.T.);
#339=EDGE_CURVE('',#257,#275,#235,.T.);
#340=EDGE_CURVE('',#275,#276,#236,.T.);
#341=EDGE_CURVE('',#276,#258,#237,.T.);
#342=EDGE_CURVE('',#276,#277,#50,.T.);
#343=EDGE_CURVE('',#277,#278,#51,.T.);
#344=EDGE_CURVE('',#278,#279,#132,.T.);
#345=EDGE_CURVE('',#280,#279,#52,.T.);
#346=EDGE_CURVE('',#259,#280,#238,.F.);
#347=EDGE_CURVE('',#281,#269,#239,.T.);
#348=EDGE_CURVE('',#268,#282,#240,.T.);
#349=EDGE_CURVE('',#282,#281,#241,.T.);
#350=EDGE_CURVE('',#283,#267,#242,.F.);
#351=EDGE_CURVE('',#284,#283,#53,.T.);
#352=EDGE_CURVE('',#284,#285,#133,.T.);
#353=EDGE_CURVE('',#285,#286,#54,.T.);
#354=EDGE_CURVE('',#286,#282,#55,.T.);
#355=EDGE_CURVE('',#287,#288,#134,.T.);
#356=EDGE_CURVE('',#287,#279,#56,.T.);
#357=EDGE_CURVE('',#278,#288,#57,.T.);
#358=EDGE_CURVE('',#287,#289,#58,.T.);
#359=EDGE_CURVE('',#280,#289,#135,.T.);
#360=EDGE_CURVE('',#290,#290,#136,.T.);
#361=EDGE_CURVE('',#274,#291,#59,.T.);
#362=EDGE_CURVE('',#291,#292,#60,.T.);
#363=EDGE_CURVE('',#292,#252,#61,.T.);
#364=EDGE_CURVE('',#289,#260,#243,.F.);
#365=EDGE_CURVE('',#284,#293,#62,.T.);
#366=EDGE_CURVE('',#294,#293,#137,.T.);
#367=EDGE_CURVE('',#294,#285,#63,.T.);
#368=EDGE_CURVE('',#264,#295,#64,.T.);
#369=EDGE_CURVE('',#295,#294,#65,.T.);
#370=EDGE_CURVE('',#296,#293,#66,.T.);
#371=EDGE_CURVE('',#266,#296,#244,.F.);
#372=EDGE_CURVE('',#296,#283,#138,.T.);
#373=EDGE_CURVE('',#297,#297,#139,.T.);
#374=EDGE_CURVE('',#256,#270,#67,.T.);
#375=EDGE_CURVE('',#281,#275,#68,.T.);
#376=EDGE_CURVE('',#255,#271,#69,.T.);
#377=EDGE_CURVE('',#253,#298,#70,.T.);
#378=EDGE_CURVE('',#298,#292,#71,.T.);
#379=EDGE_CURVE('',#288,#299,#72,.T.);
#380=EDGE_CURVE('',#299,#250,#73,.T.);
#381=EDGE_CURVE('',#286,#300,#15,.T.);
#382=EDGE_CURVE('',#300,#301,#245,.T.);
#383=EDGE_CURVE('',#301,#277,#16,.T.);
#384=EDGE_CURVE('',#254,#272,#74,.T.);
#385=EDGE_CURVE('',#302,#295,#17,.T.);
#386=EDGE_CURVE('',#302,#300,#75,.T.);
#387=EDGE_CURVE('',#303,#301,#76,.T.);
#388=EDGE_CURVE('',#299,#303,#18,.T.);
#389=EDGE_CURVE('',#303,#302,#246,.T.);
#390=EDGE_CURVE('',#298,#304,#77,.T.);
#391=EDGE_CURVE('',#304,#273,#78,.T.);
#392=EDGE_CURVE('',#305,#305,#140,.T.);
#393=EDGE_CURVE('',#306,#306,#141,.T.);
#394=EDGE_CURVE('',#304,#291,#79,.T.);
#395=EDGE_CURVE('',#306,#290,#80,.T.);
#396=EDGE_CURVE('',#305,#297,#81,.T.);
#397=ORIENTED_EDGE('',*,*,#307,.T.);
#398=ORIENTED_EDGE('',*,*,#308,.T.);
#399=ORIENTED_EDGE('',*,*,#309,.T.);
#400=ORIENTED_EDGE('',*,*,#310,.T.);
#401=ORIENTED_EDGE('',*,*,#308,.F.);
#402=ORIENTED_EDGE('',*,*,#311,.F.);
#403=ORIENTED_EDGE('',*,*,#312,.F.);
#404=ORIENTED_EDGE('',*,*,#313,.F.);
#405=ORIENTED_EDGE('',*,*,#314,.F.);
#406=ORIENTED_EDGE('',*,*,#315,.F.);
#407=ORIENTED_EDGE('',*,*,#316,.F.);
#408=ORIENTED_EDGE('',*,*,#317,.F.);
#409=ORIENTED_EDGE('',*,*,#318,.F.);
#410=ORIENTED_EDGE('',*,*,#319,.F.);
#411=ORIENTED_EDGE('',*,*,#320,.F.);
#412=ORIENTED_EDGE('',*,*,#321,.F.);
#413=ORIENTED_EDGE('',*,*,#307,.F.);
#414=ORIENTED_EDGE('',*,*,#322,.T.);
#415=ORIENTED_EDGE('',*,*,#323,.F.);
#416=ORIENTED_EDGE('',*,*,#324,.T.);
#417=ORIENTED_EDGE('',*,*,#325,.T.);
#418=ORIENTED_EDGE('',*,*,#311,.T.);
#419=ORIENTED_EDGE('',*,*,#323,.T.);
#420=ORIENTED_EDGE('',*,*,#326,.T.);
#421=ORIENTED_EDGE('',*,*,#327,.T.);
#422=ORIENTED_EDGE('',*,*,#328,.T.);
#423=ORIENTED_EDGE('',*,*,#328,.F.);
#424=ORIENTED_EDGE('',*,*,#329,.F.);
#425=ORIENTED_EDGE('',*,*,#330,.F.);
#426=ORIENTED_EDGE('',*,*,#331,.F.);
#427=ORIENTED_EDGE('',*,*,#332,.F.);
#428=ORIENTED_EDGE('',*,*,#333,.F.);
#429=ORIENTED_EDGE('',*,*,#334,.F.);
#430=ORIENTED_EDGE('',*,*,#335,.F.);
#431=ORIENTED_EDGE('',*,*,#336,.F.);
#432=ORIENTED_EDGE('',*,*,#337,.F.);
#433=ORIENTED_EDGE('',*,*,#338,.F.);
#434=ORIENTED_EDGE('',*,*,#324,.F.);
#435=ORIENTED_EDGE('',*,*,#339,.T.);
#436=ORIENTED_EDGE('',*,*,#340,.T.);
#437=ORIENTED_EDGE('',*,*,#341,.T.);
#438=ORIENTED_EDGE('',*,*,#318,.T.);
#439=ORIENTED_EDGE('',*,*,#341,.F.);
#440=ORIENTED_EDGE('',*,*,#342,.T.);
#441=ORIENTED_EDGE('',*,*,#343,.T.);
#442=ORIENTED_EDGE('',*,*,#344,.T.);
#443=ORIENTED_EDGE('',*,*,#345,.F.);
#444=ORIENTED_EDGE('',*,*,#346,.F.);
#445=ORIENTED_EDGE('',*,*,#319,.T.);
#446=ORIENTED_EDGE('',*,*,#347,.T.);
#447=ORIENTED_EDGE('',*,*,#332,.T.);
#448=ORIENTED_EDGE('',*,*,#348,.T.);
#449=ORIENTED_EDGE('',*,*,#349,.T.);
#450=ORIENTED_EDGE('',*,*,#348,.F.);
#451=ORIENTED_EDGE('',*,*,#331,.T.);
#452=ORIENTED_EDGE('',*,*,#350,.F.);
#453=ORIENTED_EDGE('',*,*,#351,.F.);
#454=ORIENTED_EDGE('',*,*,#352,.T.);
#455=ORIENTED_EDGE('',*,*,#353,.T.);
#456=ORIENTED_EDGE('',*,*,#354,.T.);
#457=ORIENTED_EDGE('',*,*,#355,.F.);
#458=ORIENTED_EDGE('',*,*,#356,.T.);
#459=ORIENTED_EDGE('',*,*,#344,.F.);
#460=ORIENTED_EDGE('',*,*,#357,.T.);
#461=ORIENTED_EDGE('',*,*,#356,.F.);
#462=ORIENTED_EDGE('',*,*,#358,.T.);
#463=ORIENTED_EDGE('',*,*,#359,.F.);
#464=ORIENTED_EDGE('',*,*,#345,.T.);
#465=ORIENTED_EDGE('',*,*,#360,.T.);
#466=ORIENTED_EDGE('',*,*,#325,.F.);
#467=ORIENTED_EDGE('',*,*,#338,.T.);
#468=ORIENTED_EDGE('',*,*,#361,.T.);
#469=ORIENTED_EDGE('',*,*,#362,.T.);
#470=ORIENTED_EDGE('',*,*,#363,.T.);
#471=ORIENTED_EDGE('',*,*,#312,.T.);
#472=ORIENTED_EDGE('',*,*,#364,.T.);
#473=ORIENTED_EDGE('',*,*,#320,.T.);
#474=ORIENTED_EDGE('',*,*,#346,.T.);
#475=ORIENTED_EDGE('',*,*,#359,.T.);
#476=ORIENTED_EDGE('',*,*,#352,.F.);
#477=ORIENTED_EDGE('',*,*,#365,.T.);
#478=ORIENTED_EDGE('',*,*,#366,.F.);
#479=ORIENTED_EDGE('',*,*,#367,.T.);
#480=ORIENTED_EDGE('',*,*,#327,.F.);
#481=ORIENTED_EDGE('',*,*,#368,.T.);
#482=ORIENTED_EDGE('',*,*,#369,.T.);
#483=ORIENTED_EDGE('',*,*,#366,.T.);
#484=ORIENTED_EDGE('',*,*,#370,.F.);
#485=ORIENTED_EDGE('',*,*,#371,.F.);
#486=ORIENTED_EDGE('',*,*,#329,.T.);
#487=ORIENTED_EDGE('',*,*,#365,.F.);
#488=ORIENTED_EDGE('',*,*,#351,.T.);
#489=ORIENTED_EDGE('',*,*,#372,.F.);
#490=ORIENTED_EDGE('',*,*,#370,.T.);
#491=ORIENTED_EDGE('',*,*,#373,.T.);
#492=ORIENTED_EDGE('',*,*,#350,.T.);
#493=ORIENTED_EDGE('',*,*,#330,.T.);
#494=ORIENTED_EDGE('',*,*,#371,.T.);
#495=ORIENTED_EDGE('',*,*,#372,.T.);
#496=ORIENTED_EDGE('',*,*,#339,.F.);
#497=ORIENTED_EDGE('',*,*,#317,.T.);
#498=ORIENTED_EDGE('',*,*,#374,.T.);
#499=ORIENTED_EDGE('',*,*,#333,.T.);
#500=ORIENTED_EDGE('',*,*,#347,.F.);
#501=ORIENTED_EDGE('',*,*,#375,.T.);
#502=ORIENTED_EDGE('',*,*,#374,.F.);
#503=ORIENTED_EDGE('',*,*,#316,.T.);
#504=ORIENTED_EDGE('',*,*,#376,.T.);
#505=ORIENTED_EDGE('',*,*,#334,.T.);
#506=ORIENTED_EDGE('',*,*,#377,.F.);
#507=ORIENTED_EDGE('',*,*,#313,.T.);
#508=ORIENTED_EDGE('',*,*,#363,.F.);
#509=ORIENTED_EDGE('',*,*,#378,.F.);
#510=ORIENTED_EDGE('',*,*,#309,.F.);
#511=ORIENTED_EDGE('',*,*,#321,.T.);
#512=ORIENTED_EDGE('',*,*,#364,.F.);
#513=ORIENTED_EDGE('',*,*,#358,.F.);
#514=ORIENTED_EDGE('',*,*,#355,.T.);
#515=ORIENTED_EDGE('',*,*,#379,.T.);
#516=ORIENTED_EDGE('',*,*,#380,.T.);
#517=ORIENTED_EDGE('',*,*,#340,.F.);
#518=ORIENTED_EDGE('',*,*,#375,.F.);
#519=ORIENTED_EDGE('',*,*,#349,.F.);
#520=ORIENTED_EDGE('',*,*,#354,.F.);
#521=ORIENTED_EDGE('',*,*,#381,.T.);
#522=ORIENTED_EDGE('',*,*,#382,.T.);
#523=ORIENTED_EDGE('',*,*,#383,.T.);
#524=ORIENTED_EDGE('',*,*,#342,.F.);
#525=ORIENTED_EDGE('',*,*,#335,.T.);
#526=ORIENTED_EDGE('',*,*,#376,.F.);
#527=ORIENTED_EDGE('',*,*,#315,.T.);
#528=ORIENTED_EDGE('',*,*,#384,.T.);
#529=ORIENTED_EDGE('',*,*,#367,.F.);
#530=ORIENTED_EDGE('',*,*,#369,.F.);
#531=ORIENTED_EDGE('',*,*,#385,.F.);
#532=ORIENTED_EDGE('',*,*,#386,.T.);
#533=ORIENTED_EDGE('',*,*,#381,.F.);
#534=ORIENTED_EDGE('',*,*,#353,.F.);
#535=ORIENTED_EDGE('',*,*,#357,.F.);
#536=ORIENTED_EDGE('',*,*,#343,.F.);
#537=ORIENTED_EDGE('',*,*,#383,.F.);
#538=ORIENTED_EDGE('',*,*,#387,.F.);
#539=ORIENTED_EDGE('',*,*,#388,.F.);
#540=ORIENTED_EDGE('',*,*,#379,.F.);
#541=ORIENTED_EDGE('',*,*,#382,.F.);
#542=ORIENTED_EDGE('',*,*,#386,.F.);
#543=ORIENTED_EDGE('',*,*,#389,.F.);
#544=ORIENTED_EDGE('',*,*,#387,.T.);
#545=ORIENTED_EDGE('',*,*,#336,.T.);
#546=ORIENTED_EDGE('',*,*,#384,.F.);
#547=ORIENTED_EDGE('',*,*,#314,.T.);
#548=ORIENTED_EDGE('',*,*,#377,.T.);
#549=ORIENTED_EDGE('',*,*,#390,.T.);
#550=ORIENTED_EDGE('',*,*,#391,.T.);
#551=ORIENTED_EDGE('',*,*,#392,.T.);
#552=ORIENTED_EDGE('',*,*,#393,.T.);
#553=ORIENTED_EDGE('',*,*,#310,.F.);
#554=ORIENTED_EDGE('',*,*,#380,.F.);
#555=ORIENTED_EDGE('',*,*,#388,.T.);
#556=ORIENTED_EDGE('',*,*,#389,.T.);
#557=ORIENTED_EDGE('',*,*,#385,.T.);
#558=ORIENTED_EDGE('',*,*,#368,.F.);
#559=ORIENTED_EDGE('',*,*,#326,.F.);
#560=ORIENTED_EDGE('',*,*,#322,.F.);
#561=ORIENTED_EDGE('',*,*,#378,.T.);
#562=ORIENTED_EDGE('',*,*,#362,.F.);
#563=ORIENTED_EDGE('',*,*,#394,.F.);
#564=ORIENTED_EDGE('',*,*,#390,.F.);
#565=ORIENTED_EDGE('',*,*,#393,.F.);
#566=ORIENTED_EDGE('',*,*,#395,.T.);
#567=ORIENTED_EDGE('',*,*,#360,.F.);
#568=ORIENTED_EDGE('',*,*,#395,.F.);
#569=ORIENTED_EDGE('',*,*,#392,.F.);
#570=ORIENTED_EDGE('',*,*,#396,.T.);
#571=ORIENTED_EDGE('',*,*,#373,.F.);
#572=ORIENTED_EDGE('',*,*,#396,.F.);
#573=ORIENTED_EDGE('',*,*,#337,.T.);
#574=ORIENTED_EDGE('',*,*,#391,.F.);
#575=ORIENTED_EDGE('',*,*,#394,.T.);
#576=ORIENTED_EDGE('',*,*,#361,.F.);
#577=B_SPLINE_SURFACE_WITH_KNOTS('',3,3,((#822,#823,#824,#825,#826,#827),
(#828,#829,#830,#831,#832,#833),(#834,#835,#836,#837,#838,#839),(#840,#841,
#842,#843,#844,#845),(#846,#847,#848,#849,#850,#851)),.UNSPECIFIED.,.F.,
 .F.,.F.,(4,1,4),(4,1,1,4),(0.,0.571428571428571,1.),(0.104522558489173,
0.70954586243509,1.31456916638101,2.22210412229988),.UNSPECIFIED.);
#578=B_SPLINE_SURFACE_WITH_KNOTS('',3,3,((#1006,#1007,#1008,#1009,#1010,
#1011),(#1012,#1013,#1014,#1015,#1016,#1017),(#1018,#1019,#1020,#1021,#1022,
#1023),(#1024,#1025,#1026,#1027,#1028,#1029),(#1030,#1031,#1032,#1033,#1034,
#1035)),.UNSPECIFIED.,.F.,.F.,.F.,(4,1,4),(4,1,1,4),(0.,0.571428571428571,
1.),(3.10260513817727,4.01014005511268,4.61516333306962,5.22018661102656),
 .UNSPECIFIED.);
#579=B_SPLINE_SURFACE_WITH_KNOTS('',3,3,((#1115,#1116,#1117,#1118,#1119,
#1120),(#1121,#1122,#1123,#1124,#1125,#1126),(#1127,#1128,#1129,#1130,#1131,
#1132),(#1133,#1134,#1135,#1136,#1137,#1138),(#1139,#1140,#1141,#1142,#1143,
#1144)),.UNSPECIFIED.,.F.,.F.,.F.,(4,1,4),(4,1,1,4),(0.,0.571428571428571,
1.),(3.10260431844278,4.01013927436165,4.61516257830757,5.22018588225349),
 .UNSPECIFIED.);
#580=B_SPLINE_SURFACE_WITH_KNOTS('',3,3,((#1221,#1222,#1223,#1224,#1225,
#1226),(#1227,#1228,#1229,#1230,#1231,#1232),(#1233,#1234,#1235,#1236,#1237,
#1238),(#1239,#1240,#1241,#1242,#1243,#1244),(#1245,#1246,#1247,#1248,#1249,
#1250)),.UNSPECIFIED.,.F.,.F.,.F.,(4,1,4),(4,1,1,4),(0.,0.571428571428571,
1.),(0.104523322756533,0.709546600713476,1.31456987867042,2.22210479560583),
 .UNSPECIFIED.);
#581=ADVANCED_FACE('',(#153),#577,.F.);
#582=ADVANCED_FACE('',(#154),#142,.F.);
#583=ADVANCED_FACE('',(#155),#143,.T.);
#584=ADVANCED_FACE('',(#156),#578,.F.);
#585=ADVANCED_FACE('',(#157),#144,.F.);
#586=ADVANCED_FACE('',(#158),#579,.F.);
#587=ADVANCED_FACE('',(#159),#25,.T.);
#588=ADVANCED_FACE('',(#160),#580,.F.);
#589=ADVANCED_FACE('',(#161),#26,.T.);
#590=ADVANCED_FACE('',(#162),#145,.F.);
#591=ADVANCED_FACE('',(#163,#21),#27,.T.);
#592=ADVANCED_FACE('',(#164),#28,.T.);
#593=ADVANCED_FACE('',(#165),#19,.T.);
#594=ADVANCED_FACE('',(#166),#146,.F.);
#595=ADVANCED_FACE('',(#167),#29,.T.);
#596=ADVANCED_FACE('',(#168,#22),#30,.T.);
#597=ADVANCED_FACE('',(#169),#20,.T.);
#598=ADVANCED_FACE('',(#170),#147,.T.);
#599=ADVANCED_FACE('',(#171),#31,.T.);
#600=ADVANCED_FACE('',(#172),#32,.F.);
#601=ADVANCED_FACE('',(#173),#33,.T.);
#602=ADVANCED_FACE('',(#174),#148,.F.);
#603=ADVANCED_FACE('',(#175),#34,.T.);
#604=ADVANCED_FACE('',(#176),#35,.T.);
#605=ADVANCED_FACE('',(#177),#36,.T.);
#606=ADVANCED_FACE('',(#178),#149,.T.);
#607=ADVANCED_FACE('',(#179,#23,#24),#37,.F.);
#608=ADVANCED_FACE('',(#180),#150,.F.);
#609=ADVANCED_FACE('',(#181),#38,.T.);
#610=ADVANCED_FACE('',(#182),#151,.F.);
#611=ADVANCED_FACE('',(#183),#152,.F.);
#612=ADVANCED_FACE('',(#184),#39,.T.);
#613=CLOSED_SHELL('',(#581,#582,#583,#584,#585,#586,#587,#588,#589,#590,
#591,#592,#593,#594,#595,#596,#597,#598,#599,#600,#601,#602,#603,#604,#605,
#606,#607,#608,#609,#610,#611,#612));
#614=DERIVED_UNIT_ELEMENT(#616,1.);
#615=DERIVED_UNIT_ELEMENT(#1471,-3.);
#616=(
MASS_UNIT()
NAMED_UNIT(*)
SI_UNIT(.KILO.,.GRAM.)
);
#617=DERIVED_UNIT((#614,#615));
#618=MEASURE_REPRESENTATION_ITEM('density measure',
POSITIVE_RATIO_MEASURE(7850.),#617);
#619=PROPERTY_DEFINITION_REPRESENTATION(#624,#621);
#620=PROPERTY_DEFINITION_REPRESENTATION(#625,#622);
#621=REPRESENTATION('material name',(#623),#1468);
#622=REPRESENTATION('density',(#618),#1468);
#623=DESCRIPTIVE_REPRESENTATION_ITEM('Acier','Acier');
#624=PROPERTY_DEFINITION('material property','material name',#1478);
#625=PROPERTY_DEFINITION('material property','density of part',#1478);
#626=AXIS2_PLACEMENT_3D('',#821,#677,#678);
#627=AXIS2_PLACEMENT_3D('',#951,#679,#680);
#628=AXIS2_PLACEMENT_3D('',#958,#681,#682);
#629=AXIS2_PLACEMENT_3D('',#962,#684,#685);
#630=AXIS2_PLACEMENT_3D('',#966,#687,#688);
#631=AXIS2_PLACEMENT_3D('',#982,#690,#691);
#632=AXIS2_PLACEMENT_3D('',#984,#693,#694);
#633=AXIS2_PLACEMENT_3D('',#1087,#697,#698);
#634=AXIS2_PLACEMENT_3D('',#1091,#700,#701);
#635=AXIS2_PLACEMENT_3D('',#1107,#703,#704);
#636=AXIS2_PLACEMENT_3D('',#1111,#706,#707);
#637=AXIS2_PLACEMENT_3D('',#1114,#709,#710);
#638=AXIS2_PLACEMENT_3D('',#1202,#711,#712);
#639=AXIS2_PLACEMENT_3D('',#1208,#715,#716);
#640=AXIS2_PLACEMENT_3D('',#1308,#718,#719);
#641=AXIS2_PLACEMENT_3D('',#1323,#721,#722);
#642=AXIS2_PLACEMENT_3D('',#1327,#725,#726);
#643=AXIS2_PLACEMENT_3D('',#1330,#727,#728);
#644=AXIS2_PLACEMENT_3D('',#1333,#731,#732);
#645=AXIS2_PLACEMENT_3D('',#1336,#734,#735);
#646=AXIS2_PLACEMENT_3D('',#1338,#736,#737);
#647=AXIS2_PLACEMENT_3D('',#1339,#738,#739);
#648=AXIS2_PLACEMENT_3D('',#1345,#743,#744);
#649=AXIS2_PLACEMENT_3D('',#1356,#745,#746);
#650=AXIS2_PLACEMENT_3D('',#1360,#748,#749);
#651=AXIS2_PLACEMENT_3D('',#1362,#751,#752);
#652=AXIS2_PLACEMENT_3D('',#1378,#756,#757);
#653=AXIS2_PLACEMENT_3D('',#1379,#758,#759);
#654=AXIS2_PLACEMENT_3D('',#1381,#760,#761);
#655=AXIS2_PLACEMENT_3D('',#1382,#762,#763);
#656=AXIS2_PLACEMENT_3D('',#1383,#764,#765);
#657=AXIS2_PLACEMENT_3D('',#1386,#768,#769);
#658=AXIS2_PLACEMENT_3D('',#1388,#771,#772);
#659=AXIS2_PLACEMENT_3D('',#1392,#775,#776);
#660=AXIS2_PLACEMENT_3D('',#1396,#779,#780);
#661=AXIS2_PLACEMENT_3D('',#1398,#781,#782);
#662=AXIS2_PLACEMENT_3D('',#1419,#783,#784);
#663=AXIS2_PLACEMENT_3D('',#1420,#785,#786);
#664=AXIS2_PLACEMENT_3D('',#1422,#788,#789);
#665=AXIS2_PLACEMENT_3D('',#1424,#790,#791);
#666=AXIS2_PLACEMENT_3D('',#1426,#793,#794);
#667=AXIS2_PLACEMENT_3D('',#1429,#796,#797);
#668=AXIS2_PLACEMENT_3D('',#1430,#798,#799);
#669=AXIS2_PLACEMENT_3D('',#1450,#800,#801);
#670=AXIS2_PLACEMENT_3D('',#1455,#804,#805);
#671=AXIS2_PLACEMENT_3D('',#1457,#806,#807);
#672=AXIS2_PLACEMENT_3D('',#1458,#808,#809);
#673=AXIS2_PLACEMENT_3D('',#1459,#810,#811);
#674=AXIS2_PLACEMENT_3D('',#1461,#813,#814);
#675=AXIS2_PLACEMENT_3D('',#1463,#816,#817);
#676=AXIS2_PLACEMENT_3D('',#1465,#819,#820);
#677=DIRECTION('axis',(0.,0.,1.));
#678=DIRECTION('refdir',(1.,0.,0.));
#679=DIRECTION('center_axis',(0.,1.,0.));
#680=DIRECTION('ref_axis',(1.,0.,0.));
#681=DIRECTION('center_axis',(0.,-1.,0.));
#682=DIRECTION('ref_axis',(1.,0.,0.));
#683=DIRECTION('',(0.,1.,0.));
#684=DIRECTION('center_axis',(0.,1.,0.));
#685=DIRECTION('ref_axis',(1.,0.,0.));
#686=DIRECTION('',(0.,-1.,0.));
#687=DIRECTION('center_axis',(0.,-1.,0.));
#688=DIRECTION('ref_axis',(1.,0.,0.));
#689=DIRECTION('',(0.,1.,0.));
#690=DIRECTION('center_axis',(0.,-1.,0.));
#691=DIRECTION('ref_axis',(6.10622663543836E-17,0.,1.));
#692=DIRECTION('',(0.,-1.,0.));
#693=DIRECTION('center_axis',(0.,0.,1.));
#694=DIRECTION('ref_axis',(-0.684653196881465,0.728868986855656,0.));
#695=DIRECTION('',(0.,0.,1.));
#696=DIRECTION('',(0.,0.,-1.));
#697=DIRECTION('center_axis',(0.,1.,0.));
#698=DIRECTION('ref_axis',(1.,0.,0.));
#699=DIRECTION('',(0.,1.,0.));
#700=DIRECTION('center_axis',(0.,-1.,0.));
#701=DIRECTION('ref_axis',(6.10622663543836E-17,0.,-1.));
#702=DIRECTION('',(0.,-1.,0.));
#703=DIRECTION('center_axis',(0.,-1.,0.));
#704=DIRECTION('ref_axis',(1.,0.,0.));
#705=DIRECTION('',(0.,1.,0.));
#706=DIRECTION('center_axis',(0.,1.,0.));
#707=DIRECTION('ref_axis',(1.,0.,0.));
#708=DIRECTION('',(0.,-1.,0.));
#709=DIRECTION('center_axis',(0.,-1.,0.));
#710=DIRECTION('ref_axis',(1.,0.,0.));
#711=DIRECTION('center_axis',(1.,0.,0.));
#712=DIRECTION('ref_axis',(0.,0.,-1.));
#713=DIRECTION('',(0.,0.,1.));
#714=DIRECTION('',(0.,-0.860006869884377,-0.510282454873452));
#715=DIRECTION('center_axis',(1.,0.,0.));
#716=DIRECTION('ref_axis',(0.,-0.868988623306845,0.494832065011226));
#717=DIRECTION('',(0.,0.,1.));
#718=DIRECTION('center_axis',(1.,0.,0.));
#719=DIRECTION('ref_axis',(0.,0.,-1.));
#720=DIRECTION('',(0.,0.,1.));
#721=DIRECTION('center_axis',(1.,0.,0.));
#722=DIRECTION('ref_axis',(0.,-0.868512594040929,-0.495667099969624));
#723=DIRECTION('',(0.,0.860986237550725,-0.508628252015406));
#724=DIRECTION('',(0.,0.,1.));
#725=DIRECTION('center_axis',(1.,0.,0.));
#726=DIRECTION('ref_axis',(0.,-0.868988623306845,0.494832065011226));
#727=DIRECTION('center_axis',(-1.,0.,0.));
#728=DIRECTION('ref_axis',(0.,-0.868988623306845,0.494832065011226));
#729=DIRECTION('',(-1.,0.,0.));
#730=DIRECTION('',(1.,0.,0.));
#731=DIRECTION('center_axis',(0.,1.,0.));
#732=DIRECTION('ref_axis',(0.,0.,1.));
#733=DIRECTION('',(0.,0.,-1.));
#734=DIRECTION('center_axis',(0.,1.,0.));
#735=DIRECTION('ref_axis',(6.10622663543836E-17,0.,1.));
#736=DIRECTION('center_axis',(0.,-1.,0.));
#737=DIRECTION('ref_axis',(1.,0.,0.));
#738=DIRECTION('center_axis',(0.,1.,0.));
#739=DIRECTION('ref_axis',(0.,0.,1.));
#740=DIRECTION('',(0.,0.,-1.));
#741=DIRECTION('',(-1.,0.,0.));
#742=DIRECTION('',(0.,0.,1.));
#743=DIRECTION('center_axis',(0.,-1.,0.));
#744=DIRECTION('ref_axis',(1.22418631523237E-16,0.,1.));
#745=DIRECTION('center_axis',(-1.,0.,0.));
#746=DIRECTION('ref_axis',(0.,-0.868512594040929,-0.495667099969624));
#747=DIRECTION('',(1.,0.,0.));
#748=DIRECTION('center_axis',(-1.,0.,0.));
#749=DIRECTION('ref_axis',(0.,-0.868512594040929,-0.495667099969624));
#750=DIRECTION('',(-1.,0.,0.));
#751=DIRECTION('center_axis',(-1.,0.,0.));
#752=DIRECTION('ref_axis',(0.,0.,1.));
#753=DIRECTION('',(0.,0.,-1.));
#754=DIRECTION('',(0.,-0.860986237550725,0.508628252015406));
#755=DIRECTION('',(0.,0.,-1.));
#756=DIRECTION('center_axis',(0.,1.,0.));
#757=DIRECTION('ref_axis',(0.,0.,1.));
#758=DIRECTION('center_axis',(0.,1.,0.));
#759=DIRECTION('ref_axis',(6.10622663543836E-17,0.,-1.));
#760=DIRECTION('center_axis',(0.,-1.,0.));
#761=DIRECTION('ref_axis',(1.,0.,0.));
#762=DIRECTION('center_axis',(0.,-1.,0.));
#763=DIRECTION('ref_axis',(0.,0.,-1.));
#764=DIRECTION('center_axis',(0.,0.,-1.));
#765=DIRECTION('ref_axis',(0.684653196881453,0.728868986855667,0.));
#766=DIRECTION('',(0.,0.,1.));
#767=DIRECTION('',(0.,0.,-1.));
#768=DIRECTION('center_axis',(0.,1.,0.));
#769=DIRECTION('ref_axis',(0.,0.,1.));
#770=DIRECTION('',(0.,0.,1.));
#771=DIRECTION('center_axis',(1.,0.,0.));
#772=DIRECTION('ref_axis',(0.,0.,-1.));
#773=DIRECTION('',(0.,0.,-1.));
#774=DIRECTION('',(0.,1.,0.));
#775=DIRECTION('center_axis',(-1.,0.,0.));
#776=DIRECTION('ref_axis',(0.,0.,1.));
#777=DIRECTION('',(0.,0.860006869884377,0.510282454873452));
#778=DIRECTION('',(0.,0.,-1.));
#779=DIRECTION('center_axis',(0.,0.,-1.));
#780=DIRECTION('ref_axis',(-1.,0.,0.));
#781=DIRECTION('center_axis',(0.,-0.508628252015406,-0.860986237550725));
#782=DIRECTION('ref_axis',(0.,0.860986237550725,-0.508628252015406));
#783=DIRECTION('center_axis',(0.,-0.510282454873452,0.860006869884377));
#784=DIRECTION('ref_axis',(0.,0.860006869884377,0.510282454873452));
#785=DIRECTION('center_axis',(-1.,0.,0.));
#786=DIRECTION('ref_axis',(0.,0.,1.));
#787=DIRECTION('',(0.,0.,1.));
#788=DIRECTION('center_axis',(0.,0.508628252015406,0.860986237550725));
#789=DIRECTION('ref_axis',(0.,0.860986237550725,-0.508628252015406));
#790=DIRECTION('center_axis',(0.,-0.508628252015406,-0.860986237550725));
#791=DIRECTION('ref_axis',(0.,0.860986237550725,-0.508628252015406));
#792=DIRECTION('',(-1.,0.,0.));
#793=DIRECTION('center_axis',(0.,0.510282454873452,-0.860006869884377));
#794=DIRECTION('ref_axis',(0.,-0.860006869884377,-0.510282454873452));
#795=DIRECTION('',(-1.,0.,0.));
#796=DIRECTION('center_axis',(0.,-0.510282454873452,0.860006869884377));
#797=DIRECTION('ref_axis',(0.,0.860006869884377,0.510282454873451));
#798=DIRECTION('center_axis',(-1.,0.,0.));
#799=DIRECTION('ref_axis',(0.,1.,0.));
#800=DIRECTION('center_axis',(0.,1.,0.));
#801=DIRECTION('ref_axis',(1.,0.,0.));
#802=DIRECTION('',(1.,0.,0.));
#803=DIRECTION('',(0.,0.,1.));
#804=DIRECTION('center_axis',(0.,1.,0.));
#805=DIRECTION('ref_axis',(1.,0.,0.));
#806=DIRECTION('center_axis',(0.,1.,0.));
#807=DIRECTION('ref_axis',(1.,0.,0.));
#808=DIRECTION('center_axis',(0.,0.,-1.));
#809=DIRECTION('ref_axis',(-1.,0.,0.));
#810=DIRECTION('center_axis',(0.,0.,-1.));
#811=DIRECTION('ref_axis',(-1.,0.,0.));
#812=DIRECTION('',(0.,1.,0.));
#813=DIRECTION('center_axis',(0.,1.,0.));
#814=DIRECTION('ref_axis',(1.,0.,0.));
#815=DIRECTION('',(0.,1.,0.));
#816=DIRECTION('center_axis',(0.,1.,0.));
#817=DIRECTION('ref_axis',(1.,0.,0.));
#818=DIRECTION('',(0.,1.,0.));
#819=DIRECTION('center_axis',(1.,0.,0.));
#820=DIRECTION('ref_axis',(0.,0.,-1.));
#821=CARTESIAN_POINT('',(0.,0.,0.));
#822=CARTESIAN_POINT('Ctrl Pts',(97.4297084318305,18.9567118215977,-36.0045322431216));
#823=CARTESIAN_POINT('Ctrl Pts',(97.4242697906973,16.9398101483217,-36.0026808219533));
#824=CARTESIAN_POINT('Ctrl Pts',(96.6389017358816,12.9131972548633,-35.7339691177916));
#825=CARTESIAN_POINT('Ctrl Pts',(92.8396863675661,6.95086660540786,-34.466586861986));
#826=CARTESIAN_POINT('Ctrl Pts',(88.530430762218,4.35529792208279,-33.114229439962));
#827=CARTESIAN_POINT('Ctrl Pts',(85.7354146362476,3.57937888554565,-32.2886452634679));
#828=CARTESIAN_POINT('Ctrl Pts',(97.2056355150898,18.9573883094088,-35.9282533839109));
#829=CARTESIAN_POINT('Ctrl Pts',(97.200256083569,16.9720593389499,-35.9264274937773));
#830=CARTESIAN_POINT('Ctrl Pts',(96.4233898416611,13.0082643654883,-35.6609914317038));
#831=CARTESIAN_POINT('Ctrl Pts',(92.6679582401336,7.14748876734751,-34.4116541670217));
#832=CARTESIAN_POINT('Ctrl Pts',(88.4168678122572,4.60796558400913,-33.0795700105832));
#833=CARTESIAN_POINT('Ctrl Pts',(85.6653630293934,3.85464944078592,-32.2679536124897));
#834=CARTESIAN_POINT('Ctrl Pts',(96.8647156815381,18.9585670138973,-35.6499308042997));
#835=CARTESIAN_POINT('Ctrl Pts',(96.8594492392035,17.0280886256836,-35.6481142269814));
#836=CARTESIAN_POINT('Ctrl Pts',(96.0986170783217,13.1743913480252,-35.3845043094206));
#837=CARTESIAN_POINT('Ctrl Pts',(92.4258109717722,7.48939560013994,-34.1420627644151));
#838=CARTESIAN_POINT('Ctrl Pts',(88.2814156770816,5.04737436229657,-32.8201324899713));
#839=CARTESIAN_POINT('Ctrl Pts',(85.608013441657,4.33199465227106,-32.0149718844604));
#840=CARTESIAN_POINT('Ctrl Pts',(96.7519705910392,18.9592538301618,-35.235406723994));
#841=CARTESIAN_POINT('Ctrl Pts',(96.7468136382774,17.0608299825792,-35.2335613620452));
#842=CARTESIAN_POINT('Ctrl Pts',(96.0019219870033,13.2706690010416,-34.9657708045383));
#843=CARTESIAN_POINT('Ctrl Pts',(92.4025310402475,7.66905556717105,-33.7028613982073));
#844=CARTESIAN_POINT('Ctrl Pts',(88.3301852769709,5.24537738604166,-32.3564728708688));
#845=CARTESIAN_POINT('Ctrl Pts',(85.6956601292339,4.52757208880248,-31.5350426267916));
#846=CARTESIAN_POINT('Ctrl Pts',(96.7519710333989,18.9594173327479,-35.057880683932));
#847=CARTESIAN_POINT('Ctrl Pts',(96.7468553115829,17.0685720140516,-35.0560230913598));
#848=CARTESIAN_POINT('Ctrl Pts',(96.0081184850219,13.2936224264343,-34.7864156815176));
#849=CARTESIAN_POINT('Ctrl Pts',(92.4344815292002,7.70393744256987,-33.5148088181927));
#850=CARTESIAN_POINT('Ctrl Pts',(88.3810879754196,5.27059180195261,-32.1579435380952));
#851=CARTESIAN_POINT('Ctrl Pts',(85.7520259319287,4.54316770519904,-31.3296074143461));
#852=CARTESIAN_POINT('',(96.722700390683,18.0625,-35.0472539989705));
#853=CARTESIAN_POINT('',(97.4297084318305,18.9567118215977,-36.0045322431216));
#854=CARTESIAN_POINT('Ctrl Pts',(96.722334203299,18.0626425782588,-35.0470867717471));
#855=CARTESIAN_POINT('Ctrl Pts',(96.7224253213943,18.0640825792185,-35.0486107602913));
#856=CARTESIAN_POINT('Ctrl Pts',(96.7225196332509,18.0655224203848,-35.0501347222892));
#857=CARTESIAN_POINT('Ctrl Pts',(96.7226171349953,18.0669620918373,-35.0516586454671));
#858=CARTESIAN_POINT('Ctrl Pts',(96.7254647258639,18.109008470663,-35.0961656412321));
#859=CARTESIAN_POINT('Ctrl Pts',(96.7310373873814,18.1510314942243,-35.1407632969522));
#860=CARTESIAN_POINT('Ctrl Pts',(96.7393073878274,18.1927690260672,-35.1851431272411));
#861=CARTESIAN_POINT('Ctrl Pts',(96.747354777533,18.2333830727395,-35.2283283473316));
#862=CARTESIAN_POINT('Ctrl Pts',(96.7579565845438,18.2737268635807,-35.2713080956915));
#863=CARTESIAN_POINT('Ctrl Pts',(96.7711287854199,18.3135468162689,-35.313774355246));
#864=CARTESIAN_POINT('Ctrl Pts',(96.7733084365827,18.3201359661759,-35.3208013990094));
#865=CARTESIAN_POINT('Ctrl Pts',(96.7755585570556,18.3267107437488,-35.3278143133435));
#866=CARTESIAN_POINT('Ctrl Pts',(96.7778793229997,18.3332699648557,-35.3348116143037));
#867=CARTESIAN_POINT('Ctrl Pts',(96.7908353702941,18.3698878664115,-35.3738751667509));
#868=CARTESIAN_POINT('Ctrl Pts',(96.8060582590279,18.4062208661119,-35.4126587560691));
#869=CARTESIAN_POINT('Ctrl Pts',(96.8236609428725,18.4419896562549,-35.4508569482227));
#870=CARTESIAN_POINT('Ctrl Pts',(96.8398053076155,18.4747951306693,-35.4858905574212));
#871=CARTESIAN_POINT('Ctrl Pts',(96.8579518990916,18.507126019091,-35.5204317598296));
#872=CARTESIAN_POINT('Ctrl Pts',(96.8782091201259,18.5387586033503,-35.5542007562449));
#873=CARTESIAN_POINT('Ctrl Pts',(96.8800389531882,18.5416159720104,-35.5572511068344));
#874=CARTESIAN_POINT('Ctrl Pts',(96.8818860210907,18.5444676367887,-35.5602951242752));
#875=CARTESIAN_POINT('Ctrl Pts',(96.8837504115007,18.5473134290772,-35.5633325825667));
#876=CARTESIAN_POINT('Ctrl Pts',(96.8899457854359,18.556770003878,-35.5734260639683));
#877=CARTESIAN_POINT('Ctrl Pts',(96.8963324432703,18.5661617402083,-35.5834471403033));
#878=CARTESIAN_POINT('Ctrl Pts',(96.9029100600575,18.5754824632801,-35.5933898195158));
#879=CARTESIAN_POINT('Ctrl Pts',(96.9235115463675,18.6046755213394,-35.6245308811353));
#880=CARTESIAN_POINT('Ctrl Pts',(96.9460834507658,18.633326107925,-35.6550521550896));
#881=CARTESIAN_POINT('Ctrl Pts',(96.9706623364871,18.6611391931104,-35.6847180519968));
#882=CARTESIAN_POINT('Ctrl Pts',(96.9943613746749,18.6879566564977,-35.7133220022186));
#883=CARTESIAN_POINT('Ctrl Pts',(97.0199266933312,18.7139955835955,-35.7411309630147));
#884=CARTESIAN_POINT('Ctrl Pts',(97.047382473209,18.7389799795325,-35.7678883341616));
#885=CARTESIAN_POINT('Ctrl Pts',(97.0734992211636,18.7627458741597,-35.7933407351234));
#886=CARTESIAN_POINT('Ctrl Pts',(97.1013268601467,18.7855576072785,-35.8178417161407));
#887=CARTESIAN_POINT('Ctrl Pts',(97.1308730407192,18.807166374716,-35.8411263232256));
#888=CARTESIAN_POINT('Ctrl Pts',(97.1409218249852,18.8145156103202,-35.8490455191683));
#889=CARTESIAN_POINT('Ctrl Pts',(97.1511692558984,18.8217255969078,-35.8568236182535));
#890=CARTESIAN_POINT('Ctrl Pts',(97.1616151553359,18.82878622433,-35.8644489151665));
#891=CARTESIAN_POINT('Ctrl Pts',(97.1901590333007,18.8480796981663,-35.8852853731311));
#892=CARTESIAN_POINT('Ctrl Pts',(97.2201797955472,18.8662451070856,-35.9049798693129));
#893=CARTESIAN_POINT('Ctrl Pts',(97.251673013484,18.8830241022849,-35.9232736185702));
#894=CARTESIAN_POINT('Ctrl Pts',(97.2815693168377,18.898952291378,-35.9406397536654));
#895=CARTESIAN_POINT('Ctrl Pts',(97.3127928034168,18.9136310611596,-35.9567436448655));
#896=CARTESIAN_POINT('Ctrl Pts',(97.3453238059702,18.9268296919158,-35.9713220269131));
#897=CARTESIAN_POINT('Ctrl Pts',(97.3725443480229,18.9378737377594,-35.9835205892211));
#898=CARTESIAN_POINT('Ctrl Pts',(97.40068022527,18.9478812837909,-35.9946504666286));
#899=CARTESIAN_POINT('Ctrl Pts',(97.4297084318305,18.9567118215977,-36.0045322431216));
#900=CARTESIAN_POINT('',(85.7520259318622,3.58400001437797,-32.2935523836643));
#901=CARTESIAN_POINT('Ctrl Pts',(97.4297084318305,18.9567118215977,-36.0045322431216));
#902=CARTESIAN_POINT('Ctrl Pts',(97.4242697906973,16.9398101483217,-36.0026808219533));
#903=CARTESIAN_POINT('Ctrl Pts',(96.6389017358816,12.9131972548633,-35.7339691177916));
#904=CARTESIAN_POINT('Ctrl Pts',(92.8429124702364,6.95592951681579,-34.467663059275));
#905=CARTESIAN_POINT('Ctrl Pts',(88.5406742762524,4.36147154667134,-33.1174441991094));
#906=CARTESIAN_POINT('Ctrl Pts',(85.7520258766631,3.5840001871522,-32.2935524074583));
#907=CARTESIAN_POINT('',(85.7520259319288,4.54316770519908,-31.3296074143462));
#908=CARTESIAN_POINT('Ctrl Pts',(85.7520258928322,3.58400019166011,-32.2935524122354));
#909=CARTESIAN_POINT('Ctrl Pts',(85.7520258035827,3.62925466212607,-32.2935520961594));
#910=CARTESIAN_POINT('Ctrl Pts',(85.7520958109085,3.67427707222083,-32.2903973337902));
#911=CARTESIAN_POINT('Ctrl Pts',(85.7521799279899,3.71880795709247,-32.28419812104));
#912=CARTESIAN_POINT('Ctrl Pts',(85.7522631333156,3.76285616600414,-32.2780661023502));
#913=CARTESIAN_POINT('Ctrl Pts',(85.7523600964875,3.80642438277872,-32.2689547379704));
#914=CARTESIAN_POINT('Ctrl Pts',(85.7524379999004,3.84924438368838,-32.2569287424337));
#915=CARTESIAN_POINT('Ctrl Pts',(85.7525111374299,3.88944479294382,-32.2456384591079));
#916=CARTESIAN_POINT('Ctrl Pts',(85.7525675973579,3.92898627368583,-32.2317785928396));
#917=CARTESIAN_POINT('Ctrl Pts',(85.7525983344222,3.96762161140037,-32.2153746799064));
#918=CARTESIAN_POINT('Ctrl Pts',(85.7526312214007,4.0089593105824,-32.1978233898606));
#919=CARTESIAN_POINT('Ctrl Pts',(85.7526281859386,4.04889026818662,-32.1775147640968));
#920=CARTESIAN_POINT('Ctrl Pts',(85.7525903284016,4.08715433072324,-32.1545865880115));
#921=CARTESIAN_POINT('Ctrl Pts',(85.7525532832314,4.12459730293323,-32.1321504167564));
#922=CARTESIAN_POINT('Ctrl Pts',(85.7524829121309,4.16044503870856,-32.1072052676164));
#923=CARTESIAN_POINT('Ctrl Pts',(85.7523970158029,4.1944284272236,-32.0798422682411));
#924=CARTESIAN_POINT('Ctrl Pts',(85.7523296588108,4.22107704986534,-32.0583851306054));
#925=CARTESIAN_POINT('Ctrl Pts',(85.7522530757642,4.24657892374028,-32.0354404039531));
#926=CARTESIAN_POINT('Ctrl Pts',(85.7521832444305,4.27078760762599,-32.0110387839383));
#927=CARTESIAN_POINT('Ctrl Pts',(85.7521155477231,4.29425627280358,-31.9873830803641));
#928=CARTESIAN_POINT('Ctrl Pts',(85.7520536925107,4.31633449001158,-31.9625335666552));
#929=CARTESIAN_POINT('Ctrl Pts',(85.7520212808164,4.33693689070285,-31.9365643352534));
#930=CARTESIAN_POINT('Ctrl Pts',(85.7519786443437,4.36403864250439,-31.902402701642));
#931=CARTESIAN_POINT('Ctrl Pts',(85.7519862466831,4.38858852159803,-31.8663048338335));
#932=CARTESIAN_POINT('Ctrl Pts',(85.752005907267,4.41054685122668,-31.8285801414862));
#933=CARTESIAN_POINT('Ctrl Pts',(85.752025546903,4.43248178467328,-31.7908956440801));
#934=CARTESIAN_POINT('Ctrl Pts',(85.7520574429053,4.45183106450357,-31.7515867155457));
#935=CARTESIAN_POINT('Ctrl Pts',(85.7520766205625,4.46851598874318,-31.7109303072928));
#936=CARTESIAN_POINT('Ctrl Pts',(85.7520956549844,4.48507629551775,-31.6705775563092));
#937=CARTESIAN_POINT('Ctrl Pts',(85.7521043536299,4.4988727478993,-31.6292388377804));
#938=CARTESIAN_POINT('Ctrl Pts',(85.7521005521964,4.50992556554151,-31.5872242634581));
#939=CARTESIAN_POINT('Ctrl Pts',(85.7520966014326,4.52141256690039,-31.5435592462693));
#940=CARTESIAN_POINT('Ctrl Pts',(85.7520792623793,4.52993672065474,-31.499163319392));
#941=CARTESIAN_POINT('Ctrl Pts',(85.7520607532798,4.5354808687457,-31.4543463615192));
#942=CARTESIAN_POINT('Ctrl Pts',(85.7520436981477,4.54058950078075,-31.4130499634169));
#943=CARTESIAN_POINT('Ctrl Pts',(85.7520259319287,4.54316770519904,-31.3713949911299));
#944=CARTESIAN_POINT('Ctrl Pts',(85.7520259319287,4.54316770519904,-31.3296074143461));
#945=CARTESIAN_POINT('Ctrl Pts',(85.7520259319287,4.54316770519904,-31.3296074143461));
#946=CARTESIAN_POINT('Ctrl Pts',(88.3810879754196,5.27059180195261,-32.1579435380952));
#947=CARTESIAN_POINT('Ctrl Pts',(92.4344815292002,7.70393744256987,-33.5148088181927));
#948=CARTESIAN_POINT('Ctrl Pts',(95.846534241543,13.0408813028762,-34.7289191771012));
#949=CARTESIAN_POINT('Ctrl Pts',(96.6217863349228,16.4748052348094,-35.0104949540311));
#950=CARTESIAN_POINT('Ctrl Pts',(96.7223269011795,18.0625272571687,-35.0470841143276));
#951=CARTESIAN_POINT('Origin',(0.752025931928683,0.,-320.));
#952=CARTESIAN_POINT('',(97.7207453546,19.,-36.1037734426059));
#953=CARTESIAN_POINT('Ctrl Pts',(97.7207453546,19.,-36.1037734426059));
#954=CARTESIAN_POINT('Ctrl Pts',(97.6260645240972,19.,-36.0714338831864));
#955=CARTESIAN_POINT('Ctrl Pts',(97.5262676157435,18.9860856488222,-36.0374029019336));
#956=CARTESIAN_POINT('Ctrl Pts',(97.4297084318305,18.9567118215977,-36.0045322431216));
#957=CARTESIAN_POINT('',(100.,19.,-36.8925298700449));
#958=CARTESIAN_POINT('Origin',(0.752025931928683,19.,-320.));
#959=CARTESIAN_POINT('',(100.,0.,-36.8925298700449));
#960=CARTESIAN_POINT('',(100.,0.,-36.8925298700449));
#961=CARTESIAN_POINT('',(-99.2479740680713,0.,-37.157287525381));
#962=CARTESIAN_POINT('Origin',(0.752025931928683,0.,-320.));
#963=CARTESIAN_POINT('',(-99.2479740680713,19.,-37.157287525381));
#964=CARTESIAN_POINT('',(-99.2479740680713,0.,-37.157287525381));
#965=CARTESIAN_POINT('',(-96.2166934907426,19.,-36.1037734426059));
#966=CARTESIAN_POINT('Origin',(0.752025931928683,19.,-320.));
#967=CARTESIAN_POINT('',(-95.9256565679731,18.9567118215977,-36.0045322431216));
#968=CARTESIAN_POINT('Ctrl Pts',(-95.9256565679731,18.9567118215977,-36.0045322431216));
#969=CARTESIAN_POINT('Ctrl Pts',(-96.0222157518861,18.9860856488222,-36.0374029019336));
#970=CARTESIAN_POINT('Ctrl Pts',(-96.1220126602398,19.,-36.0714338831864));
#971=CARTESIAN_POINT('Ctrl Pts',(-96.2166934907426,19.,-36.1037734426059));
#972=CARTESIAN_POINT('',(-84.2479740680048,3.58400001437795,-32.2935523836643));
#973=CARTESIAN_POINT('Ctrl Pts',(-84.2479740128204,3.58400018710347,-32.2935524074547));
#974=CARTESIAN_POINT('Ctrl Pts',(-87.0366224194188,4.36147153085176,-33.1174441985174));
#975=CARTESIAN_POINT('Ctrl Pts',(-91.3388635640483,6.95592286181648,-34.467662811184));
#976=CARTESIAN_POINT('Ctrl Pts',(-95.1348533223425,12.9131941880375,-35.7339701007545));
#977=CARTESIAN_POINT('Ctrl Pts',(-95.9202179268399,16.9398101483217,-36.0026808219532));
#978=CARTESIAN_POINT('Ctrl Pts',(-95.9256565679731,18.9567118215977,-36.0045322431216));
#979=CARTESIAN_POINT('',(-84.2479740680713,3.,-32.2935523836839));
#980=CARTESIAN_POINT('',(-84.2479740680713,0.,-32.293552383684));
#981=CARTESIAN_POINT('',(85.7520259319287,3.,-32.293552383684));
#982=CARTESIAN_POINT('Origin',(0.752025931928683,3.,-320.));
#983=CARTESIAN_POINT('',(85.7520259319287,0.,-32.293552383684));
#984=CARTESIAN_POINT('Origin',(97.7207453546,18.,40.));
#985=CARTESIAN_POINT('',(96.7227003906831,18.0625,35.0472539989704));
#986=CARTESIAN_POINT('',(96.722700390683,18.0625,40.));
#987=CARTESIAN_POINT('',(97.4297084318305,18.9567118215977,36.0045322431215));
#988=CARTESIAN_POINT('Ctrl Pts',(97.4297084318305,18.9567118215977,36.0045322431215));
#989=CARTESIAN_POINT('Ctrl Pts',(97.3294445347226,18.926211000535,35.9704004265564));
#990=CARTESIAN_POINT('Ctrl Pts',(97.2395802420835,18.8817196707779,35.9221001423574));
#991=CARTESIAN_POINT('Ctrl Pts',(97.0541168672379,18.7565004816763,35.7871435703211));
#992=CARTESIAN_POINT('Ctrl Pts',(96.9685142762745,18.66868963624,35.6931358326357));
#993=CARTESIAN_POINT('Ctrl Pts',(96.8486967822257,18.4984040029822,35.5110507011998));
#994=CARTESIAN_POINT('Ctrl Pts',(96.8073380252466,18.4165321120099,35.4236104859472));
#995=CARTESIAN_POINT('Ctrl Pts',(96.7471599760131,18.2462448074734,35.2421343232699));
#996=CARTESIAN_POINT('Ctrl Pts',(96.7289908232434,18.1565693291997,35.1467766829543));
#997=CARTESIAN_POINT('Ctrl Pts',(96.722883897839,18.0653803937268,35.050301005033));
#998=CARTESIAN_POINT('Ctrl Pts',(96.7227905841236,18.0639402737455,35.0487775194364));
#999=CARTESIAN_POINT('Ctrl Pts',(96.722700390683,18.0624999999997,35.0472539989704));
#1000=CARTESIAN_POINT('',(97.7207453546,19.,36.1037734426058));
#1001=CARTESIAN_POINT('Ctrl Pts',(97.4297084318305,18.9567118215977,36.0045322431215));
#1002=CARTESIAN_POINT('Ctrl Pts',(97.5262676157435,18.9860856488221,36.0374029019335));
#1003=CARTESIAN_POINT('Ctrl Pts',(97.6260645240972,19.,36.0714338831863));
#1004=CARTESIAN_POINT('Ctrl Pts',(97.7207453546,19.,36.1037734426059));
#1005=CARTESIAN_POINT('',(97.7207453546,19.,40.));
#1006=CARTESIAN_POINT('Ctrl Pts',(85.7354146362476,3.57937888554565,32.2886452634678));
#1007=CARTESIAN_POINT('Ctrl Pts',(88.530431128663,4.35529802381088,33.1142295482015));
#1008=CARTESIAN_POINT('Ctrl Pts',(92.8396859397247,6.95086654904508,34.4665867288221));
#1009=CARTESIAN_POINT('Ctrl Pts',(96.6389017251421,12.9131969929759,35.7339691075159));
#1010=CARTESIAN_POINT('Ctrl Pts',(97.4242697902662,16.9398099884701,36.0026808218065));
#1011=CARTESIAN_POINT('Ctrl Pts',(97.4297084318305,18.9567118215977,36.0045322431215));
#1012=CARTESIAN_POINT('Ctrl Pts',(85.6653630293933,3.85464944078591,32.2679536124897));
#1013=CARTESIAN_POINT('Ctrl Pts',(88.4168681729975,4.60796568277383,33.0795701169914));
#1014=CARTESIAN_POINT('Ctrl Pts',(92.6679578181849,7.14748871351066,34.4116540359433));
#1015=CARTESIAN_POINT('Ctrl Pts',(96.4233898303601,13.0082641072851,35.6609914214155));
#1016=CARTESIAN_POINT('Ctrl Pts',(97.2002560831426,16.9720591816006,35.9264274936325));
#1017=CARTESIAN_POINT('Ctrl Pts',(97.2056355150898,18.9573883094088,35.9282533839109));
#1018=CARTESIAN_POINT('Ctrl Pts',(85.608013441657,4.33199465227106,32.0149718844603));
#1019=CARTESIAN_POINT('Ctrl Pts',(88.2814160275821,5.04737445608756,32.8201325955331));
#1020=CARTESIAN_POINT('Ctrl Pts',(92.425810560618,7.48939555054701,34.1420626342699));
#1021=CARTESIAN_POINT('Ctrl Pts',(96.0986170661948,13.1743910963095,35.3845042990819));
#1022=CARTESIAN_POINT('Ctrl Pts',(96.8594492387861,17.0280884726816,35.6481142268374));
#1023=CARTESIAN_POINT('Ctrl Pts',(96.8647156815381,18.9585670138973,35.6499308042997));
#1024=CARTESIAN_POINT('Ctrl Pts',(85.6956601292339,4.52757208880249,31.5350426267916));
#1025=CARTESIAN_POINT('Ctrl Pts',(88.3301856223745,5.24537748015067,32.3564729785636));
#1026=CARTESIAN_POINT('Ctrl Pts',(92.4025306360816,7.66905551615655,33.702861265633));
#1027=CARTESIAN_POINT('Ctrl Pts',(96.0019219759947,13.2706687540588,34.9657707942212));
#1028=CARTESIAN_POINT('Ctrl Pts',(96.7468136378686,17.0608298321177,35.2335613618989));
#1029=CARTESIAN_POINT('Ctrl Pts',(96.7519705910391,18.9592538301618,35.235406723994));
#1030=CARTESIAN_POINT('Ctrl Pts',(85.7520259319287,4.54316770519905,31.3296074143461));
#1031=CARTESIAN_POINT('Ctrl Pts',(88.3810883201069,5.2705918973227,32.1579436466955));
#1032=CARTESIAN_POINT('Ctrl Pts',(92.4344811267618,7.70393738972976,33.5148086845848));
#1033=CARTESIAN_POINT('Ctrl Pts',(96.00811847492,13.2936221809149,34.7864156712077));
#1034=CARTESIAN_POINT('Ctrl Pts',(96.7468553111774,17.0685718641907,35.0560230912125));
#1035=CARTESIAN_POINT('Ctrl Pts',(96.7519710333988,18.9594173327479,35.0578806839319));
#1036=CARTESIAN_POINT('',(85.7520259319288,4.54316770519908,31.3296074143461));
#1037=CARTESIAN_POINT('Ctrl Pts',(96.7223269044762,18.0625272569364,35.0470841153089));
#1038=CARTESIAN_POINT('Ctrl Pts',(96.6217863410797,16.4748051129115,35.0104949553266));
#1039=CARTESIAN_POINT('Ctrl Pts',(95.8465342251502,13.0408810839766,34.7289191652901));
#1040=CARTESIAN_POINT('Ctrl Pts',(92.4344811267618,7.70393738972976,33.5148086845848));
#1041=CARTESIAN_POINT('Ctrl Pts',(88.3810883201069,5.2705918973227,32.1579436466955));
#1042=CARTESIAN_POINT('Ctrl Pts',(85.7520259319287,4.54316770519905,31.3296074143461));
#1043=CARTESIAN_POINT('',(85.7520259318625,3.58400001437815,32.2935523836644));
#1044=CARTESIAN_POINT('Ctrl Pts',(85.7520259319287,4.54316770519905,31.3296074143461));
#1045=CARTESIAN_POINT('Ctrl Pts',(85.7520259319287,4.54316770519905,31.3750856907163));
#1046=CARTESIAN_POINT('Ctrl Pts',(85.7520467789556,4.54011459366829,31.4204041396257));
#1047=CARTESIAN_POINT('Ctrl Pts',(85.7520651695572,4.53406914290843,31.4652711697609));
#1048=CARTESIAN_POINT('Ctrl Pts',(85.7520829749962,4.52821604969124,31.5087105955692));
#1049=CARTESIAN_POINT('Ctrl Pts',(85.7520983491334,4.51955745961825,31.5517277970726));
#1050=CARTESIAN_POINT('Ctrl Pts',(85.752100949769,4.50810736669063,31.5940378415289));
#1051=CARTESIAN_POINT('Ctrl Pts',(85.7521034930906,4.49690961650849,31.6354154365417));
#1052=CARTESIAN_POINT('Ctrl Pts',(85.7520936918312,4.48304164967545,31.6761175561208));
#1053=CARTESIAN_POINT('Ctrl Pts',(85.7520742594464,4.46648331518232,31.7158450271194));
#1054=CARTESIAN_POINT('Ctrl Pts',(85.7520543686027,4.44953432785496,31.7565097692638));
#1055=CARTESIAN_POINT('Ctrl Pts',(85.7520220079826,4.42991376179431,31.7957978193028));
#1056=CARTESIAN_POINT('Ctrl Pts',(85.7520032671479,4.40770336994864,31.8334314367586));
#1057=CARTESIAN_POINT('Ctrl Pts',(85.7519853504103,4.38646964318693,31.8694101784063));
#1058=CARTESIAN_POINT('Ctrl Pts',(85.7519797762139,4.36286825532265,31.903877504721));
#1059=CARTESIAN_POINT('Ctrl Pts',(85.7520205573873,4.33693668938208,31.9365641154249));
#1060=CARTESIAN_POINT('Ctrl Pts',(85.7520573413255,4.31354684942145,31.9660468930932));
#1061=CARTESIAN_POINT('Ctrl Pts',(85.7521321595497,4.28826019096992,31.9940805930466));
#1062=CARTESIAN_POINT('Ctrl Pts',(85.752211067878,4.26120312710111,32.0205576061839));
#1063=CARTESIAN_POINT('Ctrl Pts',(85.7523018799777,4.2300643508423,32.0510288277503));
#1064=CARTESIAN_POINT('Ctrl Pts',(85.752398911093,4.19688602794973,32.0791428817766));
#1065=CARTESIAN_POINT('Ctrl Pts',(85.7524731322865,4.16196127253722,32.1048347598809));
#1066=CARTESIAN_POINT('Ctrl Pts',(85.7525493809461,4.12608249365737,32.131228451193));
#1067=CARTESIAN_POINT('Ctrl Pts',(85.7526015210047,4.08835968688404,32.1550664835686));
#1068=CARTESIAN_POINT('Ctrl Pts',(85.7526165745375,4.04907200599926,32.1762439589323));
#1069=CARTESIAN_POINT('Ctrl Pts',(85.7526274448545,4.02070195135388,32.1915364404377));
#1070=CARTESIAN_POINT('Ctrl Pts',(85.7526193685002,3.991515042626,32.205440896085));
#1071=CARTESIAN_POINT('Ctrl Pts',(85.7525933236039,3.96160841980879,32.2179041610573));
#1072=CARTESIAN_POINT('Ctrl Pts',(85.7525575908775,3.92057753378996,32.2350033436573));
#1073=CARTESIAN_POINT('Ctrl Pts',(85.752493202852,3.87854789056122,32.2492455568321));
#1074=CARTESIAN_POINT('Ctrl Pts',(85.752412431248,3.8358110793156,32.2605990226934));
#1075=CARTESIAN_POINT('Ctrl Pts',(85.7523301918317,3.79229763844658,32.2721588080639));
#1076=CARTESIAN_POINT('Ctrl Pts',(85.7522309951765,3.7480501441476,32.2807244679056));
#1077=CARTESIAN_POINT('Ctrl Pts',(85.7521512143961,3.70334472569435,32.2862256544039));
#1078=CARTESIAN_POINT('Ctrl Pts',(85.7520807532001,3.66386156655475,32.2910842203112));
#1079=CARTESIAN_POINT('Ctrl Pts',(85.752025813937,3.62402032046647,32.293552132727));
#1080=CARTESIAN_POINT('Ctrl Pts',(85.7520258928467,3.58400019166202,32.2935524122395));
#1081=CARTESIAN_POINT('Ctrl Pts',(85.752025876664,3.58400018715031,32.2935524074584));
#1082=CARTESIAN_POINT('Ctrl Pts',(88.540674639474,4.36147164721764,33.117444306356));
#1083=CARTESIAN_POINT('Ctrl Pts',(92.8429120423283,6.95592945961782,34.467662926075));
#1084=CARTESIAN_POINT('Ctrl Pts',(96.6389017251421,12.9131969929759,35.7339691075159));
#1085=CARTESIAN_POINT('Ctrl Pts',(97.4242697902662,16.9398099884701,36.0026808218065));
#1086=CARTESIAN_POINT('Ctrl Pts',(97.4297084318305,18.9567118215977,36.0045322431215));
#1087=CARTESIAN_POINT('Origin',(0.75202593192868,0.,320.));
#1088=CARTESIAN_POINT('',(85.7520259319287,3.,32.2935523836839));
#1089=CARTESIAN_POINT('',(85.7520259319287,0.,32.2935523836839));
#1090=CARTESIAN_POINT('',(-84.2479740680713,3.,32.2935523836839));
#1091=CARTESIAN_POINT('Origin',(0.75202593192868,3.,320.));
#1092=CARTESIAN_POINT('',(-84.2479740680051,3.58400001437814,32.2935523836644));
#1093=CARTESIAN_POINT('',(-84.2479740680713,0.,32.2935523836839));
#1094=CARTESIAN_POINT('',(-95.9256565679731,18.9567118215977,36.0045322431215));
#1095=CARTESIAN_POINT('Ctrl Pts',(-95.9256565679731,18.9567118215978,36.0045322431215));
#1096=CARTESIAN_POINT('Ctrl Pts',(-95.9202179264088,16.9398099884701,36.0026808218065));
#1097=CARTESIAN_POINT('Ctrl Pts',(-95.1348533113184,12.9131939251172,35.7339700903885));
#1098=CARTESIAN_POINT('Ctrl Pts',(-91.3388631357531,6.9559228038975,34.4676626778687));
#1099=CARTESIAN_POINT('Ctrl Pts',(-87.0366227826395,4.36147163139635,33.1174443057637));
#1100=CARTESIAN_POINT('Ctrl Pts',(-84.2479740128213,3.58400018710157,32.2935524074548));
#1101=CARTESIAN_POINT('',(-96.2166934907426,19.,36.1037734426058));
#1102=CARTESIAN_POINT('Ctrl Pts',(-96.2166934907426,19.,36.1037734426058));
#1103=CARTESIAN_POINT('Ctrl Pts',(-96.1220126602398,19.,36.0714338831863));
#1104=CARTESIAN_POINT('Ctrl Pts',(-96.0222157518861,18.9860856488222,36.0374029019335));
#1105=CARTESIAN_POINT('Ctrl Pts',(-95.9256565679731,18.9567118215977,36.0045322431215));
#1106=CARTESIAN_POINT('',(-99.2479740680713,19.,37.1572875253809));
#1107=CARTESIAN_POINT('Origin',(0.75202593192868,19.,320.));
#1108=CARTESIAN_POINT('',(-99.2479740680713,0.,37.1572875253809));
#1109=CARTESIAN_POINT('',(-99.2479740680713,0.,37.1572875253809));
#1110=CARTESIAN_POINT('',(100.752025931929,0.,37.1572875253809));
#1111=CARTESIAN_POINT('Origin',(0.75202593192868,0.,320.));
#1112=CARTESIAN_POINT('',(100.752025931929,19.,37.1572875253809));
#1113=CARTESIAN_POINT('',(100.752025931929,0.,37.1572875253809));
#1114=CARTESIAN_POINT('Origin',(0.75202593192868,19.,320.));
#1115=CARTESIAN_POINT('Ctrl Pts',(-84.2313627723902,3.57937888554564,-32.2886452634678));
#1116=CARTESIAN_POINT('Ctrl Pts',(-87.0263788983606,4.35529792208278,-33.114229439962));
#1117=CARTESIAN_POINT('Ctrl Pts',(-91.3356374609605,6.95085994736095,-34.4665866128491));
#1118=CARTESIAN_POINT('Ctrl Pts',(-95.1348533223425,12.9131941880375,-35.7339701007545));
#1119=CARTESIAN_POINT('Ctrl Pts',(-95.9202179268399,16.9398101483217,-36.0026808219532));
#1120=CARTESIAN_POINT('Ctrl Pts',(-95.9256565679731,18.9567118215977,-36.0045322431216));
#1121=CARTESIAN_POINT('Ctrl Pts',(-84.1613111655359,3.8546494407859,-32.2679536124897));
#1122=CARTESIAN_POINT('Ctrl Pts',(-86.9128159483998,4.60796558400913,-33.0795700105832));
#1123=CARTESIAN_POINT('Ctrl Pts',(-91.1639093434791,7.1474823250311,-34.4116547417136));
#1124=CARTESIAN_POINT('Ctrl Pts',(-94.9193413536219,13.0082614924747,-35.6609930589656));
#1125=CARTESIAN_POINT('Ctrl Pts',(-95.6962042197116,16.9720593389499,-35.9264274937773));
#1126=CARTESIAN_POINT('Ctrl Pts',(-95.7015836512324,18.9573883094088,-35.9282533839109));
#1127=CARTESIAN_POINT('Ctrl Pts',(-84.1039612901669,4.33199520463765,-32.0149723408282));
#1128=CARTESIAN_POINT('Ctrl Pts',(-86.7773635255915,5.04737491466317,-32.8201329463391));
#1129=CARTESIAN_POINT('Ctrl Pts',(-90.9217613001831,7.48938888264655,-34.1420625201064));
#1130=CARTESIAN_POINT('Ctrl Pts',(-94.5945681887698,13.1743883417496,-35.3845053722727));
#1131=CARTESIAN_POINT('Ctrl Pts',(-95.3553970525119,17.0280886263742,-35.6481144254726));
#1132=CARTESIAN_POINT('Ctrl Pts',(-95.3606634948465,18.958567014588,-35.649931002791));
#1133=CARTESIAN_POINT('Ctrl Pts',(-84.1916082653765,4.52757208880247,-31.5350426267916));
#1134=CARTESIAN_POINT('Ctrl Pts',(-86.8261334131135,5.24537738604166,-32.3564728708688));
#1135=CARTESIAN_POINT('Ctrl Pts',(-90.8984820935635,7.66904921494777,-33.7028610104178));
#1136=CARTESIAN_POINT('Ctrl Pts',(-94.4978735028492,13.2706661364122,-34.9657716863818));
#1137=CARTESIAN_POINT('Ctrl Pts',(-95.24276177442,17.0608299825792,-35.2335613620452));
#1138=CARTESIAN_POINT('Ctrl Pts',(-95.2479187271818,18.9592538301618,-35.235406723994));
#1139=CARTESIAN_POINT('Ctrl Pts',(-84.2479740680713,4.54316770519903,-31.3296074143461));
#1140=CARTESIAN_POINT('Ctrl Pts',(-86.8770361115622,5.27059180195261,-32.1579435380952));
#1141=CARTESIAN_POINT('Ctrl Pts',(-90.9304324470077,7.70393120065089,-33.5148085682253));
#1142=CARTESIAN_POINT('Ctrl Pts',(-94.5040698666201,13.2936195512852,-34.786416667757));
#1143=CARTESIAN_POINT('Ctrl Pts',(-95.2428034477255,17.0685720140516,-35.0560230913598));
#1144=CARTESIAN_POINT('Ctrl Pts',(-95.2479191695415,18.9594173327479,-35.057880683932));
#1145=CARTESIAN_POINT('',(-95.2186485268257,18.0625,-35.0472539989705));
#1146=CARTESIAN_POINT('Ctrl Pts',(-95.9256565679731,18.9567118215977,-36.0045322431216));
#1147=CARTESIAN_POINT('Ctrl Pts',(-95.8253926708811,18.9262110005398,-35.9704004265619));
#1148=CARTESIAN_POINT('Ctrl Pts',(-95.7355283782547,18.881719670792,-35.9221001423727));
#1149=CARTESIAN_POINT('Ctrl Pts',(-95.5500650034498,18.7565004817301,-35.7871435703789));
#1150=CARTESIAN_POINT('Ctrl Pts',(-95.4644624125039,18.6686896363318,-35.6931358327341));
#1151=CARTESIAN_POINT('Ctrl Pts',(-95.3446449184212,18.4984040030836,-35.5110507013081));
#1152=CARTESIAN_POINT('Ctrl Pts',(-95.3032861614156,18.4165321120761,-35.4236104860178));
#1153=CARTESIAN_POINT('Ctrl Pts',(-95.243108112139,18.246244807435,-35.2421343232288));
#1154=CARTESIAN_POINT('Ctrl Pts',(-95.2249389593587,18.1565693288001,-35.1467766826368));
#1155=CARTESIAN_POINT('Ctrl Pts',(-95.2188320339827,18.065380393742,-35.050301005042));
#1156=CARTESIAN_POINT('Ctrl Pts',(-95.2187387202649,18.0639402737253,-35.048777519415));
#1157=CARTESIAN_POINT('Ctrl Pts',(-95.2186485268256,18.0624999999997,-35.0472539989705));
#1158=CARTESIAN_POINT('',(-84.2479740680714,4.54316770519907,-31.3296074143462));
#1159=CARTESIAN_POINT('Ctrl Pts',(-95.218275155226,18.0625272488503,-35.0470841498902));
#1160=CARTESIAN_POINT('Ctrl Pts',(-95.1177349765381,16.4748048470793,-35.0104951045383));
#1161=CARTESIAN_POINT('Ctrl Pts',(-94.3424856189606,13.0408783017584,-34.7289201134192));
#1162=CARTESIAN_POINT('Ctrl Pts',(-90.9304324470077,7.70393120065089,-33.5148085682253));
#1163=CARTESIAN_POINT('Ctrl Pts',(-86.8770361115622,5.27059180195261,-32.1579435380952));
#1164=CARTESIAN_POINT('Ctrl Pts',(-84.2479740680713,4.54316770519903,-31.3296074143461));
#1165=CARTESIAN_POINT('Ctrl Pts',(-84.2479740680713,4.54316770519903,-31.3296074143461));
#1166=CARTESIAN_POINT('Ctrl Pts',(-84.2479740680713,4.54316770519903,-31.3750856815313));
#1167=CARTESIAN_POINT('Ctrl Pts',(-84.2479949099832,4.54011460465236,-31.420404129429));
#1168=CARTESIAN_POINT('Ctrl Pts',(-84.2480132922292,4.53406917227236,-31.4652711639459));
#1169=CARTESIAN_POINT('Ctrl Pts',(-84.2480310895565,4.52821610411964,-31.5087105400452));
#1170=CARTESIAN_POINT('Ctrl Pts',(-84.2480464525473,4.51955755301495,-31.5517276979453));
#1171=CARTESIAN_POINT('Ctrl Pts',(-84.2480490407598,4.50810750963719,-31.5940377034247));
#1172=CARTESIAN_POINT('Ctrl Pts',(-84.24805157194,4.49690977282231,-31.6354153899856));
#1173=CARTESIAN_POINT('Ctrl Pts',(-84.2480417572297,4.48304181276881,-31.6761176013265));
#1174=CARTESIAN_POINT('Ctrl Pts',(-84.2480223118079,4.46648347510605,-31.7158451600869));
#1175=CARTESIAN_POINT('Ctrl Pts',(-84.2480024076734,4.44953453029657,-31.7565098822686));
#1176=CARTESIAN_POINT('Ctrl Pts',(-84.2479700343893,4.42991401099775,-31.7957979141718));
#1177=CARTESIAN_POINT('Ctrl Pts',(-84.24795128334,4.40770366628366,-31.8334315131452));
#1178=CARTESIAN_POINT('Ctrl Pts',(-84.2479333567999,4.38646994069246,-31.8694103114887));
#1179=CARTESIAN_POINT('Ctrl Pts',(-84.2479277750827,4.36286854457044,-31.9038776879493));
#1180=CARTESIAN_POINT('Ctrl Pts',(-84.2479685528563,4.33693695776009,-31.9365643386603));
#1181=CARTESIAN_POINT('Ctrl Pts',(-84.2480053336891,4.31354712368846,-31.9660471212635));
#1182=CARTESIAN_POINT('Ctrl Pts',(-84.2480801520896,4.28826046485323,-31.9940808209488));
#1183=CARTESIAN_POINT('Ctrl Pts',(-84.248159063118,4.26120339579193,-32.0205578298199));
#1184=CARTESIAN_POINT('Ctrl Pts',(-84.2482498782228,4.23006464863753,-32.0510290121484));
#1185=CARTESIAN_POINT('Ctrl Pts',(-84.2483469156355,4.19688635314282,-32.0791430270083));
#1186=CARTESIAN_POINT('Ctrl Pts',(-84.2484211451992,4.16196162495005,-32.1048348683158));
#1187=CARTESIAN_POINT('Ctrl Pts',(-84.2484974025183,4.12608284553101,-32.1312285427935));
#1188=CARTESIAN_POINT('Ctrl Pts',(-84.2485495533868,4.08836003510289,-32.155066556771));
#1189=CARTESIAN_POINT('Ctrl Pts',(-84.2485646185317,4.04907234976215,-32.1762440144449));
#1190=CARTESIAN_POINT('Ctrl Pts',(-84.2485754972591,4.02070222635574,-32.1915365185065));
#1191=CARTESIAN_POINT('Ctrl Pts',(-84.2485674296456,3.99151524467365,-32.205440990669));
#1192=CARTESIAN_POINT('Ctrl Pts',(-84.2485413933266,3.96160854623611,-32.2179042665993));
#1193=CARTESIAN_POINT('Ctrl Pts',(-84.2485056724712,3.92057767491508,-32.235003414872));
#1194=CARTESIAN_POINT('Ctrl Pts',(-84.2484412960906,3.8785480487394,-32.2492455993437));
#1195=CARTESIAN_POINT('Ctrl Pts',(-84.2483605346352,3.83581125846138,-32.2605990441785));
#1196=CARTESIAN_POINT('Ctrl Pts',(-84.2482783054844,3.79229780331716,-32.2721588176041));
#1197=CARTESIAN_POINT('Ctrl Pts',(-84.2481791175162,3.74805029759953,-32.2807244685543));
#1198=CARTESIAN_POINT('Ctrl Pts',(-84.2480993425796,3.70334487288558,-32.2862256512374));
#1199=CARTESIAN_POINT('Ctrl Pts',(-84.2480288864601,3.66386166076802,-32.2910842196139));
#1200=CARTESIAN_POINT('Ctrl Pts',(-84.2479739500931,3.62402036486081,-32.2935521327149));
#1201=CARTESIAN_POINT('Ctrl Pts',(-84.2479740289956,3.58400019161311,-32.2935524122336));
#1202=CARTESIAN_POINT('Origin',(-84.2479740680713,0.,40.));
#1203=CARTESIAN_POINT('',(-84.2479740680713,4.54316770519904,-6.80432529007306));
#1204=CARTESIAN_POINT('',(-84.2479740680713,4.54316770519904,40.));
#1205=CARTESIAN_POINT('',(-84.2479740680713,4.48971754512655,-6.83603977963154));
#1206=CARTESIAN_POINT('',(-84.2479740680713,16.2302218009529,0.130152634529894));
#1207=CARTESIAN_POINT('',(-84.2479740680713,4.,-7.69604664951591));
#1208=CARTESIAN_POINT('Origin',(-84.2479740680713,5.,-7.69604664951591));
#1209=CARTESIAN_POINT('',(-84.2479740680713,4.,-31.2509740276168));
#1210=CARTESIAN_POINT('',(-84.2479740680713,4.,20.));
#1211=CARTESIAN_POINT('Ctrl Pts',(-84.2479740680713,4.,-31.2509740276168));
#1212=CARTESIAN_POINT('Ctrl Pts',(-84.2479740680713,4.,-31.3813422582164));
#1213=CARTESIAN_POINT('Ctrl Pts',(-84.2479740680713,3.97037091368212,-31.5349527332352));
#1214=CARTESIAN_POINT('Ctrl Pts',(-84.2479740680713,3.87367168662071,-31.7741741628251));
#1215=CARTESIAN_POINT('Ctrl Pts',(-84.2479740680713,3.79040989702668,-31.9027610875069));
#1216=CARTESIAN_POINT('Ctrl Pts',(-84.2479740680713,3.61444365520788,-32.0832515399624));
#1217=CARTESIAN_POINT('Ctrl Pts',(-84.2479740680713,3.49153273840893,-32.1680030604432));
#1218=CARTESIAN_POINT('Ctrl Pts',(-84.2479740680713,3.2649137009031,-32.2641858044707));
#1219=CARTESIAN_POINT('Ctrl Pts',(-84.2479740680713,3.1217704579493,-32.293552383684));
#1220=CARTESIAN_POINT('Ctrl Pts',(-84.2479740680713,3.,-32.293552383684));
#1221=CARTESIAN_POINT('Ctrl Pts',(-95.9256565679731,18.9567118215978,36.0045322431215));
#1222=CARTESIAN_POINT('Ctrl Pts',(-95.9202179264088,16.9398099884701,36.0026808218065));
#1223=CARTESIAN_POINT('Ctrl Pts',(-95.1348533113184,12.9131939251172,35.7339700903885));
#1224=CARTESIAN_POINT('Ctrl Pts',(-91.3356370327321,6.95085989027744,34.4665864795699));
#1225=CARTESIAN_POINT('Ctrl Pts',(-87.0263792648056,4.35529802381088,33.1142295482015));
#1226=CARTESIAN_POINT('Ctrl Pts',(-84.2313627723902,3.57937888554564,32.2886452634678));
#1227=CARTESIAN_POINT('Ctrl Pts',(-95.7015836512324,18.9573883094088,35.9282533839109));
#1228=CARTESIAN_POINT('Ctrl Pts',(-95.6962042192852,16.9720591816006,35.9264274936325));
#1229=CARTESIAN_POINT('Ctrl Pts',(-94.9193413420401,13.0082612332553,35.6609930485884));
#1230=CARTESIAN_POINT('Ctrl Pts',(-91.1639089211493,7.1474822704859,34.4116546105217));
#1231=CARTESIAN_POINT('Ctrl Pts',(-86.9128163091401,4.60796568277383,33.0795701169914));
#1232=CARTESIAN_POINT('Ctrl Pts',(-84.1613111655359,3.85464944078591,32.2679536124897));
#1233=CARTESIAN_POINT('Ctrl Pts',(-95.3606634948465,18.958567014588,35.649931002791));
#1234=CARTESIAN_POINT('Ctrl Pts',(-95.3553970520945,17.0280884733722,35.6481144253286));
#1235=CARTESIAN_POINT('Ctrl Pts',(-94.5945681763691,13.1743880890468,35.3845053618457));
#1236=CARTESIAN_POINT('Ctrl Pts',(-90.9217608886585,7.48938883236674,34.1420623898488));
#1237=CARTESIAN_POINT('Ctrl Pts',(-86.7773638760921,5.04737500845417,32.8201330519009));
#1238=CARTESIAN_POINT('Ctrl Pts',(-84.103961290167,4.33199520463766,32.0149723408281));
#1239=CARTESIAN_POINT('Ctrl Pts',(-95.2479187271818,18.9592538301618,35.235406723994));
#1240=CARTESIAN_POINT('Ctrl Pts',(-95.2427617740113,17.0608298321177,35.2335613618989));
#1241=CARTESIAN_POINT('Ctrl Pts',(-94.4978734915716,13.2706658884579,34.9657716759748));
#1242=CARTESIAN_POINT('Ctrl Pts',(-90.8984816890327,7.6690491632562,33.7028608777288));
#1243=CARTESIAN_POINT('Ctrl Pts',(-86.8261337585171,5.24537748015067,32.3564729785636));
#1244=CARTESIAN_POINT('Ctrl Pts',(-84.1916082653765,4.52757208880249,31.5350426267916));
#1245=CARTESIAN_POINT('Ctrl Pts',(-95.2479191695415,18.9594173327479,35.0578806839319));
#1246=CARTESIAN_POINT('Ctrl Pts',(-95.2428034473201,17.0685718641907,35.0560230912125));
#1247=CARTESIAN_POINT('Ctrl Pts',(-94.5040698562505,13.2936193047974,34.7864166573565));
#1248=CARTESIAN_POINT('Ctrl Pts',(-90.9304320442053,7.7039311471351,33.5148084345018));
#1249=CARTESIAN_POINT('Ctrl Pts',(-86.8770364562495,5.27059189732271,32.1579436466955));
#1250=CARTESIAN_POINT('Ctrl Pts',(-84.2479740680713,4.54316770519905,31.329607414346));
#1251=CARTESIAN_POINT('',(-95.2186485268257,18.0625,35.0472539989704));
#1252=CARTESIAN_POINT('Ctrl Pts',(-95.2186485268256,18.0624999999997,35.0472539989704));
#1253=CARTESIAN_POINT('Ctrl Pts',(-95.2187387202654,18.063940273733,35.0487775194232));
#1254=CARTESIAN_POINT('Ctrl Pts',(-95.2188320339825,18.06538039374,35.0503010050417));
#1255=CARTESIAN_POINT('Ctrl Pts',(-95.2249389593656,18.1565693288945,35.1467766827105));
#1256=CARTESIAN_POINT('Ctrl Pts',(-95.2431081121403,18.2462448074294,35.2421343232228));
#1257=CARTESIAN_POINT('Ctrl Pts',(-95.3032861613886,18.4165321120087,35.423610485946));
#1258=CARTESIAN_POINT('Ctrl Pts',(-95.3446449183679,18.4984040029817,35.5110507011992));
#1259=CARTESIAN_POINT('Ctrl Pts',(-95.4644624124171,18.66868963624,35.6931358326357));
#1260=CARTESIAN_POINT('Ctrl Pts',(-95.5500650033805,18.7565004816763,35.7871435703211));
#1261=CARTESIAN_POINT('Ctrl Pts',(-95.7355283782262,18.8817196707779,35.9221001423574));
#1262=CARTESIAN_POINT('Ctrl Pts',(-95.8253926708652,18.926211000535,35.9704004265564));
#1263=CARTESIAN_POINT('Ctrl Pts',(-95.9256565679731,18.9567118215977,36.0045322431215));
#1264=CARTESIAN_POINT('',(-84.2479740680714,4.54316770519907,31.3296074143461));
#1265=CARTESIAN_POINT('Ctrl Pts',(-84.2479740290102,3.58400019161501,32.2935524122377));
#1266=CARTESIAN_POINT('Ctrl Pts',(-84.2479739398067,3.62925466438542,32.2935520961656));
#1267=CARTESIAN_POINT('Ctrl Pts',(-84.2480439433551,3.67427708414542,32.2903973396228));
#1268=CARTESIAN_POINT('Ctrl Pts',(-84.2481280540371,3.71880798366421,32.2841981365858));
#1269=CARTESIAN_POINT('Ctrl Pts',(-84.248211252964,3.76285617069395,32.2780661325671));
#1270=CARTESIAN_POINT('Ctrl Pts',(-84.2483082071482,3.80642437125729,32.2689547915815));
#1271=CARTESIAN_POINT('Ctrl Pts',(-84.2483861002313,3.84924435997996,32.2569288261192));
#1272=CARTESIAN_POINT('Ctrl Pts',(-84.2484592281756,3.88944481974117,32.2456385536301));
#1273=CARTESIAN_POINT('Ctrl Pts',(-84.2485156772766,3.92898635251571,32.2317786961794));
#1274=CARTESIAN_POINT('Ctrl Pts',(-84.2485464032696,3.96762174125246,32.2153747884593));
#1275=CARTESIAN_POINT('Ctrl Pts',(-84.2485792783712,4.00895945588999,32.1978235206076));
#1276=CARTESIAN_POINT('Ctrl Pts',(-84.2485762309242,4.04889042966861,32.1775149181848));
#1277=CARTESIAN_POINT('Ctrl Pts',(-84.2485383626062,4.08715450671955,32.1545867644192));
#1278=CARTESIAN_POINT('Ctrl Pts',(-84.248501306918,4.12459746127809,32.1321506340921));
#1279=CARTESIAN_POINT('Ctrl Pts',(-84.248430926508,4.16044518052794,32.1072055291726));
#1280=CARTESIAN_POINT('Ctrl Pts',(-84.2483450232765,4.19442855207185,32.0798425750405));
#1281=CARTESIAN_POINT('Ctrl Pts',(-84.2482776606973,4.22107723007823,32.0583854175885));
#1282=CARTESIAN_POINT('Ctrl Pts',(-84.2482010734916,4.2465791531422,32.0354406640898));
#1283=CARTESIAN_POINT('Ctrl Pts',(-84.2481312401404,4.27078787813461,32.0110390093244));
#1284=CARTESIAN_POINT('Ctrl Pts',(-84.248063541582,4.29425654686466,31.9873833086491));
#1285=CARTESIAN_POINT('Ctrl Pts',(-84.2480016865303,4.31633476375178,31.9625337946166));
#1286=CARTESIAN_POINT('Ctrl Pts',(-84.2479692775294,4.33693715925387,31.936564558851));
#1287=CARTESIAN_POINT('Ctrl Pts',(-84.2479266446451,4.36403887540468,31.9024029558323));
#1288=CARTESIAN_POINT('Ctrl Pts',(-84.2479342548404,4.38858871586582,31.866305115754));
#1289=CARTESIAN_POINT('Ctrl Pts',(-84.2479539256853,4.41054700781929,31.8285804504534));
#1290=CARTESIAN_POINT('Ctrl Pts',(-84.247973575613,4.43248195029475,31.790895899896));
#1291=CARTESIAN_POINT('Ctrl Pts',(-84.2480054843596,4.45183122911014,31.7515869106214));
#1292=CARTESIAN_POINT('Ctrl Pts',(-84.2480246752403,4.46851614568184,31.710930437943));
#1293=CARTESIAN_POINT('Ctrl Pts',(-84.248043722736,4.48507640058118,31.6705777308757));
#1294=CARTESIAN_POINT('Ctrl Pts',(-84.2480524348747,4.49887280922826,31.6292390588087));
#1295=CARTESIAN_POINT('Ctrl Pts',(-84.248048645583,4.50992559461659,31.587224534865));
#1296=CARTESIAN_POINT('Ctrl Pts',(-84.2480447074336,4.52141257532998,31.5435595210909));
#1297=CARTESIAN_POINT('Ctrl Pts',(-84.248027379507,4.52993671419122,31.4991636002253));
#1298=CARTESIAN_POINT('Ctrl Pts',(-84.2480088781424,4.53548085683827,31.4543466535519));
#1299=CARTESIAN_POINT('Ctrl Pts',(-84.2479918300915,4.54058949763814,31.4130501543678));
#1300=CARTESIAN_POINT('Ctrl Pts',(-84.2479740680713,4.54316770519905,31.3713950834674));
#1301=CARTESIAN_POINT('Ctrl Pts',(-84.2479740680713,4.54316770519905,31.329607414346));
#1302=CARTESIAN_POINT('Ctrl Pts',(-84.2479740680713,4.54316770519905,31.329607414346));
#1303=CARTESIAN_POINT('Ctrl Pts',(-86.8770364562495,5.27059189732271,32.1579436466955));
#1304=CARTESIAN_POINT('Ctrl Pts',(-90.9304320442053,7.7039311471351,33.5148084345018));
#1305=CARTESIAN_POINT('Ctrl Pts',(-94.3424856023019,13.0408780819133,34.7289201015186));
#1306=CARTESIAN_POINT('Ctrl Pts',(-95.1177349826589,16.4748047250576,35.0104951058218));
#1307=CARTESIAN_POINT('Ctrl Pts',(-95.2182751585156,18.0625272486185,35.0470841508692));
#1308=CARTESIAN_POINT('Origin',(-84.2479740680713,0.,40.));
#1309=CARTESIAN_POINT('',(-84.2479740680713,4.,31.2509740276168));
#1310=CARTESIAN_POINT('Ctrl Pts',(-84.2479740680713,3.,32.2935523836839));
#1311=CARTESIAN_POINT('Ctrl Pts',(-84.2479740680713,3.1217704579493,32.2935523836839));
#1312=CARTESIAN_POINT('Ctrl Pts',(-84.2479740680713,3.26491370090311,32.2641858044706));
#1313=CARTESIAN_POINT('Ctrl Pts',(-84.2479740680713,3.49153273840894,32.1680030604432));
#1314=CARTESIAN_POINT('Ctrl Pts',(-84.2479740680713,3.61444365520789,32.0832515399623));
#1315=CARTESIAN_POINT('Ctrl Pts',(-84.2479740680713,3.79040989702668,31.9027610875069));
#1316=CARTESIAN_POINT('Ctrl Pts',(-84.2479740680713,3.87367168662072,31.7741741628251));
#1317=CARTESIAN_POINT('Ctrl Pts',(-84.2479740680713,3.97037091368212,31.5349527332352));
#1318=CARTESIAN_POINT('Ctrl Pts',(-84.2479740680713,4.,31.3813422582164));
#1319=CARTESIAN_POINT('Ctrl Pts',(-84.2479740680713,4.,31.2509740276168));
#1320=CARTESIAN_POINT('',(-84.2479740680713,4.,7.70770507962258));
#1321=CARTESIAN_POINT('',(-84.2479740680713,4.,20.));
#1322=CARTESIAN_POINT('',(-84.2479740680713,4.4913717479846,6.84671884207186));
#1323=CARTESIAN_POINT('Origin',(-84.2479740680713,5.,7.70770507962258));
#1324=CARTESIAN_POINT('',(-84.2479740680713,4.54316770519904,6.81612034231605));
#1325=CARTESIAN_POINT('',(-84.2479740680713,-6.67830935647488,13.4452161559108));
#1326=CARTESIAN_POINT('',(-84.2479740680713,4.54316770519904,40.));
#1327=CARTESIAN_POINT('Origin',(50.7520259319287,5.,-7.69604664951591));
#1328=CARTESIAN_POINT('',(85.7520259319287,4.,-7.69604664951591));
#1329=CARTESIAN_POINT('',(85.7520259319287,4.48971754512655,-6.83603977963153));
#1330=CARTESIAN_POINT('Origin',(85.7520259319287,5.,-7.69604664951591));
#1331=CARTESIAN_POINT('',(50.7520259319287,4.,-7.69604664951591));
#1332=CARTESIAN_POINT('',(50.7520259319287,4.48971754512655,-6.83603977963153));
#1333=CARTESIAN_POINT('Origin',(0.752025931928699,4.,0.));
#1334=CARTESIAN_POINT('',(85.7520259319287,4.,-31.2509740276168));
#1335=CARTESIAN_POINT('',(85.7520259319287,4.,-20.));
#1336=CARTESIAN_POINT('Origin',(0.752025931928683,4.,-320.));
#1337=CARTESIAN_POINT('',(-78.7479740680713,4.,-17.1428571428571));
#1338=CARTESIAN_POINT('Origin',(-77.2479740680713,4.,-17.1428571428571));
#1339=CARTESIAN_POINT('Origin',(93.2520259319287,19.,0.));
#1340=CARTESIAN_POINT('',(100.752025931929,19.,-40.));
#1341=CARTESIAN_POINT('',(100.752025931929,19.,-40.));
#1342=CARTESIAN_POINT('',(100.,19.,-40.));
#1343=CARTESIAN_POINT('',(85.7520259319287,19.,-40.));
#1344=CARTESIAN_POINT('',(100.,19.,-18.4462649350224));
#1345=CARTESIAN_POINT('Origin',(0.752025931928683,3.,-320.));
#1346=CARTESIAN_POINT('Ctrl Pts',(85.7520259319287,3.,-32.293552383684));
#1347=CARTESIAN_POINT('Ctrl Pts',(85.7520259319287,3.1217704579493,-32.293552383684));
#1348=CARTESIAN_POINT('Ctrl Pts',(85.7520259319287,3.26491370090311,-32.2641858044707));
#1349=CARTESIAN_POINT('Ctrl Pts',(85.7520259319287,3.49153273840894,-32.1680030604432));
#1350=CARTESIAN_POINT('Ctrl Pts',(85.7520259319287,3.61444365520789,-32.0832515399624));
#1351=CARTESIAN_POINT('Ctrl Pts',(85.7520259319287,3.79040989702668,-31.9027610875069));
#1352=CARTESIAN_POINT('Ctrl Pts',(85.7520259319287,3.87367168662072,-31.7741741628251));
#1353=CARTESIAN_POINT('Ctrl Pts',(85.7520259319287,3.97037091368212,-31.5349527332352));
#1354=CARTESIAN_POINT('Ctrl Pts',(85.7520259319287,4.,-31.3813422582164));
#1355=CARTESIAN_POINT('Ctrl Pts',(85.7520259319287,4.,-31.2509740276168));
#1356=CARTESIAN_POINT('Origin',(50.7520259319287,5.,7.70770507962258));
#1357=CARTESIAN_POINT('',(85.7520259319287,4.,7.70770507962258));
#1358=CARTESIAN_POINT('',(50.7520259319287,4.,7.70770507962258));
#1359=CARTESIAN_POINT('',(85.7520259319287,4.49137174798459,6.84671884207185));
#1360=CARTESIAN_POINT('Origin',(85.7520259319287,5.,7.70770507962258));
#1361=CARTESIAN_POINT('',(50.7520259319287,4.49137174798459,6.84671884207185));
#1362=CARTESIAN_POINT('Origin',(85.7520259319287,0.,-40.));
#1363=CARTESIAN_POINT('',(85.7520259319287,4.54316770519905,6.81612034231604));
#1364=CARTESIAN_POINT('',(85.7520259319287,4.54316770519905,40.));
#1365=CARTESIAN_POINT('',(85.7520259319287,10.838567644115,3.09710820598088));
#1366=CARTESIAN_POINT('',(85.7520259319287,4.,31.2509740276168));
#1367=CARTESIAN_POINT('',(85.7520259319287,4.,-20.));
#1368=CARTESIAN_POINT('Ctrl Pts',(85.7520259319287,4.,31.2509740276168));
#1369=CARTESIAN_POINT('Ctrl Pts',(85.7520259319287,4.,31.3813422582164));
#1370=CARTESIAN_POINT('Ctrl Pts',(85.7520259319287,3.97037091368212,31.5349527332352));
#1371=CARTESIAN_POINT('Ctrl Pts',(85.7520259319287,3.87367168662072,31.7741741628251));
#1372=CARTESIAN_POINT('Ctrl Pts',(85.7520259319287,3.79040989702667,31.9027610875069));
#1373=CARTESIAN_POINT('Ctrl Pts',(85.7520259319287,3.61444365520788,32.0832515399623));
#1374=CARTESIAN_POINT('Ctrl Pts',(85.7520259319287,3.49153273840893,32.1680030604432));
#1375=CARTESIAN_POINT('Ctrl Pts',(85.7520259319287,3.2649137009031,32.2641858044706));
#1376=CARTESIAN_POINT('Ctrl Pts',(85.7520259319287,3.1217704579493,32.2935523836839));
#1377=CARTESIAN_POINT('Ctrl Pts',(85.7520259319287,3.,32.2935523836839));
#1378=CARTESIAN_POINT('Origin',(0.752025931928699,4.,0.));
#1379=CARTESIAN_POINT('Origin',(0.75202593192868,4.,320.));
#1380=CARTESIAN_POINT('',(-78.7479740680713,4.,17.1428571428571));
#1381=CARTESIAN_POINT('Origin',(-77.2479740680713,4.,17.1428571428571));
#1382=CARTESIAN_POINT('Origin',(0.75202593192868,3.,320.));
#1383=CARTESIAN_POINT('Origin',(-96.2166934907426,18.,40.));
#1384=CARTESIAN_POINT('',(-96.2166934907426,19.,40.));
#1385=CARTESIAN_POINT('',(-95.2186485268257,18.0625,40.));
#1386=CARTESIAN_POINT('Origin',(-91.7479740680713,19.,0.));
#1387=CARTESIAN_POINT('',(-99.2479740680713,19.,-40.));
#1388=CARTESIAN_POINT('Origin',(100.,0.,-36.8925298700449));
#1389=CARTESIAN_POINT('',(100.,0.,-40.));
#1390=CARTESIAN_POINT('',(100.,0.,-18.4462649350224));
#1391=CARTESIAN_POINT('',(100.,0.,-40.));
#1392=CARTESIAN_POINT('Origin',(85.7520259319287,0.,-40.));
#1393=CARTESIAN_POINT('',(85.7520259319287,4.54316770519905,-6.80432529007305));
#1394=CARTESIAN_POINT('',(85.7520259319287,-1.32363486995244,-10.2853747155371));
#1395=CARTESIAN_POINT('',(85.7520259319287,4.54316770519905,40.));
#1396=CARTESIAN_POINT('Origin',(-80.2479740680713,19.,40.));
#1397=CARTESIAN_POINT('',(-92.8103646957538,10.8032724994963,3.11795883857996));
#1398=CARTESIAN_POINT('Origin',(-80.2479740680713,19.,-1.72426395081996));
#1399=CARTESIAN_POINT('',(-92.7672333684283,10.7375459716604,-3.12890982664817));
#1400=CARTESIAN_POINT('Ctrl Pts',(-92.8103646957538,10.8032724994963,3.11795883857996));
#1401=CARTESIAN_POINT('Ctrl Pts',(-92.951026295804,11.0188519445903,3.07970490881305));
#1402=CARTESIAN_POINT('Ctrl Pts',(-93.086302576814,11.2386383009178,3.01727879617849));
#1403=CARTESIAN_POINT('Ctrl Pts',(-93.4454371614395,11.855485663865,2.76399814839783));
#1404=CARTESIAN_POINT('Ctrl Pts',(-93.64158014131,12.2379377378837,2.50427776042812));
#1405=CARTESIAN_POINT('Ctrl Pts',(-93.9096490013125,12.8000182978221,1.91419318306242));
#1406=CARTESIAN_POINT('Ctrl Pts',(-94.0099975222082,13.030519141949,1.57004103381221));
#1407=CARTESIAN_POINT('Ctrl Pts',(-94.1397195997795,13.3389580461766,0.809107689825646));
#1408=CARTESIAN_POINT('Ctrl Pts',(-94.1701286746287,13.4166666666667,0.392410397920241));
#1409=CARTESIAN_POINT('Ctrl Pts',(-94.1701286746287,13.4166666666667,0.));
#1410=CARTESIAN_POINT('Ctrl Pts',(-94.1701286746287,13.4166666666667,-0.406041938677539));
#1411=CARTESIAN_POINT('Ctrl Pts',(-94.1376299072526,13.3335074178839,-0.836085561540689));
#1412=CARTESIAN_POINT('Ctrl Pts',(-93.9992656519153,13.0055309769324,-1.61681919302624));
#1413=CARTESIAN_POINT('Ctrl Pts',(-93.8922118443134,12.7609468920899,-1.9673960554249));
#1414=CARTESIAN_POINT('Ctrl Pts',(-93.6155533765316,12.1867392979716,-2.54160364954315));
#1415=CARTESIAN_POINT('Ctrl Pts',(-93.4214013224592,11.8119643512499,-2.78685265072848));
#1416=CARTESIAN_POINT('Ctrl Pts',(-93.0594548506064,11.1939657749769,-3.03241047086652));
#1417=CARTESIAN_POINT('Ctrl Pts',(-92.9159096728584,10.962820109416,-3.09380766504332));
#1418=CARTESIAN_POINT('Ctrl Pts',(-92.7672333684283,10.7375459716604,-3.12890982664817));
#1419=CARTESIAN_POINT('Origin',(-80.2479740680713,19.,1.77359208642026));
#1420=CARTESIAN_POINT('Origin',(-99.2479740680713,0.,-40.));
#1421=CARTESIAN_POINT('',(-99.2479740680713,0.,-40.));
#1422=CARTESIAN_POINT('Origin',(100.752025931929,0.,9.5));
#1423=CARTESIAN_POINT('',(94.3144165596112,10.8032724994963,3.11795883857996));
#1424=CARTESIAN_POINT('Origin',(81.7520259319287,19.,-1.72426395081996));
#1425=CARTESIAN_POINT('',(100.752025931929,10.8032724994963,3.11795883857996));
#1426=CARTESIAN_POINT('Origin',(100.752025931929,10.7375459716604,-3.12890982664817));
#1427=CARTESIAN_POINT('',(94.2712852322857,10.7375459716604,-3.12890982664817));
#1428=CARTESIAN_POINT('',(100.752025931929,10.7375459716604,-3.12890982664817));
#1429=CARTESIAN_POINT('Origin',(81.7520259319287,19.,1.77359208642026));
#1430=CARTESIAN_POINT('Origin',(100.752025931929,10.25,-2.22044604925031E-15));
#1431=CARTESIAN_POINT('Ctrl Pts',(94.2712852322857,10.7375459716604,-3.12890982664817));
#1432=CARTESIAN_POINT('Ctrl Pts',(94.4199615367158,10.962820109416,-3.09380766504332));
#1433=CARTESIAN_POINT('Ctrl Pts',(94.5635067144638,11.1939657749769,-3.03241047086652));
#1434=CARTESIAN_POINT('Ctrl Pts',(94.9254531863165,11.8119643512499,-2.78685265072848));
#1435=CARTESIAN_POINT('Ctrl Pts',(95.119605240389,12.1867392979716,-2.54160364954315));
#1436=CARTESIAN_POINT('Ctrl Pts',(95.3962637081708,12.7609468920899,-1.96739605542489));
#1437=CARTESIAN_POINT('Ctrl Pts',(95.5033175157727,13.0055309769324,-1.61681919302624));
#1438=CARTESIAN_POINT('Ctrl Pts',(95.64168177111,13.3335074178839,-0.836085561540689));
#1439=CARTESIAN_POINT('Ctrl Pts',(95.6741805384861,13.4166666666667,-0.406041938677539));
#1440=CARTESIAN_POINT('Ctrl Pts',(95.6741805384861,13.4166666666667,0.));
#1441=CARTESIAN_POINT('Ctrl Pts',(95.6741805384861,13.4166666666667,0.39241039792024));
#1442=CARTESIAN_POINT('Ctrl Pts',(95.6437714636368,13.3389580461766,0.809107689825645));
#1443=CARTESIAN_POINT('Ctrl Pts',(95.5140493860656,13.030519141949,1.57004103381221));
#1444=CARTESIAN_POINT('Ctrl Pts',(95.4137008651699,12.8000182978221,1.91419318306242));
#1445=CARTESIAN_POINT('Ctrl Pts',(95.1456320051674,12.2379377378837,2.50427776042812));
#1446=CARTESIAN_POINT('Ctrl Pts',(94.9494890252969,11.855485663865,2.76399814839784));
#1447=CARTESIAN_POINT('Ctrl Pts',(94.5903544406713,11.2386383009178,3.01727879617849));
#1448=CARTESIAN_POINT('Ctrl Pts',(94.4550781596614,11.0188519445903,3.07970490881305));
#1449=CARTESIAN_POINT('Ctrl Pts',(94.3144165596112,10.8032724994963,3.11795883857996));
#1450=CARTESIAN_POINT('Origin',(0.752025931928699,0.,0.));
#1451=CARTESIAN_POINT('',(100.752025931929,0.,-40.));
#1452=CARTESIAN_POINT('',(85.7520259319287,0.,-40.));
#1453=CARTESIAN_POINT('',(100.752025931929,0.,-40.));
#1454=CARTESIAN_POINT('',(-78.7479740680713,0.,17.1428571428571));
#1455=CARTESIAN_POINT('Origin',(-77.2479740680713,0.,17.1428571428571));
#1456=CARTESIAN_POINT('',(-78.7479740680713,0.,-17.1428571428571));
#1457=CARTESIAN_POINT('Origin',(-77.2479740680713,0.,-17.1428571428571));
#1458=CARTESIAN_POINT('Origin',(81.7520259319287,19.,40.));
#1459=CARTESIAN_POINT('Origin',(100.752025931929,0.,-40.));
#1460=CARTESIAN_POINT('',(100.752025931929,0.,-40.));
#1461=CARTESIAN_POINT('Origin',(-77.2479740680713,0.,-17.1428571428571));
#1462=CARTESIAN_POINT('',(-78.7479740680713,0.,-17.1428571428571));
#1463=CARTESIAN_POINT('Origin',(-77.2479740680713,0.,17.1428571428571));
#1464=CARTESIAN_POINT('',(-78.7479740680713,0.,17.1428571428571));
#1465=CARTESIAN_POINT('Origin',(100.752025931929,0.,40.));
#1466=UNCERTAINTY_MEASURE_WITH_UNIT(LENGTH_MEASURE(0.01),#1470,
'DISTANCE_ACCURACY_VALUE',
'Maximum model space distance between geometric entities at asserted c
onnectivities');
#1467=UNCERTAINTY_MEASURE_WITH_UNIT(LENGTH_MEASURE(0.01),#1470,
'DISTANCE_ACCURACY_VALUE',
'Maximum model space distance between geometric entities at asserted c
onnectivities');
#1468=(
GEOMETRIC_REPRESENTATION_CONTEXT(3)
GLOBAL_UNCERTAINTY_ASSIGNED_CONTEXT((#1466))
GLOBAL_UNIT_ASSIGNED_CONTEXT((#1470,#1472,#1473))
REPRESENTATION_CONTEXT('','3D')
);
#1469=(
GEOMETRIC_REPRESENTATION_CONTEXT(3)
GLOBAL_UNCERTAINTY_ASSIGNED_CONTEXT((#1467))
GLOBAL_UNIT_ASSIGNED_CONTEXT((#1470,#1472,#1473))
REPRESENTATION_CONTEXT('','3D')
);
#1470=(
LENGTH_UNIT()
NAMED_UNIT(*)
SI_UNIT(.MILLI.,.METRE.)
);
#1471=(
LENGTH_UNIT()
NAMED_UNIT(*)
SI_UNIT($,.METRE.)
);
#1472=(
NAMED_UNIT(*)
PLANE_ANGLE_UNIT()
SI_UNIT($,.RADIAN.)
);
#1473=(
NAMED_UNIT(*)
SI_UNIT($,.STERADIAN.)
SOLID_ANGLE_UNIT()
);
#1474=SHAPE_DEFINITION_REPRESENTATION(#1475,#1476);
#1475=PRODUCT_DEFINITION_SHAPE('',$,#1478);
#1476=SHAPE_REPRESENTATION('',(#626),#1468);
#1477=PRODUCT_DEFINITION_CONTEXT('part definition',#1482,'design');
#1478=PRODUCT_DEFINITION('support_\X\E9tag\X\E8res_central',
'support_\X\E9tag\X\E8res_central v2',#1479,#1477);
#1479=PRODUCT_DEFINITION_FORMATION('',$,#1484);
#1480=PRODUCT_RELATED_PRODUCT_CATEGORY('support_\X\E9tag\X\E8res_centr
al v2','support_\X\E9tag\X\E8res_central v2',(#1484));
#1481=APPLICATION_PROTOCOL_DEFINITION('international standard',
'automotive_design',2009,#1482);
#1482=APPLICATION_CONTEXT(
'Core Data for Automotive Mechanical Design Process');
#1483=PRODUCT_CONTEXT('part definition',#1482,'mechanical');
#1484=PRODUCT('support_\X\E9tag\X\E8res_central',
'support_\X\E9tag\X\E8res_central v2',$,(#1483));
#1485=PRESENTATION_STYLE_ASSIGNMENT((#1486));
#1486=SURFACE_STYLE_USAGE(.BOTH.,#1487);
#1487=SURFACE_SIDE_STYLE('',(#1488));
#1488=SURFACE_STYLE_FILL_AREA(#1489);
#1489=FILL_AREA_STYLE('Acier - Satin\X\E9',(#1490));
#1490=FILL_AREA_STYLE_COLOUR('Acier - Satin\X\E9',#1491);
#1491=COLOUR_RGB('Acier - Satin\X\E9',0.627450980392157,0.627450980392157,
0.627450980392157);
ENDSEC;
END-ISO-10303-21;
