ISO-10303-21;
HEADER;
/* Generated by software containing ST-Developer
 * from STEP Tools, Inc. (www.steptools.com) 
 */

FILE_DESCRIPTION(
/* description */ (''),
/* implementation_level */ '2;1');

FILE_NAME(
/* name */ 'support lcd etau.step',
/* time_stamp */ '2026-03-20T20:03:36+01:00',
/* author */ (''),
/* organization */ (''),
/* preprocessor_version */ 'ST-DEVELOPER v20.1',
/* originating_system */ 'Autodesk Translation Framework v14.24.0.0',
/* authorisation */ '');

FILE_SCHEMA (('AUTOMOTIVE_DESIGN { 1 0 10303 214 3 1 1 }'));
ENDSEC;

DATA;
#10=MECHANICAL_DESIGN_GEOMETRIC_PRESENTATION_REPRESENTATION('',(#13),#1848);
#11=SHAPE_REPRESENTATION_RELATIONSHIP('SRR','None',#1855,#12);
#12=ADVANCED_BREP_SHAPE_REPRESENTATION('',(#1058),#1847);
#13=STYLED_ITEM('',(#1864),#1058);
#14=FACE_BOUND('',#339,.T.);
#15=FACE_BOUND('',#340,.T.);
#16=FACE_BOUND('',#341,.T.);
#17=FACE_BOUND('',#342,.T.);
#18=FACE_BOUND('',#352,.T.);
#19=FACE_BOUND('',#353,.T.);
#20=FACE_BOUND('',#354,.T.);
#21=FACE_BOUND('',#355,.T.);
#22=FACE_BOUND('',#379,.T.);
#23=FACE_BOUND('',#386,.T.);
#24=SPHERICAL_SURFACE('',#1077,0.3);
#25=SPHERICAL_SURFACE('',#1081,0.3);
#26=ORIENTED_CLOSED_SHELL('',*,#1055,.F.);
#27=ORIENTED_CLOSED_SHELL('',*,#1057,.F.);
#28=LINE('',#1546,#111);
#29=LINE('',#1562,#112);
#30=LINE('',#1563,#113);
#31=LINE('',#1566,#114);
#32=LINE('',#1568,#115);
#33=LINE('',#1574,#116);
#34=LINE('',#1576,#117);
#35=LINE('',#1582,#118);
#36=LINE('',#1583,#119);
#37=LINE('',#1585,#120);
#38=LINE('',#1587,#121);
#39=LINE('',#1593,#122);
#40=LINE('',#1594,#123);
#41=LINE('',#1597,#124);
#42=LINE('',#1599,#125);
#43=LINE('',#1601,#126);
#44=LINE('',#1602,#127);
#45=LINE('',#1605,#128);
#46=LINE('',#1606,#129);
#47=LINE('',#1626,#130);
#48=LINE('',#1635,#131);
#49=LINE('',#1642,#132);
#50=LINE('',#1656,#133);
#51=LINE('',#1658,#134);
#52=LINE('',#1659,#135);
#53=LINE('',#1662,#136);
#54=LINE('',#1665,#137);
#55=LINE('',#1667,#138);
#56=LINE('',#1670,#139);
#57=LINE('',#1674,#140);
#58=LINE('',#1678,#141);
#59=LINE('',#1682,#142);
#60=LINE('',#1686,#143);
#61=LINE('',#1687,#144);
#62=LINE('',#1688,#145);
#63=LINE('',#1690,#146);
#64=LINE('',#1691,#147);
#65=LINE('',#1692,#148);
#66=LINE('',#1701,#149);
#67=LINE('',#1703,#150);
#68=LINE('',#1705,#151);
#69=LINE('',#1707,#152);
#70=LINE('',#1709,#153);
#71=LINE('',#1713,#154);
#72=LINE('',#1715,#155);
#73=LINE('',#1717,#156);
#74=LINE('',#1719,#157);
#75=LINE('',#1721,#158);
#76=LINE('',#1723,#159);
#77=LINE('',#1724,#160);
#78=LINE('',#1730,#161);
#79=LINE('',#1733,#162);
#80=LINE('',#1742,#163);
#81=LINE('',#1746,#164);
#82=LINE('',#1750,#165);
#83=LINE('',#1753,#166);
#84=LINE('',#1754,#167);
#85=LINE('',#1759,#168);
#86=LINE('',#1762,#169);
#87=LINE('',#1765,#170);
#88=LINE('',#1768,#171);
#89=LINE('',#1769,#172);
#90=LINE('',#1771,#173);
#91=LINE('',#1774,#174);
#92=LINE('',#1779,#175);
#93=LINE('',#1781,#176);
#94=LINE('',#1783,#177);
#95=LINE('',#1785,#178);
#96=LINE('',#1787,#179);
#97=LINE('',#1789,#180);
#98=LINE('',#1790,#181);
#99=LINE('',#1798,#182);
#100=LINE('',#1803,#183);
#101=LINE('',#1806,#184);
#102=LINE('',#1810,#185);
#103=LINE('',#1818,#186);
#104=LINE('',#1822,#187);
#105=LINE('',#1824,#188);
#106=LINE('',#1827,#189);
#107=LINE('',#1828,#190);
#108=LINE('',#1834,#191);
#109=LINE('',#1836,#192);
#110=LINE('',#1841,#193);
#111=VECTOR('',#1211,0.600000000000001);
#112=VECTOR('',#1230,10.);
#113=VECTOR('',#1231,10.);
#114=VECTOR('',#1234,10.);
#115=VECTOR('',#1235,10.);
#116=VECTOR('',#1242,10.);
#117=VECTOR('',#1243,10.);
#118=VECTOR('',#1250,10.);
#119=VECTOR('',#1251,10.);
#120=VECTOR('',#1254,10.);
#121=VECTOR('',#1255,10.);
#122=VECTOR('',#1262,10.);
#123=VECTOR('',#1263,10.);
#124=VECTOR('',#1266,10.);
#125=VECTOR('',#1267,10.);
#126=VECTOR('',#1268,10.);
#127=VECTOR('',#1269,10.);
#128=VECTOR('',#1272,10.);
#129=VECTOR('',#1273,10.);
#130=VECTOR('',#1296,0.600000000000001);
#131=VECTOR('',#1305,10.);
#132=VECTOR('',#1312,10.);
#133=VECTOR('',#1327,10.);
#134=VECTOR('',#1328,10.);
#135=VECTOR('',#1329,10.);
#136=VECTOR('',#1332,10.);
#137=VECTOR('',#1335,10.);
#138=VECTOR('',#1338,10.);
#139=VECTOR('',#1341,10.);
#140=VECTOR('',#1344,10.);
#141=VECTOR('',#1347,10.);
#142=VECTOR('',#1350,10.);
#143=VECTOR('',#1353,10.);
#144=VECTOR('',#1354,10.);
#145=VECTOR('',#1355,10.);
#146=VECTOR('',#1356,10.);
#147=VECTOR('',#1357,10.);
#148=VECTOR('',#1358,10.);
#149=VECTOR('',#1367,10.);
#150=VECTOR('',#1368,10.);
#151=VECTOR('',#1369,10.);
#152=VECTOR('',#1370,10.);
#153=VECTOR('',#1371,10.);
#154=VECTOR('',#1376,10.);
#155=VECTOR('',#1377,10.);
#156=VECTOR('',#1378,10.);
#157=VECTOR('',#1379,10.);
#158=VECTOR('',#1380,10.);
#159=VECTOR('',#1381,10.);
#160=VECTOR('',#1382,10.);
#161=VECTOR('',#1391,10.);
#162=VECTOR('',#1394,0.600000000000001);
#163=VECTOR('',#1405,10.);
#164=VECTOR('',#1410,10.);
#165=VECTOR('',#1417,10.);
#166=VECTOR('',#1420,10.);
#167=VECTOR('',#1421,10.);
#168=VECTOR('',#1426,10.);
#169=VECTOR('',#1429,10.);
#170=VECTOR('',#1432,0.600000000000001);
#171=VECTOR('',#1437,10.);
#172=VECTOR('',#1438,10.);
#173=VECTOR('',#1441,10.);
#174=VECTOR('',#1444,0.600000000000001);
#175=VECTOR('',#1451,10.);
#176=VECTOR('',#1452,10.);
#177=VECTOR('',#1453,10.);
#178=VECTOR('',#1454,10.);
#179=VECTOR('',#1455,10.);
#180=VECTOR('',#1456,10.);
#181=VECTOR('',#1457,10.);
#182=VECTOR('',#1470,0.600000000000001);
#183=VECTOR('',#1475,10.);
#184=VECTOR('',#1480,10.);
#185=VECTOR('',#1485,10.);
#186=VECTOR('',#1498,0.600000000000001);
#187=VECTOR('',#1503,10.);
#188=VECTOR('',#1506,10.);
#189=VECTOR('',#1511,10.);
#190=VECTOR('',#1512,10.);
#191=VECTOR('',#1523,0.600000000000001);
#192=VECTOR('',#1526,0.600000000000001);
#193=VECTOR('',#1531,0.600000000000001);
#194=CYLINDRICAL_SURFACE('',#1076,0.600000000000001);
#195=CYLINDRICAL_SURFACE('',#1085,0.3);
#196=CYLINDRICAL_SURFACE('',#1086,0.3);
#197=CYLINDRICAL_SURFACE('',#1089,0.3);
#198=CYLINDRICAL_SURFACE('',#1091,0.3);
#199=CYLINDRICAL_SURFACE('',#1093,0.3);
#200=CYLINDRICAL_SURFACE('',#1095,0.3);
#201=CYLINDRICAL_SURFACE('',#1108,0.600000000000001);
#202=CYLINDRICAL_SURFACE('',#1113,4.);
#203=CYLINDRICAL_SURFACE('',#1116,4.);
#204=CYLINDRICAL_SURFACE('',#1142,0.600000000000001);
#205=CYLINDRICAL_SURFACE('',#1146,4.);
#206=CYLINDRICAL_SURFACE('',#1148,4.);
#207=CYLINDRICAL_SURFACE('',#1157,0.600000000000001);
#208=CYLINDRICAL_SURFACE('',#1159,4.);
#209=CYLINDRICAL_SURFACE('',#1161,0.600000000000001);
#210=CYLINDRICAL_SURFACE('',#1163,4.);
#211=CYLINDRICAL_SURFACE('',#1166,4.);
#212=CYLINDRICAL_SURFACE('',#1169,0.600000000000001);
#213=CYLINDRICAL_SURFACE('',#1171,4.);
#214=CYLINDRICAL_SURFACE('',#1178,4.);
#215=CYLINDRICAL_SURFACE('',#1181,0.600000000000001);
#216=CYLINDRICAL_SURFACE('',#1183,4.);
#217=CYLINDRICAL_SURFACE('',#1192,0.600000000000001);
#218=CYLINDRICAL_SURFACE('',#1193,0.600000000000001);
#219=CYLINDRICAL_SURFACE('',#1194,0.600000000000001);
#220=CIRCLE('',#1075,0.600000000000001);
#221=CIRCLE('',#1078,0.3);
#222=CIRCLE('',#1079,0.3);
#223=CIRCLE('',#1080,0.299999999999998);
#224=CIRCLE('',#1082,0.300000000000002);
#225=CIRCLE('',#1083,0.3);
#226=CIRCLE('',#1084,0.299999999999998);
#227=CIRCLE('',#1092,0.3);
#228=CIRCLE('',#1096,0.3);
#229=CIRCLE('',#1100,0.600000000000001);
#230=CIRCLE('',#1101,0.600000000000001);
#231=CIRCLE('',#1102,0.600000000000001);
#232=CIRCLE('',#1103,0.600000000000001);
#233=CIRCLE('',#1105,0.600000000000001);
#234=CIRCLE('',#1107,0.600000000000001);
#235=CIRCLE('',#1109,0.600000000000001);
#236=CIRCLE('',#1115,4.);
#237=CIRCLE('',#1117,4.);
#238=CIRCLE('',#1122,4.);
#239=CIRCLE('',#1128,4.);
#240=CIRCLE('',#1129,4.);
#241=CIRCLE('',#1130,4.);
#242=CIRCLE('',#1131,4.);
#243=CIRCLE('',#1132,0.600000000000001);
#244=CIRCLE('',#1133,0.600000000000001);
#245=CIRCLE('',#1134,0.600000000000001);
#246=CIRCLE('',#1139,4.);
#247=CIRCLE('',#1150,4.);
#248=CIRCLE('',#1155,4.);
#249=CIRCLE('',#1156,4.);
#250=CIRCLE('',#1158,0.600000000000001);
#251=CIRCLE('',#1162,0.600000000000001);
#252=CIRCLE('',#1167,4.);
#253=CIRCLE('',#1170,0.600000000000001);
#254=CIRCLE('',#1172,4.);
#255=CIRCLE('',#1173,4.);
#256=CIRCLE('',#1176,4.);
#257=CIRCLE('',#1177,4.);
#258=CIRCLE('',#1179,4.);
#259=CIRCLE('',#1182,0.600000000000001);
#260=CIRCLE('',#1184,4.);
#261=CIRCLE('',#1196,0.600000000000001);
#262=FACE_OUTER_BOUND('',#325,.T.);
#263=FACE_OUTER_BOUND('',#326,.T.);
#264=FACE_OUTER_BOUND('',#327,.T.);
#265=FACE_OUTER_BOUND('',#328,.T.);
#266=FACE_OUTER_BOUND('',#329,.T.);
#267=FACE_OUTER_BOUND('',#330,.T.);
#268=FACE_OUTER_BOUND('',#331,.T.);
#269=FACE_OUTER_BOUND('',#332,.T.);
#270=FACE_OUTER_BOUND('',#333,.T.);
#271=FACE_OUTER_BOUND('',#334,.T.);
#272=FACE_OUTER_BOUND('',#335,.T.);
#273=FACE_OUTER_BOUND('',#336,.T.);
#274=FACE_OUTER_BOUND('',#337,.T.);
#275=FACE_OUTER_BOUND('',#338,.T.);
#276=FACE_OUTER_BOUND('',#343,.T.);
#277=FACE_OUTER_BOUND('',#344,.T.);
#278=FACE_OUTER_BOUND('',#345,.T.);
#279=FACE_OUTER_BOUND('',#346,.T.);
#280=FACE_OUTER_BOUND('',#347,.T.);
#281=FACE_OUTER_BOUND('',#348,.T.);
#282=FACE_OUTER_BOUND('',#349,.T.);
#283=FACE_OUTER_BOUND('',#350,.T.);
#284=FACE_OUTER_BOUND('',#351,.T.);
#285=FACE_OUTER_BOUND('',#356,.T.);
#286=FACE_OUTER_BOUND('',#357,.T.);
#287=FACE_OUTER_BOUND('',#358,.T.);
#288=FACE_OUTER_BOUND('',#359,.T.);
#289=FACE_OUTER_BOUND('',#360,.T.);
#290=FACE_OUTER_BOUND('',#361,.T.);
#291=FACE_OUTER_BOUND('',#362,.T.);
#292=FACE_OUTER_BOUND('',#363,.T.);
#293=FACE_OUTER_BOUND('',#364,.T.);
#294=FACE_OUTER_BOUND('',#365,.T.);
#295=FACE_OUTER_BOUND('',#366,.T.);
#296=FACE_OUTER_BOUND('',#367,.T.);
#297=FACE_OUTER_BOUND('',#368,.T.);
#298=FACE_OUTER_BOUND('',#369,.T.);
#299=FACE_OUTER_BOUND('',#370,.T.);
#300=FACE_OUTER_BOUND('',#371,.T.);
#301=FACE_OUTER_BOUND('',#372,.T.);
#302=FACE_OUTER_BOUND('',#373,.T.);
#303=FACE_OUTER_BOUND('',#374,.T.);
#304=FACE_OUTER_BOUND('',#375,.T.);
#305=FACE_OUTER_BOUND('',#376,.T.);
#306=FACE_OUTER_BOUND('',#377,.T.);
#307=FACE_OUTER_BOUND('',#378,.T.);
#308=FACE_OUTER_BOUND('',#380,.T.);
#309=FACE_OUTER_BOUND('',#381,.T.);
#310=FACE_OUTER_BOUND('',#382,.T.);
#311=FACE_OUTER_BOUND('',#383,.T.);
#312=FACE_OUTER_BOUND('',#384,.T.);
#313=FACE_OUTER_BOUND('',#385,.T.);
#314=FACE_OUTER_BOUND('',#387,.T.);
#315=FACE_OUTER_BOUND('',#388,.T.);
#316=FACE_OUTER_BOUND('',#389,.T.);
#317=FACE_OUTER_BOUND('',#390,.T.);
#318=FACE_OUTER_BOUND('',#391,.T.);
#319=FACE_OUTER_BOUND('',#392,.T.);
#320=FACE_OUTER_BOUND('',#393,.T.);
#321=FACE_OUTER_BOUND('',#394,.T.);
#322=FACE_OUTER_BOUND('',#395,.T.);
#323=FACE_OUTER_BOUND('',#396,.T.);
#324=FACE_OUTER_BOUND('',#397,.T.);
#325=EDGE_LOOP('',(#663));
#326=EDGE_LOOP('',(#664));
#327=EDGE_LOOP('',(#665,#666,#667,#668));
#328=EDGE_LOOP('',(#669,#670,#671));
#329=EDGE_LOOP('',(#672,#673,#674));
#330=EDGE_LOOP('',(#675,#676,#677,#678));
#331=EDGE_LOOP('',(#679,#680,#681,#682,#683));
#332=EDGE_LOOP('',(#684,#685,#686,#687));
#333=EDGE_LOOP('',(#688,#689,#690,#691));
#334=EDGE_LOOP('',(#692,#693,#694,#695,#696));
#335=EDGE_LOOP('',(#697,#698,#699,#700));
#336=EDGE_LOOP('',(#701,#702,#703,#704,#705,#706));
#337=EDGE_LOOP('',(#707,#708,#709,#710,#711,#712));
#338=EDGE_LOOP('',(#713,#714,#715,#716));
#339=EDGE_LOOP('',(#717));
#340=EDGE_LOOP('',(#718));
#341=EDGE_LOOP('',(#719));
#342=EDGE_LOOP('',(#720));
#343=EDGE_LOOP('',(#721));
#344=EDGE_LOOP('',(#722));
#345=EDGE_LOOP('',(#723,#724,#725,#726,#727,#728));
#346=EDGE_LOOP('',(#729,#730,#731));
#347=EDGE_LOOP('',(#732,#733,#734,#735,#736,#737,#738));
#348=EDGE_LOOP('',(#739,#740,#741,#742,#743,#744));
#349=EDGE_LOOP('',(#745,#746,#747,#748));
#350=EDGE_LOOP('',(#749,#750,#751));
#351=EDGE_LOOP('',(#752,#753,#754,#755,#756,#757,#758,#759,#760,#761,#762,
#763,#764,#765,#766,#767,#768,#769));
#352=EDGE_LOOP('',(#770));
#353=EDGE_LOOP('',(#771));
#354=EDGE_LOOP('',(#772));
#355=EDGE_LOOP('',(#773));
#356=EDGE_LOOP('',(#774,#775,#776,#777,#778,#779,#780,#781));
#357=EDGE_LOOP('',(#782,#783,#784,#785,#786,#787,#788,#789,#790));
#358=EDGE_LOOP('',(#791,#792,#793,#794,#795,#796));
#359=EDGE_LOOP('',(#797,#798,#799,#800));
#360=EDGE_LOOP('',(#801,#802,#803,#804,#805,#806));
#361=EDGE_LOOP('',(#807,#808,#809));
#362=EDGE_LOOP('',(#810,#811,#812,#813,#814,#815,#816));
#363=EDGE_LOOP('',(#817,#818));
#364=EDGE_LOOP('',(#819,#820,#821));
#365=EDGE_LOOP('',(#822,#823,#824,#825));
#366=EDGE_LOOP('',(#826,#827,#828,#829,#830,#831,#832,#833));
#367=EDGE_LOOP('',(#834,#835,#836,#837));
#368=EDGE_LOOP('',(#838,#839,#840,#841));
#369=EDGE_LOOP('',(#842,#843,#844,#845));
#370=EDGE_LOOP('',(#846,#847,#848,#849));
#371=EDGE_LOOP('',(#850,#851,#852,#853));
#372=EDGE_LOOP('',(#854,#855,#856,#857,#858,#859,#860,#861,#862));
#373=EDGE_LOOP('',(#863));
#374=EDGE_LOOP('',(#864,#865,#866,#867));
#375=EDGE_LOOP('',(#868,#869));
#376=EDGE_LOOP('',(#870,#871,#872,#873));
#377=EDGE_LOOP('',(#874,#875,#876,#877));
#378=EDGE_LOOP('',(#878,#879,#880));
#379=EDGE_LOOP('',(#881));
#380=EDGE_LOOP('',(#882,#883,#884,#885,#886,#887,#888,#889));
#381=EDGE_LOOP('',(#890,#891,#892,#893));
#382=EDGE_LOOP('',(#894,#895,#896,#897,#898,#899));
#383=EDGE_LOOP('',(#900,#901,#902,#903));
#384=EDGE_LOOP('',(#904,#905,#906,#907));
#385=EDGE_LOOP('',(#908,#909,#910));
#386=EDGE_LOOP('',(#911));
#387=EDGE_LOOP('',(#912,#913,#914,#915));
#388=EDGE_LOOP('',(#916,#917,#918,#919,#920,#921,#922,#923,#924,#925));
#389=EDGE_LOOP('',(#926,#927,#928,#929));
#390=EDGE_LOOP('',(#930));
#391=EDGE_LOOP('',(#931,#932,#933,#934,#935,#936,#937,#938));
#392=EDGE_LOOP('',(#939,#940,#941,#942));
#393=EDGE_LOOP('',(#943,#944,#945,#946));
#394=EDGE_LOOP('',(#947,#948,#949,#950));
#395=EDGE_LOOP('',(#951,#952,#953,#954));
#396=EDGE_LOOP('',(#955));
#397=EDGE_LOOP('',(#956));
#398=ELLIPSE('',#1073,0.848528137423858,0.600000000000001);
#399=ELLIPSE('',#1087,0.424264068711929,0.3);
#400=ELLIPSE('',#1088,0.424264068711929,0.3);
#401=ELLIPSE('',#1090,0.424264068711929,0.3);
#402=ELLIPSE('',#1094,0.424264068711929,0.3);
#403=ELLIPSE('',#1110,0.848528137423858,0.600000000000001);
#404=ELLIPSE('',#1111,0.848528137423858,0.600000000000001);
#405=ELLIPSE('',#1112,0.848528137423858,0.600000000000001);
#406=ELLIPSE('',#1114,5.65685424949238,4.);
#407=ELLIPSE('',#1118,5.65685424949238,4.);
#408=ELLIPSE('',#1119,5.65685424949238,4.);
#409=ELLIPSE('',#1120,5.65685424949238,4.);
#410=ELLIPSE('',#1121,5.65685424949238,4.);
#411=ELLIPSE('',#1125,5.65685424949238,4.);
#412=ELLIPSE('',#1136,5.65685424949239,4.);
#413=ELLIPSE('',#1141,5.65685424949239,4.);
#414=ELLIPSE('',#1143,0.848528137423858,0.600000000000001);
#415=ELLIPSE('',#1144,0.848528137423858,0.600000000000001);
#416=ELLIPSE('',#1145,0.848528137423858,0.600000000000001);
#417=ELLIPSE('',#1147,5.65685424949238,4.);
#418=ELLIPSE('',#1149,5.65685424949238,4.);
#419=ELLIPSE('',#1195,0.848528137423858,0.600000000000001);
#420=VERTEX_POINT('',#1540);
#421=VERTEX_POINT('',#1543);
#422=VERTEX_POINT('',#1548);
#423=VERTEX_POINT('',#1549);
#424=VERTEX_POINT('',#1551);
#425=VERTEX_POINT('',#1555);
#426=VERTEX_POINT('',#1556);
#427=VERTEX_POINT('',#1558);
#428=VERTEX_POINT('',#1565);
#429=VERTEX_POINT('',#1567);
#430=VERTEX_POINT('',#1569);
#431=VERTEX_POINT('',#1573);
#432=VERTEX_POINT('',#1575);
#433=VERTEX_POINT('',#1579);
#434=VERTEX_POINT('',#1580);
#435=VERTEX_POINT('',#1586);
#436=VERTEX_POINT('',#1590);
#437=VERTEX_POINT('',#1591);
#438=VERTEX_POINT('',#1596);
#439=VERTEX_POINT('',#1598);
#440=VERTEX_POINT('',#1600);
#441=VERTEX_POINT('',#1604);
#442=VERTEX_POINT('',#1608);
#443=VERTEX_POINT('',#1610);
#444=VERTEX_POINT('',#1612);
#445=VERTEX_POINT('',#1614);
#446=VERTEX_POINT('',#1617);
#447=VERTEX_POINT('',#1620);
#448=VERTEX_POINT('',#1623);
#449=VERTEX_POINT('',#1625);
#450=VERTEX_POINT('',#1627);
#451=VERTEX_POINT('',#1629);
#452=VERTEX_POINT('',#1633);
#453=VERTEX_POINT('',#1634);
#454=VERTEX_POINT('',#1636);
#455=VERTEX_POINT('',#1640);
#456=VERTEX_POINT('',#1641);
#457=VERTEX_POINT('',#1643);
#458=VERTEX_POINT('',#1645);
#459=VERTEX_POINT('',#1647);
#460=VERTEX_POINT('',#1649);
#461=VERTEX_POINT('',#1651);
#462=VERTEX_POINT('',#1655);
#463=VERTEX_POINT('',#1657);
#464=VERTEX_POINT('',#1661);
#465=VERTEX_POINT('',#1663);
#466=VERTEX_POINT('',#1669);
#467=VERTEX_POINT('',#1671);
#468=VERTEX_POINT('',#1673);
#469=VERTEX_POINT('',#1675);
#470=VERTEX_POINT('',#1677);
#471=VERTEX_POINT('',#1679);
#472=VERTEX_POINT('',#1681);
#473=VERTEX_POINT('',#1683);
#474=VERTEX_POINT('',#1685);
#475=VERTEX_POINT('',#1689);
#476=VERTEX_POINT('',#1693);
#477=VERTEX_POINT('',#1695);
#478=VERTEX_POINT('',#1697);
#479=VERTEX_POINT('',#1700);
#480=VERTEX_POINT('',#1702);
#481=VERTEX_POINT('',#1704);
#482=VERTEX_POINT('',#1706);
#483=VERTEX_POINT('',#1708);
#484=VERTEX_POINT('',#1712);
#485=VERTEX_POINT('',#1714);
#486=VERTEX_POINT('',#1716);
#487=VERTEX_POINT('',#1718);
#488=VERTEX_POINT('',#1720);
#489=VERTEX_POINT('',#1722);
#490=VERTEX_POINT('',#1728);
#491=VERTEX_POINT('',#1732);
#492=VERTEX_POINT('',#1734);
#493=VERTEX_POINT('',#1736);
#494=VERTEX_POINT('',#1740);
#495=VERTEX_POINT('',#1745);
#496=VERTEX_POINT('',#1752);
#497=VERTEX_POINT('',#1756);
#498=VERTEX_POINT('',#1758);
#499=VERTEX_POINT('',#1760);
#500=VERTEX_POINT('',#1764);
#501=VERTEX_POINT('',#1773);
#502=VERTEX_POINT('',#1778);
#503=VERTEX_POINT('',#1780);
#504=VERTEX_POINT('',#1782);
#505=VERTEX_POINT('',#1784);
#506=VERTEX_POINT('',#1786);
#507=VERTEX_POINT('',#1788);
#508=VERTEX_POINT('',#1796);
#509=VERTEX_POINT('',#1800);
#510=VERTEX_POINT('',#1802);
#511=VERTEX_POINT('',#1808);
#512=VERTEX_POINT('',#1816);
#513=VERTEX_POINT('',#1820);
#514=VERTEX_POINT('',#1838);
#515=VERTEX_POINT('',#1840);
#516=EDGE_CURVE('',#420,#420,#398,.T.);
#517=EDGE_CURVE('',#421,#421,#220,.T.);
#518=EDGE_CURVE('',#420,#421,#28,.T.);
#519=EDGE_CURVE('',#422,#423,#221,.F.);
#520=EDGE_CURVE('',#424,#422,#222,.F.);
#521=EDGE_CURVE('',#423,#424,#223,.F.);
#522=EDGE_CURVE('',#425,#426,#224,.F.);
#523=EDGE_CURVE('',#427,#425,#225,.F.);
#524=EDGE_CURVE('',#426,#427,#226,.F.);
#525=EDGE_CURVE('',#422,#427,#29,.T.);
#526=EDGE_CURVE('',#425,#424,#30,.T.);
#527=EDGE_CURVE('',#428,#426,#31,.T.);
#528=EDGE_CURVE('',#427,#429,#32,.T.);
#529=EDGE_CURVE('',#429,#430,#399,.T.);
#530=EDGE_CURVE('',#430,#428,#400,.T.);
#531=EDGE_CURVE('',#431,#430,#33,.T.);
#532=EDGE_CURVE('',#429,#432,#34,.T.);
#533=EDGE_CURVE('',#432,#431,#401,.T.);
#534=EDGE_CURVE('',#433,#434,#227,.T.);
#535=EDGE_CURVE('',#434,#425,#35,.T.);
#536=EDGE_CURVE('',#426,#433,#36,.T.);
#537=EDGE_CURVE('',#432,#422,#37,.T.);
#538=EDGE_CURVE('',#423,#435,#38,.T.);
#539=EDGE_CURVE('',#435,#431,#402,.T.);
#540=EDGE_CURVE('',#436,#437,#228,.T.);
#541=EDGE_CURVE('',#437,#423,#39,.T.);
#542=EDGE_CURVE('',#424,#436,#40,.T.);
#543=EDGE_CURVE('',#428,#438,#41,.T.);
#544=EDGE_CURVE('',#438,#439,#42,.T.);
#545=EDGE_CURVE('',#440,#439,#43,.T.);
#546=EDGE_CURVE('',#433,#440,#44,.T.);
#547=EDGE_CURVE('',#441,#435,#45,.T.);
#548=EDGE_CURVE('',#438,#441,#46,.T.);
#549=EDGE_CURVE('',#442,#442,#229,.T.);
#550=EDGE_CURVE('',#443,#443,#230,.T.);
#551=EDGE_CURVE('',#444,#444,#231,.T.);
#552=EDGE_CURVE('',#445,#445,#232,.T.);
#553=EDGE_CURVE('',#446,#446,#233,.T.);
#554=EDGE_CURVE('',#447,#447,#234,.T.);
#555=EDGE_CURVE('',#448,#448,#235,.T.);
#556=EDGE_CURVE('',#448,#449,#47,.T.);
#557=EDGE_CURVE('',#450,#449,#403,.T.);
#558=EDGE_CURVE('',#451,#450,#404,.T.);
#559=EDGE_CURVE('',#449,#451,#405,.T.);
#560=EDGE_CURVE('',#452,#453,#48,.T.);
#561=EDGE_CURVE('',#454,#452,#406,.T.);
#562=EDGE_CURVE('',#453,#454,#236,.T.);
#563=EDGE_CURVE('',#455,#456,#49,.T.);
#564=EDGE_CURVE('',#457,#455,#237,.T.);
#565=EDGE_CURVE('',#458,#457,#407,.T.);
#566=EDGE_CURVE('',#459,#458,#408,.T.);
#567=EDGE_CURVE('',#460,#459,#409,.T.);
#568=EDGE_CURVE('',#461,#460,#410,.T.);
#569=EDGE_CURVE('',#456,#461,#238,.T.);
#570=EDGE_CURVE('',#462,#437,#50,.T.);
#571=EDGE_CURVE('',#463,#462,#51,.T.);
#572=EDGE_CURVE('',#441,#463,#52,.T.);
#573=EDGE_CURVE('',#459,#464,#53,.T.);
#574=EDGE_CURVE('',#464,#465,#411,.T.);
#575=EDGE_CURVE('',#465,#460,#54,.T.);
#576=EDGE_CURVE('',#451,#450,#55,.T.);
#577=EDGE_CURVE('',#455,#466,#56,.T.);
#578=EDGE_CURVE('',#466,#467,#239,.T.);
#579=EDGE_CURVE('',#467,#468,#57,.T.);
#580=EDGE_CURVE('',#468,#469,#240,.T.);
#581=EDGE_CURVE('',#469,#470,#58,.T.);
#582=EDGE_CURVE('',#470,#471,#241,.T.);
#583=EDGE_CURVE('',#472,#471,#59,.T.);
#584=EDGE_CURVE('',#472,#473,#242,.T.);
#585=EDGE_CURVE('',#474,#473,#60,.T.);
#586=EDGE_CURVE('',#440,#474,#61,.T.);
#587=EDGE_CURVE('',#439,#463,#62,.T.);
#588=EDGE_CURVE('',#475,#462,#63,.T.);
#589=EDGE_CURVE('',#453,#475,#64,.T.);
#590=EDGE_CURVE('',#457,#454,#65,.T.);
#591=EDGE_CURVE('',#476,#476,#243,.T.);
#592=EDGE_CURVE('',#477,#477,#244,.T.);
#593=EDGE_CURVE('',#478,#478,#245,.T.);
#594=EDGE_CURVE('',#458,#479,#66,.T.);
#595=EDGE_CURVE('',#479,#480,#67,.T.);
#596=EDGE_CURVE('',#481,#480,#68,.T.);
#597=EDGE_CURVE('',#481,#482,#69,.T.);
#598=EDGE_CURVE('',#482,#483,#70,.T.);
#599=EDGE_CURVE('',#483,#464,#412,.T.);
#600=EDGE_CURVE('',#484,#475,#71,.T.);
#601=EDGE_CURVE('',#485,#484,#72,.T.);
#602=EDGE_CURVE('',#485,#486,#73,.T.);
#603=EDGE_CURVE('',#486,#487,#74,.T.);
#604=EDGE_CURVE('',#488,#487,#75,.T.);
#605=EDGE_CURVE('',#488,#489,#76,.T.);
#606=EDGE_CURVE('',#489,#452,#77,.T.);
#607=EDGE_CURVE('',#489,#479,#246,.T.);
#608=EDGE_CURVE('',#465,#490,#413,.T.);
#609=EDGE_CURVE('',#490,#461,#78,.T.);
#610=EDGE_CURVE('',#476,#491,#79,.T.);
#611=EDGE_CURVE('',#492,#491,#414,.T.);
#612=EDGE_CURVE('',#493,#492,#415,.T.);
#613=EDGE_CURVE('',#491,#493,#416,.T.);
#614=EDGE_CURVE('',#494,#472,#417,.T.);
#615=EDGE_CURVE('',#473,#494,#80,.T.);
#616=EDGE_CURVE('',#471,#483,#418,.T.);
#617=EDGE_CURVE('',#495,#470,#81,.T.);
#618=EDGE_CURVE('',#490,#495,#247,.T.);
#619=EDGE_CURVE('',#493,#492,#82,.T.);
#620=EDGE_CURVE('',#469,#496,#83,.T.);
#621=EDGE_CURVE('',#495,#496,#84,.T.);
#622=EDGE_CURVE('',#496,#497,#248,.T.);
#623=EDGE_CURVE('',#497,#498,#85,.T.);
#624=EDGE_CURVE('',#498,#499,#249,.T.);
#625=EDGE_CURVE('',#499,#456,#86,.T.);
#626=EDGE_CURVE('',#478,#500,#87,.T.);
#627=EDGE_CURVE('',#500,#500,#250,.T.);
#628=EDGE_CURVE('',#467,#498,#88,.T.);
#629=EDGE_CURVE('',#499,#466,#89,.T.);
#630=EDGE_CURVE('',#497,#468,#90,.T.);
#631=EDGE_CURVE('',#477,#501,#91,.T.);
#632=EDGE_CURVE('',#501,#501,#251,.T.);
#633=EDGE_CURVE('',#494,#502,#92,.T.);
#634=EDGE_CURVE('',#502,#503,#93,.T.);
#635=EDGE_CURVE('',#504,#503,#94,.T.);
#636=EDGE_CURVE('',#504,#505,#95,.T.);
#637=EDGE_CURVE('',#505,#506,#96,.T.);
#638=EDGE_CURVE('',#506,#507,#97,.T.);
#639=EDGE_CURVE('',#474,#507,#98,.T.);
#640=EDGE_CURVE('',#480,#488,#252,.T.);
#641=EDGE_CURVE('',#508,#508,#253,.T.);
#642=EDGE_CURVE('',#508,#443,#99,.T.);
#643=EDGE_CURVE('',#509,#504,#254,.T.);
#644=EDGE_CURVE('',#510,#509,#100,.T.);
#645=EDGE_CURVE('',#505,#510,#255,.T.);
#646=EDGE_CURVE('',#506,#510,#101,.T.);
#647=EDGE_CURVE('',#487,#511,#256,.T.);
#648=EDGE_CURVE('',#511,#509,#102,.T.);
#649=EDGE_CURVE('',#503,#481,#257,.T.);
#650=EDGE_CURVE('',#482,#502,#258,.T.);
#651=EDGE_CURVE('',#512,#512,#259,.T.);
#652=EDGE_CURVE('',#512,#442,#103,.T.);
#653=EDGE_CURVE('',#513,#486,#260,.T.);
#654=EDGE_CURVE('',#511,#513,#104,.T.);
#655=EDGE_CURVE('',#513,#485,#105,.T.);
#656=EDGE_CURVE('',#507,#484,#106,.T.);
#657=EDGE_CURVE('',#436,#434,#107,.T.);
#658=EDGE_CURVE('',#447,#444,#108,.T.);
#659=EDGE_CURVE('',#446,#445,#109,.T.);
#660=EDGE_CURVE('',#514,#514,#419,.T.);
#661=EDGE_CURVE('',#514,#515,#110,.T.);
#662=EDGE_CURVE('',#515,#515,#261,.T.);
#663=ORIENTED_EDGE('',*,*,#516,.T.);
#664=ORIENTED_EDGE('',*,*,#517,.T.);
#665=ORIENTED_EDGE('',*,*,#516,.F.);
#666=ORIENTED_EDGE('',*,*,#518,.T.);
#667=ORIENTED_EDGE('',*,*,#517,.F.);
#668=ORIENTED_EDGE('',*,*,#518,.F.);
#669=ORIENTED_EDGE('',*,*,#519,.F.);
#670=ORIENTED_EDGE('',*,*,#520,.F.);
#671=ORIENTED_EDGE('',*,*,#521,.F.);
#672=ORIENTED_EDGE('',*,*,#522,.F.);
#673=ORIENTED_EDGE('',*,*,#523,.F.);
#674=ORIENTED_EDGE('',*,*,#524,.F.);
#675=ORIENTED_EDGE('',*,*,#520,.T.);
#676=ORIENTED_EDGE('',*,*,#525,.T.);
#677=ORIENTED_EDGE('',*,*,#523,.T.);
#678=ORIENTED_EDGE('',*,*,#526,.T.);
#679=ORIENTED_EDGE('',*,*,#527,.T.);
#680=ORIENTED_EDGE('',*,*,#524,.T.);
#681=ORIENTED_EDGE('',*,*,#528,.T.);
#682=ORIENTED_EDGE('',*,*,#529,.T.);
#683=ORIENTED_EDGE('',*,*,#530,.T.);
#684=ORIENTED_EDGE('',*,*,#531,.T.);
#685=ORIENTED_EDGE('',*,*,#529,.F.);
#686=ORIENTED_EDGE('',*,*,#532,.T.);
#687=ORIENTED_EDGE('',*,*,#533,.T.);
#688=ORIENTED_EDGE('',*,*,#534,.T.);
#689=ORIENTED_EDGE('',*,*,#535,.T.);
#690=ORIENTED_EDGE('',*,*,#522,.T.);
#691=ORIENTED_EDGE('',*,*,#536,.T.);
#692=ORIENTED_EDGE('',*,*,#537,.T.);
#693=ORIENTED_EDGE('',*,*,#519,.T.);
#694=ORIENTED_EDGE('',*,*,#538,.T.);
#695=ORIENTED_EDGE('',*,*,#539,.T.);
#696=ORIENTED_EDGE('',*,*,#533,.F.);
#697=ORIENTED_EDGE('',*,*,#540,.T.);
#698=ORIENTED_EDGE('',*,*,#541,.T.);
#699=ORIENTED_EDGE('',*,*,#521,.T.);
#700=ORIENTED_EDGE('',*,*,#542,.T.);
#701=ORIENTED_EDGE('',*,*,#536,.F.);
#702=ORIENTED_EDGE('',*,*,#527,.F.);
#703=ORIENTED_EDGE('',*,*,#543,.T.);
#704=ORIENTED_EDGE('',*,*,#544,.T.);
#705=ORIENTED_EDGE('',*,*,#545,.F.);
#706=ORIENTED_EDGE('',*,*,#546,.F.);
#707=ORIENTED_EDGE('',*,*,#530,.F.);
#708=ORIENTED_EDGE('',*,*,#531,.F.);
#709=ORIENTED_EDGE('',*,*,#539,.F.);
#710=ORIENTED_EDGE('',*,*,#547,.F.);
#711=ORIENTED_EDGE('',*,*,#548,.F.);
#712=ORIENTED_EDGE('',*,*,#543,.F.);
#713=ORIENTED_EDGE('',*,*,#525,.F.);
#714=ORIENTED_EDGE('',*,*,#537,.F.);
#715=ORIENTED_EDGE('',*,*,#532,.F.);
#716=ORIENTED_EDGE('',*,*,#528,.F.);
#717=ORIENTED_EDGE('',*,*,#549,.T.);
#718=ORIENTED_EDGE('',*,*,#550,.T.);
#719=ORIENTED_EDGE('',*,*,#551,.T.);
#720=ORIENTED_EDGE('',*,*,#552,.T.);
#721=ORIENTED_EDGE('',*,*,#553,.F.);
#722=ORIENTED_EDGE('',*,*,#554,.F.);
#723=ORIENTED_EDGE('',*,*,#555,.F.);
#724=ORIENTED_EDGE('',*,*,#556,.T.);
#725=ORIENTED_EDGE('',*,*,#557,.F.);
#726=ORIENTED_EDGE('',*,*,#558,.F.);
#727=ORIENTED_EDGE('',*,*,#559,.F.);
#728=ORIENTED_EDGE('',*,*,#556,.F.);
#729=ORIENTED_EDGE('',*,*,#560,.F.);
#730=ORIENTED_EDGE('',*,*,#561,.F.);
#731=ORIENTED_EDGE('',*,*,#562,.F.);
#732=ORIENTED_EDGE('',*,*,#563,.F.);
#733=ORIENTED_EDGE('',*,*,#564,.F.);
#734=ORIENTED_EDGE('',*,*,#565,.F.);
#735=ORIENTED_EDGE('',*,*,#566,.F.);
#736=ORIENTED_EDGE('',*,*,#567,.F.);
#737=ORIENTED_EDGE('',*,*,#568,.F.);
#738=ORIENTED_EDGE('',*,*,#569,.F.);
#739=ORIENTED_EDGE('',*,*,#541,.F.);
#740=ORIENTED_EDGE('',*,*,#570,.F.);
#741=ORIENTED_EDGE('',*,*,#571,.F.);
#742=ORIENTED_EDGE('',*,*,#572,.F.);
#743=ORIENTED_EDGE('',*,*,#547,.T.);
#744=ORIENTED_EDGE('',*,*,#538,.F.);
#745=ORIENTED_EDGE('',*,*,#567,.T.);
#746=ORIENTED_EDGE('',*,*,#573,.T.);
#747=ORIENTED_EDGE('',*,*,#574,.T.);
#748=ORIENTED_EDGE('',*,*,#575,.T.);
#749=ORIENTED_EDGE('',*,*,#557,.T.);
#750=ORIENTED_EDGE('',*,*,#559,.T.);
#751=ORIENTED_EDGE('',*,*,#576,.T.);
#752=ORIENTED_EDGE('',*,*,#577,.T.);
#753=ORIENTED_EDGE('',*,*,#578,.T.);
#754=ORIENTED_EDGE('',*,*,#579,.T.);
#755=ORIENTED_EDGE('',*,*,#580,.T.);
#756=ORIENTED_EDGE('',*,*,#581,.T.);
#757=ORIENTED_EDGE('',*,*,#582,.T.);
#758=ORIENTED_EDGE('',*,*,#583,.F.);
#759=ORIENTED_EDGE('',*,*,#584,.T.);
#760=ORIENTED_EDGE('',*,*,#585,.F.);
#761=ORIENTED_EDGE('',*,*,#586,.F.);
#762=ORIENTED_EDGE('',*,*,#545,.T.);
#763=ORIENTED_EDGE('',*,*,#587,.T.);
#764=ORIENTED_EDGE('',*,*,#571,.T.);
#765=ORIENTED_EDGE('',*,*,#588,.F.);
#766=ORIENTED_EDGE('',*,*,#589,.F.);
#767=ORIENTED_EDGE('',*,*,#562,.T.);
#768=ORIENTED_EDGE('',*,*,#590,.F.);
#769=ORIENTED_EDGE('',*,*,#564,.T.);
#770=ORIENTED_EDGE('',*,*,#555,.T.);
#771=ORIENTED_EDGE('',*,*,#591,.T.);
#772=ORIENTED_EDGE('',*,*,#592,.T.);
#773=ORIENTED_EDGE('',*,*,#593,.T.);
#774=ORIENTED_EDGE('',*,*,#566,.T.);
#775=ORIENTED_EDGE('',*,*,#594,.T.);
#776=ORIENTED_EDGE('',*,*,#595,.T.);
#777=ORIENTED_EDGE('',*,*,#596,.F.);
#778=ORIENTED_EDGE('',*,*,#597,.T.);
#779=ORIENTED_EDGE('',*,*,#598,.T.);
#780=ORIENTED_EDGE('',*,*,#599,.T.);
#781=ORIENTED_EDGE('',*,*,#573,.F.);
#782=ORIENTED_EDGE('',*,*,#589,.T.);
#783=ORIENTED_EDGE('',*,*,#600,.F.);
#784=ORIENTED_EDGE('',*,*,#601,.F.);
#785=ORIENTED_EDGE('',*,*,#602,.T.);
#786=ORIENTED_EDGE('',*,*,#603,.T.);
#787=ORIENTED_EDGE('',*,*,#604,.F.);
#788=ORIENTED_EDGE('',*,*,#605,.T.);
#789=ORIENTED_EDGE('',*,*,#606,.T.);
#790=ORIENTED_EDGE('',*,*,#560,.T.);
#791=ORIENTED_EDGE('',*,*,#565,.T.);
#792=ORIENTED_EDGE('',*,*,#590,.T.);
#793=ORIENTED_EDGE('',*,*,#561,.T.);
#794=ORIENTED_EDGE('',*,*,#606,.F.);
#795=ORIENTED_EDGE('',*,*,#607,.T.);
#796=ORIENTED_EDGE('',*,*,#594,.F.);
#797=ORIENTED_EDGE('',*,*,#568,.T.);
#798=ORIENTED_EDGE('',*,*,#575,.F.);
#799=ORIENTED_EDGE('',*,*,#608,.T.);
#800=ORIENTED_EDGE('',*,*,#609,.T.);
#801=ORIENTED_EDGE('',*,*,#591,.F.);
#802=ORIENTED_EDGE('',*,*,#610,.T.);
#803=ORIENTED_EDGE('',*,*,#611,.F.);
#804=ORIENTED_EDGE('',*,*,#612,.F.);
#805=ORIENTED_EDGE('',*,*,#613,.F.);
#806=ORIENTED_EDGE('',*,*,#610,.F.);
#807=ORIENTED_EDGE('',*,*,#614,.F.);
#808=ORIENTED_EDGE('',*,*,#615,.F.);
#809=ORIENTED_EDGE('',*,*,#584,.F.);
#810=ORIENTED_EDGE('',*,*,#616,.F.);
#811=ORIENTED_EDGE('',*,*,#582,.F.);
#812=ORIENTED_EDGE('',*,*,#617,.F.);
#813=ORIENTED_EDGE('',*,*,#618,.F.);
#814=ORIENTED_EDGE('',*,*,#608,.F.);
#815=ORIENTED_EDGE('',*,*,#574,.F.);
#816=ORIENTED_EDGE('',*,*,#599,.F.);
#817=ORIENTED_EDGE('',*,*,#558,.T.);
#818=ORIENTED_EDGE('',*,*,#576,.F.);
#819=ORIENTED_EDGE('',*,*,#611,.T.);
#820=ORIENTED_EDGE('',*,*,#613,.T.);
#821=ORIENTED_EDGE('',*,*,#619,.T.);
#822=ORIENTED_EDGE('',*,*,#617,.T.);
#823=ORIENTED_EDGE('',*,*,#581,.F.);
#824=ORIENTED_EDGE('',*,*,#620,.T.);
#825=ORIENTED_EDGE('',*,*,#621,.F.);
#826=ORIENTED_EDGE('',*,*,#569,.T.);
#827=ORIENTED_EDGE('',*,*,#609,.F.);
#828=ORIENTED_EDGE('',*,*,#618,.T.);
#829=ORIENTED_EDGE('',*,*,#621,.T.);
#830=ORIENTED_EDGE('',*,*,#622,.T.);
#831=ORIENTED_EDGE('',*,*,#623,.T.);
#832=ORIENTED_EDGE('',*,*,#624,.T.);
#833=ORIENTED_EDGE('',*,*,#625,.T.);
#834=ORIENTED_EDGE('',*,*,#593,.F.);
#835=ORIENTED_EDGE('',*,*,#626,.T.);
#836=ORIENTED_EDGE('',*,*,#627,.F.);
#837=ORIENTED_EDGE('',*,*,#626,.F.);
#838=ORIENTED_EDGE('',*,*,#624,.F.);
#839=ORIENTED_EDGE('',*,*,#628,.F.);
#840=ORIENTED_EDGE('',*,*,#578,.F.);
#841=ORIENTED_EDGE('',*,*,#629,.F.);
#842=ORIENTED_EDGE('',*,*,#628,.T.);
#843=ORIENTED_EDGE('',*,*,#623,.F.);
#844=ORIENTED_EDGE('',*,*,#630,.T.);
#845=ORIENTED_EDGE('',*,*,#579,.F.);
#846=ORIENTED_EDGE('',*,*,#592,.F.);
#847=ORIENTED_EDGE('',*,*,#631,.T.);
#848=ORIENTED_EDGE('',*,*,#632,.F.);
#849=ORIENTED_EDGE('',*,*,#631,.F.);
#850=ORIENTED_EDGE('',*,*,#622,.F.);
#851=ORIENTED_EDGE('',*,*,#620,.F.);
#852=ORIENTED_EDGE('',*,*,#580,.F.);
#853=ORIENTED_EDGE('',*,*,#630,.F.);
#854=ORIENTED_EDGE('',*,*,#615,.T.);
#855=ORIENTED_EDGE('',*,*,#633,.T.);
#856=ORIENTED_EDGE('',*,*,#634,.T.);
#857=ORIENTED_EDGE('',*,*,#635,.F.);
#858=ORIENTED_EDGE('',*,*,#636,.T.);
#859=ORIENTED_EDGE('',*,*,#637,.T.);
#860=ORIENTED_EDGE('',*,*,#638,.T.);
#861=ORIENTED_EDGE('',*,*,#639,.F.);
#862=ORIENTED_EDGE('',*,*,#585,.T.);
#863=ORIENTED_EDGE('',*,*,#627,.T.);
#864=ORIENTED_EDGE('',*,*,#640,.F.);
#865=ORIENTED_EDGE('',*,*,#595,.F.);
#866=ORIENTED_EDGE('',*,*,#607,.F.);
#867=ORIENTED_EDGE('',*,*,#605,.F.);
#868=ORIENTED_EDGE('',*,*,#612,.T.);
#869=ORIENTED_EDGE('',*,*,#619,.F.);
#870=ORIENTED_EDGE('',*,*,#641,.F.);
#871=ORIENTED_EDGE('',*,*,#642,.T.);
#872=ORIENTED_EDGE('',*,*,#550,.F.);
#873=ORIENTED_EDGE('',*,*,#642,.F.);
#874=ORIENTED_EDGE('',*,*,#643,.F.);
#875=ORIENTED_EDGE('',*,*,#644,.F.);
#876=ORIENTED_EDGE('',*,*,#645,.F.);
#877=ORIENTED_EDGE('',*,*,#636,.F.);
#878=ORIENTED_EDGE('',*,*,#645,.T.);
#879=ORIENTED_EDGE('',*,*,#646,.F.);
#880=ORIENTED_EDGE('',*,*,#637,.F.);
#881=ORIENTED_EDGE('',*,*,#641,.T.);
#882=ORIENTED_EDGE('',*,*,#640,.T.);
#883=ORIENTED_EDGE('',*,*,#604,.T.);
#884=ORIENTED_EDGE('',*,*,#647,.T.);
#885=ORIENTED_EDGE('',*,*,#648,.T.);
#886=ORIENTED_EDGE('',*,*,#643,.T.);
#887=ORIENTED_EDGE('',*,*,#635,.T.);
#888=ORIENTED_EDGE('',*,*,#649,.T.);
#889=ORIENTED_EDGE('',*,*,#596,.T.);
#890=ORIENTED_EDGE('',*,*,#649,.F.);
#891=ORIENTED_EDGE('',*,*,#634,.F.);
#892=ORIENTED_EDGE('',*,*,#650,.F.);
#893=ORIENTED_EDGE('',*,*,#597,.F.);
#894=ORIENTED_EDGE('',*,*,#616,.T.);
#895=ORIENTED_EDGE('',*,*,#598,.F.);
#896=ORIENTED_EDGE('',*,*,#650,.T.);
#897=ORIENTED_EDGE('',*,*,#633,.F.);
#898=ORIENTED_EDGE('',*,*,#614,.T.);
#899=ORIENTED_EDGE('',*,*,#583,.T.);
#900=ORIENTED_EDGE('',*,*,#651,.F.);
#901=ORIENTED_EDGE('',*,*,#652,.T.);
#902=ORIENTED_EDGE('',*,*,#549,.F.);
#903=ORIENTED_EDGE('',*,*,#652,.F.);
#904=ORIENTED_EDGE('',*,*,#647,.F.);
#905=ORIENTED_EDGE('',*,*,#603,.F.);
#906=ORIENTED_EDGE('',*,*,#653,.F.);
#907=ORIENTED_EDGE('',*,*,#654,.F.);
#908=ORIENTED_EDGE('',*,*,#655,.F.);
#909=ORIENTED_EDGE('',*,*,#653,.T.);
#910=ORIENTED_EDGE('',*,*,#602,.F.);
#911=ORIENTED_EDGE('',*,*,#651,.T.);
#912=ORIENTED_EDGE('',*,*,#563,.T.);
#913=ORIENTED_EDGE('',*,*,#625,.F.);
#914=ORIENTED_EDGE('',*,*,#629,.T.);
#915=ORIENTED_EDGE('',*,*,#577,.F.);
#916=ORIENTED_EDGE('',*,*,#534,.F.);
#917=ORIENTED_EDGE('',*,*,#546,.T.);
#918=ORIENTED_EDGE('',*,*,#586,.T.);
#919=ORIENTED_EDGE('',*,*,#639,.T.);
#920=ORIENTED_EDGE('',*,*,#656,.T.);
#921=ORIENTED_EDGE('',*,*,#600,.T.);
#922=ORIENTED_EDGE('',*,*,#588,.T.);
#923=ORIENTED_EDGE('',*,*,#570,.T.);
#924=ORIENTED_EDGE('',*,*,#540,.F.);
#925=ORIENTED_EDGE('',*,*,#657,.T.);
#926=ORIENTED_EDGE('',*,*,#548,.T.);
#927=ORIENTED_EDGE('',*,*,#572,.T.);
#928=ORIENTED_EDGE('',*,*,#587,.F.);
#929=ORIENTED_EDGE('',*,*,#544,.F.);
#930=ORIENTED_EDGE('',*,*,#632,.T.);
#931=ORIENTED_EDGE('',*,*,#644,.T.);
#932=ORIENTED_EDGE('',*,*,#648,.F.);
#933=ORIENTED_EDGE('',*,*,#654,.T.);
#934=ORIENTED_EDGE('',*,*,#655,.T.);
#935=ORIENTED_EDGE('',*,*,#601,.T.);
#936=ORIENTED_EDGE('',*,*,#656,.F.);
#937=ORIENTED_EDGE('',*,*,#638,.F.);
#938=ORIENTED_EDGE('',*,*,#646,.T.);
#939=ORIENTED_EDGE('',*,*,#535,.F.);
#940=ORIENTED_EDGE('',*,*,#657,.F.);
#941=ORIENTED_EDGE('',*,*,#542,.F.);
#942=ORIENTED_EDGE('',*,*,#526,.F.);
#943=ORIENTED_EDGE('',*,*,#554,.T.);
#944=ORIENTED_EDGE('',*,*,#658,.T.);
#945=ORIENTED_EDGE('',*,*,#551,.F.);
#946=ORIENTED_EDGE('',*,*,#658,.F.);
#947=ORIENTED_EDGE('',*,*,#553,.T.);
#948=ORIENTED_EDGE('',*,*,#659,.T.);
#949=ORIENTED_EDGE('',*,*,#552,.F.);
#950=ORIENTED_EDGE('',*,*,#659,.F.);
#951=ORIENTED_EDGE('',*,*,#660,.F.);
#952=ORIENTED_EDGE('',*,*,#661,.T.);
#953=ORIENTED_EDGE('',*,*,#662,.F.);
#954=ORIENTED_EDGE('',*,*,#661,.F.);
#955=ORIENTED_EDGE('',*,*,#662,.T.);
#956=ORIENTED_EDGE('',*,*,#660,.T.);
#957=PLANE('',#1072);
#958=PLANE('',#1074);
#959=PLANE('',#1097);
#960=PLANE('',#1098);
#961=PLANE('',#1099);
#962=PLANE('',#1104);
#963=PLANE('',#1106);
#964=PLANE('',#1123);
#965=PLANE('',#1124);
#966=PLANE('',#1126);
#967=PLANE('',#1127);
#968=PLANE('',#1135);
#969=PLANE('',#1137);
#970=PLANE('',#1138);
#971=PLANE('',#1140);
#972=PLANE('',#1151);
#973=PLANE('',#1152);
#974=PLANE('',#1153);
#975=PLANE('',#1154);
#976=PLANE('',#1160);
#977=PLANE('',#1164);
#978=PLANE('',#1165);
#979=PLANE('',#1168);
#980=PLANE('',#1174);
#981=PLANE('',#1175);
#982=PLANE('',#1180);
#983=PLANE('',#1185);
#984=PLANE('',#1186);
#985=PLANE('',#1187);
#986=PLANE('',#1188);
#987=PLANE('',#1189);
#988=PLANE('',#1190);
#989=PLANE('',#1191);
#990=PLANE('',#1197);
#991=PLANE('',#1198);
#992=ADVANCED_FACE('',(#262),#957,.T.);
#993=ADVANCED_FACE('',(#263),#958,.T.);
#994=ADVANCED_FACE('',(#264),#194,.F.);
#995=ADVANCED_FACE('',(#265),#24,.T.);
#996=ADVANCED_FACE('',(#266),#25,.T.);
#997=ADVANCED_FACE('',(#267),#195,.T.);
#998=ADVANCED_FACE('',(#268),#196,.T.);
#999=ADVANCED_FACE('',(#269),#197,.T.);
#1000=ADVANCED_FACE('',(#270),#198,.T.);
#1001=ADVANCED_FACE('',(#271),#199,.T.);
#1002=ADVANCED_FACE('',(#272),#200,.T.);
#1003=ADVANCED_FACE('',(#273),#959,.T.);
#1004=ADVANCED_FACE('',(#274),#960,.F.);
#1005=ADVANCED_FACE('',(#275,#14,#15,#16,#17),#961,.F.);
#1006=ADVANCED_FACE('',(#276),#962,.F.);
#1007=ADVANCED_FACE('',(#277),#963,.F.);
#1008=ADVANCED_FACE('',(#278),#201,.F.);
#1009=ADVANCED_FACE('',(#279),#202,.T.);
#1010=ADVANCED_FACE('',(#280),#203,.T.);
#1011=ADVANCED_FACE('',(#281),#964,.T.);
#1012=ADVANCED_FACE('',(#282),#965,.T.);
#1013=ADVANCED_FACE('',(#283),#966,.T.);
#1014=ADVANCED_FACE('',(#284,#18,#19,#20,#21),#967,.T.);
#1015=ADVANCED_FACE('',(#285),#968,.T.);
#1016=ADVANCED_FACE('',(#286),#969,.T.);
#1017=ADVANCED_FACE('',(#287),#970,.T.);
#1018=ADVANCED_FACE('',(#288),#971,.T.);
#1019=ADVANCED_FACE('',(#289),#204,.F.);
#1020=ADVANCED_FACE('',(#290),#205,.T.);
#1021=ADVANCED_FACE('',(#291),#206,.T.);
#1022=ADVANCED_FACE('',(#292),#972,.T.);
#1023=ADVANCED_FACE('',(#293),#973,.T.);
#1024=ADVANCED_FACE('',(#294),#974,.T.);
#1025=ADVANCED_FACE('',(#295),#975,.T.);
#1026=ADVANCED_FACE('',(#296),#207,.F.);
#1027=ADVANCED_FACE('',(#297),#208,.T.);
#1028=ADVANCED_FACE('',(#298),#976,.T.);
#1029=ADVANCED_FACE('',(#299),#209,.F.);
#1030=ADVANCED_FACE('',(#300),#210,.T.);
#1031=ADVANCED_FACE('',(#301),#977,.T.);
#1032=ADVANCED_FACE('',(#302),#978,.T.);
#1033=ADVANCED_FACE('',(#303),#211,.T.);
#1034=ADVANCED_FACE('',(#304),#979,.T.);
#1035=ADVANCED_FACE('',(#305),#212,.F.);
#1036=ADVANCED_FACE('',(#306),#213,.T.);
#1037=ADVANCED_FACE('',(#307,#22),#980,.T.);
#1038=ADVANCED_FACE('',(#308),#981,.T.);
#1039=ADVANCED_FACE('',(#309),#214,.T.);
#1040=ADVANCED_FACE('',(#310),#982,.T.);
#1041=ADVANCED_FACE('',(#311),#215,.F.);
#1042=ADVANCED_FACE('',(#312),#216,.T.);
#1043=ADVANCED_FACE('',(#313,#23),#983,.T.);
#1044=ADVANCED_FACE('',(#314),#984,.T.);
#1045=ADVANCED_FACE('',(#315),#985,.T.);
#1046=ADVANCED_FACE('',(#316),#986,.T.);
#1047=ADVANCED_FACE('',(#317),#987,.T.);
#1048=ADVANCED_FACE('',(#318),#988,.T.);
#1049=ADVANCED_FACE('',(#319),#989,.T.);
#1050=ADVANCED_FACE('',(#320),#217,.F.);
#1051=ADVANCED_FACE('',(#321),#218,.F.);
#1052=ADVANCED_FACE('',(#322),#219,.F.);
#1053=ADVANCED_FACE('',(#323),#990,.T.);
#1054=ADVANCED_FACE('',(#324),#991,.T.);
#1055=CLOSED_SHELL('',(#992,#993,#994));
#1056=CLOSED_SHELL('',(#995,#996,#997,#998,#999,#1000,#1001,#1002,#1003,
#1004,#1005,#1006,#1007,#1008,#1009,#1010,#1011,#1012,#1013,#1014,#1015,
#1016,#1017,#1018,#1019,#1020,#1021,#1022,#1023,#1024,#1025,#1026,#1027,
#1028,#1029,#1030,#1031,#1032,#1033,#1034,#1035,#1036,#1037,#1038,#1039,
#1040,#1041,#1042,#1043,#1044,#1045,#1046,#1047,#1048,#1049,#1050,#1051));
#1057=CLOSED_SHELL('',(#1052,#1053,#1054));
#1058=BREP_WITH_VOIDS('Corps1',#1056,(#26,#27));
#1059=DERIVED_UNIT_ELEMENT(#1061,1.);
#1060=DERIVED_UNIT_ELEMENT(#1850,-3.);
#1061=(
MASS_UNIT()
NAMED_UNIT(*)
SI_UNIT(.KILO.,.GRAM.)
);
#1062=DERIVED_UNIT((#1059,#1060));
#1063=MEASURE_REPRESENTATION_ITEM('density measure',
POSITIVE_RATIO_MEASURE(7850.),#1062);
#1064=PROPERTY_DEFINITION_REPRESENTATION(#1069,#1066);
#1065=PROPERTY_DEFINITION_REPRESENTATION(#1070,#1067);
#1066=REPRESENTATION('material name',(#1068),#1847);
#1067=REPRESENTATION('density',(#1063),#1847);
#1068=DESCRIPTIVE_REPRESENTATION_ITEM('Acier','Acier');
#1069=PROPERTY_DEFINITION('material property','material name',#1857);
#1070=PROPERTY_DEFINITION('material property','density of part',#1857);
#1071=AXIS2_PLACEMENT_3D('',#1538,#1199,#1200);
#1072=AXIS2_PLACEMENT_3D('',#1539,#1201,#1202);
#1073=AXIS2_PLACEMENT_3D('',#1541,#1203,#1204);
#1074=AXIS2_PLACEMENT_3D('',#1542,#1205,#1206);
#1075=AXIS2_PLACEMENT_3D('',#1544,#1207,#1208);
#1076=AXIS2_PLACEMENT_3D('',#1545,#1209,#1210);
#1077=AXIS2_PLACEMENT_3D('',#1547,#1212,#1213);
#1078=AXIS2_PLACEMENT_3D('',#1550,#1214,#1215);
#1079=AXIS2_PLACEMENT_3D('',#1552,#1216,#1217);
#1080=AXIS2_PLACEMENT_3D('',#1553,#1218,#1219);
#1081=AXIS2_PLACEMENT_3D('',#1554,#1220,#1221);
#1082=AXIS2_PLACEMENT_3D('',#1557,#1222,#1223);
#1083=AXIS2_PLACEMENT_3D('',#1559,#1224,#1225);
#1084=AXIS2_PLACEMENT_3D('',#1560,#1226,#1227);
#1085=AXIS2_PLACEMENT_3D('',#1561,#1228,#1229);
#1086=AXIS2_PLACEMENT_3D('',#1564,#1232,#1233);
#1087=AXIS2_PLACEMENT_3D('',#1570,#1236,#1237);
#1088=AXIS2_PLACEMENT_3D('',#1571,#1238,#1239);
#1089=AXIS2_PLACEMENT_3D('',#1572,#1240,#1241);
#1090=AXIS2_PLACEMENT_3D('',#1577,#1244,#1245);
#1091=AXIS2_PLACEMENT_3D('',#1578,#1246,#1247);
#1092=AXIS2_PLACEMENT_3D('',#1581,#1248,#1249);
#1093=AXIS2_PLACEMENT_3D('',#1584,#1252,#1253);
#1094=AXIS2_PLACEMENT_3D('',#1588,#1256,#1257);
#1095=AXIS2_PLACEMENT_3D('',#1589,#1258,#1259);
#1096=AXIS2_PLACEMENT_3D('',#1592,#1260,#1261);
#1097=AXIS2_PLACEMENT_3D('',#1595,#1264,#1265);
#1098=AXIS2_PLACEMENT_3D('',#1603,#1270,#1271);
#1099=AXIS2_PLACEMENT_3D('',#1607,#1274,#1275);
#1100=AXIS2_PLACEMENT_3D('',#1609,#1276,#1277);
#1101=AXIS2_PLACEMENT_3D('',#1611,#1278,#1279);
#1102=AXIS2_PLACEMENT_3D('',#1613,#1280,#1281);
#1103=AXIS2_PLACEMENT_3D('',#1615,#1282,#1283);
#1104=AXIS2_PLACEMENT_3D('',#1616,#1284,#1285);
#1105=AXIS2_PLACEMENT_3D('',#1618,#1286,#1287);
#1106=AXIS2_PLACEMENT_3D('',#1619,#1288,#1289);
#1107=AXIS2_PLACEMENT_3D('',#1621,#1290,#1291);
#1108=AXIS2_PLACEMENT_3D('',#1622,#1292,#1293);
#1109=AXIS2_PLACEMENT_3D('',#1624,#1294,#1295);
#1110=AXIS2_PLACEMENT_3D('',#1628,#1297,#1298);
#1111=AXIS2_PLACEMENT_3D('',#1630,#1299,#1300);
#1112=AXIS2_PLACEMENT_3D('',#1631,#1301,#1302);
#1113=AXIS2_PLACEMENT_3D('',#1632,#1303,#1304);
#1114=AXIS2_PLACEMENT_3D('',#1637,#1306,#1307);
#1115=AXIS2_PLACEMENT_3D('',#1638,#1308,#1309);
#1116=AXIS2_PLACEMENT_3D('',#1639,#1310,#1311);
#1117=AXIS2_PLACEMENT_3D('',#1644,#1313,#1314);
#1118=AXIS2_PLACEMENT_3D('',#1646,#1315,#1316);
#1119=AXIS2_PLACEMENT_3D('',#1648,#1317,#1318);
#1120=AXIS2_PLACEMENT_3D('',#1650,#1319,#1320);
#1121=AXIS2_PLACEMENT_3D('',#1652,#1321,#1322);
#1122=AXIS2_PLACEMENT_3D('',#1653,#1323,#1324);
#1123=AXIS2_PLACEMENT_3D('',#1654,#1325,#1326);
#1124=AXIS2_PLACEMENT_3D('',#1660,#1330,#1331);
#1125=AXIS2_PLACEMENT_3D('',#1664,#1333,#1334);
#1126=AXIS2_PLACEMENT_3D('',#1666,#1336,#1337);
#1127=AXIS2_PLACEMENT_3D('',#1668,#1339,#1340);
#1128=AXIS2_PLACEMENT_3D('',#1672,#1342,#1343);
#1129=AXIS2_PLACEMENT_3D('',#1676,#1345,#1346);
#1130=AXIS2_PLACEMENT_3D('',#1680,#1348,#1349);
#1131=AXIS2_PLACEMENT_3D('',#1684,#1351,#1352);
#1132=AXIS2_PLACEMENT_3D('',#1694,#1359,#1360);
#1133=AXIS2_PLACEMENT_3D('',#1696,#1361,#1362);
#1134=AXIS2_PLACEMENT_3D('',#1698,#1363,#1364);
#1135=AXIS2_PLACEMENT_3D('',#1699,#1365,#1366);
#1136=AXIS2_PLACEMENT_3D('',#1710,#1372,#1373);
#1137=AXIS2_PLACEMENT_3D('',#1711,#1374,#1375);
#1138=AXIS2_PLACEMENT_3D('',#1725,#1383,#1384);
#1139=AXIS2_PLACEMENT_3D('',#1726,#1385,#1386);
#1140=AXIS2_PLACEMENT_3D('',#1727,#1387,#1388);
#1141=AXIS2_PLACEMENT_3D('',#1729,#1389,#1390);
#1142=AXIS2_PLACEMENT_3D('',#1731,#1392,#1393);
#1143=AXIS2_PLACEMENT_3D('',#1735,#1395,#1396);
#1144=AXIS2_PLACEMENT_3D('',#1737,#1397,#1398);
#1145=AXIS2_PLACEMENT_3D('',#1738,#1399,#1400);
#1146=AXIS2_PLACEMENT_3D('',#1739,#1401,#1402);
#1147=AXIS2_PLACEMENT_3D('',#1741,#1403,#1404);
#1148=AXIS2_PLACEMENT_3D('',#1743,#1406,#1407);
#1149=AXIS2_PLACEMENT_3D('',#1744,#1408,#1409);
#1150=AXIS2_PLACEMENT_3D('',#1747,#1411,#1412);
#1151=AXIS2_PLACEMENT_3D('',#1748,#1413,#1414);
#1152=AXIS2_PLACEMENT_3D('',#1749,#1415,#1416);
#1153=AXIS2_PLACEMENT_3D('',#1751,#1418,#1419);
#1154=AXIS2_PLACEMENT_3D('',#1755,#1422,#1423);
#1155=AXIS2_PLACEMENT_3D('',#1757,#1424,#1425);
#1156=AXIS2_PLACEMENT_3D('',#1761,#1427,#1428);
#1157=AXIS2_PLACEMENT_3D('',#1763,#1430,#1431);
#1158=AXIS2_PLACEMENT_3D('',#1766,#1433,#1434);
#1159=AXIS2_PLACEMENT_3D('',#1767,#1435,#1436);
#1160=AXIS2_PLACEMENT_3D('',#1770,#1439,#1440);
#1161=AXIS2_PLACEMENT_3D('',#1772,#1442,#1443);
#1162=AXIS2_PLACEMENT_3D('',#1775,#1445,#1446);
#1163=AXIS2_PLACEMENT_3D('',#1776,#1447,#1448);
#1164=AXIS2_PLACEMENT_3D('',#1777,#1449,#1450);
#1165=AXIS2_PLACEMENT_3D('',#1791,#1458,#1459);
#1166=AXIS2_PLACEMENT_3D('',#1792,#1460,#1461);
#1167=AXIS2_PLACEMENT_3D('',#1793,#1462,#1463);
#1168=AXIS2_PLACEMENT_3D('',#1794,#1464,#1465);
#1169=AXIS2_PLACEMENT_3D('',#1795,#1466,#1467);
#1170=AXIS2_PLACEMENT_3D('',#1797,#1468,#1469);
#1171=AXIS2_PLACEMENT_3D('',#1799,#1471,#1472);
#1172=AXIS2_PLACEMENT_3D('',#1801,#1473,#1474);
#1173=AXIS2_PLACEMENT_3D('',#1804,#1476,#1477);
#1174=AXIS2_PLACEMENT_3D('',#1805,#1478,#1479);
#1175=AXIS2_PLACEMENT_3D('',#1807,#1481,#1482);
#1176=AXIS2_PLACEMENT_3D('',#1809,#1483,#1484);
#1177=AXIS2_PLACEMENT_3D('',#1811,#1486,#1487);
#1178=AXIS2_PLACEMENT_3D('',#1812,#1488,#1489);
#1179=AXIS2_PLACEMENT_3D('',#1813,#1490,#1491);
#1180=AXIS2_PLACEMENT_3D('',#1814,#1492,#1493);
#1181=AXIS2_PLACEMENT_3D('',#1815,#1494,#1495);
#1182=AXIS2_PLACEMENT_3D('',#1817,#1496,#1497);
#1183=AXIS2_PLACEMENT_3D('',#1819,#1499,#1500);
#1184=AXIS2_PLACEMENT_3D('',#1821,#1501,#1502);
#1185=AXIS2_PLACEMENT_3D('',#1823,#1504,#1505);
#1186=AXIS2_PLACEMENT_3D('',#1825,#1507,#1508);
#1187=AXIS2_PLACEMENT_3D('',#1826,#1509,#1510);
#1188=AXIS2_PLACEMENT_3D('',#1829,#1513,#1514);
#1189=AXIS2_PLACEMENT_3D('',#1830,#1515,#1516);
#1190=AXIS2_PLACEMENT_3D('',#1831,#1517,#1518);
#1191=AXIS2_PLACEMENT_3D('',#1832,#1519,#1520);
#1192=AXIS2_PLACEMENT_3D('',#1833,#1521,#1522);
#1193=AXIS2_PLACEMENT_3D('',#1835,#1524,#1525);
#1194=AXIS2_PLACEMENT_3D('',#1837,#1527,#1528);
#1195=AXIS2_PLACEMENT_3D('',#1839,#1529,#1530);
#1196=AXIS2_PLACEMENT_3D('',#1842,#1532,#1533);
#1197=AXIS2_PLACEMENT_3D('',#1843,#1534,#1535);
#1198=AXIS2_PLACEMENT_3D('',#1844,#1536,#1537);
#1199=DIRECTION('axis',(0.,0.,1.));
#1200=DIRECTION('refdir',(1.,0.,0.));
#1201=DIRECTION('center_axis',(0.,0.,-1.));
#1202=DIRECTION('ref_axis',(-1.,0.,0.));
#1203=DIRECTION('center_axis',(0.,0.,-1.));
#1204=DIRECTION('ref_axis',(0.,1.,0.));
#1205=DIRECTION('center_axis',(0.,0.707106781186547,0.707106781186548));
#1206=DIRECTION('ref_axis',(1.,0.,0.));
#1207=DIRECTION('center_axis',(0.,0.707106781186547,0.707106781186548));
#1208=DIRECTION('ref_axis',(1.,0.,0.));
#1209=DIRECTION('center_axis',(0.,0.707106781186548,0.707106781186547));
#1210=DIRECTION('ref_axis',(1.,0.,0.));
#1211=DIRECTION('',(0.,-0.707106781186548,-0.707106781186547));
#1212=DIRECTION('center_axis',(-0.816496580927729,0.408248290463863,-0.408248290463858));
#1213=DIRECTION('ref_axis',(-0.577350269189624,-0.57735026918963,0.577350269189624));
#1214=DIRECTION('center_axis',(0.,0.,1.));
#1215=DIRECTION('ref_axis',(0.,-1.,0.));
#1216=DIRECTION('center_axis',(-1.,0.,0.));
#1217=DIRECTION('ref_axis',(0.,0.,1.));
#1218=DIRECTION('center_axis',(0.,-1.,0.));
#1219=DIRECTION('ref_axis',(-1.,0.,0.));
#1220=DIRECTION('center_axis',(-0.816496580927729,-0.408248290463862,0.408248290463858));
#1221=DIRECTION('ref_axis',(0.577350269189624,-0.57735026918963,0.577350269189624));
#1222=DIRECTION('center_axis',(0.,-1.,0.));
#1223=DIRECTION('ref_axis',(0.,0.,1.));
#1224=DIRECTION('center_axis',(1.,0.,0.));
#1225=DIRECTION('ref_axis',(0.,-1.,0.));
#1226=DIRECTION('center_axis',(0.,7.40148683083438E-15,1.));
#1227=DIRECTION('ref_axis',(1.,0.,0.));
#1228=DIRECTION('center_axis',(-1.,0.,0.));
#1229=DIRECTION('ref_axis',(0.,-0.70710678118655,0.707106781186545));
#1230=DIRECTION('',(1.,0.,0.));
#1231=DIRECTION('',(-1.,0.,0.));
#1232=DIRECTION('center_axis',(0.,0.,1.));
#1233=DIRECTION('ref_axis',(0.70710678118654,-0.707106781186555,0.));
#1234=DIRECTION('',(0.,0.,1.));
#1235=DIRECTION('',(0.,0.,-1.));
#1236=DIRECTION('center_axis',(0.707106781186548,0.,0.707106781186548));
#1237=DIRECTION('ref_axis',(0.707106781186547,0.,-0.707106781186547));
#1238=DIRECTION('center_axis',(0.,0.707106781186548,0.707106781186548));
#1239=DIRECTION('ref_axis',(-4.088782444489E-17,-0.707106781186547,0.707106781186547));
#1240=DIRECTION('center_axis',(1.,0.,0.));
#1241=DIRECTION('ref_axis',(0.,-0.923879532511288,-0.382683432365088));
#1242=DIRECTION('',(1.,0.,0.));
#1243=DIRECTION('',(-1.,0.,0.));
#1244=DIRECTION('center_axis',(0.707106781186548,0.,-0.707106781186548));
#1245=DIRECTION('ref_axis',(-0.707106781186547,0.,-0.707106781186547));
#1246=DIRECTION('center_axis',(0.,1.,0.));
#1247=DIRECTION('ref_axis',(0.707106781186537,0.,0.707106781186558));
#1248=DIRECTION('center_axis',(0.,-1.,0.));
#1249=DIRECTION('ref_axis',(0.707106781186537,0.,0.707106781186558));
#1250=DIRECTION('',(0.,-1.,0.));
#1251=DIRECTION('',(0.,1.,0.));
#1252=DIRECTION('center_axis',(0.,0.,-1.));
#1253=DIRECTION('ref_axis',(-0.70710678118654,-0.707106781186555,0.));
#1254=DIRECTION('',(0.,0.,1.));
#1255=DIRECTION('',(0.,0.,-1.));
#1256=DIRECTION('center_axis',(0.,0.707106781186548,0.707106781186548));
#1257=DIRECTION('ref_axis',(4.088782444489E-17,-0.707106781186547,0.707106781186547));
#1258=DIRECTION('center_axis',(0.,1.,0.));
#1259=DIRECTION('ref_axis',(-0.707106781186537,0.,0.707106781186558));
#1260=DIRECTION('center_axis',(0.,-1.,0.));
#1261=DIRECTION('ref_axis',(-0.707106781186537,0.,0.707106781186558));
#1262=DIRECTION('',(0.,-1.,0.));
#1263=DIRECTION('',(0.,1.,0.));
#1264=DIRECTION('center_axis',(1.,0.,0.));
#1265=DIRECTION('ref_axis',(0.,0.,-1.));
#1266=DIRECTION('',(0.,0.707106781186548,-0.707106781186548));
#1267=DIRECTION('',(0.,0.707106781186547,0.707106781186548));
#1268=DIRECTION('',(0.,0.707106781186548,-0.707106781186548));
#1269=DIRECTION('',(0.,0.,-1.));
#1270=DIRECTION('center_axis',(0.,0.707106781186548,0.707106781186548));
#1271=DIRECTION('ref_axis',(1.,0.,0.));
#1272=DIRECTION('',(0.,-0.707106781186548,0.707106781186548));
#1273=DIRECTION('',(-1.,0.,0.));
#1274=DIRECTION('center_axis',(0.,1.,0.));
#1275=DIRECTION('ref_axis',(1.,0.,0.));
#1276=DIRECTION('center_axis',(0.,1.,0.));
#1277=DIRECTION('ref_axis',(1.,0.,0.));
#1278=DIRECTION('center_axis',(0.,1.,0.));
#1279=DIRECTION('ref_axis',(1.,0.,0.));
#1280=DIRECTION('center_axis',(0.,1.,0.));
#1281=DIRECTION('ref_axis',(1.,0.,0.));
#1282=DIRECTION('center_axis',(0.,1.,0.));
#1283=DIRECTION('ref_axis',(1.,0.,0.));
#1284=DIRECTION('center_axis',(0.,1.,0.));
#1285=DIRECTION('ref_axis',(1.,0.,0.));
#1286=DIRECTION('center_axis',(0.,1.,0.));
#1287=DIRECTION('ref_axis',(1.,0.,0.));
#1288=DIRECTION('center_axis',(0.,1.,0.));
#1289=DIRECTION('ref_axis',(1.,0.,0.));
#1290=DIRECTION('center_axis',(0.,1.,0.));
#1291=DIRECTION('ref_axis',(1.,0.,0.));
#1292=DIRECTION('center_axis',(0.,0.707106781186548,0.707106781186547));
#1293=DIRECTION('ref_axis',(1.,0.,0.));
#1294=DIRECTION('center_axis',(0.,-0.707106781186547,-0.707106781186548));
#1295=DIRECTION('ref_axis',(1.,0.,0.));
#1296=DIRECTION('',(0.,-0.707106781186548,-0.707106781186547));
#1297=DIRECTION('center_axis',(0.,1.,0.));
#1298=DIRECTION('ref_axis',(0.,0.,-1.));
#1299=DIRECTION('center_axis',(1.03276560430247E-16,0.,1.));
#1300=DIRECTION('ref_axis',(0.,1.,0.));
#1301=DIRECTION('center_axis',(0.,1.,0.));
#1302=DIRECTION('ref_axis',(0.,0.,-1.));
#1303=DIRECTION('center_axis',(0.,0.707106781186548,0.707106781186547));
#1304=DIRECTION('ref_axis',(1.,0.,0.));
#1305=DIRECTION('',(0.,0.707106781186548,0.707106781186547));
#1306=DIRECTION('center_axis',(0.,-1.,0.));
#1307=DIRECTION('ref_axis',(0.,0.,-1.));
#1308=DIRECTION('center_axis',(0.,0.707106781186547,0.707106781186548));
#1309=DIRECTION('ref_axis',(1.,0.,0.));
#1310=DIRECTION('center_axis',(0.,0.707106781186548,0.707106781186547));
#1311=DIRECTION('ref_axis',(1.,0.,0.));
#1312=DIRECTION('',(0.,-0.707106781186548,-0.707106781186547));
#1313=DIRECTION('center_axis',(0.,0.707106781186547,0.707106781186548));
#1314=DIRECTION('ref_axis',(1.,0.,0.));
#1315=DIRECTION('center_axis',(0.,-1.,0.));
#1316=DIRECTION('ref_axis',(0.,0.,-1.));
#1317=DIRECTION('center_axis',(-1.03276560430247E-16,0.,-1.));
#1318=DIRECTION('ref_axis',(0.,1.,0.));
#1319=DIRECTION('center_axis',(0.,-1.,0.));
#1320=DIRECTION('ref_axis',(0.,0.,-1.));
#1321=DIRECTION('center_axis',(0.,0.,1.));
#1322=DIRECTION('ref_axis',(0.,1.,0.));
#1323=DIRECTION('center_axis',(0.,-0.707106781186547,-0.707106781186548));
#1324=DIRECTION('ref_axis',(1.,0.,0.));
#1325=DIRECTION('center_axis',(-1.,0.,0.));
#1326=DIRECTION('ref_axis',(0.,0.,1.));
#1327=DIRECTION('',(0.,0.,1.));
#1328=DIRECTION('',(0.,-0.707106781186548,0.707106781186548));
#1329=DIRECTION('',(0.,0.707106781186547,0.707106781186548));
#1330=DIRECTION('center_axis',(0.,1.,0.));
#1331=DIRECTION('ref_axis',(0.,0.,1.));
#1332=DIRECTION('',(1.,0.,-1.03276560430247E-16));
#1333=DIRECTION('center_axis',(0.,-1.,0.));
#1334=DIRECTION('ref_axis',(0.,0.,-1.));
#1335=DIRECTION('',(-1.,0.,0.));
#1336=DIRECTION('center_axis',(0.,1.,0.));
#1337=DIRECTION('ref_axis',(0.,0.,1.));
#1338=DIRECTION('',(1.,0.,-1.03276560430247E-16));
#1339=DIRECTION('center_axis',(0.,0.707106781186547,0.707106781186548));
#1340=DIRECTION('ref_axis',(1.,0.,0.));
#1341=DIRECTION('',(0.,0.707106781186547,-0.707106781186547));
#1342=DIRECTION('center_axis',(0.,0.707106781186547,0.707106781186548));
#1343=DIRECTION('ref_axis',(1.,0.,0.));
#1344=DIRECTION('',(1.,0.,0.));
#1345=DIRECTION('center_axis',(0.,0.707106781186547,0.707106781186548));
#1346=DIRECTION('ref_axis',(1.,0.,0.));
#1347=DIRECTION('',(0.,-0.707106781186547,0.707106781186548));
#1348=DIRECTION('center_axis',(0.,0.707106781186547,0.707106781186548));
#1349=DIRECTION('ref_axis',(1.,0.,0.));
#1350=DIRECTION('',(-1.,0.,0.));
#1351=DIRECTION('center_axis',(0.,0.707106781186547,0.707106781186548));
#1352=DIRECTION('ref_axis',(1.,0.,0.));
#1353=DIRECTION('',(0.,-0.707106781186548,0.707106781186547));
#1354=DIRECTION('',(-1.,0.,0.));
#1355=DIRECTION('',(-1.,0.,0.));
#1356=DIRECTION('',(-1.,0.,0.));
#1357=DIRECTION('',(0.,0.707106781186548,-0.707106781186547));
#1358=DIRECTION('',(-1.,0.,0.));
#1359=DIRECTION('center_axis',(0.,-0.707106781186547,-0.707106781186548));
#1360=DIRECTION('ref_axis',(1.,0.,0.));
#1361=DIRECTION('center_axis',(0.,-0.707106781186547,-0.707106781186548));
#1362=DIRECTION('ref_axis',(1.,0.,0.));
#1363=DIRECTION('center_axis',(0.,-0.707106781186547,-0.707106781186548));
#1364=DIRECTION('ref_axis',(1.,0.,0.));
#1365=DIRECTION('center_axis',(1.03276560430247E-16,0.,1.));
#1366=DIRECTION('ref_axis',(1.,0.,-1.03276560430247E-16));
#1367=DIRECTION('',(1.,0.,-1.03276560430247E-16));
#1368=DIRECTION('',(0.,-1.,0.));
#1369=DIRECTION('',(-1.,0.,1.03276560430247E-16));
#1370=DIRECTION('',(0.,1.,0.));
#1371=DIRECTION('',(1.,0.,-1.03276560430247E-16));
#1372=DIRECTION('center_axis',(-1.03276560430247E-16,0.,-1.));
#1373=DIRECTION('ref_axis',(0.,1.,0.));
#1374=DIRECTION('center_axis',(1.,0.,0.));
#1375=DIRECTION('ref_axis',(0.,0.,-1.));
#1376=DIRECTION('',(0.,0.,-1.));
#1377=DIRECTION('',(0.,1.,0.));
#1378=DIRECTION('',(0.,0.,-1.));
#1379=DIRECTION('',(0.,-1.,0.));
#1380=DIRECTION('',(0.,0.,1.));
#1381=DIRECTION('',(0.,1.,0.));
#1382=DIRECTION('',(0.,0.,-1.));
#1383=DIRECTION('center_axis',(0.,1.,0.));
#1384=DIRECTION('ref_axis',(1.,0.,0.));
#1385=DIRECTION('center_axis',(0.,1.,0.));
#1386=DIRECTION('ref_axis',(1.,0.,0.));
#1387=DIRECTION('center_axis',(0.,0.,-1.));
#1388=DIRECTION('ref_axis',(-1.,0.,0.));
#1389=DIRECTION('center_axis',(0.,0.,1.));
#1390=DIRECTION('ref_axis',(0.,1.,0.));
#1391=DIRECTION('',(-1.,0.,0.));
#1392=DIRECTION('center_axis',(0.,0.707106781186548,0.707106781186547));
#1393=DIRECTION('ref_axis',(1.,0.,0.));
#1394=DIRECTION('',(0.,-0.707106781186548,-0.707106781186547));
#1395=DIRECTION('center_axis',(0.,1.,0.));
#1396=DIRECTION('ref_axis',(0.,0.,-1.));
#1397=DIRECTION('center_axis',(1.03276560430247E-16,0.,1.));
#1398=DIRECTION('ref_axis',(0.,1.,0.));
#1399=DIRECTION('center_axis',(0.,1.,0.));
#1400=DIRECTION('ref_axis',(0.,0.,-1.));
#1401=DIRECTION('center_axis',(0.,0.707106781186548,0.707106781186547));
#1402=DIRECTION('ref_axis',(1.,0.,0.));
#1403=DIRECTION('center_axis',(0.,-1.,0.));
#1404=DIRECTION('ref_axis',(0.,0.,-1.));
#1405=DIRECTION('',(0.,-0.707106781186548,-0.707106781186547));
#1406=DIRECTION('center_axis',(0.,0.707106781186548,0.707106781186547));
#1407=DIRECTION('ref_axis',(-0.93723154167459,0.246573556256821,-0.246573556256821));
#1408=DIRECTION('center_axis',(0.,-1.,0.));
#1409=DIRECTION('ref_axis',(0.,0.,-1.));
#1410=DIRECTION('',(0.,0.707106781186548,0.707106781186547));
#1411=DIRECTION('center_axis',(0.,-0.707106781186547,-0.707106781186548));
#1412=DIRECTION('ref_axis',(1.,0.,0.));
#1413=DIRECTION('center_axis',(1.03276560430247E-16,0.,1.));
#1414=DIRECTION('ref_axis',(1.,0.,-1.03276560430247E-16));
#1415=DIRECTION('center_axis',(0.,1.,0.));
#1416=DIRECTION('ref_axis',(0.,0.,1.));
#1417=DIRECTION('',(1.,0.,-1.03276560430247E-16));
#1418=DIRECTION('center_axis',(-1.,0.,0.));
#1419=DIRECTION('ref_axis',(0.,0.,1.));
#1420=DIRECTION('',(0.,-0.707106781186548,-0.707106781186547));
#1421=DIRECTION('',(0.,0.707106781186548,-0.707106781186547));
#1422=DIRECTION('center_axis',(0.,0.707106781186547,0.707106781186548));
#1423=DIRECTION('ref_axis',(1.,0.,0.));
#1424=DIRECTION('center_axis',(0.,-0.707106781186547,-0.707106781186548));
#1425=DIRECTION('ref_axis',(1.,0.,0.));
#1426=DIRECTION('',(-1.,0.,0.));
#1427=DIRECTION('center_axis',(0.,-0.707106781186547,-0.707106781186548));
#1428=DIRECTION('ref_axis',(1.,0.,0.));
#1429=DIRECTION('',(0.,-0.707106781186548,0.707106781186547));
#1430=DIRECTION('center_axis',(0.,0.707106781186548,0.707106781186547));
#1431=DIRECTION('ref_axis',(1.,0.,0.));
#1432=DIRECTION('',(0.,-0.707106781186548,-0.707106781186547));
#1433=DIRECTION('center_axis',(0.,0.707106781186547,0.707106781186548));
#1434=DIRECTION('ref_axis',(1.,0.,0.));
#1435=DIRECTION('center_axis',(0.,0.707106781186548,0.707106781186547));
#1436=DIRECTION('ref_axis',(1.,0.,0.));
#1437=DIRECTION('',(0.,-0.707106781186548,-0.707106781186547));
#1438=DIRECTION('',(0.,0.707106781186548,0.707106781186547));
#1439=DIRECTION('center_axis',(0.,-0.707106781186548,0.707106781186547));
#1440=DIRECTION('ref_axis',(1.,0.,0.));
#1441=DIRECTION('',(0.,0.707106781186548,0.707106781186547));
#1442=DIRECTION('center_axis',(0.,0.707106781186548,0.707106781186547));
#1443=DIRECTION('ref_axis',(1.,0.,0.));
#1444=DIRECTION('',(0.,-0.707106781186548,-0.707106781186547));
#1445=DIRECTION('center_axis',(0.,0.707106781186547,0.707106781186548));
#1446=DIRECTION('ref_axis',(1.,0.,0.));
#1447=DIRECTION('center_axis',(0.,0.707106781186548,0.707106781186547));
#1448=DIRECTION('ref_axis',(-0.707106781186548,-0.5,0.5));
#1449=DIRECTION('center_axis',(-1.,0.,0.));
#1450=DIRECTION('ref_axis',(0.,0.,1.));
#1451=DIRECTION('',(0.,0.,1.));
#1452=DIRECTION('',(0.,-1.,0.));
#1453=DIRECTION('',(0.,0.,-1.));
#1454=DIRECTION('',(0.,1.,0.));
#1455=DIRECTION('',(0.,0.,1.));
#1456=DIRECTION('',(0.,1.,0.));
#1457=DIRECTION('',(0.,0.,1.));
#1458=DIRECTION('center_axis',(0.,0.707106781186547,0.707106781186548));
#1459=DIRECTION('ref_axis',(1.,0.,0.));
#1460=DIRECTION('center_axis',(0.,1.,0.));
#1461=DIRECTION('ref_axis',(1.,0.,0.));
#1462=DIRECTION('center_axis',(0.,-1.,0.));
#1463=DIRECTION('ref_axis',(1.,0.,0.));
#1464=DIRECTION('center_axis',(1.03276560430247E-16,0.,1.));
#1465=DIRECTION('ref_axis',(1.,0.,-1.03276560430247E-16));
#1466=DIRECTION('center_axis',(0.,1.,0.));
#1467=DIRECTION('ref_axis',(1.,0.,0.));
#1468=DIRECTION('center_axis',(0.,-1.,0.));
#1469=DIRECTION('ref_axis',(1.,0.,0.));
#1470=DIRECTION('',(0.,-1.,0.));
#1471=DIRECTION('center_axis',(0.,1.,0.));
#1472=DIRECTION('ref_axis',(-0.651554486414846,0.,-0.758601839724033));
#1473=DIRECTION('center_axis',(0.,-1.,0.));
#1474=DIRECTION('ref_axis',(1.,0.,0.));
#1475=DIRECTION('',(0.,-1.,0.));
#1476=DIRECTION('center_axis',(0.,1.,0.));
#1477=DIRECTION('ref_axis',(1.,0.,0.));
#1478=DIRECTION('center_axis',(0.,1.,0.));
#1479=DIRECTION('ref_axis',(1.,0.,0.));
#1480=DIRECTION('',(-1.,0.,0.));
#1481=DIRECTION('center_axis',(0.,1.,0.));
#1482=DIRECTION('ref_axis',(0.,0.,1.));
#1483=DIRECTION('center_axis',(0.,-1.,0.));
#1484=DIRECTION('ref_axis',(1.,0.,0.));
#1485=DIRECTION('',(1.,0.,0.));
#1486=DIRECTION('center_axis',(0.,-1.,0.));
#1487=DIRECTION('ref_axis',(1.,0.,0.));
#1488=DIRECTION('center_axis',(0.,1.,0.));
#1489=DIRECTION('ref_axis',(-0.651554486414846,0.,0.758601839724032));
#1490=DIRECTION('center_axis',(0.,1.,0.));
#1491=DIRECTION('ref_axis',(1.,0.,0.));
#1492=DIRECTION('center_axis',(0.,1.,0.));
#1493=DIRECTION('ref_axis',(1.,0.,0.));
#1494=DIRECTION('center_axis',(0.,1.,0.));
#1495=DIRECTION('ref_axis',(1.,0.,0.));
#1496=DIRECTION('center_axis',(0.,-1.,0.));
#1497=DIRECTION('ref_axis',(1.,0.,0.));
#1498=DIRECTION('',(0.,-1.,0.));
#1499=DIRECTION('center_axis',(0.,1.,0.));
#1500=DIRECTION('ref_axis',(1.,0.,0.));
#1501=DIRECTION('center_axis',(0.,1.,0.));
#1502=DIRECTION('ref_axis',(1.,0.,0.));
#1503=DIRECTION('',(0.,1.,0.));
#1504=DIRECTION('center_axis',(0.,1.,0.));
#1505=DIRECTION('ref_axis',(1.,0.,0.));
#1506=DIRECTION('',(-1.,0.,0.));
#1507=DIRECTION('center_axis',(1.,0.,0.));
#1508=DIRECTION('ref_axis',(0.,0.,-1.));
#1509=DIRECTION('center_axis',(0.,1.,0.));
#1510=DIRECTION('ref_axis',(0.,0.,1.));
#1511=DIRECTION('',(-1.,0.,0.));
#1512=DIRECTION('',(1.,0.,0.));
#1513=DIRECTION('center_axis',(0.,0.707106781186548,-0.707106781186547));
#1514=DIRECTION('ref_axis',(-1.,0.,0.));
#1515=DIRECTION('center_axis',(0.,0.707106781186547,0.707106781186548));
#1516=DIRECTION('ref_axis',(1.,0.,0.));
#1517=DIRECTION('center_axis',(0.,0.,-1.));
#1518=DIRECTION('ref_axis',(-1.,0.,0.));
#1519=DIRECTION('center_axis',(0.,0.,1.));
#1520=DIRECTION('ref_axis',(1.,0.,0.));
#1521=DIRECTION('center_axis',(0.,1.,0.));
#1522=DIRECTION('ref_axis',(1.,0.,0.));
#1523=DIRECTION('',(0.,-1.,0.));
#1524=DIRECTION('center_axis',(0.,1.,0.));
#1525=DIRECTION('ref_axis',(1.,0.,0.));
#1526=DIRECTION('',(0.,-1.,0.));
#1527=DIRECTION('center_axis',(0.,0.707106781186548,0.707106781186547));
#1528=DIRECTION('ref_axis',(1.,0.,0.));
#1529=DIRECTION('center_axis',(0.,0.,-1.));
#1530=DIRECTION('ref_axis',(0.,1.,0.));
#1531=DIRECTION('',(0.,-0.707106781186548,-0.707106781186547));
#1532=DIRECTION('center_axis',(0.,0.707106781186547,0.707106781186548));
#1533=DIRECTION('ref_axis',(1.,0.,0.));
#1534=DIRECTION('center_axis',(0.,0.707106781186547,0.707106781186548));
#1535=DIRECTION('ref_axis',(1.,0.,0.));
#1536=DIRECTION('center_axis',(0.,0.,-1.));
#1537=DIRECTION('ref_axis',(-1.,0.,0.));
#1538=CARTESIAN_POINT('',(0.,0.,0.));
#1539=CARTESIAN_POINT('Origin',(23.5,0.,-17.5));
#1540=CARTESIAN_POINT('',(18.9000003501773,5.65685414147778,-17.5));
#1541=CARTESIAN_POINT('Origin',(19.5000003501773,5.65685414147778,-17.5));
#1542=CARTESIAN_POINT('Origin',(0.,8.48528137423856,-23.1568545102627));
#1543=CARTESIAN_POINT('',(18.9000003501773,4.24264050272682,-18.914213638751));
#1544=CARTESIAN_POINT('Origin',(19.5000003501773,4.24264050272682,-18.914213638751));
#1545=CARTESIAN_POINT('Origin',(19.5000003501773,2.82842694035373,-20.3284272011241));
#1546=CARTESIAN_POINT('',(18.9000003501773,2.82842694035373,-20.3284272011241));
#1547=CARTESIAN_POINT('Origin',(-23.2,0.3,17.2));
#1548=CARTESIAN_POINT('',(-23.2,0.,17.2));
#1549=CARTESIAN_POINT('',(-23.5,0.3,17.2));
#1550=CARTESIAN_POINT('Origin',(-23.2,0.3,17.2));
#1551=CARTESIAN_POINT('',(-23.2,0.3,17.5));
#1552=CARTESIAN_POINT('Origin',(-23.2,0.3,17.2));
#1553=CARTESIAN_POINT('Origin',(-23.2,0.3,17.2));
#1554=CARTESIAN_POINT('Origin',(23.2,0.3,17.2));
#1555=CARTESIAN_POINT('',(23.2,0.3,17.5));
#1556=CARTESIAN_POINT('',(23.5,0.3,17.2));
#1557=CARTESIAN_POINT('Origin',(23.2,0.3,17.2));
#1558=CARTESIAN_POINT('',(23.2,0.,17.2));
#1559=CARTESIAN_POINT('Origin',(23.2,0.3,17.2));
#1560=CARTESIAN_POINT('Origin',(23.2,0.3,17.2));
#1561=CARTESIAN_POINT('Origin',(-11.75,0.3,17.2));
#1562=CARTESIAN_POINT('',(-11.75,0.,17.2));
#1563=CARTESIAN_POINT('',(-11.75,0.3,17.5));
#1564=CARTESIAN_POINT('Origin',(23.2,0.3,8.75));
#1565=CARTESIAN_POINT('',(23.5000003501773,0.3,-17.8000002607703));
#1566=CARTESIAN_POINT('',(23.5,0.3,8.75));
#1567=CARTESIAN_POINT('',(23.2,0.,-17.3757361920584));
#1568=CARTESIAN_POINT('',(23.2,0.,8.75));
#1569=CARTESIAN_POINT('',(23.412132034356,0.0878679656440362,-17.5878682264144));
#1570=CARTESIAN_POINT('Origin',(23.2,0.3,-17.3757361920584));
#1571=CARTESIAN_POINT('Origin',(23.2,0.3,-17.8000002607703));
#1572=CARTESIAN_POINT('Origin',(0.,0.3,-17.3757361920584));
#1573=CARTESIAN_POINT('',(-23.412132034356,0.0878679656440362,-17.5878682264144));
#1574=CARTESIAN_POINT('',(0.,0.0878679656440362,-17.5878682264144));
#1575=CARTESIAN_POINT('',(-23.2,0.,-17.3757361920584));
#1576=CARTESIAN_POINT('',(0.,0.,-17.3757361920584));
#1577=CARTESIAN_POINT('Origin',(-23.2,0.3,-17.3757361920584));
#1578=CARTESIAN_POINT('Origin',(23.2,0.,17.2));
#1579=CARTESIAN_POINT('',(23.5,7.,17.2));
#1580=CARTESIAN_POINT('',(23.2,7.,17.5));
#1581=CARTESIAN_POINT('Origin',(23.2,7.,17.2));
#1582=CARTESIAN_POINT('',(23.2,0.,17.5));
#1583=CARTESIAN_POINT('',(23.5,0.,17.2));
#1584=CARTESIAN_POINT('Origin',(-23.2,0.3,-8.75));
#1585=CARTESIAN_POINT('',(-23.2,0.,-8.75));
#1586=CARTESIAN_POINT('',(-23.5000003501773,0.3,-17.8000002607703));
#1587=CARTESIAN_POINT('',(-23.5,0.3,-8.75));
#1588=CARTESIAN_POINT('Origin',(-23.2,0.3,-17.8000002607703));
#1589=CARTESIAN_POINT('Origin',(-23.2,0.,17.2));
#1590=CARTESIAN_POINT('',(-23.2,7.,17.5));
#1591=CARTESIAN_POINT('',(-23.5,7.,17.2));
#1592=CARTESIAN_POINT('Origin',(-23.2,7.,17.2));
#1593=CARTESIAN_POINT('',(-23.5,0.,17.2));
#1594=CARTESIAN_POINT('',(-23.2,0.,17.5));
#1595=CARTESIAN_POINT('Origin',(23.5,0.,17.5));
#1596=CARTESIAN_POINT('',(23.5000003501773,14.1421356237309,-31.6421358845013));
#1597=CARTESIAN_POINT('',(23.5000003501773,0.,-17.5000002607703));
#1598=CARTESIAN_POINT('',(23.5000003501773,19.0918830920368,-26.6923884161954));
#1599=CARTESIAN_POINT('',(23.5000003501773,14.1421356237309,-31.6421358845013));
#1600=CARTESIAN_POINT('',(23.5000003501773,7.,-14.6005053241587));
#1601=CARTESIAN_POINT('',(23.5000003501773,4.94974746830583,-12.5502527924645));
#1602=CARTESIAN_POINT('',(23.5,7.,-17.5));
#1603=CARTESIAN_POINT('Origin',(0.,7.07106781186547,-24.5710680726358));
#1604=CARTESIAN_POINT('',(-23.5000003501773,14.1421356237309,-31.6421358845013));
#1605=CARTESIAN_POINT('',(-23.5000003501773,14.1421356237309,-31.6421358845013));
#1606=CARTESIAN_POINT('',(23.5000003501773,14.1421356237309,-31.6421358845013));
#1607=CARTESIAN_POINT('Origin',(0.,0.,0.));
#1608=CARTESIAN_POINT('',(-19.6,0.,13.5));
#1609=CARTESIAN_POINT('Origin',(-19.,0.,13.5));
#1610=CARTESIAN_POINT('',(18.4,0.,13.5));
#1611=CARTESIAN_POINT('Origin',(19.,0.,13.5));
#1612=CARTESIAN_POINT('',(-19.6,0.,-13.5));
#1613=CARTESIAN_POINT('Origin',(-19.,0.,-13.5));
#1614=CARTESIAN_POINT('',(18.4,0.,-13.5));
#1615=CARTESIAN_POINT('Origin',(19.,0.,-13.5));
#1616=CARTESIAN_POINT('Origin',(19.,5.,-13.5));
#1617=CARTESIAN_POINT('',(18.4,5.,-13.5));
#1618=CARTESIAN_POINT('Origin',(19.,5.,-13.5));
#1619=CARTESIAN_POINT('Origin',(-19.,5.,-13.5));
#1620=CARTESIAN_POINT('',(-19.6,5.,-13.5));
#1621=CARTESIAN_POINT('Origin',(-19.,5.,-13.5));
#1622=CARTESIAN_POINT('Origin',(-19.5000003501773,2.82842694035373,-20.3284272011241));
#1623=CARTESIAN_POINT('',(-20.1000003501773,7.77817440865956,-15.3786797328182));
#1624=CARTESIAN_POINT('Origin',(-19.5000003501773,7.77817440865956,-15.3786797328182));
#1625=CARTESIAN_POINT('',(-20.1000003501773,7.,-16.1568541414778));
#1626=CARTESIAN_POINT('',(-20.1000003501773,2.82842694035373,-20.3284272011241));
#1627=CARTESIAN_POINT('',(-19.1201697057952,7.,-15.5));
#1628=CARTESIAN_POINT('Origin',(-19.5000003501773,7.,-16.1568541414778));
#1629=CARTESIAN_POINT('',(-19.8798309945594,7.,-15.5));
#1630=CARTESIAN_POINT('Origin',(-19.5000003501773,7.65685414147778,-15.5));
#1631=CARTESIAN_POINT('Origin',(-19.5000003501773,7.,-16.1568541414778));
#1632=CARTESIAN_POINT('Origin',(-19.5000003501773,2.82842694035373,-20.3284272011241));
#1633=CARTESIAN_POINT('',(-21.5,5.,-13.2578743699929));
#1634=CARTESIAN_POINT('',(-21.5,5.32868452291712,-12.9291898470758));
#1635=CARTESIAN_POINT('',(-21.5,0.378937054611288,-17.8789373153816));
#1636=CARTESIAN_POINT('',(-20.2506626644959,5.,-12.6005053241587));
#1637=CARTESIAN_POINT('Origin',(-19.5000003501773,5.,-18.1568541414778));
#1638=CARTESIAN_POINT('Origin',(-19.5000003501773,7.77817440865956,-15.3786797328182));
#1639=CARTESIAN_POINT('Origin',(-19.5000003501773,2.82842694035373,-20.3284272011241));
#1640=CARTESIAN_POINT('',(-21.5000003501773,10.2276641514427,-17.8281694756014));
#1641=CARTESIAN_POINT('',(-21.5000003501773,6.69213024551,-21.3637033815341));
#1642=CARTESIAN_POINT('',(-21.5,5.27791682609617,-22.7779170868665));
#1643=CARTESIAN_POINT('',(-18.7493380358586,5.,-12.6005053241587));
#1644=CARTESIAN_POINT('Origin',(-19.5000003501773,7.77817440865956,-15.3786797328182));
#1645=CARTESIAN_POINT('',(-15.9686319135148,5.,-15.5));
#1646=CARTESIAN_POINT('Origin',(-19.5000003501773,5.,-18.1568541414778));
#1647=CARTESIAN_POINT('',(-15.5270579495865,7.,-15.5));
#1648=CARTESIAN_POINT('Origin',(-19.5000003501773,7.65685414147778,-15.5));
#1649=CARTESIAN_POINT('',(-15.6143884805527,7.,-17.5));
#1650=CARTESIAN_POINT('Origin',(-19.5000003501773,7.,-16.1568541414778));
#1651=CARTESIAN_POINT('',(-16.0358987974018,2.82842686397585,-17.5));
#1652=CARTESIAN_POINT('Origin',(-19.5000003501773,5.65685414147778,-17.5));
#1653=CARTESIAN_POINT('Origin',(-19.5000003501773,4.24264050272682,-18.914213638751));
#1654=CARTESIAN_POINT('Origin',(-23.5,0.,-17.5));
#1655=CARTESIAN_POINT('',(-23.5000003501773,7.,-14.6005053241587));
#1656=CARTESIAN_POINT('',(-23.5,7.,17.5));
#1657=CARTESIAN_POINT('',(-23.5000003501773,19.0918830920368,-26.6923884161954));
#1658=CARTESIAN_POINT('',(-23.5000003501773,19.0918830920368,-26.6923884161954));
#1659=CARTESIAN_POINT('',(-23.5000003501773,14.1421356237309,-31.6421358845013));
#1660=CARTESIAN_POINT('Origin',(0.,7.,0.));
#1661=CARTESIAN_POINT('',(15.5270579495865,7.,-15.5));
#1662=CARTESIAN_POINT('',(-21.5,7.,-15.5));
#1663=CARTESIAN_POINT('',(15.6143884805527,7.,-17.5));
#1664=CARTESIAN_POINT('Origin',(19.5000003501773,7.,-16.1568541414778));
#1665=CARTESIAN_POINT('',(-23.5,7.,-17.5));
#1666=CARTESIAN_POINT('Origin',(0.,7.,0.));
#1667=CARTESIAN_POINT('',(-21.5,7.,-15.5));
#1668=CARTESIAN_POINT('Origin',(0.,12.0208152801713,-19.62132060433));
#1669=CARTESIAN_POINT('',(-21.5000003501773,13.8139662245074,-21.4144715486661));
#1670=CARTESIAN_POINT('',(-21.5000003501773,6.36396103067893,-13.9644663548376));
#1671=CARTESIAN_POINT('',(-16.0358987350395,17.6776695296637,-25.2781748538223));
#1672=CARTESIAN_POINT('Origin',(-19.5000003501773,16.2634559672906,-23.8639612914492));
#1673=CARTESIAN_POINT('',(16.0358987350395,17.6776695296637,-25.2781748538223));
#1674=CARTESIAN_POINT('',(21.5000003501773,17.6776695296637,-25.2781748538223));
#1675=CARTESIAN_POINT('',(21.5000003501773,13.8139662245074,-21.4144715486661));
#1676=CARTESIAN_POINT('Origin',(19.5000003501773,16.2634559672906,-23.8639612914492));
#1677=CARTESIAN_POINT('',(21.5,10.227664294402,-17.8281696185607));
#1678=CARTESIAN_POINT('',(21.5000003501773,6.36396103067893,-13.9644663548376));
#1679=CARTESIAN_POINT('',(18.7493380358586,5.,-12.6005053241587));
#1680=CARTESIAN_POINT('Origin',(19.5000003501773,7.77817440865956,-15.3786797328182));
#1681=CARTESIAN_POINT('',(20.2506626644959,5.,-12.6005053241587));
#1682=CARTESIAN_POINT('',(18.8750001750886,5.,-12.6005053241587));
#1683=CARTESIAN_POINT('',(21.5,5.32868452291712,-12.9291898470758));
#1684=CARTESIAN_POINT('Origin',(19.5000003501773,7.77817440865956,-15.3786797328182));
#1685=CARTESIAN_POINT('',(21.5000003501773,7.,-14.6005053241587));
#1686=CARTESIAN_POINT('',(21.5,5.86396087329012,-13.4644661974488));
#1687=CARTESIAN_POINT('',(0.,7.,-14.6005053241587));
#1688=CARTESIAN_POINT('',(23.5000003501773,19.0918830920368,-26.6923884161954));
#1689=CARTESIAN_POINT('',(-21.5000003501773,7.,-14.6005053241587));
#1690=CARTESIAN_POINT('',(0.,7.,-14.6005053241587));
#1691=CARTESIAN_POINT('',(-21.5,-1.88603912670988,-5.71446619744877));
#1692=CARTESIAN_POINT('',(-18.8750001750886,5.,-12.6005053241587));
#1693=CARTESIAN_POINT('',(18.9000003501773,7.77817440865956,-15.3786797328182));
#1694=CARTESIAN_POINT('Origin',(19.5000003501773,7.77817440865956,-15.3786797328182));
#1695=CARTESIAN_POINT('',(18.9000003501773,16.2634559672906,-23.8639612914492));
#1696=CARTESIAN_POINT('Origin',(19.5000003501773,16.2634559672906,-23.8639612914492));
#1697=CARTESIAN_POINT('',(-20.1000003501773,16.2634559672906,-23.8639612914492));
#1698=CARTESIAN_POINT('Origin',(-19.5000003501773,16.2634559672906,-23.8639612914492));
#1699=CARTESIAN_POINT('Origin',(-21.5,0.,-15.5));
#1700=CARTESIAN_POINT('',(-15.5358983848622,5.,-15.5));
#1701=CARTESIAN_POINT('',(-19.875,5.,-15.5));
#1702=CARTESIAN_POINT('',(-15.5358983848622,2.,-15.5));
#1703=CARTESIAN_POINT('',(-15.5358983848622,0.,-15.5));
#1704=CARTESIAN_POINT('',(15.5358983848622,2.,-15.5));
#1705=CARTESIAN_POINT('',(-10.75,2.,-15.5));
#1706=CARTESIAN_POINT('',(15.5358983848622,5.,-15.5));
#1707=CARTESIAN_POINT('',(15.5358983848622,0.,-15.5));
#1708=CARTESIAN_POINT('',(15.9686319135148,5.,-15.5));
#1709=CARTESIAN_POINT('',(-1.625,5.,-15.5));
#1710=CARTESIAN_POINT('Origin',(19.5000003501773,7.65685414147778,-15.5));
#1711=CARTESIAN_POINT('Origin',(-21.5,0.,15.5));
#1712=CARTESIAN_POINT('',(-21.5,7.,15.5));
#1713=CARTESIAN_POINT('',(-21.5,7.,15.5));
#1714=CARTESIAN_POINT('',(-21.5,5.,15.5));
#1715=CARTESIAN_POINT('',(-21.5,0.,15.5));
#1716=CARTESIAN_POINT('',(-21.5,5.,10.3775010008008));
#1717=CARTESIAN_POINT('',(-21.5,5.,14.));
#1718=CARTESIAN_POINT('',(-21.5,2.,10.3775010008008));
#1719=CARTESIAN_POINT('',(-21.5,0.,10.3775010008008));
#1720=CARTESIAN_POINT('',(-21.5,2.,-10.3775010008008));
#1721=CARTESIAN_POINT('',(-21.5,2.,7.75));
#1722=CARTESIAN_POINT('',(-21.5,5.,-10.3775010008008));
#1723=CARTESIAN_POINT('',(-21.5,0.,-10.3775010008008));
#1724=CARTESIAN_POINT('',(-21.5,5.,1.5));
#1725=CARTESIAN_POINT('Origin',(-18.25,5.,-12.5));
#1726=CARTESIAN_POINT('Origin',(-19.,5.,-13.5));
#1727=CARTESIAN_POINT('Origin',(23.5,0.,-17.5));
#1728=CARTESIAN_POINT('',(16.0358987974018,2.82842686397585,-17.5));
#1729=CARTESIAN_POINT('Origin',(19.5000003501773,5.65685414147778,-17.5));
#1730=CARTESIAN_POINT('',(11.75,2.82842686397585,-17.5));
#1731=CARTESIAN_POINT('Origin',(19.5000003501773,2.82842694035373,-20.3284272011241));
#1732=CARTESIAN_POINT('',(18.9000003501773,7.,-16.1568541414778));
#1733=CARTESIAN_POINT('',(18.9000003501773,2.82842694035373,-20.3284272011241));
#1734=CARTESIAN_POINT('',(19.8798309945594,7.,-15.5));
#1735=CARTESIAN_POINT('Origin',(19.5000003501773,7.,-16.1568541414778));
#1736=CARTESIAN_POINT('',(19.1201697057952,7.,-15.5));
#1737=CARTESIAN_POINT('Origin',(19.5000003501773,7.65685414147778,-15.5));
#1738=CARTESIAN_POINT('Origin',(19.5000003501773,7.,-16.1568541414778));
#1739=CARTESIAN_POINT('Origin',(19.5000003501773,2.82842694035373,-20.3284272011241));
#1740=CARTESIAN_POINT('',(21.5,5.,-13.2578743699929));
#1741=CARTESIAN_POINT('Origin',(19.5000003501773,5.,-18.1568541414778));
#1742=CARTESIAN_POINT('',(21.5,0.378937054611285,-17.8789373153816));
#1743=CARTESIAN_POINT('Origin',(19.5000003501773,2.82842694035373,-20.3284272011241));
#1744=CARTESIAN_POINT('Origin',(19.5000003501773,5.,-18.1568541414778));
#1745=CARTESIAN_POINT('',(21.5000003501773,6.69213024551,-21.3637033815341));
#1746=CARTESIAN_POINT('',(21.5,5.27791682609617,-22.7779170868665));
#1747=CARTESIAN_POINT('Origin',(19.5000003501773,4.24264050272682,-18.914213638751));
#1748=CARTESIAN_POINT('Origin',(-21.5,0.,-15.5));
#1749=CARTESIAN_POINT('Origin',(0.,7.,0.));
#1750=CARTESIAN_POINT('',(-21.5,7.,-15.5));
#1751=CARTESIAN_POINT('Origin',(21.5,0.,-15.5));
#1752=CARTESIAN_POINT('',(21.5000003501773,10.2784323185747,-24.9500054545988));
#1753=CARTESIAN_POINT('',(21.5,8.86421861324232,-26.3642188740126));
#1754=CARTESIAN_POINT('',(21.5000003501773,11.3137084989848,-25.9852816350089));
#1755=CARTESIAN_POINT('Origin',(0.,8.48528137423856,-23.1568545102627));
#1756=CARTESIAN_POINT('',(16.0358987350395,14.1421356237309,-28.8137087597551));
#1757=CARTESIAN_POINT('Origin',(19.5000003501773,12.7279220613578,-27.399495197382));
#1758=CARTESIAN_POINT('',(-16.0358987350395,14.1421356237309,-28.8137087597551));
#1759=CARTESIAN_POINT('',(-10.7500001750886,14.1421356237309,-28.8137087597551));
#1760=CARTESIAN_POINT('',(-21.5000003501773,10.2784323185747,-24.9500054545988));
#1761=CARTESIAN_POINT('Origin',(-19.5000003501773,12.7279220613578,-27.399495197382));
#1762=CARTESIAN_POINT('',(-21.5000003501773,4.94974746830582,-19.62132060433));
#1763=CARTESIAN_POINT('Origin',(-19.5000003501773,11.3137084989848,-28.8137087597551));
#1764=CARTESIAN_POINT('',(-20.1000003501773,12.7279220613578,-27.399495197382));
#1765=CARTESIAN_POINT('',(-20.1000003501773,11.3137084989848,-28.8137087597551));
#1766=CARTESIAN_POINT('Origin',(-19.5000003501773,12.7279220613578,-27.399495197382));
#1767=CARTESIAN_POINT('Origin',(-19.5000003501773,11.3137084989848,-28.8137087597551));
#1768=CARTESIAN_POINT('',(-16.0358987350395,12.7279220613579,-30.2279223221282));
#1769=CARTESIAN_POINT('',(-21.5,8.86421861324232,-26.3642188740126));
#1770=CARTESIAN_POINT('Origin',(-21.5000003501773,12.7279220613579,-30.2279223221282));
#1771=CARTESIAN_POINT('',(16.0358987350395,12.7279220613579,-30.2279223221282));
#1772=CARTESIAN_POINT('Origin',(19.5000003501773,11.3137084989848,-28.8137087597551));
#1773=CARTESIAN_POINT('',(18.9000003501773,12.7279220613578,-27.399495197382));
#1774=CARTESIAN_POINT('',(18.9000003501773,11.3137084989848,-28.8137087597551));
#1775=CARTESIAN_POINT('Origin',(19.5000003501773,12.7279220613578,-27.399495197382));
#1776=CARTESIAN_POINT('Origin',(19.5000003501773,11.3137084989848,-28.8137087597551));
#1777=CARTESIAN_POINT('Origin',(21.5,0.,-15.5));
#1778=CARTESIAN_POINT('',(21.5,5.,-10.3775010008008));
#1779=CARTESIAN_POINT('',(21.5,5.,-14.));
#1780=CARTESIAN_POINT('',(21.5,2.,-10.3775010008008));
#1781=CARTESIAN_POINT('',(21.5,0.,-10.3775010008008));
#1782=CARTESIAN_POINT('',(21.5,2.,10.3775010008008));
#1783=CARTESIAN_POINT('',(21.5,2.,-7.75));
#1784=CARTESIAN_POINT('',(21.5,5.,10.3775010008008));
#1785=CARTESIAN_POINT('',(21.5,0.,10.3775010008008));
#1786=CARTESIAN_POINT('',(21.5,5.,15.5));
#1787=CARTESIAN_POINT('',(21.5,5.,-1.5));
#1788=CARTESIAN_POINT('',(21.5,7.,15.5));
#1789=CARTESIAN_POINT('',(21.5,0.,15.5));
#1790=CARTESIAN_POINT('',(21.5,7.,-15.5));
#1791=CARTESIAN_POINT('Origin',(0.,8.48528137423856,-23.1568545102627));
#1792=CARTESIAN_POINT('Origin',(-19.,0.,-13.5));
#1793=CARTESIAN_POINT('Origin',(-19.,2.,-13.5));
#1794=CARTESIAN_POINT('Origin',(-21.5,0.,-15.5));
#1795=CARTESIAN_POINT('Origin',(19.,0.,13.5));
#1796=CARTESIAN_POINT('',(18.4,5.,13.5));
#1797=CARTESIAN_POINT('Origin',(19.,5.,13.5));
#1798=CARTESIAN_POINT('',(18.4,0.,13.5));
#1799=CARTESIAN_POINT('Origin',(19.,0.,13.5));
#1800=CARTESIAN_POINT('',(15.5358983848622,2.,15.5));
#1801=CARTESIAN_POINT('Origin',(19.,2.,13.5));
#1802=CARTESIAN_POINT('',(15.5358983848622,5.,15.5));
#1803=CARTESIAN_POINT('',(15.5358983848622,0.,15.5));
#1804=CARTESIAN_POINT('Origin',(19.,5.,13.5));
#1805=CARTESIAN_POINT('Origin',(18.25,5.,12.5));
#1806=CARTESIAN_POINT('',(19.875,5.,15.5));
#1807=CARTESIAN_POINT('Origin',(0.,2.,0.));
#1808=CARTESIAN_POINT('',(-15.5358983848622,2.,15.5));
#1809=CARTESIAN_POINT('Origin',(-19.,2.,13.5));
#1810=CARTESIAN_POINT('',(10.75,2.,15.5));
#1811=CARTESIAN_POINT('Origin',(19.,2.,-13.5));
#1812=CARTESIAN_POINT('Origin',(19.,0.,-13.5));
#1813=CARTESIAN_POINT('Origin',(19.,5.,-13.5));
#1814=CARTESIAN_POINT('Origin',(18.25,5.,-12.5));
#1815=CARTESIAN_POINT('Origin',(-19.,0.,13.5));
#1816=CARTESIAN_POINT('',(-19.6,5.,13.5));
#1817=CARTESIAN_POINT('Origin',(-19.,5.,13.5));
#1818=CARTESIAN_POINT('',(-19.6,0.,13.5));
#1819=CARTESIAN_POINT('Origin',(-19.,0.,13.5));
#1820=CARTESIAN_POINT('',(-15.5358983848622,5.,15.5));
#1821=CARTESIAN_POINT('Origin',(-19.,5.,13.5));
#1822=CARTESIAN_POINT('',(-15.5358983848622,0.,15.5));
#1823=CARTESIAN_POINT('Origin',(-18.25,5.,12.5));
#1824=CARTESIAN_POINT('',(1.625,5.,15.5));
#1825=CARTESIAN_POINT('Origin',(-21.5,0.,15.5));
#1826=CARTESIAN_POINT('Origin',(0.,7.,0.));
#1827=CARTESIAN_POINT('',(21.5,7.,15.5));
#1828=CARTESIAN_POINT('',(23.5,7.,17.5));
#1829=CARTESIAN_POINT('Origin',(23.5000003501773,14.1421356237309,-31.6421358845013));
#1830=CARTESIAN_POINT('Origin',(0.,8.48528137423856,-23.1568545102627));
#1831=CARTESIAN_POINT('Origin',(21.5,0.,15.5));
#1832=CARTESIAN_POINT('Origin',(-23.5,0.,17.5));
#1833=CARTESIAN_POINT('Origin',(-19.,0.,-13.5));
#1834=CARTESIAN_POINT('',(-19.6,0.,-13.5));
#1835=CARTESIAN_POINT('Origin',(19.,0.,-13.5));
#1836=CARTESIAN_POINT('',(18.4,0.,-13.5));
#1837=CARTESIAN_POINT('Origin',(-19.5000003501773,2.82842694035373,-20.3284272011241));
#1838=CARTESIAN_POINT('',(-20.1000003501773,5.65685414147778,-17.5));
#1839=CARTESIAN_POINT('Origin',(-19.5000003501773,5.65685414147778,-17.5));
#1840=CARTESIAN_POINT('',(-20.1000003501773,4.24264050272682,-18.914213638751));
#1841=CARTESIAN_POINT('',(-20.1000003501773,2.82842694035373,-20.3284272011241));
#1842=CARTESIAN_POINT('Origin',(-19.5000003501773,4.24264050272682,-18.914213638751));
#1843=CARTESIAN_POINT('Origin',(0.,8.48528137423856,-23.1568545102627));
#1844=CARTESIAN_POINT('Origin',(23.5,0.,-17.5));
#1845=UNCERTAINTY_MEASURE_WITH_UNIT(LENGTH_MEASURE(0.01),#1849,
'DISTANCE_ACCURACY_VALUE',
'Maximum model space distance between geometric entities at asserted c
onnectivities');
#1846=UNCERTAINTY_MEASURE_WITH_UNIT(LENGTH_MEASURE(0.01),#1849,
'DISTANCE_ACCURACY_VALUE',
'Maximum model space distance between geometric entities at asserted c
onnectivities');
#1847=(
GEOMETRIC_REPRESENTATION_CONTEXT(3)
GLOBAL_UNCERTAINTY_ASSIGNED_CONTEXT((#1845))
GLOBAL_UNIT_ASSIGNED_CONTEXT((#1849,#1851,#1852))
REPRESENTATION_CONTEXT('','3D')
);
#1848=(
GEOMETRIC_REPRESENTATION_CONTEXT(3)
GLOBAL_UNCERTAINTY_ASSIGNED_CONTEXT((#1846))
GLOBAL_UNIT_ASSIGNED_CONTEXT((#1849,#1851,#1852))
REPRESENTATION_CONTEXT('','3D')
);
#1849=(
LENGTH_UNIT()
NAMED_UNIT(*)
SI_UNIT(.MILLI.,.METRE.)
);
#1850=(
LENGTH_UNIT()
NAMED_UNIT(*)
SI_UNIT($,.METRE.)
);
#1851=(
NAMED_UNIT(*)
PLANE_ANGLE_UNIT()
SI_UNIT($,.RADIAN.)
);
#1852=(
NAMED_UNIT(*)
SI_UNIT($,.STERADIAN.)
SOLID_ANGLE_UNIT()
);
#1853=SHAPE_DEFINITION_REPRESENTATION(#1854,#1855);
#1854=PRODUCT_DEFINITION_SHAPE('',$,#1857);
#1855=SHAPE_REPRESENTATION('',(#1071),#1847);
#1856=PRODUCT_DEFINITION_CONTEXT('part definition',#1861,'design');
#1857=PRODUCT_DEFINITION('support lcd etau','support lcd etau v0',#1858,
#1856);
#1858=PRODUCT_DEFINITION_FORMATION('',$,#1863);
#1859=PRODUCT_RELATED_PRODUCT_CATEGORY('support lcd etau v0',
'support lcd etau v0',(#1863));
#1860=APPLICATION_PROTOCOL_DEFINITION('international standard',
'automotive_design',2009,#1861);
#1861=APPLICATION_CONTEXT(
'Core Data for Automotive Mechanical Design Process');
#1862=PRODUCT_CONTEXT('part definition',#1861,'mechanical');
#1863=PRODUCT('support lcd etau','support lcd etau v0',$,(#1862));
#1864=PRESENTATION_STYLE_ASSIGNMENT((#1865));
#1865=SURFACE_STYLE_USAGE(.BOTH.,#1866);
#1866=SURFACE_SIDE_STYLE('',(#1867));
#1867=SURFACE_STYLE_FILL_AREA(#1868);
#1868=FILL_AREA_STYLE('Acier - Satin\X\E9',(#1869));
#1869=FILL_AREA_STYLE_COLOUR('Acier - Satin\X\E9',#1870);
#1870=COLOUR_RGB('Acier - Satin\X\E9',0.627450980392157,0.627450980392157,
0.627450980392157);
ENDSEC;
END-ISO-10303-21;
