ISO-10303-21;
HEADER;
/* Generated by software containing ST-Developer
 * from STEP Tools, Inc. (www.steptools.com) 
 */

FILE_DESCRIPTION(
/* description */ (''),
/* implementation_level */ '2;1');

FILE_NAME(
/* name */ 'support_sonoff_fer.step',
/* time_stamp */ '2025-10-20T18:48:13+02:00',
/* author */ (''),
/* organization */ (''),
/* preprocessor_version */ 'ST-DEVELOPER v20.1',
/* originating_system */ 'Autodesk Translation Framework v14.17.0.0',
/* authorisation */ '');

FILE_SCHEMA (('AUTOMOTIVE_DESIGN { 1 0 10303 214 3 1 1 }'));
ENDSEC;

DATA;
#10=MECHANICAL_DESIGN_GEOMETRIC_PRESENTATION_REPRESENTATION('',(#13),#1722);
#11=SHAPE_REPRESENTATION_RELATIONSHIP('SRR','None',#1729,#12);
#12=ADVANCED_BREP_SHAPE_REPRESENTATION('',(#14),#1721);
#13=STYLED_ITEM('',(#1738),#14);
#14=MANIFOLD_SOLID_BREP('Corps1',#980);
#15=TOROIDAL_SURFACE('',#1022,3.33333333333333,0.833333333333333);
#16=TOROIDAL_SURFACE('',#1028,9.16666666666667,0.833333333333333);
#17=TOROIDAL_SURFACE('',#1041,3.33333333333333,0.833333333333333);
#18=TOROIDAL_SURFACE('',#1047,9.16666666666667,0.833333333333333);
#19=TOROIDAL_SURFACE('',#1060,9.16666666666667,0.833333333333333);
#20=TOROIDAL_SURFACE('',#1076,9.16666666666667,0.833333333333333);
#21=TOROIDAL_SURFACE('',#1086,3.33333333333333,0.833333333333333);
#22=B_SPLINE_CURVE_WITH_KNOTS('',3,(#1514,#1515,#1516,#1517,#1518,#1519,
#1520,#1521,#1522,#1523),.UNSPECIFIED.,.F.,.F.,(4,2,2,2,4),(0.127963178136357,
0.162317299372372,0.196671420608386,0.228175338974582,0.259679257340777),
 .UNSPECIFIED.);
#23=B_SPLINE_CURVE_WITH_KNOTS('',3,(#1565,#1566,#1567,#1568,#1569,#1570,
#1571,#1572,#1573,#1574),.UNSPECIFIED.,.F.,.F.,(4,2,2,2,4),(0.519358514681554,
0.55086243304775,0.582366351413945,0.61672047264996,0.651074593885974),
 .UNSPECIFIED.);
#24=PLANE('',#1007);
#25=PLANE('',#1010);
#26=PLANE('',#1016);
#27=PLANE('',#1033);
#28=PLANE('',#1035);
#29=PLANE('',#1052);
#30=PLANE('',#1055);
#31=PLANE('',#1056);
#32=PLANE('',#1070);
#33=PLANE('',#1072);
#34=PLANE('',#1090);
#35=PLANE('',#1094);
#36=PLANE('',#1095);
#37=PLANE('',#1096);
#38=PLANE('',#1097);
#39=PLANE('',#1098);
#40=PLANE('',#1099);
#41=PLANE('',#1100);
#42=PLANE('',#1101);
#43=PLANE('',#1102);
#44=PLANE('',#1103);
#45=PLANE('',#1104);
#46=CIRCLE('',#1004,0.833333333333333);
#47=CIRCLE('',#1006,0.833333333333333);
#48=CIRCLE('',#1011,3.33333333333333);
#49=CIRCLE('',#1012,5.);
#50=CIRCLE('',#1014,0.833333333333333);
#51=CIRCLE('',#1015,0.833333333333333);
#52=CIRCLE('',#1017,2.5);
#53=CIRCLE('',#1018,5.);
#54=CIRCLE('',#1019,2.5);
#55=CIRCLE('',#1021,0.833333333333333);
#56=CIRCLE('',#1023,0.833333333333339);
#57=CIRCLE('',#1024,3.33333333333333);
#58=CIRCLE('',#1025,2.5);
#59=CIRCLE('',#1027,0.833333333333339);
#60=CIRCLE('',#1029,0.833333333333339);
#61=CIRCLE('',#1030,10.);
#62=CIRCLE('',#1031,9.16666666666667);
#63=CIRCLE('',#1037,5.);
#64=CIRCLE('',#1038,5.);
#65=CIRCLE('',#1040,0.833333333333335);
#66=CIRCLE('',#1042,0.833333333333335);
#67=CIRCLE('',#1043,2.5);
#68=CIRCLE('',#1044,3.33333333333333);
#69=CIRCLE('',#1046,0.833333333333335);
#70=CIRCLE('',#1048,0.833333333333321);
#71=CIRCLE('',#1049,9.16666666666667);
#72=CIRCLE('',#1050,10.);
#73=CIRCLE('',#1054,10.);
#74=CIRCLE('',#1058,0.833333333333339);
#75=CIRCLE('',#1061,0.833333333333339);
#76=CIRCLE('',#1062,10.);
#77=CIRCLE('',#1063,9.16666666666667);
#78=CIRCLE('',#1065,0.833333333333333);
#79=CIRCLE('',#1069,0.833333333333333);
#80=CIRCLE('',#1074,0.833333333333333);
#81=CIRCLE('',#1075,0.833333333333335);
#82=CIRCLE('',#1077,0.833333333333335);
#83=CIRCLE('',#1078,9.16666666666667);
#84=CIRCLE('',#1084,0.833333333333333);
#85=CIRCLE('',#1085,0.833333333333335);
#86=CIRCLE('',#1087,0.833333333333335);
#87=CIRCLE('',#1088,2.5);
#88=CIRCLE('',#1093,2.5);
#89=FACE_OUTER_BOUND('',#145,.T.);
#90=FACE_OUTER_BOUND('',#146,.T.);
#91=FACE_OUTER_BOUND('',#147,.T.);
#92=FACE_OUTER_BOUND('',#148,.T.);
#93=FACE_OUTER_BOUND('',#149,.T.);
#94=FACE_OUTER_BOUND('',#150,.T.);
#95=FACE_OUTER_BOUND('',#151,.T.);
#96=FACE_OUTER_BOUND('',#152,.T.);
#97=FACE_OUTER_BOUND('',#153,.T.);
#98=FACE_OUTER_BOUND('',#154,.T.);
#99=FACE_OUTER_BOUND('',#155,.T.);
#100=FACE_OUTER_BOUND('',#156,.T.);
#101=FACE_OUTER_BOUND('',#157,.T.);
#102=FACE_OUTER_BOUND('',#158,.T.);
#103=FACE_OUTER_BOUND('',#159,.T.);
#104=FACE_OUTER_BOUND('',#160,.T.);
#105=FACE_OUTER_BOUND('',#161,.T.);
#106=FACE_OUTER_BOUND('',#162,.T.);
#107=FACE_OUTER_BOUND('',#163,.T.);
#108=FACE_OUTER_BOUND('',#164,.T.);
#109=FACE_OUTER_BOUND('',#165,.T.);
#110=FACE_OUTER_BOUND('',#166,.T.);
#111=FACE_OUTER_BOUND('',#167,.T.);
#112=FACE_OUTER_BOUND('',#168,.T.);
#113=FACE_OUTER_BOUND('',#169,.T.);
#114=FACE_OUTER_BOUND('',#170,.T.);
#115=FACE_OUTER_BOUND('',#171,.T.);
#116=FACE_OUTER_BOUND('',#172,.T.);
#117=FACE_OUTER_BOUND('',#173,.T.);
#118=FACE_OUTER_BOUND('',#174,.T.);
#119=FACE_OUTER_BOUND('',#175,.T.);
#120=FACE_OUTER_BOUND('',#176,.T.);
#121=FACE_OUTER_BOUND('',#177,.T.);
#122=FACE_OUTER_BOUND('',#178,.T.);
#123=FACE_OUTER_BOUND('',#179,.T.);
#124=FACE_OUTER_BOUND('',#180,.T.);
#125=FACE_OUTER_BOUND('',#181,.T.);
#126=FACE_OUTER_BOUND('',#182,.T.);
#127=FACE_OUTER_BOUND('',#183,.T.);
#128=FACE_OUTER_BOUND('',#184,.T.);
#129=FACE_OUTER_BOUND('',#185,.T.);
#130=FACE_OUTER_BOUND('',#186,.T.);
#131=FACE_OUTER_BOUND('',#187,.T.);
#132=FACE_OUTER_BOUND('',#188,.T.);
#133=FACE_OUTER_BOUND('',#189,.T.);
#134=FACE_OUTER_BOUND('',#190,.T.);
#135=FACE_OUTER_BOUND('',#191,.T.);
#136=FACE_OUTER_BOUND('',#192,.T.);
#137=FACE_OUTER_BOUND('',#193,.T.);
#138=FACE_OUTER_BOUND('',#194,.T.);
#139=FACE_OUTER_BOUND('',#195,.T.);
#140=FACE_OUTER_BOUND('',#196,.T.);
#141=FACE_OUTER_BOUND('',#197,.T.);
#142=FACE_OUTER_BOUND('',#198,.T.);
#143=FACE_OUTER_BOUND('',#199,.T.);
#144=FACE_OUTER_BOUND('',#200,.T.);
#145=EDGE_LOOP('',(#613,#614,#615,#616,#617));
#146=EDGE_LOOP('',(#618,#619,#620,#621));
#147=EDGE_LOOP('',(#622,#623,#624,#625,#626));
#148=EDGE_LOOP('',(#627,#628,#629,#630));
#149=EDGE_LOOP('',(#631,#632,#633,#634));
#150=EDGE_LOOP('',(#635,#636,#637,#638,#639,#640,#641,#642,#643,#644,#645,
#646,#647,#648));
#151=EDGE_LOOP('',(#649,#650,#651,#652,#653,#654,#655,#656,#657,#658,#659,
#660,#661));
#152=EDGE_LOOP('',(#662,#663,#664,#665));
#153=EDGE_LOOP('',(#666,#667,#668,#669,#670,#671,#672,#673));
#154=EDGE_LOOP('',(#674,#675,#676,#677));
#155=EDGE_LOOP('',(#678,#679,#680,#681));
#156=EDGE_LOOP('',(#682,#683,#684,#685));
#157=EDGE_LOOP('',(#686,#687,#688,#689));
#158=EDGE_LOOP('',(#690,#691,#692,#693));
#159=EDGE_LOOP('',(#694,#695,#696,#697,#698,#699,#700));
#160=EDGE_LOOP('',(#701,#702,#703,#704));
#161=EDGE_LOOP('',(#705,#706,#707,#708));
#162=EDGE_LOOP('',(#709,#710,#711,#712,#713,#714,#715,#716,#717,#718));
#163=EDGE_LOOP('',(#719,#720,#721,#722));
#164=EDGE_LOOP('',(#723,#724,#725,#726));
#165=EDGE_LOOP('',(#727,#728,#729,#730));
#166=EDGE_LOOP('',(#731,#732,#733,#734));
#167=EDGE_LOOP('',(#735,#736,#737,#738));
#168=EDGE_LOOP('',(#739,#740,#741,#742));
#169=EDGE_LOOP('',(#743,#744,#745,#746));
#170=EDGE_LOOP('',(#747,#748,#749,#750,#751,#752,#753));
#171=EDGE_LOOP('',(#754,#755,#756,#757));
#172=EDGE_LOOP('',(#758,#759,#760,#761));
#173=EDGE_LOOP('',(#762,#763,#764,#765));
#174=EDGE_LOOP('',(#766,#767,#768,#769));
#175=EDGE_LOOP('',(#770,#771,#772,#773));
#176=EDGE_LOOP('',(#774,#775,#776,#777));
#177=EDGE_LOOP('',(#778,#779,#780,#781));
#178=EDGE_LOOP('',(#782,#783,#784,#785));
#179=EDGE_LOOP('',(#786,#787,#788,#789,#790,#791,#792));
#180=EDGE_LOOP('',(#793,#794,#795,#796));
#181=EDGE_LOOP('',(#797,#798,#799,#800));
#182=EDGE_LOOP('',(#801,#802,#803,#804));
#183=EDGE_LOOP('',(#805,#806,#807,#808));
#184=EDGE_LOOP('',(#809,#810,#811,#812));
#185=EDGE_LOOP('',(#813,#814,#815,#816));
#186=EDGE_LOOP('',(#817,#818,#819,#820));
#187=EDGE_LOOP('',(#821,#822,#823,#824,#825,#826,#827));
#188=EDGE_LOOP('',(#828,#829,#830,#831));
#189=EDGE_LOOP('',(#832,#833,#834,#835));
#190=EDGE_LOOP('',(#836,#837,#838,#839));
#191=EDGE_LOOP('',(#840,#841,#842,#843,#844,#845));
#192=EDGE_LOOP('',(#846,#847,#848,#849,#850,#851));
#193=EDGE_LOOP('',(#852,#853,#854,#855));
#194=EDGE_LOOP('',(#856,#857,#858,#859,#860,#861));
#195=EDGE_LOOP('',(#862,#863,#864,#865,#866,#867,#868));
#196=EDGE_LOOP('',(#869,#870,#871,#872));
#197=EDGE_LOOP('',(#873,#874,#875,#876,#877));
#198=EDGE_LOOP('',(#878,#879,#880,#881,#882,#883,#884,#885));
#199=EDGE_LOOP('',(#886,#887,#888,#889,#890));
#200=EDGE_LOOP('',(#891,#892,#893,#894,#895,#896));
#201=ELLIPSE('',#995,1.17851130197758,0.833333333333334);
#202=ELLIPSE('',#996,1.17851130197758,0.833333333333333);
#203=ELLIPSE('',#997,0.901993500243656,0.833333333333333);
#204=ELLIPSE('',#999,1.17851130197758,0.833333333333333);
#205=ELLIPSE('',#1001,0.901993500243664,0.833333333333333);
#206=ELLIPSE('',#1002,1.17851130197758,0.833333333333333);
#207=ELLIPSE('',#1008,1.17851130197758,0.833333333333334);
#208=ELLIPSE('',#1009,1.17851130197758,0.833333333333333);
#209=ELLIPSE('',#1059,0.901993500243661,0.833333333333333);
#210=ELLIPSE('',#1067,0.90199350024366,0.833333333333334);
#211=ELLIPSE('',#1080,0.901993500243663,0.833333333333333);
#212=ELLIPSE('',#1082,0.901993500243663,0.833333333333333);
#213=LINE('',#1418,#298);
#214=LINE('',#1424,#299);
#215=LINE('',#1428,#300);
#216=LINE('',#1431,#301);
#217=LINE('',#1434,#302);
#218=LINE('',#1438,#303);
#219=LINE('',#1442,#304);
#220=LINE('',#1445,#305);
#221=LINE('',#1448,#306);
#222=LINE('',#1451,#307);
#223=LINE('',#1454,#308);
#224=LINE('',#1456,#309);
#225=LINE('',#1458,#310);
#226=LINE('',#1462,#311);
#227=LINE('',#1464,#312);
#228=LINE('',#1466,#313);
#229=LINE('',#1470,#314);
#230=LINE('',#1472,#315);
#231=LINE('',#1473,#316);
#232=LINE('',#1475,#317);
#233=LINE('',#1477,#318);
#234=LINE('',#1481,#319);
#235=LINE('',#1483,#320);
#236=LINE('',#1485,#321);
#237=LINE('',#1489,#322);
#238=LINE('',#1490,#323);
#239=LINE('',#1496,#324);
#240=LINE('',#1499,#325);
#241=LINE('',#1503,#326);
#242=LINE('',#1507,#327);
#243=LINE('',#1510,#328);
#244=LINE('',#1525,#329);
#245=LINE('',#1528,#330);
#246=LINE('',#1539,#331);
#247=LINE('',#1540,#332);
#248=LINE('',#1548,#333);
#249=LINE('',#1549,#334);
#250=LINE('',#1551,#335);
#251=LINE('',#1553,#336);
#252=LINE('',#1555,#337);
#253=LINE('',#1559,#338);
#254=LINE('',#1561,#339);
#255=LINE('',#1575,#340);
#256=LINE('',#1578,#341);
#257=LINE('',#1581,#342);
#258=LINE('',#1592,#343);
#259=LINE('',#1593,#344);
#260=LINE('',#1601,#345);
#261=LINE('',#1602,#346);
#262=LINE('',#1605,#347);
#263=LINE('',#1606,#348);
#264=LINE('',#1609,#349);
#265=LINE('',#1613,#350);
#266=LINE('',#1614,#351);
#267=LINE('',#1616,#352);
#268=LINE('',#1620,#353);
#269=LINE('',#1623,#354);
#270=LINE('',#1635,#355);
#271=LINE('',#1636,#356);
#272=LINE('',#1639,#357);
#273=LINE('',#1644,#358);
#274=LINE('',#1646,#359);
#275=LINE('',#1648,#360);
#276=LINE('',#1650,#361);
#277=LINE('',#1655,#362);
#278=LINE('',#1663,#363);
#279=LINE('',#1667,#364);
#280=LINE('',#1674,#365);
#281=LINE('',#1680,#366);
#282=LINE('',#1683,#367);
#283=LINE('',#1685,#368);
#284=LINE('',#1686,#369);
#285=LINE('',#1688,#370);
#286=LINE('',#1691,#371);
#287=LINE('',#1694,#372);
#288=LINE('',#1697,#373);
#289=LINE('',#1698,#374);
#290=LINE('',#1700,#375);
#291=LINE('',#1703,#376);
#292=LINE('',#1705,#377);
#293=LINE('',#1706,#378);
#294=LINE('',#1708,#379);
#295=LINE('',#1710,#380);
#296=LINE('',#1714,#381);
#297=LINE('',#1715,#382);
#298=VECTOR('',#1109,10.);
#299=VECTOR('',#1114,10.);
#300=VECTOR('',#1119,10.);
#301=VECTOR('',#1122,10.);
#302=VECTOR('',#1125,10.);
#303=VECTOR('',#1128,10.);
#304=VECTOR('',#1133,10.);
#305=VECTOR('',#1136,10.);
#306=VECTOR('',#1139,10.);
#307=VECTOR('',#1142,10.);
#308=VECTOR('',#1145,10.);
#309=VECTOR('',#1146,10.);
#310=VECTOR('',#1147,10.);
#311=VECTOR('',#1150,10.);
#312=VECTOR('',#1151,10.);
#313=VECTOR('',#1152,10.);
#314=VECTOR('',#1155,10.);
#315=VECTOR('',#1156,10.);
#316=VECTOR('',#1157,10.);
#317=VECTOR('',#1160,10.);
#318=VECTOR('',#1161,10.);
#319=VECTOR('',#1164,10.);
#320=VECTOR('',#1165,10.);
#321=VECTOR('',#1166,10.);
#322=VECTOR('',#1169,10.);
#323=VECTOR('',#1170,10.);
#324=VECTOR('',#1177,10.);
#325=VECTOR('',#1180,10.);
#326=VECTOR('',#1183,10.);
#327=VECTOR('',#1186,10.);
#328=VECTOR('',#1189,10.);
#329=VECTOR('',#1192,10.);
#330=VECTOR('',#1195,10.);
#331=VECTOR('',#1208,10.);
#332=VECTOR('',#1209,10.);
#333=VECTOR('',#1220,10.);
#334=VECTOR('',#1221,10.);
#335=VECTOR('',#1224,10.);
#336=VECTOR('',#1227,10.);
#337=VECTOR('',#1230,10.);
#338=VECTOR('',#1235,10.);
#339=VECTOR('',#1236,10.);
#340=VECTOR('',#1239,10.);
#341=VECTOR('',#1242,10.);
#342=VECTOR('',#1245,10.);
#343=VECTOR('',#1258,10.);
#344=VECTOR('',#1259,10.);
#345=VECTOR('',#1270,10.);
#346=VECTOR('',#1271,10.);
#347=VECTOR('',#1274,10.);
#348=VECTOR('',#1275,10.);
#349=VECTOR('',#1278,10.);
#350=VECTOR('',#1283,10.);
#351=VECTOR('',#1284,10.);
#352=VECTOR('',#1287,10.);
#353=VECTOR('',#1290,10.);
#354=VECTOR('',#1293,10.);
#355=VECTOR('',#1308,10.);
#356=VECTOR('',#1309,10.);
#357=VECTOR('',#1312,10.);
#358=VECTOR('',#1319,10.);
#359=VECTOR('',#1322,10.);
#360=VECTOR('',#1325,10.);
#361=VECTOR('',#1328,10.);
#362=VECTOR('',#1333,10.);
#363=VECTOR('',#1344,10.);
#364=VECTOR('',#1349,10.);
#365=VECTOR('',#1358,10.);
#366=VECTOR('',#1367,10.);
#367=VECTOR('',#1370,10.);
#368=VECTOR('',#1371,10.);
#369=VECTOR('',#1372,10.);
#370=VECTOR('',#1375,10.);
#371=VECTOR('',#1378,10.);
#372=VECTOR('',#1381,10.);
#373=VECTOR('',#1384,10.);
#374=VECTOR('',#1385,10.);
#375=VECTOR('',#1388,10.);
#376=VECTOR('',#1391,10.);
#377=VECTOR('',#1392,10.);
#378=VECTOR('',#1393,10.);
#379=VECTOR('',#1396,10.);
#380=VECTOR('',#1399,10.);
#381=VECTOR('',#1406,10.);
#382=VECTOR('',#1407,10.);
#383=VERTEX_POINT('',#1416);
#384=VERTEX_POINT('',#1417);
#385=VERTEX_POINT('',#1419);
#386=VERTEX_POINT('',#1421);
#387=VERTEX_POINT('',#1423);
#388=VERTEX_POINT('',#1427);
#389=VERTEX_POINT('',#1429);
#390=VERTEX_POINT('',#1433);
#391=VERTEX_POINT('',#1435);
#392=VERTEX_POINT('',#1437);
#393=VERTEX_POINT('',#1441);
#394=VERTEX_POINT('',#1443);
#395=VERTEX_POINT('',#1447);
#396=VERTEX_POINT('',#1449);
#397=VERTEX_POINT('',#1453);
#398=VERTEX_POINT('',#1455);
#399=VERTEX_POINT('',#1457);
#400=VERTEX_POINT('',#1459);
#401=VERTEX_POINT('',#1461);
#402=VERTEX_POINT('',#1463);
#403=VERTEX_POINT('',#1465);
#404=VERTEX_POINT('',#1467);
#405=VERTEX_POINT('',#1469);
#406=VERTEX_POINT('',#1471);
#407=VERTEX_POINT('',#1476);
#408=VERTEX_POINT('',#1478);
#409=VERTEX_POINT('',#1480);
#410=VERTEX_POINT('',#1482);
#411=VERTEX_POINT('',#1484);
#412=VERTEX_POINT('',#1486);
#413=VERTEX_POINT('',#1488);
#414=VERTEX_POINT('',#1492);
#415=VERTEX_POINT('',#1494);
#416=VERTEX_POINT('',#1498);
#417=VERTEX_POINT('',#1500);
#418=VERTEX_POINT('',#1502);
#419=VERTEX_POINT('',#1504);
#420=VERTEX_POINT('',#1506);
#421=VERTEX_POINT('',#1508);
#422=VERTEX_POINT('',#1512);
#423=VERTEX_POINT('',#1513);
#424=VERTEX_POINT('',#1524);
#425=VERTEX_POINT('',#1526);
#426=VERTEX_POINT('',#1530);
#427=VERTEX_POINT('',#1531);
#428=VERTEX_POINT('',#1536);
#429=VERTEX_POINT('',#1537);
#430=VERTEX_POINT('',#1542);
#431=VERTEX_POINT('',#1543);
#432=VERTEX_POINT('',#1557);
#433=VERTEX_POINT('',#1560);
#434=VERTEX_POINT('',#1562);
#435=VERTEX_POINT('',#1564);
#436=VERTEX_POINT('',#1577);
#437=VERTEX_POINT('',#1579);
#438=VERTEX_POINT('',#1583);
#439=VERTEX_POINT('',#1584);
#440=VERTEX_POINT('',#1589);
#441=VERTEX_POINT('',#1590);
#442=VERTEX_POINT('',#1595);
#443=VERTEX_POINT('',#1596);
#444=VERTEX_POINT('',#1604);
#445=VERTEX_POINT('',#1608);
#446=VERTEX_POINT('',#1612);
#447=VERTEX_POINT('',#1618);
#448=VERTEX_POINT('',#1619);
#449=VERTEX_POINT('',#1621);
#450=VERTEX_POINT('',#1626);
#451=VERTEX_POINT('',#1627);
#452=VERTEX_POINT('',#1632);
#453=VERTEX_POINT('',#1633);
#454=VERTEX_POINT('',#1638);
#455=VERTEX_POINT('',#1642);
#456=VERTEX_POINT('',#1652);
#457=VERTEX_POINT('',#1654);
#458=VERTEX_POINT('',#1658);
#459=VERTEX_POINT('',#1662);
#460=VERTEX_POINT('',#1666);
#461=VERTEX_POINT('',#1670);
#462=VERTEX_POINT('',#1672);
#463=VERTEX_POINT('',#1676);
#464=VERTEX_POINT('',#1682);
#465=VERTEX_POINT('',#1684);
#466=VERTEX_POINT('',#1690);
#467=VERTEX_POINT('',#1692);
#468=VERTEX_POINT('',#1696);
#469=VERTEX_POINT('',#1702);
#470=VERTEX_POINT('',#1704);
#471=EDGE_CURVE('',#383,#384,#213,.T.);
#472=EDGE_CURVE('',#384,#385,#201,.T.);
#473=EDGE_CURVE('',#385,#386,#202,.T.);
#474=EDGE_CURVE('',#386,#387,#214,.T.);
#475=EDGE_CURVE('',#387,#383,#203,.T.);
#476=EDGE_CURVE('',#384,#388,#215,.T.);
#477=EDGE_CURVE('',#388,#389,#204,.T.);
#478=EDGE_CURVE('',#389,#385,#216,.T.);
#479=EDGE_CURVE('',#388,#390,#217,.T.);
#480=EDGE_CURVE('',#390,#391,#205,.T.);
#481=EDGE_CURVE('',#391,#392,#218,.T.);
#482=EDGE_CURVE('',#392,#389,#206,.T.);
#483=EDGE_CURVE('',#390,#393,#219,.T.);
#484=EDGE_CURVE('',#393,#394,#46,.F.);
#485=EDGE_CURVE('',#394,#391,#220,.T.);
#486=EDGE_CURVE('',#387,#395,#221,.T.);
#487=EDGE_CURVE('',#395,#396,#47,.F.);
#488=EDGE_CURVE('',#396,#383,#222,.T.);
#489=EDGE_CURVE('',#383,#397,#223,.T.);
#490=EDGE_CURVE('',#398,#397,#224,.T.);
#491=EDGE_CURVE('',#398,#399,#225,.T.);
#492=EDGE_CURVE('',#400,#399,#207,.T.);
#493=EDGE_CURVE('',#401,#400,#226,.T.);
#494=EDGE_CURVE('',#402,#401,#227,.T.);
#495=EDGE_CURVE('',#403,#402,#228,.T.);
#496=EDGE_CURVE('',#404,#403,#208,.T.);
#497=EDGE_CURVE('',#404,#405,#229,.T.);
#498=EDGE_CURVE('',#406,#405,#230,.T.);
#499=EDGE_CURVE('',#406,#390,#231,.T.);
#500=EDGE_CURVE('',#393,#396,#232,.T.);
#501=EDGE_CURVE('',#407,#406,#233,.T.);
#502=EDGE_CURVE('',#408,#407,#48,.T.);
#503=EDGE_CURVE('',#409,#408,#234,.T.);
#504=EDGE_CURVE('',#410,#409,#235,.T.);
#505=EDGE_CURVE('',#411,#410,#236,.T.);
#506=EDGE_CURVE('',#412,#411,#49,.T.);
#507=EDGE_CURVE('',#413,#412,#237,.T.);
#508=EDGE_CURVE('',#397,#413,#238,.T.);
#509=EDGE_CURVE('',#402,#414,#50,.T.);
#510=EDGE_CURVE('',#401,#415,#51,.F.);
#511=EDGE_CURVE('',#415,#414,#239,.T.);
#512=EDGE_CURVE('',#416,#415,#240,.T.);
#513=EDGE_CURVE('',#416,#417,#52,.T.);
#514=EDGE_CURVE('',#418,#417,#241,.T.);
#515=EDGE_CURVE('',#419,#418,#53,.T.);
#516=EDGE_CURVE('',#420,#419,#242,.T.);
#517=EDGE_CURVE('',#420,#421,#54,.T.);
#518=EDGE_CURVE('',#421,#414,#243,.T.);
#519=EDGE_CURVE('',#422,#423,#22,.T.);
#520=EDGE_CURVE('',#423,#424,#244,.T.);
#521=EDGE_CURVE('',#424,#425,#55,.T.);
#522=EDGE_CURVE('',#425,#422,#245,.T.);
#523=EDGE_CURVE('',#426,#427,#56,.T.);
#524=EDGE_CURVE('',#427,#425,#57,.T.);
#525=EDGE_CURVE('',#424,#426,#58,.T.);
#526=EDGE_CURVE('',#428,#429,#59,.T.);
#527=EDGE_CURVE('',#429,#427,#246,.T.);
#528=EDGE_CURVE('',#426,#428,#247,.T.);
#529=EDGE_CURVE('',#430,#431,#60,.T.);
#530=EDGE_CURVE('',#431,#429,#61,.T.);
#531=EDGE_CURVE('',#428,#430,#62,.T.);
#532=EDGE_CURVE('',#399,#431,#248,.T.);
#533=EDGE_CURVE('',#430,#400,#249,.T.);
#534=EDGE_CURVE('',#416,#426,#250,.T.);
#535=EDGE_CURVE('',#424,#417,#251,.T.);
#536=EDGE_CURVE('',#418,#423,#252,.T.);
#537=EDGE_CURVE('',#432,#422,#63,.F.);
#538=EDGE_CURVE('',#412,#432,#253,.T.);
#539=EDGE_CURVE('',#433,#411,#254,.T.);
#540=EDGE_CURVE('',#433,#434,#64,.T.);
#541=EDGE_CURVE('',#435,#434,#23,.T.);
#542=EDGE_CURVE('',#419,#435,#255,.F.);
#543=EDGE_CURVE('',#434,#436,#256,.T.);
#544=EDGE_CURVE('',#436,#437,#65,.T.);
#545=EDGE_CURVE('',#437,#435,#257,.T.);
#546=EDGE_CURVE('',#438,#439,#66,.T.);
#547=EDGE_CURVE('',#439,#437,#67,.T.);
#548=EDGE_CURVE('',#436,#438,#68,.T.);
#549=EDGE_CURVE('',#440,#441,#69,.T.);
#550=EDGE_CURVE('',#441,#439,#258,.T.);
#551=EDGE_CURVE('',#438,#440,#259,.T.);
#552=EDGE_CURVE('',#442,#443,#70,.T.);
#553=EDGE_CURVE('',#443,#441,#71,.T.);
#554=EDGE_CURVE('',#440,#442,#72,.T.);
#555=EDGE_CURVE('',#403,#443,#260,.T.);
#556=EDGE_CURVE('',#442,#404,#261,.T.);
#557=EDGE_CURVE('',#444,#442,#262,.T.);
#558=EDGE_CURVE('',#405,#444,#263,.T.);
#559=EDGE_CURVE('',#440,#445,#264,.T.);
#560=EDGE_CURVE('',#444,#445,#73,.T.);
#561=EDGE_CURVE('',#446,#433,#265,.T.);
#562=EDGE_CURVE('',#445,#446,#266,.T.);
#563=EDGE_CURVE('',#420,#437,#267,.T.);
#564=EDGE_CURVE('',#447,#448,#268,.T.);
#565=EDGE_CURVE('',#448,#449,#74,.T.);
#566=EDGE_CURVE('',#449,#398,#269,.T.);
#567=EDGE_CURVE('',#398,#447,#209,.T.);
#568=EDGE_CURVE('',#450,#451,#75,.T.);
#569=EDGE_CURVE('',#451,#449,#76,.T.);
#570=EDGE_CURVE('',#448,#450,#77,.T.);
#571=EDGE_CURVE('',#452,#453,#78,.T.);
#572=EDGE_CURVE('',#453,#451,#270,.T.);
#573=EDGE_CURVE('',#450,#452,#271,.T.);
#574=EDGE_CURVE('',#454,#447,#272,.T.);
#575=EDGE_CURVE('',#397,#454,#210,.T.);
#576=EDGE_CURVE('',#413,#455,#79,.T.);
#577=EDGE_CURVE('',#455,#454,#273,.T.);
#578=EDGE_CURVE('',#431,#449,#274,.T.);
#579=EDGE_CURVE('',#451,#429,#275,.T.);
#580=EDGE_CURVE('',#432,#453,#276,.T.);
#581=EDGE_CURVE('',#446,#456,#80,.T.);
#582=EDGE_CURVE('',#456,#457,#277,.T.);
#583=EDGE_CURVE('',#457,#445,#81,.T.);
#584=EDGE_CURVE('',#458,#444,#82,.T.);
#585=EDGE_CURVE('',#457,#458,#83,.T.);
#586=EDGE_CURVE('',#458,#459,#278,.T.);
#587=EDGE_CURVE('',#459,#405,#211,.T.);
#588=EDGE_CURVE('',#459,#460,#279,.T.);
#589=EDGE_CURVE('',#460,#406,#212,.T.);
#590=EDGE_CURVE('',#461,#409,#84,.T.);
#591=EDGE_CURVE('',#408,#462,#85,.T.);
#592=EDGE_CURVE('',#462,#461,#280,.T.);
#593=EDGE_CURVE('',#407,#463,#86,.T.);
#594=EDGE_CURVE('',#463,#462,#87,.T.);
#595=EDGE_CURVE('',#460,#463,#281,.T.);
#596=EDGE_CURVE('',#410,#464,#282,.T.);
#597=EDGE_CURVE('',#464,#465,#283,.T.);
#598=EDGE_CURVE('',#465,#456,#284,.T.);
#599=EDGE_CURVE('',#439,#421,#285,.T.);
#600=EDGE_CURVE('',#463,#466,#286,.T.);
#601=EDGE_CURVE('',#466,#467,#88,.T.);
#602=EDGE_CURVE('',#467,#462,#287,.T.);
#603=EDGE_CURVE('',#467,#468,#288,.T.);
#604=EDGE_CURVE('',#468,#461,#289,.T.);
#605=EDGE_CURVE('',#452,#455,#290,.T.);
#606=EDGE_CURVE('',#469,#395,#291,.T.);
#607=EDGE_CURVE('',#470,#469,#292,.T.);
#608=EDGE_CURVE('',#394,#470,#293,.T.);
#609=EDGE_CURVE('',#470,#392,#294,.T.);
#610=EDGE_CURVE('',#469,#386,#295,.T.);
#611=EDGE_CURVE('',#468,#464,#296,.T.);
#612=EDGE_CURVE('',#465,#466,#297,.T.);
#613=ORIENTED_EDGE('',*,*,#471,.T.);
#614=ORIENTED_EDGE('',*,*,#472,.T.);
#615=ORIENTED_EDGE('',*,*,#473,.T.);
#616=ORIENTED_EDGE('',*,*,#474,.T.);
#617=ORIENTED_EDGE('',*,*,#475,.T.);
#618=ORIENTED_EDGE('',*,*,#476,.T.);
#619=ORIENTED_EDGE('',*,*,#477,.T.);
#620=ORIENTED_EDGE('',*,*,#478,.T.);
#621=ORIENTED_EDGE('',*,*,#472,.F.);
#622=ORIENTED_EDGE('',*,*,#479,.T.);
#623=ORIENTED_EDGE('',*,*,#480,.T.);
#624=ORIENTED_EDGE('',*,*,#481,.T.);
#625=ORIENTED_EDGE('',*,*,#482,.T.);
#626=ORIENTED_EDGE('',*,*,#477,.F.);
#627=ORIENTED_EDGE('',*,*,#483,.T.);
#628=ORIENTED_EDGE('',*,*,#484,.T.);
#629=ORIENTED_EDGE('',*,*,#485,.T.);
#630=ORIENTED_EDGE('',*,*,#480,.F.);
#631=ORIENTED_EDGE('',*,*,#486,.T.);
#632=ORIENTED_EDGE('',*,*,#487,.T.);
#633=ORIENTED_EDGE('',*,*,#488,.T.);
#634=ORIENTED_EDGE('',*,*,#475,.F.);
#635=ORIENTED_EDGE('',*,*,#479,.F.);
#636=ORIENTED_EDGE('',*,*,#476,.F.);
#637=ORIENTED_EDGE('',*,*,#471,.F.);
#638=ORIENTED_EDGE('',*,*,#489,.T.);
#639=ORIENTED_EDGE('',*,*,#490,.F.);
#640=ORIENTED_EDGE('',*,*,#491,.T.);
#641=ORIENTED_EDGE('',*,*,#492,.F.);
#642=ORIENTED_EDGE('',*,*,#493,.F.);
#643=ORIENTED_EDGE('',*,*,#494,.F.);
#644=ORIENTED_EDGE('',*,*,#495,.F.);
#645=ORIENTED_EDGE('',*,*,#496,.F.);
#646=ORIENTED_EDGE('',*,*,#497,.T.);
#647=ORIENTED_EDGE('',*,*,#498,.F.);
#648=ORIENTED_EDGE('',*,*,#499,.T.);
#649=ORIENTED_EDGE('',*,*,#500,.F.);
#650=ORIENTED_EDGE('',*,*,#483,.F.);
#651=ORIENTED_EDGE('',*,*,#499,.F.);
#652=ORIENTED_EDGE('',*,*,#501,.F.);
#653=ORIENTED_EDGE('',*,*,#502,.F.);
#654=ORIENTED_EDGE('',*,*,#503,.F.);
#655=ORIENTED_EDGE('',*,*,#504,.F.);
#656=ORIENTED_EDGE('',*,*,#505,.F.);
#657=ORIENTED_EDGE('',*,*,#506,.F.);
#658=ORIENTED_EDGE('',*,*,#507,.F.);
#659=ORIENTED_EDGE('',*,*,#508,.F.);
#660=ORIENTED_EDGE('',*,*,#489,.F.);
#661=ORIENTED_EDGE('',*,*,#488,.F.);
#662=ORIENTED_EDGE('',*,*,#509,.F.);
#663=ORIENTED_EDGE('',*,*,#494,.T.);
#664=ORIENTED_EDGE('',*,*,#510,.T.);
#665=ORIENTED_EDGE('',*,*,#511,.T.);
#666=ORIENTED_EDGE('',*,*,#511,.F.);
#667=ORIENTED_EDGE('',*,*,#512,.F.);
#668=ORIENTED_EDGE('',*,*,#513,.T.);
#669=ORIENTED_EDGE('',*,*,#514,.F.);
#670=ORIENTED_EDGE('',*,*,#515,.F.);
#671=ORIENTED_EDGE('',*,*,#516,.F.);
#672=ORIENTED_EDGE('',*,*,#517,.T.);
#673=ORIENTED_EDGE('',*,*,#518,.T.);
#674=ORIENTED_EDGE('',*,*,#519,.T.);
#675=ORIENTED_EDGE('',*,*,#520,.T.);
#676=ORIENTED_EDGE('',*,*,#521,.T.);
#677=ORIENTED_EDGE('',*,*,#522,.T.);
#678=ORIENTED_EDGE('',*,*,#523,.T.);
#679=ORIENTED_EDGE('',*,*,#524,.T.);
#680=ORIENTED_EDGE('',*,*,#521,.F.);
#681=ORIENTED_EDGE('',*,*,#525,.T.);
#682=ORIENTED_EDGE('',*,*,#526,.T.);
#683=ORIENTED_EDGE('',*,*,#527,.T.);
#684=ORIENTED_EDGE('',*,*,#523,.F.);
#685=ORIENTED_EDGE('',*,*,#528,.T.);
#686=ORIENTED_EDGE('',*,*,#529,.T.);
#687=ORIENTED_EDGE('',*,*,#530,.T.);
#688=ORIENTED_EDGE('',*,*,#526,.F.);
#689=ORIENTED_EDGE('',*,*,#531,.T.);
#690=ORIENTED_EDGE('',*,*,#532,.T.);
#691=ORIENTED_EDGE('',*,*,#529,.F.);
#692=ORIENTED_EDGE('',*,*,#533,.T.);
#693=ORIENTED_EDGE('',*,*,#492,.T.);
#694=ORIENTED_EDGE('',*,*,#533,.F.);
#695=ORIENTED_EDGE('',*,*,#531,.F.);
#696=ORIENTED_EDGE('',*,*,#528,.F.);
#697=ORIENTED_EDGE('',*,*,#534,.F.);
#698=ORIENTED_EDGE('',*,*,#512,.T.);
#699=ORIENTED_EDGE('',*,*,#510,.F.);
#700=ORIENTED_EDGE('',*,*,#493,.T.);
#701=ORIENTED_EDGE('',*,*,#525,.F.);
#702=ORIENTED_EDGE('',*,*,#535,.T.);
#703=ORIENTED_EDGE('',*,*,#513,.F.);
#704=ORIENTED_EDGE('',*,*,#534,.T.);
#705=ORIENTED_EDGE('',*,*,#520,.F.);
#706=ORIENTED_EDGE('',*,*,#536,.F.);
#707=ORIENTED_EDGE('',*,*,#514,.T.);
#708=ORIENTED_EDGE('',*,*,#535,.F.);
#709=ORIENTED_EDGE('',*,*,#519,.F.);
#710=ORIENTED_EDGE('',*,*,#537,.F.);
#711=ORIENTED_EDGE('',*,*,#538,.F.);
#712=ORIENTED_EDGE('',*,*,#506,.T.);
#713=ORIENTED_EDGE('',*,*,#539,.F.);
#714=ORIENTED_EDGE('',*,*,#540,.T.);
#715=ORIENTED_EDGE('',*,*,#541,.F.);
#716=ORIENTED_EDGE('',*,*,#542,.F.);
#717=ORIENTED_EDGE('',*,*,#515,.T.);
#718=ORIENTED_EDGE('',*,*,#536,.T.);
#719=ORIENTED_EDGE('',*,*,#541,.T.);
#720=ORIENTED_EDGE('',*,*,#543,.T.);
#721=ORIENTED_EDGE('',*,*,#544,.T.);
#722=ORIENTED_EDGE('',*,*,#545,.T.);
#723=ORIENTED_EDGE('',*,*,#546,.T.);
#724=ORIENTED_EDGE('',*,*,#547,.T.);
#725=ORIENTED_EDGE('',*,*,#544,.F.);
#726=ORIENTED_EDGE('',*,*,#548,.T.);
#727=ORIENTED_EDGE('',*,*,#549,.T.);
#728=ORIENTED_EDGE('',*,*,#550,.T.);
#729=ORIENTED_EDGE('',*,*,#546,.F.);
#730=ORIENTED_EDGE('',*,*,#551,.T.);
#731=ORIENTED_EDGE('',*,*,#552,.T.);
#732=ORIENTED_EDGE('',*,*,#553,.T.);
#733=ORIENTED_EDGE('',*,*,#549,.F.);
#734=ORIENTED_EDGE('',*,*,#554,.T.);
#735=ORIENTED_EDGE('',*,*,#555,.T.);
#736=ORIENTED_EDGE('',*,*,#552,.F.);
#737=ORIENTED_EDGE('',*,*,#556,.T.);
#738=ORIENTED_EDGE('',*,*,#496,.T.);
#739=ORIENTED_EDGE('',*,*,#556,.F.);
#740=ORIENTED_EDGE('',*,*,#557,.F.);
#741=ORIENTED_EDGE('',*,*,#558,.F.);
#742=ORIENTED_EDGE('',*,*,#497,.F.);
#743=ORIENTED_EDGE('',*,*,#554,.F.);
#744=ORIENTED_EDGE('',*,*,#559,.T.);
#745=ORIENTED_EDGE('',*,*,#560,.F.);
#746=ORIENTED_EDGE('',*,*,#557,.T.);
#747=ORIENTED_EDGE('',*,*,#551,.F.);
#748=ORIENTED_EDGE('',*,*,#548,.F.);
#749=ORIENTED_EDGE('',*,*,#543,.F.);
#750=ORIENTED_EDGE('',*,*,#540,.F.);
#751=ORIENTED_EDGE('',*,*,#561,.F.);
#752=ORIENTED_EDGE('',*,*,#562,.F.);
#753=ORIENTED_EDGE('',*,*,#559,.F.);
#754=ORIENTED_EDGE('',*,*,#545,.F.);
#755=ORIENTED_EDGE('',*,*,#563,.F.);
#756=ORIENTED_EDGE('',*,*,#516,.T.);
#757=ORIENTED_EDGE('',*,*,#542,.T.);
#758=ORIENTED_EDGE('',*,*,#564,.T.);
#759=ORIENTED_EDGE('',*,*,#565,.T.);
#760=ORIENTED_EDGE('',*,*,#566,.T.);
#761=ORIENTED_EDGE('',*,*,#567,.T.);
#762=ORIENTED_EDGE('',*,*,#568,.T.);
#763=ORIENTED_EDGE('',*,*,#569,.T.);
#764=ORIENTED_EDGE('',*,*,#565,.F.);
#765=ORIENTED_EDGE('',*,*,#570,.T.);
#766=ORIENTED_EDGE('',*,*,#571,.T.);
#767=ORIENTED_EDGE('',*,*,#572,.T.);
#768=ORIENTED_EDGE('',*,*,#568,.F.);
#769=ORIENTED_EDGE('',*,*,#573,.T.);
#770=ORIENTED_EDGE('',*,*,#574,.T.);
#771=ORIENTED_EDGE('',*,*,#567,.F.);
#772=ORIENTED_EDGE('',*,*,#490,.T.);
#773=ORIENTED_EDGE('',*,*,#575,.T.);
#774=ORIENTED_EDGE('',*,*,#508,.T.);
#775=ORIENTED_EDGE('',*,*,#576,.T.);
#776=ORIENTED_EDGE('',*,*,#577,.T.);
#777=ORIENTED_EDGE('',*,*,#575,.F.);
#778=ORIENTED_EDGE('',*,*,#532,.F.);
#779=ORIENTED_EDGE('',*,*,#491,.F.);
#780=ORIENTED_EDGE('',*,*,#566,.F.);
#781=ORIENTED_EDGE('',*,*,#578,.F.);
#782=ORIENTED_EDGE('',*,*,#530,.F.);
#783=ORIENTED_EDGE('',*,*,#578,.T.);
#784=ORIENTED_EDGE('',*,*,#569,.F.);
#785=ORIENTED_EDGE('',*,*,#579,.T.);
#786=ORIENTED_EDGE('',*,*,#527,.F.);
#787=ORIENTED_EDGE('',*,*,#579,.F.);
#788=ORIENTED_EDGE('',*,*,#572,.F.);
#789=ORIENTED_EDGE('',*,*,#580,.F.);
#790=ORIENTED_EDGE('',*,*,#537,.T.);
#791=ORIENTED_EDGE('',*,*,#522,.F.);
#792=ORIENTED_EDGE('',*,*,#524,.F.);
#793=ORIENTED_EDGE('',*,*,#581,.T.);
#794=ORIENTED_EDGE('',*,*,#582,.T.);
#795=ORIENTED_EDGE('',*,*,#583,.T.);
#796=ORIENTED_EDGE('',*,*,#562,.T.);
#797=ORIENTED_EDGE('',*,*,#584,.T.);
#798=ORIENTED_EDGE('',*,*,#560,.T.);
#799=ORIENTED_EDGE('',*,*,#583,.F.);
#800=ORIENTED_EDGE('',*,*,#585,.T.);
#801=ORIENTED_EDGE('',*,*,#558,.T.);
#802=ORIENTED_EDGE('',*,*,#584,.F.);
#803=ORIENTED_EDGE('',*,*,#586,.T.);
#804=ORIENTED_EDGE('',*,*,#587,.T.);
#805=ORIENTED_EDGE('',*,*,#498,.T.);
#806=ORIENTED_EDGE('',*,*,#587,.F.);
#807=ORIENTED_EDGE('',*,*,#588,.T.);
#808=ORIENTED_EDGE('',*,*,#589,.T.);
#809=ORIENTED_EDGE('',*,*,#590,.T.);
#810=ORIENTED_EDGE('',*,*,#503,.T.);
#811=ORIENTED_EDGE('',*,*,#591,.T.);
#812=ORIENTED_EDGE('',*,*,#592,.T.);
#813=ORIENTED_EDGE('',*,*,#593,.T.);
#814=ORIENTED_EDGE('',*,*,#594,.T.);
#815=ORIENTED_EDGE('',*,*,#591,.F.);
#816=ORIENTED_EDGE('',*,*,#502,.T.);
#817=ORIENTED_EDGE('',*,*,#595,.T.);
#818=ORIENTED_EDGE('',*,*,#593,.F.);
#819=ORIENTED_EDGE('',*,*,#501,.T.);
#820=ORIENTED_EDGE('',*,*,#589,.F.);
#821=ORIENTED_EDGE('',*,*,#581,.F.);
#822=ORIENTED_EDGE('',*,*,#561,.T.);
#823=ORIENTED_EDGE('',*,*,#539,.T.);
#824=ORIENTED_EDGE('',*,*,#505,.T.);
#825=ORIENTED_EDGE('',*,*,#596,.T.);
#826=ORIENTED_EDGE('',*,*,#597,.T.);
#827=ORIENTED_EDGE('',*,*,#598,.T.);
#828=ORIENTED_EDGE('',*,*,#547,.F.);
#829=ORIENTED_EDGE('',*,*,#599,.T.);
#830=ORIENTED_EDGE('',*,*,#517,.F.);
#831=ORIENTED_EDGE('',*,*,#563,.T.);
#832=ORIENTED_EDGE('',*,*,#594,.F.);
#833=ORIENTED_EDGE('',*,*,#600,.T.);
#834=ORIENTED_EDGE('',*,*,#601,.T.);
#835=ORIENTED_EDGE('',*,*,#602,.T.);
#836=ORIENTED_EDGE('',*,*,#592,.F.);
#837=ORIENTED_EDGE('',*,*,#602,.F.);
#838=ORIENTED_EDGE('',*,*,#603,.T.);
#839=ORIENTED_EDGE('',*,*,#604,.T.);
#840=ORIENTED_EDGE('',*,*,#576,.F.);
#841=ORIENTED_EDGE('',*,*,#507,.T.);
#842=ORIENTED_EDGE('',*,*,#538,.T.);
#843=ORIENTED_EDGE('',*,*,#580,.T.);
#844=ORIENTED_EDGE('',*,*,#571,.F.);
#845=ORIENTED_EDGE('',*,*,#605,.T.);
#846=ORIENTED_EDGE('',*,*,#500,.T.);
#847=ORIENTED_EDGE('',*,*,#487,.F.);
#848=ORIENTED_EDGE('',*,*,#606,.F.);
#849=ORIENTED_EDGE('',*,*,#607,.F.);
#850=ORIENTED_EDGE('',*,*,#608,.F.);
#851=ORIENTED_EDGE('',*,*,#484,.F.);
#852=ORIENTED_EDGE('',*,*,#485,.F.);
#853=ORIENTED_EDGE('',*,*,#608,.T.);
#854=ORIENTED_EDGE('',*,*,#609,.T.);
#855=ORIENTED_EDGE('',*,*,#481,.F.);
#856=ORIENTED_EDGE('',*,*,#478,.F.);
#857=ORIENTED_EDGE('',*,*,#482,.F.);
#858=ORIENTED_EDGE('',*,*,#609,.F.);
#859=ORIENTED_EDGE('',*,*,#607,.T.);
#860=ORIENTED_EDGE('',*,*,#610,.T.);
#861=ORIENTED_EDGE('',*,*,#473,.F.);
#862=ORIENTED_EDGE('',*,*,#555,.F.);
#863=ORIENTED_EDGE('',*,*,#495,.T.);
#864=ORIENTED_EDGE('',*,*,#509,.T.);
#865=ORIENTED_EDGE('',*,*,#518,.F.);
#866=ORIENTED_EDGE('',*,*,#599,.F.);
#867=ORIENTED_EDGE('',*,*,#550,.F.);
#868=ORIENTED_EDGE('',*,*,#553,.F.);
#869=ORIENTED_EDGE('',*,*,#474,.F.);
#870=ORIENTED_EDGE('',*,*,#610,.F.);
#871=ORIENTED_EDGE('',*,*,#606,.T.);
#872=ORIENTED_EDGE('',*,*,#486,.F.);
#873=ORIENTED_EDGE('',*,*,#597,.F.);
#874=ORIENTED_EDGE('',*,*,#611,.F.);
#875=ORIENTED_EDGE('',*,*,#603,.F.);
#876=ORIENTED_EDGE('',*,*,#601,.F.);
#877=ORIENTED_EDGE('',*,*,#612,.F.);
#878=ORIENTED_EDGE('',*,*,#582,.F.);
#879=ORIENTED_EDGE('',*,*,#598,.F.);
#880=ORIENTED_EDGE('',*,*,#612,.T.);
#881=ORIENTED_EDGE('',*,*,#600,.F.);
#882=ORIENTED_EDGE('',*,*,#595,.F.);
#883=ORIENTED_EDGE('',*,*,#588,.F.);
#884=ORIENTED_EDGE('',*,*,#586,.F.);
#885=ORIENTED_EDGE('',*,*,#585,.F.);
#886=ORIENTED_EDGE('',*,*,#590,.F.);
#887=ORIENTED_EDGE('',*,*,#604,.F.);
#888=ORIENTED_EDGE('',*,*,#611,.T.);
#889=ORIENTED_EDGE('',*,*,#596,.F.);
#890=ORIENTED_EDGE('',*,*,#504,.T.);
#891=ORIENTED_EDGE('',*,*,#577,.F.);
#892=ORIENTED_EDGE('',*,*,#605,.F.);
#893=ORIENTED_EDGE('',*,*,#573,.F.);
#894=ORIENTED_EDGE('',*,*,#570,.F.);
#895=ORIENTED_EDGE('',*,*,#564,.F.);
#896=ORIENTED_EDGE('',*,*,#574,.F.);
#897=CYLINDRICAL_SURFACE('',#994,0.833333333333333);
#898=CYLINDRICAL_SURFACE('',#998,0.833333333333333);
#899=CYLINDRICAL_SURFACE('',#1000,0.833333333333333);
#900=CYLINDRICAL_SURFACE('',#1003,0.833333333333333);
#901=CYLINDRICAL_SURFACE('',#1005,0.833333333333333);
#902=CYLINDRICAL_SURFACE('',#1013,0.833333333333333);
#903=CYLINDRICAL_SURFACE('',#1020,0.833333333333333);
#904=CYLINDRICAL_SURFACE('',#1026,0.833333333333333);
#905=CYLINDRICAL_SURFACE('',#1032,0.833333333333333);
#906=CYLINDRICAL_SURFACE('',#1034,2.5);
#907=CYLINDRICAL_SURFACE('',#1036,5.);
#908=CYLINDRICAL_SURFACE('',#1039,0.833333333333333);
#909=CYLINDRICAL_SURFACE('',#1045,0.833333333333333);
#910=CYLINDRICAL_SURFACE('',#1051,0.833333333333333);
#911=CYLINDRICAL_SURFACE('',#1053,10.);
#912=CYLINDRICAL_SURFACE('',#1057,0.833333333333333);
#913=CYLINDRICAL_SURFACE('',#1064,0.833333333333333);
#914=CYLINDRICAL_SURFACE('',#1066,0.833333333333333);
#915=CYLINDRICAL_SURFACE('',#1068,0.833333333333333);
#916=CYLINDRICAL_SURFACE('',#1071,10.);
#917=CYLINDRICAL_SURFACE('',#1073,0.833333333333333);
#918=CYLINDRICAL_SURFACE('',#1079,0.833333333333333);
#919=CYLINDRICAL_SURFACE('',#1081,0.833333333333333);
#920=CYLINDRICAL_SURFACE('',#1083,0.833333333333333);
#921=CYLINDRICAL_SURFACE('',#1089,0.833333333333333);
#922=CYLINDRICAL_SURFACE('',#1091,2.5);
#923=CYLINDRICAL_SURFACE('',#1092,2.5);
#924=ADVANCED_FACE('',(#89),#897,.T.);
#925=ADVANCED_FACE('',(#90),#898,.T.);
#926=ADVANCED_FACE('',(#91),#899,.T.);
#927=ADVANCED_FACE('',(#92),#900,.T.);
#928=ADVANCED_FACE('',(#93),#901,.T.);
#929=ADVANCED_FACE('',(#94),#24,.T.);
#930=ADVANCED_FACE('',(#95),#25,.T.);
#931=ADVANCED_FACE('',(#96),#902,.T.);
#932=ADVANCED_FACE('',(#97),#26,.T.);
#933=ADVANCED_FACE('',(#98),#903,.T.);
#934=ADVANCED_FACE('',(#99),#15,.T.);
#935=ADVANCED_FACE('',(#100),#904,.T.);
#936=ADVANCED_FACE('',(#101),#16,.T.);
#937=ADVANCED_FACE('',(#102),#905,.T.);
#938=ADVANCED_FACE('',(#103),#27,.T.);
#939=ADVANCED_FACE('',(#104),#906,.F.);
#940=ADVANCED_FACE('',(#105),#28,.T.);
#941=ADVANCED_FACE('',(#106),#907,.F.);
#942=ADVANCED_FACE('',(#107),#908,.T.);
#943=ADVANCED_FACE('',(#108),#17,.T.);
#944=ADVANCED_FACE('',(#109),#909,.T.);
#945=ADVANCED_FACE('',(#110),#18,.T.);
#946=ADVANCED_FACE('',(#111),#910,.T.);
#947=ADVANCED_FACE('',(#112),#29,.T.);
#948=ADVANCED_FACE('',(#113),#911,.T.);
#949=ADVANCED_FACE('',(#114),#30,.T.);
#950=ADVANCED_FACE('',(#115),#31,.T.);
#951=ADVANCED_FACE('',(#116),#912,.T.);
#952=ADVANCED_FACE('',(#117),#19,.T.);
#953=ADVANCED_FACE('',(#118),#913,.T.);
#954=ADVANCED_FACE('',(#119),#914,.T.);
#955=ADVANCED_FACE('',(#120),#915,.T.);
#956=ADVANCED_FACE('',(#121),#32,.T.);
#957=ADVANCED_FACE('',(#122),#916,.T.);
#958=ADVANCED_FACE('',(#123),#33,.T.);
#959=ADVANCED_FACE('',(#124),#917,.T.);
#960=ADVANCED_FACE('',(#125),#20,.T.);
#961=ADVANCED_FACE('',(#126),#918,.T.);
#962=ADVANCED_FACE('',(#127),#919,.T.);
#963=ADVANCED_FACE('',(#128),#920,.T.);
#964=ADVANCED_FACE('',(#129),#21,.T.);
#965=ADVANCED_FACE('',(#130),#921,.T.);
#966=ADVANCED_FACE('',(#131),#34,.F.);
#967=ADVANCED_FACE('',(#132),#922,.F.);
#968=ADVANCED_FACE('',(#133),#923,.F.);
#969=ADVANCED_FACE('',(#134),#35,.T.);
#970=ADVANCED_FACE('',(#135),#36,.F.);
#971=ADVANCED_FACE('',(#136),#37,.T.);
#972=ADVANCED_FACE('',(#137),#38,.T.);
#973=ADVANCED_FACE('',(#138),#39,.T.);
#974=ADVANCED_FACE('',(#139),#40,.T.);
#975=ADVANCED_FACE('',(#140),#41,.T.);
#976=ADVANCED_FACE('',(#141),#42,.F.);
#977=ADVANCED_FACE('',(#142),#43,.F.);
#978=ADVANCED_FACE('',(#143),#44,.T.);
#979=ADVANCED_FACE('',(#144),#45,.T.);
#980=CLOSED_SHELL('',(#924,#925,#926,#927,#928,#929,#930,#931,#932,#933,
#934,#935,#936,#937,#938,#939,#940,#941,#942,#943,#944,#945,#946,#947,#948,
#949,#950,#951,#952,#953,#954,#955,#956,#957,#958,#959,#960,#961,#962,#963,
#964,#965,#966,#967,#968,#969,#970,#971,#972,#973,#974,#975,#976,#977,#978,
#979));
#981=DERIVED_UNIT_ELEMENT(#983,1.);
#982=DERIVED_UNIT_ELEMENT(#1724,-3.);
#983=(
MASS_UNIT()
NAMED_UNIT(*)
SI_UNIT(.KILO.,.GRAM.)
);
#984=DERIVED_UNIT((#981,#982));
#985=MEASURE_REPRESENTATION_ITEM('density measure',
POSITIVE_RATIO_MEASURE(7850.),#984);
#986=PROPERTY_DEFINITION_REPRESENTATION(#991,#988);
#987=PROPERTY_DEFINITION_REPRESENTATION(#992,#989);
#988=REPRESENTATION('material name',(#990),#1721);
#989=REPRESENTATION('density',(#985),#1721);
#990=DESCRIPTIVE_REPRESENTATION_ITEM('Acier','Acier');
#991=PROPERTY_DEFINITION('material property','material name',#1731);
#992=PROPERTY_DEFINITION('material property','density of part',#1731);
#993=AXIS2_PLACEMENT_3D('',#1414,#1105,#1106);
#994=AXIS2_PLACEMENT_3D('',#1415,#1107,#1108);
#995=AXIS2_PLACEMENT_3D('',#1420,#1110,#1111);
#996=AXIS2_PLACEMENT_3D('',#1422,#1112,#1113);
#997=AXIS2_PLACEMENT_3D('',#1425,#1115,#1116);
#998=AXIS2_PLACEMENT_3D('',#1426,#1117,#1118);
#999=AXIS2_PLACEMENT_3D('',#1430,#1120,#1121);
#1000=AXIS2_PLACEMENT_3D('',#1432,#1123,#1124);
#1001=AXIS2_PLACEMENT_3D('',#1436,#1126,#1127);
#1002=AXIS2_PLACEMENT_3D('',#1439,#1129,#1130);
#1003=AXIS2_PLACEMENT_3D('',#1440,#1131,#1132);
#1004=AXIS2_PLACEMENT_3D('',#1444,#1134,#1135);
#1005=AXIS2_PLACEMENT_3D('',#1446,#1137,#1138);
#1006=AXIS2_PLACEMENT_3D('',#1450,#1140,#1141);
#1007=AXIS2_PLACEMENT_3D('',#1452,#1143,#1144);
#1008=AXIS2_PLACEMENT_3D('',#1460,#1148,#1149);
#1009=AXIS2_PLACEMENT_3D('',#1468,#1153,#1154);
#1010=AXIS2_PLACEMENT_3D('',#1474,#1158,#1159);
#1011=AXIS2_PLACEMENT_3D('',#1479,#1162,#1163);
#1012=AXIS2_PLACEMENT_3D('',#1487,#1167,#1168);
#1013=AXIS2_PLACEMENT_3D('',#1491,#1171,#1172);
#1014=AXIS2_PLACEMENT_3D('',#1493,#1173,#1174);
#1015=AXIS2_PLACEMENT_3D('',#1495,#1175,#1176);
#1016=AXIS2_PLACEMENT_3D('',#1497,#1178,#1179);
#1017=AXIS2_PLACEMENT_3D('',#1501,#1181,#1182);
#1018=AXIS2_PLACEMENT_3D('',#1505,#1184,#1185);
#1019=AXIS2_PLACEMENT_3D('',#1509,#1187,#1188);
#1020=AXIS2_PLACEMENT_3D('',#1511,#1190,#1191);
#1021=AXIS2_PLACEMENT_3D('',#1527,#1193,#1194);
#1022=AXIS2_PLACEMENT_3D('',#1529,#1196,#1197);
#1023=AXIS2_PLACEMENT_3D('',#1532,#1198,#1199);
#1024=AXIS2_PLACEMENT_3D('',#1533,#1200,#1201);
#1025=AXIS2_PLACEMENT_3D('',#1534,#1202,#1203);
#1026=AXIS2_PLACEMENT_3D('',#1535,#1204,#1205);
#1027=AXIS2_PLACEMENT_3D('',#1538,#1206,#1207);
#1028=AXIS2_PLACEMENT_3D('',#1541,#1210,#1211);
#1029=AXIS2_PLACEMENT_3D('',#1544,#1212,#1213);
#1030=AXIS2_PLACEMENT_3D('',#1545,#1214,#1215);
#1031=AXIS2_PLACEMENT_3D('',#1546,#1216,#1217);
#1032=AXIS2_PLACEMENT_3D('',#1547,#1218,#1219);
#1033=AXIS2_PLACEMENT_3D('',#1550,#1222,#1223);
#1034=AXIS2_PLACEMENT_3D('',#1552,#1225,#1226);
#1035=AXIS2_PLACEMENT_3D('',#1554,#1228,#1229);
#1036=AXIS2_PLACEMENT_3D('',#1556,#1231,#1232);
#1037=AXIS2_PLACEMENT_3D('',#1558,#1233,#1234);
#1038=AXIS2_PLACEMENT_3D('',#1563,#1237,#1238);
#1039=AXIS2_PLACEMENT_3D('',#1576,#1240,#1241);
#1040=AXIS2_PLACEMENT_3D('',#1580,#1243,#1244);
#1041=AXIS2_PLACEMENT_3D('',#1582,#1246,#1247);
#1042=AXIS2_PLACEMENT_3D('',#1585,#1248,#1249);
#1043=AXIS2_PLACEMENT_3D('',#1586,#1250,#1251);
#1044=AXIS2_PLACEMENT_3D('',#1587,#1252,#1253);
#1045=AXIS2_PLACEMENT_3D('',#1588,#1254,#1255);
#1046=AXIS2_PLACEMENT_3D('',#1591,#1256,#1257);
#1047=AXIS2_PLACEMENT_3D('',#1594,#1260,#1261);
#1048=AXIS2_PLACEMENT_3D('',#1597,#1262,#1263);
#1049=AXIS2_PLACEMENT_3D('',#1598,#1264,#1265);
#1050=AXIS2_PLACEMENT_3D('',#1599,#1266,#1267);
#1051=AXIS2_PLACEMENT_3D('',#1600,#1268,#1269);
#1052=AXIS2_PLACEMENT_3D('',#1603,#1272,#1273);
#1053=AXIS2_PLACEMENT_3D('',#1607,#1276,#1277);
#1054=AXIS2_PLACEMENT_3D('',#1610,#1279,#1280);
#1055=AXIS2_PLACEMENT_3D('',#1611,#1281,#1282);
#1056=AXIS2_PLACEMENT_3D('',#1615,#1285,#1286);
#1057=AXIS2_PLACEMENT_3D('',#1617,#1288,#1289);
#1058=AXIS2_PLACEMENT_3D('',#1622,#1291,#1292);
#1059=AXIS2_PLACEMENT_3D('',#1624,#1294,#1295);
#1060=AXIS2_PLACEMENT_3D('',#1625,#1296,#1297);
#1061=AXIS2_PLACEMENT_3D('',#1628,#1298,#1299);
#1062=AXIS2_PLACEMENT_3D('',#1629,#1300,#1301);
#1063=AXIS2_PLACEMENT_3D('',#1630,#1302,#1303);
#1064=AXIS2_PLACEMENT_3D('',#1631,#1304,#1305);
#1065=AXIS2_PLACEMENT_3D('',#1634,#1306,#1307);
#1066=AXIS2_PLACEMENT_3D('',#1637,#1310,#1311);
#1067=AXIS2_PLACEMENT_3D('',#1640,#1313,#1314);
#1068=AXIS2_PLACEMENT_3D('',#1641,#1315,#1316);
#1069=AXIS2_PLACEMENT_3D('',#1643,#1317,#1318);
#1070=AXIS2_PLACEMENT_3D('',#1645,#1320,#1321);
#1071=AXIS2_PLACEMENT_3D('',#1647,#1323,#1324);
#1072=AXIS2_PLACEMENT_3D('',#1649,#1326,#1327);
#1073=AXIS2_PLACEMENT_3D('',#1651,#1329,#1330);
#1074=AXIS2_PLACEMENT_3D('',#1653,#1331,#1332);
#1075=AXIS2_PLACEMENT_3D('',#1656,#1334,#1335);
#1076=AXIS2_PLACEMENT_3D('',#1657,#1336,#1337);
#1077=AXIS2_PLACEMENT_3D('',#1659,#1338,#1339);
#1078=AXIS2_PLACEMENT_3D('',#1660,#1340,#1341);
#1079=AXIS2_PLACEMENT_3D('',#1661,#1342,#1343);
#1080=AXIS2_PLACEMENT_3D('',#1664,#1345,#1346);
#1081=AXIS2_PLACEMENT_3D('',#1665,#1347,#1348);
#1082=AXIS2_PLACEMENT_3D('',#1668,#1350,#1351);
#1083=AXIS2_PLACEMENT_3D('',#1669,#1352,#1353);
#1084=AXIS2_PLACEMENT_3D('',#1671,#1354,#1355);
#1085=AXIS2_PLACEMENT_3D('',#1673,#1356,#1357);
#1086=AXIS2_PLACEMENT_3D('',#1675,#1359,#1360);
#1087=AXIS2_PLACEMENT_3D('',#1677,#1361,#1362);
#1088=AXIS2_PLACEMENT_3D('',#1678,#1363,#1364);
#1089=AXIS2_PLACEMENT_3D('',#1679,#1365,#1366);
#1090=AXIS2_PLACEMENT_3D('',#1681,#1368,#1369);
#1091=AXIS2_PLACEMENT_3D('',#1687,#1373,#1374);
#1092=AXIS2_PLACEMENT_3D('',#1689,#1376,#1377);
#1093=AXIS2_PLACEMENT_3D('',#1693,#1379,#1380);
#1094=AXIS2_PLACEMENT_3D('',#1695,#1382,#1383);
#1095=AXIS2_PLACEMENT_3D('',#1699,#1386,#1387);
#1096=AXIS2_PLACEMENT_3D('',#1701,#1389,#1390);
#1097=AXIS2_PLACEMENT_3D('',#1707,#1394,#1395);
#1098=AXIS2_PLACEMENT_3D('',#1709,#1397,#1398);
#1099=AXIS2_PLACEMENT_3D('',#1711,#1400,#1401);
#1100=AXIS2_PLACEMENT_3D('',#1712,#1402,#1403);
#1101=AXIS2_PLACEMENT_3D('',#1713,#1404,#1405);
#1102=AXIS2_PLACEMENT_3D('',#1716,#1408,#1409);
#1103=AXIS2_PLACEMENT_3D('',#1717,#1410,#1411);
#1104=AXIS2_PLACEMENT_3D('',#1718,#1412,#1413);
#1105=DIRECTION('axis',(0.,0.,1.));
#1106=DIRECTION('refdir',(1.,0.,0.));
#1107=DIRECTION('center_axis',(-0.707106781186548,0.707106781186548,0.));
#1108=DIRECTION('ref_axis',(0.500000000000003,0.500000000000003,-0.707106781186544));
#1109=DIRECTION('',(0.707106781186548,-0.707106781186548,0.));
#1110=DIRECTION('center_axis',(-0.499999999999998,0.500000000000001,0.707106781186548));
#1111=DIRECTION('ref_axis',(0.500000000000002,-0.499999999999999,0.707106781186547));
#1112=DIRECTION('center_axis',(0.,1.,-2.84672570416707E-17));
#1113=DIRECTION('ref_axis',(1.,0.,5.88784672006416E-17));
#1114=DIRECTION('',(-0.707106781186548,0.707106781186548,0.));
#1115=DIRECTION('center_axis',(0.923879532511281,-0.382683432365104,0.));
#1116=DIRECTION('ref_axis',(-0.382683432365104,-0.923879532511281,0.));
#1117=DIRECTION('center_axis',(-2.84672570416707E-17,2.84672570416707E-17,
1.));
#1118=DIRECTION('ref_axis',(0.382683432365084,0.923879532511289,0.));
#1119=DIRECTION('',(2.84672570416707E-17,-2.84672570416707E-17,-1.));
#1120=DIRECTION('center_axis',(0.499999999999999,-0.500000000000003,0.707106781186547));
#1121=DIRECTION('ref_axis',(0.499999999999998,-0.500000000000001,-0.707106781186549));
#1122=DIRECTION('',(-2.84672570416707E-17,2.84672570416707E-17,1.));
#1123=DIRECTION('center_axis',(0.707106781186548,-0.707106781186548,0.));
#1124=DIRECTION('ref_axis',(0.499999999999993,0.500000000000001,0.707106781186552));
#1125=DIRECTION('',(-0.707106781186548,0.707106781186548,0.));
#1126=DIRECTION('center_axis',(0.923879532511289,-0.382683432365085,0.));
#1127=DIRECTION('ref_axis',(0.382683432365085,0.923879532511289,0.));
#1128=DIRECTION('',(0.707106781186548,-0.707106781186548,0.));
#1129=DIRECTION('center_axis',(0.,1.,-2.84672570416707E-17));
#1130=DIRECTION('ref_axis',(1.,0.,-1.76635401601925E-16));
#1131=DIRECTION('center_axis',(1.,0.,0.));
#1132=DIRECTION('ref_axis',(0.,0.707106781186548,0.707106781186548));
#1133=DIRECTION('',(-1.,0.,0.));
#1134=DIRECTION('center_axis',(-1.,0.,0.));
#1135=DIRECTION('ref_axis',(0.,0.707106781186548,0.707106781186548));
#1136=DIRECTION('',(1.,0.,0.));
#1137=DIRECTION('center_axis',(1.,0.,0.));
#1138=DIRECTION('ref_axis',(0.,0.70710678118654,-0.707106781186555));
#1139=DIRECTION('',(-1.,0.,0.));
#1140=DIRECTION('center_axis',(-1.,0.,0.));
#1141=DIRECTION('ref_axis',(0.,0.70710678118654,-0.707106781186555));
#1142=DIRECTION('',(1.,0.,0.));
#1143=DIRECTION('center_axis',(0.707106781186548,0.707106781186548,0.));
#1144=DIRECTION('ref_axis',(0.,0.,-1.));
#1145=DIRECTION('',(0.,0.,1.));
#1146=DIRECTION('',(-0.707106781186548,0.707106781186548,0.));
#1147=DIRECTION('',(0.,0.,-1.));
#1148=DIRECTION('center_axis',(-0.707106781186548,-0.707106781186548,0.));
#1149=DIRECTION('ref_axis',(0.707106781186547,-0.707106781186547,-5.88784672006415E-17));
#1150=DIRECTION('',(0.707106781186548,-0.707106781186548,0.));
#1151=DIRECTION('',(0.,0.,1.));
#1152=DIRECTION('',(-0.707106781186548,0.707106781186548,0.));
#1153=DIRECTION('center_axis',(-0.707106781186548,-0.707106781186548,0.));
#1154=DIRECTION('ref_axis',(0.707106781186548,-0.707106781186548,5.88784672006416E-17));
#1155=DIRECTION('',(0.,0.,-1.));
#1156=DIRECTION('',(0.707106781186548,-0.707106781186548,0.));
#1157=DIRECTION('',(1.77635683940025E-15,-1.77635683940025E-15,1.));
#1158=DIRECTION('center_axis',(0.,1.,0.));
#1159=DIRECTION('ref_axis',(0.,0.,1.));
#1160=DIRECTION('',(0.,0.,1.));
#1161=DIRECTION('',(1.,0.,0.));
#1162=DIRECTION('center_axis',(0.,1.,0.));
#1163=DIRECTION('ref_axis',(-0.707106781186547,0.,0.707106781186548));
#1164=DIRECTION('',(0.,0.,1.));
#1165=DIRECTION('',(1.,0.,0.));
#1166=DIRECTION('',(0.,0.,-1.));
#1167=DIRECTION('center_axis',(0.,1.,0.));
#1168=DIRECTION('ref_axis',(0.707106781186547,0.,0.707106781186547));
#1169=DIRECTION('',(0.,0.,-1.));
#1170=DIRECTION('',(-1.,0.,0.));
#1171=DIRECTION('center_axis',(0.,0.,-1.));
#1172=DIRECTION('ref_axis',(0.923879532511297,-0.382683432365065,0.));
#1173=DIRECTION('center_axis',(0.,0.,-1.));
#1174=DIRECTION('ref_axis',(0.923879532511297,-0.382683432365065,0.));
#1175=DIRECTION('center_axis',(0.,0.,1.));
#1176=DIRECTION('ref_axis',(0.923879532511297,-0.382683432365065,0.));
#1177=DIRECTION('',(0.,0.,-1.));
#1178=DIRECTION('center_axis',(0.,-1.,0.));
#1179=DIRECTION('ref_axis',(0.,0.,-1.));
#1180=DIRECTION('',(1.,0.,0.));
#1181=DIRECTION('center_axis',(0.,-1.,0.));
#1182=DIRECTION('ref_axis',(-0.707106781186547,0.,0.707106781186547));
#1183=DIRECTION('',(0.,0.,1.));
#1184=DIRECTION('center_axis',(0.,-1.,0.));
#1185=DIRECTION('ref_axis',(0.707106781186547,0.,-0.707106781186547));
#1186=DIRECTION('',(0.,0.,1.));
#1187=DIRECTION('center_axis',(0.,-1.,0.));
#1188=DIRECTION('ref_axis',(-0.707106781186547,0.,-0.707106781186547));
#1189=DIRECTION('',(1.,0.,0.));
#1190=DIRECTION('center_axis',(0.,0.,1.));
#1191=DIRECTION('ref_axis',(0.707106781186545,-0.70710678118655,0.));
#1192=DIRECTION('',(0.,0.,1.));
#1193=DIRECTION('center_axis',(0.,0.,-1.));
#1194=DIRECTION('ref_axis',(1.,0.,0.));
#1195=DIRECTION('',(0.,0.,-1.));
#1196=DIRECTION('center_axis',(0.,-1.,0.));
#1197=DIRECTION('ref_axis',(0.,0.,-1.));
#1198=DIRECTION('center_axis',(-1.,0.,0.));
#1199=DIRECTION('ref_axis',(0.,0.,-1.));
#1200=DIRECTION('center_axis',(0.,-1.,0.));
#1201=DIRECTION('ref_axis',(-0.707106781186548,0.,0.707106781186547));
#1202=DIRECTION('center_axis',(0.,1.,0.));
#1203=DIRECTION('ref_axis',(-0.707106781186548,0.,0.707106781186547));
#1204=DIRECTION('center_axis',(1.,0.,0.));
#1205=DIRECTION('ref_axis',(0.,-0.707106781186548,-0.707106781186548));
#1206=DIRECTION('center_axis',(-1.,0.,0.));
#1207=DIRECTION('ref_axis',(0.,0.,-1.));
#1208=DIRECTION('',(-1.,0.,0.));
#1209=DIRECTION('',(1.,0.,0.));
#1210=DIRECTION('center_axis',(0.,0.,1.));
#1211=DIRECTION('ref_axis',(1.,0.,0.));
#1212=DIRECTION('center_axis',(0.,-1.,0.));
#1213=DIRECTION('ref_axis',(0.,0.,-1.));
#1214=DIRECTION('center_axis',(0.,0.,-1.));
#1215=DIRECTION('ref_axis',(0.707106781186548,-0.707106781186547,0.));
#1216=DIRECTION('center_axis',(0.,0.,1.));
#1217=DIRECTION('ref_axis',(0.707106781186548,-0.707106781186547,0.));
#1218=DIRECTION('center_axis',(0.,1.,0.));
#1219=DIRECTION('ref_axis',(0.70710678118654,0.,-0.707106781186555));
#1220=DIRECTION('',(0.,-1.,0.));
#1221=DIRECTION('',(0.,1.,0.));
#1222=DIRECTION('center_axis',(0.,0.,-1.));
#1223=DIRECTION('ref_axis',(0.,1.,0.));
#1224=DIRECTION('',(0.,-1.,0.));
#1225=DIRECTION('center_axis',(0.,-1.,0.));
#1226=DIRECTION('ref_axis',(-0.707106781186547,0.,0.707106781186547));
#1227=DIRECTION('',(0.,1.,0.));
#1228=DIRECTION('center_axis',(1.,0.,0.));
#1229=DIRECTION('ref_axis',(0.,0.,-1.));
#1230=DIRECTION('',(0.,-1.,0.));
#1231=DIRECTION('center_axis',(0.,-1.,0.));
#1232=DIRECTION('ref_axis',(0.707106781186547,0.,0.707106781186547));
#1233=DIRECTION('center_axis',(0.,-1.,0.));
#1234=DIRECTION('ref_axis',(0.707106781186547,0.,0.707106781186547));
#1235=DIRECTION('',(0.,-1.,0.));
#1236=DIRECTION('',(0.,1.,0.));
#1237=DIRECTION('center_axis',(0.,-1.,0.));
#1238=DIRECTION('ref_axis',(0.707106781186547,0.,-0.707106781186547));
#1239=DIRECTION('',(0.,1.,0.));
#1240=DIRECTION('center_axis',(0.,0.,-1.));
#1241=DIRECTION('ref_axis',(0.707106781186545,-0.70710678118655,0.));
#1242=DIRECTION('',(0.,0.,-1.));
#1243=DIRECTION('center_axis',(0.,0.,1.));
#1244=DIRECTION('ref_axis',(0.,-1.,0.));
#1245=DIRECTION('',(0.,0.,1.));
#1246=DIRECTION('center_axis',(0.,-1.,0.));
#1247=DIRECTION('ref_axis',(0.,0.,-1.));
#1248=DIRECTION('center_axis',(-1.,0.,0.));
#1249=DIRECTION('ref_axis',(0.,-1.,0.));
#1250=DIRECTION('center_axis',(0.,1.,0.));
#1251=DIRECTION('ref_axis',(-0.707106781186548,0.,-0.707106781186547));
#1252=DIRECTION('center_axis',(0.,-1.,0.));
#1253=DIRECTION('ref_axis',(-0.707106781186548,0.,-0.707106781186547));
#1254=DIRECTION('center_axis',(1.,0.,0.));
#1255=DIRECTION('ref_axis',(0.,-0.707106781186548,0.707106781186548));
#1256=DIRECTION('center_axis',(-1.,0.,0.));
#1257=DIRECTION('ref_axis',(0.,-1.,0.));
#1258=DIRECTION('',(-1.,0.,0.));
#1259=DIRECTION('',(1.,0.,0.));
#1260=DIRECTION('center_axis',(0.,0.,-1.));
#1261=DIRECTION('ref_axis',(-1.,0.,0.));
#1262=DIRECTION('center_axis',(0.,-1.,0.));
#1263=DIRECTION('ref_axis',(1.,0.,0.));
#1264=DIRECTION('center_axis',(0.,0.,-1.));
#1265=DIRECTION('ref_axis',(0.707106781186548,-0.707106781186547,0.));
#1266=DIRECTION('center_axis',(0.,0.,1.));
#1267=DIRECTION('ref_axis',(0.707106781186548,-0.707106781186547,0.));
#1268=DIRECTION('center_axis',(0.,-1.,0.));
#1269=DIRECTION('ref_axis',(0.707106781186544,0.,0.707106781186551));
#1270=DIRECTION('',(0.,-1.,0.));
#1271=DIRECTION('',(0.,1.,0.));
#1272=DIRECTION('center_axis',(1.,0.,0.));
#1273=DIRECTION('ref_axis',(0.,0.,-1.));
#1274=DIRECTION('',(0.,0.,1.));
#1275=DIRECTION('',(0.,-1.,0.));
#1276=DIRECTION('center_axis',(0.,0.,-1.));
#1277=DIRECTION('ref_axis',(0.707106781186547,-0.707106781186547,0.));
#1278=DIRECTION('',(0.,0.,-1.));
#1279=DIRECTION('center_axis',(0.,0.,-1.));
#1280=DIRECTION('ref_axis',(0.707106781186548,-0.707106781186547,0.));
#1281=DIRECTION('center_axis',(0.,-1.,0.));
#1282=DIRECTION('ref_axis',(0.,0.,-1.));
#1283=DIRECTION('',(0.,0.,1.));
#1284=DIRECTION('',(-1.,0.,0.));
#1285=DIRECTION('center_axis',(1.,0.,0.));
#1286=DIRECTION('ref_axis',(0.,0.,-1.));
#1287=DIRECTION('',(0.,-1.,0.));
#1288=DIRECTION('center_axis',(0.,-1.,0.));
#1289=DIRECTION('ref_axis',(0.707106781186548,0.,0.707106781186548));
#1290=DIRECTION('',(0.,-1.,0.));
#1291=DIRECTION('center_axis',(0.,1.,0.));
#1292=DIRECTION('ref_axis',(0.,0.,1.));
#1293=DIRECTION('',(0.,1.,0.));
#1294=DIRECTION('center_axis',(0.38268343236509,-0.923879532511287,0.));
#1295=DIRECTION('ref_axis',(0.923879532511287,0.38268343236509,0.));
#1296=DIRECTION('center_axis',(0.,0.,-1.));
#1297=DIRECTION('ref_axis',(-1.,0.,0.));
#1298=DIRECTION('center_axis',(1.,-1.06581410364015E-14,0.));
#1299=DIRECTION('ref_axis',(0.,0.,1.));
#1300=DIRECTION('center_axis',(0.,0.,1.));
#1301=DIRECTION('ref_axis',(0.707106781186548,-0.707106781186547,0.));
#1302=DIRECTION('center_axis',(0.,0.,-1.));
#1303=DIRECTION('ref_axis',(0.707106781186548,-0.707106781186547,0.));
#1304=DIRECTION('center_axis',(1.,0.,0.));
#1305=DIRECTION('ref_axis',(0.,-0.70710678118654,0.707106781186555));
#1306=DIRECTION('center_axis',(1.,0.,0.));
#1307=DIRECTION('ref_axis',(0.,-0.70710678118654,0.707106781186555));
#1308=DIRECTION('',(1.,0.,0.));
#1309=DIRECTION('',(-1.,0.,0.));
#1310=DIRECTION('center_axis',(0.707106781186548,-0.707106781186548,0.));
#1311=DIRECTION('ref_axis',(0.499999999999999,0.500000000000006,0.707106781186544));
#1312=DIRECTION('',(0.707106781186548,-0.707106781186548,0.));
#1313=DIRECTION('center_axis',(0.923879532511285,-0.382683432365095,0.));
#1314=DIRECTION('ref_axis',(0.382683432365095,0.923879532511284,0.));
#1315=DIRECTION('center_axis',(1.,0.,0.));
#1316=DIRECTION('ref_axis',(0.,0.70710678118654,0.707106781186555));
#1317=DIRECTION('center_axis',(1.,0.,0.));
#1318=DIRECTION('ref_axis',(0.,0.70710678118654,0.707106781186555));
#1319=DIRECTION('',(1.,0.,0.));
#1320=DIRECTION('center_axis',(1.,0.,0.));
#1321=DIRECTION('ref_axis',(0.,0.,-1.));
#1322=DIRECTION('',(0.,0.,1.));
#1323=DIRECTION('center_axis',(0.,0.,-1.));
#1324=DIRECTION('ref_axis',(0.707106781186547,-0.707106781186547,0.));
#1325=DIRECTION('',(0.,0.,-1.));
#1326=DIRECTION('center_axis',(0.,-1.,0.));
#1327=DIRECTION('ref_axis',(0.,0.,-1.));
#1328=DIRECTION('',(0.,0.,1.));
#1329=DIRECTION('center_axis',(1.,0.,0.));
#1330=DIRECTION('ref_axis',(0.,-0.707106781186551,-0.707106781186544));
#1331=DIRECTION('center_axis',(1.,0.,0.));
#1332=DIRECTION('ref_axis',(0.,-0.707106781186551,-0.707106781186544));
#1333=DIRECTION('',(1.,0.,0.));
#1334=DIRECTION('center_axis',(-1.,0.,0.));
#1335=DIRECTION('ref_axis',(0.,0.,-1.));
#1336=DIRECTION('center_axis',(0.,0.,1.));
#1337=DIRECTION('ref_axis',(1.,0.,0.));
#1338=DIRECTION('center_axis',(0.,-1.,0.));
#1339=DIRECTION('ref_axis',(0.,0.,-1.));
#1340=DIRECTION('center_axis',(0.,0.,1.));
#1341=DIRECTION('ref_axis',(0.707106781186548,-0.707106781186547,0.));
#1342=DIRECTION('center_axis',(0.,1.,0.));
#1343=DIRECTION('ref_axis',(0.707106781186544,0.,-0.707106781186551));
#1344=DIRECTION('',(0.,1.,0.));
#1345=DIRECTION('center_axis',(0.382683432365093,-0.923879532511286,-3.69256438430623E-15));
#1346=DIRECTION('ref_axis',(-0.923879532511286,-0.382683432365093,8.91463901652788E-15));
#1347=DIRECTION('center_axis',(-0.707106781186548,0.707106781186548,0.));
#1348=DIRECTION('ref_axis',(0.499999999999996,0.500000000000004,-0.707106781186548));
#1349=DIRECTION('',(-0.707106781186548,0.707106781186548,0.));
#1350=DIRECTION('center_axis',(0.923879532511289,-0.382683432365085,0.));
#1351=DIRECTION('ref_axis',(-0.382683432365085,-0.923879532511289,0.));
#1352=DIRECTION('center_axis',(0.,0.,1.));
#1353=DIRECTION('ref_axis',(0.707106781186545,0.70710678118655,0.));
#1354=DIRECTION('center_axis',(0.,0.,1.));
#1355=DIRECTION('ref_axis',(0.707106781186545,0.70710678118655,0.));
#1356=DIRECTION('center_axis',(0.,0.,-1.));
#1357=DIRECTION('ref_axis',(0.,1.,0.));
#1358=DIRECTION('',(0.,0.,-1.));
#1359=DIRECTION('center_axis',(0.,1.,0.));
#1360=DIRECTION('ref_axis',(0.,0.,1.));
#1361=DIRECTION('center_axis',(-1.,0.,0.));
#1362=DIRECTION('ref_axis',(0.,1.,0.));
#1363=DIRECTION('center_axis',(0.,-1.,0.));
#1364=DIRECTION('ref_axis',(-0.707106781186547,0.,0.707106781186548));
#1365=DIRECTION('center_axis',(1.,0.,0.));
#1366=DIRECTION('ref_axis',(0.,0.707106781186548,-0.707106781186548));
#1367=DIRECTION('',(-1.,0.,0.));
#1368=DIRECTION('center_axis',(1.,0.,0.));
#1369=DIRECTION('ref_axis',(0.,0.,-1.));
#1370=DIRECTION('',(0.,-1.,0.));
#1371=DIRECTION('',(0.,0.,1.));
#1372=DIRECTION('',(0.,-1.,0.));
#1373=DIRECTION('center_axis',(0.,1.,0.));
#1374=DIRECTION('ref_axis',(-0.707106781186547,0.,-0.707106781186547));
#1375=DIRECTION('',(0.,1.,0.));
#1376=DIRECTION('center_axis',(0.,-1.,0.));
#1377=DIRECTION('ref_axis',(-0.707106781186547,0.,0.707106781186547));
#1378=DIRECTION('',(0.,-1.,0.));
#1379=DIRECTION('center_axis',(0.,-1.,0.));
#1380=DIRECTION('ref_axis',(-0.707106781186547,0.,0.707106781186547));
#1381=DIRECTION('',(0.,1.,0.));
#1382=DIRECTION('center_axis',(1.,0.,0.));
#1383=DIRECTION('ref_axis',(0.,0.,-1.));
#1384=DIRECTION('',(0.,0.,-1.));
#1385=DIRECTION('',(0.,1.,0.));
#1386=DIRECTION('center_axis',(1.,0.,0.));
#1387=DIRECTION('ref_axis',(0.,0.,-1.));
#1388=DIRECTION('',(0.,1.,0.));
#1389=DIRECTION('center_axis',(1.,0.,0.));
#1390=DIRECTION('ref_axis',(0.,0.,-1.));
#1391=DIRECTION('',(0.,1.,0.));
#1392=DIRECTION('',(0.,2.84672570416707E-17,1.));
#1393=DIRECTION('',(0.,-1.,0.));
#1394=DIRECTION('center_axis',(0.,0.,1.));
#1395=DIRECTION('ref_axis',(0.,-1.,0.));
#1396=DIRECTION('',(1.,0.,0.));
#1397=DIRECTION('center_axis',(0.,1.,-2.84672570416707E-17));
#1398=DIRECTION('ref_axis',(0.,2.84672570416707E-17,1.));
#1399=DIRECTION('',(1.,0.,0.));
#1400=DIRECTION('center_axis',(0.,0.,1.));
#1401=DIRECTION('ref_axis',(0.,-1.,0.));
#1402=DIRECTION('center_axis',(0.,0.,-1.));
#1403=DIRECTION('ref_axis',(0.,1.,0.));
#1404=DIRECTION('center_axis',(0.,1.,0.));
#1405=DIRECTION('ref_axis',(0.,0.,1.));
#1406=DIRECTION('',(-1.,0.,0.));
#1407=DIRECTION('',(1.,0.,0.));
#1408=DIRECTION('center_axis',(0.,0.,1.));
#1409=DIRECTION('ref_axis',(0.,-1.,0.));
#1410=DIRECTION('center_axis',(0.,0.,-1.));
#1411=DIRECTION('ref_axis',(0.,1.,0.));
#1412=DIRECTION('center_axis',(0.,0.,1.));
#1413=DIRECTION('ref_axis',(0.,-1.,0.));
#1414=CARTESIAN_POINT('',(0.,0.,0.));
#1415=CARTESIAN_POINT('Origin',(55.2857443490112,23.5357443490112,80.3333333333333));
#1416=CARTESIAN_POINT('',(50.,30.,80.3333333333333));
#1417=CARTESIAN_POINT('',(85.7440776823445,-5.74407768234453,80.3333333333333));
#1418=CARTESIAN_POINT('',(55.875,24.125,80.3333333333333));
#1419=CARTESIAN_POINT('',(85.1548220313557,-5.49999999999999,79.7440776823445));
#1420=CARTESIAN_POINT('Origin',(85.1548220313557,-6.33333333333333,80.3333333333333));
#1421=CARTESIAN_POINT('',(84.3214886980224,-5.49999999999999,79.5));
#1422=CARTESIAN_POINT('Origin',(84.3214886980224,-5.49999999999999,80.3333333333333));
#1423=CARTESIAN_POINT('',(49.6548220313557,29.1666666666667,79.5));
#1424=CARTESIAN_POINT('',(55.2857443490112,23.5357443490112,79.5));
#1425=CARTESIAN_POINT('Origin',(49.6548220313557,29.1666666666667,80.3333333333333));
#1426=CARTESIAN_POINT('Origin',(85.1548220313557,-6.33333333333333,55.125));
#1427=CARTESIAN_POINT('',(85.7440776823445,-5.74407768234454,39.6666666666667));
#1428=CARTESIAN_POINT('',(85.7440776823445,-5.74407768234453,55.125));
#1429=CARTESIAN_POINT('',(85.1548220313557,-5.5,40.2559223176554));
#1430=CARTESIAN_POINT('Origin',(85.1548220313557,-6.33333333333333,39.6666666666667));
#1431=CARTESIAN_POINT('',(85.1548220313557,-5.49999999999999,55.125));
#1432=CARTESIAN_POINT('Origin',(46.4107443490112,32.4107443490112,39.6666666666667));
#1433=CARTESIAN_POINT('',(50.,30.,39.6666666666667));
#1434=CARTESIAN_POINT('',(47.,33.,39.6666666666667));
#1435=CARTESIAN_POINT('',(49.6548220313558,29.1666666666667,40.5));
#1436=CARTESIAN_POINT('Origin',(49.6548220313558,29.1666666666667,39.6666666666667));
#1437=CARTESIAN_POINT('',(84.3214886980224,-5.49999999999999,40.5));
#1438=CARTESIAN_POINT('',(46.4107443490112,32.4107443490112,40.5));
#1439=CARTESIAN_POINT('Origin',(84.3214886980224,-5.49999999999999,39.6666666666667));
#1440=CARTESIAN_POINT('Origin',(0.,29.1666666666667,39.6666666666667));
#1441=CARTESIAN_POINT('',(7.5,30.,39.6666666666667));
#1442=CARTESIAN_POINT('',(0.,30.,39.6666666666667));
#1443=CARTESIAN_POINT('',(7.5,29.1666666666667,40.5));
#1444=CARTESIAN_POINT('Origin',(7.5,29.1666666666667,39.6666666666667));
#1445=CARTESIAN_POINT('',(0.,29.1666666666667,40.5));
#1446=CARTESIAN_POINT('Origin',(0.,29.1666666666667,80.3333333333333));
#1447=CARTESIAN_POINT('',(7.5,29.1666666666667,79.5));
#1448=CARTESIAN_POINT('',(0.,29.1666666666667,79.5));
#1449=CARTESIAN_POINT('',(7.5,30.,80.3333333333333));
#1450=CARTESIAN_POINT('Origin',(7.5,29.1666666666667,80.3333333333333));
#1451=CARTESIAN_POINT('',(0.,30.,80.3333333333333));
#1452=CARTESIAN_POINT('Origin',(69.,11.,69.75));
#1453=CARTESIAN_POINT('',(50.,30.,81.1666666666666));
#1454=CARTESIAN_POINT('',(50.,30.,69.75));
#1455=CARTESIAN_POINT('',(88.,-7.99999999999999,81.1666666666667));
#1456=CARTESIAN_POINT('',(47.,33.,81.1666666666667));
#1457=CARTESIAN_POINT('',(88.,-7.99999999999999,80.3333333333333));
#1458=CARTESIAN_POINT('',(88.,-7.99999999999999,69.75));
#1459=CARTESIAN_POINT('',(87.1666666666667,-7.16666666666667,79.5));
#1460=CARTESIAN_POINT('Origin',(87.1666666666667,-7.16666666666666,80.3333333333333));
#1461=CARTESIAN_POINT('',(86.5774110156779,-6.57741101567787,79.5));
#1462=CARTESIAN_POINT('',(62.,18.,79.5));
#1463=CARTESIAN_POINT('',(86.5774110156779,-6.57741101567787,40.5));
#1464=CARTESIAN_POINT('',(86.5774110156779,-6.57741101567787,74.625));
#1465=CARTESIAN_POINT('',(87.1666666666667,-7.16666666666666,40.5));
#1466=CARTESIAN_POINT('',(56.5,23.5,40.5));
#1467=CARTESIAN_POINT('',(88.,-7.99999999999999,39.6666666666667));
#1468=CARTESIAN_POINT('Origin',(87.1666666666667,-7.16666666666666,39.6666666666667));
#1469=CARTESIAN_POINT('',(88.,-7.99999999999999,38.8333333333333));
#1470=CARTESIAN_POINT('',(88.,-7.99999999999999,69.75));
#1471=CARTESIAN_POINT('',(50.,30.,38.8333333333333));
#1472=CARTESIAN_POINT('',(59.5,20.5,38.8333333333333));
#1473=CARTESIAN_POINT('',(50.,30.,53.875));
#1474=CARTESIAN_POINT('Origin',(0.,30.,-82.));
#1475=CARTESIAN_POINT('',(7.5,30.0000004470348,79.5000011846423));
#1476=CARTESIAN_POINT('',(5.,30.,38.8333333333333));
#1477=CARTESIAN_POINT('',(0.,30.,38.8333333333333));
#1478=CARTESIAN_POINT('',(1.66666666666667,30.,35.5));
#1479=CARTESIAN_POINT('Origin',(5.,30.,35.5));
#1480=CARTESIAN_POINT('',(1.66666666666667,30.,-82.));
#1481=CARTESIAN_POINT('',(1.66666666666667,30.,-41.));
#1482=CARTESIAN_POINT('',(0.,30.,-82.));
#1483=CARTESIAN_POINT('',(0.,30.,-82.));
#1484=CARTESIAN_POINT('',(0.,30.,55.0000006744967));
#1485=CARTESIAN_POINT('',(0.,30.,82.));
#1486=CARTESIAN_POINT('',(0.,30.,65.0000006744967));
#1487=CARTESIAN_POINT('Origin',(0.,30.,60.0000006744967));
#1488=CARTESIAN_POINT('',(0.,30.,81.1666666666666));
#1489=CARTESIAN_POINT('',(0.,30.,82.));
#1490=CARTESIAN_POINT('',(0.,30.,81.1666666666666));
#1491=CARTESIAN_POINT('Origin',(85.9881553646891,-7.16666666666666,74.625));
#1492=CARTESIAN_POINT('',(85.9881553646891,-7.99999999999999,40.5));
#1493=CARTESIAN_POINT('Origin',(85.9881553646891,-7.16666666666666,40.5));
#1494=CARTESIAN_POINT('',(85.9881553646891,-7.99999999999999,79.5));
#1495=CARTESIAN_POINT('Origin',(85.9881553646891,-7.16666666666666,79.5));
#1496=CARTESIAN_POINT('',(85.9881553646891,-7.99999999999999,74.625));
#1497=CARTESIAN_POINT('Origin',(0.,-7.99999999999999,79.5));
#1498=CARTESIAN_POINT('',(5.,-7.99999999999999,79.5));
#1499=CARTESIAN_POINT('',(0.,-7.99999999999999,79.5));
#1500=CARTESIAN_POINT('',(2.5,-7.99999999999999,77.));
#1501=CARTESIAN_POINT('Origin',(5.,-7.99999999999999,77.));
#1502=CARTESIAN_POINT('',(2.5,-7.99999999999999,64.3301276934189));
#1503=CARTESIAN_POINT('',(2.5,-7.99999999999999,39.75));
#1504=CARTESIAN_POINT('',(2.5,-7.99999999999999,55.6698736555745));
#1505=CARTESIAN_POINT('Origin',(0.,-7.99999999999999,60.0000006744967));
#1506=CARTESIAN_POINT('',(2.5,-7.99999999999999,43.));
#1507=CARTESIAN_POINT('',(2.5,-7.99999999999999,39.75));
#1508=CARTESIAN_POINT('',(5.,-7.99999999999999,40.5));
#1509=CARTESIAN_POINT('Origin',(5.,-7.99999999999999,43.));
#1510=CARTESIAN_POINT('',(0.,-7.99999999999999,40.5));
#1511=CARTESIAN_POINT('Origin',(1.66666666666667,-29.1666666666667,41.));
#1512=CARTESIAN_POINT('',(1.66666666666667,-30.,64.714045882407));
#1513=CARTESIAN_POINT('',(2.5,-29.1666666666667,64.3301276934189));
#1514=CARTESIAN_POINT('Ctrl Pts',(1.66666666666667,-30.,64.714045882407));
#1515=CARTESIAN_POINT('Ctrl Pts',(1.77463125372307,-30.,64.6758746365892));
#1516=CARTESIAN_POINT('Ctrl Pts',(1.88843555480154,-29.9778872563717,64.6310605680417));
#1517=CARTESIAN_POINT('Ctrl Pts',(2.09681072066414,-29.8893258941761,64.540517097152));
#1518=CARTESIAN_POINT('Ctrl Pts',(2.19147264955069,-29.8229312068213,64.4949446164749));
#1519=CARTESIAN_POINT('Ctrl Pts',(2.33518685561626,-29.6739444266879,64.4218612280989));
#1520=CARTESIAN_POINT('Ctrl Pts',(2.39646491207364,-29.5833755156162,64.3885295271418));
#1521=CARTESIAN_POINT('Ctrl Pts',(2.47891838905659,-29.3823024030467,64.3424876657875));
#1522=CARTESIAN_POINT('Ctrl Pts',(2.5,-29.2716797278873,64.3301276934189));
#1523=CARTESIAN_POINT('Ctrl Pts',(2.5,-29.1666666666667,64.3301276934189));
#1524=CARTESIAN_POINT('',(2.5,-29.1666666666667,77.));
#1525=CARTESIAN_POINT('',(2.5,-29.1666666666667,41.));
#1526=CARTESIAN_POINT('',(1.66666666666667,-30.,77.));
#1527=CARTESIAN_POINT('Origin',(1.66666666666667,-29.1666666666667,77.));
#1528=CARTESIAN_POINT('',(1.66666666666667,-30.,41.));
#1529=CARTESIAN_POINT('Origin',(5.,-29.1666666666667,77.));
#1530=CARTESIAN_POINT('',(5.,-29.1666666666667,79.5));
#1531=CARTESIAN_POINT('',(5.,-30.,80.3333333333333));
#1532=CARTESIAN_POINT('Origin',(5.,-29.1666666666667,80.3333333333333));
#1533=CARTESIAN_POINT('Origin',(5.,-30.,77.));
#1534=CARTESIAN_POINT('Origin',(5.,-29.1666666666667,77.));
#1535=CARTESIAN_POINT('Origin',(0.,-29.1666666666667,80.3333333333333));
#1536=CARTESIAN_POINT('',(78.,-29.1666666666667,79.5));
#1537=CARTESIAN_POINT('',(78.,-30.,80.3333333333333));
#1538=CARTESIAN_POINT('Origin',(78.,-29.1666666666667,80.3333333333333));
#1539=CARTESIAN_POINT('',(0.,-30.,80.3333333333333));
#1540=CARTESIAN_POINT('',(0.,-29.1666666666667,79.5));
#1541=CARTESIAN_POINT('Origin',(78.,-20.,80.3333333333333));
#1542=CARTESIAN_POINT('',(87.1666666666667,-20.,79.5));
#1543=CARTESIAN_POINT('',(88.,-20.,80.3333333333333));
#1544=CARTESIAN_POINT('Origin',(87.1666666666667,-20.,80.3333333333333));
#1545=CARTESIAN_POINT('Origin',(78.,-20.,80.3333333333333));
#1546=CARTESIAN_POINT('Origin',(78.,-20.,79.5));
#1547=CARTESIAN_POINT('Origin',(87.1666666666667,-15.,80.3333333333333));
#1548=CARTESIAN_POINT('',(88.,-15.,80.3333333333333));
#1549=CARTESIAN_POINT('',(87.1666666666667,-15.,79.5));
#1550=CARTESIAN_POINT('Origin',(0.,-30.,79.5));
#1551=CARTESIAN_POINT('',(5.,-15.,79.5));
#1552=CARTESIAN_POINT('Origin',(5.,-15.,77.));
#1553=CARTESIAN_POINT('',(2.5,-15.,77.));
#1554=CARTESIAN_POINT('Origin',(2.5,4.44089209850063E-15,0.));
#1555=CARTESIAN_POINT('',(2.5,30.,64.3301276934189));
#1556=CARTESIAN_POINT('Origin',(0.,30.,60.0000006744967));
#1557=CARTESIAN_POINT('',(0.,-30.,65.0000006744967));
#1558=CARTESIAN_POINT('Origin',(0.,-30.,60.0000006744967));
#1559=CARTESIAN_POINT('',(0.,15.,65.0000006744967));
#1560=CARTESIAN_POINT('',(0.,-30.,55.0000006744967));
#1561=CARTESIAN_POINT('',(0.,15.,55.0000006744967));
#1562=CARTESIAN_POINT('',(1.66666666666667,-30.,55.2859554665864));
#1563=CARTESIAN_POINT('Origin',(0.,-30.,60.0000006744967));
#1564=CARTESIAN_POINT('',(2.5,-29.1666666666667,55.6698736555745));
#1565=CARTESIAN_POINT('Ctrl Pts',(2.5,-29.1666666666667,55.6698736555745));
#1566=CARTESIAN_POINT('Ctrl Pts',(2.5,-29.2716797278873,55.6698736555745));
#1567=CARTESIAN_POINT('Ctrl Pts',(2.47891838905659,-29.3823024030467,55.6575136832058));
#1568=CARTESIAN_POINT('Ctrl Pts',(2.39646491207364,-29.5833755156162,55.6114718218516));
#1569=CARTESIAN_POINT('Ctrl Pts',(2.33518685561626,-29.6739444266879,55.5781401208945));
#1570=CARTESIAN_POINT('Ctrl Pts',(2.19147264955069,-29.8229312068213,55.5050567325185));
#1571=CARTESIAN_POINT('Ctrl Pts',(2.09681072066414,-29.8893258941761,55.4594842518414));
#1572=CARTESIAN_POINT('Ctrl Pts',(1.88843555480154,-29.9778872563717,55.3689407809517));
#1573=CARTESIAN_POINT('Ctrl Pts',(1.77463125372307,-30.,55.3241267124042));
#1574=CARTESIAN_POINT('Ctrl Pts',(1.66666666666667,-30.,55.2859554665864));
#1575=CARTESIAN_POINT('',(2.5,30.,55.6698736555745));
#1576=CARTESIAN_POINT('Origin',(1.66666666666667,-29.1666666666667,41.));
#1577=CARTESIAN_POINT('',(1.66666666666667,-30.,43.));
#1578=CARTESIAN_POINT('',(1.66666666666667,-30.,41.));
#1579=CARTESIAN_POINT('',(2.5,-29.1666666666667,43.));
#1580=CARTESIAN_POINT('Origin',(1.66666666666667,-29.1666666666667,43.));
#1581=CARTESIAN_POINT('',(2.5,-29.1666666666667,41.));
#1582=CARTESIAN_POINT('Origin',(5.,-29.1666666666667,43.));
#1583=CARTESIAN_POINT('',(5.,-30.,39.6666666666667));
#1584=CARTESIAN_POINT('',(5.,-29.1666666666667,40.5));
#1585=CARTESIAN_POINT('Origin',(5.,-29.1666666666667,39.6666666666667));
#1586=CARTESIAN_POINT('Origin',(5.,-29.1666666666667,43.));
#1587=CARTESIAN_POINT('Origin',(5.,-30.,43.));
#1588=CARTESIAN_POINT('Origin',(0.,-29.1666666666667,39.6666666666667));
#1589=CARTESIAN_POINT('',(78.,-30.,39.6666666666667));
#1590=CARTESIAN_POINT('',(78.,-29.1666666666667,40.5));
#1591=CARTESIAN_POINT('Origin',(78.,-29.1666666666667,39.6666666666667));
#1592=CARTESIAN_POINT('',(0.,-29.1666666666667,40.5));
#1593=CARTESIAN_POINT('',(0.,-30.,39.6666666666667));
#1594=CARTESIAN_POINT('Origin',(78.,-20.,39.6666666666667));
#1595=CARTESIAN_POINT('',(88.,-20.,39.6666666666667));
#1596=CARTESIAN_POINT('',(87.1666666666667,-20.,40.5));
#1597=CARTESIAN_POINT('Origin',(87.1666666666667,-20.,39.6666666666667));
#1598=CARTESIAN_POINT('Origin',(78.,-20.,40.5));
#1599=CARTESIAN_POINT('Origin',(78.,-20.,39.6666666666667));
#1600=CARTESIAN_POINT('Origin',(87.1666666666667,-3.99999999999999,39.6666666666667));
#1601=CARTESIAN_POINT('',(87.1666666666667,-3.99999999999999,40.5));
#1602=CARTESIAN_POINT('',(88.,-3.99999999999999,39.6666666666667));
#1603=CARTESIAN_POINT('Origin',(88.,4.44089209850063E-15,60.));
#1604=CARTESIAN_POINT('',(88.,-20.,38.8333333333333));
#1605=CARTESIAN_POINT('',(88.,-20.,50.25));
#1606=CARTESIAN_POINT('',(88.,-10.,38.8333333333333));
#1607=CARTESIAN_POINT('Origin',(78.,-20.,50.25));
#1608=CARTESIAN_POINT('',(78.,-30.,38.8333333333333));
#1609=CARTESIAN_POINT('',(78.,-30.,50.25));
#1610=CARTESIAN_POINT('Origin',(78.,-20.,38.8333333333333));
#1611=CARTESIAN_POINT('Origin',(0.,-30.,82.));
#1612=CARTESIAN_POINT('',(0.,-30.,38.8333333333333));
#1613=CARTESIAN_POINT('',(0.,-30.,38.));
#1614=CARTESIAN_POINT('',(0.,-30.,38.8333333333333));
#1615=CARTESIAN_POINT('Origin',(2.5,4.44089209850063E-15,0.));
#1616=CARTESIAN_POINT('',(2.5,-3.99999999999999,43.));
#1617=CARTESIAN_POINT('Origin',(87.1666666666667,15.,81.1666666666667));
#1618=CARTESIAN_POINT('',(87.1666666666667,-8.34517796864424,82.));
#1619=CARTESIAN_POINT('',(87.1666666666667,-20.,82.));
#1620=CARTESIAN_POINT('',(87.1666666666667,15.,82.));
#1621=CARTESIAN_POINT('',(88.,-20.,81.1666666666667));
#1622=CARTESIAN_POINT('Origin',(87.1666666666667,-20.,81.1666666666667));
#1623=CARTESIAN_POINT('',(88.,15.,81.1666666666667));
#1624=CARTESIAN_POINT('Origin',(87.1666666666667,-8.34517796864424,81.1666666666667));
#1625=CARTESIAN_POINT('Origin',(78.,-20.,81.1666666666667));
#1626=CARTESIAN_POINT('',(78.,-29.1666666666667,82.));
#1627=CARTESIAN_POINT('',(78.,-30.,81.1666666666667));
#1628=CARTESIAN_POINT('Origin',(78.,-29.1666666666667,81.1666666666667));
#1629=CARTESIAN_POINT('Origin',(78.,-20.,81.1666666666667));
#1630=CARTESIAN_POINT('Origin',(78.,-20.,82.));
#1631=CARTESIAN_POINT('Origin',(0.,-29.1666666666667,81.1666666666666));
#1632=CARTESIAN_POINT('',(0.,-29.1666666666667,82.));
#1633=CARTESIAN_POINT('',(0.,-30.,81.1666666666666));
#1634=CARTESIAN_POINT('Origin',(0.,-29.1666666666667,81.1666666666666));
#1635=CARTESIAN_POINT('',(0.,-30.,81.1666666666666));
#1636=CARTESIAN_POINT('',(0.,-29.1666666666667,82.));
#1637=CARTESIAN_POINT('Origin',(46.4107443490112,32.4107443490112,81.1666666666667));
#1638=CARTESIAN_POINT('',(49.6548220313558,29.1666666666667,82.));
#1639=CARTESIAN_POINT('',(46.4107443490112,32.4107443490112,82.));
#1640=CARTESIAN_POINT('Origin',(49.6548220313558,29.1666666666667,81.1666666666667));
#1641=CARTESIAN_POINT('Origin',(0.,29.1666666666667,81.1666666666666));
#1642=CARTESIAN_POINT('',(0.,29.1666666666667,82.));
#1643=CARTESIAN_POINT('Origin',(0.,29.1666666666667,81.1666666666666));
#1644=CARTESIAN_POINT('',(0.,29.1666666666667,82.));
#1645=CARTESIAN_POINT('Origin',(88.,4.44089209850063E-15,60.));
#1646=CARTESIAN_POINT('',(88.,-20.,71.));
#1647=CARTESIAN_POINT('Origin',(78.,-20.,71.));
#1648=CARTESIAN_POINT('',(78.,-30.,71.));
#1649=CARTESIAN_POINT('Origin',(0.,-30.,82.));
#1650=CARTESIAN_POINT('',(0.,-30.,38.));
#1651=CARTESIAN_POINT('Origin',(0.,-29.1666666666667,38.8333333333333));
#1652=CARTESIAN_POINT('',(0.,-29.1666666666667,38.));
#1653=CARTESIAN_POINT('Origin',(0.,-29.1666666666667,38.8333333333333));
#1654=CARTESIAN_POINT('',(78.,-29.1666666666667,38.));
#1655=CARTESIAN_POINT('',(0.,-29.1666666666667,38.));
#1656=CARTESIAN_POINT('Origin',(78.,-29.1666666666667,38.8333333333333));
#1657=CARTESIAN_POINT('Origin',(78.,-20.,38.8333333333333));
#1658=CARTESIAN_POINT('',(87.1666666666667,-20.,38.));
#1659=CARTESIAN_POINT('Origin',(87.1666666666667,-20.,38.8333333333333));
#1660=CARTESIAN_POINT('Origin',(78.,-20.,38.));
#1661=CARTESIAN_POINT('Origin',(87.1666666666667,-10.,38.8333333333333));
#1662=CARTESIAN_POINT('',(87.1666666666667,-8.34517796864425,38.));
#1663=CARTESIAN_POINT('',(87.1666666666667,-10.,38.));
#1664=CARTESIAN_POINT('Origin',(87.1666666666667,-8.34517796864425,38.8333333333333));
#1665=CARTESIAN_POINT('Origin',(58.9107443490112,19.9107443490112,38.8333333333333));
#1666=CARTESIAN_POINT('',(49.6548220313558,29.1666666666667,38.));
#1667=CARTESIAN_POINT('',(58.9107443490112,19.9107443490112,38.));
#1668=CARTESIAN_POINT('Origin',(49.6548220313558,29.1666666666667,38.8333333333333));
#1669=CARTESIAN_POINT('Origin',(1.66666666666667,29.1666666666667,-41.));
#1670=CARTESIAN_POINT('',(2.5,29.1666666666667,-82.));
#1671=CARTESIAN_POINT('Origin',(1.66666666666667,29.1666666666667,-82.));
#1672=CARTESIAN_POINT('',(2.5,29.1666666666667,35.5));
#1673=CARTESIAN_POINT('Origin',(1.66666666666667,29.1666666666667,35.5));
#1674=CARTESIAN_POINT('',(2.5,29.1666666666667,-41.));
#1675=CARTESIAN_POINT('Origin',(5.,29.1666666666667,35.5));
#1676=CARTESIAN_POINT('',(5.,29.1666666666667,38.));
#1677=CARTESIAN_POINT('Origin',(5.,29.1666666666667,38.8333333333333));
#1678=CARTESIAN_POINT('Origin',(5.,29.1666666666667,35.5));
#1679=CARTESIAN_POINT('Origin',(0.,29.1666666666667,38.8333333333333));
#1680=CARTESIAN_POINT('',(0.,29.1666666666667,38.));
#1681=CARTESIAN_POINT('Origin',(0.,4.44089209850063E-15,0.));
#1682=CARTESIAN_POINT('',(0.,-20.,-82.));
#1683=CARTESIAN_POINT('',(0.,30.,-82.));
#1684=CARTESIAN_POINT('',(0.,-20.,38.));
#1685=CARTESIAN_POINT('',(0.,-20.,-41.));
#1686=CARTESIAN_POINT('',(0.,-10.,38.));
#1687=CARTESIAN_POINT('Origin',(5.,-3.99999999999999,43.));
#1688=CARTESIAN_POINT('',(5.,-3.99999999999999,40.5));
#1689=CARTESIAN_POINT('Origin',(5.,-10.,35.5));
#1690=CARTESIAN_POINT('',(5.,-20.,38.));
#1691=CARTESIAN_POINT('',(5.,-10.,38.));
#1692=CARTESIAN_POINT('',(2.5,-20.,35.5));
#1693=CARTESIAN_POINT('Origin',(5.,-20.,35.5));
#1694=CARTESIAN_POINT('',(2.5,-10.,35.5));
#1695=CARTESIAN_POINT('Origin',(2.5,4.44089209850063E-15,0.));
#1696=CARTESIAN_POINT('',(2.5,-20.,-82.));
#1697=CARTESIAN_POINT('',(2.5,-20.,-41.));
#1698=CARTESIAN_POINT('',(2.5,30.,-82.));
#1699=CARTESIAN_POINT('Origin',(0.,4.44089209850063E-15,0.));
#1700=CARTESIAN_POINT('',(0.,-30.,82.));
#1701=CARTESIAN_POINT('Origin',(7.5,12.2500001825392,60.0000008940697));
#1702=CARTESIAN_POINT('',(7.5,-5.50000008195639,79.5000011846423));
#1703=CARTESIAN_POINT('',(7.5,3.37500009126962,79.5));
#1704=CARTESIAN_POINT('',(7.5,-5.50000008195639,40.500000603497));
#1705=CARTESIAN_POINT('',(7.5,-5.49999999999999,50.2500004470348));
#1706=CARTESIAN_POINT('',(7.5,21.1250000912696,40.5));
#1707=CARTESIAN_POINT('Origin',(0.,30.,40.5));
#1708=CARTESIAN_POINT('',(0.,-5.49999999999999,40.5));
#1709=CARTESIAN_POINT('Origin',(0.,-5.49999999999999,40.5));
#1710=CARTESIAN_POINT('',(0.,-5.49999999999999,79.5));
#1711=CARTESIAN_POINT('Origin',(0.,-7.99999999999999,40.5));
#1712=CARTESIAN_POINT('Origin',(0.,-5.49999999999999,79.5));
#1713=CARTESIAN_POINT('Origin',(0.,-20.,-82.));
#1714=CARTESIAN_POINT('',(0.,-20.,-82.));
#1715=CARTESIAN_POINT('',(0.,-20.,38.));
#1716=CARTESIAN_POINT('Origin',(0.,-20.,38.));
#1717=CARTESIAN_POINT('Origin',(0.,-30.,-82.));
#1718=CARTESIAN_POINT('Origin',(0.,30.,82.));
#1719=UNCERTAINTY_MEASURE_WITH_UNIT(LENGTH_MEASURE(0.01),#1723,
'DISTANCE_ACCURACY_VALUE',
'Maximum model space distance between geometric entities at asserted c
onnectivities');
#1720=UNCERTAINTY_MEASURE_WITH_UNIT(LENGTH_MEASURE(0.01),#1723,
'DISTANCE_ACCURACY_VALUE',
'Maximum model space distance between geometric entities at asserted c
onnectivities');
#1721=(
GEOMETRIC_REPRESENTATION_CONTEXT(3)
GLOBAL_UNCERTAINTY_ASSIGNED_CONTEXT((#1719))
GLOBAL_UNIT_ASSIGNED_CONTEXT((#1723,#1725,#1726))
REPRESENTATION_CONTEXT('','3D')
);
#1722=(
GEOMETRIC_REPRESENTATION_CONTEXT(3)
GLOBAL_UNCERTAINTY_ASSIGNED_CONTEXT((#1720))
GLOBAL_UNIT_ASSIGNED_CONTEXT((#1723,#1725,#1726))
REPRESENTATION_CONTEXT('','3D')
);
#1723=(
LENGTH_UNIT()
NAMED_UNIT(*)
SI_UNIT(.MILLI.,.METRE.)
);
#1724=(
LENGTH_UNIT()
NAMED_UNIT(*)
SI_UNIT($,.METRE.)
);
#1725=(
NAMED_UNIT(*)
PLANE_ANGLE_UNIT()
SI_UNIT($,.RADIAN.)
);
#1726=(
NAMED_UNIT(*)
SI_UNIT($,.STERADIAN.)
SOLID_ANGLE_UNIT()
);
#1727=SHAPE_DEFINITION_REPRESENTATION(#1728,#1729);
#1728=PRODUCT_DEFINITION_SHAPE('',$,#1731);
#1729=SHAPE_REPRESENTATION('',(#993),#1721);
#1730=PRODUCT_DEFINITION_CONTEXT('part definition',#1735,'design');
#1731=PRODUCT_DEFINITION('support_sonoff_fer','support_sonoff_fer v1',#1732,
#1730);
#1732=PRODUCT_DEFINITION_FORMATION('',$,#1737);
#1733=PRODUCT_RELATED_PRODUCT_CATEGORY('support_sonoff_fer v1',
'support_sonoff_fer v1',(#1737));
#1734=APPLICATION_PROTOCOL_DEFINITION('international standard',
'automotive_design',2009,#1735);
#1735=APPLICATION_CONTEXT(
'Core Data for Automotive Mechanical Design Process');
#1736=PRODUCT_CONTEXT('part definition',#1735,'mechanical');
#1737=PRODUCT('support_sonoff_fer','support_sonoff_fer v1',$,(#1736));
#1738=PRESENTATION_STYLE_ASSIGNMENT((#1739));
#1739=SURFACE_STYLE_USAGE(.BOTH.,#1740);
#1740=SURFACE_SIDE_STYLE('',(#1741));
#1741=SURFACE_STYLE_FILL_AREA(#1742);
#1742=FILL_AREA_STYLE('Acier - Satin\X\E9',(#1743));
#1743=FILL_AREA_STYLE_COLOUR('Acier - Satin\X\E9',#1744);
#1744=COLOUR_RGB('Acier - Satin\X\E9',0.627450980392157,0.627450980392157,
0.627450980392157);
ENDSEC;
END-ISO-10303-21;
