ISO-10303-21;
HEADER;
/* Generated by software containing ST-Developer
 * from STEP Tools, Inc. (www.steptools.com) 
 */

FILE_DESCRIPTION(
/* description */ (''),
/* implementation_level */ '2;1');

FILE_NAME(
/* name */ 'support_tagres_central_rallonge_70.step',
/* time_stamp */ '2025-11-09T20:44:11+01:00',
/* author */ (''),
/* organization */ (''),
/* preprocessor_version */ 'ST-DEVELOPER v20.1',
/* originating_system */ 'Autodesk Translation Framework v14.17.0.0',
/* authorisation */ '');

FILE_SCHEMA (('AUTOMOTIVE_DESIGN { 1 0 10303 214 3 1 1 }'));
ENDSEC;

DATA;
#10=MECHANICAL_DESIGN_GEOMETRIC_PRESENTATION_REPRESENTATION('',(#53,#54,
#55),#1535);
#11=SHAPE_REPRESENTATION_RELATIONSHIP('SRR','None',#1542,#12);
#12=ADVANCED_BREP_SHAPE_REPRESENTATION('',(#56,#57,#58),#1534);
#13=TOROIDAL_SURFACE('',#774,75.3198347107438,0.5);
#14=TOROIDAL_SURFACE('',#778,75.3198347107438,0.5);
#15=TOROIDAL_SURFACE('',#786,75.3198347107438,0.5);
#16=TOROIDAL_SURFACE('',#790,75.3198347107438,0.5);
#17=TOROIDAL_SURFACE('',#794,75.3198347107438,0.5);
#18=TOROIDAL_SURFACE('',#798,75.3198347107438,0.5);
#19=B_SPLINE_SURFACE_WITH_KNOTS('',3,3,((#1195,#1196,#1197,#1198,#1199,
#1200,#1201),(#1202,#1203,#1204,#1205,#1206,#1207,#1208),(#1209,#1210,#1211,
#1212,#1213,#1214,#1215),(#1216,#1217,#1218,#1219,#1220,#1221,#1222),(#1223,
#1224,#1225,#1226,#1227,#1228,#1229)),.UNSPECIFIED.,.F.,.F.,.F.,(4,1,4),
(4,1,1,1,4),(0.,0.5,1.),(0.10053002228759,0.80045963126777,1.15042443575786,
1.85035404473804,2.55028365371822),.UNSPECIFIED.);
#20=B_SPLINE_SURFACE_WITH_KNOTS('',3,3,((#1253,#1254,#1255,#1256,#1257,
#1258),(#1259,#1260,#1261,#1262,#1263,#1264),(#1265,#1266,#1267,#1268,#1269,
#1270),(#1271,#1272,#1273,#1274,#1275,#1276),(#1277,#1278,#1279,#1280,#1281,
#1282)),.UNSPECIFIED.,.F.,.F.,.F.,(4,1,4),(4,1,1,4),(0.,0.5,1.),(0.,1.04989441347026,
1.74982402245043,2.44975363143061),.UNSPECIFIED.);
#21=B_SPLINE_SURFACE_WITH_KNOTS('',3,3,((#1335,#1336,#1337,#1338,#1339,
#1340,#1341),(#1342,#1343,#1344,#1345,#1346,#1347,#1348),(#1349,#1350,#1351,
#1352,#1353,#1354,#1355),(#1356,#1357,#1358,#1359,#1360,#1361,#1362),(#1363,
#1364,#1365,#1366,#1367,#1368,#1369)),.UNSPECIFIED.,.F.,.F.,.F.,(4,1,4),
(4,1,1,1,4),(0.,0.5,1.),(0.100530022287591,0.800459631267771,1.15042443575786,
1.85035404473804,2.55028365371822),.UNSPECIFIED.);
#22=B_SPLINE_SURFACE_WITH_KNOTS('',3,3,((#1393,#1394,#1395,#1396,#1397,
#1398),(#1399,#1400,#1401,#1402,#1403,#1404),(#1405,#1406,#1407,#1408,#1409,
#1410),(#1411,#1412,#1413,#1414,#1415,#1416),(#1417,#1418,#1419,#1420,#1421,
#1422)),.UNSPECIFIED.,.F.,.F.,.F.,(4,1,4),(4,1,1,4),(0.,0.5,1.),(0.,1.04989441347026,
1.74982402245043,2.44975363143061),.UNSPECIFIED.);
#23=SPHERICAL_SURFACE('',#761,0.500000000000003);
#24=SPHERICAL_SURFACE('',#765,0.5);
#25=SPHERICAL_SURFACE('',#769,0.500000000000006);
#26=SPHERICAL_SURFACE('',#781,0.500000000000003);
#27=B_SPLINE_CURVE_WITH_KNOTS('',3,(#1090,#1091,#1092,#1093,#1094,#1095,
#1096,#1097,#1098,#1099),.UNSPECIFIED.,.F.,.F.,(4,2,2,2,4),(0.,0.140127824190575,
0.280255648381151,0.435953945416693,0.591652242452235),.UNSPECIFIED.);
#28=B_SPLINE_CURVE_WITH_KNOTS('',3,(#1100,#1101,#1102,#1103,#1104,#1105,
#1106,#1107,#1108,#1109,#1110,#1111,#1112,#1113,#1114,#1115,#1116,#1117,
#1118,#1119,#1120,#1121,#1122,#1123,#1124,#1125,#1126,#1127,#1128,#1129),
 .UNSPECIFIED.,.F.,.F.,(4,2,2,2,2,2,2,2,2,2,2,2,2,2,4),(0.591652242452235,
0.77046687074435,0.949281499036465,1.09397357799726,1.16631961747766,1.23866565695806,
1.31101169643846,1.38335773591886,1.52804981487966,1.70686444317177,1.88567907146389,
2.04137736849943,2.19707566553497,2.33720348972555,2.47733131391612),
 .UNSPECIFIED.);
#29=B_SPLINE_CURVE_WITH_KNOTS('',3,(#1134,#1135,#1136,#1137,#1138,#1139,
#1140,#1141,#1142,#1143),.UNSPECIFIED.,.F.,.F.,(4,2,2,2,4),(0.,0.140127824190575,
0.280255648381151,0.435953945416693,0.591652242452235),.UNSPECIFIED.);
#30=B_SPLINE_CURVE_WITH_KNOTS('',3,(#1144,#1145,#1146,#1147,#1148,#1149,
#1150,#1151,#1152,#1153,#1154,#1155,#1156,#1157,#1158,#1159,#1160,#1161,
#1162,#1163,#1164,#1165,#1166,#1167,#1168,#1169,#1170,#1171,#1172,#1173),
 .UNSPECIFIED.,.F.,.F.,(4,2,2,2,2,2,2,2,2,2,2,2,2,2,4),(0.591652242452235,
0.77046687074435,0.949281499036465,1.09397357799726,1.16631961747766,1.23866565695806,
1.31101169643846,1.38335773591886,1.52804981487966,1.70686444317177,1.88567907146389,
2.04137736849943,2.19707566553497,2.33720348972555,2.47733131391612),
 .UNSPECIFIED.);
#31=B_SPLINE_CURVE_WITH_KNOTS('',3,(#1231,#1232,#1233,#1234,#1235,#1236,
#1237),.UNSPECIFIED.,.F.,.F.,(4,1,1,1,4),(0.10053002228759,0.80045963126777,
1.15042443575786,1.85035404473804,2.55028365371822),.UNSPECIFIED.);
#32=B_SPLINE_CURVE_WITH_KNOTS('',3,(#1240,#1241,#1242,#1243,#1244,#1245,
#1246),.UNSPECIFIED.,.F.,.F.,(4,1,1,1,4),(-2.55028365371822,-1.85035404473804,
-1.15042443575786,-0.80045963126777,-0.10053002228759),.UNSPECIFIED.);
#33=B_SPLINE_CURVE_WITH_KNOTS('',3,(#1283,#1284,#1285,#1286,#1287,#1288),
 .UNSPECIFIED.,.F.,.F.,(4,1,1,4),(-2.44975363143061,-1.74982402245043,-1.04989441347026,
0.),.UNSPECIFIED.);
#34=B_SPLINE_CURVE_WITH_KNOTS('',3,(#1289,#1290,#1291,#1292,#1293,#1294),
 .UNSPECIFIED.,.F.,.F.,(4,1,1,4),(0.,1.04989441347026,1.74982402245043,
2.44975363143061),.UNSPECIFIED.);
#35=B_SPLINE_CURVE_WITH_KNOTS('',3,(#1298,#1299,#1300,#1301,#1302,#1303,
#1304,#1305,#1306,#1307),.UNSPECIFIED.,.F.,.F.,(4,2,2,2,4),(0.157816576473945,
0.175605984593469,0.194573039779617,0.215028419338112,0.236758850093605),
 .UNSPECIFIED.);
#36=B_SPLINE_CURVE_WITH_KNOTS('',3,(#1323,#1324,#1325,#1326,#1327,#1328,
#1329,#1330,#1331,#1332),.UNSPECIFIED.,.F.,.F.,(4,2,2,2,4),(0.394507455802175,
0.416237886557666,0.436693266116162,0.45566032130231,0.473449729421834),
 .UNSPECIFIED.);
#37=B_SPLINE_CURVE_WITH_KNOTS('',3,(#1371,#1372,#1373,#1374,#1375,#1376,
#1377),.UNSPECIFIED.,.F.,.F.,(4,1,1,1,4),(0.100530022287591,0.800459631267771,
1.15042443575786,1.85035404473804,2.55028365371822),.UNSPECIFIED.);
#38=B_SPLINE_CURVE_WITH_KNOTS('',3,(#1380,#1381,#1382,#1383,#1384,#1385,
#1386),.UNSPECIFIED.,.F.,.F.,(4,1,1,1,4),(-2.55028365371822,-1.85035404473804,
-1.15042443575786,-0.800459631267771,-0.100530022287591),.UNSPECIFIED.);
#39=B_SPLINE_CURVE_WITH_KNOTS('',3,(#1423,#1424,#1425,#1426,#1427,#1428),
 .UNSPECIFIED.,.F.,.F.,(4,1,1,4),(-2.44975363143061,-1.74982402245043,-1.04989441347026,
0.),.UNSPECIFIED.);
#40=B_SPLINE_CURVE_WITH_KNOTS('',3,(#1429,#1430,#1431,#1432,#1433,#1434),
 .UNSPECIFIED.,.F.,.F.,(4,1,1,4),(0.,1.04989441347026,1.74982402245043,
2.44975363143061),.UNSPECIFIED.);
#41=B_SPLINE_CURVE_WITH_KNOTS('',3,(#1438,#1439,#1440,#1441,#1442,#1443,
#1444,#1445,#1446,#1447),.UNSPECIFIED.,.F.,.F.,(4,2,2,2,4),(0.157816576473945,
0.175605984593469,0.194573039779617,0.215028419338113,0.236758850093605),
 .UNSPECIFIED.);
#42=B_SPLINE_CURVE_WITH_KNOTS('',3,(#1456,#1457,#1458,#1459,#1460,#1461,
#1462,#1463,#1464,#1465),.UNSPECIFIED.,.F.,.F.,(4,2,2,2,4),(0.394507455802174,
0.416237886557665,0.436693266116161,0.455660321302309,0.473449729421833),
 .UNSPECIFIED.);
#43=FACE_BOUND('',#171,.T.);
#44=FACE_BOUND('',#174,.T.);
#45=FACE_BOUND('',#195,.T.);
#46=FACE_BOUND('',#196,.T.);
#47=FACE_BOUND('',#204,.T.);
#48=FACE_BOUND('',#205,.T.);
#49=FACE_BOUND('',#207,.T.);
#50=FACE_BOUND('',#208,.T.);
#51=FACE_BOUND('',#210,.T.);
#52=FACE_BOUND('',#211,.T.);
#53=STYLED_ITEM('',(#1551),#56);
#54=STYLED_ITEM('',(#1551),#57);
#55=STYLED_ITEM('',(#1551),#58);
#56=MANIFOLD_SOLID_BREP('Corps9',#725);
#57=MANIFOLD_SOLID_BREP('Corps12',#726);
#58=MANIFOLD_SOLID_BREP('Corps14',#727);
#59=CIRCLE('',#743,3.75);
#60=CIRCLE('',#744,3.75);
#61=CIRCLE('',#750,1.5);
#62=CIRCLE('',#751,1.5);
#63=CIRCLE('',#753,3.75);
#64=CIRCLE('',#755,1.5);
#65=CIRCLE('',#756,1.5);
#66=CIRCLE('',#758,3.75);
#67=CIRCLE('',#762,0.500000000000001);
#68=CIRCLE('',#763,0.500000000000003);
#69=CIRCLE('',#764,0.500000000000014);
#70=CIRCLE('',#766,0.500000000000005);
#71=CIRCLE('',#767,0.5);
#72=CIRCLE('',#768,0.5);
#73=CIRCLE('',#770,0.500000000000001);
#74=CIRCLE('',#771,0.500000000000006);
#75=CIRCLE('',#772,0.5);
#76=CIRCLE('',#773,0.500000000000006);
#77=CIRCLE('',#775,0.500000000000001);
#78=CIRCLE('',#776,75.3198347107438);
#79=CIRCLE('',#777,74.8198347107438);
#80=CIRCLE('',#779,75.3198347107438);
#81=CIRCLE('',#780,74.8198347107438);
#82=CIRCLE('',#782,0.499999999999996);
#83=CIRCLE('',#783,0.500000000000003);
#84=CIRCLE('',#784,0.500000000000004);
#85=CIRCLE('',#787,74.8198347107438);
#86=CIRCLE('',#788,75.3198347107438);
#87=CIRCLE('',#789,0.499999999999997);
#88=CIRCLE('',#791,0.500000000000001);
#89=CIRCLE('',#792,75.3198347107438);
#90=CIRCLE('',#793,74.8198347107438);
#91=CIRCLE('',#795,75.3198347107438);
#92=CIRCLE('',#796,74.8198347107438);
#93=CIRCLE('',#799,74.8198347107438);
#94=CIRCLE('',#800,75.3198347107438);
#95=CIRCLE('',#803,2.75);
#96=CIRCLE('',#804,2.74999999999999);
#97=CIRCLE('',#808,74.8198347107438);
#98=CIRCLE('',#810,2.74999999999999);
#99=CIRCLE('',#812,2.75);
#100=CIRCLE('',#814,74.8198347107438);
#101=CIRCLE('',#821,3.75);
#102=CIRCLE('',#822,3.75);
#103=CYLINDRICAL_SURFACE('',#742,3.75);
#104=CYLINDRICAL_SURFACE('',#749,1.5);
#105=CYLINDRICAL_SURFACE('',#754,1.5);
#106=CYLINDRICAL_SURFACE('',#759,3.75);
#107=CYLINDRICAL_SURFACE('',#760,3.75);
#108=CYLINDRICAL_SURFACE('',#785,0.5);
#109=CYLINDRICAL_SURFACE('',#797,0.5);
#110=CYLINDRICAL_SURFACE('',#801,15.);
#111=CYLINDRICAL_SURFACE('',#807,74.8198347107438);
#112=CYLINDRICAL_SURFACE('',#809,2.74999999999999);
#113=CYLINDRICAL_SURFACE('',#811,2.75);
#114=CYLINDRICAL_SURFACE('',#813,74.8198347107438);
#115=CYLINDRICAL_SURFACE('',#817,15.);
#116=CYLINDRICAL_SURFACE('',#820,3.75);
#117=FACE_OUTER_BOUND('',#163,.T.);
#118=FACE_OUTER_BOUND('',#164,.T.);
#119=FACE_OUTER_BOUND('',#165,.T.);
#120=FACE_OUTER_BOUND('',#166,.T.);
#121=FACE_OUTER_BOUND('',#167,.T.);
#122=FACE_OUTER_BOUND('',#168,.T.);
#123=FACE_OUTER_BOUND('',#169,.T.);
#124=FACE_OUTER_BOUND('',#170,.T.);
#125=FACE_OUTER_BOUND('',#172,.T.);
#126=FACE_OUTER_BOUND('',#173,.T.);
#127=FACE_OUTER_BOUND('',#175,.T.);
#128=FACE_OUTER_BOUND('',#176,.T.);
#129=FACE_OUTER_BOUND('',#177,.T.);
#130=FACE_OUTER_BOUND('',#178,.T.);
#131=FACE_OUTER_BOUND('',#179,.T.);
#132=FACE_OUTER_BOUND('',#180,.T.);
#133=FACE_OUTER_BOUND('',#181,.T.);
#134=FACE_OUTER_BOUND('',#182,.T.);
#135=FACE_OUTER_BOUND('',#183,.T.);
#136=FACE_OUTER_BOUND('',#184,.T.);
#137=FACE_OUTER_BOUND('',#185,.T.);
#138=FACE_OUTER_BOUND('',#186,.T.);
#139=FACE_OUTER_BOUND('',#187,.T.);
#140=FACE_OUTER_BOUND('',#188,.T.);
#141=FACE_OUTER_BOUND('',#189,.T.);
#142=FACE_OUTER_BOUND('',#190,.T.);
#143=FACE_OUTER_BOUND('',#191,.T.);
#144=FACE_OUTER_BOUND('',#192,.T.);
#145=FACE_OUTER_BOUND('',#193,.T.);
#146=FACE_OUTER_BOUND('',#194,.T.);
#147=FACE_OUTER_BOUND('',#197,.T.);
#148=FACE_OUTER_BOUND('',#198,.T.);
#149=FACE_OUTER_BOUND('',#199,.T.);
#150=FACE_OUTER_BOUND('',#200,.T.);
#151=FACE_OUTER_BOUND('',#201,.T.);
#152=FACE_OUTER_BOUND('',#202,.T.);
#153=FACE_OUTER_BOUND('',#203,.T.);
#154=FACE_OUTER_BOUND('',#206,.T.);
#155=FACE_OUTER_BOUND('',#209,.T.);
#156=FACE_OUTER_BOUND('',#212,.T.);
#157=FACE_OUTER_BOUND('',#213,.T.);
#158=FACE_OUTER_BOUND('',#214,.T.);
#159=FACE_OUTER_BOUND('',#215,.T.);
#160=FACE_OUTER_BOUND('',#216,.T.);
#161=FACE_OUTER_BOUND('',#217,.T.);
#162=FACE_OUTER_BOUND('',#218,.T.);
#163=EDGE_LOOP('',(#461,#462,#463,#464));
#164=EDGE_LOOP('',(#465,#466,#467,#468));
#165=EDGE_LOOP('',(#469,#470,#471,#472));
#166=EDGE_LOOP('',(#473,#474,#475,#476));
#167=EDGE_LOOP('',(#477,#478,#479,#480));
#168=EDGE_LOOP('',(#481,#482,#483,#484));
#169=EDGE_LOOP('',(#485,#486,#487,#488));
#170=EDGE_LOOP('',(#489));
#171=EDGE_LOOP('',(#490));
#172=EDGE_LOOP('',(#491,#492,#493,#494));
#173=EDGE_LOOP('',(#495));
#174=EDGE_LOOP('',(#496));
#175=EDGE_LOOP('',(#497,#498,#499,#500,#501));
#176=EDGE_LOOP('',(#502,#503,#504,#505,#506));
#177=EDGE_LOOP('',(#507,#508,#509));
#178=EDGE_LOOP('',(#510,#511,#512));
#179=EDGE_LOOP('',(#513,#514,#515));
#180=EDGE_LOOP('',(#516,#517,#518,#519));
#181=EDGE_LOOP('',(#520,#521,#522,#523));
#182=EDGE_LOOP('',(#524,#525,#526,#527));
#183=EDGE_LOOP('',(#528,#529,#530,#531));
#184=EDGE_LOOP('',(#532,#533,#534));
#185=EDGE_LOOP('',(#535,#536,#537,#538));
#186=EDGE_LOOP('',(#539,#540,#541,#542));
#187=EDGE_LOOP('',(#543,#544,#545,#546));
#188=EDGE_LOOP('',(#547,#548,#549,#550));
#189=EDGE_LOOP('',(#551,#552,#553,#554));
#190=EDGE_LOOP('',(#555,#556,#557,#558));
#191=EDGE_LOOP('',(#559,#560,#561,#562));
#192=EDGE_LOOP('',(#563,#564,#565,#566));
#193=EDGE_LOOP('',(#567,#568,#569,#570));
#194=EDGE_LOOP('',(#571,#572,#573,#574));
#195=EDGE_LOOP('',(#575));
#196=EDGE_LOOP('',(#576));
#197=EDGE_LOOP('',(#577,#578,#579,#580));
#198=EDGE_LOOP('',(#581,#582,#583,#584,#585,#586));
#199=EDGE_LOOP('',(#587,#588,#589,#590,#591,#592,#593,#594));
#200=EDGE_LOOP('',(#595,#596,#597,#598));
#201=EDGE_LOOP('',(#599,#600,#601,#602));
#202=EDGE_LOOP('',(#603,#604,#605,#606,#607,#608,#609,#610));
#203=EDGE_LOOP('',(#611,#612,#613,#614));
#204=EDGE_LOOP('',(#615));
#205=EDGE_LOOP('',(#616));
#206=EDGE_LOOP('',(#617,#618,#619,#620,#621,#622));
#207=EDGE_LOOP('',(#623));
#208=EDGE_LOOP('',(#624));
#209=EDGE_LOOP('',(#625,#626,#627,#628));
#210=EDGE_LOOP('',(#629,#630));
#211=EDGE_LOOP('',(#631,#632));
#212=EDGE_LOOP('',(#633,#634,#635,#636));
#213=EDGE_LOOP('',(#637,#638,#639,#640));
#214=EDGE_LOOP('',(#641,#642,#643,#644));
#215=EDGE_LOOP('',(#645,#646,#647,#648));
#216=EDGE_LOOP('',(#649,#650,#651,#652));
#217=EDGE_LOOP('',(#653,#654,#655,#656));
#218=EDGE_LOOP('',(#657,#658,#659,#660));
#219=LINE('',#1045,#259);
#220=LINE('',#1047,#260);
#221=LINE('',#1049,#261);
#222=LINE('',#1050,#262);
#223=LINE('',#1055,#263);
#224=LINE('',#1059,#264);
#225=LINE('',#1061,#265);
#226=LINE('',#1062,#266);
#227=LINE('',#1064,#267);
#228=LINE('',#1066,#268);
#229=LINE('',#1072,#269);
#230=LINE('',#1081,#270);
#231=LINE('',#1088,#271);
#232=LINE('',#1132,#272);
#233=LINE('',#1318,#273);
#234=LINE('',#1319,#274);
#235=LINE('',#1451,#275);
#236=LINE('',#1452,#276);
#237=LINE('',#1469,#277);
#238=LINE('',#1471,#278);
#239=LINE('',#1477,#279);
#240=LINE('',#1480,#280);
#241=LINE('',#1482,#281);
#242=LINE('',#1483,#282);
#243=LINE('',#1486,#283);
#244=LINE('',#1491,#284);
#245=LINE('',#1495,#285);
#246=LINE('',#1499,#286);
#247=LINE('',#1501,#287);
#248=LINE('',#1503,#288);
#249=LINE('',#1509,#289);
#250=LINE('',#1511,#290);
#251=LINE('',#1513,#291);
#252=LINE('',#1514,#292);
#253=LINE('',#1519,#293);
#254=LINE('',#1523,#294);
#255=LINE('',#1525,#295);
#256=LINE('',#1526,#296);
#257=LINE('',#1528,#297);
#258=LINE('',#1530,#298);
#259=VECTOR('',#831,10.);
#260=VECTOR('',#832,10.);
#261=VECTOR('',#833,10.);
#262=VECTOR('',#834,10.);
#263=VECTOR('',#839,10.);
#264=VECTOR('',#844,10.);
#265=VECTOR('',#845,10.);
#266=VECTOR('',#846,10.);
#267=VECTOR('',#849,10.);
#268=VECTOR('',#852,10.);
#269=VECTOR('',#859,1.5);
#270=VECTOR('',#870,1.5);
#271=VECTOR('',#879,3.75);
#272=VECTOR('',#882,3.75);
#273=VECTOR('',#933,10.);
#274=VECTOR('',#934,10.);
#275=VECTOR('',#959,10.);
#276=VECTOR('',#960,10.);
#277=VECTOR('',#969,10.);
#278=VECTOR('',#972,10.);
#279=VECTOR('',#979,10.);
#280=VECTOR('',#982,10.);
#281=VECTOR('',#983,10.);
#282=VECTOR('',#984,10.);
#283=VECTOR('',#987,10.);
#284=VECTOR('',#994,2.74999999999999);
#285=VECTOR('',#999,2.75);
#286=VECTOR('',#1004,10.);
#287=VECTOR('',#1007,10.);
#288=VECTOR('',#1010,10.);
#289=VECTOR('',#1017,10.);
#290=VECTOR('',#1018,10.);
#291=VECTOR('',#1019,10.);
#292=VECTOR('',#1020,10.);
#293=VECTOR('',#1025,10.);
#294=VECTOR('',#1030,10.);
#295=VECTOR('',#1031,10.);
#296=VECTOR('',#1032,10.);
#297=VECTOR('',#1035,10.);
#298=VECTOR('',#1038,10.);
#299=VERTEX_POINT('',#1043);
#300=VERTEX_POINT('',#1044);
#301=VERTEX_POINT('',#1046);
#302=VERTEX_POINT('',#1048);
#303=VERTEX_POINT('',#1052);
#304=VERTEX_POINT('',#1054);
#305=VERTEX_POINT('',#1058);
#306=VERTEX_POINT('',#1060);
#307=VERTEX_POINT('',#1069);
#308=VERTEX_POINT('',#1071);
#309=VERTEX_POINT('',#1075);
#310=VERTEX_POINT('',#1078);
#311=VERTEX_POINT('',#1080);
#312=VERTEX_POINT('',#1084);
#313=VERTEX_POINT('',#1087);
#314=VERTEX_POINT('',#1089);
#315=VERTEX_POINT('',#1131);
#316=VERTEX_POINT('',#1133);
#317=VERTEX_POINT('',#1175);
#318=VERTEX_POINT('',#1176);
#319=VERTEX_POINT('',#1178);
#320=VERTEX_POINT('',#1182);
#321=VERTEX_POINT('',#1183);
#322=VERTEX_POINT('',#1185);
#323=VERTEX_POINT('',#1189);
#324=VERTEX_POINT('',#1190);
#325=VERTEX_POINT('',#1192);
#326=VERTEX_POINT('',#1230);
#327=VERTEX_POINT('',#1238);
#328=VERTEX_POINT('',#1248);
#329=VERTEX_POINT('',#1249);
#330=VERTEX_POINT('',#1296);
#331=VERTEX_POINT('',#1297);
#332=VERTEX_POINT('',#1311);
#333=VERTEX_POINT('',#1312);
#334=VERTEX_POINT('',#1314);
#335=VERTEX_POINT('',#1321);
#336=VERTEX_POINT('',#1322);
#337=VERTEX_POINT('',#1370);
#338=VERTEX_POINT('',#1378);
#339=VERTEX_POINT('',#1388);
#340=VERTEX_POINT('',#1389);
#341=VERTEX_POINT('',#1436);
#342=VERTEX_POINT('',#1437);
#343=VERTEX_POINT('',#1454);
#344=VERTEX_POINT('',#1455);
#345=VERTEX_POINT('',#1472);
#346=VERTEX_POINT('',#1474);
#347=VERTEX_POINT('',#1479);
#348=VERTEX_POINT('',#1481);
#349=VERTEX_POINT('',#1485);
#350=VERTEX_POINT('',#1489);
#351=VERTEX_POINT('',#1493);
#352=VERTEX_POINT('',#1497);
#353=VERTEX_POINT('',#1507);
#354=VERTEX_POINT('',#1508);
#355=VERTEX_POINT('',#1510);
#356=VERTEX_POINT('',#1512);
#357=VERTEX_POINT('',#1516);
#358=VERTEX_POINT('',#1518);
#359=VERTEX_POINT('',#1522);
#360=VERTEX_POINT('',#1524);
#361=EDGE_CURVE('',#299,#300,#219,.T.);
#362=EDGE_CURVE('',#299,#301,#220,.T.);
#363=EDGE_CURVE('',#302,#301,#221,.T.);
#364=EDGE_CURVE('',#302,#300,#222,.T.);
#365=EDGE_CURVE('',#303,#299,#59,.T.);
#366=EDGE_CURVE('',#303,#304,#223,.T.);
#367=EDGE_CURVE('',#301,#304,#60,.T.);
#368=EDGE_CURVE('',#305,#303,#224,.T.);
#369=EDGE_CURVE('',#305,#306,#225,.T.);
#370=EDGE_CURVE('',#304,#306,#226,.T.);
#371=EDGE_CURVE('',#306,#302,#227,.T.);
#372=EDGE_CURVE('',#300,#305,#228,.T.);
#373=EDGE_CURVE('',#307,#307,#61,.T.);
#374=EDGE_CURVE('',#307,#308,#229,.T.);
#375=EDGE_CURVE('',#308,#308,#62,.T.);
#376=EDGE_CURVE('',#309,#309,#63,.T.);
#377=EDGE_CURVE('',#310,#310,#64,.T.);
#378=EDGE_CURVE('',#310,#311,#230,.T.);
#379=EDGE_CURVE('',#311,#311,#65,.T.);
#380=EDGE_CURVE('',#312,#312,#66,.T.);
#381=EDGE_CURVE('',#309,#313,#231,.T.);
#382=EDGE_CURVE('',#314,#313,#27,.T.);
#383=EDGE_CURVE('',#313,#314,#28,.T.);
#384=EDGE_CURVE('',#312,#315,#232,.T.);
#385=EDGE_CURVE('',#316,#315,#29,.T.);
#386=EDGE_CURVE('',#315,#316,#30,.T.);
#387=EDGE_CURVE('',#317,#318,#67,.F.);
#388=EDGE_CURVE('',#319,#317,#68,.F.);
#389=EDGE_CURVE('',#318,#319,#69,.F.);
#390=EDGE_CURVE('',#320,#321,#70,.F.);
#391=EDGE_CURVE('',#322,#320,#71,.F.);
#392=EDGE_CURVE('',#321,#322,#72,.F.);
#393=EDGE_CURVE('',#323,#324,#73,.F.);
#394=EDGE_CURVE('',#325,#323,#74,.F.);
#395=EDGE_CURVE('',#324,#325,#75,.F.);
#396=EDGE_CURVE('',#318,#326,#31,.T.);
#397=EDGE_CURVE('',#326,#327,#76,.T.);
#398=EDGE_CURVE('',#327,#317,#32,.T.);
#399=EDGE_CURVE('',#328,#329,#77,.T.);
#400=EDGE_CURVE('',#329,#327,#78,.T.);
#401=EDGE_CURVE('',#326,#328,#79,.T.);
#402=EDGE_CURVE('',#323,#329,#33,.T.);
#403=EDGE_CURVE('',#328,#325,#34,.T.);
#404=EDGE_CURVE('',#330,#331,#35,.T.);
#405=EDGE_CURVE('',#331,#324,#80,.T.);
#406=EDGE_CURVE('',#325,#330,#81,.T.);
#407=EDGE_CURVE('',#332,#333,#82,.F.);
#408=EDGE_CURVE('',#334,#332,#83,.F.);
#409=EDGE_CURVE('',#333,#334,#84,.F.);
#410=EDGE_CURVE('',#324,#334,#233,.T.);
#411=EDGE_CURVE('',#332,#323,#234,.T.);
#412=EDGE_CURVE('',#335,#336,#36,.T.);
#413=EDGE_CURVE('',#336,#333,#85,.T.);
#414=EDGE_CURVE('',#334,#335,#86,.T.);
#415=EDGE_CURVE('',#333,#337,#37,.T.);
#416=EDGE_CURVE('',#337,#338,#87,.T.);
#417=EDGE_CURVE('',#338,#332,#38,.T.);
#418=EDGE_CURVE('',#339,#340,#88,.T.);
#419=EDGE_CURVE('',#340,#338,#89,.T.);
#420=EDGE_CURVE('',#337,#339,#90,.T.);
#421=EDGE_CURVE('',#320,#340,#39,.T.);
#422=EDGE_CURVE('',#339,#322,#40,.T.);
#423=EDGE_CURVE('',#341,#342,#41,.T.);
#424=EDGE_CURVE('',#342,#321,#91,.T.);
#425=EDGE_CURVE('',#322,#341,#92,.T.);
#426=EDGE_CURVE('',#321,#319,#235,.T.);
#427=EDGE_CURVE('',#317,#320,#236,.T.);
#428=EDGE_CURVE('',#343,#344,#42,.T.);
#429=EDGE_CURVE('',#344,#318,#93,.T.);
#430=EDGE_CURVE('',#319,#343,#94,.T.);
#431=EDGE_CURVE('',#327,#340,#237,.T.);
#432=EDGE_CURVE('',#338,#329,#238,.T.);
#433=EDGE_CURVE('',#345,#345,#95,.T.);
#434=EDGE_CURVE('',#346,#346,#96,.T.);
#435=EDGE_CURVE('',#342,#343,#239,.T.);
#436=EDGE_CURVE('',#341,#347,#240,.T.);
#437=EDGE_CURVE('',#347,#348,#241,.T.);
#438=EDGE_CURVE('',#348,#344,#242,.T.);
#439=EDGE_CURVE('',#349,#336,#243,.T.);
#440=EDGE_CURVE('',#347,#349,#97,.T.);
#441=EDGE_CURVE('',#350,#350,#98,.T.);
#442=EDGE_CURVE('',#350,#346,#244,.T.);
#443=EDGE_CURVE('',#351,#351,#99,.T.);
#444=EDGE_CURVE('',#351,#345,#245,.T.);
#445=EDGE_CURVE('',#352,#348,#100,.T.);
#446=EDGE_CURVE('',#330,#352,#246,.T.);
#447=EDGE_CURVE('',#349,#352,#247,.T.);
#448=EDGE_CURVE('',#331,#335,#248,.T.);
#449=EDGE_CURVE('',#353,#354,#249,.T.);
#450=EDGE_CURVE('',#353,#355,#250,.T.);
#451=EDGE_CURVE('',#356,#355,#251,.T.);
#452=EDGE_CURVE('',#356,#354,#252,.T.);
#453=EDGE_CURVE('',#357,#353,#101,.T.);
#454=EDGE_CURVE('',#357,#358,#253,.T.);
#455=EDGE_CURVE('',#355,#358,#102,.T.);
#456=EDGE_CURVE('',#359,#357,#254,.T.);
#457=EDGE_CURVE('',#359,#360,#255,.T.);
#458=EDGE_CURVE('',#358,#360,#256,.T.);
#459=EDGE_CURVE('',#360,#356,#257,.T.);
#460=EDGE_CURVE('',#354,#359,#258,.T.);
#461=ORIENTED_EDGE('',*,*,#361,.F.);
#462=ORIENTED_EDGE('',*,*,#362,.T.);
#463=ORIENTED_EDGE('',*,*,#363,.F.);
#464=ORIENTED_EDGE('',*,*,#364,.T.);
#465=ORIENTED_EDGE('',*,*,#365,.F.);
#466=ORIENTED_EDGE('',*,*,#366,.T.);
#467=ORIENTED_EDGE('',*,*,#367,.F.);
#468=ORIENTED_EDGE('',*,*,#362,.F.);
#469=ORIENTED_EDGE('',*,*,#368,.F.);
#470=ORIENTED_EDGE('',*,*,#369,.T.);
#471=ORIENTED_EDGE('',*,*,#370,.F.);
#472=ORIENTED_EDGE('',*,*,#366,.F.);
#473=ORIENTED_EDGE('',*,*,#363,.T.);
#474=ORIENTED_EDGE('',*,*,#367,.T.);
#475=ORIENTED_EDGE('',*,*,#370,.T.);
#476=ORIENTED_EDGE('',*,*,#371,.T.);
#477=ORIENTED_EDGE('',*,*,#361,.T.);
#478=ORIENTED_EDGE('',*,*,#372,.T.);
#479=ORIENTED_EDGE('',*,*,#368,.T.);
#480=ORIENTED_EDGE('',*,*,#365,.T.);
#481=ORIENTED_EDGE('',*,*,#372,.F.);
#482=ORIENTED_EDGE('',*,*,#364,.F.);
#483=ORIENTED_EDGE('',*,*,#371,.F.);
#484=ORIENTED_EDGE('',*,*,#369,.F.);
#485=ORIENTED_EDGE('',*,*,#373,.F.);
#486=ORIENTED_EDGE('',*,*,#374,.T.);
#487=ORIENTED_EDGE('',*,*,#375,.F.);
#488=ORIENTED_EDGE('',*,*,#374,.F.);
#489=ORIENTED_EDGE('',*,*,#376,.F.);
#490=ORIENTED_EDGE('',*,*,#373,.T.);
#491=ORIENTED_EDGE('',*,*,#377,.F.);
#492=ORIENTED_EDGE('',*,*,#378,.T.);
#493=ORIENTED_EDGE('',*,*,#379,.F.);
#494=ORIENTED_EDGE('',*,*,#378,.F.);
#495=ORIENTED_EDGE('',*,*,#380,.F.);
#496=ORIENTED_EDGE('',*,*,#377,.T.);
#497=ORIENTED_EDGE('',*,*,#376,.T.);
#498=ORIENTED_EDGE('',*,*,#381,.T.);
#499=ORIENTED_EDGE('',*,*,#382,.F.);
#500=ORIENTED_EDGE('',*,*,#383,.F.);
#501=ORIENTED_EDGE('',*,*,#381,.F.);
#502=ORIENTED_EDGE('',*,*,#380,.T.);
#503=ORIENTED_EDGE('',*,*,#384,.T.);
#504=ORIENTED_EDGE('',*,*,#385,.F.);
#505=ORIENTED_EDGE('',*,*,#386,.F.);
#506=ORIENTED_EDGE('',*,*,#384,.F.);
#507=ORIENTED_EDGE('',*,*,#387,.F.);
#508=ORIENTED_EDGE('',*,*,#388,.F.);
#509=ORIENTED_EDGE('',*,*,#389,.F.);
#510=ORIENTED_EDGE('',*,*,#390,.F.);
#511=ORIENTED_EDGE('',*,*,#391,.F.);
#512=ORIENTED_EDGE('',*,*,#392,.F.);
#513=ORIENTED_EDGE('',*,*,#393,.F.);
#514=ORIENTED_EDGE('',*,*,#394,.F.);
#515=ORIENTED_EDGE('',*,*,#395,.F.);
#516=ORIENTED_EDGE('',*,*,#387,.T.);
#517=ORIENTED_EDGE('',*,*,#396,.T.);
#518=ORIENTED_EDGE('',*,*,#397,.T.);
#519=ORIENTED_EDGE('',*,*,#398,.T.);
#520=ORIENTED_EDGE('',*,*,#399,.T.);
#521=ORIENTED_EDGE('',*,*,#400,.T.);
#522=ORIENTED_EDGE('',*,*,#397,.F.);
#523=ORIENTED_EDGE('',*,*,#401,.T.);
#524=ORIENTED_EDGE('',*,*,#394,.T.);
#525=ORIENTED_EDGE('',*,*,#402,.T.);
#526=ORIENTED_EDGE('',*,*,#399,.F.);
#527=ORIENTED_EDGE('',*,*,#403,.T.);
#528=ORIENTED_EDGE('',*,*,#404,.T.);
#529=ORIENTED_EDGE('',*,*,#405,.T.);
#530=ORIENTED_EDGE('',*,*,#395,.T.);
#531=ORIENTED_EDGE('',*,*,#406,.T.);
#532=ORIENTED_EDGE('',*,*,#407,.F.);
#533=ORIENTED_EDGE('',*,*,#408,.F.);
#534=ORIENTED_EDGE('',*,*,#409,.F.);
#535=ORIENTED_EDGE('',*,*,#393,.T.);
#536=ORIENTED_EDGE('',*,*,#410,.T.);
#537=ORIENTED_EDGE('',*,*,#408,.T.);
#538=ORIENTED_EDGE('',*,*,#411,.T.);
#539=ORIENTED_EDGE('',*,*,#412,.T.);
#540=ORIENTED_EDGE('',*,*,#413,.T.);
#541=ORIENTED_EDGE('',*,*,#409,.T.);
#542=ORIENTED_EDGE('',*,*,#414,.T.);
#543=ORIENTED_EDGE('',*,*,#407,.T.);
#544=ORIENTED_EDGE('',*,*,#415,.T.);
#545=ORIENTED_EDGE('',*,*,#416,.T.);
#546=ORIENTED_EDGE('',*,*,#417,.T.);
#547=ORIENTED_EDGE('',*,*,#418,.T.);
#548=ORIENTED_EDGE('',*,*,#419,.T.);
#549=ORIENTED_EDGE('',*,*,#416,.F.);
#550=ORIENTED_EDGE('',*,*,#420,.T.);
#551=ORIENTED_EDGE('',*,*,#391,.T.);
#552=ORIENTED_EDGE('',*,*,#421,.T.);
#553=ORIENTED_EDGE('',*,*,#418,.F.);
#554=ORIENTED_EDGE('',*,*,#422,.T.);
#555=ORIENTED_EDGE('',*,*,#423,.T.);
#556=ORIENTED_EDGE('',*,*,#424,.T.);
#557=ORIENTED_EDGE('',*,*,#392,.T.);
#558=ORIENTED_EDGE('',*,*,#425,.T.);
#559=ORIENTED_EDGE('',*,*,#390,.T.);
#560=ORIENTED_EDGE('',*,*,#426,.T.);
#561=ORIENTED_EDGE('',*,*,#388,.T.);
#562=ORIENTED_EDGE('',*,*,#427,.T.);
#563=ORIENTED_EDGE('',*,*,#428,.T.);
#564=ORIENTED_EDGE('',*,*,#429,.T.);
#565=ORIENTED_EDGE('',*,*,#389,.T.);
#566=ORIENTED_EDGE('',*,*,#430,.T.);
#567=ORIENTED_EDGE('',*,*,#421,.F.);
#568=ORIENTED_EDGE('',*,*,#427,.F.);
#569=ORIENTED_EDGE('',*,*,#398,.F.);
#570=ORIENTED_EDGE('',*,*,#431,.T.);
#571=ORIENTED_EDGE('',*,*,#419,.F.);
#572=ORIENTED_EDGE('',*,*,#431,.F.);
#573=ORIENTED_EDGE('',*,*,#400,.F.);
#574=ORIENTED_EDGE('',*,*,#432,.F.);
#575=ORIENTED_EDGE('',*,*,#433,.T.);
#576=ORIENTED_EDGE('',*,*,#434,.T.);
#577=ORIENTED_EDGE('',*,*,#430,.F.);
#578=ORIENTED_EDGE('',*,*,#426,.F.);
#579=ORIENTED_EDGE('',*,*,#424,.F.);
#580=ORIENTED_EDGE('',*,*,#435,.T.);
#581=ORIENTED_EDGE('',*,*,#428,.F.);
#582=ORIENTED_EDGE('',*,*,#435,.F.);
#583=ORIENTED_EDGE('',*,*,#423,.F.);
#584=ORIENTED_EDGE('',*,*,#436,.T.);
#585=ORIENTED_EDGE('',*,*,#437,.T.);
#586=ORIENTED_EDGE('',*,*,#438,.T.);
#587=ORIENTED_EDGE('',*,*,#425,.F.);
#588=ORIENTED_EDGE('',*,*,#422,.F.);
#589=ORIENTED_EDGE('',*,*,#420,.F.);
#590=ORIENTED_EDGE('',*,*,#415,.F.);
#591=ORIENTED_EDGE('',*,*,#413,.F.);
#592=ORIENTED_EDGE('',*,*,#439,.F.);
#593=ORIENTED_EDGE('',*,*,#440,.F.);
#594=ORIENTED_EDGE('',*,*,#436,.F.);
#595=ORIENTED_EDGE('',*,*,#441,.F.);
#596=ORIENTED_EDGE('',*,*,#442,.T.);
#597=ORIENTED_EDGE('',*,*,#434,.F.);
#598=ORIENTED_EDGE('',*,*,#442,.F.);
#599=ORIENTED_EDGE('',*,*,#443,.F.);
#600=ORIENTED_EDGE('',*,*,#444,.T.);
#601=ORIENTED_EDGE('',*,*,#433,.F.);
#602=ORIENTED_EDGE('',*,*,#444,.F.);
#603=ORIENTED_EDGE('',*,*,#429,.F.);
#604=ORIENTED_EDGE('',*,*,#438,.F.);
#605=ORIENTED_EDGE('',*,*,#445,.F.);
#606=ORIENTED_EDGE('',*,*,#446,.F.);
#607=ORIENTED_EDGE('',*,*,#406,.F.);
#608=ORIENTED_EDGE('',*,*,#403,.F.);
#609=ORIENTED_EDGE('',*,*,#401,.F.);
#610=ORIENTED_EDGE('',*,*,#396,.F.);
#611=ORIENTED_EDGE('',*,*,#445,.T.);
#612=ORIENTED_EDGE('',*,*,#437,.F.);
#613=ORIENTED_EDGE('',*,*,#440,.T.);
#614=ORIENTED_EDGE('',*,*,#447,.T.);
#615=ORIENTED_EDGE('',*,*,#441,.T.);
#616=ORIENTED_EDGE('',*,*,#443,.T.);
#617=ORIENTED_EDGE('',*,*,#404,.F.);
#618=ORIENTED_EDGE('',*,*,#446,.T.);
#619=ORIENTED_EDGE('',*,*,#447,.F.);
#620=ORIENTED_EDGE('',*,*,#439,.T.);
#621=ORIENTED_EDGE('',*,*,#412,.F.);
#622=ORIENTED_EDGE('',*,*,#448,.F.);
#623=ORIENTED_EDGE('',*,*,#375,.T.);
#624=ORIENTED_EDGE('',*,*,#379,.T.);
#625=ORIENTED_EDGE('',*,*,#417,.F.);
#626=ORIENTED_EDGE('',*,*,#432,.T.);
#627=ORIENTED_EDGE('',*,*,#402,.F.);
#628=ORIENTED_EDGE('',*,*,#411,.F.);
#629=ORIENTED_EDGE('',*,*,#382,.T.);
#630=ORIENTED_EDGE('',*,*,#383,.T.);
#631=ORIENTED_EDGE('',*,*,#385,.T.);
#632=ORIENTED_EDGE('',*,*,#386,.T.);
#633=ORIENTED_EDGE('',*,*,#405,.F.);
#634=ORIENTED_EDGE('',*,*,#448,.T.);
#635=ORIENTED_EDGE('',*,*,#414,.F.);
#636=ORIENTED_EDGE('',*,*,#410,.F.);
#637=ORIENTED_EDGE('',*,*,#449,.F.);
#638=ORIENTED_EDGE('',*,*,#450,.T.);
#639=ORIENTED_EDGE('',*,*,#451,.F.);
#640=ORIENTED_EDGE('',*,*,#452,.T.);
#641=ORIENTED_EDGE('',*,*,#453,.F.);
#642=ORIENTED_EDGE('',*,*,#454,.T.);
#643=ORIENTED_EDGE('',*,*,#455,.F.);
#644=ORIENTED_EDGE('',*,*,#450,.F.);
#645=ORIENTED_EDGE('',*,*,#456,.F.);
#646=ORIENTED_EDGE('',*,*,#457,.T.);
#647=ORIENTED_EDGE('',*,*,#458,.F.);
#648=ORIENTED_EDGE('',*,*,#454,.F.);
#649=ORIENTED_EDGE('',*,*,#451,.T.);
#650=ORIENTED_EDGE('',*,*,#455,.T.);
#651=ORIENTED_EDGE('',*,*,#458,.T.);
#652=ORIENTED_EDGE('',*,*,#459,.T.);
#653=ORIENTED_EDGE('',*,*,#449,.T.);
#654=ORIENTED_EDGE('',*,*,#460,.T.);
#655=ORIENTED_EDGE('',*,*,#456,.T.);
#656=ORIENTED_EDGE('',*,*,#453,.T.);
#657=ORIENTED_EDGE('',*,*,#460,.F.);
#658=ORIENTED_EDGE('',*,*,#452,.F.);
#659=ORIENTED_EDGE('',*,*,#459,.F.);
#660=ORIENTED_EDGE('',*,*,#457,.F.);
#661=PLANE('',#741);
#662=PLANE('',#745);
#663=PLANE('',#746);
#664=PLANE('',#747);
#665=PLANE('',#748);
#666=PLANE('',#752);
#667=PLANE('',#757);
#668=PLANE('',#802);
#669=PLANE('',#805);
#670=PLANE('',#806);
#671=PLANE('',#815);
#672=PLANE('',#816);
#673=PLANE('',#818);
#674=PLANE('',#819);
#675=PLANE('',#823);
#676=PLANE('',#824);
#677=PLANE('',#825);
#678=PLANE('',#826);
#679=ADVANCED_FACE('',(#117),#661,.F.);
#680=ADVANCED_FACE('',(#118),#103,.T.);
#681=ADVANCED_FACE('',(#119),#662,.F.);
#682=ADVANCED_FACE('',(#120),#663,.T.);
#683=ADVANCED_FACE('',(#121),#664,.T.);
#684=ADVANCED_FACE('',(#122),#665,.F.);
#685=ADVANCED_FACE('',(#123),#104,.F.);
#686=ADVANCED_FACE('',(#124,#43),#666,.F.);
#687=ADVANCED_FACE('',(#125),#105,.F.);
#688=ADVANCED_FACE('',(#126,#44),#667,.F.);
#689=ADVANCED_FACE('',(#127),#106,.F.);
#690=ADVANCED_FACE('',(#128),#107,.F.);
#691=ADVANCED_FACE('',(#129),#23,.T.);
#692=ADVANCED_FACE('',(#130),#24,.T.);
#693=ADVANCED_FACE('',(#131),#25,.T.);
#694=ADVANCED_FACE('',(#132),#19,.F.);
#695=ADVANCED_FACE('',(#133),#13,.T.);
#696=ADVANCED_FACE('',(#134),#20,.F.);
#697=ADVANCED_FACE('',(#135),#14,.T.);
#698=ADVANCED_FACE('',(#136),#26,.T.);
#699=ADVANCED_FACE('',(#137),#108,.T.);
#700=ADVANCED_FACE('',(#138),#15,.T.);
#701=ADVANCED_FACE('',(#139),#21,.F.);
#702=ADVANCED_FACE('',(#140),#16,.T.);
#703=ADVANCED_FACE('',(#141),#22,.F.);
#704=ADVANCED_FACE('',(#142),#17,.T.);
#705=ADVANCED_FACE('',(#143),#109,.T.);
#706=ADVANCED_FACE('',(#144),#18,.T.);
#707=ADVANCED_FACE('',(#145),#110,.F.);
#708=ADVANCED_FACE('',(#146,#45,#46),#668,.T.);
#709=ADVANCED_FACE('',(#147),#669,.T.);
#710=ADVANCED_FACE('',(#148),#670,.T.);
#711=ADVANCED_FACE('',(#149),#111,.F.);
#712=ADVANCED_FACE('',(#150),#112,.F.);
#713=ADVANCED_FACE('',(#151),#113,.F.);
#714=ADVANCED_FACE('',(#152),#114,.F.);
#715=ADVANCED_FACE('',(#153,#47,#48),#671,.F.);
#716=ADVANCED_FACE('',(#154,#49,#50),#672,.T.);
#717=ADVANCED_FACE('',(#155,#51,#52),#115,.F.);
#718=ADVANCED_FACE('',(#156),#673,.T.);
#719=ADVANCED_FACE('',(#157),#674,.F.);
#720=ADVANCED_FACE('',(#158),#116,.T.);
#721=ADVANCED_FACE('',(#159),#675,.F.);
#722=ADVANCED_FACE('',(#160),#676,.T.);
#723=ADVANCED_FACE('',(#161),#677,.T.);
#724=ADVANCED_FACE('',(#162),#678,.F.);
#725=CLOSED_SHELL('',(#679,#680,#681,#682,#683,#684));
#726=CLOSED_SHELL('',(#685,#686,#687,#688,#689,#690,#691,#692,#693,#694,
#695,#696,#697,#698,#699,#700,#701,#702,#703,#704,#705,#706,#707,#708,#709,
#710,#711,#712,#713,#714,#715,#716,#717,#718));
#727=CLOSED_SHELL('',(#719,#720,#721,#722,#723,#724));
#728=DERIVED_UNIT_ELEMENT(#730,1.);
#729=DERIVED_UNIT_ELEMENT(#1537,-3.);
#730=(
MASS_UNIT()
NAMED_UNIT(*)
SI_UNIT(.KILO.,.GRAM.)
);
#731=DERIVED_UNIT((#728,#729));
#732=MEASURE_REPRESENTATION_ITEM('density measure',
POSITIVE_RATIO_MEASURE(7850.),#731);
#733=PROPERTY_DEFINITION_REPRESENTATION(#738,#735);
#734=PROPERTY_DEFINITION_REPRESENTATION(#739,#736);
#735=REPRESENTATION('material name',(#737),#1534);
#736=REPRESENTATION('density',(#732),#1534);
#737=DESCRIPTIVE_REPRESENTATION_ITEM('Acier','Acier');
#738=PROPERTY_DEFINITION('material property','material name',#1544);
#739=PROPERTY_DEFINITION('material property','density of part',#1544);
#740=AXIS2_PLACEMENT_3D('',#1041,#827,#828);
#741=AXIS2_PLACEMENT_3D('',#1042,#829,#830);
#742=AXIS2_PLACEMENT_3D('',#1051,#835,#836);
#743=AXIS2_PLACEMENT_3D('',#1053,#837,#838);
#744=AXIS2_PLACEMENT_3D('',#1056,#840,#841);
#745=AXIS2_PLACEMENT_3D('',#1057,#842,#843);
#746=AXIS2_PLACEMENT_3D('',#1063,#847,#848);
#747=AXIS2_PLACEMENT_3D('',#1065,#850,#851);
#748=AXIS2_PLACEMENT_3D('',#1067,#853,#854);
#749=AXIS2_PLACEMENT_3D('',#1068,#855,#856);
#750=AXIS2_PLACEMENT_3D('',#1070,#857,#858);
#751=AXIS2_PLACEMENT_3D('',#1073,#860,#861);
#752=AXIS2_PLACEMENT_3D('',#1074,#862,#863);
#753=AXIS2_PLACEMENT_3D('',#1076,#864,#865);
#754=AXIS2_PLACEMENT_3D('',#1077,#866,#867);
#755=AXIS2_PLACEMENT_3D('',#1079,#868,#869);
#756=AXIS2_PLACEMENT_3D('',#1082,#871,#872);
#757=AXIS2_PLACEMENT_3D('',#1083,#873,#874);
#758=AXIS2_PLACEMENT_3D('',#1085,#875,#876);
#759=AXIS2_PLACEMENT_3D('',#1086,#877,#878);
#760=AXIS2_PLACEMENT_3D('',#1130,#880,#881);
#761=AXIS2_PLACEMENT_3D('',#1174,#883,#884);
#762=AXIS2_PLACEMENT_3D('',#1177,#885,#886);
#763=AXIS2_PLACEMENT_3D('',#1179,#887,#888);
#764=AXIS2_PLACEMENT_3D('',#1180,#889,#890);
#765=AXIS2_PLACEMENT_3D('',#1181,#891,#892);
#766=AXIS2_PLACEMENT_3D('',#1184,#893,#894);
#767=AXIS2_PLACEMENT_3D('',#1186,#895,#896);
#768=AXIS2_PLACEMENT_3D('',#1187,#897,#898);
#769=AXIS2_PLACEMENT_3D('',#1188,#899,#900);
#770=AXIS2_PLACEMENT_3D('',#1191,#901,#902);
#771=AXIS2_PLACEMENT_3D('',#1193,#903,#904);
#772=AXIS2_PLACEMENT_3D('',#1194,#905,#906);
#773=AXIS2_PLACEMENT_3D('',#1239,#907,#908);
#774=AXIS2_PLACEMENT_3D('',#1247,#909,#910);
#775=AXIS2_PLACEMENT_3D('',#1250,#911,#912);
#776=AXIS2_PLACEMENT_3D('',#1251,#913,#914);
#777=AXIS2_PLACEMENT_3D('',#1252,#915,#916);
#778=AXIS2_PLACEMENT_3D('',#1295,#917,#918);
#779=AXIS2_PLACEMENT_3D('',#1308,#919,#920);
#780=AXIS2_PLACEMENT_3D('',#1309,#921,#922);
#781=AXIS2_PLACEMENT_3D('',#1310,#923,#924);
#782=AXIS2_PLACEMENT_3D('',#1313,#925,#926);
#783=AXIS2_PLACEMENT_3D('',#1315,#927,#928);
#784=AXIS2_PLACEMENT_3D('',#1316,#929,#930);
#785=AXIS2_PLACEMENT_3D('',#1317,#931,#932);
#786=AXIS2_PLACEMENT_3D('',#1320,#935,#936);
#787=AXIS2_PLACEMENT_3D('',#1333,#937,#938);
#788=AXIS2_PLACEMENT_3D('',#1334,#939,#940);
#789=AXIS2_PLACEMENT_3D('',#1379,#941,#942);
#790=AXIS2_PLACEMENT_3D('',#1387,#943,#944);
#791=AXIS2_PLACEMENT_3D('',#1390,#945,#946);
#792=AXIS2_PLACEMENT_3D('',#1391,#947,#948);
#793=AXIS2_PLACEMENT_3D('',#1392,#949,#950);
#794=AXIS2_PLACEMENT_3D('',#1435,#951,#952);
#795=AXIS2_PLACEMENT_3D('',#1448,#953,#954);
#796=AXIS2_PLACEMENT_3D('',#1449,#955,#956);
#797=AXIS2_PLACEMENT_3D('',#1450,#957,#958);
#798=AXIS2_PLACEMENT_3D('',#1453,#961,#962);
#799=AXIS2_PLACEMENT_3D('',#1466,#963,#964);
#800=AXIS2_PLACEMENT_3D('',#1467,#965,#966);
#801=AXIS2_PLACEMENT_3D('',#1468,#967,#968);
#802=AXIS2_PLACEMENT_3D('',#1470,#970,#971);
#803=AXIS2_PLACEMENT_3D('',#1473,#973,#974);
#804=AXIS2_PLACEMENT_3D('',#1475,#975,#976);
#805=AXIS2_PLACEMENT_3D('',#1476,#977,#978);
#806=AXIS2_PLACEMENT_3D('',#1478,#980,#981);
#807=AXIS2_PLACEMENT_3D('',#1484,#985,#986);
#808=AXIS2_PLACEMENT_3D('',#1487,#988,#989);
#809=AXIS2_PLACEMENT_3D('',#1488,#990,#991);
#810=AXIS2_PLACEMENT_3D('',#1490,#992,#993);
#811=AXIS2_PLACEMENT_3D('',#1492,#995,#996);
#812=AXIS2_PLACEMENT_3D('',#1494,#997,#998);
#813=AXIS2_PLACEMENT_3D('',#1496,#1000,#1001);
#814=AXIS2_PLACEMENT_3D('',#1498,#1002,#1003);
#815=AXIS2_PLACEMENT_3D('',#1500,#1005,#1006);
#816=AXIS2_PLACEMENT_3D('',#1502,#1008,#1009);
#817=AXIS2_PLACEMENT_3D('',#1504,#1011,#1012);
#818=AXIS2_PLACEMENT_3D('',#1505,#1013,#1014);
#819=AXIS2_PLACEMENT_3D('',#1506,#1015,#1016);
#820=AXIS2_PLACEMENT_3D('',#1515,#1021,#1022);
#821=AXIS2_PLACEMENT_3D('',#1517,#1023,#1024);
#822=AXIS2_PLACEMENT_3D('',#1520,#1026,#1027);
#823=AXIS2_PLACEMENT_3D('',#1521,#1028,#1029);
#824=AXIS2_PLACEMENT_3D('',#1527,#1033,#1034);
#825=AXIS2_PLACEMENT_3D('',#1529,#1036,#1037);
#826=AXIS2_PLACEMENT_3D('',#1531,#1039,#1040);
#827=DIRECTION('axis',(0.,0.,1.));
#828=DIRECTION('refdir',(1.,0.,0.));
#829=DIRECTION('center_axis',(0.,0.983239073741292,-0.182320936450989));
#830=DIRECTION('ref_axis',(0.,-0.182320936450989,-0.983239073741292));
#831=DIRECTION('',(0.,-0.182320936450989,-0.983239073741292));
#832=DIRECTION('',(-1.,0.,0.));
#833=DIRECTION('',(4.31822723240763E-16,0.182320936450989,0.983239073741292));
#834=DIRECTION('',(1.,-1.58603289232165E-17,0.));
#835=DIRECTION('center_axis',(-1.,0.,0.));
#836=DIRECTION('ref_axis',(0.,1.,0.));
#837=DIRECTION('center_axis',(1.,0.,0.));
#838=DIRECTION('ref_axis',(0.,1.,0.));
#839=DIRECTION('',(-1.,0.,0.));
#840=DIRECTION('center_axis',(-1.,2.368475785867E-15,0.));
#841=DIRECTION('ref_axis',(0.,1.,0.));
#842=DIRECTION('center_axis',(0.,-0.913909531739575,-0.405917932340456));
#843=DIRECTION('ref_axis',(0.,-0.405917932340456,0.913909531739575));
#844=DIRECTION('',(0.,-0.405917932340456,0.913909531739575));
#845=DIRECTION('',(-1.,3.17206578464331E-17,0.));
#846=DIRECTION('',(9.6140679379757E-16,0.405917932340456,-0.913909531739575));
#847=DIRECTION('center_axis',(-1.,2.368475785867E-15,0.));
#848=DIRECTION('ref_axis',(-2.368475785867E-15,-1.,0.));
#849=DIRECTION('',(-2.368475785867E-15,-1.,0.));
#850=DIRECTION('center_axis',(1.,0.,0.));
#851=DIRECTION('ref_axis',(0.,1.,0.));
#852=DIRECTION('',(0.,1.,0.));
#853=DIRECTION('center_axis',(0.,0.,1.));
#854=DIRECTION('ref_axis',(1.,0.,0.));
#855=DIRECTION('center_axis',(1.,0.,0.));
#856=DIRECTION('ref_axis',(0.,-1.,0.));
#857=DIRECTION('center_axis',(-1.,0.,0.));
#858=DIRECTION('ref_axis',(0.,-1.,0.));
#859=DIRECTION('',(-1.,0.,0.));
#860=DIRECTION('center_axis',(1.,0.,0.));
#861=DIRECTION('ref_axis',(0.,-1.,0.));
#862=DIRECTION('center_axis',(-1.,0.,0.));
#863=DIRECTION('ref_axis',(0.,-1.,0.));
#864=DIRECTION('center_axis',(-1.,0.,0.));
#865=DIRECTION('ref_axis',(0.,-1.,0.));
#866=DIRECTION('center_axis',(1.,0.,0.));
#867=DIRECTION('ref_axis',(0.,-1.,0.));
#868=DIRECTION('center_axis',(-1.,0.,0.));
#869=DIRECTION('ref_axis',(0.,-1.,0.));
#870=DIRECTION('',(-1.,0.,0.));
#871=DIRECTION('center_axis',(1.,0.,0.));
#872=DIRECTION('ref_axis',(0.,-1.,0.));
#873=DIRECTION('center_axis',(-1.,0.,0.));
#874=DIRECTION('ref_axis',(0.,-1.,0.));
#875=DIRECTION('center_axis',(-1.,0.,0.));
#876=DIRECTION('ref_axis',(0.,-1.,0.));
#877=DIRECTION('center_axis',(1.,0.,0.));
#878=DIRECTION('ref_axis',(0.,-1.,0.));
#879=DIRECTION('',(1.,0.,0.));
#880=DIRECTION('center_axis',(1.,0.,0.));
#881=DIRECTION('ref_axis',(0.,-1.,0.));
#882=DIRECTION('',(1.,0.,0.));
#883=DIRECTION('center_axis',(-0.440362270993623,0.279916771760454,-0.853069558226377));
#884=DIRECTION('ref_axis',(-0.719934182201219,0.457626970873447,0.521797210444303));
#885=DIRECTION('center_axis',(0.0322543706913399,0.0151328789336258,0.999365124239627));
#886=DIRECTION('ref_axis',(-0.999479573214817,0.,0.0322580645161307));
#887=DIRECTION('center_axis',(0.,1.,0.));
#888=DIRECTION('ref_axis',(0.,0.,1.));
#889=DIRECTION('center_axis',(-0.905311722196088,-0.424747790640933,-1.60815666951224E-14));
#890=DIRECTION('ref_axis',(-0.424747790640933,0.905311722196088,0.));
#891=DIRECTION('center_axis',(-0.440362270993425,-0.279916771760326,-0.853069558226521));
#892=DIRECTION('ref_axis',(-0.719934182201337,-0.45762697087353,0.521797210444067));
#893=DIRECTION('center_axis',(-1.14663340931985E-15,-1.,-3.55271367880048E-14));
#894=DIRECTION('ref_axis',(-0.999479573214817,0.,0.0322580645161304));
#895=DIRECTION('center_axis',(0.0322543706912862,-0.0151328789341257,0.999365124239622));
#896=DIRECTION('ref_axis',(-0.424747790640953,-0.905311722196078,0.));
#897=DIRECTION('center_axis',(-0.905311722196078,0.424747790640954,0.));
#898=DIRECTION('ref_axis',(0.,0.,1.));
#899=DIRECTION('center_axis',(0.440362270993434,0.279916771760338,-0.853069558226512));
#900=DIRECTION('ref_axis',(0.71993418220132,0.457626970873543,0.521797210444079));
#901=DIRECTION('center_axis',(0.,1.,0.));
#902=DIRECTION('ref_axis',(0.999479573214817,0.,0.0322580645161307));
#903=DIRECTION('center_axis',(-0.0322543706912953,0.0151328789341294,0.999365124239621));
#904=DIRECTION('ref_axis',(0.424747790640939,0.905311722196085,0.));
#905=DIRECTION('center_axis',(0.905311722196081,-0.424747790640946,0.));
#906=DIRECTION('ref_axis',(0.,0.,1.));
#907=DIRECTION('center_axis',(0.975710087256504,0.219065802045654,8.61309689013871E-10));
#908=DIRECTION('ref_axis',(-0.219065802045654,0.975710087256504,0.));
#909=DIRECTION('center_axis',(0.,0.,-1.));
#910=DIRECTION('ref_axis',(-1.,0.,0.));
#911=DIRECTION('center_axis',(0.975710087259054,-0.219065802034297,-4.33302321693608E-15));
#912=DIRECTION('ref_axis',(0.219065802034297,0.975710087259054,0.));
#913=DIRECTION('center_axis',(0.,0.,1.));
#914=DIRECTION('ref_axis',(7.27366154732462E-16,-1.,0.));
#915=DIRECTION('center_axis',(0.,0.,-1.));
#916=DIRECTION('ref_axis',(7.27366154732462E-16,-1.,0.));
#917=DIRECTION('center_axis',(0.,0.,-1.));
#918=DIRECTION('ref_axis',(-1.,0.,0.));
#919=DIRECTION('center_axis',(0.,0.,1.));
#920=DIRECTION('ref_axis',(-0.44455245182585,-0.895752821695598,0.));
#921=DIRECTION('center_axis',(0.,0.,-1.));
#922=DIRECTION('ref_axis',(-0.44455245182585,-0.895752821695598,0.));
#923=DIRECTION('center_axis',(0.440362270993631,-0.279916771760454,-0.853069558226372));
#924=DIRECTION('ref_axis',(0.719934182201213,-0.457626970873447,0.521797210444311));
#925=DIRECTION('center_axis',(-0.0322543706913358,-0.0151328789336183,0.999365124239628));
#926=DIRECTION('ref_axis',(0.999479573214817,0.,0.0322580645161266));
#927=DIRECTION('center_axis',(1.77728178444569E-14,-1.,0.));
#928=DIRECTION('ref_axis',(0.,0.,1.));
#929=DIRECTION('center_axis',(0.905311722196088,0.424747790640932,-1.60815666951224E-14));
#930=DIRECTION('ref_axis',(0.424747790640932,-0.905311722196088,0.));
#931=DIRECTION('center_axis',(0.,1.,0.));
#932=DIRECTION('ref_axis',(0.695608343640249,0.,0.718421208107103));
#933=DIRECTION('',(0.,-1.,0.));
#934=DIRECTION('',(0.,1.,0.));
#935=DIRECTION('center_axis',(0.,0.,-1.));
#936=DIRECTION('ref_axis',(-1.,0.,0.));
#937=DIRECTION('center_axis',(0.,0.,-1.));
#938=DIRECTION('ref_axis',(-0.44455245182585,0.895752821695598,0.));
#939=DIRECTION('center_axis',(0.,0.,1.));
#940=DIRECTION('ref_axis',(-0.44455245182585,0.895752821695598,0.));
#941=DIRECTION('center_axis',(-0.975710087256505,-0.21906580204565,8.61309689013871E-10));
#942=DIRECTION('ref_axis',(0.21906580204565,-0.975710087256505,0.));
#943=DIRECTION('center_axis',(0.,0.,-1.));
#944=DIRECTION('ref_axis',(-1.,0.,0.));
#945=DIRECTION('center_axis',(-0.975710087259054,0.219065802034297,0.));
#946=DIRECTION('ref_axis',(-0.219065802034297,-0.975710087259054,0.));
#947=DIRECTION('center_axis',(0.,0.,1.));
#948=DIRECTION('ref_axis',(7.27366154732462E-16,1.,0.));
#949=DIRECTION('center_axis',(0.,0.,-1.));
#950=DIRECTION('ref_axis',(7.27366154732462E-16,1.,0.));
#951=DIRECTION('center_axis',(0.,0.,-1.));
#952=DIRECTION('ref_axis',(-1.,0.,0.));
#953=DIRECTION('center_axis',(0.,0.,1.));
#954=DIRECTION('ref_axis',(0.444552451825851,0.895752821695597,0.));
#955=DIRECTION('center_axis',(0.,0.,-1.));
#956=DIRECTION('ref_axis',(0.444552451825851,0.895752821695597,0.));
#957=DIRECTION('center_axis',(0.,-1.,0.));
#958=DIRECTION('ref_axis',(-0.695608343640255,0.,0.718421208107097));
#959=DIRECTION('',(0.,1.,0.));
#960=DIRECTION('',(0.,-1.,0.));
#961=DIRECTION('center_axis',(0.,0.,-1.));
#962=DIRECTION('ref_axis',(-1.,0.,0.));
#963=DIRECTION('center_axis',(0.,0.,-1.));
#964=DIRECTION('ref_axis',(0.444552451825851,-0.895752821695597,0.));
#965=DIRECTION('center_axis',(0.,0.,1.));
#966=DIRECTION('ref_axis',(0.444552451825851,-0.895752821695597,0.));
#967=DIRECTION('center_axis',(0.,1.,0.));
#968=DIRECTION('ref_axis',(0.707106781186547,0.,-0.707106781186547));
#969=DIRECTION('',(0.,-1.,0.));
#970=DIRECTION('center_axis',(0.,0.,1.));
#971=DIRECTION('ref_axis',(1.,0.,0.));
#972=DIRECTION('',(0.,1.,0.));
#973=DIRECTION('center_axis',(0.,0.,-1.));
#974=DIRECTION('ref_axis',(1.,0.,0.));
#975=DIRECTION('center_axis',(0.,0.,-1.));
#976=DIRECTION('ref_axis',(1.,0.,0.));
#977=DIRECTION('center_axis',(0.,0.,1.));
#978=DIRECTION('ref_axis',(1.,0.,0.));
#979=DIRECTION('',(0.,1.,0.));
#980=DIRECTION('center_axis',(1.,3.67015875909143E-16,0.));
#981=DIRECTION('ref_axis',(-3.67015875909143E-16,1.,0.));
#982=DIRECTION('',(0.,0.,-1.));
#983=DIRECTION('',(-3.67015875909143E-16,1.,0.));
#984=DIRECTION('',(0.,0.,1.));
#985=DIRECTION('center_axis',(0.,0.,1.));
#986=DIRECTION('ref_axis',(1.,0.,0.));
#987=DIRECTION('',(0.,0.,1.));
#988=DIRECTION('center_axis',(0.,0.,1.));
#989=DIRECTION('ref_axis',(1.,0.,0.));
#990=DIRECTION('center_axis',(0.,0.,1.));
#991=DIRECTION('ref_axis',(1.,0.,0.));
#992=DIRECTION('center_axis',(0.,0.,1.));
#993=DIRECTION('ref_axis',(1.,0.,0.));
#994=DIRECTION('',(0.,0.,1.));
#995=DIRECTION('center_axis',(0.,0.,1.));
#996=DIRECTION('ref_axis',(1.,0.,0.));
#997=DIRECTION('center_axis',(0.,0.,1.));
#998=DIRECTION('ref_axis',(1.,0.,0.));
#999=DIRECTION('',(0.,0.,1.));
#1000=DIRECTION('center_axis',(0.,0.,1.));
#1001=DIRECTION('ref_axis',(1.,0.,0.));
#1002=DIRECTION('center_axis',(0.,0.,1.));
#1003=DIRECTION('ref_axis',(1.,0.,0.));
#1004=DIRECTION('',(0.,0.,-1.));
#1005=DIRECTION('center_axis',(0.,0.,1.));
#1006=DIRECTION('ref_axis',(1.,0.,0.));
#1007=DIRECTION('',(-3.67015875909143E-16,1.,0.));
#1008=DIRECTION('center_axis',(-1.,-3.67015875909143E-16,0.));
#1009=DIRECTION('ref_axis',(3.67015875909143E-16,-1.,0.));
#1010=DIRECTION('',(-9.17539689772857E-17,-1.,0.));
#1011=DIRECTION('center_axis',(0.,-1.,0.));
#1012=DIRECTION('ref_axis',(-0.707106781186547,0.,-0.707106781186547));
#1013=DIRECTION('center_axis',(0.,0.,1.));
#1014=DIRECTION('ref_axis',(1.,0.,0.));
#1015=DIRECTION('center_axis',(0.,0.983239073741292,-0.182320936450989));
#1016=DIRECTION('ref_axis',(0.,-0.182320936450989,-0.983239073741292));
#1017=DIRECTION('',(0.,-0.182320936450989,-0.983239073741292));
#1018=DIRECTION('',(-1.,0.,0.));
#1019=DIRECTION('',(4.31822723240763E-16,0.182320936450989,0.983239073741292));
#1020=DIRECTION('',(1.,-1.58603289232165E-17,0.));
#1021=DIRECTION('center_axis',(-1.,0.,0.));
#1022=DIRECTION('ref_axis',(0.,1.,0.));
#1023=DIRECTION('center_axis',(1.,0.,0.));
#1024=DIRECTION('ref_axis',(0.,1.,0.));
#1025=DIRECTION('',(-1.,0.,0.));
#1026=DIRECTION('center_axis',(-1.,2.368475785867E-15,0.));
#1027=DIRECTION('ref_axis',(0.,1.,0.));
#1028=DIRECTION('center_axis',(0.,-0.913909531739575,-0.405917932340456));
#1029=DIRECTION('ref_axis',(0.,-0.405917932340456,0.913909531739575));
#1030=DIRECTION('',(0.,-0.405917932340456,0.913909531739575));
#1031=DIRECTION('',(-1.,3.17206578464331E-17,0.));
#1032=DIRECTION('',(9.6140679379757E-16,0.405917932340456,-0.913909531739575));
#1033=DIRECTION('center_axis',(-1.,2.368475785867E-15,0.));
#1034=DIRECTION('ref_axis',(-2.368475785867E-15,-1.,0.));
#1035=DIRECTION('',(-2.368475785867E-15,-1.,0.));
#1036=DIRECTION('center_axis',(1.,0.,0.));
#1037=DIRECTION('ref_axis',(0.,1.,0.));
#1038=DIRECTION('',(0.,1.,0.));
#1039=DIRECTION('center_axis',(0.,0.,1.));
#1040=DIRECTION('ref_axis',(1.,0.,0.));
#1041=CARTESIAN_POINT('',(0.,0.,0.));
#1042=CARTESIAN_POINT('Origin',(35.,-5.28714652652985,11.9337035116912));
#1043=CARTESIAN_POINT('',(35.,-5.28714652652985,11.9337035116912));
#1044=CARTESIAN_POINT('',(35.,-7.5,0.));
#1045=CARTESIAN_POINT('',(35.,-6.39357326326492,5.9668517558456));
#1046=CARTESIAN_POINT('',(-35.,-5.28714652652985,11.9337035116912));
#1047=CARTESIAN_POINT('',(35.,-5.28714652652985,11.9337035116912));
#1048=CARTESIAN_POINT('',(-35.,-7.5,0.));
#1049=CARTESIAN_POINT('',(-35.,-6.14426633425218,7.31133977094348));
#1050=CARTESIAN_POINT('',(-35.,-7.5,0.));
#1051=CARTESIAN_POINT('Origin',(35.,-1.6,11.25));
#1052=CARTESIAN_POINT('',(35.,1.8271607440234,12.7721922462767));
#1053=CARTESIAN_POINT('Origin',(35.,-1.6,11.25));
#1054=CARTESIAN_POINT('',(-35.,1.8271607440234,12.7721922462767));
#1055=CARTESIAN_POINT('',(35.,1.8271607440234,12.7721922462767));
#1056=CARTESIAN_POINT('Origin',(-35.,-1.6,11.25));
#1057=CARTESIAN_POINT('Origin',(35.,7.5,0.));
#1058=CARTESIAN_POINT('',(35.,7.5,0.));
#1059=CARTESIAN_POINT('',(35.,6.26422974153337,2.78229200602472));
#1060=CARTESIAN_POINT('',(-35.,7.5,0.));
#1061=CARTESIAN_POINT('',(35.,7.5,0.));
#1062=CARTESIAN_POINT('',(-35.,7.50000000000001,-3.07523591455774E-14));
#1063=CARTESIAN_POINT('Origin',(-35.,7.5,0.));
#1064=CARTESIAN_POINT('',(-35.,7.5,0.));
#1065=CARTESIAN_POINT('Origin',(35.,-7.5,0.));
#1066=CARTESIAN_POINT('',(35.,-7.5,0.));
#1067=CARTESIAN_POINT('Origin',(-4.44089209850063E-15,0.,0.));
#1068=CARTESIAN_POINT('Origin',(-34.9999999999999,28.9311142774628,11.));
#1069=CARTESIAN_POINT('',(-31.4999999999999,30.4311142774628,11.));
#1070=CARTESIAN_POINT('Origin',(-31.4999999999999,28.9311142774628,11.));
#1071=CARTESIAN_POINT('',(-34.9999999999999,30.4311142774628,11.));
#1072=CARTESIAN_POINT('',(-34.9999999999999,30.4311142774628,11.));
#1073=CARTESIAN_POINT('Origin',(-34.9999999999999,28.9311142774628,11.));
#1074=CARTESIAN_POINT('Origin',(-31.4999999999999,28.9311142774628,11.));
#1075=CARTESIAN_POINT('',(-31.4999999999999,32.6811142774628,11.));
#1076=CARTESIAN_POINT('Origin',(-31.4999999999999,28.9311142774628,11.));
#1077=CARTESIAN_POINT('Origin',(-34.9999999999999,-28.9311142774629,11.));
#1078=CARTESIAN_POINT('',(-31.4999999999999,-27.4311142774629,11.));
#1079=CARTESIAN_POINT('Origin',(-31.4999999999999,-28.9311142774629,11.));
#1080=CARTESIAN_POINT('',(-34.9999999999999,-27.4311142774629,11.));
#1081=CARTESIAN_POINT('',(-34.9999999999999,-27.4311142774629,11.));
#1082=CARTESIAN_POINT('Origin',(-34.9999999999999,-28.9311142774629,11.));
#1083=CARTESIAN_POINT('Origin',(-31.4999999999999,-28.9311142774629,11.));
#1084=CARTESIAN_POINT('',(-31.4999999999999,-25.1811142774629,11.));
#1085=CARTESIAN_POINT('Origin',(-31.4999999999999,-28.9311142774629,11.));
#1086=CARTESIAN_POINT('Origin',(-34.9999999999999,28.9311142774628,11.));
#1087=CARTESIAN_POINT('',(-29.4903810567665,32.6811142774628,11.));
#1088=CARTESIAN_POINT('',(-34.9999999999999,32.6811142774628,11.));
#1089=CARTESIAN_POINT('',(-31.0236875482777,28.9311142774628,14.75));
#1090=CARTESIAN_POINT('Ctrl Pts',(-31.0236875482777,28.9311142774628,14.75));
#1091=CARTESIAN_POINT('Ctrl Pts',(-31.0236875482777,29.3982070247647,14.75));
#1092=CARTESIAN_POINT('Ctrl Pts',(-31.0006955868288,29.8956042055764,14.6571699685125));
#1093=CARTESIAN_POINT('Ctrl Pts',(-30.8966350147467,30.8073576218631,14.2840283771938));
#1094=CARTESIAN_POINT('Ctrl Pts',(-30.8142004124674,31.221593103349,14.0038039693669));
#1095=CARTESIAN_POINT('Ctrl Pts',(-30.5873747895157,31.9091283951345,13.3343167996395));
#1096=CARTESIAN_POINT('Ctrl Pts',(-30.4212437788307,32.2094380659285,12.8906378839961));
#1097=CARTESIAN_POINT('Ctrl Pts',(-30.0031070064777,32.5949511759388,11.9477428157485));
#1098=CARTESIAN_POINT('Ctrl Pts',(-29.7498782184924,32.6811142774628,11.4494622685292));
#1099=CARTESIAN_POINT('Ctrl Pts',(-29.4903810567665,32.6811142774628,11.));
#1100=CARTESIAN_POINT('Ctrl Pts',(-29.4903810567665,32.6811142774628,11.));
#1101=CARTESIAN_POINT('Ctrl Pts',(-29.1923566762796,32.6811142774628,10.4838066311025));
#1102=CARTESIAN_POINT('Ctrl Pts',(-28.8410049203723,32.5698873460336,9.95249570764541));
#1103=CARTESIAN_POINT('Ctrl Pts',(-28.1186245621075,32.1425166984475,8.99380231568855));
#1104=CARTESIAN_POINT('Ctrl Pts',(-27.7481767190466,31.8275364032716,8.56546428609617));
#1105=CARTESIAN_POINT('Ctrl Pts',(-27.17165223635,31.1535256916943,7.95212907798891));
#1106=CARTESIAN_POINT('Ctrl Pts',(-26.9116275338274,30.7708706049896,7.69886966220106));
#1107=CARTESIAN_POINT('Ctrl Pts',(-26.62876417791,30.1190730407657,7.43542869044495));
#1108=CARTESIAN_POINT('Ctrl Pts',(-26.5521725630139,29.8887656111615,7.36632745371908));
#1109=CARTESIAN_POINT('Ctrl Pts',(-26.4484919025671,29.4153860689922,7.27358710513741));
#1110=CARTESIAN_POINT('Ctrl Pts',(-26.4215674164921,29.1722677423975,7.25));
#1111=CARTESIAN_POINT('Ctrl Pts',(-26.4215674164921,28.6899608125282,7.25));
#1112=CARTESIAN_POINT('Ctrl Pts',(-26.4484919025671,28.4468424859334,7.27358710513741));
#1113=CARTESIAN_POINT('Ctrl Pts',(-26.5521725630139,27.9734629437642,7.36632745371908));
#1114=CARTESIAN_POINT('Ctrl Pts',(-26.62876417791,27.7431555141599,7.43542869044495));
#1115=CARTESIAN_POINT('Ctrl Pts',(-26.9116275338274,27.0913579499361,7.69886966220106));
#1116=CARTESIAN_POINT('Ctrl Pts',(-27.17165223635,26.7087028632313,7.95212907798891));
#1117=CARTESIAN_POINT('Ctrl Pts',(-27.7481767190466,26.034692151654,8.56546428609617));
#1118=CARTESIAN_POINT('Ctrl Pts',(-28.1186245621075,25.7197118564782,8.99380231568854));
#1119=CARTESIAN_POINT('Ctrl Pts',(-28.8410049203723,25.2923412088921,9.95249570764541));
#1120=CARTESIAN_POINT('Ctrl Pts',(-29.1923566762796,25.1811142774628,10.4838066311025));
#1121=CARTESIAN_POINT('Ctrl Pts',(-29.7498782184924,25.1811142774628,11.4494622685292));
#1122=CARTESIAN_POINT('Ctrl Pts',(-30.0031070064777,25.2672773789868,11.9477428157485));
#1123=CARTESIAN_POINT('Ctrl Pts',(-30.4212437788307,25.6527904889972,12.8906378839961));
#1124=CARTESIAN_POINT('Ctrl Pts',(-30.5873747895157,25.9531001597912,13.3343167996395));
#1125=CARTESIAN_POINT('Ctrl Pts',(-30.8142004124674,26.6406354515767,14.0038039693669));
#1126=CARTESIAN_POINT('Ctrl Pts',(-30.8966350147467,27.0548709330626,14.2840283771938));
#1127=CARTESIAN_POINT('Ctrl Pts',(-31.0006955868288,27.9666243493493,14.6571699685125));
#1128=CARTESIAN_POINT('Ctrl Pts',(-31.0236875482777,28.4640215301609,14.75));
#1129=CARTESIAN_POINT('Ctrl Pts',(-31.0236875482777,28.9311142774628,14.75));
#1130=CARTESIAN_POINT('Origin',(-34.9999999999999,-28.9311142774629,11.));
#1131=CARTESIAN_POINT('',(-29.4903810567665,-25.1811142774629,11.));
#1132=CARTESIAN_POINT('',(-34.9999999999999,-25.1811142774629,11.));
#1133=CARTESIAN_POINT('',(-31.0236875482777,-28.9311142774629,14.75));
#1134=CARTESIAN_POINT('Ctrl Pts',(-31.0236875482777,-28.9311142774629,14.75));
#1135=CARTESIAN_POINT('Ctrl Pts',(-31.0236875482777,-28.464021530161,14.75));
#1136=CARTESIAN_POINT('Ctrl Pts',(-31.0006955868288,-27.9666243493493,14.6571699685125));
#1137=CARTESIAN_POINT('Ctrl Pts',(-30.8966350147467,-27.0548709330626,14.2840283771938));
#1138=CARTESIAN_POINT('Ctrl Pts',(-30.8142004124674,-26.6406354515767,14.0038039693669));
#1139=CARTESIAN_POINT('Ctrl Pts',(-30.5873747895157,-25.9531001597913,13.3343167996395));
#1140=CARTESIAN_POINT('Ctrl Pts',(-30.4212437788307,-25.6527904889972,12.8906378839961));
#1141=CARTESIAN_POINT('Ctrl Pts',(-30.0031070064777,-25.2672773789869,11.9477428157485));
#1142=CARTESIAN_POINT('Ctrl Pts',(-29.7498782184924,-25.1811142774629,11.4494622685292));
#1143=CARTESIAN_POINT('Ctrl Pts',(-29.4903810567665,-25.1811142774629,11.));
#1144=CARTESIAN_POINT('Ctrl Pts',(-29.4903810567665,-25.1811142774629,11.));
#1145=CARTESIAN_POINT('Ctrl Pts',(-29.1923566762796,-25.1811142774629,10.4838066311025));
#1146=CARTESIAN_POINT('Ctrl Pts',(-28.8410049203723,-25.2923412088921,9.9524957076454));
#1147=CARTESIAN_POINT('Ctrl Pts',(-28.1186245621075,-25.7197118564782,8.99380231568854));
#1148=CARTESIAN_POINT('Ctrl Pts',(-27.7481767190466,-26.0346921516541,8.56546428609617));
#1149=CARTESIAN_POINT('Ctrl Pts',(-27.17165223635,-26.7087028632314,7.95212907798891));
#1150=CARTESIAN_POINT('Ctrl Pts',(-26.9116275338274,-27.0913579499361,7.69886966220106));
#1151=CARTESIAN_POINT('Ctrl Pts',(-26.62876417791,-27.74315551416,7.43542869044495));
#1152=CARTESIAN_POINT('Ctrl Pts',(-26.5521725630139,-27.9734629437643,7.36632745371908));
#1153=CARTESIAN_POINT('Ctrl Pts',(-26.4484919025671,-28.4468424859335,7.27358710513741));
#1154=CARTESIAN_POINT('Ctrl Pts',(-26.4215674164921,-28.6899608125282,7.25));
#1155=CARTESIAN_POINT('Ctrl Pts',(-26.4215674164921,-29.1722677423975,7.25));
#1156=CARTESIAN_POINT('Ctrl Pts',(-26.4484919025671,-29.4153860689923,7.27358710513741));
#1157=CARTESIAN_POINT('Ctrl Pts',(-26.5521725630139,-29.8887656111615,7.36632745371908));
#1158=CARTESIAN_POINT('Ctrl Pts',(-26.62876417791,-30.1190730407658,7.43542869044495));
#1159=CARTESIAN_POINT('Ctrl Pts',(-26.9116275338274,-30.7708706049896,7.69886966220106));
#1160=CARTESIAN_POINT('Ctrl Pts',(-27.17165223635,-31.1535256916944,7.95212907798891));
#1161=CARTESIAN_POINT('Ctrl Pts',(-27.7481767190466,-31.8275364032717,8.56546428609617));
#1162=CARTESIAN_POINT('Ctrl Pts',(-28.1186245621075,-32.1425166984475,8.99380231568854));
#1163=CARTESIAN_POINT('Ctrl Pts',(-28.8410049203723,-32.5698873460336,9.95249570764541));
#1164=CARTESIAN_POINT('Ctrl Pts',(-29.1923566762796,-32.6811142774629,10.4838066311025));
#1165=CARTESIAN_POINT('Ctrl Pts',(-29.7498782184924,-32.6811142774629,11.4494622685292));
#1166=CARTESIAN_POINT('Ctrl Pts',(-30.0031070064777,-32.5949511759389,11.9477428157485));
#1167=CARTESIAN_POINT('Ctrl Pts',(-30.4212437788307,-32.2094380659286,12.8906378839961));
#1168=CARTESIAN_POINT('Ctrl Pts',(-30.5873747895157,-31.9091283951345,13.3343167996395));
#1169=CARTESIAN_POINT('Ctrl Pts',(-30.8142004124674,-31.2215931033491,14.0038039693669));
#1170=CARTESIAN_POINT('Ctrl Pts',(-30.8966350147467,-30.8073576218631,14.2840283771938));
#1171=CARTESIAN_POINT('Ctrl Pts',(-31.0006955868288,-29.8956042055764,14.6571699685125));
#1172=CARTESIAN_POINT('Ctrl Pts',(-31.0236875482777,-29.3982070247648,14.75));
#1173=CARTESIAN_POINT('Ctrl Pts',(-31.0236875482777,-28.9311142774629,14.75));
#1174=CARTESIAN_POINT('Origin',(31.9919333848297,46.2319054332361,18.));
#1175=CARTESIAN_POINT('',(31.4921935982223,46.2319054332361,18.0161290322581));
#1176=CARTESIAN_POINT('',(31.7795594895092,46.6845612943341,18.0000000000002));
#1177=CARTESIAN_POINT('Origin',(31.9919333848297,46.2319054332361,18.));
#1178=CARTESIAN_POINT('',(31.9919333848297,46.2319054332361,18.5));
#1179=CARTESIAN_POINT('Origin',(31.9919333848297,46.2319054332361,18.));
#1180=CARTESIAN_POINT('Origin',(31.9919333848297,46.2319054332361,18.));
#1181=CARTESIAN_POINT('Origin',(31.9919333848297,-46.2319054332362,18.));
#1182=CARTESIAN_POINT('',(31.4921935982223,-46.2319054332362,18.0161290322581));
#1183=CARTESIAN_POINT('',(31.9919333848297,-46.2319054332362,18.5));
#1184=CARTESIAN_POINT('Origin',(31.9919333848297,-46.2319054332362,18.));
#1185=CARTESIAN_POINT('',(31.7795594895092,-46.6845612943342,18.));
#1186=CARTESIAN_POINT('Origin',(31.9919333848297,-46.2319054332362,18.));
#1187=CARTESIAN_POINT('Origin',(31.9919333848297,-46.2319054332362,18.));
#1188=CARTESIAN_POINT('Origin',(-31.9919333848296,46.231905433236,18.));
#1189=CARTESIAN_POINT('',(-31.4921935982222,46.231905433236,18.0161290322581));
#1190=CARTESIAN_POINT('',(-31.9919333848296,46.231905433236,18.5));
#1191=CARTESIAN_POINT('Origin',(-31.9919333848296,46.231905433236,18.));
#1192=CARTESIAN_POINT('',(-31.7795594895091,46.6845612943341,18.));
#1193=CARTESIAN_POINT('Origin',(-31.9919333848296,46.231905433236,18.));
#1194=CARTESIAN_POINT('Origin',(-31.9919333848296,46.231905433236,18.));
#1195=CARTESIAN_POINT('Ctrl Pts',(31.7795594895092,46.6845612943341,18.0000000000002));
#1196=CARTESIAN_POINT('Ctrl Pts',(31.704802729203,46.6494874429777,15.6682676251226));
#1197=CARTESIAN_POINT('Ctrl Pts',(30.7872470501584,46.2097891984749,12.2186563041232));
#1198=CARTESIAN_POINT('Ctrl Pts',(27.6209405049891,44.8549161778205,7.48241335313808));
#1199=CARTESIAN_POINT('Ctrl Pts',(23.1149880855537,43.1612460667787,4.0134643139418));
#1200=CARTESIAN_POINT('Ctrl Pts',(18.6517832899166,41.9250765150531,3.00000000012559));
#1201=CARTESIAN_POINT('Ctrl Pts',(16.3904670998323,41.4173672566067,3.));
#1202=CARTESIAN_POINT('Ctrl Pts',(31.6941857048134,46.6445062220986,18.0033619606853));
#1203=CARTESIAN_POINT('Ctrl Pts',(31.6196341517308,46.6096473893,15.687319870286));
#1204=CARTESIAN_POINT('Ctrl Pts',(30.7044424670675,46.1724580862065,12.2611681144624));
#1205=CARTESIAN_POINT('Ctrl Pts',(27.5494986025863,44.8267321448875,7.56166188335562));
#1206=CARTESIAN_POINT('Ctrl Pts',(23.0648825559624,43.1462040431943,4.12585875125473));
#1207=CARTESIAN_POINT('Ctrl Pts',(18.6334347412724,41.9208673227975,3.12819225026541));
#1208=CARTESIAN_POINT('Ctrl Pts',(16.3904670998255,41.4173672566052,3.13089969389857));
#1209=CARTESIAN_POINT('Ctrl Pts',(31.5469656173421,46.5147496940115,18.010078305835));
#1210=CARTESIAN_POINT('Ctrl Pts',(31.4729205565029,46.4799802176643,15.7253453811106));
#1211=CARTESIAN_POINT('Ctrl Pts',(30.5635700927277,46.0440424777434,12.3462113862423));
#1212=CARTESIAN_POINT('Ctrl Pts',(27.4341827673944,44.7028675665417,7.71993748951745));
#1213=CARTESIAN_POINT('Ctrl Pts',(22.9938559295218,43.0298970166698,4.34998815359371));
#1214=CARTESIAN_POINT('Ctrl Pts',(18.6231196553912,41.8122902517188,3.38364876475541));
#1215=CARTESIAN_POINT('Ctrl Pts',(16.4142297080476,41.3115295752356,3.39152753184226));
#1216=CARTESIAN_POINT('Ctrl Pts',(31.492147534178,46.326257728187,18.0147017900469));
#1217=CARTESIAN_POINT('Ctrl Pts',(31.4188870163933,46.2911310988503,15.7515780481011));
#1218=CARTESIAN_POINT('Ctrl Pts',(30.5194482767983,45.8507040438251,12.4037850629719));
#1219=CARTESIAN_POINT('Ctrl Pts',(27.420394000952,44.4944229994699,7.81531941394653));
#1220=CARTESIAN_POINT('Ctrl Pts',(23.0176325299356,42.8002248185322,4.46498847902374));
#1221=CARTESIAN_POINT('Ctrl Pts',(18.6707942343905,41.5648029303248,3.49569333608223));
#1222=CARTESIAN_POINT('Ctrl Pts',(16.4713243543962,41.0572323647341,3.49999999999842));
#1223=CARTESIAN_POINT('Ctrl Pts',(31.4921935982223,46.2319054332361,18.0161290322583));
#1224=CARTESIAN_POINT('Ctrl Pts',(31.4193648832569,46.1965971931545,15.7596138307638));
#1225=CARTESIAN_POINT('Ctrl Pts',(30.5254738058432,45.7539605684333,12.4212802943128));
#1226=CARTESIAN_POINT('Ctrl Pts',(27.4408292074575,44.3900333108517,7.8378193740046));
#1227=CARTESIAN_POINT('Ctrl Pts',(23.0510894292923,42.6850448768172,4.48077191671787));
#1228=CARTESIAN_POINT('Ctrl Pts',(18.702994774542,41.440614350201,3.50000000012155));
#1229=CARTESIAN_POINT('Ctrl Pts',(16.5000000008276,40.9295122129785,3.5));
#1230=CARTESIAN_POINT('',(16.3904670998323,41.4173672566067,3.));
#1231=CARTESIAN_POINT('Ctrl Pts',(31.7795594895092,46.6845612943341,18.0000000000002));
#1232=CARTESIAN_POINT('Ctrl Pts',(31.704802729203,46.6494874429777,15.6682676251226));
#1233=CARTESIAN_POINT('Ctrl Pts',(30.7872470501584,46.2097891984749,12.2186563041232));
#1234=CARTESIAN_POINT('Ctrl Pts',(27.6209405049891,44.8549161778205,7.48241335313808));
#1235=CARTESIAN_POINT('Ctrl Pts',(23.1149880855537,43.1612460667787,4.0134643139418));
#1236=CARTESIAN_POINT('Ctrl Pts',(18.6517832899166,41.9250765150531,3.00000000012559));
#1237=CARTESIAN_POINT('Ctrl Pts',(16.3904670998323,41.4173672566067,3.));
#1238=CARTESIAN_POINT('',(16.5000000004138,40.9295122129785,3.5));
#1239=CARTESIAN_POINT('Origin',(16.5000000008552,40.9295122129785,3.));
#1240=CARTESIAN_POINT('Ctrl Pts',(16.5000000008276,40.9295122129785,3.5));
#1241=CARTESIAN_POINT('Ctrl Pts',(18.702994774542,41.440614350201,3.50000000012155));
#1242=CARTESIAN_POINT('Ctrl Pts',(23.0510894292923,42.6850448768172,4.48077191671787));
#1243=CARTESIAN_POINT('Ctrl Pts',(27.4408292074575,44.3900333108517,7.8378193740046));
#1244=CARTESIAN_POINT('Ctrl Pts',(30.5254738058432,45.7539605684333,12.4212802943128));
#1245=CARTESIAN_POINT('Ctrl Pts',(31.4193648832569,46.1965971931545,15.7596138307638));
#1246=CARTESIAN_POINT('Ctrl Pts',(31.4921935982223,46.2319054332361,18.0161290322583));
#1247=CARTESIAN_POINT('Origin',(0.,114.419834710744,3.));
#1248=CARTESIAN_POINT('',(-16.3904670989828,41.417367256416,3.));
#1249=CARTESIAN_POINT('',(-16.4999999999999,40.9295122127865,3.5));
#1250=CARTESIAN_POINT('Origin',(-16.4999999999999,40.9295122127865,3.));
#1251=CARTESIAN_POINT('Origin',(0.,114.419834710744,3.5));
#1252=CARTESIAN_POINT('Origin',(0.,114.419834710744,3.));
#1253=CARTESIAN_POINT('Ctrl Pts',(-16.3904670998322,41.4173672566067,3.));
#1254=CARTESIAN_POINT('Ctrl Pts',(-19.7824413849586,42.1789311442762,3.00000000018839));
#1255=CARTESIAN_POINT('Ctrl Pts',(-25.2979641364073,43.8802933409286,4.91583028374784));
#1256=CARTESIAN_POINT('Ctrl Pts',(-30.4742749874371,46.0625971601045,11.0681783040469));
#1257=CARTESIAN_POINT('Ctrl Pts',(-31.7048027292029,46.6494874429777,15.6682676251224));
#1258=CARTESIAN_POINT('Ctrl Pts',(-31.7795594895091,46.6845612943341,18.));
#1259=CARTESIAN_POINT('Ctrl Pts',(-16.3904670998254,41.4173672566052,3.13089969389856));
#1260=CARTESIAN_POINT('Ctrl Pts',(-19.7549185619957,42.1726173558936,3.12683852844884));
#1261=CARTESIAN_POINT('Ctrl Pts',(-25.2350549347145,43.8590478135236,5.01672033890082));
#1262=CARTESIAN_POINT('Ctrl Pts',(-30.392437642359,46.0260619932493,11.1184452887736));
#1263=CARTESIAN_POINT('Ctrl Pts',(-31.6196341517307,46.6096473892999,15.6873198702858));
#1264=CARTESIAN_POINT('Ctrl Pts',(-31.6941857048133,46.6445062220986,18.0033619606851));
#1265=CARTESIAN_POINT('Ctrl Pts',(-16.4142297080475,41.3115295752356,3.39152753184225));
#1266=CARTESIAN_POINT('Ctrl Pts',(-19.7275646290629,42.0626705899604,3.37970938121198));
#1267=CARTESIAN_POINT('Ctrl Pts',(-25.1386852039397,43.7385652610588,5.21797521920362));
#1268=CARTESIAN_POINT('Ctrl Pts',(-30.2538907269962,45.8981071377825,11.2190569701395));
#1269=CARTESIAN_POINT('Ctrl Pts',(-31.4729205565028,46.4799802176643,15.7253453811105));
#1270=CARTESIAN_POINT('Ctrl Pts',(-31.546965617342,46.5147496940115,18.0100783058348));
#1271=CARTESIAN_POINT('Ctrl Pts',(-16.4713243543961,41.0572323647341,3.49999999999842));
#1272=CARTESIAN_POINT('Ctrl Pts',(-19.7705291743876,41.8185882131201,3.49354000412414));
#1273=CARTESIAN_POINT('Ctrl Pts',(-25.1472014889152,43.5189835659745,5.33190029553208));
#1274=CARTESIAN_POINT('Ctrl Pts',(-30.2128203593696,45.70325568228,11.2871159861301));
#1275=CARTESIAN_POINT('Ctrl Pts',(-31.4188870163932,46.2911310988503,15.7515780481009));
#1276=CARTESIAN_POINT('Ctrl Pts',(-31.4921475341779,46.326257728187,18.0147017900467));
#1277=CARTESIAN_POINT('Ctrl Pts',(-16.5000000008275,40.9295122129785,3.5));
#1278=CARTESIAN_POINT('Ctrl Pts',(-19.8044921613991,41.6961654188122,3.50000000018232));
#1279=CARTESIAN_POINT('Ctrl Pts',(-25.1777645277422,43.408897342511,5.35402930685275));
#1280=CARTESIAN_POINT('Ctrl Pts',(-30.2205735793658,45.6057848868957,11.3079144877874));
#1281=CARTESIAN_POINT('Ctrl Pts',(-31.4193648832567,46.1965971931544,15.7596138307637));
#1282=CARTESIAN_POINT('Ctrl Pts',(-31.4921935982222,46.231905433236,18.0161290322581));
#1283=CARTESIAN_POINT('Ctrl Pts',(-31.4921935982222,46.231905433236,18.0161290322581));
#1284=CARTESIAN_POINT('Ctrl Pts',(-31.4193648832567,46.1965971931544,15.7596138307637));
#1285=CARTESIAN_POINT('Ctrl Pts',(-30.2205735793658,45.6057848868957,11.3079144877874));
#1286=CARTESIAN_POINT('Ctrl Pts',(-25.1777645277422,43.408897342511,5.35402930685275));
#1287=CARTESIAN_POINT('Ctrl Pts',(-19.8044921613991,41.6961654188122,3.50000000018232));
#1288=CARTESIAN_POINT('Ctrl Pts',(-16.5000000008275,40.9295122129785,3.5));
#1289=CARTESIAN_POINT('Ctrl Pts',(-16.3904670998322,41.4173672566067,3.));
#1290=CARTESIAN_POINT('Ctrl Pts',(-19.7824413849586,42.1789311442762,3.00000000018839));
#1291=CARTESIAN_POINT('Ctrl Pts',(-25.2979641364073,43.8802933409286,4.91583028374784));
#1292=CARTESIAN_POINT('Ctrl Pts',(-30.4742749874371,46.0625971601045,11.0681783040469));
#1293=CARTESIAN_POINT('Ctrl Pts',(-31.7048027292029,46.6494874429777,15.6682676251224));
#1294=CARTESIAN_POINT('Ctrl Pts',(-31.7795594895091,46.6845612943341,18.));
#1295=CARTESIAN_POINT('Origin',(0.,114.419834710744,18.));
#1296=CARTESIAN_POINT('',(-34.9999999999999,48.2911142774628,18.));
#1297=CARTESIAN_POINT('',(-34.9999999999999,47.7259256871022,18.5));
#1298=CARTESIAN_POINT('Ctrl Pts',(-34.9999999999999,48.2911142774628,18.));
#1299=CARTESIAN_POINT('Ctrl Pts',(-34.9999999999999,48.2911142774628,18.0592980270651));
#1300=CARTESIAN_POINT('Ctrl Pts',(-34.9999999999999,48.2759685607884,18.1288251147814));
#1301=CARTESIAN_POINT('Ctrl Pts',(-34.9999999999999,48.2261627620931,18.240766667597));
#1302=CARTESIAN_POINT('Ctrl Pts',(-34.9999999999999,48.1813043893099,18.3019525590279));
#1303=CARTESIAN_POINT('Ctrl Pts',(-34.9999999999999,48.0849749414558,18.391332256825));
#1304=CARTESIAN_POINT('Ctrl Pts',(-34.9999999999999,48.0150958232276,18.4338959700295));
#1305=CARTESIAN_POINT('Ctrl Pts',(-34.9999999999999,47.8838816176398,18.4844591861859));
#1306=CARTESIAN_POINT('Ctrl Pts',(-34.9999999999999,47.7983604562872,18.5));
#1307=CARTESIAN_POINT('Ctrl Pts',(-34.9999999999999,47.7259256871022,18.5));
#1308=CARTESIAN_POINT('Origin',(0.,114.419834710744,18.5));
#1309=CARTESIAN_POINT('Origin',(0.,114.419834710744,18.));
#1310=CARTESIAN_POINT('Origin',(-31.9919333848296,-46.2319054332361,18.));
#1311=CARTESIAN_POINT('',(-31.4921935982222,-46.2319054332361,18.0161290322581));
#1312=CARTESIAN_POINT('',(-31.7795594895091,-46.6845612943342,18.0000000000002));
#1313=CARTESIAN_POINT('Origin',(-31.9919333848296,-46.2319054332361,18.));
#1314=CARTESIAN_POINT('',(-31.9919333848296,-46.2319054332361,18.5));
#1315=CARTESIAN_POINT('Origin',(-31.9919333848296,-46.2319054332361,18.));
#1316=CARTESIAN_POINT('Origin',(-31.9919333848296,-46.2319054332361,18.));
#1317=CARTESIAN_POINT('Origin',(-31.9919333848296,-24.2,18.));
#1318=CARTESIAN_POINT('',(-31.9919333848296,-24.2,18.5));
#1319=CARTESIAN_POINT('',(-31.4921935982222,-24.2,18.0161290322581));
#1320=CARTESIAN_POINT('Origin',(0.,-114.419834710744,18.));
#1321=CARTESIAN_POINT('',(-34.9999999999999,-47.7259256871023,18.5));
#1322=CARTESIAN_POINT('',(-34.9999999999999,-48.2911142774629,18.));
#1323=CARTESIAN_POINT('Ctrl Pts',(-34.9999999999999,-47.7259256871023,18.5));
#1324=CARTESIAN_POINT('Ctrl Pts',(-34.9999999999999,-47.7983604562873,18.5));
#1325=CARTESIAN_POINT('Ctrl Pts',(-34.9999999999999,-47.8838816176399,18.4844591861859));
#1326=CARTESIAN_POINT('Ctrl Pts',(-34.9999999999999,-48.0150958232276,18.4338959700295));
#1327=CARTESIAN_POINT('Ctrl Pts',(-34.9999999999999,-48.0849749414558,18.391332256825));
#1328=CARTESIAN_POINT('Ctrl Pts',(-34.9999999999999,-48.1813043893099,18.3019525590279));
#1329=CARTESIAN_POINT('Ctrl Pts',(-34.9999999999999,-48.2261627620932,18.240766667597));
#1330=CARTESIAN_POINT('Ctrl Pts',(-34.9999999999999,-48.2759685607885,18.1288251147814));
#1331=CARTESIAN_POINT('Ctrl Pts',(-34.9999999999999,-48.2911142774629,18.0592980270651));
#1332=CARTESIAN_POINT('Ctrl Pts',(-34.9999999999999,-48.2911142774629,18.));
#1333=CARTESIAN_POINT('Origin',(0.,-114.419834710744,18.));
#1334=CARTESIAN_POINT('Origin',(0.,-114.419834710744,18.5));
#1335=CARTESIAN_POINT('Ctrl Pts',(-31.7795594895091,-46.6845612943342,18.0000000000002));
#1336=CARTESIAN_POINT('Ctrl Pts',(-31.704802729203,-46.6494874429778,15.6682676251226));
#1337=CARTESIAN_POINT('Ctrl Pts',(-30.7872470501583,-46.2097891984749,12.2186563041232));
#1338=CARTESIAN_POINT('Ctrl Pts',(-27.620940504989,-44.8549161778205,7.48241335313808));
#1339=CARTESIAN_POINT('Ctrl Pts',(-23.1149880855536,-43.1612460667787,4.0134643139418));
#1340=CARTESIAN_POINT('Ctrl Pts',(-18.6517832899165,-41.9250765150531,3.00000000012559));
#1341=CARTESIAN_POINT('Ctrl Pts',(-16.3904670998323,-41.4173672566068,3.));
#1342=CARTESIAN_POINT('Ctrl Pts',(-31.6941857048133,-46.6445062220987,18.0033619606853));
#1343=CARTESIAN_POINT('Ctrl Pts',(-31.6196341517307,-46.6096473893,15.687319870286));
#1344=CARTESIAN_POINT('Ctrl Pts',(-30.7044424670674,-46.1724580862064,12.2611681144624));
#1345=CARTESIAN_POINT('Ctrl Pts',(-27.5494986025862,-44.8267321448875,7.56166188335562));
#1346=CARTESIAN_POINT('Ctrl Pts',(-23.0648825559623,-43.1462040431943,4.12585875125472));
#1347=CARTESIAN_POINT('Ctrl Pts',(-18.6334347412723,-41.9208673227975,3.12819225026541));
#1348=CARTESIAN_POINT('Ctrl Pts',(-16.3904670998254,-41.4173672566052,3.13089969389856));
#1349=CARTESIAN_POINT('Ctrl Pts',(-31.546965617342,-46.5147496940115,18.010078305835));
#1350=CARTESIAN_POINT('Ctrl Pts',(-31.4729205565028,-46.4799802176643,15.7253453811106));
#1351=CARTESIAN_POINT('Ctrl Pts',(-30.5635700927276,-46.0440424777434,12.3462113862423));
#1352=CARTESIAN_POINT('Ctrl Pts',(-27.4341827673943,-44.7028675665417,7.71993748951745));
#1353=CARTESIAN_POINT('Ctrl Pts',(-22.9938559295217,-43.0298970166698,4.34998815359372));
#1354=CARTESIAN_POINT('Ctrl Pts',(-18.6231196553911,-41.8122902517189,3.3836487647554));
#1355=CARTESIAN_POINT('Ctrl Pts',(-16.4142297080475,-41.3115295752356,3.39152753184225));
#1356=CARTESIAN_POINT('Ctrl Pts',(-31.4921475341779,-46.326257728187,18.0147017900469));
#1357=CARTESIAN_POINT('Ctrl Pts',(-31.4188870163932,-46.2911310988504,15.7515780481011));
#1358=CARTESIAN_POINT('Ctrl Pts',(-30.5194482767982,-45.8507040438251,12.4037850629719));
#1359=CARTESIAN_POINT('Ctrl Pts',(-27.4203940009519,-44.4944229994699,7.81531941394653));
#1360=CARTESIAN_POINT('Ctrl Pts',(-23.0176325299355,-42.8002248185323,4.46498847902373));
#1361=CARTESIAN_POINT('Ctrl Pts',(-18.6707942343904,-41.5648029303248,3.49569333608222));
#1362=CARTESIAN_POINT('Ctrl Pts',(-16.4713243543961,-41.0572323647341,3.49999999999841));
#1363=CARTESIAN_POINT('Ctrl Pts',(-31.4921935982222,-46.2319054332361,18.0161290322583));
#1364=CARTESIAN_POINT('Ctrl Pts',(-31.4193648832568,-46.1965971931545,15.7596138307638));
#1365=CARTESIAN_POINT('Ctrl Pts',(-30.5254738058431,-45.7539605684333,12.4212802943128));
#1366=CARTESIAN_POINT('Ctrl Pts',(-27.4408292074574,-44.3900333108517,7.8378193740046));
#1367=CARTESIAN_POINT('Ctrl Pts',(-23.0510894292922,-42.6850448768172,4.48077191671787));
#1368=CARTESIAN_POINT('Ctrl Pts',(-18.7029947745419,-41.440614350201,3.50000000012154));
#1369=CARTESIAN_POINT('Ctrl Pts',(-16.5000000008275,-40.9295122129785,3.49999999999999));
#1370=CARTESIAN_POINT('',(-16.3904670998323,-41.4173672566068,3.));
#1371=CARTESIAN_POINT('Ctrl Pts',(-31.7795594895091,-46.6845612943342,18.0000000000002));
#1372=CARTESIAN_POINT('Ctrl Pts',(-31.704802729203,-46.6494874429778,15.6682676251226));
#1373=CARTESIAN_POINT('Ctrl Pts',(-30.7872470501583,-46.2097891984749,12.2186563041232));
#1374=CARTESIAN_POINT('Ctrl Pts',(-27.620940504989,-44.8549161778205,7.48241335313808));
#1375=CARTESIAN_POINT('Ctrl Pts',(-23.1149880855536,-43.1612460667787,4.0134643139418));
#1376=CARTESIAN_POINT('Ctrl Pts',(-18.6517832899165,-41.9250765150531,3.00000000012559));
#1377=CARTESIAN_POINT('Ctrl Pts',(-16.3904670998323,-41.4173672566068,3.));
#1378=CARTESIAN_POINT('',(-16.5000000004137,-40.9295122129785,3.5));
#1379=CARTESIAN_POINT('Origin',(-16.5000000008551,-40.9295122129785,3.));
#1380=CARTESIAN_POINT('Ctrl Pts',(-16.5000000008275,-40.9295122129785,3.49999999999999));
#1381=CARTESIAN_POINT('Ctrl Pts',(-18.7029947745419,-41.440614350201,3.50000000012154));
#1382=CARTESIAN_POINT('Ctrl Pts',(-23.0510894292922,-42.6850448768172,4.48077191671787));
#1383=CARTESIAN_POINT('Ctrl Pts',(-27.4408292074574,-44.3900333108517,7.8378193740046));
#1384=CARTESIAN_POINT('Ctrl Pts',(-30.5254738058431,-45.7539605684333,12.4212802943128));
#1385=CARTESIAN_POINT('Ctrl Pts',(-31.4193648832568,-46.1965971931545,15.7596138307638));
#1386=CARTESIAN_POINT('Ctrl Pts',(-31.4921935982222,-46.2319054332361,18.0161290322583));
#1387=CARTESIAN_POINT('Origin',(0.,-114.419834710744,3.));
#1388=CARTESIAN_POINT('',(16.3904670989829,-41.4173672564161,3.));
#1389=CARTESIAN_POINT('',(16.5,-40.9295122127865,3.5));
#1390=CARTESIAN_POINT('Origin',(16.5,-40.9295122127865,3.));
#1391=CARTESIAN_POINT('Origin',(0.,-114.419834710744,3.5));
#1392=CARTESIAN_POINT('Origin',(0.,-114.419834710744,3.));
#1393=CARTESIAN_POINT('Ctrl Pts',(16.3904670998323,-41.4173672566068,3.));
#1394=CARTESIAN_POINT('Ctrl Pts',(19.7824413849587,-42.1789311442763,3.00000000018839));
#1395=CARTESIAN_POINT('Ctrl Pts',(25.2979641364074,-43.8802933409287,4.91583028374786));
#1396=CARTESIAN_POINT('Ctrl Pts',(30.4742749874371,-46.0625971601046,11.0681783040469));
#1397=CARTESIAN_POINT('Ctrl Pts',(31.704802729203,-46.6494874429778,15.6682676251224));
#1398=CARTESIAN_POINT('Ctrl Pts',(31.7795594895092,-46.6845612943342,18.));
#1399=CARTESIAN_POINT('Ctrl Pts',(16.3904670998255,-41.4173672566053,3.13089969389857));
#1400=CARTESIAN_POINT('Ctrl Pts',(19.7549185619958,-42.1726173558937,3.12683852844884));
#1401=CARTESIAN_POINT('Ctrl Pts',(25.2350549347146,-43.8590478135237,5.01672033890084));
#1402=CARTESIAN_POINT('Ctrl Pts',(30.3924376423591,-46.0260619932494,11.1184452887736));
#1403=CARTESIAN_POINT('Ctrl Pts',(31.6196341517308,-46.6096473893,15.6873198702858));
#1404=CARTESIAN_POINT('Ctrl Pts',(31.6941857048134,-46.6445062220987,18.0033619606851));
#1405=CARTESIAN_POINT('Ctrl Pts',(16.4142297080476,-41.3115295752357,3.39152753184226));
#1406=CARTESIAN_POINT('Ctrl Pts',(19.727564629063,-42.0626705899605,3.37970938121198));
#1407=CARTESIAN_POINT('Ctrl Pts',(25.1386852039398,-43.7385652610589,5.21797521920365));
#1408=CARTESIAN_POINT('Ctrl Pts',(30.2538907269963,-45.8981071377826,11.2190569701395));
#1409=CARTESIAN_POINT('Ctrl Pts',(31.4729205565029,-46.4799802176644,15.7253453811105));
#1410=CARTESIAN_POINT('Ctrl Pts',(31.5469656173421,-46.5147496940116,18.0100783058348));
#1411=CARTESIAN_POINT('Ctrl Pts',(16.4713243543962,-41.0572323647342,3.49999999999842));
#1412=CARTESIAN_POINT('Ctrl Pts',(19.7705291743877,-41.8185882131202,3.49354000412414));
#1413=CARTESIAN_POINT('Ctrl Pts',(25.1472014889154,-43.5189835659746,5.3319002955321));
#1414=CARTESIAN_POINT('Ctrl Pts',(30.2128203593696,-45.7032556822801,11.2871159861301));
#1415=CARTESIAN_POINT('Ctrl Pts',(31.4188870163933,-46.2911310988504,15.7515780481009));
#1416=CARTESIAN_POINT('Ctrl Pts',(31.492147534178,-46.3262577281871,18.0147017900467));
#1417=CARTESIAN_POINT('Ctrl Pts',(16.5000000008276,-40.9295122129786,3.50000000000001));
#1418=CARTESIAN_POINT('Ctrl Pts',(19.8044921613992,-41.6961654188123,3.50000000018232));
#1419=CARTESIAN_POINT('Ctrl Pts',(25.1777645277424,-43.4088973425111,5.35402930685277));
#1420=CARTESIAN_POINT('Ctrl Pts',(30.2205735793659,-45.6057848868958,11.3079144877874));
#1421=CARTESIAN_POINT('Ctrl Pts',(31.4193648832568,-46.1965971931545,15.7596138307637));
#1422=CARTESIAN_POINT('Ctrl Pts',(31.4921935982223,-46.2319054332362,18.0161290322581));
#1423=CARTESIAN_POINT('Ctrl Pts',(31.4921935982223,-46.2319054332362,18.0161290322581));
#1424=CARTESIAN_POINT('Ctrl Pts',(31.4193648832568,-46.1965971931545,15.7596138307637));
#1425=CARTESIAN_POINT('Ctrl Pts',(30.2205735793659,-45.6057848868958,11.3079144877874));
#1426=CARTESIAN_POINT('Ctrl Pts',(25.1777645277424,-43.4088973425111,5.35402930685277));
#1427=CARTESIAN_POINT('Ctrl Pts',(19.8044921613992,-41.6961654188123,3.50000000018232));
#1428=CARTESIAN_POINT('Ctrl Pts',(16.5000000008276,-40.9295122129786,3.50000000000001));
#1429=CARTESIAN_POINT('Ctrl Pts',(16.3904670998323,-41.4173672566068,3.));
#1430=CARTESIAN_POINT('Ctrl Pts',(19.7824413849587,-42.1789311442763,3.00000000018839));
#1431=CARTESIAN_POINT('Ctrl Pts',(25.2979641364074,-43.8802933409287,4.91583028374786));
#1432=CARTESIAN_POINT('Ctrl Pts',(30.4742749874371,-46.0625971601046,11.0681783040469));
#1433=CARTESIAN_POINT('Ctrl Pts',(31.704802729203,-46.6494874429778,15.6682676251224));
#1434=CARTESIAN_POINT('Ctrl Pts',(31.7795594895092,-46.6845612943342,18.));
#1435=CARTESIAN_POINT('Origin',(0.,-114.419834710744,18.));
#1436=CARTESIAN_POINT('',(35.,-48.2911142774629,18.));
#1437=CARTESIAN_POINT('',(35.,-47.7259256871023,18.5));
#1438=CARTESIAN_POINT('Ctrl Pts',(35.,-48.2911142774629,18.));
#1439=CARTESIAN_POINT('Ctrl Pts',(35.,-48.2911142774629,18.0592980270651));
#1440=CARTESIAN_POINT('Ctrl Pts',(35.,-48.2759685607885,18.1288251147814));
#1441=CARTESIAN_POINT('Ctrl Pts',(35.,-48.2261627620932,18.240766667597));
#1442=CARTESIAN_POINT('Ctrl Pts',(35.,-48.18130438931,18.3019525590279));
#1443=CARTESIAN_POINT('Ctrl Pts',(35.,-48.0849749414559,18.391332256825));
#1444=CARTESIAN_POINT('Ctrl Pts',(35.,-48.0150958232277,18.4338959700295));
#1445=CARTESIAN_POINT('Ctrl Pts',(35.,-47.8838816176399,18.4844591861859));
#1446=CARTESIAN_POINT('Ctrl Pts',(35.,-47.7983604562873,18.5));
#1447=CARTESIAN_POINT('Ctrl Pts',(35.,-47.7259256871023,18.5));
#1448=CARTESIAN_POINT('Origin',(0.,-114.419834710744,18.5));
#1449=CARTESIAN_POINT('Origin',(0.,-114.419834710744,18.));
#1450=CARTESIAN_POINT('Origin',(31.9919333848297,24.2,18.));
#1451=CARTESIAN_POINT('',(31.9919333848297,24.2,18.5));
#1452=CARTESIAN_POINT('',(31.4921935982223,24.2,18.0161290322581));
#1453=CARTESIAN_POINT('Origin',(0.,114.419834710744,18.));
#1454=CARTESIAN_POINT('',(35.,47.7259256871023,18.5));
#1455=CARTESIAN_POINT('',(35.,48.2911142774628,18.));
#1456=CARTESIAN_POINT('Ctrl Pts',(35.,47.7259256871023,18.5));
#1457=CARTESIAN_POINT('Ctrl Pts',(35.,47.7983604562872,18.5));
#1458=CARTESIAN_POINT('Ctrl Pts',(35.,47.8838816176399,18.4844591861859));
#1459=CARTESIAN_POINT('Ctrl Pts',(35.,48.0150958232276,18.4338959700295));
#1460=CARTESIAN_POINT('Ctrl Pts',(35.,48.0849749414558,18.391332256825));
#1461=CARTESIAN_POINT('Ctrl Pts',(35.,48.1813043893099,18.3019525590279));
#1462=CARTESIAN_POINT('Ctrl Pts',(35.,48.2261627620932,18.240766667597));
#1463=CARTESIAN_POINT('Ctrl Pts',(35.,48.2759685607884,18.1288251147814));
#1464=CARTESIAN_POINT('Ctrl Pts',(35.,48.2911142774628,18.0592980270651));
#1465=CARTESIAN_POINT('Ctrl Pts',(35.,48.2911142774628,18.));
#1466=CARTESIAN_POINT('Origin',(0.,114.419834710744,18.));
#1467=CARTESIAN_POINT('Origin',(0.,114.419834710744,18.5));
#1468=CARTESIAN_POINT('Origin',(16.5,24.2,18.5));
#1469=CARTESIAN_POINT('',(16.5,24.2,3.5));
#1470=CARTESIAN_POINT('Origin',(0.,-3.5527136788005E-14,3.5));
#1471=CARTESIAN_POINT('',(-16.4999999999999,-24.2,3.5));
#1472=CARTESIAN_POINT('',(-9.99999999999991,16.1333333333333,3.5));
#1473=CARTESIAN_POINT('Origin',(-7.24999999999991,16.1333333333333,3.5));
#1474=CARTESIAN_POINT('',(-9.9999999999999,-16.1333333333334,3.5));
#1475=CARTESIAN_POINT('Origin',(-7.24999999999991,-16.1333333333334,3.5));
#1476=CARTESIAN_POINT('Origin',(33.25,-4.44089209850063E-14,18.5));
#1477=CARTESIAN_POINT('',(35.,48.4,18.5));
#1478=CARTESIAN_POINT('Origin',(35.,-48.4,0.));
#1479=CARTESIAN_POINT('',(35.,-48.2911142774629,0.));
#1480=CARTESIAN_POINT('',(35.,-48.2911142774629,0.));
#1481=CARTESIAN_POINT('',(35.,48.2911142774628,0.));
#1482=CARTESIAN_POINT('',(35.,-48.4,0.));
#1483=CARTESIAN_POINT('',(35.,48.2911142774628,0.));
#1484=CARTESIAN_POINT('Origin',(0.,-114.419834710744,0.));
#1485=CARTESIAN_POINT('',(-34.9999999999999,-48.2911142774629,0.));
#1486=CARTESIAN_POINT('',(-34.9999999999999,-48.2911142774629,0.));
#1487=CARTESIAN_POINT('Origin',(0.,-114.419834710744,0.));
#1488=CARTESIAN_POINT('Origin',(-7.24999999999991,-16.1333333333334,0.));
#1489=CARTESIAN_POINT('',(-9.9999999999999,-16.1333333333334,0.));
#1490=CARTESIAN_POINT('Origin',(-7.24999999999991,-16.1333333333334,0.));
#1491=CARTESIAN_POINT('',(-9.9999999999999,-16.1333333333334,0.));
#1492=CARTESIAN_POINT('Origin',(-7.24999999999991,16.1333333333333,0.));
#1493=CARTESIAN_POINT('',(-9.99999999999991,16.1333333333333,0.));
#1494=CARTESIAN_POINT('Origin',(-7.24999999999991,16.1333333333333,0.));
#1495=CARTESIAN_POINT('',(-9.99999999999991,16.1333333333333,0.));
#1496=CARTESIAN_POINT('Origin',(0.,114.419834710744,0.));
#1497=CARTESIAN_POINT('',(-34.9999999999999,48.2911142774628,0.));
#1498=CARTESIAN_POINT('Origin',(0.,114.419834710744,0.));
#1499=CARTESIAN_POINT('',(-34.9999999999999,48.2911142774628,0.));
#1500=CARTESIAN_POINT('Origin',(0.,-3.5527136788005E-14,0.));
#1501=CARTESIAN_POINT('',(-34.9999999999999,-48.4,0.));
#1502=CARTESIAN_POINT('Origin',(-34.9999999999999,48.4,0.));
#1503=CARTESIAN_POINT('',(-34.9999999999999,48.4,18.5));
#1504=CARTESIAN_POINT('Origin',(-16.4999999999999,-24.2,18.5));
#1505=CARTESIAN_POINT('Origin',(-33.2499999999999,-1.77635683940025E-14,
18.5));
#1506=CARTESIAN_POINT('Origin',(35.,-5.28714652652985,11.9337035116912));
#1507=CARTESIAN_POINT('',(35.,-5.28714652652985,11.9337035116912));
#1508=CARTESIAN_POINT('',(35.,-7.5,0.));
#1509=CARTESIAN_POINT('',(35.,-6.39357326326492,5.9668517558456));
#1510=CARTESIAN_POINT('',(-35.,-5.28714652652985,11.9337035116912));
#1511=CARTESIAN_POINT('',(35.,-5.28714652652985,11.9337035116912));
#1512=CARTESIAN_POINT('',(-35.,-7.5,0.));
#1513=CARTESIAN_POINT('',(-35.,-6.14426633425218,7.31133977094348));
#1514=CARTESIAN_POINT('',(-35.,-7.5,0.));
#1515=CARTESIAN_POINT('Origin',(35.,-1.6,11.25));
#1516=CARTESIAN_POINT('',(35.,1.8271607440234,12.7721922462767));
#1517=CARTESIAN_POINT('Origin',(35.,-1.6,11.25));
#1518=CARTESIAN_POINT('',(-35.,1.8271607440234,12.7721922462767));
#1519=CARTESIAN_POINT('',(35.,1.8271607440234,12.7721922462767));
#1520=CARTESIAN_POINT('Origin',(-35.,-1.6,11.25));
#1521=CARTESIAN_POINT('Origin',(35.,7.5,0.));
#1522=CARTESIAN_POINT('',(35.,7.5,0.));
#1523=CARTESIAN_POINT('',(35.,6.26422974153337,2.78229200602472));
#1524=CARTESIAN_POINT('',(-35.,7.5,0.));
#1525=CARTESIAN_POINT('',(35.,7.5,0.));
#1526=CARTESIAN_POINT('',(-35.,7.50000000000001,-3.07523591455774E-14));
#1527=CARTESIAN_POINT('Origin',(-35.,7.5,0.));
#1528=CARTESIAN_POINT('',(-35.,7.5,0.));
#1529=CARTESIAN_POINT('Origin',(35.,-7.5,0.));
#1530=CARTESIAN_POINT('',(35.,-7.5,0.));
#1531=CARTESIAN_POINT('Origin',(-4.44089209850063E-15,0.,0.));
#1532=UNCERTAINTY_MEASURE_WITH_UNIT(LENGTH_MEASURE(0.01),#1536,
'DISTANCE_ACCURACY_VALUE',
'Maximum model space distance between geometric entities at asserted c
onnectivities');
#1533=UNCERTAINTY_MEASURE_WITH_UNIT(LENGTH_MEASURE(0.01),#1536,
'DISTANCE_ACCURACY_VALUE',
'Maximum model space distance between geometric entities at asserted c
onnectivities');
#1534=(
GEOMETRIC_REPRESENTATION_CONTEXT(3)
GLOBAL_UNCERTAINTY_ASSIGNED_CONTEXT((#1532))
GLOBAL_UNIT_ASSIGNED_CONTEXT((#1536,#1538,#1539))
REPRESENTATION_CONTEXT('','3D')
);
#1535=(
GEOMETRIC_REPRESENTATION_CONTEXT(3)
GLOBAL_UNCERTAINTY_ASSIGNED_CONTEXT((#1533))
GLOBAL_UNIT_ASSIGNED_CONTEXT((#1536,#1538,#1539))
REPRESENTATION_CONTEXT('','3D')
);
#1536=(
LENGTH_UNIT()
NAMED_UNIT(*)
SI_UNIT(.MILLI.,.METRE.)
);
#1537=(
LENGTH_UNIT()
NAMED_UNIT(*)
SI_UNIT($,.METRE.)
);
#1538=(
NAMED_UNIT(*)
PLANE_ANGLE_UNIT()
SI_UNIT($,.RADIAN.)
);
#1539=(
NAMED_UNIT(*)
SI_UNIT($,.STERADIAN.)
SOLID_ANGLE_UNIT()
);
#1540=SHAPE_DEFINITION_REPRESENTATION(#1541,#1542);
#1541=PRODUCT_DEFINITION_SHAPE('',$,#1544);
#1542=SHAPE_REPRESENTATION('',(#740),#1534);
#1543=PRODUCT_DEFINITION_CONTEXT('part definition',#1548,'design');
#1544=PRODUCT_DEFINITION('support_\X\E9tag\X\E8res_central',
'support_\X\E9tag\X\E8res_central v9',#1545,#1543);
#1545=PRODUCT_DEFINITION_FORMATION('',$,#1550);
#1546=PRODUCT_RELATED_PRODUCT_CATEGORY('support_\X\E9tag\X\E8res_centr
al v9','support_\X\E9tag\X\E8res_central v9',(#1550));
#1547=APPLICATION_PROTOCOL_DEFINITION('international standard',
'automotive_design',2009,#1548);
#1548=APPLICATION_CONTEXT(
'Core Data for Automotive Mechanical Design Process');
#1549=PRODUCT_CONTEXT('part definition',#1548,'mechanical');
#1550=PRODUCT('support_\X\E9tag\X\E8res_central',
'support_\X\E9tag\X\E8res_central v9',$,(#1549));
#1551=PRESENTATION_STYLE_ASSIGNMENT((#1552));
#1552=SURFACE_STYLE_USAGE(.BOTH.,#1553);
#1553=SURFACE_SIDE_STYLE('',(#1554));
#1554=SURFACE_STYLE_FILL_AREA(#1555);
#1555=FILL_AREA_STYLE('Acier - Satin\X\E9',(#1556));
#1556=FILL_AREA_STYLE_COLOUR('Acier - Satin\X\E9',#1557);
#1557=COLOUR_RGB('Acier - Satin\X\E9',0.627450980392157,0.627450980392157,
0.627450980392157);
ENDSEC;
END-ISO-10303-21;
