ISO-10303-21;
HEADER;
/* Generated by software containing ST-Developer
 * from STEP Tools, Inc. (www.steptools.com) 
 */

FILE_DESCRIPTION(
/* description */ (''),
/* implementation_level */ '2;1');

FILE_NAME(
/* name */ 'support_tagres_central.step',
/* time_stamp */ '2025-11-06T20:22:59+01:00',
/* author */ (''),
/* organization */ (''),
/* preprocessor_version */ 'ST-DEVELOPER v20.1',
/* originating_system */ 'Autodesk Translation Framework v14.17.0.0',
/* authorisation */ '');

FILE_SCHEMA (('AUTOMOTIVE_DESIGN { 1 0 10303 214 3 1 1 }'));
ENDSEC;

DATA;
#10=MECHANICAL_DESIGN_GEOMETRIC_PRESENTATION_REPRESENTATION('',(#53,#54),
#1382);
#11=SHAPE_REPRESENTATION_RELATIONSHIP('SRR','None',#1389,#12);
#12=ADVANCED_BREP_SHAPE_REPRESENTATION('',(#55,#56),#1381);
#13=FACE_BOUND('',#176,.T.);
#14=FACE_BOUND('',#177,.T.);
#15=FACE_BOUND('',#185,.T.);
#16=FACE_BOUND('',#188,.T.);
#17=FACE_BOUND('',#193,.T.);
#18=FACE_BOUND('',#194,.T.);
#19=FACE_BOUND('',#196,.T.);
#20=FACE_BOUND('',#197,.T.);
#21=FACE_BOUND('',#199,.T.);
#22=FACE_BOUND('',#200,.T.);
#23=TOROIDAL_SURFACE('',#669,325.254352128121,0.5);
#24=TOROIDAL_SURFACE('',#673,325.254352128121,0.5);
#25=TOROIDAL_SURFACE('',#681,325.103681957638,0.5);
#26=TOROIDAL_SURFACE('',#685,325.103681957638,0.5);
#27=TOROIDAL_SURFACE('',#689,325.103681957638,0.5);
#28=TOROIDAL_SURFACE('',#693,325.254352128121,0.5);
#29=B_SPLINE_CURVE_WITH_KNOTS('',3,(#998,#999,#1000,#1001,#1002,#1003,#1004),
 .UNSPECIFIED.,.F.,.F.,(4,1,1,1,4),(0.100533863857057,0.800944861508001,
1.15115036033347,1.85156135798442,2.55197235563536),.UNSPECIFIED.);
#30=B_SPLINE_CURVE_WITH_KNOTS('',3,(#1007,#1008,#1009,#1010,#1011,#1012,
#1013),.UNSPECIFIED.,.F.,.F.,(4,1,1,1,4),(-2.55197235563536,-1.85156135798442,
-1.15115036033347,-0.800944861508001,-0.100533863857057),.UNSPECIFIED.);
#31=B_SPLINE_CURVE_WITH_KNOTS('',3,(#1050,#1051,#1052,#1053,#1054,#1055),
 .UNSPECIFIED.,.F.,.F.,(4,1,1,4),(-2.4514384917783,-1.75102749412736,-1.05061649647641,
0.),.UNSPECIFIED.);
#32=B_SPLINE_CURVE_WITH_KNOTS('',3,(#1056,#1057,#1058,#1059,#1060,#1061),
 .UNSPECIFIED.,.F.,.F.,(4,1,1,4),(0.,1.05061649647641,1.75102749412736,
2.4514384917783),.UNSPECIFIED.);
#33=B_SPLINE_CURVE_WITH_KNOTS('',3,(#1065,#1066,#1067,#1068,#1069,#1070,
#1071,#1072,#1073,#1074),.UNSPECIFIED.,.F.,.F.,(4,2,2,2,4),(0.15325128795306,
0.171368708295692,0.190122436724726,0.209666469183658,0.2298807189324),
 .UNSPECIFIED.);
#34=B_SPLINE_CURVE_WITH_KNOTS('',3,(#1090,#1091,#1092,#1093,#1094,#1095,
#1096,#1097,#1098,#1099),.UNSPECIFIED.,.F.,.F.,(4,2,2,2,4),(0.383137746340621,
0.403353756793652,0.422898844640915,0.441652817704695,0.459769847351449),
 .UNSPECIFIED.);
#35=B_SPLINE_CURVE_WITH_KNOTS('',3,(#1138,#1139,#1140,#1141,#1142,#1143,
#1144),.UNSPECIFIED.,.F.,.F.,(4,1,1,1,4),(0.100533861647742,0.450749029077217,
1.15117936393617,1.85160969879512,2.55204003365407),.UNSPECIFIED.);
#36=B_SPLINE_CURVE_WITH_KNOTS('',3,(#1147,#1148,#1149,#1150,#1151,#1152,
#1153),.UNSPECIFIED.,.F.,.F.,(4,1,1,1,4),(-2.55204003365407,-1.85160969879512,
-1.15117936393617,-0.450749029077217,-0.100533861647742),.UNSPECIFIED.);
#37=B_SPLINE_CURVE_WITH_KNOTS('',3,(#1190,#1191,#1192,#1193,#1194,#1195),
 .UNSPECIFIED.,.F.,.F.,(4,1,1,4),(-2.45150617200632,-1.75107583714737,-1.05064550228842,
0.),.UNSPECIFIED.);
#38=B_SPLINE_CURVE_WITH_KNOTS('',3,(#1196,#1197,#1198,#1199,#1200,#1201),
 .UNSPECIFIED.,.F.,.F.,(4,1,1,4),(0.,1.05064550228842,1.75107583714737,
2.45150617200632),.UNSPECIFIED.);
#39=B_SPLINE_CURVE_WITH_KNOTS('',3,(#1205,#1206,#1207,#1208,#1209,#1210,
#1211,#1212,#1213,#1214),.UNSPECIFIED.,.F.,.F.,(4,2,2,2,4),(0.153256615783816,
0.171373645430574,0.19012761849435,0.209672706341606,0.229888716794645),
 .UNSPECIFIED.);
#40=B_SPLINE_CURVE_WITH_KNOTS('',3,(#1223,#1224,#1225,#1226,#1227,#1228,
#1229,#1230,#1231,#1232),.UNSPECIFIED.,.F.,.F.,(4,2,2,2,4),(0.383124432879843,
0.403338682628592,0.422882715087518,0.441636443516551,0.459753863859183),
 .UNSPECIFIED.);
#41=B_SPLINE_CURVE_WITH_KNOTS('',3,(#1285,#1286,#1287,#1288,#1289,#1290,
#1291,#1292,#1293,#1294),.UNSPECIFIED.,.F.,.F.,(4,2,2,2,4),(0.,0.140127824190576,
0.280255648381151,0.435953945416693,0.591652242452235),.UNSPECIFIED.);
#42=B_SPLINE_CURVE_WITH_KNOTS('',3,(#1295,#1296,#1297,#1298,#1299,#1300,
#1301,#1302,#1303,#1304,#1305,#1306,#1307,#1308,#1309,#1310,#1311,#1312,
#1313,#1314,#1315,#1316,#1317,#1318,#1319,#1320,#1321,#1322,#1323,#1324),
 .UNSPECIFIED.,.F.,.F.,(4,2,2,2,2,2,2,2,2,2,2,2,2,2,4),(0.591652242452235,
0.77046687074435,0.949281499036465,1.09397357799726,1.16631961747766,1.23866565695806,
1.31101169643846,1.38335773591886,1.52804981487966,1.70686444317177,1.88567907146389,
2.04137736849943,2.19707566553497,2.33720348972555,2.47733131391612),
 .UNSPECIFIED.);
#43=B_SPLINE_CURVE_WITH_KNOTS('',3,(#1329,#1330,#1331,#1332,#1333,#1334,
#1335,#1336,#1337,#1338),.UNSPECIFIED.,.F.,.F.,(4,2,2,2,4),(0.,0.140127824190576,
0.280255648381151,0.435953945416693,0.591652242452235),.UNSPECIFIED.);
#44=B_SPLINE_CURVE_WITH_KNOTS('',3,(#1339,#1340,#1341,#1342,#1343,#1344,
#1345,#1346,#1347,#1348,#1349,#1350,#1351,#1352,#1353,#1354,#1355,#1356,
#1357,#1358,#1359,#1360,#1361,#1362,#1363,#1364,#1365,#1366,#1367,#1368),
 .UNSPECIFIED.,.F.,.F.,(4,2,2,2,2,2,2,2,2,2,2,2,2,2,4),(0.591652242452235,
0.77046687074435,0.949281499036465,1.09397357799726,1.16631961747766,1.23866565695806,
1.31101169643846,1.38335773591886,1.52804981487966,1.70686444317177,1.88567907146389,
2.04137736849943,2.19707566553497,2.33720348972555,2.47733131391612),
 .UNSPECIFIED.);
#45=B_SPLINE_SURFACE_WITH_KNOTS('',3,3,((#962,#963,#964,#965,#966,#967,
#968),(#969,#970,#971,#972,#973,#974,#975),(#976,#977,#978,#979,#980,#981,
#982),(#983,#984,#985,#986,#987,#988,#989),(#990,#991,#992,#993,#994,#995,
#996)),.UNSPECIFIED.,.F.,.F.,.F.,(4,1,4),(4,1,1,1,4),(0.,0.5,1.),(0.100533863857057,
0.800944861508001,1.15115036033347,1.85156135798442,2.55197235563536),
 .UNSPECIFIED.);
#46=B_SPLINE_SURFACE_WITH_KNOTS('',3,3,((#1020,#1021,#1022,#1023,#1024,
#1025),(#1026,#1027,#1028,#1029,#1030,#1031),(#1032,#1033,#1034,#1035,#1036,
#1037),(#1038,#1039,#1040,#1041,#1042,#1043),(#1044,#1045,#1046,#1047,#1048,
#1049)),.UNSPECIFIED.,.F.,.F.,.F.,(4,1,4),(4,1,1,4),(0.,0.5,1.),(0.,1.05061649647641,
1.75102749412736,2.4514384917783),.UNSPECIFIED.);
#47=B_SPLINE_SURFACE_WITH_KNOTS('',3,3,((#1102,#1103,#1104,#1105,#1106,
#1107,#1108),(#1109,#1110,#1111,#1112,#1113,#1114,#1115),(#1116,#1117,#1118,
#1119,#1120,#1121,#1122),(#1123,#1124,#1125,#1126,#1127,#1128,#1129),(#1130,
#1131,#1132,#1133,#1134,#1135,#1136)),.UNSPECIFIED.,.F.,.F.,.F.,(4,1,4),
(4,1,1,1,4),(0.,0.5,1.),(0.100533861647742,0.450749029077217,1.15117936393617,
1.85160969879512,2.55204003365407),.UNSPECIFIED.);
#48=B_SPLINE_SURFACE_WITH_KNOTS('',3,3,((#1160,#1161,#1162,#1163,#1164,
#1165),(#1166,#1167,#1168,#1169,#1170,#1171),(#1172,#1173,#1174,#1175,#1176,
#1177),(#1178,#1179,#1180,#1181,#1182,#1183),(#1184,#1185,#1186,#1187,#1188,
#1189)),.UNSPECIFIED.,.F.,.F.,.F.,(4,1,4),(4,1,1,4),(0.,0.5,1.),(0.,1.05064550228842,
1.75107583714737,2.45150617200632),.UNSPECIFIED.);
#49=SPHERICAL_SURFACE('',#656,0.500000000000003);
#50=SPHERICAL_SURFACE('',#660,0.500000000000005);
#51=SPHERICAL_SURFACE('',#664,0.499999999999997);
#52=SPHERICAL_SURFACE('',#676,0.500000000000003);
#53=STYLED_ITEM('',(#1398),#55);
#54=STYLED_ITEM('',(#1398),#56);
#55=MANIFOLD_SOLID_BREP('Corps9',#633);
#56=MANIFOLD_SOLID_BREP('Corps12',#634);
#57=CIRCLE('',#650,3.75);
#58=CIRCLE('',#651,3.75);
#59=CIRCLE('',#657,0.49999999999997);
#60=CIRCLE('',#658,0.500000000000003);
#61=CIRCLE('',#659,0.500000000000016);
#62=CIRCLE('',#661,0.500000000000005);
#63=CIRCLE('',#662,0.500000000000005);
#64=CIRCLE('',#663,0.5);
#65=CIRCLE('',#665,0.500000000000005);
#66=CIRCLE('',#666,0.499999999999997);
#67=CIRCLE('',#667,0.5);
#68=CIRCLE('',#668,0.499999999999987);
#69=CIRCLE('',#670,0.499999999999972);
#70=CIRCLE('',#671,325.254352128121);
#71=CIRCLE('',#672,324.754352128121);
#72=CIRCLE('',#674,325.254352128121);
#73=CIRCLE('',#675,324.754352128121);
#74=CIRCLE('',#677,0.500000000000005);
#75=CIRCLE('',#678,0.500000000000003);
#76=CIRCLE('',#679,0.499999999999951);
#77=CIRCLE('',#682,324.603681957638);
#78=CIRCLE('',#683,325.103681957638);
#79=CIRCLE('',#684,0.499999999999997);
#80=CIRCLE('',#686,0.499999999999986);
#81=CIRCLE('',#687,325.103681957638);
#82=CIRCLE('',#688,324.603681957638);
#83=CIRCLE('',#690,325.103681957638);
#84=CIRCLE('',#691,324.603681957638);
#85=CIRCLE('',#694,324.754352128121);
#86=CIRCLE('',#695,325.254352128121);
#87=CIRCLE('',#698,2.75);
#88=CIRCLE('',#699,2.75);
#89=CIRCLE('',#703,324.603681957638);
#90=CIRCLE('',#705,2.75);
#91=CIRCLE('',#707,2.75);
#92=CIRCLE('',#709,1.5);
#93=CIRCLE('',#710,1.5);
#94=CIRCLE('',#712,3.75);
#95=CIRCLE('',#714,1.5);
#96=CIRCLE('',#715,1.5);
#97=CIRCLE('',#717,3.75);
#98=CIRCLE('',#721,324.754352128121);
#99=CYLINDRICAL_SURFACE('',#649,3.75);
#100=CYLINDRICAL_SURFACE('',#680,0.5);
#101=CYLINDRICAL_SURFACE('',#692,0.5);
#102=CYLINDRICAL_SURFACE('',#696,15.);
#103=CYLINDRICAL_SURFACE('',#702,324.603681957638);
#104=CYLINDRICAL_SURFACE('',#704,2.75);
#105=CYLINDRICAL_SURFACE('',#706,2.75);
#106=CYLINDRICAL_SURFACE('',#708,1.5);
#107=CYLINDRICAL_SURFACE('',#713,1.5);
#108=CYLINDRICAL_SURFACE('',#718,3.75);
#109=CYLINDRICAL_SURFACE('',#719,3.75);
#110=CYLINDRICAL_SURFACE('',#720,324.754352128121);
#111=CYLINDRICAL_SURFACE('',#724,15.);
#112=FACE_OUTER_BOUND('',#152,.T.);
#113=FACE_OUTER_BOUND('',#153,.T.);
#114=FACE_OUTER_BOUND('',#154,.T.);
#115=FACE_OUTER_BOUND('',#155,.T.);
#116=FACE_OUTER_BOUND('',#156,.T.);
#117=FACE_OUTER_BOUND('',#157,.T.);
#118=FACE_OUTER_BOUND('',#158,.T.);
#119=FACE_OUTER_BOUND('',#159,.T.);
#120=FACE_OUTER_BOUND('',#160,.T.);
#121=FACE_OUTER_BOUND('',#161,.T.);
#122=FACE_OUTER_BOUND('',#162,.T.);
#123=FACE_OUTER_BOUND('',#163,.T.);
#124=FACE_OUTER_BOUND('',#164,.T.);
#125=FACE_OUTER_BOUND('',#165,.T.);
#126=FACE_OUTER_BOUND('',#166,.T.);
#127=FACE_OUTER_BOUND('',#167,.T.);
#128=FACE_OUTER_BOUND('',#168,.T.);
#129=FACE_OUTER_BOUND('',#169,.T.);
#130=FACE_OUTER_BOUND('',#170,.T.);
#131=FACE_OUTER_BOUND('',#171,.T.);
#132=FACE_OUTER_BOUND('',#172,.T.);
#133=FACE_OUTER_BOUND('',#173,.T.);
#134=FACE_OUTER_BOUND('',#174,.T.);
#135=FACE_OUTER_BOUND('',#175,.T.);
#136=FACE_OUTER_BOUND('',#178,.T.);
#137=FACE_OUTER_BOUND('',#179,.T.);
#138=FACE_OUTER_BOUND('',#180,.T.);
#139=FACE_OUTER_BOUND('',#181,.T.);
#140=FACE_OUTER_BOUND('',#182,.T.);
#141=FACE_OUTER_BOUND('',#183,.T.);
#142=FACE_OUTER_BOUND('',#184,.T.);
#143=FACE_OUTER_BOUND('',#186,.T.);
#144=FACE_OUTER_BOUND('',#187,.T.);
#145=FACE_OUTER_BOUND('',#189,.T.);
#146=FACE_OUTER_BOUND('',#190,.T.);
#147=FACE_OUTER_BOUND('',#191,.T.);
#148=FACE_OUTER_BOUND('',#192,.T.);
#149=FACE_OUTER_BOUND('',#195,.T.);
#150=FACE_OUTER_BOUND('',#198,.T.);
#151=FACE_OUTER_BOUND('',#201,.T.);
#152=EDGE_LOOP('',(#404,#405,#406,#407));
#153=EDGE_LOOP('',(#408,#409,#410,#411));
#154=EDGE_LOOP('',(#412,#413,#414,#415));
#155=EDGE_LOOP('',(#416,#417,#418,#419));
#156=EDGE_LOOP('',(#420,#421,#422,#423));
#157=EDGE_LOOP('',(#424,#425,#426,#427));
#158=EDGE_LOOP('',(#428,#429,#430));
#159=EDGE_LOOP('',(#431,#432,#433));
#160=EDGE_LOOP('',(#434,#435,#436));
#161=EDGE_LOOP('',(#437,#438,#439,#440));
#162=EDGE_LOOP('',(#441,#442,#443,#444));
#163=EDGE_LOOP('',(#445,#446,#447,#448));
#164=EDGE_LOOP('',(#449,#450,#451,#452));
#165=EDGE_LOOP('',(#453,#454,#455));
#166=EDGE_LOOP('',(#456,#457,#458,#459));
#167=EDGE_LOOP('',(#460,#461,#462,#463));
#168=EDGE_LOOP('',(#464,#465,#466,#467));
#169=EDGE_LOOP('',(#468,#469,#470,#471));
#170=EDGE_LOOP('',(#472,#473,#474,#475));
#171=EDGE_LOOP('',(#476,#477,#478,#479));
#172=EDGE_LOOP('',(#480,#481,#482,#483));
#173=EDGE_LOOP('',(#484,#485,#486,#487));
#174=EDGE_LOOP('',(#488,#489,#490,#491));
#175=EDGE_LOOP('',(#492,#493,#494,#495));
#176=EDGE_LOOP('',(#496));
#177=EDGE_LOOP('',(#497));
#178=EDGE_LOOP('',(#498,#499,#500,#501));
#179=EDGE_LOOP('',(#502,#503,#504,#505,#506,#507));
#180=EDGE_LOOP('',(#508,#509,#510,#511,#512,#513,#514,#515));
#181=EDGE_LOOP('',(#516,#517,#518,#519));
#182=EDGE_LOOP('',(#520,#521,#522,#523));
#183=EDGE_LOOP('',(#524,#525,#526,#527));
#184=EDGE_LOOP('',(#528));
#185=EDGE_LOOP('',(#529));
#186=EDGE_LOOP('',(#530,#531,#532,#533));
#187=EDGE_LOOP('',(#534));
#188=EDGE_LOOP('',(#535));
#189=EDGE_LOOP('',(#536,#537,#538,#539,#540));
#190=EDGE_LOOP('',(#541,#542,#543,#544,#545));
#191=EDGE_LOOP('',(#546,#547,#548,#549,#550,#551,#552,#553));
#192=EDGE_LOOP('',(#554,#555,#556,#557));
#193=EDGE_LOOP('',(#558));
#194=EDGE_LOOP('',(#559));
#195=EDGE_LOOP('',(#560,#561,#562,#563,#564,#565));
#196=EDGE_LOOP('',(#566));
#197=EDGE_LOOP('',(#567));
#198=EDGE_LOOP('',(#568,#569,#570,#571));
#199=EDGE_LOOP('',(#572,#573));
#200=EDGE_LOOP('',(#574,#575));
#201=EDGE_LOOP('',(#576,#577,#578,#579));
#202=LINE('',#918,#232);
#203=LINE('',#920,#233);
#204=LINE('',#922,#234);
#205=LINE('',#923,#235);
#206=LINE('',#928,#236);
#207=LINE('',#932,#237);
#208=LINE('',#934,#238);
#209=LINE('',#935,#239);
#210=LINE('',#937,#240);
#211=LINE('',#939,#241);
#212=LINE('',#1085,#242);
#213=LINE('',#1086,#243);
#214=LINE('',#1218,#244);
#215=LINE('',#1219,#245);
#216=LINE('',#1236,#246);
#217=LINE('',#1238,#247);
#218=LINE('',#1244,#248);
#219=LINE('',#1247,#249);
#220=LINE('',#1249,#250);
#221=LINE('',#1250,#251);
#222=LINE('',#1253,#252);
#223=LINE('',#1258,#253);
#224=LINE('',#1262,#254);
#225=LINE('',#1267,#255);
#226=LINE('',#1276,#256);
#227=LINE('',#1283,#257);
#228=LINE('',#1327,#258);
#229=LINE('',#1372,#259);
#230=LINE('',#1374,#260);
#231=LINE('',#1376,#261);
#232=VECTOR('',#730,10.);
#233=VECTOR('',#731,10.);
#234=VECTOR('',#732,10.);
#235=VECTOR('',#733,10.);
#236=VECTOR('',#738,10.);
#237=VECTOR('',#743,10.);
#238=VECTOR('',#744,10.);
#239=VECTOR('',#745,10.);
#240=VECTOR('',#748,10.);
#241=VECTOR('',#751,10.);
#242=VECTOR('',#804,10.);
#243=VECTOR('',#805,10.);
#244=VECTOR('',#830,10.);
#245=VECTOR('',#831,10.);
#246=VECTOR('',#840,10.);
#247=VECTOR('',#843,10.);
#248=VECTOR('',#850,10.);
#249=VECTOR('',#853,10.);
#250=VECTOR('',#854,10.);
#251=VECTOR('',#855,10.);
#252=VECTOR('',#858,10.);
#253=VECTOR('',#865,2.75);
#254=VECTOR('',#870,2.75);
#255=VECTOR('',#875,1.5);
#256=VECTOR('',#886,1.5);
#257=VECTOR('',#895,3.75);
#258=VECTOR('',#898,3.75);
#259=VECTOR('',#903,10.);
#260=VECTOR('',#906,10.);
#261=VECTOR('',#909,10.);
#262=VERTEX_POINT('',#916);
#263=VERTEX_POINT('',#917);
#264=VERTEX_POINT('',#919);
#265=VERTEX_POINT('',#921);
#266=VERTEX_POINT('',#925);
#267=VERTEX_POINT('',#927);
#268=VERTEX_POINT('',#931);
#269=VERTEX_POINT('',#933);
#270=VERTEX_POINT('',#942);
#271=VERTEX_POINT('',#943);
#272=VERTEX_POINT('',#945);
#273=VERTEX_POINT('',#949);
#274=VERTEX_POINT('',#950);
#275=VERTEX_POINT('',#952);
#276=VERTEX_POINT('',#956);
#277=VERTEX_POINT('',#957);
#278=VERTEX_POINT('',#959);
#279=VERTEX_POINT('',#997);
#280=VERTEX_POINT('',#1005);
#281=VERTEX_POINT('',#1015);
#282=VERTEX_POINT('',#1016);
#283=VERTEX_POINT('',#1063);
#284=VERTEX_POINT('',#1064);
#285=VERTEX_POINT('',#1078);
#286=VERTEX_POINT('',#1079);
#287=VERTEX_POINT('',#1081);
#288=VERTEX_POINT('',#1088);
#289=VERTEX_POINT('',#1089);
#290=VERTEX_POINT('',#1137);
#291=VERTEX_POINT('',#1145);
#292=VERTEX_POINT('',#1155);
#293=VERTEX_POINT('',#1156);
#294=VERTEX_POINT('',#1203);
#295=VERTEX_POINT('',#1204);
#296=VERTEX_POINT('',#1221);
#297=VERTEX_POINT('',#1222);
#298=VERTEX_POINT('',#1239);
#299=VERTEX_POINT('',#1241);
#300=VERTEX_POINT('',#1246);
#301=VERTEX_POINT('',#1248);
#302=VERTEX_POINT('',#1252);
#303=VERTEX_POINT('',#1256);
#304=VERTEX_POINT('',#1260);
#305=VERTEX_POINT('',#1264);
#306=VERTEX_POINT('',#1266);
#307=VERTEX_POINT('',#1270);
#308=VERTEX_POINT('',#1273);
#309=VERTEX_POINT('',#1275);
#310=VERTEX_POINT('',#1279);
#311=VERTEX_POINT('',#1282);
#312=VERTEX_POINT('',#1284);
#313=VERTEX_POINT('',#1326);
#314=VERTEX_POINT('',#1328);
#315=VERTEX_POINT('',#1370);
#316=EDGE_CURVE('',#262,#263,#202,.T.);
#317=EDGE_CURVE('',#262,#264,#203,.T.);
#318=EDGE_CURVE('',#265,#264,#204,.T.);
#319=EDGE_CURVE('',#265,#263,#205,.T.);
#320=EDGE_CURVE('',#266,#262,#57,.T.);
#321=EDGE_CURVE('',#266,#267,#206,.T.);
#322=EDGE_CURVE('',#264,#267,#58,.T.);
#323=EDGE_CURVE('',#268,#266,#207,.T.);
#324=EDGE_CURVE('',#268,#269,#208,.T.);
#325=EDGE_CURVE('',#267,#269,#209,.T.);
#326=EDGE_CURVE('',#269,#265,#210,.T.);
#327=EDGE_CURVE('',#263,#268,#211,.T.);
#328=EDGE_CURVE('',#270,#271,#59,.F.);
#329=EDGE_CURVE('',#272,#270,#60,.F.);
#330=EDGE_CURVE('',#271,#272,#61,.F.);
#331=EDGE_CURVE('',#273,#274,#62,.F.);
#332=EDGE_CURVE('',#275,#273,#63,.F.);
#333=EDGE_CURVE('',#274,#275,#64,.F.);
#334=EDGE_CURVE('',#276,#277,#65,.F.);
#335=EDGE_CURVE('',#278,#276,#66,.F.);
#336=EDGE_CURVE('',#277,#278,#67,.F.);
#337=EDGE_CURVE('',#271,#279,#29,.T.);
#338=EDGE_CURVE('',#279,#280,#68,.T.);
#339=EDGE_CURVE('',#280,#270,#30,.T.);
#340=EDGE_CURVE('',#281,#282,#69,.T.);
#341=EDGE_CURVE('',#282,#280,#70,.T.);
#342=EDGE_CURVE('',#279,#281,#71,.T.);
#343=EDGE_CURVE('',#276,#282,#31,.T.);
#344=EDGE_CURVE('',#281,#278,#32,.T.);
#345=EDGE_CURVE('',#283,#284,#33,.T.);
#346=EDGE_CURVE('',#284,#277,#72,.T.);
#347=EDGE_CURVE('',#278,#283,#73,.T.);
#348=EDGE_CURVE('',#285,#286,#74,.F.);
#349=EDGE_CURVE('',#287,#285,#75,.F.);
#350=EDGE_CURVE('',#286,#287,#76,.F.);
#351=EDGE_CURVE('',#277,#287,#212,.T.);
#352=EDGE_CURVE('',#285,#276,#213,.T.);
#353=EDGE_CURVE('',#288,#289,#34,.T.);
#354=EDGE_CURVE('',#289,#286,#77,.T.);
#355=EDGE_CURVE('',#287,#288,#78,.T.);
#356=EDGE_CURVE('',#286,#290,#35,.T.);
#357=EDGE_CURVE('',#290,#291,#79,.T.);
#358=EDGE_CURVE('',#291,#285,#36,.T.);
#359=EDGE_CURVE('',#292,#293,#80,.T.);
#360=EDGE_CURVE('',#293,#291,#81,.T.);
#361=EDGE_CURVE('',#290,#292,#82,.T.);
#362=EDGE_CURVE('',#273,#293,#37,.T.);
#363=EDGE_CURVE('',#292,#275,#38,.T.);
#364=EDGE_CURVE('',#294,#295,#39,.T.);
#365=EDGE_CURVE('',#295,#274,#83,.T.);
#366=EDGE_CURVE('',#275,#294,#84,.T.);
#367=EDGE_CURVE('',#274,#272,#214,.T.);
#368=EDGE_CURVE('',#270,#273,#215,.T.);
#369=EDGE_CURVE('',#296,#297,#40,.T.);
#370=EDGE_CURVE('',#297,#271,#85,.T.);
#371=EDGE_CURVE('',#272,#296,#86,.T.);
#372=EDGE_CURVE('',#280,#293,#216,.T.);
#373=EDGE_CURVE('',#291,#282,#217,.T.);
#374=EDGE_CURVE('',#298,#298,#87,.T.);
#375=EDGE_CURVE('',#299,#299,#88,.T.);
#376=EDGE_CURVE('',#295,#296,#218,.T.);
#377=EDGE_CURVE('',#294,#300,#219,.T.);
#378=EDGE_CURVE('',#300,#301,#220,.T.);
#379=EDGE_CURVE('',#301,#297,#221,.T.);
#380=EDGE_CURVE('',#302,#289,#222,.T.);
#381=EDGE_CURVE('',#300,#302,#89,.T.);
#382=EDGE_CURVE('',#303,#303,#90,.T.);
#383=EDGE_CURVE('',#303,#299,#223,.T.);
#384=EDGE_CURVE('',#304,#304,#91,.T.);
#385=EDGE_CURVE('',#304,#298,#224,.T.);
#386=EDGE_CURVE('',#305,#305,#92,.T.);
#387=EDGE_CURVE('',#305,#306,#225,.T.);
#388=EDGE_CURVE('',#306,#306,#93,.T.);
#389=EDGE_CURVE('',#307,#307,#94,.T.);
#390=EDGE_CURVE('',#308,#308,#95,.T.);
#391=EDGE_CURVE('',#308,#309,#226,.T.);
#392=EDGE_CURVE('',#309,#309,#96,.T.);
#393=EDGE_CURVE('',#310,#310,#97,.T.);
#394=EDGE_CURVE('',#307,#311,#227,.T.);
#395=EDGE_CURVE('',#312,#311,#41,.T.);
#396=EDGE_CURVE('',#311,#312,#42,.T.);
#397=EDGE_CURVE('',#310,#313,#228,.T.);
#398=EDGE_CURVE('',#314,#313,#43,.T.);
#399=EDGE_CURVE('',#313,#314,#44,.T.);
#400=EDGE_CURVE('',#315,#301,#98,.T.);
#401=EDGE_CURVE('',#283,#315,#229,.T.);
#402=EDGE_CURVE('',#302,#315,#230,.T.);
#403=EDGE_CURVE('',#284,#288,#231,.T.);
#404=ORIENTED_EDGE('',*,*,#316,.F.);
#405=ORIENTED_EDGE('',*,*,#317,.T.);
#406=ORIENTED_EDGE('',*,*,#318,.F.);
#407=ORIENTED_EDGE('',*,*,#319,.T.);
#408=ORIENTED_EDGE('',*,*,#320,.F.);
#409=ORIENTED_EDGE('',*,*,#321,.T.);
#410=ORIENTED_EDGE('',*,*,#322,.F.);
#411=ORIENTED_EDGE('',*,*,#317,.F.);
#412=ORIENTED_EDGE('',*,*,#323,.F.);
#413=ORIENTED_EDGE('',*,*,#324,.T.);
#414=ORIENTED_EDGE('',*,*,#325,.F.);
#415=ORIENTED_EDGE('',*,*,#321,.F.);
#416=ORIENTED_EDGE('',*,*,#318,.T.);
#417=ORIENTED_EDGE('',*,*,#322,.T.);
#418=ORIENTED_EDGE('',*,*,#325,.T.);
#419=ORIENTED_EDGE('',*,*,#326,.T.);
#420=ORIENTED_EDGE('',*,*,#316,.T.);
#421=ORIENTED_EDGE('',*,*,#327,.T.);
#422=ORIENTED_EDGE('',*,*,#323,.T.);
#423=ORIENTED_EDGE('',*,*,#320,.T.);
#424=ORIENTED_EDGE('',*,*,#327,.F.);
#425=ORIENTED_EDGE('',*,*,#319,.F.);
#426=ORIENTED_EDGE('',*,*,#326,.F.);
#427=ORIENTED_EDGE('',*,*,#324,.F.);
#428=ORIENTED_EDGE('',*,*,#328,.F.);
#429=ORIENTED_EDGE('',*,*,#329,.F.);
#430=ORIENTED_EDGE('',*,*,#330,.F.);
#431=ORIENTED_EDGE('',*,*,#331,.F.);
#432=ORIENTED_EDGE('',*,*,#332,.F.);
#433=ORIENTED_EDGE('',*,*,#333,.F.);
#434=ORIENTED_EDGE('',*,*,#334,.F.);
#435=ORIENTED_EDGE('',*,*,#335,.F.);
#436=ORIENTED_EDGE('',*,*,#336,.F.);
#437=ORIENTED_EDGE('',*,*,#328,.T.);
#438=ORIENTED_EDGE('',*,*,#337,.T.);
#439=ORIENTED_EDGE('',*,*,#338,.T.);
#440=ORIENTED_EDGE('',*,*,#339,.T.);
#441=ORIENTED_EDGE('',*,*,#340,.T.);
#442=ORIENTED_EDGE('',*,*,#341,.T.);
#443=ORIENTED_EDGE('',*,*,#338,.F.);
#444=ORIENTED_EDGE('',*,*,#342,.T.);
#445=ORIENTED_EDGE('',*,*,#335,.T.);
#446=ORIENTED_EDGE('',*,*,#343,.T.);
#447=ORIENTED_EDGE('',*,*,#340,.F.);
#448=ORIENTED_EDGE('',*,*,#344,.T.);
#449=ORIENTED_EDGE('',*,*,#345,.T.);
#450=ORIENTED_EDGE('',*,*,#346,.T.);
#451=ORIENTED_EDGE('',*,*,#336,.T.);
#452=ORIENTED_EDGE('',*,*,#347,.T.);
#453=ORIENTED_EDGE('',*,*,#348,.F.);
#454=ORIENTED_EDGE('',*,*,#349,.F.);
#455=ORIENTED_EDGE('',*,*,#350,.F.);
#456=ORIENTED_EDGE('',*,*,#334,.T.);
#457=ORIENTED_EDGE('',*,*,#351,.T.);
#458=ORIENTED_EDGE('',*,*,#349,.T.);
#459=ORIENTED_EDGE('',*,*,#352,.T.);
#460=ORIENTED_EDGE('',*,*,#353,.T.);
#461=ORIENTED_EDGE('',*,*,#354,.T.);
#462=ORIENTED_EDGE('',*,*,#350,.T.);
#463=ORIENTED_EDGE('',*,*,#355,.T.);
#464=ORIENTED_EDGE('',*,*,#348,.T.);
#465=ORIENTED_EDGE('',*,*,#356,.T.);
#466=ORIENTED_EDGE('',*,*,#357,.T.);
#467=ORIENTED_EDGE('',*,*,#358,.T.);
#468=ORIENTED_EDGE('',*,*,#359,.T.);
#469=ORIENTED_EDGE('',*,*,#360,.T.);
#470=ORIENTED_EDGE('',*,*,#357,.F.);
#471=ORIENTED_EDGE('',*,*,#361,.T.);
#472=ORIENTED_EDGE('',*,*,#332,.T.);
#473=ORIENTED_EDGE('',*,*,#362,.T.);
#474=ORIENTED_EDGE('',*,*,#359,.F.);
#475=ORIENTED_EDGE('',*,*,#363,.T.);
#476=ORIENTED_EDGE('',*,*,#364,.T.);
#477=ORIENTED_EDGE('',*,*,#365,.T.);
#478=ORIENTED_EDGE('',*,*,#333,.T.);
#479=ORIENTED_EDGE('',*,*,#366,.T.);
#480=ORIENTED_EDGE('',*,*,#331,.T.);
#481=ORIENTED_EDGE('',*,*,#367,.T.);
#482=ORIENTED_EDGE('',*,*,#329,.T.);
#483=ORIENTED_EDGE('',*,*,#368,.T.);
#484=ORIENTED_EDGE('',*,*,#369,.T.);
#485=ORIENTED_EDGE('',*,*,#370,.T.);
#486=ORIENTED_EDGE('',*,*,#330,.T.);
#487=ORIENTED_EDGE('',*,*,#371,.T.);
#488=ORIENTED_EDGE('',*,*,#362,.F.);
#489=ORIENTED_EDGE('',*,*,#368,.F.);
#490=ORIENTED_EDGE('',*,*,#339,.F.);
#491=ORIENTED_EDGE('',*,*,#372,.T.);
#492=ORIENTED_EDGE('',*,*,#360,.F.);
#493=ORIENTED_EDGE('',*,*,#372,.F.);
#494=ORIENTED_EDGE('',*,*,#341,.F.);
#495=ORIENTED_EDGE('',*,*,#373,.F.);
#496=ORIENTED_EDGE('',*,*,#374,.T.);
#497=ORIENTED_EDGE('',*,*,#375,.T.);
#498=ORIENTED_EDGE('',*,*,#371,.F.);
#499=ORIENTED_EDGE('',*,*,#367,.F.);
#500=ORIENTED_EDGE('',*,*,#365,.F.);
#501=ORIENTED_EDGE('',*,*,#376,.T.);
#502=ORIENTED_EDGE('',*,*,#369,.F.);
#503=ORIENTED_EDGE('',*,*,#376,.F.);
#504=ORIENTED_EDGE('',*,*,#364,.F.);
#505=ORIENTED_EDGE('',*,*,#377,.T.);
#506=ORIENTED_EDGE('',*,*,#378,.T.);
#507=ORIENTED_EDGE('',*,*,#379,.T.);
#508=ORIENTED_EDGE('',*,*,#366,.F.);
#509=ORIENTED_EDGE('',*,*,#363,.F.);
#510=ORIENTED_EDGE('',*,*,#361,.F.);
#511=ORIENTED_EDGE('',*,*,#356,.F.);
#512=ORIENTED_EDGE('',*,*,#354,.F.);
#513=ORIENTED_EDGE('',*,*,#380,.F.);
#514=ORIENTED_EDGE('',*,*,#381,.F.);
#515=ORIENTED_EDGE('',*,*,#377,.F.);
#516=ORIENTED_EDGE('',*,*,#382,.F.);
#517=ORIENTED_EDGE('',*,*,#383,.T.);
#518=ORIENTED_EDGE('',*,*,#375,.F.);
#519=ORIENTED_EDGE('',*,*,#383,.F.);
#520=ORIENTED_EDGE('',*,*,#384,.F.);
#521=ORIENTED_EDGE('',*,*,#385,.T.);
#522=ORIENTED_EDGE('',*,*,#374,.F.);
#523=ORIENTED_EDGE('',*,*,#385,.F.);
#524=ORIENTED_EDGE('',*,*,#386,.F.);
#525=ORIENTED_EDGE('',*,*,#387,.T.);
#526=ORIENTED_EDGE('',*,*,#388,.F.);
#527=ORIENTED_EDGE('',*,*,#387,.F.);
#528=ORIENTED_EDGE('',*,*,#389,.F.);
#529=ORIENTED_EDGE('',*,*,#386,.T.);
#530=ORIENTED_EDGE('',*,*,#390,.F.);
#531=ORIENTED_EDGE('',*,*,#391,.T.);
#532=ORIENTED_EDGE('',*,*,#392,.F.);
#533=ORIENTED_EDGE('',*,*,#391,.F.);
#534=ORIENTED_EDGE('',*,*,#393,.F.);
#535=ORIENTED_EDGE('',*,*,#390,.T.);
#536=ORIENTED_EDGE('',*,*,#389,.T.);
#537=ORIENTED_EDGE('',*,*,#394,.T.);
#538=ORIENTED_EDGE('',*,*,#395,.F.);
#539=ORIENTED_EDGE('',*,*,#396,.F.);
#540=ORIENTED_EDGE('',*,*,#394,.F.);
#541=ORIENTED_EDGE('',*,*,#393,.T.);
#542=ORIENTED_EDGE('',*,*,#397,.T.);
#543=ORIENTED_EDGE('',*,*,#398,.F.);
#544=ORIENTED_EDGE('',*,*,#399,.F.);
#545=ORIENTED_EDGE('',*,*,#397,.F.);
#546=ORIENTED_EDGE('',*,*,#370,.F.);
#547=ORIENTED_EDGE('',*,*,#379,.F.);
#548=ORIENTED_EDGE('',*,*,#400,.F.);
#549=ORIENTED_EDGE('',*,*,#401,.F.);
#550=ORIENTED_EDGE('',*,*,#347,.F.);
#551=ORIENTED_EDGE('',*,*,#344,.F.);
#552=ORIENTED_EDGE('',*,*,#342,.F.);
#553=ORIENTED_EDGE('',*,*,#337,.F.);
#554=ORIENTED_EDGE('',*,*,#400,.T.);
#555=ORIENTED_EDGE('',*,*,#378,.F.);
#556=ORIENTED_EDGE('',*,*,#381,.T.);
#557=ORIENTED_EDGE('',*,*,#402,.T.);
#558=ORIENTED_EDGE('',*,*,#382,.T.);
#559=ORIENTED_EDGE('',*,*,#384,.T.);
#560=ORIENTED_EDGE('',*,*,#345,.F.);
#561=ORIENTED_EDGE('',*,*,#401,.T.);
#562=ORIENTED_EDGE('',*,*,#402,.F.);
#563=ORIENTED_EDGE('',*,*,#380,.T.);
#564=ORIENTED_EDGE('',*,*,#353,.F.);
#565=ORIENTED_EDGE('',*,*,#403,.F.);
#566=ORIENTED_EDGE('',*,*,#388,.T.);
#567=ORIENTED_EDGE('',*,*,#392,.T.);
#568=ORIENTED_EDGE('',*,*,#358,.F.);
#569=ORIENTED_EDGE('',*,*,#373,.T.);
#570=ORIENTED_EDGE('',*,*,#343,.F.);
#571=ORIENTED_EDGE('',*,*,#352,.F.);
#572=ORIENTED_EDGE('',*,*,#395,.T.);
#573=ORIENTED_EDGE('',*,*,#396,.T.);
#574=ORIENTED_EDGE('',*,*,#398,.T.);
#575=ORIENTED_EDGE('',*,*,#399,.T.);
#576=ORIENTED_EDGE('',*,*,#346,.F.);
#577=ORIENTED_EDGE('',*,*,#403,.T.);
#578=ORIENTED_EDGE('',*,*,#355,.F.);
#579=ORIENTED_EDGE('',*,*,#351,.F.);
#580=PLANE('',#648);
#581=PLANE('',#652);
#582=PLANE('',#653);
#583=PLANE('',#654);
#584=PLANE('',#655);
#585=PLANE('',#697);
#586=PLANE('',#700);
#587=PLANE('',#701);
#588=PLANE('',#711);
#589=PLANE('',#716);
#590=PLANE('',#722);
#591=PLANE('',#723);
#592=PLANE('',#725);
#593=ADVANCED_FACE('',(#112),#580,.F.);
#594=ADVANCED_FACE('',(#113),#99,.T.);
#595=ADVANCED_FACE('',(#114),#581,.F.);
#596=ADVANCED_FACE('',(#115),#582,.T.);
#597=ADVANCED_FACE('',(#116),#583,.T.);
#598=ADVANCED_FACE('',(#117),#584,.F.);
#599=ADVANCED_FACE('',(#118),#49,.T.);
#600=ADVANCED_FACE('',(#119),#50,.T.);
#601=ADVANCED_FACE('',(#120),#51,.T.);
#602=ADVANCED_FACE('',(#121),#45,.F.);
#603=ADVANCED_FACE('',(#122),#23,.T.);
#604=ADVANCED_FACE('',(#123),#46,.F.);
#605=ADVANCED_FACE('',(#124),#24,.T.);
#606=ADVANCED_FACE('',(#125),#52,.T.);
#607=ADVANCED_FACE('',(#126),#100,.T.);
#608=ADVANCED_FACE('',(#127),#25,.T.);
#609=ADVANCED_FACE('',(#128),#47,.F.);
#610=ADVANCED_FACE('',(#129),#26,.T.);
#611=ADVANCED_FACE('',(#130),#48,.F.);
#612=ADVANCED_FACE('',(#131),#27,.T.);
#613=ADVANCED_FACE('',(#132),#101,.T.);
#614=ADVANCED_FACE('',(#133),#28,.T.);
#615=ADVANCED_FACE('',(#134),#102,.F.);
#616=ADVANCED_FACE('',(#135,#13,#14),#585,.T.);
#617=ADVANCED_FACE('',(#136),#586,.T.);
#618=ADVANCED_FACE('',(#137),#587,.T.);
#619=ADVANCED_FACE('',(#138),#103,.F.);
#620=ADVANCED_FACE('',(#139),#104,.F.);
#621=ADVANCED_FACE('',(#140),#105,.F.);
#622=ADVANCED_FACE('',(#141),#106,.F.);
#623=ADVANCED_FACE('',(#142,#15),#588,.F.);
#624=ADVANCED_FACE('',(#143),#107,.F.);
#625=ADVANCED_FACE('',(#144,#16),#589,.F.);
#626=ADVANCED_FACE('',(#145),#108,.F.);
#627=ADVANCED_FACE('',(#146),#109,.F.);
#628=ADVANCED_FACE('',(#147),#110,.F.);
#629=ADVANCED_FACE('',(#148,#17,#18),#590,.F.);
#630=ADVANCED_FACE('',(#149,#19,#20),#591,.T.);
#631=ADVANCED_FACE('',(#150,#21,#22),#111,.F.);
#632=ADVANCED_FACE('',(#151),#592,.T.);
#633=CLOSED_SHELL('',(#593,#594,#595,#596,#597,#598));
#634=CLOSED_SHELL('',(#599,#600,#601,#602,#603,#604,#605,#606,#607,#608,
#609,#610,#611,#612,#613,#614,#615,#616,#617,#618,#619,#620,#621,#622,#623,
#624,#625,#626,#627,#628,#629,#630,#631,#632));
#635=DERIVED_UNIT_ELEMENT(#637,1.);
#636=DERIVED_UNIT_ELEMENT(#1384,-3.);
#637=(
MASS_UNIT()
NAMED_UNIT(*)
SI_UNIT(.KILO.,.GRAM.)
);
#638=DERIVED_UNIT((#635,#636));
#639=MEASURE_REPRESENTATION_ITEM('density measure',
POSITIVE_RATIO_MEASURE(7850.),#638);
#640=PROPERTY_DEFINITION_REPRESENTATION(#645,#642);
#641=PROPERTY_DEFINITION_REPRESENTATION(#646,#643);
#642=REPRESENTATION('material name',(#644),#1381);
#643=REPRESENTATION('density',(#639),#1381);
#644=DESCRIPTIVE_REPRESENTATION_ITEM('Acier','Acier');
#645=PROPERTY_DEFINITION('material property','material name',#1391);
#646=PROPERTY_DEFINITION('material property','density of part',#1391);
#647=AXIS2_PLACEMENT_3D('',#914,#726,#727);
#648=AXIS2_PLACEMENT_3D('',#915,#728,#729);
#649=AXIS2_PLACEMENT_3D('',#924,#734,#735);
#650=AXIS2_PLACEMENT_3D('',#926,#736,#737);
#651=AXIS2_PLACEMENT_3D('',#929,#739,#740);
#652=AXIS2_PLACEMENT_3D('',#930,#741,#742);
#653=AXIS2_PLACEMENT_3D('',#936,#746,#747);
#654=AXIS2_PLACEMENT_3D('',#938,#749,#750);
#655=AXIS2_PLACEMENT_3D('',#940,#752,#753);
#656=AXIS2_PLACEMENT_3D('',#941,#754,#755);
#657=AXIS2_PLACEMENT_3D('',#944,#756,#757);
#658=AXIS2_PLACEMENT_3D('',#946,#758,#759);
#659=AXIS2_PLACEMENT_3D('',#947,#760,#761);
#660=AXIS2_PLACEMENT_3D('',#948,#762,#763);
#661=AXIS2_PLACEMENT_3D('',#951,#764,#765);
#662=AXIS2_PLACEMENT_3D('',#953,#766,#767);
#663=AXIS2_PLACEMENT_3D('',#954,#768,#769);
#664=AXIS2_PLACEMENT_3D('',#955,#770,#771);
#665=AXIS2_PLACEMENT_3D('',#958,#772,#773);
#666=AXIS2_PLACEMENT_3D('',#960,#774,#775);
#667=AXIS2_PLACEMENT_3D('',#961,#776,#777);
#668=AXIS2_PLACEMENT_3D('',#1006,#778,#779);
#669=AXIS2_PLACEMENT_3D('',#1014,#780,#781);
#670=AXIS2_PLACEMENT_3D('',#1017,#782,#783);
#671=AXIS2_PLACEMENT_3D('',#1018,#784,#785);
#672=AXIS2_PLACEMENT_3D('',#1019,#786,#787);
#673=AXIS2_PLACEMENT_3D('',#1062,#788,#789);
#674=AXIS2_PLACEMENT_3D('',#1075,#790,#791);
#675=AXIS2_PLACEMENT_3D('',#1076,#792,#793);
#676=AXIS2_PLACEMENT_3D('',#1077,#794,#795);
#677=AXIS2_PLACEMENT_3D('',#1080,#796,#797);
#678=AXIS2_PLACEMENT_3D('',#1082,#798,#799);
#679=AXIS2_PLACEMENT_3D('',#1083,#800,#801);
#680=AXIS2_PLACEMENT_3D('',#1084,#802,#803);
#681=AXIS2_PLACEMENT_3D('',#1087,#806,#807);
#682=AXIS2_PLACEMENT_3D('',#1100,#808,#809);
#683=AXIS2_PLACEMENT_3D('',#1101,#810,#811);
#684=AXIS2_PLACEMENT_3D('',#1146,#812,#813);
#685=AXIS2_PLACEMENT_3D('',#1154,#814,#815);
#686=AXIS2_PLACEMENT_3D('',#1157,#816,#817);
#687=AXIS2_PLACEMENT_3D('',#1158,#818,#819);
#688=AXIS2_PLACEMENT_3D('',#1159,#820,#821);
#689=AXIS2_PLACEMENT_3D('',#1202,#822,#823);
#690=AXIS2_PLACEMENT_3D('',#1215,#824,#825);
#691=AXIS2_PLACEMENT_3D('',#1216,#826,#827);
#692=AXIS2_PLACEMENT_3D('',#1217,#828,#829);
#693=AXIS2_PLACEMENT_3D('',#1220,#832,#833);
#694=AXIS2_PLACEMENT_3D('',#1233,#834,#835);
#695=AXIS2_PLACEMENT_3D('',#1234,#836,#837);
#696=AXIS2_PLACEMENT_3D('',#1235,#838,#839);
#697=AXIS2_PLACEMENT_3D('',#1237,#841,#842);
#698=AXIS2_PLACEMENT_3D('',#1240,#844,#845);
#699=AXIS2_PLACEMENT_3D('',#1242,#846,#847);
#700=AXIS2_PLACEMENT_3D('',#1243,#848,#849);
#701=AXIS2_PLACEMENT_3D('',#1245,#851,#852);
#702=AXIS2_PLACEMENT_3D('',#1251,#856,#857);
#703=AXIS2_PLACEMENT_3D('',#1254,#859,#860);
#704=AXIS2_PLACEMENT_3D('',#1255,#861,#862);
#705=AXIS2_PLACEMENT_3D('',#1257,#863,#864);
#706=AXIS2_PLACEMENT_3D('',#1259,#866,#867);
#707=AXIS2_PLACEMENT_3D('',#1261,#868,#869);
#708=AXIS2_PLACEMENT_3D('',#1263,#871,#872);
#709=AXIS2_PLACEMENT_3D('',#1265,#873,#874);
#710=AXIS2_PLACEMENT_3D('',#1268,#876,#877);
#711=AXIS2_PLACEMENT_3D('',#1269,#878,#879);
#712=AXIS2_PLACEMENT_3D('',#1271,#880,#881);
#713=AXIS2_PLACEMENT_3D('',#1272,#882,#883);
#714=AXIS2_PLACEMENT_3D('',#1274,#884,#885);
#715=AXIS2_PLACEMENT_3D('',#1277,#887,#888);
#716=AXIS2_PLACEMENT_3D('',#1278,#889,#890);
#717=AXIS2_PLACEMENT_3D('',#1280,#891,#892);
#718=AXIS2_PLACEMENT_3D('',#1281,#893,#894);
#719=AXIS2_PLACEMENT_3D('',#1325,#896,#897);
#720=AXIS2_PLACEMENT_3D('',#1369,#899,#900);
#721=AXIS2_PLACEMENT_3D('',#1371,#901,#902);
#722=AXIS2_PLACEMENT_3D('',#1373,#904,#905);
#723=AXIS2_PLACEMENT_3D('',#1375,#907,#908);
#724=AXIS2_PLACEMENT_3D('',#1377,#910,#911);
#725=AXIS2_PLACEMENT_3D('',#1378,#912,#913);
#726=DIRECTION('axis',(0.,0.,1.));
#727=DIRECTION('refdir',(1.,0.,0.));
#728=DIRECTION('center_axis',(0.,0.953254218877943,-0.302169479251962));
#729=DIRECTION('ref_axis',(0.,-0.302169479251962,-0.953254218877943));
#730=DIRECTION('',(0.,-0.302169479251962,-0.953254218877943));
#731=DIRECTION('',(-1.,0.,0.));
#732=DIRECTION('',(3.57840547418157E-16,0.302169479251962,0.953254218877943));
#733=DIRECTION('',(1.,9.65411325761006E-18,0.));
#734=DIRECTION('center_axis',(-1.,0.,0.));
#735=DIRECTION('ref_axis',(0.,1.,0.));
#736=DIRECTION('center_axis',(1.,0.,0.));
#737=DIRECTION('ref_axis',(0.,1.,0.));
#738=DIRECTION('',(-1.,0.,0.));
#739=DIRECTION('center_axis',(-1.,1.1842378929335E-15,0.));
#740=DIRECTION('ref_axis',(0.,1.,0.));
#741=DIRECTION('center_axis',(0.,-0.953254218877943,-0.302169479251962));
#742=DIRECTION('ref_axis',(0.,-0.302169479251962,0.953254218877943));
#743=DIRECTION('',(0.,-0.302169479251962,0.953254218877943));
#744=DIRECTION('',(-1.,9.65411325761006E-18,0.));
#745=DIRECTION('',(3.57840547418157E-16,0.302169479251962,-0.953254218877943));
#746=DIRECTION('center_axis',(-1.,1.1842378929335E-15,0.));
#747=DIRECTION('ref_axis',(-1.1842378929335E-15,-1.,0.));
#748=DIRECTION('',(-1.1842378929335E-15,-1.,0.));
#749=DIRECTION('center_axis',(1.,0.,0.));
#750=DIRECTION('ref_axis',(0.,1.,0.));
#751=DIRECTION('',(0.,1.,0.));
#752=DIRECTION('center_axis',(0.,0.,1.));
#753=DIRECTION('ref_axis',(1.,0.,0.));
#754=DIRECTION('center_axis',(-0.436809367294986,0.30517869033858,-0.846205379093387));
#755=DIRECTION('ref_axis',(-0.693676761858059,0.484640169264467,0.532856881717245));
#756=DIRECTION('center_axis',(0.0322558073040661,0.0118297189972094,0.999409636057012));
#757=DIRECTION('ref_axis',(-0.999479573214817,0.,0.0322580645161283));
#758=DIRECTION('center_axis',(-5.33184535333703E-14,1.,0.));
#759=DIRECTION('ref_axis',(0.,0.,1.));
#760=DIRECTION('center_axis',(-0.93885195120239,-0.344321091023285,3.94710929439424E-14));
#761=DIRECTION('ref_axis',(-0.344321091023285,0.93885195120239,0.));
#762=DIRECTION('center_axis',(-0.436816747898911,-0.305128583844062,-0.84621963820059));
#763=DIRECTION('ref_axis',(-0.693729653288727,-0.484589356284516,0.532834236816349));
#764=DIRECTION('center_axis',(-1.14663340931985E-15,-1.,-3.55271367880048E-14));
#765=DIRECTION('ref_axis',(-0.999479573214817,0.,0.0322580645161304));
#766=DIRECTION('center_axis',(0.0322558049298125,-0.0118359386391942,0.999409562494205));
#767=DIRECTION('ref_axis',(-0.34448066755338,-0.938793411609805,0.));
#768=DIRECTION('center_axis',(-0.938793411609795,0.344480667553409,0.));
#769=DIRECTION('ref_axis',(0.,0.,1.));
#770=DIRECTION('center_axis',(0.436809367294875,0.305178690338583,-0.846205379093443));
#771=DIRECTION('ref_axis',(0.69367676185804,0.484640169264588,0.53285688171716));
#772=DIRECTION('center_axis',(1.14663340931985E-15,1.,-3.55271367880048E-14));
#773=DIRECTION('ref_axis',(0.999479573214817,0.,0.0322580645161304));
#774=DIRECTION('center_axis',(-0.0322558073040474,0.0118297189972757,0.999409636057012));
#775=DIRECTION('ref_axis',(0.344321091023334,0.938851951202372,0.));
#776=DIRECTION('center_axis',(0.938851951202376,-0.344321091023322,0.));
#777=DIRECTION('ref_axis',(0.,0.,1.));
#778=DIRECTION('center_axis',(0.954973571176615,0.296690880133149,2.82955155612292E-11));
#779=DIRECTION('ref_axis',(-0.296690880133149,0.954973571176615,0.));
#780=DIRECTION('center_axis',(0.,0.,-1.));
#781=DIRECTION('ref_axis',(-1.,0.,0.));
#782=DIRECTION('center_axis',(0.954973571176634,-0.296690880133087,-1.02111773570779E-14));
#783=DIRECTION('ref_axis',(0.296690880133087,0.954973571176634,0.));
#784=DIRECTION('center_axis',(0.,0.,1.));
#785=DIRECTION('ref_axis',(6.12323399573677E-17,-1.,0.));
#786=DIRECTION('center_axis',(0.,0.,-1.));
#787=DIRECTION('ref_axis',(6.12323399573677E-17,-1.,0.));
#788=DIRECTION('center_axis',(0.,0.,-1.));
#789=DIRECTION('ref_axis',(-1.,0.,0.));
#790=DIRECTION('center_axis',(0.,0.,1.));
#791=DIRECTION('ref_axis',(-0.348730882988313,-0.937222903716182,0.));
#792=DIRECTION('center_axis',(0.,0.,-1.));
#793=DIRECTION('ref_axis',(-0.348730882988313,-0.937222903716182,0.));
#794=DIRECTION('center_axis',(0.43681674789897,-0.305128583844078,-0.846219638200553));
#795=DIRECTION('ref_axis',(0.693729653288725,-0.484589356284458,0.532834236816404));
#796=DIRECTION('center_axis',(-0.0322558049298345,-0.0118359386391318,0.999409562494206));
#797=DIRECTION('ref_axis',(0.999479573214817,0.,0.032258064516126));
#798=DIRECTION('center_axis',(1.77728178444568E-14,-1.,0.));
#799=DIRECTION('ref_axis',(0.,0.,1.));
#800=DIRECTION('center_axis',(0.938793411609818,0.344480667553347,3.33526419499399E-14));
#801=DIRECTION('ref_axis',(0.344480667553347,-0.938793411609818,0.));
#802=DIRECTION('center_axis',(0.,1.,0.));
#803=DIRECTION('ref_axis',(0.695608343640255,0.,0.718421208107097));
#804=DIRECTION('',(0.,-1.,0.));
#805=DIRECTION('',(0.,1.,0.));
#806=DIRECTION('center_axis',(0.,0.,-1.));
#807=DIRECTION('ref_axis',(-1.,0.,0.));
#808=DIRECTION('center_axis',(0.,0.,-1.));
#809=DIRECTION('ref_axis',(-0.34889275829565,0.937162655684088,0.));
#810=DIRECTION('center_axis',(0.,0.,1.));
#811=DIRECTION('ref_axis',(-0.34889275829565,0.937162655684088,0.));
#812=DIRECTION('center_axis',(-0.95493084118822,-0.296828382314695,2.8396027363248E-11));
#813=DIRECTION('ref_axis',(0.296828382314695,-0.95493084118822,0.));
#814=DIRECTION('center_axis',(0.,0.,-1.));
#815=DIRECTION('ref_axis',(-1.,0.,0.));
#816=DIRECTION('center_axis',(-0.954930841188251,0.296828382314595,1.84545594468425E-14));
#817=DIRECTION('ref_axis',(-0.296828382314595,-0.954930841188251,0.));
#818=DIRECTION('center_axis',(0.,0.,1.));
#819=DIRECTION('ref_axis',(6.12323399573677E-17,1.,0.));
#820=DIRECTION('center_axis',(0.,0.,-1.));
#821=DIRECTION('ref_axis',(6.12323399573677E-17,1.,0.));
#822=DIRECTION('center_axis',(0.,0.,-1.));
#823=DIRECTION('ref_axis',(-1.,0.,0.));
#824=DIRECTION('center_axis',(0.,0.,1.));
#825=DIRECTION('ref_axis',(0.34889275829565,0.937162655684088,0.));
#826=DIRECTION('center_axis',(0.,0.,-1.));
#827=DIRECTION('ref_axis',(0.34889275829565,0.937162655684088,0.));
#828=DIRECTION('center_axis',(0.,-1.,0.));
#829=DIRECTION('ref_axis',(-0.695608343640255,0.,0.718421208107097));
#830=DIRECTION('',(0.,1.,0.));
#831=DIRECTION('',(0.,-1.,0.));
#832=DIRECTION('center_axis',(0.,0.,-1.));
#833=DIRECTION('ref_axis',(-1.,0.,0.));
#834=DIRECTION('center_axis',(0.,0.,-1.));
#835=DIRECTION('ref_axis',(0.348730882988314,-0.937222903716182,0.));
#836=DIRECTION('center_axis',(0.,0.,1.));
#837=DIRECTION('ref_axis',(0.348730882988314,-0.937222903716182,0.));
#838=DIRECTION('center_axis',(0.,1.,0.));
#839=DIRECTION('ref_axis',(0.707106781186547,0.,-0.707106781186547));
#840=DIRECTION('',(0.,-1.,0.));
#841=DIRECTION('center_axis',(0.,0.,1.));
#842=DIRECTION('ref_axis',(1.,0.,0.));
#843=DIRECTION('',(0.,1.,0.));
#844=DIRECTION('center_axis',(0.,0.,-1.));
#845=DIRECTION('ref_axis',(1.,0.,0.));
#846=DIRECTION('center_axis',(0.,0.,-1.));
#847=DIRECTION('ref_axis',(1.,0.,0.));
#848=DIRECTION('center_axis',(0.,0.,1.));
#849=DIRECTION('ref_axis',(1.,0.,0.));
#850=DIRECTION('',(0.,1.,0.));
#851=DIRECTION('center_axis',(1.,1.77635683940025E-16,0.));
#852=DIRECTION('ref_axis',(-1.77635683940025E-16,1.,0.));
#853=DIRECTION('',(0.,0.,-1.));
#854=DIRECTION('',(-1.77635683940025E-16,1.,0.));
#855=DIRECTION('',(0.,0.,1.));
#856=DIRECTION('center_axis',(0.,0.,1.));
#857=DIRECTION('ref_axis',(1.,0.,0.));
#858=DIRECTION('',(0.,0.,1.));
#859=DIRECTION('center_axis',(0.,0.,1.));
#860=DIRECTION('ref_axis',(1.,0.,0.));
#861=DIRECTION('center_axis',(0.,0.,1.));
#862=DIRECTION('ref_axis',(1.,0.,0.));
#863=DIRECTION('center_axis',(0.,0.,1.));
#864=DIRECTION('ref_axis',(1.,0.,0.));
#865=DIRECTION('',(0.,0.,1.));
#866=DIRECTION('center_axis',(0.,0.,1.));
#867=DIRECTION('ref_axis',(1.,0.,0.));
#868=DIRECTION('center_axis',(0.,0.,1.));
#869=DIRECTION('ref_axis',(1.,0.,0.));
#870=DIRECTION('',(0.,0.,1.));
#871=DIRECTION('center_axis',(1.,0.,0.));
#872=DIRECTION('ref_axis',(0.,-1.,0.));
#873=DIRECTION('center_axis',(-1.,0.,0.));
#874=DIRECTION('ref_axis',(0.,-1.,0.));
#875=DIRECTION('',(-1.,0.,0.));
#876=DIRECTION('center_axis',(1.,0.,0.));
#877=DIRECTION('ref_axis',(0.,-1.,0.));
#878=DIRECTION('center_axis',(-1.,0.,0.));
#879=DIRECTION('ref_axis',(0.,-1.,0.));
#880=DIRECTION('center_axis',(-1.,0.,0.));
#881=DIRECTION('ref_axis',(0.,-1.,0.));
#882=DIRECTION('center_axis',(1.,0.,0.));
#883=DIRECTION('ref_axis',(0.,-1.,0.));
#884=DIRECTION('center_axis',(-1.,0.,0.));
#885=DIRECTION('ref_axis',(0.,-1.,0.));
#886=DIRECTION('',(-1.,0.,0.));
#887=DIRECTION('center_axis',(1.,0.,0.));
#888=DIRECTION('ref_axis',(0.,-1.,0.));
#889=DIRECTION('center_axis',(-1.,0.,0.));
#890=DIRECTION('ref_axis',(0.,-1.,0.));
#891=DIRECTION('center_axis',(-1.,0.,0.));
#892=DIRECTION('ref_axis',(0.,-1.,0.));
#893=DIRECTION('center_axis',(1.,0.,0.));
#894=DIRECTION('ref_axis',(0.,-1.,0.));
#895=DIRECTION('',(1.,0.,0.));
#896=DIRECTION('center_axis',(1.,0.,0.));
#897=DIRECTION('ref_axis',(0.,-1.,0.));
#898=DIRECTION('',(1.,0.,0.));
#899=DIRECTION('center_axis',(0.,0.,1.));
#900=DIRECTION('ref_axis',(1.,0.,0.));
#901=DIRECTION('center_axis',(0.,0.,1.));
#902=DIRECTION('ref_axis',(1.,0.,0.));
#903=DIRECTION('',(0.,0.,-1.));
#904=DIRECTION('center_axis',(0.,0.,1.));
#905=DIRECTION('ref_axis',(1.,0.,0.));
#906=DIRECTION('',(0.,1.,0.));
#907=DIRECTION('center_axis',(-1.,0.,0.));
#908=DIRECTION('ref_axis',(0.,-1.,0.));
#909=DIRECTION('',(0.,-1.,0.));
#910=DIRECTION('center_axis',(0.,-1.,0.));
#911=DIRECTION('ref_axis',(-0.707106781186547,0.,-0.707106781186547));
#912=DIRECTION('center_axis',(0.,0.,1.));
#913=DIRECTION('ref_axis',(1.,0.,0.));
#914=CARTESIAN_POINT('',(0.,0.,0.));
#915=CARTESIAN_POINT('Origin',(115.,-3.57470332079229,12.3831355471949));
#916=CARTESIAN_POINT('',(115.,-3.57470332079229,12.3831355471949));
#917=CARTESIAN_POINT('',(115.,-7.5,0.));
#918=CARTESIAN_POINT('',(115.,-5.53735166039614,6.19156777359743));
#919=CARTESIAN_POINT('',(-115.,-3.57470332079229,12.3831355471949));
#920=CARTESIAN_POINT('',(115.,-3.57470332079229,12.3831355471949));
#921=CARTESIAN_POINT('',(-115.,-7.5,0.));
#922=CARTESIAN_POINT('',(-115.,-4.85255370396061,8.3519002554456));
#923=CARTESIAN_POINT('',(-115.,-7.5,0.));
#924=CARTESIAN_POINT('Origin',(115.,0.,11.25));
#925=CARTESIAN_POINT('',(115.,3.57470332079229,12.3831355471949));
#926=CARTESIAN_POINT('Origin',(115.,0.,11.25));
#927=CARTESIAN_POINT('',(-115.,3.57470332079229,12.3831355471949));
#928=CARTESIAN_POINT('',(115.,3.57470332079229,12.3831355471949));
#929=CARTESIAN_POINT('Origin',(-115.,0.,11.25));
#930=CARTESIAN_POINT('Origin',(115.,7.5,0.));
#931=CARTESIAN_POINT('',(115.,7.5,0.));
#932=CARTESIAN_POINT('',(115.,6.81520204356449,2.16033248184813));
#933=CARTESIAN_POINT('',(-115.,7.5,0.));
#934=CARTESIAN_POINT('',(115.,7.5,0.));
#935=CARTESIAN_POINT('',(-115.,7.50000000000001,-3.92279963238744E-14));
#936=CARTESIAN_POINT('Origin',(-115.,7.5,0.));
#937=CARTESIAN_POINT('',(-115.,7.5,0.));
#938=CARTESIAN_POINT('Origin',(115.,-7.5,0.));
#939=CARTESIAN_POINT('',(115.,-7.5,0.));
#940=CARTESIAN_POINT('Origin',(-3.5527136788005E-14,1.11022302462516E-15,
0.));
#941=CARTESIAN_POINT('Origin',(111.99193338483,44.6343168674452,18.));
#942=CARTESIAN_POINT('',(111.492193598222,44.6343168674452,18.0161290322581));
#943=CARTESIAN_POINT('',(111.819772839318,45.1037428430464,18.));
#944=CARTESIAN_POINT('Origin',(111.99193338483,44.6343168674452,18.));
#945=CARTESIAN_POINT('',(111.99193338483,44.6343168674452,18.5));
#946=CARTESIAN_POINT('Origin',(111.99193338483,44.6343168674452,18.));
#947=CARTESIAN_POINT('Origin',(111.99193338483,44.6343168674452,18.));
#948=CARTESIAN_POINT('Origin',(111.99193338483,-44.7948052880805,18.));
#949=CARTESIAN_POINT('',(111.492193598222,-44.7948052880805,18.0161290322581));
#950=CARTESIAN_POINT('',(111.99193338483,-44.7948052880805,18.5));
#951=CARTESIAN_POINT('Origin',(111.99193338483,-44.7948052880805,18.));
#952=CARTESIAN_POINT('',(111.819693051053,-45.2642019938854,18.));
#953=CARTESIAN_POINT('Origin',(111.99193338483,-44.7948052880805,18.));
#954=CARTESIAN_POINT('Origin',(111.99193338483,-44.7948052880805,18.));
#955=CARTESIAN_POINT('Origin',(-111.99193338483,44.6343168674452,18.));
#956=CARTESIAN_POINT('',(-111.492193598222,44.6343168674452,18.0161290322581));
#957=CARTESIAN_POINT('',(-111.99193338483,44.6343168674452,18.5));
#958=CARTESIAN_POINT('Origin',(-111.99193338483,44.6343168674452,18.));
#959=CARTESIAN_POINT('',(-111.819772839318,45.1037428430464,18.));
#960=CARTESIAN_POINT('Origin',(-111.99193338483,44.6343168674452,18.));
#961=CARTESIAN_POINT('Origin',(-111.99193338483,44.6343168674452,18.));
#962=CARTESIAN_POINT('Ctrl Pts',(111.819772839318,45.1037428430464,18.));
#963=CARTESIAN_POINT('Ctrl Pts',(111.744574021713,45.0761639059326,15.6664626040303));
#964=CARTESIAN_POINT('Ctrl Pts',(110.821299047128,44.7354834349986,12.206778548957));
#965=CARTESIAN_POINT('Ctrl Pts',(107.600190845926,43.5823355444353,7.43202049929922));
#966=CARTESIAN_POINT('Ctrl Pts',(103.013617177734,41.9936397865469,3.96931594789095));
#967=CARTESIAN_POINT('Ctrl Pts',(98.5778070917116,40.5597969414025,3.00000000000413));
#968=CARTESIAN_POINT('Ctrl Pts',(96.3516545599622,39.8681765930597,3.));
#969=CARTESIAN_POINT('Ctrl Pts',(111.724420555754,45.0687726837295,18.0034914132472));
#970=CARTESIAN_POINT('Ctrl Pts',(111.649579353916,45.0413543013178,15.6862621157128));
#971=CARTESIAN_POINT('Ctrl Pts',(110.730632170637,44.7025008108227,12.2508807440132));
#972=CARTESIAN_POINT('Ctrl Pts',(107.526118038247,43.5563196732837,7.51295503269154));
#973=CARTESIAN_POINT('Ctrl Pts',(102.965658832632,41.9778562718228,4.08166524442382));
#974=CARTESIAN_POINT('Ctrl Pts',(98.5606309441393,40.5543392449741,3.12730834000615));
#975=CARTESIAN_POINT('Ctrl Pts',(96.351654559962,39.8681765930596,3.13089969389953));
#976=CARTESIAN_POINT('Ctrl Pts',(111.556060821244,44.9388410559563,18.0104631629163));
#977=CARTESIAN_POINT('Ctrl Pts',(111.482000194792,44.9115242678475,15.7257495646325));
#978=CARTESIAN_POINT('Ctrl Pts',(110.572416687774,44.5740752397719,12.3390739278614));
#979=CARTESIAN_POINT('Ctrl Pts',(107.403672285023,43.4326498216489,7.67454360053183));
#980=CARTESIAN_POINT('Ctrl Pts',(102.898716540341,41.8615368734777,4.30573099414773));
#981=CARTESIAN_POINT('Ctrl Pts',(98.557586259785,40.4464278040633,3.38104277187338));
#982=CARTESIAN_POINT('Ctrl Pts',(96.3838473741358,39.764555994056,3.39149375215065));
#983=CARTESIAN_POINT('Ctrl Pts',(111.492154818635,44.7359323917712,18.0149274906796));
#984=CARTESIAN_POINT('Ctrl Pts',(111.418906810425,44.7084141684451,15.7511166638713));
#985=CARTESIAN_POINT('Ctrl Pts',(110.519395671464,44.3684336541048,12.3948707035734));
#986=CARTESIAN_POINT('Ctrl Pts',(107.383994293684,43.2180583627384,7.76867247161072));
#987=CARTESIAN_POINT('Ctrl Pts',(102.923715448193,41.6336766111403,4.42151790520247));
#988=CARTESIAN_POINT('Ctrl Pts',(98.61883657465,40.2046718045714,3.49428732189822));
#989=CARTESIAN_POINT('Ctrl Pts',(96.4611632546356,39.5156955556205,3.49999999999992));
#990=CARTESIAN_POINT('Ctrl Pts',(111.492193598222,44.6343168674452,18.0161290322581));
#991=CARTESIAN_POINT('Ctrl Pts',(111.419308505703,44.6066954691036,15.7578670361584));
#992=CARTESIAN_POINT('Ctrl Pts',(110.524440952109,44.2654904779149,12.4097856925391));
#993=CARTESIAN_POINT('Ctrl Pts',(107.402440144965,43.1105671717444,7.789052096096));
#994=CARTESIAN_POINT('Ctrl Pts',(102.956986655145,41.5194254177554,4.43804769150736));
#995=CARTESIAN_POINT('Ctrl Pts',(98.6576580378282,40.0833749919647,3.50000000000399));
#996=CARTESIAN_POINT('Ctrl Pts',(96.5000000000278,39.3906898074714,3.49999999999999));
#997=CARTESIAN_POINT('',(96.3516545599622,39.8681765930597,3.));
#998=CARTESIAN_POINT('Ctrl Pts',(111.819772839318,45.1037428430464,18.));
#999=CARTESIAN_POINT('Ctrl Pts',(111.744574021713,45.0761639059326,15.6664626040303));
#1000=CARTESIAN_POINT('Ctrl Pts',(110.821299047128,44.7354834349986,12.206778548957));
#1001=CARTESIAN_POINT('Ctrl Pts',(107.600190845926,43.5823355444353,7.43202049929922));
#1002=CARTESIAN_POINT('Ctrl Pts',(103.013617177734,41.9936397865469,3.96931594789095));
#1003=CARTESIAN_POINT('Ctrl Pts',(98.5778070917116,40.5597969414025,3.00000000000413));
#1004=CARTESIAN_POINT('Ctrl Pts',(96.3516545599622,39.8681765930597,3.));
#1005=CARTESIAN_POINT('',(96.500000000014,39.3906898074714,3.5));
#1006=CARTESIAN_POINT('Origin',(96.5000000000288,39.3906898074714,3.));
#1007=CARTESIAN_POINT('Ctrl Pts',(96.5000000000278,39.3906898074714,3.49999999999999));
#1008=CARTESIAN_POINT('Ctrl Pts',(98.6576580378282,40.0833749919647,3.50000000000399));
#1009=CARTESIAN_POINT('Ctrl Pts',(102.956986655145,41.5194254177554,4.43804769150736));
#1010=CARTESIAN_POINT('Ctrl Pts',(107.402440144965,43.1105671717444,7.789052096096));
#1011=CARTESIAN_POINT('Ctrl Pts',(110.524440952109,44.2654904779149,12.4097856925391));
#1012=CARTESIAN_POINT('Ctrl Pts',(111.419308505703,44.6066954691036,15.7578670361584));
#1013=CARTESIAN_POINT('Ctrl Pts',(111.492193598222,44.6343168674452,18.0161290322581));
#1014=CARTESIAN_POINT('Origin',(0.,350.,3.));
#1015=CARTESIAN_POINT('',(-96.3516545599335,39.8681765930507,3.));
#1016=CARTESIAN_POINT('',(-96.5,39.3906898074625,3.5));
#1017=CARTESIAN_POINT('Origin',(-96.5,39.3906898074625,3.));
#1018=CARTESIAN_POINT('Origin',(0.,350.,3.5));
#1019=CARTESIAN_POINT('Origin',(0.,350.,3.));
#1020=CARTESIAN_POINT('Ctrl Pts',(-96.3516545599621,39.8681765930597,3.));
#1021=CARTESIAN_POINT('Ctrl Pts',(-99.6908833575862,40.9056071155739,3.00000000000619));
#1022=CARTESIAN_POINT('Ctrl Pts',(-105.219752536121,42.7344897807891,4.84473025930798));
#1023=CARTESIAN_POINT('Ctrl Pts',(-110.512457093171,44.622147217502,11.0507994726973));
#1024=CARTESIAN_POINT('Ctrl Pts',(-111.744574021713,45.0761639059326,15.6664626040303));
#1025=CARTESIAN_POINT('Ctrl Pts',(-111.819772839318,45.1037428430463,18.));
#1026=CARTESIAN_POINT('Ctrl Pts',(-96.3516545599619,39.8681765930596,3.13089969389952));
#1027=CARTESIAN_POINT('Ctrl Pts',(-99.6651191362279,40.8974205709313,3.12551266305946));
#1028=CARTESIAN_POINT('Ctrl Pts',(-105.158083618048,42.7137299698202,4.94680721222221));
#1029=CARTESIAN_POINT('Ctrl Pts',(-110.423280866251,44.5897631298235,11.103007092723));
#1030=CARTESIAN_POINT('Ctrl Pts',(-111.649579353916,45.0413543013178,15.6862621157128));
#1031=CARTESIAN_POINT('Ctrl Pts',(-111.724420555753,45.0687726837295,18.0034914132472));
#1032=CARTESIAN_POINT('Ctrl Pts',(-96.3838473741358,39.764555994056,3.39149375215064));
#1033=CARTESIAN_POINT('Ctrl Pts',(-99.6444557026095,40.7873637090668,3.37581728173474));
#1034=CARTESIAN_POINT('Ctrl Pts',(-105.0623406426,42.5935051810923,5.15038967171212));
#1035=CARTESIAN_POINT('Ctrl Pts',(-110.268298896137,44.4618406334051,11.2074437844944));
#1036=CARTESIAN_POINT('Ctrl Pts',(-111.482000194792,44.9115242678474,15.7257495646325));
#1037=CARTESIAN_POINT('Ctrl Pts',(-111.556060821244,44.9388410559563,18.0104631629163));
#1038=CARTESIAN_POINT('Ctrl Pts',(-96.4611632546355,39.5156955556205,3.49999999999991));
#1039=CARTESIAN_POINT('Ctrl Pts',(-99.697673234657,40.5491599290468,3.49143098284737));
#1040=CARTESIAN_POINT('Ctrl Pts',(-105.067241746188,42.3723104260593,5.26398122869534));
#1041=CARTESIAN_POINT('Ctrl Pts',(-110.21854098557,44.2553321118443,11.273419383416));
#1042=CARTESIAN_POINT('Ctrl Pts',(-111.418906810425,44.708414168445,15.7511166638713));
#1043=CARTESIAN_POINT('Ctrl Pts',(-111.492154818635,44.7359323917712,18.0149274906796));
#1044=CARTESIAN_POINT('Ctrl Pts',(-96.5000000000278,39.3906898074714,3.49999999999998));
#1045=CARTESIAN_POINT('Ctrl Pts',(-99.7364870567282,40.4297175842113,3.50000000000598));
#1046=CARTESIAN_POINT('Ctrl Pts',(-105.095243410066,42.2614160433539,5.28522283158836));
#1047=CARTESIAN_POINT('Ctrl Pts',(-110.225101479696,44.1519797651164,11.2910962639006));
#1048=CARTESIAN_POINT('Ctrl Pts',(-111.419308505703,44.6066954691036,15.7578670361584));
#1049=CARTESIAN_POINT('Ctrl Pts',(-111.492193598222,44.6343168674452,18.0161290322581));
#1050=CARTESIAN_POINT('Ctrl Pts',(-111.492193598222,44.6343168674452,18.0161290322581));
#1051=CARTESIAN_POINT('Ctrl Pts',(-111.419308505703,44.6066954691036,15.7578670361584));
#1052=CARTESIAN_POINT('Ctrl Pts',(-110.225101479696,44.1519797651164,11.2910962639006));
#1053=CARTESIAN_POINT('Ctrl Pts',(-105.095243410066,42.2614160433539,5.28522283158836));
#1054=CARTESIAN_POINT('Ctrl Pts',(-99.7364870567282,40.4297175842113,3.50000000000598));
#1055=CARTESIAN_POINT('Ctrl Pts',(-96.5000000000278,39.3906898074714,3.49999999999998));
#1056=CARTESIAN_POINT('Ctrl Pts',(-96.3516545599621,39.8681765930597,3.));
#1057=CARTESIAN_POINT('Ctrl Pts',(-99.6908833575862,40.9056071155739,3.00000000000619));
#1058=CARTESIAN_POINT('Ctrl Pts',(-105.219752536121,42.7344897807891,4.84473025930798));
#1059=CARTESIAN_POINT('Ctrl Pts',(-110.512457093171,44.622147217502,11.0507994726973));
#1060=CARTESIAN_POINT('Ctrl Pts',(-111.744574021713,45.0761639059326,15.6664626040303));
#1061=CARTESIAN_POINT('Ctrl Pts',(-111.819772839318,45.1037428430463,18.));
#1062=CARTESIAN_POINT('Origin',(0.,350.,18.));
#1063=CARTESIAN_POINT('',(-115.,46.2889708519694,18.));
#1064=CARTESIAN_POINT('',(-115.,45.7543860985273,18.5));
#1065=CARTESIAN_POINT('Ctrl Pts',(-115.,46.2889708519694,18.));
#1066=CARTESIAN_POINT('Ctrl Pts',(-115.,46.2889708519694,18.0603914011421));
#1067=CARTESIAN_POINT('Ctrl Pts',(-115.,46.2741463685261,18.1313286227439));
#1068=CARTESIAN_POINT('Ctrl Pts',(-115.,46.2255339360197,18.2442098995235));
#1069=CARTESIAN_POINT('Ctrl Pts',(-115.,46.1824046210239,18.3055866008672));
#1070=CARTESIAN_POINT('Ctrl Pts',(-115.,46.0903195160601,18.394001563086));
#1071=CARTESIAN_POINT('Ctrl Pts',(-115.,46.0243347068877,18.4359242566372));
#1072=CARTESIAN_POINT('Ctrl Pts',(-115.,45.9012130947165,18.4849613377966));
#1073=CARTESIAN_POINT('Ctrl Pts',(-115.,45.8217669310231,18.5));
#1074=CARTESIAN_POINT('Ctrl Pts',(-115.,45.7543860985273,18.5));
#1075=CARTESIAN_POINT('Origin',(0.,350.,18.5));
#1076=CARTESIAN_POINT('Origin',(0.,350.,18.));
#1077=CARTESIAN_POINT('Origin',(-111.99193338483,-44.7948052880805,18.));
#1078=CARTESIAN_POINT('',(-111.492193598222,-44.7948052880805,18.0161290322581));
#1079=CARTESIAN_POINT('',(-111.819693051053,-45.2642019938854,18.));
#1080=CARTESIAN_POINT('Origin',(-111.99193338483,-44.7948052880805,18.));
#1081=CARTESIAN_POINT('',(-111.99193338483,-44.7948052880805,18.5));
#1082=CARTESIAN_POINT('Origin',(-111.99193338483,-44.7948052880805,18.));
#1083=CARTESIAN_POINT('Origin',(-111.99193338483,-44.7948052880805,18.));
#1084=CARTESIAN_POINT('Origin',(-111.99193338483,-25.,18.));
#1085=CARTESIAN_POINT('',(-111.99193338483,-25.,18.5));
#1086=CARTESIAN_POINT('',(-111.492193598222,-25.,18.0161290322581));
#1087=CARTESIAN_POINT('Origin',(0.,-350.,18.));
#1088=CARTESIAN_POINT('',(-115.,-45.9154656638835,18.5));
#1089=CARTESIAN_POINT('',(-115.,-46.4500859159153,18.));
#1090=CARTESIAN_POINT('Ctrl Pts',(-115.,-45.9154656638835,18.5));
#1091=CARTESIAN_POINT('Ctrl Pts',(-115.,-45.9828523653936,18.5));
#1092=CARTESIAN_POINT('Ctrl Pts',(-115.,-46.0623055846808,18.4849607445969));
#1093=CARTESIAN_POINT('Ctrl Pts',(-115.,-46.1854365774133,18.4359218468128));
#1094=CARTESIAN_POINT('Ctrl Pts',(-115.,-46.2514259006325,18.3939983860254));
#1095=CARTESIAN_POINT('Ctrl Pts',(-115.,-46.3435159168985,18.3055822821604));
#1096=CARTESIAN_POINT('Ctrl Pts',(-115.,-46.3866472389598,18.2442057952287));
#1097=CARTESIAN_POINT('Ctrl Pts',(-115.,-46.4352610577559,18.1313256455681));
#1098=CARTESIAN_POINT('Ctrl Pts',(-115.,-46.4500859159153,18.0603900988225));
#1099=CARTESIAN_POINT('Ctrl Pts',(-115.,-46.4500859159153,18.));
#1100=CARTESIAN_POINT('Origin',(0.,-350.,18.));
#1101=CARTESIAN_POINT('Origin',(0.,-350.,18.5));
#1102=CARTESIAN_POINT('Ctrl Pts',(-111.819693051053,-45.2642019938854,18.));
#1103=CARTESIAN_POINT('Ctrl Pts',(-111.782092630244,-45.2504049029594,16.8331990652844));
#1104=CARTESIAN_POINT('Ctrl Pts',(-111.275641170584,-45.0647288702084,13.3437027460002));
#1105=CARTESIAN_POINT('Ctrl Pts',(-108.522275389791,-44.0621927212711,8.11987462898673));
#1106=CARTESIAN_POINT('Ctrl Pts',(-103.011606428984,-42.1515729994095,3.97093798319342));
#1107=CARTESIAN_POINT('Ctrl Pts',(-98.5776986014045,-40.7178924266577,3.00000000000414));
#1108=CARTESIAN_POINT('Ctrl Pts',(-96.3515858088714,-40.0259329353972,3.));
#1109=CARTESIAN_POINT('Ctrl Pts',(-111.724360001874,-45.2292205037993,18.0034911443104));
#1110=CARTESIAN_POINT('Ctrl Pts',(-111.686938332859,-45.2155037107362,16.8448438535637));
#1111=CARTESIAN_POINT('Ctrl Pts',(-111.182924679588,-45.0308360945574,13.379729932499));
#1112=CARTESIAN_POINT('Ctrl Pts',(-108.443005370455,-44.0340768788234,8.19451055360888));
#1113=CARTESIAN_POINT('Ctrl Pts',(-102.963651927094,-42.135791424738,4.08328428609679));
#1114=CARTESIAN_POINT('Ctrl Pts',(-98.5605243161965,-40.7124325374929,3.12730673715911));
#1115=CARTESIAN_POINT('Ctrl Pts',(-96.3515858088712,-40.0259329353971,3.13089969389952));
#1116=CARTESIAN_POINT('Ctrl Pts',(-111.556042389545,-45.0992872081102,18.0104623629639));
#1117=CARTESIAN_POINT('Ctrl Pts',(-111.519010928789,-45.0856212169076,16.8680721425726));
#1118=CARTESIAN_POINT('Ctrl Pts',(-111.020249175746,-44.901740602759,13.4517183068258));
#1119=CARTESIAN_POINT('Ctrl Pts',(-108.309483298498,-43.9089843697673,8.34363545293891));
#1120=CARTESIAN_POINT('Ctrl Pts',(-102.896738098951,-42.0194657749793,4.30733183270077));
#1121=CARTESIAN_POINT('Ctrl Pts',(-98.557496820226,-40.6045241007043,3.38103806678341));
#1122=CARTESIAN_POINT('Ctrl Pts',(-96.3837935549844,-39.9223169339581,3.39149371140828));
#1123=CARTESIAN_POINT('Ctrl Pts',(-111.492154803651,-44.8964066496852,18.0149270264173));
#1124=CARTESIAN_POINT('Ctrl Pts',(-111.455529717098,-44.8826399096155,16.8829892413572));
#1125=CARTESIAN_POINT('Ctrl Pts',(-110.962220274833,-44.6973564395154,13.4976531285124));
#1126=CARTESIAN_POINT('Ctrl Pts',(-108.280798699123,-43.6970581813029,8.43342997185427));
#1127=CARTESIAN_POINT('Ctrl Pts',(-102.921796822672,-41.7916254642059,4.42311715327921));
#1128=CARTESIAN_POINT('Ctrl Pts',(-98.6187821696683,-40.3627824343346,3.49428477228894));
#1129=CARTESIAN_POINT('Ctrl Pts',(-96.4611452556422,-39.6734676696098,3.49999999999992));
#1130=CARTESIAN_POINT('Ctrl Pts',(-111.492193598222,-44.7948052880805,18.0161290322581));
#1131=CARTESIAN_POINT('Ctrl Pts',(-111.455750045089,-44.7809869449449,16.886966837372));
#1132=CARTESIAN_POINT('Ctrl Pts',(-110.964880786658,-44.595024907994,13.5100349154841));
#1133=CARTESIAN_POINT('Ctrl Pts',(-108.296228948007,-43.5909445126346,8.45471738289038));
#1134=CARTESIAN_POINT('Ctrl Pts',(-102.955109015074,-41.6773817869993,4.43961740309039));
#1135=CARTESIAN_POINT('Ctrl Pts',(-98.6576210608685,-40.2414928588707,3.500000000004));
#1136=CARTESIAN_POINT('Ctrl Pts',(-96.5000000000279,-39.5484675148031,3.49999999999999));
#1137=CARTESIAN_POINT('',(-96.3515858088714,-40.0259329353972,3.));
#1138=CARTESIAN_POINT('Ctrl Pts',(-111.819693051053,-45.2642019938854,18.));
#1139=CARTESIAN_POINT('Ctrl Pts',(-111.782092630244,-45.2504049029594,16.8331990652844));
#1140=CARTESIAN_POINT('Ctrl Pts',(-111.275641170584,-45.0647288702084,13.3437027460002));
#1141=CARTESIAN_POINT('Ctrl Pts',(-108.522275389791,-44.0621927212711,8.11987462898673));
#1142=CARTESIAN_POINT('Ctrl Pts',(-103.011606428984,-42.1515729994095,3.97093798319342));
#1143=CARTESIAN_POINT('Ctrl Pts',(-98.5776986014045,-40.7178924266577,3.00000000000414));
#1144=CARTESIAN_POINT('Ctrl Pts',(-96.3515858088714,-40.0259329353972,3.));
#1145=CARTESIAN_POINT('',(-96.5000000000139,-39.5484675148031,3.5));
#1146=CARTESIAN_POINT('Origin',(-96.5000000000288,-39.5484675148031,3.));
#1147=CARTESIAN_POINT('Ctrl Pts',(-96.5000000000279,-39.5484675148031,3.49999999999999));
#1148=CARTESIAN_POINT('Ctrl Pts',(-98.6576210608685,-40.2414928588707,3.500000000004));
#1149=CARTESIAN_POINT('Ctrl Pts',(-102.955109015074,-41.6773817869993,4.43961740309039));
#1150=CARTESIAN_POINT('Ctrl Pts',(-108.296228948007,-43.5909445126346,8.45471738289038));
#1151=CARTESIAN_POINT('Ctrl Pts',(-110.964880786658,-44.595024907994,13.5100349154841));
#1152=CARTESIAN_POINT('Ctrl Pts',(-111.455750045089,-44.7809869449449,16.886966837372));
#1153=CARTESIAN_POINT('Ctrl Pts',(-111.492193598222,-44.7948052880805,18.0161290322581));
#1154=CARTESIAN_POINT('Origin',(0.,-350.,3.));
#1155=CARTESIAN_POINT('',(96.3515858088427,-40.0259329353882,3.));
#1156=CARTESIAN_POINT('',(96.5,-39.5484675147942,3.5));
#1157=CARTESIAN_POINT('Origin',(96.5,-39.5484675147941,3.));
#1158=CARTESIAN_POINT('Origin',(0.,-350.,3.5));
#1159=CARTESIAN_POINT('Origin',(0.,-350.,3.));
#1160=CARTESIAN_POINT('Ctrl Pts',(96.3515858088715,-40.0259329353972,3.));
#1161=CARTESIAN_POINT('Ctrl Pts',(99.6907549976711,-41.063872172288,3.00000000000621));
#1162=CARTESIAN_POINT('Ctrl Pts',(105.219502022536,-42.8936511763719,4.84463961489684));
#1163=CARTESIAN_POINT('Ctrl Pts',(110.512301123688,-44.7823244556631,11.0506222487215));
#1164=CARTESIAN_POINT('Ctrl Pts',(111.744492209434,-45.2366078120334,15.6663981305688));
#1165=CARTESIAN_POINT('Ctrl Pts',(111.819693051053,-45.2642019938854,18.));
#1166=CARTESIAN_POINT('Ctrl Pts',(96.3515858088713,-40.0259329353971,3.13089969389953));
#1167=CARTESIAN_POINT('Ctrl Pts',(99.6649935698593,-41.0556823385408,3.1255102587889));
#1168=CARTESIAN_POINT('Ctrl Pts',(105.157843128191,-42.8728839891812,4.94671209199334));
#1169=CARTESIAN_POINT('Ctrl Pts',(110.423142401629,-44.7499297502405,11.1028271927325));
#1170=CARTESIAN_POINT('Ctrl Pts',(111.649516663845,-45.2017869176731,15.686196562817));
#1171=CARTESIAN_POINT('Ctrl Pts',(111.724360001874,-45.2292205037993,18.0034911443104));
#1172=CARTESIAN_POINT('Ctrl Pts',(96.3837935549844,-39.9223169339581,3.39149371140827));
#1173=CARTESIAN_POINT('Ctrl Pts',(99.644348452847,-40.9456276840774,3.37581024447098));
#1174=CARTESIAN_POINT('Ctrl Pts',(105.062129284564,-42.7526589407536,5.15028588642161));
#1175=CARTESIAN_POINT('Ctrl Pts',(110.268200058272,-44.6220058723184,11.2072586967276));
#1176=CARTESIAN_POINT('Ctrl Pts',(111.481979468032,-45.071955225705,15.7256819221814));
#1177=CARTESIAN_POINT('Ctrl Pts',(111.556042389546,-45.0992872081103,18.0104623629638));
#1178=CARTESIAN_POINT('Ctrl Pts',(96.4611452556422,-39.6734676696098,3.49999999999991));
#1179=CARTESIAN_POINT('Ctrl Pts',(99.6976006266815,-40.707439816697,3.49142715843344));
#1180=CARTESIAN_POINT('Ctrl Pts',(105.067059788354,-42.5314862387265,5.26388479289469));
#1181=CARTESIAN_POINT('Ctrl Pts',(110.218463389233,-44.41552424885,11.2732406661788));
#1182=CARTESIAN_POINT('Ctrl Pts',(111.418904630545,-44.8688731695459,15.751051456297));
#1183=CARTESIAN_POINT('Ctrl Pts',(111.492154803651,-44.8964066496853,18.0149270264173));
#1184=CARTESIAN_POINT('Ctrl Pts',(96.5000000000279,-39.5484675148031,3.49999999999998));
#1185=CARTESIAN_POINT('Ctrl Pts',(99.736431591289,-40.5880055309046,3.500000000006));
#1186=CARTESIAN_POINT('Ctrl Pts',(105.095073373017,-42.4206030165798,5.28513511119049));
#1187=CARTESIAN_POINT('Ctrl Pts',(110.225026738251,-44.3121854946636,11.2909247568272));
#1188=CARTESIAN_POINT('Ctrl Pts',(111.419306491956,-44.7671686018095,15.757804642486));
#1189=CARTESIAN_POINT('Ctrl Pts',(111.492193598222,-44.7948052880805,18.0161290322581));
#1190=CARTESIAN_POINT('Ctrl Pts',(111.492193598222,-44.7948052880805,18.0161290322581));
#1191=CARTESIAN_POINT('Ctrl Pts',(111.419306491956,-44.7671686018095,15.757804642486));
#1192=CARTESIAN_POINT('Ctrl Pts',(110.225026738251,-44.3121854946636,11.2909247568272));
#1193=CARTESIAN_POINT('Ctrl Pts',(105.095073373017,-42.4206030165798,5.28513511119049));
#1194=CARTESIAN_POINT('Ctrl Pts',(99.736431591289,-40.5880055309046,3.500000000006));
#1195=CARTESIAN_POINT('Ctrl Pts',(96.5000000000279,-39.5484675148031,3.49999999999998));
#1196=CARTESIAN_POINT('Ctrl Pts',(96.3515858088715,-40.0259329353972,3.));
#1197=CARTESIAN_POINT('Ctrl Pts',(99.6907549976711,-41.063872172288,3.00000000000621));
#1198=CARTESIAN_POINT('Ctrl Pts',(105.219502022536,-42.8936511763719,4.84463961489684));
#1199=CARTESIAN_POINT('Ctrl Pts',(110.512301123688,-44.7823244556631,11.0506222487215));
#1200=CARTESIAN_POINT('Ctrl Pts',(111.744492209434,-45.2366078120334,15.6663981305688));
#1201=CARTESIAN_POINT('Ctrl Pts',(111.819693051053,-45.2642019938854,18.));
#1202=CARTESIAN_POINT('Origin',(0.,-350.,18.));
#1203=CARTESIAN_POINT('',(115.,-46.4500859159153,18.));
#1204=CARTESIAN_POINT('',(115.,-45.9154656638835,18.5));
#1205=CARTESIAN_POINT('Ctrl Pts',(115.,-46.4500859159153,18.));
#1206=CARTESIAN_POINT('Ctrl Pts',(115.,-46.4500859159153,18.0603900988225));
#1207=CARTESIAN_POINT('Ctrl Pts',(115.,-46.4352610577559,18.1313256455681));
#1208=CARTESIAN_POINT('Ctrl Pts',(115.,-46.3866472389598,18.2442057952287));
#1209=CARTESIAN_POINT('Ctrl Pts',(115.,-46.3435159168985,18.3055822821604));
#1210=CARTESIAN_POINT('Ctrl Pts',(115.,-46.2514259006326,18.3939983860254));
#1211=CARTESIAN_POINT('Ctrl Pts',(115.,-46.1854365774135,18.4359218468128));
#1212=CARTESIAN_POINT('Ctrl Pts',(115.,-46.062305584681,18.4849607445969));
#1213=CARTESIAN_POINT('Ctrl Pts',(115.,-45.9828523653936,18.5));
#1214=CARTESIAN_POINT('Ctrl Pts',(115.,-45.9154656638835,18.5));
#1215=CARTESIAN_POINT('Origin',(0.,-350.,18.5));
#1216=CARTESIAN_POINT('Origin',(0.,-350.,18.));
#1217=CARTESIAN_POINT('Origin',(111.99193338483,25.,18.));
#1218=CARTESIAN_POINT('',(111.99193338483,25.,18.5));
#1219=CARTESIAN_POINT('',(111.492193598222,25.,18.0161290322581));
#1220=CARTESIAN_POINT('Origin',(0.,350.,18.));
#1221=CARTESIAN_POINT('',(115.,45.7543860985273,18.5));
#1222=CARTESIAN_POINT('',(115.,46.2889708519694,18.));
#1223=CARTESIAN_POINT('Ctrl Pts',(115.,45.7543860985273,18.5));
#1224=CARTESIAN_POINT('Ctrl Pts',(115.,45.8217669310231,18.5));
#1225=CARTESIAN_POINT('Ctrl Pts',(115.,45.9012130947166,18.4849613377966));
#1226=CARTESIAN_POINT('Ctrl Pts',(115.,46.0243347068878,18.4359242566371));
#1227=CARTESIAN_POINT('Ctrl Pts',(115.,46.0903195160601,18.394001563086));
#1228=CARTESIAN_POINT('Ctrl Pts',(115.,46.1824046210239,18.3055866008672));
#1229=CARTESIAN_POINT('Ctrl Pts',(115.,46.2255339360197,18.2442098995235));
#1230=CARTESIAN_POINT('Ctrl Pts',(115.,46.2741463685261,18.1313286227439));
#1231=CARTESIAN_POINT('Ctrl Pts',(115.,46.2889708519694,18.0603914011421));
#1232=CARTESIAN_POINT('Ctrl Pts',(115.,46.2889708519694,18.));
#1233=CARTESIAN_POINT('Origin',(0.,350.,18.));
#1234=CARTESIAN_POINT('Origin',(0.,350.,18.5));
#1235=CARTESIAN_POINT('Origin',(96.5,25.,18.5));
#1236=CARTESIAN_POINT('',(96.5,25.,3.5));
#1237=CARTESIAN_POINT('Origin',(0.,0.,3.5));
#1238=CARTESIAN_POINT('',(-96.5,-25.,3.5));
#1239=CARTESIAN_POINT('',(-90.,16.6666666666666,3.5));
#1240=CARTESIAN_POINT('Origin',(-87.25,16.6666666666666,3.5));
#1241=CARTESIAN_POINT('',(-90.,-16.6666666666667,3.5));
#1242=CARTESIAN_POINT('Origin',(-87.25,-16.6666666666667,3.5));
#1243=CARTESIAN_POINT('Origin',(113.25,-1.77635683940025E-14,18.5));
#1244=CARTESIAN_POINT('',(115.,50.,18.5));
#1245=CARTESIAN_POINT('Origin',(115.,-50.,0.));
#1246=CARTESIAN_POINT('',(115.,-46.4500859159153,0.));
#1247=CARTESIAN_POINT('',(115.,-46.4500859159153,0.));
#1248=CARTESIAN_POINT('',(115.,46.2889708519694,0.));
#1249=CARTESIAN_POINT('',(115.,-50.,0.));
#1250=CARTESIAN_POINT('',(115.,46.2889708519694,0.));
#1251=CARTESIAN_POINT('Origin',(0.,-350.,0.));
#1252=CARTESIAN_POINT('',(-115.,-46.4500859159153,0.));
#1253=CARTESIAN_POINT('',(-115.,-46.4500859159153,0.));
#1254=CARTESIAN_POINT('Origin',(0.,-350.,0.));
#1255=CARTESIAN_POINT('Origin',(-87.25,-16.6666666666667,0.));
#1256=CARTESIAN_POINT('',(-90.,-16.6666666666667,0.));
#1257=CARTESIAN_POINT('Origin',(-87.25,-16.6666666666667,0.));
#1258=CARTESIAN_POINT('',(-90.,-16.6666666666667,0.));
#1259=CARTESIAN_POINT('Origin',(-87.25,16.6666666666666,0.));
#1260=CARTESIAN_POINT('',(-90.,16.6666666666666,0.));
#1261=CARTESIAN_POINT('Origin',(-87.25,16.6666666666666,0.));
#1262=CARTESIAN_POINT('',(-90.,16.6666666666666,0.));
#1263=CARTESIAN_POINT('Origin',(-115.,-26.4500859159153,11.));
#1264=CARTESIAN_POINT('',(-111.5,-24.9500859159153,11.));
#1265=CARTESIAN_POINT('Origin',(-111.5,-26.4500859159153,11.));
#1266=CARTESIAN_POINT('',(-115.,-24.9500859159153,11.));
#1267=CARTESIAN_POINT('',(-115.,-24.9500859159153,11.));
#1268=CARTESIAN_POINT('Origin',(-115.,-26.4500859159153,11.));
#1269=CARTESIAN_POINT('Origin',(-111.5,-26.4500859159153,11.));
#1270=CARTESIAN_POINT('',(-111.5,-22.7000859159153,11.));
#1271=CARTESIAN_POINT('Origin',(-111.5,-26.4500859159153,11.));
#1272=CARTESIAN_POINT('Origin',(-115.,26.2889708519694,11.));
#1273=CARTESIAN_POINT('',(-111.5,27.7889708519694,11.));
#1274=CARTESIAN_POINT('Origin',(-111.5,26.2889708519694,11.));
#1275=CARTESIAN_POINT('',(-115.,27.7889708519694,11.));
#1276=CARTESIAN_POINT('',(-115.,27.7889708519694,11.));
#1277=CARTESIAN_POINT('Origin',(-115.,26.2889708519694,11.));
#1278=CARTESIAN_POINT('Origin',(-111.5,26.2889708519694,11.));
#1279=CARTESIAN_POINT('',(-111.5,30.0389708519694,11.));
#1280=CARTESIAN_POINT('Origin',(-111.5,26.2889708519694,11.));
#1281=CARTESIAN_POINT('Origin',(-115.,-26.4500859159153,11.));
#1282=CARTESIAN_POINT('',(-109.490381056767,-22.7000859159153,11.));
#1283=CARTESIAN_POINT('',(-115.,-22.7000859159153,11.));
#1284=CARTESIAN_POINT('',(-111.023687548278,-26.4500859159153,14.75));
#1285=CARTESIAN_POINT('Ctrl Pts',(-111.023687548278,-26.4500859159153,14.75));
#1286=CARTESIAN_POINT('Ctrl Pts',(-111.023687548278,-25.9829931686133,14.75));
#1287=CARTESIAN_POINT('Ctrl Pts',(-111.000695586829,-25.4855959878017,14.6571699685125));
#1288=CARTESIAN_POINT('Ctrl Pts',(-110.896635014747,-24.573842571515,14.2840283771938));
#1289=CARTESIAN_POINT('Ctrl Pts',(-110.814200412467,-24.1596070900291,14.0038039693669));
#1290=CARTESIAN_POINT('Ctrl Pts',(-110.587374789516,-23.4720717982436,13.3343167996395));
#1291=CARTESIAN_POINT('Ctrl Pts',(-110.421243778831,-23.1717621274496,12.8906378839961));
#1292=CARTESIAN_POINT('Ctrl Pts',(-110.003107006478,-22.7862490174393,11.9477428157485));
#1293=CARTESIAN_POINT('Ctrl Pts',(-109.749878218492,-22.7000859159153,11.4494622685292));
#1294=CARTESIAN_POINT('Ctrl Pts',(-109.490381056767,-22.7000859159153,11.));
#1295=CARTESIAN_POINT('Ctrl Pts',(-109.490381056767,-22.7000859159153,11.));
#1296=CARTESIAN_POINT('Ctrl Pts',(-109.19235667628,-22.7000859159153,10.4838066311025));
#1297=CARTESIAN_POINT('Ctrl Pts',(-108.841004920372,-22.8113128473445,9.95249570764542));
#1298=CARTESIAN_POINT('Ctrl Pts',(-108.118624562108,-23.2386834949306,8.99380231568855));
#1299=CARTESIAN_POINT('Ctrl Pts',(-107.748176719047,-23.5536637901065,8.56546428609617));
#1300=CARTESIAN_POINT('Ctrl Pts',(-107.17165223635,-24.2276745016838,7.95212907798891));
#1301=CARTESIAN_POINT('Ctrl Pts',(-106.911627533827,-24.6103295883885,7.69886966220107));
#1302=CARTESIAN_POINT('Ctrl Pts',(-106.62876417791,-25.2621271526124,7.43542869044496));
#1303=CARTESIAN_POINT('Ctrl Pts',(-106.552172563014,-25.4924345822166,7.36632745371908));
#1304=CARTESIAN_POINT('Ctrl Pts',(-106.448491902567,-25.9658141243859,7.27358710513741));
#1305=CARTESIAN_POINT('Ctrl Pts',(-106.421567416492,-26.2089324509806,7.25));
#1306=CARTESIAN_POINT('Ctrl Pts',(-106.421567416492,-26.6912393808499,7.25));
#1307=CARTESIAN_POINT('Ctrl Pts',(-106.448491902567,-26.9343577074447,7.27358710513741));
#1308=CARTESIAN_POINT('Ctrl Pts',(-106.552172563014,-27.4077372496139,7.36632745371908));
#1309=CARTESIAN_POINT('Ctrl Pts',(-106.62876417791,-27.6380446792182,7.43542869044496));
#1310=CARTESIAN_POINT('Ctrl Pts',(-106.911627533827,-28.289842243442,7.69886966220107));
#1311=CARTESIAN_POINT('Ctrl Pts',(-107.17165223635,-28.6724973301468,7.95212907798891));
#1312=CARTESIAN_POINT('Ctrl Pts',(-107.748176719047,-29.3465080417241,8.56546428609617));
#1313=CARTESIAN_POINT('Ctrl Pts',(-108.118624562108,-29.6614883368999,8.99380231568854));
#1314=CARTESIAN_POINT('Ctrl Pts',(-108.841004920372,-30.088858984486,9.95249570764541));
#1315=CARTESIAN_POINT('Ctrl Pts',(-109.19235667628,-30.2000859159153,10.4838066311025));
#1316=CARTESIAN_POINT('Ctrl Pts',(-109.749878218492,-30.2000859159153,11.4494622685292));
#1317=CARTESIAN_POINT('Ctrl Pts',(-110.003107006478,-30.1139228143913,11.9477428157485));
#1318=CARTESIAN_POINT('Ctrl Pts',(-110.421243778831,-29.7284097043809,12.8906378839961));
#1319=CARTESIAN_POINT('Ctrl Pts',(-110.587374789516,-29.4281000335869,13.3343167996395));
#1320=CARTESIAN_POINT('Ctrl Pts',(-110.814200412467,-28.7405647418014,14.0038039693669));
#1321=CARTESIAN_POINT('Ctrl Pts',(-110.896635014747,-28.3263292603155,14.2840283771938));
#1322=CARTESIAN_POINT('Ctrl Pts',(-111.000695586829,-27.4145758440288,14.6571699685125));
#1323=CARTESIAN_POINT('Ctrl Pts',(-111.023687548278,-26.9171786632172,14.75));
#1324=CARTESIAN_POINT('Ctrl Pts',(-111.023687548278,-26.4500859159153,14.75));
#1325=CARTESIAN_POINT('Origin',(-115.,26.2889708519694,11.));
#1326=CARTESIAN_POINT('',(-109.490381056767,30.0389708519694,11.));
#1327=CARTESIAN_POINT('',(-115.,30.0389708519694,11.));
#1328=CARTESIAN_POINT('',(-111.023687548278,26.2889708519694,14.75));
#1329=CARTESIAN_POINT('Ctrl Pts',(-111.023687548278,26.2889708519694,14.75));
#1330=CARTESIAN_POINT('Ctrl Pts',(-111.023687548278,26.7560635992713,14.75));
#1331=CARTESIAN_POINT('Ctrl Pts',(-111.000695586829,27.2534607800829,14.6571699685125));
#1332=CARTESIAN_POINT('Ctrl Pts',(-110.896635014747,28.1652141963696,14.2840283771938));
#1333=CARTESIAN_POINT('Ctrl Pts',(-110.814200412467,28.5794496778556,14.0038039693669));
#1334=CARTESIAN_POINT('Ctrl Pts',(-110.587374789516,29.266984969641,13.3343167996395));
#1335=CARTESIAN_POINT('Ctrl Pts',(-110.421243778831,29.5672946404351,12.8906378839961));
#1336=CARTESIAN_POINT('Ctrl Pts',(-110.003107006478,29.9528077504454,11.9477428157485));
#1337=CARTESIAN_POINT('Ctrl Pts',(-109.749878218492,30.0389708519694,11.4494622685292));
#1338=CARTESIAN_POINT('Ctrl Pts',(-109.490381056767,30.0389708519694,11.));
#1339=CARTESIAN_POINT('Ctrl Pts',(-109.490381056767,30.0389708519694,11.));
#1340=CARTESIAN_POINT('Ctrl Pts',(-109.19235667628,30.0389708519694,10.4838066311025));
#1341=CARTESIAN_POINT('Ctrl Pts',(-108.841004920372,29.9277439205402,9.95249570764542));
#1342=CARTESIAN_POINT('Ctrl Pts',(-108.118624562108,29.5003732729541,8.99380231568855));
#1343=CARTESIAN_POINT('Ctrl Pts',(-107.748176719047,29.1853929777782,8.56546428609617));
#1344=CARTESIAN_POINT('Ctrl Pts',(-107.17165223635,28.5113822662009,7.95212907798891));
#1345=CARTESIAN_POINT('Ctrl Pts',(-106.911627533827,28.1287271794962,7.69886966220107));
#1346=CARTESIAN_POINT('Ctrl Pts',(-106.62876417791,27.4769296152723,7.43542869044496));
#1347=CARTESIAN_POINT('Ctrl Pts',(-106.552172563014,27.246622185668,7.36632745371908));
#1348=CARTESIAN_POINT('Ctrl Pts',(-106.448491902567,26.7732426434988,7.27358710513741));
#1349=CARTESIAN_POINT('Ctrl Pts',(-106.421567416492,26.5301243169041,7.25));
#1350=CARTESIAN_POINT('Ctrl Pts',(-106.421567416492,26.0478173870347,7.25));
#1351=CARTESIAN_POINT('Ctrl Pts',(-106.448491902567,25.80469906044,7.27358710513741));
#1352=CARTESIAN_POINT('Ctrl Pts',(-106.552172563014,25.3313195182708,7.36632745371908));
#1353=CARTESIAN_POINT('Ctrl Pts',(-106.62876417791,25.1010120886665,7.43542869044495));
#1354=CARTESIAN_POINT('Ctrl Pts',(-106.911627533827,24.4492145244426,7.69886966220106));
#1355=CARTESIAN_POINT('Ctrl Pts',(-107.17165223635,24.0665594377379,7.95212907798891));
#1356=CARTESIAN_POINT('Ctrl Pts',(-107.748176719047,23.3925487261606,8.56546428609617));
#1357=CARTESIAN_POINT('Ctrl Pts',(-108.118624562108,23.0775684309847,8.99380231568854));
#1358=CARTESIAN_POINT('Ctrl Pts',(-108.841004920372,22.6501977833986,9.9524957076454));
#1359=CARTESIAN_POINT('Ctrl Pts',(-109.19235667628,22.5389708519694,10.4838066311025));
#1360=CARTESIAN_POINT('Ctrl Pts',(-109.749878218492,22.5389708519694,11.4494622685292));
#1361=CARTESIAN_POINT('Ctrl Pts',(-110.003107006478,22.6251339534934,11.9477428157485));
#1362=CARTESIAN_POINT('Ctrl Pts',(-110.421243778831,23.0106470635037,12.8906378839961));
#1363=CARTESIAN_POINT('Ctrl Pts',(-110.587374789516,23.3109567342978,13.3343167996395));
#1364=CARTESIAN_POINT('Ctrl Pts',(-110.814200412467,23.9984920260832,14.0038039693669));
#1365=CARTESIAN_POINT('Ctrl Pts',(-110.896635014747,24.4127275075692,14.2840283771938));
#1366=CARTESIAN_POINT('Ctrl Pts',(-111.000695586829,25.3244809238559,14.6571699685125));
#1367=CARTESIAN_POINT('Ctrl Pts',(-111.023687548278,25.8218781046675,14.75));
#1368=CARTESIAN_POINT('Ctrl Pts',(-111.023687548278,26.2889708519694,14.75));
#1369=CARTESIAN_POINT('Origin',(0.,350.,0.));
#1370=CARTESIAN_POINT('',(-115.,46.2889708519694,0.));
#1371=CARTESIAN_POINT('Origin',(0.,350.,0.));
#1372=CARTESIAN_POINT('',(-115.,46.2889708519694,0.));
#1373=CARTESIAN_POINT('Origin',(0.,0.,0.));
#1374=CARTESIAN_POINT('',(-115.,-50.,0.));
#1375=CARTESIAN_POINT('Origin',(-115.,50.,0.));
#1376=CARTESIAN_POINT('',(-115.,50.,18.5));
#1377=CARTESIAN_POINT('Origin',(-96.5,-25.,18.5));
#1378=CARTESIAN_POINT('Origin',(-113.25,1.77635683940025E-14,18.5));
#1379=UNCERTAINTY_MEASURE_WITH_UNIT(LENGTH_MEASURE(0.01),#1383,
'DISTANCE_ACCURACY_VALUE',
'Maximum model space distance between geometric entities at asserted c
onnectivities');
#1380=UNCERTAINTY_MEASURE_WITH_UNIT(LENGTH_MEASURE(0.01),#1383,
'DISTANCE_ACCURACY_VALUE',
'Maximum model space distance between geometric entities at asserted c
onnectivities');
#1381=(
GEOMETRIC_REPRESENTATION_CONTEXT(3)
GLOBAL_UNCERTAINTY_ASSIGNED_CONTEXT((#1379))
GLOBAL_UNIT_ASSIGNED_CONTEXT((#1383,#1385,#1386))
REPRESENTATION_CONTEXT('','3D')
);
#1382=(
GEOMETRIC_REPRESENTATION_CONTEXT(3)
GLOBAL_UNCERTAINTY_ASSIGNED_CONTEXT((#1380))
GLOBAL_UNIT_ASSIGNED_CONTEXT((#1383,#1385,#1386))
REPRESENTATION_CONTEXT('','3D')
);
#1383=(
LENGTH_UNIT()
NAMED_UNIT(*)
SI_UNIT(.MILLI.,.METRE.)
);
#1384=(
LENGTH_UNIT()
NAMED_UNIT(*)
SI_UNIT($,.METRE.)
);
#1385=(
NAMED_UNIT(*)
PLANE_ANGLE_UNIT()
SI_UNIT($,.RADIAN.)
);
#1386=(
NAMED_UNIT(*)
SI_UNIT($,.STERADIAN.)
SOLID_ANGLE_UNIT()
);
#1387=SHAPE_DEFINITION_REPRESENTATION(#1388,#1389);
#1388=PRODUCT_DEFINITION_SHAPE('',$,#1391);
#1389=SHAPE_REPRESENTATION('',(#647),#1381);
#1390=PRODUCT_DEFINITION_CONTEXT('part definition',#1395,'design');
#1391=PRODUCT_DEFINITION('support_\X\E9tag\X\E8res_central',
'support_\X\E9tag\X\E8res_central v7',#1392,#1390);
#1392=PRODUCT_DEFINITION_FORMATION('',$,#1397);
#1393=PRODUCT_RELATED_PRODUCT_CATEGORY('support_\X\E9tag\X\E8res_centr
al v7','support_\X\E9tag\X\E8res_central v7',(#1397));
#1394=APPLICATION_PROTOCOL_DEFINITION('international standard',
'automotive_design',2009,#1395);
#1395=APPLICATION_CONTEXT(
'Core Data for Automotive Mechanical Design Process');
#1396=PRODUCT_CONTEXT('part definition',#1395,'mechanical');
#1397=PRODUCT('support_\X\E9tag\X\E8res_central',
'support_\X\E9tag\X\E8res_central v7',$,(#1396));
#1398=PRESENTATION_STYLE_ASSIGNMENT((#1399));
#1399=SURFACE_STYLE_USAGE(.BOTH.,#1400);
#1400=SURFACE_SIDE_STYLE('',(#1401));
#1401=SURFACE_STYLE_FILL_AREA(#1402);
#1402=FILL_AREA_STYLE('Acier - Satin\X\E9',(#1403));
#1403=FILL_AREA_STYLE_COLOUR('Acier - Satin\X\E9',#1404);
#1404=COLOUR_RGB('Acier - Satin\X\E9',0.627450980392157,0.627450980392157,
0.627450980392157);
ENDSEC;
END-ISO-10303-21;
