ISO-10303-21;
HEADER;
/* Generated by software containing ST-Developer
 * from STEP Tools, Inc. (www.steptools.com) 
 */

FILE_DESCRIPTION(
/* description */ (''),
/* implementation_level */ '2;1');

FILE_NAME(
/* name */ 'support_tagres_230.step',
/* time_stamp */ '2025-11-03T12:40:50+01:00',
/* author */ (''),
/* organization */ (''),
/* preprocessor_version */ 'ST-DEVELOPER v20.1',
/* originating_system */ 'Autodesk Translation Framework v14.17.0.0',
/* authorisation */ '');

FILE_SCHEMA (('AUTOMOTIVE_DESIGN { 1 0 10303 214 3 1 1 }'));
ENDSEC;

DATA;
#10=MECHANICAL_DESIGN_GEOMETRIC_PRESENTATION_REPRESENTATION('',(#13),#1520);
#11=SHAPE_REPRESENTATION_RELATIONSHIP('SRR','None',#1527,#12);
#12=ADVANCED_BREP_SHAPE_REPRESENTATION('',(#14),#1519);
#13=STYLED_ITEM('',(#1536),#14);
#14=MANIFOLD_SOLID_BREP('Corps1',#764);
#15=ELLIPSE('',#791,17.1342208271453,15.);
#16=ELLIPSE('',#792,17.1342208271453,15.);
#17=ELLIPSE('',#793,17.2649323802321,15.);
#18=ELLIPSE('',#794,17.2826158204155,15.);
#19=ELLIPSE('',#811,17.2826158204155,15.);
#20=ELLIPSE('',#812,17.2649323802321,15.);
#21=ELLIPSE('',#813,17.1342208271453,15.);
#22=ELLIPSE('',#814,17.1342208271453,15.);
#23=B_SPLINE_CURVE_WITH_KNOTS('',3,(#1093,#1094,#1095,#1096,#1097,#1098,
#1099,#1100,#1101,#1102),.UNSPECIFIED.,.F.,.F.,(4,2,2,2,4),(0.149843143941505,
0.188112804105619,0.225949684851354,0.26318506925654,0.299891362209374),
 .UNSPECIFIED.);
#24=B_SPLINE_CURVE_WITH_KNOTS('',3,(#1105,#1106,#1107,#1108,#1109,#1110,
#1111,#1112,#1113,#1114,#1115,#1116,#1117,#1118),.UNSPECIFIED.,.F.,.F.,
(4,2,2,2,2,2,4),(-0.000594846163404184,0.,0.0690304633334458,0.111879345867006,
0.15453361059259,0.177473241246355,0.192881755594367),.UNSPECIFIED.);
#25=B_SPLINE_CURVE_WITH_KNOTS('',3,(#1125,#1126,#1127,#1128,#1129,#1130,
#1131,#1132,#1133,#1134,#1135,#1136,#1137,#1138,#1139),.UNSPECIFIED.,.F.,
 .F.,(4,2,2,3,2,2,4),(-0.325451829424192,-0.229782024106047,-0.114891012053024,
0.,0.114891012053023,0.229782024106047,0.325451829147891),.UNSPECIFIED.);
#26=B_SPLINE_CURVE_WITH_KNOTS('',3,(#1147,#1148,#1149,#1150,#1151,#1152,
#1153,#1154,#1155,#1156,#1157,#1158,#1159,#1160,#1161,#1162,#1163,#1164,
#1165),.UNSPECIFIED.,.F.,.F.,(4,2,2,2,3,2,2,2,4),(-0.434342919797144,-0.362112053155147,
-0.229782024106045,-0.114891012053023,0.,0.118122941776343,0.236245883552687,
0.365341576515213,0.441453557991165),.UNSPECIFIED.);
#27=B_SPLINE_CURVE_WITH_KNOTS('',3,(#1199,#1200,#1201,#1202,#1203,#1204,
#1205,#1206,#1207,#1208,#1209,#1210,#1211,#1212),.UNSPECIFIED.,.F.,.F.,
(4,2,2,2,2,2,4),(0.,0.013473066401193,0.0334991044031841,0.070692379328844,
0.108064386791647,0.168011930246579,0.168530019275844),.UNSPECIFIED.);
#28=B_SPLINE_CURVE_WITH_KNOTS('',3,(#1214,#1215,#1216,#1217,#1218,#1219,
#1220,#1221,#1222,#1223),.UNSPECIFIED.,.F.,.F.,(4,2,2,2,4),(0.299891362209374,
0.336597655162208,0.373833039567394,0.41166992031313,0.449939580477243),
 .UNSPECIFIED.);
#29=B_SPLINE_CURVE_WITH_KNOTS('',3,(#1244,#1245,#1246,#1247,#1248,#1249,
#1250,#1251,#1252,#1253),.UNSPECIFIED.,.F.,.F.,(4,2,2,2,4),(0.149843143941505,
0.188112804105618,0.225949684851355,0.26318506925654,0.299891362209374),
 .UNSPECIFIED.);
#30=B_SPLINE_CURVE_WITH_KNOTS('',3,(#1256,#1257,#1258,#1259,#1260,#1261,
#1262,#1263,#1264,#1265,#1266,#1267,#1268,#1269),.UNSPECIFIED.,.F.,.F.,
(4,2,2,2,2,2,4),(-0.000594846164670965,0.,0.0690304653541081,0.111879347248386,
0.154533611493295,0.177473241457728,0.192881755380577),.UNSPECIFIED.);
#31=B_SPLINE_CURVE_WITH_KNOTS('',3,(#1276,#1277,#1278,#1279,#1280,#1281,
#1282,#1283,#1284,#1285,#1286,#1287,#1288,#1289,#1290,#1291,#1292,#1293,
#1294),.UNSPECIFIED.,.F.,.F.,(4,2,2,2,3,2,2,2,4),(-0.441453557991166,-0.365341576515213,
-0.236245883552687,-0.118122941776343,0.,0.114891012053023,0.229782024106045,
0.362112053155147,0.434342919797144),.UNSPECIFIED.);
#32=B_SPLINE_CURVE_WITH_KNOTS('',3,(#1302,#1303,#1304,#1305,#1306,#1307,
#1308,#1309,#1310,#1311,#1312,#1313,#1314,#1315,#1316),.UNSPECIFIED.,.F.,
 .F.,(4,2,2,3,2,2,4),(-0.325451829424192,-0.229782024106047,-0.114891012053024,
0.,0.114891012053023,0.229782024106047,0.325451829147893),.UNSPECIFIED.);
#33=B_SPLINE_CURVE_WITH_KNOTS('',3,(#1326,#1327,#1328,#1329,#1330,#1331,
#1332,#1333,#1334,#1335,#1336,#1337,#1338,#1339,#1340,#1341,#1342,#1343,
#1344,#1345),.UNSPECIFIED.,.F.,.F.,(4,2,2,2,2,2,2,2,2,4),(0.,0.0725509949494079,
0.145101989898816,0.290203979797632,0.472199842065236,0.654195704332841,
0.811305976252658,0.968416248172475,1.10842962103176,1.24844299389105),
 .UNSPECIFIED.);
#34=B_SPLINE_CURVE_WITH_KNOTS('',3,(#1346,#1347,#1348,#1349,#1350,#1351,
#1352,#1353,#1354,#1355,#1356,#1357,#1358,#1359,#1360,#1361,#1362,#1363,
#1364,#1365),.UNSPECIFIED.,.F.,.F.,(4,2,2,2,2,2,2,2,2,4),(1.24844299389105,
1.38845636675034,1.52846973960962,1.68558001152944,1.84269028344926,2.02468614571686,
2.20668200798447,2.35178399788328,2.42433499283269,2.4968859877821),
 .UNSPECIFIED.);
#35=B_SPLINE_CURVE_WITH_KNOTS('',3,(#1368,#1369,#1370,#1371,#1372,#1373,
#1374,#1375,#1376,#1377,#1378,#1379,#1380,#1381,#1382,#1383,#1384,#1385,
#1386,#1387),.UNSPECIFIED.,.F.,.F.,(4,2,2,2,2,2,2,2,2,4),(0.,0.0784119145020228,
0.156823829004046,0.313647658008091,0.484313528821692,0.654979399635293,
0.809208531838205,0.963437664041117,1.10632707862887,1.24921649321663),
 .UNSPECIFIED.);
#36=B_SPLINE_CURVE_WITH_KNOTS('',3,(#1388,#1389,#1390,#1391,#1392,#1393,
#1394,#1395,#1396,#1397,#1398,#1399,#1400,#1401,#1402,#1403,#1404,#1405,
#1406,#1407),.UNSPECIFIED.,.F.,.F.,(4,2,2,2,2,2,2,2,2,4),(1.24921649321663,
1.38922986607591,1.5292432389352,1.68635351085502,1.84346378277483,2.02545964504244,
2.20745550731004,2.35255749720886,2.42510849215827,2.49765948710767),
 .UNSPECIFIED.);
#37=B_SPLINE_CURVE_WITH_KNOTS('',3,(#1429,#1430,#1431,#1432,#1433,#1434,
#1435,#1436,#1437,#1438,#1439,#1440,#1441,#1442),.UNSPECIFIED.,.F.,.F.,
(4,2,2,2,2,2,4),(0.,0.0134730667659497,0.0334991053546599,0.0706923806659173,
0.108064388654128,0.16801193024871,0.168530019275926),.UNSPECIFIED.);
#38=B_SPLINE_CURVE_WITH_KNOTS('',3,(#1443,#1444,#1445,#1446,#1447,#1448,
#1449,#1450,#1451,#1452),.UNSPECIFIED.,.F.,.F.,(4,2,2,2,4),(0.299891362209374,
0.336597655162208,0.373833039567393,0.411669920313129,0.449939580477242),
 .UNSPECIFIED.);
#39=CYLINDRICAL_SURFACE('',#784,60.);
#40=CYLINDRICAL_SURFACE('',#790,15.);
#41=CYLINDRICAL_SURFACE('',#805,1.);
#42=CYLINDRICAL_SURFACE('',#810,15.);
#43=CYLINDRICAL_SURFACE('',#823,1.);
#44=CYLINDRICAL_SURFACE('',#824,1.);
#45=CYLINDRICAL_SURFACE('',#825,1.);
#46=CYLINDRICAL_SURFACE('',#827,3.08333333333333);
#47=CYLINDRICAL_SURFACE('',#834,3.08333333333333);
#48=CYLINDRICAL_SURFACE('',#838,3.75);
#49=CYLINDRICAL_SURFACE('',#842,3.75);
#50=CYLINDRICAL_SURFACE('',#846,1.49999999999999);
#51=CYLINDRICAL_SURFACE('',#848,1.5);
#52=FACE_BOUND('',#242,.T.);
#53=FACE_BOUND('',#253,.T.);
#54=FACE_BOUND('',#254,.T.);
#55=FACE_BOUND('',#273,.T.);
#56=FACE_BOUND('',#277,.T.);
#57=FACE_BOUND('',#280,.T.);
#58=FACE_BOUND('',#286,.T.);
#59=FACE_BOUND('',#287,.T.);
#60=LINE('',#1076,#119);
#61=LINE('',#1078,#120);
#62=LINE('',#1080,#121);
#63=LINE('',#1081,#122);
#64=LINE('',#1084,#123);
#65=LINE('',#1121,#124);
#66=LINE('',#1143,#125);
#67=LINE('',#1169,#126);
#68=LINE('',#1172,#127);
#69=LINE('',#1175,#128);
#70=LINE('',#1179,#129);
#71=LINE('',#1180,#130);
#72=LINE('',#1183,#131);
#73=LINE('',#1185,#132);
#74=LINE('',#1187,#133);
#75=LINE('',#1189,#134);
#76=LINE('',#1191,#135);
#77=LINE('',#1195,#136);
#78=LINE('',#1196,#137);
#79=LINE('',#1229,#138);
#80=LINE('',#1231,#139);
#81=LINE('',#1234,#140);
#82=LINE('',#1236,#141);
#83=LINE('',#1272,#142);
#84=LINE('',#1298,#143);
#85=LINE('',#1320,#144);
#86=LINE('',#1323,#145);
#87=LINE('',#1410,#146);
#88=LINE('',#1414,#147);
#89=LINE('',#1415,#148);
#90=LINE('',#1417,#149);
#91=LINE('',#1419,#150);
#92=LINE('',#1421,#151);
#93=LINE('',#1423,#152);
#94=LINE('',#1425,#153);
#95=LINE('',#1426,#154);
#96=LINE('',#1456,#155);
#97=LINE('',#1458,#156);
#98=LINE('',#1461,#157);
#99=LINE('',#1463,#158);
#100=LINE('',#1465,#159);
#101=LINE('',#1467,#160);
#102=LINE('',#1468,#161);
#103=LINE('',#1470,#162);
#104=LINE('',#1472,#163);
#105=LINE('',#1473,#164);
#106=LINE('',#1475,#165);
#107=LINE('',#1476,#166);
#108=LINE('',#1478,#167);
#109=LINE('',#1481,#168);
#110=LINE('',#1483,#169);
#111=LINE('',#1484,#170);
#112=LINE('',#1486,#171);
#113=LINE('',#1489,#172);
#114=LINE('',#1493,#173);
#115=LINE('',#1500,#174);
#116=LINE('',#1507,#175);
#117=LINE('',#1511,#176);
#118=LINE('',#1514,#177);
#119=VECTOR('',#867,10.);
#120=VECTOR('',#868,10.);
#121=VECTOR('',#869,10.);
#122=VECTOR('',#870,10.);
#123=VECTOR('',#873,60.);
#124=VECTOR('',#886,10.);
#125=VECTOR('',#891,10.);
#126=VECTOR('',#896,10.);
#127=VECTOR('',#899,10.);
#128=VECTOR('',#902,10.);
#129=VECTOR('',#905,10.);
#130=VECTOR('',#906,10.);
#131=VECTOR('',#909,10.);
#132=VECTOR('',#910,10.);
#133=VECTOR('',#911,10.);
#134=VECTOR('',#912,10.);
#135=VECTOR('',#913,10.);
#136=VECTOR('',#916,10.);
#137=VECTOR('',#917,10.);
#138=VECTOR('',#926,10.);
#139=VECTOR('',#927,10.);
#140=VECTOR('',#930,10.);
#141=VECTOR('',#933,10.);
#142=VECTOR('',#944,10.);
#143=VECTOR('',#949,10.);
#144=VECTOR('',#954,10.);
#145=VECTOR('',#957,10.);
#146=VECTOR('',#960,10.);
#147=VECTOR('',#963,10.);
#148=VECTOR('',#964,10.);
#149=VECTOR('',#967,10.);
#150=VECTOR('',#968,10.);
#151=VECTOR('',#969,10.);
#152=VECTOR('',#970,10.);
#153=VECTOR('',#971,10.);
#154=VECTOR('',#972,10.);
#155=VECTOR('',#979,10.);
#156=VECTOR('',#980,10.);
#157=VECTOR('',#985,10.);
#158=VECTOR('',#988,10.);
#159=VECTOR('',#991,10.);
#160=VECTOR('',#994,10.);
#161=VECTOR('',#995,10.);
#162=VECTOR('',#998,10.);
#163=VECTOR('',#1001,10.);
#164=VECTOR('',#1002,10.);
#165=VECTOR('',#1005,10.);
#166=VECTOR('',#1006,10.);
#167=VECTOR('',#1009,10.);
#168=VECTOR('',#1014,10.);
#169=VECTOR('',#1017,10.);
#170=VECTOR('',#1018,10.);
#171=VECTOR('',#1021,10.);
#172=VECTOR('',#1026,10.);
#173=VECTOR('',#1031,3.75);
#174=VECTOR('',#1040,3.75);
#175=VECTOR('',#1049,1.49999999999999);
#176=VECTOR('',#1054,1.5);
#177=VECTOR('',#1059,10.);
#178=PLANE('',#783);
#179=PLANE('',#796);
#180=PLANE('',#798);
#181=PLANE('',#803);
#182=PLANE('',#816);
#183=PLANE('',#818);
#184=PLANE('',#821);
#185=PLANE('',#826);
#186=PLANE('',#828);
#187=PLANE('',#829);
#188=PLANE('',#830);
#189=PLANE('',#831);
#190=PLANE('',#832);
#191=PLANE('',#833);
#192=PLANE('',#835);
#193=PLANE('',#836);
#194=PLANE('',#837);
#195=PLANE('',#840);
#196=PLANE('',#844);
#197=PLANE('',#850);
#198=PLANE('',#851);
#199=PLANE('',#852);
#200=FACE_OUTER_BOUND('',#240,.T.);
#201=FACE_OUTER_BOUND('',#241,.T.);
#202=FACE_OUTER_BOUND('',#243,.T.);
#203=FACE_OUTER_BOUND('',#244,.T.);
#204=FACE_OUTER_BOUND('',#245,.T.);
#205=FACE_OUTER_BOUND('',#246,.T.);
#206=FACE_OUTER_BOUND('',#247,.T.);
#207=FACE_OUTER_BOUND('',#248,.T.);
#208=FACE_OUTER_BOUND('',#249,.T.);
#209=FACE_OUTER_BOUND('',#250,.T.);
#210=FACE_OUTER_BOUND('',#251,.T.);
#211=FACE_OUTER_BOUND('',#252,.T.);
#212=FACE_OUTER_BOUND('',#255,.T.);
#213=FACE_OUTER_BOUND('',#256,.T.);
#214=FACE_OUTER_BOUND('',#257,.T.);
#215=FACE_OUTER_BOUND('',#258,.T.);
#216=FACE_OUTER_BOUND('',#259,.T.);
#217=FACE_OUTER_BOUND('',#260,.T.);
#218=FACE_OUTER_BOUND('',#261,.T.);
#219=FACE_OUTER_BOUND('',#262,.T.);
#220=FACE_OUTER_BOUND('',#263,.T.);
#221=FACE_OUTER_BOUND('',#264,.T.);
#222=FACE_OUTER_BOUND('',#265,.T.);
#223=FACE_OUTER_BOUND('',#266,.T.);
#224=FACE_OUTER_BOUND('',#267,.T.);
#225=FACE_OUTER_BOUND('',#268,.T.);
#226=FACE_OUTER_BOUND('',#269,.T.);
#227=FACE_OUTER_BOUND('',#270,.T.);
#228=FACE_OUTER_BOUND('',#271,.T.);
#229=FACE_OUTER_BOUND('',#272,.T.);
#230=FACE_OUTER_BOUND('',#274,.T.);
#231=FACE_OUTER_BOUND('',#275,.T.);
#232=FACE_OUTER_BOUND('',#276,.T.);
#233=FACE_OUTER_BOUND('',#278,.T.);
#234=FACE_OUTER_BOUND('',#279,.T.);
#235=FACE_OUTER_BOUND('',#281,.T.);
#236=FACE_OUTER_BOUND('',#282,.T.);
#237=FACE_OUTER_BOUND('',#283,.T.);
#238=FACE_OUTER_BOUND('',#284,.T.);
#239=FACE_OUTER_BOUND('',#285,.T.);
#240=EDGE_LOOP('',(#499,#500,#501,#502,#503));
#241=EDGE_LOOP('',(#504,#505,#506,#507));
#242=EDGE_LOOP('',(#508));
#243=EDGE_LOOP('',(#509,#510,#511,#512,#513));
#244=EDGE_LOOP('',(#514,#515,#516,#517,#518));
#245=EDGE_LOOP('',(#519,#520,#521,#522,#523,#524,#525,#526,#527,#528,#529,
#530));
#246=EDGE_LOOP('',(#531,#532,#533,#534,#535,#536));
#247=EDGE_LOOP('',(#537,#538,#539,#540,#541,#542,#543,#544,#545,#546));
#248=EDGE_LOOP('',(#547,#548,#549,#550,#551));
#249=EDGE_LOOP('',(#552,#553,#554,#555,#556,#557));
#250=EDGE_LOOP('',(#558,#559,#560,#561));
#251=EDGE_LOOP('',(#562,#563,#564,#565,#566));
#252=EDGE_LOOP('',(#567,#568,#569,#570,#571,#572,#573,#574,#575,#576,#577,
#578));
#253=EDGE_LOOP('',(#579,#580));
#254=EDGE_LOOP('',(#581,#582));
#255=EDGE_LOOP('',(#583,#584,#585,#586,#587,#588));
#256=EDGE_LOOP('',(#589,#590,#591,#592,#593,#594,#595,#596,#597,#598));
#257=EDGE_LOOP('',(#599,#600,#601,#602,#603));
#258=EDGE_LOOP('',(#604,#605,#606,#607,#608,#609));
#259=EDGE_LOOP('',(#610,#611,#612,#613));
#260=EDGE_LOOP('',(#614,#615,#616,#617));
#261=EDGE_LOOP('',(#618,#619,#620,#621));
#262=EDGE_LOOP('',(#622,#623,#624,#625,#626,#627));
#263=EDGE_LOOP('',(#628,#629,#630,#631));
#264=EDGE_LOOP('',(#632,#633,#634,#635,#636,#637));
#265=EDGE_LOOP('',(#638,#639,#640,#641));
#266=EDGE_LOOP('',(#642,#643,#644,#645));
#267=EDGE_LOOP('',(#646,#647,#648,#649));
#268=EDGE_LOOP('',(#650,#651,#652,#653));
#269=EDGE_LOOP('',(#654,#655,#656,#657,#658,#659));
#270=EDGE_LOOP('',(#660,#661,#662,#663));
#271=EDGE_LOOP('',(#664,#665,#666,#667,#668,#669));
#272=EDGE_LOOP('',(#670,#671,#672,#673));
#273=EDGE_LOOP('',(#674));
#274=EDGE_LOOP('',(#675,#676,#677,#678));
#275=EDGE_LOOP('',(#679,#680,#681,#682,#683));
#276=EDGE_LOOP('',(#684));
#277=EDGE_LOOP('',(#685));
#278=EDGE_LOOP('',(#686,#687,#688,#689,#690));
#279=EDGE_LOOP('',(#691));
#280=EDGE_LOOP('',(#692));
#281=EDGE_LOOP('',(#693,#694,#695,#696));
#282=EDGE_LOOP('',(#697,#698,#699,#700));
#283=EDGE_LOOP('',(#701,#702,#703,#704,#705,#706));
#284=EDGE_LOOP('',(#707,#708,#709,#710,#711,#712));
#285=EDGE_LOOP('',(#713,#714,#715,#716));
#286=EDGE_LOOP('',(#717));
#287=EDGE_LOOP('',(#718));
#288=CIRCLE('',#779,61.);
#289=CIRCLE('',#780,1.);
#290=CIRCLE('',#781,60.);
#291=CIRCLE('',#782,60.);
#292=CIRCLE('',#785,60.);
#293=CIRCLE('',#787,1.);
#294=CIRCLE('',#788,16.);
#295=CIRCLE('',#789,15.);
#296=CIRCLE('',#795,15.);
#297=CIRCLE('',#797,1.);
#298=CIRCLE('',#799,16.);
#299=CIRCLE('',#801,16.);
#300=CIRCLE('',#802,1.);
#301=CIRCLE('',#804,1.);
#302=CIRCLE('',#807,1.);
#303=CIRCLE('',#808,16.);
#304=CIRCLE('',#809,15.);
#305=CIRCLE('',#815,15.);
#306=CIRCLE('',#817,1.);
#307=CIRCLE('',#820,1.);
#308=CIRCLE('',#822,1.);
#309=CIRCLE('',#839,3.75);
#310=CIRCLE('',#841,1.5);
#311=CIRCLE('',#843,3.75);
#312=CIRCLE('',#845,1.49999999999999);
#313=CIRCLE('',#847,1.49999999999999);
#314=CIRCLE('',#849,1.5);
#315=VERTEX_POINT('',#1066);
#316=VERTEX_POINT('',#1068);
#317=VERTEX_POINT('',#1070);
#318=VERTEX_POINT('',#1074);
#319=VERTEX_POINT('',#1075);
#320=VERTEX_POINT('',#1077);
#321=VERTEX_POINT('',#1079);
#322=VERTEX_POINT('',#1083);
#323=VERTEX_POINT('',#1087);
#324=VERTEX_POINT('',#1088);
#325=VERTEX_POINT('',#1090);
#326=VERTEX_POINT('',#1092);
#327=VERTEX_POINT('',#1103);
#328=VERTEX_POINT('',#1120);
#329=VERTEX_POINT('',#1122);
#330=VERTEX_POINT('',#1124);
#331=VERTEX_POINT('',#1140);
#332=VERTEX_POINT('',#1142);
#333=VERTEX_POINT('',#1144);
#334=VERTEX_POINT('',#1146);
#335=VERTEX_POINT('',#1166);
#336=VERTEX_POINT('',#1168);
#337=VERTEX_POINT('',#1170);
#338=VERTEX_POINT('',#1174);
#339=VERTEX_POINT('',#1176);
#340=VERTEX_POINT('',#1178);
#341=VERTEX_POINT('',#1182);
#342=VERTEX_POINT('',#1184);
#343=VERTEX_POINT('',#1186);
#344=VERTEX_POINT('',#1188);
#345=VERTEX_POINT('',#1190);
#346=VERTEX_POINT('',#1192);
#347=VERTEX_POINT('',#1194);
#348=VERTEX_POINT('',#1198);
#349=VERTEX_POINT('',#1213);
#350=VERTEX_POINT('',#1224);
#351=VERTEX_POINT('',#1228);
#352=VERTEX_POINT('',#1230);
#353=VERTEX_POINT('',#1232);
#354=VERTEX_POINT('',#1238);
#355=VERTEX_POINT('',#1239);
#356=VERTEX_POINT('',#1241);
#357=VERTEX_POINT('',#1243);
#358=VERTEX_POINT('',#1254);
#359=VERTEX_POINT('',#1271);
#360=VERTEX_POINT('',#1273);
#361=VERTEX_POINT('',#1275);
#362=VERTEX_POINT('',#1295);
#363=VERTEX_POINT('',#1297);
#364=VERTEX_POINT('',#1299);
#365=VERTEX_POINT('',#1301);
#366=VERTEX_POINT('',#1317);
#367=VERTEX_POINT('',#1319);
#368=VERTEX_POINT('',#1321);
#369=VERTEX_POINT('',#1324);
#370=VERTEX_POINT('',#1325);
#371=VERTEX_POINT('',#1366);
#372=VERTEX_POINT('',#1367);
#373=VERTEX_POINT('',#1409);
#374=VERTEX_POINT('',#1411);
#375=VERTEX_POINT('',#1413);
#376=VERTEX_POINT('',#1418);
#377=VERTEX_POINT('',#1420);
#378=VERTEX_POINT('',#1422);
#379=VERTEX_POINT('',#1424);
#380=VERTEX_POINT('',#1428);
#381=VERTEX_POINT('',#1455);
#382=VERTEX_POINT('',#1457);
#383=VERTEX_POINT('',#1492);
#384=VERTEX_POINT('',#1496);
#385=VERTEX_POINT('',#1499);
#386=VERTEX_POINT('',#1503);
#387=VERTEX_POINT('',#1506);
#388=VERTEX_POINT('',#1510);
#389=EDGE_CURVE('',#315,#315,#288,.T.);
#390=EDGE_CURVE('',#315,#316,#289,.T.);
#391=EDGE_CURVE('',#316,#317,#290,.T.);
#392=EDGE_CURVE('',#317,#316,#291,.T.);
#393=EDGE_CURVE('',#318,#319,#60,.T.);
#394=EDGE_CURVE('',#319,#320,#61,.T.);
#395=EDGE_CURVE('',#320,#321,#62,.T.);
#396=EDGE_CURVE('',#321,#318,#63,.T.);
#397=EDGE_CURVE('',#317,#322,#64,.T.);
#398=EDGE_CURVE('',#322,#322,#292,.T.);
#399=EDGE_CURVE('',#323,#324,#293,.T.);
#400=EDGE_CURVE('',#324,#325,#294,.T.);
#401=EDGE_CURVE('',#325,#326,#23,.T.);
#402=EDGE_CURVE('',#326,#327,#295,.T.);
#403=EDGE_CURVE('',#327,#323,#24,.T.);
#404=EDGE_CURVE('',#328,#326,#65,.T.);
#405=EDGE_CURVE('',#328,#329,#15,.T.);
#406=EDGE_CURVE('',#329,#330,#25,.T.);
#407=EDGE_CURVE('',#330,#331,#16,.T.);
#408=EDGE_CURVE('',#332,#331,#66,.T.);
#409=EDGE_CURVE('',#332,#333,#17,.T.);
#410=EDGE_CURVE('',#333,#334,#26,.T.);
#411=EDGE_CURVE('',#334,#335,#18,.T.);
#412=EDGE_CURVE('',#336,#335,#67,.T.);
#413=EDGE_CURVE('',#337,#336,#296,.T.);
#414=EDGE_CURVE('',#327,#337,#68,.T.);
#415=EDGE_CURVE('',#338,#325,#69,.T.);
#416=EDGE_CURVE('',#339,#338,#297,.F.);
#417=EDGE_CURVE('',#340,#339,#70,.T.);
#418=EDGE_CURVE('',#340,#328,#71,.T.);
#419=EDGE_CURVE('',#341,#324,#72,.T.);
#420=EDGE_CURVE('',#342,#341,#73,.T.);
#421=EDGE_CURVE('',#342,#343,#74,.T.);
#422=EDGE_CURVE('',#343,#344,#75,.T.);
#423=EDGE_CURVE('',#345,#344,#76,.T.);
#424=EDGE_CURVE('',#346,#345,#298,.T.);
#425=EDGE_CURVE('',#347,#346,#77,.T.);
#426=EDGE_CURVE('',#338,#347,#78,.T.);
#427=EDGE_CURVE('',#348,#337,#27,.T.);
#428=EDGE_CURVE('',#336,#349,#28,.T.);
#429=EDGE_CURVE('',#349,#350,#299,.T.);
#430=EDGE_CURVE('',#350,#348,#300,.T.);
#431=EDGE_CURVE('',#335,#351,#79,.T.);
#432=EDGE_CURVE('',#352,#351,#80,.T.);
#433=EDGE_CURVE('',#353,#352,#301,.F.);
#434=EDGE_CURVE('',#353,#349,#81,.T.);
#435=EDGE_CURVE('',#348,#323,#82,.T.);
#436=EDGE_CURVE('',#354,#355,#302,.T.);
#437=EDGE_CURVE('',#355,#356,#303,.T.);
#438=EDGE_CURVE('',#356,#357,#29,.T.);
#439=EDGE_CURVE('',#357,#358,#304,.T.);
#440=EDGE_CURVE('',#358,#354,#30,.T.);
#441=EDGE_CURVE('',#359,#357,#83,.T.);
#442=EDGE_CURVE('',#359,#360,#19,.T.);
#443=EDGE_CURVE('',#360,#361,#31,.T.);
#444=EDGE_CURVE('',#361,#362,#20,.T.);
#445=EDGE_CURVE('',#363,#362,#84,.T.);
#446=EDGE_CURVE('',#363,#364,#21,.T.);
#447=EDGE_CURVE('',#364,#365,#32,.T.);
#448=EDGE_CURVE('',#365,#366,#22,.T.);
#449=EDGE_CURVE('',#367,#366,#85,.T.);
#450=EDGE_CURVE('',#368,#367,#305,.T.);
#451=EDGE_CURVE('',#358,#368,#86,.T.);
#452=EDGE_CURVE('',#369,#370,#33,.T.);
#453=EDGE_CURVE('',#370,#369,#34,.T.);
#454=EDGE_CURVE('',#371,#372,#35,.T.);
#455=EDGE_CURVE('',#372,#371,#36,.T.);
#456=EDGE_CURVE('',#373,#356,#87,.T.);
#457=EDGE_CURVE('',#374,#373,#306,.F.);
#458=EDGE_CURVE('',#375,#374,#88,.T.);
#459=EDGE_CURVE('',#375,#359,#89,.T.);
#460=EDGE_CURVE('',#373,#353,#90,.T.);
#461=EDGE_CURVE('',#376,#355,#91,.T.);
#462=EDGE_CURVE('',#377,#376,#92,.T.);
#463=EDGE_CURVE('',#378,#377,#93,.T.);
#464=EDGE_CURVE('',#378,#379,#94,.T.);
#465=EDGE_CURVE('',#350,#379,#95,.T.);
#466=EDGE_CURVE('',#380,#368,#37,.T.);
#467=EDGE_CURVE('',#367,#346,#38,.T.);
#468=EDGE_CURVE('',#345,#380,#307,.T.);
#469=EDGE_CURVE('',#366,#381,#96,.T.);
#470=EDGE_CURVE('',#382,#381,#97,.T.);
#471=EDGE_CURVE('',#347,#382,#308,.F.);
#472=EDGE_CURVE('',#380,#354,#98,.T.);
#473=EDGE_CURVE('',#382,#339,#99,.T.);
#474=EDGE_CURVE('',#352,#374,#100,.T.);
#475=EDGE_CURVE('',#381,#340,#101,.T.);
#476=EDGE_CURVE('',#365,#329,#102,.T.);
#477=EDGE_CURVE('',#364,#330,#103,.T.);
#478=EDGE_CURVE('',#319,#363,#104,.T.);
#479=EDGE_CURVE('',#331,#318,#105,.T.);
#480=EDGE_CURVE('',#378,#342,#106,.T.);
#481=EDGE_CURVE('',#379,#341,#107,.T.);
#482=EDGE_CURVE('',#321,#332,#108,.T.);
#483=EDGE_CURVE('',#362,#320,#109,.T.);
#484=EDGE_CURVE('',#351,#375,#110,.T.);
#485=EDGE_CURVE('',#360,#334,#111,.T.);
#486=EDGE_CURVE('',#361,#333,#112,.T.);
#487=EDGE_CURVE('',#377,#343,#113,.T.);
#488=EDGE_CURVE('',#372,#383,#114,.T.);
#489=EDGE_CURVE('',#383,#383,#309,.T.);
#490=EDGE_CURVE('',#384,#384,#310,.T.);
#491=EDGE_CURVE('',#370,#385,#115,.T.);
#492=EDGE_CURVE('',#385,#385,#311,.T.);
#493=EDGE_CURVE('',#386,#386,#312,.T.);
#494=EDGE_CURVE('',#386,#387,#116,.T.);
#495=EDGE_CURVE('',#387,#387,#313,.T.);
#496=EDGE_CURVE('',#384,#388,#117,.T.);
#497=EDGE_CURVE('',#388,#388,#314,.T.);
#498=EDGE_CURVE('',#344,#376,#118,.T.);
#499=ORIENTED_EDGE('',*,*,#389,.T.);
#500=ORIENTED_EDGE('',*,*,#390,.T.);
#501=ORIENTED_EDGE('',*,*,#391,.T.);
#502=ORIENTED_EDGE('',*,*,#392,.T.);
#503=ORIENTED_EDGE('',*,*,#390,.F.);
#504=ORIENTED_EDGE('',*,*,#393,.T.);
#505=ORIENTED_EDGE('',*,*,#394,.T.);
#506=ORIENTED_EDGE('',*,*,#395,.T.);
#507=ORIENTED_EDGE('',*,*,#396,.T.);
#508=ORIENTED_EDGE('',*,*,#389,.F.);
#509=ORIENTED_EDGE('',*,*,#392,.F.);
#510=ORIENTED_EDGE('',*,*,#397,.T.);
#511=ORIENTED_EDGE('',*,*,#398,.T.);
#512=ORIENTED_EDGE('',*,*,#397,.F.);
#513=ORIENTED_EDGE('',*,*,#391,.F.);
#514=ORIENTED_EDGE('',*,*,#399,.T.);
#515=ORIENTED_EDGE('',*,*,#400,.T.);
#516=ORIENTED_EDGE('',*,*,#401,.T.);
#517=ORIENTED_EDGE('',*,*,#402,.T.);
#518=ORIENTED_EDGE('',*,*,#403,.T.);
#519=ORIENTED_EDGE('',*,*,#402,.F.);
#520=ORIENTED_EDGE('',*,*,#404,.F.);
#521=ORIENTED_EDGE('',*,*,#405,.T.);
#522=ORIENTED_EDGE('',*,*,#406,.T.);
#523=ORIENTED_EDGE('',*,*,#407,.T.);
#524=ORIENTED_EDGE('',*,*,#408,.F.);
#525=ORIENTED_EDGE('',*,*,#409,.T.);
#526=ORIENTED_EDGE('',*,*,#410,.T.);
#527=ORIENTED_EDGE('',*,*,#411,.T.);
#528=ORIENTED_EDGE('',*,*,#412,.F.);
#529=ORIENTED_EDGE('',*,*,#413,.F.);
#530=ORIENTED_EDGE('',*,*,#414,.F.);
#531=ORIENTED_EDGE('',*,*,#401,.F.);
#532=ORIENTED_EDGE('',*,*,#415,.F.);
#533=ORIENTED_EDGE('',*,*,#416,.F.);
#534=ORIENTED_EDGE('',*,*,#417,.F.);
#535=ORIENTED_EDGE('',*,*,#418,.T.);
#536=ORIENTED_EDGE('',*,*,#404,.T.);
#537=ORIENTED_EDGE('',*,*,#400,.F.);
#538=ORIENTED_EDGE('',*,*,#419,.F.);
#539=ORIENTED_EDGE('',*,*,#420,.F.);
#540=ORIENTED_EDGE('',*,*,#421,.T.);
#541=ORIENTED_EDGE('',*,*,#422,.T.);
#542=ORIENTED_EDGE('',*,*,#423,.F.);
#543=ORIENTED_EDGE('',*,*,#424,.F.);
#544=ORIENTED_EDGE('',*,*,#425,.F.);
#545=ORIENTED_EDGE('',*,*,#426,.F.);
#546=ORIENTED_EDGE('',*,*,#415,.T.);
#547=ORIENTED_EDGE('',*,*,#427,.T.);
#548=ORIENTED_EDGE('',*,*,#413,.T.);
#549=ORIENTED_EDGE('',*,*,#428,.T.);
#550=ORIENTED_EDGE('',*,*,#429,.T.);
#551=ORIENTED_EDGE('',*,*,#430,.T.);
#552=ORIENTED_EDGE('',*,*,#428,.F.);
#553=ORIENTED_EDGE('',*,*,#412,.T.);
#554=ORIENTED_EDGE('',*,*,#431,.T.);
#555=ORIENTED_EDGE('',*,*,#432,.F.);
#556=ORIENTED_EDGE('',*,*,#433,.F.);
#557=ORIENTED_EDGE('',*,*,#434,.T.);
#558=ORIENTED_EDGE('',*,*,#403,.F.);
#559=ORIENTED_EDGE('',*,*,#414,.T.);
#560=ORIENTED_EDGE('',*,*,#427,.F.);
#561=ORIENTED_EDGE('',*,*,#435,.T.);
#562=ORIENTED_EDGE('',*,*,#436,.T.);
#563=ORIENTED_EDGE('',*,*,#437,.T.);
#564=ORIENTED_EDGE('',*,*,#438,.T.);
#565=ORIENTED_EDGE('',*,*,#439,.T.);
#566=ORIENTED_EDGE('',*,*,#440,.T.);
#567=ORIENTED_EDGE('',*,*,#439,.F.);
#568=ORIENTED_EDGE('',*,*,#441,.F.);
#569=ORIENTED_EDGE('',*,*,#442,.T.);
#570=ORIENTED_EDGE('',*,*,#443,.T.);
#571=ORIENTED_EDGE('',*,*,#444,.T.);
#572=ORIENTED_EDGE('',*,*,#445,.F.);
#573=ORIENTED_EDGE('',*,*,#446,.T.);
#574=ORIENTED_EDGE('',*,*,#447,.T.);
#575=ORIENTED_EDGE('',*,*,#448,.T.);
#576=ORIENTED_EDGE('',*,*,#449,.F.);
#577=ORIENTED_EDGE('',*,*,#450,.F.);
#578=ORIENTED_EDGE('',*,*,#451,.F.);
#579=ORIENTED_EDGE('',*,*,#452,.F.);
#580=ORIENTED_EDGE('',*,*,#453,.F.);
#581=ORIENTED_EDGE('',*,*,#454,.F.);
#582=ORIENTED_EDGE('',*,*,#455,.F.);
#583=ORIENTED_EDGE('',*,*,#438,.F.);
#584=ORIENTED_EDGE('',*,*,#456,.F.);
#585=ORIENTED_EDGE('',*,*,#457,.F.);
#586=ORIENTED_EDGE('',*,*,#458,.F.);
#587=ORIENTED_EDGE('',*,*,#459,.T.);
#588=ORIENTED_EDGE('',*,*,#441,.T.);
#589=ORIENTED_EDGE('',*,*,#429,.F.);
#590=ORIENTED_EDGE('',*,*,#434,.F.);
#591=ORIENTED_EDGE('',*,*,#460,.F.);
#592=ORIENTED_EDGE('',*,*,#456,.T.);
#593=ORIENTED_EDGE('',*,*,#437,.F.);
#594=ORIENTED_EDGE('',*,*,#461,.F.);
#595=ORIENTED_EDGE('',*,*,#462,.F.);
#596=ORIENTED_EDGE('',*,*,#463,.F.);
#597=ORIENTED_EDGE('',*,*,#464,.T.);
#598=ORIENTED_EDGE('',*,*,#465,.F.);
#599=ORIENTED_EDGE('',*,*,#466,.T.);
#600=ORIENTED_EDGE('',*,*,#450,.T.);
#601=ORIENTED_EDGE('',*,*,#467,.T.);
#602=ORIENTED_EDGE('',*,*,#424,.T.);
#603=ORIENTED_EDGE('',*,*,#468,.T.);
#604=ORIENTED_EDGE('',*,*,#467,.F.);
#605=ORIENTED_EDGE('',*,*,#449,.T.);
#606=ORIENTED_EDGE('',*,*,#469,.T.);
#607=ORIENTED_EDGE('',*,*,#470,.F.);
#608=ORIENTED_EDGE('',*,*,#471,.F.);
#609=ORIENTED_EDGE('',*,*,#425,.T.);
#610=ORIENTED_EDGE('',*,*,#440,.F.);
#611=ORIENTED_EDGE('',*,*,#451,.T.);
#612=ORIENTED_EDGE('',*,*,#466,.F.);
#613=ORIENTED_EDGE('',*,*,#472,.T.);
#614=ORIENTED_EDGE('',*,*,#416,.T.);
#615=ORIENTED_EDGE('',*,*,#426,.T.);
#616=ORIENTED_EDGE('',*,*,#471,.T.);
#617=ORIENTED_EDGE('',*,*,#473,.T.);
#618=ORIENTED_EDGE('',*,*,#457,.T.);
#619=ORIENTED_EDGE('',*,*,#460,.T.);
#620=ORIENTED_EDGE('',*,*,#433,.T.);
#621=ORIENTED_EDGE('',*,*,#474,.T.);
#622=ORIENTED_EDGE('',*,*,#405,.F.);
#623=ORIENTED_EDGE('',*,*,#418,.F.);
#624=ORIENTED_EDGE('',*,*,#475,.F.);
#625=ORIENTED_EDGE('',*,*,#469,.F.);
#626=ORIENTED_EDGE('',*,*,#448,.F.);
#627=ORIENTED_EDGE('',*,*,#476,.T.);
#628=ORIENTED_EDGE('',*,*,#406,.F.);
#629=ORIENTED_EDGE('',*,*,#476,.F.);
#630=ORIENTED_EDGE('',*,*,#447,.F.);
#631=ORIENTED_EDGE('',*,*,#477,.T.);
#632=ORIENTED_EDGE('',*,*,#407,.F.);
#633=ORIENTED_EDGE('',*,*,#477,.F.);
#634=ORIENTED_EDGE('',*,*,#446,.F.);
#635=ORIENTED_EDGE('',*,*,#478,.F.);
#636=ORIENTED_EDGE('',*,*,#393,.F.);
#637=ORIENTED_EDGE('',*,*,#479,.F.);
#638=ORIENTED_EDGE('',*,*,#480,.T.);
#639=ORIENTED_EDGE('',*,*,#420,.T.);
#640=ORIENTED_EDGE('',*,*,#481,.F.);
#641=ORIENTED_EDGE('',*,*,#464,.F.);
#642=ORIENTED_EDGE('',*,*,#479,.T.);
#643=ORIENTED_EDGE('',*,*,#396,.F.);
#644=ORIENTED_EDGE('',*,*,#482,.T.);
#645=ORIENTED_EDGE('',*,*,#408,.T.);
#646=ORIENTED_EDGE('',*,*,#473,.F.);
#647=ORIENTED_EDGE('',*,*,#470,.T.);
#648=ORIENTED_EDGE('',*,*,#475,.T.);
#649=ORIENTED_EDGE('',*,*,#417,.T.);
#650=ORIENTED_EDGE('',*,*,#478,.T.);
#651=ORIENTED_EDGE('',*,*,#445,.T.);
#652=ORIENTED_EDGE('',*,*,#483,.T.);
#653=ORIENTED_EDGE('',*,*,#394,.F.);
#654=ORIENTED_EDGE('',*,*,#442,.F.);
#655=ORIENTED_EDGE('',*,*,#459,.F.);
#656=ORIENTED_EDGE('',*,*,#484,.F.);
#657=ORIENTED_EDGE('',*,*,#431,.F.);
#658=ORIENTED_EDGE('',*,*,#411,.F.);
#659=ORIENTED_EDGE('',*,*,#485,.F.);
#660=ORIENTED_EDGE('',*,*,#443,.F.);
#661=ORIENTED_EDGE('',*,*,#485,.T.);
#662=ORIENTED_EDGE('',*,*,#410,.F.);
#663=ORIENTED_EDGE('',*,*,#486,.F.);
#664=ORIENTED_EDGE('',*,*,#444,.F.);
#665=ORIENTED_EDGE('',*,*,#486,.T.);
#666=ORIENTED_EDGE('',*,*,#409,.F.);
#667=ORIENTED_EDGE('',*,*,#482,.F.);
#668=ORIENTED_EDGE('',*,*,#395,.F.);
#669=ORIENTED_EDGE('',*,*,#483,.F.);
#670=ORIENTED_EDGE('',*,*,#480,.F.);
#671=ORIENTED_EDGE('',*,*,#463,.T.);
#672=ORIENTED_EDGE('',*,*,#487,.T.);
#673=ORIENTED_EDGE('',*,*,#421,.F.);
#674=ORIENTED_EDGE('',*,*,#398,.F.);
#675=ORIENTED_EDGE('',*,*,#474,.F.);
#676=ORIENTED_EDGE('',*,*,#432,.T.);
#677=ORIENTED_EDGE('',*,*,#484,.T.);
#678=ORIENTED_EDGE('',*,*,#458,.T.);
#679=ORIENTED_EDGE('',*,*,#454,.T.);
#680=ORIENTED_EDGE('',*,*,#488,.T.);
#681=ORIENTED_EDGE('',*,*,#489,.T.);
#682=ORIENTED_EDGE('',*,*,#488,.F.);
#683=ORIENTED_EDGE('',*,*,#455,.T.);
#684=ORIENTED_EDGE('',*,*,#489,.F.);
#685=ORIENTED_EDGE('',*,*,#490,.F.);
#686=ORIENTED_EDGE('',*,*,#452,.T.);
#687=ORIENTED_EDGE('',*,*,#491,.T.);
#688=ORIENTED_EDGE('',*,*,#492,.T.);
#689=ORIENTED_EDGE('',*,*,#491,.F.);
#690=ORIENTED_EDGE('',*,*,#453,.T.);
#691=ORIENTED_EDGE('',*,*,#492,.F.);
#692=ORIENTED_EDGE('',*,*,#493,.F.);
#693=ORIENTED_EDGE('',*,*,#493,.T.);
#694=ORIENTED_EDGE('',*,*,#494,.T.);
#695=ORIENTED_EDGE('',*,*,#495,.F.);
#696=ORIENTED_EDGE('',*,*,#494,.F.);
#697=ORIENTED_EDGE('',*,*,#490,.T.);
#698=ORIENTED_EDGE('',*,*,#496,.T.);
#699=ORIENTED_EDGE('',*,*,#497,.F.);
#700=ORIENTED_EDGE('',*,*,#496,.F.);
#701=ORIENTED_EDGE('',*,*,#436,.F.);
#702=ORIENTED_EDGE('',*,*,#472,.F.);
#703=ORIENTED_EDGE('',*,*,#468,.F.);
#704=ORIENTED_EDGE('',*,*,#423,.T.);
#705=ORIENTED_EDGE('',*,*,#498,.T.);
#706=ORIENTED_EDGE('',*,*,#461,.T.);
#707=ORIENTED_EDGE('',*,*,#399,.F.);
#708=ORIENTED_EDGE('',*,*,#435,.F.);
#709=ORIENTED_EDGE('',*,*,#430,.F.);
#710=ORIENTED_EDGE('',*,*,#465,.T.);
#711=ORIENTED_EDGE('',*,*,#481,.T.);
#712=ORIENTED_EDGE('',*,*,#419,.T.);
#713=ORIENTED_EDGE('',*,*,#487,.F.);
#714=ORIENTED_EDGE('',*,*,#462,.T.);
#715=ORIENTED_EDGE('',*,*,#498,.F.);
#716=ORIENTED_EDGE('',*,*,#422,.F.);
#717=ORIENTED_EDGE('',*,*,#495,.T.);
#718=ORIENTED_EDGE('',*,*,#497,.T.);
#719=TOROIDAL_SURFACE('',#778,61.,1.);
#720=TOROIDAL_SURFACE('',#786,16.,1.);
#721=TOROIDAL_SURFACE('',#800,16.,1.);
#722=TOROIDAL_SURFACE('',#806,16.,1.);
#723=TOROIDAL_SURFACE('',#819,16.,1.);
#724=ADVANCED_FACE('',(#200),#719,.T.);
#725=ADVANCED_FACE('',(#201,#52),#178,.T.);
#726=ADVANCED_FACE('',(#202),#39,.F.);
#727=ADVANCED_FACE('',(#203),#720,.T.);
#728=ADVANCED_FACE('',(#204),#40,.F.);
#729=ADVANCED_FACE('',(#205),#179,.T.);
#730=ADVANCED_FACE('',(#206),#180,.T.);
#731=ADVANCED_FACE('',(#207),#721,.T.);
#732=ADVANCED_FACE('',(#208),#181,.T.);
#733=ADVANCED_FACE('',(#209),#41,.T.);
#734=ADVANCED_FACE('',(#210),#722,.T.);
#735=ADVANCED_FACE('',(#211,#53,#54),#42,.F.);
#736=ADVANCED_FACE('',(#212),#182,.T.);
#737=ADVANCED_FACE('',(#213),#183,.T.);
#738=ADVANCED_FACE('',(#214),#723,.T.);
#739=ADVANCED_FACE('',(#215),#184,.T.);
#740=ADVANCED_FACE('',(#216),#43,.T.);
#741=ADVANCED_FACE('',(#217),#44,.T.);
#742=ADVANCED_FACE('',(#218),#45,.T.);
#743=ADVANCED_FACE('',(#219),#185,.T.);
#744=ADVANCED_FACE('',(#220),#46,.T.);
#745=ADVANCED_FACE('',(#221),#186,.T.);
#746=ADVANCED_FACE('',(#222),#187,.T.);
#747=ADVANCED_FACE('',(#223),#188,.T.);
#748=ADVANCED_FACE('',(#224),#189,.T.);
#749=ADVANCED_FACE('',(#225),#190,.T.);
#750=ADVANCED_FACE('',(#226),#191,.T.);
#751=ADVANCED_FACE('',(#227),#47,.T.);
#752=ADVANCED_FACE('',(#228),#192,.T.);
#753=ADVANCED_FACE('',(#229,#55),#193,.F.);
#754=ADVANCED_FACE('',(#230),#194,.T.);
#755=ADVANCED_FACE('',(#231),#48,.F.);
#756=ADVANCED_FACE('',(#232,#56),#195,.T.);
#757=ADVANCED_FACE('',(#233),#49,.F.);
#758=ADVANCED_FACE('',(#234,#57),#196,.T.);
#759=ADVANCED_FACE('',(#235),#50,.F.);
#760=ADVANCED_FACE('',(#236),#51,.F.);
#761=ADVANCED_FACE('',(#237),#197,.T.);
#762=ADVANCED_FACE('',(#238),#198,.T.);
#763=ADVANCED_FACE('',(#239,#58,#59),#199,.T.);
#764=CLOSED_SHELL('',(#724,#725,#726,#727,#728,#729,#730,#731,#732,#733,
#734,#735,#736,#737,#738,#739,#740,#741,#742,#743,#744,#745,#746,#747,#748,
#749,#750,#751,#752,#753,#754,#755,#756,#757,#758,#759,#760,#761,#762,#763));
#765=DERIVED_UNIT_ELEMENT(#767,1.);
#766=DERIVED_UNIT_ELEMENT(#1522,-3.);
#767=(
MASS_UNIT()
NAMED_UNIT(*)
SI_UNIT(.KILO.,.GRAM.)
);
#768=DERIVED_UNIT((#765,#766));
#769=MEASURE_REPRESENTATION_ITEM('density measure',
POSITIVE_RATIO_MEASURE(7850.),#768);
#770=PROPERTY_DEFINITION_REPRESENTATION(#775,#772);
#771=PROPERTY_DEFINITION_REPRESENTATION(#776,#773);
#772=REPRESENTATION('material name',(#774),#1519);
#773=REPRESENTATION('density',(#769),#1519);
#774=DESCRIPTIVE_REPRESENTATION_ITEM('Acier','Acier');
#775=PROPERTY_DEFINITION('material property','material name',#1529);
#776=PROPERTY_DEFINITION('material property','density of part',#1529);
#777=AXIS2_PLACEMENT_3D('',#1064,#853,#854);
#778=AXIS2_PLACEMENT_3D('',#1065,#855,#856);
#779=AXIS2_PLACEMENT_3D('',#1067,#857,#858);
#780=AXIS2_PLACEMENT_3D('',#1069,#859,#860);
#781=AXIS2_PLACEMENT_3D('',#1071,#861,#862);
#782=AXIS2_PLACEMENT_3D('',#1072,#863,#864);
#783=AXIS2_PLACEMENT_3D('',#1073,#865,#866);
#784=AXIS2_PLACEMENT_3D('',#1082,#871,#872);
#785=AXIS2_PLACEMENT_3D('',#1085,#874,#875);
#786=AXIS2_PLACEMENT_3D('',#1086,#876,#877);
#787=AXIS2_PLACEMENT_3D('',#1089,#878,#879);
#788=AXIS2_PLACEMENT_3D('',#1091,#880,#881);
#789=AXIS2_PLACEMENT_3D('',#1104,#882,#883);
#790=AXIS2_PLACEMENT_3D('',#1119,#884,#885);
#791=AXIS2_PLACEMENT_3D('',#1123,#887,#888);
#792=AXIS2_PLACEMENT_3D('',#1141,#889,#890);
#793=AXIS2_PLACEMENT_3D('',#1145,#892,#893);
#794=AXIS2_PLACEMENT_3D('',#1167,#894,#895);
#795=AXIS2_PLACEMENT_3D('',#1171,#897,#898);
#796=AXIS2_PLACEMENT_3D('',#1173,#900,#901);
#797=AXIS2_PLACEMENT_3D('',#1177,#903,#904);
#798=AXIS2_PLACEMENT_3D('',#1181,#907,#908);
#799=AXIS2_PLACEMENT_3D('',#1193,#914,#915);
#800=AXIS2_PLACEMENT_3D('',#1197,#918,#919);
#801=AXIS2_PLACEMENT_3D('',#1225,#920,#921);
#802=AXIS2_PLACEMENT_3D('',#1226,#922,#923);
#803=AXIS2_PLACEMENT_3D('',#1227,#924,#925);
#804=AXIS2_PLACEMENT_3D('',#1233,#928,#929);
#805=AXIS2_PLACEMENT_3D('',#1235,#931,#932);
#806=AXIS2_PLACEMENT_3D('',#1237,#934,#935);
#807=AXIS2_PLACEMENT_3D('',#1240,#936,#937);
#808=AXIS2_PLACEMENT_3D('',#1242,#938,#939);
#809=AXIS2_PLACEMENT_3D('',#1255,#940,#941);
#810=AXIS2_PLACEMENT_3D('',#1270,#942,#943);
#811=AXIS2_PLACEMENT_3D('',#1274,#945,#946);
#812=AXIS2_PLACEMENT_3D('',#1296,#947,#948);
#813=AXIS2_PLACEMENT_3D('',#1300,#950,#951);
#814=AXIS2_PLACEMENT_3D('',#1318,#952,#953);
#815=AXIS2_PLACEMENT_3D('',#1322,#955,#956);
#816=AXIS2_PLACEMENT_3D('',#1408,#958,#959);
#817=AXIS2_PLACEMENT_3D('',#1412,#961,#962);
#818=AXIS2_PLACEMENT_3D('',#1416,#965,#966);
#819=AXIS2_PLACEMENT_3D('',#1427,#973,#974);
#820=AXIS2_PLACEMENT_3D('',#1453,#975,#976);
#821=AXIS2_PLACEMENT_3D('',#1454,#977,#978);
#822=AXIS2_PLACEMENT_3D('',#1459,#981,#982);
#823=AXIS2_PLACEMENT_3D('',#1460,#983,#984);
#824=AXIS2_PLACEMENT_3D('',#1462,#986,#987);
#825=AXIS2_PLACEMENT_3D('',#1464,#989,#990);
#826=AXIS2_PLACEMENT_3D('',#1466,#992,#993);
#827=AXIS2_PLACEMENT_3D('',#1469,#996,#997);
#828=AXIS2_PLACEMENT_3D('',#1471,#999,#1000);
#829=AXIS2_PLACEMENT_3D('',#1474,#1003,#1004);
#830=AXIS2_PLACEMENT_3D('',#1477,#1007,#1008);
#831=AXIS2_PLACEMENT_3D('',#1479,#1010,#1011);
#832=AXIS2_PLACEMENT_3D('',#1480,#1012,#1013);
#833=AXIS2_PLACEMENT_3D('',#1482,#1015,#1016);
#834=AXIS2_PLACEMENT_3D('',#1485,#1019,#1020);
#835=AXIS2_PLACEMENT_3D('',#1487,#1022,#1023);
#836=AXIS2_PLACEMENT_3D('',#1488,#1024,#1025);
#837=AXIS2_PLACEMENT_3D('',#1490,#1027,#1028);
#838=AXIS2_PLACEMENT_3D('',#1491,#1029,#1030);
#839=AXIS2_PLACEMENT_3D('',#1494,#1032,#1033);
#840=AXIS2_PLACEMENT_3D('',#1495,#1034,#1035);
#841=AXIS2_PLACEMENT_3D('',#1497,#1036,#1037);
#842=AXIS2_PLACEMENT_3D('',#1498,#1038,#1039);
#843=AXIS2_PLACEMENT_3D('',#1501,#1041,#1042);
#844=AXIS2_PLACEMENT_3D('',#1502,#1043,#1044);
#845=AXIS2_PLACEMENT_3D('',#1504,#1045,#1046);
#846=AXIS2_PLACEMENT_3D('',#1505,#1047,#1048);
#847=AXIS2_PLACEMENT_3D('',#1508,#1050,#1051);
#848=AXIS2_PLACEMENT_3D('',#1509,#1052,#1053);
#849=AXIS2_PLACEMENT_3D('',#1512,#1055,#1056);
#850=AXIS2_PLACEMENT_3D('',#1513,#1057,#1058);
#851=AXIS2_PLACEMENT_3D('',#1515,#1060,#1061);
#852=AXIS2_PLACEMENT_3D('',#1516,#1062,#1063);
#853=DIRECTION('axis',(0.,0.,1.));
#854=DIRECTION('refdir',(1.,0.,0.));
#855=DIRECTION('center_axis',(0.,-1.,0.));
#856=DIRECTION('ref_axis',(0.,0.,-1.));
#857=DIRECTION('center_axis',(0.,1.,0.));
#858=DIRECTION('ref_axis',(1.,0.,0.));
#859=DIRECTION('center_axis',(-1.,0.,-1.07440937866951E-16));
#860=DIRECTION('ref_axis',(-1.07440937866951E-16,0.,1.));
#861=DIRECTION('center_axis',(0.,-1.,0.));
#862=DIRECTION('ref_axis',(1.,0.,0.));
#863=DIRECTION('center_axis',(0.,-1.,0.));
#864=DIRECTION('ref_axis',(1.,0.,0.));
#865=DIRECTION('center_axis',(0.,1.,0.));
#866=DIRECTION('ref_axis',(1.,0.,0.));
#867=DIRECTION('',(1.,0.,0.));
#868=DIRECTION('',(0.,0.,-1.));
#869=DIRECTION('',(-1.,0.,0.));
#870=DIRECTION('',(0.,0.,1.));
#871=DIRECTION('center_axis',(0.,1.,0.));
#872=DIRECTION('ref_axis',(1.,0.,0.));
#873=DIRECTION('',(0.,-1.,0.));
#874=DIRECTION('center_axis',(0.,-1.,0.));
#875=DIRECTION('ref_axis',(1.,0.,0.));
#876=DIRECTION('center_axis',(0.,0.,-1.));
#877=DIRECTION('ref_axis',(-1.,0.,0.));
#878=DIRECTION('center_axis',(0.,-1.,0.));
#879=DIRECTION('ref_axis',(-1.,0.,0.));
#880=DIRECTION('center_axis',(0.,0.,1.));
#881=DIRECTION('ref_axis',(-0.765539795712714,-0.64338854604363,0.));
#882=DIRECTION('center_axis',(0.,0.,-1.));
#883=DIRECTION('ref_axis',(-0.765539795712714,-0.64338854604363,0.));
#884=DIRECTION('center_axis',(0.,0.,-1.));
#885=DIRECTION('ref_axis',(-1.,0.,0.));
#886=DIRECTION('',(0.,0.,1.));
#887=DIRECTION('center_axis',(0.,-0.483324938063435,-0.875441034134211));
#888=DIRECTION('ref_axis',(0.,0.875441034134211,-0.483324938063435));
#889=DIRECTION('center_axis',(0.,-0.483324938063433,0.875441034134212));
#890=DIRECTION('ref_axis',(0.,0.875441034134212,0.483324938063433));
#891=DIRECTION('',(0.,0.,1.));
#892=DIRECTION('center_axis',(0.,-0.495140120725461,-0.868813133445838));
#893=DIRECTION('ref_axis',(0.,0.868813133445838,-0.495140120725461));
#894=DIRECTION('center_axis',(0.,-0.496696722620879,0.867924170499749));
#895=DIRECTION('ref_axis',(0.,0.867924170499749,0.496696722620879));
#896=DIRECTION('',(0.,0.,1.));
#897=DIRECTION('center_axis',(0.,0.,1.));
#898=DIRECTION('ref_axis',(-0.765539795712714,-0.64338854604363,0.));
#899=DIRECTION('',(0.,0.,-1.));
#900=DIRECTION('center_axis',(1.,0.,0.));
#901=DIRECTION('ref_axis',(0.,0.,-1.));
#902=DIRECTION('',(0.,1.,0.));
#903=DIRECTION('center_axis',(-1.,0.,0.));
#904=DIRECTION('ref_axis',(0.,0.707106781186555,0.70710678118654));
#905=DIRECTION('',(0.,0.,1.));
#906=DIRECTION('',(0.,0.875441034134211,-0.483324938063435));
#907=DIRECTION('center_axis',(0.,0.,1.));
#908=DIRECTION('ref_axis',(1.,0.,0.));
#909=DIRECTION('',(1.,0.,0.));
#910=DIRECTION('',(0.,1.,0.));
#911=DIRECTION('',(1.,0.,0.));
#912=DIRECTION('',(0.,1.,0.));
#913=DIRECTION('',(1.,0.,0.));
#914=DIRECTION('center_axis',(0.,0.,1.));
#915=DIRECTION('ref_axis',(0.765539795712714,-0.64338854604363,0.));
#916=DIRECTION('',(0.,1.,0.));
#917=DIRECTION('',(1.,0.,0.));
#918=DIRECTION('center_axis',(0.,0.,1.));
#919=DIRECTION('ref_axis',(-0.7806247497998,0.625,0.));
#920=DIRECTION('center_axis',(0.,0.,-1.));
#921=DIRECTION('ref_axis',(-0.765539795712714,-0.64338854604363,0.));
#922=DIRECTION('center_axis',(0.,-1.,0.));
#923=DIRECTION('ref_axis',(-1.,0.,0.));
#924=DIRECTION('center_axis',(1.,0.,0.));
#925=DIRECTION('ref_axis',(0.,0.,-1.));
#926=DIRECTION('',(0.,-0.867924170499749,-0.496696722620879));
#927=DIRECTION('',(0.,0.,1.));
#928=DIRECTION('center_axis',(-1.,0.,0.));
#929=DIRECTION('ref_axis',(0.,0.707106781186549,-0.707106781186546));
#930=DIRECTION('',(0.,1.,0.));
#931=DIRECTION('center_axis',(0.,0.,-1.));
#932=DIRECTION('ref_axis',(0.684653196881453,0.728868986855667,0.));
#933=DIRECTION('',(0.,0.,1.));
#934=DIRECTION('center_axis',(0.,0.,1.));
#935=DIRECTION('ref_axis',(1.,0.,0.));
#936=DIRECTION('center_axis',(0.,-1.,0.));
#937=DIRECTION('ref_axis',(1.,0.,0.));
#938=DIRECTION('center_axis',(0.,0.,-1.));
#939=DIRECTION('ref_axis',(0.765539795712714,-0.64338854604363,0.));
#940=DIRECTION('center_axis',(0.,0.,1.));
#941=DIRECTION('ref_axis',(0.765539795712714,-0.64338854604363,0.));
#942=DIRECTION('center_axis',(0.,0.,-1.));
#943=DIRECTION('ref_axis',(-1.,0.,0.));
#944=DIRECTION('',(0.,0.,-1.));
#945=DIRECTION('center_axis',(0.,-0.496696722620879,0.867924170499749));
#946=DIRECTION('ref_axis',(0.,0.867924170499749,0.496696722620879));
#947=DIRECTION('center_axis',(0.,-0.495140120725461,-0.868813133445838));
#948=DIRECTION('ref_axis',(0.,0.868813133445838,-0.495140120725461));
#949=DIRECTION('',(0.,0.,-1.));
#950=DIRECTION('center_axis',(0.,-0.483324938063433,0.875441034134212));
#951=DIRECTION('ref_axis',(0.,0.875441034134212,0.483324938063433));
#952=DIRECTION('center_axis',(0.,-0.483324938063435,-0.875441034134211));
#953=DIRECTION('ref_axis',(0.,0.875441034134211,-0.483324938063435));
#954=DIRECTION('',(0.,0.,-1.));
#955=DIRECTION('center_axis',(0.,0.,-1.));
#956=DIRECTION('ref_axis',(0.765539795712714,-0.64338854604363,0.));
#957=DIRECTION('',(0.,0.,1.));
#958=DIRECTION('center_axis',(-1.,0.,0.));
#959=DIRECTION('ref_axis',(0.,0.,1.));
#960=DIRECTION('',(0.,1.,0.));
#961=DIRECTION('center_axis',(1.,0.,0.));
#962=DIRECTION('ref_axis',(0.,0.707106781186549,-0.707106781186546));
#963=DIRECTION('',(0.,0.,-1.));
#964=DIRECTION('',(0.,0.867924170499749,0.496696722620879));
#965=DIRECTION('center_axis',(0.,0.,-1.));
#966=DIRECTION('ref_axis',(-1.,0.,0.));
#967=DIRECTION('',(-1.,0.,0.));
#968=DIRECTION('',(-1.,0.,0.));
#969=DIRECTION('',(0.,1.,0.));
#970=DIRECTION('',(1.,0.,0.));
#971=DIRECTION('',(0.,1.,0.));
#972=DIRECTION('',(-1.,0.,0.));
#973=DIRECTION('center_axis',(0.,0.,-1.));
#974=DIRECTION('ref_axis',(0.7806247497998,0.625,0.));
#975=DIRECTION('center_axis',(0.,-1.,0.));
#976=DIRECTION('ref_axis',(1.,0.,0.));
#977=DIRECTION('center_axis',(-1.,0.,0.));
#978=DIRECTION('ref_axis',(0.,0.,1.));
#979=DIRECTION('',(0.,-0.875441034134211,0.483324938063435));
#980=DIRECTION('',(0.,0.,-1.));
#981=DIRECTION('center_axis',(1.,0.,0.));
#982=DIRECTION('ref_axis',(0.,0.707106781186555,0.70710678118654));
#983=DIRECTION('center_axis',(0.,0.,1.));
#984=DIRECTION('ref_axis',(-0.684653196881453,0.728868986855667,0.));
#985=DIRECTION('',(0.,0.,-1.));
#986=DIRECTION('center_axis',(1.,0.,0.));
#987=DIRECTION('ref_axis',(0.,0.707106781186555,0.70710678118654));
#988=DIRECTION('',(-1.,0.,0.));
#989=DIRECTION('center_axis',(-1.,0.,0.));
#990=DIRECTION('ref_axis',(0.,0.707106781186549,-0.707106781186546));
#991=DIRECTION('',(1.,0.,0.));
#992=DIRECTION('center_axis',(0.,0.483324938063435,0.875441034134211));
#993=DIRECTION('ref_axis',(0.,0.875441034134211,-0.483324938063435));
#994=DIRECTION('',(-1.,0.,0.));
#995=DIRECTION('',(-1.,0.,0.));
#996=DIRECTION('center_axis',(-1.,0.,0.));
#997=DIRECTION('ref_axis',(0.,1.,0.));
#998=DIRECTION('',(-1.,0.,0.));
#999=DIRECTION('center_axis',(0.,0.483324938063433,-0.875441034134212));
#1000=DIRECTION('ref_axis',(0.,-0.875441034134212,-0.483324938063433));
#1001=DIRECTION('',(0.,0.875441034134212,0.483324938063433));
#1002=DIRECTION('',(0.,-0.875441034134212,-0.483324938063433));
#1003=DIRECTION('center_axis',(-1.,0.,0.));
#1004=DIRECTION('ref_axis',(0.,0.,1.));
#1005=DIRECTION('',(0.,0.,1.));
#1006=DIRECTION('',(0.,0.,1.));
#1007=DIRECTION('center_axis',(1.,0.,0.));
#1008=DIRECTION('ref_axis',(0.,0.,-1.));
#1009=DIRECTION('',(0.,0.868813133445838,-0.495140120725461));
#1010=DIRECTION('center_axis',(0.,1.,0.));
#1011=DIRECTION('ref_axis',(1.,0.,0.));
#1012=DIRECTION('center_axis',(-1.,0.,0.));
#1013=DIRECTION('ref_axis',(0.,0.,1.));
#1014=DIRECTION('',(0.,-0.868813133445838,0.495140120725461));
#1015=DIRECTION('center_axis',(0.,0.496696722620879,-0.867924170499749));
#1016=DIRECTION('ref_axis',(0.,-0.867924170499749,-0.496696722620879));
#1017=DIRECTION('',(1.,0.,0.));
#1018=DIRECTION('',(-1.,0.,0.));
#1019=DIRECTION('center_axis',(-1.,0.,0.));
#1020=DIRECTION('ref_axis',(0.,1.,0.));
#1021=DIRECTION('',(-1.,0.,0.));
#1022=DIRECTION('center_axis',(0.,0.495140120725461,0.868813133445838));
#1023=DIRECTION('ref_axis',(0.,0.868813133445838,-0.495140120725461));
#1024=DIRECTION('center_axis',(0.,1.,0.));
#1025=DIRECTION('ref_axis',(1.,0.,0.));
#1026=DIRECTION('',(0.,0.,1.));
#1027=DIRECTION('center_axis',(0.,1.,0.));
#1028=DIRECTION('ref_axis',(1.,0.,0.));
#1029=DIRECTION('center_axis',(1.,0.,0.));
#1030=DIRECTION('ref_axis',(0.,-1.,0.));
#1031=DIRECTION('',(1.,0.,0.));
#1032=DIRECTION('center_axis',(1.,0.,0.));
#1033=DIRECTION('ref_axis',(0.,-1.,0.));
#1034=DIRECTION('center_axis',(-1.,0.,0.));
#1035=DIRECTION('ref_axis',(0.,-1.,0.));
#1036=DIRECTION('center_axis',(-1.,0.,0.));
#1037=DIRECTION('ref_axis',(0.,-1.,0.));
#1038=DIRECTION('center_axis',(1.,0.,0.));
#1039=DIRECTION('ref_axis',(0.,-1.,0.));
#1040=DIRECTION('',(1.,0.,0.));
#1041=DIRECTION('center_axis',(1.,0.,0.));
#1042=DIRECTION('ref_axis',(0.,-1.,0.));
#1043=DIRECTION('center_axis',(-1.,0.,0.));
#1044=DIRECTION('ref_axis',(0.,-1.,0.));
#1045=DIRECTION('center_axis',(-1.,0.,0.));
#1046=DIRECTION('ref_axis',(0.,-1.,0.));
#1047=DIRECTION('center_axis',(1.,0.,0.));
#1048=DIRECTION('ref_axis',(0.,-1.,0.));
#1049=DIRECTION('',(1.,0.,0.));
#1050=DIRECTION('center_axis',(-1.,0.,0.));
#1051=DIRECTION('ref_axis',(0.,-1.,0.));
#1052=DIRECTION('center_axis',(1.,0.,0.));
#1053=DIRECTION('ref_axis',(0.,-1.,0.));
#1054=DIRECTION('',(1.,0.,0.));
#1055=DIRECTION('center_axis',(-1.,0.,0.));
#1056=DIRECTION('ref_axis',(0.,-1.,0.));
#1057=DIRECTION('center_axis',(0.,1.,0.));
#1058=DIRECTION('ref_axis',(0.,0.,1.));
#1059=DIRECTION('',(0.,0.,-1.));
#1060=DIRECTION('center_axis',(0.,1.,0.));
#1061=DIRECTION('ref_axis',(0.,0.,1.));
#1062=DIRECTION('center_axis',(1.,0.,0.));
#1063=DIRECTION('ref_axis',(0.,0.,-1.));
#1064=CARTESIAN_POINT('',(0.,0.,0.));
#1065=CARTESIAN_POINT('Origin',(15.,2.5,50.));
#1066=CARTESIAN_POINT('',(15.,3.5,111.));
#1067=CARTESIAN_POINT('Origin',(15.,3.5,50.));
#1068=CARTESIAN_POINT('',(15.,2.5,110.));
#1069=CARTESIAN_POINT('Origin',(15.,2.5,111.));
#1070=CARTESIAN_POINT('',(-45.,2.5,50.));
#1071=CARTESIAN_POINT('Origin',(15.,2.5,50.));
#1072=CARTESIAN_POINT('Origin',(15.,2.5,50.));
#1073=CARTESIAN_POINT('Origin',(15.,3.5,50.));
#1074=CARTESIAN_POINT('',(-85.,3.5,114.182325784677));
#1075=CARTESIAN_POINT('',(115.,3.5,114.182325784677));
#1076=CARTESIAN_POINT('',(72.5,3.5,114.182325784677));
#1077=CARTESIAN_POINT('',(115.,3.5,-14.2446641640485));
#1078=CARTESIAN_POINT('',(115.,3.5,5.));
#1079=CARTESIAN_POINT('',(-85.,3.5,-14.2446641640485));
#1080=CARTESIAN_POINT('',(72.5,3.5,-14.2446641640485));
#1081=CARTESIAN_POINT('',(-85.,3.5,95.));
#1082=CARTESIAN_POINT('Origin',(15.,0.,50.));
#1083=CARTESIAN_POINT('',(-45.,0.,50.));
#1084=CARTESIAN_POINT('',(-45.,0.,50.));
#1085=CARTESIAN_POINT('Origin',(15.,0.,50.));
#1086=CARTESIAN_POINT('Origin',(-81.5,18.5,139.));
#1087=CARTESIAN_POINT('',(-97.4687194226713,18.5,139.999510643006));
#1088=CARTESIAN_POINT('',(-97.5,18.5,140.));
#1089=CARTESIAN_POINT('Origin',(-97.5,18.5,139.));
#1090=CARTESIAN_POINT('',(-85.,2.887505004004,140.));
#1091=CARTESIAN_POINT('Origin',(-81.5,18.5,140.));
#1092=CARTESIAN_POINT('',(-85.,3.91404785418518,139.));
#1093=CARTESIAN_POINT('Ctrl Pts',(-85.,2.88750500400398,140.));
#1094=CARTESIAN_POINT('Ctrl Pts',(-85.,3.01507053788436,140.));
#1095=CARTESIAN_POINT('Ctrl Pts',(-85.,3.16530724868869,139.970640147277));
#1096=CARTESIAN_POINT('Ctrl Pts',(-85.,3.40020629911895,139.87482639166));
#1097=CARTESIAN_POINT('Ctrl Pts',(-85.,3.52681210372823,139.79189845335));
#1098=CARTESIAN_POINT('Ctrl Pts',(-85.,3.70522392705476,139.61642845238));
#1099=CARTESIAN_POINT('Ctrl Pts',(-85.,3.78916893919283,139.493396681824));
#1100=CARTESIAN_POINT('Ctrl Pts',(-85.,3.88481716630543,139.266240368804));
#1101=CARTESIAN_POINT('Ctrl Pts',(-85.,3.91404785418517,139.122354309843));
#1102=CARTESIAN_POINT('Ctrl Pts',(-85.,3.91404785418518,139.));
#1103=CARTESIAN_POINT('',(-96.4706744587544,17.5625,139.));
#1104=CARTESIAN_POINT('Origin',(-81.5,18.5,139.));
#1105=CARTESIAN_POINT('Ctrl Pts',(-96.4706744587543,17.5625,139.));
#1106=CARTESIAN_POINT('Ctrl Pts',(-96.4707606629115,17.563876569999,139.001424500331));
#1107=CARTESIAN_POINT('Ctrl Pts',(-96.4708497151724,17.5652529635398,139.002849002616));
#1108=CARTESIAN_POINT('Ctrl Pts',(-96.4816063691537,17.7263348191665,139.169582570488));
#1109=CARTESIAN_POINT('Ctrl Pts',(-96.5308258214888,17.8866352091642,139.337953982564));
#1110=CARTESIAN_POINT('Ctrl Pts',(-96.677778461358,18.1209964597867,139.585770324469));
#1111=CARTESIAN_POINT('Ctrl Pts',(-96.7512577799082,18.2065028543456,139.676618590621));
#1112=CARTESIAN_POINT('Ctrl Pts',(-96.9348011313327,18.3536409041665,139.833955159882));
#1113=CARTESIAN_POINT('Ctrl Pts',(-97.0379595585655,18.4099896395994,139.894788378781));
#1114=CARTESIAN_POINT('Ctrl Pts',(-97.2080783352083,18.4674760851903,139.958552294698));
#1115=CARTESIAN_POINT('Ctrl Pts',(-97.2707309077269,18.4824052520205,139.975601955583));
#1116=CARTESIAN_POINT('Ctrl Pts',(-97.3796263469317,18.4970011558729,139.993718862614));
#1117=CARTESIAN_POINT('Ctrl Pts',(-97.4240036624681,18.5,139.998111223395));
#1118=CARTESIAN_POINT('Ctrl Pts',(-97.4687194226713,18.5,139.999510643006));
#1119=CARTESIAN_POINT('Origin',(-81.5,18.5,140.));
#1120=CARTESIAN_POINT('',(-85.,3.91404785418518,128.589081259685));
#1121=CARTESIAN_POINT('',(-85.,3.91404785418518,140.));
#1122=CARTESIAN_POINT('',(-94.9528851012784,11.8652518923623,124.199276521914));
#1123=CARTESIAN_POINT('Origin',(-81.5,18.5,120.536277995278));
#1124=CARTESIAN_POINT('',(-94.9528851012784,11.8652518923623,118.800723478086));
#1125=CARTESIAN_POINT('Ctrl Pts',(-94.9528851012784,11.8652518923623,124.199276521914));
#1126=CARTESIAN_POINT('Ctrl Pts',(-95.086290604839,12.1357503170444,124.049936213134));
#1127=CARTESIAN_POINT('Ctrl Pts',(-95.1995353186141,12.3864226860528,123.856820042678));
#1128=CARTESIAN_POINT('Ctrl Pts',(-95.3990708381614,12.8526640230406,123.371613659292));
#1129=CARTESIAN_POINT('Ctrl Pts',(-95.4872723298691,13.0794481607099,123.034393174588));
#1130=CARTESIAN_POINT('Ctrl Pts',(-95.6009218239303,13.3823665506135,122.290031588937));
#1131=CARTESIAN_POINT('Ctrl Pts',(-95.6273351068849,13.4583333333333,121.882970040177));
#1132=CARTESIAN_POINT('Ctrl Pts',(-95.6273351068849,13.4583333333333,121.5));
#1133=CARTESIAN_POINT('Ctrl Pts',(-95.6273351068849,13.4583333333333,121.117029959823));
#1134=CARTESIAN_POINT('Ctrl Pts',(-95.6009218239303,13.3823665506135,120.709968411063));
#1135=CARTESIAN_POINT('Ctrl Pts',(-95.4872723298691,13.0794481607099,119.965606825412));
#1136=CARTESIAN_POINT('Ctrl Pts',(-95.3990708381614,12.8526640230406,119.628386340708));
#1137=CARTESIAN_POINT('Ctrl Pts',(-95.199535318876,12.3864226866646,119.143179957958));
#1138=CARTESIAN_POINT('Ctrl Pts',(-95.0862906042096,12.1357503157681,118.950063786161));
#1139=CARTESIAN_POINT('Ctrl Pts',(-94.9528851012784,11.8652518923623,118.800723478086));
#1140=CARTESIAN_POINT('',(-85.,3.91404785418518,114.410918740315));
#1141=CARTESIAN_POINT('Origin',(-81.5,18.5,122.463722004722));
#1142=CARTESIAN_POINT('',(-85.,3.91404785418518,-14.4806317117469));
#1143=CARTESIAN_POINT('',(-85.,3.91404785418518,140.));
#1144=CARTESIAN_POINT('',(-94.4317417576441,10.8993385081557,-18.4615771240149));
#1145=CARTESIAN_POINT('Origin',(-81.5,18.5,-22.7932248671136));
#1146=CARTESIAN_POINT('',(-94.3944247667763,10.8362013378517,-24.5486452352493));
#1147=CARTESIAN_POINT('Ctrl Pts',(-94.4317417576441,10.8993385081557,-18.4615771240149));
#1148=CARTESIAN_POINT('Ctrl Pts',(-94.5583940954548,11.1148244007096,-18.4987633736062));
#1149=CARTESIAN_POINT('Ctrl Pts',(-94.6798381068059,11.3341363773406,-18.5606145949373));
#1150=CARTESIAN_POINT('Ctrl Pts',(-94.9952606451161,11.9370954758263,-18.8084130838215));
#1151=CARTESIAN_POINT('Ctrl Pts',(-95.1647946822497,12.3052465586992,-19.0587018725919));
#1152=CARTESIAN_POINT('Ctrl Pts',(-95.3990708381614,12.8526640230406,-19.6283863407076));
#1153=CARTESIAN_POINT('Ctrl Pts',(-95.4872723298691,13.0794481607099,-19.9656068254119));
#1154=CARTESIAN_POINT('Ctrl Pts',(-95.6009218239303,13.3823665506135,-20.7099684110628));
#1155=CARTESIAN_POINT('Ctrl Pts',(-95.6273351068849,13.4583333333333,-21.1170299598232));
#1156=CARTESIAN_POINT('Ctrl Pts',(-95.6273351068849,13.4583333333333,-21.5));
#1157=CARTESIAN_POINT('Ctrl Pts',(-95.6273351068849,13.4583333333333,-21.8937431392545));
#1158=CARTESIAN_POINT('Ctrl Pts',(-95.5994583219611,13.3780647900635,-22.311396473244));
#1159=CARTESIAN_POINT('Ctrl Pts',(-95.4796567255427,13.0595823399998,-23.0715529390732));
#1160=CARTESIAN_POINT('Ctrl Pts',(-95.386654315038,12.8215358353431,-23.4139559819739));
#1161=CARTESIAN_POINT('Ctrl Pts',(-95.1460807938998,12.2642196093019,-23.9712722080151));
#1162=CARTESIAN_POINT('Ctrl Pts',(-94.9779008068707,11.9020843256946,-24.2100312505021));
#1163=CARTESIAN_POINT('Ctrl Pts',(-94.6586350196056,11.2947877451363,-24.4529286599402));
#1164=CARTESIAN_POINT('Ctrl Pts',(-94.5290676842732,11.0627395138372,-24.5143743700693));
#1165=CARTESIAN_POINT('Ctrl Pts',(-94.3944247667763,10.8362013378517,-24.5486452352493));
#1166=CARTESIAN_POINT('',(-85.,3.91404785418518,-28.5100638311113));
#1167=CARTESIAN_POINT('Origin',(-81.5,18.5,-20.1627970152101));
#1168=CARTESIAN_POINT('',(-85.,3.91404785418518,-39.));
#1169=CARTESIAN_POINT('',(-85.,3.91404785418518,140.));
#1170=CARTESIAN_POINT('',(-96.4706744587544,17.5625,-39.));
#1171=CARTESIAN_POINT('Origin',(-81.5,18.5,-39.));
#1172=CARTESIAN_POINT('',(-96.4706744587544,17.5625,140.));
#1173=CARTESIAN_POINT('Origin',(-85.,0.,140.));
#1174=CARTESIAN_POINT('',(-85.,2.5,140.));
#1175=CARTESIAN_POINT('',(-85.,0.,140.));
#1176=CARTESIAN_POINT('',(-85.,3.5,139.));
#1177=CARTESIAN_POINT('Origin',(-85.,2.5,139.));
#1178=CARTESIAN_POINT('',(-85.,3.5,128.817674215323));
#1179=CARTESIAN_POINT('',(-85.,3.5,95.));
#1180=CARTESIAN_POINT('',(-85.,-1.95694148665512,131.830413855362));
#1181=CARTESIAN_POINT('Origin',(-100.,0.,140.));
#1182=CARTESIAN_POINT('',(-100.,18.5,140.));
#1183=CARTESIAN_POINT('',(-100.,18.5,140.));
#1184=CARTESIAN_POINT('',(-100.,0.,140.));
#1185=CARTESIAN_POINT('',(-100.,0.,140.));
#1186=CARTESIAN_POINT('',(130.,0.,140.));
#1187=CARTESIAN_POINT('',(-100.,0.,140.));
#1188=CARTESIAN_POINT('',(130.,18.5,140.));
#1189=CARTESIAN_POINT('',(130.,0.,140.));
#1190=CARTESIAN_POINT('',(127.5,18.5,140.));
#1191=CARTESIAN_POINT('',(130.,18.5,140.));
#1192=CARTESIAN_POINT('',(115.,2.88750500400401,140.));
#1193=CARTESIAN_POINT('Origin',(111.5,18.5,140.));
#1194=CARTESIAN_POINT('',(115.,2.5,140.));
#1195=CARTESIAN_POINT('',(115.,0.,140.));
#1196=CARTESIAN_POINT('',(-42.5,2.5,140.));
#1197=CARTESIAN_POINT('Origin',(-81.5,18.5,-39.));
#1198=CARTESIAN_POINT('',(-97.4687194226713,18.5,-39.9995106430058));
#1199=CARTESIAN_POINT('Ctrl Pts',(-97.4687194226713,18.5,-39.9995106430058));
#1200=CARTESIAN_POINT('Ctrl Pts',(-97.4238311784649,18.5,-39.9981058253545));
#1201=CARTESIAN_POINT('Ctrl Pts',(-97.3792857330433,18.4969779841191,-39.993684991046));
#1202=CARTESIAN_POINT('Ctrl Pts',(-97.2700953081424,18.4822863201504,-39.9754620018739));
#1203=CARTESIAN_POINT('Ctrl Pts',(-97.2073253906748,18.4672808457644,-39.9583310520902));
#1204=CARTESIAN_POINT('Ctrl Pts',(-97.0370574181975,18.4095736336347,-39.8943357393362));
#1205=CARTESIAN_POINT('Ctrl Pts',(-96.9338772383803,18.3530748016339,-39.8333457472051));
#1206=CARTESIAN_POINT('Ctrl Pts',(-96.7503418663131,18.205591487269,-39.6756481867207));
#1207=CARTESIAN_POINT('Ctrl Pts',(-96.6769014419755,18.1198968499622,-39.5846032258646));
#1208=CARTESIAN_POINT('Ctrl Pts',(-96.5305388110467,17.8856921758489,-39.336963880278));
#1209=CARTESIAN_POINT('Ctrl Pts',(-96.4815753099746,17.7258696531957,-39.1691010839543));
#1210=CARTESIAN_POINT('Ctrl Pts',(-96.4708497161065,17.5652529779779,-39.002849017558));
#1211=CARTESIAN_POINT('Ctrl Pts',(-96.4707606633637,17.5638765772203,-39.0014245078039));
#1212=CARTESIAN_POINT('Ctrl Pts',(-96.4706744587543,17.5625,-39.));
#1213=CARTESIAN_POINT('',(-85.,2.887505004004,-40.));
#1214=CARTESIAN_POINT('Ctrl Pts',(-85.,3.91404785418518,-39.));
#1215=CARTESIAN_POINT('Ctrl Pts',(-85.,3.91404785418518,-39.1223543098428));
#1216=CARTESIAN_POINT('Ctrl Pts',(-85.,3.88481716630543,-39.2662403688044));
#1217=CARTESIAN_POINT('Ctrl Pts',(-85.,3.78916893919284,-39.4933966818244));
#1218=CARTESIAN_POINT('Ctrl Pts',(-85.,3.70522392705477,-39.6164284523797));
#1219=CARTESIAN_POINT('Ctrl Pts',(-85.,3.52681210372824,-39.79189845335));
#1220=CARTESIAN_POINT('Ctrl Pts',(-85.,3.40020629911896,-39.8748263916598));
#1221=CARTESIAN_POINT('Ctrl Pts',(-85.,3.1653072486887,-39.9706401472768));
#1222=CARTESIAN_POINT('Ctrl Pts',(-85.,3.01507053788438,-40.));
#1223=CARTESIAN_POINT('Ctrl Pts',(-85.,2.887505004004,-40.));
#1224=CARTESIAN_POINT('',(-97.5,18.5,-40.));
#1225=CARTESIAN_POINT('Origin',(-81.5,18.5,-40.));
#1226=CARTESIAN_POINT('Origin',(-97.5,18.5,-39.));
#1227=CARTESIAN_POINT('Origin',(-85.,0.,140.));
#1228=CARTESIAN_POINT('',(-85.,3.5,-28.7470156515262));
#1229=CARTESIAN_POINT('',(-85.,42.2228440605468,-6.58665834247887));
#1230=CARTESIAN_POINT('',(-85.,3.5,-39.));
#1231=CARTESIAN_POINT('',(-85.,3.5,95.));
#1232=CARTESIAN_POINT('',(-85.,2.5,-40.));
#1233=CARTESIAN_POINT('Origin',(-85.,2.5,-39.));
#1234=CARTESIAN_POINT('',(-85.,0.,-40.));
#1235=CARTESIAN_POINT('Origin',(-97.4687194226713,17.5,140.));
#1236=CARTESIAN_POINT('',(-97.4687194226713,18.5,140.));
#1237=CARTESIAN_POINT('Origin',(111.5,18.5,-39.));
#1238=CARTESIAN_POINT('',(127.468719422671,18.5,-39.9995106430058));
#1239=CARTESIAN_POINT('',(127.5,18.5,-40.));
#1240=CARTESIAN_POINT('Origin',(127.5,18.5,-39.));
#1241=CARTESIAN_POINT('',(115.,2.88750500400401,-40.));
#1242=CARTESIAN_POINT('Origin',(111.5,18.5,-40.));
#1243=CARTESIAN_POINT('',(115.,3.91404785418518,-39.));
#1244=CARTESIAN_POINT('Ctrl Pts',(115.,2.88750500400401,-40.));
#1245=CARTESIAN_POINT('Ctrl Pts',(115.,3.01507053788438,-40.));
#1246=CARTESIAN_POINT('Ctrl Pts',(115.,3.1653072486887,-39.9706401472768));
#1247=CARTESIAN_POINT('Ctrl Pts',(115.,3.40020629911896,-39.8748263916598));
#1248=CARTESIAN_POINT('Ctrl Pts',(115.,3.52681210372825,-39.79189845335));
#1249=CARTESIAN_POINT('Ctrl Pts',(115.,3.70522392705477,-39.6164284523797));
#1250=CARTESIAN_POINT('Ctrl Pts',(115.,3.78916893919285,-39.4933966818244));
#1251=CARTESIAN_POINT('Ctrl Pts',(115.,3.88481716630544,-39.2662403688044));
#1252=CARTESIAN_POINT('Ctrl Pts',(115.,3.91404785418518,-39.1223543098428));
#1253=CARTESIAN_POINT('Ctrl Pts',(115.,3.91404785418518,-39.));
#1254=CARTESIAN_POINT('',(126.470674458754,17.5625,-39.));
#1255=CARTESIAN_POINT('Origin',(111.5,18.5,-39.));
#1256=CARTESIAN_POINT('Ctrl Pts',(126.470674458754,17.5625,-39.));
#1257=CARTESIAN_POINT('Ctrl Pts',(126.470760662912,17.5638765700019,-39.0014245003342));
#1258=CARTESIAN_POINT('Ctrl Pts',(126.470849715172,17.5652529635401,-39.0028490026105));
#1259=CARTESIAN_POINT('Ctrl Pts',(126.481606369461,17.7263348237641,-39.1695825754034));
#1260=CARTESIAN_POINT('Ctrl Pts',(126.530825824374,17.8866352186305,-39.3379539925034));
#1261=CARTESIAN_POINT('Ctrl Pts',(126.677778470116,18.120996470734,-39.585770336089));
#1262=CARTESIAN_POINT('Ctrl Pts',(126.751257788972,18.2065028633296,-39.6766186001877));
#1263=CARTESIAN_POINT('Ctrl Pts',(126.934801140351,18.3536409096853,-39.8339551658229));
#1264=CARTESIAN_POINT('Ctrl Pts',(127.037959567369,18.4099896436537,-39.8947883831923));
#1265=CARTESIAN_POINT('Ctrl Pts',(127.208078342114,18.4674760869433,-39.9585522966884));
#1266=CARTESIAN_POINT('Ctrl Pts',(127.270730913005,18.4824052529594,-39.9756019566959));
#1267=CARTESIAN_POINT('Ctrl Pts',(127.379626349276,18.4970011560317,-39.9937188628464));
#1268=CARTESIAN_POINT('Ctrl Pts',(127.424003663652,18.5,-39.9981112234323));
#1269=CARTESIAN_POINT('Ctrl Pts',(127.468719422671,18.5,-39.9995106430058));
#1270=CARTESIAN_POINT('Origin',(111.5,18.5,140.));
#1271=CARTESIAN_POINT('',(115.,3.91404785418518,-28.5100638311113));
#1272=CARTESIAN_POINT('',(115.,3.91404785418518,140.));
#1273=CARTESIAN_POINT('',(124.394424766776,10.8362013378517,-24.5486452352493));
#1274=CARTESIAN_POINT('Origin',(111.5,18.5,-20.1627970152101));
#1275=CARTESIAN_POINT('',(124.431741757644,10.8993385081557,-18.4615771240149));
#1276=CARTESIAN_POINT('Ctrl Pts',(124.394424766776,10.8362013378517,-24.5486452352493));
#1277=CARTESIAN_POINT('Ctrl Pts',(124.529067684273,11.0627395138372,-24.5143743700693));
#1278=CARTESIAN_POINT('Ctrl Pts',(124.658635019606,11.2947877451363,-24.4529286599403));
#1279=CARTESIAN_POINT('Ctrl Pts',(124.977900806871,11.9020843256946,-24.2100312505021));
#1280=CARTESIAN_POINT('Ctrl Pts',(125.1460807939,12.2642196093019,-23.9712722080151));
#1281=CARTESIAN_POINT('Ctrl Pts',(125.386654315038,12.8215358353431,-23.4139559819739));
#1282=CARTESIAN_POINT('Ctrl Pts',(125.479656725543,13.0595823399998,-23.0715529390732));
#1283=CARTESIAN_POINT('Ctrl Pts',(125.599458321961,13.3780647900635,-22.311396473244));
#1284=CARTESIAN_POINT('Ctrl Pts',(125.627335106885,13.4583333333333,-21.8937431392545));
#1285=CARTESIAN_POINT('Ctrl Pts',(125.627335106885,13.4583333333333,-21.5));
#1286=CARTESIAN_POINT('Ctrl Pts',(125.627335106885,13.4583333333333,-21.1170299598232));
#1287=CARTESIAN_POINT('Ctrl Pts',(125.60092182393,13.3823665506135,-20.7099684110628));
#1288=CARTESIAN_POINT('Ctrl Pts',(125.487272329869,13.0794481607099,-19.9656068254119));
#1289=CARTESIAN_POINT('Ctrl Pts',(125.399070838161,12.8526640230406,-19.6283863407076));
#1290=CARTESIAN_POINT('Ctrl Pts',(125.16479468225,12.3052465586992,-19.0587018725919));
#1291=CARTESIAN_POINT('Ctrl Pts',(124.995260645116,11.9370954758264,-18.8084130838215));
#1292=CARTESIAN_POINT('Ctrl Pts',(124.679838106806,11.3341363773406,-18.5606145949373));
#1293=CARTESIAN_POINT('Ctrl Pts',(124.558394095455,11.1148244007096,-18.4987633736062));
#1294=CARTESIAN_POINT('Ctrl Pts',(124.431741757644,10.8993385081557,-18.4615771240149));
#1295=CARTESIAN_POINT('',(115.,3.91404785418518,-14.4806317117469));
#1296=CARTESIAN_POINT('Origin',(111.5,18.5,-22.7932248671136));
#1297=CARTESIAN_POINT('',(115.,3.91404785418518,114.410918740315));
#1298=CARTESIAN_POINT('',(115.,3.91404785418518,140.));
#1299=CARTESIAN_POINT('',(124.952885101278,11.8652518923623,118.800723478086));
#1300=CARTESIAN_POINT('Origin',(111.5,18.5,122.463722004722));
#1301=CARTESIAN_POINT('',(124.952885101278,11.8652518923623,124.199276521914));
#1302=CARTESIAN_POINT('Ctrl Pts',(124.952885101278,11.8652518923623,118.800723478086));
#1303=CARTESIAN_POINT('Ctrl Pts',(125.086290604839,12.1357503170445,118.950063786866));
#1304=CARTESIAN_POINT('Ctrl Pts',(125.199535318614,12.3864226860528,119.143179957322));
#1305=CARTESIAN_POINT('Ctrl Pts',(125.399070838161,12.8526640230406,119.628386340708));
#1306=CARTESIAN_POINT('Ctrl Pts',(125.487272329869,13.0794481607099,119.965606825412));
#1307=CARTESIAN_POINT('Ctrl Pts',(125.60092182393,13.3823665506135,120.709968411063));
#1308=CARTESIAN_POINT('Ctrl Pts',(125.627335106885,13.4583333333333,121.117029959823));
#1309=CARTESIAN_POINT('Ctrl Pts',(125.627335106885,13.4583333333333,121.5));
#1310=CARTESIAN_POINT('Ctrl Pts',(125.627335106885,13.4583333333333,121.882970040177));
#1311=CARTESIAN_POINT('Ctrl Pts',(125.60092182393,13.3823665506135,122.290031588937));
#1312=CARTESIAN_POINT('Ctrl Pts',(125.487272329869,13.0794481607099,123.034393174588));
#1313=CARTESIAN_POINT('Ctrl Pts',(125.399070838161,12.8526640230406,123.371613659292));
#1314=CARTESIAN_POINT('Ctrl Pts',(125.199535318876,12.3864226866646,123.856820042042));
#1315=CARTESIAN_POINT('Ctrl Pts',(125.08629060421,12.1357503157682,124.049936213839));
#1316=CARTESIAN_POINT('Ctrl Pts',(124.952885101278,11.8652518923623,124.199276521914));
#1317=CARTESIAN_POINT('',(115.,3.91404785418518,128.589081259685));
#1318=CARTESIAN_POINT('Origin',(111.5,18.5,120.536277995278));
#1319=CARTESIAN_POINT('',(115.,3.91404785418518,139.));
#1320=CARTESIAN_POINT('',(115.,3.91404785418518,140.));
#1321=CARTESIAN_POINT('',(126.470674458754,17.5625,139.));
#1322=CARTESIAN_POINT('Origin',(111.5,18.5,139.));
#1323=CARTESIAN_POINT('',(126.470674458754,17.5625,140.));
#1324=CARTESIAN_POINT('',(121.130680142129,7.00000000000001,103.));
#1325=CARTESIAN_POINT('',(125.956832294801,14.5,103.));
#1326=CARTESIAN_POINT('Ctrl Pts',(121.130680142129,7.00000000000001,103.));
#1327=CARTESIAN_POINT('Ctrl Pts',(121.130680142129,7.00000000000001,103.241836649831));
#1328=CARTESIAN_POINT('Ctrl Pts',(121.159179019239,7.02370405142354,103.484919543767));
#1329=CARTESIAN_POINT('Ctrl Pts',(121.268100018351,7.11626906329869,103.957302439143));
#1330=CARTESIAN_POINT('Ctrl Pts',(121.34834158891,7.18507828081013,104.18665419085));
#1331=CARTESIAN_POINT('Ctrl Pts',(121.643569466636,7.44662325213573,104.835066191147));
#1332=CARTESIAN_POINT('Ctrl Pts',(121.913615569157,7.69717906048481,105.214851398362));
#1333=CARTESIAN_POINT('Ctrl Pts',(122.514947863685,8.30696420635527,105.889664493151));
#1334=CARTESIAN_POINT('Ctrl Pts',(122.903249184406,8.73576005527777,106.206675954196));
#1335=CARTESIAN_POINT('Ctrl Pts',(123.660718760974,9.69708037011004,106.637484486929));
#1336=CARTESIAN_POINT('Ctrl Pts',(124.029362220692,10.230591916436,106.75));
#1337=CARTESIAN_POINT('Ctrl Pts',(124.613378340681,11.1983857172868,106.75));
#1338=CARTESIAN_POINT('Ctrl Pts',(124.878522769518,11.6965786687747,106.664262312311));
#1339=CARTESIAN_POINT('Ctrl Pts',(125.318302017032,12.6411655476097,106.278158573977));
#1340=CARTESIAN_POINT('Ctrl Pts',(125.494147708885,13.0865731446694,105.976760981987));
#1341=CARTESIAN_POINT('Ctrl Pts',(125.733981977764,13.7559484091019,105.287317362649));
#1342=CARTESIAN_POINT('Ctrl Pts',(125.821432476427,14.0352213101805,104.873932261007));
#1343=CARTESIAN_POINT('Ctrl Pts',(125.932168269021,14.4072998454733,103.963566638253));
#1344=CARTESIAN_POINT('Ctrl Pts',(125.956832294801,14.5,103.466711242864));
#1345=CARTESIAN_POINT('Ctrl Pts',(125.956832294801,14.5,103.));
#1346=CARTESIAN_POINT('Ctrl Pts',(125.956832294801,14.5,103.));
#1347=CARTESIAN_POINT('Ctrl Pts',(125.956832294801,14.5,102.533288757136));
#1348=CARTESIAN_POINT('Ctrl Pts',(125.932168269021,14.4072998454733,102.036433361747));
#1349=CARTESIAN_POINT('Ctrl Pts',(125.821432476427,14.0352213101805,101.126067738993));
#1350=CARTESIAN_POINT('Ctrl Pts',(125.733981977764,13.7559484091019,100.712682637351));
#1351=CARTESIAN_POINT('Ctrl Pts',(125.494147708885,13.0865731446694,100.023239018013));
#1352=CARTESIAN_POINT('Ctrl Pts',(125.318302017032,12.6411655476097,99.7218414260227));
#1353=CARTESIAN_POINT('Ctrl Pts',(124.878522769518,11.6965786687747,99.3357376876885));
#1354=CARTESIAN_POINT('Ctrl Pts',(124.613378340681,11.1983857172868,99.25));
#1355=CARTESIAN_POINT('Ctrl Pts',(124.029362220692,10.230591916436,99.25));
#1356=CARTESIAN_POINT('Ctrl Pts',(123.660718760974,9.69708037011005,99.362515513071));
#1357=CARTESIAN_POINT('Ctrl Pts',(122.903249184406,8.73576005527777,99.7933240458037));
#1358=CARTESIAN_POINT('Ctrl Pts',(122.514947863685,8.30696420635527,100.110335506849));
#1359=CARTESIAN_POINT('Ctrl Pts',(121.913615569157,7.69717906048481,100.785148601638));
#1360=CARTESIAN_POINT('Ctrl Pts',(121.643569466636,7.44662325213573,101.164933808853));
#1361=CARTESIAN_POINT('Ctrl Pts',(121.34834158891,7.18507828081013,101.81334580915));
#1362=CARTESIAN_POINT('Ctrl Pts',(121.268100018351,7.11626906329869,102.042697560857));
#1363=CARTESIAN_POINT('Ctrl Pts',(121.159179019239,7.02370405142354,102.515080456233));
#1364=CARTESIAN_POINT('Ctrl Pts',(121.130680142129,7.00000000000001,102.758163350169));
#1365=CARTESIAN_POINT('Ctrl Pts',(121.130680142129,7.00000000000001,103.));
#1366=CARTESIAN_POINT('',(121.130680142129,7.,-3.00000000000001));
#1367=CARTESIAN_POINT('',(125.956832294801,14.5,-3.));
#1368=CARTESIAN_POINT('Ctrl Pts',(121.130680142129,7.,-3.00000000000001));
#1369=CARTESIAN_POINT('Ctrl Pts',(121.130680142129,7.,-2.73862695165993));
#1370=CARTESIAN_POINT('Ctrl Pts',(121.163906872746,7.02761531147268,-2.47792224786307));
#1371=CARTESIAN_POINT('Ctrl Pts',(121.288594927809,7.1338170079699,-1.97436188742594));
#1372=CARTESIAN_POINT('Ctrl Pts',(121.379842246874,7.21235914127002,-1.73144393316209));
#1373=CARTESIAN_POINT('Ctrl Pts',(121.712641881526,7.50953054674905,-1.04848452782483));
#1374=CARTESIAN_POINT('Ctrl Pts',(122.013561422042,7.79276379996453,-0.653935341136365));
#1375=CARTESIAN_POINT('Ctrl Pts',(122.62773200962,8.43090784295396,-0.0157912981469303));
#1376=CARTESIAN_POINT('Ctrl Pts',(122.993246573017,8.84385241999366,0.26732862654244));
#1377=CARTESIAN_POINT('Ctrl Pts',(123.704059309607,9.75947141540128,0.650710633060597));
#1378=CARTESIAN_POINT('Ctrl Pts',(124.048874983751,10.26292720733,0.749999999999993));
#1379=CARTESIAN_POINT('Ctrl Pts',(124.608416377835,11.1901630728805,0.749999999999993));
#1380=CARTESIAN_POINT('Ctrl Pts',(124.86943946293,11.6793190372618,0.667402529833693));
#1381=CARTESIAN_POINT('Ctrl Pts',(125.30451981022,12.6094285688476,0.294844721551456));
#1382=CARTESIAN_POINT('Ctrl Pts',(125.479689861245,13.0494476929771,0.00385316592203526));
#1383=CARTESIAN_POINT('Ctrl Pts',(125.724907490989,13.7279574125203,-0.674656553621242));
#1384=CARTESIAN_POINT('Ctrl Pts',(125.815967785162,14.0174060133539,-1.09276672043884));
#1385=CARTESIAN_POINT('Ctrl Pts',(125.931184674009,14.4034783277248,-2.01736132090701));
#1386=CARTESIAN_POINT('Ctrl Pts',(125.956832294801,14.5,-2.52370195137416));
#1387=CARTESIAN_POINT('Ctrl Pts',(125.956832294801,14.5,-3.00000000000001));
#1388=CARTESIAN_POINT('Ctrl Pts',(125.956832294801,14.5,-3.00000000000001));
#1389=CARTESIAN_POINT('Ctrl Pts',(125.956832294801,14.5,-3.4667112428643));
#1390=CARTESIAN_POINT('Ctrl Pts',(125.932168269021,14.4072998454733,-3.96356663825297));
#1391=CARTESIAN_POINT('Ctrl Pts',(125.821432476427,14.0352213101805,-4.87393226100712));
#1392=CARTESIAN_POINT('Ctrl Pts',(125.733981977764,13.7559484091019,-5.2873173626489));
#1393=CARTESIAN_POINT('Ctrl Pts',(125.494147708885,13.0865731446694,-5.97676098198699));
#1394=CARTESIAN_POINT('Ctrl Pts',(125.318302017032,12.6411655476097,-6.27815857397732));
#1395=CARTESIAN_POINT('Ctrl Pts',(124.878522769518,11.6965786687746,-6.66426231231148));
#1396=CARTESIAN_POINT('Ctrl Pts',(124.613378340681,11.1983857172868,-6.75000000000001));
#1397=CARTESIAN_POINT('Ctrl Pts',(124.029362220692,10.230591916436,-6.75000000000001));
#1398=CARTESIAN_POINT('Ctrl Pts',(123.660718760974,9.69708037011006,-6.63748448692899));
#1399=CARTESIAN_POINT('Ctrl Pts',(122.903249184406,8.73576005527778,-6.20667595419634));
#1400=CARTESIAN_POINT('Ctrl Pts',(122.514947863685,8.30696420635528,-5.88966449315144));
#1401=CARTESIAN_POINT('Ctrl Pts',(121.913615569157,7.69717906048481,-5.21485139836231));
#1402=CARTESIAN_POINT('Ctrl Pts',(121.643569466636,7.44662325213572,-4.8350661911468));
#1403=CARTESIAN_POINT('Ctrl Pts',(121.34834158891,7.18507828081013,-4.18665419085025));
#1404=CARTESIAN_POINT('Ctrl Pts',(121.268100018351,7.11626906329869,-3.95730243914286));
#1405=CARTESIAN_POINT('Ctrl Pts',(121.159179019239,7.02370405142353,-3.48491954376692));
#1406=CARTESIAN_POINT('Ctrl Pts',(121.130680142129,7.,-3.24183664983136));
#1407=CARTESIAN_POINT('Ctrl Pts',(121.130680142129,7.,-3.00000000000001));
#1408=CARTESIAN_POINT('Origin',(115.,0.,-40.));
#1409=CARTESIAN_POINT('',(115.,2.5,-40.));
#1410=CARTESIAN_POINT('',(115.,0.,-40.));
#1411=CARTESIAN_POINT('',(115.,3.5,-39.));
#1412=CARTESIAN_POINT('Origin',(115.,2.5,-39.));
#1413=CARTESIAN_POINT('',(115.,3.5,-28.7470156515262));
#1414=CARTESIAN_POINT('',(115.,3.5,5.));
#1415=CARTESIAN_POINT('',(115.,3.4242858731865,-28.7903454260879));
#1416=CARTESIAN_POINT('Origin',(130.,0.,-40.));
#1417=CARTESIAN_POINT('',(72.5,2.5,-40.));
#1418=CARTESIAN_POINT('',(130.,18.5,-40.));
#1419=CARTESIAN_POINT('',(115.,18.5,-40.));
#1420=CARTESIAN_POINT('',(130.,0.,-40.));
#1421=CARTESIAN_POINT('',(130.,0.,-40.));
#1422=CARTESIAN_POINT('',(-100.,0.,-40.));
#1423=CARTESIAN_POINT('',(115.,0.,-40.));
#1424=CARTESIAN_POINT('',(-100.,18.5,-40.));
#1425=CARTESIAN_POINT('',(-100.,0.,-40.));
#1426=CARTESIAN_POINT('',(-100.,18.5,-40.));
#1427=CARTESIAN_POINT('Origin',(111.5,18.5,139.));
#1428=CARTESIAN_POINT('',(127.468719422671,18.5,139.999510643006));
#1429=CARTESIAN_POINT('Ctrl Pts',(127.468719422671,18.5,139.999510643006));
#1430=CARTESIAN_POINT('Ctrl Pts',(127.42383117725,18.5,139.998105825316));
#1431=CARTESIAN_POINT('Ctrl Pts',(127.379285730638,18.4969779839555,139.993684990807));
#1432=CARTESIAN_POINT('Ctrl Pts',(127.27009530275,18.482286319187,139.975462000733));
#1433=CARTESIAN_POINT('Ctrl Pts',(127.207325383635,18.4672808439708,139.958331050055));
#1434=CARTESIAN_POINT('Ctrl Pts',(127.037057409233,18.4095736294961,139.894335734833));
#1435=CARTESIAN_POINT('Ctrl Pts',(126.933877229199,18.3530747960016,139.833345741142));
#1436=CARTESIAN_POINT('Ctrl Pts',(126.750341857093,18.2055914781059,139.675648176964));
#1437=CARTESIAN_POINT('Ctrl Pts',(126.676901433071,18.1198968388002,139.584603214017));
#1438=CARTESIAN_POINT('Ctrl Pts',(126.530538808114,17.8856921662068,139.336963870155));
#1439=CARTESIAN_POINT('Ctrl Pts',(126.481575309655,17.7258696484346,139.169101079026));
#1440=CARTESIAN_POINT('Ctrl Pts',(126.470849716106,17.5652529779721,139.002849017552));
#1441=CARTESIAN_POINT('Ctrl Pts',(126.470760663364,17.5638765772165,139.0014245078));
#1442=CARTESIAN_POINT('Ctrl Pts',(126.470674458754,17.5625,139.));
#1443=CARTESIAN_POINT('Ctrl Pts',(115.,3.91404785418518,139.));
#1444=CARTESIAN_POINT('Ctrl Pts',(115.,3.91404785418518,139.122354309843));
#1445=CARTESIAN_POINT('Ctrl Pts',(115.,3.88481716630543,139.266240368804));
#1446=CARTESIAN_POINT('Ctrl Pts',(115.,3.78916893919283,139.493396681824));
#1447=CARTESIAN_POINT('Ctrl Pts',(115.,3.70522392705476,139.61642845238));
#1448=CARTESIAN_POINT('Ctrl Pts',(115.,3.52681210372823,139.79189845335));
#1449=CARTESIAN_POINT('Ctrl Pts',(115.,3.40020629911895,139.87482639166));
#1450=CARTESIAN_POINT('Ctrl Pts',(115.,3.16530724868869,139.970640147277));
#1451=CARTESIAN_POINT('Ctrl Pts',(115.,3.01507053788437,140.));
#1452=CARTESIAN_POINT('Ctrl Pts',(115.,2.88750500400399,140.));
#1453=CARTESIAN_POINT('Origin',(127.5,18.5,139.));
#1454=CARTESIAN_POINT('Origin',(115.,0.,-40.));
#1455=CARTESIAN_POINT('',(115.,3.5,128.817674215323));
#1456=CARTESIAN_POINT('',(115.,36.1240820374445,110.8061442375));
#1457=CARTESIAN_POINT('',(115.,3.5,139.));
#1458=CARTESIAN_POINT('',(115.,3.5,5.));
#1459=CARTESIAN_POINT('Origin',(115.,2.5,139.));
#1460=CARTESIAN_POINT('Origin',(127.468719422671,17.5,140.));
#1461=CARTESIAN_POINT('',(127.468719422671,18.5,140.));
#1462=CARTESIAN_POINT('Origin',(-42.5,2.5,139.));
#1463=CARTESIAN_POINT('',(-42.5,3.5,139.));
#1464=CARTESIAN_POINT('Origin',(72.5,2.5,-39.));
#1465=CARTESIAN_POINT('',(72.5,3.5,-39.));
#1466=CARTESIAN_POINT('Origin',(130.,1.11022302462516E-15,130.75));
#1467=CARTESIAN_POINT('',(72.5,3.5,128.817674215323));
#1468=CARTESIAN_POINT('',(130.,11.8652518923623,124.199276521914));
#1469=CARTESIAN_POINT('Origin',(130.,10.375,121.5));
#1470=CARTESIAN_POINT('',(130.,11.8652518923623,118.800723478086));
#1471=CARTESIAN_POINT('Origin',(130.,11.8652518923623,118.800723478086));
#1472=CARTESIAN_POINT('',(115.,-26.2775731179531,97.7423336872682));
#1473=CARTESIAN_POINT('',(-85.,11.8034504061465,118.76660330513));
#1474=CARTESIAN_POINT('Origin',(-100.,0.,-40.));
#1475=CARTESIAN_POINT('',(-100.,0.,-40.));
#1476=CARTESIAN_POINT('',(-100.,18.5,-40.));
#1477=CARTESIAN_POINT('Origin',(-85.,0.,140.));
#1478=CARTESIAN_POINT('',(-85.,-32.7477752534229,6.41308964294785));
#1479=CARTESIAN_POINT('Origin',(15.,3.5,50.));
#1480=CARTESIAN_POINT('Origin',(115.,0.,-40.));
#1481=CARTESIAN_POINT('',(115.,5.96880632697856,-15.6516468807343));
#1482=CARTESIAN_POINT('Origin',(130.,10.8362013378517,-24.5486452352493));
#1483=CARTESIAN_POINT('',(72.5,3.5,-28.7470156515262));
#1484=CARTESIAN_POINT('',(130.,10.8362013378517,-24.5486452352493));
#1485=CARTESIAN_POINT('Origin',(130.,10.375,-21.5));
#1486=CARTESIAN_POINT('',(130.,10.8993385081557,-18.4615771240149));
#1487=CARTESIAN_POINT('Origin',(130.,0.,-12.25));
#1488=CARTESIAN_POINT('Origin',(15.,0.,50.));
#1489=CARTESIAN_POINT('',(130.,0.,-40.));
#1490=CARTESIAN_POINT('Origin',(15.,3.5,50.));
#1491=CARTESIAN_POINT('Origin',(115.,10.75,-3.));
#1492=CARTESIAN_POINT('',(126.5,14.5,-3.));
#1493=CARTESIAN_POINT('',(115.,14.5,-3.));
#1494=CARTESIAN_POINT('Origin',(126.5,10.75,-3.));
#1495=CARTESIAN_POINT('Origin',(126.5,10.75,-3.));
#1496=CARTESIAN_POINT('',(126.5,12.25,-3.));
#1497=CARTESIAN_POINT('Origin',(126.5,10.75,-3.));
#1498=CARTESIAN_POINT('Origin',(115.,10.75,103.));
#1499=CARTESIAN_POINT('',(126.5,14.5,103.));
#1500=CARTESIAN_POINT('',(115.,14.5,103.));
#1501=CARTESIAN_POINT('Origin',(126.5,10.75,103.));
#1502=CARTESIAN_POINT('Origin',(126.5,10.75,103.));
#1503=CARTESIAN_POINT('',(126.5,12.25,103.));
#1504=CARTESIAN_POINT('Origin',(126.5,10.75,103.));
#1505=CARTESIAN_POINT('Origin',(115.,10.75,103.));
#1506=CARTESIAN_POINT('',(130.,12.25,103.));
#1507=CARTESIAN_POINT('',(115.,12.25,103.));
#1508=CARTESIAN_POINT('Origin',(130.,10.75,103.));
#1509=CARTESIAN_POINT('Origin',(115.,10.75,-3.));
#1510=CARTESIAN_POINT('',(130.,12.25,-3.));
#1511=CARTESIAN_POINT('',(115.,12.25,-3.));
#1512=CARTESIAN_POINT('Origin',(130.,10.75,-3.));
#1513=CARTESIAN_POINT('Origin',(122.5,18.5,50.));
#1514=CARTESIAN_POINT('',(130.,18.5,-40.));
#1515=CARTESIAN_POINT('Origin',(-92.5,18.5,50.));
#1516=CARTESIAN_POINT('Origin',(130.,0.,140.));
#1517=UNCERTAINTY_MEASURE_WITH_UNIT(LENGTH_MEASURE(0.01),#1521,
'DISTANCE_ACCURACY_VALUE',
'Maximum model space distance between geometric entities at asserted c
onnectivities');
#1518=UNCERTAINTY_MEASURE_WITH_UNIT(LENGTH_MEASURE(0.01),#1521,
'DISTANCE_ACCURACY_VALUE',
'Maximum model space distance between geometric entities at asserted c
onnectivities');
#1519=(
GEOMETRIC_REPRESENTATION_CONTEXT(3)
GLOBAL_UNCERTAINTY_ASSIGNED_CONTEXT((#1517))
GLOBAL_UNIT_ASSIGNED_CONTEXT((#1521,#1523,#1524))
REPRESENTATION_CONTEXT('','3D')
);
#1520=(
GEOMETRIC_REPRESENTATION_CONTEXT(3)
GLOBAL_UNCERTAINTY_ASSIGNED_CONTEXT((#1518))
GLOBAL_UNIT_ASSIGNED_CONTEXT((#1521,#1523,#1524))
REPRESENTATION_CONTEXT('','3D')
);
#1521=(
LENGTH_UNIT()
NAMED_UNIT(*)
SI_UNIT(.MILLI.,.METRE.)
);
#1522=(
LENGTH_UNIT()
NAMED_UNIT(*)
SI_UNIT($,.METRE.)
);
#1523=(
NAMED_UNIT(*)
PLANE_ANGLE_UNIT()
SI_UNIT($,.RADIAN.)
);
#1524=(
NAMED_UNIT(*)
SI_UNIT($,.STERADIAN.)
SOLID_ANGLE_UNIT()
);
#1525=SHAPE_DEFINITION_REPRESENTATION(#1526,#1527);
#1526=PRODUCT_DEFINITION_SHAPE('',$,#1529);
#1527=SHAPE_REPRESENTATION('',(#777),#1519);
#1528=PRODUCT_DEFINITION_CONTEXT('part definition',#1533,'design');
#1529=PRODUCT_DEFINITION('support_\X\E9tag\X\E8res',
'support_\X\E9tag\X\E8res v3',#1530,#1528);
#1530=PRODUCT_DEFINITION_FORMATION('',$,#1535);
#1531=PRODUCT_RELATED_PRODUCT_CATEGORY('support_\X\E9tag\X\E8res v3',
'support_\X\E9tag\X\E8res v3',(#1535));
#1532=APPLICATION_PROTOCOL_DEFINITION('international standard',
'automotive_design',2009,#1533);
#1533=APPLICATION_CONTEXT(
'Core Data for Automotive Mechanical Design Process');
#1534=PRODUCT_CONTEXT('part definition',#1533,'mechanical');
#1535=PRODUCT('support_\X\E9tag\X\E8res','support_\X\E9tag\X\E8res v3',
$,(#1534));
#1536=PRESENTATION_STYLE_ASSIGNMENT((#1537));
#1537=SURFACE_STYLE_USAGE(.BOTH.,#1538);
#1538=SURFACE_SIDE_STYLE('',(#1539));
#1539=SURFACE_STYLE_FILL_AREA(#1540);
#1540=FILL_AREA_STYLE('Acier - Satin\X\E9',(#1541));
#1541=FILL_AREA_STYLE_COLOUR('Acier - Satin\X\E9',#1542);
#1542=COLOUR_RGB('Acier - Satin\X\E9',0.627450980392157,0.627450980392157,
0.627450980392157);
ENDSEC;
END-ISO-10303-21;
