ISO-10303-21;
HEADER;
/* Generated by software containing ST-Developer
 * from STEP Tools, Inc. (www.steptools.com) 
 */

FILE_DESCRIPTION(
/* description */ (''),
/* implementation_level */ '2;1');

FILE_NAME(
/* name */ 'support_tagres.step',
/* time_stamp */ '2025-10-09T15:37:45+02:00',
/* author */ (''),
/* organization */ (''),
/* preprocessor_version */ 'ST-DEVELOPER v20.1',
/* originating_system */ 'Autodesk Translation Framework v14.17.0.0',
/* authorisation */ '');

FILE_SCHEMA (('AUTOMOTIVE_DESIGN { 1 0 10303 214 3 1 1 }'));
ENDSEC;

DATA;
#10=MECHANICAL_DESIGN_GEOMETRIC_PRESENTATION_REPRESENTATION('',(#13),#1520);
#11=SHAPE_REPRESENTATION_RELATIONSHIP('SRR','None',#1527,#12);
#12=ADVANCED_BREP_SHAPE_REPRESENTATION('',(#14),#1519);
#13=STYLED_ITEM('',(#1536),#14);
#14=MANIFOLD_SOLID_BREP('Corps1',#764);
#15=ELLIPSE('',#791,17.,15.);
#16=ELLIPSE('',#792,17.,15.);
#17=ELLIPSE('',#793,17.1114450486225,15.);
#18=ELLIPSE('',#794,17.1274677756854,15.);
#19=ELLIPSE('',#811,17.1274677756854,15.);
#20=ELLIPSE('',#812,17.1114450486225,15.);
#21=ELLIPSE('',#813,17.,15.);
#22=ELLIPSE('',#814,17.,15.);
#23=B_SPLINE_CURVE_WITH_KNOTS('',3,(#1093,#1094,#1095,#1096,#1097,#1098,
#1099,#1100,#1101,#1102),.UNSPECIFIED.,.F.,.F.,(4,2,2,2,4),(0.149366773117111,
0.187295928234923,0.224910881619464,0.26208864321548,0.29888085024602),
 .UNSPECIFIED.);
#24=B_SPLINE_CURVE_WITH_KNOTS('',3,(#1105,#1106,#1107,#1108,#1109,#1110,
#1111,#1112,#1113,#1114,#1115,#1116,#1117,#1118),.UNSPECIFIED.,.F.,.F.,
(4,2,2,2,2,2,4),(-0.000594846164384344,0.,0.0690304633855009,0.111879345899935,
0.154533610608494,0.177473241245455,0.192881755575405),.UNSPECIFIED.);
#25=B_SPLINE_CURVE_WITH_KNOTS('',3,(#1125,#1126,#1127,#1128,#1129,#1130,
#1131,#1132,#1133,#1134,#1135,#1136,#1137,#1138,#1139),.UNSPECIFIED.,.F.,
 .F.,(4,2,2,3,2,2,4),(-0.31920215970301,-0.224020732679738,-0.112010366339869,
0.,0.112010366339869,0.224020732679737,0.319202159513418),.UNSPECIFIED.);
#26=B_SPLINE_CURVE_WITH_KNOTS('',3,(#1147,#1148,#1149,#1150,#1151,#1152,
#1153,#1154,#1155,#1156,#1157,#1158,#1159,#1160,#1161,#1162,#1163,#1164,
#1165),.UNSPECIFIED.,.F.,.F.,(4,2,2,2,3,2,2,2,4),(-0.418665468067456,-0.349757889545406,
-0.224020732679738,-0.112010366339869,0.,0.114528155595929,0.229056311191857,
0.352274385900517,0.425536604408503),.UNSPECIFIED.);
#27=B_SPLINE_CURVE_WITH_KNOTS('',3,(#1199,#1200,#1201,#1202,#1203,#1204,
#1205,#1206,#1207,#1208,#1209,#1210,#1211,#1212),.UNSPECIFIED.,.F.,.F.,
(4,2,2,2,2,2,4),(0.,0.0134730664011983,0.0334991044031984,0.0706923793293964,
0.108064386793347,0.168011930252759,0.168530019282984),.UNSPECIFIED.);
#28=B_SPLINE_CURVE_WITH_KNOTS('',3,(#1214,#1215,#1216,#1217,#1218,#1219,
#1220,#1221,#1222,#1223),.UNSPECIFIED.,.F.,.F.,(4,2,2,2,4),(0.298880850246022,
0.335673057276562,0.37285081887258,0.41046577225712,0.448394927374932),
 .UNSPECIFIED.);
#29=B_SPLINE_CURVE_WITH_KNOTS('',3,(#1244,#1245,#1246,#1247,#1248,#1249,
#1250,#1251,#1252,#1253),.UNSPECIFIED.,.F.,.F.,(4,2,2,2,4),(0.149366773117111,
0.187295928234923,0.224910881619463,0.26208864321548,0.298880850246021),
 .UNSPECIFIED.);
#30=B_SPLINE_CURVE_WITH_KNOTS('',3,(#1256,#1257,#1258,#1259,#1260,#1261,
#1262,#1263,#1264,#1265,#1266,#1267,#1268,#1269),.UNSPECIFIED.,.F.,.F.,
(4,2,2,2,2,2,4),(-0.000594846164231342,0.,0.0690304653794614,0.111879347261942,
0.154533611495885,0.177473241450208,0.192881755362695),.UNSPECIFIED.);
#31=B_SPLINE_CURVE_WITH_KNOTS('',3,(#1276,#1277,#1278,#1279,#1280,#1281,
#1282,#1283,#1284,#1285,#1286,#1287,#1288,#1289,#1290,#1291,#1292,#1293,
#1294),.UNSPECIFIED.,.F.,.F.,(4,2,2,2,3,2,2,2,4),(-0.425536604408503,-0.352274385900517,
-0.229056311191857,-0.114528155595929,0.,0.112010366339867,0.224020732679734,
0.349757889545403,0.418665468067454),.UNSPECIFIED.);
#32=B_SPLINE_CURVE_WITH_KNOTS('',3,(#1302,#1303,#1304,#1305,#1306,#1307,
#1308,#1309,#1310,#1311,#1312,#1313,#1314,#1315,#1316),.UNSPECIFIED.,.F.,
 .F.,(4,2,2,3,2,2,4),(-0.319202159703005,-0.224020732679738,-0.112010366339869,
0.,0.112010366339869,0.224020732679738,0.319202159513421),.UNSPECIFIED.);
#33=B_SPLINE_CURVE_WITH_KNOTS('',3,(#1326,#1327,#1328,#1329,#1330,#1331,
#1332,#1333,#1334,#1335,#1336,#1337,#1338,#1339,#1340,#1341,#1342,#1343,
#1344,#1345),.UNSPECIFIED.,.F.,.F.,(4,2,2,2,2,2,2,2,2,4),(0.,0.073088755437958,
0.146177510875916,0.292355021751832,0.481580995247418,0.670806968743005,
0.831041062961489,0.991275157179972,1.13104115468289,1.27080715218581),
 .UNSPECIFIED.);
#34=B_SPLINE_CURVE_WITH_KNOTS('',3,(#1346,#1347,#1348,#1349,#1350,#1351,
#1352,#1353,#1354,#1355,#1356,#1357,#1358,#1359,#1360,#1361,#1362,#1363,
#1364,#1365),.UNSPECIFIED.,.F.,.F.,(4,2,2,2,2,2,2,2,2,4),(1.27080715218581,
1.41057314968873,1.55033914719165,1.71057324141013,1.87080733562862,2.0600333091242,
2.24925928261979,2.39543679349571,2.46852554893366,2.54161430437162),
 .UNSPECIFIED.);
#35=B_SPLINE_CURVE_WITH_KNOTS('',3,(#1368,#1369,#1370,#1371,#1372,#1373,
#1374,#1375,#1376,#1377,#1378,#1379,#1380,#1381,#1382,#1383,#1384,#1385,
#1386,#1387),.UNSPECIFIED.,.F.,.F.,(4,2,2,2,2,2,2,2,2,4),(0.,0.0800956679445703,
0.160191335889141,0.320382671778281,0.496182573055319,0.671982474332358,
0.828683272675871,0.985384071019386,1.12867624778395,1.27196842454852),
 .UNSPECIFIED.);
#36=B_SPLINE_CURVE_WITH_KNOTS('',3,(#1388,#1389,#1390,#1391,#1392,#1393,
#1394,#1395,#1396,#1397,#1398,#1399,#1400,#1401,#1402,#1403,#1404,#1405,
#1406,#1407),.UNSPECIFIED.,.F.,.F.,(4,2,2,2,2,2,2,2,2,4),(1.27196842454852,
1.41173442205144,1.55150041955436,1.71173451377284,1.87196860799133,2.06119458148691,
2.2504205549825,2.39659806585841,2.46968682129637,2.54277557673433),
 .UNSPECIFIED.);
#37=B_SPLINE_CURVE_WITH_KNOTS('',3,(#1429,#1430,#1431,#1432,#1433,#1434,
#1435,#1436,#1437,#1438,#1439,#1440,#1441,#1442),.UNSPECIFIED.,.F.,.F.,
(4,2,2,2,2,2,4),(0.,0.0134730667659649,0.0334991053547362,0.0706923806664239,
0.10806438865542,0.168011930252829,0.168530019279812),.UNSPECIFIED.);
#38=B_SPLINE_CURVE_WITH_KNOTS('',3,(#1443,#1444,#1445,#1446,#1447,#1448,
#1449,#1450,#1451,#1452),.UNSPECIFIED.,.F.,.F.,(4,2,2,2,4),(0.298880850246021,
0.335673057276561,0.372850818872577,0.410465772257118,0.44839492737493),
 .UNSPECIFIED.);
#39=CYLINDRICAL_SURFACE('',#784,60.);
#40=CYLINDRICAL_SURFACE('',#790,15.);
#41=CYLINDRICAL_SURFACE('',#805,1.);
#42=CYLINDRICAL_SURFACE('',#810,15.);
#43=CYLINDRICAL_SURFACE('',#823,1.);
#44=CYLINDRICAL_SURFACE('',#824,1.);
#45=CYLINDRICAL_SURFACE('',#825,1.);
#46=CYLINDRICAL_SURFACE('',#828,3.);
#47=CYLINDRICAL_SURFACE('',#834,3.);
#48=CYLINDRICAL_SURFACE('',#837,3.75);
#49=CYLINDRICAL_SURFACE('',#841,3.75);
#50=CYLINDRICAL_SURFACE('',#845,1.49999999999999);
#51=CYLINDRICAL_SURFACE('',#847,1.5);
#52=FACE_BOUND('',#242,.T.);
#53=FACE_BOUND('',#253,.T.);
#54=FACE_BOUND('',#254,.T.);
#55=FACE_BOUND('',#272,.T.);
#56=FACE_BOUND('',#276,.T.);
#57=FACE_BOUND('',#279,.T.);
#58=FACE_BOUND('',#286,.T.);
#59=FACE_BOUND('',#287,.T.);
#60=LINE('',#1076,#119);
#61=LINE('',#1078,#120);
#62=LINE('',#1080,#121);
#63=LINE('',#1081,#122);
#64=LINE('',#1084,#123);
#65=LINE('',#1121,#124);
#66=LINE('',#1143,#125);
#67=LINE('',#1169,#126);
#68=LINE('',#1172,#127);
#69=LINE('',#1175,#128);
#70=LINE('',#1179,#129);
#71=LINE('',#1180,#130);
#72=LINE('',#1183,#131);
#73=LINE('',#1185,#132);
#74=LINE('',#1187,#133);
#75=LINE('',#1189,#134);
#76=LINE('',#1191,#135);
#77=LINE('',#1195,#136);
#78=LINE('',#1196,#137);
#79=LINE('',#1229,#138);
#80=LINE('',#1231,#139);
#81=LINE('',#1234,#140);
#82=LINE('',#1236,#141);
#83=LINE('',#1272,#142);
#84=LINE('',#1298,#143);
#85=LINE('',#1320,#144);
#86=LINE('',#1323,#145);
#87=LINE('',#1410,#146);
#88=LINE('',#1414,#147);
#89=LINE('',#1415,#148);
#90=LINE('',#1417,#149);
#91=LINE('',#1419,#150);
#92=LINE('',#1421,#151);
#93=LINE('',#1423,#152);
#94=LINE('',#1425,#153);
#95=LINE('',#1426,#154);
#96=LINE('',#1456,#155);
#97=LINE('',#1458,#156);
#98=LINE('',#1461,#157);
#99=LINE('',#1463,#158);
#100=LINE('',#1465,#159);
#101=LINE('',#1467,#160);
#102=LINE('',#1468,#161);
#103=LINE('',#1470,#162);
#104=LINE('',#1471,#163);
#105=LINE('',#1472,#164);
#106=LINE('',#1475,#165);
#107=LINE('',#1477,#166);
#108=LINE('',#1479,#167);
#109=LINE('',#1480,#168);
#110=LINE('',#1482,#169);
#111=LINE('',#1484,#170);
#112=LINE('',#1485,#171);
#113=LINE('',#1488,#172);
#114=LINE('',#1492,#173);
#115=LINE('',#1499,#174);
#116=LINE('',#1506,#175);
#117=LINE('',#1510,#176);
#118=LINE('',#1513,#177);
#119=VECTOR('',#867,10.);
#120=VECTOR('',#868,10.);
#121=VECTOR('',#869,10.);
#122=VECTOR('',#870,10.);
#123=VECTOR('',#873,60.);
#124=VECTOR('',#886,10.);
#125=VECTOR('',#891,10.);
#126=VECTOR('',#896,10.);
#127=VECTOR('',#899,10.);
#128=VECTOR('',#902,10.);
#129=VECTOR('',#905,10.);
#130=VECTOR('',#906,10.);
#131=VECTOR('',#909,10.);
#132=VECTOR('',#910,10.);
#133=VECTOR('',#911,10.);
#134=VECTOR('',#912,10.);
#135=VECTOR('',#913,10.);
#136=VECTOR('',#916,10.);
#137=VECTOR('',#917,10.);
#138=VECTOR('',#926,10.);
#139=VECTOR('',#927,10.);
#140=VECTOR('',#930,10.);
#141=VECTOR('',#933,10.);
#142=VECTOR('',#944,10.);
#143=VECTOR('',#949,10.);
#144=VECTOR('',#954,10.);
#145=VECTOR('',#957,10.);
#146=VECTOR('',#960,10.);
#147=VECTOR('',#963,10.);
#148=VECTOR('',#964,10.);
#149=VECTOR('',#967,10.);
#150=VECTOR('',#968,10.);
#151=VECTOR('',#969,10.);
#152=VECTOR('',#970,10.);
#153=VECTOR('',#971,10.);
#154=VECTOR('',#972,10.);
#155=VECTOR('',#979,10.);
#156=VECTOR('',#980,10.);
#157=VECTOR('',#985,10.);
#158=VECTOR('',#988,10.);
#159=VECTOR('',#991,10.);
#160=VECTOR('',#994,10.);
#161=VECTOR('',#995,10.);
#162=VECTOR('',#998,10.);
#163=VECTOR('',#999,10.);
#164=VECTOR('',#1000,10.);
#165=VECTOR('',#1005,10.);
#166=VECTOR('',#1008,10.);
#167=VECTOR('',#1011,10.);
#168=VECTOR('',#1012,10.);
#169=VECTOR('',#1015,10.);
#170=VECTOR('',#1018,10.);
#171=VECTOR('',#1019,10.);
#172=VECTOR('',#1024,10.);
#173=VECTOR('',#1029,3.75);
#174=VECTOR('',#1038,3.75);
#175=VECTOR('',#1047,1.49999999999999);
#176=VECTOR('',#1052,1.5);
#177=VECTOR('',#1057,10.);
#178=PLANE('',#783);
#179=PLANE('',#796);
#180=PLANE('',#798);
#181=PLANE('',#803);
#182=PLANE('',#816);
#183=PLANE('',#818);
#184=PLANE('',#821);
#185=PLANE('',#826);
#186=PLANE('',#827);
#187=PLANE('',#829);
#188=PLANE('',#830);
#189=PLANE('',#831);
#190=PLANE('',#832);
#191=PLANE('',#833);
#192=PLANE('',#835);
#193=PLANE('',#836);
#194=PLANE('',#839);
#195=PLANE('',#843);
#196=PLANE('',#849);
#197=PLANE('',#850);
#198=PLANE('',#851);
#199=PLANE('',#852);
#200=FACE_OUTER_BOUND('',#240,.T.);
#201=FACE_OUTER_BOUND('',#241,.T.);
#202=FACE_OUTER_BOUND('',#243,.T.);
#203=FACE_OUTER_BOUND('',#244,.T.);
#204=FACE_OUTER_BOUND('',#245,.T.);
#205=FACE_OUTER_BOUND('',#246,.T.);
#206=FACE_OUTER_BOUND('',#247,.T.);
#207=FACE_OUTER_BOUND('',#248,.T.);
#208=FACE_OUTER_BOUND('',#249,.T.);
#209=FACE_OUTER_BOUND('',#250,.T.);
#210=FACE_OUTER_BOUND('',#251,.T.);
#211=FACE_OUTER_BOUND('',#252,.T.);
#212=FACE_OUTER_BOUND('',#255,.T.);
#213=FACE_OUTER_BOUND('',#256,.T.);
#214=FACE_OUTER_BOUND('',#257,.T.);
#215=FACE_OUTER_BOUND('',#258,.T.);
#216=FACE_OUTER_BOUND('',#259,.T.);
#217=FACE_OUTER_BOUND('',#260,.T.);
#218=FACE_OUTER_BOUND('',#261,.T.);
#219=FACE_OUTER_BOUND('',#262,.T.);
#220=FACE_OUTER_BOUND('',#263,.T.);
#221=FACE_OUTER_BOUND('',#264,.T.);
#222=FACE_OUTER_BOUND('',#265,.T.);
#223=FACE_OUTER_BOUND('',#266,.T.);
#224=FACE_OUTER_BOUND('',#267,.T.);
#225=FACE_OUTER_BOUND('',#268,.T.);
#226=FACE_OUTER_BOUND('',#269,.T.);
#227=FACE_OUTER_BOUND('',#270,.T.);
#228=FACE_OUTER_BOUND('',#271,.T.);
#229=FACE_OUTER_BOUND('',#273,.T.);
#230=FACE_OUTER_BOUND('',#274,.T.);
#231=FACE_OUTER_BOUND('',#275,.T.);
#232=FACE_OUTER_BOUND('',#277,.T.);
#233=FACE_OUTER_BOUND('',#278,.T.);
#234=FACE_OUTER_BOUND('',#280,.T.);
#235=FACE_OUTER_BOUND('',#281,.T.);
#236=FACE_OUTER_BOUND('',#282,.T.);
#237=FACE_OUTER_BOUND('',#283,.T.);
#238=FACE_OUTER_BOUND('',#284,.T.);
#239=FACE_OUTER_BOUND('',#285,.T.);
#240=EDGE_LOOP('',(#499,#500,#501,#502,#503));
#241=EDGE_LOOP('',(#504,#505,#506,#507));
#242=EDGE_LOOP('',(#508));
#243=EDGE_LOOP('',(#509,#510,#511,#512,#513));
#244=EDGE_LOOP('',(#514,#515,#516,#517,#518));
#245=EDGE_LOOP('',(#519,#520,#521,#522,#523,#524,#525,#526,#527,#528,#529,
#530));
#246=EDGE_LOOP('',(#531,#532,#533,#534,#535,#536));
#247=EDGE_LOOP('',(#537,#538,#539,#540,#541,#542,#543,#544,#545,#546));
#248=EDGE_LOOP('',(#547,#548,#549,#550,#551));
#249=EDGE_LOOP('',(#552,#553,#554,#555,#556,#557));
#250=EDGE_LOOP('',(#558,#559,#560,#561));
#251=EDGE_LOOP('',(#562,#563,#564,#565,#566));
#252=EDGE_LOOP('',(#567,#568,#569,#570,#571,#572,#573,#574,#575,#576,#577,
#578));
#253=EDGE_LOOP('',(#579,#580));
#254=EDGE_LOOP('',(#581,#582));
#255=EDGE_LOOP('',(#583,#584,#585,#586,#587,#588));
#256=EDGE_LOOP('',(#589,#590,#591,#592,#593,#594,#595,#596,#597,#598));
#257=EDGE_LOOP('',(#599,#600,#601,#602,#603));
#258=EDGE_LOOP('',(#604,#605,#606,#607,#608,#609));
#259=EDGE_LOOP('',(#610,#611,#612,#613));
#260=EDGE_LOOP('',(#614,#615,#616,#617));
#261=EDGE_LOOP('',(#618,#619,#620,#621));
#262=EDGE_LOOP('',(#622,#623,#624,#625,#626,#627));
#263=EDGE_LOOP('',(#628,#629,#630,#631,#632,#633));
#264=EDGE_LOOP('',(#634,#635,#636,#637));
#265=EDGE_LOOP('',(#638,#639,#640,#641));
#266=EDGE_LOOP('',(#642,#643,#644,#645));
#267=EDGE_LOOP('',(#646,#647,#648,#649));
#268=EDGE_LOOP('',(#650,#651,#652,#653,#654,#655));
#269=EDGE_LOOP('',(#656,#657,#658,#659,#660,#661));
#270=EDGE_LOOP('',(#662,#663,#664,#665));
#271=EDGE_LOOP('',(#666,#667,#668,#669));
#272=EDGE_LOOP('',(#670));
#273=EDGE_LOOP('',(#671,#672,#673,#674));
#274=EDGE_LOOP('',(#675,#676,#677,#678,#679));
#275=EDGE_LOOP('',(#680));
#276=EDGE_LOOP('',(#681));
#277=EDGE_LOOP('',(#682,#683,#684,#685,#686));
#278=EDGE_LOOP('',(#687));
#279=EDGE_LOOP('',(#688));
#280=EDGE_LOOP('',(#689,#690,#691,#692));
#281=EDGE_LOOP('',(#693,#694,#695,#696));
#282=EDGE_LOOP('',(#697,#698,#699,#700,#701,#702));
#283=EDGE_LOOP('',(#703,#704,#705,#706));
#284=EDGE_LOOP('',(#707,#708,#709,#710,#711,#712));
#285=EDGE_LOOP('',(#713,#714,#715,#716));
#286=EDGE_LOOP('',(#717));
#287=EDGE_LOOP('',(#718));
#288=CIRCLE('',#779,61.);
#289=CIRCLE('',#780,1.);
#290=CIRCLE('',#781,60.);
#291=CIRCLE('',#782,60.);
#292=CIRCLE('',#785,60.);
#293=CIRCLE('',#787,1.);
#294=CIRCLE('',#788,16.);
#295=CIRCLE('',#789,15.);
#296=CIRCLE('',#795,15.);
#297=CIRCLE('',#797,1.);
#298=CIRCLE('',#799,16.);
#299=CIRCLE('',#801,16.);
#300=CIRCLE('',#802,1.);
#301=CIRCLE('',#804,1.);
#302=CIRCLE('',#807,1.);
#303=CIRCLE('',#808,16.);
#304=CIRCLE('',#809,15.);
#305=CIRCLE('',#815,15.);
#306=CIRCLE('',#817,1.);
#307=CIRCLE('',#820,1.);
#308=CIRCLE('',#822,1.);
#309=CIRCLE('',#838,3.75);
#310=CIRCLE('',#840,1.5);
#311=CIRCLE('',#842,3.75);
#312=CIRCLE('',#844,1.49999999999999);
#313=CIRCLE('',#846,1.49999999999999);
#314=CIRCLE('',#848,1.5);
#315=VERTEX_POINT('',#1066);
#316=VERTEX_POINT('',#1068);
#317=VERTEX_POINT('',#1070);
#318=VERTEX_POINT('',#1074);
#319=VERTEX_POINT('',#1075);
#320=VERTEX_POINT('',#1077);
#321=VERTEX_POINT('',#1079);
#322=VERTEX_POINT('',#1083);
#323=VERTEX_POINT('',#1087);
#324=VERTEX_POINT('',#1088);
#325=VERTEX_POINT('',#1090);
#326=VERTEX_POINT('',#1092);
#327=VERTEX_POINT('',#1103);
#328=VERTEX_POINT('',#1120);
#329=VERTEX_POINT('',#1122);
#330=VERTEX_POINT('',#1124);
#331=VERTEX_POINT('',#1140);
#332=VERTEX_POINT('',#1142);
#333=VERTEX_POINT('',#1144);
#334=VERTEX_POINT('',#1146);
#335=VERTEX_POINT('',#1166);
#336=VERTEX_POINT('',#1168);
#337=VERTEX_POINT('',#1170);
#338=VERTEX_POINT('',#1174);
#339=VERTEX_POINT('',#1176);
#340=VERTEX_POINT('',#1178);
#341=VERTEX_POINT('',#1182);
#342=VERTEX_POINT('',#1184);
#343=VERTEX_POINT('',#1186);
#344=VERTEX_POINT('',#1188);
#345=VERTEX_POINT('',#1190);
#346=VERTEX_POINT('',#1192);
#347=VERTEX_POINT('',#1194);
#348=VERTEX_POINT('',#1198);
#349=VERTEX_POINT('',#1213);
#350=VERTEX_POINT('',#1224);
#351=VERTEX_POINT('',#1228);
#352=VERTEX_POINT('',#1230);
#353=VERTEX_POINT('',#1232);
#354=VERTEX_POINT('',#1238);
#355=VERTEX_POINT('',#1239);
#356=VERTEX_POINT('',#1241);
#357=VERTEX_POINT('',#1243);
#358=VERTEX_POINT('',#1254);
#359=VERTEX_POINT('',#1271);
#360=VERTEX_POINT('',#1273);
#361=VERTEX_POINT('',#1275);
#362=VERTEX_POINT('',#1295);
#363=VERTEX_POINT('',#1297);
#364=VERTEX_POINT('',#1299);
#365=VERTEX_POINT('',#1301);
#366=VERTEX_POINT('',#1317);
#367=VERTEX_POINT('',#1319);
#368=VERTEX_POINT('',#1321);
#369=VERTEX_POINT('',#1324);
#370=VERTEX_POINT('',#1325);
#371=VERTEX_POINT('',#1366);
#372=VERTEX_POINT('',#1367);
#373=VERTEX_POINT('',#1409);
#374=VERTEX_POINT('',#1411);
#375=VERTEX_POINT('',#1413);
#376=VERTEX_POINT('',#1418);
#377=VERTEX_POINT('',#1420);
#378=VERTEX_POINT('',#1422);
#379=VERTEX_POINT('',#1424);
#380=VERTEX_POINT('',#1428);
#381=VERTEX_POINT('',#1455);
#382=VERTEX_POINT('',#1457);
#383=VERTEX_POINT('',#1491);
#384=VERTEX_POINT('',#1495);
#385=VERTEX_POINT('',#1498);
#386=VERTEX_POINT('',#1502);
#387=VERTEX_POINT('',#1505);
#388=VERTEX_POINT('',#1509);
#389=EDGE_CURVE('',#315,#315,#288,.T.);
#390=EDGE_CURVE('',#315,#316,#289,.T.);
#391=EDGE_CURVE('',#316,#317,#290,.T.);
#392=EDGE_CURVE('',#317,#316,#291,.T.);
#393=EDGE_CURVE('',#318,#319,#60,.T.);
#394=EDGE_CURVE('',#319,#320,#61,.T.);
#395=EDGE_CURVE('',#320,#321,#62,.T.);
#396=EDGE_CURVE('',#321,#318,#63,.T.);
#397=EDGE_CURVE('',#317,#322,#64,.T.);
#398=EDGE_CURVE('',#322,#322,#292,.T.);
#399=EDGE_CURVE('',#323,#324,#293,.T.);
#400=EDGE_CURVE('',#324,#325,#294,.T.);
#401=EDGE_CURVE('',#325,#326,#23,.T.);
#402=EDGE_CURVE('',#326,#327,#295,.T.);
#403=EDGE_CURVE('',#327,#323,#24,.T.);
#404=EDGE_CURVE('',#328,#326,#65,.T.);
#405=EDGE_CURVE('',#328,#329,#15,.T.);
#406=EDGE_CURVE('',#329,#330,#25,.T.);
#407=EDGE_CURVE('',#330,#331,#16,.T.);
#408=EDGE_CURVE('',#332,#331,#66,.T.);
#409=EDGE_CURVE('',#332,#333,#17,.T.);
#410=EDGE_CURVE('',#333,#334,#26,.T.);
#411=EDGE_CURVE('',#334,#335,#18,.T.);
#412=EDGE_CURVE('',#336,#335,#67,.T.);
#413=EDGE_CURVE('',#337,#336,#296,.T.);
#414=EDGE_CURVE('',#327,#337,#68,.T.);
#415=EDGE_CURVE('',#338,#325,#69,.T.);
#416=EDGE_CURVE('',#339,#338,#297,.F.);
#417=EDGE_CURVE('',#340,#339,#70,.T.);
#418=EDGE_CURVE('',#340,#328,#71,.T.);
#419=EDGE_CURVE('',#341,#324,#72,.T.);
#420=EDGE_CURVE('',#342,#341,#73,.T.);
#421=EDGE_CURVE('',#342,#343,#74,.T.);
#422=EDGE_CURVE('',#343,#344,#75,.T.);
#423=EDGE_CURVE('',#345,#344,#76,.T.);
#424=EDGE_CURVE('',#346,#345,#298,.T.);
#425=EDGE_CURVE('',#347,#346,#77,.T.);
#426=EDGE_CURVE('',#338,#347,#78,.T.);
#427=EDGE_CURVE('',#348,#337,#27,.T.);
#428=EDGE_CURVE('',#336,#349,#28,.T.);
#429=EDGE_CURVE('',#349,#350,#299,.T.);
#430=EDGE_CURVE('',#350,#348,#300,.T.);
#431=EDGE_CURVE('',#335,#351,#79,.T.);
#432=EDGE_CURVE('',#352,#351,#80,.T.);
#433=EDGE_CURVE('',#353,#352,#301,.F.);
#434=EDGE_CURVE('',#353,#349,#81,.T.);
#435=EDGE_CURVE('',#348,#323,#82,.T.);
#436=EDGE_CURVE('',#354,#355,#302,.T.);
#437=EDGE_CURVE('',#355,#356,#303,.T.);
#438=EDGE_CURVE('',#356,#357,#29,.T.);
#439=EDGE_CURVE('',#357,#358,#304,.T.);
#440=EDGE_CURVE('',#358,#354,#30,.T.);
#441=EDGE_CURVE('',#359,#357,#83,.T.);
#442=EDGE_CURVE('',#359,#360,#19,.T.);
#443=EDGE_CURVE('',#360,#361,#31,.T.);
#444=EDGE_CURVE('',#361,#362,#20,.T.);
#445=EDGE_CURVE('',#363,#362,#84,.T.);
#446=EDGE_CURVE('',#363,#364,#21,.T.);
#447=EDGE_CURVE('',#364,#365,#32,.T.);
#448=EDGE_CURVE('',#365,#366,#22,.T.);
#449=EDGE_CURVE('',#367,#366,#85,.T.);
#450=EDGE_CURVE('',#368,#367,#305,.T.);
#451=EDGE_CURVE('',#358,#368,#86,.T.);
#452=EDGE_CURVE('',#369,#370,#33,.T.);
#453=EDGE_CURVE('',#370,#369,#34,.T.);
#454=EDGE_CURVE('',#371,#372,#35,.T.);
#455=EDGE_CURVE('',#372,#371,#36,.T.);
#456=EDGE_CURVE('',#373,#356,#87,.T.);
#457=EDGE_CURVE('',#374,#373,#306,.F.);
#458=EDGE_CURVE('',#375,#374,#88,.T.);
#459=EDGE_CURVE('',#375,#359,#89,.T.);
#460=EDGE_CURVE('',#373,#353,#90,.T.);
#461=EDGE_CURVE('',#376,#355,#91,.T.);
#462=EDGE_CURVE('',#377,#376,#92,.T.);
#463=EDGE_CURVE('',#378,#377,#93,.T.);
#464=EDGE_CURVE('',#378,#379,#94,.T.);
#465=EDGE_CURVE('',#350,#379,#95,.T.);
#466=EDGE_CURVE('',#380,#368,#37,.T.);
#467=EDGE_CURVE('',#367,#346,#38,.T.);
#468=EDGE_CURVE('',#345,#380,#307,.T.);
#469=EDGE_CURVE('',#366,#381,#96,.T.);
#470=EDGE_CURVE('',#382,#381,#97,.T.);
#471=EDGE_CURVE('',#347,#382,#308,.F.);
#472=EDGE_CURVE('',#380,#354,#98,.T.);
#473=EDGE_CURVE('',#382,#339,#99,.T.);
#474=EDGE_CURVE('',#352,#374,#100,.T.);
#475=EDGE_CURVE('',#381,#340,#101,.T.);
#476=EDGE_CURVE('',#365,#329,#102,.T.);
#477=EDGE_CURVE('',#364,#330,#103,.T.);
#478=EDGE_CURVE('',#319,#363,#104,.T.);
#479=EDGE_CURVE('',#331,#318,#105,.T.);
#480=EDGE_CURVE('',#321,#332,#106,.T.);
#481=EDGE_CURVE('',#362,#320,#107,.T.);
#482=EDGE_CURVE('',#378,#342,#108,.T.);
#483=EDGE_CURVE('',#379,#341,#109,.T.);
#484=EDGE_CURVE('',#361,#333,#110,.T.);
#485=EDGE_CURVE('',#360,#334,#111,.T.);
#486=EDGE_CURVE('',#351,#375,#112,.T.);
#487=EDGE_CURVE('',#377,#343,#113,.T.);
#488=EDGE_CURVE('',#372,#383,#114,.T.);
#489=EDGE_CURVE('',#383,#383,#309,.T.);
#490=EDGE_CURVE('',#384,#384,#310,.T.);
#491=EDGE_CURVE('',#370,#385,#115,.T.);
#492=EDGE_CURVE('',#385,#385,#311,.T.);
#493=EDGE_CURVE('',#386,#386,#312,.T.);
#494=EDGE_CURVE('',#386,#387,#116,.T.);
#495=EDGE_CURVE('',#387,#387,#313,.T.);
#496=EDGE_CURVE('',#384,#388,#117,.T.);
#497=EDGE_CURVE('',#388,#388,#314,.T.);
#498=EDGE_CURVE('',#344,#376,#118,.T.);
#499=ORIENTED_EDGE('',*,*,#389,.T.);
#500=ORIENTED_EDGE('',*,*,#390,.T.);
#501=ORIENTED_EDGE('',*,*,#391,.T.);
#502=ORIENTED_EDGE('',*,*,#392,.T.);
#503=ORIENTED_EDGE('',*,*,#390,.F.);
#504=ORIENTED_EDGE('',*,*,#393,.T.);
#505=ORIENTED_EDGE('',*,*,#394,.T.);
#506=ORIENTED_EDGE('',*,*,#395,.T.);
#507=ORIENTED_EDGE('',*,*,#396,.T.);
#508=ORIENTED_EDGE('',*,*,#389,.F.);
#509=ORIENTED_EDGE('',*,*,#392,.F.);
#510=ORIENTED_EDGE('',*,*,#397,.T.);
#511=ORIENTED_EDGE('',*,*,#398,.T.);
#512=ORIENTED_EDGE('',*,*,#397,.F.);
#513=ORIENTED_EDGE('',*,*,#391,.F.);
#514=ORIENTED_EDGE('',*,*,#399,.T.);
#515=ORIENTED_EDGE('',*,*,#400,.T.);
#516=ORIENTED_EDGE('',*,*,#401,.T.);
#517=ORIENTED_EDGE('',*,*,#402,.T.);
#518=ORIENTED_EDGE('',*,*,#403,.T.);
#519=ORIENTED_EDGE('',*,*,#402,.F.);
#520=ORIENTED_EDGE('',*,*,#404,.F.);
#521=ORIENTED_EDGE('',*,*,#405,.T.);
#522=ORIENTED_EDGE('',*,*,#406,.T.);
#523=ORIENTED_EDGE('',*,*,#407,.T.);
#524=ORIENTED_EDGE('',*,*,#408,.F.);
#525=ORIENTED_EDGE('',*,*,#409,.T.);
#526=ORIENTED_EDGE('',*,*,#410,.T.);
#527=ORIENTED_EDGE('',*,*,#411,.T.);
#528=ORIENTED_EDGE('',*,*,#412,.F.);
#529=ORIENTED_EDGE('',*,*,#413,.F.);
#530=ORIENTED_EDGE('',*,*,#414,.F.);
#531=ORIENTED_EDGE('',*,*,#401,.F.);
#532=ORIENTED_EDGE('',*,*,#415,.F.);
#533=ORIENTED_EDGE('',*,*,#416,.F.);
#534=ORIENTED_EDGE('',*,*,#417,.F.);
#535=ORIENTED_EDGE('',*,*,#418,.T.);
#536=ORIENTED_EDGE('',*,*,#404,.T.);
#537=ORIENTED_EDGE('',*,*,#400,.F.);
#538=ORIENTED_EDGE('',*,*,#419,.F.);
#539=ORIENTED_EDGE('',*,*,#420,.F.);
#540=ORIENTED_EDGE('',*,*,#421,.T.);
#541=ORIENTED_EDGE('',*,*,#422,.T.);
#542=ORIENTED_EDGE('',*,*,#423,.F.);
#543=ORIENTED_EDGE('',*,*,#424,.F.);
#544=ORIENTED_EDGE('',*,*,#425,.F.);
#545=ORIENTED_EDGE('',*,*,#426,.F.);
#546=ORIENTED_EDGE('',*,*,#415,.T.);
#547=ORIENTED_EDGE('',*,*,#427,.T.);
#548=ORIENTED_EDGE('',*,*,#413,.T.);
#549=ORIENTED_EDGE('',*,*,#428,.T.);
#550=ORIENTED_EDGE('',*,*,#429,.T.);
#551=ORIENTED_EDGE('',*,*,#430,.T.);
#552=ORIENTED_EDGE('',*,*,#428,.F.);
#553=ORIENTED_EDGE('',*,*,#412,.T.);
#554=ORIENTED_EDGE('',*,*,#431,.T.);
#555=ORIENTED_EDGE('',*,*,#432,.F.);
#556=ORIENTED_EDGE('',*,*,#433,.F.);
#557=ORIENTED_EDGE('',*,*,#434,.T.);
#558=ORIENTED_EDGE('',*,*,#403,.F.);
#559=ORIENTED_EDGE('',*,*,#414,.T.);
#560=ORIENTED_EDGE('',*,*,#427,.F.);
#561=ORIENTED_EDGE('',*,*,#435,.T.);
#562=ORIENTED_EDGE('',*,*,#436,.T.);
#563=ORIENTED_EDGE('',*,*,#437,.T.);
#564=ORIENTED_EDGE('',*,*,#438,.T.);
#565=ORIENTED_EDGE('',*,*,#439,.T.);
#566=ORIENTED_EDGE('',*,*,#440,.T.);
#567=ORIENTED_EDGE('',*,*,#439,.F.);
#568=ORIENTED_EDGE('',*,*,#441,.F.);
#569=ORIENTED_EDGE('',*,*,#442,.T.);
#570=ORIENTED_EDGE('',*,*,#443,.T.);
#571=ORIENTED_EDGE('',*,*,#444,.T.);
#572=ORIENTED_EDGE('',*,*,#445,.F.);
#573=ORIENTED_EDGE('',*,*,#446,.T.);
#574=ORIENTED_EDGE('',*,*,#447,.T.);
#575=ORIENTED_EDGE('',*,*,#448,.T.);
#576=ORIENTED_EDGE('',*,*,#449,.F.);
#577=ORIENTED_EDGE('',*,*,#450,.F.);
#578=ORIENTED_EDGE('',*,*,#451,.F.);
#579=ORIENTED_EDGE('',*,*,#452,.F.);
#580=ORIENTED_EDGE('',*,*,#453,.F.);
#581=ORIENTED_EDGE('',*,*,#454,.F.);
#582=ORIENTED_EDGE('',*,*,#455,.F.);
#583=ORIENTED_EDGE('',*,*,#438,.F.);
#584=ORIENTED_EDGE('',*,*,#456,.F.);
#585=ORIENTED_EDGE('',*,*,#457,.F.);
#586=ORIENTED_EDGE('',*,*,#458,.F.);
#587=ORIENTED_EDGE('',*,*,#459,.T.);
#588=ORIENTED_EDGE('',*,*,#441,.T.);
#589=ORIENTED_EDGE('',*,*,#429,.F.);
#590=ORIENTED_EDGE('',*,*,#434,.F.);
#591=ORIENTED_EDGE('',*,*,#460,.F.);
#592=ORIENTED_EDGE('',*,*,#456,.T.);
#593=ORIENTED_EDGE('',*,*,#437,.F.);
#594=ORIENTED_EDGE('',*,*,#461,.F.);
#595=ORIENTED_EDGE('',*,*,#462,.F.);
#596=ORIENTED_EDGE('',*,*,#463,.F.);
#597=ORIENTED_EDGE('',*,*,#464,.T.);
#598=ORIENTED_EDGE('',*,*,#465,.F.);
#599=ORIENTED_EDGE('',*,*,#466,.T.);
#600=ORIENTED_EDGE('',*,*,#450,.T.);
#601=ORIENTED_EDGE('',*,*,#467,.T.);
#602=ORIENTED_EDGE('',*,*,#424,.T.);
#603=ORIENTED_EDGE('',*,*,#468,.T.);
#604=ORIENTED_EDGE('',*,*,#467,.F.);
#605=ORIENTED_EDGE('',*,*,#449,.T.);
#606=ORIENTED_EDGE('',*,*,#469,.T.);
#607=ORIENTED_EDGE('',*,*,#470,.F.);
#608=ORIENTED_EDGE('',*,*,#471,.F.);
#609=ORIENTED_EDGE('',*,*,#425,.T.);
#610=ORIENTED_EDGE('',*,*,#440,.F.);
#611=ORIENTED_EDGE('',*,*,#451,.T.);
#612=ORIENTED_EDGE('',*,*,#466,.F.);
#613=ORIENTED_EDGE('',*,*,#472,.T.);
#614=ORIENTED_EDGE('',*,*,#416,.T.);
#615=ORIENTED_EDGE('',*,*,#426,.T.);
#616=ORIENTED_EDGE('',*,*,#471,.T.);
#617=ORIENTED_EDGE('',*,*,#473,.T.);
#618=ORIENTED_EDGE('',*,*,#457,.T.);
#619=ORIENTED_EDGE('',*,*,#460,.T.);
#620=ORIENTED_EDGE('',*,*,#433,.T.);
#621=ORIENTED_EDGE('',*,*,#474,.T.);
#622=ORIENTED_EDGE('',*,*,#405,.F.);
#623=ORIENTED_EDGE('',*,*,#418,.F.);
#624=ORIENTED_EDGE('',*,*,#475,.F.);
#625=ORIENTED_EDGE('',*,*,#469,.F.);
#626=ORIENTED_EDGE('',*,*,#448,.F.);
#627=ORIENTED_EDGE('',*,*,#476,.T.);
#628=ORIENTED_EDGE('',*,*,#407,.F.);
#629=ORIENTED_EDGE('',*,*,#477,.F.);
#630=ORIENTED_EDGE('',*,*,#446,.F.);
#631=ORIENTED_EDGE('',*,*,#478,.F.);
#632=ORIENTED_EDGE('',*,*,#393,.F.);
#633=ORIENTED_EDGE('',*,*,#479,.F.);
#634=ORIENTED_EDGE('',*,*,#406,.F.);
#635=ORIENTED_EDGE('',*,*,#476,.F.);
#636=ORIENTED_EDGE('',*,*,#447,.F.);
#637=ORIENTED_EDGE('',*,*,#477,.T.);
#638=ORIENTED_EDGE('',*,*,#479,.T.);
#639=ORIENTED_EDGE('',*,*,#396,.F.);
#640=ORIENTED_EDGE('',*,*,#480,.T.);
#641=ORIENTED_EDGE('',*,*,#408,.T.);
#642=ORIENTED_EDGE('',*,*,#478,.T.);
#643=ORIENTED_EDGE('',*,*,#445,.T.);
#644=ORIENTED_EDGE('',*,*,#481,.T.);
#645=ORIENTED_EDGE('',*,*,#394,.F.);
#646=ORIENTED_EDGE('',*,*,#482,.T.);
#647=ORIENTED_EDGE('',*,*,#420,.T.);
#648=ORIENTED_EDGE('',*,*,#483,.F.);
#649=ORIENTED_EDGE('',*,*,#464,.F.);
#650=ORIENTED_EDGE('',*,*,#409,.F.);
#651=ORIENTED_EDGE('',*,*,#480,.F.);
#652=ORIENTED_EDGE('',*,*,#395,.F.);
#653=ORIENTED_EDGE('',*,*,#481,.F.);
#654=ORIENTED_EDGE('',*,*,#444,.F.);
#655=ORIENTED_EDGE('',*,*,#484,.T.);
#656=ORIENTED_EDGE('',*,*,#411,.F.);
#657=ORIENTED_EDGE('',*,*,#485,.F.);
#658=ORIENTED_EDGE('',*,*,#442,.F.);
#659=ORIENTED_EDGE('',*,*,#459,.F.);
#660=ORIENTED_EDGE('',*,*,#486,.F.);
#661=ORIENTED_EDGE('',*,*,#431,.F.);
#662=ORIENTED_EDGE('',*,*,#410,.F.);
#663=ORIENTED_EDGE('',*,*,#484,.F.);
#664=ORIENTED_EDGE('',*,*,#443,.F.);
#665=ORIENTED_EDGE('',*,*,#485,.T.);
#666=ORIENTED_EDGE('',*,*,#482,.F.);
#667=ORIENTED_EDGE('',*,*,#463,.T.);
#668=ORIENTED_EDGE('',*,*,#487,.T.);
#669=ORIENTED_EDGE('',*,*,#421,.F.);
#670=ORIENTED_EDGE('',*,*,#398,.F.);
#671=ORIENTED_EDGE('',*,*,#474,.F.);
#672=ORIENTED_EDGE('',*,*,#432,.T.);
#673=ORIENTED_EDGE('',*,*,#486,.T.);
#674=ORIENTED_EDGE('',*,*,#458,.T.);
#675=ORIENTED_EDGE('',*,*,#454,.T.);
#676=ORIENTED_EDGE('',*,*,#488,.T.);
#677=ORIENTED_EDGE('',*,*,#489,.T.);
#678=ORIENTED_EDGE('',*,*,#488,.F.);
#679=ORIENTED_EDGE('',*,*,#455,.T.);
#680=ORIENTED_EDGE('',*,*,#489,.F.);
#681=ORIENTED_EDGE('',*,*,#490,.F.);
#682=ORIENTED_EDGE('',*,*,#452,.T.);
#683=ORIENTED_EDGE('',*,*,#491,.T.);
#684=ORIENTED_EDGE('',*,*,#492,.T.);
#685=ORIENTED_EDGE('',*,*,#491,.F.);
#686=ORIENTED_EDGE('',*,*,#453,.T.);
#687=ORIENTED_EDGE('',*,*,#492,.F.);
#688=ORIENTED_EDGE('',*,*,#493,.F.);
#689=ORIENTED_EDGE('',*,*,#493,.T.);
#690=ORIENTED_EDGE('',*,*,#494,.T.);
#691=ORIENTED_EDGE('',*,*,#495,.F.);
#692=ORIENTED_EDGE('',*,*,#494,.F.);
#693=ORIENTED_EDGE('',*,*,#490,.T.);
#694=ORIENTED_EDGE('',*,*,#496,.T.);
#695=ORIENTED_EDGE('',*,*,#497,.F.);
#696=ORIENTED_EDGE('',*,*,#496,.F.);
#697=ORIENTED_EDGE('',*,*,#436,.F.);
#698=ORIENTED_EDGE('',*,*,#472,.F.);
#699=ORIENTED_EDGE('',*,*,#468,.F.);
#700=ORIENTED_EDGE('',*,*,#423,.T.);
#701=ORIENTED_EDGE('',*,*,#498,.T.);
#702=ORIENTED_EDGE('',*,*,#461,.T.);
#703=ORIENTED_EDGE('',*,*,#473,.F.);
#704=ORIENTED_EDGE('',*,*,#470,.T.);
#705=ORIENTED_EDGE('',*,*,#475,.T.);
#706=ORIENTED_EDGE('',*,*,#417,.T.);
#707=ORIENTED_EDGE('',*,*,#399,.F.);
#708=ORIENTED_EDGE('',*,*,#435,.F.);
#709=ORIENTED_EDGE('',*,*,#430,.F.);
#710=ORIENTED_EDGE('',*,*,#465,.T.);
#711=ORIENTED_EDGE('',*,*,#483,.T.);
#712=ORIENTED_EDGE('',*,*,#419,.T.);
#713=ORIENTED_EDGE('',*,*,#487,.F.);
#714=ORIENTED_EDGE('',*,*,#462,.T.);
#715=ORIENTED_EDGE('',*,*,#498,.F.);
#716=ORIENTED_EDGE('',*,*,#422,.F.);
#717=ORIENTED_EDGE('',*,*,#495,.T.);
#718=ORIENTED_EDGE('',*,*,#497,.T.);
#719=TOROIDAL_SURFACE('',#778,61.,1.);
#720=TOROIDAL_SURFACE('',#786,16.,1.);
#721=TOROIDAL_SURFACE('',#800,16.,1.);
#722=TOROIDAL_SURFACE('',#806,16.,1.);
#723=TOROIDAL_SURFACE('',#819,16.,1.);
#724=ADVANCED_FACE('',(#200),#719,.T.);
#725=ADVANCED_FACE('',(#201,#52),#178,.T.);
#726=ADVANCED_FACE('',(#202),#39,.F.);
#727=ADVANCED_FACE('',(#203),#720,.T.);
#728=ADVANCED_FACE('',(#204),#40,.F.);
#729=ADVANCED_FACE('',(#205),#179,.T.);
#730=ADVANCED_FACE('',(#206),#180,.T.);
#731=ADVANCED_FACE('',(#207),#721,.T.);
#732=ADVANCED_FACE('',(#208),#181,.T.);
#733=ADVANCED_FACE('',(#209),#41,.T.);
#734=ADVANCED_FACE('',(#210),#722,.T.);
#735=ADVANCED_FACE('',(#211,#53,#54),#42,.F.);
#736=ADVANCED_FACE('',(#212),#182,.T.);
#737=ADVANCED_FACE('',(#213),#183,.T.);
#738=ADVANCED_FACE('',(#214),#723,.T.);
#739=ADVANCED_FACE('',(#215),#184,.T.);
#740=ADVANCED_FACE('',(#216),#43,.T.);
#741=ADVANCED_FACE('',(#217),#44,.T.);
#742=ADVANCED_FACE('',(#218),#45,.T.);
#743=ADVANCED_FACE('',(#219),#185,.T.);
#744=ADVANCED_FACE('',(#220),#186,.T.);
#745=ADVANCED_FACE('',(#221),#46,.T.);
#746=ADVANCED_FACE('',(#222),#187,.T.);
#747=ADVANCED_FACE('',(#223),#188,.T.);
#748=ADVANCED_FACE('',(#224),#189,.T.);
#749=ADVANCED_FACE('',(#225),#190,.T.);
#750=ADVANCED_FACE('',(#226),#191,.T.);
#751=ADVANCED_FACE('',(#227),#47,.T.);
#752=ADVANCED_FACE('',(#228,#55),#192,.F.);
#753=ADVANCED_FACE('',(#229),#193,.T.);
#754=ADVANCED_FACE('',(#230),#48,.F.);
#755=ADVANCED_FACE('',(#231,#56),#194,.T.);
#756=ADVANCED_FACE('',(#232),#49,.F.);
#757=ADVANCED_FACE('',(#233,#57),#195,.T.);
#758=ADVANCED_FACE('',(#234),#50,.F.);
#759=ADVANCED_FACE('',(#235),#51,.F.);
#760=ADVANCED_FACE('',(#236),#196,.T.);
#761=ADVANCED_FACE('',(#237),#197,.T.);
#762=ADVANCED_FACE('',(#238),#198,.T.);
#763=ADVANCED_FACE('',(#239,#58,#59),#199,.T.);
#764=CLOSED_SHELL('',(#724,#725,#726,#727,#728,#729,#730,#731,#732,#733,
#734,#735,#736,#737,#738,#739,#740,#741,#742,#743,#744,#745,#746,#747,#748,
#749,#750,#751,#752,#753,#754,#755,#756,#757,#758,#759,#760,#761,#762,#763));
#765=DERIVED_UNIT_ELEMENT(#767,1.);
#766=DERIVED_UNIT_ELEMENT(#1522,-3.);
#767=(
MASS_UNIT()
NAMED_UNIT(*)
SI_UNIT(.KILO.,.GRAM.)
);
#768=DERIVED_UNIT((#765,#766));
#769=MEASURE_REPRESENTATION_ITEM('density measure',
POSITIVE_RATIO_MEASURE(7850.),#768);
#770=PROPERTY_DEFINITION_REPRESENTATION(#775,#772);
#771=PROPERTY_DEFINITION_REPRESENTATION(#776,#773);
#772=REPRESENTATION('material name',(#774),#1519);
#773=REPRESENTATION('density',(#769),#1519);
#774=DESCRIPTIVE_REPRESENTATION_ITEM('Acier','Acier');
#775=PROPERTY_DEFINITION('material property','material name',#1529);
#776=PROPERTY_DEFINITION('material property','density of part',#1529);
#777=AXIS2_PLACEMENT_3D('',#1064,#853,#854);
#778=AXIS2_PLACEMENT_3D('',#1065,#855,#856);
#779=AXIS2_PLACEMENT_3D('',#1067,#857,#858);
#780=AXIS2_PLACEMENT_3D('',#1069,#859,#860);
#781=AXIS2_PLACEMENT_3D('',#1071,#861,#862);
#782=AXIS2_PLACEMENT_3D('',#1072,#863,#864);
#783=AXIS2_PLACEMENT_3D('',#1073,#865,#866);
#784=AXIS2_PLACEMENT_3D('',#1082,#871,#872);
#785=AXIS2_PLACEMENT_3D('',#1085,#874,#875);
#786=AXIS2_PLACEMENT_3D('',#1086,#876,#877);
#787=AXIS2_PLACEMENT_3D('',#1089,#878,#879);
#788=AXIS2_PLACEMENT_3D('',#1091,#880,#881);
#789=AXIS2_PLACEMENT_3D('',#1104,#882,#883);
#790=AXIS2_PLACEMENT_3D('',#1119,#884,#885);
#791=AXIS2_PLACEMENT_3D('',#1123,#887,#888);
#792=AXIS2_PLACEMENT_3D('',#1141,#889,#890);
#793=AXIS2_PLACEMENT_3D('',#1145,#892,#893);
#794=AXIS2_PLACEMENT_3D('',#1167,#894,#895);
#795=AXIS2_PLACEMENT_3D('',#1171,#897,#898);
#796=AXIS2_PLACEMENT_3D('',#1173,#900,#901);
#797=AXIS2_PLACEMENT_3D('',#1177,#903,#904);
#798=AXIS2_PLACEMENT_3D('',#1181,#907,#908);
#799=AXIS2_PLACEMENT_3D('',#1193,#914,#915);
#800=AXIS2_PLACEMENT_3D('',#1197,#918,#919);
#801=AXIS2_PLACEMENT_3D('',#1225,#920,#921);
#802=AXIS2_PLACEMENT_3D('',#1226,#922,#923);
#803=AXIS2_PLACEMENT_3D('',#1227,#924,#925);
#804=AXIS2_PLACEMENT_3D('',#1233,#928,#929);
#805=AXIS2_PLACEMENT_3D('',#1235,#931,#932);
#806=AXIS2_PLACEMENT_3D('',#1237,#934,#935);
#807=AXIS2_PLACEMENT_3D('',#1240,#936,#937);
#808=AXIS2_PLACEMENT_3D('',#1242,#938,#939);
#809=AXIS2_PLACEMENT_3D('',#1255,#940,#941);
#810=AXIS2_PLACEMENT_3D('',#1270,#942,#943);
#811=AXIS2_PLACEMENT_3D('',#1274,#945,#946);
#812=AXIS2_PLACEMENT_3D('',#1296,#947,#948);
#813=AXIS2_PLACEMENT_3D('',#1300,#950,#951);
#814=AXIS2_PLACEMENT_3D('',#1318,#952,#953);
#815=AXIS2_PLACEMENT_3D('',#1322,#955,#956);
#816=AXIS2_PLACEMENT_3D('',#1408,#958,#959);
#817=AXIS2_PLACEMENT_3D('',#1412,#961,#962);
#818=AXIS2_PLACEMENT_3D('',#1416,#965,#966);
#819=AXIS2_PLACEMENT_3D('',#1427,#973,#974);
#820=AXIS2_PLACEMENT_3D('',#1453,#975,#976);
#821=AXIS2_PLACEMENT_3D('',#1454,#977,#978);
#822=AXIS2_PLACEMENT_3D('',#1459,#981,#982);
#823=AXIS2_PLACEMENT_3D('',#1460,#983,#984);
#824=AXIS2_PLACEMENT_3D('',#1462,#986,#987);
#825=AXIS2_PLACEMENT_3D('',#1464,#989,#990);
#826=AXIS2_PLACEMENT_3D('',#1466,#992,#993);
#827=AXIS2_PLACEMENT_3D('',#1469,#996,#997);
#828=AXIS2_PLACEMENT_3D('',#1473,#1001,#1002);
#829=AXIS2_PLACEMENT_3D('',#1474,#1003,#1004);
#830=AXIS2_PLACEMENT_3D('',#1476,#1006,#1007);
#831=AXIS2_PLACEMENT_3D('',#1478,#1009,#1010);
#832=AXIS2_PLACEMENT_3D('',#1481,#1013,#1014);
#833=AXIS2_PLACEMENT_3D('',#1483,#1016,#1017);
#834=AXIS2_PLACEMENT_3D('',#1486,#1020,#1021);
#835=AXIS2_PLACEMENT_3D('',#1487,#1022,#1023);
#836=AXIS2_PLACEMENT_3D('',#1489,#1025,#1026);
#837=AXIS2_PLACEMENT_3D('',#1490,#1027,#1028);
#838=AXIS2_PLACEMENT_3D('',#1493,#1030,#1031);
#839=AXIS2_PLACEMENT_3D('',#1494,#1032,#1033);
#840=AXIS2_PLACEMENT_3D('',#1496,#1034,#1035);
#841=AXIS2_PLACEMENT_3D('',#1497,#1036,#1037);
#842=AXIS2_PLACEMENT_3D('',#1500,#1039,#1040);
#843=AXIS2_PLACEMENT_3D('',#1501,#1041,#1042);
#844=AXIS2_PLACEMENT_3D('',#1503,#1043,#1044);
#845=AXIS2_PLACEMENT_3D('',#1504,#1045,#1046);
#846=AXIS2_PLACEMENT_3D('',#1507,#1048,#1049);
#847=AXIS2_PLACEMENT_3D('',#1508,#1050,#1051);
#848=AXIS2_PLACEMENT_3D('',#1511,#1053,#1054);
#849=AXIS2_PLACEMENT_3D('',#1512,#1055,#1056);
#850=AXIS2_PLACEMENT_3D('',#1514,#1058,#1059);
#851=AXIS2_PLACEMENT_3D('',#1515,#1060,#1061);
#852=AXIS2_PLACEMENT_3D('',#1516,#1062,#1063);
#853=DIRECTION('axis',(0.,0.,1.));
#854=DIRECTION('refdir',(1.,0.,0.));
#855=DIRECTION('center_axis',(0.,-1.,0.));
#856=DIRECTION('ref_axis',(0.,0.,-1.));
#857=DIRECTION('center_axis',(0.,1.,0.));
#858=DIRECTION('ref_axis',(1.,0.,0.));
#859=DIRECTION('center_axis',(-1.,0.,-1.22464679914735E-16));
#860=DIRECTION('ref_axis',(-1.22464679914735E-16,0.,1.));
#861=DIRECTION('center_axis',(0.,-1.,0.));
#862=DIRECTION('ref_axis',(1.,0.,0.));
#863=DIRECTION('center_axis',(0.,-1.,0.));
#864=DIRECTION('ref_axis',(1.,0.,0.));
#865=DIRECTION('center_axis',(0.,1.,0.));
#866=DIRECTION('ref_axis',(1.,0.,0.));
#867=DIRECTION('',(1.,0.,0.));
#868=DIRECTION('',(0.,0.,-1.));
#869=DIRECTION('',(-1.,0.,0.));
#870=DIRECTION('',(0.,0.,1.));
#871=DIRECTION('center_axis',(0.,1.,0.));
#872=DIRECTION('ref_axis',(1.,0.,0.));
#873=DIRECTION('',(0.,-1.,0.));
#874=DIRECTION('center_axis',(0.,-1.,0.));
#875=DIRECTION('ref_axis',(1.,0.,0.));
#876=DIRECTION('center_axis',(0.,0.,-1.));
#877=DIRECTION('ref_axis',(-1.,0.,0.));
#878=DIRECTION('center_axis',(0.,-1.,0.));
#879=DIRECTION('ref_axis',(-1.,0.,0.));
#880=DIRECTION('center_axis',(0.,0.,1.));
#881=DIRECTION('ref_axis',(-0.754444083154548,-0.656364323674812,0.));
#882=DIRECTION('center_axis',(0.,0.,-1.));
#883=DIRECTION('ref_axis',(-0.754444083154548,-0.656364323674812,0.));
#884=DIRECTION('center_axis',(0.,0.,-1.));
#885=DIRECTION('ref_axis',(-1.,0.,0.));
#886=DIRECTION('',(0.,0.,1.));
#887=DIRECTION('center_axis',(0.,-0.470588235294116,-0.882352941176471));
#888=DIRECTION('ref_axis',(0.,0.882352941176471,-0.470588235294116));
#889=DIRECTION('center_axis',(0.,-0.470588235294119,0.88235294117647));
#890=DIRECTION('ref_axis',(0.,0.88235294117647,0.470588235294119));
#891=DIRECTION('',(0.,0.,1.));
#892=DIRECTION('center_axis',(0.,-0.481208322122732,-0.876606268925693));
#893=DIRECTION('ref_axis',(0.,0.876606268925693,-0.481208322122732));
#894=DIRECTION('center_axis',(0.,-0.482699206126022,0.875786204735669));
#895=DIRECTION('ref_axis',(0.,0.875786204735669,0.482699206126022));
#896=DIRECTION('',(0.,0.,1.));
#897=DIRECTION('center_axis',(0.,0.,1.));
#898=DIRECTION('ref_axis',(-0.754444083154548,-0.656364323674812,0.));
#899=DIRECTION('',(0.,0.,-1.));
#900=DIRECTION('center_axis',(1.,0.,0.));
#901=DIRECTION('ref_axis',(0.,0.,-1.));
#902=DIRECTION('',(0.,1.,0.));
#903=DIRECTION('center_axis',(-1.,0.,0.));
#904=DIRECTION('ref_axis',(0.,0.707106781186555,0.70710678118654));
#905=DIRECTION('',(0.,0.,1.));
#906=DIRECTION('',(0.,0.882352941176471,-0.470588235294116));
#907=DIRECTION('center_axis',(0.,0.,1.));
#908=DIRECTION('ref_axis',(1.,0.,0.));
#909=DIRECTION('',(1.,0.,0.));
#910=DIRECTION('',(0.,1.,0.));
#911=DIRECTION('',(1.,0.,0.));
#912=DIRECTION('',(0.,1.,0.));
#913=DIRECTION('',(1.,0.,0.));
#914=DIRECTION('center_axis',(0.,0.,1.));
#915=DIRECTION('ref_axis',(0.754444083154548,-0.656364323674813,0.));
#916=DIRECTION('',(0.,1.,0.));
#917=DIRECTION('',(1.,0.,0.));
#918=DIRECTION('center_axis',(0.,0.,1.));
#919=DIRECTION('ref_axis',(-0.770551750371122,0.637377439199098,0.));
#920=DIRECTION('center_axis',(0.,0.,-1.));
#921=DIRECTION('ref_axis',(-0.754444083154548,-0.656364323674812,0.));
#922=DIRECTION('center_axis',(0.,-1.,0.));
#923=DIRECTION('ref_axis',(-1.,0.,0.));
#924=DIRECTION('center_axis',(1.,0.,0.));
#925=DIRECTION('ref_axis',(0.,0.,-1.));
#926=DIRECTION('',(0.,-0.875786204735669,-0.482699206126022));
#927=DIRECTION('',(0.,0.,1.));
#928=DIRECTION('center_axis',(-1.,0.,0.));
#929=DIRECTION('ref_axis',(0.,0.707106781186549,-0.707106781186546));
#930=DIRECTION('',(0.,1.,0.));
#931=DIRECTION('center_axis',(0.,0.,-1.));
#932=DIRECTION('ref_axis',(0.684653196881466,0.728868986855655,0.));
#933=DIRECTION('',(0.,0.,1.));
#934=DIRECTION('center_axis',(0.,0.,1.));
#935=DIRECTION('ref_axis',(1.,0.,0.));
#936=DIRECTION('center_axis',(0.,-1.,0.));
#937=DIRECTION('ref_axis',(1.,0.,0.));
#938=DIRECTION('center_axis',(0.,0.,-1.));
#939=DIRECTION('ref_axis',(0.754444083154548,-0.656364323674813,0.));
#940=DIRECTION('center_axis',(0.,0.,1.));
#941=DIRECTION('ref_axis',(0.754444083154547,-0.656364323674813,0.));
#942=DIRECTION('center_axis',(0.,0.,-1.));
#943=DIRECTION('ref_axis',(-1.,0.,0.));
#944=DIRECTION('',(0.,0.,-1.));
#945=DIRECTION('center_axis',(0.,-0.482699206126022,0.875786204735669));
#946=DIRECTION('ref_axis',(0.,0.875786204735669,0.482699206126022));
#947=DIRECTION('center_axis',(0.,-0.481208322122732,-0.876606268925693));
#948=DIRECTION('ref_axis',(0.,0.876606268925693,-0.481208322122732));
#949=DIRECTION('',(0.,0.,-1.));
#950=DIRECTION('center_axis',(0.,-0.470588235294119,0.88235294117647));
#951=DIRECTION('ref_axis',(0.,0.88235294117647,0.470588235294119));
#952=DIRECTION('center_axis',(0.,-0.470588235294116,-0.882352941176471));
#953=DIRECTION('ref_axis',(0.,0.882352941176471,-0.470588235294116));
#954=DIRECTION('',(0.,0.,-1.));
#955=DIRECTION('center_axis',(0.,0.,-1.));
#956=DIRECTION('ref_axis',(0.754444083154547,-0.656364323674813,0.));
#957=DIRECTION('',(0.,0.,1.));
#958=DIRECTION('center_axis',(-1.,0.,0.));
#959=DIRECTION('ref_axis',(0.,0.,1.));
#960=DIRECTION('',(0.,1.,0.));
#961=DIRECTION('center_axis',(1.,0.,0.));
#962=DIRECTION('ref_axis',(0.,0.707106781186549,-0.707106781186546));
#963=DIRECTION('',(0.,0.,-1.));
#964=DIRECTION('',(0.,0.875786204735669,0.482699206126022));
#965=DIRECTION('center_axis',(0.,0.,-1.));
#966=DIRECTION('ref_axis',(-1.,0.,0.));
#967=DIRECTION('',(-1.,0.,0.));
#968=DIRECTION('',(-1.,0.,0.));
#969=DIRECTION('',(0.,1.,0.));
#970=DIRECTION('',(1.,0.,0.));
#971=DIRECTION('',(0.,1.,0.));
#972=DIRECTION('',(-1.,0.,0.));
#973=DIRECTION('center_axis',(0.,0.,-1.));
#974=DIRECTION('ref_axis',(0.770551750371123,0.637377439199097,0.));
#975=DIRECTION('center_axis',(0.,-1.,0.));
#976=DIRECTION('ref_axis',(1.,0.,0.));
#977=DIRECTION('center_axis',(-1.,0.,0.));
#978=DIRECTION('ref_axis',(0.,0.,1.));
#979=DIRECTION('',(0.,-0.882352941176471,0.470588235294116));
#980=DIRECTION('',(0.,0.,-1.));
#981=DIRECTION('center_axis',(1.,0.,0.));
#982=DIRECTION('ref_axis',(0.,0.707106781186555,0.70710678118654));
#983=DIRECTION('center_axis',(0.,0.,1.));
#984=DIRECTION('ref_axis',(-0.684653196881453,0.728868986855667,0.));
#985=DIRECTION('',(0.,0.,-1.));
#986=DIRECTION('center_axis',(1.,0.,0.));
#987=DIRECTION('ref_axis',(0.,0.707106781186555,0.70710678118654));
#988=DIRECTION('',(-1.,0.,0.));
#989=DIRECTION('center_axis',(-1.,0.,0.));
#990=DIRECTION('ref_axis',(0.,0.707106781186549,-0.707106781186546));
#991=DIRECTION('',(1.,0.,0.));
#992=DIRECTION('center_axis',(0.,0.470588235294116,0.882352941176471));
#993=DIRECTION('ref_axis',(0.,0.882352941176471,-0.470588235294116));
#994=DIRECTION('',(-1.,0.,0.));
#995=DIRECTION('',(-1.,0.,0.));
#996=DIRECTION('center_axis',(0.,0.470588235294119,-0.88235294117647));
#997=DIRECTION('ref_axis',(0.,-0.88235294117647,-0.470588235294119));
#998=DIRECTION('',(-1.,0.,0.));
#999=DIRECTION('',(0.,0.88235294117647,0.470588235294119));
#1000=DIRECTION('',(0.,-0.88235294117647,-0.470588235294119));
#1001=DIRECTION('center_axis',(-1.,0.,0.));
#1002=DIRECTION('ref_axis',(0.,1.,0.));
#1003=DIRECTION('center_axis',(1.,0.,0.));
#1004=DIRECTION('ref_axis',(0.,0.,-1.));
#1005=DIRECTION('',(0.,0.876606268925693,-0.481208322122732));
#1006=DIRECTION('center_axis',(-1.,0.,0.));
#1007=DIRECTION('ref_axis',(0.,0.,1.));
#1008=DIRECTION('',(0.,-0.876606268925693,0.481208322122732));
#1009=DIRECTION('center_axis',(-1.,0.,0.));
#1010=DIRECTION('ref_axis',(0.,0.,1.));
#1011=DIRECTION('',(0.,0.,1.));
#1012=DIRECTION('',(0.,0.,1.));
#1013=DIRECTION('center_axis',(0.,0.481208322122732,0.876606268925693));
#1014=DIRECTION('ref_axis',(0.,0.876606268925693,-0.481208322122732));
#1015=DIRECTION('',(-1.,0.,0.));
#1016=DIRECTION('center_axis',(0.,0.482699206126022,-0.875786204735669));
#1017=DIRECTION('ref_axis',(0.,-0.875786204735669,-0.482699206126022));
#1018=DIRECTION('',(-1.,0.,0.));
#1019=DIRECTION('',(1.,0.,0.));
#1020=DIRECTION('center_axis',(-1.,0.,0.));
#1021=DIRECTION('ref_axis',(0.,1.,0.));
#1022=DIRECTION('center_axis',(0.,1.,0.));
#1023=DIRECTION('ref_axis',(1.,0.,0.));
#1024=DIRECTION('',(0.,0.,1.));
#1025=DIRECTION('center_axis',(0.,1.,0.));
#1026=DIRECTION('ref_axis',(1.,0.,0.));
#1027=DIRECTION('center_axis',(1.,0.,0.));
#1028=DIRECTION('ref_axis',(0.,-1.,0.));
#1029=DIRECTION('',(1.,0.,0.));
#1030=DIRECTION('center_axis',(1.,0.,0.));
#1031=DIRECTION('ref_axis',(0.,-1.,0.));
#1032=DIRECTION('center_axis',(-1.,0.,0.));
#1033=DIRECTION('ref_axis',(0.,-1.,0.));
#1034=DIRECTION('center_axis',(-1.,0.,0.));
#1035=DIRECTION('ref_axis',(0.,-1.,0.));
#1036=DIRECTION('center_axis',(1.,0.,0.));
#1037=DIRECTION('ref_axis',(0.,-1.,0.));
#1038=DIRECTION('',(1.,0.,0.));
#1039=DIRECTION('center_axis',(1.,0.,0.));
#1040=DIRECTION('ref_axis',(0.,-1.,0.));
#1041=DIRECTION('center_axis',(-1.,0.,0.));
#1042=DIRECTION('ref_axis',(0.,-1.,0.));
#1043=DIRECTION('center_axis',(-1.,0.,0.));
#1044=DIRECTION('ref_axis',(0.,-1.,0.));
#1045=DIRECTION('center_axis',(1.,0.,0.));
#1046=DIRECTION('ref_axis',(0.,-1.,0.));
#1047=DIRECTION('',(1.,0.,0.));
#1048=DIRECTION('center_axis',(-1.,0.,0.));
#1049=DIRECTION('ref_axis',(0.,-1.,0.));
#1050=DIRECTION('center_axis',(1.,0.,0.));
#1051=DIRECTION('ref_axis',(0.,-1.,0.));
#1052=DIRECTION('',(1.,0.,0.));
#1053=DIRECTION('center_axis',(-1.,0.,0.));
#1054=DIRECTION('ref_axis',(0.,-1.,0.));
#1055=DIRECTION('center_axis',(0.,1.,0.));
#1056=DIRECTION('ref_axis',(0.,0.,1.));
#1057=DIRECTION('',(0.,0.,-1.));
#1058=DIRECTION('center_axis',(0.,1.,0.));
#1059=DIRECTION('ref_axis',(1.,0.,0.));
#1060=DIRECTION('center_axis',(0.,1.,0.));
#1061=DIRECTION('ref_axis',(0.,0.,1.));
#1062=DIRECTION('center_axis',(1.,0.,0.));
#1063=DIRECTION('ref_axis',(0.,0.,-1.));
#1064=CARTESIAN_POINT('',(0.,0.,0.));
#1065=CARTESIAN_POINT('Origin',(8.88178419700125E-15,2.,50.));
#1066=CARTESIAN_POINT('',(1.4114387222024E-15,3.,111.));
#1067=CARTESIAN_POINT('Origin',(8.88178419700125E-15,3.,50.));
#1068=CARTESIAN_POINT('',(1.53390340211713E-15,2.,110.));
#1069=CARTESIAN_POINT('Origin',(1.4114387222024E-15,2.,111.));
#1070=CARTESIAN_POINT('',(-60.,2.,50.));
#1071=CARTESIAN_POINT('Origin',(8.88178419700125E-15,2.,50.));
#1072=CARTESIAN_POINT('Origin',(8.88178419700125E-15,2.,50.));
#1073=CARTESIAN_POINT('Origin',(0.,3.,50.));
#1074=CARTESIAN_POINT('',(-85.,3.,114.6));
#1075=CARTESIAN_POINT('',(85.,3.,114.6));
#1076=CARTESIAN_POINT('',(50.,3.,114.6));
#1077=CARTESIAN_POINT('',(85.,3.,-14.6468339521886));
#1078=CARTESIAN_POINT('',(85.,3.,5.));
#1079=CARTESIAN_POINT('',(-85.,3.,-14.6468339521886));
#1080=CARTESIAN_POINT('',(50.,3.,-14.6468339521886));
#1081=CARTESIAN_POINT('',(-85.,3.,95.));
#1082=CARTESIAN_POINT('Origin',(8.88178419700125E-15,0.,50.));
#1083=CARTESIAN_POINT('',(-60.,0.,50.));
#1084=CARTESIAN_POINT('',(-60.,0.,50.));
#1085=CARTESIAN_POINT('Origin',(8.88178419700125E-15,0.,50.));
#1086=CARTESIAN_POINT('Origin',(-82.,18.,139.));
#1087=CARTESIAN_POINT('',(-97.9687194226713,18.,139.999510643006));
#1088=CARTESIAN_POINT('',(-98.,18.,140.));
#1089=CARTESIAN_POINT('Origin',(-98.,18.,139.));
#1090=CARTESIAN_POINT('',(-85.,2.28376635449829,140.));
#1091=CARTESIAN_POINT('Origin',(-82.,18.,140.));
#1092=CARTESIAN_POINT('',(-85.,3.30306154330093,139.));
#1093=CARTESIAN_POINT('Ctrl Pts',(-85.,2.28376635449827,140.));
#1094=CARTESIAN_POINT('Ctrl Pts',(-85.,2.41019687155764,140.));
#1095=CARTESIAN_POINT('Ctrl Pts',(-85.,2.55907053974656,139.970767075973));
#1096=CARTESIAN_POINT('Ctrl Pts',(-85.,2.7920946235036,139.875321209731));
#1097=CARTESIAN_POINT('Ctrl Pts',(-85.,2.91775361190149,139.792568722609));
#1098=CARTESIAN_POINT('Ctrl Pts',(-85.,3.09510705869649,139.617352406903));
#1099=CARTESIAN_POINT('Ctrl Pts',(-85.,3.17859823020254,139.494290635434));
#1100=CARTESIAN_POINT('Ctrl Pts',(-85.,3.27392260477725,139.266895971574));
#1101=CARTESIAN_POINT('Ctrl Pts',(-85.,3.30306154330093,139.122640690102));
#1102=CARTESIAN_POINT('Ctrl Pts',(-85.,3.30306154330093,139.));
#1103=CARTESIAN_POINT('',(-96.9706744587543,17.0625,139.));
#1104=CARTESIAN_POINT('Origin',(-82.,18.,139.));
#1105=CARTESIAN_POINT('Ctrl Pts',(-96.9706744587543,17.0625,139.));
#1106=CARTESIAN_POINT('Ctrl Pts',(-96.9707606629117,17.0638765700013,139.001424500334));
#1107=CARTESIAN_POINT('Ctrl Pts',(-96.9708497151719,17.0652529635328,139.002849002614));
#1108=CARTESIAN_POINT('Ctrl Pts',(-96.9816063691661,17.226334819363,139.169582570535));
#1109=CARTESIAN_POINT('Ctrl Pts',(-97.0308258215641,17.3866352094158,139.337953982829));
#1110=CARTESIAN_POINT('Ctrl Pts',(-97.1777784615962,17.6209964600849,139.585770324786));
#1111=CARTESIAN_POINT('Ctrl Pts',(-97.2512577801569,17.7065028545927,139.676618590884));
#1112=CARTESIAN_POINT('Ctrl Pts',(-97.4348011315819,17.8536409043186,139.833955160045));
#1113=CARTESIAN_POINT('Ctrl Pts',(-97.5379595588084,17.9099896397116,139.894788378903));
#1114=CARTESIAN_POINT('Ctrl Pts',(-97.7080783354127,17.9674760852432,139.958552294758));
#1115=CARTESIAN_POINT('Ctrl Pts',(-97.7707309078995,17.9824052520527,139.975601955621));
#1116=CARTESIAN_POINT('Ctrl Pts',(-97.8796263470242,17.9970011558792,139.993718862623));
#1117=CARTESIAN_POINT('Ctrl Pts',(-97.924003662515,18.,139.998111223397));
#1118=CARTESIAN_POINT('Ctrl Pts',(-97.9687194226713,18.,139.999510643006));
#1119=CARTESIAN_POINT('Origin',(-82.,18.,140.));
#1120=CARTESIAN_POINT('',(-85.,3.30306154330093,129.238367176906));
#1121=CARTESIAN_POINT('',(-85.,3.30306154330093,140.));
#1122=CARTESIAN_POINT('',(-95.7088800054366,11.9117647058824,124.647058823529));
#1123=CARTESIAN_POINT('Origin',(-82.,18.,121.4));
#1124=CARTESIAN_POINT('',(-95.7088800054366,11.9117647058824,119.352941176471));
#1125=CARTESIAN_POINT('Ctrl Pts',(-95.7088800054366,11.9117647058823,124.647058823529));
#1126=CARTESIAN_POINT('Ctrl Pts',(-95.8312246326852,12.187248114988,124.500134338673));
#1127=CARTESIAN_POINT('Ctrl Pts',(-95.9341095232175,12.4418782574911,124.30719568665));
#1128=CARTESIAN_POINT('Ctrl Pts',(-96.1111960207217,12.9062455478705,123.827627078193));
#1129=CARTESIAN_POINT('Ctrl Pts',(-96.1879107498993,13.1288956854981,123.497712429618));
#1130=CARTESIAN_POINT('Ctrl Pts',(-96.2864081430717,13.4258322918757,122.770546174991));
#1131=CARTESIAN_POINT('Ctrl Pts',(-96.3090880212542,13.5,122.3733678878));
#1132=CARTESIAN_POINT('Ctrl Pts',(-96.3090880212542,13.5,122.));
#1133=CARTESIAN_POINT('Ctrl Pts',(-96.3090880212542,13.5,121.6266321122));
#1134=CARTESIAN_POINT('Ctrl Pts',(-96.2864081430717,13.4258322918757,121.229453825009));
#1135=CARTESIAN_POINT('Ctrl Pts',(-96.1879107498993,13.1288956854981,120.502287570382));
#1136=CARTESIAN_POINT('Ctrl Pts',(-96.1111960207217,12.9062455478705,120.172372921807));
#1137=CARTESIAN_POINT('Ctrl Pts',(-95.9341095233795,12.4418782579161,119.692804313789));
#1138=CARTESIAN_POINT('Ctrl Pts',(-95.8312246321656,12.187248113818,119.499865660703));
#1139=CARTESIAN_POINT('Ctrl Pts',(-95.7088800054366,11.9117647058824,119.352941176471));
#1140=CARTESIAN_POINT('',(-85.,3.30306154330093,114.761632823094));
#1141=CARTESIAN_POINT('Origin',(-82.,18.,122.6));
#1142=CARTESIAN_POINT('',(-85.,3.30306154330093,-14.8131979652255));
#1143=CARTESIAN_POINT('',(-85.,3.30306154330093,140.));
#1144=CARTESIAN_POINT('',(-95.271473131813,11.0094348646504,-19.043570376505));
#1145=CARTESIAN_POINT('Origin',(-82.,18.,-22.8810037131316));
#1146=CARTESIAN_POINT('',(-95.238303739015,10.946822410177,-24.9665383418664));
#1147=CARTESIAN_POINT('Ctrl Pts',(-95.271473131813,11.0094348646504,-19.043570376505));
#1148=CARTESIAN_POINT('Ctrl Pts',(-95.3824522967901,11.2201269871995,-19.0798756252688));
#1149=CARTESIAN_POINT('Ctrl Pts',(-95.4884955748208,11.4339709573513,-19.1403136491661));
#1150=CARTESIAN_POINT('Ctrl Pts',(-95.7622220757581,12.0187613751644,-19.3808008708989));
#1151=CARTESIAN_POINT('Ctrl Pts',(-95.907993589335,12.3733954221328,-19.6220796547958));
#1152=CARTESIAN_POINT('Ctrl Pts',(-96.1111960207217,12.9062455478705,-20.1723729218065));
#1153=CARTESIAN_POINT('Ctrl Pts',(-96.1879107498993,13.1288956854981,-20.5022875703825));
#1154=CARTESIAN_POINT('Ctrl Pts',(-96.2864081430717,13.4258322918757,-21.2294538250087));
#1155=CARTESIAN_POINT('Ctrl Pts',(-96.3090880212542,13.5,-21.6266321122004));
#1156=CARTESIAN_POINT('Ctrl Pts',(-96.3090880212542,13.5,-22.));
#1157=CARTESIAN_POINT('Ctrl Pts',(-96.3090880212542,13.5,-22.3817605186531));
#1158=CARTESIAN_POINT('Ctrl Pts',(-96.2854083529348,13.4224852762127,-22.7872191442923));
#1159=CARTESIAN_POINT('Ctrl Pts',(-96.1826334316484,13.1133403302531,-23.5267892512846));
#1160=CARTESIAN_POINT('Ctrl Pts',(-96.1025595339621,12.8818272976039,-23.8608133895154));
#1161=CARTESIAN_POINT('Ctrl Pts',(-95.894833459305,12.3410472075913,-24.401593479528));
#1162=CARTESIAN_POINT('Ctrl Pts',(-95.7499516844811,11.991063695628,-24.6338302060895));
#1163=CARTESIAN_POINT('Ctrl Pts',(-95.4715408293622,11.3987008035883,-24.8721101998616));
#1164=CARTESIAN_POINT('Ctrl Pts',(-95.3573982932565,11.1703542669371,-24.9328697923725));
#1165=CARTESIAN_POINT('Ctrl Pts',(-95.238303739015,10.946822410177,-24.9665383418664));
#1166=CARTESIAN_POINT('',(-85.,3.30306154330093,-29.1794812750927));
#1167=CARTESIAN_POINT('Origin',(-82.,18.,-21.0791018820731));
#1168=CARTESIAN_POINT('',(-85.,3.30306154330093,-39.));
#1169=CARTESIAN_POINT('',(-85.,3.30306154330093,140.));
#1170=CARTESIAN_POINT('',(-96.9706744587543,17.0625,-39.));
#1171=CARTESIAN_POINT('Origin',(-82.,18.,-39.));
#1172=CARTESIAN_POINT('',(-96.9706744587543,17.0625,140.));
#1173=CARTESIAN_POINT('Origin',(-85.,0.,140.));
#1174=CARTESIAN_POINT('',(-85.,2.,140.));
#1175=CARTESIAN_POINT('',(-85.,0.,140.));
#1176=CARTESIAN_POINT('',(-85.,3.,139.));
#1177=CARTESIAN_POINT('Origin',(-85.,2.,139.));
#1178=CARTESIAN_POINT('',(-85.,3.,129.4));
#1179=CARTESIAN_POINT('',(-85.,3.,95.));
#1180=CARTESIAN_POINT('',(-85.,-1.86851211072664,131.996539792388));
#1181=CARTESIAN_POINT('Origin',(-100.,0.,140.));
#1182=CARTESIAN_POINT('',(-100.,18.,140.));
#1183=CARTESIAN_POINT('',(-100.,18.,140.));
#1184=CARTESIAN_POINT('',(-100.,0.,140.));
#1185=CARTESIAN_POINT('',(-100.,0.,140.));
#1186=CARTESIAN_POINT('',(100.,0.,140.));
#1187=CARTESIAN_POINT('',(-100.,0.,140.));
#1188=CARTESIAN_POINT('',(100.,18.,140.));
#1189=CARTESIAN_POINT('',(100.,0.,140.));
#1190=CARTESIAN_POINT('',(98.,18.,140.));
#1191=CARTESIAN_POINT('',(-100.,18.,140.));
#1192=CARTESIAN_POINT('',(85.,2.2837663544983,140.));
#1193=CARTESIAN_POINT('Origin',(82.,18.,140.));
#1194=CARTESIAN_POINT('',(85.,2.,140.));
#1195=CARTESIAN_POINT('',(85.,0.,140.));
#1196=CARTESIAN_POINT('',(-50.,2.,140.));
#1197=CARTESIAN_POINT('Origin',(-82.,18.,-39.));
#1198=CARTESIAN_POINT('',(-97.9687194226713,18.,-39.9995106430058));
#1199=CARTESIAN_POINT('Ctrl Pts',(-97.9687194226713,18.,-39.9995106430058));
#1200=CARTESIAN_POINT('Ctrl Pts',(-97.9238311784649,18.,-39.9981058253545));
#1201=CARTESIAN_POINT('Ctrl Pts',(-97.8792857330433,17.9969779841191,-39.993684991046));
#1202=CARTESIAN_POINT('Ctrl Pts',(-97.7700953081424,17.9822863201504,-39.9754620018739));
#1203=CARTESIAN_POINT('Ctrl Pts',(-97.7073253906749,17.9672808457644,-39.9583310520903));
#1204=CARTESIAN_POINT('Ctrl Pts',(-97.5370574181958,17.9095736336341,-39.8943357393355));
#1205=CARTESIAN_POINT('Ctrl Pts',(-97.4338772383787,17.8530748016327,-39.8333457472038));
#1206=CARTESIAN_POINT('Ctrl Pts',(-97.2503418663132,17.705591487269,-39.6756481867208));
#1207=CARTESIAN_POINT('Ctrl Pts',(-97.1769014419756,17.6198968499624,-39.5846032258647));
#1208=CARTESIAN_POINT('Ctrl Pts',(-97.0305388110425,17.3856921758422,-39.336963880271));
#1209=CARTESIAN_POINT('Ctrl Pts',(-96.9815753099842,17.2258696533395,-39.1691010837903));
#1210=CARTESIAN_POINT('Ctrl Pts',(-96.9708497161063,17.0652529779735,-39.0028490175646));
#1211=CARTESIAN_POINT('Ctrl Pts',(-96.9707606633639,17.0638765772226,-39.0014245078063));
#1212=CARTESIAN_POINT('Ctrl Pts',(-96.9706744587543,17.0625,-39.));
#1213=CARTESIAN_POINT('',(-85.,2.28376635449829,-40.));
#1214=CARTESIAN_POINT('Ctrl Pts',(-85.,3.30306154330093,-39.));
#1215=CARTESIAN_POINT('Ctrl Pts',(-85.,3.30306154330093,-39.1226406901018));
#1216=CARTESIAN_POINT('Ctrl Pts',(-85.,3.27392260477725,-39.2668959715738));
#1217=CARTESIAN_POINT('Ctrl Pts',(-85.,3.17859823020254,-39.494290635434));
#1218=CARTESIAN_POINT('Ctrl Pts',(-85.,3.09510705869651,-39.6173524069034));
#1219=CARTESIAN_POINT('Ctrl Pts',(-85.,2.9177536119015,-39.7925687226092));
#1220=CARTESIAN_POINT('Ctrl Pts',(-85.,2.79209462350363,-39.8753212097305));
#1221=CARTESIAN_POINT('Ctrl Pts',(-85.,2.55907053974658,-39.9707670759726));
#1222=CARTESIAN_POINT('Ctrl Pts',(-85.,2.41019687155766,-40.));
#1223=CARTESIAN_POINT('Ctrl Pts',(-85.,2.28376635449829,-40.));
#1224=CARTESIAN_POINT('',(-98.,18.,-40.));
#1225=CARTESIAN_POINT('Origin',(-82.,18.,-40.));
#1226=CARTESIAN_POINT('Origin',(-98.,18.,-39.));
#1227=CARTESIAN_POINT('Origin',(-85.,0.,140.));
#1228=CARTESIAN_POINT('',(-85.,3.,-29.3465169803455));
#1229=CARTESIAN_POINT('',(-85.,41.617792847742,-8.06189540358703));
#1230=CARTESIAN_POINT('',(-85.,3.,-39.));
#1231=CARTESIAN_POINT('',(-85.,3.,95.));
#1232=CARTESIAN_POINT('',(-85.,2.,-40.));
#1233=CARTESIAN_POINT('Origin',(-85.,2.,-39.));
#1234=CARTESIAN_POINT('',(-85.,0.,-40.));
#1235=CARTESIAN_POINT('Origin',(-97.9687194226713,17.,140.));
#1236=CARTESIAN_POINT('',(-97.9687194226713,18.,140.));
#1237=CARTESIAN_POINT('Origin',(82.,18.,-39.));
#1238=CARTESIAN_POINT('',(97.9687194226713,18.,-39.9995106430058));
#1239=CARTESIAN_POINT('',(98.,18.,-40.));
#1240=CARTESIAN_POINT('Origin',(98.,18.,-39.));
#1241=CARTESIAN_POINT('',(85.,2.2837663544983,-40.));
#1242=CARTESIAN_POINT('Origin',(82.,18.,-40.));
#1243=CARTESIAN_POINT('',(85.,3.30306154330094,-39.));
#1244=CARTESIAN_POINT('Ctrl Pts',(85.,2.2837663544983,-40.));
#1245=CARTESIAN_POINT('Ctrl Pts',(85.,2.41019687155767,-40.));
#1246=CARTESIAN_POINT('Ctrl Pts',(85.,2.55907053974659,-39.9707670759726));
#1247=CARTESIAN_POINT('Ctrl Pts',(85.,2.79209462350364,-39.8753212097305));
#1248=CARTESIAN_POINT('Ctrl Pts',(85.,2.91775361190151,-39.7925687226092));
#1249=CARTESIAN_POINT('Ctrl Pts',(85.,3.09510705869651,-39.6173524069034));
#1250=CARTESIAN_POINT('Ctrl Pts',(85.,3.17859823020255,-39.494290635434));
#1251=CARTESIAN_POINT('Ctrl Pts',(85.,3.27392260477726,-39.2668959715738));
#1252=CARTESIAN_POINT('Ctrl Pts',(85.,3.30306154330094,-39.1226406901018));
#1253=CARTESIAN_POINT('Ctrl Pts',(85.,3.30306154330094,-39.));
#1254=CARTESIAN_POINT('',(96.9706744587543,17.0625,-39.));
#1255=CARTESIAN_POINT('Origin',(82.,18.,-39.));
#1256=CARTESIAN_POINT('Ctrl Pts',(96.9706744587543,17.0625,-39.));
#1257=CARTESIAN_POINT('Ctrl Pts',(96.9707606629116,17.0638765700009,-39.0014245003331));
#1258=CARTESIAN_POINT('Ctrl Pts',(96.9708497151724,17.0652529635401,-39.002849002616));
#1259=CARTESIAN_POINT('Ctrl Pts',(96.9816063694703,17.2263348239024,-39.1695825753902));
#1260=CARTESIAN_POINT('Ctrl Pts',(97.0308258244135,17.3866352187626,-39.3379539926421));
#1261=CARTESIAN_POINT('Ctrl Pts',(97.1777784702418,17.620996470892,-39.5857703362566));
#1262=CARTESIAN_POINT('Ctrl Pts',(97.2512577891033,17.7065028634605,-39.676618600327));
#1263=CARTESIAN_POINT('Ctrl Pts',(97.434801140482,17.8536409097654,-39.833955165909));
#1264=CARTESIAN_POINT('Ctrl Pts',(97.537959567497,17.9099896437128,-39.8947883832566));
#1265=CARTESIAN_POINT('Ctrl Pts',(97.7080783422221,17.9674760869713,-39.9585522967201));
#1266=CARTESIAN_POINT('Ctrl Pts',(97.7707309130963,17.9824052529764,-39.975601956716));
#1267=CARTESIAN_POINT('Ctrl Pts',(97.8796263493252,17.9970011560351,-39.9937188628512));
#1268=CARTESIAN_POINT('Ctrl Pts',(97.9240036636771,18.,-39.9981112234331));
#1269=CARTESIAN_POINT('Ctrl Pts',(97.9687194226713,18.,-39.9995106430058));
#1270=CARTESIAN_POINT('Origin',(82.,18.,140.));
#1271=CARTESIAN_POINT('',(85.,3.30306154330094,-29.1794812750927));
#1272=CARTESIAN_POINT('',(85.,3.30306154330094,140.));
#1273=CARTESIAN_POINT('',(95.238303739015,10.946822410177,-24.9665383418664));
#1274=CARTESIAN_POINT('Origin',(82.,18.,-21.0791018820731));
#1275=CARTESIAN_POINT('',(95.271473131813,11.0094348646504,-19.043570376505));
#1276=CARTESIAN_POINT('Ctrl Pts',(95.238303739015,10.946822410177,-24.9665383418664));
#1277=CARTESIAN_POINT('Ctrl Pts',(95.3573982932565,11.1703542669371,-24.9328697923725));
#1278=CARTESIAN_POINT('Ctrl Pts',(95.4715408293622,11.3987008035883,-24.8721101998616));
#1279=CARTESIAN_POINT('Ctrl Pts',(95.749951684481,11.991063695628,-24.6338302060895));
#1280=CARTESIAN_POINT('Ctrl Pts',(95.8948334593049,12.3410472075913,-24.401593479528));
#1281=CARTESIAN_POINT('Ctrl Pts',(96.102559533962,12.8818272976039,-23.8608133895154));
#1282=CARTESIAN_POINT('Ctrl Pts',(96.1826334316484,13.1133403302531,-23.5267892512846));
#1283=CARTESIAN_POINT('Ctrl Pts',(96.2854083529348,13.4224852762127,-22.7872191442923));
#1284=CARTESIAN_POINT('Ctrl Pts',(96.3090880212542,13.5,-22.3817605186531));
#1285=CARTESIAN_POINT('Ctrl Pts',(96.3090880212542,13.5,-22.));
#1286=CARTESIAN_POINT('Ctrl Pts',(96.3090880212542,13.5,-21.6266321122004));
#1287=CARTESIAN_POINT('Ctrl Pts',(96.2864081430717,13.4258322918757,-21.2294538250087));
#1288=CARTESIAN_POINT('Ctrl Pts',(96.1879107498993,13.1288956854981,-20.5022875703825));
#1289=CARTESIAN_POINT('Ctrl Pts',(96.1111960207217,12.9062455478704,-20.1723729218065));
#1290=CARTESIAN_POINT('Ctrl Pts',(95.907993589335,12.3733954221328,-19.6220796547958));
#1291=CARTESIAN_POINT('Ctrl Pts',(95.7622220757581,12.0187613751645,-19.3808008708989));
#1292=CARTESIAN_POINT('Ctrl Pts',(95.4884955748208,11.4339709573513,-19.1403136491661));
#1293=CARTESIAN_POINT('Ctrl Pts',(95.3824522967901,11.2201269871995,-19.0798756252688));
#1294=CARTESIAN_POINT('Ctrl Pts',(95.271473131813,11.0094348646504,-19.043570376505));
#1295=CARTESIAN_POINT('',(85.,3.30306154330094,-14.8131979652255));
#1296=CARTESIAN_POINT('Origin',(82.,18.,-22.8810037131316));
#1297=CARTESIAN_POINT('',(85.,3.30306154330094,114.761632823094));
#1298=CARTESIAN_POINT('',(85.,3.30306154330094,140.));
#1299=CARTESIAN_POINT('',(95.7088800054366,11.9117647058824,119.352941176471));
#1300=CARTESIAN_POINT('Origin',(82.,18.,122.6));
#1301=CARTESIAN_POINT('',(95.7088800054366,11.9117647058824,124.647058823529));
#1302=CARTESIAN_POINT('Ctrl Pts',(95.7088800054366,11.9117647058824,119.352941176471));
#1303=CARTESIAN_POINT('Ctrl Pts',(95.8312246326852,12.187248114988,119.499865661327));
#1304=CARTESIAN_POINT('Ctrl Pts',(95.9341095232175,12.4418782574911,119.69280431335));
#1305=CARTESIAN_POINT('Ctrl Pts',(96.1111960207217,12.9062455478705,120.172372921807));
#1306=CARTESIAN_POINT('Ctrl Pts',(96.1879107498993,13.1288956854981,120.502287570382));
#1307=CARTESIAN_POINT('Ctrl Pts',(96.2864081430717,13.4258322918757,121.229453825009));
#1308=CARTESIAN_POINT('Ctrl Pts',(96.3090880212542,13.5,121.6266321122));
#1309=CARTESIAN_POINT('Ctrl Pts',(96.3090880212542,13.5,122.));
#1310=CARTESIAN_POINT('Ctrl Pts',(96.3090880212542,13.5,122.3733678878));
#1311=CARTESIAN_POINT('Ctrl Pts',(96.2864081430717,13.4258322918757,122.770546174991));
#1312=CARTESIAN_POINT('Ctrl Pts',(96.1879107498993,13.1288956854981,123.497712429618));
#1313=CARTESIAN_POINT('Ctrl Pts',(96.1111960207217,12.9062455478705,123.827627078193));
#1314=CARTESIAN_POINT('Ctrl Pts',(95.9341095233795,12.441878257916,124.307195686211));
#1315=CARTESIAN_POINT('Ctrl Pts',(95.8312246321656,12.187248113818,124.500134339297));
#1316=CARTESIAN_POINT('Ctrl Pts',(95.7088800054366,11.9117647058824,124.647058823529));
#1317=CARTESIAN_POINT('',(85.,3.30306154330094,129.238367176906));
#1318=CARTESIAN_POINT('Origin',(82.,18.,121.4));
#1319=CARTESIAN_POINT('',(85.,3.30306154330094,139.));
#1320=CARTESIAN_POINT('',(85.,3.30306154330094,140.));
#1321=CARTESIAN_POINT('',(96.9706744587543,17.0625,139.));
#1322=CARTESIAN_POINT('Origin',(82.,18.,139.));
#1323=CARTESIAN_POINT('',(96.9706744587543,17.0625,140.));
#1324=CARTESIAN_POINT('',(91.,6.00000000000001,104.));
#1325=CARTESIAN_POINT('',(96.3090880212542,13.5,104.));
#1326=CARTESIAN_POINT('Ctrl Pts',(91.,6.00000000000001,104.));
#1327=CARTESIAN_POINT('Ctrl Pts',(91.,6.00000000000001,104.243629184793));
#1328=CARTESIAN_POINT('Ctrl Pts',(91.0322391366873,6.02400573124402,104.486657434041));
#1329=CARTESIAN_POINT('Ctrl Pts',(91.1531971883194,6.11619741989066,104.956737987676));
#1330=CARTESIAN_POINT('Ctrl Pts',(91.2417011742816,6.18433699940414,105.183854663849));
#1331=CARTESIAN_POINT('Ctrl Pts',(91.5644963795762,6.44162044777671,105.824551155385));
#1332=CARTESIAN_POINT('Ctrl Pts',(91.85634865719,6.68616323306057,106.197981663627));
#1333=CARTESIAN_POINT('Ctrl Pts',(92.5121952452358,7.28804568741952,106.874408107818));
#1334=CARTESIAN_POINT('Ctrl Pts',(92.9398683222993,7.71763017628528,107.195913372871));
#1335=CARTESIAN_POINT('Ctrl Pts',(93.774246699916,8.68469193174051,107.634488641475));
#1336=CARTESIAN_POINT('Ctrl Pts',(94.1805555316256,9.22321718412473,107.75));
#1337=CARTESIAN_POINT('Ctrl Pts',(94.8212323224348,10.19607283975,107.75));
#1338=CARTESIAN_POINT('Ctrl Pts',(95.1113258826862,10.6940598456068,107.665181784859));
#1339=CARTESIAN_POINT('Ctrl Pts',(95.5964453723907,11.6423039404679,107.277803198061));
#1340=CARTESIAN_POINT('Ctrl Pts',(95.7926537221718,12.0914709639082,106.974057847498));
#1341=CARTESIAN_POINT('Ctrl Pts',(96.0592195046208,12.7606335890571,106.28039750107));
#1342=CARTESIAN_POINT('Ctrl Pts',(96.1567949815385,13.037823540223,105.86887765538));
#1343=CARTESIAN_POINT('Ctrl Pts',(96.2810267819831,13.4075810551458,104.96155605814));
#1344=CARTESIAN_POINT('Ctrl Pts',(96.3090880212542,13.5,104.465886658343));
#1345=CARTESIAN_POINT('Ctrl Pts',(96.3090880212542,13.5,104.));
#1346=CARTESIAN_POINT('Ctrl Pts',(96.3090880212542,13.5,104.));
#1347=CARTESIAN_POINT('Ctrl Pts',(96.3090880212542,13.5,103.534113341657));
#1348=CARTESIAN_POINT('Ctrl Pts',(96.2810267819831,13.4075810551458,103.03844394186));
#1349=CARTESIAN_POINT('Ctrl Pts',(96.1567949815385,13.037823540223,102.13112234462));
#1350=CARTESIAN_POINT('Ctrl Pts',(96.0592195046208,12.7606335890571,101.71960249893));
#1351=CARTESIAN_POINT('Ctrl Pts',(95.7926537221718,12.0914709639082,101.025942152502));
#1352=CARTESIAN_POINT('Ctrl Pts',(95.5964453723907,11.6423039404679,100.722196801939));
#1353=CARTESIAN_POINT('Ctrl Pts',(95.1113258826862,10.6940598456068,100.334818215141));
#1354=CARTESIAN_POINT('Ctrl Pts',(94.8212323224348,10.19607283975,100.25));
#1355=CARTESIAN_POINT('Ctrl Pts',(94.1805555316256,9.22321718412473,100.25));
#1356=CARTESIAN_POINT('Ctrl Pts',(93.774246699916,8.68469193174053,100.365511358525));
#1357=CARTESIAN_POINT('Ctrl Pts',(92.9398683222993,7.71763017628529,100.804086627129));
#1358=CARTESIAN_POINT('Ctrl Pts',(92.5121952452358,7.28804568741953,101.125591892182));
#1359=CARTESIAN_POINT('Ctrl Pts',(91.85634865719,6.68616323306057,101.802018336373));
#1360=CARTESIAN_POINT('Ctrl Pts',(91.5644963795762,6.44162044777671,102.175448844615));
#1361=CARTESIAN_POINT('Ctrl Pts',(91.2417011742816,6.18433699940414,102.816145336151));
#1362=CARTESIAN_POINT('Ctrl Pts',(91.1531971883194,6.11619741989066,103.043262012324));
#1363=CARTESIAN_POINT('Ctrl Pts',(91.0322391366873,6.02400573124403,103.513342565959));
#1364=CARTESIAN_POINT('Ctrl Pts',(91.,6.,103.756370815207));
#1365=CARTESIAN_POINT('Ctrl Pts',(91.,6.,104.));
#1366=CARTESIAN_POINT('',(91.,6.,-4.00000000000002));
#1367=CARTESIAN_POINT('',(96.3090880212542,13.5,-4.00000000000001));
#1368=CARTESIAN_POINT('Ctrl Pts',(91.,6.,-4.00000000000002));
#1369=CARTESIAN_POINT('Ctrl Pts',(91.,6.,-3.73301444018479));
#1370=CARTESIAN_POINT('Ctrl Pts',(91.0385917494321,6.02871021739634,-3.46951100738879));
#1371=CARTESIAN_POINT('Ctrl Pts',(91.1799995981977,6.13679945224273,-2.96356474624762));
#1372=CARTESIAN_POINT('Ctrl Pts',(91.2825731082486,6.21615720836272,-2.72104960584159));
#1373=CARTESIAN_POINT('Ctrl Pts',(91.652911140863,6.51428005718145,-2.04100643877913));
#1374=CARTESIAN_POINT('Ctrl Pts',(91.9832213645606,6.79602672096207,-1.65067242013882));
#1375=CARTESIAN_POINT('Ctrl Pts',(92.6541617497967,7.43012985577266,-1.01656928532822));
#1376=CARTESIAN_POINT('Ctrl Pts',(93.0529859268306,7.84169511334015,-0.733972539806131));
#1377=CARTESIAN_POINT('Ctrl Pts',(93.8286868332619,8.75652528529239,-0.350127291373638));
#1378=CARTESIAN_POINT('Ctrl Pts',(94.2051699973596,9.26059378734034,-0.249999999999986));
#1379=CARTESIAN_POINT('Ctrl Pts',(94.8147546133306,10.186236560322,-0.249999999999986));
#1380=CARTESIAN_POINT('Ctrl Pts',(95.0993558183111,10.6732910121979,-0.331085345423791));
#1381=CARTESIAN_POINT('Ctrl Pts',(95.5780502598748,11.6038811108821,-0.702041970308971));
#1382=CARTESIAN_POINT('Ctrl Pts',(95.7732073721472,12.0463970083841,-0.993096149484963));
#1383=CARTESIAN_POINT('Ctrl Pts',(96.0468097680472,12.726505417718,-1.67320455881886));
#1384=CARTESIAN_POINT('Ctrl Pts',(96.1492793049466,13.0160705936911,-2.0904354881176));
#1385=CARTESIAN_POINT('Ctrl Pts',(96.2796443619927,13.4028908853886,-3.01509183952657));
#1386=CARTESIAN_POINT('Ctrl Pts',(96.3090880212542,13.5,-3.52235941078479));
#1387=CARTESIAN_POINT('Ctrl Pts',(96.3090880212542,13.5,-4.00000000000002));
#1388=CARTESIAN_POINT('Ctrl Pts',(96.3090880212542,13.5,-4.00000000000002));
#1389=CARTESIAN_POINT('Ctrl Pts',(96.3090880212542,13.5,-4.46588665834308));
#1390=CARTESIAN_POINT('Ctrl Pts',(96.2810267819831,13.4075810551458,-4.96155605814014));
#1391=CARTESIAN_POINT('Ctrl Pts',(96.1567949815385,13.037823540223,-5.86887765538035));
#1392=CARTESIAN_POINT('Ctrl Pts',(96.0592195046208,12.7606335890571,-6.28039750106989));
#1393=CARTESIAN_POINT('Ctrl Pts',(95.7926537221718,12.0914709639082,-6.9740578474984));
#1394=CARTESIAN_POINT('Ctrl Pts',(95.5964453723907,11.6423039404679,-7.27780319806078));
#1395=CARTESIAN_POINT('Ctrl Pts',(95.1113258826862,10.6940598456068,-7.66518178485875));
#1396=CARTESIAN_POINT('Ctrl Pts',(94.8212323224348,10.19607283975,-7.75000000000002));
#1397=CARTESIAN_POINT('Ctrl Pts',(94.1805555316256,9.22321718412474,-7.75000000000002));
#1398=CARTESIAN_POINT('Ctrl Pts',(93.774246699916,8.68469193174055,-7.63448864147477));
#1399=CARTESIAN_POINT('Ctrl Pts',(92.9398683222993,7.71763017628532,-7.19591337287071));
#1400=CARTESIAN_POINT('Ctrl Pts',(92.5121952452358,7.28804568741954,-6.87440810781805));
#1401=CARTESIAN_POINT('Ctrl Pts',(91.85634865719,6.68616323306058,-6.19798166362718));
#1402=CARTESIAN_POINT('Ctrl Pts',(91.5644963795762,6.44162044777674,-5.82455115538534));
#1403=CARTESIAN_POINT('Ctrl Pts',(91.2417011742816,6.18433699940415,-5.18385466384872));
#1404=CARTESIAN_POINT('Ctrl Pts',(91.1531971883195,6.11619741989067,-4.95673798767574));
#1405=CARTESIAN_POINT('Ctrl Pts',(91.0322391366873,6.02400573124402,-4.4866574340408));
#1406=CARTESIAN_POINT('Ctrl Pts',(91.,6.,-4.24362918479322));
#1407=CARTESIAN_POINT('Ctrl Pts',(91.,6.,-4.00000000000002));
#1408=CARTESIAN_POINT('Origin',(85.,0.,-40.));
#1409=CARTESIAN_POINT('',(85.,2.,-40.));
#1410=CARTESIAN_POINT('',(85.,0.,-40.));
#1411=CARTESIAN_POINT('',(85.,3.,-39.));
#1412=CARTESIAN_POINT('Origin',(85.,2.,-39.));
#1413=CARTESIAN_POINT('',(85.,3.,-29.3465169803455));
#1414=CARTESIAN_POINT('',(85.,3.,5.));
#1415=CARTESIAN_POINT('',(85.,3.57107532915936,-29.0317625271093));
#1416=CARTESIAN_POINT('Origin',(100.,0.,-40.));
#1417=CARTESIAN_POINT('',(50.,2.,-40.));
#1418=CARTESIAN_POINT('',(100.,18.,-40.));
#1419=CARTESIAN_POINT('',(-100.,18.,-40.));
#1420=CARTESIAN_POINT('',(100.,0.,-40.));
#1421=CARTESIAN_POINT('',(100.,0.,-40.));
#1422=CARTESIAN_POINT('',(-100.,0.,-40.));
#1423=CARTESIAN_POINT('',(-100.,0.,-40.));
#1424=CARTESIAN_POINT('',(-100.,18.,-40.));
#1425=CARTESIAN_POINT('',(-100.,0.,-40.));
#1426=CARTESIAN_POINT('',(-100.,18.,-40.));
#1427=CARTESIAN_POINT('Origin',(82.,18.,139.));
#1428=CARTESIAN_POINT('',(97.9687194226713,18.,139.999510643006));
#1429=CARTESIAN_POINT('Ctrl Pts',(97.9687194226716,18.,139.999510643006));
#1430=CARTESIAN_POINT('Ctrl Pts',(97.9238311772499,18.,139.998105825316));
#1431=CARTESIAN_POINT('Ctrl Pts',(97.8792857306379,17.9969779839555,139.993684990807));
#1432=CARTESIAN_POINT('Ctrl Pts',(97.7700953027507,17.9822863191871,139.975462000733));
#1433=CARTESIAN_POINT('Ctrl Pts',(97.7073253836352,17.967280843971,139.958331050055));
#1434=CARTESIAN_POINT('Ctrl Pts',(97.5370574092329,17.909573629496,139.894335734833));
#1435=CARTESIAN_POINT('Ctrl Pts',(97.4338772291986,17.8530747960013,139.833345741142));
#1436=CARTESIAN_POINT('Ctrl Pts',(97.2503418570935,17.7055914781065,139.675648176965));
#1437=CARTESIAN_POINT('Ctrl Pts',(97.1769014330721,17.6198968388009,139.584603214018));
#1438=CARTESIAN_POINT('Ctrl Pts',(97.0305388081126,17.3856921662042,139.336963870152));
#1439=CARTESIAN_POINT('Ctrl Pts',(96.9815753096599,17.2258696485066,139.169101078945));
#1440=CARTESIAN_POINT('Ctrl Pts',(96.9708497161062,17.0652529779718,139.002849017557));
#1441=CARTESIAN_POINT('Ctrl Pts',(96.9707606633634,17.0638765772157,139.001424507799));
#1442=CARTESIAN_POINT('Ctrl Pts',(96.9706744587543,17.0625,139.));
#1443=CARTESIAN_POINT('Ctrl Pts',(85.,3.30306154330094,139.));
#1444=CARTESIAN_POINT('Ctrl Pts',(85.,3.30306154330094,139.122640690102));
#1445=CARTESIAN_POINT('Ctrl Pts',(85.,3.27392260477726,139.266895971574));
#1446=CARTESIAN_POINT('Ctrl Pts',(85.,3.17859823020255,139.494290635434));
#1447=CARTESIAN_POINT('Ctrl Pts',(85.,3.0951070586965,139.617352406903));
#1448=CARTESIAN_POINT('Ctrl Pts',(85.,2.91775361190149,139.792568722609));
#1449=CARTESIAN_POINT('Ctrl Pts',(85.,2.79209462350361,139.875321209731));
#1450=CARTESIAN_POINT('Ctrl Pts',(85.,2.55907053974656,139.970767075973));
#1451=CARTESIAN_POINT('Ctrl Pts',(85.,2.41019687155765,140.));
#1452=CARTESIAN_POINT('Ctrl Pts',(85.,2.28376635449828,140.));
#1453=CARTESIAN_POINT('Origin',(98.,18.,139.));
#1454=CARTESIAN_POINT('Origin',(85.,0.,-40.));
#1455=CARTESIAN_POINT('',(85.,3.,129.4));
#1456=CARTESIAN_POINT('',(85.,35.5017301038062,112.065743944637));
#1457=CARTESIAN_POINT('',(85.,3.,139.));
#1458=CARTESIAN_POINT('',(85.,3.,5.));
#1459=CARTESIAN_POINT('Origin',(85.,2.,139.));
#1460=CARTESIAN_POINT('Origin',(97.9687194226713,17.,140.));
#1461=CARTESIAN_POINT('',(97.9687194226713,18.,140.));
#1462=CARTESIAN_POINT('Origin',(-50.,2.,139.));
#1463=CARTESIAN_POINT('',(-50.,3.,139.));
#1464=CARTESIAN_POINT('Origin',(50.,2.,-39.));
#1465=CARTESIAN_POINT('',(50.,3.,-39.));
#1466=CARTESIAN_POINT('Origin',(100.,1.11022302462516E-15,131.));
#1467=CARTESIAN_POINT('',(50.,3.,129.4));
#1468=CARTESIAN_POINT('',(100.,11.9117647058824,124.647058823529));
#1469=CARTESIAN_POINT('Origin',(100.,11.9117647058824,119.352941176471));
#1470=CARTESIAN_POINT('',(100.,11.9117647058824,119.352941176471));
#1471=CARTESIAN_POINT('',(85.,-25.8088235294118,99.235294117647));
#1472=CARTESIAN_POINT('',(-85.,11.5614186851211,119.166089965398));
#1473=CARTESIAN_POINT('Origin',(100.,10.5,122.));
#1474=CARTESIAN_POINT('Origin',(-85.,0.,140.));
#1475=CARTESIAN_POINT('',(-85.,-32.2700127351481,4.71445086993338));
#1476=CARTESIAN_POINT('Origin',(85.,0.,-40.));
#1477=CARTESIAN_POINT('',(85.,5.69470812973202,-16.1260795652824));
#1478=CARTESIAN_POINT('Origin',(-100.,0.,-40.));
#1479=CARTESIAN_POINT('',(-100.,0.,-40.));
#1480=CARTESIAN_POINT('',(-100.,18.,-40.));
#1481=CARTESIAN_POINT('Origin',(100.,0.,-13.));
#1482=CARTESIAN_POINT('',(100.,11.0094348646504,-19.043570376505));
#1483=CARTESIAN_POINT('Origin',(100.,10.946822410177,-24.9665383418664));
#1484=CARTESIAN_POINT('',(100.,10.946822410177,-24.9665383418664));
#1485=CARTESIAN_POINT('',(50.,3.,-29.3465169803455));
#1486=CARTESIAN_POINT('Origin',(100.,10.5,-22.));
#1487=CARTESIAN_POINT('Origin',(0.,0.,50.));
#1488=CARTESIAN_POINT('',(100.,0.,-40.));
#1489=CARTESIAN_POINT('Origin',(0.,3.,50.));
#1490=CARTESIAN_POINT('Origin',(85.,9.75,-4.));
#1491=CARTESIAN_POINT('',(97.,13.5,-4.));
#1492=CARTESIAN_POINT('',(85.,13.5,-4.));
#1493=CARTESIAN_POINT('Origin',(97.,9.75,-4.));
#1494=CARTESIAN_POINT('Origin',(97.,9.75,-4.));
#1495=CARTESIAN_POINT('',(97.,11.25,-4.));
#1496=CARTESIAN_POINT('Origin',(97.,9.75,-4.));
#1497=CARTESIAN_POINT('Origin',(85.,9.75,104.));
#1498=CARTESIAN_POINT('',(97.,13.5,104.));
#1499=CARTESIAN_POINT('',(85.,13.5,104.));
#1500=CARTESIAN_POINT('Origin',(97.,9.75,104.));
#1501=CARTESIAN_POINT('Origin',(97.,9.75,104.));
#1502=CARTESIAN_POINT('',(97.,11.25,104.));
#1503=CARTESIAN_POINT('Origin',(97.,9.75,104.));
#1504=CARTESIAN_POINT('Origin',(85.,9.75,104.));
#1505=CARTESIAN_POINT('',(100.,11.25,104.));
#1506=CARTESIAN_POINT('',(85.,11.25,104.));
#1507=CARTESIAN_POINT('Origin',(100.,9.75,104.));
#1508=CARTESIAN_POINT('Origin',(85.,9.75,-4.));
#1509=CARTESIAN_POINT('',(100.,11.25,-4.));
#1510=CARTESIAN_POINT('',(85.,11.25,-4.));
#1511=CARTESIAN_POINT('Origin',(100.,9.75,-4.));
#1512=CARTESIAN_POINT('Origin',(92.5,18.,50.));
#1513=CARTESIAN_POINT('',(100.,18.,-40.));
#1514=CARTESIAN_POINT('Origin',(0.,3.,50.));
#1515=CARTESIAN_POINT('Origin',(-92.5,18.,50.));
#1516=CARTESIAN_POINT('Origin',(100.,0.,140.));
#1517=UNCERTAINTY_MEASURE_WITH_UNIT(LENGTH_MEASURE(0.01),#1521,
'DISTANCE_ACCURACY_VALUE',
'Maximum model space distance between geometric entities at asserted c
onnectivities');
#1518=UNCERTAINTY_MEASURE_WITH_UNIT(LENGTH_MEASURE(0.01),#1521,
'DISTANCE_ACCURACY_VALUE',
'Maximum model space distance between geometric entities at asserted c
onnectivities');
#1519=(
GEOMETRIC_REPRESENTATION_CONTEXT(3)
GLOBAL_UNCERTAINTY_ASSIGNED_CONTEXT((#1517))
GLOBAL_UNIT_ASSIGNED_CONTEXT((#1521,#1523,#1524))
REPRESENTATION_CONTEXT('','3D')
);
#1520=(
GEOMETRIC_REPRESENTATION_CONTEXT(3)
GLOBAL_UNCERTAINTY_ASSIGNED_CONTEXT((#1518))
GLOBAL_UNIT_ASSIGNED_CONTEXT((#1521,#1523,#1524))
REPRESENTATION_CONTEXT('','3D')
);
#1521=(
LENGTH_UNIT()
NAMED_UNIT(*)
SI_UNIT(.MILLI.,.METRE.)
);
#1522=(
LENGTH_UNIT()
NAMED_UNIT(*)
SI_UNIT($,.METRE.)
);
#1523=(
NAMED_UNIT(*)
PLANE_ANGLE_UNIT()
SI_UNIT($,.RADIAN.)
);
#1524=(
NAMED_UNIT(*)
SI_UNIT($,.STERADIAN.)
SOLID_ANGLE_UNIT()
);
#1525=SHAPE_DEFINITION_REPRESENTATION(#1526,#1527);
#1526=PRODUCT_DEFINITION_SHAPE('',$,#1529);
#1527=SHAPE_REPRESENTATION('',(#777),#1519);
#1528=PRODUCT_DEFINITION_CONTEXT('part definition',#1533,'design');
#1529=PRODUCT_DEFINITION('support_\X\E9tag\X\E8res',
'support_\X\E9tag\X\E8res v0',#1530,#1528);
#1530=PRODUCT_DEFINITION_FORMATION('',$,#1535);
#1531=PRODUCT_RELATED_PRODUCT_CATEGORY('support_\X\E9tag\X\E8res v0',
'support_\X\E9tag\X\E8res v0',(#1535));
#1532=APPLICATION_PROTOCOL_DEFINITION('international standard',
'automotive_design',2009,#1533);
#1533=APPLICATION_CONTEXT(
'Core Data for Automotive Mechanical Design Process');
#1534=PRODUCT_CONTEXT('part definition',#1533,'mechanical');
#1535=PRODUCT('support_\X\E9tag\X\E8res','support_\X\E9tag\X\E8res v0',
$,(#1534));
#1536=PRESENTATION_STYLE_ASSIGNMENT((#1537));
#1537=SURFACE_STYLE_USAGE(.BOTH.,#1538);
#1538=SURFACE_SIDE_STYLE('',(#1539));
#1539=SURFACE_STYLE_FILL_AREA(#1540);
#1540=FILL_AREA_STYLE('Acier - Satin\X\E9',(#1541));
#1541=FILL_AREA_STYLE_COLOUR('Acier - Satin\X\E9',#1542);
#1542=COLOUR_RGB('Acier - Satin\X\E9',0.627450980392157,0.627450980392157,
0.627450980392157);
ENDSEC;
END-ISO-10303-21;
