ISO-10303-21;
HEADER;
/* Generated by software containing ST-Developer
 * from STEP Tools, Inc. (www.steptools.com) 
 */

FILE_DESCRIPTION(
/* description */ (''),
/* implementation_level */ '2;1');

FILE_NAME(
/* name */ 'support_pcb.step',
/* time_stamp */ '2025-10-08T16:16:24+02:00',
/* author */ (''),
/* organization */ (''),
/* preprocessor_version */ 'ST-DEVELOPER v20.1',
/* originating_system */ 'Autodesk Translation Framework v14.17.0.0',
/* authorisation */ '');

FILE_SCHEMA (('AUTOMOTIVE_DESIGN { 1 0 10303 214 3 1 1 }'));
ENDSEC;

DATA;
#10=MECHANICAL_DESIGN_GEOMETRIC_PRESENTATION_REPRESENTATION('',(#13),#381);
#11=SHAPE_REPRESENTATION_RELATIONSHIP('SRR','None',#388,#12);
#12=ADVANCED_BREP_SHAPE_REPRESENTATION('',(#14),#380);
#13=STYLED_ITEM('',(#397),#14);
#14=MANIFOLD_SOLID_BREP('Corps1',#233);
#15=FACE_OUTER_BOUND('',#27,.T.);
#16=FACE_OUTER_BOUND('',#28,.T.);
#17=FACE_OUTER_BOUND('',#29,.T.);
#18=FACE_OUTER_BOUND('',#30,.T.);
#19=FACE_OUTER_BOUND('',#31,.T.);
#20=FACE_OUTER_BOUND('',#32,.T.);
#21=FACE_OUTER_BOUND('',#33,.T.);
#22=FACE_OUTER_BOUND('',#34,.T.);
#23=FACE_OUTER_BOUND('',#35,.T.);
#24=FACE_OUTER_BOUND('',#36,.T.);
#25=FACE_OUTER_BOUND('',#37,.T.);
#26=FACE_OUTER_BOUND('',#38,.T.);
#27=EDGE_LOOP('',(#149,#150,#151,#152));
#28=EDGE_LOOP('',(#153,#154,#155,#156));
#29=EDGE_LOOP('',(#157,#158,#159,#160,#161,#162,#163,#164));
#30=EDGE_LOOP('',(#165,#166,#167,#168,#169,#170));
#31=EDGE_LOOP('',(#171,#172,#173,#174));
#32=EDGE_LOOP('',(#175,#176,#177,#178));
#33=EDGE_LOOP('',(#179,#180,#181,#182));
#34=EDGE_LOOP('',(#183,#184,#185,#186));
#35=EDGE_LOOP('',(#187,#188,#189,#190,#191,#192));
#36=EDGE_LOOP('',(#193,#194,#195,#196));
#37=EDGE_LOOP('',(#197,#198,#199,#200));
#38=EDGE_LOOP('',(#201,#202,#203,#204,#205,#206,#207,#208));
#39=LINE('',#319,#69);
#40=LINE('',#321,#70);
#41=LINE('',#323,#71);
#42=LINE('',#324,#72);
#43=LINE('',#327,#73);
#44=LINE('',#329,#74);
#45=LINE('',#330,#75);
#46=LINE('',#333,#76);
#47=LINE('',#335,#77);
#48=LINE('',#337,#78);
#49=LINE('',#339,#79);
#50=LINE('',#341,#80);
#51=LINE('',#343,#81);
#52=LINE('',#344,#82);
#53=LINE('',#347,#83);
#54=LINE('',#349,#84);
#55=LINE('',#350,#85);
#56=LINE('',#354,#86);
#57=LINE('',#355,#87);
#58=LINE('',#356,#88);
#59=LINE('',#359,#89);
#60=LINE('',#360,#90);
#61=LINE('',#363,#91);
#62=LINE('',#364,#92);
#63=LINE('',#367,#93);
#64=LINE('',#368,#94);
#65=LINE('',#371,#95);
#66=LINE('',#372,#96);
#67=LINE('',#374,#97);
#68=LINE('',#376,#98);
#69=VECTOR('',#263,10.);
#70=VECTOR('',#264,10.);
#71=VECTOR('',#265,10.);
#72=VECTOR('',#266,10.);
#73=VECTOR('',#269,10.);
#74=VECTOR('',#270,10.);
#75=VECTOR('',#271,10.);
#76=VECTOR('',#274,10.);
#77=VECTOR('',#275,10.);
#78=VECTOR('',#276,10.);
#79=VECTOR('',#277,10.);
#80=VECTOR('',#278,10.);
#81=VECTOR('',#279,10.);
#82=VECTOR('',#280,10.);
#83=VECTOR('',#283,10.);
#84=VECTOR('',#284,10.);
#85=VECTOR('',#285,10.);
#86=VECTOR('',#288,10.);
#87=VECTOR('',#289,10.);
#88=VECTOR('',#290,10.);
#89=VECTOR('',#293,10.);
#90=VECTOR('',#294,10.);
#91=VECTOR('',#297,10.);
#92=VECTOR('',#298,10.);
#93=VECTOR('',#301,10.);
#94=VECTOR('',#302,10.);
#95=VECTOR('',#305,10.);
#96=VECTOR('',#306,10.);
#97=VECTOR('',#309,10.);
#98=VECTOR('',#312,10.);
#99=VERTEX_POINT('',#317);
#100=VERTEX_POINT('',#318);
#101=VERTEX_POINT('',#320);
#102=VERTEX_POINT('',#322);
#103=VERTEX_POINT('',#326);
#104=VERTEX_POINT('',#328);
#105=VERTEX_POINT('',#332);
#106=VERTEX_POINT('',#334);
#107=VERTEX_POINT('',#336);
#108=VERTEX_POINT('',#338);
#109=VERTEX_POINT('',#340);
#110=VERTEX_POINT('',#342);
#111=VERTEX_POINT('',#346);
#112=VERTEX_POINT('',#348);
#113=VERTEX_POINT('',#352);
#114=VERTEX_POINT('',#353);
#115=VERTEX_POINT('',#358);
#116=VERTEX_POINT('',#362);
#117=VERTEX_POINT('',#366);
#118=VERTEX_POINT('',#370);
#119=EDGE_CURVE('',#99,#100,#39,.T.);
#120=EDGE_CURVE('',#101,#99,#40,.T.);
#121=EDGE_CURVE('',#101,#102,#41,.T.);
#122=EDGE_CURVE('',#100,#102,#42,.T.);
#123=EDGE_CURVE('',#102,#103,#43,.T.);
#124=EDGE_CURVE('',#104,#101,#44,.T.);
#125=EDGE_CURVE('',#103,#104,#45,.T.);
#126=EDGE_CURVE('',#100,#105,#46,.T.);
#127=EDGE_CURVE('',#105,#106,#47,.T.);
#128=EDGE_CURVE('',#106,#107,#48,.T.);
#129=EDGE_CURVE('',#107,#108,#49,.T.);
#130=EDGE_CURVE('',#108,#109,#50,.T.);
#131=EDGE_CURVE('',#109,#110,#51,.T.);
#132=EDGE_CURVE('',#110,#99,#52,.T.);
#133=EDGE_CURVE('',#111,#103,#53,.T.);
#134=EDGE_CURVE('',#112,#111,#54,.T.);
#135=EDGE_CURVE('',#112,#105,#55,.T.);
#136=EDGE_CURVE('',#113,#114,#56,.T.);
#137=EDGE_CURVE('',#110,#113,#57,.T.);
#138=EDGE_CURVE('',#114,#109,#58,.T.);
#139=EDGE_CURVE('',#114,#115,#59,.T.);
#140=EDGE_CURVE('',#115,#108,#60,.T.);
#141=EDGE_CURVE('',#116,#112,#61,.T.);
#142=EDGE_CURVE('',#116,#106,#62,.T.);
#143=EDGE_CURVE('',#117,#116,#63,.T.);
#144=EDGE_CURVE('',#107,#117,#64,.T.);
#145=EDGE_CURVE('',#118,#113,#65,.T.);
#146=EDGE_CURVE('',#118,#104,#66,.T.);
#147=EDGE_CURVE('',#115,#117,#67,.T.);
#148=EDGE_CURVE('',#111,#118,#68,.T.);
#149=ORIENTED_EDGE('',*,*,#119,.F.);
#150=ORIENTED_EDGE('',*,*,#120,.F.);
#151=ORIENTED_EDGE('',*,*,#121,.T.);
#152=ORIENTED_EDGE('',*,*,#122,.F.);
#153=ORIENTED_EDGE('',*,*,#123,.F.);
#154=ORIENTED_EDGE('',*,*,#121,.F.);
#155=ORIENTED_EDGE('',*,*,#124,.F.);
#156=ORIENTED_EDGE('',*,*,#125,.F.);
#157=ORIENTED_EDGE('',*,*,#119,.T.);
#158=ORIENTED_EDGE('',*,*,#126,.T.);
#159=ORIENTED_EDGE('',*,*,#127,.T.);
#160=ORIENTED_EDGE('',*,*,#128,.T.);
#161=ORIENTED_EDGE('',*,*,#129,.T.);
#162=ORIENTED_EDGE('',*,*,#130,.T.);
#163=ORIENTED_EDGE('',*,*,#131,.T.);
#164=ORIENTED_EDGE('',*,*,#132,.T.);
#165=ORIENTED_EDGE('',*,*,#122,.T.);
#166=ORIENTED_EDGE('',*,*,#123,.T.);
#167=ORIENTED_EDGE('',*,*,#133,.F.);
#168=ORIENTED_EDGE('',*,*,#134,.F.);
#169=ORIENTED_EDGE('',*,*,#135,.T.);
#170=ORIENTED_EDGE('',*,*,#126,.F.);
#171=ORIENTED_EDGE('',*,*,#136,.F.);
#172=ORIENTED_EDGE('',*,*,#137,.F.);
#173=ORIENTED_EDGE('',*,*,#131,.F.);
#174=ORIENTED_EDGE('',*,*,#138,.F.);
#175=ORIENTED_EDGE('',*,*,#139,.F.);
#176=ORIENTED_EDGE('',*,*,#138,.T.);
#177=ORIENTED_EDGE('',*,*,#130,.F.);
#178=ORIENTED_EDGE('',*,*,#140,.F.);
#179=ORIENTED_EDGE('',*,*,#141,.F.);
#180=ORIENTED_EDGE('',*,*,#142,.T.);
#181=ORIENTED_EDGE('',*,*,#127,.F.);
#182=ORIENTED_EDGE('',*,*,#135,.F.);
#183=ORIENTED_EDGE('',*,*,#143,.F.);
#184=ORIENTED_EDGE('',*,*,#144,.F.);
#185=ORIENTED_EDGE('',*,*,#128,.F.);
#186=ORIENTED_EDGE('',*,*,#142,.F.);
#187=ORIENTED_EDGE('',*,*,#120,.T.);
#188=ORIENTED_EDGE('',*,*,#132,.F.);
#189=ORIENTED_EDGE('',*,*,#137,.T.);
#190=ORIENTED_EDGE('',*,*,#145,.F.);
#191=ORIENTED_EDGE('',*,*,#146,.T.);
#192=ORIENTED_EDGE('',*,*,#124,.T.);
#193=ORIENTED_EDGE('',*,*,#140,.T.);
#194=ORIENTED_EDGE('',*,*,#129,.F.);
#195=ORIENTED_EDGE('',*,*,#144,.T.);
#196=ORIENTED_EDGE('',*,*,#147,.F.);
#197=ORIENTED_EDGE('',*,*,#125,.T.);
#198=ORIENTED_EDGE('',*,*,#146,.F.);
#199=ORIENTED_EDGE('',*,*,#148,.F.);
#200=ORIENTED_EDGE('',*,*,#133,.T.);
#201=ORIENTED_EDGE('',*,*,#139,.T.);
#202=ORIENTED_EDGE('',*,*,#147,.T.);
#203=ORIENTED_EDGE('',*,*,#143,.T.);
#204=ORIENTED_EDGE('',*,*,#141,.T.);
#205=ORIENTED_EDGE('',*,*,#134,.T.);
#206=ORIENTED_EDGE('',*,*,#148,.T.);
#207=ORIENTED_EDGE('',*,*,#145,.T.);
#208=ORIENTED_EDGE('',*,*,#136,.T.);
#209=PLANE('',#247);
#210=PLANE('',#248);
#211=PLANE('',#249);
#212=PLANE('',#250);
#213=PLANE('',#251);
#214=PLANE('',#252);
#215=PLANE('',#253);
#216=PLANE('',#254);
#217=PLANE('',#255);
#218=PLANE('',#256);
#219=PLANE('',#257);
#220=PLANE('',#258);
#221=ADVANCED_FACE('',(#15),#209,.F.);
#222=ADVANCED_FACE('',(#16),#210,.F.);
#223=ADVANCED_FACE('',(#17),#211,.T.);
#224=ADVANCED_FACE('',(#18),#212,.T.);
#225=ADVANCED_FACE('',(#19),#213,.F.);
#226=ADVANCED_FACE('',(#20),#214,.F.);
#227=ADVANCED_FACE('',(#21),#215,.F.);
#228=ADVANCED_FACE('',(#22),#216,.F.);
#229=ADVANCED_FACE('',(#23),#217,.T.);
#230=ADVANCED_FACE('',(#24),#218,.T.);
#231=ADVANCED_FACE('',(#25),#219,.T.);
#232=ADVANCED_FACE('',(#26),#220,.F.);
#233=CLOSED_SHELL('',(#221,#222,#223,#224,#225,#226,#227,#228,#229,#230,
#231,#232));
#234=DERIVED_UNIT_ELEMENT(#236,1.);
#235=DERIVED_UNIT_ELEMENT(#383,-3.);
#236=(
MASS_UNIT()
NAMED_UNIT(*)
SI_UNIT(.KILO.,.GRAM.)
);
#237=DERIVED_UNIT((#234,#235));
#238=MEASURE_REPRESENTATION_ITEM('density measure',
POSITIVE_RATIO_MEASURE(7850.),#237);
#239=PROPERTY_DEFINITION_REPRESENTATION(#244,#241);
#240=PROPERTY_DEFINITION_REPRESENTATION(#245,#242);
#241=REPRESENTATION('material name',(#243),#380);
#242=REPRESENTATION('density',(#238),#380);
#243=DESCRIPTIVE_REPRESENTATION_ITEM('Acier','Acier');
#244=PROPERTY_DEFINITION('material property','material name',#390);
#245=PROPERTY_DEFINITION('material property','density of part',#390);
#246=AXIS2_PLACEMENT_3D('',#315,#259,#260);
#247=AXIS2_PLACEMENT_3D('',#316,#261,#262);
#248=AXIS2_PLACEMENT_3D('',#325,#267,#268);
#249=AXIS2_PLACEMENT_3D('',#331,#272,#273);
#250=AXIS2_PLACEMENT_3D('',#345,#281,#282);
#251=AXIS2_PLACEMENT_3D('',#351,#286,#287);
#252=AXIS2_PLACEMENT_3D('',#357,#291,#292);
#253=AXIS2_PLACEMENT_3D('',#361,#295,#296);
#254=AXIS2_PLACEMENT_3D('',#365,#299,#300);
#255=AXIS2_PLACEMENT_3D('',#369,#303,#304);
#256=AXIS2_PLACEMENT_3D('',#373,#307,#308);
#257=AXIS2_PLACEMENT_3D('',#375,#310,#311);
#258=AXIS2_PLACEMENT_3D('',#377,#313,#314);
#259=DIRECTION('axis',(0.,0.,1.));
#260=DIRECTION('refdir',(1.,0.,0.));
#261=DIRECTION('center_axis',(-1.,0.,0.));
#262=DIRECTION('ref_axis',(0.,0.,-1.));
#263=DIRECTION('',(0.,0.,-1.));
#264=DIRECTION('',(0.,1.,0.));
#265=DIRECTION('',(0.,0.,-1.));
#266=DIRECTION('',(0.,-1.,0.));
#267=DIRECTION('center_axis',(0.,-1.,0.));
#268=DIRECTION('ref_axis',(0.,0.,-1.));
#269=DIRECTION('',(1.,0.,0.));
#270=DIRECTION('',(-1.,0.,0.));
#271=DIRECTION('',(0.,0.,1.));
#272=DIRECTION('center_axis',(0.,1.,0.));
#273=DIRECTION('ref_axis',(0.,0.,1.));
#274=DIRECTION('',(-1.,0.,0.));
#275=DIRECTION('',(0.,0.,1.));
#276=DIRECTION('',(-1.,0.,0.));
#277=DIRECTION('',(0.,0.,1.));
#278=DIRECTION('',(1.,0.,0.));
#279=DIRECTION('',(0.,0.,1.));
#280=DIRECTION('',(1.,0.,0.));
#281=DIRECTION('center_axis',(0.,0.,-1.));
#282=DIRECTION('ref_axis',(-1.,0.,0.));
#283=DIRECTION('',(0.,1.,0.));
#284=DIRECTION('',(1.,0.,0.));
#285=DIRECTION('',(0.,1.,0.));
#286=DIRECTION('center_axis',(1.,0.,0.));
#287=DIRECTION('ref_axis',(0.,0.,-1.));
#288=DIRECTION('',(0.,0.,-1.));
#289=DIRECTION('',(0.,-1.,0.));
#290=DIRECTION('',(0.,1.,0.));
#291=DIRECTION('center_axis',(0.,0.,-1.));
#292=DIRECTION('ref_axis',(-1.,0.,0.));
#293=DIRECTION('',(-1.,0.,0.));
#294=DIRECTION('',(0.,1.,0.));
#295=DIRECTION('center_axis',(1.,0.,0.));
#296=DIRECTION('ref_axis',(0.,0.,-1.));
#297=DIRECTION('',(0.,0.,-1.));
#298=DIRECTION('',(0.,1.,0.));
#299=DIRECTION('center_axis',(0.,0.,1.));
#300=DIRECTION('ref_axis',(1.,0.,0.));
#301=DIRECTION('',(1.,0.,0.));
#302=DIRECTION('',(0.,-1.,0.));
#303=DIRECTION('center_axis',(0.,0.,1.));
#304=DIRECTION('ref_axis',(1.,0.,0.));
#305=DIRECTION('',(-1.,0.,0.));
#306=DIRECTION('',(0.,1.,0.));
#307=DIRECTION('center_axis',(-1.,0.,0.));
#308=DIRECTION('ref_axis',(0.,0.,1.));
#309=DIRECTION('',(0.,0.,-1.));
#310=DIRECTION('center_axis',(1.,0.,0.));
#311=DIRECTION('ref_axis',(0.,0.,-1.));
#312=DIRECTION('',(0.,0.,1.));
#313=DIRECTION('center_axis',(0.,1.,0.));
#314=DIRECTION('ref_axis',(1.,0.,0.));
#315=CARTESIAN_POINT('',(0.,0.,0.));
#316=CARTESIAN_POINT('Origin',(-85.,8.,15.));
#317=CARTESIAN_POINT('',(-85.,8.,15.));
#318=CARTESIAN_POINT('',(-85.,8.,-15.0000002235174));
#319=CARTESIAN_POINT('',(-85.,8.,7.5));
#320=CARTESIAN_POINT('',(-85.,1.5,15.));
#321=CARTESIAN_POINT('',(-85.,4.,15.));
#322=CARTESIAN_POINT('',(-85.,1.5,-15.0000002235174));
#323=CARTESIAN_POINT('',(-85.,1.5,15.));
#324=CARTESIAN_POINT('',(-85.,4.,-15.));
#325=CARTESIAN_POINT('Origin',(-80.,1.5,-1.11758711174303E-7));
#326=CARTESIAN_POINT('',(-75.,1.5,-15.0000002235174));
#327=CARTESIAN_POINT('',(-77.5,1.5,-15.));
#328=CARTESIAN_POINT('',(-75.,1.5,15.));
#329=CARTESIAN_POINT('',(-102.5,1.5,15.));
#330=CARTESIAN_POINT('',(-75.,1.5,7.49999994412064));
#331=CARTESIAN_POINT('Origin',(-100.,8.,0.));
#332=CARTESIAN_POINT('',(-105.,8.,-15.));
#333=CARTESIAN_POINT('',(-125.,8.,-15.));
#334=CARTESIAN_POINT('',(-105.,8.,-5.));
#335=CARTESIAN_POINT('',(-105.,8.,-2.5));
#336=CARTESIAN_POINT('',(-125.,8.,-5.));
#337=CARTESIAN_POINT('',(-112.5,8.,-5.));
#338=CARTESIAN_POINT('',(-125.,8.,5.));
#339=CARTESIAN_POINT('',(-125.,8.,15.));
#340=CARTESIAN_POINT('',(-105.,8.,5.));
#341=CARTESIAN_POINT('',(-102.5,8.,5.));
#342=CARTESIAN_POINT('',(-105.,8.,15.));
#343=CARTESIAN_POINT('',(-105.,8.,7.5));
#344=CARTESIAN_POINT('',(-75.,8.,15.));
#345=CARTESIAN_POINT('Origin',(-75.,0.,-15.));
#346=CARTESIAN_POINT('',(-75.,0.,-15.));
#347=CARTESIAN_POINT('',(-75.,0.,-15.));
#348=CARTESIAN_POINT('',(-105.,0.,-15.));
#349=CARTESIAN_POINT('',(-125.,0.,-15.));
#350=CARTESIAN_POINT('',(-105.,0.,-15.));
#351=CARTESIAN_POINT('Origin',(-105.,0.,15.));
#352=CARTESIAN_POINT('',(-105.,0.,15.));
#353=CARTESIAN_POINT('',(-105.,0.,5.));
#354=CARTESIAN_POINT('',(-105.,0.,7.5));
#355=CARTESIAN_POINT('',(-105.,0.,15.));
#356=CARTESIAN_POINT('',(-105.,0.,5.));
#357=CARTESIAN_POINT('Origin',(-105.,0.,5.));
#358=CARTESIAN_POINT('',(-125.,0.,5.));
#359=CARTESIAN_POINT('',(-102.5,0.,5.));
#360=CARTESIAN_POINT('',(-125.,0.,5.));
#361=CARTESIAN_POINT('Origin',(-105.,0.,-5.));
#362=CARTESIAN_POINT('',(-105.,0.,-5.));
#363=CARTESIAN_POINT('',(-105.,0.,-2.5));
#364=CARTESIAN_POINT('',(-105.,0.,-5.));
#365=CARTESIAN_POINT('Origin',(-125.,0.,-5.));
#366=CARTESIAN_POINT('',(-125.,0.,-5.));
#367=CARTESIAN_POINT('',(-112.5,0.,-5.));
#368=CARTESIAN_POINT('',(-125.,0.,-5.));
#369=CARTESIAN_POINT('Origin',(-125.,0.,15.));
#370=CARTESIAN_POINT('',(-75.,0.,15.));
#371=CARTESIAN_POINT('',(-75.,0.,15.));
#372=CARTESIAN_POINT('',(-75.,0.,15.));
#373=CARTESIAN_POINT('Origin',(-125.,0.,-15.));
#374=CARTESIAN_POINT('',(-125.,0.,15.));
#375=CARTESIAN_POINT('Origin',(-75.,0.,15.));
#376=CARTESIAN_POINT('',(-75.,0.,-15.));
#377=CARTESIAN_POINT('Origin',(-100.,0.,0.));
#378=UNCERTAINTY_MEASURE_WITH_UNIT(LENGTH_MEASURE(0.01),#382,
'DISTANCE_ACCURACY_VALUE',
'Maximum model space distance between geometric entities at asserted c
onnectivities');
#379=UNCERTAINTY_MEASURE_WITH_UNIT(LENGTH_MEASURE(0.01),#382,
'DISTANCE_ACCURACY_VALUE',
'Maximum model space distance between geometric entities at asserted c
onnectivities');
#380=(
GEOMETRIC_REPRESENTATION_CONTEXT(3)
GLOBAL_UNCERTAINTY_ASSIGNED_CONTEXT((#378))
GLOBAL_UNIT_ASSIGNED_CONTEXT((#382,#384,#385))
REPRESENTATION_CONTEXT('','3D')
);
#381=(
GEOMETRIC_REPRESENTATION_CONTEXT(3)
GLOBAL_UNCERTAINTY_ASSIGNED_CONTEXT((#379))
GLOBAL_UNIT_ASSIGNED_CONTEXT((#382,#384,#385))
REPRESENTATION_CONTEXT('','3D')
);
#382=(
LENGTH_UNIT()
NAMED_UNIT(*)
SI_UNIT(.MILLI.,.METRE.)
);
#383=(
LENGTH_UNIT()
NAMED_UNIT(*)
SI_UNIT($,.METRE.)
);
#384=(
NAMED_UNIT(*)
PLANE_ANGLE_UNIT()
SI_UNIT($,.RADIAN.)
);
#385=(
NAMED_UNIT(*)
SI_UNIT($,.STERADIAN.)
SOLID_ANGLE_UNIT()
);
#386=SHAPE_DEFINITION_REPRESENTATION(#387,#388);
#387=PRODUCT_DEFINITION_SHAPE('',$,#390);
#388=SHAPE_REPRESENTATION('',(#246),#380);
#389=PRODUCT_DEFINITION_CONTEXT('part definition',#394,'design');
#390=PRODUCT_DEFINITION('support_pcb','support_pcb v0',#391,#389);
#391=PRODUCT_DEFINITION_FORMATION('',$,#396);
#392=PRODUCT_RELATED_PRODUCT_CATEGORY('support_pcb v0','support_pcb v0',
(#396));
#393=APPLICATION_PROTOCOL_DEFINITION('international standard',
'automotive_design',2009,#394);
#394=APPLICATION_CONTEXT(
'Core Data for Automotive Mechanical Design Process');
#395=PRODUCT_CONTEXT('part definition',#394,'mechanical');
#396=PRODUCT('support_pcb','support_pcb v0',$,(#395));
#397=PRESENTATION_STYLE_ASSIGNMENT((#398));
#398=SURFACE_STYLE_USAGE(.BOTH.,#399);
#399=SURFACE_SIDE_STYLE('',(#400));
#400=SURFACE_STYLE_FILL_AREA(#401);
#401=FILL_AREA_STYLE('Acier - Satin\X\E9',(#402));
#402=FILL_AREA_STYLE_COLOUR('Acier - Satin\X\E9',#403);
#403=COLOUR_RGB('Acier - Satin\X\E9',0.627450980392157,0.627450980392157,
0.627450980392157);
ENDSEC;
END-ISO-10303-21;
