ISO-10303-21;
HEADER;
/* Generated by software containing ST-Developer
 * from STEP Tools, Inc. (www.steptools.com) 
 */

FILE_DESCRIPTION(
/* description */ (''),
/* implementation_level */ '2;1');

FILE_NAME(
/* name */ 'testTouch.step',
/* time_stamp */ '2026-02-22T15:08:51+01:00',
/* author */ (''),
/* organization */ (''),
/* preprocessor_version */ 'ST-DEVELOPER v20.1',
/* originating_system */ 'Autodesk Translation Framework v14.24.0.0',
/* authorisation */ '');

FILE_SCHEMA (('AUTOMOTIVE_DESIGN { 1 0 10303 214 3 1 1 }'));
ENDSEC;

DATA;
#10=MECHANICAL_DESIGN_GEOMETRIC_PRESENTATION_REPRESENTATION('',(#13),#457);
#11=SHAPE_REPRESENTATION_RELATIONSHIP('SRR','None',#464,#12);
#12=ADVANCED_BREP_SHAPE_REPRESENTATION('',(#14),#456);
#13=STYLED_ITEM('',(#473),#14);
#14=MANIFOLD_SOLID_BREP('Corps1',#281);
#15=FACE_BOUND('',#46,.T.);
#16=FACE_OUTER_BOUND('',#31,.T.);
#17=FACE_OUTER_BOUND('',#32,.T.);
#18=FACE_OUTER_BOUND('',#33,.T.);
#19=FACE_OUTER_BOUND('',#34,.T.);
#20=FACE_OUTER_BOUND('',#35,.T.);
#21=FACE_OUTER_BOUND('',#36,.T.);
#22=FACE_OUTER_BOUND('',#37,.T.);
#23=FACE_OUTER_BOUND('',#38,.T.);
#24=FACE_OUTER_BOUND('',#39,.T.);
#25=FACE_OUTER_BOUND('',#40,.T.);
#26=FACE_OUTER_BOUND('',#41,.T.);
#27=FACE_OUTER_BOUND('',#42,.T.);
#28=FACE_OUTER_BOUND('',#43,.T.);
#29=FACE_OUTER_BOUND('',#44,.T.);
#30=FACE_OUTER_BOUND('',#45,.T.);
#31=EDGE_LOOP('',(#179,#180,#181,#182));
#32=EDGE_LOOP('',(#183,#184,#185,#186));
#33=EDGE_LOOP('',(#187,#188,#189,#190));
#34=EDGE_LOOP('',(#191,#192,#193,#194));
#35=EDGE_LOOP('',(#195,#196,#197,#198,#199,#200,#201,#202));
#36=EDGE_LOOP('',(#203,#204,#205,#206));
#37=EDGE_LOOP('',(#207,#208,#209,#210));
#38=EDGE_LOOP('',(#211,#212,#213,#214));
#39=EDGE_LOOP('',(#215,#216,#217,#218));
#40=EDGE_LOOP('',(#219,#220,#221,#222));
#41=EDGE_LOOP('',(#223,#224,#225,#226));
#42=EDGE_LOOP('',(#227,#228,#229,#230));
#43=EDGE_LOOP('',(#231,#232,#233,#234));
#44=EDGE_LOOP('',(#235,#236,#237,#238));
#45=EDGE_LOOP('',(#239,#240,#241,#242,#243,#244,#245,#246));
#46=EDGE_LOOP('',(#247,#248,#249,#250));
#47=LINE('',#382,#83);
#48=LINE('',#384,#84);
#49=LINE('',#386,#85);
#50=LINE('',#387,#86);
#51=LINE('',#390,#87);
#52=LINE('',#392,#88);
#53=LINE('',#393,#89);
#54=LINE('',#396,#90);
#55=LINE('',#397,#91);
#56=LINE('',#400,#92);
#57=LINE('',#401,#93);
#58=LINE('',#404,#94);
#59=LINE('',#406,#95);
#60=LINE('',#408,#96);
#61=LINE('',#410,#97);
#62=LINE('',#411,#98);
#63=LINE('',#415,#99);
#64=LINE('',#417,#100);
#65=LINE('',#419,#101);
#66=LINE('',#420,#102);
#67=LINE('',#423,#103);
#68=LINE('',#425,#104);
#69=LINE('',#426,#105);
#70=LINE('',#429,#106);
#71=LINE('',#431,#107);
#72=LINE('',#432,#108);
#73=LINE('',#434,#109);
#74=LINE('',#435,#110);
#75=LINE('',#439,#111);
#76=LINE('',#441,#112);
#77=LINE('',#442,#113);
#78=LINE('',#445,#114);
#79=LINE('',#447,#115);
#80=LINE('',#448,#116);
#81=LINE('',#450,#117);
#82=LINE('',#451,#118);
#83=VECTOR('',#314,10.);
#84=VECTOR('',#315,10.);
#85=VECTOR('',#316,10.);
#86=VECTOR('',#317,10.);
#87=VECTOR('',#320,10.);
#88=VECTOR('',#321,10.);
#89=VECTOR('',#322,10.);
#90=VECTOR('',#325,10.);
#91=VECTOR('',#326,10.);
#92=VECTOR('',#329,10.);
#93=VECTOR('',#330,10.);
#94=VECTOR('',#333,10.);
#95=VECTOR('',#334,10.);
#96=VECTOR('',#335,10.);
#97=VECTOR('',#336,10.);
#98=VECTOR('',#337,10.);
#99=VECTOR('',#340,10.);
#100=VECTOR('',#341,10.);
#101=VECTOR('',#342,10.);
#102=VECTOR('',#343,10.);
#103=VECTOR('',#346,10.);
#104=VECTOR('',#347,10.);
#105=VECTOR('',#348,10.);
#106=VECTOR('',#351,10.);
#107=VECTOR('',#352,10.);
#108=VECTOR('',#353,10.);
#109=VECTOR('',#356,10.);
#110=VECTOR('',#357,10.);
#111=VECTOR('',#362,10.);
#112=VECTOR('',#363,10.);
#113=VECTOR('',#364,10.);
#114=VECTOR('',#367,10.);
#115=VECTOR('',#368,10.);
#116=VECTOR('',#369,10.);
#117=VECTOR('',#372,10.);
#118=VECTOR('',#373,10.);
#119=VERTEX_POINT('',#380);
#120=VERTEX_POINT('',#381);
#121=VERTEX_POINT('',#383);
#122=VERTEX_POINT('',#385);
#123=VERTEX_POINT('',#389);
#124=VERTEX_POINT('',#391);
#125=VERTEX_POINT('',#395);
#126=VERTEX_POINT('',#399);
#127=VERTEX_POINT('',#403);
#128=VERTEX_POINT('',#405);
#129=VERTEX_POINT('',#407);
#130=VERTEX_POINT('',#409);
#131=VERTEX_POINT('',#413);
#132=VERTEX_POINT('',#414);
#133=VERTEX_POINT('',#416);
#134=VERTEX_POINT('',#418);
#135=VERTEX_POINT('',#422);
#136=VERTEX_POINT('',#424);
#137=VERTEX_POINT('',#428);
#138=VERTEX_POINT('',#430);
#139=VERTEX_POINT('',#438);
#140=VERTEX_POINT('',#440);
#141=VERTEX_POINT('',#444);
#142=VERTEX_POINT('',#446);
#143=EDGE_CURVE('',#119,#120,#47,.T.);
#144=EDGE_CURVE('',#121,#119,#48,.T.);
#145=EDGE_CURVE('',#121,#122,#49,.T.);
#146=EDGE_CURVE('',#122,#120,#50,.T.);
#147=EDGE_CURVE('',#120,#123,#51,.T.);
#148=EDGE_CURVE('',#124,#122,#52,.T.);
#149=EDGE_CURVE('',#123,#124,#53,.T.);
#150=EDGE_CURVE('',#125,#121,#54,.T.);
#151=EDGE_CURVE('',#125,#124,#55,.T.);
#152=EDGE_CURVE('',#123,#126,#56,.T.);
#153=EDGE_CURVE('',#126,#125,#57,.T.);
#154=EDGE_CURVE('',#127,#126,#58,.T.);
#155=EDGE_CURVE('',#127,#128,#59,.T.);
#156=EDGE_CURVE('',#129,#128,#60,.T.);
#157=EDGE_CURVE('',#130,#129,#61,.T.);
#158=EDGE_CURVE('',#119,#130,#62,.T.);
#159=EDGE_CURVE('',#131,#132,#63,.T.);
#160=EDGE_CURVE('',#131,#133,#64,.T.);
#161=EDGE_CURVE('',#133,#134,#65,.T.);
#162=EDGE_CURVE('',#132,#134,#66,.T.);
#163=EDGE_CURVE('',#135,#131,#67,.T.);
#164=EDGE_CURVE('',#135,#136,#68,.T.);
#165=EDGE_CURVE('',#136,#133,#69,.T.);
#166=EDGE_CURVE('',#137,#135,#70,.T.);
#167=EDGE_CURVE('',#137,#138,#71,.T.);
#168=EDGE_CURVE('',#138,#136,#72,.T.);
#169=EDGE_CURVE('',#132,#137,#73,.T.);
#170=EDGE_CURVE('',#134,#138,#74,.T.);
#171=EDGE_CURVE('',#139,#127,#75,.T.);
#172=EDGE_CURVE('',#139,#140,#76,.T.);
#173=EDGE_CURVE('',#128,#140,#77,.T.);
#174=EDGE_CURVE('',#130,#141,#78,.T.);
#175=EDGE_CURVE('',#142,#129,#79,.T.);
#176=EDGE_CURVE('',#141,#142,#80,.T.);
#177=EDGE_CURVE('',#141,#139,#81,.T.);
#178=EDGE_CURVE('',#140,#142,#82,.T.);
#179=ORIENTED_EDGE('',*,*,#143,.F.);
#180=ORIENTED_EDGE('',*,*,#144,.F.);
#181=ORIENTED_EDGE('',*,*,#145,.T.);
#182=ORIENTED_EDGE('',*,*,#146,.T.);
#183=ORIENTED_EDGE('',*,*,#147,.F.);
#184=ORIENTED_EDGE('',*,*,#146,.F.);
#185=ORIENTED_EDGE('',*,*,#148,.F.);
#186=ORIENTED_EDGE('',*,*,#149,.F.);
#187=ORIENTED_EDGE('',*,*,#150,.F.);
#188=ORIENTED_EDGE('',*,*,#151,.T.);
#189=ORIENTED_EDGE('',*,*,#148,.T.);
#190=ORIENTED_EDGE('',*,*,#145,.F.);
#191=ORIENTED_EDGE('',*,*,#152,.F.);
#192=ORIENTED_EDGE('',*,*,#149,.T.);
#193=ORIENTED_EDGE('',*,*,#151,.F.);
#194=ORIENTED_EDGE('',*,*,#153,.F.);
#195=ORIENTED_EDGE('',*,*,#143,.T.);
#196=ORIENTED_EDGE('',*,*,#147,.T.);
#197=ORIENTED_EDGE('',*,*,#152,.T.);
#198=ORIENTED_EDGE('',*,*,#154,.F.);
#199=ORIENTED_EDGE('',*,*,#155,.T.);
#200=ORIENTED_EDGE('',*,*,#156,.F.);
#201=ORIENTED_EDGE('',*,*,#157,.F.);
#202=ORIENTED_EDGE('',*,*,#158,.F.);
#203=ORIENTED_EDGE('',*,*,#159,.F.);
#204=ORIENTED_EDGE('',*,*,#160,.T.);
#205=ORIENTED_EDGE('',*,*,#161,.T.);
#206=ORIENTED_EDGE('',*,*,#162,.F.);
#207=ORIENTED_EDGE('',*,*,#163,.F.);
#208=ORIENTED_EDGE('',*,*,#164,.T.);
#209=ORIENTED_EDGE('',*,*,#165,.T.);
#210=ORIENTED_EDGE('',*,*,#160,.F.);
#211=ORIENTED_EDGE('',*,*,#166,.F.);
#212=ORIENTED_EDGE('',*,*,#167,.T.);
#213=ORIENTED_EDGE('',*,*,#168,.T.);
#214=ORIENTED_EDGE('',*,*,#164,.F.);
#215=ORIENTED_EDGE('',*,*,#169,.F.);
#216=ORIENTED_EDGE('',*,*,#162,.T.);
#217=ORIENTED_EDGE('',*,*,#170,.T.);
#218=ORIENTED_EDGE('',*,*,#167,.F.);
#219=ORIENTED_EDGE('',*,*,#170,.F.);
#220=ORIENTED_EDGE('',*,*,#161,.F.);
#221=ORIENTED_EDGE('',*,*,#165,.F.);
#222=ORIENTED_EDGE('',*,*,#168,.F.);
#223=ORIENTED_EDGE('',*,*,#171,.F.);
#224=ORIENTED_EDGE('',*,*,#172,.T.);
#225=ORIENTED_EDGE('',*,*,#173,.F.);
#226=ORIENTED_EDGE('',*,*,#155,.F.);
#227=ORIENTED_EDGE('',*,*,#174,.F.);
#228=ORIENTED_EDGE('',*,*,#157,.T.);
#229=ORIENTED_EDGE('',*,*,#175,.F.);
#230=ORIENTED_EDGE('',*,*,#176,.F.);
#231=ORIENTED_EDGE('',*,*,#177,.F.);
#232=ORIENTED_EDGE('',*,*,#176,.T.);
#233=ORIENTED_EDGE('',*,*,#178,.F.);
#234=ORIENTED_EDGE('',*,*,#172,.F.);
#235=ORIENTED_EDGE('',*,*,#178,.T.);
#236=ORIENTED_EDGE('',*,*,#175,.T.);
#237=ORIENTED_EDGE('',*,*,#156,.T.);
#238=ORIENTED_EDGE('',*,*,#173,.T.);
#239=ORIENTED_EDGE('',*,*,#144,.T.);
#240=ORIENTED_EDGE('',*,*,#158,.T.);
#241=ORIENTED_EDGE('',*,*,#174,.T.);
#242=ORIENTED_EDGE('',*,*,#177,.T.);
#243=ORIENTED_EDGE('',*,*,#171,.T.);
#244=ORIENTED_EDGE('',*,*,#154,.T.);
#245=ORIENTED_EDGE('',*,*,#153,.T.);
#246=ORIENTED_EDGE('',*,*,#150,.T.);
#247=ORIENTED_EDGE('',*,*,#159,.T.);
#248=ORIENTED_EDGE('',*,*,#169,.T.);
#249=ORIENTED_EDGE('',*,*,#166,.T.);
#250=ORIENTED_EDGE('',*,*,#163,.T.);
#251=PLANE('',#295);
#252=PLANE('',#296);
#253=PLANE('',#297);
#254=PLANE('',#298);
#255=PLANE('',#299);
#256=PLANE('',#300);
#257=PLANE('',#301);
#258=PLANE('',#302);
#259=PLANE('',#303);
#260=PLANE('',#304);
#261=PLANE('',#305);
#262=PLANE('',#306);
#263=PLANE('',#307);
#264=PLANE('',#308);
#265=PLANE('',#309);
#266=ADVANCED_FACE('',(#16),#251,.F.);
#267=ADVANCED_FACE('',(#17),#252,.F.);
#268=ADVANCED_FACE('',(#18),#253,.F.);
#269=ADVANCED_FACE('',(#19),#254,.F.);
#270=ADVANCED_FACE('',(#20),#255,.T.);
#271=ADVANCED_FACE('',(#21),#256,.F.);
#272=ADVANCED_FACE('',(#22),#257,.F.);
#273=ADVANCED_FACE('',(#23),#258,.F.);
#274=ADVANCED_FACE('',(#24),#259,.F.);
#275=ADVANCED_FACE('',(#25),#260,.F.);
#276=ADVANCED_FACE('',(#26),#261,.T.);
#277=ADVANCED_FACE('',(#27),#262,.T.);
#278=ADVANCED_FACE('',(#28),#263,.T.);
#279=ADVANCED_FACE('',(#29),#264,.T.);
#280=ADVANCED_FACE('',(#30,#15),#265,.F.);
#281=CLOSED_SHELL('',(#266,#267,#268,#269,#270,#271,#272,#273,#274,#275,
#276,#277,#278,#279,#280));
#282=DERIVED_UNIT_ELEMENT(#284,1.);
#283=DERIVED_UNIT_ELEMENT(#459,-3.);
#284=(
MASS_UNIT()
NAMED_UNIT(*)
SI_UNIT(.KILO.,.GRAM.)
);
#285=DERIVED_UNIT((#282,#283));
#286=MEASURE_REPRESENTATION_ITEM('density measure',
POSITIVE_RATIO_MEASURE(7850.),#285);
#287=PROPERTY_DEFINITION_REPRESENTATION(#292,#289);
#288=PROPERTY_DEFINITION_REPRESENTATION(#293,#290);
#289=REPRESENTATION('material name',(#291),#456);
#290=REPRESENTATION('density',(#286),#456);
#291=DESCRIPTIVE_REPRESENTATION_ITEM('Acier','Acier');
#292=PROPERTY_DEFINITION('material property','material name',#466);
#293=PROPERTY_DEFINITION('material property','density of part',#466);
#294=AXIS2_PLACEMENT_3D('',#378,#310,#311);
#295=AXIS2_PLACEMENT_3D('',#379,#312,#313);
#296=AXIS2_PLACEMENT_3D('',#388,#318,#319);
#297=AXIS2_PLACEMENT_3D('',#394,#323,#324);
#298=AXIS2_PLACEMENT_3D('',#398,#327,#328);
#299=AXIS2_PLACEMENT_3D('',#402,#331,#332);
#300=AXIS2_PLACEMENT_3D('',#412,#338,#339);
#301=AXIS2_PLACEMENT_3D('',#421,#344,#345);
#302=AXIS2_PLACEMENT_3D('',#427,#349,#350);
#303=AXIS2_PLACEMENT_3D('',#433,#354,#355);
#304=AXIS2_PLACEMENT_3D('',#436,#358,#359);
#305=AXIS2_PLACEMENT_3D('',#437,#360,#361);
#306=AXIS2_PLACEMENT_3D('',#443,#365,#366);
#307=AXIS2_PLACEMENT_3D('',#449,#370,#371);
#308=AXIS2_PLACEMENT_3D('',#452,#374,#375);
#309=AXIS2_PLACEMENT_3D('',#453,#376,#377);
#310=DIRECTION('axis',(0.,0.,1.));
#311=DIRECTION('refdir',(1.,0.,0.));
#312=DIRECTION('center_axis',(1.,0.,0.));
#313=DIRECTION('ref_axis',(0.,0.,-1.));
#314=DIRECTION('',(0.,1.,0.));
#315=DIRECTION('',(0.,0.,-1.));
#316=DIRECTION('',(0.,1.,0.));
#317=DIRECTION('',(0.,0.,-1.));
#318=DIRECTION('center_axis',(0.,1.,0.));
#319=DIRECTION('ref_axis',(0.,0.,1.));
#320=DIRECTION('',(-1.,0.,0.));
#321=DIRECTION('',(1.,0.,0.));
#322=DIRECTION('',(0.,0.,1.));
#323=DIRECTION('center_axis',(0.,0.,1.));
#324=DIRECTION('ref_axis',(1.,0.,0.));
#325=DIRECTION('',(1.,0.,0.));
#326=DIRECTION('',(0.,1.,0.));
#327=DIRECTION('center_axis',(-1.,0.,0.));
#328=DIRECTION('ref_axis',(0.,0.,1.));
#329=DIRECTION('',(0.,-1.,0.));
#330=DIRECTION('',(0.,0.,1.));
#331=DIRECTION('center_axis',(0.,0.,-1.));
#332=DIRECTION('ref_axis',(-1.,0.,0.));
#333=DIRECTION('',(1.,0.,0.));
#334=DIRECTION('',(0.,1.,0.));
#335=DIRECTION('',(-1.,0.,0.));
#336=DIRECTION('',(0.,1.,0.));
#337=DIRECTION('',(1.,0.,0.));
#338=DIRECTION('center_axis',(1.,0.,0.));
#339=DIRECTION('ref_axis',(0.,0.,-1.));
#340=DIRECTION('',(0.,0.,-1.));
#341=DIRECTION('',(0.,1.,0.));
#342=DIRECTION('',(0.,0.,-1.));
#343=DIRECTION('',(0.,1.,0.));
#344=DIRECTION('center_axis',(0.,0.,1.));
#345=DIRECTION('ref_axis',(1.,0.,0.));
#346=DIRECTION('',(1.,0.,0.));
#347=DIRECTION('',(0.,1.,0.));
#348=DIRECTION('',(1.,0.,0.));
#349=DIRECTION('center_axis',(-1.,0.,0.));
#350=DIRECTION('ref_axis',(0.,0.,1.));
#351=DIRECTION('',(0.,0.,1.));
#352=DIRECTION('',(0.,1.,0.));
#353=DIRECTION('',(0.,0.,1.));
#354=DIRECTION('center_axis',(0.,0.,-1.));
#355=DIRECTION('ref_axis',(-1.,0.,0.));
#356=DIRECTION('',(-1.,0.,0.));
#357=DIRECTION('',(-1.,0.,0.));
#358=DIRECTION('center_axis',(0.,1.,0.));
#359=DIRECTION('ref_axis',(0.,0.,1.));
#360=DIRECTION('center_axis',(-1.,0.,0.));
#361=DIRECTION('ref_axis',(0.,0.,1.));
#362=DIRECTION('',(0.,0.,-1.));
#363=DIRECTION('',(0.,1.,0.));
#364=DIRECTION('',(0.,0.,1.));
#365=DIRECTION('center_axis',(1.,0.,0.));
#366=DIRECTION('ref_axis',(0.,0.,-1.));
#367=DIRECTION('',(0.,0.,1.));
#368=DIRECTION('',(0.,0.,-1.));
#369=DIRECTION('',(0.,1.,0.));
#370=DIRECTION('center_axis',(0.,0.,1.));
#371=DIRECTION('ref_axis',(1.,0.,0.));
#372=DIRECTION('',(-1.,0.,0.));
#373=DIRECTION('',(1.,0.,0.));
#374=DIRECTION('center_axis',(0.,1.,0.));
#375=DIRECTION('ref_axis',(0.,0.,1.));
#376=DIRECTION('center_axis',(0.,1.,0.));
#377=DIRECTION('ref_axis',(1.,0.,0.));
#378=CARTESIAN_POINT('',(0.,0.,0.));
#379=CARTESIAN_POINT('Origin',(-5.61723981871143,0.,-8.53645876408165));
#380=CARTESIAN_POINT('',(-5.61723981871143,0.,-15.));
#381=CARTESIAN_POINT('',(-5.61723981871143,1.5,-15.));
#382=CARTESIAN_POINT('',(-5.61723981871143,0.,-15.));
#383=CARTESIAN_POINT('',(-5.61723981871143,0.,-8.53645876408165));
#384=CARTESIAN_POINT('',(-5.61723981871143,0.,-4.26822938204082));
#385=CARTESIAN_POINT('',(-5.61723981871143,1.5,-8.53645876408165));
#386=CARTESIAN_POINT('',(-5.61723981871143,0.,-8.53645876408165));
#387=CARTESIAN_POINT('',(-5.61723981871143,1.5,-8.53645876408165));
#388=CARTESIAN_POINT('Origin',(-6.36723981871143,1.5,-11.7864587640816));
#389=CARTESIAN_POINT('',(-7.11723981871143,1.5,-15.));
#390=CARTESIAN_POINT('',(3.06638009064428,1.5,-15.));
#391=CARTESIAN_POINT('',(-7.11723981871143,1.5,-8.53645876408165));
#392=CARTESIAN_POINT('',(-7.11723981871143,1.5,-8.53645876408165));
#393=CARTESIAN_POINT('',(-7.11723981871143,1.5,-15.0364587640816));
#394=CARTESIAN_POINT('Origin',(-7.11723981871143,0.,-8.53645876408165));
#395=CARTESIAN_POINT('',(-7.11723981871143,0.,-8.53645876408165));
#396=CARTESIAN_POINT('',(-3.55861990935571,0.,-8.53645876408165));
#397=CARTESIAN_POINT('',(-7.11723981871143,0.,-8.53645876408165));
#398=CARTESIAN_POINT('Origin',(-7.11723981871143,0.,-15.0364587640816));
#399=CARTESIAN_POINT('',(-7.11723981871143,0.,-15.));
#400=CARTESIAN_POINT('',(-7.11723981871143,0.,-15.));
#401=CARTESIAN_POINT('',(-7.11723981871143,0.,-7.51822938204082));
#402=CARTESIAN_POINT('Origin',(12.5,0.,-15.));
#403=CARTESIAN_POINT('',(-12.5,0.,-15.));
#404=CARTESIAN_POINT('',(-12.5,0.,-15.));
#405=CARTESIAN_POINT('',(-12.5,2.5,-15.));
#406=CARTESIAN_POINT('',(-12.5,0.,-15.));
#407=CARTESIAN_POINT('',(12.5,2.5,-15.));
#408=CARTESIAN_POINT('',(-12.5,2.5,-15.));
#409=CARTESIAN_POINT('',(12.5,0.,-15.));
#410=CARTESIAN_POINT('',(12.5,0.,-15.));
#411=CARTESIAN_POINT('',(-12.5,0.,-15.));
#412=CARTESIAN_POINT('Origin',(7.5,0.,8.5));
#413=CARTESIAN_POINT('',(7.5,0.,8.5));
#414=CARTESIAN_POINT('',(7.5,0.,-8.5));
#415=CARTESIAN_POINT('',(7.5,0.,4.25));
#416=CARTESIAN_POINT('',(7.5,2.,8.5));
#417=CARTESIAN_POINT('',(7.5,0.,8.5));
#418=CARTESIAN_POINT('',(7.5,2.,-8.5));
#419=CARTESIAN_POINT('',(7.5,2.,-8.5));
#420=CARTESIAN_POINT('',(7.5,0.,-8.5));
#421=CARTESIAN_POINT('Origin',(-7.5,0.,8.5));
#422=CARTESIAN_POINT('',(-7.5,0.,8.5));
#423=CARTESIAN_POINT('',(-3.75,0.,8.5));
#424=CARTESIAN_POINT('',(-7.5,2.,8.5));
#425=CARTESIAN_POINT('',(-7.5,0.,8.5));
#426=CARTESIAN_POINT('',(7.5,2.,8.5));
#427=CARTESIAN_POINT('Origin',(-7.5,0.,-8.5));
#428=CARTESIAN_POINT('',(-7.5,0.,-8.5));
#429=CARTESIAN_POINT('',(-7.5,0.,-4.25));
#430=CARTESIAN_POINT('',(-7.5,2.,-8.5));
#431=CARTESIAN_POINT('',(-7.5,0.,-8.5));
#432=CARTESIAN_POINT('',(-7.5,2.,8.5));
#433=CARTESIAN_POINT('Origin',(7.5,0.,-8.5));
#434=CARTESIAN_POINT('',(3.75,0.,-8.5));
#435=CARTESIAN_POINT('',(-7.5,2.,-8.5));
#436=CARTESIAN_POINT('Origin',(0.,2.,0.));
#437=CARTESIAN_POINT('Origin',(-12.5,0.,-15.));
#438=CARTESIAN_POINT('',(-12.5,0.,15.));
#439=CARTESIAN_POINT('',(-12.5,0.,15.));
#440=CARTESIAN_POINT('',(-12.5,2.5,15.));
#441=CARTESIAN_POINT('',(-12.5,0.,15.));
#442=CARTESIAN_POINT('',(-12.5,2.5,15.));
#443=CARTESIAN_POINT('Origin',(12.5,0.,15.));
#444=CARTESIAN_POINT('',(12.5,0.,15.));
#445=CARTESIAN_POINT('',(12.5,0.,-15.));
#446=CARTESIAN_POINT('',(12.5,2.5,15.));
#447=CARTESIAN_POINT('',(12.5,2.5,-15.));
#448=CARTESIAN_POINT('',(12.5,0.,15.));
#449=CARTESIAN_POINT('Origin',(-12.5,0.,15.));
#450=CARTESIAN_POINT('',(12.5,0.,15.));
#451=CARTESIAN_POINT('',(12.5,2.5,15.));
#452=CARTESIAN_POINT('Origin',(0.,2.5,0.));
#453=CARTESIAN_POINT('Origin',(0.,0.,0.));
#454=UNCERTAINTY_MEASURE_WITH_UNIT(LENGTH_MEASURE(0.01),#458,
'DISTANCE_ACCURACY_VALUE',
'Maximum model space distance between geometric entities at asserted c
onnectivities');
#455=UNCERTAINTY_MEASURE_WITH_UNIT(LENGTH_MEASURE(0.01),#458,
'DISTANCE_ACCURACY_VALUE',
'Maximum model space distance between geometric entities at asserted c
onnectivities');
#456=(
GEOMETRIC_REPRESENTATION_CONTEXT(3)
GLOBAL_UNCERTAINTY_ASSIGNED_CONTEXT((#454))
GLOBAL_UNIT_ASSIGNED_CONTEXT((#458,#460,#461))
REPRESENTATION_CONTEXT('','3D')
);
#457=(
GEOMETRIC_REPRESENTATION_CONTEXT(3)
GLOBAL_UNCERTAINTY_ASSIGNED_CONTEXT((#455))
GLOBAL_UNIT_ASSIGNED_CONTEXT((#458,#460,#461))
REPRESENTATION_CONTEXT('','3D')
);
#458=(
LENGTH_UNIT()
NAMED_UNIT(*)
SI_UNIT(.MILLI.,.METRE.)
);
#459=(
LENGTH_UNIT()
NAMED_UNIT(*)
SI_UNIT($,.METRE.)
);
#460=(
NAMED_UNIT(*)
PLANE_ANGLE_UNIT()
SI_UNIT($,.RADIAN.)
);
#461=(
NAMED_UNIT(*)
SI_UNIT($,.STERADIAN.)
SOLID_ANGLE_UNIT()
);
#462=SHAPE_DEFINITION_REPRESENTATION(#463,#464);
#463=PRODUCT_DEFINITION_SHAPE('',$,#466);
#464=SHAPE_REPRESENTATION('',(#294),#456);
#465=PRODUCT_DEFINITION_CONTEXT('part definition',#470,'design');
#466=PRODUCT_DEFINITION('(Non enregistr\X\E9)','(Non enregistr\X\E9)',#467,
#465);
#467=PRODUCT_DEFINITION_FORMATION('',$,#472);
#468=PRODUCT_RELATED_PRODUCT_CATEGORY('(Non enregistr\X\E9)',
'(Non enregistr\X\E9)',(#472));
#469=APPLICATION_PROTOCOL_DEFINITION('international standard',
'automotive_design',2009,#470);
#470=APPLICATION_CONTEXT(
'Core Data for Automotive Mechanical Design Process');
#471=PRODUCT_CONTEXT('part definition',#470,'mechanical');
#472=PRODUCT('(Non enregistr\X\E9)','(Non enregistr\X\E9)',$,(#471));
#473=PRESENTATION_STYLE_ASSIGNMENT((#474));
#474=SURFACE_STYLE_USAGE(.BOTH.,#475);
#475=SURFACE_SIDE_STYLE('',(#476));
#476=SURFACE_STYLE_FILL_AREA(#477);
#477=FILL_AREA_STYLE('Acier - Satin\X\E9',(#478));
#478=FILL_AREA_STYLE_COLOUR('Acier - Satin\X\E9',#479);
#479=COLOUR_RGB('Acier - Satin\X\E9',0.627450980392157,0.627450980392157,
0.627450980392157);
ENDSEC;
END-ISO-10303-21;
